<?xml version="1.0" encoding="UTF-8" standalone="no"?>
<!DOCTYPE svg PUBLIC "-//W3C//DTD SVG 1.1//EN"
 "http://www.w3.org/Graphics/SVG/1.1/DTD/svg11.dtd">
<!-- Generated by graphviz version 12.2.1 (20241206.2353)
 -->
<!-- Title: TullipApp/ChildDialog.cpp Pages: 1 -->
<svg width="1939pt" height="420pt"
 viewBox="0.00 0.00 1938.62 420.00" xmlns="http://www.w3.org/2000/svg" xmlns:xlink="http://www.w3.org/1999/xlink">
<g id="graph0" class="graph" transform="scale(1 1) rotate(0) translate(4 416)">
<title>TullipApp/ChildDialog.cpp</title>
<!-- Node1 -->
<g id="Node000001" class="node">
<title>Node1</title>
<g id="a_Node000001"><a xlink:title=" ">
<polygon fill="#999999" stroke="#666666" points="560.87,-412 432.37,-412 432.37,-392 560.87,-392 560.87,-412"/>
<text text-anchor="middle" x="496.62" y="-398.5" font-family="Helvetica,sans-Serif" font-size="10.00">TullipApp/ChildDialog.cpp</text>
</a>
</g>
</g>
<!-- Node2 -->
<g id="Node000002" class="node">
<title>Node2</title>
<g id="a_Node000002"><a xlink:href="$_child_dialog_8h.html" xlink:title=" ">
<polygon fill="white" stroke="#666666" points="484.87,-356 410.37,-356 410.37,-336 484.87,-336 484.87,-356"/>
<text text-anchor="middle" x="447.62" y="-342.5" font-family="Helvetica,sans-Serif" font-size="10.00">ChildDialog.h</text>
</a>
</g>
</g>
<!-- Node1&#45;&gt;Node2 -->
<g id="edge1_Node000001_Node000002" class="edge">
<title>Node1&#45;&gt;Node2</title>
<g id="a_edge1_Node000001_Node000002"><a xlink:title=" ">
<path fill="none" stroke="#63b8ff" d="M488.09,-391.59C481.34,-384.16 471.74,-373.58 463.58,-364.58"/>
<polygon fill="#63b8ff" stroke="#63b8ff" points="466.39,-362.47 457.08,-357.42 461.21,-367.18 466.39,-362.47"/>
</a>
</g>
</g>
<!-- Node32 -->
<g id="Node000032" class="node">
<title>Node32</title>
<g id="a_Node000032"><a xlink:title=" ">
<polygon fill="#e0e0e0" stroke="#999999" points="588.12,-356 503.12,-356 503.12,-336 588.12,-336 588.12,-356"/>
<text text-anchor="middle" x="545.62" y="-342.5" font-family="Helvetica,sans-Serif" font-size="10.00">qmessagebox.h</text>
</a>
</g>
</g>
<!-- Node1&#45;&gt;Node32 -->
<g id="edge51_Node000001_Node000032" class="edge">
<title>Node1&#45;&gt;Node32</title>
<g id="a_edge51_Node000001_Node000032"><a xlink:title=" ">
<path fill="none" stroke="#63b8ff" d="M505.16,-391.59C511.9,-384.16 521.51,-373.58 529.67,-364.58"/>
<polygon fill="#63b8ff" stroke="#63b8ff" points="532.04,-367.18 536.17,-357.42 526.86,-362.47 532.04,-367.18"/>
</a>
</g>
</g>
<!-- Node3 -->
<g id="Node000003" class="node">
<title>Node3</title>
<g id="a_Node000003"><a xlink:title=" ">
<polygon fill="#e0e0e0" stroke="#999999" points="365.25,-300 314,-300 314,-280 365.25,-280 365.25,-300"/>
<text text-anchor="middle" x="339.62" y="-286.5" font-family="Helvetica,sans-Serif" font-size="10.00">QDialog</text>
</a>
</g>
</g>
<!-- Node2&#45;&gt;Node3 -->
<g id="edge2_Node000002_Node000003" class="edge">
<title>Node2&#45;&gt;Node3</title>
<g id="a_edge2_Node000002_Node000003"><a xlink:title=" ">
<path fill="none" stroke="#63b8ff" d="M428.81,-335.59C412.26,-327.32 387.91,-315.14 368.83,-305.6"/>
<polygon fill="#63b8ff" stroke="#63b8ff" points="370.44,-302.5 359.94,-301.16 367.31,-308.76 370.44,-302.5"/>
</a>
</g>
</g>
<!-- Node4 -->
<g id="Node000004" class="node">
<title>Node4</title>
<g id="a_Node000004"><a xlink:href="$_person_8h.html" xlink:title="Defines the Person class and its derived classes: Child, Parent, and Employee.">
<polygon fill="white" stroke="#666666" points="421.12,-188 366.12,-188 366.12,-168 421.12,-168 421.12,-188"/>
<text text-anchor="middle" x="393.62" y="-174.5" font-family="Helvetica,sans-Serif" font-size="10.00">Person.h</text>
</a>
</g>
</g>
<!-- Node2&#45;&gt;Node4 -->
<g id="edge3_Node000002_Node000004" class="edge">
<title>Node2&#45;&gt;Node4</title>
<g id="a_edge3_Node000002_Node000004"><a xlink:title=" ">
<path fill="none" stroke="#63b8ff" d="M444.19,-335.58C437.73,-317.78 423.46,-277.94 412.62,-244 407.85,-229.06 402.9,-212.05 399.24,-199.17"/>
<polygon fill="#63b8ff" stroke="#63b8ff" points="402.67,-198.44 396.6,-189.76 395.93,-200.33 402.67,-198.44"/>
</a>
</g>
</g>
<!-- Node18 -->
<g id="Node000018" class="node">
<title>Node18</title>
<g id="a_Node000018"><a xlink:href="$_data_base_8h.html" xlink:title="Defines the Database class for managing lessons, parents, children, and employees.">
<polygon fill="white" stroke="#666666" points="535.5,-300 467.75,-300 467.75,-280 535.5,-280 535.5,-300"/>
<text text-anchor="middle" x="501.62" y="-286.5" font-family="Helvetica,sans-Serif" font-size="10.00">DataBase.h</text>
</a>
</g>
</g>
<!-- Node2&#45;&gt;Node18 -->
<g id="edge25_Node000002_Node000018" class="edge">
<title>Node2&#45;&gt;Node18</title>
<g id="a_edge25_Node000002_Node000018"><a xlink:title=" ">
<path fill="none" stroke="#63b8ff" d="M457.03,-335.59C464.54,-328.08 475.27,-317.35 484.32,-308.3"/>
<polygon fill="#63b8ff" stroke="#63b8ff" points="486.66,-310.91 491.25,-301.37 481.71,-305.96 486.66,-310.91"/>
</a>
</g>
</g>
<!-- Node22 -->
<g id="Node000022" class="node">
<title>Node22</title>
<g id="a_Node000022"><a xlink:href="$ui___child_dialog_8h.html" xlink:title=" ">
<polygon fill="white" stroke="#666666" points="1343.25,-300 1256,-300 1256,-280 1343.25,-280 1343.25,-300"/>
<text text-anchor="middle" x="1299.62" y="-286.5" font-family="Helvetica,sans-Serif" font-size="10.00">ui_ChildDialog.h</text>
</a>
</g>
</g>
<!-- Node2&#45;&gt;Node22 -->
<g id="edge41_Node000002_Node000022" class="edge">
<title>Node2&#45;&gt;Node22</title>
<g id="a_edge41_Node000002_Node000022"><a xlink:title=" ">
<path fill="none" stroke="#63b8ff" d="M485.21,-337.21C488.05,-336.75 490.88,-336.34 493.62,-336 774.4,-300.86 1113.65,-293.16 1244.48,-291.47"/>
<polygon fill="#63b8ff" stroke="#63b8ff" points="1244.28,-294.97 1254.23,-291.35 1244.19,-287.98 1244.28,-294.97"/>
</a>
</g>
</g>
<!-- Node5 -->
<g id="Node000005" class="node">
<title>Node5</title>
<g id="a_Node000005"><a xlink:title=" ">
<polygon fill="#e0e0e0" stroke="#999999" points="205.62,-20 165.62,-20 165.62,0 205.62,0 205.62,-20"/>
<text text-anchor="middle" x="185.62" y="-6.5" font-family="Helvetica,sans-Serif" font-size="10.00">string</text>
</a>
</g>
</g>
<!-- Node4&#45;&gt;Node5 -->
<g id="edge4_Node000004_Node000005" class="edge">
<title>Node4&#45;&gt;Node5</title>
<g id="a_edge4_Node000004_Node000005"><a xlink:title=" ">
<path fill="none" stroke="#63b8ff" d="M365.75,-173.1C335.33,-167.78 286.21,-156.03 250.62,-132 223.93,-113.97 219.67,-104.48 204.62,-76 197.21,-61.98 192.34,-44.69 189.38,-31.46"/>
<polygon fill="#63b8ff" stroke="#63b8ff" points="192.83,-30.86 187.42,-21.76 185.97,-32.25 192.83,-30.86"/>
</a>
</g>
</g>
<!-- Node6 -->
<g id="Node000006" class="node">
<title>Node6</title>
<g id="a_Node000006"><a xlink:title=" ">
<polygon fill="#e0e0e0" stroke="#999999" points="461.25,-132 422,-132 422,-112 461.25,-112 461.25,-132"/>
<text text-anchor="middle" x="441.62" y="-118.5" font-family="Helvetica,sans-Serif" font-size="10.00">utility</text>
</a>
</g>
</g>
<!-- Node4&#45;&gt;Node6 -->
<g id="edge5_Node000004_Node000006" class="edge">
<title>Node4&#45;&gt;Node6</title>
<g id="a_edge5_Node000004_Node000006"><a xlink:title=" ">
<path fill="none" stroke="#63b8ff" d="M401.98,-167.59C408.52,-160.24 417.8,-149.8 425.74,-140.87"/>
<polygon fill="#63b8ff" stroke="#63b8ff" points="428.32,-143.23 432.35,-133.43 423.09,-138.58 428.32,-143.23"/>
</a>
</g>
</g>
<!-- Node7 -->
<g id="Node000007" class="node">
<title>Node7</title>
<g id="a_Node000007"><a xlink:title=" ">
<polygon fill="#e0e0e0" stroke="#999999" points="617.12,-20 574.12,-20 574.12,0 617.12,0 617.12,-20"/>
<text text-anchor="middle" x="595.62" y="-6.5" font-family="Helvetica,sans-Serif" font-size="10.00">vector</text>
</a>
</g>
</g>
<!-- Node4&#45;&gt;Node7 -->
<g id="edge6_Node000004_Node000007" class="edge">
<title>Node4&#45;&gt;Node7</title>
<g id="a_edge6_Node000004_Node000007"><a xlink:title=" ">
<path fill="none" stroke="#63b8ff" d="M393.75,-167.71C394.45,-153.77 397.8,-127.43 412.62,-112 447.38,-75.82 475.98,-100.76 519.62,-76 542.38,-63.09 564.69,-42.85 579.18,-28.39"/>
<polygon fill="#63b8ff" stroke="#63b8ff" points="581.59,-30.93 586.07,-21.33 576.58,-26.04 581.59,-30.93"/>
</a>
</g>
</g>
<!-- Node8 -->
<g id="Node000008" class="node">
<title>Node8</title>
<g id="a_Node000008"><a xlink:title=" ">
<polygon fill="#e0e0e0" stroke="#999999" points="529.5,-132 479.75,-132 479.75,-112 529.5,-112 529.5,-132"/>
<text text-anchor="middle" x="504.62" y="-118.5" font-family="Helvetica,sans-Serif" font-size="10.00">optional</text>
</a>
</g>
</g>
<!-- Node4&#45;&gt;Node8 -->
<g id="edge7_Node000004_Node000008" class="edge">
<title>Node4&#45;&gt;Node8</title>
<g id="a_edge7_Node000004_Node000008"><a xlink:title=" ">
<path fill="none" stroke="#63b8ff" d="M412.96,-167.59C430.04,-159.28 455.23,-147.03 474.88,-137.47"/>
<polygon fill="#63b8ff" stroke="#63b8ff" points="476.31,-140.66 483.78,-133.14 473.25,-134.37 476.31,-140.66"/>
</a>
</g>
</g>
<!-- Node9 -->
<g id="Node000009" class="node">
<title>Node9</title>
<g id="a_Node000009"><a xlink:href="$_date_time_8h.html" xlink:title="Defines classes and utilities for working with dates, times, and combined date&#45;time values.">
<polygon fill="white" stroke="#666666" points="327.12,-132 260.12,-132 260.12,-112 327.12,-112 327.12,-132"/>
<text text-anchor="middle" x="293.62" y="-118.5" font-family="Helvetica,sans-Serif" font-size="10.00">DateTime.h</text>
</a>
</g>
</g>
<!-- Node4&#45;&gt;Node9 -->
<g id="edge8_Node000004_Node000009" class="edge">
<title>Node4&#45;&gt;Node9</title>
<g id="a_edge8_Node000004_Node000009"><a xlink:title=" ">
<path fill="none" stroke="#63b8ff" d="M376.2,-167.59C360.95,-159.36 338.54,-147.26 320.91,-137.74"/>
<polygon fill="#63b8ff" stroke="#63b8ff" points="322.97,-134.87 312.51,-133.2 319.65,-141.03 322.97,-134.87"/>
</a>
</g>
</g>
<!-- Node10 -->
<g id="Node000010" class="node">
<title>Node10</title>
<g id="a_Node000010"><a xlink:href="$_helper___functions_8h.html" xlink:title="Provides utility functions and templates for common operations.">
<polygon fill="white" stroke="#666666" points="511,-76 410.25,-76 410.25,-56 511,-56 511,-76"/>
<text text-anchor="middle" x="460.62" y="-62.5" font-family="Helvetica,sans-Serif" font-size="10.00">Helper_Functions.h</text>
</a>
</g>
</g>
<!-- Node4&#45;&gt;Node10 -->
<g id="edge24_Node000004_Node000010" class="edge">
<title>Node4&#45;&gt;Node10</title>
<g id="a_edge24_Node000004_Node000010"><a xlink:title=" ">
<path fill="none" stroke="#63b8ff" d="M387.61,-167.51C380.04,-154.22 369.2,-129.71 379.62,-112 387.96,-97.83 402.55,-87.8 417.07,-80.87"/>
<polygon fill="#63b8ff" stroke="#63b8ff" points="418.36,-84.13 426.15,-76.95 415.58,-77.7 418.36,-84.13"/>
</a>
</g>
</g>
<!-- Node17 -->
<g id="Node000017" class="node">
<title>Node17</title>
<g id="a_Node000017"><a xlink:href="$_data___helper___types_8h.html" xlink:title="Defines utility classes for managing contact&#45;related data such as email, phone, and address.">
<polygon fill="white" stroke="#666666" points="138.87,-76 28.37,-76 28.37,-56 138.87,-56 138.87,-76"/>
<text text-anchor="middle" x="83.62" y="-62.5" font-family="Helvetica,sans-Serif" font-size="10.00">Data_Helper_Types.h</text>
</a>
</g>
</g>
<!-- Node4&#45;&gt;Node17 -->
<g id="edge22_Node000004_Node000017" class="edge">
<title>Node4&#45;&gt;Node17</title>
<g id="a_edge22_Node000004_Node000017"><a xlink:title=" ">
<path fill="none" stroke="#63b8ff" d="M365.63,-176.8C318.96,-175.41 223.39,-167.96 152.62,-132 130.48,-120.75 110.46,-100.17 97.76,-85.17"/>
<polygon fill="#63b8ff" stroke="#63b8ff" points="100.5,-83 91.48,-77.45 95.07,-87.42 100.5,-83"/>
</a>
</g>
</g>
<!-- Node9&#45;&gt;Node5 -->
<g id="edge21_Node000009_Node000005" class="edge">
<title>Node9&#45;&gt;Node5</title>
<g id="a_edge21_Node000009_Node000005"><a xlink:title=" ">
<path fill="none" stroke="#63b8ff" d="M274.04,-111.65C258.93,-103.72 238.22,-91.23 223.62,-76 210.9,-62.73 200.69,-44.43 194.07,-30.62"/>
<polygon fill="#63b8ff" stroke="#63b8ff" points="197.33,-29.33 190,-21.67 190.95,-32.22 197.33,-29.33"/>
</a>
</g>
</g>
<!-- Node9&#45;&gt;Node10 -->
<g id="edge9_Node000009_Node000010" class="edge">
<title>Node9&#45;&gt;Node10</title>
<g id="a_edge9_Node000009_Node000010"><a xlink:title=" ">
<path fill="none" stroke="#63b8ff" d="M322.71,-111.59C349.84,-102.82 390.55,-89.66 420.72,-79.9"/>
<polygon fill="#63b8ff" stroke="#63b8ff" points="421.43,-83.35 429.87,-76.95 419.27,-76.69 421.43,-83.35"/>
</a>
</g>
</g>
<!-- Node11 -->
<g id="Node000011" class="node">
<title>Node11</title>
<g id="a_Node000011"><a xlink:title=" ">
<polygon fill="#e0e0e0" stroke="#999999" points="405.37,-20 351.87,-20 351.87,0 405.37,0 405.37,-20"/>
<text text-anchor="middle" x="378.62" y="-6.5" font-family="Helvetica,sans-Serif" font-size="10.00">iostream</text>
</a>
</g>
</g>
<!-- Node9&#45;&gt;Node11 -->
<g id="edge20_Node000009_Node000011" class="edge">
<title>Node9&#45;&gt;Node11</title>
<g id="a_edge20_Node000009_Node000011"><a xlink:title=" ">
<path fill="none" stroke="#63b8ff" d="M316.48,-111.55C331.77,-104.09 351.12,-92.21 362.62,-76 371.89,-62.94 375.82,-45.1 377.47,-31.42"/>
<polygon fill="#63b8ff" stroke="#63b8ff" points="380.93,-32.05 378.3,-21.78 373.95,-31.44 380.93,-32.05"/>
</a>
</g>
</g>
<!-- Node15 -->
<g id="Node000015" class="node">
<title>Node15</title>
<g id="a_Node000015"><a xlink:href="$_date_time___exceptions_8h.html" xlink:title="Defines error messages and the DateTimeError exception class for date and time operations.">
<polygon fill="white" stroke="#666666" points="354.12,-76 233.12,-76 233.12,-56 354.12,-56 354.12,-76"/>
<text text-anchor="middle" x="293.62" y="-62.5" font-family="Helvetica,sans-Serif" font-size="10.00">DateTime_Exceptions.h</text>
</a>
</g>
</g>
<!-- Node9&#45;&gt;Node15 -->
<g id="edge16_Node000009_Node000015" class="edge">
<title>Node9&#45;&gt;Node15</title>
<g id="a_edge16_Node000009_Node000015"><a xlink:title=" ">
<path fill="none" stroke="#63b8ff" d="M293.62,-111.59C293.62,-105.01 293.62,-95.96 293.62,-87.73"/>
<polygon fill="#63b8ff" stroke="#63b8ff" points="297.12,-87.81 293.62,-77.81 290.12,-87.81 297.12,-87.81"/>
</a>
</g>
</g>
<!-- Node10&#45;&gt;Node5 -->
<g id="edge11_Node000010_Node000005" class="edge">
<title>Node10&#45;&gt;Node5</title>
<g id="a_edge11_Node000010_Node000005"><a xlink:title=" ">
<path fill="none" stroke="#63b8ff" d="M412.41,-55.53C356.17,-44.49 264.84,-26.55 217.04,-17.17"/>
<polygon fill="#63b8ff" stroke="#63b8ff" points="217.85,-13.76 207.36,-15.27 216.5,-20.63 217.85,-13.76"/>
</a>
</g>
</g>
<!-- Node10&#45;&gt;Node7 -->
<g id="edge12_Node000010_Node000007" class="edge">
<title>Node10&#45;&gt;Node7</title>
<g id="a_edge12_Node000010_Node000007"><a xlink:title=" ">
<path fill="none" stroke="#63b8ff" d="M484.14,-55.59C506.02,-46.84 538.82,-33.72 563.19,-23.97"/>
<polygon fill="#63b8ff" stroke="#63b8ff" points="564.33,-27.29 572.31,-20.32 561.73,-20.79 564.33,-27.29"/>
</a>
</g>
</g>
<!-- Node10&#45;&gt;Node11 -->
<g id="edge10_Node000010_Node000011" class="edge">
<title>Node10&#45;&gt;Node11</title>
<g id="a_edge10_Node000010_Node000011"><a xlink:title=" ">
<path fill="none" stroke="#63b8ff" d="M446.34,-55.59C434.19,-47.59 416.48,-35.93 402.23,-26.54"/>
<polygon fill="#63b8ff" stroke="#63b8ff" points="404.56,-23.89 394.28,-21.31 400.71,-29.73 404.56,-23.89"/>
</a>
</g>
</g>
<!-- Node12 -->
<g id="Node000012" class="node">
<title>Node12</title>
<g id="a_Node000012"><a xlink:title=" ">
<polygon fill="#e0e0e0" stroke="#999999" points="479.5,-20 423.75,-20 423.75,0 479.5,0 479.5,-20"/>
<text text-anchor="middle" x="451.62" y="-6.5" font-family="Helvetica,sans-Serif" font-size="10.00">algorithm</text>
</a>
</g>
</g>
<!-- Node10&#45;&gt;Node12 -->
<g id="edge13_Node000010_Node000012" class="edge">
<title>Node10&#45;&gt;Node12</title>
<g id="a_edge13_Node000010_Node000012"><a xlink:title=" ">
<path fill="none" stroke="#63b8ff" d="M459.05,-55.59C457.95,-48.93 456.41,-39.75 455.03,-31.44"/>
<polygon fill="#63b8ff" stroke="#63b8ff" points="458.52,-31.08 453.42,-21.79 451.61,-32.23 458.52,-31.08"/>
</a>
</g>
</g>
<!-- Node13 -->
<g id="Node000013" class="node">
<title>Node13</title>
<g id="a_Node000013"><a xlink:title=" ">
<polygon fill="#e0e0e0" stroke="#999999" points="555.62,-20 497.62,-20 497.62,0 555.62,0 555.62,-20"/>
<text text-anchor="middle" x="526.62" y="-6.5" font-family="Helvetica,sans-Serif" font-size="10.00">functional</text>
</a>
</g>
</g>
<!-- Node10&#45;&gt;Node13 -->
<g id="edge14_Node000010_Node000013" class="edge">
<title>Node10&#45;&gt;Node13</title>
<g id="a_edge14_Node000010_Node000013"><a xlink:title=" ">
<path fill="none" stroke="#63b8ff" d="M472.12,-55.59C481.58,-47.85 495.23,-36.69 506.49,-27.47"/>
<polygon fill="#63b8ff" stroke="#63b8ff" points="508.56,-30.3 514.09,-21.26 504.13,-24.88 508.56,-30.3"/>
</a>
</g>
</g>
<!-- Node14 -->
<g id="Node000014" class="node">
<title>Node14</title>
<g id="a_Node000014"><a xlink:title=" ">
<polygon fill="#e0e0e0" stroke="#999999" points="689,-20 654.25,-20 654.25,0 689,0 689,-20"/>
<text text-anchor="middle" x="671.62" y="-6.5" font-family="Helvetica,sans-Serif" font-size="10.00">map</text>
</a>
</g>
</g>
<!-- Node10&#45;&gt;Node14 -->
<g id="edge15_Node000010_Node000014" class="edge">
<title>Node10&#45;&gt;Node14</title>
<g id="a_edge15_Node000010_Node000014"><a xlink:title=" ">
<path fill="none" stroke="#63b8ff" d="M497.38,-55.59C538.89,-44.97 605.57,-27.9 643.26,-18.26"/>
<polygon fill="#63b8ff" stroke="#63b8ff" points="643.69,-21.76 652.51,-15.89 641.95,-14.98 643.69,-21.76"/>
</a>
</g>
</g>
<!-- Node15&#45;&gt;Node5 -->
<g id="edge17_Node000015_Node000005" class="edge">
<title>Node15&#45;&gt;Node5</title>
<g id="a_edge17_Node000015_Node000005"><a xlink:title=" ">
<path fill="none" stroke="#63b8ff" d="M274.81,-55.59C258.26,-47.32 233.91,-35.14 214.83,-25.6"/>
<polygon fill="#63b8ff" stroke="#63b8ff" points="216.44,-22.5 205.94,-21.16 213.31,-28.76 216.44,-22.5"/>
</a>
</g>
</g>
<!-- Node15&#45;&gt;Node11 -->
<g id="edge18_Node000015_Node000011" class="edge">
<title>Node15&#45;&gt;Node11</title>
<g id="a_edge18_Node000015_Node000011"><a xlink:title=" ">
<path fill="none" stroke="#63b8ff" d="M308.43,-55.59C321.03,-47.59 339.38,-35.93 354.16,-26.54"/>
<polygon fill="#63b8ff" stroke="#63b8ff" points="355.86,-29.61 362.42,-21.29 352.11,-23.7 355.86,-29.61"/>
</a>
</g>
</g>
<!-- Node16 -->
<g id="Node000016" class="node">
<title>Node16</title>
<g id="a_Node000016"><a xlink:title=" ">
<polygon fill="#e0e0e0" stroke="#999999" points="322.62,-20 264.62,-20 264.62,0 322.62,0 322.62,-20"/>
<text text-anchor="middle" x="293.62" y="-6.5" font-family="Helvetica,sans-Serif" font-size="10.00">exception</text>
</a>
</g>
</g>
<!-- Node15&#45;&gt;Node16 -->
<g id="edge19_Node000015_Node000016" class="edge">
<title>Node15&#45;&gt;Node16</title>
<g id="a_edge19_Node000015_Node000016"><a xlink:title=" ">
<path fill="none" stroke="#63b8ff" d="M293.62,-55.59C293.62,-49.01 293.62,-39.96 293.62,-31.73"/>
<polygon fill="#63b8ff" stroke="#63b8ff" points="297.12,-31.81 293.62,-21.81 290.12,-31.81 297.12,-31.81"/>
</a>
</g>
</g>
<!-- Node17&#45;&gt;Node5 -->
<g id="edge23_Node000017_Node000005" class="edge">
<title>Node17&#45;&gt;Node5</title>
<g id="a_edge23_Node000017_Node000005"><a xlink:title=" ">
<path fill="none" stroke="#63b8ff" d="M101.39,-55.59C116.94,-47.36 139.8,-35.26 157.79,-25.74"/>
<polygon fill="#63b8ff" stroke="#63b8ff" points="159.18,-28.96 166.38,-21.19 155.9,-22.77 159.18,-28.96"/>
</a>
</g>
</g>
<!-- Node18&#45;&gt;Node4 -->
<g id="edge39_Node000018_Node000004" class="edge">
<title>Node18&#45;&gt;Node4</title>
<g id="a_edge39_Node000018_Node000004"><a xlink:title=" ">
<path fill="none" stroke="#63b8ff" d="M501.17,-279.52C500.05,-265.8 496.15,-240.27 482.62,-224 469.61,-208.34 449.77,-197.57 432.12,-190.51"/>
<polygon fill="#63b8ff" stroke="#63b8ff" points="433.51,-187.29 422.92,-187.1 431.08,-193.85 433.51,-187.29"/>
</a>
</g>
</g>
<!-- Node18&#45;&gt;Node5 -->
<g id="edge28_Node000018_Node000005" class="edge">
<title>Node18&#45;&gt;Node5</title>
<g id="a_edge28_Node000018_Node000005"><a xlink:title=" ">
<path fill="none" stroke="#63b8ff" d="M467.58,-285.17C354.82,-272.02 0.62,-226.92 0.62,-179 0.62,-179 0.62,-179 0.62,-121 0.62,-90.9 -1.87,-77.07 19.62,-56 55.79,-20.54 116.92,-12.31 154.04,-10.8"/>
<polygon fill="#63b8ff" stroke="#63b8ff" points="153.77,-14.31 163.68,-10.56 153.59,-7.31 153.77,-14.31"/>
</a>
</g>
</g>
<!-- Node18&#45;&gt;Node7 -->
<g id="edge26_Node000018_Node000007" class="edge">
<title>Node18&#45;&gt;Node7</title>
<g id="a_edge26_Node000018_Node000007"><a xlink:title=" ">
<path fill="none" stroke="#63b8ff" d="M530.59,-279.5C569.45,-264.72 633.62,-232.25 633.62,-179 633.62,-179 633.62,-179 633.62,-121 633.62,-87.77 617.94,-51.85 606.73,-30.4"/>
<polygon fill="#63b8ff" stroke="#63b8ff" points="609.82,-28.76 601.96,-21.66 603.68,-32.12 609.82,-28.76"/>
</a>
</g>
</g>
<!-- Node18&#45;&gt;Node9 -->
<g id="edge40_Node000018_Node000009" class="edge">
<title>Node18&#45;&gt;Node9</title>
<g id="a_edge40_Node000018_Node000009"><a xlink:title=" ">
<path fill="none" stroke="#63b8ff" d="M474.4,-279.52C436.65,-265.14 368.34,-234.46 326.62,-188 314.85,-174.89 306.12,-156.82 300.61,-143.05"/>
<polygon fill="#63b8ff" stroke="#63b8ff" points="303.9,-141.87 297.13,-133.72 297.34,-144.31 303.9,-141.87"/>
</a>
</g>
</g>
<!-- Node18&#45;&gt;Node14 -->
<g id="edge27_Node000018_Node000014" class="edge">
<title>Node18&#45;&gt;Node14</title>
<g id="a_edge27_Node000018_Node000014"><a xlink:title=" ">
<path fill="none" stroke="#63b8ff" d="M535.97,-286.31C595.05,-279.61 709.62,-256.61 709.62,-179 709.62,-179 709.62,-179 709.62,-121 709.62,-87.77 693.94,-51.85 682.73,-30.4"/>
<polygon fill="#63b8ff" stroke="#63b8ff" points="685.82,-28.76 677.96,-21.66 679.68,-32.12 685.82,-28.76"/>
</a>
</g>
</g>
<!-- Node19 -->
<g id="Node000019" class="node">
<title>Node19</title>
<g id="a_Node000019"><a xlink:title=" ">
<polygon fill="#e0e0e0" stroke="#999999" points="787.12,-244 738.12,-244 738.12,-224 787.12,-224 787.12,-244"/>
<text text-anchor="middle" x="762.62" y="-230.5" font-family="Helvetica,sans-Serif" font-size="10.00">fstream</text>
</a>
</g>
</g>
<!-- Node18&#45;&gt;Node19 -->
<g id="edge29_Node000018_Node000019" class="edge">
<title>Node18&#45;&gt;Node19</title>
<g id="a_edge29_Node000018_Node000019"><a xlink:title=" ">
<path fill="none" stroke="#63b8ff" d="M535.91,-282.35C579.58,-273.8 657.32,-258.37 723.62,-244 724.63,-243.78 725.66,-243.56 726.69,-243.33"/>
<polygon fill="#63b8ff" stroke="#63b8ff" points="727.42,-246.75 736.41,-241.15 725.89,-239.92 727.42,-246.75"/>
</a>
</g>
</g>
<!-- Node20 -->
<g id="Node000020" class="node">
<title>Node20</title>
<g id="a_Node000020"><a xlink:title=" ">
<polygon fill="#e0e0e0" stroke="#999999" points="473.25,-244 422,-244 422,-224 473.25,-224 473.25,-244"/>
<text text-anchor="middle" x="447.62" y="-230.5" font-family="Helvetica,sans-Serif" font-size="10.00">memory</text>
</a>
</g>
</g>
<!-- Node18&#45;&gt;Node20 -->
<g id="edge30_Node000018_Node000020" class="edge">
<title>Node18&#45;&gt;Node20</title>
<g id="a_edge30_Node000018_Node000020"><a xlink:title=" ">
<path fill="none" stroke="#63b8ff" d="M492.22,-279.59C484.71,-272.08 473.98,-261.35 464.93,-252.3"/>
<polygon fill="#63b8ff" stroke="#63b8ff" points="467.54,-249.96 457.99,-245.37 462.59,-254.91 467.54,-249.96"/>
</a>
</g>
</g>
<!-- Node21 -->
<g id="Node000021" class="node">
<title>Node21</title>
<g id="a_Node000021"><a xlink:href="$_lesson_8h.html" xlink:title="Defines the Lesson class, which represents a lesson with its associated details.">
<polygon fill="white" stroke="#666666" points="585.5,-244 529.75,-244 529.75,-224 585.5,-224 585.5,-244"/>
<text text-anchor="middle" x="557.62" y="-230.5" font-family="Helvetica,sans-Serif" font-size="10.00">Lesson.h</text>
</a>
</g>
</g>
<!-- Node18&#45;&gt;Node21 -->
<g id="edge31_Node000018_Node000021" class="edge">
<title>Node18&#45;&gt;Node21</title>
<g id="a_edge31_Node000018_Node000021"><a xlink:title=" ">
<path fill="none" stroke="#63b8ff" d="M511.38,-279.59C519.25,-272.01 530.52,-261.13 539.97,-252.02"/>
<polygon fill="#63b8ff" stroke="#63b8ff" points="542.12,-254.81 546.89,-245.35 537.26,-249.77 542.12,-254.81"/>
</a>
</g>
</g>
<!-- Node21&#45;&gt;Node4 -->
<g id="edge37_Node000021_Node000004" class="edge">
<title>Node21&#45;&gt;Node4</title>
<g id="a_edge37_Node000021_Node000004"><a xlink:title=" ">
<path fill="none" stroke="#63b8ff" d="M529.43,-223.72C502.63,-214.89 462.11,-201.55 432.3,-191.73"/>
<polygon fill="#63b8ff" stroke="#63b8ff" points="433.48,-188.44 422.88,-188.64 431.29,-195.09 433.48,-188.44"/>
</a>
</g>
</g>
<!-- Node21&#45;&gt;Node6 -->
<g id="edge33_Node000021_Node000006" class="edge">
<title>Node21&#45;&gt;Node6</title>
<g id="a_edge33_Node000021_Node000006"><a xlink:title=" ">
<path fill="none" stroke="#63b8ff" d="M547.73,-223.62C528.21,-205.11 484.49,-163.65 459.69,-140.13"/>
<polygon fill="#63b8ff" stroke="#63b8ff" points="462.25,-137.74 452.59,-133.4 457.43,-142.82 462.25,-137.74"/>
</a>
</g>
</g>
<!-- Node21&#45;&gt;Node7 -->
<g id="edge32_Node000021_Node000007" class="edge">
<title>Node21&#45;&gt;Node7</title>
<g id="a_edge32_Node000021_Node000007"><a xlink:title=" ">
<path fill="none" stroke="#63b8ff" d="M561.26,-223.84C564.68,-214.85 569.71,-200.68 572.62,-188 585.41,-132.27 591.71,-64.93 594.23,-31.66"/>
<polygon fill="#63b8ff" stroke="#63b8ff" points="597.71,-32.06 594.94,-21.83 590.73,-31.56 597.71,-32.06"/>
</a>
</g>
</g>
<!-- Node21&#45;&gt;Node8 -->
<g id="edge35_Node000021_Node000008" class="edge">
<title>Node21&#45;&gt;Node8</title>
<g id="a_edge35_Node000021_Node000008"><a xlink:title=" ">
<path fill="none" stroke="#63b8ff" d="M553.1,-223.62C544.5,-205.76 525.59,-166.53 514.1,-142.67"/>
<polygon fill="#63b8ff" stroke="#63b8ff" points="517.28,-141.21 509.79,-133.72 510.97,-144.25 517.28,-141.21"/>
</a>
</g>
</g>
<!-- Node21&#45;&gt;Node9 -->
<g id="edge36_Node000021_Node000009" class="edge">
<title>Node21&#45;&gt;Node9</title>
<g id="a_edge36_Node000021_Node000009"><a xlink:title=" ">
<path fill="none" stroke="#63b8ff" d="M529.58,-228.76C481.61,-221.17 386.1,-204.52 356.62,-188 336.13,-176.52 318.08,-156.28 306.62,-141.43"/>
<polygon fill="#63b8ff" stroke="#63b8ff" points="309.44,-139.36 300.68,-133.4 303.81,-143.52 309.44,-139.36"/>
</a>
</g>
</g>
<!-- Node21&#45;&gt;Node10 -->
<g id="edge38_Node000021_Node000010" class="edge">
<title>Node21&#45;&gt;Node10</title>
<g id="a_edge38_Node000021_Node000010"><a xlink:title=" ">
<path fill="none" stroke="#63b8ff" d="M558.72,-223.52C560.73,-201.73 562.81,-147.24 538.62,-112 529.22,-98.31 514.2,-88.23 499.83,-81.13"/>
<polygon fill="#63b8ff" stroke="#63b8ff" points="501.5,-78.05 490.95,-77.1 498.61,-84.42 501.5,-78.05"/>
</a>
</g>
</g>
<!-- Node21&#45;&gt;Node14 -->
<g id="edge34_Node000021_Node000014" class="edge">
<title>Node21&#45;&gt;Node14</title>
<g id="a_edge34_Node000021_Node000014"><a xlink:title=" ">
<path fill="none" stroke="#63b8ff" d="M564.61,-223.56C571.13,-214.6 580.96,-200.66 588.62,-188 617.74,-139.86 624.72,-127.39 647.62,-76 654.22,-61.19 660.52,-43.97 665.01,-30.97"/>
<polygon fill="#63b8ff" stroke="#63b8ff" points="668.21,-32.44 668.1,-21.84 661.58,-30.2 668.21,-32.44"/>
</a>
</g>
</g>
<!-- Node23 -->
<g id="Node000023" class="node">
<title>Node23</title>
<g id="a_Node000023"><a xlink:title=" ">
<polygon fill="#e0e0e0" stroke="#999999" points="893.62,-244 805.62,-244 805.62,-224 893.62,-224 893.62,-244"/>
<text text-anchor="middle" x="849.62" y="-230.5" font-family="Helvetica,sans-Serif" font-size="10.00">QtCore/QVariant</text>
</a>
</g>
</g>
<!-- Node22&#45;&gt;Node23 -->
<g id="edge42_Node000022_Node000023" class="edge">
<title>Node22&#45;&gt;Node23</title>
<g id="a_edge42_Node000022_Node000023"><a xlink:title=" ">
<path fill="none" stroke="#63b8ff" d="M1255.76,-284.83C1184.47,-277.88 1038.79,-262.94 905.09,-244.28"/>
<polygon fill="#63b8ff" stroke="#63b8ff" points="905.73,-240.84 895.34,-242.91 904.75,-247.77 905.73,-240.84"/>
</a>
</g>
</g>
<!-- Node24 -->
<g id="Node000024" class="node">
<title>Node24</title>
<g id="a_Node000024"><a xlink:title=" ">
<polygon fill="#e0e0e0" stroke="#999999" points="1033.12,-244 912.12,-244 912.12,-224 1033.12,-224 1033.12,-244"/>
<text text-anchor="middle" x="972.62" y="-230.5" font-family="Helvetica,sans-Serif" font-size="10.00">QtWidgets/QApplication</text>
</a>
</g>
</g>
<!-- Node22&#45;&gt;Node24 -->
<g id="edge43_Node000022_Node000024" class="edge">
<title>Node22&#45;&gt;Node24</title>
<g id="a_edge43_Node000022_Node000024"><a xlink:title=" ">
<path fill="none" stroke="#63b8ff" d="M1255.52,-281.72C1200.51,-272.63 1105.85,-257 1041.31,-246.34"/>
<polygon fill="#63b8ff" stroke="#63b8ff" points="1041.95,-242.9 1031.52,-244.73 1040.81,-249.81 1041.95,-242.9"/>
</a>
</g>
</g>
<!-- Node25 -->
<g id="Node000025" class="node">
<title>Node25</title>
<g id="a_Node000025"><a xlink:title=" ">
<polygon fill="#e0e0e0" stroke="#999999" points="1172.5,-244 1050.75,-244 1050.75,-224 1172.5,-224 1172.5,-244"/>
<text text-anchor="middle" x="1111.62" y="-230.5" font-family="Helvetica,sans-Serif" font-size="10.00">QtWidgets/QComboBox</text>
</a>
</g>
</g>
<!-- Node22&#45;&gt;Node25 -->
<g id="edge44_Node000022_Node000025" class="edge">
<title>Node22&#45;&gt;Node25</title>
<g id="a_edge44_Node000022_Node000025"><a xlink:title=" ">
<path fill="none" stroke="#63b8ff" d="M1266.88,-279.59C1236.06,-270.74 1189.7,-257.43 1155.66,-247.65"/>
<polygon fill="#63b8ff" stroke="#63b8ff" points="1156.66,-244.29 1146.08,-244.9 1154.73,-251.02 1156.66,-244.29"/>
</a>
</g>
</g>
<!-- Node26 -->
<g id="Node000026" class="node">
<title>Node26</title>
<g id="a_Node000026"><a xlink:title=" ">
<polygon fill="#e0e0e0" stroke="#999999" points="1291,-244 1190.25,-244 1190.25,-224 1291,-224 1291,-244"/>
<text text-anchor="middle" x="1240.62" y="-230.5" font-family="Helvetica,sans-Serif" font-size="10.00">QtWidgets/QDialog</text>
</a>
</g>
</g>
<!-- Node22&#45;&gt;Node26 -->
<g id="edge45_Node000022_Node000026" class="edge">
<title>Node22&#45;&gt;Node26</title>
<g id="a_edge45_Node000022_Node000026"><a xlink:title=" ">
<path fill="none" stroke="#63b8ff" d="M1289.35,-279.59C1281.05,-272.01 1269.18,-261.13 1259.22,-252.02"/>
<polygon fill="#63b8ff" stroke="#63b8ff" points="1261.64,-249.49 1251.9,-245.32 1256.91,-254.65 1261.64,-249.49"/>
</a>
</g>
</g>
<!-- Node27 -->
<g id="Node000027" class="node">
<title>Node27</title>
<g id="a_Node000027"><a xlink:title=" ">
<polygon fill="#e0e0e0" stroke="#999999" points="1410,-244 1309.25,-244 1309.25,-224 1410,-224 1410,-244"/>
<text text-anchor="middle" x="1359.62" y="-230.5" font-family="Helvetica,sans-Serif" font-size="10.00">QtWidgets/QFrame</text>
</a>
</g>
</g>
<!-- Node22&#45;&gt;Node27 -->
<g id="edge46_Node000022_Node000027" class="edge">
<title>Node22&#45;&gt;Node27</title>
<g id="a_edge46_Node000022_Node000027"><a xlink:title=" ">
<path fill="none" stroke="#63b8ff" d="M1310.07,-279.59C1318.59,-271.93 1330.83,-260.91 1341.02,-251.75"/>
<polygon fill="#63b8ff" stroke="#63b8ff" points="1343.07,-254.6 1348.17,-245.31 1338.39,-249.4 1343.07,-254.6"/>
</a>
</g>
</g>
<!-- Node28 -->
<g id="Node000028" class="node">
<title>Node28</title>
<g id="a_Node000028"><a xlink:title=" ">
<polygon fill="#e0e0e0" stroke="#999999" points="1548.75,-244 1428.5,-244 1428.5,-224 1548.75,-224 1548.75,-244"/>
<text text-anchor="middle" x="1488.62" y="-230.5" font-family="Helvetica,sans-Serif" font-size="10.00">QtWidgets/QGridLayout</text>
</a>
</g>
</g>
<!-- Node22&#45;&gt;Node28 -->
<g id="edge47_Node000022_Node000028" class="edge">
<title>Node22&#45;&gt;Node28</title>
<g id="a_edge47_Node000022_Node000028"><a xlink:title=" ">
<path fill="none" stroke="#63b8ff" d="M1332.54,-279.59C1363.66,-270.71 1410.54,-257.31 1444.8,-247.52"/>
<polygon fill="#63b8ff" stroke="#63b8ff" points="1445.34,-251.01 1453.99,-244.9 1443.41,-244.28 1445.34,-251.01"/>
</a>
</g>
</g>
<!-- Node29 -->
<g id="Node000029" class="node">
<title>Node29</title>
<g id="a_Node000029"><a xlink:title=" ">
<polygon fill="#e0e0e0" stroke="#999999" points="1662.75,-244 1566.5,-244 1566.5,-224 1662.75,-224 1662.75,-244"/>
<text text-anchor="middle" x="1614.62" y="-230.5" font-family="Helvetica,sans-Serif" font-size="10.00">QtWidgets/QLabel</text>
</a>
</g>
</g>
<!-- Node22&#45;&gt;Node29 -->
<g id="edge48_Node000022_Node000029" class="edge">
<title>Node22&#45;&gt;Node29</title>
<g id="a_edge48_Node000022_Node000029"><a xlink:title=" ">
<path fill="none" stroke="#63b8ff" d="M1343.42,-281.49C1398.49,-272.05 1493.25,-255.81 1554.92,-245.24"/>
<polygon fill="#63b8ff" stroke="#63b8ff" points="1555.27,-248.73 1564.54,-243.59 1554.09,-241.83 1555.27,-248.73"/>
</a>
</g>
</g>
<!-- Node30 -->
<g id="Node000030" class="node">
<title>Node30</title>
<g id="a_Node000030"><a xlink:title=" ">
<polygon fill="#e0e0e0" stroke="#999999" points="1788.75,-244 1680.5,-244 1680.5,-224 1788.75,-224 1788.75,-244"/>
<text text-anchor="middle" x="1734.62" y="-230.5" font-family="Helvetica,sans-Serif" font-size="10.00">QtWidgets/QLineEdit</text>
</a>
</g>
</g>
<!-- Node22&#45;&gt;Node30 -->
<g id="edge49_Node000022_Node000030" class="edge">
<title>Node22&#45;&gt;Node30</title>
<g id="a_edge49_Node000022_Node000030"><a xlink:title=" ">
<path fill="none" stroke="#63b8ff" d="M1343.47,-284.01C1411.04,-276.24 1544.97,-260.58 1669.12,-244.31"/>
<polygon fill="#63b8ff" stroke="#63b8ff" points="1669.38,-247.8 1678.84,-243.03 1668.46,-240.86 1669.38,-247.8"/>
</a>
</g>
</g>
<!-- Node31 -->
<g id="Node000031" class="node">
<title>Node31</title>
<g id="a_Node000031"><a xlink:title=" ">
<polygon fill="#e0e0e0" stroke="#999999" points="1930.62,-244 1806.62,-244 1806.62,-224 1930.62,-224 1930.62,-244"/>
<text text-anchor="middle" x="1868.62" y="-230.5" font-family="Helvetica,sans-Serif" font-size="10.00">QtWidgets/QPushButton</text>
</a>
</g>
</g>
<!-- Node22&#45;&gt;Node31 -->
<g id="edge50_Node000022_Node000031" class="edge">
<title>Node22&#45;&gt;Node31</title>
<g id="a_edge50_Node000022_Node000031"><a xlink:title=" ">
<path fill="none" stroke="#63b8ff" d="M1343.64,-285.56C1428.67,-278.79 1621.67,-262.87 1794.92,-244.26"/>
<polygon fill="#63b8ff" stroke="#63b8ff" points="1795.23,-247.75 1804.79,-243.19 1794.48,-240.79 1795.23,-247.75"/>
</a>
</g>
</g>
</g>
</svg>
