<?xml version="1.0" encoding="UTF-8" standalone="no"?>
<!DOCTYPE svg PUBLIC "-//W3C//DTD SVG 1.1//EN"
 "http://www.w3.org/Graphics/SVG/1.1/DTD/svg11.dtd">
<!-- Generated by graphviz version 12.2.1 (20241206.2353)
 -->
<!-- Title: TullipApp/ChildDialog.cpp Pages: 1 -->
<!--zoomable 420 -->

<svg id="main" version="1.1" xmlns="http://www.w3.org/2000/svg" xmlns:xlink="http://www.w3.org/1999/xlink" xml:space="preserve" onload="init(evt)">

<style type="text/css"><![CDATA[
.node, .edge {opacity: 0.7;}
.node.selected, .edge.selected {opacity: 1;}
.edge:hover path { stroke: red; }
.edge:hover polygon { stroke: red; fill: red; }
]]></style>

<defs>
  <circle id="rim" cx="0" cy="0" r="7"/>
  <circle id="rim2" cx="0" cy="0" r="3.5"/>
  <g id="zoomPlus">
    <use xlink:href="#rim" fill="#404040"><set attributeName="fill" to="#808080" begin="zoomplus.mouseover" end="zoomplus.mouseout"/></use>
    <path d="M-4,0h8M0,-4v8" fill="none" stroke="white" stroke-width="1.5" pointer-events="none"/>
  </g>
  <g id="zoomMin">
    <use xlink:href="#rim" fill="#404040"><set attributeName="fill" to="#808080" begin="zoomminus.mouseover" end="zoomminus.mouseout"/></use>
    <path d="M-4,0h8" fill="none" stroke="white" stroke-width="1.5" pointer-events="none"/>
  </g>
  <g id="arrowUp" transform="translate(30 24)">
    <use xlink:href="#rim"/>
    <path pointer-events="none" fill="none" stroke="white" stroke-width="1.5" d="M0,-3.0v7 M-2.5,-0.5L0,-3.0L2.5,-0.5"/>
  </g>
  <g id="arrowRight" transform="rotate(90) translate(36 -43)">
    <use xlink:href="#rim"/>
    <path pointer-events="none" fill="none" stroke="white" stroke-width="1.5" d="M0,-3.0v7 M-2.5,-0.5L0,-3.0L2.5,-0.5"/>
  </g>
  <g id="arrowDown" transform="rotate(180) translate(-30 -48)">
    <use xlink:href="#rim"/>
    <path pointer-events="none" fill="none" stroke="white" stroke-width="1.5" d="M0,-3.0v7 M-2.5,-0.5L0,-3.0L2.5,-0.5"/>
  </g>
  <g id="arrowLeft" transform="rotate(270) translate(-36 17)">
    <use xlink:href="#rim"/>
    <path pointer-events="none" fill="none" stroke="white" stroke-width="1.5" d="M0,-3.0v7 M-2.5,-0.5L0,-3.0L2.5,-0.5"/>
  </g>
  <g id="resetDef">
    <use xlink:href="#rim2" fill="#404040"><set attributeName="fill" to="#808080" begin="reset.mouseover" end="reset.mouseout"/></use>
  </g>
</defs>
<script type="application/ecmascript">
var viewWidth = 2044;
var viewHeight = 420;
var sectionId = 'dynsection-0';
</script>
<script type="application/ecmascript" xlink:href="svg.min.js"/>
<svg id="graph" class="graph">
<g id="viewport">
<title>TullipApp/ChildDialog.cpp</title>
<!-- Node1 -->
<g id="Node000001" class="node">
<title>Node1</title>
<g id="a_Node000001"><a xlink:title=" ">
<polygon fill="#999999" stroke="#666666" points="649.87,-412 521.37,-412 521.37,-392 649.87,-392 649.87,-412"/>
<text text-anchor="middle" x="585.62" y="-398.5" font-family="Helvetica,sans-Serif" font-size="10.00">TullipApp/ChildDialog.cpp</text>
</a>
</g>
</g>
<!-- Node2 -->
<g id="Node000002" class="node">
<title>Node2</title>
<g id="a_Node000002"><a xlink:href="_child_dialog_8h.html" target="_top" xlink:title="Defines the ChildDialog class for managing child&#45;related information.">
<polygon fill="white" stroke="#666666" points="573.87,-356 499.37,-356 499.37,-336 573.87,-336 573.87,-356"/>
<text text-anchor="middle" x="536.62" y="-342.5" font-family="Helvetica,sans-Serif" font-size="10.00">ChildDialog.h</text>
</a>
</g>
</g>
<!-- Node1&#45;&gt;Node2 -->
<g id="edge1_Node000001_Node000002" class="edge">
<title>Node1&#45;&gt;Node2</title>
<g id="a_edge1_Node000001_Node000002"><a xlink:title=" ">
<path fill="none" stroke="#63b8ff" d="M577.09,-391.59C570.34,-384.16 560.74,-373.58 552.58,-364.58"/>
<polygon fill="#63b8ff" stroke="#63b8ff" points="555.39,-362.47 546.08,-357.42 550.21,-367.18 555.39,-362.47"/>
</a>
</g>
</g>
<!-- Node32 -->
<g id="Node000032" class="node">
<title>Node32</title>
<g id="a_Node000032"><a xlink:title=" ">
<polygon fill="#e0e0e0" stroke="#999999" points="677.12,-356 592.12,-356 592.12,-336 677.12,-336 677.12,-356"/>
<text text-anchor="middle" x="634.62" y="-342.5" font-family="Helvetica,sans-Serif" font-size="10.00">qmessagebox.h</text>
</a>
</g>
</g>
<!-- Node1&#45;&gt;Node32 -->
<g id="edge52_Node000001_Node000032" class="edge">
<title>Node1&#45;&gt;Node32</title>
<g id="a_edge52_Node000001_Node000032"><a xlink:title=" ">
<path fill="none" stroke="#63b8ff" d="M594.16,-391.59C600.9,-384.16 610.51,-373.58 618.67,-364.58"/>
<polygon fill="#63b8ff" stroke="#63b8ff" points="621.04,-367.18 625.17,-357.42 615.86,-362.47 621.04,-367.18"/>
</a>
</g>
</g>
<!-- Node3 -->
<g id="Node000003" class="node">
<title>Node3</title>
<g id="a_Node000003"><a xlink:title=" ">
<polygon fill="#e0e0e0" stroke="#999999" points="463.25,-300 412,-300 412,-280 463.25,-280 463.25,-300"/>
<text text-anchor="middle" x="437.62" y="-286.5" font-family="Helvetica,sans-Serif" font-size="10.00">QDialog</text>
</a>
</g>
</g>
<!-- Node2&#45;&gt;Node3 -->
<g id="edge2_Node000002_Node000003" class="edge">
<title>Node2&#45;&gt;Node3</title>
<g id="a_edge2_Node000002_Node000003"><a xlink:title=" ">
<path fill="none" stroke="#63b8ff" d="M519.38,-335.59C504.28,-327.36 482.09,-315.26 464.64,-305.74"/>
<polygon fill="#63b8ff" stroke="#63b8ff" points="466.79,-302.92 456.33,-301.2 463.43,-309.07 466.79,-302.92"/>
</a>
</g>
</g>
<!-- Node4 -->
<g id="Node000004" class="node">
<title>Node4</title>
<g id="a_Node000004"><a xlink:href="_person_8h.html" target="_top" xlink:title="Defines the Person class and its derived classes: Child, Parent, and Employee.">
<polygon fill="white" stroke="#666666" points="519.12,-188 464.12,-188 464.12,-168 519.12,-168 519.12,-188"/>
<text text-anchor="middle" x="491.62" y="-174.5" font-family="Helvetica,sans-Serif" font-size="10.00">Person.h</text>
</a>
</g>
</g>
<!-- Node2&#45;&gt;Node4 -->
<g id="edge3_Node000002_Node000004" class="edge">
<title>Node2&#45;&gt;Node4</title>
<g id="a_edge3_Node000002_Node000004"><a xlink:title=" ">
<path fill="none" stroke="#63b8ff" d="M534.07,-335.6C526.99,-309.46 506.93,-235.48 497.14,-199.36"/>
<polygon fill="#63b8ff" stroke="#63b8ff" points="500.53,-198.49 494.54,-189.76 493.78,-200.33 500.53,-198.49"/>
</a>
</g>
</g>
<!-- Node18 -->
<g id="Node000018" class="node">
<title>Node18</title>
<g id="a_Node000018"><a xlink:href="_data_base_8h.html" target="_top" xlink:title="Defines the Database class for managing lessons, parents, children, and employees.">
<polygon fill="white" stroke="#666666" points="616.5,-300 548.75,-300 548.75,-280 616.5,-280 616.5,-300"/>
<text text-anchor="middle" x="582.62" y="-286.5" font-family="Helvetica,sans-Serif" font-size="10.00">DataBase.h</text>
</a>
</g>
</g>
<!-- Node2&#45;&gt;Node18 -->
<g id="edge26_Node000002_Node000018" class="edge">
<title>Node2&#45;&gt;Node18</title>
<g id="a_edge26_Node000002_Node000018"><a xlink:title=" ">
<path fill="none" stroke="#63b8ff" d="M544.64,-335.59C550.9,-328.24 559.8,-317.8 567.4,-308.87"/>
<polygon fill="#63b8ff" stroke="#63b8ff" points="569.9,-311.33 573.72,-301.45 564.57,-306.79 569.9,-311.33"/>
</a>
</g>
</g>
<!-- Node22 -->
<g id="Node000022" class="node">
<title>Node22</title>
<g id="a_Node000022"><a xlink:href="ui___child_dialog_8h.html" target="_top" xlink:title=" ">
<polygon fill="white" stroke="#666666" points="1448.25,-300 1361,-300 1361,-280 1448.25,-280 1448.25,-300"/>
<text text-anchor="middle" x="1404.62" y="-286.5" font-family="Helvetica,sans-Serif" font-size="10.00">ui_ChildDialog.h</text>
</a>
</g>
</g>
<!-- Node2&#45;&gt;Node22 -->
<g id="edge42_Node000002_Node000022" class="edge">
<title>Node2&#45;&gt;Node22</title>
<g id="a_edge42_Node000002_Node000022"><a xlink:title=" ">
<path fill="none" stroke="#63b8ff" d="M574.21,-337.21C577.05,-336.75 579.88,-336.34 582.62,-336 869.67,-300.24 1216.62,-292.9 1349.34,-291.39"/>
<polygon fill="#63b8ff" stroke="#63b8ff" points="1349.29,-294.89 1359.25,-291.28 1349.22,-287.89 1349.29,-294.89"/>
</a>
</g>
</g>
<!-- Node5 -->
<g id="Node000005" class="node">
<title>Node5</title>
<g id="a_Node000005"><a xlink:title=" ">
<polygon fill="#e0e0e0" stroke="#999999" points="428.37,-20 374.87,-20 374.87,0 428.37,0 428.37,-20"/>
<text text-anchor="middle" x="401.62" y="-6.5" font-family="Helvetica,sans-Serif" font-size="10.00">iostream</text>
</a>
</g>
</g>
<!-- Node4&#45;&gt;Node5 -->
<g id="edge4_Node000004_Node000005" class="edge">
<title>Node4&#45;&gt;Node5</title>
<g id="a_edge4_Node000004_Node000005"><a xlink:title=" ">
<path fill="none" stroke="#63b8ff" d="M486.53,-167.6C472.17,-141.12 431.19,-65.54 411.9,-29.96"/>
<polygon fill="#63b8ff" stroke="#63b8ff" points="415.23,-28.75 407.38,-21.63 409.07,-32.09 415.23,-28.75"/>
</a>
</g>
</g>
<!-- Node6 -->
<g id="Node000006" class="node">
<title>Node6</title>
<g id="a_Node000006"><a xlink:title=" ">
<polygon fill="#e0e0e0" stroke="#999999" points="205.62,-20 165.62,-20 165.62,0 205.62,0 205.62,-20"/>
<text text-anchor="middle" x="185.62" y="-6.5" font-family="Helvetica,sans-Serif" font-size="10.00">string</text>
</a>
</g>
</g>
<!-- Node4&#45;&gt;Node6 -->
<g id="edge5_Node000004_Node000006" class="edge">
<title>Node4&#45;&gt;Node6</title>
<g id="a_edge5_Node000004_Node000006"><a xlink:title=" ">
<path fill="none" stroke="#63b8ff" d="M463.63,-176.34C404.92,-173.32 268.89,-157.41 202.62,-76 192.47,-63.53 188.33,-45.65 186.66,-31.8"/>
<polygon fill="#63b8ff" stroke="#63b8ff" points="190.16,-31.67 185.85,-21.99 183.18,-32.24 190.16,-31.67"/>
</a>
</g>
</g>
<!-- Node7 -->
<g id="Node000007" class="node">
<title>Node7</title>
<g id="a_Node000007"><a xlink:title=" ">
<polygon fill="#e0e0e0" stroke="#999999" points="632.25,-132 593,-132 593,-112 632.25,-112 632.25,-132"/>
<text text-anchor="middle" x="612.62" y="-118.5" font-family="Helvetica,sans-Serif" font-size="10.00">utility</text>
</a>
</g>
</g>
<!-- Node4&#45;&gt;Node7 -->
<g id="edge6_Node000004_Node000007" class="edge">
<title>Node4&#45;&gt;Node7</title>
<g id="a_edge6_Node000004_Node000007"><a xlink:title=" ">
<path fill="none" stroke="#63b8ff" d="M512.7,-167.59C531.93,-159.01 560.57,-146.23 582.27,-136.55"/>
<polygon fill="#63b8ff" stroke="#63b8ff" points="583.5,-139.83 591.21,-132.56 580.65,-133.44 583.5,-139.83"/>
</a>
</g>
</g>
<!-- Node8 -->
<g id="Node000008" class="node">
<title>Node8</title>
<g id="a_Node000008"><a xlink:title=" ">
<polygon fill="#e0e0e0" stroke="#999999" points="682.12,-20 639.12,-20 639.12,0 682.12,0 682.12,-20"/>
<text text-anchor="middle" x="660.62" y="-6.5" font-family="Helvetica,sans-Serif" font-size="10.00">vector</text>
</a>
</g>
</g>
<!-- Node4&#45;&gt;Node8 -->
<g id="edge7_Node000004_Node000008" class="edge">
<title>Node4&#45;&gt;Node8</title>
<g id="a_edge7_Node000004_Node000008"><a xlink:title=" ">
<path fill="none" stroke="#63b8ff" d="M493.21,-167.74C495.89,-154.31 502.38,-129.13 515.62,-112 532.64,-89.98 598.38,-48.44 635.22,-26.11"/>
<polygon fill="#63b8ff" stroke="#63b8ff" points="636.72,-29.29 643.48,-21.13 633.11,-23.29 636.72,-29.29"/>
</a>
</g>
</g>
<!-- Node9 -->
<g id="Node000009" class="node">
<title>Node9</title>
<g id="a_Node000009"><a xlink:title=" ">
<polygon fill="#e0e0e0" stroke="#999999" points="574.5,-132 524.75,-132 524.75,-112 574.5,-112 574.5,-132"/>
<text text-anchor="middle" x="549.62" y="-118.5" font-family="Helvetica,sans-Serif" font-size="10.00">optional</text>
</a>
</g>
</g>
<!-- Node4&#45;&gt;Node9 -->
<g id="edge8_Node000004_Node000009" class="edge">
<title>Node4&#45;&gt;Node9</title>
<g id="a_edge8_Node000004_Node000009"><a xlink:title=" ">
<path fill="none" stroke="#63b8ff" d="M501.73,-167.59C509.88,-160.01 521.55,-149.13 531.34,-140.02"/>
<polygon fill="#63b8ff" stroke="#63b8ff" points="533.59,-142.71 538.53,-133.33 528.82,-137.58 533.59,-142.71"/>
</a>
</g>
</g>
<!-- Node10 -->
<g id="Node000010" class="node">
<title>Node10</title>
<g id="a_Node000010"><a xlink:href="_date_time_8h.html" target="_top" xlink:title="Defines classes and utilities for working with dates, times, and combined date&#45;time values.">
<polygon fill="white" stroke="#666666" points="392.12,-132 325.12,-132 325.12,-112 392.12,-112 392.12,-132"/>
<text text-anchor="middle" x="358.62" y="-118.5" font-family="Helvetica,sans-Serif" font-size="10.00">DateTime.h</text>
</a>
</g>
</g>
<!-- Node4&#45;&gt;Node10 -->
<g id="edge9_Node000004_Node000010" class="edge">
<title>Node4&#45;&gt;Node10</title>
<g id="a_edge9_Node000004_Node000010"><a xlink:title=" ">
<path fill="none" stroke="#63b8ff" d="M468.46,-167.59C447.42,-159.05 416.13,-146.35 392.32,-136.68"/>
<polygon fill="#63b8ff" stroke="#63b8ff" points="393.95,-133.57 383.37,-133.05 391.32,-140.05 393.95,-133.57"/>
</a>
</g>
</g>
<!-- Node11 -->
<g id="Node000011" class="node">
<title>Node11</title>
<g id="a_Node000011"><a xlink:href="_helper___functions_8h.html" target="_top" xlink:title="Provides utility functions and templates for common operations.">
<polygon fill="white" stroke="#666666" points="549,-76 448.25,-76 448.25,-56 549,-56 549,-76"/>
<text text-anchor="middle" x="498.62" y="-62.5" font-family="Helvetica,sans-Serif" font-size="10.00">Helper_Functions.h</text>
</a>
</g>
</g>
<!-- Node4&#45;&gt;Node11 -->
<g id="edge25_Node000004_Node000011" class="edge">
<title>Node4&#45;&gt;Node11</title>
<g id="a_edge25_Node000004_Node000011"><a xlink:title=" ">
<path fill="none" stroke="#63b8ff" d="M488.54,-167.71C484.75,-155.07 479.21,-131.76 482.62,-112 484.08,-103.54 486.98,-94.55 489.91,-86.86"/>
<polygon fill="#63b8ff" stroke="#63b8ff" points="493.07,-88.38 493.64,-77.8 486.6,-85.72 493.07,-88.38"/>
</a>
</g>
</g>
<!-- Node17 -->
<g id="Node000017" class="node">
<title>Node17</title>
<g id="a_Node000017"><a xlink:href="_data___helper___types_8h.html" target="_top" xlink:title="Defines utility classes for managing contact&#45;related data such as email, phone, and address.">
<polygon fill="white" stroke="#666666" points="138.87,-76 28.37,-76 28.37,-56 138.87,-56 138.87,-76"/>
<text text-anchor="middle" x="83.62" y="-62.5" font-family="Helvetica,sans-Serif" font-size="10.00">Data_Helper_Types.h</text>
</a>
</g>
</g>
<!-- Node4&#45;&gt;Node17 -->
<g id="edge23_Node000004_Node000017" class="edge">
<title>Node4&#45;&gt;Node17</title>
<g id="a_edge23_Node000004_Node000017"><a xlink:title=" ">
<path fill="none" stroke="#63b8ff" d="M463.68,-175.5C392.8,-171.33 207.72,-158.19 152.62,-132 129.97,-121.23 109.84,-100.26 97.25,-85.04"/>
<polygon fill="#63b8ff" stroke="#63b8ff" points="100.34,-83.29 91.38,-77.63 94.85,-87.64 100.34,-83.29"/>
</a>
</g>
</g>
<!-- Node10&#45;&gt;Node5 -->
<g id="edge21_Node000010_Node000005" class="edge">
<title>Node10&#45;&gt;Node5</title>
<g id="a_edge21_Node000010_Node000005"><a xlink:title=" ">
<path fill="none" stroke="#63b8ff" d="M362.29,-111.62C369.24,-93.84 384.47,-54.88 393.81,-31"/>
<polygon fill="#63b8ff" stroke="#63b8ff" points="397.03,-32.35 397.41,-21.76 390.51,-29.8 397.03,-32.35"/>
</a>
</g>
</g>
<!-- Node10&#45;&gt;Node6 -->
<g id="edge22_Node000010_Node000006" class="edge">
<title>Node10&#45;&gt;Node6</title>
<g id="a_edge22_Node000010_Node000006"><a xlink:title=" ">
<path fill="none" stroke="#63b8ff" d="M324.9,-116.58C295.46,-111.24 252.97,-99.82 223.62,-76 209.05,-64.17 198.87,-45.16 192.74,-30.74"/>
<polygon fill="#63b8ff" stroke="#63b8ff" points="196.14,-29.84 189.23,-21.8 189.62,-32.39 196.14,-29.84"/>
</a>
</g>
</g>
<!-- Node10&#45;&gt;Node11 -->
<g id="edge10_Node000010_Node000011" class="edge">
<title>Node10&#45;&gt;Node11</title>
<g id="a_edge10_Node000010_Node000011"><a xlink:title=" ">
<path fill="none" stroke="#63b8ff" d="M383.01,-111.59C405.26,-103.01 438.39,-90.23 463.49,-80.55"/>
<polygon fill="#63b8ff" stroke="#63b8ff" points="464.56,-83.89 472.63,-77.02 462.04,-77.36 464.56,-83.89"/>
</a>
</g>
</g>
<!-- Node15 -->
<g id="Node000015" class="node">
<title>Node15</title>
<g id="a_Node000015"><a xlink:href="_date_time___exceptions_8h.html" target="_top" xlink:title="Defines error messages and the DateTimeError exception class for date and time operations.">
<polygon fill="white" stroke="#666666" points="354.12,-76 233.12,-76 233.12,-56 354.12,-56 354.12,-76"/>
<text text-anchor="middle" x="293.62" y="-62.5" font-family="Helvetica,sans-Serif" font-size="10.00">DateTime_Exceptions.h</text>
</a>
</g>
</g>
<!-- Node10&#45;&gt;Node15 -->
<g id="edge17_Node000010_Node000015" class="edge">
<title>Node10&#45;&gt;Node15</title>
<g id="a_edge17_Node000010_Node000015"><a xlink:title=" ">
<path fill="none" stroke="#63b8ff" d="M347.3,-111.59C337.98,-103.85 324.54,-92.69 313.45,-83.47"/>
<polygon fill="#63b8ff" stroke="#63b8ff" points="315.91,-80.96 305.98,-77.27 311.43,-86.35 315.91,-80.96"/>
</a>
</g>
</g>
<!-- Node11&#45;&gt;Node5 -->
<g id="edge11_Node000011_Node000005" class="edge">
<title>Node11&#45;&gt;Node5</title>
<g id="a_edge11_Node000011_Node000005"><a xlink:title=" ">
<path fill="none" stroke="#63b8ff" d="M481.73,-55.59C467.07,-47.44 445.6,-35.48 428.58,-26"/>
<polygon fill="#63b8ff" stroke="#63b8ff" points="430.41,-23.02 419.97,-21.22 427.01,-29.14 430.41,-23.02"/>
</a>
</g>
</g>
<!-- Node11&#45;&gt;Node6 -->
<g id="edge12_Node000011_Node000006" class="edge">
<title>Node11&#45;&gt;Node6</title>
<g id="a_edge12_Node000011_Node000006"><a xlink:title=" ">
<path fill="none" stroke="#63b8ff" d="M447.99,-56.26C382.84,-45.02 271.62,-25.84 217.33,-16.47"/>
<polygon fill="#63b8ff" stroke="#63b8ff" points="217.97,-13.03 207.52,-14.78 216.78,-19.93 217.97,-13.03"/>
</a>
</g>
</g>
<!-- Node11&#45;&gt;Node8 -->
<g id="edge13_Node000011_Node000008" class="edge">
<title>Node11&#45;&gt;Node8</title>
<g id="a_edge13_Node000011_Node000008"><a xlink:title=" ">
<path fill="none" stroke="#63b8ff" d="M526.84,-55.59C555.14,-46.16 598.65,-31.66 628.31,-21.77"/>
<polygon fill="#63b8ff" stroke="#63b8ff" points="629.13,-25.19 637.51,-18.71 626.91,-18.55 629.13,-25.19"/>
</a>
</g>
</g>
<!-- Node12 -->
<g id="Node000012" class="node">
<title>Node12</title>
<g id="a_Node000012"><a xlink:title=" ">
<polygon fill="#e0e0e0" stroke="#999999" points="590.5,-20 534.75,-20 534.75,0 590.5,0 590.5,-20"/>
<text text-anchor="middle" x="562.62" y="-6.5" font-family="Helvetica,sans-Serif" font-size="10.00">algorithm</text>
</a>
</g>
</g>
<!-- Node11&#45;&gt;Node12 -->
<g id="edge14_Node000011_Node000012" class="edge">
<title>Node11&#45;&gt;Node12</title>
<g id="a_edge14_Node000011_Node000012"><a xlink:title=" ">
<path fill="none" stroke="#63b8ff" d="M509.77,-55.59C518.95,-47.85 532.18,-36.69 543.1,-27.47"/>
<polygon fill="#63b8ff" stroke="#63b8ff" points="545.06,-30.4 550.45,-21.27 540.55,-25.05 545.06,-30.4"/>
</a>
</g>
</g>
<!-- Node13 -->
<g id="Node000013" class="node">
<title>Node13</title>
<g id="a_Node000013"><a xlink:title=" ">
<polygon fill="#e0e0e0" stroke="#999999" points="516.62,-20 458.62,-20 458.62,0 516.62,0 516.62,-20"/>
<text text-anchor="middle" x="487.62" y="-6.5" font-family="Helvetica,sans-Serif" font-size="10.00">functional</text>
</a>
</g>
</g>
<!-- Node11&#45;&gt;Node13 -->
<g id="edge15_Node000011_Node000013" class="edge">
<title>Node11&#45;&gt;Node13</title>
<g id="a_edge15_Node000011_Node000013"><a xlink:title=" ">
<path fill="none" stroke="#63b8ff" d="M496.71,-55.59C495.35,-48.93 493.48,-39.75 491.79,-31.44"/>
<polygon fill="#63b8ff" stroke="#63b8ff" points="495.24,-30.88 489.82,-21.78 488.39,-32.28 495.24,-30.88"/>
</a>
</g>
</g>
<!-- Node14 -->
<g id="Node000014" class="node">
<title>Node14</title>
<g id="a_Node000014"><a xlink:title=" ">
<polygon fill="#e0e0e0" stroke="#999999" points="754,-20 719.25,-20 719.25,0 754,0 754,-20"/>
<text text-anchor="middle" x="736.62" y="-6.5" font-family="Helvetica,sans-Serif" font-size="10.00">map</text>
</a>
</g>
</g>
<!-- Node11&#45;&gt;Node14 -->
<g id="edge16_Node000011_Node000014" class="edge">
<title>Node11&#45;&gt;Node14</title>
<g id="a_edge16_Node000011_Node000014"><a xlink:title=" ">
<path fill="none" stroke="#63b8ff" d="M540.35,-55.53C588.38,-44.63 666,-27.02 707.79,-17.54"/>
<polygon fill="#63b8ff" stroke="#63b8ff" points="708.36,-21 717.33,-15.38 706.81,-14.18 708.36,-21"/>
</a>
</g>
</g>
<!-- Node15&#45;&gt;Node5 -->
<g id="edge19_Node000015_Node000005" class="edge">
<title>Node15&#45;&gt;Node5</title>
<g id="a_edge19_Node000015_Node000005"><a xlink:title=" ">
<path fill="none" stroke="#63b8ff" d="M312.43,-55.59C328.98,-47.32 353.33,-35.14 372.41,-25.6"/>
<polygon fill="#63b8ff" stroke="#63b8ff" points="373.93,-28.76 381.31,-21.16 370.8,-22.5 373.93,-28.76"/>
</a>
</g>
</g>
<!-- Node15&#45;&gt;Node6 -->
<g id="edge18_Node000015_Node000006" class="edge">
<title>Node15&#45;&gt;Node6</title>
<g id="a_edge18_Node000015_Node000006"><a xlink:title=" ">
<path fill="none" stroke="#63b8ff" d="M274.81,-55.59C258.26,-47.32 233.91,-35.14 214.83,-25.6"/>
<polygon fill="#63b8ff" stroke="#63b8ff" points="216.44,-22.5 205.94,-21.16 213.31,-28.76 216.44,-22.5"/>
</a>
</g>
</g>
<!-- Node16 -->
<g id="Node000016" class="node">
<title>Node16</title>
<g id="a_Node000016"><a xlink:title=" ">
<polygon fill="#e0e0e0" stroke="#999999" points="322.62,-20 264.62,-20 264.62,0 322.62,0 322.62,-20"/>
<text text-anchor="middle" x="293.62" y="-6.5" font-family="Helvetica,sans-Serif" font-size="10.00">exception</text>
</a>
</g>
</g>
<!-- Node15&#45;&gt;Node16 -->
<g id="edge20_Node000015_Node000016" class="edge">
<title>Node15&#45;&gt;Node16</title>
<g id="a_edge20_Node000015_Node000016"><a xlink:title=" ">
<path fill="none" stroke="#63b8ff" d="M293.62,-55.59C293.62,-49.01 293.62,-39.96 293.62,-31.73"/>
<polygon fill="#63b8ff" stroke="#63b8ff" points="297.12,-31.81 293.62,-21.81 290.12,-31.81 297.12,-31.81"/>
</a>
</g>
</g>
<!-- Node17&#45;&gt;Node6 -->
<g id="edge24_Node000017_Node000006" class="edge">
<title>Node17&#45;&gt;Node6</title>
<g id="a_edge24_Node000017_Node000006"><a xlink:title=" ">
<path fill="none" stroke="#63b8ff" d="M101.39,-55.59C116.94,-47.36 139.8,-35.26 157.79,-25.74"/>
<polygon fill="#63b8ff" stroke="#63b8ff" points="159.18,-28.96 166.38,-21.19 155.9,-22.77 159.18,-28.96"/>
</a>
</g>
</g>
<!-- Node18&#45;&gt;Node4 -->
<g id="edge40_Node000018_Node000004" class="edge">
<title>Node18&#45;&gt;Node4</title>
<g id="a_edge40_Node000018_Node000004"><a xlink:title=" ">
<path fill="none" stroke="#63b8ff" d="M574.86,-279.62C559.75,-261.36 526.15,-220.73 506.57,-197.07"/>
<polygon fill="#63b8ff" stroke="#63b8ff" points="509.4,-195 500.33,-189.52 504,-199.46 509.4,-195"/>
</a>
</g>
</g>
<!-- Node18&#45;&gt;Node6 -->
<g id="edge29_Node000018_Node000006" class="edge">
<title>Node18&#45;&gt;Node6</title>
<g id="a_edge29_Node000018_Node000006"><a xlink:title=" ">
<path fill="none" stroke="#63b8ff" d="M548.39,-286.19C423.63,-275.5 0.62,-235.11 0.62,-179 0.62,-179 0.62,-179 0.62,-121 0.62,-90.9 -1.87,-77.07 19.62,-56 55.79,-20.54 116.92,-12.31 154.04,-10.8"/>
<polygon fill="#63b8ff" stroke="#63b8ff" points="153.77,-14.31 163.68,-10.56 153.59,-7.31 153.77,-14.31"/>
</a>
</g>
</g>
<!-- Node18&#45;&gt;Node8 -->
<g id="edge27_Node000018_Node000008" class="edge">
<title>Node18&#45;&gt;Node8</title>
<g id="a_edge27_Node000018_Node000008"><a xlink:title=" ">
<path fill="none" stroke="#63b8ff" d="M616.95,-284.99C672.17,-276.42 774.62,-250.84 774.62,-179 774.62,-179 774.62,-179 774.62,-121 774.62,-75.14 726.25,-42.35 692.53,-25.06"/>
<polygon fill="#63b8ff" stroke="#63b8ff" points="694.48,-22.12 683.96,-20.87 691.4,-28.41 694.48,-22.12"/>
</a>
</g>
</g>
<!-- Node18&#45;&gt;Node10 -->
<g id="edge41_Node000018_Node000010" class="edge">
<title>Node18&#45;&gt;Node10</title>
<g id="a_edge41_Node000018_Node000010"><a xlink:title=" ">
<path fill="none" stroke="#63b8ff" d="M562.66,-279.63C529.77,-263.63 463.02,-228.8 414.62,-188 398.13,-174.09 382.37,-155.12 371.8,-141.26"/>
<polygon fill="#63b8ff" stroke="#63b8ff" points="374.76,-139.37 365.98,-133.43 369.14,-143.54 374.76,-139.37"/>
</a>
</g>
</g>
<!-- Node18&#45;&gt;Node14 -->
<g id="edge28_Node000018_Node000014" class="edge">
<title>Node18&#45;&gt;Node14</title>
<g id="a_edge28_Node000018_Node000014"><a xlink:title=" ">
<path fill="none" stroke="#63b8ff" d="M616.56,-287.88C680.54,-283.76 812.62,-264.87 812.62,-179 812.62,-179 812.62,-179 812.62,-121 812.62,-82.24 780.28,-47.24 757.8,-27.59"/>
<polygon fill="#63b8ff" stroke="#63b8ff" points="760.25,-25.08 750.33,-21.34 755.75,-30.44 760.25,-25.08"/>
</a>
</g>
</g>
<!-- Node19 -->
<g id="Node000019" class="node">
<title>Node19</title>
<g id="a_Node000019"><a xlink:title=" ">
<polygon fill="#e0e0e0" stroke="#999999" points="607.12,-244 558.12,-244 558.12,-224 607.12,-224 607.12,-244"/>
<text text-anchor="middle" x="582.62" y="-230.5" font-family="Helvetica,sans-Serif" font-size="10.00">fstream</text>
</a>
</g>
</g>
<!-- Node18&#45;&gt;Node19 -->
<g id="edge30_Node000018_Node000019" class="edge">
<title>Node18&#45;&gt;Node19</title>
<g id="a_edge30_Node000018_Node000019"><a xlink:title=" ">
<path fill="none" stroke="#63b8ff" d="M582.62,-279.59C582.62,-273.01 582.62,-263.96 582.62,-255.73"/>
<polygon fill="#63b8ff" stroke="#63b8ff" points="586.12,-255.81 582.62,-245.81 579.12,-255.81 586.12,-255.81"/>
</a>
</g>
</g>
<!-- Node20 -->
<g id="Node000020" class="node">
<title>Node20</title>
<g id="a_Node000020"><a xlink:title=" ">
<polygon fill="#e0e0e0" stroke="#999999" points="892.25,-244 841,-244 841,-224 892.25,-224 892.25,-244"/>
<text text-anchor="middle" x="866.62" y="-230.5" font-family="Helvetica,sans-Serif" font-size="10.00">memory</text>
</a>
</g>
</g>
<!-- Node18&#45;&gt;Node20 -->
<g id="edge31_Node000018_Node000020" class="edge">
<title>Node18&#45;&gt;Node20</title>
<g id="a_edge31_Node000018_Node000020"><a xlink:title=" ">
<path fill="none" stroke="#63b8ff" d="M616.65,-283.16C663.88,-274.95 751.93,-259.29 826.62,-244 827.63,-243.79 828.65,-243.58 829.68,-243.37"/>
<polygon fill="#63b8ff" stroke="#63b8ff" points="830.32,-246.81 839.35,-241.28 828.84,-239.97 830.32,-246.81"/>
</a>
</g>
</g>
<!-- Node21 -->
<g id="Node000021" class="node">
<title>Node21</title>
<g id="a_Node000021"><a xlink:href="_lesson_8h.html" target="_top" xlink:title="Defines the Lesson class, which represents a lesson with its associated details.">
<polygon fill="white" stroke="#666666" points="680.5,-244 624.75,-244 624.75,-224 680.5,-224 680.5,-244"/>
<text text-anchor="middle" x="652.62" y="-230.5" font-family="Helvetica,sans-Serif" font-size="10.00">Lesson.h</text>
</a>
</g>
</g>
<!-- Node18&#45;&gt;Node21 -->
<g id="edge32_Node000018_Node000021" class="edge">
<title>Node18&#45;&gt;Node21</title>
<g id="a_edge32_Node000018_Node000021"><a xlink:title=" ">
<path fill="none" stroke="#63b8ff" d="M594.82,-279.59C604.95,-271.77 619.61,-260.46 631.63,-251.19"/>
<polygon fill="#63b8ff" stroke="#63b8ff" points="633.59,-254.1 639.37,-245.22 629.32,-248.56 633.59,-254.1"/>
</a>
</g>
</g>
<!-- Node21&#45;&gt;Node4 -->
<g id="edge38_Node000021_Node000004" class="edge">
<title>Node21&#45;&gt;Node4</title>
<g id="a_edge38_Node000021_Node000004"><a xlink:title=" ">
<path fill="none" stroke="#63b8ff" d="M624.58,-223.59C598.46,-214.83 559.28,-201.69 530.21,-191.94"/>
<polygon fill="#63b8ff" stroke="#63b8ff" points="531.64,-188.73 521.05,-188.87 529.42,-195.37 531.64,-188.73"/>
</a>
</g>
</g>
<!-- Node21&#45;&gt;Node7 -->
<g id="edge34_Node000021_Node000007" class="edge">
<title>Node21&#45;&gt;Node7</title>
<g id="a_edge34_Node000021_Node000007"><a xlink:title=" ">
<path fill="none" stroke="#63b8ff" d="M649.21,-223.62C642.75,-205.84 628.58,-166.88 619.89,-143"/>
<polygon fill="#63b8ff" stroke="#63b8ff" points="623.25,-141.98 616.54,-133.78 616.67,-144.37 623.25,-141.98"/>
</a>
</g>
</g>
<!-- Node21&#45;&gt;Node8 -->
<g id="edge33_Node000021_Node000008" class="edge">
<title>Node21&#45;&gt;Node8</title>
<g id="a_edge33_Node000021_Node000008"><a xlink:title=" ">
<path fill="none" stroke="#63b8ff" d="M658.4,-223.78C663.55,-214.97 670.71,-201.13 673.62,-188 685.99,-132.25 673.64,-64.46 665.88,-31.28"/>
<polygon fill="#63b8ff" stroke="#63b8ff" points="669.34,-30.69 663.55,-21.82 662.54,-32.37 669.34,-30.69"/>
</a>
</g>
</g>
<!-- Node21&#45;&gt;Node9 -->
<g id="edge36_Node000021_Node000009" class="edge">
<title>Node21&#45;&gt;Node9</title>
<g id="a_edge36_Node000021_Node000009"><a xlink:title=" ">
<path fill="none" stroke="#63b8ff" d="M643.84,-223.62C626.66,-205.27 588.36,-164.37 566.25,-140.75"/>
<polygon fill="#63b8ff" stroke="#63b8ff" points="568.81,-138.37 559.42,-133.46 563.7,-143.15 568.81,-138.37"/>
</a>
</g>
</g>
<!-- Node21&#45;&gt;Node10 -->
<g id="edge37_Node000021_Node000010" class="edge">
<title>Node21&#45;&gt;Node10</title>
<g id="a_edge37_Node000021_Node000010"><a xlink:title=" ">
<path fill="none" stroke="#63b8ff" d="M624.35,-226.07C621.41,-225.36 618.46,-224.66 615.62,-224 544.22,-207.33 521.94,-217.06 454.62,-188 425.96,-175.62 396.78,-154.38 378.24,-139.56"/>
<polygon fill="#63b8ff" stroke="#63b8ff" points="380.47,-136.86 370.51,-133.24 376.04,-142.28 380.47,-136.86"/>
</a>
</g>
</g>
<!-- Node21&#45;&gt;Node11 -->
<g id="edge39_Node000021_Node000011" class="edge">
<title>Node21&#45;&gt;Node11</title>
<g id="a_edge39_Node000021_Node000011"><a xlink:title=" ">
<path fill="none" stroke="#63b8ff" d="M654.93,-223.55C659.75,-201.33 668.36,-145.18 641.62,-112 622.16,-87.85 589.83,-76.43 560.82,-71.13"/>
<polygon fill="#63b8ff" stroke="#63b8ff" points="561.41,-67.67 550.98,-69.56 560.31,-74.59 561.41,-67.67"/>
</a>
</g>
</g>
<!-- Node21&#45;&gt;Node14 -->
<g id="edge35_Node000021_Node000014" class="edge">
<title>Node21&#45;&gt;Node14</title>
<g id="a_edge35_Node000021_Node000014"><a xlink:title=" ">
<path fill="none" stroke="#63b8ff" d="M662.51,-223.53C670.88,-214.98 682.61,-201.68 689.62,-188 716.64,-135.32 729.22,-65.63 734.07,-31.55"/>
<polygon fill="#63b8ff" stroke="#63b8ff" points="737.51,-32.21 735.37,-21.84 730.57,-31.29 737.51,-32.21"/>
</a>
</g>
</g>
<!-- Node23 -->
<g id="Node000023" class="node">
<title>Node23</title>
<g id="a_Node000023"><a xlink:title=" ">
<polygon fill="#e0e0e0" stroke="#999999" points="998.62,-244 910.62,-244 910.62,-224 998.62,-224 998.62,-244"/>
<text text-anchor="middle" x="954.62" y="-230.5" font-family="Helvetica,sans-Serif" font-size="10.00">QtCore/QVariant</text>
</a>
</g>
</g>
<!-- Node22&#45;&gt;Node23 -->
<g id="edge43_Node000022_Node000023" class="edge">
<title>Node22&#45;&gt;Node23</title>
<g id="a_edge43_Node000022_Node000023"><a xlink:title=" ">
<path fill="none" stroke="#63b8ff" d="M1360.76,-284.83C1289.47,-277.88 1143.79,-262.94 1010.09,-244.28"/>
<polygon fill="#63b8ff" stroke="#63b8ff" points="1010.73,-240.84 1000.34,-242.91 1009.75,-247.77 1010.73,-240.84"/>
</a>
</g>
</g>
<!-- Node24 -->
<g id="Node000024" class="node">
<title>Node24</title>
<g id="a_Node000024"><a xlink:title=" ">
<polygon fill="#e0e0e0" stroke="#999999" points="1138.12,-244 1017.12,-244 1017.12,-224 1138.12,-224 1138.12,-244"/>
<text text-anchor="middle" x="1077.62" y="-230.5" font-family="Helvetica,sans-Serif" font-size="10.00">QtWidgets/QApplication</text>
</a>
</g>
</g>
<!-- Node22&#45;&gt;Node24 -->
<g id="edge44_Node000022_Node000024" class="edge">
<title>Node22&#45;&gt;Node24</title>
<g id="a_edge44_Node000022_Node000024"><a xlink:title=" ">
<path fill="none" stroke="#63b8ff" d="M1360.52,-281.72C1305.51,-272.63 1210.85,-257 1146.31,-246.34"/>
<polygon fill="#63b8ff" stroke="#63b8ff" points="1146.95,-242.9 1136.52,-244.73 1145.81,-249.81 1146.95,-242.9"/>
</a>
</g>
</g>
<!-- Node25 -->
<g id="Node000025" class="node">
<title>Node25</title>
<g id="a_Node000025"><a xlink:title=" ">
<polygon fill="#e0e0e0" stroke="#999999" points="1277.5,-244 1155.75,-244 1155.75,-224 1277.5,-224 1277.5,-244"/>
<text text-anchor="middle" x="1216.62" y="-230.5" font-family="Helvetica,sans-Serif" font-size="10.00">QtWidgets/QComboBox</text>
</a>
</g>
</g>
<!-- Node22&#45;&gt;Node25 -->
<g id="edge45_Node000022_Node000025" class="edge">
<title>Node22&#45;&gt;Node25</title>
<g id="a_edge45_Node000022_Node000025"><a xlink:title=" ">
<path fill="none" stroke="#63b8ff" d="M1371.88,-279.59C1341.06,-270.74 1294.7,-257.43 1260.66,-247.65"/>
<polygon fill="#63b8ff" stroke="#63b8ff" points="1261.66,-244.29 1251.08,-244.9 1259.73,-251.02 1261.66,-244.29"/>
</a>
</g>
</g>
<!-- Node26 -->
<g id="Node000026" class="node">
<title>Node26</title>
<g id="a_Node000026"><a xlink:title=" ">
<polygon fill="#e0e0e0" stroke="#999999" points="1396,-244 1295.25,-244 1295.25,-224 1396,-224 1396,-244"/>
<text text-anchor="middle" x="1345.62" y="-230.5" font-family="Helvetica,sans-Serif" font-size="10.00">QtWidgets/QDialog</text>
</a>
</g>
</g>
<!-- Node22&#45;&gt;Node26 -->
<g id="edge46_Node000022_Node000026" class="edge">
<title>Node22&#45;&gt;Node26</title>
<g id="a_edge46_Node000022_Node000026"><a xlink:title=" ">
<path fill="none" stroke="#63b8ff" d="M1394.35,-279.59C1386.05,-272.01 1374.18,-261.13 1364.22,-252.02"/>
<polygon fill="#63b8ff" stroke="#63b8ff" points="1366.64,-249.49 1356.9,-245.32 1361.91,-254.65 1366.64,-249.49"/>
</a>
</g>
</g>
<!-- Node27 -->
<g id="Node000027" class="node">
<title>Node27</title>
<g id="a_Node000027"><a xlink:title=" ">
<polygon fill="#e0e0e0" stroke="#999999" points="1515,-244 1414.25,-244 1414.25,-224 1515,-224 1515,-244"/>
<text text-anchor="middle" x="1464.62" y="-230.5" font-family="Helvetica,sans-Serif" font-size="10.00">QtWidgets/QFrame</text>
</a>
</g>
</g>
<!-- Node22&#45;&gt;Node27 -->
<g id="edge47_Node000022_Node000027" class="edge">
<title>Node22&#45;&gt;Node27</title>
<g id="a_edge47_Node000022_Node000027"><a xlink:title=" ">
<path fill="none" stroke="#63b8ff" d="M1415.07,-279.59C1423.59,-271.93 1435.83,-260.91 1446.02,-251.75"/>
<polygon fill="#63b8ff" stroke="#63b8ff" points="1448.07,-254.6 1453.17,-245.31 1443.39,-249.4 1448.07,-254.6"/>
</a>
</g>
</g>
<!-- Node28 -->
<g id="Node000028" class="node">
<title>Node28</title>
<g id="a_Node000028"><a xlink:title=" ">
<polygon fill="#e0e0e0" stroke="#999999" points="1653.75,-244 1533.5,-244 1533.5,-224 1653.75,-224 1653.75,-244"/>
<text text-anchor="middle" x="1593.62" y="-230.5" font-family="Helvetica,sans-Serif" font-size="10.00">QtWidgets/QGridLayout</text>
</a>
</g>
</g>
<!-- Node22&#45;&gt;Node28 -->
<g id="edge48_Node000022_Node000028" class="edge">
<title>Node22&#45;&gt;Node28</title>
<g id="a_edge48_Node000022_Node000028"><a xlink:title=" ">
<path fill="none" stroke="#63b8ff" d="M1437.54,-279.59C1468.66,-270.71 1515.54,-257.31 1549.8,-247.52"/>
<polygon fill="#63b8ff" stroke="#63b8ff" points="1550.34,-251.01 1558.99,-244.9 1548.41,-244.28 1550.34,-251.01"/>
</a>
</g>
</g>
<!-- Node29 -->
<g id="Node000029" class="node">
<title>Node29</title>
<g id="a_Node000029"><a xlink:title=" ">
<polygon fill="#e0e0e0" stroke="#999999" points="1767.75,-244 1671.5,-244 1671.5,-224 1767.75,-224 1767.75,-244"/>
<text text-anchor="middle" x="1719.62" y="-230.5" font-family="Helvetica,sans-Serif" font-size="10.00">QtWidgets/QLabel</text>
</a>
</g>
</g>
<!-- Node22&#45;&gt;Node29 -->
<g id="edge49_Node000022_Node000029" class="edge">
<title>Node22&#45;&gt;Node29</title>
<g id="a_edge49_Node000022_Node000029"><a xlink:title=" ">
<path fill="none" stroke="#63b8ff" d="M1448.42,-281.49C1503.49,-272.05 1598.25,-255.81 1659.92,-245.24"/>
<polygon fill="#63b8ff" stroke="#63b8ff" points="1660.27,-248.73 1669.54,-243.59 1659.09,-241.83 1660.27,-248.73"/>
</a>
</g>
</g>
<!-- Node30 -->
<g id="Node000030" class="node">
<title>Node30</title>
<g id="a_Node000030"><a xlink:title=" ">
<polygon fill="#e0e0e0" stroke="#999999" points="1893.75,-244 1785.5,-244 1785.5,-224 1893.75,-224 1893.75,-244"/>
<text text-anchor="middle" x="1839.62" y="-230.5" font-family="Helvetica,sans-Serif" font-size="10.00">QtWidgets/QLineEdit</text>
</a>
</g>
</g>
<!-- Node22&#45;&gt;Node30 -->
<g id="edge50_Node000022_Node000030" class="edge">
<title>Node22&#45;&gt;Node30</title>
<g id="a_edge50_Node000022_Node000030"><a xlink:title=" ">
<path fill="none" stroke="#63b8ff" d="M1448.47,-284.01C1516.04,-276.24 1649.97,-260.58 1774.12,-244.31"/>
<polygon fill="#63b8ff" stroke="#63b8ff" points="1774.38,-247.8 1783.84,-243.03 1773.46,-240.86 1774.38,-247.8"/>
</a>
</g>
</g>
<!-- Node31 -->
<g id="Node000031" class="node">
<title>Node31</title>
<g id="a_Node000031"><a xlink:title=" ">
<polygon fill="#e0e0e0" stroke="#999999" points="2035.62,-244 1911.62,-244 1911.62,-224 2035.62,-224 2035.62,-244"/>
<text text-anchor="middle" x="1973.62" y="-230.5" font-family="Helvetica,sans-Serif" font-size="10.00">QtWidgets/QPushButton</text>
</a>
</g>
</g>
<!-- Node22&#45;&gt;Node31 -->
<g id="edge51_Node000022_Node000031" class="edge">
<title>Node22&#45;&gt;Node31</title>
<g id="a_edge51_Node000022_Node000031"><a xlink:title=" ">
<path fill="none" stroke="#63b8ff" d="M1448.64,-285.56C1533.67,-278.79 1726.67,-262.87 1899.92,-244.26"/>
<polygon fill="#63b8ff" stroke="#63b8ff" points="1900.23,-247.75 1909.79,-243.19 1899.48,-240.79 1900.23,-247.75"/>
</a>
</g>
</g>
</g>
</svg>

<g id="navigator" transform="translate(0 0)" fill="#404254">
  <rect fill="#f2f5e9" fill-opacity="0.5" stroke="#606060" stroke-width=".5" x="0" y="0" width="60" height="60"/>
  <use id="zoomplus" xlink:href="#zoomPlus" x="17" y="9" onmousedown="handleZoom(evt,'in')"/>
  <use id="zoomminus" xlink:href="#zoomMin" x="42" y="9" onmousedown="handleZoom(evt,'out')"/>
  <use id="reset" xlink:href="#resetDef" x="30" y="36" onmousedown="handleReset()"/>
   <use id="arrowup" xlink:href="#arrowUp" x="0" y="0" onmousedown="handlePan(0,-1)"/>
  <use id="arrowright" xlink:href="#arrowRight" x="0" y="0" onmousedown="handlePan(1,0)"/>
  <use id="arrowdown" xlink:href="#arrowDown" x="0" y="0" onmousedown="handlePan(0,1)"/>
  <use id="arrowleft" xlink:href="#arrowLeft" x="0" y="0" onmousedown="handlePan(-1,0)"/>
</g>
<svg viewBox="0 0 15 15" width="100%" height="30px" preserveAspectRatio="xMaxYMin meet">
 <g id="arrow_out" transform="scale(0.3 0.3)">
  <a xlink:href="_child_dialog_8cpp__incl_org.svg" target="_base">
   <rect id="button" ry="5" rx="5" y="6" x="6" height="38" width="38"
        fill="#f2f5e9" fill-opacity="0.5" stroke="#606060" stroke-width="1.0"/>
   <path id="arrow"
     d="M 11.500037,31.436501 C 11.940474,20.09759 22.043105,11.32322 32.158766,21.979434 L 37.068811,17.246167 C 37.068811,17.246167 37.088388,32 37.088388,32 L 22.160133,31.978069 C 22.160133,31.978069 26.997745,27.140456 26.997745,27.140456 C 18.528582,18.264221 13.291696,25.230495 11.500037,31.436501 z"
     style="fill:#404040;"/>
  </a>
 </g>
</svg>

<style type='text/css'>
<![CDATA[
[data-mouse-over-selected='false'] { opacity: 0.7; }
[data-mouse-over-selected='true']  { opacity: 1.0; }
]]>
</style>
<script type="application/ecmascript"><![CDATA[
document.addEventListener('DOMContentLoaded', (event) => {
  highlightEdges();
  highlightAdjacentNodes();
});
]]></script>
</svg>
