<?xml version="1.0" encoding="UTF-8" standalone="no"?>
<!DOCTYPE svg PUBLIC "-//W3C//DTD SVG 1.1//EN"
 "http://www.w3.org/Graphics/SVG/1.1/DTD/svg11.dtd">
<!-- Generated by graphviz version 12.2.1 (20241206.2353)
 -->
<!-- Title: TullipApp/DataBase.h Pages: 1 -->
<svg width="717pt" height="308pt"
 viewBox="0.00 0.00 717.00 308.00" xmlns="http://www.w3.org/2000/svg" xmlns:xlink="http://www.w3.org/1999/xlink">
<g id="graph0" class="graph" transform="scale(1 1) rotate(0) translate(4 304)">
<title>TullipApp/DataBase.h</title>
<!-- Node1 -->
<g id="Node000001" class="node">
<title>Node1</title>
<g id="a_Node000001"><a xlink:title="Defines the Database class for managing lessons, parents, children, and employees.">
<polygon fill="#999999" stroke="#666666" points="328.62,-300 217.38,-300 217.38,-280 328.62,-280 328.62,-300"/>
<text text-anchor="middle" x="273" y="-286.5" font-family="Helvetica,sans-Serif" font-size="10.00">TullipApp/DataBase.h</text>
</a>
</g>
</g>
<!-- Node2 -->
<g id="Node000002" class="node">
<title>Node2</title>
<g id="a_Node000002"><a xlink:title=" ">
<polygon fill="#e0e0e0" stroke="#999999" points="135.5,-20 92.5,-20 92.5,0 135.5,0 135.5,-20"/>
<text text-anchor="middle" x="114" y="-6.5" font-family="Helvetica,sans-Serif" font-size="10.00">vector</text>
</a>
</g>
</g>
<!-- Node1&#45;&gt;Node2 -->
<g id="edge1_Node000001_Node000002" class="edge">
<title>Node1&#45;&gt;Node2</title>
<g id="a_edge1_Node000001_Node000002"><a xlink:title=" ">
<path fill="none" stroke="#63b8ff" d="M217.07,-281.88C158.83,-270.97 76,-244.03 76,-179 76,-179 76,-179 76,-121 76,-87.77 91.68,-51.85 102.9,-30.4"/>
<polygon fill="#63b8ff" stroke="#63b8ff" points="105.94,-32.12 107.67,-21.66 99.8,-28.76 105.94,-32.12"/>
</a>
</g>
</g>
<!-- Node3 -->
<g id="Node000003" class="node">
<title>Node3</title>
<g id="a_Node000003"><a xlink:title=" ">
<polygon fill="#e0e0e0" stroke="#999999" points="55.38,-20 20.62,-20 20.62,0 55.38,0 55.38,-20"/>
<text text-anchor="middle" x="38" y="-6.5" font-family="Helvetica,sans-Serif" font-size="10.00">map</text>
</a>
</g>
</g>
<!-- Node1&#45;&gt;Node3 -->
<g id="edge2_Node000001_Node000003" class="edge">
<title>Node1&#45;&gt;Node3</title>
<g id="a_edge2_Node000001_Node000003"><a xlink:title=" ">
<path fill="none" stroke="#63b8ff" d="M217.17,-281.19C179.68,-274.55 129.85,-263 89,-244 44.59,-223.34 0,-227.98 0,-179 0,-179 0,-179 0,-121 0,-87.77 15.68,-51.85 26.9,-30.4"/>
<polygon fill="#63b8ff" stroke="#63b8ff" points="29.94,-32.12 31.67,-21.66 23.8,-28.76 29.94,-32.12"/>
</a>
</g>
</g>
<!-- Node4 -->
<g id="Node000004" class="node">
<title>Node4</title>
<g id="a_Node000004"><a xlink:title=" ">
<polygon fill="#e0e0e0" stroke="#999999" points="566,-20 526,-20 526,0 566,0 566,-20"/>
<text text-anchor="middle" x="546" y="-6.5" font-family="Helvetica,sans-Serif" font-size="10.00">string</text>
</a>
</g>
</g>
<!-- Node1&#45;&gt;Node4 -->
<g id="edge3_Node000001_Node000004" class="edge">
<title>Node1&#45;&gt;Node4</title>
<g id="a_edge3_Node000001_Node000004"><a xlink:title=" ">
<path fill="none" stroke="#63b8ff" d="M329.11,-286.57C446.86,-279.94 709,-256.48 709,-179 709,-179 709,-179 709,-121 709,-58.21 624.87,-28.87 577.49,-17.32"/>
<polygon fill="#63b8ff" stroke="#63b8ff" points="578.32,-13.92 567.79,-15.09 576.76,-20.74 578.32,-13.92"/>
</a>
</g>
</g>
<!-- Node5 -->
<g id="Node000005" class="node">
<title>Node5</title>
<g id="a_Node000005"><a xlink:title=" ">
<polygon fill="#e0e0e0" stroke="#999999" points="263.5,-244 214.5,-244 214.5,-224 263.5,-224 263.5,-244"/>
<text text-anchor="middle" x="239" y="-230.5" font-family="Helvetica,sans-Serif" font-size="10.00">fstream</text>
</a>
</g>
</g>
<!-- Node1&#45;&gt;Node5 -->
<g id="edge4_Node000001_Node000005" class="edge">
<title>Node1&#45;&gt;Node5</title>
<g id="a_edge4_Node000001_Node000005"><a xlink:title=" ">
<path fill="none" stroke="#63b8ff" d="M267.08,-279.59C262.64,-272.55 256.42,-262.67 250.96,-254"/>
<polygon fill="#63b8ff" stroke="#63b8ff" points="253.95,-252.18 245.66,-245.58 248.03,-255.91 253.95,-252.18"/>
</a>
</g>
</g>
<!-- Node6 -->
<g id="Node000006" class="node">
<title>Node6</title>
<g id="a_Node000006"><a xlink:title=" ">
<polygon fill="#e0e0e0" stroke="#999999" points="332.62,-244 281.38,-244 281.38,-224 332.62,-224 332.62,-244"/>
<text text-anchor="middle" x="307" y="-230.5" font-family="Helvetica,sans-Serif" font-size="10.00">memory</text>
</a>
</g>
</g>
<!-- Node1&#45;&gt;Node6 -->
<g id="edge5_Node000001_Node000006" class="edge">
<title>Node1&#45;&gt;Node6</title>
<g id="a_edge5_Node000001_Node000006"><a xlink:title=" ">
<path fill="none" stroke="#63b8ff" d="M278.92,-279.59C283.36,-272.55 289.58,-262.67 295.04,-254"/>
<polygon fill="#63b8ff" stroke="#63b8ff" points="297.97,-255.91 300.34,-245.58 292.05,-252.18 297.97,-255.91"/>
</a>
</g>
</g>
<!-- Node7 -->
<g id="Node000007" class="node">
<title>Node7</title>
<g id="a_Node000007"><a xlink:href="$_lesson_8h.html" xlink:title="Defines the Lesson class, which represents a lesson with its associated details.">
<polygon fill="white" stroke="#666666" points="196.88,-244 141.12,-244 141.12,-224 196.88,-224 196.88,-244"/>
<text text-anchor="middle" x="169" y="-230.5" font-family="Helvetica,sans-Serif" font-size="10.00">Lesson.h</text>
</a>
</g>
</g>
<!-- Node1&#45;&gt;Node7 -->
<g id="edge6_Node000001_Node000007" class="edge">
<title>Node1&#45;&gt;Node7</title>
<g id="a_edge6_Node000001_Node000007"><a xlink:title=" ">
<path fill="none" stroke="#63b8ff" d="M254.88,-279.59C239.03,-271.36 215.72,-259.26 197.38,-249.74"/>
<polygon fill="#63b8ff" stroke="#63b8ff" points="199.09,-246.68 188.6,-245.18 195.86,-252.89 199.09,-246.68"/>
</a>
</g>
</g>
<!-- Node10 -->
<g id="Node000010" class="node">
<title>Node10</title>
<g id="a_Node000010"><a xlink:href="$_date_time_8h.html" xlink:title="Defines classes and utilities for working with dates, times, and combined date&#45;time values.">
<polygon fill="white" stroke="#666666" points="449.5,-132 382.5,-132 382.5,-112 449.5,-112 449.5,-132"/>
<text text-anchor="middle" x="416" y="-118.5" font-family="Helvetica,sans-Serif" font-size="10.00">DateTime.h</text>
</a>
</g>
</g>
<!-- Node1&#45;&gt;Node10 -->
<g id="edge36_Node000001_Node000010" class="edge">
<title>Node1&#45;&gt;Node10</title>
<g id="a_edge36_Node000001_Node000010"><a xlink:title=" ">
<path fill="none" stroke="#63b8ff" d="M300.74,-279.55C318.9,-272.21 342.13,-260.48 358,-244 386.18,-214.74 402.88,-169.2 410.67,-143.13"/>
<polygon fill="#63b8ff" stroke="#63b8ff" points="413.95,-144.39 413.29,-133.81 407.21,-142.49 413.95,-144.39"/>
</a>
</g>
</g>
<!-- Node17 -->
<g id="Node000017" class="node">
<title>Node17</title>
<g id="a_Node000017"><a xlink:href="$_person_8h.html" xlink:title="Defines the Person class and its derived classes: Child, Parent, and Employee.">
<polygon fill="white" stroke="#666666" points="349.5,-188 294.5,-188 294.5,-168 349.5,-168 349.5,-188"/>
<text text-anchor="middle" x="322" y="-174.5" font-family="Helvetica,sans-Serif" font-size="10.00">Person.h</text>
</a>
</g>
</g>
<!-- Node1&#45;&gt;Node17 -->
<g id="edge35_Node000001_Node000017" class="edge">
<title>Node1&#45;&gt;Node17</title>
<g id="a_edge35_Node000001_Node000017"><a xlink:title=" ">
<path fill="none" stroke="#63b8ff" d="M298.86,-279.56C314.39,-272.39 332.87,-260.85 342,-244 349.9,-229.42 343.11,-211.27 335.37,-197.86"/>
<polygon fill="#63b8ff" stroke="#63b8ff" points="338.39,-196.08 330.04,-189.55 332.5,-199.86 338.39,-196.08"/>
</a>
</g>
</g>
<!-- Node7&#45;&gt;Node2 -->
<g id="edge7_Node000007_Node000002" class="edge">
<title>Node7&#45;&gt;Node2</title>
<g id="a_edge7_Node000007_Node000002"><a xlink:title=" ">
<path fill="none" stroke="#63b8ff" d="M165.63,-223.78C162.39,-214.74 157.5,-200.53 154,-188 138.31,-131.76 124.38,-64.19 117.88,-31.16"/>
<polygon fill="#63b8ff" stroke="#63b8ff" points="121.4,-30.93 116.05,-21.78 114.52,-32.26 121.4,-30.93"/>
</a>
</g>
</g>
<!-- Node7&#45;&gt;Node3 -->
<g id="edge9_Node000007_Node000003" class="edge">
<title>Node7&#45;&gt;Node3</title>
<g id="a_edge9_Node000007_Node000003"><a xlink:title=" ">
<path fill="none" stroke="#63b8ff" d="M161.37,-223.6C142.47,-199.99 92.83,-135.81 62,-76 54.49,-61.43 48.17,-43.95 43.91,-30.79"/>
<polygon fill="#63b8ff" stroke="#63b8ff" points="47.35,-30.08 41.04,-21.57 40.67,-32.16 47.35,-30.08"/>
</a>
</g>
</g>
<!-- Node8 -->
<g id="Node000008" class="node">
<title>Node8</title>
<g id="a_Node000008"><a xlink:title=" ">
<polygon fill="#e0e0e0" stroke="#999999" points="219.62,-132 180.38,-132 180.38,-112 219.62,-112 219.62,-132"/>
<text text-anchor="middle" x="200" y="-118.5" font-family="Helvetica,sans-Serif" font-size="10.00">utility</text>
</a>
</g>
</g>
<!-- Node7&#45;&gt;Node8 -->
<g id="edge8_Node000007_Node000008" class="edge">
<title>Node7&#45;&gt;Node8</title>
<g id="a_edge8_Node000007_Node000008"><a xlink:title=" ">
<path fill="none" stroke="#63b8ff" d="M171.64,-223.62C176.63,-205.92 187.53,-167.24 194.27,-143.32"/>
<polygon fill="#63b8ff" stroke="#63b8ff" points="197.61,-144.39 196.95,-133.81 190.87,-142.49 197.61,-144.39"/>
</a>
</g>
</g>
<!-- Node9 -->
<g id="Node000009" class="node">
<title>Node9</title>
<g id="a_Node000009"><a xlink:title=" ">
<polygon fill="#e0e0e0" stroke="#999999" points="287.88,-132 238.12,-132 238.12,-112 287.88,-112 287.88,-132"/>
<text text-anchor="middle" x="263" y="-118.5" font-family="Helvetica,sans-Serif" font-size="10.00">optional</text>
</a>
</g>
</g>
<!-- Node7&#45;&gt;Node9 -->
<g id="edge10_Node000007_Node000009" class="edge">
<title>Node7&#45;&gt;Node9</title>
<g id="a_edge10_Node000007_Node000009"><a xlink:title=" ">
<path fill="none" stroke="#63b8ff" d="M177.01,-223.62C192.62,-205.36 227.34,-164.73 247.56,-141.07"/>
<polygon fill="#63b8ff" stroke="#63b8ff" points="250.19,-143.38 254.02,-133.51 244.87,-138.83 250.19,-143.38"/>
</a>
</g>
</g>
<!-- Node7&#45;&gt;Node10 -->
<g id="edge11_Node000007_Node000010" class="edge">
<title>Node7&#45;&gt;Node10</title>
<g id="a_edge11_Node000007_Node000010"><a xlink:title=" ">
<path fill="none" stroke="#63b8ff" d="M197.28,-226.1C200.22,-225.39 203.17,-224.68 206,-224 273.94,-207.74 299.12,-223.97 359,-188 378.23,-176.44 394.44,-156.22 404.6,-141.39"/>
<polygon fill="#63b8ff" stroke="#63b8ff" points="407.26,-143.71 409.8,-133.42 401.4,-139.88 407.26,-143.71"/>
</a>
</g>
</g>
<!-- Node11 -->
<g id="Node000011" class="node">
<title>Node11</title>
<g id="a_Node000011"><a xlink:href="$_helper___functions_8h.html" xlink:title="Provides utility functions and templates for common operations.">
<polygon fill="white" stroke="#666666" points="299.38,-76 198.62,-76 198.62,-56 299.38,-56 299.38,-76"/>
<text text-anchor="middle" x="249" y="-62.5" font-family="Helvetica,sans-Serif" font-size="10.00">Helper_Functions.h</text>
</a>
</g>
</g>
<!-- Node7&#45;&gt;Node11 -->
<g id="edge34_Node000007_Node000011" class="edge">
<title>Node7&#45;&gt;Node11</title>
<g id="a_edge34_Node000007_Node000011"><a xlink:title=" ">
<path fill="none" stroke="#63b8ff" d="M166.27,-223.68C160.56,-202.23 149.58,-148.39 171,-112 179.23,-98.01 193.61,-87.97 207.8,-80.97"/>
<polygon fill="#63b8ff" stroke="#63b8ff" points="208.93,-84.3 216.63,-77.02 206.07,-77.91 208.93,-84.3"/>
</a>
</g>
</g>
<!-- Node7&#45;&gt;Node17 -->
<g id="edge25_Node000007_Node000017" class="edge">
<title>Node7&#45;&gt;Node17</title>
<g id="a_edge25_Node000007_Node000017"><a xlink:title=" ">
<path fill="none" stroke="#63b8ff" d="M195.65,-223.59C220.18,-214.94 256.83,-202 284.34,-192.29"/>
<polygon fill="#63b8ff" stroke="#63b8ff" points="285.45,-195.61 293.71,-188.98 283.12,-189.01 285.45,-195.61"/>
</a>
</g>
</g>
<!-- Node10&#45;&gt;Node4 -->
<g id="edge24_Node000010_Node000004" class="edge">
<title>Node10&#45;&gt;Node4</title>
<g id="a_edge24_Node000010_Node000004"><a xlink:title=" ">
<path fill="none" stroke="#63b8ff" d="M433.24,-111.58C447.94,-103.16 469.29,-90.03 486,-76 503.2,-61.56 520.33,-42.4 531.86,-28.63"/>
<polygon fill="#63b8ff" stroke="#63b8ff" points="534.27,-31.21 537.91,-21.26 528.86,-26.76 534.27,-31.21"/>
</a>
</g>
</g>
<!-- Node10&#45;&gt;Node11 -->
<g id="edge12_Node000010_Node000011" class="edge">
<title>Node10&#45;&gt;Node11</title>
<g id="a_edge12_Node000010_Node000011"><a xlink:title=" ">
<path fill="none" stroke="#63b8ff" d="M386.91,-111.59C359.78,-102.82 319.07,-89.66 288.91,-79.9"/>
<polygon fill="#63b8ff" stroke="#63b8ff" points="290.35,-76.69 279.76,-76.95 288.19,-83.35 290.35,-76.69"/>
</a>
</g>
</g>
<!-- Node12 -->
<g id="Node000012" class="node">
<title>Node12</title>
<g id="a_Node000012"><a xlink:title=" ">
<polygon fill="#e0e0e0" stroke="#999999" points="356.75,-20 303.25,-20 303.25,0 356.75,0 356.75,-20"/>
<text text-anchor="middle" x="330" y="-6.5" font-family="Helvetica,sans-Serif" font-size="10.00">iostream</text>
</a>
</g>
</g>
<!-- Node10&#45;&gt;Node12 -->
<g id="edge23_Node000010_Node000012" class="edge">
<title>Node10&#45;&gt;Node12</title>
<g id="a_edge23_Node000010_Node000012"><a xlink:title=" ">
<path fill="none" stroke="#63b8ff" d="M393.22,-111.5C377.96,-104.01 358.62,-92.13 347,-76 337.6,-62.96 333.4,-45.12 331.52,-31.43"/>
<polygon fill="#63b8ff" stroke="#63b8ff" points="335.03,-31.37 330.52,-21.79 328.07,-32.09 335.03,-31.37"/>
</a>
</g>
</g>
<!-- Node15 -->
<g id="Node000015" class="node">
<title>Node15</title>
<g id="a_Node000015"><a xlink:href="$_date_time___exceptions_8h.html" xlink:title="Defines error messages and the DateTimeError exception class for date and time operations.">
<polygon fill="white" stroke="#666666" points="476.5,-76 355.5,-76 355.5,-56 476.5,-56 476.5,-76"/>
<text text-anchor="middle" x="416" y="-62.5" font-family="Helvetica,sans-Serif" font-size="10.00">DateTime_Exceptions.h</text>
</a>
</g>
</g>
<!-- Node10&#45;&gt;Node15 -->
<g id="edge19_Node000010_Node000015" class="edge">
<title>Node10&#45;&gt;Node15</title>
<g id="a_edge19_Node000010_Node000015"><a xlink:title=" ">
<path fill="none" stroke="#63b8ff" d="M416,-111.59C416,-105.01 416,-95.96 416,-87.73"/>
<polygon fill="#63b8ff" stroke="#63b8ff" points="419.5,-87.81 416,-77.81 412.5,-87.81 419.5,-87.81"/>
</a>
</g>
</g>
<!-- Node11&#45;&gt;Node2 -->
<g id="edge15_Node000011_Node000002" class="edge">
<title>Node11&#45;&gt;Node2</title>
<g id="a_edge15_Node000011_Node000002"><a xlink:title=" ">
<path fill="none" stroke="#63b8ff" d="M225.48,-55.59C203.6,-46.84 170.8,-33.72 146.44,-23.97"/>
<polygon fill="#63b8ff" stroke="#63b8ff" points="147.9,-20.79 137.31,-20.32 145.3,-27.29 147.9,-20.79"/>
</a>
</g>
</g>
<!-- Node11&#45;&gt;Node3 -->
<g id="edge18_Node000011_Node000003" class="edge">
<title>Node11&#45;&gt;Node3</title>
<g id="a_edge18_Node000011_Node000003"><a xlink:title=" ">
<path fill="none" stroke="#63b8ff" d="M212.25,-55.59C170.73,-44.97 104.05,-27.9 66.36,-18.26"/>
<polygon fill="#63b8ff" stroke="#63b8ff" points="67.67,-14.98 57.12,-15.89 65.94,-21.76 67.67,-14.98"/>
</a>
</g>
</g>
<!-- Node11&#45;&gt;Node4 -->
<g id="edge14_Node000011_Node000004" class="edge">
<title>Node11&#45;&gt;Node4</title>
<g id="a_edge14_Node000011_Node000004"><a xlink:title=" ">
<path fill="none" stroke="#63b8ff" d="M299.72,-55.78C361.22,-44.6 463.02,-26.09 514.34,-16.76"/>
<polygon fill="#63b8ff" stroke="#63b8ff" points="514.96,-20.2 524.17,-14.97 513.71,-13.31 514.96,-20.2"/>
</a>
</g>
</g>
<!-- Node11&#45;&gt;Node12 -->
<g id="edge13_Node000011_Node000012" class="edge">
<title>Node11&#45;&gt;Node12</title>
<g id="a_edge13_Node000011_Node000012"><a xlink:title=" ">
<path fill="none" stroke="#63b8ff" d="M263.11,-55.59C275,-47.67 292.27,-36.16 306.28,-26.82"/>
<polygon fill="#63b8ff" stroke="#63b8ff" points="308.14,-29.78 314.52,-21.32 304.26,-23.95 308.14,-29.78"/>
</a>
</g>
</g>
<!-- Node13 -->
<g id="Node000013" class="node">
<title>Node13</title>
<g id="a_Node000013"><a xlink:title=" ">
<polygon fill="#e0e0e0" stroke="#999999" points="208.88,-20 153.12,-20 153.12,0 208.88,0 208.88,-20"/>
<text text-anchor="middle" x="181" y="-6.5" font-family="Helvetica,sans-Serif" font-size="10.00">algorithm</text>
</a>
</g>
</g>
<!-- Node11&#45;&gt;Node13 -->
<g id="edge16_Node000011_Node000013" class="edge">
<title>Node11&#45;&gt;Node13</title>
<g id="a_edge16_Node000011_Node000013"><a xlink:title=" ">
<path fill="none" stroke="#63b8ff" d="M237.16,-55.59C227.31,-47.77 213.07,-36.46 201.39,-27.19"/>
<polygon fill="#63b8ff" stroke="#63b8ff" points="203.9,-24.72 193.89,-21.24 199.55,-30.2 203.9,-24.72"/>
</a>
</g>
</g>
<!-- Node14 -->
<g id="Node000014" class="node">
<title>Node14</title>
<g id="a_Node000014"><a xlink:title=" ">
<polygon fill="#e0e0e0" stroke="#999999" points="285,-20 227,-20 227,0 285,0 285,-20"/>
<text text-anchor="middle" x="256" y="-6.5" font-family="Helvetica,sans-Serif" font-size="10.00">functional</text>
</a>
</g>
</g>
<!-- Node11&#45;&gt;Node14 -->
<g id="edge17_Node000011_Node000014" class="edge">
<title>Node11&#45;&gt;Node14</title>
<g id="a_edge17_Node000011_Node000014"><a xlink:title=" ">
<path fill="none" stroke="#63b8ff" d="M250.22,-55.59C251.08,-48.93 252.27,-39.75 253.35,-31.44"/>
<polygon fill="#63b8ff" stroke="#63b8ff" points="256.79,-32.17 254.6,-21.8 249.84,-31.27 256.79,-32.17"/>
</a>
</g>
</g>
<!-- Node15&#45;&gt;Node4 -->
<g id="edge20_Node000015_Node000004" class="edge">
<title>Node15&#45;&gt;Node4</title>
<g id="a_edge20_Node000015_Node000004"><a xlink:title=" ">
<path fill="none" stroke="#63b8ff" d="M438.64,-55.59C459.87,-46.78 491.77,-33.53 515.28,-23.76"/>
<polygon fill="#63b8ff" stroke="#63b8ff" points="516.46,-27.06 524.35,-19.99 513.77,-20.6 516.46,-27.06"/>
</a>
</g>
</g>
<!-- Node15&#45;&gt;Node12 -->
<g id="edge21_Node000015_Node000012" class="edge">
<title>Node15&#45;&gt;Node12</title>
<g id="a_edge21_Node000015_Node000012"><a xlink:title=" ">
<path fill="none" stroke="#63b8ff" d="M401.02,-55.59C388.27,-47.59 369.71,-35.93 354.76,-26.54"/>
<polygon fill="#63b8ff" stroke="#63b8ff" points="356.71,-23.64 346.38,-21.28 352.99,-29.57 356.71,-23.64"/>
</a>
</g>
</g>
<!-- Node16 -->
<g id="Node000016" class="node">
<title>Node16</title>
<g id="a_Node000016"><a xlink:title=" ">
<polygon fill="#e0e0e0" stroke="#999999" points="445,-20 387,-20 387,0 445,0 445,-20"/>
<text text-anchor="middle" x="416" y="-6.5" font-family="Helvetica,sans-Serif" font-size="10.00">exception</text>
</a>
</g>
</g>
<!-- Node15&#45;&gt;Node16 -->
<g id="edge22_Node000015_Node000016" class="edge">
<title>Node15&#45;&gt;Node16</title>
<g id="a_edge22_Node000015_Node000016"><a xlink:title=" ">
<path fill="none" stroke="#63b8ff" d="M416,-55.59C416,-49.01 416,-39.96 416,-31.73"/>
<polygon fill="#63b8ff" stroke="#63b8ff" points="419.5,-31.81 416,-21.81 412.5,-31.81 419.5,-31.81"/>
</a>
</g>
</g>
<!-- Node17&#45;&gt;Node2 -->
<g id="edge28_Node000017_Node000002" class="edge">
<title>Node17&#45;&gt;Node2</title>
<g id="a_edge28_Node000017_Node000002"><a xlink:title=" ">
<path fill="none" stroke="#63b8ff" d="M320.92,-167.66C318.82,-153.65 312.89,-127.22 297,-112 260.77,-77.29 233.64,-100.76 190,-76 167.24,-63.09 144.94,-42.85 130.44,-28.39"/>
<polygon fill="#63b8ff" stroke="#63b8ff" points="133.04,-26.04 123.55,-21.33 128.03,-30.93 133.04,-26.04"/>
</a>
</g>
</g>
<!-- Node17&#45;&gt;Node4 -->
<g id="edge26_Node000017_Node000004" class="edge">
<title>Node17&#45;&gt;Node4</title>
<g id="a_edge26_Node000017_Node000004"><a xlink:title=" ">
<path fill="none" stroke="#63b8ff" d="M349.98,-172.84C423.03,-161.35 616.31,-126.62 652,-76 673.85,-45.01 615.81,-25.94 577.22,-17.03"/>
<polygon fill="#63b8ff" stroke="#63b8ff" points="578.46,-13.72 567.94,-15.01 576.97,-20.56 578.46,-13.72"/>
</a>
</g>
</g>
<!-- Node17&#45;&gt;Node8 -->
<g id="edge27_Node000017_Node000008" class="edge">
<title>Node17&#45;&gt;Node8</title>
<g id="a_edge27_Node000017_Node000008"><a xlink:title=" ">
<path fill="none" stroke="#63b8ff" d="M300.75,-167.59C281.24,-158.96 252.13,-146.07 230.21,-136.37"/>
<polygon fill="#63b8ff" stroke="#63b8ff" points="231.74,-133.22 221.18,-132.37 228.91,-139.62 231.74,-133.22"/>
</a>
</g>
</g>
<!-- Node17&#45;&gt;Node9 -->
<g id="edge29_Node000017_Node000009" class="edge">
<title>Node17&#45;&gt;Node9</title>
<g id="a_edge29_Node000017_Node000009"><a xlink:title=" ">
<path fill="none" stroke="#63b8ff" d="M311.72,-167.59C303.43,-160.01 291.55,-149.13 281.6,-140.02"/>
<polygon fill="#63b8ff" stroke="#63b8ff" points="284.02,-137.49 274.28,-133.32 279.29,-142.65 284.02,-137.49"/>
</a>
</g>
</g>
<!-- Node17&#45;&gt;Node10 -->
<g id="edge30_Node000017_Node000010" class="edge">
<title>Node17&#45;&gt;Node10</title>
<g id="a_edge30_Node000017_Node000010"><a xlink:title=" ">
<path fill="none" stroke="#63b8ff" d="M338.37,-167.59C352.57,-159.44 373.38,-147.48 389.88,-138"/>
<polygon fill="#63b8ff" stroke="#63b8ff" points="391.26,-141.25 398.19,-133.23 387.77,-135.18 391.26,-141.25"/>
</a>
</g>
</g>
<!-- Node17&#45;&gt;Node11 -->
<g id="edge33_Node000017_Node000011" class="edge">
<title>Node17&#45;&gt;Node11</title>
<g id="a_edge33_Node000017_Node000011"><a xlink:title=" ">
<path fill="none" stroke="#63b8ff" d="M326.44,-167.88C332.21,-154.61 340.38,-129.64 330,-112 321.66,-97.83 307.07,-87.8 292.55,-80.87"/>
<polygon fill="#63b8ff" stroke="#63b8ff" points="294.04,-77.7 283.47,-76.95 291.27,-84.13 294.04,-77.7"/>
</a>
</g>
</g>
<!-- Node18 -->
<g id="Node000018" class="node">
<title>Node18</title>
<g id="a_Node000018"><a xlink:href="$_data___helper___types_8h.html" xlink:title="Defines utility classes for managing contact&#45;related data such as email, phone, and address.">
<polygon fill="white" stroke="#666666" points="643.25,-76 532.75,-76 532.75,-56 643.25,-56 643.25,-76"/>
<text text-anchor="middle" x="588" y="-62.5" font-family="Helvetica,sans-Serif" font-size="10.00">Data_Helper_Types.h</text>
</a>
</g>
</g>
<!-- Node17&#45;&gt;Node18 -->
<g id="edge31_Node000017_Node000018" class="edge">
<title>Node17&#45;&gt;Node18</title>
<g id="a_edge31_Node000017_Node000018"><a xlink:title=" ">
<path fill="none" stroke="#63b8ff" d="M349.99,-169.14C378,-160.97 422.1,-147.26 459,-132 495.3,-116.99 535.47,-96.02 561.18,-82"/>
<polygon fill="#63b8ff" stroke="#63b8ff" points="562.87,-85.06 569.94,-77.18 559.49,-78.93 562.87,-85.06"/>
</a>
</g>
</g>
<!-- Node18&#45;&gt;Node4 -->
<g id="edge32_Node000018_Node000004" class="edge">
<title>Node18&#45;&gt;Node4</title>
<g id="a_edge32_Node000018_Node000004"><a xlink:title=" ">
<path fill="none" stroke="#63b8ff" d="M580.68,-55.59C575.02,-48.32 567.01,-38.02 560.11,-29.15"/>
<polygon fill="#63b8ff" stroke="#63b8ff" points="563.06,-27.24 554.16,-21.49 557.54,-31.54 563.06,-27.24"/>
</a>
</g>
</g>
</g>
</svg>
