<?xml version="1.0" encoding="UTF-8" standalone="no"?>
<!DOCTYPE svg PUBLIC "-//W3C//DTD SVG 1.1//EN"
 "http://www.w3.org/Graphics/SVG/1.1/DTD/svg11.dtd">
<!-- Generated by graphviz version 12.2.1 (20241206.2353)
 -->
<!-- Title: TullipApp/DataBase.cpp Pages: 1 -->
<!--zoomable 420 -->

<svg id="main" version="1.1" xmlns="http://www.w3.org/2000/svg" xmlns:xlink="http://www.w3.org/1999/xlink" xml:space="preserve" onload="init(evt)">

<style type="text/css"><![CDATA[
.node, .edge {opacity: 0.7;}
.node.selected, .edge.selected {opacity: 1;}
.edge:hover path { stroke: red; }
.edge:hover polygon { stroke: red; fill: red; }
]]></style>

<defs>
  <circle id="rim" cx="0" cy="0" r="7"/>
  <circle id="rim2" cx="0" cy="0" r="3.5"/>
  <g id="zoomPlus">
    <use xlink:href="#rim" fill="#404040"><set attributeName="fill" to="#808080" begin="zoomplus.mouseover" end="zoomplus.mouseout"/></use>
    <path d="M-4,0h8M0,-4v8" fill="none" stroke="white" stroke-width="1.5" pointer-events="none"/>
  </g>
  <g id="zoomMin">
    <use xlink:href="#rim" fill="#404040"><set attributeName="fill" to="#808080" begin="zoomminus.mouseover" end="zoomminus.mouseout"/></use>
    <path d="M-4,0h8" fill="none" stroke="white" stroke-width="1.5" pointer-events="none"/>
  </g>
  <g id="arrowUp" transform="translate(30 24)">
    <use xlink:href="#rim"/>
    <path pointer-events="none" fill="none" stroke="white" stroke-width="1.5" d="M0,-3.0v7 M-2.5,-0.5L0,-3.0L2.5,-0.5"/>
  </g>
  <g id="arrowRight" transform="rotate(90) translate(36 -43)">
    <use xlink:href="#rim"/>
    <path pointer-events="none" fill="none" stroke="white" stroke-width="1.5" d="M0,-3.0v7 M-2.5,-0.5L0,-3.0L2.5,-0.5"/>
  </g>
  <g id="arrowDown" transform="rotate(180) translate(-30 -48)">
    <use xlink:href="#rim"/>
    <path pointer-events="none" fill="none" stroke="white" stroke-width="1.5" d="M0,-3.0v7 M-2.5,-0.5L0,-3.0L2.5,-0.5"/>
  </g>
  <g id="arrowLeft" transform="rotate(270) translate(-36 17)">
    <use xlink:href="#rim"/>
    <path pointer-events="none" fill="none" stroke="white" stroke-width="1.5" d="M0,-3.0v7 M-2.5,-0.5L0,-3.0L2.5,-0.5"/>
  </g>
  <g id="resetDef">
    <use xlink:href="#rim2" fill="#404040"><set attributeName="fill" to="#808080" begin="reset.mouseover" end="reset.mouseout"/></use>
  </g>
</defs>
<script type="application/ecmascript">
var viewWidth = 1008;
var viewHeight = 420;
var sectionId = 'dynsection-0';
</script>
<script type="application/ecmascript" xlink:href="svg.min.js"/>
<svg id="graph" class="graph">
<g id="viewport">
<title>TullipApp/DataBase.cpp</title>
<!-- Node1 -->
<g id="Node000001" class="node">
<title>Node1</title>
<g id="a_Node000001"><a xlink:title=" ">
<polygon fill="#999999" stroke="#666666" points="760.88,-412 639.12,-412 639.12,-392 760.88,-392 760.88,-412"/>
<text text-anchor="middle" x="700" y="-398.5" font-family="Helvetica,sans-Serif" font-size="10.00">TullipApp/DataBase.cpp</text>
</a>
</g>
</g>
<!-- Node2 -->
<g id="Node000002" class="node">
<title>Node2</title>
<g id="a_Node000002"><a xlink:href="_data_base_8h.html" target="_top" xlink:title="Defines the Database class for managing lessons, parents, children, and employees.">
<polygon fill="white" stroke="#666666" points="328.88,-300 261.12,-300 261.12,-280 328.88,-280 328.88,-300"/>
<text text-anchor="middle" x="295" y="-286.5" font-family="Helvetica,sans-Serif" font-size="10.00">DataBase.h</text>
</a>
</g>
</g>
<!-- Node1&#45;&gt;Node2 -->
<g id="edge1_Node000001_Node000002" class="edge">
<title>Node1&#45;&gt;Node2</title>
<g id="a_edge1_Node000001_Node000002"><a xlink:title=" ">
<path fill="none" stroke="#63b8ff" d="M638.84,-401.37C572.8,-399.76 465.71,-391.18 381,-356 354.17,-344.85 328.25,-323.32 312.01,-308.1"/>
<polygon fill="#63b8ff" stroke="#63b8ff" points="314.75,-305.88 305.12,-301.45 309.88,-310.91 314.75,-305.88"/>
</a>
</g>
</g>
<!-- Node12 -->
<g id="Node000012" class="node">
<title>Node12</title>
<g id="a_Node000012"><a xlink:href="_helper___functions_8h.html" target="_top" xlink:title="Provides utility functions and templates for common operations.">
<polygon fill="white" stroke="#666666" points="837.38,-76 736.62,-76 736.62,-56 837.38,-56 837.38,-76"/>
<text text-anchor="middle" x="787" y="-62.5" font-family="Helvetica,sans-Serif" font-size="10.00">Helper_Functions.h</text>
</a>
</g>
</g>
<!-- Node1&#45;&gt;Node12 -->
<g id="edge39_Node000001_Node000012" class="edge">
<title>Node1&#45;&gt;Node12</title>
<g id="a_edge39_Node000001_Node000012"><a xlink:title=" ">
<path fill="none" stroke="#63b8ff" d="M725.32,-391.51C758.89,-377.37 816.71,-347.27 841,-300 878.63,-226.77 825.57,-127.2 799.74,-86.02"/>
<polygon fill="#63b8ff" stroke="#63b8ff" points="802.73,-84.22 794.37,-77.72 796.85,-88.01 802.73,-84.22"/>
</a>
</g>
</g>
<!-- Node14 -->
<g id="Node000014" class="node">
<title>Node14</title>
<g id="a_Node000014"><a xlink:title=" ">
<polygon fill="#e0e0e0" stroke="#999999" points="999.88,-20 944.12,-20 944.12,0 999.88,0 999.88,-20"/>
<text text-anchor="middle" x="972" y="-6.5" font-family="Helvetica,sans-Serif" font-size="10.00">algorithm</text>
</a>
</g>
</g>
<!-- Node1&#45;&gt;Node14 -->
<g id="edge48_Node000001_Node000014" class="edge">
<title>Node1&#45;&gt;Node14</title>
<g id="a_edge48_Node000001_Node000014"><a xlink:title=" ">
<path fill="none" stroke="#63b8ff" d="M751.82,-391.55C832.51,-375.35 979,-339.29 979,-291 979,-291 979,-291 979,-121 979,-89.81 976.16,-53.74 974.1,-31.65"/>
<polygon fill="#63b8ff" stroke="#63b8ff" points="977.6,-31.52 973.15,-21.91 970.64,-32.2 977.6,-31.52"/>
</a>
</g>
</g>
<!-- Node20 -->
<g id="Node000020" class="node">
<title>Node20</title>
<g id="a_Node000020"><a xlink:href="_data_base___parser___functions_8h.html" target="_top" xlink:title=" ">
<polygon fill="white" stroke="#666666" points="539.75,-356 390.25,-356 390.25,-336 539.75,-336 539.75,-356"/>
<text text-anchor="middle" x="465" y="-342.5" font-family="Helvetica,sans-Serif" font-size="10.00">DataBase_Parser_Functions.h</text>
</a>
</g>
</g>
<!-- Node1&#45;&gt;Node20 -->
<g id="edge40_Node000001_Node000020" class="edge">
<title>Node1&#45;&gt;Node20</title>
<g id="a_edge40_Node000001_Node000020"><a xlink:title=" ">
<path fill="none" stroke="#63b8ff" d="M658.8,-391.53C619.4,-382.48 559.85,-368.8 517.17,-358.99"/>
<polygon fill="#63b8ff" stroke="#63b8ff" points="518.16,-355.62 507.63,-356.8 516.59,-362.45 518.16,-355.62"/>
</a>
</g>
</g>
<!-- Node3 -->
<g id="Node000003" class="node">
<title>Node3</title>
<g id="a_Node000003"><a xlink:title=" ">
<polygon fill="#e0e0e0" stroke="#999999" points="196.5,-20 153.5,-20 153.5,0 196.5,0 196.5,-20"/>
<text text-anchor="middle" x="175" y="-6.5" font-family="Helvetica,sans-Serif" font-size="10.00">vector</text>
</a>
</g>
</g>
<!-- Node2&#45;&gt;Node3 -->
<g id="edge2_Node000002_Node000003" class="edge">
<title>Node2&#45;&gt;Node3</title>
<g id="a_edge2_Node000002_Node000003"><a xlink:title=" ">
<path fill="none" stroke="#63b8ff" d="M261.05,-282.06C239.68,-275.83 213.5,-264.41 199,-244 152.38,-178.36 163.52,-74.88 170.96,-31.36"/>
<polygon fill="#63b8ff" stroke="#63b8ff" points="174.39,-32.06 172.76,-21.59 167.5,-30.79 174.39,-32.06"/>
</a>
</g>
</g>
<!-- Node4 -->
<g id="Node000004" class="node">
<title>Node4</title>
<g id="a_Node000004"><a xlink:title=" ">
<polygon fill="#e0e0e0" stroke="#999999" points="920.38,-20 885.62,-20 885.62,0 920.38,0 920.38,-20"/>
<text text-anchor="middle" x="903" y="-6.5" font-family="Helvetica,sans-Serif" font-size="10.00">map</text>
</a>
</g>
</g>
<!-- Node2&#45;&gt;Node4 -->
<g id="edge3_Node000002_Node000004" class="edge">
<title>Node2&#45;&gt;Node4</title>
<g id="a_edge3_Node000002_Node000004"><a xlink:title=" ">
<path fill="none" stroke="#63b8ff" d="M329.22,-281.6C332.19,-281.03 335.14,-280.49 338,-280 522.48,-248.3 586.18,-280.35 749,-188 813.88,-151.2 832.58,-138.03 874,-76 883.45,-61.85 891.12,-44.12 896.2,-30.76"/>
<polygon fill="#63b8ff" stroke="#63b8ff" points="899.34,-32.35 899.45,-21.75 892.76,-29.97 899.34,-32.35"/>
</a>
</g>
</g>
<!-- Node5 -->
<g id="Node000005" class="node">
<title>Node5</title>
<g id="a_Node000005"><a xlink:title=" ">
<polygon fill="#e0e0e0" stroke="#999999" points="475,-20 435,-20 435,0 475,0 475,-20"/>
<text text-anchor="middle" x="455" y="-6.5" font-family="Helvetica,sans-Serif" font-size="10.00">string</text>
</a>
</g>
</g>
<!-- Node2&#45;&gt;Node5 -->
<g id="edge4_Node000002_Node000005" class="edge">
<title>Node2&#45;&gt;Node5</title>
<g id="a_edge4_Node000002_Node000005"><a xlink:title=" ">
<path fill="none" stroke="#63b8ff" d="M281.09,-279.59C257.69,-262.52 213,-224.02 213,-179 213,-179 213,-179 213,-121 213,-90.2 213.65,-76.08 237,-56 264.65,-32.22 370.01,-19.05 423.48,-13.76"/>
<polygon fill="#63b8ff" stroke="#63b8ff" points="423.53,-17.27 433.15,-12.84 422.87,-10.31 423.53,-17.27"/>
</a>
</g>
</g>
<!-- Node6 -->
<g id="Node000006" class="node">
<title>Node6</title>
<g id="a_Node000006"><a xlink:title=" ">
<polygon fill="#e0e0e0" stroke="#999999" points="77.5,-244 28.5,-244 28.5,-224 77.5,-224 77.5,-244"/>
<text text-anchor="middle" x="53" y="-230.5" font-family="Helvetica,sans-Serif" font-size="10.00">fstream</text>
</a>
</g>
</g>
<!-- Node2&#45;&gt;Node6 -->
<g id="edge5_Node000002_Node000006" class="edge">
<title>Node2&#45;&gt;Node6</title>
<g id="a_edge5_Node000002_Node000006"><a xlink:title=" ">
<path fill="none" stroke="#63b8ff" d="M260.84,-282.24C221.54,-274.33 154.82,-260.5 88.84,-244.6"/>
<polygon fill="#63b8ff" stroke="#63b8ff" points="89.84,-241.24 79.3,-242.28 88.19,-248.05 89.84,-241.24"/>
</a>
</g>
</g>
<!-- Node7 -->
<g id="Node000007" class="node">
<title>Node7</title>
<g id="a_Node000007"><a xlink:title=" ">
<polygon fill="#e0e0e0" stroke="#999999" points="146.62,-244 95.38,-244 95.38,-224 146.62,-224 146.62,-244"/>
<text text-anchor="middle" x="121" y="-230.5" font-family="Helvetica,sans-Serif" font-size="10.00">memory</text>
</a>
</g>
</g>
<!-- Node2&#45;&gt;Node7 -->
<g id="edge6_Node000002_Node000007" class="edge">
<title>Node2&#45;&gt;Node7</title>
<g id="a_edge6_Node000002_Node000007"><a xlink:title=" ">
<path fill="none" stroke="#63b8ff" d="M264.69,-279.59C234.9,-270.35 189.41,-256.23 157.62,-246.36"/>
<polygon fill="#63b8ff" stroke="#63b8ff" points="159.02,-243.14 148.44,-243.51 156.95,-249.82 159.02,-243.14"/>
</a>
</g>
</g>
<!-- Node8 -->
<g id="Node000008" class="node">
<title>Node8</title>
<g id="a_Node000008"><a xlink:href="_lesson_8h.html" target="_top" xlink:title="Defines the Lesson class, which represents a lesson with its associated details.">
<polygon fill="white" stroke="#666666" points="595.88,-244 540.12,-244 540.12,-224 595.88,-224 595.88,-244"/>
<text text-anchor="middle" x="568" y="-230.5" font-family="Helvetica,sans-Serif" font-size="10.00">Lesson.h</text>
</a>
</g>
</g>
<!-- Node2&#45;&gt;Node8 -->
<g id="edge7_Node000002_Node000008" class="edge">
<title>Node2&#45;&gt;Node8</title>
<g id="a_edge7_Node000002_Node000008"><a xlink:title=" ">
<path fill="none" stroke="#63b8ff" d="M329.26,-281.79C332.21,-281.18 335.16,-280.58 338,-280 404.77,-266.48 482.58,-251.4 528.43,-242.58"/>
<polygon fill="#63b8ff" stroke="#63b8ff" points="529,-246.03 538.16,-240.71 527.68,-239.16 529,-246.03"/>
</a>
</g>
</g>
<!-- Node11 -->
<g id="Node000011" class="node">
<title>Node11</title>
<g id="a_Node000011"><a xlink:href="_date_time_8h.html" target="_top" xlink:title="Defines classes and utilities for working with dates, times, and combined date&#45;time values.">
<polygon fill="white" stroke="#666666" points="550.5,-132 483.5,-132 483.5,-112 550.5,-112 550.5,-132"/>
<text text-anchor="middle" x="517" y="-118.5" font-family="Helvetica,sans-Serif" font-size="10.00">DateTime.h</text>
</a>
</g>
</g>
<!-- Node2&#45;&gt;Node11 -->
<g id="edge38_Node000002_Node000011" class="edge">
<title>Node2&#45;&gt;Node11</title>
<g id="a_edge38_Node000002_Node000011"><a xlink:title=" ">
<path fill="none" stroke="#63b8ff" d="M307.57,-279.6C343.98,-252.38 449.78,-173.26 495.52,-139.06"/>
<polygon fill="#63b8ff" stroke="#63b8ff" points="497.44,-142 503.35,-133.2 493.25,-136.39 497.44,-142"/>
</a>
</g>
</g>
<!-- Node18 -->
<g id="Node000018" class="node">
<title>Node18</title>
<g id="a_Node000018"><a xlink:href="_person_8h.html" target="_top" xlink:title="Defines the Person class and its derived classes: Child, Parent, and Employee.">
<polygon fill="white" stroke="#666666" points="539.5,-188 484.5,-188 484.5,-168 539.5,-168 539.5,-188"/>
<text text-anchor="middle" x="512" y="-174.5" font-family="Helvetica,sans-Serif" font-size="10.00">Person.h</text>
</a>
</g>
</g>
<!-- Node2&#45;&gt;Node18 -->
<g id="edge37_Node000002_Node000018" class="edge">
<title>Node2&#45;&gt;Node18</title>
<g id="a_edge37_Node000002_Node000018"><a xlink:title=" ">
<path fill="none" stroke="#63b8ff" d="M313.76,-279.53C331.77,-270.43 359.75,-256.29 384,-244 418.04,-226.75 457.16,-206.88 483.09,-193.7"/>
<polygon fill="#63b8ff" stroke="#63b8ff" points="484.67,-196.82 492,-189.17 481.5,-190.58 484.67,-196.82"/>
</a>
</g>
</g>
<!-- Node8&#45;&gt;Node3 -->
<g id="edge8_Node000008_Node000003" class="edge">
<title>Node8&#45;&gt;Node3</title>
<g id="a_edge8_Node000008_Node000003"><a xlink:title=" ">
<path fill="none" stroke="#63b8ff" d="M545.85,-223.54C493.97,-201.02 361.24,-141.18 259,-76 235.73,-61.17 210.97,-41.47 194.4,-27.66"/>
<polygon fill="#63b8ff" stroke="#63b8ff" points="196.73,-25.04 186.83,-21.26 192.21,-30.39 196.73,-25.04"/>
</a>
</g>
</g>
<!-- Node8&#45;&gt;Node4 -->
<g id="edge10_Node000008_Node000004" class="edge">
<title>Node8&#45;&gt;Node4</title>
<g id="a_edge10_Node000008_Node000004"><a xlink:title=" ">
<path fill="none" stroke="#63b8ff" d="M596.34,-228.45C628.01,-222.53 680.07,-210.19 720,-188 795.22,-146.2 861.87,-65.6 889.48,-29.4"/>
<polygon fill="#63b8ff" stroke="#63b8ff" points="892.1,-31.74 895.3,-21.64 886.5,-27.54 892.1,-31.74"/>
</a>
</g>
</g>
<!-- Node9 -->
<g id="Node000009" class="node">
<title>Node9</title>
<g id="a_Node000009"><a xlink:title=" ">
<polygon fill="#e0e0e0" stroke="#999999" points="684.62,-132 645.38,-132 645.38,-112 684.62,-112 684.62,-132"/>
<text text-anchor="middle" x="665" y="-118.5" font-family="Helvetica,sans-Serif" font-size="10.00">utility</text>
</a>
</g>
</g>
<!-- Node8&#45;&gt;Node9 -->
<g id="edge9_Node000008_Node000009" class="edge">
<title>Node8&#45;&gt;Node9</title>
<g id="a_edge9_Node000008_Node000009"><a xlink:title=" ">
<path fill="none" stroke="#63b8ff" d="M576.27,-223.62C592.45,-205.27 628.52,-164.37 649.34,-140.75"/>
<polygon fill="#63b8ff" stroke="#63b8ff" points="651.76,-143.31 655.75,-133.49 646.51,-138.68 651.76,-143.31"/>
</a>
</g>
</g>
<!-- Node10 -->
<g id="Node000010" class="node">
<title>Node10</title>
<g id="a_Node000010"><a xlink:title=" ">
<polygon fill="#e0e0e0" stroke="#999999" points="752.88,-132 703.12,-132 703.12,-112 752.88,-112 752.88,-132"/>
<text text-anchor="middle" x="728" y="-118.5" font-family="Helvetica,sans-Serif" font-size="10.00">optional</text>
</a>
</g>
</g>
<!-- Node8&#45;&gt;Node10 -->
<g id="edge11_Node000008_Node000010" class="edge">
<title>Node8&#45;&gt;Node10</title>
<g id="a_edge11_Node000008_Node000010"><a xlink:title=" ">
<path fill="none" stroke="#63b8ff" d="M581.64,-223.62C609.15,-204.71 671.54,-161.82 705.3,-138.61"/>
<polygon fill="#63b8ff" stroke="#63b8ff" points="706.89,-141.76 713.15,-133.21 702.92,-135.99 706.89,-141.76"/>
</a>
</g>
</g>
<!-- Node8&#45;&gt;Node11 -->
<g id="edge12_Node000008_Node000011" class="edge">
<title>Node8&#45;&gt;Node11</title>
<g id="a_edge12_Node000008_Node000011"><a xlink:title=" ">
<path fill="none" stroke="#63b8ff" d="M566.33,-223.82C563.75,-210.9 558.13,-186.83 549,-168 544.47,-158.66 538.05,-149.17 532.15,-141.33"/>
<polygon fill="#63b8ff" stroke="#63b8ff" points="535,-139.29 526.06,-133.6 529.5,-143.62 535,-139.29"/>
</a>
</g>
</g>
<!-- Node8&#45;&gt;Node12 -->
<g id="edge36_Node000008_Node000012" class="edge">
<title>Node8&#45;&gt;Node12</title>
<g id="a_edge36_Node000008_Node000012"><a xlink:title=" ">
<path fill="none" stroke="#63b8ff" d="M596.26,-225.55C638.22,-213.09 716.88,-184.1 762,-132 773.02,-119.28 779.45,-101.17 783.02,-87.29"/>
<polygon fill="#63b8ff" stroke="#63b8ff" points="786.35,-88.44 785.13,-77.91 779.52,-86.9 786.35,-88.44"/>
</a>
</g>
</g>
<!-- Node8&#45;&gt;Node18 -->
<g id="edge26_Node000008_Node000018" class="edge">
<title>Node8&#45;&gt;Node18</title>
<g id="a_edge26_Node000008_Node000018"><a xlink:title=" ">
<path fill="none" stroke="#63b8ff" d="M558.25,-223.59C550.38,-216.01 539.1,-205.13 529.65,-196.02"/>
<polygon fill="#63b8ff" stroke="#63b8ff" points="532.36,-193.77 522.73,-189.35 527.5,-198.81 532.36,-193.77"/>
</a>
</g>
</g>
<!-- Node11&#45;&gt;Node5 -->
<g id="edge25_Node000011_Node000005" class="edge">
<title>Node11&#45;&gt;Node5</title>
<g id="a_edge25_Node000011_Node000005"><a xlink:title=" ">
<path fill="none" stroke="#63b8ff" d="M511.71,-111.62C501.6,-93.68 479.33,-54.17 465.9,-30.35"/>
<polygon fill="#63b8ff" stroke="#63b8ff" points="468.98,-28.67 461.02,-21.67 462.88,-32.1 468.98,-28.67"/>
</a>
</g>
</g>
<!-- Node11&#45;&gt;Node12 -->
<g id="edge13_Node000011_Node000012" class="edge">
<title>Node11&#45;&gt;Node12</title>
<g id="a_edge13_Node000011_Node000012"><a xlink:title=" ">
<path fill="none" stroke="#63b8ff" d="M550.92,-114.22C595.48,-105.3 674.42,-89.52 728.66,-78.67"/>
<polygon fill="#63b8ff" stroke="#63b8ff" points="729.24,-82.12 738.36,-76.73 727.87,-75.26 729.24,-82.12"/>
</a>
</g>
</g>
<!-- Node13 -->
<g id="Node000013" class="node">
<title>Node13</title>
<g id="a_Node000013"><a xlink:title=" ">
<polygon fill="#e0e0e0" stroke="#999999" points="735.75,-20 682.25,-20 682.25,0 735.75,0 735.75,-20"/>
<text text-anchor="middle" x="709" y="-6.5" font-family="Helvetica,sans-Serif" font-size="10.00">iostream</text>
</a>
</g>
</g>
<!-- Node11&#45;&gt;Node13 -->
<g id="edge24_Node000011_Node000013" class="edge">
<title>Node11&#45;&gt;Node13</title>
<g id="a_edge24_Node000011_Node000013"><a xlink:title=" ">
<path fill="none" stroke="#63b8ff" d="M550.82,-114.92C579.54,-108.59 620.93,-96.64 652,-76 670.31,-63.84 686.33,-44.32 696.68,-29.84"/>
<polygon fill="#63b8ff" stroke="#63b8ff" points="699.55,-31.84 702.31,-21.61 693.77,-27.89 699.55,-31.84"/>
</a>
</g>
</g>
<!-- Node16 -->
<g id="Node000016" class="node">
<title>Node16</title>
<g id="a_Node000016"><a xlink:href="_date_time___exceptions_8h.html" target="_top" xlink:title="Defines error messages and the DateTimeError exception class for date and time operations.">
<polygon fill="white" stroke="#666666" points="642.5,-76 521.5,-76 521.5,-56 642.5,-56 642.5,-76"/>
<text text-anchor="middle" x="582" y="-62.5" font-family="Helvetica,sans-Serif" font-size="10.00">DateTime_Exceptions.h</text>
</a>
</g>
</g>
<!-- Node11&#45;&gt;Node16 -->
<g id="edge20_Node000011_Node000016" class="edge">
<title>Node11&#45;&gt;Node16</title>
<g id="a_edge20_Node000011_Node000016"><a xlink:title=" ">
<path fill="none" stroke="#63b8ff" d="M528.32,-111.59C537.64,-103.85 551.08,-92.69 562.18,-83.47"/>
<polygon fill="#63b8ff" stroke="#63b8ff" points="564.19,-86.35 569.64,-77.27 559.71,-80.96 564.19,-86.35"/>
</a>
</g>
</g>
<!-- Node12&#45;&gt;Node3 -->
<g id="edge16_Node000012_Node000003" class="edge">
<title>Node12&#45;&gt;Node3</title>
<g id="a_edge16_Node000012_Node000003"><a xlink:title=" ">
<path fill="none" stroke="#63b8ff" d="M736.14,-60.51C614.45,-49.77 309.14,-22.84 208.07,-13.92"/>
<polygon fill="#63b8ff" stroke="#63b8ff" points="208.56,-10.45 198.29,-13.06 207.95,-17.42 208.56,-10.45"/>
</a>
</g>
</g>
<!-- Node12&#45;&gt;Node4 -->
<g id="edge19_Node000012_Node000004" class="edge">
<title>Node12&#45;&gt;Node4</title>
<g id="a_edge19_Node000012_Node000004"><a xlink:title=" ">
<path fill="none" stroke="#63b8ff" d="M807.21,-55.59C826,-46.85 854.17,-33.73 875.1,-23.99"/>
<polygon fill="#63b8ff" stroke="#63b8ff" points="876.34,-27.27 883.93,-19.88 873.39,-20.92 876.34,-27.27"/>
</a>
</g>
</g>
<!-- Node12&#45;&gt;Node5 -->
<g id="edge15_Node000012_Node000005" class="edge">
<title>Node12&#45;&gt;Node5</title>
<g id="a_edge15_Node000012_Node000005"><a xlink:title=" ">
<path fill="none" stroke="#63b8ff" d="M736.21,-56.74C666.69,-45.43 543.94,-25.47 486.41,-16.11"/>
<polygon fill="#63b8ff" stroke="#63b8ff" points="487.09,-12.67 476.66,-14.52 485.97,-19.58 487.09,-12.67"/>
</a>
</g>
</g>
<!-- Node12&#45;&gt;Node13 -->
<g id="edge14_Node000012_Node000013" class="edge">
<title>Node12&#45;&gt;Node13</title>
<g id="a_edge14_Node000012_Node000013"><a xlink:title=" ">
<path fill="none" stroke="#63b8ff" d="M773.41,-55.59C761.96,-47.67 745.34,-36.16 731.84,-26.82"/>
<polygon fill="#63b8ff" stroke="#63b8ff" points="734.15,-24.16 723.94,-21.34 730.17,-29.91 734.15,-24.16"/>
</a>
</g>
</g>
<!-- Node12&#45;&gt;Node14 -->
<g id="edge17_Node000012_Node000014" class="edge">
<title>Node12&#45;&gt;Node14</title>
<g id="a_edge17_Node000012_Node000014"><a xlink:title=" ">
<path fill="none" stroke="#63b8ff" d="M819.22,-55.59C850.85,-46.36 899.12,-32.27 932.91,-22.41"/>
<polygon fill="#63b8ff" stroke="#63b8ff" points="933.71,-25.82 942.32,-19.66 931.74,-19.1 933.71,-25.82"/>
</a>
</g>
</g>
<!-- Node15 -->
<g id="Node000015" class="node">
<title>Node15</title>
<g id="a_Node000015"><a xlink:title=" ">
<polygon fill="#e0e0e0" stroke="#999999" points="816,-20 758,-20 758,0 816,0 816,-20"/>
<text text-anchor="middle" x="787" y="-6.5" font-family="Helvetica,sans-Serif" font-size="10.00">functional</text>
</a>
</g>
</g>
<!-- Node12&#45;&gt;Node15 -->
<g id="edge18_Node000012_Node000015" class="edge">
<title>Node12&#45;&gt;Node15</title>
<g id="a_edge18_Node000012_Node000015"><a xlink:title=" ">
<path fill="none" stroke="#63b8ff" d="M787,-55.59C787,-49.01 787,-39.96 787,-31.73"/>
<polygon fill="#63b8ff" stroke="#63b8ff" points="790.5,-31.81 787,-21.81 783.5,-31.81 790.5,-31.81"/>
</a>
</g>
</g>
<!-- Node16&#45;&gt;Node5 -->
<g id="edge21_Node000016_Node000005" class="edge">
<title>Node16&#45;&gt;Node5</title>
<g id="a_edge21_Node000016_Node000005"><a xlink:title=" ">
<path fill="none" stroke="#63b8ff" d="M559.88,-55.59C539.36,-46.87 508.63,-33.8 485.73,-24.06"/>
<polygon fill="#63b8ff" stroke="#63b8ff" points="487.16,-20.87 476.59,-20.18 484.42,-27.31 487.16,-20.87"/>
</a>
</g>
</g>
<!-- Node16&#45;&gt;Node13 -->
<g id="edge22_Node000016_Node000013" class="edge">
<title>Node16&#45;&gt;Node13</title>
<g id="a_edge22_Node000016_Node000013"><a xlink:title=" ">
<path fill="none" stroke="#63b8ff" d="M604.12,-55.59C624.03,-47.13 653.55,-34.58 676.21,-24.94"/>
<polygon fill="#63b8ff" stroke="#63b8ff" points="677.48,-28.21 685.31,-21.07 674.74,-21.76 677.48,-28.21"/>
</a>
</g>
</g>
<!-- Node17 -->
<g id="Node000017" class="node">
<title>Node17</title>
<g id="a_Node000017"><a xlink:title=" ">
<polygon fill="#e0e0e0" stroke="#999999" points="611,-20 553,-20 553,0 611,0 611,-20"/>
<text text-anchor="middle" x="582" y="-6.5" font-family="Helvetica,sans-Serif" font-size="10.00">exception</text>
</a>
</g>
</g>
<!-- Node16&#45;&gt;Node17 -->
<g id="edge23_Node000016_Node000017" class="edge">
<title>Node16&#45;&gt;Node17</title>
<g id="a_edge23_Node000016_Node000017"><a xlink:title=" ">
<path fill="none" stroke="#63b8ff" d="M582,-55.59C582,-49.01 582,-39.96 582,-31.73"/>
<polygon fill="#63b8ff" stroke="#63b8ff" points="585.5,-31.81 582,-21.81 578.5,-31.81 585.5,-31.81"/>
</a>
</g>
</g>
<!-- Node18&#45;&gt;Node3 -->
<g id="edge30_Node000018_Node000003" class="edge">
<title>Node18&#45;&gt;Node3</title>
<g id="a_edge30_Node000018_Node000003"><a xlink:title=" ">
<path fill="none" stroke="#63b8ff" d="M491.09,-167.54C471.39,-158.57 441.07,-144.61 415,-132 337.97,-94.73 248.15,-48.77 203.39,-25.69"/>
<polygon fill="#63b8ff" stroke="#63b8ff" points="205.1,-22.64 194.61,-21.16 201.89,-28.86 205.1,-22.64"/>
</a>
</g>
</g>
<!-- Node18&#45;&gt;Node5 -->
<g id="edge28_Node000018_Node000005" class="edge">
<title>Node18&#45;&gt;Node5</title>
<g id="a_edge28_Node000018_Node000005"><a xlink:title=" ">
<path fill="none" stroke="#63b8ff" d="M501.79,-167.69C493.21,-159.24 481.35,-146 475,-132 460.02,-98.98 456.12,-56.34 455.19,-31.49"/>
<polygon fill="#63b8ff" stroke="#63b8ff" points="458.69,-31.7 454.96,-21.78 451.69,-31.86 458.69,-31.7"/>
</a>
</g>
</g>
<!-- Node18&#45;&gt;Node9 -->
<g id="edge29_Node000018_Node000009" class="edge">
<title>Node18&#45;&gt;Node9</title>
<g id="a_edge29_Node000018_Node000009"><a xlink:title=" ">
<path fill="none" stroke="#63b8ff" d="M538.65,-167.59C565.29,-158.19 606.21,-143.75 634.22,-133.86"/>
<polygon fill="#63b8ff" stroke="#63b8ff" points="635.3,-137.2 643.56,-130.57 632.97,-130.59 635.3,-137.2"/>
</a>
</g>
</g>
<!-- Node18&#45;&gt;Node10 -->
<g id="edge31_Node000018_Node000010" class="edge">
<title>Node18&#45;&gt;Node10</title>
<g id="a_edge31_Node000018_Node000010"><a xlink:title=" ">
<path fill="none" stroke="#63b8ff" d="M539.79,-170.28C573.42,-162.11 632.05,-147.77 691.63,-132.58"/>
<polygon fill="#63b8ff" stroke="#63b8ff" points="692.47,-135.97 701.29,-130.11 690.74,-129.19 692.47,-135.97"/>
</a>
</g>
</g>
<!-- Node18&#45;&gt;Node11 -->
<g id="edge32_Node000018_Node000011" class="edge">
<title>Node18&#45;&gt;Node11</title>
<g id="a_edge32_Node000018_Node000011"><a xlink:title=" ">
<path fill="none" stroke="#63b8ff" d="M512.87,-167.59C513.48,-161.01 514.32,-151.96 515.08,-143.73"/>
<polygon fill="#63b8ff" stroke="#63b8ff" points="518.56,-144.09 516,-133.81 511.59,-143.44 518.56,-144.09"/>
</a>
</g>
</g>
<!-- Node18&#45;&gt;Node12 -->
<g id="edge35_Node000018_Node000012" class="edge">
<title>Node18&#45;&gt;Node12</title>
<g id="a_edge35_Node000018_Node000012"><a xlink:title=" ">
<path fill="none" stroke="#63b8ff" d="M528.66,-167.75C557.28,-151.96 614.72,-120.65 636,-112 668.8,-98.66 707.05,-87.3 736.84,-79.34"/>
<polygon fill="#63b8ff" stroke="#63b8ff" points="737.57,-82.76 746.35,-76.84 735.79,-75.99 737.57,-82.76"/>
</a>
</g>
</g>
<!-- Node18&#45;&gt;Node13 -->
<g id="edge27_Node000018_Node000013" class="edge">
<title>Node18&#45;&gt;Node13</title>
<g id="a_edge27_Node000018_Node000013"><a xlink:title=" ">
<path fill="none" stroke="#63b8ff" d="M521.81,-167.62C536.41,-154.02 565.14,-128.64 593,-112 628.22,-90.96 648.35,-104.36 678,-76 690.85,-63.71 698.99,-45.02 703.68,-30.83"/>
<polygon fill="#63b8ff" stroke="#63b8ff" points="706.91,-32.24 706.42,-21.66 700.21,-30.25 706.91,-32.24"/>
</a>
</g>
</g>
<!-- Node19 -->
<g id="Node000019" class="node">
<title>Node19</title>
<g id="a_Node000019"><a xlink:href="_data___helper___types_8h.html" target="_top" xlink:title="Defines utility classes for managing contact&#45;related data such as email, phone, and address.">
<polygon fill="white" stroke="#666666" points="427.25,-76 316.75,-76 316.75,-56 427.25,-56 427.25,-76"/>
<text text-anchor="middle" x="372" y="-62.5" font-family="Helvetica,sans-Serif" font-size="10.00">Data_Helper_Types.h</text>
</a>
</g>
</g>
<!-- Node18&#45;&gt;Node19 -->
<g id="edge33_Node000018_Node000019" class="edge">
<title>Node18&#45;&gt;Node19</title>
<g id="a_edge33_Node000018_Node000019"><a xlink:title=" ">
<path fill="none" stroke="#63b8ff" d="M495.33,-167.66C480.55,-159.09 458.64,-145.69 441,-132 422.02,-117.26 402.24,-98.19 388.75,-84.52"/>
<polygon fill="#63b8ff" stroke="#63b8ff" points="391.41,-82.23 381.92,-77.51 386.39,-87.11 391.41,-82.23"/>
</a>
</g>
</g>
<!-- Node19&#45;&gt;Node5 -->
<g id="edge34_Node000019_Node000005" class="edge">
<title>Node19&#45;&gt;Node5</title>
<g id="a_edge34_Node000019_Node000005"><a xlink:title=" ">
<path fill="none" stroke="#63b8ff" d="M386.46,-55.59C398.76,-47.59 416.68,-35.93 431.11,-26.54"/>
<polygon fill="#63b8ff" stroke="#63b8ff" points="432.69,-29.69 439.16,-21.3 428.87,-23.82 432.69,-29.69"/>
</a>
</g>
</g>
<!-- Node20&#45;&gt;Node2 -->
<g id="edge45_Node000020_Node000002" class="edge">
<title>Node20&#45;&gt;Node2</title>
<g id="a_edge45_Node000020_Node000002"><a xlink:title=" ">
<path fill="none" stroke="#63b8ff" d="M435.39,-335.59C407.77,-326.82 366.33,-313.66 335.62,-303.9"/>
<polygon fill="#63b8ff" stroke="#63b8ff" points="336.88,-300.63 326.29,-300.94 334.76,-307.3 336.88,-300.63"/>
</a>
</g>
</g>
<!-- Node20&#45;&gt;Node3 -->
<g id="edge44_Node000020_Node000003" class="edge">
<title>Node20&#45;&gt;Node3</title>
<g id="a_edge44_Node000020_Node000003"><a xlink:title=" ">
<path fill="none" stroke="#63b8ff" d="M389.77,-342.62C258.17,-336.4 0,-314.12 0,-235 0,-235 0,-235 0,-121 0,-54.58 91.47,-26.7 142.15,-16.36"/>
<polygon fill="#63b8ff" stroke="#63b8ff" points="142.54,-19.85 151.7,-14.53 141.22,-12.97 142.54,-19.85"/>
</a>
</g>
</g>
<!-- Node20&#45;&gt;Node5 -->
<g id="edge42_Node000020_Node000005" class="edge">
<title>Node20&#45;&gt;Node5</title>
<g id="a_edge42_Node000020_Node000005"><a xlink:title=" ">
<path fill="none" stroke="#63b8ff" d="M456.93,-335.61C429.3,-302.74 338.5,-188.75 308,-76 294.63,-26.56 375.98,-14.6 423.11,-11.79"/>
<polygon fill="#63b8ff" stroke="#63b8ff" points="423.22,-15.29 433.04,-11.32 422.89,-8.3 423.22,-15.29"/>
</a>
</g>
</g>
<!-- Node20&#45;&gt;Node8 -->
<g id="edge46_Node000020_Node000008" class="edge">
<title>Node20&#45;&gt;Node8</title>
<g id="a_edge46_Node000020_Node000008"><a xlink:title=" ">
<path fill="none" stroke="#63b8ff" d="M477.15,-335.6C488.07,-326.89 504.32,-313.31 517,-300 531.04,-285.27 545.18,-266.91 554.99,-253.46"/>
<polygon fill="#63b8ff" stroke="#63b8ff" points="557.72,-255.67 560.7,-245.51 552.03,-251.59 557.72,-255.67"/>
</a>
</g>
</g>
<!-- Node20&#45;&gt;Node13 -->
<g id="edge41_Node000020_Node000013" class="edge">
<title>Node20&#45;&gt;Node13</title>
<g id="a_edge41_Node000020_Node000013"><a xlink:title=" ">
<path fill="none" stroke="#63b8ff" d="M540.01,-337.51C646.04,-324.82 827,-294.44 827,-235 827,-235 827,-235 827,-177 827,-163.39 853.98,-67.02 846,-56 839.97,-47.67 785.26,-31.5 746.83,-20.98"/>
<polygon fill="#63b8ff" stroke="#63b8ff" points="748.02,-17.68 737.45,-18.44 746.19,-24.43 748.02,-17.68"/>
</a>
</g>
</g>
<!-- Node20&#45;&gt;Node18 -->
<g id="edge47_Node000020_Node000018" class="edge">
<title>Node20&#45;&gt;Node18</title>
<g id="a_edge47_Node000020_Node000018"><a xlink:title=" ">
<path fill="none" stroke="#63b8ff" d="M467.66,-335.6C475.06,-309.46 496.01,-235.48 506.24,-199.36"/>
<polygon fill="#63b8ff" stroke="#63b8ff" points="509.6,-200.33 508.96,-189.75 502.86,-198.42 509.6,-200.33"/>
</a>
</g>
</g>
<!-- Node21 -->
<g id="Node000021" class="node">
<title>Node21</title>
<g id="a_Node000021"><a xlink:title=" ">
<polygon fill="#e0e0e0" stroke="#999999" points="398.62,-300 347.38,-300 347.38,-280 398.62,-280 398.62,-300"/>
<text text-anchor="middle" x="373" y="-286.5" font-family="Helvetica,sans-Serif" font-size="10.00">sstream</text>
</a>
</g>
</g>
<!-- Node20&#45;&gt;Node21 -->
<g id="edge43_Node000020_Node000021" class="edge">
<title>Node20&#45;&gt;Node21</title>
<g id="a_edge43_Node000020_Node000021"><a xlink:title=" ">
<path fill="none" stroke="#63b8ff" d="M448.97,-335.59C435.21,-327.51 415.1,-315.71 399.02,-306.27"/>
<polygon fill="#63b8ff" stroke="#63b8ff" points="400.85,-303.29 390.46,-301.25 397.31,-309.33 400.85,-303.29"/>
</a>
</g>
</g>
</g>
</svg>

<g id="navigator" transform="translate(0 0)" fill="#404254">
  <rect fill="#f2f5e9" fill-opacity="0.5" stroke="#606060" stroke-width=".5" x="0" y="0" width="60" height="60"/>
  <use id="zoomplus" xlink:href="#zoomPlus" x="17" y="9" onmousedown="handleZoom(evt,'in')"/>
  <use id="zoomminus" xlink:href="#zoomMin" x="42" y="9" onmousedown="handleZoom(evt,'out')"/>
  <use id="reset" xlink:href="#resetDef" x="30" y="36" onmousedown="handleReset()"/>
   <use id="arrowup" xlink:href="#arrowUp" x="0" y="0" onmousedown="handlePan(0,-1)"/>
  <use id="arrowright" xlink:href="#arrowRight" x="0" y="0" onmousedown="handlePan(1,0)"/>
  <use id="arrowdown" xlink:href="#arrowDown" x="0" y="0" onmousedown="handlePan(0,1)"/>
  <use id="arrowleft" xlink:href="#arrowLeft" x="0" y="0" onmousedown="handlePan(-1,0)"/>
</g>
<svg viewBox="0 0 15 15" width="100%" height="30px" preserveAspectRatio="xMaxYMin meet">
 <g id="arrow_out" transform="scale(0.3 0.3)">
  <a xlink:href="_data_base_8cpp__incl_org.svg" target="_base">
   <rect id="button" ry="5" rx="5" y="6" x="6" height="38" width="38"
        fill="#f2f5e9" fill-opacity="0.5" stroke="#606060" stroke-width="1.0"/>
   <path id="arrow"
     d="M 11.500037,31.436501 C 11.940474,20.09759 22.043105,11.32322 32.158766,21.979434 L 37.068811,17.246167 C 37.068811,17.246167 37.088388,32 37.088388,32 L 22.160133,31.978069 C 22.160133,31.978069 26.997745,27.140456 26.997745,27.140456 C 18.528582,18.264221 13.291696,25.230495 11.500037,31.436501 z"
     style="fill:#404040;"/>
  </a>
 </g>
</svg>

<style type='text/css'>
<![CDATA[
[data-mouse-over-selected='false'] { opacity: 0.7; }
[data-mouse-over-selected='true']  { opacity: 1.0; }
]]>
</style>
<script type="application/ecmascript"><![CDATA[
document.addEventListener('DOMContentLoaded', (event) => {
  highlightEdges();
  highlightAdjacentNodes();
});
]]></script>
</svg>
