<?xml version="1.0" encoding="UTF-8" standalone="no"?>
<!DOCTYPE svg PUBLIC "-//W3C//DTD SVG 1.1//EN"
 "http://www.w3.org/Graphics/SVG/1.1/DTD/svg11.dtd">
<!-- Generated by graphviz version 12.2.1 (20241206.2353)
 -->
<!-- Title: TullipApp/DataBase.h Pages: 1 -->
<!--zoomable 232 -->

<svg id="main" version="1.1" xmlns="http://www.w3.org/2000/svg" xmlns:xlink="http://www.w3.org/1999/xlink" xml:space="preserve" onload="init(evt)">

<style type="text/css"><![CDATA[
.node, .edge {opacity: 0.7;}
.node.selected, .edge.selected {opacity: 1;}
.edge:hover path { stroke: red; }
.edge:hover polygon { stroke: red; fill: red; }
]]></style>

<defs>
  <circle id="rim" cx="0" cy="0" r="7"/>
  <circle id="rim2" cx="0" cy="0" r="3.5"/>
  <g id="zoomPlus">
    <use xlink:href="#rim" fill="#404040"><set attributeName="fill" to="#808080" begin="zoomplus.mouseover" end="zoomplus.mouseout"/></use>
    <path d="M-4,0h8M0,-4v8" fill="none" stroke="white" stroke-width="1.5" pointer-events="none"/>
  </g>
  <g id="zoomMin">
    <use xlink:href="#rim" fill="#404040"><set attributeName="fill" to="#808080" begin="zoomminus.mouseover" end="zoomminus.mouseout"/></use>
    <path d="M-4,0h8" fill="none" stroke="white" stroke-width="1.5" pointer-events="none"/>
  </g>
  <g id="arrowUp" transform="translate(30 24)">
    <use xlink:href="#rim"/>
    <path pointer-events="none" fill="none" stroke="white" stroke-width="1.5" d="M0,-3.0v7 M-2.5,-0.5L0,-3.0L2.5,-0.5"/>
  </g>
  <g id="arrowRight" transform="rotate(90) translate(36 -43)">
    <use xlink:href="#rim"/>
    <path pointer-events="none" fill="none" stroke="white" stroke-width="1.5" d="M0,-3.0v7 M-2.5,-0.5L0,-3.0L2.5,-0.5"/>
  </g>
  <g id="arrowDown" transform="rotate(180) translate(-30 -48)">
    <use xlink:href="#rim"/>
    <path pointer-events="none" fill="none" stroke="white" stroke-width="1.5" d="M0,-3.0v7 M-2.5,-0.5L0,-3.0L2.5,-0.5"/>
  </g>
  <g id="arrowLeft" transform="rotate(270) translate(-36 17)">
    <use xlink:href="#rim"/>
    <path pointer-events="none" fill="none" stroke="white" stroke-width="1.5" d="M0,-3.0v7 M-2.5,-0.5L0,-3.0L2.5,-0.5"/>
  </g>
  <g id="resetDef">
    <use xlink:href="#rim2" fill="#404040"><set attributeName="fill" to="#808080" begin="reset.mouseover" end="reset.mouseout"/></use>
  </g>
</defs>
<script type="application/ecmascript">
var viewWidth = 1043;
var viewHeight = 232;
var sectionId = 'dynsection-1';
</script>
<script type="application/ecmascript" xlink:href="svg.min.js"/>
<svg id="graph" class="graph">
<g id="viewport">
<title>TullipApp/DataBase.h</title>
<!-- Node1 -->
<g id="Node000001" class="node">
<title>Node1</title>
<g id="a_Node000001"><a xlink:title="Defines the Database class for managing lessons, parents, children, and employees.">
<polygon fill="#999999" stroke="#666666" points="579.88,-224 468.62,-224 468.62,-204 579.88,-204 579.88,-224"/>
<text text-anchor="middle" x="524.25" y="-210.5" font-family="Helvetica,sans-Serif" font-size="10.00">TullipApp/DataBase.h</text>
</a>
</g>
</g>
<!-- Node2 -->
<g id="Node000002" class="node">
<title>Node2</title>
<g id="a_Node000002"><a xlink:href="_child_dialog_8h.html" target="_top" xlink:title="Defines the ChildDialog class for managing child&#45;related information.">
<polygon fill="white" stroke="#666666" points="312.25,-162 194.25,-162 194.25,-142 312.25,-142 312.25,-162"/>
<text text-anchor="middle" x="253.25" y="-148.5" font-family="Helvetica,sans-Serif" font-size="10.00">TullipApp/ChildDialog.h</text>
</a>
</g>
</g>
<!-- Node1&#45;&gt;Node2 -->
<g id="edge1_Node000001_Node000002" class="edge">
<title>Node1&#45;&gt;Node2</title>
<g id="a_edge1_Node000001_Node000002"><a xlink:title=" ">
<path fill="none" stroke="#63b8ff" d="M470.45,-201.09C419.27,-189.76 343.29,-172.93 296.09,-162.48"/>
<polygon fill="#63b8ff" stroke="#63b8ff" points="469.61,-204.49 480.13,-203.23 471.12,-197.65 469.61,-204.49"/>
</a>
</g>
</g>
<!-- Node4 -->
<g id="Node000004" class="node">
<title>Node4</title>
<g id="a_Node000004"><a xlink:href="_data_base_g_u_i_8h.html" target="_top" xlink:title="Defines the DataBaseGUI class for managing the graphical user interface of the database.">
<polygon fill="white" stroke="#666666" points="438.88,-94 309.62,-94 309.62,-74 438.88,-74 438.88,-94"/>
<text text-anchor="middle" x="374.25" y="-80.5" font-family="Helvetica,sans-Serif" font-size="10.00">TullipApp/DataBaseGUI.h</text>
</a>
</g>
</g>
<!-- Node1&#45;&gt;Node4 -->
<g id="edge9_Node000001_Node000004" class="edge">
<title>Node1&#45;&gt;Node4</title>
<g id="a_edge9_Node000001_Node000004"><a xlink:title=" ">
<path fill="none" stroke="#63b8ff" d="M497,-197.87C483.32,-189.75 466.82,-179.14 453.25,-168 424.35,-144.27 395.29,-110.63 381.89,-94.43"/>
<polygon fill="#63b8ff" stroke="#63b8ff" points="495.09,-200.81 505.5,-202.8 498.6,-194.76 495.09,-200.81"/>
</a>
</g>
</g>
<!-- Node9 -->
<g id="Node000009" class="node">
<title>Node9</title>
<g id="a_Node000009"><a xlink:href="_data_base_8cpp.html" target="_top" xlink:title=" ">
<polygon fill="white" stroke="#666666" points="900.12,-94 778.38,-94 778.38,-74 900.12,-74 900.12,-94"/>
<text text-anchor="middle" x="839.25" y="-80.5" font-family="Helvetica,sans-Serif" font-size="10.00">TullipApp/DataBase.cpp</text>
</a>
</g>
</g>
<!-- Node1&#45;&gt;Node9 -->
<g id="edge8_Node000001_Node000009" class="edge">
<title>Node1&#45;&gt;Node9</title>
<g id="a_edge8_Node000001_Node000009"><a xlink:title=" ">
<path fill="none" stroke="#63b8ff" d="M557.78,-199.37C622.02,-173.27 760.95,-116.82 816.05,-94.43"/>
<polygon fill="#63b8ff" stroke="#63b8ff" points="556.76,-196.01 548.81,-203.02 559.4,-202.5 556.76,-196.01"/>
</a>
</g>
</g>
<!-- Node10 -->
<g id="Node000010" class="node">
<title>Node10</title>
<g id="a_Node000010"><a xlink:href="_data_base___parser___functions_8h.html" target="_top" xlink:title=" ">
<polygon fill="white" stroke="#666666" points="892.25,-168 786.25,-168 786.25,-136 892.25,-136 892.25,-168"/>
<text text-anchor="start" x="794.25" y="-154.5" font-family="Helvetica,sans-Serif" font-size="10.00">TullipApp/DataBase</text>
<text text-anchor="middle" x="839.25" y="-142.5" font-family="Helvetica,sans-Serif" font-size="10.00">_Parser_Functions.h</text>
</a>
</g>
</g>
<!-- Node1&#45;&gt;Node10 -->
<g id="edge10_Node000001_Node000010" class="edge">
<title>Node1&#45;&gt;Node10</title>
<g id="a_edge10_Node000001_Node000010"><a xlink:title=" ">
<path fill="none" stroke="#63b8ff" d="M585.05,-201.42C643.24,-190.34 730.15,-173.78 785.76,-163.19"/>
<polygon fill="#63b8ff" stroke="#63b8ff" points="584.47,-197.97 575.3,-203.28 585.78,-204.84 584.47,-197.97"/>
</a>
</g>
</g>
<!-- Node12 -->
<g id="Node000012" class="node">
<title>Node12</title>
<g id="a_Node000012"><a xlink:href="_parent_dialog_8h.html" target="_top" xlink:title="Defines the ParentDialog class for managing parent&#45;related information.">
<polygon fill="white" stroke="#666666" points="586.25,-162 462.25,-162 462.25,-142 586.25,-142 586.25,-162"/>
<text text-anchor="middle" x="524.25" y="-148.5" font-family="Helvetica,sans-Serif" font-size="10.00">TullipApp/ParentDialog.h</text>
</a>
</g>
</g>
<!-- Node1&#45;&gt;Node12 -->
<g id="edge13_Node000001_Node000012" class="edge">
<title>Node1&#45;&gt;Node12</title>
<g id="a_edge13_Node000001_Node000012"><a xlink:title=" ">
<path fill="none" stroke="#63b8ff" d="M524.25,-192.25C524.25,-181.97 524.25,-170.09 524.25,-162.11"/>
<polygon fill="#63b8ff" stroke="#63b8ff" points="520.75,-192.11 524.25,-202.11 527.75,-192.11 520.75,-192.11"/>
</a>
</g>
</g>
<!-- Node3 -->
<g id="Node000003" class="node">
<title>Node3</title>
<g id="a_Node000003"><a xlink:href="_child_dialog_8cpp.html" target="_top" xlink:title=" ">
<polygon fill="white" stroke="#666666" points="128.5,-94 0,-94 0,-74 128.5,-74 128.5,-94"/>
<text text-anchor="middle" x="64.25" y="-80.5" font-family="Helvetica,sans-Serif" font-size="10.00">TullipApp/ChildDialog.cpp</text>
</a>
</g>
</g>
<!-- Node2&#45;&gt;Node3 -->
<g id="edge2_Node000002_Node000003" class="edge">
<title>Node2&#45;&gt;Node3</title>
<g id="a_edge2_Node000002_Node000003"><a xlink:title=" ">
<path fill="none" stroke="#63b8ff" d="M215.4,-137.78C178.66,-124.95 123.82,-105.8 91.28,-94.44"/>
<polygon fill="#63b8ff" stroke="#63b8ff" points="214.15,-141.05 224.74,-141.04 216.45,-134.44 214.15,-141.05"/>
</a>
</g>
</g>
<!-- Node2&#45;&gt;Node4 -->
<g id="edge3_Node000002_Node000004" class="edge">
<title>Node2&#45;&gt;Node4</title>
<g id="a_edge3_Node000002_Node000004"><a xlink:title=" ">
<path fill="none" stroke="#63b8ff" d="M280.59,-136.09C304.01,-123.32 337.01,-105.31 356.95,-94.44"/>
<polygon fill="#63b8ff" stroke="#63b8ff" points="279.02,-132.96 271.92,-140.82 282.37,-139.1 279.02,-132.96"/>
</a>
</g>
</g>
<!-- Node8 -->
<g id="Node000008" class="node">
<title>Node8</title>
<g id="a_Node000008"><a xlink:href="moc___child_dialog_8cpp.html" target="_top" xlink:title=" ">
<polygon fill="white" stroke="#666666" points="291.75,-100 146.75,-100 146.75,-68 291.75,-68 291.75,-100"/>
<text text-anchor="start" x="154.75" y="-86.5" font-family="Helvetica,sans-Serif" font-size="10.00">TullipApp/x64/Debug</text>
<text text-anchor="middle" x="219.25" y="-74.5" font-family="Helvetica,sans-Serif" font-size="10.00">/qt/moc/moc_ChildDialog.cpp</text>
</a>
</g>
</g>
<!-- Node2&#45;&gt;Node8 -->
<g id="edge7_Node000002_Node000008" class="edge">
<title>Node2&#45;&gt;Node8</title>
<g id="a_edge7_Node000002_Node000008"><a xlink:title=" ">
<path fill="none" stroke="#63b8ff" d="M243.15,-131.39C238.03,-121.45 231.9,-109.56 227.13,-100.3"/>
<polygon fill="#63b8ff" stroke="#63b8ff" points="239.99,-132.91 247.69,-140.2 246.22,-129.71 239.99,-132.91"/>
</a>
</g>
</g>
<!-- Node5 -->
<g id="Node000005" class="node">
<title>Node5</title>
<g id="a_Node000005"><a xlink:href="_data_base_g_u_i_8cpp.html" target="_top" xlink:title=" ">
<polygon fill="white" stroke="#666666" points="306.12,-26 166.38,-26 166.38,-6 306.12,-6 306.12,-26"/>
<text text-anchor="middle" x="236.25" y="-12.5" font-family="Helvetica,sans-Serif" font-size="10.00">TullipApp/DataBaseGUI.cpp</text>
</a>
</g>
</g>
<!-- Node4&#45;&gt;Node5 -->
<g id="edge4_Node000004_Node000005" class="edge">
<title>Node4&#45;&gt;Node5</title>
<g id="a_edge4_Node000004_Node000005"><a xlink:title=" ">
<path fill="none" stroke="#63b8ff" d="M344.15,-68.6C317.38,-55.8 279.03,-37.46 255.99,-26.44"/>
<polygon fill="#63b8ff" stroke="#63b8ff" points="342.58,-71.73 353.11,-72.89 345.6,-65.42 342.58,-71.73"/>
</a>
</g>
</g>
<!-- Node6 -->
<g id="Node000006" class="node">
<title>Node6</title>
<g id="a_Node000006"><a xlink:href="_main_8cpp.html" target="_top" xlink:title=" ">
<polygon fill="white" stroke="#666666" points="423.88,-26 324.62,-26 324.62,-6 423.88,-6 423.88,-26"/>
<text text-anchor="middle" x="374.25" y="-12.5" font-family="Helvetica,sans-Serif" font-size="10.00">TullipApp/Main.cpp</text>
</a>
</g>
</g>
<!-- Node4&#45;&gt;Node6 -->
<g id="edge5_Node000004_Node000006" class="edge">
<title>Node4&#45;&gt;Node6</title>
<g id="a_edge5_Node000004_Node000006"><a xlink:title=" ">
<path fill="none" stroke="#63b8ff" d="M374.25,-62.28C374.25,-50.27 374.25,-35.74 374.25,-26.44"/>
<polygon fill="#63b8ff" stroke="#63b8ff" points="370.75,-62.03 374.25,-72.03 377.75,-62.03 370.75,-62.03"/>
</a>
</g>
</g>
<!-- Node7 -->
<g id="Node000007" class="node">
<title>Node7</title>
<g id="a_Node000007"><a xlink:href="moc___data_base_g_u_i_8cpp.html" target="_top" xlink:title=" ">
<polygon fill="white" stroke="#666666" points="598.38,-32 442.12,-32 442.12,0 598.38,0 598.38,-32"/>
<text text-anchor="start" x="450.12" y="-18.5" font-family="Helvetica,sans-Serif" font-size="10.00">TullipApp/x64/Debug</text>
<text text-anchor="middle" x="520.25" y="-6.5" font-family="Helvetica,sans-Serif" font-size="10.00">/qt/moc/moc_DataBaseGUI.cpp</text>
</a>
</g>
</g>
<!-- Node4&#45;&gt;Node7 -->
<g id="edge6_Node000004_Node000007" class="edge">
<title>Node4&#45;&gt;Node7</title>
<g id="a_edge6_Node000004_Node000007"><a xlink:title=" ">
<path fill="none" stroke="#63b8ff" d="M405.37,-68.93C429.08,-58.21 461.7,-43.47 486.12,-32.43"/>
<polygon fill="#63b8ff" stroke="#63b8ff" points="404.22,-65.61 396.55,-72.92 407.1,-71.99 404.22,-65.61"/>
</a>
</g>
</g>
<!-- Node10&#45;&gt;Node9 -->
<g id="edge11_Node000010_Node000009" class="edge">
<title>Node10&#45;&gt;Node9</title>
<g id="a_edge11_Node000010_Node000009"><a xlink:title=" ">
<path fill="none" stroke="#63b8ff" d="M839.25,-124.31C839.25,-113.67 839.25,-102.13 839.25,-94.32"/>
<polygon fill="#63b8ff" stroke="#63b8ff" points="835.75,-124.18 839.25,-134.18 842.75,-124.18 835.75,-124.18"/>
</a>
</g>
</g>
<!-- Node11 -->
<g id="Node000011" class="node">
<title>Node11</title>
<g id="a_Node000011"><a xlink:href="_data_base___parser___functions_8cpp.html" target="_top" xlink:title=" ">
<polygon fill="white" stroke="#666666" points="1034.5,-100 918,-100 918,-68 1034.5,-68 1034.5,-100"/>
<text text-anchor="start" x="926" y="-86.5" font-family="Helvetica,sans-Serif" font-size="10.00">TullipApp/DataBase</text>
<text text-anchor="middle" x="976.25" y="-74.5" font-family="Helvetica,sans-Serif" font-size="10.00">_Parser_Functions.cpp</text>
</a>
</g>
</g>
<!-- Node10&#45;&gt;Node11 -->
<g id="edge12_Node000010_Node000011" class="edge">
<title>Node10&#45;&gt;Node11</title>
<g id="a_edge12_Node000010_Node000011"><a xlink:title=" ">
<path fill="none" stroke="#63b8ff" d="M881.58,-130.61C901.82,-120.86 925.64,-109.38 944.33,-100.38"/>
<polygon fill="#63b8ff" stroke="#63b8ff" points="880.22,-127.38 872.73,-134.87 883.26,-133.68 880.22,-127.38"/>
</a>
</g>
</g>
<!-- Node12&#45;&gt;Node4 -->
<g id="edge14_Node000012_Node000004" class="edge">
<title>Node12&#45;&gt;Node4</title>
<g id="a_edge14_Node000012_Node000004"><a xlink:title=" ">
<path fill="none" stroke="#63b8ff" d="M492.3,-136.94C463.18,-124.13 420.97,-105.56 395.7,-94.44"/>
<polygon fill="#63b8ff" stroke="#63b8ff" points="490.81,-140.11 501.37,-140.93 493.63,-133.7 490.81,-140.11"/>
</a>
</g>
</g>
<!-- Node13 -->
<g id="Node000013" class="node">
<title>Node13</title>
<g id="a_Node000013"><a xlink:href="_parent_dialog_8cpp.html" target="_top" xlink:title=" ">
<polygon fill="white" stroke="#666666" points="591.5,-94 457,-94 457,-74 591.5,-74 591.5,-94"/>
<text text-anchor="middle" x="524.25" y="-80.5" font-family="Helvetica,sans-Serif" font-size="10.00">TullipApp/ParentDialog.cpp</text>
</a>
</g>
</g>
<!-- Node12&#45;&gt;Node13 -->
<g id="edge15_Node000012_Node000013" class="edge">
<title>Node12&#45;&gt;Node13</title>
<g id="a_edge15_Node000012_Node000013"><a xlink:title=" ">
<path fill="none" stroke="#63b8ff" d="M524.25,-130.28C524.25,-118.27 524.25,-103.74 524.25,-94.44"/>
<polygon fill="#63b8ff" stroke="#63b8ff" points="520.75,-130.03 524.25,-140.03 527.75,-130.03 520.75,-130.03"/>
</a>
</g>
</g>
<!-- Node14 -->
<g id="Node000014" class="node">
<title>Node14</title>
<g id="a_Node000014"><a xlink:href="moc___parent_dialog_8cpp.html" target="_top" xlink:title=" ">
<polygon fill="white" stroke="#666666" points="760.75,-100 609.75,-100 609.75,-68 760.75,-68 760.75,-100"/>
<text text-anchor="start" x="617.75" y="-86.5" font-family="Helvetica,sans-Serif" font-size="10.00">TullipApp/x64/Debug</text>
<text text-anchor="middle" x="685.25" y="-74.5" font-family="Helvetica,sans-Serif" font-size="10.00">/qt/moc/moc_ParentDialog.cpp</text>
</a>
</g>
</g>
<!-- Node12&#45;&gt;Node14 -->
<g id="edge16_Node000012_Node000014" class="edge">
<title>Node12&#45;&gt;Node14</title>
<g id="a_edge16_Node000012_Node000014"><a xlink:title=" ">
<path fill="none" stroke="#63b8ff" d="M557.87,-137.22C584.07,-126.48 620.44,-111.57 647.62,-100.43"/>
<polygon fill="#63b8ff" stroke="#63b8ff" points="556.64,-133.94 548.72,-140.97 559.3,-140.42 556.64,-133.94"/>
</a>
</g>
</g>
</g>
</svg>

<g id="navigator" transform="translate(0 0)" fill="#404254">
  <rect fill="#f2f5e9" fill-opacity="0.5" stroke="#606060" stroke-width=".5" x="0" y="0" width="60" height="60"/>
  <use id="zoomplus" xlink:href="#zoomPlus" x="17" y="9" onmousedown="handleZoom(evt,'in')"/>
  <use id="zoomminus" xlink:href="#zoomMin" x="42" y="9" onmousedown="handleZoom(evt,'out')"/>
  <use id="reset" xlink:href="#resetDef" x="30" y="36" onmousedown="handleReset()"/>
   <use id="arrowup" xlink:href="#arrowUp" x="0" y="0" onmousedown="handlePan(0,-1)"/>
  <use id="arrowright" xlink:href="#arrowRight" x="0" y="0" onmousedown="handlePan(1,0)"/>
  <use id="arrowdown" xlink:href="#arrowDown" x="0" y="0" onmousedown="handlePan(0,1)"/>
  <use id="arrowleft" xlink:href="#arrowLeft" x="0" y="0" onmousedown="handlePan(-1,0)"/>
</g>
<svg viewBox="0 0 15 15" width="100%" height="30px" preserveAspectRatio="xMaxYMin meet">
 <g id="arrow_out" transform="scale(0.3 0.3)">
  <a xlink:href="_data_base_8h__dep__incl_org.svg" target="_base">
   <rect id="button" ry="5" rx="5" y="6" x="6" height="38" width="38"
        fill="#f2f5e9" fill-opacity="0.5" stroke="#606060" stroke-width="1.0"/>
   <path id="arrow"
     d="M 11.500037,31.436501 C 11.940474,20.09759 22.043105,11.32322 32.158766,21.979434 L 37.068811,17.246167 C 37.068811,17.246167 37.088388,32 37.088388,32 L 22.160133,31.978069 C 22.160133,31.978069 26.997745,27.140456 26.997745,27.140456 C 18.528582,18.264221 13.291696,25.230495 11.500037,31.436501 z"
     style="fill:#404040;"/>
  </a>
 </g>
</svg>

<style type='text/css'>
<![CDATA[
[data-mouse-over-selected='false'] { opacity: 0.7; }
[data-mouse-over-selected='true']  { opacity: 1.0; }
]]>
</style>
<script type="application/ecmascript"><![CDATA[
document.addEventListener('DOMContentLoaded', (event) => {
  highlightEdges();
  highlightAdjacentNodes();
});
]]></script>
</svg>
