<?xml version="1.0" encoding="UTF-8" standalone="no"?>
<!DOCTYPE svg PUBLIC "-//W3C//DTD SVG 1.1//EN"
 "http://www.w3.org/Graphics/SVG/1.1/DTD/svg11.dtd">
<!-- Generated by graphviz version 12.2.1 (20241206.2353)
 -->
<!-- Title: TullipApp/Data_Helper_Types.cpp Pages: 1 -->
<svg width="376pt" height="152pt"
 viewBox="0.00 0.00 375.88 152.00" xmlns="http://www.w3.org/2000/svg" xmlns:xlink="http://www.w3.org/1999/xlink">
<g id="graph0" class="graph" transform="scale(1 1) rotate(0) translate(4 148)">
<title>TullipApp/Data_Helper_Types.cpp</title>
<!-- Node1 -->
<g id="Node000001" class="node">
<title>Node1</title>
<g id="a_Node000001"><a xlink:title=" ">
<polygon fill="#999999" stroke="#666666" points="202.75,-144 88.5,-144 88.5,-112 202.75,-112 202.75,-144"/>
<text text-anchor="start" x="96.5" y="-130.5" font-family="Helvetica,sans-Serif" font-size="10.00">TullipApp/Data_Helper</text>
<text text-anchor="middle" x="145.62" y="-118.5" font-family="Helvetica,sans-Serif" font-size="10.00">_Types.cpp</text>
</a>
</g>
</g>
<!-- Node2 -->
<g id="Node000002" class="node">
<title>Node2</title>
<g id="a_Node000002"><a xlink:title=" ">
<polygon fill="#e0e0e0" stroke="#999999" points="45.25,-76 0,-76 0,-56 45.25,-56 45.25,-76"/>
<text text-anchor="middle" x="22.62" y="-62.5" font-family="Helvetica,sans-Serif" font-size="10.00">cstring</text>
</a>
</g>
</g>
<!-- Node1&#45;&gt;Node2 -->
<g id="edge1_Node000001_Node000002" class="edge">
<title>Node1&#45;&gt;Node2</title>
<g id="a_edge1_Node000001_Node000002"><a xlink:title=" ">
<path fill="none" stroke="#63b8ff" d="M113.95,-111.55C94.91,-102.26 70.84,-90.52 52.19,-81.42"/>
<polygon fill="#63b8ff" stroke="#63b8ff" points="53.79,-78.31 43.27,-77.07 50.72,-84.6 53.79,-78.31"/>
</a>
</g>
</g>
<!-- Node3 -->
<g id="Node000003" class="node">
<title>Node3</title>
<g id="a_Node000003"><a xlink:title=" ">
<polygon fill="#e0e0e0" stroke="#999999" points="105.75,-76 63.5,-76 63.5,-56 105.75,-56 105.75,-76"/>
<text text-anchor="middle" x="84.62" y="-62.5" font-family="Helvetica,sans-Serif" font-size="10.00">cstdio</text>
</a>
</g>
</g>
<!-- Node1&#45;&gt;Node3 -->
<g id="edge2_Node000001_Node000003" class="edge">
<title>Node1&#45;&gt;Node3</title>
<g id="a_edge2_Node000001_Node000003"><a xlink:title=" ">
<path fill="none" stroke="#63b8ff" d="M129.92,-111.55C121.44,-103.22 110.96,-92.91 102.22,-84.3"/>
<polygon fill="#63b8ff" stroke="#63b8ff" points="104.85,-81.99 95.27,-77.47 99.94,-86.98 104.85,-81.99"/>
</a>
</g>
</g>
<!-- Node4 -->
<g id="Node000004" class="node">
<title>Node4</title>
<g id="a_Node000004"><a xlink:title=" ">
<polygon fill="#e0e0e0" stroke="#999999" points="167.88,-76 123.38,-76 123.38,-56 167.88,-56 167.88,-76"/>
<text text-anchor="middle" x="145.62" y="-62.5" font-family="Helvetica,sans-Serif" font-size="10.00">cstdlib</text>
</a>
</g>
</g>
<!-- Node1&#45;&gt;Node4 -->
<g id="edge3_Node000001_Node000004" class="edge">
<title>Node1&#45;&gt;Node4</title>
<g id="a_edge3_Node000001_Node000004"><a xlink:title=" ">
<path fill="none" stroke="#63b8ff" d="M145.62,-111.55C145.62,-104.34 145.62,-95.66 145.62,-87.88"/>
<polygon fill="#63b8ff" stroke="#63b8ff" points="149.13,-87.92 145.63,-77.92 142.13,-87.92 149.13,-87.92"/>
</a>
</g>
</g>
<!-- Node5 -->
<g id="Node000005" class="node">
<title>Node5</title>
<g id="a_Node000005"><a xlink:title=" ">
<polygon fill="#e0e0e0" stroke="#999999" points="239.38,-76 185.88,-76 185.88,-56 239.38,-56 239.38,-76"/>
<text text-anchor="middle" x="212.62" y="-62.5" font-family="Helvetica,sans-Serif" font-size="10.00">iostream</text>
</a>
</g>
</g>
<!-- Node1&#45;&gt;Node5 -->
<g id="edge4_Node000001_Node000005" class="edge">
<title>Node1&#45;&gt;Node5</title>
<g id="a_edge4_Node000001_Node000005"><a xlink:title=" ">
<path fill="none" stroke="#63b8ff" d="M162.88,-111.55C172.28,-103.13 183.94,-92.69 193.6,-84.04"/>
<polygon fill="#63b8ff" stroke="#63b8ff" points="195.88,-86.7 200.99,-77.42 191.21,-81.48 195.88,-86.7"/>
</a>
</g>
</g>
<!-- Node6 -->
<g id="Node000006" class="node">
<title>Node6</title>
<g id="a_Node000006"><a xlink:href="$_data___helper___types_8h.html" xlink:title="Defines utility classes for managing contact&#45;related data such as email, phone, and address.">
<polygon fill="white" stroke="#666666" points="367.88,-76 257.38,-76 257.38,-56 367.88,-56 367.88,-76"/>
<text text-anchor="middle" x="312.62" y="-62.5" font-family="Helvetica,sans-Serif" font-size="10.00">Data_Helper_Types.h</text>
</a>
</g>
</g>
<!-- Node1&#45;&gt;Node6 -->
<g id="edge5_Node000001_Node000006" class="edge">
<title>Node1&#45;&gt;Node6</title>
<g id="a_edge5_Node000001_Node000006"><a xlink:title=" ">
<path fill="none" stroke="#63b8ff" d="M188.63,-111.55C215.57,-101.87 249.93,-89.53 275.64,-80.29"/>
<polygon fill="#63b8ff" stroke="#63b8ff" points="276.79,-83.59 285.02,-76.92 274.42,-77.01 276.79,-83.59"/>
</a>
</g>
</g>
<!-- Node7 -->
<g id="Node000007" class="node">
<title>Node7</title>
<g id="a_Node000007"><a xlink:title=" ">
<polygon fill="#e0e0e0" stroke="#999999" points="332.62,-20 292.62,-20 292.62,0 332.62,0 332.62,-20"/>
<text text-anchor="middle" x="312.62" y="-6.5" font-family="Helvetica,sans-Serif" font-size="10.00">string</text>
</a>
</g>
</g>
<!-- Node6&#45;&gt;Node7 -->
<g id="edge6_Node000006_Node000007" class="edge">
<title>Node6&#45;&gt;Node7</title>
<g id="a_edge6_Node000006_Node000007"><a xlink:title=" ">
<path fill="none" stroke="#63b8ff" d="M312.62,-55.59C312.62,-49.01 312.62,-39.96 312.62,-31.73"/>
<polygon fill="#63b8ff" stroke="#63b8ff" points="316.13,-31.81 312.63,-21.81 309.13,-31.81 316.13,-31.81"/>
</a>
</g>
</g>
</g>
</svg>
