<?xml version="1.0" encoding="UTF-8" standalone="no"?>
<!DOCTYPE svg PUBLIC "-//W3C//DTD SVG 1.1//EN"
 "http://www.w3.org/Graphics/SVG/1.1/DTD/svg11.dtd">
<!-- Generated by graphviz version 12.2.1 (20241206.2353)
 -->
<!-- Title: TullipApp/DataBase.h Pages: 1 -->
<svg width="735pt" height="308pt"
 viewBox="0.00 0.00 734.75 308.00" xmlns="http://www.w3.org/2000/svg" xmlns:xlink="http://www.w3.org/1999/xlink">
<g id="graph0" class="graph" transform="scale(1 1) rotate(0) translate(4 304)">
<title>TullipApp/DataBase.h</title>
<!-- Node1 -->
<g id="Node000001" class="node">
<title>Node1</title>
<g id="a_Node000001"><a xlink:title="Defines the Database class for managing lessons, parents, children, and employees.">
<polygon fill="#999999" stroke="#666666" points="342.62,-300 231.38,-300 231.38,-280 342.62,-280 342.62,-300"/>
<text text-anchor="middle" x="287" y="-286.5" font-family="Helvetica,sans-Serif" font-size="10.00">TullipApp/DataBase.h</text>
</a>
</g>
</g>
<!-- Node2 -->
<g id="Node000002" class="node">
<title>Node2</title>
<g id="a_Node000002"><a xlink:title=" ">
<polygon fill="#e0e0e0" stroke="#999999" points="172.5,-20 129.5,-20 129.5,0 172.5,0 172.5,-20"/>
<text text-anchor="middle" x="151" y="-6.5" font-family="Helvetica,sans-Serif" font-size="10.00">vector</text>
</a>
</g>
</g>
<!-- Node1&#45;&gt;Node2 -->
<g id="edge1_Node000001_Node000002" class="edge">
<title>Node1&#45;&gt;Node2</title>
<g id="a_edge1_Node000001_Node000002"><a xlink:title=" ">
<path fill="none" stroke="#63b8ff" d="M231.12,-287.98C157.71,-283.33 38,-262.89 38,-179 38,-179 38,-179 38,-121 38,-75.54 85.53,-42.78 118.94,-25.37"/>
<polygon fill="#63b8ff" stroke="#63b8ff" points="120.46,-28.52 127.86,-20.93 117.35,-22.25 120.46,-28.52"/>
</a>
</g>
</g>
<!-- Node3 -->
<g id="Node000003" class="node">
<title>Node3</title>
<g id="a_Node000003"><a xlink:title=" ">
<polygon fill="#e0e0e0" stroke="#999999" points="93.38,-20 58.62,-20 58.62,0 93.38,0 93.38,-20"/>
<text text-anchor="middle" x="76" y="-6.5" font-family="Helvetica,sans-Serif" font-size="10.00">map</text>
</a>
</g>
</g>
<!-- Node1&#45;&gt;Node3 -->
<g id="edge2_Node000001_Node000003" class="edge">
<title>Node1&#45;&gt;Node3</title>
<g id="a_edge2_Node000001_Node000003"><a xlink:title=" ">
<path fill="none" stroke="#63b8ff" d="M231.08,-289.19C180.6,-286.97 106.04,-277.52 51,-244 19.64,-224.9 0,-215.72 0,-179 0,-179 0,-179 0,-121 0,-82.24 32.34,-47.24 54.83,-27.59"/>
<polygon fill="#63b8ff" stroke="#63b8ff" points="56.87,-30.44 62.29,-21.34 52.37,-25.08 56.87,-30.44"/>
</a>
</g>
</g>
<!-- Node4 -->
<g id="Node000004" class="node">
<title>Node4</title>
<g id="a_Node000004"><a xlink:title=" ">
<polygon fill="#e0e0e0" stroke="#999999" points="493,-20 453,-20 453,0 493,0 493,-20"/>
<text text-anchor="middle" x="473" y="-6.5" font-family="Helvetica,sans-Serif" font-size="10.00">string</text>
</a>
</g>
</g>
<!-- Node1&#45;&gt;Node4 -->
<g id="edge3_Node000001_Node000004" class="edge">
<title>Node1&#45;&gt;Node4</title>
<g id="a_edge3_Node000001_Node000004"><a xlink:title=" ">
<path fill="none" stroke="#63b8ff" d="M322.94,-279.57C381.35,-261.99 494.44,-217.95 535,-132 552.76,-94.36 516.64,-51.16 492.43,-27.92"/>
<polygon fill="#63b8ff" stroke="#63b8ff" points="495.01,-25.54 485.29,-21.34 490.27,-30.69 495.01,-25.54"/>
</a>
</g>
</g>
<!-- Node5 -->
<g id="Node000005" class="node">
<title>Node5</title>
<g id="a_Node000005"><a xlink:title=" ">
<polygon fill="#e0e0e0" stroke="#999999" points="277.5,-244 228.5,-244 228.5,-224 277.5,-224 277.5,-244"/>
<text text-anchor="middle" x="253" y="-230.5" font-family="Helvetica,sans-Serif" font-size="10.00">fstream</text>
</a>
</g>
</g>
<!-- Node1&#45;&gt;Node5 -->
<g id="edge4_Node000001_Node000005" class="edge">
<title>Node1&#45;&gt;Node5</title>
<g id="a_edge4_Node000001_Node000005"><a xlink:title=" ">
<path fill="none" stroke="#63b8ff" d="M281.08,-279.59C276.64,-272.55 270.42,-262.67 264.96,-254"/>
<polygon fill="#63b8ff" stroke="#63b8ff" points="267.95,-252.18 259.66,-245.58 262.03,-255.91 267.95,-252.18"/>
</a>
</g>
</g>
<!-- Node6 -->
<g id="Node000006" class="node">
<title>Node6</title>
<g id="a_Node000006"><a xlink:title=" ">
<polygon fill="#e0e0e0" stroke="#999999" points="346.62,-244 295.38,-244 295.38,-224 346.62,-224 346.62,-244"/>
<text text-anchor="middle" x="321" y="-230.5" font-family="Helvetica,sans-Serif" font-size="10.00">memory</text>
</a>
</g>
</g>
<!-- Node1&#45;&gt;Node6 -->
<g id="edge5_Node000001_Node000006" class="edge">
<title>Node1&#45;&gt;Node6</title>
<g id="a_edge5_Node000001_Node000006"><a xlink:title=" ">
<path fill="none" stroke="#63b8ff" d="M292.92,-279.59C297.36,-272.55 303.58,-262.67 309.04,-254"/>
<polygon fill="#63b8ff" stroke="#63b8ff" points="311.97,-255.91 314.34,-245.58 306.05,-252.18 311.97,-255.91"/>
</a>
</g>
</g>
<!-- Node7 -->
<g id="Node000007" class="node">
<title>Node7</title>
<g id="a_Node000007"><a xlink:href="_lesson_8h.html" target="_top" xlink:title="Defines the Lesson class, which represents a lesson with its associated details.">
<polygon fill="white" stroke="#666666" points="210.88,-244 155.12,-244 155.12,-224 210.88,-224 210.88,-244"/>
<text text-anchor="middle" x="183" y="-230.5" font-family="Helvetica,sans-Serif" font-size="10.00">Lesson.h</text>
</a>
</g>
</g>
<!-- Node1&#45;&gt;Node7 -->
<g id="edge6_Node000001_Node000007" class="edge">
<title>Node1&#45;&gt;Node7</title>
<g id="a_edge6_Node000001_Node000007"><a xlink:title=" ">
<path fill="none" stroke="#63b8ff" d="M268.88,-279.59C253.03,-271.36 229.72,-259.26 211.38,-249.74"/>
<polygon fill="#63b8ff" stroke="#63b8ff" points="213.09,-246.68 202.6,-245.18 209.86,-252.89 213.09,-246.68"/>
</a>
</g>
</g>
<!-- Node10 -->
<g id="Node000010" class="node">
<title>Node10</title>
<g id="a_Node000010"><a xlink:href="_date_time_8h.html" target="_top" xlink:title="Defines classes and utilities for working with dates, times, and combined date&#45;time values.">
<polygon fill="white" stroke="#666666" points="525.5,-132 458.5,-132 458.5,-112 525.5,-112 525.5,-132"/>
<text text-anchor="middle" x="492" y="-118.5" font-family="Helvetica,sans-Serif" font-size="10.00">DateTime.h</text>
</a>
</g>
</g>
<!-- Node1&#45;&gt;Node10 -->
<g id="edge37_Node000001_Node000010" class="edge">
<title>Node1&#45;&gt;Node10</title>
<g id="a_edge37_Node000001_Node000010"><a xlink:title=" ">
<path fill="none" stroke="#63b8ff" d="M309.31,-279.66C327.35,-271.57 352.96,-258.85 373,-244 415.19,-212.73 456.31,-166.35 477.41,-141.06"/>
<polygon fill="#63b8ff" stroke="#63b8ff" points="479.86,-143.59 483.51,-133.64 474.45,-139.14 479.86,-143.59"/>
</a>
</g>
</g>
<!-- Node17 -->
<g id="Node000017" class="node">
<title>Node17</title>
<g id="a_Node000017"><a xlink:href="_person_8h.html" target="_top" xlink:title="Defines the Person class and its derived classes: Child, Parent, and Employee.">
<polygon fill="white" stroke="#666666" points="386.5,-188 331.5,-188 331.5,-168 386.5,-168 386.5,-188"/>
<text text-anchor="middle" x="359" y="-174.5" font-family="Helvetica,sans-Serif" font-size="10.00">Person.h</text>
</a>
</g>
</g>
<!-- Node1&#45;&gt;Node17 -->
<g id="edge36_Node000001_Node000017" class="edge">
<title>Node1&#45;&gt;Node17</title>
<g id="a_edge36_Node000001_Node000017"><a xlink:title=" ">
<path fill="none" stroke="#63b8ff" d="M312.25,-279.58C327.75,-272.36 346.41,-260.76 356,-244 363.73,-230.49 364.01,-212.68 362.61,-199.13"/>
<polygon fill="#63b8ff" stroke="#63b8ff" points="366.13,-199.02 361.25,-189.62 359.21,-200.01 366.13,-199.02"/>
</a>
</g>
</g>
<!-- Node7&#45;&gt;Node2 -->
<g id="edge7_Node000007_Node000002" class="edge">
<title>Node7&#45;&gt;Node2</title>
<g id="a_edge7_Node000007_Node000002"><a xlink:title=" ">
<path fill="none" stroke="#63b8ff" d="M176.32,-223.52C170.56,-214.76 162.6,-201.15 159,-188 143.99,-133.26 146.46,-65.48 149.01,-31.9"/>
<polygon fill="#63b8ff" stroke="#63b8ff" points="152.5,-32.21 149.86,-21.95 145.52,-31.61 152.5,-32.21"/>
</a>
</g>
</g>
<!-- Node7&#45;&gt;Node3 -->
<g id="edge9_Node000007_Node000003" class="edge">
<title>Node7&#45;&gt;Node3</title>
<g id="a_edge9_Node000007_Node000003"><a xlink:title=" ">
<path fill="none" stroke="#63b8ff" d="M175.51,-223.74C168.58,-214.91 158.29,-201.06 151,-188 120.56,-133.51 94.56,-64.16 82.77,-30.75"/>
<polygon fill="#63b8ff" stroke="#63b8ff" points="86.17,-29.89 79.58,-21.59 79.56,-32.19 86.17,-29.89"/>
</a>
</g>
</g>
<!-- Node8 -->
<g id="Node000008" class="node">
<title>Node8</title>
<g id="a_Node000008"><a xlink:title=" ">
<polygon fill="#e0e0e0" stroke="#999999" points="219.62,-132 180.38,-132 180.38,-112 219.62,-112 219.62,-132"/>
<text text-anchor="middle" x="200" y="-118.5" font-family="Helvetica,sans-Serif" font-size="10.00">utility</text>
</a>
</g>
</g>
<!-- Node7&#45;&gt;Node8 -->
<g id="edge8_Node000007_Node000008" class="edge">
<title>Node7&#45;&gt;Node8</title>
<g id="a_edge8_Node000007_Node000008"><a xlink:title=" ">
<path fill="none" stroke="#63b8ff" d="M184.45,-223.62C187.17,-206.01 193.11,-167.59 196.81,-143.65"/>
<polygon fill="#63b8ff" stroke="#63b8ff" points="200.25,-144.27 198.32,-133.85 193.34,-143.2 200.25,-144.27"/>
</a>
</g>
</g>
<!-- Node9 -->
<g id="Node000009" class="node">
<title>Node9</title>
<g id="a_Node000009"><a xlink:title=" ">
<polygon fill="#e0e0e0" stroke="#999999" points="287.88,-132 238.12,-132 238.12,-112 287.88,-112 287.88,-132"/>
<text text-anchor="middle" x="263" y="-118.5" font-family="Helvetica,sans-Serif" font-size="10.00">optional</text>
</a>
</g>
</g>
<!-- Node7&#45;&gt;Node9 -->
<g id="edge10_Node000007_Node000009" class="edge">
<title>Node7&#45;&gt;Node9</title>
<g id="a_edge10_Node000007_Node000009"><a xlink:title=" ">
<path fill="none" stroke="#63b8ff" d="M189.82,-223.62C203.05,-205.44 232.39,-165.09 249.63,-141.38"/>
<polygon fill="#63b8ff" stroke="#63b8ff" points="252.26,-143.72 255.31,-133.58 246.59,-139.61 252.26,-143.72"/>
</a>
</g>
</g>
<!-- Node7&#45;&gt;Node10 -->
<g id="edge11_Node000007_Node000010" class="edge">
<title>Node7&#45;&gt;Node10</title>
<g id="a_edge11_Node000007_Node000010"><a xlink:title=" ">
<path fill="none" stroke="#63b8ff" d="M211.26,-226.01C214.21,-225.32 217.16,-224.64 220,-224 297.91,-206.56 322.41,-218.98 396,-188 424.91,-175.83 454.2,-154.39 472.69,-139.48"/>
<polygon fill="#63b8ff" stroke="#63b8ff" points="474.66,-142.38 480.15,-133.32 470.21,-136.99 474.66,-142.38"/>
</a>
</g>
</g>
<!-- Node11 -->
<g id="Node000011" class="node">
<title>Node11</title>
<g id="a_Node000011"><a xlink:href="_helper___functions_8h.html" target="_top" xlink:title="Provides utility functions and templates for common operations.">
<polygon fill="white" stroke="#666666" points="297.38,-76 196.62,-76 196.62,-56 297.38,-56 297.38,-76"/>
<text text-anchor="middle" x="247" y="-62.5" font-family="Helvetica,sans-Serif" font-size="10.00">Helper_Functions.h</text>
</a>
</g>
</g>
<!-- Node7&#45;&gt;Node11 -->
<g id="edge35_Node000007_Node000011" class="edge">
<title>Node7&#45;&gt;Node11</title>
<g id="a_edge35_Node000007_Node000011"><a xlink:title=" ">
<path fill="none" stroke="#63b8ff" d="M178.67,-223.75C169.37,-202.43 149.99,-148.86 171,-112 178.87,-98.2 192.81,-88.2 206.63,-81.18"/>
<polygon fill="#63b8ff" stroke="#63b8ff" points="208.06,-84.38 215.69,-77.02 205.14,-78.01 208.06,-84.38"/>
</a>
</g>
</g>
<!-- Node7&#45;&gt;Node17 -->
<g id="edge25_Node000007_Node000017" class="edge">
<title>Node7&#45;&gt;Node17</title>
<g id="a_edge25_Node000007_Node000017"><a xlink:title=" ">
<path fill="none" stroke="#63b8ff" d="M211.28,-224.32C240.87,-215.24 287.53,-200.93 320.48,-190.82"/>
<polygon fill="#63b8ff" stroke="#63b8ff" points="321.1,-194.29 329.64,-188.01 319.05,-187.6 321.1,-194.29"/>
</a>
</g>
</g>
<!-- Node10&#45;&gt;Node4 -->
<g id="edge24_Node000010_Node000004" class="edge">
<title>Node10&#45;&gt;Node4</title>
<g id="a_edge24_Node000010_Node000004"><a xlink:title=" ">
<path fill="none" stroke="#63b8ff" d="M490.38,-111.62C487.34,-94.01 480.7,-55.59 476.57,-31.65"/>
<polygon fill="#63b8ff" stroke="#63b8ff" points="480.02,-31.1 474.87,-21.85 473.13,-32.3 480.02,-31.1"/>
</a>
</g>
</g>
<!-- Node10&#45;&gt;Node11 -->
<g id="edge12_Node000010_Node000011" class="edge">
<title>Node10&#45;&gt;Node11</title>
<g id="a_edge12_Node000010_Node000011"><a xlink:title=" ">
<path fill="none" stroke="#63b8ff" d="M458.19,-113.55C417.6,-104.6 349.01,-89.48 301.04,-78.91"/>
<polygon fill="#63b8ff" stroke="#63b8ff" points="301.93,-75.52 291.41,-76.79 300.42,-82.36 301.93,-75.52"/>
</a>
</g>
</g>
<!-- Node12 -->
<g id="Node000012" class="node">
<title>Node12</title>
<g id="a_Node000012"><a xlink:title=" ">
<polygon fill="#e0e0e0" stroke="#999999" points="726.75,-20 673.25,-20 673.25,0 726.75,0 726.75,-20"/>
<text text-anchor="middle" x="700" y="-6.5" font-family="Helvetica,sans-Serif" font-size="10.00">iostream</text>
</a>
</g>
</g>
<!-- Node10&#45;&gt;Node12 -->
<g id="edge23_Node000010_Node000012" class="edge">
<title>Node10&#45;&gt;Node12</title>
<g id="a_edge23_Node000010_Node000012"><a xlink:title=" ">
<path fill="none" stroke="#63b8ff" d="M525.96,-117.76C576.26,-112.23 667.02,-99.27 689,-76 700.06,-64.29 702.29,-45.8 702.04,-31.54"/>
<polygon fill="#63b8ff" stroke="#63b8ff" points="705.56,-31.64 701.45,-21.87 698.57,-32.06 705.56,-31.64"/>
</a>
</g>
</g>
<!-- Node15 -->
<g id="Node000015" class="node">
<title>Node15</title>
<g id="a_Node000015"><a xlink:href="_date_time___exceptions_8h.html" target="_top" xlink:title="Defines error messages and the DateTimeError exception class for date and time operations.">
<polygon fill="white" stroke="#666666" points="679.5,-76 558.5,-76 558.5,-56 679.5,-56 679.5,-76"/>
<text text-anchor="middle" x="619" y="-62.5" font-family="Helvetica,sans-Serif" font-size="10.00">DateTime_Exceptions.h</text>
</a>
</g>
</g>
<!-- Node10&#45;&gt;Node15 -->
<g id="edge19_Node000010_Node000015" class="edge">
<title>Node10&#45;&gt;Node15</title>
<g id="a_edge19_Node000010_Node000015"><a xlink:title=" ">
<path fill="none" stroke="#63b8ff" d="M514.12,-111.59C534.03,-103.13 563.55,-90.58 586.21,-80.94"/>
<polygon fill="#63b8ff" stroke="#63b8ff" points="587.48,-84.21 595.31,-77.07 584.74,-77.76 587.48,-84.21"/>
</a>
</g>
</g>
<!-- Node11&#45;&gt;Node2 -->
<g id="edge15_Node000011_Node000002" class="edge">
<title>Node11&#45;&gt;Node2</title>
<g id="a_edge15_Node000011_Node000002"><a xlink:title=" ">
<path fill="none" stroke="#63b8ff" d="M230.28,-55.59C215.78,-47.44 194.53,-35.48 177.68,-26"/>
<polygon fill="#63b8ff" stroke="#63b8ff" points="179.6,-23.07 169.17,-21.22 176.17,-29.17 179.6,-23.07"/>
</a>
</g>
</g>
<!-- Node11&#45;&gt;Node3 -->
<g id="edge18_Node000011_Node000003" class="edge">
<title>Node11&#45;&gt;Node3</title>
<g id="a_edge18_Node000011_Node000003"><a xlink:title=" ">
<path fill="none" stroke="#63b8ff" d="M217.21,-55.59C185.48,-45.57 135.61,-29.82 104.41,-19.97"/>
<polygon fill="#63b8ff" stroke="#63b8ff" points="105.48,-16.64 94.89,-16.97 103.37,-23.31 105.48,-16.64"/>
</a>
</g>
</g>
<!-- Node11&#45;&gt;Node4 -->
<g id="edge14_Node000011_Node000004" class="edge">
<title>Node11&#45;&gt;Node4</title>
<g id="a_edge14_Node000011_Node000004"><a xlink:title=" ">
<path fill="none" stroke="#63b8ff" d="M286.62,-55.53C330.75,-44.99 401.19,-28.16 441.65,-18.49"/>
<polygon fill="#63b8ff" stroke="#63b8ff" points="442.32,-21.93 451.23,-16.2 440.69,-15.12 442.32,-21.93"/>
</a>
</g>
</g>
<!-- Node11&#45;&gt;Node12 -->
<g id="edge13_Node000011_Node000012" class="edge">
<title>Node11&#45;&gt;Node12</title>
<g id="a_edge13_Node000011_Node000012"><a xlink:title=" ">
<path fill="none" stroke="#63b8ff" d="M297.72,-57.22C300.86,-56.79 303.97,-56.38 307,-56 462.14,-36.4 502.48,-44.05 657,-20 658.6,-19.75 660.23,-19.48 661.88,-19.2"/>
<polygon fill="#63b8ff" stroke="#63b8ff" points="662.11,-22.71 671.29,-17.42 660.82,-15.83 662.11,-22.71"/>
</a>
</g>
</g>
<!-- Node13 -->
<g id="Node000013" class="node">
<title>Node13</title>
<g id="a_Node000013"><a xlink:title=" ">
<polygon fill="#e0e0e0" stroke="#999999" points="269.88,-20 214.12,-20 214.12,0 269.88,0 269.88,-20"/>
<text text-anchor="middle" x="242" y="-6.5" font-family="Helvetica,sans-Serif" font-size="10.00">algorithm</text>
</a>
</g>
</g>
<!-- Node11&#45;&gt;Node13 -->
<g id="edge16_Node000011_Node000013" class="edge">
<title>Node11&#45;&gt;Node13</title>
<g id="a_edge16_Node000011_Node000013"><a xlink:title=" ">
<path fill="none" stroke="#63b8ff" d="M246.13,-55.59C245.52,-49.01 244.68,-39.96 243.92,-31.73"/>
<polygon fill="#63b8ff" stroke="#63b8ff" points="247.41,-31.44 243,-21.81 240.44,-32.09 247.41,-31.44"/>
</a>
</g>
</g>
<!-- Node14 -->
<g id="Node000014" class="node">
<title>Node14</title>
<g id="a_Node000014"><a xlink:title=" ">
<polygon fill="#e0e0e0" stroke="#999999" points="346,-20 288,-20 288,0 346,0 346,-20"/>
<text text-anchor="middle" x="317" y="-6.5" font-family="Helvetica,sans-Serif" font-size="10.00">functional</text>
</a>
</g>
</g>
<!-- Node11&#45;&gt;Node14 -->
<g id="edge17_Node000011_Node000014" class="edge">
<title>Node11&#45;&gt;Node14</title>
<g id="a_edge17_Node000011_Node000014"><a xlink:title=" ">
<path fill="none" stroke="#63b8ff" d="M259.19,-55.59C269.33,-47.77 283.99,-36.46 296.01,-27.19"/>
<polygon fill="#63b8ff" stroke="#63b8ff" points="297.97,-30.1 303.75,-21.22 293.69,-24.56 297.97,-30.1"/>
</a>
</g>
</g>
<!-- Node15&#45;&gt;Node4 -->
<g id="edge20_Node000015_Node000004" class="edge">
<title>Node15&#45;&gt;Node4</title>
<g id="a_edge20_Node000015_Node000004"><a xlink:title=" ">
<path fill="none" stroke="#63b8ff" d="M593.57,-55.59C568.69,-46.39 530.76,-32.36 504.1,-22.5"/>
<polygon fill="#63b8ff" stroke="#63b8ff" points="505.45,-19.27 494.85,-19.08 503.02,-25.83 505.45,-19.27"/>
</a>
</g>
</g>
<!-- Node15&#45;&gt;Node12 -->
<g id="edge21_Node000015_Node000012" class="edge">
<title>Node15&#45;&gt;Node12</title>
<g id="a_edge21_Node000015_Node000012"><a xlink:title=" ">
<path fill="none" stroke="#63b8ff" d="M633.11,-55.59C645,-47.67 662.27,-36.16 676.28,-26.82"/>
<polygon fill="#63b8ff" stroke="#63b8ff" points="678.14,-29.78 684.52,-21.32 674.26,-23.95 678.14,-29.78"/>
</a>
</g>
</g>
<!-- Node16 -->
<g id="Node000016" class="node">
<title>Node16</title>
<g id="a_Node000016"><a xlink:title=" ">
<polygon fill="#e0e0e0" stroke="#999999" points="648,-20 590,-20 590,0 648,0 648,-20"/>
<text text-anchor="middle" x="619" y="-6.5" font-family="Helvetica,sans-Serif" font-size="10.00">exception</text>
</a>
</g>
</g>
<!-- Node15&#45;&gt;Node16 -->
<g id="edge22_Node000015_Node000016" class="edge">
<title>Node15&#45;&gt;Node16</title>
<g id="a_edge22_Node000015_Node000016"><a xlink:title=" ">
<path fill="none" stroke="#63b8ff" d="M619,-55.59C619,-49.01 619,-39.96 619,-31.73"/>
<polygon fill="#63b8ff" stroke="#63b8ff" points="622.5,-31.81 619,-21.81 615.5,-31.81 622.5,-31.81"/>
</a>
</g>
</g>
<!-- Node17&#45;&gt;Node2 -->
<g id="edge29_Node000017_Node000002" class="edge">
<title>Node17&#45;&gt;Node2</title>
<g id="a_edge29_Node000017_Node000002"><a xlink:title=" ">
<path fill="none" stroke="#63b8ff" d="M352.47,-167.65C342.2,-153.62 320.99,-127.17 297,-112 253.88,-84.73 227.47,-108.32 188,-76 173.57,-64.19 163.69,-45.17 157.79,-30.75"/>
<polygon fill="#63b8ff" stroke="#63b8ff" points="161.23,-29.95 154.44,-21.82 154.67,-32.41 161.23,-29.95"/>
</a>
</g>
</g>
<!-- Node17&#45;&gt;Node4 -->
<g id="edge27_Node000017_Node000004" class="edge">
<title>Node17&#45;&gt;Node4</title>
<g id="a_edge27_Node000017_Node000004"><a xlink:title=" ">
<path fill="none" stroke="#63b8ff" d="M366.72,-167.52C380.9,-149.94 411.78,-110.9 435,-76 444.96,-61.04 455.18,-43.39 462.51,-30.27"/>
<polygon fill="#63b8ff" stroke="#63b8ff" points="465.42,-32.24 467.19,-21.79 459.29,-28.85 465.42,-32.24"/>
</a>
</g>
</g>
<!-- Node17&#45;&gt;Node8 -->
<g id="edge28_Node000017_Node000008" class="edge">
<title>Node17&#45;&gt;Node8</title>
<g id="a_edge28_Node000017_Node000008"><a xlink:title=" ">
<path fill="none" stroke="#63b8ff" d="M331.3,-167.59C303.18,-158.04 259.75,-143.29 230.62,-133.4"/>
<polygon fill="#63b8ff" stroke="#63b8ff" points="231.87,-130.13 221.28,-130.23 229.62,-136.76 231.87,-130.13"/>
</a>
</g>
</g>
<!-- Node17&#45;&gt;Node9 -->
<g id="edge30_Node000017_Node000009" class="edge">
<title>Node17&#45;&gt;Node9</title>
<g id="a_edge30_Node000017_Node000009"><a xlink:title=" ">
<path fill="none" stroke="#63b8ff" d="M342.28,-167.59C327.78,-159.44 306.53,-147.48 289.68,-138"/>
<polygon fill="#63b8ff" stroke="#63b8ff" points="291.6,-135.07 281.17,-133.22 288.17,-141.17 291.6,-135.07"/>
</a>
</g>
</g>
<!-- Node17&#45;&gt;Node10 -->
<g id="edge31_Node000017_Node000010" class="edge">
<title>Node17&#45;&gt;Node10</title>
<g id="a_edge31_Node000017_Node000010"><a xlink:title=" ">
<path fill="none" stroke="#63b8ff" d="M382.17,-167.59C403.21,-159.05 434.5,-146.35 458.3,-136.68"/>
<polygon fill="#63b8ff" stroke="#63b8ff" points="459.3,-140.05 467.25,-133.05 456.67,-133.57 459.3,-140.05"/>
</a>
</g>
</g>
<!-- Node17&#45;&gt;Node11 -->
<g id="edge34_Node000017_Node000011" class="edge">
<title>Node17&#45;&gt;Node11</title>
<g id="a_edge34_Node000017_Node000011"><a xlink:title=" ">
<path fill="none" stroke="#63b8ff" d="M356.84,-167.53C353.31,-153.83 345.11,-128.32 330,-112 317.61,-98.61 300.3,-88.36 284.69,-81.04"/>
<polygon fill="#63b8ff" stroke="#63b8ff" points="286.19,-77.88 275.63,-77.06 283.37,-84.29 286.19,-77.88"/>
</a>
</g>
</g>
<!-- Node17&#45;&gt;Node12 -->
<g id="edge26_Node000017_Node000012" class="edge">
<title>Node17&#45;&gt;Node12</title>
<g id="a_edge26_Node000017_Node000012"><a xlink:title=" ">
<path fill="none" stroke="#63b8ff" d="M386.86,-173.31C462.64,-162.65 669.37,-129.11 708,-76 717.41,-63.07 714.06,-44.73 709.14,-30.83"/>
<polygon fill="#63b8ff" stroke="#63b8ff" points="712.48,-29.74 705.45,-21.81 706,-32.39 712.48,-29.74"/>
</a>
</g>
</g>
<!-- Node18 -->
<g id="Node000018" class="node">
<title>Node18</title>
<g id="a_Node000018"><a xlink:href="_data___helper___types_8h.html" target="_top" xlink:title="Defines utility classes for managing contact&#45;related data such as email, phone, and address.">
<polygon fill="white" stroke="#666666" points="426.25,-76 315.75,-76 315.75,-56 426.25,-56 426.25,-76"/>
<text text-anchor="middle" x="371" y="-62.5" font-family="Helvetica,sans-Serif" font-size="10.00">Data_Helper_Types.h</text>
</a>
</g>
</g>
<!-- Node17&#45;&gt;Node18 -->
<g id="edge32_Node000017_Node000018" class="edge">
<title>Node17&#45;&gt;Node18</title>
<g id="a_edge32_Node000017_Node000018"><a xlink:title=" ">
<path fill="none" stroke="#63b8ff" d="M361.27,-167.76C363.4,-158.71 366.47,-144.5 368,-132 369.81,-117.2 370.55,-100.38 370.85,-87.56"/>
<polygon fill="#63b8ff" stroke="#63b8ff" points="374.34,-87.86 370.99,-77.81 367.34,-87.75 374.34,-87.86"/>
</a>
</g>
</g>
<!-- Node18&#45;&gt;Node4 -->
<g id="edge33_Node000018_Node000004" class="edge">
<title>Node18&#45;&gt;Node4</title>
<g id="a_edge33_Node000018_Node000004"><a xlink:title=" ">
<path fill="none" stroke="#63b8ff" d="M388.77,-55.59C404.32,-47.36 427.18,-35.26 445.16,-25.74"/>
<polygon fill="#63b8ff" stroke="#63b8ff" points="446.56,-28.96 453.76,-21.19 443.28,-22.77 446.56,-28.96"/>
</a>
</g>
</g>
</g>
</svg>
