<?xml version="1.0" encoding="UTF-8" standalone="no"?>
<!DOCTYPE svg PUBLIC "-//W3C//DTD SVG 1.1//EN"
 "http://www.w3.org/Graphics/SVG/1.1/DTD/svg11.dtd">
<!-- Generated by graphviz version 12.2.1 (20241206.2353)
 -->
<!-- Title: weekday_to_string Pages: 1 -->
<svg width="258pt" height="78pt"
 viewBox="0.00 0.00 258.25 78.00" xmlns="http://www.w3.org/2000/svg" xmlns:xlink="http://www.w3.org/1999/xlink">
<g id="graph0" class="graph" transform="scale(1 1) rotate(0) translate(4 74)">
<title>weekday_to_string</title>
<!-- Node1 -->
<g id="Node000001" class="node">
<title>Node1</title>
<g id="a_Node000001"><a xlink:title="Converts a WeekDays enum value to its string representation.">
<polygon fill="#999999" stroke="#666666" points="250.25,-42 152.5,-42 152.5,-22 250.25,-22 250.25,-42"/>
<text text-anchor="middle" x="201.38" y="-28.5" font-family="Helvetica,sans-Serif" font-size="10.00">weekday_to_string</text>
</a>
</g>
</g>
<!-- Node2 -->
<g id="Node000002" class="node">
<title>Node2</title>
<g id="a_Node000002"><a xlink:href="$class_database.html#a3ab08425557dc0b07c6452f30c5a2710" xlink:title="Filters lessons by day.">
<polygon fill="white" stroke="#666666" points="116.5,-70 0,-70 0,-38 116.5,-38 116.5,-70"/>
<text text-anchor="start" x="8" y="-56.5" font-family="Helvetica,sans-Serif" font-size="10.00">Database::filter_lesson</text>
<text text-anchor="middle" x="58.25" y="-44.5" font-family="Helvetica,sans-Serif" font-size="10.00">_by_day</text>
</a>
</g>
</g>
<!-- Node1&#45;&gt;Node2 -->
<g id="edge1_Node000001_Node000002" class="edge">
<title>Node1&#45;&gt;Node2</title>
<g id="a_edge1_Node000001_Node000002"><a xlink:title=" ">
<path fill="none" stroke="#63b8ff" d="M141.09,-41.24C133.1,-42.49 124.91,-43.76 116.95,-45"/>
<polygon fill="#63b8ff" stroke="#63b8ff" points="141.37,-44.74 150.71,-39.74 140.29,-37.82 141.37,-44.74"/>
</a>
</g>
</g>
<!-- Node3 -->
<g id="Node000003" class="node">
<title>Node3</title>
<g id="a_Node000003"><a xlink:href="$_date_time_8cpp.html#a4bb6582c1a4e97a3bb992150fd18d2b4" xlink:title="Outputs a WeekDays enum value to a stream.">
<polygon fill="white" stroke="#666666" points="89.88,-20 26.62,-20 26.62,0 89.88,0 89.88,-20"/>
<text text-anchor="middle" x="58.25" y="-6.5" font-family="Helvetica,sans-Serif" font-size="10.00">operator&lt;&lt;</text>
</a>
</g>
</g>
<!-- Node1&#45;&gt;Node3 -->
<g id="edge2_Node000001_Node000003" class="edge">
<title>Node1&#45;&gt;Node3</title>
<g id="a_edge2_Node000001_Node000003"><a xlink:title=" ">
<path fill="none" stroke="#63b8ff" d="M140.87,-22.72C123.35,-19.99 104.89,-17.12 89.97,-14.79"/>
<polygon fill="#63b8ff" stroke="#63b8ff" points="140.29,-26.18 150.71,-24.26 141.37,-19.26 140.29,-26.18"/>
</a>
</g>
</g>
</g>
</svg>
