<?xml version="1.0" encoding="UTF-8" standalone="no"?>
<!DOCTYPE svg PUBLIC "-//W3C//DTD SVG 1.1//EN"
 "http://www.w3.org/Graphics/SVG/1.1/DTD/svg11.dtd">
<!-- Generated by graphviz version 12.2.1 (20241206.2353)
 -->
<!-- Title: weekday_to_string Pages: 1 -->
<svg width="438pt" height="230pt"
 viewBox="0.00 0.00 437.75 230.00" xmlns="http://www.w3.org/2000/svg" xmlns:xlink="http://www.w3.org/1999/xlink">

<svg id="main" version="1.1" xmlns="http://www.w3.org/2000/svg" xmlns:xlink="http://www.w3.org/1999/xlink" xml:space="preserve">

<style type="text/css"><![CDATA[
.node, .edge {opacity: 0.7;}
.node.selected, .edge.selected {opacity: 1;}
.edge:hover path { stroke: red; }
.edge:hover polygon { stroke: red; fill: red; }
]]></style>
<script type="application/ecmascript" xlink:href="svg.min.js"/>
<svg id="graph" class="graph">
<g id="graph0" class="graph" transform="scale(1 1) rotate(0) translate(4 226)">
<title>weekday_to_string</title>
<!-- Node1 -->
<g id="Node000001" class="node">
<title>Node1</title>
<g id="a_Node000001"><a xlink:title="Converts a WeekDays enum value to its string representation.">
<polygon fill="#999999" stroke="#666666" points="429.75,-118 332,-118 332,-98 429.75,-98 429.75,-118"/>
<text text-anchor="middle" x="380.88" y="-104.5" font-family="Helvetica,sans-Serif" font-size="10.00">weekday_to_string</text>
</a>
</g>
</g>
<!-- Node2 -->
<g id="Node000002" class="node">
<title>Node2</title>
<g id="a_Node000002"><a xlink:href="class_lesson_view.html#a01642f9f2ac50e57169729fd7bfdd4e2" target="_top" xlink:title="Function called when the edit button is clicked.">
<polygon fill="white" stroke="#666666" points="292.62,-222 167.88,-222 167.88,-202 292.62,-202 292.62,-222"/>
<text text-anchor="middle" x="230.25" y="-208.5" font-family="Helvetica,sans-Serif" font-size="10.00">LessonView::edit_lesson</text>
</a>
</g>
</g>
<!-- Node1&#45;&gt;Node2 -->
<g id="edge1_Node000001_Node000002" class="edge">
<title>Node1&#45;&gt;Node2</title>
<g id="a_edge1_Node000001_Node000002"><a xlink:title=" ">
<path fill="none" stroke="#63b8ff" d="M364.13,-126.95C348.45,-144.78 322.89,-171.2 296,-188 287.26,-193.46 277.08,-197.96 267.42,-201.53"/>
<polygon fill="#63b8ff" stroke="#63b8ff" points="366.54,-129.51 370.4,-119.64 361.23,-124.95 366.54,-129.51"/>
</a>
</g>
</g>
<!-- Node3 -->
<g id="Node000003" class="node">
<title>Node3</title>
<g id="a_Node000003"><a xlink:href="class_lesson_view.html#a5652733016a72ccf85b1df6e88a3513e" target="_top" xlink:title="Constructs a LessonView widget.">
<polygon fill="white" stroke="#666666" points="128.5,-203 0,-203 0,-183 128.5,-183 128.5,-203"/>
<text text-anchor="middle" x="64.25" y="-189.5" font-family="Helvetica,sans-Serif" font-size="10.00">LessonView::LessonView</text>
</a>
</g>
</g>
<!-- Node1&#45;&gt;Node3 -->
<g id="edge5_Node000001_Node000003" class="edge">
<title>Node1&#45;&gt;Node3</title>
<g id="a_edge5_Node000001_Node000003"><a xlink:title=" ">
<path fill="none" stroke="#63b8ff" d="M355.92,-124.39C339.7,-134.73 317.39,-147.5 296,-155 241.4,-174.13 176.09,-183.74 128.91,-188.5"/>
<polygon fill="#63b8ff" stroke="#63b8ff" points="357.45,-127.57 363.91,-119.17 353.62,-121.72 357.45,-127.57"/>
</a>
</g>
</g>
<!-- Node4 -->
<g id="Node000004" class="node">
<title>Node4</title>
<g id="a_Node000004"><a xlink:href="class_database.html#a3ab08425557dc0b07c6452f30c5a2710" target="_top" xlink:title="Filters lessons by day.">
<polygon fill="white" stroke="#666666" points="288.5,-146 172,-146 172,-114 288.5,-114 288.5,-146"/>
<text text-anchor="start" x="180" y="-132.5" font-family="Helvetica,sans-Serif" font-size="10.00">Database::filter_lesson</text>
<text text-anchor="middle" x="230.25" y="-120.5" font-family="Helvetica,sans-Serif" font-size="10.00">_by_day</text>
</a>
</g>
</g>
<!-- Node1&#45;&gt;Node4 -->
<g id="edge3_Node000001_Node000004" class="edge">
<title>Node1&#45;&gt;Node4</title>
<g id="a_edge3_Node000001_Node000004"><a xlink:title=" ">
<path fill="none" stroke="#63b8ff" d="M320.5,-116.79C310.07,-118.33 299.23,-119.94 288.85,-121.47"/>
<polygon fill="#63b8ff" stroke="#63b8ff" points="320.74,-120.29 330.12,-115.36 319.72,-113.37 320.74,-120.29"/>
</a>
</g>
</g>
<!-- Node5 -->
<g id="Node000005" class="node">
<title>Node5</title>
<g id="a_Node000005"><a xlink:href="class_lesson_entry.html#aea1e4e5c021933e1a3063691fd1aef09" target="_top" xlink:title="Constructs a LessonEntry widget.">
<polygon fill="white" stroke="#666666" points="296,-96 164.5,-96 164.5,-76 296,-76 296,-96"/>
<text text-anchor="middle" x="230.25" y="-82.5" font-family="Helvetica,sans-Serif" font-size="10.00">LessonEntry::LessonEntry</text>
</a>
</g>
</g>
<!-- Node1&#45;&gt;Node5 -->
<g id="edge4_Node000001_Node000005" class="edge">
<title>Node1&#45;&gt;Node5</title>
<g id="a_edge4_Node000001_Node000005"><a xlink:title=" ">
<path fill="none" stroke="#63b8ff" d="M320.27,-99.18C312.38,-98.01 304.26,-96.81 296.29,-95.63"/>
<polygon fill="#63b8ff" stroke="#63b8ff" points="319.72,-102.63 330.12,-100.64 320.74,-95.71 319.72,-102.63"/>
</a>
</g>
</g>
<!-- Node6 -->
<g id="Node000006" class="node">
<title>Node6</title>
<g id="a_Node000006"><a xlink:href="_date_time_8cpp.html#a4bb6582c1a4e97a3bb992150fd18d2b4" target="_top" xlink:title="Outputs a WeekDays enum value to a stream.">
<polygon fill="white" stroke="#666666" points="261.88,-58 198.62,-58 198.62,-38 261.88,-38 261.88,-58"/>
<text text-anchor="middle" x="230.25" y="-44.5" font-family="Helvetica,sans-Serif" font-size="10.00">operator&lt;&lt;</text>
</a>
</g>
</g>
<!-- Node1&#45;&gt;Node6 -->
<g id="edge6_Node000001_Node000006" class="edge">
<title>Node1&#45;&gt;Node6</title>
<g id="a_edge6_Node000001_Node000006"><a xlink:title=" ">
<path fill="none" stroke="#63b8ff" d="M351.18,-92.47C335.23,-84.22 314.84,-74.31 296,-67 285.19,-62.81 273.05,-59.01 262.24,-55.94"/>
<polygon fill="#63b8ff" stroke="#63b8ff" points="349.15,-95.36 359.63,-96.91 352.4,-89.16 349.15,-95.36"/>
</a>
</g>
</g>
<!-- Node7 -->
<g id="Node000007" class="node">
<title>Node7</title>
<g id="a_Node000007"><a xlink:href="class_schedule.html#a2d68fb0c1961d13c9560cc0ac52e649a" target="_top" xlink:title="Outputs the Schedule to a stream.">
<polygon fill="white" stroke="#666666" points="285.12,-20 175.38,-20 175.38,0 285.12,0 285.12,-20"/>
<text text-anchor="middle" x="230.25" y="-6.5" font-family="Helvetica,sans-Serif" font-size="10.00">Schedule::operator&lt;&lt;</text>
</a>
</g>
</g>
<!-- Node1&#45;&gt;Node7 -->
<g id="edge7_Node000001_Node000007" class="edge">
<title>Node1&#45;&gt;Node7</title>
<g id="a_edge7_Node000001_Node000007"><a xlink:title=" ">
<path fill="none" stroke="#63b8ff" d="M364.58,-89.17C349.07,-71.26 323.49,-44.76 296,-29 290.1,-25.62 283.56,-22.8 276.96,-20.45"/>
<polygon fill="#63b8ff" stroke="#63b8ff" points="361.64,-91.11 370.76,-96.5 366.99,-86.6 361.64,-91.11"/>
</a>
</g>
</g>
<!-- Node2&#45;&gt;Node3 -->
<g id="edge2_Node000002_Node000003" class="edge">
<title>Node2&#45;&gt;Node3</title>
<g id="a_edge2_Node000002_Node000003"><a xlink:title=" ">
<path fill="none" stroke="#63b8ff" d="M156.54,-203.58C147.28,-202.5 137.87,-201.41 128.77,-200.36"/>
<polygon fill="#63b8ff" stroke="#63b8ff" points="155.88,-207.02 166.21,-204.7 156.68,-200.07 155.88,-207.02"/>
</a>
</g>
</g>
</g>
</svg>
</svg>

<style type='text/css'>
<![CDATA[
[data-mouse-over-selected='false'] { opacity: 0.7; }
[data-mouse-over-selected='true']  { opacity: 1.0; }
]]>
</style>
<script type="application/ecmascript"><![CDATA[
document.addEventListener('DOMContentLoaded', (event) => {
  highlightEdges();
  highlightAdjacentNodes();
});
]]></script>
</svg>
