<?xml version="1.0" encoding="UTF-8" standalone="no"?>
<!DOCTYPE svg PUBLIC "-//W3C//DTD SVG 1.1//EN"
 "http://www.w3.org/Graphics/SVG/1.1/DTD/svg11.dtd">
<!-- Generated by graphviz version 12.2.1 (20241206.2353)
 -->
<!-- Title: TullipApp/Data_Helper_Types.h Pages: 1 -->
<svg width="833pt" height="424pt"
 viewBox="0.00 0.00 833.12 424.00" xmlns="http://www.w3.org/2000/svg" xmlns:xlink="http://www.w3.org/1999/xlink">
<g id="graph0" class="graph" transform="scale(1 1) rotate(0) translate(4 420)">
<title>TullipApp/Data_Helper_Types.h</title>
<!-- Node1 -->
<g id="Node000001" class="node">
<title>Node1</title>
<g id="a_Node000001"><a xlink:title="Defines utility classes for managing contact&#45;related data such as email, phone, and address.">
<polygon fill="#999999" stroke="#666666" points="381.38,-416 267.12,-416 267.12,-384 381.38,-384 381.38,-416"/>
<text text-anchor="start" x="275.12" y="-402.5" font-family="Helvetica,sans-Serif" font-size="10.00">TullipApp/Data_Helper</text>
<text text-anchor="middle" x="324.25" y="-390.5" font-family="Helvetica,sans-Serif" font-size="10.00">_Types.h</text>
</a>
</g>
</g>
<!-- Node2 -->
<g id="Node000002" class="node">
<title>Node2</title>
<g id="a_Node000002"><a xlink:href="$_data___helper___types_8cpp.html" xlink:title=" ">
<polygon fill="white" stroke="#666666" points="319.38,-348 205.12,-348 205.12,-316 319.38,-316 319.38,-348"/>
<text text-anchor="start" x="213.12" y="-334.5" font-family="Helvetica,sans-Serif" font-size="10.00">TullipApp/Data_Helper</text>
<text text-anchor="middle" x="262.25" y="-322.5" font-family="Helvetica,sans-Serif" font-size="10.00">_Types.cpp</text>
</a>
</g>
</g>
<!-- Node1&#45;&gt;Node2 -->
<g id="edge1_Node000001_Node000002" class="edge">
<title>Node1&#45;&gt;Node2</title>
<g id="a_edge1_Node000001_Node000002"><a xlink:title=" ">
<path fill="none" stroke="#63b8ff" d="M302.11,-375.43C293.6,-366.38 284.13,-356.29 276.55,-348.22"/>
<polygon fill="#63b8ff" stroke="#63b8ff" points="299.44,-377.7 308.83,-382.59 304.54,-372.9 299.44,-377.7"/>
</a>
</g>
</g>
<!-- Node3 -->
<g id="Node000003" class="node">
<title>Node3</title>
<g id="a_Node000003"><a xlink:href="$_person_8h.html" xlink:title="Defines the Person class and its derived classes: Child, Parent, and Employee.">
<polygon fill="white" stroke="#666666" points="435.5,-342 337,-342 337,-322 435.5,-322 435.5,-342"/>
<text text-anchor="middle" x="386.25" y="-328.5" font-family="Helvetica,sans-Serif" font-size="10.00">TullipApp/Person.h</text>
</a>
</g>
</g>
<!-- Node1&#45;&gt;Node3 -->
<g id="edge2_Node000001_Node000003" class="edge">
<title>Node1&#45;&gt;Node3</title>
<g id="a_edge2_Node000001_Node000003"><a xlink:title=" ">
<path fill="none" stroke="#63b8ff" d="M346.44,-375.37C357.18,-363.95 369.45,-350.88 377.5,-342.32"/>
<polygon fill="#63b8ff" stroke="#63b8ff" points="343.96,-372.9 339.67,-382.59 349.06,-377.7 343.96,-372.9"/>
</a>
</g>
</g>
<!-- Node4 -->
<g id="Node000004" class="node">
<title>Node4</title>
<g id="a_Node000004"><a xlink:href="$_child_dialog_8h.html" xlink:title=" ">
<polygon fill="white" stroke="#666666" points="278.25,-156 160.25,-156 160.25,-136 278.25,-136 278.25,-156"/>
<text text-anchor="middle" x="219.25" y="-142.5" font-family="Helvetica,sans-Serif" font-size="10.00">TullipApp/ChildDialog.h</text>
</a>
</g>
</g>
<!-- Node3&#45;&gt;Node4 -->
<g id="edge3_Node000003_Node000004" class="edge">
<title>Node3&#45;&gt;Node4</title>
<g id="a_edge3_Node000003_Node000004"><a xlink:title=" ">
<path fill="none" stroke="#63b8ff" d="M354.65,-316.7C320.54,-299.6 267.24,-267.7 238.25,-224 224.09,-202.66 220.48,-171.68 219.56,-156.34"/>
<polygon fill="#63b8ff" stroke="#63b8ff" points="352.68,-319.64 363.2,-320.87 355.75,-313.34 352.68,-319.64"/>
</a>
</g>
</g>
<!-- Node11 -->
<g id="Node000011" class="node">
<title>Node11</title>
<g id="a_Node000011"><a xlink:href="$_child_entry_8h.html" xlink:title="Defines the ChildEntry class for managing the graphical representation of a child in the GUI.">
<polygon fill="white" stroke="#666666" points="571.62,-280 458.88,-280 458.88,-260 571.62,-260 571.62,-280"/>
<text text-anchor="middle" x="515.25" y="-266.5" font-family="Helvetica,sans-Serif" font-size="10.00">TullipApp/ChildEntry.h</text>
</a>
</g>
</g>
<!-- Node3&#45;&gt;Node11 -->
<g id="edge10_Node000003_Node000011" class="edge">
<title>Node3&#45;&gt;Node11</title>
<g id="a_edge10_Node000003_Node000011"><a xlink:title=" ">
<path fill="none" stroke="#63b8ff" d="M416.84,-316.77C441.09,-305.49 474.27,-290.06 495.24,-280.31"/>
<polygon fill="#63b8ff" stroke="#63b8ff" points="415.37,-313.6 407.78,-320.99 418.32,-319.94 415.37,-313.6"/>
</a>
</g>
</g>
<!-- Node14 -->
<g id="Node000014" class="node">
<title>Node14</title>
<g id="a_Node000014"><a xlink:href="$_data_base_8h.html" xlink:title="Defines the Database class for managing lessons, parents, children, and employees.">
<polygon fill="white" stroke="#666666" points="358.88,-218 247.62,-218 247.62,-198 358.88,-198 358.88,-218"/>
<text text-anchor="middle" x="303.25" y="-204.5" font-family="Helvetica,sans-Serif" font-size="10.00">TullipApp/DataBase.h</text>
</a>
</g>
</g>
<!-- Node3&#45;&gt;Node14 -->
<g id="edge14_Node000003_Node000014" class="edge">
<title>Node3&#45;&gt;Node14</title>
<g id="a_edge14_Node000003_Node000014"><a xlink:title=" ">
<path fill="none" stroke="#63b8ff" d="M362.34,-315.04C350.37,-305.99 336.49,-293.74 327.25,-280 314.04,-260.35 307.48,-232.75 304.79,-218.44"/>
<polygon fill="#63b8ff" stroke="#63b8ff" points="360.03,-317.69 370.19,-320.7 364.12,-312.01 360.03,-317.69"/>
</a>
</g>
</g>
<!-- Node16 -->
<g id="Node000016" class="node">
<title>Node16</title>
<g id="a_Node000016"><a xlink:href="$_lesson_8h.html" xlink:title="Defines the Lesson class, which represents a lesson with its associated details.">
<polygon fill="white" stroke="#666666" points="435.88,-280 336.62,-280 336.62,-260 435.88,-260 435.88,-280"/>
<text text-anchor="middle" x="386.25" y="-266.5" font-family="Helvetica,sans-Serif" font-size="10.00">TullipApp/Lesson.h</text>
</a>
</g>
</g>
<!-- Node3&#45;&gt;Node16 -->
<g id="edge18_Node000003_Node000016" class="edge">
<title>Node3&#45;&gt;Node16</title>
<g id="a_edge18_Node000003_Node000016"><a xlink:title=" ">
<path fill="none" stroke="#63b8ff" d="M386.25,-310.25C386.25,-299.97 386.25,-288.09 386.25,-280.11"/>
<polygon fill="#63b8ff" stroke="#63b8ff" points="382.75,-310.11 386.25,-320.11 389.75,-310.11 382.75,-310.11"/>
</a>
</g>
</g>
<!-- Node18 -->
<g id="Node000018" class="node">
<title>Node18</title>
<g id="a_Node000018"><a xlink:href="$_person_8cpp.html" xlink:title=" ">
<polygon fill="white" stroke="#666666" points="698.75,-280 589.75,-280 589.75,-260 698.75,-260 698.75,-280"/>
<text text-anchor="middle" x="644.25" y="-266.5" font-family="Helvetica,sans-Serif" font-size="10.00">TullipApp/Person.cpp</text>
</a>
</g>
</g>
<!-- Node3&#45;&gt;Node18 -->
<g id="edge21_Node000003_Node000018" class="edge">
<title>Node3&#45;&gt;Node18</title>
<g id="a_edge21_Node000003_Node000018"><a xlink:title=" ">
<path fill="none" stroke="#63b8ff" d="M437.78,-319.02C486.5,-307.69 558.63,-290.91 603.46,-280.48"/>
<polygon fill="#63b8ff" stroke="#63b8ff" points="437.27,-315.54 428.32,-321.22 438.85,-322.36 437.27,-315.54"/>
</a>
</g>
</g>
<!-- Node5 -->
<g id="Node000005" class="node">
<title>Node5</title>
<g id="a_Node000005"><a xlink:href="$_child_dialog_8cpp.html" xlink:title=" ">
<polygon fill="white" stroke="#666666" points="128.5,-94 0,-94 0,-74 128.5,-74 128.5,-94"/>
<text text-anchor="middle" x="64.25" y="-80.5" font-family="Helvetica,sans-Serif" font-size="10.00">TullipApp/ChildDialog.cpp</text>
</a>
</g>
</g>
<!-- Node4&#45;&gt;Node5 -->
<g id="edge4_Node000004_Node000005" class="edge">
<title>Node4&#45;&gt;Node5</title>
<g id="a_edge4_Node000004_Node000005"><a xlink:title=" ">
<path fill="none" stroke="#63b8ff" d="M184.48,-131.54C155.29,-120.24 114.33,-104.39 88.55,-94.41"/>
<polygon fill="#63b8ff" stroke="#63b8ff" points="183.03,-134.73 193.62,-135.08 185.56,-128.2 183.03,-134.73"/>
</a>
</g>
</g>
<!-- Node6 -->
<g id="Node000006" class="node">
<title>Node6</title>
<g id="a_Node000006"><a xlink:href="$_data_base_g_u_i_8h.html" xlink:title="Defines the DataBaseGUI class for managing the graphical user interface of the database.">
<polygon fill="white" stroke="#666666" points="438.88,-94 309.62,-94 309.62,-74 438.88,-74 438.88,-94"/>
<text text-anchor="middle" x="374.25" y="-80.5" font-family="Helvetica,sans-Serif" font-size="10.00">TullipApp/DataBaseGUI.h</text>
</a>
</g>
</g>
<!-- Node4&#45;&gt;Node6 -->
<g id="edge5_Node000004_Node000006" class="edge">
<title>Node4&#45;&gt;Node6</title>
<g id="a_edge5_Node000004_Node000006"><a xlink:title=" ">
<path fill="none" stroke="#63b8ff" d="M254.02,-131.54C283.21,-120.24 324.17,-104.39 349.95,-94.41"/>
<polygon fill="#63b8ff" stroke="#63b8ff" points="252.94,-128.2 244.88,-135.08 255.47,-134.73 252.94,-128.2"/>
</a>
</g>
</g>
<!-- Node10 -->
<g id="Node000010" class="node">
<title>Node10</title>
<g id="a_Node000010"><a xlink:href="$moc___child_dialog_8cpp.html" xlink:title=" ">
<polygon fill="white" stroke="#666666" points="291.75,-100 146.75,-100 146.75,-68 291.75,-68 291.75,-100"/>
<text text-anchor="start" x="154.75" y="-86.5" font-family="Helvetica,sans-Serif" font-size="10.00">TullipApp/x64/Debug</text>
<text text-anchor="middle" x="219.25" y="-74.5" font-family="Helvetica,sans-Serif" font-size="10.00">/qt/moc/moc_ChildDialog.cpp</text>
</a>
</g>
</g>
<!-- Node4&#45;&gt;Node10 -->
<g id="edge9_Node000004_Node000010" class="edge">
<title>Node4&#45;&gt;Node10</title>
<g id="a_edge9_Node000004_Node000010"><a xlink:title=" ">
<path fill="none" stroke="#63b8ff" d="M219.25,-124.31C219.25,-116.37 219.25,-107.46 219.25,-100.14"/>
<polygon fill="#63b8ff" stroke="#63b8ff" points="215.75,-124.11 219.25,-134.11 222.75,-124.11 215.75,-124.11"/>
</a>
</g>
</g>
<!-- Node7 -->
<g id="Node000007" class="node">
<title>Node7</title>
<g id="a_Node000007"><a xlink:href="$_data_base_g_u_i_8cpp.html" xlink:title=" ">
<polygon fill="white" stroke="#666666" points="306.12,-26 166.38,-26 166.38,-6 306.12,-6 306.12,-26"/>
<text text-anchor="middle" x="236.25" y="-12.5" font-family="Helvetica,sans-Serif" font-size="10.00">TullipApp/DataBaseGUI.cpp</text>
</a>
</g>
</g>
<!-- Node6&#45;&gt;Node7 -->
<g id="edge6_Node000006_Node000007" class="edge">
<title>Node6&#45;&gt;Node7</title>
<g id="a_edge6_Node000006_Node000007"><a xlink:title=" ">
<path fill="none" stroke="#63b8ff" d="M344.15,-68.6C317.38,-55.8 279.03,-37.46 255.99,-26.44"/>
<polygon fill="#63b8ff" stroke="#63b8ff" points="342.58,-71.73 353.11,-72.89 345.6,-65.42 342.58,-71.73"/>
</a>
</g>
</g>
<!-- Node8 -->
<g id="Node000008" class="node">
<title>Node8</title>
<g id="a_Node000008"><a xlink:href="$_main_8cpp.html" xlink:title=" ">
<polygon fill="white" stroke="#666666" points="423.88,-26 324.62,-26 324.62,-6 423.88,-6 423.88,-26"/>
<text text-anchor="middle" x="374.25" y="-12.5" font-family="Helvetica,sans-Serif" font-size="10.00">TullipApp/Main.cpp</text>
</a>
</g>
</g>
<!-- Node6&#45;&gt;Node8 -->
<g id="edge7_Node000006_Node000008" class="edge">
<title>Node6&#45;&gt;Node8</title>
<g id="a_edge7_Node000006_Node000008"><a xlink:title=" ">
<path fill="none" stroke="#63b8ff" d="M374.25,-62.28C374.25,-50.27 374.25,-35.74 374.25,-26.44"/>
<polygon fill="#63b8ff" stroke="#63b8ff" points="370.75,-62.03 374.25,-72.03 377.75,-62.03 370.75,-62.03"/>
</a>
</g>
</g>
<!-- Node9 -->
<g id="Node000009" class="node">
<title>Node9</title>
<g id="a_Node000009"><a xlink:href="$moc___data_base_g_u_i_8cpp.html" xlink:title=" ">
<polygon fill="white" stroke="#666666" points="598.38,-32 442.12,-32 442.12,0 598.38,0 598.38,-32"/>
<text text-anchor="start" x="450.12" y="-18.5" font-family="Helvetica,sans-Serif" font-size="10.00">TullipApp/x64/Debug</text>
<text text-anchor="middle" x="520.25" y="-6.5" font-family="Helvetica,sans-Serif" font-size="10.00">/qt/moc/moc_DataBaseGUI.cpp</text>
</a>
</g>
</g>
<!-- Node6&#45;&gt;Node9 -->
<g id="edge8_Node000006_Node000009" class="edge">
<title>Node6&#45;&gt;Node9</title>
<g id="a_edge8_Node000006_Node000009"><a xlink:title=" ">
<path fill="none" stroke="#63b8ff" d="M405.37,-68.93C429.08,-58.21 461.7,-43.47 486.12,-32.43"/>
<polygon fill="#63b8ff" stroke="#63b8ff" points="404.22,-65.61 396.55,-72.92 407.1,-71.99 404.22,-65.61"/>
</a>
</g>
</g>
<!-- Node11&#45;&gt;Node6 -->
<g id="edge12_Node000011_Node000006" class="edge">
<title>Node11&#45;&gt;Node6</title>
<g id="a_edge12_Node000011_Node000006"><a xlink:title=" ">
<path fill="none" stroke="#63b8ff" d="M512.82,-248.43C508.37,-219.61 496.32,-167.23 465.25,-136 446.35,-117 418.89,-102.92 399.08,-94.43"/>
<polygon fill="#63b8ff" stroke="#63b8ff" points="509.31,-248.6 514.13,-258.04 516.25,-247.66 509.31,-248.6"/>
</a>
</g>
</g>
<!-- Node12 -->
<g id="Node000012" class="node">
<title>Node12</title>
<g id="a_Node000012"><a xlink:href="$_child_entry_8cpp.html" xlink:title=" ">
<polygon fill="white" stroke="#666666" points="666.88,-218 543.62,-218 543.62,-198 666.88,-198 666.88,-218"/>
<text text-anchor="middle" x="605.25" y="-204.5" font-family="Helvetica,sans-Serif" font-size="10.00">TullipApp/ChildEntry.cpp</text>
</a>
</g>
</g>
<!-- Node11&#45;&gt;Node12 -->
<g id="edge11_Node000011_Node000012" class="edge">
<title>Node11&#45;&gt;Node12</title>
<g id="a_edge11_Node000011_Node000012"><a xlink:title=" ">
<path fill="none" stroke="#63b8ff" d="M538.45,-253.54C555.17,-242.39 577.19,-227.71 591.29,-218.31"/>
<polygon fill="#63b8ff" stroke="#63b8ff" points="536.95,-250.33 530.57,-258.79 540.83,-256.15 536.95,-250.33"/>
</a>
</g>
</g>
<!-- Node13 -->
<g id="Node000013" class="node">
<title>Node13</title>
<g id="a_Node000013"><a xlink:href="$moc___child_entry_8cpp.html" xlink:title=" ">
<polygon fill="white" stroke="#666666" points="825.12,-224 685.38,-224 685.38,-192 825.12,-192 825.12,-224"/>
<text text-anchor="start" x="693.38" y="-210.5" font-family="Helvetica,sans-Serif" font-size="10.00">TullipApp/x64/Debug</text>
<text text-anchor="middle" x="755.25" y="-198.5" font-family="Helvetica,sans-Serif" font-size="10.00">/qt/moc/moc_ChildEntry.cpp</text>
</a>
</g>
</g>
<!-- Node11&#45;&gt;Node13 -->
<g id="edge13_Node000011_Node000013" class="edge">
<title>Node11&#45;&gt;Node13</title>
<g id="a_edge13_Node000011_Node000013"><a xlink:title=" ">
<path fill="none" stroke="#63b8ff" d="M564.11,-256.78C601.46,-247.45 653.2,-234.51 693.43,-224.46"/>
<polygon fill="#63b8ff" stroke="#63b8ff" points="563.33,-253.37 554.48,-259.19 565.03,-260.16 563.33,-253.37"/>
</a>
</g>
</g>
<!-- Node14&#45;&gt;Node4 -->
<g id="edge15_Node000014_Node000004" class="edge">
<title>Node14&#45;&gt;Node4</title>
<g id="a_edge15_Node000014_Node000004"><a xlink:title=" ">
<path fill="none" stroke="#63b8ff" d="M281.16,-191.22C265.61,-180.11 245.32,-165.62 232.28,-156.31"/>
<polygon fill="#63b8ff" stroke="#63b8ff" points="278.72,-193.78 288.89,-196.75 282.79,-188.08 278.72,-193.78"/>
</a>
</g>
</g>
<!-- Node14&#45;&gt;Node6 -->
<g id="edge17_Node000014_Node000006" class="edge">
<title>Node14&#45;&gt;Node6</title>
<g id="a_edge17_Node000014_Node000006"><a xlink:title=" ">
<path fill="none" stroke="#63b8ff" d="M306.9,-186.75C310.17,-171.96 315.93,-151.8 325.25,-136 335.11,-119.29 351.46,-103.78 362.54,-94.35"/>
<polygon fill="#63b8ff" stroke="#63b8ff" points="303.54,-185.73 305.01,-196.22 310.4,-187.1 303.54,-185.73"/>
</a>
</g>
</g>
<!-- Node15 -->
<g id="Node000015" class="node">
<title>Node15</title>
<g id="a_Node000015"><a xlink:href="$_data_base_8cpp.html" xlink:title=" ">
<polygon fill="white" stroke="#666666" points="456.12,-156 334.38,-156 334.38,-136 456.12,-136 456.12,-156"/>
<text text-anchor="middle" x="395.25" y="-142.5" font-family="Helvetica,sans-Serif" font-size="10.00">TullipApp/DataBase.cpp</text>
</a>
</g>
</g>
<!-- Node14&#45;&gt;Node15 -->
<g id="edge16_Node000014_Node000015" class="edge">
<title>Node14&#45;&gt;Node15</title>
<g id="a_edge16_Node000014_Node000015"><a xlink:title=" ">
<path fill="none" stroke="#63b8ff" d="M326.96,-191.54C344.06,-180.39 366.57,-165.71 380.98,-156.31"/>
<polygon fill="#63b8ff" stroke="#63b8ff" points="325.36,-188.4 318.89,-196.8 329.18,-194.27 325.36,-188.4"/>
</a>
</g>
</g>
<!-- Node16&#45;&gt;Node14 -->
<g id="edge19_Node000016_Node000014" class="edge">
<title>Node16&#45;&gt;Node14</title>
<g id="a_edge19_Node000016_Node000014"><a xlink:title=" ">
<path fill="none" stroke="#63b8ff" d="M363.99,-252.91C348.68,-241.84 328.89,-227.53 316.13,-218.31"/>
<polygon fill="#63b8ff" stroke="#63b8ff" points="361.9,-255.72 372.05,-258.74 366,-250.04 361.9,-255.72"/>
</a>
</g>
</g>
<!-- Node17 -->
<g id="Node000017" class="node">
<title>Node17</title>
<g id="a_Node000017"><a xlink:href="$_lesson_8cpp.html" xlink:title=" ">
<polygon fill="white" stroke="#666666" points="487.12,-218 377.38,-218 377.38,-198 487.12,-198 487.12,-218"/>
<text text-anchor="middle" x="432.25" y="-204.5" font-family="Helvetica,sans-Serif" font-size="10.00">TullipApp/Lesson.cpp</text>
</a>
</g>
</g>
<!-- Node16&#45;&gt;Node17 -->
<g id="edge20_Node000016_Node000017" class="edge">
<title>Node16&#45;&gt;Node17</title>
<g id="a_edge20_Node000016_Node000017"><a xlink:title=" ">
<path fill="none" stroke="#63b8ff" d="M400.36,-250.6C408.62,-239.83 418.68,-226.7 425.26,-218.11"/>
<polygon fill="#63b8ff" stroke="#63b8ff" points="397.67,-248.36 394.36,-258.42 403.22,-252.62 397.67,-248.36"/>
</a>
</g>
</g>
</g>
</svg>
