<?xml version="1.0" encoding="UTF-8" standalone="no"?>
<!DOCTYPE svg PUBLIC "-//W3C//DTD SVG 1.1//EN"
 "http://www.w3.org/Graphics/SVG/1.1/DTD/svg11.dtd">
<!-- Generated by graphviz version 12.2.1 (20241206.2353)
 -->
<!-- Title: TullipApp/DateTime.cpp Pages: 1 -->
<svg width="459pt" height="196pt"
 viewBox="0.00 0.00 459.25 196.00" xmlns="http://www.w3.org/2000/svg" xmlns:xlink="http://www.w3.org/1999/xlink">
<g id="graph0" class="graph" transform="scale(1 1) rotate(0) translate(4 192)">
<title>TullipApp/DateTime.cpp</title>
<!-- Node1 -->
<g id="Node000001" class="node">
<title>Node1</title>
<g id="a_Node000001"><a xlink:title=" ">
<polygon fill="#999999" stroke="#666666" points="205.25,-188 84.25,-188 84.25,-168 205.25,-168 205.25,-188"/>
<text text-anchor="middle" x="144.75" y="-174.5" font-family="Helvetica,sans-Serif" font-size="10.00">TullipApp/DateTime.cpp</text>
</a>
</g>
</g>
<!-- Node2 -->
<g id="Node000002" class="node">
<title>Node2</title>
<g id="a_Node000002"><a xlink:title=" ">
<polygon fill="#e0e0e0" stroke="#999999" points="93.38,-132 42.12,-132 42.12,-112 93.38,-112 93.38,-132"/>
<text text-anchor="middle" x="67.75" y="-118.5" font-family="Helvetica,sans-Serif" font-size="10.00">sstream</text>
</a>
</g>
</g>
<!-- Node1&#45;&gt;Node2 -->
<g id="edge1_Node000001_Node000002" class="edge">
<title>Node1&#45;&gt;Node2</title>
<g id="a_edge1_Node000001_Node000002"><a xlink:title=" ">
<path fill="none" stroke="#63b8ff" d="M131.34,-167.59C120.14,-159.74 103.94,-148.38 90.69,-139.09"/>
<polygon fill="#63b8ff" stroke="#63b8ff" points="92.7,-136.22 82.51,-133.35 88.68,-141.96 92.7,-136.22"/>
</a>
</g>
</g>
<!-- Node3 -->
<g id="Node000003" class="node">
<title>Node3</title>
<g id="a_Node000003"><a xlink:href="_date_time_8h.html" target="_top" xlink:title="Defines classes and utilities for working with dates, times, and combined date&#45;time values.">
<polygon fill="white" stroke="#666666" points="178.25,-132 111.25,-132 111.25,-112 178.25,-112 178.25,-132"/>
<text text-anchor="middle" x="144.75" y="-118.5" font-family="Helvetica,sans-Serif" font-size="10.00">DateTime.h</text>
</a>
</g>
</g>
<!-- Node1&#45;&gt;Node3 -->
<g id="edge2_Node000001_Node000003" class="edge">
<title>Node1&#45;&gt;Node3</title>
<g id="a_edge2_Node000001_Node000003"><a xlink:title=" ">
<path fill="none" stroke="#63b8ff" d="M144.75,-167.59C144.75,-161.01 144.75,-151.96 144.75,-143.73"/>
<polygon fill="#63b8ff" stroke="#63b8ff" points="148.25,-143.81 144.75,-133.81 141.25,-143.81 148.25,-143.81"/>
</a>
</g>
</g>
<!-- Node13 -->
<g id="Node000013" class="node">
<title>Node13</title>
<g id="a_Node000013"><a xlink:title=" ">
<polygon fill="#e0e0e0" stroke="#999999" points="239.62,-132 195.88,-132 195.88,-112 239.62,-112 239.62,-132"/>
<text text-anchor="middle" x="217.75" y="-118.5" font-family="Helvetica,sans-Serif" font-size="10.00">format</text>
</a>
</g>
</g>
<!-- Node1&#45;&gt;Node13 -->
<g id="edge16_Node000001_Node000013" class="edge">
<title>Node1&#45;&gt;Node13</title>
<g id="a_edge16_Node000001_Node000013"><a xlink:title=" ">
<path fill="none" stroke="#63b8ff" d="M157.47,-167.59C168.14,-159.7 183.63,-148.24 196.23,-138.92"/>
<polygon fill="#63b8ff" stroke="#63b8ff" points="198.01,-141.96 203.96,-133.2 193.84,-136.33 198.01,-141.96"/>
</a>
</g>
</g>
<!-- Node4 -->
<g id="Node000004" class="node">
<title>Node4</title>
<g id="a_Node000004"><a xlink:href="_helper___functions_8h.html" target="_top" xlink:title="Provides utility functions and templates for common operations.">
<polygon fill="white" stroke="#666666" points="318.12,-76 217.38,-76 217.38,-56 318.12,-56 318.12,-76"/>
<text text-anchor="middle" x="267.75" y="-62.5" font-family="Helvetica,sans-Serif" font-size="10.00">Helper_Functions.h</text>
</a>
</g>
</g>
<!-- Node3&#45;&gt;Node4 -->
<g id="edge3_Node000003_Node000004" class="edge">
<title>Node3&#45;&gt;Node4</title>
<g id="a_edge3_Node000003_Node000004"><a xlink:title=" ">
<path fill="none" stroke="#63b8ff" d="M166.17,-111.59C185.37,-103.17 213.79,-90.69 235.69,-81.07"/>
<polygon fill="#63b8ff" stroke="#63b8ff" points="237.02,-84.31 244.77,-77.09 234.21,-77.9 237.02,-84.31"/>
</a>
</g>
</g>
<!-- Node5 -->
<g id="Node000005" class="node">
<title>Node5</title>
<g id="a_Node000005"><a xlink:title=" ">
<polygon fill="#e0e0e0" stroke="#999999" points="53.5,-20 0,-20 0,0 53.5,0 53.5,-20"/>
<text text-anchor="middle" x="26.75" y="-6.5" font-family="Helvetica,sans-Serif" font-size="10.00">iostream</text>
</a>
</g>
</g>
<!-- Node3&#45;&gt;Node5 -->
<g id="edge14_Node000003_Node000005" class="edge">
<title>Node3&#45;&gt;Node5</title>
<g id="a_edge14_Node000003_Node000005"><a xlink:title=" ">
<path fill="none" stroke="#63b8ff" d="M110.96,-111.84C81.34,-103.08 41.51,-89.27 31.75,-76 22.51,-63.44 21.77,-45.56 23.05,-31.74"/>
<polygon fill="#63b8ff" stroke="#63b8ff" points="26.5,-32.33 24.41,-21.95 19.57,-31.37 26.5,-32.33"/>
</a>
</g>
</g>
<!-- Node6 -->
<g id="Node000006" class="node">
<title>Node6</title>
<g id="a_Node000006"><a xlink:title=" ">
<polygon fill="#e0e0e0" stroke="#999999" points="187.75,-20 147.75,-20 147.75,0 187.75,0 187.75,-20"/>
<text text-anchor="middle" x="167.75" y="-6.5" font-family="Helvetica,sans-Serif" font-size="10.00">string</text>
</a>
</g>
</g>
<!-- Node3&#45;&gt;Node6 -->
<g id="edge15_Node000003_Node000006" class="edge">
<title>Node3&#45;&gt;Node6</title>
<g id="a_edge15_Node000003_Node000006"><a xlink:title=" ">
<path fill="none" stroke="#63b8ff" d="M152.13,-111.65C158.47,-102.98 167.15,-89.42 170.75,-76 174.65,-61.45 173.67,-44.41 171.84,-31.44"/>
<polygon fill="#63b8ff" stroke="#63b8ff" points="175.35,-31.2 170.21,-21.94 168.45,-32.39 175.35,-31.2"/>
</a>
</g>
</g>
<!-- Node11 -->
<g id="Node000011" class="node">
<title>Node11</title>
<g id="a_Node000011"><a xlink:href="_date_time___exceptions_8h.html" target="_top" xlink:title="Defines error messages and the DateTimeError exception class for date and time operations.">
<polygon fill="white" stroke="#666666" points="161.25,-76 40.25,-76 40.25,-56 161.25,-56 161.25,-76"/>
<text text-anchor="middle" x="100.75" y="-62.5" font-family="Helvetica,sans-Serif" font-size="10.00">DateTime_Exceptions.h</text>
</a>
</g>
</g>
<!-- Node3&#45;&gt;Node11 -->
<g id="edge10_Node000003_Node000011" class="edge">
<title>Node3&#45;&gt;Node11</title>
<g id="a_edge10_Node000003_Node000011"><a xlink:title=" ">
<path fill="none" stroke="#63b8ff" d="M137.09,-111.59C131.16,-104.32 122.76,-94.02 115.54,-85.15"/>
<polygon fill="#63b8ff" stroke="#63b8ff" points="118.31,-83.01 109.28,-77.47 112.89,-87.43 118.31,-83.01"/>
</a>
</g>
</g>
<!-- Node4&#45;&gt;Node5 -->
<g id="edge4_Node000004_Node000005" class="edge">
<title>Node4&#45;&gt;Node5</title>
<g id="a_edge4_Node000004_Node000005"><a xlink:title=" ">
<path fill="none" stroke="#63b8ff" d="M222.88,-55.54C183.64,-47.18 124.86,-34.45 64.7,-20.41"/>
<polygon fill="#63b8ff" stroke="#63b8ff" points="65.86,-17.09 55.33,-18.21 64.27,-23.9 65.86,-17.09"/>
</a>
</g>
</g>
<!-- Node4&#45;&gt;Node6 -->
<g id="edge5_Node000004_Node000006" class="edge">
<title>Node4&#45;&gt;Node6</title>
<g id="a_edge5_Node000004_Node000006"><a xlink:title=" ">
<path fill="none" stroke="#63b8ff" d="M250.33,-55.59C235.08,-47.36 212.67,-35.26 195.04,-25.74"/>
<polygon fill="#63b8ff" stroke="#63b8ff" points="197.1,-22.87 186.64,-21.2 193.77,-29.03 197.1,-22.87"/>
</a>
</g>
</g>
<!-- Node7 -->
<g id="Node000007" class="node">
<title>Node7</title>
<g id="a_Node000007"><a xlink:title=" ">
<polygon fill="#e0e0e0" stroke="#999999" points="451.25,-20 408.25,-20 408.25,0 451.25,0 451.25,-20"/>
<text text-anchor="middle" x="429.75" y="-6.5" font-family="Helvetica,sans-Serif" font-size="10.00">vector</text>
</a>
</g>
</g>
<!-- Node4&#45;&gt;Node7 -->
<g id="edge6_Node000004_Node000007" class="edge">
<title>Node4&#45;&gt;Node7</title>
<g id="a_edge6_Node000004_Node000007"><a xlink:title=" ">
<path fill="none" stroke="#63b8ff" d="M295.97,-55.59C324.26,-46.16 367.78,-31.66 397.44,-21.77"/>
<polygon fill="#63b8ff" stroke="#63b8ff" points="398.25,-25.19 406.63,-18.71 396.04,-18.55 398.25,-25.19"/>
</a>
</g>
</g>
<!-- Node8 -->
<g id="Node000008" class="node">
<title>Node8</title>
<g id="a_Node000008"><a xlink:title=" ">
<polygon fill="#e0e0e0" stroke="#999999" points="261.62,-20 205.88,-20 205.88,0 261.62,0 261.62,-20"/>
<text text-anchor="middle" x="233.75" y="-6.5" font-family="Helvetica,sans-Serif" font-size="10.00">algorithm</text>
</a>
</g>
</g>
<!-- Node4&#45;&gt;Node8 -->
<g id="edge7_Node000004_Node000008" class="edge">
<title>Node4&#45;&gt;Node8</title>
<g id="a_edge7_Node000004_Node000008"><a xlink:title=" ">
<path fill="none" stroke="#63b8ff" d="M261.83,-55.59C257.39,-48.55 251.17,-38.67 245.71,-30"/>
<polygon fill="#63b8ff" stroke="#63b8ff" points="248.7,-28.18 240.41,-21.58 242.78,-31.91 248.7,-28.18"/>
</a>
</g>
</g>
<!-- Node9 -->
<g id="Node000009" class="node">
<title>Node9</title>
<g id="a_Node000009"><a xlink:title=" ">
<polygon fill="#e0e0e0" stroke="#999999" points="337.75,-20 279.75,-20 279.75,0 337.75,0 337.75,-20"/>
<text text-anchor="middle" x="308.75" y="-6.5" font-family="Helvetica,sans-Serif" font-size="10.00">functional</text>
</a>
</g>
</g>
<!-- Node4&#45;&gt;Node9 -->
<g id="edge8_Node000004_Node000009" class="edge">
<title>Node4&#45;&gt;Node9</title>
<g id="a_edge8_Node000004_Node000009"><a xlink:title=" ">
<path fill="none" stroke="#63b8ff" d="M274.89,-55.59C280.36,-48.39 288.07,-38.23 294.76,-29.43"/>
<polygon fill="#63b8ff" stroke="#63b8ff" points="297.52,-31.58 300.77,-21.5 291.94,-27.35 297.52,-31.58"/>
</a>
</g>
</g>
<!-- Node10 -->
<g id="Node000010" class="node">
<title>Node10</title>
<g id="a_Node000010"><a xlink:title=" ">
<polygon fill="#e0e0e0" stroke="#999999" points="390.12,-20 355.38,-20 355.38,0 390.12,0 390.12,-20"/>
<text text-anchor="middle" x="372.75" y="-6.5" font-family="Helvetica,sans-Serif" font-size="10.00">map</text>
</a>
</g>
</g>
<!-- Node4&#45;&gt;Node10 -->
<g id="edge9_Node000004_Node000010" class="edge">
<title>Node4&#45;&gt;Node10</title>
<g id="a_edge9_Node000004_Node000010"><a xlink:title=" ">
<path fill="none" stroke="#63b8ff" d="M286.04,-55.59C302.32,-47.22 326.39,-34.84 345.03,-25.25"/>
<polygon fill="#63b8ff" stroke="#63b8ff" points="346.38,-28.5 353.67,-20.81 343.18,-22.27 346.38,-28.5"/>
</a>
</g>
</g>
<!-- Node11&#45;&gt;Node5 -->
<g id="edge12_Node000011_Node000005" class="edge">
<title>Node11&#45;&gt;Node5</title>
<g id="a_edge12_Node000011_Node000005"><a xlink:title=" ">
<path fill="none" stroke="#63b8ff" d="M87.86,-55.59C77.04,-47.7 61.34,-36.24 48.56,-26.92"/>
<polygon fill="#63b8ff" stroke="#63b8ff" points="50.86,-24.26 40.71,-21.19 46.73,-29.91 50.86,-24.26"/>
</a>
</g>
</g>
<!-- Node11&#45;&gt;Node6 -->
<g id="edge11_Node000011_Node000006" class="edge">
<title>Node11&#45;&gt;Node6</title>
<g id="a_edge11_Node000011_Node000006"><a xlink:title=" ">
<path fill="none" stroke="#63b8ff" d="M112.42,-55.59C122.03,-47.85 135.88,-36.69 147.32,-27.47"/>
<polygon fill="#63b8ff" stroke="#63b8ff" points="149.45,-30.25 155.03,-21.25 145.05,-24.8 149.45,-30.25"/>
</a>
</g>
</g>
<!-- Node12 -->
<g id="Node000012" class="node">
<title>Node12</title>
<g id="a_Node000012"><a xlink:title=" ">
<polygon fill="#e0e0e0" stroke="#999999" points="129.75,-20 71.75,-20 71.75,0 129.75,0 129.75,-20"/>
<text text-anchor="middle" x="100.75" y="-6.5" font-family="Helvetica,sans-Serif" font-size="10.00">exception</text>
</a>
</g>
</g>
<!-- Node11&#45;&gt;Node12 -->
<g id="edge13_Node000011_Node000012" class="edge">
<title>Node11&#45;&gt;Node12</title>
<g id="a_edge13_Node000011_Node000012"><a xlink:title=" ">
<path fill="none" stroke="#63b8ff" d="M100.75,-55.59C100.75,-49.01 100.75,-39.96 100.75,-31.73"/>
<polygon fill="#63b8ff" stroke="#63b8ff" points="104.25,-31.81 100.75,-21.81 97.25,-31.81 104.25,-31.81"/>
</a>
</g>
</g>
</g>
</svg>
