<?xml version="1.0" encoding="UTF-8" standalone="no"?>
<!DOCTYPE svg PUBLIC "-//W3C//DTD SVG 1.1//EN"
 "http://www.w3.org/Graphics/SVG/1.1/DTD/svg11.dtd">
<!-- Generated by graphviz version 12.2.1 (20241206.2353)
 -->
<!-- Title: TullipApp/DataBase.h Pages: 1 -->
<!--zoomable 300 -->

<svg id="main" version="1.1" xmlns="http://www.w3.org/2000/svg" xmlns:xlink="http://www.w3.org/1999/xlink" xml:space="preserve" onload="init(evt)">

<style type="text/css"><![CDATA[
.node, .edge {opacity: 0.7;}
.node.selected, .edge.selected {opacity: 1;}
.edge:hover path { stroke: red; }
.edge:hover polygon { stroke: red; fill: red; }
]]></style>

<defs>
  <circle id="rim" cx="0" cy="0" r="7"/>
  <circle id="rim2" cx="0" cy="0" r="3.5"/>
  <g id="zoomPlus">
    <use xlink:href="#rim" fill="#404040"><set attributeName="fill" to="#808080" begin="zoomplus.mouseover" end="zoomplus.mouseout"/></use>
    <path d="M-4,0h8M0,-4v8" fill="none" stroke="white" stroke-width="1.5" pointer-events="none"/>
  </g>
  <g id="zoomMin">
    <use xlink:href="#rim" fill="#404040"><set attributeName="fill" to="#808080" begin="zoomminus.mouseover" end="zoomminus.mouseout"/></use>
    <path d="M-4,0h8" fill="none" stroke="white" stroke-width="1.5" pointer-events="none"/>
  </g>
  <g id="arrowUp" transform="translate(30 24)">
    <use xlink:href="#rim"/>
    <path pointer-events="none" fill="none" stroke="white" stroke-width="1.5" d="M0,-3.0v7 M-2.5,-0.5L0,-3.0L2.5,-0.5"/>
  </g>
  <g id="arrowRight" transform="rotate(90) translate(36 -43)">
    <use xlink:href="#rim"/>
    <path pointer-events="none" fill="none" stroke="white" stroke-width="1.5" d="M0,-3.0v7 M-2.5,-0.5L0,-3.0L2.5,-0.5"/>
  </g>
  <g id="arrowDown" transform="rotate(180) translate(-30 -48)">
    <use xlink:href="#rim"/>
    <path pointer-events="none" fill="none" stroke="white" stroke-width="1.5" d="M0,-3.0v7 M-2.5,-0.5L0,-3.0L2.5,-0.5"/>
  </g>
  <g id="arrowLeft" transform="rotate(270) translate(-36 17)">
    <use xlink:href="#rim"/>
    <path pointer-events="none" fill="none" stroke="white" stroke-width="1.5" d="M0,-3.0v7 M-2.5,-0.5L0,-3.0L2.5,-0.5"/>
  </g>
  <g id="resetDef">
    <use xlink:href="#rim2" fill="#404040"><set attributeName="fill" to="#808080" begin="reset.mouseover" end="reset.mouseout"/></use>
  </g>
</defs>
<script type="application/ecmascript">
var viewWidth = 1491;
var viewHeight = 300;
var sectionId = 'dynsection-1';
</script>
<script type="application/ecmascript" xlink:href="svg.min.js"/>
<svg id="graph" class="graph">
<g id="viewport">
<title>TullipApp/DataBase.h</title>
<!-- Node1 -->
<g id="Node000001" class="node">
<title>Node1</title>
<g id="a_Node000001"><a xlink:title="Defines the Database class for managing lessons, parents, children, and employees.">
<polygon fill="#999999" stroke="#666666" points="762.32,-292 651.07,-292 651.07,-272 762.32,-272 762.32,-292"/>
<text text-anchor="middle" x="706.7" y="-278.5" font-family="Helvetica,sans-Serif" font-size="10.00">TullipApp/DataBase.h</text>
</a>
</g>
</g>
<!-- Node2 -->
<g id="Node000002" class="node">
<title>Node2</title>
<g id="a_Node000002"><a xlink:href="_child_dialog_8h.html" target="_top" xlink:title="Defines the ChildDialog class for managing child&#45;related information.">
<polygon fill="white" stroke="#666666" points="343.7,-230 225.7,-230 225.7,-210 343.7,-210 343.7,-230"/>
<text text-anchor="middle" x="284.7" y="-216.5" font-family="Helvetica,sans-Serif" font-size="10.00">TullipApp/ChildDialog.h</text>
</a>
</g>
</g>
<!-- Node1&#45;&gt;Node2 -->
<g id="edge1_Node000001_Node000002" class="edge">
<title>Node1&#45;&gt;Node2</title>
<g id="a_edge1_Node000001_Node000002"><a xlink:title=" ">
<path fill="none" stroke="#63b8ff" d="M639.53,-271.45C558.02,-259.86 421.85,-240.5 344.03,-229.44"/>
<polygon fill="#63b8ff" stroke="#63b8ff" points="638.77,-274.88 649.16,-272.82 639.76,-267.95 638.77,-274.88"/>
</a>
</g>
</g>
<!-- Node4 -->
<g id="Node000004" class="node">
<title>Node4</title>
<g id="a_Node000004"><a xlink:href="_data_base_g_u_i_8h.html" target="_top" xlink:title="Defines the DataBaseGUI class for managing the graphical user interface of the database.">
<polygon fill="white" stroke="#666666" points="438.32,-94 309.07,-94 309.07,-74 438.32,-74 438.32,-94"/>
<text text-anchor="middle" x="373.7" y="-80.5" font-family="Helvetica,sans-Serif" font-size="10.00">TullipApp/DataBaseGUI.h</text>
</a>
</g>
</g>
<!-- Node1&#45;&gt;Node4 -->
<g id="edge9_Node000001_Node000004" class="edge">
<title>Node1&#45;&gt;Node4</title>
<g id="a_edge9_Node000001_Node000004"><a xlink:title=" ">
<path fill="none" stroke="#63b8ff" d="M639.44,-281.47C478.74,-280.94 80.33,-269.23 6.7,-168 -1.67,-156.5 -2.64,-146.73 6.7,-136 45.09,-91.91 213.95,-84.72 308.68,-84.26"/>
<polygon fill="#63b8ff" stroke="#63b8ff" points="639.07,-284.97 649.08,-281.49 639.09,-277.97 639.07,-284.97"/>
</a>
</g>
</g>
<!-- Node9 -->
<g id="Node000009" class="node">
<title>Node9</title>
<g id="a_Node000009"><a xlink:href="_data_base_8cpp.html" target="_top" xlink:title=" ">
<polygon fill="white" stroke="#666666" points="1348.57,-162 1226.82,-162 1226.82,-142 1348.57,-142 1348.57,-162"/>
<text text-anchor="middle" x="1287.7" y="-148.5" font-family="Helvetica,sans-Serif" font-size="10.00">TullipApp/DataBase.cpp</text>
</a>
</g>
</g>
<!-- Node1&#45;&gt;Node9 -->
<g id="edge8_Node000001_Node000009" class="edge">
<title>Node1&#45;&gt;Node9</title>
<g id="a_edge8_Node000001_Node000009"><a xlink:title=" ">
<path fill="none" stroke="#63b8ff" d="M768.07,-269.43C813.81,-260.66 877.77,-248.1 933.7,-236 1048.92,-211.08 1184.42,-178.35 1249.3,-162.46"/>
<polygon fill="#63b8ff" stroke="#63b8ff" points="767.5,-265.98 758.33,-271.29 768.81,-272.85 767.5,-265.98"/>
</a>
</g>
</g>
<!-- Node10 -->
<g id="Node000010" class="node">
<title>Node10</title>
<g id="a_Node000010"><a xlink:href="_data_base___parser___functions_8h.html" target="_top" xlink:title=" ">
<polygon fill="white" stroke="#666666" points="1340.7,-236 1234.7,-236 1234.7,-204 1340.7,-204 1340.7,-236"/>
<text text-anchor="start" x="1242.7" y="-222.5" font-family="Helvetica,sans-Serif" font-size="10.00">TullipApp/DataBase</text>
<text text-anchor="middle" x="1287.7" y="-210.5" font-family="Helvetica,sans-Serif" font-size="10.00">_Parser_Functions.h</text>
</a>
</g>
</g>
<!-- Node1&#45;&gt;Node10 -->
<g id="edge10_Node000001_Node000010" class="edge">
<title>Node1&#45;&gt;Node10</title>
<g id="a_edge10_Node000001_Node000010"><a xlink:title=" ">
<path fill="none" stroke="#63b8ff" d="M773.91,-274.06C890.55,-262.01 1128.13,-237.48 1234.33,-226.51"/>
<polygon fill="#63b8ff" stroke="#63b8ff" points="773.77,-270.56 764.18,-275.06 774.48,-277.52 773.77,-270.56"/>
</a>
</g>
</g>
<!-- Node12 -->
<g id="Node000012" class="node">
<title>Node12</title>
<g id="a_Node000012"><a xlink:href="_lesson_dialog_8h.html" target="_top" xlink:title="Defines the LessonDialog class for managing lesson&#45;related information.">
<polygon fill="white" stroke="#666666" points="698.2,-230 571.2,-230 571.2,-210 698.2,-210 698.2,-230"/>
<text text-anchor="middle" x="634.7" y="-216.5" font-family="Helvetica,sans-Serif" font-size="10.00">TullipApp/LessonDialog.h</text>
</a>
</g>
</g>
<!-- Node1&#45;&gt;Node12 -->
<g id="edge13_Node000001_Node000012" class="edge">
<title>Node1&#45;&gt;Node12</title>
<g id="a_edge13_Node000001_Node000012"><a xlink:title=" ">
<path fill="none" stroke="#63b8ff" d="M686.95,-264.55C673.64,-253.45 656.57,-239.23 645.64,-230.11"/>
<polygon fill="#63b8ff" stroke="#63b8ff" points="684.36,-266.94 694.29,-270.66 688.85,-261.57 684.36,-266.94"/>
</a>
</g>
</g>
<!-- Node18 -->
<g id="Node000018" class="node">
<title>Node18</title>
<g id="a_Node000018"><a xlink:href="_parent_dialog_8h.html" target="_top" xlink:title="Defines the ParentDialog class for managing parent&#45;related information.">
<polygon fill="white" stroke="#666666" points="924.7,-230 800.7,-230 800.7,-210 924.7,-210 924.7,-230"/>
<text text-anchor="middle" x="862.7" y="-216.5" font-family="Helvetica,sans-Serif" font-size="10.00">TullipApp/ParentDialog.h</text>
</a>
</g>
</g>
<!-- Node1&#45;&gt;Node18 -->
<g id="edge21_Node000001_Node000018" class="edge">
<title>Node1&#45;&gt;Node18</title>
<g id="a_edge21_Node000001_Node000018"><a xlink:title=" ">
<path fill="none" stroke="#63b8ff" d="M741.7,-267.54C771.08,-256.24 812.29,-240.39 838.24,-230.41"/>
<polygon fill="#63b8ff" stroke="#63b8ff" points="740.56,-264.23 732.49,-271.08 743.08,-270.76 740.56,-264.23"/>
</a>
</g>
</g>
<!-- Node3 -->
<g id="Node000003" class="node">
<title>Node3</title>
<g id="a_Node000003"><a xlink:href="_child_dialog_8cpp.html" target="_top" xlink:title=" ">
<polygon fill="white" stroke="#666666" points="143.95,-162 15.45,-162 15.45,-142 143.95,-142 143.95,-162"/>
<text text-anchor="middle" x="79.7" y="-148.5" font-family="Helvetica,sans-Serif" font-size="10.00">TullipApp/ChildDialog.cpp</text>
</a>
</g>
</g>
<!-- Node2&#45;&gt;Node3 -->
<g id="edge2_Node000002_Node000003" class="edge">
<title>Node2&#45;&gt;Node3</title>
<g id="a_edge2_Node000002_Node000003"><a xlink:title=" ">
<path fill="none" stroke="#63b8ff" d="M244.41,-206.03C204.56,-193.2 144.54,-173.87 109.02,-162.44"/>
<polygon fill="#63b8ff" stroke="#63b8ff" points="243.3,-209.35 253.89,-209.08 245.44,-202.68 243.3,-209.35"/>
</a>
</g>
</g>
<!-- Node2&#45;&gt;Node4 -->
<g id="edge3_Node000002_Node000004" class="edge">
<title>Node2&#45;&gt;Node4</title>
<g id="a_edge3_Node000002_Node000004"><a xlink:title=" ">
<path fill="none" stroke="#63b8ff" d="M297.08,-200.36C316.4,-171.27 353.02,-116.14 367.54,-94.27"/>
<polygon fill="#63b8ff" stroke="#63b8ff" points="294.27,-198.26 291.65,-208.53 300.1,-202.14 294.27,-198.26"/>
</a>
</g>
</g>
<!-- Node8 -->
<g id="Node000008" class="node">
<title>Node8</title>
<g id="a_Node000008"><a xlink:href="moc___child_dialog_8cpp.html" target="_top" xlink:title=" ">
<polygon fill="white" stroke="#666666" points="307.2,-168 162.2,-168 162.2,-136 307.2,-136 307.2,-168"/>
<text text-anchor="start" x="170.2" y="-154.5" font-family="Helvetica,sans-Serif" font-size="10.00">TullipApp/x64/Debug</text>
<text text-anchor="middle" x="234.7" y="-142.5" font-family="Helvetica,sans-Serif" font-size="10.00">/qt/moc/moc_ChildDialog.cpp</text>
</a>
</g>
</g>
<!-- Node2&#45;&gt;Node8 -->
<g id="edge7_Node000002_Node000008" class="edge">
<title>Node2&#45;&gt;Node8</title>
<g id="a_edge7_Node000002_Node000008"><a xlink:title=" ">
<path fill="none" stroke="#63b8ff" d="M270.81,-200.67C263.09,-190.48 253.61,-177.96 246.29,-168.3"/>
<polygon fill="#63b8ff" stroke="#63b8ff" points="267.79,-202.48 276.62,-208.34 273.37,-198.25 267.79,-202.48"/>
</a>
</g>
</g>
<!-- Node5 -->
<g id="Node000005" class="node">
<title>Node5</title>
<g id="a_Node000005"><a xlink:href="_data_base_g_u_i_8cpp.html" target="_top" xlink:title=" ">
<polygon fill="white" stroke="#666666" points="305.57,-26 165.82,-26 165.82,-6 305.57,-6 305.57,-26"/>
<text text-anchor="middle" x="235.7" y="-12.5" font-family="Helvetica,sans-Serif" font-size="10.00">TullipApp/DataBaseGUI.cpp</text>
</a>
</g>
</g>
<!-- Node4&#45;&gt;Node5 -->
<g id="edge4_Node000004_Node000005" class="edge">
<title>Node4&#45;&gt;Node5</title>
<g id="a_edge4_Node000004_Node000005"><a xlink:title=" ">
<path fill="none" stroke="#63b8ff" d="M343.6,-68.6C316.83,-55.8 278.48,-37.46 255.44,-26.44"/>
<polygon fill="#63b8ff" stroke="#63b8ff" points="342.03,-71.73 352.56,-72.89 345.05,-65.42 342.03,-71.73"/>
</a>
</g>
</g>
<!-- Node6 -->
<g id="Node000006" class="node">
<title>Node6</title>
<g id="a_Node000006"><a xlink:href="_main_8cpp.html" target="_top" xlink:title=" ">
<polygon fill="white" stroke="#666666" points="423.32,-26 324.07,-26 324.07,-6 423.32,-6 423.32,-26"/>
<text text-anchor="middle" x="373.7" y="-12.5" font-family="Helvetica,sans-Serif" font-size="10.00">TullipApp/Main.cpp</text>
</a>
</g>
</g>
<!-- Node4&#45;&gt;Node6 -->
<g id="edge5_Node000004_Node000006" class="edge">
<title>Node4&#45;&gt;Node6</title>
<g id="a_edge5_Node000004_Node000006"><a xlink:title=" ">
<path fill="none" stroke="#63b8ff" d="M373.7,-62.28C373.7,-50.27 373.7,-35.74 373.7,-26.44"/>
<polygon fill="#63b8ff" stroke="#63b8ff" points="370.2,-62.03 373.7,-72.03 377.2,-62.03 370.2,-62.03"/>
</a>
</g>
</g>
<!-- Node7 -->
<g id="Node000007" class="node">
<title>Node7</title>
<g id="a_Node000007"><a xlink:href="moc___data_base_g_u_i_8cpp.html" target="_top" xlink:title=" ">
<polygon fill="white" stroke="#666666" points="597.82,-32 441.57,-32 441.57,0 597.82,0 597.82,-32"/>
<text text-anchor="start" x="449.57" y="-18.5" font-family="Helvetica,sans-Serif" font-size="10.00">TullipApp/x64/Debug</text>
<text text-anchor="middle" x="519.7" y="-6.5" font-family="Helvetica,sans-Serif" font-size="10.00">/qt/moc/moc_DataBaseGUI.cpp</text>
</a>
</g>
</g>
<!-- Node4&#45;&gt;Node7 -->
<g id="edge6_Node000004_Node000007" class="edge">
<title>Node4&#45;&gt;Node7</title>
<g id="a_edge6_Node000004_Node000007"><a xlink:title=" ">
<path fill="none" stroke="#63b8ff" d="M404.82,-68.93C428.53,-58.21 461.15,-43.47 485.57,-32.43"/>
<polygon fill="#63b8ff" stroke="#63b8ff" points="403.67,-65.61 396,-72.92 406.55,-71.99 403.67,-65.61"/>
</a>
</g>
</g>
<!-- Node10&#45;&gt;Node9 -->
<g id="edge11_Node000010_Node000009" class="edge">
<title>Node10&#45;&gt;Node9</title>
<g id="a_edge11_Node000010_Node000009"><a xlink:title=" ">
<path fill="none" stroke="#63b8ff" d="M1287.7,-192.31C1287.7,-181.67 1287.7,-170.13 1287.7,-162.32"/>
<polygon fill="#63b8ff" stroke="#63b8ff" points="1284.2,-192.18 1287.7,-202.18 1291.2,-192.18 1284.2,-192.18"/>
</a>
</g>
</g>
<!-- Node11 -->
<g id="Node000011" class="node">
<title>Node11</title>
<g id="a_Node000011"><a xlink:href="_data_base___parser___functions_8cpp.html" target="_top" xlink:title=" ">
<polygon fill="white" stroke="#666666" points="1482.95,-168 1366.45,-168 1366.45,-136 1482.95,-136 1482.95,-168"/>
<text text-anchor="start" x="1374.45" y="-154.5" font-family="Helvetica,sans-Serif" font-size="10.00">TullipApp/DataBase</text>
<text text-anchor="middle" x="1424.7" y="-142.5" font-family="Helvetica,sans-Serif" font-size="10.00">_Parser_Functions.cpp</text>
</a>
</g>
</g>
<!-- Node10&#45;&gt;Node11 -->
<g id="edge12_Node000010_Node000011" class="edge">
<title>Node10&#45;&gt;Node11</title>
<g id="a_edge12_Node000010_Node000011"><a xlink:title=" ">
<path fill="none" stroke="#63b8ff" d="M1330.03,-198.61C1350.27,-188.86 1374.09,-177.38 1392.78,-168.38"/>
<polygon fill="#63b8ff" stroke="#63b8ff" points="1328.67,-195.38 1321.18,-202.87 1331.71,-201.68 1328.67,-195.38"/>
</a>
</g>
</g>
<!-- Node12&#45;&gt;Node4 -->
<g id="edge14_Node000012_Node000004" class="edge">
<title>Node12&#45;&gt;Node4</title>
<g id="a_edge14_Node000012_Node000004"><a xlink:title=" ">
<path fill="none" stroke="#63b8ff" d="M559.48,-211.99C497.47,-204.66 416.05,-190.95 392.7,-168 372.46,-148.11 371.89,-111.37 372.87,-94.24"/>
<polygon fill="#63b8ff" stroke="#63b8ff" points="558.97,-215.45 569.31,-213.11 559.77,-208.5 558.97,-215.45"/>
</a>
</g>
</g>
<!-- Node13 -->
<g id="Node000013" class="node">
<title>Node13</title>
<g id="a_Node000013"><a xlink:href="_lesson_dialog_8cpp.html" target="_top" xlink:title=" ">
<polygon fill="white" stroke="#666666" points="539.45,-162 401.95,-162 401.95,-142 539.45,-142 539.45,-162"/>
<text text-anchor="middle" x="470.7" y="-148.5" font-family="Helvetica,sans-Serif" font-size="10.00">TullipApp/LessonDialog.cpp</text>
</a>
</g>
</g>
<!-- Node12&#45;&gt;Node13 -->
<g id="edge15_Node000012_Node000013" class="edge">
<title>Node12&#45;&gt;Node13</title>
<g id="a_edge15_Node000012_Node000013"><a xlink:title=" ">
<path fill="none" stroke="#63b8ff" d="M600.61,-205.28C568.75,-192.46 522.02,-173.65 494.15,-162.44"/>
<polygon fill="#63b8ff" stroke="#63b8ff" points="599.21,-208.49 609.8,-208.98 601.83,-202 599.21,-208.49"/>
</a>
</g>
</g>
<!-- Node14 -->
<g id="Node000014" class="node">
<title>Node14</title>
<g id="a_Node000014"><a xlink:href="_lesson_view_8h.html" target="_top" xlink:title="Defines the LessonView class for viewing lesson&#45;related information.">
<polygon fill="white" stroke="#666666" points="887.82,-162 767.57,-162 767.57,-142 887.82,-142 887.82,-162"/>
<text text-anchor="middle" x="827.7" y="-148.5" font-family="Helvetica,sans-Serif" font-size="10.00">TullipApp/LessonView.h</text>
</a>
</g>
</g>
<!-- Node12&#45;&gt;Node14 -->
<g id="edge16_Node000012_Node000014" class="edge">
<title>Node12&#45;&gt;Node14</title>
<g id="a_edge16_Node000012_Node000014"><a xlink:title=" ">
<path fill="none" stroke="#63b8ff" d="M672.87,-205.95C710.39,-193.12 766.73,-173.85 800.1,-162.44"/>
<polygon fill="#63b8ff" stroke="#63b8ff" points="672.11,-202.51 663.78,-209.05 674.38,-209.13 672.11,-202.51"/>
</a>
</g>
</g>
<!-- Node17 -->
<g id="Node000017" class="node">
<title>Node17</title>
<g id="a_Node000017"><a xlink:href="moc___lesson_dialog_8cpp.html" target="_top" xlink:title=" ">
<polygon fill="white" stroke="#666666" points="711.7,-168 557.7,-168 557.7,-136 711.7,-136 711.7,-168"/>
<text text-anchor="start" x="565.7" y="-154.5" font-family="Helvetica,sans-Serif" font-size="10.00">TullipApp/x64/Debug</text>
<text text-anchor="middle" x="634.7" y="-142.5" font-family="Helvetica,sans-Serif" font-size="10.00">/qt/moc/moc_LessonDialog.cpp</text>
</a>
</g>
</g>
<!-- Node12&#45;&gt;Node17 -->
<g id="edge20_Node000012_Node000017" class="edge">
<title>Node12&#45;&gt;Node17</title>
<g id="a_edge20_Node000012_Node000017"><a xlink:title=" ">
<path fill="none" stroke="#63b8ff" d="M634.7,-198.1C634.7,-188.43 634.7,-177.16 634.7,-168.3"/>
<polygon fill="#63b8ff" stroke="#63b8ff" points="631.2,-198.03 634.7,-208.03 638.2,-198.03 631.2,-198.03"/>
</a>
</g>
</g>
<!-- Node14&#45;&gt;Node4 -->
<g id="edge17_Node000014_Node000004" class="edge">
<title>Node14&#45;&gt;Node4</title>
<g id="a_edge17_Node000014_Node000004"><a xlink:title=" ">
<path fill="none" stroke="#63b8ff" d="M772.37,-139.37C766.08,-138.17 759.76,-137.02 753.7,-136 643.59,-117.47 514.62,-101.33 438.78,-92.4"/>
<polygon fill="#63b8ff" stroke="#63b8ff" points="771.6,-142.78 782.09,-141.26 772.94,-135.91 771.6,-142.78"/>
</a>
</g>
</g>
<!-- Node15 -->
<g id="Node000015" class="node">
<title>Node15</title>
<g id="a_Node000015"><a xlink:href="_lesson_view_8cpp.html" target="_top" xlink:title=" ">
<polygon fill="white" stroke="#666666" points="971.07,-94 840.32,-94 840.32,-74 971.07,-74 971.07,-94"/>
<text text-anchor="middle" x="905.7" y="-80.5" font-family="Helvetica,sans-Serif" font-size="10.00">TullipApp/LessonView.cpp</text>
</a>
</g>
</g>
<!-- Node14&#45;&gt;Node15 -->
<g id="edge18_Node000014_Node000015" class="edge">
<title>Node14&#45;&gt;Node15</title>
<g id="a_edge18_Node000014_Node000015"><a xlink:title=" ">
<path fill="none" stroke="#63b8ff" d="M847.4,-134.33C862.32,-121.71 882.27,-104.82 894.55,-94.44"/>
<polygon fill="#63b8ff" stroke="#63b8ff" points="845.4,-131.43 840.03,-140.57 849.93,-136.78 845.4,-131.43"/>
</a>
</g>
</g>
<!-- Node16 -->
<g id="Node000016" class="node">
<title>Node16</title>
<g id="a_Node000016"><a xlink:href="moc___lesson_view_8cpp.html" target="_top" xlink:title=" ">
<polygon fill="white" stroke="#666666" points="822.32,-100 675.07,-100 675.07,-68 822.32,-68 822.32,-100"/>
<text text-anchor="start" x="683.07" y="-86.5" font-family="Helvetica,sans-Serif" font-size="10.00">TullipApp/x64/Debug</text>
<text text-anchor="middle" x="748.7" y="-74.5" font-family="Helvetica,sans-Serif" font-size="10.00">/qt/moc/moc_LessonView.cpp</text>
</a>
</g>
</g>
<!-- Node14&#45;&gt;Node16 -->
<g id="edge19_Node000014_Node000016" class="edge">
<title>Node14&#45;&gt;Node16</title>
<g id="a_edge19_Node000014_Node000016"><a xlink:title=" ">
<path fill="none" stroke="#63b8ff" d="M807.62,-134.22C795.12,-123.78 779.17,-110.45 767.01,-100.3"/>
<polygon fill="#63b8ff" stroke="#63b8ff" points="805.3,-136.85 815.22,-140.57 809.79,-131.48 805.3,-136.85"/>
</a>
</g>
</g>
<!-- Node18&#45;&gt;Node4 -->
<g id="edge22_Node000018_Node000004" class="edge">
<title>Node18&#45;&gt;Node4</title>
<g id="a_edge22_Node000018_Node000004"><a xlink:title=" ">
<path fill="none" stroke="#63b8ff" d="M829.19,-205.08C808.23,-195.77 781.08,-182.59 758.7,-168 740.21,-155.94 740.83,-145.06 720.7,-136 671.63,-113.91 524.91,-98.01 438.77,-90.29"/>
<polygon fill="#63b8ff" stroke="#63b8ff" points="827.57,-208.19 838.13,-208.97 830.36,-201.77 827.57,-208.19"/>
</a>
</g>
</g>
<!-- Node19 -->
<g id="Node000019" class="node">
<title>Node19</title>
<g id="a_Node000019"><a xlink:href="_parent_dialog_8cpp.html" target="_top" xlink:title=" ">
<polygon fill="white" stroke="#666666" points="1039.95,-162 905.45,-162 905.45,-142 1039.95,-142 1039.95,-162"/>
<text text-anchor="middle" x="972.7" y="-148.5" font-family="Helvetica,sans-Serif" font-size="10.00">TullipApp/ParentDialog.cpp</text>
</a>
</g>
</g>
<!-- Node18&#45;&gt;Node19 -->
<g id="edge23_Node000018_Node000019" class="edge">
<title>Node18&#45;&gt;Node19</title>
<g id="a_edge23_Node000018_Node000019"><a xlink:title=" ">
<path fill="none" stroke="#63b8ff" d="M888.13,-203.74C909.38,-190.99 939.01,-173.21 956.97,-162.44"/>
<polygon fill="#63b8ff" stroke="#63b8ff" points="886.53,-200.62 879.76,-208.77 890.13,-206.62 886.53,-200.62"/>
</a>
</g>
</g>
<!-- Node20 -->
<g id="Node000020" class="node">
<title>Node20</title>
<g id="a_Node000020"><a xlink:href="moc___parent_dialog_8cpp.html" target="_top" xlink:title=" ">
<polygon fill="white" stroke="#666666" points="1209.2,-168 1058.2,-168 1058.2,-136 1209.2,-136 1209.2,-168"/>
<text text-anchor="start" x="1066.2" y="-154.5" font-family="Helvetica,sans-Serif" font-size="10.00">TullipApp/x64/Debug</text>
<text text-anchor="middle" x="1133.7" y="-142.5" font-family="Helvetica,sans-Serif" font-size="10.00">/qt/moc/moc_ParentDialog.cpp</text>
</a>
</g>
</g>
<!-- Node18&#45;&gt;Node20 -->
<g id="edge24_Node000018_Node000020" class="edge">
<title>Node18&#45;&gt;Node20</title>
<g id="a_edge24_Node000018_Node000020"><a xlink:title=" ">
<path fill="none" stroke="#63b8ff" d="M912.61,-206.84C956.96,-196.04 1022.02,-180.2 1070.09,-168.49"/>
<polygon fill="#63b8ff" stroke="#63b8ff" points="911.89,-203.42 903,-209.19 913.54,-210.22 911.89,-203.42"/>
</a>
</g>
</g>
</g>
</svg>

<g id="navigator" transform="translate(0 0)" fill="#404254">
  <rect fill="#f2f5e9" fill-opacity="0.5" stroke="#606060" stroke-width=".5" x="0" y="0" width="60" height="60"/>
  <use id="zoomplus" xlink:href="#zoomPlus" x="17" y="9" onmousedown="handleZoom(evt,'in')"/>
  <use id="zoomminus" xlink:href="#zoomMin" x="42" y="9" onmousedown="handleZoom(evt,'out')"/>
  <use id="reset" xlink:href="#resetDef" x="30" y="36" onmousedown="handleReset()"/>
   <use id="arrowup" xlink:href="#arrowUp" x="0" y="0" onmousedown="handlePan(0,-1)"/>
  <use id="arrowright" xlink:href="#arrowRight" x="0" y="0" onmousedown="handlePan(1,0)"/>
  <use id="arrowdown" xlink:href="#arrowDown" x="0" y="0" onmousedown="handlePan(0,1)"/>
  <use id="arrowleft" xlink:href="#arrowLeft" x="0" y="0" onmousedown="handlePan(-1,0)"/>
</g>
<svg viewBox="0 0 15 15" width="100%" height="30px" preserveAspectRatio="xMaxYMin meet">
 <g id="arrow_out" transform="scale(0.3 0.3)">
  <a xlink:href="_data_base_8h__dep__incl_org.svg" target="_base">
   <rect id="button" ry="5" rx="5" y="6" x="6" height="38" width="38"
        fill="#f2f5e9" fill-opacity="0.5" stroke="#606060" stroke-width="1.0"/>
   <path id="arrow"
     d="M 11.500037,31.436501 C 11.940474,20.09759 22.043105,11.32322 32.158766,21.979434 L 37.068811,17.246167 C 37.068811,17.246167 37.088388,32 37.088388,32 L 22.160133,31.978069 C 22.160133,31.978069 26.997745,27.140456 26.997745,27.140456 C 18.528582,18.264221 13.291696,25.230495 11.500037,31.436501 z"
     style="fill:#404040;"/>
  </a>
 </g>
</svg>

<style type='text/css'>
<![CDATA[
[data-mouse-over-selected='false'] { opacity: 0.7; }
[data-mouse-over-selected='true']  { opacity: 1.0; }
]]>
</style>
<script type="application/ecmascript"><![CDATA[
document.addEventListener('DOMContentLoaded', (event) => {
  highlightEdges();
  highlightAdjacentNodes();
});
]]></script>
</svg>
