<?xml version="1.0" encoding="UTF-8" standalone="no"?>
<!DOCTYPE svg PUBLIC "-//W3C//DTD SVG 1.1//EN"
 "http://www.w3.org/Graphics/SVG/1.1/DTD/svg11.dtd">
<!-- Generated by graphviz version 12.2.1 (20241206.2353)
 -->
<!-- Title: weekday_to_string Pages: 1 -->
<svg width="273pt" height="154pt"
 viewBox="0.00 0.00 273.25 154.00" xmlns="http://www.w3.org/2000/svg" xmlns:xlink="http://www.w3.org/1999/xlink">

<svg id="main" version="1.1" xmlns="http://www.w3.org/2000/svg" xmlns:xlink="http://www.w3.org/1999/xlink" xml:space="preserve">

<style type="text/css"><![CDATA[
.node, .edge {opacity: 0.7;}
.node.selected, .edge.selected {opacity: 1;}
.edge:hover path { stroke: red; }
.edge:hover polygon { stroke: red; fill: red; }
]]></style>
<script type="application/ecmascript" xlink:href="svg.min.js"/>
<svg id="graph" class="graph">
<g id="graph0" class="graph" transform="scale(1 1) rotate(0) translate(4 150)">
<title>weekday_to_string</title>
<!-- Node1 -->
<g id="Node000001" class="node">
<title>Node1</title>
<g id="a_Node000001"><a xlink:title="Converts a WeekDays enum value to its string representation.">
<polygon fill="#999999" stroke="#666666" points="265.25,-77 167.5,-77 167.5,-57 265.25,-57 265.25,-77"/>
<text text-anchor="middle" x="216.38" y="-63.5" font-family="Helvetica,sans-Serif" font-size="10.00">weekday_to_string</text>
</a>
</g>
</g>
<!-- Node2 -->
<g id="Node000002" class="node">
<title>Node2</title>
<g id="a_Node000002"><a xlink:href="class_database.html#a3ab08425557dc0b07c6452f30c5a2710" target="_top" xlink:title="Filters lessons by day.">
<polygon fill="white" stroke="#666666" points="124,-146 7.5,-146 7.5,-114 124,-114 124,-146"/>
<text text-anchor="start" x="15.5" y="-132.5" font-family="Helvetica,sans-Serif" font-size="10.00">Database::filter_lesson</text>
<text text-anchor="middle" x="65.75" y="-120.5" font-family="Helvetica,sans-Serif" font-size="10.00">_by_day</text>
</a>
</g>
</g>
<!-- Node1&#45;&gt;Node2 -->
<g id="edge1_Node000001_Node000002" class="edge">
<title>Node1&#45;&gt;Node2</title>
<g id="a_edge1_Node000001_Node000002"><a xlink:title=" ">
<path fill="none" stroke="#63b8ff" d="M183.3,-82.05C167.75,-89.21 148.75,-97.77 131.5,-105 124.72,-107.84 117.5,-110.75 110.42,-113.53"/>
<polygon fill="#63b8ff" stroke="#63b8ff" points="184.48,-85.36 192.08,-77.98 181.53,-79.01 184.48,-85.36"/>
</a>
</g>
</g>
<!-- Node3 -->
<g id="Node000003" class="node">
<title>Node3</title>
<g id="a_Node000003"><a xlink:href="class_lesson_entry.html#aea1e4e5c021933e1a3063691fd1aef09" target="_top" xlink:title="Constructs a LessonEntry widget.">
<polygon fill="white" stroke="#666666" points="131.5,-96 0,-96 0,-76 131.5,-76 131.5,-96"/>
<text text-anchor="middle" x="65.75" y="-82.5" font-family="Helvetica,sans-Serif" font-size="10.00">LessonEntry::LessonEntry</text>
</a>
</g>
</g>
<!-- Node1&#45;&gt;Node3 -->
<g id="edge2_Node000001_Node000003" class="edge">
<title>Node1&#45;&gt;Node3</title>
<g id="a_edge2_Node000001_Node000003"><a xlink:title=" ">
<path fill="none" stroke="#63b8ff" d="M155.77,-74.62C147.88,-75.63 139.76,-76.67 131.79,-77.69"/>
<polygon fill="#63b8ff" stroke="#63b8ff" points="156.14,-78.1 165.62,-73.36 155.26,-71.16 156.14,-78.1"/>
</a>
</g>
</g>
<!-- Node4 -->
<g id="Node000004" class="node">
<title>Node4</title>
<g id="a_Node000004"><a xlink:href="_date_time_8cpp.html#a4bb6582c1a4e97a3bb992150fd18d2b4" target="_top" xlink:title="Outputs a WeekDays enum value to a stream.">
<polygon fill="white" stroke="#666666" points="97.38,-58 34.12,-58 34.12,-38 97.38,-38 97.38,-58"/>
<text text-anchor="middle" x="65.75" y="-44.5" font-family="Helvetica,sans-Serif" font-size="10.00">operator&lt;&lt;</text>
</a>
</g>
</g>
<!-- Node1&#45;&gt;Node4 -->
<g id="edge3_Node000001_Node000004" class="edge">
<title>Node1&#45;&gt;Node4</title>
<g id="a_edge3_Node000001_Node000004"><a xlink:title=" ">
<path fill="none" stroke="#63b8ff" d="M155.88,-59.39C135.86,-56.84 114.36,-54.09 97.48,-51.93"/>
<polygon fill="#63b8ff" stroke="#63b8ff" points="155.26,-62.84 165.62,-60.64 156.14,-55.9 155.26,-62.84"/>
</a>
</g>
</g>
<!-- Node5 -->
<g id="Node000005" class="node">
<title>Node5</title>
<g id="a_Node000005"><a xlink:href="class_schedule.html#a2d68fb0c1961d13c9560cc0ac52e649a" target="_top" xlink:title="Outputs the Schedule to a stream.">
<polygon fill="white" stroke="#666666" points="120.62,-20 10.88,-20 10.88,0 120.62,0 120.62,-20"/>
<text text-anchor="middle" x="65.75" y="-6.5" font-family="Helvetica,sans-Serif" font-size="10.00">Schedule::operator&lt;&lt;</text>
</a>
</g>
</g>
<!-- Node1&#45;&gt;Node5 -->
<g id="edge4_Node000001_Node000005" class="edge">
<title>Node1&#45;&gt;Node5</title>
<g id="a_edge4_Node000001_Node000005"><a xlink:title=" ">
<path fill="none" stroke="#63b8ff" d="M184.52,-51.77C168.86,-44.36 149.4,-35.64 131.5,-29 123.26,-25.94 114.29,-23.05 105.73,-20.48"/>
<polygon fill="#63b8ff" stroke="#63b8ff" points="182.79,-54.82 193.32,-55.99 185.82,-48.51 182.79,-54.82"/>
</a>
</g>
</g>
</g>
</svg>
</svg>

<style type='text/css'>
<![CDATA[
[data-mouse-over-selected='false'] { opacity: 0.7; }
[data-mouse-over-selected='true']  { opacity: 1.0; }
]]>
</style>
<script type="application/ecmascript"><![CDATA[
document.addEventListener('DOMContentLoaded', (event) => {
  highlightEdges();
  highlightAdjacentNodes();
});
]]></script>
</svg>
