<?xml version="1.0" encoding="UTF-8" standalone="no"?>
<!DOCTYPE svg PUBLIC "-//W3C//DTD SVG 1.1//EN"
 "http://www.w3.org/Graphics/SVG/1.1/DTD/svg11.dtd">
<!-- Generated by graphviz version 12.2.1 (20241206.2353)
 -->
<!-- Title: TullipApp/DateTime.h Pages: 1 -->
<!--zoomable 412 -->

<svg id="main" version="1.1" xmlns="http://www.w3.org/2000/svg" xmlns:xlink="http://www.w3.org/1999/xlink" xml:space="preserve" onload="init(evt)">

<style type="text/css"><![CDATA[
.node, .edge {opacity: 0.7;}
.node.selected, .edge.selected {opacity: 1;}
.edge:hover path { stroke: red; }
.edge:hover polygon { stroke: red; fill: red; }
]]></style>

<defs>
  <circle id="rim" cx="0" cy="0" r="7"/>
  <circle id="rim2" cx="0" cy="0" r="3.5"/>
  <g id="zoomPlus">
    <use xlink:href="#rim" fill="#404040"><set attributeName="fill" to="#808080" begin="zoomplus.mouseover" end="zoomplus.mouseout"/></use>
    <path d="M-4,0h8M0,-4v8" fill="none" stroke="white" stroke-width="1.5" pointer-events="none"/>
  </g>
  <g id="zoomMin">
    <use xlink:href="#rim" fill="#404040"><set attributeName="fill" to="#808080" begin="zoomminus.mouseover" end="zoomminus.mouseout"/></use>
    <path d="M-4,0h8" fill="none" stroke="white" stroke-width="1.5" pointer-events="none"/>
  </g>
  <g id="arrowUp" transform="translate(30 24)">
    <use xlink:href="#rim"/>
    <path pointer-events="none" fill="none" stroke="white" stroke-width="1.5" d="M0,-3.0v7 M-2.5,-0.5L0,-3.0L2.5,-0.5"/>
  </g>
  <g id="arrowRight" transform="rotate(90) translate(36 -43)">
    <use xlink:href="#rim"/>
    <path pointer-events="none" fill="none" stroke="white" stroke-width="1.5" d="M0,-3.0v7 M-2.5,-0.5L0,-3.0L2.5,-0.5"/>
  </g>
  <g id="arrowDown" transform="rotate(180) translate(-30 -48)">
    <use xlink:href="#rim"/>
    <path pointer-events="none" fill="none" stroke="white" stroke-width="1.5" d="M0,-3.0v7 M-2.5,-0.5L0,-3.0L2.5,-0.5"/>
  </g>
  <g id="arrowLeft" transform="rotate(270) translate(-36 17)">
    <use xlink:href="#rim"/>
    <path pointer-events="none" fill="none" stroke="white" stroke-width="1.5" d="M0,-3.0v7 M-2.5,-0.5L0,-3.0L2.5,-0.5"/>
  </g>
  <g id="resetDef">
    <use xlink:href="#rim2" fill="#404040"><set attributeName="fill" to="#808080" begin="reset.mouseover" end="reset.mouseout"/></use>
  </g>
</defs>
<script type="application/ecmascript">
var viewWidth = 2521;
var viewHeight = 412;
var sectionId = 'dynsection-1';
</script>
<script type="application/ecmascript" xlink:href="svg.min.js"/>
<svg id="graph" class="graph">
<g id="viewport">
<title>TullipApp/DateTime.h</title>
<!-- Node1 -->
<g id="Node000001" class="node">
<title>Node1</title>
<g id="a_Node000001"><a xlink:title="Defines classes and utilities for working with dates, times, and combined date&#45;time values.">
<polygon fill="#999999" stroke="#666666" points="446.25,-404 335.75,-404 335.75,-384 446.25,-384 446.25,-404"/>
<text text-anchor="middle" x="391" y="-390.5" font-family="Helvetica,sans-Serif" font-size="10.00">TullipApp/DateTime.h</text>
</a>
</g>
</g>
<!-- Node2 -->
<g id="Node000002" class="node">
<title>Node2</title>
<g id="a_Node000002"><a xlink:href="_data_base_8h.html" target="_top" xlink:title="Defines the Database class for managing lessons, parents, children, and employees.">
<polygon fill="white" stroke="#666666" points="531.62,-230 420.38,-230 420.38,-210 531.62,-210 531.62,-230"/>
<text text-anchor="middle" x="476" y="-216.5" font-family="Helvetica,sans-Serif" font-size="10.00">TullipApp/DataBase.h</text>
</a>
</g>
</g>
<!-- Node1&#45;&gt;Node2 -->
<g id="edge1_Node000001_Node000002" class="edge">
<title>Node1&#45;&gt;Node2</title>
<g id="a_edge1_Node000001_Node000002"><a xlink:title=" ">
<path fill="none" stroke="#63b8ff" d="M425.27,-378.42C438.22,-371.17 451.8,-361.11 460,-348 483.81,-309.95 480.01,-252.87 477.34,-230.49"/>
<polygon fill="#63b8ff" stroke="#63b8ff" points="423.77,-375.26 416.48,-382.94 426.97,-381.48 423.77,-375.26"/>
</a>
</g>
</g>
<!-- Node7 -->
<g id="Node000007" class="node">
<title>Node7</title>
<g id="a_Node000007"><a xlink:href="_main_8cpp.html" target="_top" xlink:title=" ">
<polygon fill="white" stroke="#666666" points="637.62,-26 538.38,-26 538.38,-6 637.62,-6 637.62,-26"/>
<text text-anchor="middle" x="588" y="-12.5" font-family="Helvetica,sans-Serif" font-size="10.00">TullipApp/Main.cpp</text>
</a>
</g>
</g>
<!-- Node1&#45;&gt;Node7 -->
<g id="edge27_Node000001_Node000007" class="edge">
<title>Node1&#45;&gt;Node7</title>
<g id="a_edge27_Node000001_Node000007"><a xlink:title=" ">
<path fill="none" stroke="#63b8ff" d="M324.26,-388C212.59,-377.77 0,-349.56 0,-283 0,-283 0,-283 0,-151 0,-41 396.14,-21.3 538.12,-17.77"/>
<polygon fill="#63b8ff" stroke="#63b8ff" points="323.62,-391.45 333.89,-388.85 324.24,-384.48 323.62,-391.45"/>
</a>
</g>
</g>
<!-- Node16 -->
<g id="Node000016" class="node">
<title>Node16</title>
<g id="a_Node000016"><a xlink:href="_date_time_8cpp.html" target="_top" xlink:title=" ">
<polygon fill="white" stroke="#666666" points="451.5,-348 330.5,-348 330.5,-328 451.5,-328 451.5,-348"/>
<text text-anchor="middle" x="391" y="-334.5" font-family="Helvetica,sans-Serif" font-size="10.00">TullipApp/DateTime.cpp</text>
</a>
</g>
</g>
<!-- Node1&#45;&gt;Node16 -->
<g id="edge18_Node000001_Node000016" class="edge">
<title>Node1&#45;&gt;Node16</title>
<g id="a_edge18_Node000001_Node000016"><a xlink:title=" ">
<path fill="none" stroke="#63b8ff" d="M391,-372.13C391,-363.9 391,-354.85 391,-348.3"/>
<polygon fill="#63b8ff" stroke="#63b8ff" points="387.5,-372.08 391,-382.08 394.5,-372.08 387.5,-372.08"/>
</a>
</g>
</g>
<!-- Node17 -->
<g id="Node000017" class="node">
<title>Node17</title>
<g id="a_Node000017"><a xlink:href="_lesson_8h.html" target="_top" xlink:title="Defines the Lesson class, which represents a lesson with its associated details.">
<polygon fill="white" stroke="#666666" points="359.62,-292 260.38,-292 260.38,-272 359.62,-272 359.62,-292"/>
<text text-anchor="middle" x="310" y="-278.5" font-family="Helvetica,sans-Serif" font-size="10.00">TullipApp/Lesson.h</text>
</a>
</g>
</g>
<!-- Node1&#45;&gt;Node17 -->
<g id="edge19_Node000001_Node000017" class="edge">
<title>Node1&#45;&gt;Node17</title>
<g id="a_edge19_Node000001_Node000017"><a xlink:title=" ">
<path fill="none" stroke="#63b8ff" d="M356.52,-378.35C343.42,-371.08 329.61,-361.03 321,-348 309.65,-330.81 308.82,-305.66 309.33,-292.24"/>
<polygon fill="#63b8ff" stroke="#63b8ff" points="354.91,-381.45 365.41,-382.89 358.1,-375.22 354.91,-381.45"/>
</a>
</g>
</g>
<!-- Node22 -->
<g id="Node000022" class="node">
<title>Node22</title>
<g id="a_Node000022"><a xlink:href="_person_8h.html" target="_top" xlink:title="Defines the Person class and its derived classes: Child, Parent, and Employee.">
<polygon fill="white" stroke="#666666" points="1233.25,-348 1134.75,-348 1134.75,-328 1233.25,-328 1233.25,-348"/>
<text text-anchor="middle" x="1184" y="-334.5" font-family="Helvetica,sans-Serif" font-size="10.00">TullipApp/Person.h</text>
</a>
</g>
</g>
<!-- Node1&#45;&gt;Node22 -->
<g id="edge28_Node000001_Node000022" class="edge">
<title>Node1&#45;&gt;Node22</title>
<g id="a_edge28_Node000001_Node000022"><a xlink:title=" ">
<path fill="none" stroke="#63b8ff" d="M457.69,-388.46C613.27,-377.86 997.39,-351.71 1134.43,-342.38"/>
<polygon fill="#63b8ff" stroke="#63b8ff" points="457.7,-384.95 447.96,-389.12 458.17,-391.93 457.7,-384.95"/>
</a>
</g>
</g>
<!-- Node3 -->
<g id="Node000003" class="node">
<title>Node3</title>
<g id="a_Node000003"><a xlink:href="_child_dialog_8h.html" target="_top" xlink:title="Defines the ChildDialog class for managing child&#45;related information.">
<polygon fill="white" stroke="#666666" points="2292,-162 2174,-162 2174,-142 2292,-142 2292,-162"/>
<text text-anchor="middle" x="2233" y="-148.5" font-family="Helvetica,sans-Serif" font-size="10.00">TullipApp/ChildDialog.h</text>
</a>
</g>
</g>
<!-- Node2&#45;&gt;Node3 -->
<g id="edge2_Node000002_Node000003" class="edge">
<title>Node2&#45;&gt;Node3</title>
<g id="a_edge2_Node000002_Node000003"><a xlink:title=" ">
<path fill="none" stroke="#63b8ff" d="M543.23,-208.01C555.12,-206.41 567.4,-204.98 579,-204 1264.76,-146.31 1441.12,-224.31 2127,-168 2142.56,-166.72 2159.32,-164.67 2174.82,-162.48"/>
<polygon fill="#63b8ff" stroke="#63b8ff" points="542.9,-204.52 533.49,-209.38 543.88,-211.45 542.9,-204.52"/>
</a>
</g>
</g>
<!-- Node5 -->
<g id="Node000005" class="node">
<title>Node5</title>
<g id="a_Node000005"><a xlink:href="_data_base_g_u_i_8h.html" target="_top" xlink:title="Defines the DataBaseGUI class for managing the graphical user interface of the database.">
<polygon fill="white" stroke="#666666" points="1346.62,-94 1217.38,-94 1217.38,-74 1346.62,-74 1346.62,-94"/>
<text text-anchor="middle" x="1282" y="-80.5" font-family="Helvetica,sans-Serif" font-size="10.00">TullipApp/DataBaseGUI.h</text>
</a>
</g>
</g>
<!-- Node2&#45;&gt;Node5 -->
<g id="edge10_Node000002_Node000005" class="edge">
<title>Node2&#45;&gt;Node5</title>
<g id="a_edge10_Node000002_Node000005"><a xlink:title=" ">
<path fill="none" stroke="#63b8ff" d="M543.33,-208.96C555.21,-207.26 567.46,-205.54 579,-204 710.36,-186.45 744.19,-189.26 875,-168 1009.89,-146.08 1168.09,-111.13 1241.18,-94.45"/>
<polygon fill="#63b8ff" stroke="#63b8ff" points="542.99,-205.47 533.59,-210.37 543.99,-212.4 542.99,-205.47"/>
</a>
</g>
</g>
<!-- Node10 -->
<g id="Node000010" class="node">
<title>Node10</title>
<g id="a_Node000010"><a xlink:href="_data_base_8cpp.html" target="_top" xlink:title=" ">
<polygon fill="white" stroke="#666666" points="577.88,-94 456.12,-94 456.12,-74 577.88,-74 577.88,-94"/>
<text text-anchor="middle" x="517" y="-80.5" font-family="Helvetica,sans-Serif" font-size="10.00">TullipApp/DataBase.cpp</text>
</a>
</g>
</g>
<!-- Node2&#45;&gt;Node10 -->
<g id="edge9_Node000002_Node000010" class="edge">
<title>Node2&#45;&gt;Node10</title>
<g id="a_edge9_Node000002_Node000010"><a xlink:title=" ">
<path fill="none" stroke="#63b8ff" d="M485.36,-199.61C489.63,-190.22 494.5,-178.69 498,-168 506.55,-141.87 512.7,-109.89 515.43,-94.36"/>
<polygon fill="#63b8ff" stroke="#63b8ff" points="482.3,-197.89 481.22,-208.43 488.63,-200.86 482.3,-197.89"/>
</a>
</g>
</g>
<!-- Node11 -->
<g id="Node000011" class="node">
<title>Node11</title>
<g id="a_Node000011"><a xlink:href="_data_base___parser___functions_8h.html" target="_top" xlink:title=" ">
<polygon fill="white" stroke="#666666" points="489,-168 383,-168 383,-136 489,-136 489,-168"/>
<text text-anchor="start" x="391" y="-154.5" font-family="Helvetica,sans-Serif" font-size="10.00">TullipApp/DataBase</text>
<text text-anchor="middle" x="436" y="-142.5" font-family="Helvetica,sans-Serif" font-size="10.00">_Parser_Functions.h</text>
</a>
</g>
</g>
<!-- Node2&#45;&gt;Node11 -->
<g id="edge11_Node000002_Node000011" class="edge">
<title>Node2&#45;&gt;Node11</title>
<g id="a_edge11_Node000002_Node000011"><a xlink:title=" ">
<path fill="none" stroke="#63b8ff" d="M464.31,-199.71C458.25,-189.71 450.94,-177.66 445.27,-168.3"/>
<polygon fill="#63b8ff" stroke="#63b8ff" points="461.31,-201.51 469.48,-208.25 467.29,-197.88 461.31,-201.51"/>
</a>
</g>
</g>
<!-- Node13 -->
<g id="Node000013" class="node">
<title>Node13</title>
<g id="a_Node000013"><a xlink:href="_parent_dialog_8h.html" target="_top" xlink:title="Defines the ParentDialog class for managing parent&#45;related information.">
<polygon fill="white" stroke="#666666" points="866,-162 742,-162 742,-142 866,-142 866,-162"/>
<text text-anchor="middle" x="804" y="-148.5" font-family="Helvetica,sans-Serif" font-size="10.00">TullipApp/ParentDialog.h</text>
</a>
</g>
</g>
<!-- Node2&#45;&gt;Node13 -->
<g id="edge14_Node000002_Node000013" class="edge">
<title>Node2&#45;&gt;Node13</title>
<g id="a_edge14_Node000002_Node000013"><a xlink:title=" ">
<path fill="none" stroke="#63b8ff" d="M530.83,-207.16C535.96,-206.08 541.07,-205.01 546,-204 618.67,-189.03 703.04,-172.52 754.97,-162.45"/>
<polygon fill="#63b8ff" stroke="#63b8ff" points="530.2,-203.72 521.15,-209.22 531.66,-210.57 530.2,-203.72"/>
</a>
</g>
</g>
<!-- Node4 -->
<g id="Node000004" class="node">
<title>Node4</title>
<g id="a_Node000004"><a xlink:href="_child_dialog_8cpp.html" target="_top" xlink:title=" ">
<polygon fill="white" stroke="#666666" points="2219.25,-94 2090.75,-94 2090.75,-74 2219.25,-74 2219.25,-94"/>
<text text-anchor="middle" x="2155" y="-80.5" font-family="Helvetica,sans-Serif" font-size="10.00">TullipApp/ChildDialog.cpp</text>
</a>
</g>
</g>
<!-- Node3&#45;&gt;Node4 -->
<g id="edge3_Node000003_Node000004" class="edge">
<title>Node3&#45;&gt;Node4</title>
<g id="a_edge3_Node000003_Node000004"><a xlink:title=" ">
<path fill="none" stroke="#63b8ff" d="M2213.3,-134.33C2198.38,-121.71 2178.43,-104.82 2166.15,-94.44"/>
<polygon fill="#63b8ff" stroke="#63b8ff" points="2210.77,-136.78 2220.67,-140.57 2215.3,-131.43 2210.77,-136.78"/>
</a>
</g>
</g>
<!-- Node3&#45;&gt;Node5 -->
<g id="edge4_Node000003_Node000005" class="edge">
<title>Node3&#45;&gt;Node5</title>
<g id="a_edge4_Node000003_Node000005"><a xlink:title=" ">
<path fill="none" stroke="#63b8ff" d="M2180.99,-139.36C2173.96,-138.06 2166.82,-136.89 2160,-136 1857.78,-96.38 1493.01,-87.54 1347.01,-85.57"/>
<polygon fill="#63b8ff" stroke="#63b8ff" points="2180.28,-142.78 2190.76,-141.25 2181.61,-135.91 2180.28,-142.78"/>
</a>
</g>
</g>
<!-- Node9 -->
<g id="Node000009" class="node">
<title>Node9</title>
<g id="a_Node000009"><a xlink:href="moc___child_dialog_8cpp.html" target="_top" xlink:title=" ">
<polygon fill="white" stroke="#666666" points="2382.5,-100 2237.5,-100 2237.5,-68 2382.5,-68 2382.5,-100"/>
<text text-anchor="start" x="2245.5" y="-86.5" font-family="Helvetica,sans-Serif" font-size="10.00">TullipApp/x64/Debug</text>
<text text-anchor="middle" x="2310" y="-74.5" font-family="Helvetica,sans-Serif" font-size="10.00">/qt/moc/moc_ChildDialog.cpp</text>
</a>
</g>
</g>
<!-- Node3&#45;&gt;Node9 -->
<g id="edge8_Node000003_Node000009" class="edge">
<title>Node3&#45;&gt;Node9</title>
<g id="a_edge8_Node000003_Node000009"><a xlink:title=" ">
<path fill="none" stroke="#63b8ff" d="M2252.58,-134.22C2264.76,-123.78 2280.3,-110.45 2292.15,-100.3"/>
<polygon fill="#63b8ff" stroke="#63b8ff" points="2250.5,-131.39 2245.18,-140.56 2255.05,-136.71 2250.5,-131.39"/>
</a>
</g>
</g>
<!-- Node6 -->
<g id="Node000006" class="node">
<title>Node6</title>
<g id="a_Node000006"><a xlink:href="_data_base_g_u_i_8cpp.html" target="_top" xlink:title=" ">
<polygon fill="white" stroke="#666666" points="1434.88,-26 1295.12,-26 1295.12,-6 1434.88,-6 1434.88,-26"/>
<text text-anchor="middle" x="1365" y="-12.5" font-family="Helvetica,sans-Serif" font-size="10.00">TullipApp/DataBaseGUI.cpp</text>
</a>
</g>
</g>
<!-- Node5&#45;&gt;Node6 -->
<g id="edge5_Node000005_Node000006" class="edge">
<title>Node5&#45;&gt;Node6</title>
<g id="a_edge5_Node000005_Node000006"><a xlink:title=" ">
<path fill="none" stroke="#63b8ff" d="M1302.51,-66.69C1318.44,-54.03 1339.95,-36.92 1353.13,-26.44"/>
<polygon fill="#63b8ff" stroke="#63b8ff" points="1300.73,-63.64 1295.08,-72.6 1305.08,-69.12 1300.73,-63.64"/>
</a>
</g>
</g>
<!-- Node5&#45;&gt;Node7 -->
<g id="edge6_Node000005_Node000007" class="edge">
<title>Node5&#45;&gt;Node7</title>
<g id="a_edge6_Node000005_Node000007"><a xlink:title=" ">
<path fill="none" stroke="#63b8ff" d="M1205.76,-75.75C1062.72,-62.15 757.71,-33.14 637.85,-21.74"/>
<polygon fill="#63b8ff" stroke="#63b8ff" points="1205.23,-79.21 1215.52,-76.68 1205.89,-72.25 1205.23,-79.21"/>
</a>
</g>
</g>
<!-- Node8 -->
<g id="Node000008" class="node">
<title>Node8</title>
<g id="a_Node000008"><a xlink:href="moc___data_base_g_u_i_8cpp.html" target="_top" xlink:title=" ">
<polygon fill="white" stroke="#666666" points="1277.12,-32 1120.88,-32 1120.88,0 1277.12,0 1277.12,-32"/>
<text text-anchor="start" x="1128.88" y="-18.5" font-family="Helvetica,sans-Serif" font-size="10.00">TullipApp/x64/Debug</text>
<text text-anchor="middle" x="1199" y="-6.5" font-family="Helvetica,sans-Serif" font-size="10.00">/qt/moc/moc_DataBaseGUI.cpp</text>
</a>
</g>
</g>
<!-- Node5&#45;&gt;Node8 -->
<g id="edge7_Node000005_Node000008" class="edge">
<title>Node5&#45;&gt;Node8</title>
<g id="a_edge7_Node000005_Node000008"><a xlink:title=" ">
<path fill="none" stroke="#63b8ff" d="M1261.28,-66.53C1248.1,-56.04 1231.13,-42.55 1218.24,-32.3"/>
<polygon fill="#63b8ff" stroke="#63b8ff" points="1258.92,-69.12 1268.92,-72.6 1263.27,-63.64 1258.92,-69.12"/>
</a>
</g>
</g>
<!-- Node11&#45;&gt;Node10 -->
<g id="edge12_Node000011_Node000010" class="edge">
<title>Node11&#45;&gt;Node10</title>
<g id="a_edge12_Node000011_Node000010"><a xlink:title=" ">
<path fill="none" stroke="#63b8ff" d="M463.36,-128.71C477.76,-116.98 494.64,-103.22 505.57,-94.32"/>
<polygon fill="#63b8ff" stroke="#63b8ff" points="461.5,-125.71 455.96,-134.74 465.92,-131.13 461.5,-125.71"/>
</a>
</g>
</g>
<!-- Node12 -->
<g id="Node000012" class="node">
<title>Node12</title>
<g id="a_Node000012"><a xlink:href="_data_base___parser___functions_8cpp.html" target="_top" xlink:title=" ">
<polygon fill="white" stroke="#666666" points="438.25,-100 321.75,-100 321.75,-68 438.25,-68 438.25,-100"/>
<text text-anchor="start" x="329.75" y="-86.5" font-family="Helvetica,sans-Serif" font-size="10.00">TullipApp/DataBase</text>
<text text-anchor="middle" x="380" y="-74.5" font-family="Helvetica,sans-Serif" font-size="10.00">_Parser_Functions.cpp</text>
</a>
</g>
</g>
<!-- Node11&#45;&gt;Node12 -->
<g id="edge13_Node000011_Node000012" class="edge">
<title>Node11&#45;&gt;Node12</title>
<g id="a_edge13_Node000011_Node000012"><a xlink:title=" ">
<path fill="none" stroke="#63b8ff" d="M415.76,-127.15C408.14,-118.17 399.69,-108.21 392.92,-100.22"/>
<polygon fill="#63b8ff" stroke="#63b8ff" points="412.89,-129.18 422.03,-134.54 418.23,-124.65 412.89,-129.18"/>
</a>
</g>
</g>
<!-- Node13&#45;&gt;Node5 -->
<g id="edge15_Node000013_Node000005" class="edge">
<title>Node13&#45;&gt;Node5</title>
<g id="a_edge15_Node000013_Node000005"><a xlink:title=" ">
<path fill="none" stroke="#63b8ff" d="M877.76,-140.82C970.65,-127.99 1128.76,-106.16 1217.2,-93.95"/>
<polygon fill="#63b8ff" stroke="#63b8ff" points="877.42,-137.33 867.99,-142.16 878.37,-144.26 877.42,-137.33"/>
</a>
</g>
</g>
<!-- Node14 -->
<g id="Node000014" class="node">
<title>Node14</title>
<g id="a_Node000014"><a xlink:href="_parent_dialog_8cpp.html" target="_top" xlink:title=" ">
<polygon fill="white" stroke="#666666" points="801.25,-94 666.75,-94 666.75,-74 801.25,-74 801.25,-94"/>
<text text-anchor="middle" x="734" y="-80.5" font-family="Helvetica,sans-Serif" font-size="10.00">TullipApp/ParentDialog.cpp</text>
</a>
</g>
</g>
<!-- Node13&#45;&gt;Node14 -->
<g id="edge16_Node000013_Node000014" class="edge">
<title>Node13&#45;&gt;Node14</title>
<g id="a_edge16_Node000013_Node000014"><a xlink:title=" ">
<path fill="none" stroke="#63b8ff" d="M785.94,-133.97C772.6,-121.39 754.92,-104.72 744.01,-94.44"/>
<polygon fill="#63b8ff" stroke="#63b8ff" points="783.19,-136.19 792.87,-140.51 787.99,-131.1 783.19,-136.19"/>
</a>
</g>
</g>
<!-- Node15 -->
<g id="Node000015" class="node">
<title>Node15</title>
<g id="a_Node000015"><a xlink:href="moc___parent_dialog_8cpp.html" target="_top" xlink:title=" ">
<polygon fill="white" stroke="#666666" points="970.5,-100 819.5,-100 819.5,-68 970.5,-68 970.5,-100"/>
<text text-anchor="start" x="827.5" y="-86.5" font-family="Helvetica,sans-Serif" font-size="10.00">TullipApp/x64/Debug</text>
<text text-anchor="middle" x="895" y="-74.5" font-family="Helvetica,sans-Serif" font-size="10.00">/qt/moc/moc_ParentDialog.cpp</text>
</a>
</g>
</g>
<!-- Node13&#45;&gt;Node15 -->
<g id="edge17_Node000013_Node000015" class="edge">
<title>Node13&#45;&gt;Node15</title>
<g id="a_edge17_Node000013_Node000015"><a xlink:title=" ">
<path fill="none" stroke="#63b8ff" d="M826.29,-134.83C840.81,-124.3 859.63,-110.65 873.9,-100.3"/>
<polygon fill="#63b8ff" stroke="#63b8ff" points="824.3,-131.95 818.26,-140.66 828.41,-137.62 824.3,-131.95"/>
</a>
</g>
</g>
<!-- Node17&#45;&gt;Node2 -->
<g id="edge20_Node000017_Node000002" class="edge">
<title>Node17&#45;&gt;Node2</title>
<g id="a_edge20_Node000017_Node000002"><a xlink:title=" ">
<path fill="none" stroke="#63b8ff" d="M346.42,-267.84C377.73,-256.52 422.12,-240.47 449.97,-230.41"/>
<polygon fill="#63b8ff" stroke="#63b8ff" points="345.58,-264.42 337.36,-271.11 347.96,-271 345.58,-264.42"/>
</a>
</g>
</g>
<!-- Node17&#45;&gt;Node11 -->
<g id="edge21_Node000017_Node000011" class="edge">
<title>Node17&#45;&gt;Node11</title>
<g id="a_edge21_Node000017_Node000011"><a xlink:title=" ">
<path fill="none" stroke="#63b8ff" d="M324.95,-262.8C338.34,-246.82 358.76,-223.2 378,-204 390.62,-191.4 405.79,-178.13 417.44,-168.28"/>
<polygon fill="#63b8ff" stroke="#63b8ff" points="322.26,-260.56 318.57,-270.49 327.65,-265.03 322.26,-260.56"/>
</a>
</g>
</g>
<!-- Node18 -->
<g id="Node000018" class="node">
<title>Node18</title>
<g id="a_Node000018"><a xlink:href="_lesson_8cpp.html" target="_top" xlink:title=" ">
<polygon fill="white" stroke="#666666" points="325.88,-230 216.12,-230 216.12,-210 325.88,-210 325.88,-230"/>
<text text-anchor="middle" x="271" y="-216.5" font-family="Helvetica,sans-Serif" font-size="10.00">TullipApp/Lesson.cpp</text>
</a>
</g>
</g>
<!-- Node17&#45;&gt;Node18 -->
<g id="edge22_Node000017_Node000018" class="edge">
<title>Node17&#45;&gt;Node18</title>
<g id="a_edge22_Node000017_Node000018"><a xlink:title=" ">
<path fill="none" stroke="#63b8ff" d="M297.82,-262.26C290.86,-251.56 282.45,-238.61 276.92,-230.11"/>
<polygon fill="#63b8ff" stroke="#63b8ff" points="294.7,-263.88 303.08,-270.36 300.57,-260.06 294.7,-263.88"/>
</a>
</g>
</g>
<!-- Node19 -->
<g id="Node000019" class="node">
<title>Node19</title>
<g id="a_Node000019"><a xlink:href="_lesson_entry_8h.html" target="_top" xlink:title="Defines the LessonEntry class for managing the graphical representation of a lesson in the GUI.">
<polygon fill="white" stroke="#666666" points="197.88,-230 76.12,-230 76.12,-210 197.88,-210 197.88,-230"/>
<text text-anchor="middle" x="137" y="-216.5" font-family="Helvetica,sans-Serif" font-size="10.00">TullipApp/LessonEntry.h</text>
</a>
</g>
</g>
<!-- Node17&#45;&gt;Node19 -->
<g id="edge23_Node000017_Node000019" class="edge">
<title>Node17&#45;&gt;Node19</title>
<g id="a_edge23_Node000017_Node000019"><a xlink:title=" ">
<path fill="none" stroke="#63b8ff" d="M272.47,-267.98C239.82,-256.66 193.28,-240.52 164.13,-230.41"/>
<polygon fill="#63b8ff" stroke="#63b8ff" points="270.94,-271.16 281.54,-271.13 273.24,-264.55 270.94,-271.16"/>
</a>
</g>
</g>
<!-- Node19&#45;&gt;Node5 -->
<g id="edge24_Node000019_Node000005" class="edge">
<title>Node19&#45;&gt;Node5</title>
<g id="a_edge24_Node000019_Node000005"><a xlink:title=" ">
<path fill="none" stroke="#63b8ff" d="M188.9,-206.97C243.35,-194.14 322.86,-174.76 336,-168 355.63,-157.89 353.48,-144.15 374,-136 383.81,-132.11 1010.99,-99.12 1217.13,-88.37"/>
<polygon fill="#63b8ff" stroke="#63b8ff" points="188.1,-203.56 179.16,-209.25 189.7,-210.37 188.1,-203.56"/>
</a>
</g>
</g>
<!-- Node20 -->
<g id="Node000020" class="node">
<title>Node20</title>
<g id="a_Node000020"><a xlink:href="_lesson_entry_8cpp.html" target="_top" xlink:title=" ">
<polygon fill="white" stroke="#666666" points="160.12,-162 27.88,-162 27.88,-142 160.12,-142 160.12,-162"/>
<text text-anchor="middle" x="94" y="-148.5" font-family="Helvetica,sans-Serif" font-size="10.00">TullipApp/LessonEntry.cpp</text>
</a>
</g>
</g>
<!-- Node19&#45;&gt;Node20 -->
<g id="edge25_Node000019_Node000020" class="edge">
<title>Node19&#45;&gt;Node20</title>
<g id="a_edge25_Node000019_Node000020"><a xlink:title=" ">
<path fill="none" stroke="#63b8ff" d="M124.72,-200.15C116.68,-187.82 106.53,-172.23 100.15,-162.44"/>
<polygon fill="#63b8ff" stroke="#63b8ff" points="121.62,-201.81 130.01,-208.28 127.49,-197.99 121.62,-201.81"/>
</a>
</g>
</g>
<!-- Node21 -->
<g id="Node000021" class="node">
<title>Node21</title>
<g id="a_Node000021"><a xlink:href="moc___lesson_entry_8cpp.html" target="_top" xlink:title=" ">
<polygon fill="white" stroke="#666666" points="327.38,-168 178.62,-168 178.62,-136 327.38,-136 327.38,-168"/>
<text text-anchor="start" x="186.62" y="-154.5" font-family="Helvetica,sans-Serif" font-size="10.00">TullipApp/x64/Debug</text>
<text text-anchor="middle" x="253" y="-142.5" font-family="Helvetica,sans-Serif" font-size="10.00">/qt/moc/moc_LessonEntry.cpp</text>
</a>
</g>
</g>
<!-- Node19&#45;&gt;Node21 -->
<g id="edge26_Node000019_Node000021" class="edge">
<title>Node19&#45;&gt;Node21</title>
<g id="a_edge26_Node000019_Node000021"><a xlink:title=" ">
<path fill="none" stroke="#63b8ff" d="M163.57,-203.88C182.3,-193.23 207.3,-179 226.11,-168.3"/>
<polygon fill="#63b8ff" stroke="#63b8ff" points="161.9,-200.81 154.94,-208.8 165.36,-206.89 161.9,-200.81"/>
</a>
</g>
</g>
<!-- Node22&#45;&gt;Node2 -->
<g id="edge45_Node000022_Node000002" class="edge">
<title>Node22&#45;&gt;Node2</title>
<g id="a_edge45_Node000022_Node000002"><a xlink:title=" ">
<path fill="none" stroke="#63b8ff" d="M1123.1,-336.82C1026.07,-335.4 830.9,-327.83 670,-292 604.36,-277.38 530.8,-246.09 496.14,-230.39"/>
<polygon fill="#63b8ff" stroke="#63b8ff" points="1122.89,-340.32 1132.93,-336.95 1122.97,-333.32 1122.89,-340.32"/>
</a>
</g>
</g>
<!-- Node22&#45;&gt;Node3 -->
<g id="edge33_Node000022_Node000003" class="edge">
<title>Node22&#45;&gt;Node3</title>
<g id="a_edge33_Node000022_Node000003"><a xlink:title=" ">
<path fill="none" stroke="#63b8ff" d="M1244.89,-337.44C1494.13,-338.59 2427.01,-336.12 2506,-236 2514.81,-224.83 2515.09,-214.94 2506,-204 2479.39,-171.96 2364.38,-159.94 2292.39,-155.51"/>
<polygon fill="#63b8ff" stroke="#63b8ff" points="1245.08,-333.94 1235.06,-337.39 1245.04,-340.94 1245.08,-333.94"/>
</a>
</g>
</g>
<!-- Node22&#45;&gt;Node11 -->
<g id="edge46_Node000022_Node000011" class="edge">
<title>Node22&#45;&gt;Node11</title>
<g id="a_edge46_Node000022_Node000011"><a xlink:title=" ">
<path fill="none" stroke="#63b8ff" d="M1122.92,-336.48C1016.18,-334.64 789.14,-326.59 601,-292 514.42,-276.08 463.72,-306.5 411,-236 395.77,-215.63 411.54,-185.98 424.02,-168.19"/>
<polygon fill="#63b8ff" stroke="#63b8ff" points="1122.84,-339.98 1132.9,-336.64 1122.96,-332.98 1122.84,-339.98"/>
</a>
</g>
</g>
<!-- Node22&#45;&gt;Node13 -->
<g id="edge56_Node000022_Node000013" class="edge">
<title>Node22&#45;&gt;Node13</title>
<g id="a_edge56_Node000022_Node000013"><a xlink:title=" ">
<path fill="none" stroke="#63b8ff" d="M1146.52,-323.47C1101.25,-306.34 1023.63,-274.37 963,-236 944.34,-224.19 943.83,-215.53 925,-204 895.45,-185.91 858.33,-171.32 833.05,-162.45"/>
<polygon fill="#63b8ff" stroke="#63b8ff" points="1145.29,-326.75 1155.88,-326.98 1147.74,-320.2 1145.29,-326.75"/>
</a>
</g>
</g>
<!-- Node22&#45;&gt;Node17 -->
<g id="edge55_Node000022_Node000017" class="edge">
<title>Node22&#45;&gt;Node17</title>
<g id="a_edge55_Node000022_Node000017"><a xlink:title=" ">
<path fill="none" stroke="#63b8ff" d="M1123.12,-335.18C988.52,-330.8 655.6,-318.08 378,-292 372.19,-291.45 366.11,-290.79 360.08,-290.07"/>
<polygon fill="#63b8ff" stroke="#63b8ff" points="1122.76,-338.67 1132.86,-335.49 1122.98,-331.67 1122.76,-338.67"/>
</a>
</g>
</g>
<!-- Node23 -->
<g id="Node000023" class="node">
<title>Node23</title>
<g id="a_Node000023"><a xlink:href="_child_check_box_8h.html" target="_top" xlink:title="Defines the ChildCheckBox class for managing a checkbox widget for a child.">
<polygon fill="white" stroke="#666666" points="815,-292 679,-292 679,-272 815,-272 815,-292"/>
<text text-anchor="middle" x="747" y="-278.5" font-family="Helvetica,sans-Serif" font-size="10.00">TullipApp/ChildCheckBox.h</text>
</a>
</g>
</g>
<!-- Node22&#45;&gt;Node23 -->
<g id="edge29_Node000022_Node000023" class="edge">
<title>Node22&#45;&gt;Node23</title>
<g id="a_edge29_Node000022_Node000023"><a xlink:title=" ">
<path fill="none" stroke="#63b8ff" d="M1123.31,-329.5C1042.45,-319.51 899.79,-301.88 815.27,-291.44"/>
<polygon fill="#63b8ff" stroke="#63b8ff" points="1122.44,-332.92 1132.79,-330.67 1123.3,-325.97 1122.44,-332.92"/>
</a>
</g>
</g>
<!-- Node26 -->
<g id="Node000026" class="node">
<title>Node26</title>
<g id="a_Node000026"><a xlink:href="_child_entry_8h.html" target="_top" xlink:title="Defines the ChildEntry class for managing the graphical representation of a child in the GUI.">
<polygon fill="white" stroke="#666666" points="1240.38,-292 1127.62,-292 1127.62,-272 1240.38,-272 1240.38,-292"/>
<text text-anchor="middle" x="1184" y="-278.5" font-family="Helvetica,sans-Serif" font-size="10.00">TullipApp/ChildEntry.h</text>
</a>
</g>
</g>
<!-- Node22&#45;&gt;Node26 -->
<g id="edge34_Node000022_Node000026" class="edge">
<title>Node22&#45;&gt;Node26</title>
<g id="a_edge34_Node000022_Node000026"><a xlink:title=" ">
<path fill="none" stroke="#63b8ff" d="M1184,-316.13C1184,-307.9 1184,-298.85 1184,-292.3"/>
<polygon fill="#63b8ff" stroke="#63b8ff" points="1180.5,-316.08 1184,-326.08 1187.5,-316.08 1180.5,-316.08"/>
</a>
</g>
</g>
<!-- Node29 -->
<g id="Node000029" class="node">
<title>Node29</title>
<g id="a_Node000029"><a xlink:href="_child_label_8h.html" target="_top" xlink:title="Defines the ChildLabel class for displaying child name.">
<polygon fill="white" stroke="#666666" points="1484.75,-292 1371.25,-292 1371.25,-272 1484.75,-272 1484.75,-292"/>
<text text-anchor="middle" x="1428" y="-278.5" font-family="Helvetica,sans-Serif" font-size="10.00">TullipApp/ChildLabel.h</text>
</a>
</g>
</g>
<!-- Node22&#45;&gt;Node29 -->
<g id="edge38_Node000022_Node000029" class="edge">
<title>Node22&#45;&gt;Node29</title>
<g id="a_edge38_Node000022_Node000029"><a xlink:title=" ">
<path fill="none" stroke="#63b8ff" d="M1237.94,-325.06C1282.29,-315.25 1344.3,-301.52 1385.27,-292.46"/>
<polygon fill="#63b8ff" stroke="#63b8ff" points="1237.27,-321.63 1228.26,-327.21 1238.78,-328.46 1237.27,-321.63"/>
</a>
</g>
</g>
<!-- Node31 -->
<g id="Node000031" class="node">
<title>Node31</title>
<g id="a_Node000031"><a xlink:href="_parent_entry_8h.html" target="_top" xlink:title="Defines the ParentEntry class for managing the graphical representation of a parent in the GUI.">
<polygon fill="white" stroke="#666666" points="2118.38,-230 1999.62,-230 1999.62,-210 2118.38,-210 2118.38,-230"/>
<text text-anchor="middle" x="2059" y="-216.5" font-family="Helvetica,sans-Serif" font-size="10.00">TullipApp/ParentEntry.h</text>
</a>
</g>
</g>
<!-- Node22&#45;&gt;Node31 -->
<g id="edge57_Node000022_Node000031" class="edge">
<title>Node22&#45;&gt;Node31</title>
<g id="a_edge57_Node000022_Node000031"><a xlink:title=" ">
<path fill="none" stroke="#63b8ff" d="M1244.92,-337.28C1359.64,-336.81 1615.15,-331 1826,-292 1903.97,-277.58 1992.72,-246.2 2034.63,-230.43"/>
<polygon fill="#63b8ff" stroke="#63b8ff" points="1245.11,-333.78 1235.12,-337.31 1245.13,-340.78 1245.11,-333.78"/>
</a>
</g>
</g>
<!-- Node35 -->
<g id="Node000035" class="node">
<title>Node35</title>
<g id="a_Node000035"><a xlink:href="_employee_dialog_8h.html" target="_top" xlink:title="Defines the EmployeeDialog class for editing employee information.">
<polygon fill="white" stroke="#666666" points="1689.5,-292 1550.5,-292 1550.5,-272 1689.5,-272 1689.5,-292"/>
<text text-anchor="middle" x="1620" y="-278.5" font-family="Helvetica,sans-Serif" font-size="10.00">TullipApp/EmployeeDialog.h</text>
</a>
</g>
</g>
<!-- Node22&#45;&gt;Node35 -->
<g id="edge47_Node000022_Node000035" class="edge">
<title>Node22&#45;&gt;Node35</title>
<g id="a_edge47_Node000022_Node000035"><a xlink:title=" ">
<path fill="none" stroke="#63b8ff" d="M1244.98,-329.45C1325.24,-319.51 1466.01,-302.07 1550.37,-291.62"/>
<polygon fill="#63b8ff" stroke="#63b8ff" points="1244.59,-325.97 1235.09,-330.67 1245.45,-332.92 1244.59,-325.97"/>
</a>
</g>
</g>
<!-- Node38 -->
<g id="Node000038" class="node">
<title>Node38</title>
<g id="a_Node000038"><a xlink:href="_employee_entry_8h.html" target="_top" xlink:title="Defines the EmployeeEntry class for managing the graphical representation of a employee in the GUI.">
<polygon fill="white" stroke="#666666" points="2262.88,-292 2129.12,-292 2129.12,-272 2262.88,-272 2262.88,-292"/>
<text text-anchor="middle" x="2196" y="-278.5" font-family="Helvetica,sans-Serif" font-size="10.00">TullipApp/EmployeeEntry.h</text>
</a>
</g>
</g>
<!-- Node22&#45;&gt;Node38 -->
<g id="edge51_Node000022_Node000038" class="edge">
<title>Node22&#45;&gt;Node38</title>
<g id="a_edge51_Node000022_Node000038"><a xlink:title=" ">
<path fill="none" stroke="#63b8ff" d="M1244.99,-333.75C1423.28,-324.23 1942.68,-296.52 2128.73,-286.59"/>
<polygon fill="#63b8ff" stroke="#63b8ff" points="1244.81,-330.25 1235.01,-334.28 1245.18,-337.24 1244.81,-330.25"/>
</a>
</g>
</g>
<!-- Node41 -->
<g id="Node000041" class="node">
<title>Node41</title>
<g id="a_Node000041"><a xlink:href="_person_8cpp.html" target="_top" xlink:title=" ">
<polygon fill="white" stroke="#666666" points="1816.5,-292 1707.5,-292 1707.5,-272 1816.5,-272 1816.5,-292"/>
<text text-anchor="middle" x="1762" y="-278.5" font-family="Helvetica,sans-Serif" font-size="10.00">TullipApp/Person.cpp</text>
</a>
</g>
</g>
<!-- Node22&#45;&gt;Node41 -->
<g id="edge58_Node000022_Node000041" class="edge">
<title>Node22&#45;&gt;Node41</title>
<g id="a_edge58_Node000022_Node000041"><a xlink:title=" ">
<path fill="none" stroke="#63b8ff" d="M1244.71,-332.78C1341.13,-325.83 1535.14,-310.85 1699,-292 1701.63,-291.7 1704.33,-291.37 1707.05,-291.03"/>
<polygon fill="#63b8ff" stroke="#63b8ff" points="1244.68,-329.27 1234.96,-333.48 1245.18,-336.25 1244.68,-329.27"/>
</a>
</g>
</g>
<!-- Node23&#45;&gt;Node13 -->
<g id="edge31_Node000023_Node000013" class="edge">
<title>Node23&#45;&gt;Node13</title>
<g id="a_edge31_Node000023_Node000013"><a xlink:title=" ">
<path fill="none" stroke="#63b8ff" d="M667.39,-271.38C610.64,-261.2 549.25,-241.25 579,-204 599.03,-178.92 682.15,-165.26 741.52,-158.54"/>
<polygon fill="#63b8ff" stroke="#63b8ff" points="666.71,-274.82 677.15,-273.04 667.88,-267.92 666.71,-274.82"/>
</a>
</g>
</g>
<!-- Node24 -->
<g id="Node000024" class="node">
<title>Node24</title>
<g id="a_Node000024"><a xlink:href="_child_check_box_8cpp.html" target="_top" xlink:title=" ">
<polygon fill="white" stroke="#666666" points="734.25,-230 587.75,-230 587.75,-210 734.25,-210 734.25,-230"/>
<text text-anchor="middle" x="661" y="-216.5" font-family="Helvetica,sans-Serif" font-size="10.00">TullipApp/ChildCheckBox.cpp</text>
</a>
</g>
</g>
<!-- Node23&#45;&gt;Node24 -->
<g id="edge30_Node000023_Node000024" class="edge">
<title>Node23&#45;&gt;Node24</title>
<g id="a_edge30_Node000023_Node000024"><a xlink:title=" ">
<path fill="none" stroke="#63b8ff" d="M724.39,-265.22C708.46,-254.11 687.69,-239.62 674.34,-230.31"/>
<polygon fill="#63b8ff" stroke="#63b8ff" points="722.12,-267.91 732.32,-270.76 726.12,-262.17 722.12,-267.91"/>
</a>
</g>
</g>
<!-- Node25 -->
<g id="Node000025" class="node">
<title>Node25</title>
<g id="a_Node000025"><a xlink:href="moc___child_check_box_8cpp.html" target="_top" xlink:title=" ">
<polygon fill="white" stroke="#666666" points="915.5,-236 752.5,-236 752.5,-204 915.5,-204 915.5,-236"/>
<text text-anchor="start" x="760.5" y="-222.5" font-family="Helvetica,sans-Serif" font-size="10.00">TullipApp/x64/Debug</text>
<text text-anchor="middle" x="834" y="-210.5" font-family="Helvetica,sans-Serif" font-size="10.00">/qt/moc/moc_ChildCheckBox.cpp</text>
</a>
</g>
</g>
<!-- Node23&#45;&gt;Node25 -->
<g id="edge32_Node000023_Node000025" class="edge">
<title>Node23&#45;&gt;Node25</title>
<g id="a_edge32_Node000023_Node000025"><a xlink:title=" ">
<path fill="none" stroke="#63b8ff" d="M769.76,-265.3C782.7,-256.38 798.84,-245.25 811.71,-236.37"/>
<polygon fill="#63b8ff" stroke="#63b8ff" points="768.08,-262.21 761.84,-270.77 772.06,-267.97 768.08,-262.21"/>
</a>
</g>
</g>
<!-- Node26&#45;&gt;Node5 -->
<g id="edge36_Node000026_Node000005" class="edge">
<title>Node26&#45;&gt;Node5</title>
<g id="a_edge36_Node000026_Node000005"><a xlink:title=" ">
<path fill="none" stroke="#63b8ff" d="M1224.25,-266.97C1238.73,-259.91 1253.76,-249.83 1263,-236 1293.39,-190.53 1287.06,-119.86 1283.52,-94.48"/>
<polygon fill="#63b8ff" stroke="#63b8ff" points="1222.98,-263.7 1215.28,-270.97 1225.83,-270.09 1222.98,-263.7"/>
</a>
</g>
</g>
<!-- Node27 -->
<g id="Node000027" class="node">
<title>Node27</title>
<g id="a_Node000027"><a xlink:href="_child_entry_8cpp.html" target="_top" xlink:title=" ">
<polygon fill="white" stroke="#666666" points="1095.62,-230 972.38,-230 972.38,-210 1095.62,-210 1095.62,-230"/>
<text text-anchor="middle" x="1034" y="-216.5" font-family="Helvetica,sans-Serif" font-size="10.00">TullipApp/ChildEntry.cpp</text>
</a>
</g>
</g>
<!-- Node26&#45;&gt;Node27 -->
<g id="edge35_Node000026_Node000027" class="edge">
<title>Node26&#45;&gt;Node27</title>
<g id="a_edge35_Node000026_Node000027"><a xlink:title=" ">
<path fill="none" stroke="#63b8ff" d="M1149.94,-267.38C1121.63,-256.05 1082.09,-240.23 1057.27,-230.31"/>
<polygon fill="#63b8ff" stroke="#63b8ff" points="1148.57,-270.6 1159.16,-271.06 1151.17,-264.1 1148.57,-270.6"/>
</a>
</g>
</g>
<!-- Node28 -->
<g id="Node000028" class="node">
<title>Node28</title>
<g id="a_Node000028"><a xlink:href="moc___child_entry_8cpp.html" target="_top" xlink:title=" ">
<polygon fill="white" stroke="#666666" points="1253.88,-236 1114.12,-236 1114.12,-204 1253.88,-204 1253.88,-236"/>
<text text-anchor="start" x="1122.12" y="-222.5" font-family="Helvetica,sans-Serif" font-size="10.00">TullipApp/x64/Debug</text>
<text text-anchor="middle" x="1184" y="-210.5" font-family="Helvetica,sans-Serif" font-size="10.00">/qt/moc/moc_ChildEntry.cpp</text>
</a>
</g>
</g>
<!-- Node26&#45;&gt;Node28 -->
<g id="edge37_Node000026_Node000028" class="edge">
<title>Node26&#45;&gt;Node28</title>
<g id="a_edge37_Node000026_Node000028"><a xlink:title=" ">
<path fill="none" stroke="#63b8ff" d="M1184,-260.31C1184,-252.37 1184,-243.46 1184,-236.14"/>
<polygon fill="#63b8ff" stroke="#63b8ff" points="1180.5,-260.11 1184,-270.11 1187.5,-260.11 1180.5,-260.11"/>
</a>
</g>
</g>
<!-- Node30 -->
<g id="Node000030" class="node">
<title>Node30</title>
<g id="a_Node000030"><a xlink:href="_child_label_8cpp.html" target="_top" xlink:title=" ">
<polygon fill="white" stroke="#666666" points="1592,-230 1468,-230 1468,-210 1592,-210 1592,-230"/>
<text text-anchor="middle" x="1530" y="-216.5" font-family="Helvetica,sans-Serif" font-size="10.00">TullipApp/ChildLabel.cpp</text>
</a>
</g>
</g>
<!-- Node29&#45;&gt;Node30 -->
<g id="edge39_Node000029_Node000030" class="edge">
<title>Node29&#45;&gt;Node30</title>
<g id="a_edge39_Node000029_Node000030"><a xlink:title=" ">
<path fill="none" stroke="#63b8ff" d="M1453.76,-265.85C1472.77,-254.66 1498.05,-239.8 1514.17,-230.31"/>
<polygon fill="#63b8ff" stroke="#63b8ff" points="1452.09,-262.77 1445.24,-270.86 1455.64,-268.8 1452.09,-262.77"/>
</a>
</g>
</g>
<!-- Node29&#45;&gt;Node31 -->
<g id="edge40_Node000029_Node000031" class="edge">
<title>Node29&#45;&gt;Node31</title>
<g id="a_edge40_Node000029_Node000031"><a xlink:title=" ">
<path fill="none" stroke="#63b8ff" d="M1496.35,-275.6C1645,-263.84 1984.94,-236.91 1991,-236 2000.57,-234.57 2010.79,-232.57 2020.33,-230.49"/>
<polygon fill="#63b8ff" stroke="#63b8ff" points="1496.33,-272.09 1486.64,-276.37 1496.88,-279.07 1496.33,-272.09"/>
</a>
</g>
</g>
<!-- Node34 -->
<g id="Node000034" class="node">
<title>Node34</title>
<g id="a_Node000034"><a xlink:href="moc___child_label_8cpp.html" target="_top" xlink:title=" ">
<polygon fill="white" stroke="#666666" points="1450.25,-236 1309.75,-236 1309.75,-204 1450.25,-204 1450.25,-236"/>
<text text-anchor="start" x="1317.75" y="-222.5" font-family="Helvetica,sans-Serif" font-size="10.00">TullipApp/x64/Debug</text>
<text text-anchor="middle" x="1380" y="-210.5" font-family="Helvetica,sans-Serif" font-size="10.00">/qt/moc/moc_ChildLabel.cpp</text>
</a>
</g>
</g>
<!-- Node29&#45;&gt;Node34 -->
<g id="edge44_Node000029_Node000034" class="edge">
<title>Node29&#45;&gt;Node34</title>
<g id="a_edge44_Node000029_Node000034"><a xlink:title=" ">
<path fill="none" stroke="#63b8ff" d="M1413.46,-262.83C1406.64,-254.3 1398.6,-244.25 1392.11,-236.14"/>
<polygon fill="#63b8ff" stroke="#63b8ff" points="1410.57,-264.82 1419.55,-270.44 1416.04,-260.45 1410.57,-264.82"/>
</a>
</g>
</g>
<!-- Node31&#45;&gt;Node5 -->
<g id="edge41_Node000031_Node000005" class="edge">
<title>Node31&#45;&gt;Node5</title>
<g id="a_edge41_Node000031_Node000005"><a xlink:title=" ">
<path fill="none" stroke="#63b8ff" d="M2005.96,-207.15C2000.91,-206.06 1995.86,-205 1991,-204 1832.79,-171.49 1793.3,-162.7 1634,-136 1534.12,-119.26 1417.75,-103.04 1347.01,-93.54"/>
<polygon fill="#63b8ff" stroke="#63b8ff" points="2004.97,-210.51 2015.48,-209.21 2006.45,-203.67 2004.97,-210.51"/>
</a>
</g>
</g>
<!-- Node32 -->
<g id="Node000032" class="node">
<title>Node32</title>
<g id="a_Node000032"><a xlink:href="_parent_entry_8cpp.html" target="_top" xlink:title=" ">
<polygon fill="white" stroke="#666666" points="1953.62,-162 1824.38,-162 1824.38,-142 1953.62,-142 1953.62,-162"/>
<text text-anchor="middle" x="1889" y="-148.5" font-family="Helvetica,sans-Serif" font-size="10.00">TullipApp/ParentEntry.cpp</text>
</a>
</g>
</g>
<!-- Node31&#45;&gt;Node32 -->
<g id="edge42_Node000031_Node000032" class="edge">
<title>Node31&#45;&gt;Node32</title>
<g id="a_edge42_Node000031_Node000032"><a xlink:title=" ">
<path fill="none" stroke="#63b8ff" d="M2024.09,-205.45C1991.06,-192.62 1942.33,-173.7 1913.31,-162.44"/>
<polygon fill="#63b8ff" stroke="#63b8ff" points="2022.64,-208.64 2033.23,-209 2025.18,-202.11 2022.64,-208.64"/>
</a>
</g>
</g>
<!-- Node33 -->
<g id="Node000033" class="node">
<title>Node33</title>
<g id="a_Node000033"><a xlink:href="moc___parent_entry_8cpp.html" target="_top" xlink:title=" ">
<polygon fill="white" stroke="#666666" points="2117.88,-168 1972.12,-168 1972.12,-136 2117.88,-136 2117.88,-168"/>
<text text-anchor="start" x="1980.12" y="-154.5" font-family="Helvetica,sans-Serif" font-size="10.00">TullipApp/x64/Debug</text>
<text text-anchor="middle" x="2045" y="-142.5" font-family="Helvetica,sans-Serif" font-size="10.00">/qt/moc/moc_ParentEntry.cpp</text>
</a>
</g>
</g>
<!-- Node31&#45;&gt;Node33 -->
<g id="edge43_Node000031_Node000033" class="edge">
<title>Node31&#45;&gt;Node33</title>
<g id="a_edge43_Node000031_Node000033"><a xlink:title=" ">
<path fill="none" stroke="#63b8ff" d="M2054.64,-198.43C2052.57,-188.69 2050.15,-177.26 2048.25,-168.3"/>
<polygon fill="#63b8ff" stroke="#63b8ff" points="2051.18,-199.01 2056.68,-208.06 2058.03,-197.55 2051.18,-199.01"/>
</a>
</g>
</g>
<!-- Node35&#45;&gt;Node5 -->
<g id="edge48_Node000035_Node000005" class="edge">
<title>Node35&#45;&gt;Node5</title>
<g id="a_edge48_Node000035_Node000005"><a xlink:title=" ">
<path fill="none" stroke="#63b8ff" d="M1619.99,-260.2C1618.89,-243.15 1614.72,-219.4 1601,-204 1535.33,-130.3 1419.59,-102.11 1347.05,-91.42"/>
<polygon fill="#63b8ff" stroke="#63b8ff" points="1616.49,-260.28 1620.29,-270.17 1623.49,-260.06 1616.49,-260.28"/>
</a>
</g>
</g>
<!-- Node36 -->
<g id="Node000036" class="node">
<title>Node36</title>
<g id="a_Node000036"><a xlink:href="_employee_dialog_8cpp.html" target="_top" xlink:title=" ">
<polygon fill="white" stroke="#666666" points="1797.75,-230 1648.25,-230 1648.25,-210 1797.75,-210 1797.75,-230"/>
<text text-anchor="middle" x="1723" y="-216.5" font-family="Helvetica,sans-Serif" font-size="10.00">TullipApp/EmployeeDialog.cpp</text>
</a>
</g>
</g>
<!-- Node35&#45;&gt;Node36 -->
<g id="edge49_Node000035_Node000036" class="edge">
<title>Node35&#45;&gt;Node36</title>
<g id="a_edge49_Node000035_Node000036"><a xlink:title=" ">
<path fill="none" stroke="#63b8ff" d="M1646.01,-265.85C1665.21,-254.66 1690.74,-239.8 1707.02,-230.31"/>
<polygon fill="#63b8ff" stroke="#63b8ff" points="1644.28,-262.81 1637.4,-270.86 1647.8,-268.85 1644.28,-262.81"/>
</a>
</g>
</g>
<!-- Node37 -->
<g id="Node000037" class="node">
<title>Node37</title>
<g id="a_Node000037"><a xlink:href="moc___employee_dialog_8cpp.html" target="_top" xlink:title=" ">
<polygon fill="white" stroke="#666666" points="1982,-236 1816,-236 1816,-204 1982,-204 1982,-236"/>
<text text-anchor="start" x="1824" y="-222.5" font-family="Helvetica,sans-Serif" font-size="10.00">TullipApp/x64/Debug</text>
<text text-anchor="middle" x="1899" y="-210.5" font-family="Helvetica,sans-Serif" font-size="10.00">/qt/moc/moc_EmployeeDialog.cpp</text>
</a>
</g>
</g>
<!-- Node35&#45;&gt;Node37 -->
<g id="edge50_Node000035_Node000037" class="edge">
<title>Node35&#45;&gt;Node37</title>
<g id="a_edge50_Node000035_Node000037"><a xlink:title=" ">
<path fill="none" stroke="#63b8ff" d="M1675.13,-269.14C1718.66,-259.78 1779.76,-246.64 1827.13,-236.46"/>
<polygon fill="#63b8ff" stroke="#63b8ff" points="1674.42,-265.72 1665.38,-271.24 1675.89,-272.56 1674.42,-265.72"/>
</a>
</g>
</g>
<!-- Node38&#45;&gt;Node5 -->
<g id="edge52_Node000038_Node000005" class="edge">
<title>Node38&#45;&gt;Node5</title>
<g id="a_edge52_Node000038_Node000005"><a xlink:title=" ">
<path fill="none" stroke="#63b8ff" d="M2181.93,-262.73C2176.22,-254.79 2169.83,-245.21 2165,-236 2142.91,-193.9 2165.31,-164.16 2127,-136 2064.72,-90.21 1534.16,-85.24 1347.02,-84.92"/>
<polygon fill="#63b8ff" stroke="#63b8ff" points="2178.97,-264.62 2187.75,-270.55 2184.59,-260.44 2178.97,-264.62"/>
</a>
</g>
</g>
<!-- Node39 -->
<g id="Node000039" class="node">
<title>Node39</title>
<g id="a_Node000039"><a xlink:href="_employee_entry_8cpp.html" target="_top" xlink:title=" ">
<polygon fill="white" stroke="#666666" points="2318.12,-230 2173.88,-230 2173.88,-210 2318.12,-210 2318.12,-230"/>
<text text-anchor="middle" x="2246" y="-216.5" font-family="Helvetica,sans-Serif" font-size="10.00">TullipApp/EmployeeEntry.cpp</text>
</a>
</g>
</g>
<!-- Node38&#45;&gt;Node39 -->
<g id="edge53_Node000038_Node000039" class="edge">
<title>Node38&#45;&gt;Node39</title>
<g id="a_edge53_Node000038_Node000039"><a xlink:title=" ">
<path fill="none" stroke="#63b8ff" d="M2211.06,-262.92C2220.09,-252.1 2231.18,-238.79 2238.41,-230.11"/>
<polygon fill="#63b8ff" stroke="#63b8ff" points="2208.49,-260.54 2204.78,-270.46 2213.87,-265.02 2208.49,-260.54"/>
</a>
</g>
</g>
<!-- Node40 -->
<g id="Node000040" class="node">
<title>Node40</title>
<g id="a_Node000040"><a xlink:href="moc___employee_entry_8cpp.html" target="_top" xlink:title=" ">
<polygon fill="white" stroke="#666666" points="2497.38,-236 2336.62,-236 2336.62,-204 2497.38,-204 2497.38,-236"/>
<text text-anchor="start" x="2344.62" y="-222.5" font-family="Helvetica,sans-Serif" font-size="10.00">TullipApp/x64/Debug</text>
<text text-anchor="middle" x="2417" y="-210.5" font-family="Helvetica,sans-Serif" font-size="10.00">/qt/moc/moc_EmployeeEntry.cpp</text>
</a>
</g>
</g>
<!-- Node38&#45;&gt;Node40 -->
<g id="edge54_Node000038_Node000040" class="edge">
<title>Node38&#45;&gt;Node40</title>
<g id="a_edge54_Node000038_Node000040"><a xlink:title=" ">
<path fill="none" stroke="#63b8ff" d="M2241.64,-268.61C2275.94,-259.3 2323.15,-246.48 2359.94,-236.49"/>
<polygon fill="#63b8ff" stroke="#63b8ff" points="2240.73,-265.23 2231.99,-271.23 2242.56,-271.99 2240.73,-265.23"/>
</a>
</g>
</g>
</g>
</svg>

<g id="navigator" transform="translate(0 0)" fill="#404254">
  <rect fill="#f2f5e9" fill-opacity="0.5" stroke="#606060" stroke-width=".5" x="0" y="0" width="60" height="60"/>
  <use id="zoomplus" xlink:href="#zoomPlus" x="17" y="9" onmousedown="handleZoom(evt,'in')"/>
  <use id="zoomminus" xlink:href="#zoomMin" x="42" y="9" onmousedown="handleZoom(evt,'out')"/>
  <use id="reset" xlink:href="#resetDef" x="30" y="36" onmousedown="handleReset()"/>
   <use id="arrowup" xlink:href="#arrowUp" x="0" y="0" onmousedown="handlePan(0,-1)"/>
  <use id="arrowright" xlink:href="#arrowRight" x="0" y="0" onmousedown="handlePan(1,0)"/>
  <use id="arrowdown" xlink:href="#arrowDown" x="0" y="0" onmousedown="handlePan(0,1)"/>
  <use id="arrowleft" xlink:href="#arrowLeft" x="0" y="0" onmousedown="handlePan(-1,0)"/>
</g>
<svg viewBox="0 0 15 15" width="100%" height="30px" preserveAspectRatio="xMaxYMin meet">
 <g id="arrow_out" transform="scale(0.3 0.3)">
  <a xlink:href="_date_time_8h__dep__incl_org.svg" target="_base">
   <rect id="button" ry="5" rx="5" y="6" x="6" height="38" width="38"
        fill="#f2f5e9" fill-opacity="0.5" stroke="#606060" stroke-width="1.0"/>
   <path id="arrow"
     d="M 11.500037,31.436501 C 11.940474,20.09759 22.043105,11.32322 32.158766,21.979434 L 37.068811,17.246167 C 37.068811,17.246167 37.088388,32 37.088388,32 L 22.160133,31.978069 C 22.160133,31.978069 26.997745,27.140456 26.997745,27.140456 C 18.528582,18.264221 13.291696,25.230495 11.500037,31.436501 z"
     style="fill:#404040;"/>
  </a>
 </g>
</svg>

<style type='text/css'>
<![CDATA[
[data-mouse-over-selected='false'] { opacity: 0.7; }
[data-mouse-over-selected='true']  { opacity: 1.0; }
]]>
</style>
<script type="application/ecmascript"><![CDATA[
document.addEventListener('DOMContentLoaded', (event) => {
  highlightEdges();
  highlightAdjacentNodes();
});
]]></script>
</svg>
