<?xml version="1.0" encoding="UTF-8" standalone="no"?>
<!DOCTYPE svg PUBLIC "-//W3C//DTD SVG 1.1//EN"
 "http://www.w3.org/Graphics/SVG/1.1/DTD/svg11.dtd">
<!-- Generated by graphviz version 12.2.1 (20241206.2353)
 -->
<!-- Title: TullipApp/DateTime_Exceptions.h Pages: 1 -->
<svg width="196pt" height="96pt"
 viewBox="0.00 0.00 196.00 96.00" xmlns="http://www.w3.org/2000/svg" xmlns:xlink="http://www.w3.org/1999/xlink">
<g id="graph0" class="graph" transform="scale(1 1) rotate(0) translate(4 92)">
<title>TullipApp/DateTime_Exceptions.h</title>
<!-- Node1 -->
<g id="Node000001" class="node">
<title>Node1</title>
<g id="a_Node000001"><a xlink:title="Defines error messages and the DateTimeError exception class for date and time operations.">
<polygon fill="#999999" stroke="#666666" points="136.12,-88 33.88,-88 33.88,-56 136.12,-56 136.12,-88"/>
<text text-anchor="start" x="41.88" y="-74.5" font-family="Helvetica,sans-Serif" font-size="10.00">TullipApp/DateTime</text>
<text text-anchor="middle" x="85" y="-62.5" font-family="Helvetica,sans-Serif" font-size="10.00">_Exceptions.h</text>
</a>
</g>
</g>
<!-- Node2 -->
<g id="Node000002" class="node">
<title>Node2</title>
<g id="a_Node000002"><a xlink:title=" ">
<polygon fill="#e0e0e0" stroke="#999999" points="40,-20 0,-20 0,0 40,0 40,-20"/>
<text text-anchor="middle" x="20" y="-6.5" font-family="Helvetica,sans-Serif" font-size="10.00">string</text>
</a>
</g>
</g>
<!-- Node1&#45;&gt;Node2 -->
<g id="edge1_Node000001_Node000002" class="edge">
<title>Node1&#45;&gt;Node2</title>
<g id="a_edge1_Node000001_Node000002"><a xlink:title=" ">
<path fill="none" stroke="#63b8ff" d="M68.26,-55.55C59.14,-47.13 47.83,-36.69 38.46,-28.04"/>
<polygon fill="#63b8ff" stroke="#63b8ff" points="41.03,-25.65 31.3,-21.43 36.28,-30.79 41.03,-25.65"/>
</a>
</g>
</g>
<!-- Node3 -->
<g id="Node000003" class="node">
<title>Node3</title>
<g id="a_Node000003"><a xlink:title=" ">
<polygon fill="#e0e0e0" stroke="#999999" points="111.75,-20 58.25,-20 58.25,0 111.75,0 111.75,-20"/>
<text text-anchor="middle" x="85" y="-6.5" font-family="Helvetica,sans-Serif" font-size="10.00">iostream</text>
</a>
</g>
</g>
<!-- Node1&#45;&gt;Node3 -->
<g id="edge2_Node000001_Node000003" class="edge">
<title>Node1&#45;&gt;Node3</title>
<g id="a_edge2_Node000001_Node000003"><a xlink:title=" ">
<path fill="none" stroke="#63b8ff" d="M85,-55.55C85,-48.34 85,-39.66 85,-31.88"/>
<polygon fill="#63b8ff" stroke="#63b8ff" points="88.5,-31.92 85,-21.92 81.5,-31.92 88.5,-31.92"/>
</a>
</g>
</g>
<!-- Node4 -->
<g id="Node000004" class="node">
<title>Node4</title>
<g id="a_Node000004"><a xlink:title=" ">
<polygon fill="#e0e0e0" stroke="#999999" points="188,-20 130,-20 130,0 188,0 188,-20"/>
<text text-anchor="middle" x="159" y="-6.5" font-family="Helvetica,sans-Serif" font-size="10.00">exception</text>
</a>
</g>
</g>
<!-- Node1&#45;&gt;Node4 -->
<g id="edge3_Node000001_Node000004" class="edge">
<title>Node1&#45;&gt;Node4</title>
<g id="a_edge3_Node000001_Node000004"><a xlink:title=" ">
<path fill="none" stroke="#63b8ff" d="M104.06,-55.55C114.66,-46.95 127.85,-36.26 138.65,-27.5"/>
<polygon fill="#63b8ff" stroke="#63b8ff" points="140.66,-30.38 146.22,-21.36 136.25,-24.94 140.66,-30.38"/>
</a>
</g>
</g>
</g>
</svg>
