<?xml version="1.0" encoding="UTF-8" standalone="no"?>
<!DOCTYPE svg PUBLIC "-//W3C//DTD SVG 1.1//EN"
 "http://www.w3.org/Graphics/SVG/1.1/DTD/svg11.dtd">
<!-- Generated by graphviz version 12.2.1 (20241206.2353)
 -->
<!-- Title: TullipApp/EmployeeDialog.cpp Pages: 1 -->
<svg width="1696pt" height="308pt"
 viewBox="0.00 0.00 1695.88 308.00" xmlns="http://www.w3.org/2000/svg" xmlns:xlink="http://www.w3.org/1999/xlink">
<g id="graph0" class="graph" transform="scale(1 1) rotate(0) translate(4 304)">
<title>TullipApp/EmployeeDialog.cpp</title>
<!-- Node1 -->
<g id="Node000001" class="node">
<title>Node1</title>
<g id="a_Node000001"><a xlink:title=" ">
<polygon fill="#999999" stroke="#666666" points="671.75,-300 522.25,-300 522.25,-280 671.75,-280 671.75,-300"/>
<text text-anchor="middle" x="597" y="-286.5" font-family="Helvetica,sans-Serif" font-size="10.00">TullipApp/EmployeeDialog.cpp</text>
</a>
</g>
</g>
<!-- Node2 -->
<g id="Node000002" class="node">
<title>Node2</title>
<g id="a_Node000002"><a xlink:href="_employee_dialog_8h.html" target="_top" xlink:title="Defines the EmployeeDialog class for editing employee information.">
<polygon fill="white" stroke="#666666" points="591.75,-244 496.25,-244 496.25,-224 591.75,-224 591.75,-244"/>
<text text-anchor="middle" x="544" y="-230.5" font-family="Helvetica,sans-Serif" font-size="10.00">EmployeeDialog.h</text>
</a>
</g>
</g>
<!-- Node1&#45;&gt;Node2 -->
<g id="edge1_Node000001_Node000002" class="edge">
<title>Node1&#45;&gt;Node2</title>
<g id="a_edge1_Node000001_Node000002"><a xlink:title=" ">
<path fill="none" stroke="#63b8ff" d="M587.77,-279.59C580.4,-272.08 569.87,-261.35 560.98,-252.3"/>
<polygon fill="#63b8ff" stroke="#63b8ff" points="563.69,-250.06 554.19,-245.38 558.69,-254.97 563.69,-250.06"/>
</a>
</g>
</g>
<!-- Node27 -->
<g id="Node000027" class="node">
<title>Node27</title>
<g id="a_Node000027"><a xlink:title=" ">
<polygon fill="#e0e0e0" stroke="#999999" points="690.25,-244 609.75,-244 609.75,-224 690.25,-224 690.25,-244"/>
<text text-anchor="middle" x="650" y="-230.5" font-family="Helvetica,sans-Serif" font-size="10.00">QMessageBox</text>
</a>
</g>
</g>
<!-- Node1&#45;&gt;Node27 -->
<g id="edge35_Node000001_Node000027" class="edge">
<title>Node1&#45;&gt;Node27</title>
<g id="a_edge35_Node000001_Node000027"><a xlink:title=" ">
<path fill="none" stroke="#63b8ff" d="M606.23,-279.59C613.6,-272.08 624.13,-261.35 633.02,-252.3"/>
<polygon fill="#63b8ff" stroke="#63b8ff" points="635.31,-254.97 639.81,-245.38 630.31,-250.06 635.31,-254.97"/>
</a>
</g>
</g>
<!-- Node3 -->
<g id="Node000003" class="node">
<title>Node3</title>
<g id="a_Node000003"><a xlink:title=" ">
<polygon fill="#e0e0e0" stroke="#999999" points="471.62,-188 420.38,-188 420.38,-168 471.62,-168 471.62,-188"/>
<text text-anchor="middle" x="446" y="-174.5" font-family="Helvetica,sans-Serif" font-size="10.00">QDialog</text>
</a>
</g>
</g>
<!-- Node2&#45;&gt;Node3 -->
<g id="edge2_Node000002_Node000003" class="edge">
<title>Node2&#45;&gt;Node3</title>
<g id="a_edge2_Node000002_Node000003"><a xlink:title=" ">
<path fill="none" stroke="#63b8ff" d="M526.93,-223.59C512.12,-215.44 490.43,-203.48 473.23,-194"/>
<polygon fill="#63b8ff" stroke="#63b8ff" points="474.98,-190.97 464.53,-189.21 471.6,-197.1 474.98,-190.97"/>
</a>
</g>
</g>
<!-- Node4 -->
<g id="Node000004" class="node">
<title>Node4</title>
<g id="a_Node000004"><a xlink:href="ui___employee_dialog_8h.html" target="_top" xlink:title=" ">
<polygon fill="white" stroke="#666666" points="598.12,-188 489.88,-188 489.88,-168 598.12,-168 598.12,-188"/>
<text text-anchor="middle" x="544" y="-174.5" font-family="Helvetica,sans-Serif" font-size="10.00">ui_EmployeeDialog.h</text>
</a>
</g>
</g>
<!-- Node2&#45;&gt;Node4 -->
<g id="edge3_Node000002_Node000004" class="edge">
<title>Node2&#45;&gt;Node4</title>
<g id="a_edge3_Node000002_Node000004"><a xlink:title=" ">
<path fill="none" stroke="#63b8ff" d="M544,-223.59C544,-217.01 544,-207.96 544,-199.73"/>
<polygon fill="#63b8ff" stroke="#63b8ff" points="547.5,-199.81 544,-189.81 540.5,-199.81 547.5,-199.81"/>
</a>
</g>
</g>
<!-- Node13 -->
<g id="Node000013" class="node">
<title>Node13</title>
<g id="a_Node000013"><a xlink:href="_person_8h.html" target="_top" xlink:title="Defines the Person class and its derived classes: Child, Parent, and Employee.">
<polygon fill="white" stroke="#666666" points="1423.5,-188 1368.5,-188 1368.5,-168 1423.5,-168 1423.5,-188"/>
<text text-anchor="middle" x="1396" y="-174.5" font-family="Helvetica,sans-Serif" font-size="10.00">Person.h</text>
</a>
</g>
</g>
<!-- Node2&#45;&gt;Node13 -->
<g id="edge12_Node000002_Node000013" class="edge">
<title>Node2&#45;&gt;Node13</title>
<g id="a_edge12_Node000002_Node000013"><a xlink:title=" ">
<path fill="none" stroke="#63b8ff" d="M592.16,-225.05C595.15,-224.66 598.11,-224.31 601,-224 890.08,-193.07 1240.73,-182.59 1356.69,-179.83"/>
<polygon fill="#63b8ff" stroke="#63b8ff" points="1356.68,-183.33 1366.59,-179.6 1356.51,-176.34 1356.68,-183.33"/>
</a>
</g>
</g>
<!-- Node5 -->
<g id="Node000005" class="node">
<title>Node5</title>
<g id="a_Node000005"><a xlink:title=" ">
<polygon fill="#e0e0e0" stroke="#999999" points="88,-132 0,-132 0,-112 88,-112 88,-132"/>
<text text-anchor="middle" x="44" y="-118.5" font-family="Helvetica,sans-Serif" font-size="10.00">QtCore/QVariant</text>
</a>
</g>
</g>
<!-- Node4&#45;&gt;Node5 -->
<g id="edge4_Node000004_Node000005" class="edge">
<title>Node4&#45;&gt;Node5</title>
<g id="a_edge4_Node000004_Node000005"><a xlink:title=" ">
<path fill="none" stroke="#63b8ff" d="M489.39,-169.03C486.55,-168.67 483.74,-168.32 481,-168 314.43,-148.31 268.89,-154.1 99.81,-132.28"/>
<polygon fill="#63b8ff" stroke="#63b8ff" points="100.37,-128.82 90,-131 99.46,-135.77 100.37,-128.82"/>
</a>
</g>
</g>
<!-- Node6 -->
<g id="Node000006" class="node">
<title>Node6</title>
<g id="a_Node000006"><a xlink:title=" ">
<polygon fill="#e0e0e0" stroke="#999999" points="227.5,-132 106.5,-132 106.5,-112 227.5,-112 227.5,-132"/>
<text text-anchor="middle" x="167" y="-118.5" font-family="Helvetica,sans-Serif" font-size="10.00">QtWidgets/QApplication</text>
</a>
</g>
</g>
<!-- Node4&#45;&gt;Node6 -->
<g id="edge5_Node000004_Node000006" class="edge">
<title>Node4&#45;&gt;Node6</title>
<g id="a_edge5_Node000004_Node000006"><a xlink:title=" ">
<path fill="none" stroke="#63b8ff" d="M489.58,-169.21C423.68,-159.77 312.43,-143.83 239.35,-133.36"/>
<polygon fill="#63b8ff" stroke="#63b8ff" points="239.86,-129.9 229.46,-131.95 238.86,-136.83 239.86,-129.9"/>
</a>
</g>
</g>
<!-- Node7 -->
<g id="Node000007" class="node">
<title>Node7</title>
<g id="a_Node000007"><a xlink:title=" ">
<polygon fill="#e0e0e0" stroke="#999999" points="346.38,-132 245.62,-132 245.62,-112 346.38,-112 346.38,-132"/>
<text text-anchor="middle" x="296" y="-118.5" font-family="Helvetica,sans-Serif" font-size="10.00">QtWidgets/QDialog</text>
</a>
</g>
</g>
<!-- Node4&#45;&gt;Node7 -->
<g id="edge6_Node000004_Node000007" class="edge">
<title>Node4&#45;&gt;Node7</title>
<g id="a_edge6_Node000004_Node000007"><a xlink:title=" ">
<path fill="none" stroke="#63b8ff" d="M500.52,-167.53C458.77,-158.44 395.57,-144.68 350.48,-134.86"/>
<polygon fill="#63b8ff" stroke="#63b8ff" points="351.43,-131.49 340.91,-132.78 349.94,-138.33 351.43,-131.49"/>
</a>
</g>
</g>
<!-- Node8 -->
<g id="Node000008" class="node">
<title>Node8</title>
<g id="a_Node000008"><a xlink:title=" ">
<polygon fill="#e0e0e0" stroke="#999999" points="465.38,-132 364.62,-132 364.62,-112 465.38,-112 465.38,-132"/>
<text text-anchor="middle" x="415" y="-118.5" font-family="Helvetica,sans-Serif" font-size="10.00">QtWidgets/QFrame</text>
</a>
</g>
</g>
<!-- Node4&#45;&gt;Node8 -->
<g id="edge7_Node000004_Node000008" class="edge">
<title>Node4&#45;&gt;Node8</title>
<g id="a_edge7_Node000004_Node000008"><a xlink:title=" ">
<path fill="none" stroke="#63b8ff" d="M521.53,-167.59C501.21,-159.09 471.05,-146.46 447.99,-136.81"/>
<polygon fill="#63b8ff" stroke="#63b8ff" points="449.62,-133.7 439.04,-133.06 446.91,-140.15 449.62,-133.7"/>
</a>
</g>
</g>
<!-- Node9 -->
<g id="Node000009" class="node">
<title>Node9</title>
<g id="a_Node000009"><a xlink:title=" ">
<polygon fill="#e0e0e0" stroke="#999999" points="604.12,-132 483.88,-132 483.88,-112 604.12,-112 604.12,-132"/>
<text text-anchor="middle" x="544" y="-118.5" font-family="Helvetica,sans-Serif" font-size="10.00">QtWidgets/QGridLayout</text>
</a>
</g>
</g>
<!-- Node4&#45;&gt;Node9 -->
<g id="edge8_Node000004_Node000009" class="edge">
<title>Node4&#45;&gt;Node9</title>
<g id="a_edge8_Node000004_Node000009"><a xlink:title=" ">
<path fill="none" stroke="#63b8ff" d="M544,-167.59C544,-161.01 544,-151.96 544,-143.73"/>
<polygon fill="#63b8ff" stroke="#63b8ff" points="547.5,-143.81 544,-133.81 540.5,-143.81 547.5,-143.81"/>
</a>
</g>
</g>
<!-- Node10 -->
<g id="Node000010" class="node">
<title>Node10</title>
<g id="a_Node000010"><a xlink:title=" ">
<polygon fill="#e0e0e0" stroke="#999999" points="718.12,-132 621.88,-132 621.88,-112 718.12,-112 718.12,-132"/>
<text text-anchor="middle" x="670" y="-118.5" font-family="Helvetica,sans-Serif" font-size="10.00">QtWidgets/QLabel</text>
</a>
</g>
</g>
<!-- Node4&#45;&gt;Node10 -->
<g id="edge9_Node000004_Node000010" class="edge">
<title>Node4&#45;&gt;Node10</title>
<g id="a_edge9_Node000004_Node000010"><a xlink:title=" ">
<path fill="none" stroke="#63b8ff" d="M565.95,-167.59C585.7,-159.13 614.99,-146.58 637.47,-136.94"/>
<polygon fill="#63b8ff" stroke="#63b8ff" points="638.68,-140.23 646.49,-133.08 635.92,-133.8 638.68,-140.23"/>
</a>
</g>
</g>
<!-- Node11 -->
<g id="Node000011" class="node">
<title>Node11</title>
<g id="a_Node000011"><a xlink:title=" ">
<polygon fill="#e0e0e0" stroke="#999999" points="844.12,-132 735.88,-132 735.88,-112 844.12,-112 844.12,-132"/>
<text text-anchor="middle" x="790" y="-118.5" font-family="Helvetica,sans-Serif" font-size="10.00">QtWidgets/QLineEdit</text>
</a>
</g>
</g>
<!-- Node4&#45;&gt;Node11 -->
<g id="edge10_Node000004_Node000011" class="edge">
<title>Node4&#45;&gt;Node11</title>
<g id="a_edge10_Node000004_Node000011"><a xlink:title=" ">
<path fill="none" stroke="#63b8ff" d="M587.13,-167.53C628.46,-158.46 690.97,-144.74 735.67,-134.93"/>
<polygon fill="#63b8ff" stroke="#63b8ff" points="736.42,-138.34 745.44,-132.78 734.92,-131.51 736.42,-138.34"/>
</a>
</g>
</g>
<!-- Node12 -->
<g id="Node000012" class="node">
<title>Node12</title>
<g id="a_Node000012"><a xlink:title=" ">
<polygon fill="#e0e0e0" stroke="#999999" points="986,-132 862,-132 862,-112 986,-112 986,-132"/>
<text text-anchor="middle" x="924" y="-118.5" font-family="Helvetica,sans-Serif" font-size="10.00">QtWidgets/QPushButton</text>
</a>
</g>
</g>
<!-- Node4&#45;&gt;Node12 -->
<g id="edge11_Node000004_Node000012" class="edge">
<title>Node4&#45;&gt;Node12</title>
<g id="a_edge11_Node000004_Node000012"><a xlink:title=" ">
<path fill="none" stroke="#63b8ff" d="M598.44,-169.26C664.72,-159.85 776.89,-143.9 850.71,-133.41"/>
<polygon fill="#63b8ff" stroke="#63b8ff" points="850.86,-136.93 860.27,-132.06 849.87,-130 850.86,-136.93"/>
</a>
</g>
</g>
<!-- Node14 -->
<g id="Node000014" class="node">
<title>Node14</title>
<g id="a_Node000014"><a xlink:title=" ">
<polygon fill="#e0e0e0" stroke="#999999" points="1086.75,-20 1033.25,-20 1033.25,0 1086.75,0 1086.75,-20"/>
<text text-anchor="middle" x="1060" y="-6.5" font-family="Helvetica,sans-Serif" font-size="10.00">iostream</text>
</a>
</g>
</g>
<!-- Node13&#45;&gt;Node14 -->
<g id="edge13_Node000013_Node000014" class="edge">
<title>Node13&#45;&gt;Node14</title>
<g id="a_edge13_Node000013_Node000014"><a xlink:title=" ">
<path fill="none" stroke="#63b8ff" d="M1368.23,-173.25C1293.78,-162.55 1092.97,-129.14 1058,-76 1049.36,-62.87 1050.71,-44.8 1053.74,-31.04"/>
<polygon fill="#63b8ff" stroke="#63b8ff" points="1057.02,-32.32 1056.23,-21.76 1050.26,-30.51 1057.02,-32.32"/>
</a>
</g>
</g>
<!-- Node15 -->
<g id="Node000015" class="node">
<title>Node15</title>
<g id="a_Node000015"><a xlink:title=" ">
<polygon fill="#e0e0e0" stroke="#999999" points="1321,-20 1281,-20 1281,0 1321,0 1321,-20"/>
<text text-anchor="middle" x="1301" y="-6.5" font-family="Helvetica,sans-Serif" font-size="10.00">string</text>
</a>
</g>
</g>
<!-- Node13&#45;&gt;Node15 -->
<g id="edge14_Node000013_Node000015" class="edge">
<title>Node13&#45;&gt;Node15</title>
<g id="a_edge14_Node000013_Node000015"><a xlink:title=" ">
<path fill="none" stroke="#63b8ff" d="M1397.07,-167.54C1399.02,-145.79 1400.99,-91.37 1377,-56 1366.23,-40.12 1347.83,-29.01 1331.84,-21.81"/>
<polygon fill="#63b8ff" stroke="#63b8ff" points="1333.24,-18.6 1322.67,-18.01 1330.57,-25.07 1333.24,-18.6"/>
</a>
</g>
</g>
<!-- Node16 -->
<g id="Node000016" class="node">
<title>Node16</title>
<g id="a_Node000016"><a xlink:title=" ">
<polygon fill="#e0e0e0" stroke="#999999" points="1619.62,-132 1580.38,-132 1580.38,-112 1619.62,-112 1619.62,-132"/>
<text text-anchor="middle" x="1600" y="-118.5" font-family="Helvetica,sans-Serif" font-size="10.00">utility</text>
</a>
</g>
</g>
<!-- Node13&#45;&gt;Node16 -->
<g id="edge15_Node000013_Node000016" class="edge">
<title>Node13&#45;&gt;Node16</title>
<g id="a_edge15_Node000013_Node000016"><a xlink:title=" ">
<path fill="none" stroke="#63b8ff" d="M1423.94,-169.6C1461.89,-159.56 1529.54,-141.65 1569.01,-131.2"/>
<polygon fill="#63b8ff" stroke="#63b8ff" points="1569.83,-134.61 1578.6,-128.67 1568.04,-127.84 1569.83,-134.61"/>
</a>
</g>
</g>
<!-- Node17 -->
<g id="Node000017" class="node">
<title>Node17</title>
<g id="a_Node000017"><a xlink:title=" ">
<polygon fill="#e0e0e0" stroke="#999999" points="1584.5,-20 1541.5,-20 1541.5,0 1584.5,0 1584.5,-20"/>
<text text-anchor="middle" x="1563" y="-6.5" font-family="Helvetica,sans-Serif" font-size="10.00">vector</text>
</a>
</g>
</g>
<!-- Node13&#45;&gt;Node17 -->
<g id="edge16_Node000013_Node000017" class="edge">
<title>Node13&#45;&gt;Node17</title>
<g id="a_edge16_Node000013_Node000017"><a xlink:title=" ">
<path fill="none" stroke="#63b8ff" d="M1414.26,-167.53C1442.9,-151.88 1498.64,-118.14 1533,-76 1543.93,-62.59 1551.85,-44.54 1556.79,-30.87"/>
<polygon fill="#63b8ff" stroke="#63b8ff" points="1560.03,-32.23 1559.89,-21.63 1553.39,-30 1560.03,-32.23"/>
</a>
</g>
</g>
<!-- Node18 -->
<g id="Node000018" class="node">
<title>Node18</title>
<g id="a_Node000018"><a xlink:title=" ">
<polygon fill="#e0e0e0" stroke="#999999" points="1687.88,-132 1638.12,-132 1638.12,-112 1687.88,-112 1687.88,-132"/>
<text text-anchor="middle" x="1663" y="-118.5" font-family="Helvetica,sans-Serif" font-size="10.00">optional</text>
</a>
</g>
</g>
<!-- Node13&#45;&gt;Node18 -->
<g id="edge17_Node000013_Node000018" class="edge">
<title>Node13&#45;&gt;Node18</title>
<g id="a_edge17_Node000013_Node000018"><a xlink:title=" ">
<path fill="none" stroke="#63b8ff" d="M1423.75,-172.27C1465.57,-165.01 1547.51,-150.25 1626.65,-132.41"/>
<polygon fill="#63b8ff" stroke="#63b8ff" points="1627.35,-135.84 1636.32,-130.21 1625.79,-129.02 1627.35,-135.84"/>
</a>
</g>
</g>
<!-- Node19 -->
<g id="Node000019" class="node">
<title>Node19</title>
<g id="a_Node000019"><a xlink:href="_date_time_8h.html" target="_top" xlink:title="Defines classes and utilities for working with dates, times, and combined date&#45;time values.">
<polygon fill="white" stroke="#666666" points="1263.5,-132 1196.5,-132 1196.5,-112 1263.5,-112 1263.5,-132"/>
<text text-anchor="middle" x="1230" y="-118.5" font-family="Helvetica,sans-Serif" font-size="10.00">DateTime.h</text>
</a>
</g>
</g>
<!-- Node13&#45;&gt;Node19 -->
<g id="edge18_Node000013_Node000019" class="edge">
<title>Node13&#45;&gt;Node19</title>
<g id="a_edge18_Node000013_Node000019"><a xlink:title=" ">
<path fill="none" stroke="#63b8ff" d="M1368.22,-167.96C1341.25,-159.19 1300.06,-145.79 1269.66,-135.9"/>
<polygon fill="#63b8ff" stroke="#63b8ff" points="1271.02,-132.66 1260.43,-132.9 1268.86,-139.32 1271.02,-132.66"/>
</a>
</g>
</g>
<!-- Node20 -->
<g id="Node000020" class="node">
<title>Node20</title>
<g id="a_Node000020"><a xlink:href="_helper___functions_8h.html" target="_top" xlink:title="Provides utility functions and templates for common operations.">
<polygon fill="white" stroke="#666666" points="1524.38,-76 1423.62,-76 1423.62,-56 1524.38,-56 1524.38,-76"/>
<text text-anchor="middle" x="1474" y="-62.5" font-family="Helvetica,sans-Serif" font-size="10.00">Helper_Functions.h</text>
</a>
</g>
</g>
<!-- Node13&#45;&gt;Node20 -->
<g id="edge34_Node000013_Node000020" class="edge">
<title>Node13&#45;&gt;Node20</title>
<g id="a_edge34_Node000013_Node000020"><a xlink:title=" ">
<path fill="none" stroke="#63b8ff" d="M1402.65,-167.62C1415.49,-149.52 1443.9,-109.45 1460.74,-85.7"/>
<polygon fill="#63b8ff" stroke="#63b8ff" points="1463.56,-87.77 1466.49,-77.59 1457.85,-83.72 1463.56,-87.77"/>
</a>
</g>
</g>
<!-- Node26 -->
<g id="Node000026" class="node">
<title>Node26</title>
<g id="a_Node000026"><a xlink:href="_data___helper___types_8h.html" target="_top" xlink:title="Defines utility classes for managing contact&#45;related data such as email, phone, and address.">
<polygon fill="white" stroke="#666666" points="1368.25,-76 1257.75,-76 1257.75,-56 1368.25,-56 1368.25,-76"/>
<text text-anchor="middle" x="1313" y="-62.5" font-family="Helvetica,sans-Serif" font-size="10.00">Data_Helper_Types.h</text>
</a>
</g>
</g>
<!-- Node13&#45;&gt;Node26 -->
<g id="edge32_Node000013_Node000026" class="edge">
<title>Node13&#45;&gt;Node26</title>
<g id="a_edge32_Node000013_Node000026"><a xlink:title=" ">
<path fill="none" stroke="#63b8ff" d="M1388.92,-167.62C1375.2,-149.44 1344.76,-109.09 1326.87,-85.38"/>
<polygon fill="#63b8ff" stroke="#63b8ff" points="1329.79,-83.44 1320.97,-77.56 1324.2,-87.65 1329.79,-83.44"/>
</a>
</g>
</g>
<!-- Node19&#45;&gt;Node14 -->
<g id="edge30_Node000019_Node000014" class="edge">
<title>Node19&#45;&gt;Node14</title>
<g id="a_edge30_Node000019_Node000014"><a xlink:title=" ">
<path fill="none" stroke="#63b8ff" d="M1196.3,-121.18C1160.15,-119.45 1103.66,-110.82 1072,-76 1061.13,-64.05 1058.59,-45.59 1058.5,-31.39"/>
<polygon fill="#63b8ff" stroke="#63b8ff" points="1061.98,-31.91 1058.85,-21.79 1054.99,-31.66 1061.98,-31.91"/>
</a>
</g>
</g>
<!-- Node19&#45;&gt;Node15 -->
<g id="edge31_Node000019_Node000015" class="edge">
<title>Node19&#45;&gt;Node15</title>
<g id="a_edge31_Node000019_Node000015"><a xlink:title=" ">
<path fill="none" stroke="#63b8ff" d="M1231.01,-111.92C1232.82,-98.71 1237.56,-73.81 1249,-56 1256.24,-44.73 1267.11,-34.7 1277.05,-26.98"/>
<polygon fill="#63b8ff" stroke="#63b8ff" points="1278.92,-29.96 1284.92,-21.23 1274.78,-24.31 1278.92,-29.96"/>
</a>
</g>
</g>
<!-- Node19&#45;&gt;Node20 -->
<g id="edge19_Node000019_Node000020" class="edge">
<title>Node19&#45;&gt;Node20</title>
<g id="a_edge19_Node000019_Node000020"><a xlink:title=" ">
<path fill="none" stroke="#63b8ff" d="M1263.93,-113.49C1304.42,-104.53 1372.62,-89.44 1420.3,-78.89"/>
<polygon fill="#63b8ff" stroke="#63b8ff" points="1420.86,-82.35 1429.86,-76.77 1419.34,-75.51 1420.86,-82.35"/>
</a>
</g>
</g>
<!-- Node24 -->
<g id="Node000024" class="node">
<title>Node24</title>
<g id="a_Node000024"><a xlink:href="_date_time___exceptions_8h.html" target="_top" xlink:title="Defines error messages and the DateTimeError exception class for date and time operations.">
<polygon fill="white" stroke="#666666" points="1201.5,-76 1080.5,-76 1080.5,-56 1201.5,-56 1201.5,-76"/>
<text text-anchor="middle" x="1141" y="-62.5" font-family="Helvetica,sans-Serif" font-size="10.00">DateTime_Exceptions.h</text>
</a>
</g>
</g>
<!-- Node19&#45;&gt;Node24 -->
<g id="edge26_Node000019_Node000024" class="edge">
<title>Node19&#45;&gt;Node24</title>
<g id="a_edge26_Node000019_Node000024"><a xlink:title=" ">
<path fill="none" stroke="#63b8ff" d="M1214.5,-111.59C1201.18,-103.51 1181.72,-91.71 1166.17,-82.27"/>
<polygon fill="#63b8ff" stroke="#63b8ff" points="1168.28,-79.46 1157.92,-77.26 1164.65,-85.44 1168.28,-79.46"/>
</a>
</g>
</g>
<!-- Node20&#45;&gt;Node14 -->
<g id="edge20_Node000020_Node000014" class="edge">
<title>Node20&#45;&gt;Node14</title>
<g id="a_edge20_Node000020_Node000014"><a xlink:title=" ">
<path fill="none" stroke="#63b8ff" d="M1423.4,-60.25C1351.8,-53.21 1216.95,-38.8 1103,-20 1101.4,-19.74 1099.77,-19.45 1098.13,-19.16"/>
<polygon fill="#63b8ff" stroke="#63b8ff" points="1099.2,-15.8 1088.72,-17.35 1097.88,-22.67 1099.2,-15.8"/>
</a>
</g>
</g>
<!-- Node20&#45;&gt;Node15 -->
<g id="edge21_Node000020_Node000015" class="edge">
<title>Node20&#45;&gt;Node15</title>
<g id="a_edge21_Node000020_Node000015"><a xlink:title=" ">
<path fill="none" stroke="#63b8ff" d="M1443.87,-55.59C1412.57,-45.82 1363.83,-30.61 1332.16,-20.73"/>
<polygon fill="#63b8ff" stroke="#63b8ff" points="1333.36,-17.43 1322.77,-17.8 1331.28,-24.12 1333.36,-17.43"/>
</a>
</g>
</g>
<!-- Node20&#45;&gt;Node17 -->
<g id="edge22_Node000020_Node000017" class="edge">
<title>Node20&#45;&gt;Node17</title>
<g id="a_edge22_Node000020_Node000017"><a xlink:title=" ">
<path fill="none" stroke="#63b8ff" d="M1489.5,-55.59C1502.82,-47.51 1522.28,-35.71 1537.83,-26.27"/>
<polygon fill="#63b8ff" stroke="#63b8ff" points="1539.35,-29.44 1546.08,-21.26 1535.72,-23.46 1539.35,-29.44"/>
</a>
</g>
</g>
<!-- Node21 -->
<g id="Node000021" class="node">
<title>Node21</title>
<g id="a_Node000021"><a xlink:title=" ">
<polygon fill="#e0e0e0" stroke="#999999" points="1394.88,-20 1339.12,-20 1339.12,0 1394.88,0 1394.88,-20"/>
<text text-anchor="middle" x="1367" y="-6.5" font-family="Helvetica,sans-Serif" font-size="10.00">algorithm</text>
</a>
</g>
</g>
<!-- Node20&#45;&gt;Node21 -->
<g id="edge23_Node000020_Node000021" class="edge">
<title>Node20&#45;&gt;Node21</title>
<g id="a_edge23_Node000020_Node000021"><a xlink:title=" ">
<path fill="none" stroke="#63b8ff" d="M1455.36,-55.59C1438.97,-47.32 1414.84,-35.14 1395.94,-25.6"/>
<polygon fill="#63b8ff" stroke="#63b8ff" points="1397.64,-22.54 1387.13,-21.16 1394.49,-28.79 1397.64,-22.54"/>
</a>
</g>
</g>
<!-- Node22 -->
<g id="Node000022" class="node">
<title>Node22</title>
<g id="a_Node000022"><a xlink:title=" ">
<polygon fill="#e0e0e0" stroke="#999999" points="1471,-20 1413,-20 1413,0 1471,0 1471,-20"/>
<text text-anchor="middle" x="1442" y="-6.5" font-family="Helvetica,sans-Serif" font-size="10.00">functional</text>
</a>
</g>
</g>
<!-- Node20&#45;&gt;Node22 -->
<g id="edge24_Node000020_Node000022" class="edge">
<title>Node20&#45;&gt;Node22</title>
<g id="a_edge24_Node000020_Node000022"><a xlink:title=" ">
<path fill="none" stroke="#63b8ff" d="M1468.43,-55.59C1464.25,-48.55 1458.4,-38.67 1453.26,-30"/>
<polygon fill="#63b8ff" stroke="#63b8ff" points="1456.39,-28.42 1448.28,-21.6 1450.37,-31.99 1456.39,-28.42"/>
</a>
</g>
</g>
<!-- Node23 -->
<g id="Node000023" class="node">
<title>Node23</title>
<g id="a_Node000023"><a xlink:title=" ">
<polygon fill="#e0e0e0" stroke="#999999" points="1523.38,-20 1488.62,-20 1488.62,0 1523.38,0 1523.38,-20"/>
<text text-anchor="middle" x="1506" y="-6.5" font-family="Helvetica,sans-Serif" font-size="10.00">map</text>
</a>
</g>
</g>
<!-- Node20&#45;&gt;Node23 -->
<g id="edge25_Node000020_Node000023" class="edge">
<title>Node20&#45;&gt;Node23</title>
<g id="a_edge25_Node000020_Node000023"><a xlink:title=" ">
<path fill="none" stroke="#63b8ff" d="M1479.57,-55.59C1483.75,-48.55 1489.6,-38.67 1494.74,-30"/>
<polygon fill="#63b8ff" stroke="#63b8ff" points="1497.63,-31.99 1499.72,-21.6 1491.61,-28.42 1497.63,-31.99"/>
</a>
</g>
</g>
<!-- Node24&#45;&gt;Node14 -->
<g id="edge28_Node000024_Node000014" class="edge">
<title>Node24&#45;&gt;Node14</title>
<g id="a_edge28_Node000024_Node000014"><a xlink:title=" ">
<path fill="none" stroke="#63b8ff" d="M1126.89,-55.59C1115,-47.67 1097.73,-36.16 1083.72,-26.82"/>
<polygon fill="#63b8ff" stroke="#63b8ff" points="1085.74,-23.95 1075.48,-21.32 1081.86,-29.78 1085.74,-23.95"/>
</a>
</g>
</g>
<!-- Node24&#45;&gt;Node15 -->
<g id="edge27_Node000024_Node000015" class="edge">
<title>Node24&#45;&gt;Node15</title>
<g id="a_edge27_Node000024_Node000015"><a xlink:title=" ">
<path fill="none" stroke="#63b8ff" d="M1168.87,-55.59C1197.01,-46.1 1240.39,-31.46 1269.69,-21.57"/>
<polygon fill="#63b8ff" stroke="#63b8ff" points="1270.76,-24.9 1279.12,-18.38 1268.52,-18.27 1270.76,-24.9"/>
</a>
</g>
</g>
<!-- Node25 -->
<g id="Node000025" class="node">
<title>Node25</title>
<g id="a_Node000025"><a xlink:title=" ">
<polygon fill="#e0e0e0" stroke="#999999" points="1170,-20 1112,-20 1112,0 1170,0 1170,-20"/>
<text text-anchor="middle" x="1141" y="-6.5" font-family="Helvetica,sans-Serif" font-size="10.00">exception</text>
</a>
</g>
</g>
<!-- Node24&#45;&gt;Node25 -->
<g id="edge29_Node000024_Node000025" class="edge">
<title>Node24&#45;&gt;Node25</title>
<g id="a_edge29_Node000024_Node000025"><a xlink:title=" ">
<path fill="none" stroke="#63b8ff" d="M1141,-55.59C1141,-49.01 1141,-39.96 1141,-31.73"/>
<polygon fill="#63b8ff" stroke="#63b8ff" points="1144.5,-31.81 1141,-21.81 1137.5,-31.81 1144.5,-31.81"/>
</a>
</g>
</g>
<!-- Node26&#45;&gt;Node15 -->
<g id="edge33_Node000026_Node000015" class="edge">
<title>Node26&#45;&gt;Node15</title>
<g id="a_edge33_Node000026_Node000015"><a xlink:title=" ">
<path fill="none" stroke="#63b8ff" d="M1310.91,-55.59C1309.43,-48.93 1307.39,-39.75 1305.54,-31.44"/>
<polygon fill="#63b8ff" stroke="#63b8ff" points="1308.98,-30.78 1303.39,-21.78 1302.15,-32.3 1308.98,-30.78"/>
</a>
</g>
</g>
</g>
</svg>
