<?xml version="1.0" encoding="UTF-8" standalone="no"?>
<!DOCTYPE svg PUBLIC "-//W3C//DTD SVG 1.1//EN"
 "http://www.w3.org/Graphics/SVG/1.1/DTD/svg11.dtd">
<!-- Generated by graphviz version 12.2.1 (20241206.2353)
 -->
<!-- Title: TullipApp/Helper_Functions.h Pages: 1 -->
<svg width="383pt" height="84pt"
 viewBox="0.00 0.00 383.12 84.00" xmlns="http://www.w3.org/2000/svg" xmlns:xlink="http://www.w3.org/1999/xlink">
<g id="graph0" class="graph" transform="scale(1 1) rotate(0) translate(4 80)">
<title>TullipApp/Helper_Functions.h</title>
<!-- Node1 -->
<g id="Node000001" class="node">
<title>Node1</title>
<g id="a_Node000001"><a xlink:title="Provides utility functions and templates for common operations.">
<polygon fill="#999999" stroke="#666666" points="256.88,-76 112.62,-76 112.62,-56 256.88,-56 256.88,-76"/>
<text text-anchor="middle" x="184.75" y="-62.5" font-family="Helvetica,sans-Serif" font-size="10.00">TullipApp/Helper_Functions.h</text>
</a>
</g>
</g>
<!-- Node2 -->
<g id="Node000002" class="node">
<title>Node2</title>
<g id="a_Node000002"><a xlink:title=" ">
<polygon fill="#e0e0e0" stroke="#999999" points="53.5,-20 0,-20 0,0 53.5,0 53.5,-20"/>
<text text-anchor="middle" x="26.75" y="-6.5" font-family="Helvetica,sans-Serif" font-size="10.00">iostream</text>
</a>
</g>
</g>
<!-- Node1&#45;&gt;Node2 -->
<g id="edge1_Node000001_Node000002" class="edge">
<title>Node1&#45;&gt;Node2</title>
<g id="a_edge1_Node000001_Node000002"><a xlink:title=" ">
<path fill="none" stroke="#63b8ff" d="M157.23,-55.59C131.63,-46.84 93.25,-33.73 64.74,-23.98"/>
<polygon fill="#63b8ff" stroke="#63b8ff" points="65.98,-20.71 55.39,-20.79 63.72,-27.33 65.98,-20.71"/>
</a>
</g>
</g>
<!-- Node3 -->
<g id="Node000003" class="node">
<title>Node3</title>
<g id="a_Node000003"><a xlink:title=" ">
<polygon fill="#e0e0e0" stroke="#999999" points="111.75,-20 71.75,-20 71.75,0 111.75,0 111.75,-20"/>
<text text-anchor="middle" x="91.75" y="-6.5" font-family="Helvetica,sans-Serif" font-size="10.00">string</text>
</a>
</g>
</g>
<!-- Node1&#45;&gt;Node3 -->
<g id="edge2_Node000001_Node000003" class="edge">
<title>Node1&#45;&gt;Node3</title>
<g id="a_edge2_Node000001_Node000003"><a xlink:title=" ">
<path fill="none" stroke="#63b8ff" d="M168.55,-55.59C154.5,-47.44 133.92,-35.48 117.59,-26"/>
<polygon fill="#63b8ff" stroke="#63b8ff" points="119.79,-23.23 109.38,-21.24 116.28,-29.29 119.79,-23.23"/>
</a>
</g>
</g>
<!-- Node4 -->
<g id="Node000004" class="node">
<title>Node4</title>
<g id="a_Node000004"><a xlink:title=" ">
<polygon fill="#e0e0e0" stroke="#999999" points="173.25,-20 130.25,-20 130.25,0 173.25,0 173.25,-20"/>
<text text-anchor="middle" x="151.75" y="-6.5" font-family="Helvetica,sans-Serif" font-size="10.00">vector</text>
</a>
</g>
</g>
<!-- Node1&#45;&gt;Node4 -->
<g id="edge3_Node000001_Node000004" class="edge">
<title>Node1&#45;&gt;Node4</title>
<g id="a_edge3_Node000001_Node000004"><a xlink:title=" ">
<path fill="none" stroke="#63b8ff" d="M179,-55.59C174.7,-48.55 168.66,-38.67 163.36,-30"/>
<polygon fill="#63b8ff" stroke="#63b8ff" points="166.42,-28.3 158.22,-21.59 160.45,-31.95 166.42,-28.3"/>
</a>
</g>
</g>
<!-- Node5 -->
<g id="Node000005" class="node">
<title>Node5</title>
<g id="a_Node000005"><a xlink:title=" ">
<polygon fill="#e0e0e0" stroke="#999999" points="246.62,-20 190.88,-20 190.88,0 246.62,0 246.62,-20"/>
<text text-anchor="middle" x="218.75" y="-6.5" font-family="Helvetica,sans-Serif" font-size="10.00">algorithm</text>
</a>
</g>
</g>
<!-- Node1&#45;&gt;Node5 -->
<g id="edge4_Node000001_Node000005" class="edge">
<title>Node1&#45;&gt;Node5</title>
<g id="a_edge4_Node000001_Node000005"><a xlink:title=" ">
<path fill="none" stroke="#63b8ff" d="M190.67,-55.59C195.11,-48.55 201.33,-38.67 206.79,-30"/>
<polygon fill="#63b8ff" stroke="#63b8ff" points="209.72,-31.91 212.09,-21.58 203.8,-28.18 209.72,-31.91"/>
</a>
</g>
</g>
<!-- Node6 -->
<g id="Node000006" class="node">
<title>Node6</title>
<g id="a_Node000006"><a xlink:title=" ">
<polygon fill="#e0e0e0" stroke="#999999" points="322.75,-20 264.75,-20 264.75,0 322.75,0 322.75,-20"/>
<text text-anchor="middle" x="293.75" y="-6.5" font-family="Helvetica,sans-Serif" font-size="10.00">functional</text>
</a>
</g>
</g>
<!-- Node1&#45;&gt;Node6 -->
<g id="edge5_Node000001_Node000006" class="edge">
<title>Node1&#45;&gt;Node6</title>
<g id="a_edge5_Node000001_Node000006"><a xlink:title=" ">
<path fill="none" stroke="#63b8ff" d="M203.74,-55.59C220.51,-47.28 245.24,-35.03 264.54,-25.47"/>
<polygon fill="#63b8ff" stroke="#63b8ff" points="265.85,-28.73 273.26,-21.15 262.74,-22.45 265.85,-28.73"/>
</a>
</g>
</g>
<!-- Node7 -->
<g id="Node000007" class="node">
<title>Node7</title>
<g id="a_Node000007"><a xlink:title=" ">
<polygon fill="#e0e0e0" stroke="#999999" points="375.12,-20 340.38,-20 340.38,0 375.12,0 375.12,-20"/>
<text text-anchor="middle" x="357.75" y="-6.5" font-family="Helvetica,sans-Serif" font-size="10.00">map</text>
</a>
</g>
</g>
<!-- Node1&#45;&gt;Node7 -->
<g id="edge6_Node000001_Node000007" class="edge">
<title>Node1&#45;&gt;Node7</title>
<g id="a_edge6_Node000001_Node000007"><a xlink:title=" ">
<path fill="none" stroke="#63b8ff" d="M216.97,-55.5C244.55,-47.29 285.56,-34.9 329.07,-20.8"/>
<polygon fill="#63b8ff" stroke="#63b8ff" points="330.01,-24.18 338.44,-17.75 327.84,-17.52 330.01,-24.18"/>
</a>
</g>
</g>
</g>
</svg>
