<?xml version="1.0" encoding="UTF-8" standalone="no"?>
<!DOCTYPE svg PUBLIC "-//W3C//DTD SVG 1.1//EN"
 "http://www.w3.org/Graphics/SVG/1.1/DTD/svg11.dtd">
<!-- Generated by graphviz version 12.2.1 (20241206.2353)
 -->
<!-- Title: filter Pages: 1 -->
<svg width="361pt" height="666pt"
 viewBox="0.00 0.00 361.25 666.00" xmlns="http://www.w3.org/2000/svg" xmlns:xlink="http://www.w3.org/1999/xlink">
<g id="graph0" class="graph" transform="scale(1 1) rotate(0) translate(4 662)">
<title>filter</title>
<!-- Node1 -->
<g id="Node000001" class="node">
<title>Node1</title>
<g id="a_Node000001"><a xlink:title="Filters a vector of pointers based on a predicate.">
<polygon fill="#999999" stroke="#666666" points="353.25,-348 318.5,-348 318.5,-328 353.25,-328 353.25,-348"/>
<text text-anchor="middle" x="335.88" y="-334.5" font-family="Helvetica,sans-Serif" font-size="10.00">filter</text>
</a>
</g>
</g>
<!-- Node2 -->
<g id="Node000002" class="node">
<title>Node2</title>
<g id="a_Node000002"><a xlink:href="$class_database.html#a14779910c7ac1a1265fce5a1ea3a4ef3" xlink:title="Filters children by age.">
<polygon fill="white" stroke="#666666" points="271.62,-658 163.38,-658 163.38,-626 271.62,-626 271.62,-658"/>
<text text-anchor="start" x="171.38" y="-644.5" font-family="Helvetica,sans-Serif" font-size="10.00">Database::filter_child</text>
<text text-anchor="middle" x="217.5" y="-632.5" font-family="Helvetica,sans-Serif" font-size="10.00">_by_age</text>
</a>
</g>
</g>
<!-- Node1&#45;&gt;Node2 -->
<g id="edge1_Node000001_Node000002" class="edge">
<title>Node1&#45;&gt;Node2</title>
<g id="a_edge1_Node000001_Node000002"><a xlink:title=" ">
<path fill="none" stroke="#63b8ff" d="M333.26,-359.65C328.57,-417.22 313.31,-572.36 282.5,-612 278.28,-617.43 272.85,-621.91 266.93,-625.61"/>
<polygon fill="#63b8ff" stroke="#63b8ff" points="336.73,-360.11 334.02,-349.87 329.75,-359.56 336.73,-360.11"/>
</a>
</g>
</g>
<!-- Node3 -->
<g id="Node000003" class="node">
<title>Node3</title>
<g id="a_Node000003"><a xlink:href="$class_database.html#a448f32cb2e58118d83634666431562c2" xlink:title="Filters children by name.">
<polygon fill="white" stroke="#666666" points="271.62,-570 163.38,-570 163.38,-538 271.62,-538 271.62,-570"/>
<text text-anchor="start" x="171.38" y="-556.5" font-family="Helvetica,sans-Serif" font-size="10.00">Database::filter_child</text>
<text text-anchor="middle" x="217.5" y="-544.5" font-family="Helvetica,sans-Serif" font-size="10.00">_by_name</text>
</a>
</g>
</g>
<!-- Node1&#45;&gt;Node3 -->
<g id="edge2_Node000001_Node000003" class="edge">
<title>Node1&#45;&gt;Node3</title>
<g id="a_edge2_Node000001_Node000003"><a xlink:title=" ">
<path fill="none" stroke="#63b8ff" d="M334.95,-359.57C333.93,-398.35 326.32,-480.33 282.5,-529 279.47,-532.37 275.92,-535.29 272.09,-537.82"/>
<polygon fill="#63b8ff" stroke="#63b8ff" points="338.45,-359.74 335.07,-349.7 331.45,-359.66 338.45,-359.74"/>
</a>
</g>
</g>
<!-- Node4 -->
<g id="Node000004" class="node">
<title>Node4</title>
<g id="a_Node000004"><a xlink:href="$class_database.html#ad8e7c7035665c903a8a34b5dbff4e2a6" xlink:title="Filters lessons by a child&#39;s name.">
<polygon fill="white" stroke="#666666" points="116.5,-592 0,-592 0,-560 116.5,-560 116.5,-592"/>
<text text-anchor="start" x="8" y="-578.5" font-family="Helvetica,sans-Serif" font-size="10.00">Database::filter_lesson</text>
<text text-anchor="middle" x="58.25" y="-566.5" font-family="Helvetica,sans-Serif" font-size="10.00">_by_child_name</text>
</a>
</g>
</g>
<!-- Node1&#45;&gt;Node4 -->
<g id="edge13_Node000001_Node000004" class="edge">
<title>Node1&#45;&gt;Node4</title>
<g id="a_edge13_Node000001_Node000004"><a xlink:title=" ">
<path fill="none" stroke="#63b8ff" d="M333.54,-359.56C329.71,-413.4 316.68,-551.45 282.5,-579 233.16,-618.77 155.78,-606.52 106.3,-592.47"/>
<polygon fill="#63b8ff" stroke="#63b8ff" points="337.01,-360.05 334.19,-349.84 330.03,-359.58 337.01,-360.05"/>
</a>
</g>
</g>
<!-- Node6 -->
<g id="Node000006" class="node">
<title>Node6</title>
<g id="a_Node000006"><a xlink:href="$class_database.html#a93adb69fe9d3d5d0566feaeede6027f9" xlink:title="Filters children by a parent&#39;s name.">
<polygon fill="white" stroke="#666666" points="271.62,-520 163.38,-520 163.38,-488 271.62,-488 271.62,-520"/>
<text text-anchor="start" x="171.38" y="-506.5" font-family="Helvetica,sans-Serif" font-size="10.00">Database::filter_child</text>
<text text-anchor="middle" x="217.5" y="-494.5" font-family="Helvetica,sans-Serif" font-size="10.00">_by_parent_name</text>
</a>
</g>
</g>
<!-- Node1&#45;&gt;Node6 -->
<g id="edge5_Node000001_Node000006" class="edge">
<title>Node1&#45;&gt;Node6</title>
<g id="a_edge5_Node000001_Node000006"><a xlink:title=" ">
<path fill="none" stroke="#63b8ff" d="M332.43,-359.4C327.86,-389.83 315.33,-445.62 282.5,-479 279.32,-482.23 275.68,-485.06 271.77,-487.52"/>
<polygon fill="#63b8ff" stroke="#63b8ff" points="335.84,-360.26 333.69,-349.89 328.91,-359.34 335.84,-360.26"/>
</a>
</g>
</g>
<!-- Node7 -->
<g id="Node000007" class="node">
<title>Node7</title>
<g id="a_Node000007"><a xlink:href="$class_database.html#a80f30da6596492aaea6a1049f0d07c4d" xlink:title="Filters children by a parent&#39;s surname.">
<polygon fill="white" stroke="#666666" points="271.62,-470 163.38,-470 163.38,-438 271.62,-438 271.62,-470"/>
<text text-anchor="start" x="171.38" y="-456.5" font-family="Helvetica,sans-Serif" font-size="10.00">Database::filter_child</text>
<text text-anchor="middle" x="217.5" y="-444.5" font-family="Helvetica,sans-Serif" font-size="10.00">_by_parent_surname</text>
</a>
</g>
</g>
<!-- Node1&#45;&gt;Node7 -->
<g id="edge6_Node000001_Node000007" class="edge">
<title>Node1&#45;&gt;Node7</title>
<g id="a_edge6_Node000001_Node000007"><a xlink:title=" ">
<path fill="none" stroke="#63b8ff" d="M327.58,-358.9C319.48,-379.32 304.56,-410.02 282.5,-429 278.7,-432.27 274.43,-435.14 269.94,-437.65"/>
<polygon fill="#63b8ff" stroke="#63b8ff" points="330.81,-360.24 331.03,-349.65 324.26,-357.79 330.81,-360.24"/>
</a>
</g>
</g>
<!-- Node8 -->
<g id="Node000008" class="node">
<title>Node8</title>
<g id="a_Node000008"><a xlink:href="$class_database.html#a48cdf44f55b29d6141c5e00b88fa4d22" xlink:title="Filters children by surname.">
<polygon fill="white" stroke="#666666" points="271.62,-420 163.38,-420 163.38,-388 271.62,-388 271.62,-420"/>
<text text-anchor="start" x="171.38" y="-406.5" font-family="Helvetica,sans-Serif" font-size="10.00">Database::filter_child</text>
<text text-anchor="middle" x="217.5" y="-394.5" font-family="Helvetica,sans-Serif" font-size="10.00">_by_surname</text>
</a>
</g>
</g>
<!-- Node1&#45;&gt;Node8 -->
<g id="edge7_Node000001_Node000008" class="edge">
<title>Node1&#45;&gt;Node8</title>
<g id="a_edge7_Node000001_Node000008"><a xlink:title=" ">
<path fill="none" stroke="#63b8ff" d="M311.72,-355.12C302.8,-361.4 292.38,-368.34 282.5,-374 274.19,-378.76 265.01,-383.4 256.25,-387.56"/>
<polygon fill="#63b8ff" stroke="#63b8ff" points="313.74,-357.98 319.82,-349.31 309.66,-352.29 313.74,-357.98"/>
</a>
</g>
</g>
<!-- Node9 -->
<g id="Node000009" class="node">
<title>Node9</title>
<g id="a_Node000009"><a xlink:href="$class_database.html#abcc5c80902d844addb9fe92b8524976a" xlink:title="Filters lessons by a child&#39;s surname.">
<polygon fill="white" stroke="#666666" points="116.5,-398 0,-398 0,-366 116.5,-366 116.5,-398"/>
<text text-anchor="start" x="8" y="-384.5" font-family="Helvetica,sans-Serif" font-size="10.00">Database::filter_lesson</text>
<text text-anchor="middle" x="58.25" y="-372.5" font-family="Helvetica,sans-Serif" font-size="10.00">_by_child_surname</text>
</a>
</g>
</g>
<!-- Node1&#45;&gt;Node9 -->
<g id="edge14_Node000001_Node000009" class="edge">
<title>Node1&#45;&gt;Node9</title>
<g id="a_edge14_Node000001_Node000009"><a xlink:title=" ">
<path fill="none" stroke="#63b8ff" d="M306.71,-342.5C262.28,-349.59 175.01,-363.52 116.9,-372.8"/>
<polygon fill="#63b8ff" stroke="#63b8ff" points="307.23,-345.96 316.55,-340.92 306.13,-339.05 307.23,-345.96"/>
</a>
</g>
</g>
<!-- Node10 -->
<g id="Node000010" class="node">
<title>Node10</title>
<g id="a_Node000010"><a xlink:href="$class_database.html#a88926e9ac3cee00919043867779c00a8" xlink:title="Filters employees by name.">
<polygon fill="white" stroke="#666666" points="282.5,-332 152.5,-332 152.5,-300 282.5,-300 282.5,-332"/>
<text text-anchor="start" x="160.5" y="-318.5" font-family="Helvetica,sans-Serif" font-size="10.00">Database::filter_employee</text>
<text text-anchor="middle" x="217.5" y="-306.5" font-family="Helvetica,sans-Serif" font-size="10.00">_by_name</text>
</a>
</g>
</g>
<!-- Node1&#45;&gt;Node10 -->
<g id="edge10_Node000001_Node000010" class="edge">
<title>Node1&#45;&gt;Node10</title>
<g id="a_edge10_Node000001_Node000010"><a xlink:title=" ">
<path fill="none" stroke="#63b8ff" d="M307.09,-332.75C299.69,-331.35 291.38,-329.78 282.89,-328.17"/>
<polygon fill="#63b8ff" stroke="#63b8ff" points="306.24,-336.15 316.71,-334.57 307.54,-329.27 306.24,-336.15"/>
</a>
</g>
</g>
<!-- Node11 -->
<g id="Node000011" class="node">
<title>Node11</title>
<g id="a_Node000011"><a xlink:href="$class_database.html#a1cf2bc66256478999550845c5faa4b34" xlink:title="Filters employees by surname.">
<polygon fill="white" stroke="#666666" points="282.5,-282 152.5,-282 152.5,-250 282.5,-250 282.5,-282"/>
<text text-anchor="start" x="160.5" y="-268.5" font-family="Helvetica,sans-Serif" font-size="10.00">Database::filter_employee</text>
<text text-anchor="middle" x="217.5" y="-256.5" font-family="Helvetica,sans-Serif" font-size="10.00">_by_surname</text>
</a>
</g>
</g>
<!-- Node1&#45;&gt;Node11 -->
<g id="edge11_Node000001_Node000011" class="edge">
<title>Node1&#45;&gt;Node11</title>
<g id="a_edge11_Node000001_Node000011"><a xlink:title=" ">
<path fill="none" stroke="#63b8ff" d="M317.76,-319.74C308.1,-310.22 295.4,-298.94 282.5,-291 277.42,-287.87 271.88,-285.01 266.26,-282.44"/>
<polygon fill="#63b8ff" stroke="#63b8ff" points="315.14,-322.07 324.63,-326.76 320.13,-317.17 315.14,-322.07"/>
</a>
</g>
</g>
<!-- Node12 -->
<g id="Node000012" class="node">
<title>Node12</title>
<g id="a_Node000012"><a xlink:href="$class_database.html#aaf8229f4fd051bff7fcb7c91c40a0c56" xlink:title="Filters lessons by address.">
<polygon fill="white" stroke="#666666" points="275.75,-232 159.25,-232 159.25,-200 275.75,-200 275.75,-232"/>
<text text-anchor="start" x="167.25" y="-218.5" font-family="Helvetica,sans-Serif" font-size="10.00">Database::filter_lesson</text>
<text text-anchor="middle" x="217.5" y="-206.5" font-family="Helvetica,sans-Serif" font-size="10.00">_by_address</text>
</a>
</g>
</g>
<!-- Node1&#45;&gt;Node12 -->
<g id="edge12_Node000001_Node000012" class="edge">
<title>Node1&#45;&gt;Node12</title>
<g id="a_edge12_Node000001_Node000012"><a xlink:title=" ">
<path fill="none" stroke="#63b8ff" d="M328.39,-317.02C320.68,-295.27 305.85,-261.64 282.5,-241 278.84,-237.76 274.7,-234.92 270.35,-232.43"/>
<polygon fill="#63b8ff" stroke="#63b8ff" points="324.99,-317.89 331.47,-326.28 331.64,-315.68 324.99,-317.89"/>
</a>
</g>
</g>
<!-- Node13 -->
<g id="Node000013" class="node">
<title>Node13</title>
<g id="a_Node000013"><a xlink:href="$class_database.html#a3ab08425557dc0b07c6452f30c5a2710" xlink:title="Filters lessons by day.">
<polygon fill="white" stroke="#666666" points="275.75,-182 159.25,-182 159.25,-150 275.75,-150 275.75,-182"/>
<text text-anchor="start" x="167.25" y="-168.5" font-family="Helvetica,sans-Serif" font-size="10.00">Database::filter_lesson</text>
<text text-anchor="middle" x="217.5" y="-156.5" font-family="Helvetica,sans-Serif" font-size="10.00">_by_day</text>
</a>
</g>
</g>
<!-- Node1&#45;&gt;Node13 -->
<g id="edge15_Node000001_Node000013" class="edge">
<title>Node1&#45;&gt;Node13</title>
<g id="a_edge15_Node000001_Node000013"><a xlink:title=" ">
<path fill="none" stroke="#63b8ff" d="M332.76,-316.17C328.58,-284.57 316.49,-226.03 282.5,-191 279.34,-187.75 275.71,-184.91 271.82,-182.43"/>
<polygon fill="#63b8ff" stroke="#63b8ff" points="329.28,-316.53 333.9,-326.06 336.23,-315.73 329.28,-316.53"/>
</a>
</g>
</g>
<!-- Node14 -->
<g id="Node000014" class="node">
<title>Node14</title>
<g id="a_Node000014"><a xlink:href="$class_database.html#a97d19db70a72013ed95a85d5417a37ce" xlink:title="Filters parents by email.">
<polygon fill="white" stroke="#666666" points="275,-132 160,-132 160,-100 275,-100 275,-132"/>
<text text-anchor="start" x="168" y="-118.5" font-family="Helvetica,sans-Serif" font-size="10.00">Database::filter_parent</text>
<text text-anchor="middle" x="217.5" y="-106.5" font-family="Helvetica,sans-Serif" font-size="10.00">_by_email</text>
</a>
</g>
</g>
<!-- Node1&#45;&gt;Node14 -->
<g id="edge16_Node000001_Node000014" class="edge">
<title>Node1&#45;&gt;Node14</title>
<g id="a_edge16_Node000001_Node000014"><a xlink:title=" ">
<path fill="none" stroke="#63b8ff" d="M335.17,-316.02C334.51,-276.16 327.5,-191.38 282.5,-141 279.56,-137.71 276.13,-134.85 272.42,-132.36"/>
<polygon fill="#63b8ff" stroke="#63b8ff" points="331.67,-315.99 335.19,-325.99 338.67,-315.98 331.67,-315.99"/>
</a>
</g>
</g>
<!-- Node15 -->
<g id="Node000015" class="node">
<title>Node15</title>
<g id="a_Node000015"><a xlink:href="$class_database.html#a427341d23d0431b1e75b2c82c412f00a" xlink:title="Filters parents by name.">
<polygon fill="white" stroke="#666666" points="275,-82 160,-82 160,-50 275,-50 275,-82"/>
<text text-anchor="start" x="168" y="-68.5" font-family="Helvetica,sans-Serif" font-size="10.00">Database::filter_parent</text>
<text text-anchor="middle" x="217.5" y="-56.5" font-family="Helvetica,sans-Serif" font-size="10.00">_by_name</text>
</a>
</g>
</g>
<!-- Node1&#45;&gt;Node15 -->
<g id="edge17_Node000001_Node000015" class="edge">
<title>Node1&#45;&gt;Node15</title>
<g id="a_edge17_Node000001_Node000015"><a xlink:title=" ">
<path fill="none" stroke="#63b8ff" d="M332.93,-316.62C327.68,-263.12 311.58,-125.27 282.5,-91 279.72,-87.73 276.46,-84.88 272.9,-82.4"/>
<polygon fill="#63b8ff" stroke="#63b8ff" points="329.42,-316.64 333.85,-326.26 336.39,-315.98 329.42,-316.64"/>
</a>
</g>
</g>
<!-- Node17 -->
<g id="Node000017" class="node">
<title>Node17</title>
<g id="a_Node000017"><a xlink:href="$class_database.html#a09a0e8fe44e256daff05eeba15c22153" xlink:title="Filters parents by surname.">
<polygon fill="white" stroke="#666666" points="275,-32 160,-32 160,0 275,0 275,-32"/>
<text text-anchor="start" x="168" y="-18.5" font-family="Helvetica,sans-Serif" font-size="10.00">Database::filter_parent</text>
<text text-anchor="middle" x="217.5" y="-6.5" font-family="Helvetica,sans-Serif" font-size="10.00">_by_surname</text>
</a>
</g>
</g>
<!-- Node1&#45;&gt;Node17 -->
<g id="edge19_Node000001_Node000017" class="edge">
<title>Node1&#45;&gt;Node17</title>
<g id="a_edge19_Node000001_Node000017"><a xlink:title=" ">
<path fill="none" stroke="#63b8ff" d="M333.76,-316.44C330.22,-255.47 317.28,-83.44 282.5,-41 279.78,-37.68 276.56,-34.8 273.03,-32.3"/>
<polygon fill="#63b8ff" stroke="#63b8ff" points="330.26,-316.38 334.3,-326.17 337.24,-315.99 330.26,-316.38"/>
</a>
</g>
</g>
<!-- Node3&#45;&gt;Node4 -->
<g id="edge3_Node000003_Node000004" class="edge">
<title>Node3&#45;&gt;Node4</title>
<g id="a_edge3_Node000003_Node000004"><a xlink:title=" ">
<path fill="none" stroke="#63b8ff" d="M152.18,-563C140.44,-564.64 128.27,-566.34 116.74,-567.96"/>
<polygon fill="#63b8ff" stroke="#63b8ff" points="152.34,-566.51 161.76,-561.66 151.37,-559.58 152.34,-566.51"/>
</a>
</g>
</g>
<!-- Node5 -->
<g id="Node000005" class="node">
<title>Node5</title>
<g id="a_Node000005"><a xlink:href="$class_database.html#a60ef6f17c1f6e1da26cf7fafd568164f" xlink:title="Gets a child by name and surname.">
<polygon fill="white" stroke="#666666" points="110.12,-506 6.38,-506 6.38,-474 110.12,-474 110.12,-506"/>
<text text-anchor="start" x="14.38" y="-492.5" font-family="Helvetica,sans-Serif" font-size="10.00">Database::get_child</text>
<text text-anchor="middle" x="58.25" y="-480.5" font-family="Helvetica,sans-Serif" font-size="10.00">_by_name_surname</text>
</a>
</g>
</g>
<!-- Node3&#45;&gt;Node5 -->
<g id="edge4_Node000003_Node000005" class="edge">
<title>Node3&#45;&gt;Node5</title>
<g id="a_edge4_Node000003_Node000005"><a xlink:title=" ">
<path fill="none" stroke="#63b8ff" d="M163.55,-533.43C159.8,-531.94 156.09,-530.45 152.5,-529 134.44,-521.7 114.51,-513.4 97.73,-506.33"/>
<polygon fill="#63b8ff" stroke="#63b8ff" points="162.11,-536.62 172.69,-537.04 164.68,-530.11 162.11,-536.62"/>
</a>
</g>
</g>
<!-- Node8&#45;&gt;Node5 -->
<g id="edge9_Node000008_Node000005" class="edge">
<title>Node8&#45;&gt;Node5</title>
<g id="a_edge9_Node000008_Node000005"><a xlink:title=" ">
<path fill="none" stroke="#63b8ff" d="M160.37,-425.14C157.69,-426.4 155.05,-427.69 152.5,-429 127.05,-442.12 99.86,-460.45 81.45,-473.59"/>
<polygon fill="#63b8ff" stroke="#63b8ff" points="161.78,-428.35 169.5,-421.09 158.94,-421.95 161.78,-428.35"/>
</a>
</g>
</g>
<!-- Node8&#45;&gt;Node9 -->
<g id="edge8_Node000008_Node000009" class="edge">
<title>Node8&#45;&gt;Node9</title>
<g id="a_edge8_Node000008_Node000009"><a xlink:title=" ">
<path fill="none" stroke="#63b8ff" d="M152.18,-395C140.44,-393.36 128.27,-391.66 116.74,-390.04"/>
<polygon fill="#63b8ff" stroke="#63b8ff" points="151.37,-398.42 161.76,-396.34 152.34,-391.49 151.37,-398.42"/>
</a>
</g>
</g>
<!-- Node16 -->
<g id="Node000016" class="node">
<title>Node16</title>
<g id="a_Node000016"><a xlink:href="$class_database.html#ad82c8f66e655d641f118c6162139a30b" xlink:title=" ">
<polygon fill="white" stroke="#666666" points="113.12,-57 3.38,-57 3.38,-25 113.12,-25 113.12,-57"/>
<text text-anchor="start" x="11.38" y="-43.5" font-family="Helvetica,sans-Serif" font-size="10.00">Database::get_parent</text>
<text text-anchor="middle" x="58.25" y="-31.5" font-family="Helvetica,sans-Serif" font-size="10.00">_by_name_surname</text>
</a>
</g>
</g>
<!-- Node15&#45;&gt;Node16 -->
<g id="edge18_Node000015_Node000016" class="edge">
<title>Node15&#45;&gt;Node16</title>
<g id="a_edge18_Node000015_Node000016"><a xlink:title=" ">
<path fill="none" stroke="#63b8ff" d="M148.63,-55.21C136.91,-53.35 124.87,-51.43 113.57,-49.64"/>
<polygon fill="#63b8ff" stroke="#63b8ff" points="147.81,-58.62 158.23,-56.74 148.91,-51.71 147.81,-58.62"/>
</a>
</g>
</g>
<!-- Node17&#45;&gt;Node16 -->
<g id="edge20_Node000017_Node000016" class="edge">
<title>Node17&#45;&gt;Node16</title>
<g id="a_edge20_Node000017_Node000016"><a xlink:title=" ">
<path fill="none" stroke="#63b8ff" d="M148.63,-26.79C136.91,-28.65 124.87,-30.57 113.57,-32.36"/>
<polygon fill="#63b8ff" stroke="#63b8ff" points="148.91,-30.29 158.23,-25.26 147.81,-23.38 148.91,-30.29"/>
</a>
</g>
</g>
</g>
</svg>
