<?xml version="1.0" encoding="UTF-8" standalone="no"?>
<!DOCTYPE svg PUBLIC "-//W3C//DTD SVG 1.1//EN"
 "http://www.w3.org/Graphics/SVG/1.1/DTD/svg11.dtd">
<!-- Generated by graphviz version 12.2.1 (20241206.2353)
 -->
<!-- Title: replace_all_occurrences Pages: 1 -->
<svg width="393pt" height="28pt"
 viewBox="0.00 0.00 392.75 28.00" xmlns="http://www.w3.org/2000/svg" xmlns:xlink="http://www.w3.org/1999/xlink">
<g id="graph0" class="graph" transform="scale(1 1) rotate(0) translate(4 24)">
<title>replace_all_occurrences</title>
<!-- Node1 -->
<g id="Node000001" class="node">
<title>Node1</title>
<g id="a_Node000001"><a xlink:title="Replaces all occurrences of a substring within a string.">
<polygon fill="#999999" stroke="#666666" points="384.75,-20 263.75,-20 263.75,0 384.75,0 384.75,-20"/>
<text text-anchor="middle" x="324.25" y="-6.5" font-family="Helvetica,sans-Serif" font-size="10.00">replace_all_occurrences</text>
</a>
</g>
</g>
<!-- Node2 -->
<g id="Node000002" class="node">
<title>Node2</title>
<g id="a_Node000002"><a xlink:href="$class_date.html#a1453e0b6696844fd1fbc1b3961959946" xlink:title="Prints the date in a long format.">
<polygon fill="white" stroke="#666666" points="227.75,-20 142.75,-20 142.75,0 227.75,0 227.75,-20"/>
<text text-anchor="middle" x="185.25" y="-6.5" font-family="Helvetica,sans-Serif" font-size="10.00">Date::print_long</text>
</a>
</g>
</g>
<!-- Node1&#45;&gt;Node2 -->
<g id="edge1_Node000001_Node000002" class="edge">
<title>Node1&#45;&gt;Node2</title>
<g id="a_edge1_Node000001_Node000002"><a xlink:title=" ">
<path fill="none" stroke="#63b8ff" d="M252.28,-10C243.99,-10 235.75,-10 228.05,-10"/>
<polygon fill="#63b8ff" stroke="#63b8ff" points="252.04,-13.5 262.04,-10 252.04,-6.5 252.04,-13.5"/>
</a>
</g>
</g>
<!-- Node3 -->
<g id="Node000003" class="node">
<title>Node3</title>
<g id="a_Node000003"><a xlink:href="$class_date_time.html#a570826a1b0ae205508810b5cdcc6129d" xlink:title="Prints the date and time in a long format.">
<polygon fill="white" stroke="#666666" points="106.75,-20 0,-20 0,0 106.75,0 106.75,-20"/>
<text text-anchor="middle" x="53.38" y="-6.5" font-family="Helvetica,sans-Serif" font-size="10.00">DateTime::print_long</text>
</a>
</g>
</g>
<!-- Node2&#45;&gt;Node3 -->
<g id="edge2_Node000002_Node000003" class="edge">
<title>Node2&#45;&gt;Node3</title>
<g id="a_edge2_Node000002_Node000003"><a xlink:title=" ">
<path fill="none" stroke="#63b8ff" d="M131.06,-10C123.13,-10 114.96,-10 107.05,-10"/>
<polygon fill="#63b8ff" stroke="#63b8ff" points="130.93,-13.5 140.93,-10 130.93,-6.5 130.93,-13.5"/>
</a>
</g>
</g>
</g>
</svg>
