<?xml version="1.0" encoding="UTF-8" standalone="no"?>
<!DOCTYPE svg PUBLIC "-//W3C//DTD SVG 1.1//EN"
 "http://www.w3.org/Graphics/SVG/1.1/DTD/svg11.dtd">
<!-- Generated by graphviz version 12.2.1 (20241206.2353)
 -->
<!-- Title: TullipApp/Helper_Functions.h Pages: 1 -->
<svg width="943pt" height="456pt"
 viewBox="0.00 0.00 943.38 456.00" xmlns="http://www.w3.org/2000/svg" xmlns:xlink="http://www.w3.org/1999/xlink">
<g id="graph0" class="graph" transform="scale(1 1) rotate(0) translate(4 452)">
<title>TullipApp/Helper_Functions.h</title>
<!-- Node1 -->
<g id="Node000001" class="node">
<title>Node1</title>
<g id="a_Node000001"><a xlink:title="Provides utility functions and templates for common operations.">
<polygon fill="#999999" stroke="#666666" points="609.12,-448 464.88,-448 464.88,-428 609.12,-428 609.12,-448"/>
<text text-anchor="middle" x="537" y="-434.5" font-family="Helvetica,sans-Serif" font-size="10.00">TullipApp/Helper_Functions.h</text>
</a>
</g>
</g>
<!-- Node2 -->
<g id="Node000002" class="node">
<title>Node2</title>
<g id="a_Node000002"><a xlink:href="$_data_base_8cpp.html" xlink:title=" ">
<polygon fill="white" stroke="#666666" points="236.88,-156 115.12,-156 115.12,-136 236.88,-136 236.88,-156"/>
<text text-anchor="middle" x="176" y="-142.5" font-family="Helvetica,sans-Serif" font-size="10.00">TullipApp/DataBase.cpp</text>
</a>
</g>
</g>
<!-- Node1&#45;&gt;Node2 -->
<g id="edge1_Node000001_Node000002" class="edge">
<title>Node1&#45;&gt;Node2</title>
<g id="a_edge1_Node000001_Node000002"><a xlink:title=" ">
<path fill="none" stroke="#63b8ff" d="M453.09,-436.94C302.06,-434.55 0,-418.36 0,-327 0,-327 0,-327 0,-269 0,-204.12 81.78,-171.01 133.84,-156.5"/>
<polygon fill="#63b8ff" stroke="#63b8ff" points="453.02,-440.44 463.06,-437.08 453.11,-433.44 453.02,-440.44"/>
</a>
</g>
</g>
<!-- Node3 -->
<g id="Node000003" class="node">
<title>Node3</title>
<g id="a_Node000003"><a xlink:href="$_date_time_8h.html" xlink:title="Defines classes and utilities for working with dates, times, and combined date&#45;time values.">
<polygon fill="white" stroke="#666666" points="592.25,-392 481.75,-392 481.75,-372 592.25,-372 592.25,-392"/>
<text text-anchor="middle" x="537" y="-378.5" font-family="Helvetica,sans-Serif" font-size="10.00">TullipApp/DateTime.h</text>
</a>
</g>
</g>
<!-- Node1&#45;&gt;Node3 -->
<g id="edge2_Node000001_Node000003" class="edge">
<title>Node1&#45;&gt;Node3</title>
<g id="a_edge2_Node000001_Node000003"><a xlink:title=" ">
<path fill="none" stroke="#63b8ff" d="M537,-416.13C537,-407.9 537,-398.85 537,-392.3"/>
<polygon fill="#63b8ff" stroke="#63b8ff" points="533.5,-416.08 537,-426.08 540.5,-416.08 533.5,-416.08"/>
</a>
</g>
</g>
<!-- Node13 -->
<g id="Node000013" class="node">
<title>Node13</title>
<g id="a_Node000013"><a xlink:href="$_lesson_8h.html" xlink:title="Defines the Lesson class, which represents a lesson with its associated details.">
<polygon fill="white" stroke="#666666" points="626.62,-280 527.38,-280 527.38,-260 626.62,-260 626.62,-280"/>
<text text-anchor="middle" x="577" y="-266.5" font-family="Helvetica,sans-Serif" font-size="10.00">TullipApp/Lesson.h</text>
</a>
</g>
</g>
<!-- Node1&#45;&gt;Node13 -->
<g id="edge28_Node000001_Node000013" class="edge">
<title>Node1&#45;&gt;Node13</title>
<g id="a_edge28_Node000001_Node000013"><a xlink:title=" ">
<path fill="none" stroke="#63b8ff" d="M578.36,-423.75C616.61,-409.03 671.17,-381.19 696,-336 713.46,-304.23 666.85,-287.16 626.93,-278.6"/>
<polygon fill="#63b8ff" stroke="#63b8ff" points="577.63,-420.28 569.46,-427.03 580.06,-426.85 577.63,-420.28"/>
</a>
</g>
</g>
<!-- Node15 -->
<g id="Node000015" class="node">
<title>Node15</title>
<g id="a_Node000015"><a xlink:href="$_person_8h.html" xlink:title="Defines the Person class and its derived classes: Child, Parent, and Employee.">
<polygon fill="white" stroke="#666666" points="471.25,-336 372.75,-336 372.75,-316 471.25,-316 471.25,-336"/>
<text text-anchor="middle" x="422" y="-322.5" font-family="Helvetica,sans-Serif" font-size="10.00">TullipApp/Person.h</text>
</a>
</g>
</g>
<!-- Node1&#45;&gt;Node15 -->
<g id="edge29_Node000001_Node000015" class="edge">
<title>Node1&#45;&gt;Node15</title>
<g id="a_edge29_Node000001_Node000015"><a xlink:title=" ">
<path fill="none" stroke="#63b8ff" d="M511.38,-421.48C499.12,-413.45 484.62,-403.03 473,-392 454.27,-374.23 436.67,-349.31 427.86,-336.09"/>
<polygon fill="#63b8ff" stroke="#63b8ff" points="509.45,-424.4 519.76,-426.81 513.21,-418.49 509.45,-424.4"/>
</a>
</g>
</g>
<!-- Node20 -->
<g id="Node000020" class="node">
<title>Node20</title>
<g id="a_Node000020"><a xlink:href="$_helper___functions_8cpp.html" xlink:title=" ">
<polygon fill="white" stroke="#666666" points="935.38,-392 780.62,-392 780.62,-372 935.38,-372 935.38,-392"/>
<text text-anchor="middle" x="858" y="-378.5" font-family="Helvetica,sans-Serif" font-size="10.00">TullipApp/Helper_Functions.cpp</text>
</a>
</g>
</g>
<!-- Node1&#45;&gt;Node20 -->
<g id="edge27_Node000001_Node000020" class="edge">
<title>Node1&#45;&gt;Node20</title>
<g id="a_edge27_Node000001_Node000020"><a xlink:title=" ">
<path fill="none" stroke="#63b8ff" d="M604.27,-425.68C662.83,-415.83 746.74,-401.72 801.78,-392.46"/>
<polygon fill="#63b8ff" stroke="#63b8ff" points="604.05,-422.17 594.77,-427.28 605.22,-429.07 604.05,-422.17"/>
</a>
</g>
</g>
<!-- Node4 -->
<g id="Node000004" class="node">
<title>Node4</title>
<g id="a_Node000004"><a xlink:href="$_data_base_8h.html" xlink:title="Defines the Database class for managing lessons, parents, children, and employees.">
<polygon fill="white" stroke="#666666" points="477.62,-218 366.38,-218 366.38,-198 477.62,-198 477.62,-218"/>
<text text-anchor="middle" x="422" y="-204.5" font-family="Helvetica,sans-Serif" font-size="10.00">TullipApp/DataBase.h</text>
</a>
</g>
</g>
<!-- Node3&#45;&gt;Node4 -->
<g id="edge3_Node000003_Node000004" class="edge">
<title>Node3&#45;&gt;Node4</title>
<g id="a_edge3_Node000003_Node000004"><a xlink:title=" ">
<path fill="none" stroke="#63b8ff" d="M524.26,-361.95C499.63,-325.11 446.32,-245.38 428.19,-218.25"/>
<polygon fill="#63b8ff" stroke="#63b8ff" points="521.34,-363.88 529.81,-370.25 527.16,-359.99 521.34,-363.88"/>
</a>
</g>
</g>
<!-- Node9 -->
<g id="Node000009" class="node">
<title>Node9</title>
<g id="a_Node000009"><a xlink:href="$_main_8cpp.html" xlink:title=" ">
<polygon fill="white" stroke="#666666" points="673.62,-26 574.38,-26 574.38,-6 673.62,-6 673.62,-26"/>
<text text-anchor="middle" x="624" y="-12.5" font-family="Helvetica,sans-Serif" font-size="10.00">TullipApp/Main.cpp</text>
</a>
</g>
</g>
<!-- Node3&#45;&gt;Node9 -->
<g id="edge17_Node000003_Node000009" class="edge">
<title>Node3&#45;&gt;Node9</title>
<g id="a_edge17_Node000003_Node000009"><a xlink:title=" ">
<path fill="none" stroke="#63b8ff" d="M603.71,-376.84C635.44,-371.53 671.67,-360.12 696,-336 717.37,-314.81 715,-301.1 715,-271 715,-271 715,-271 715,-145 715,-109.75 715.85,-97.13 696,-68 683.15,-49.14 660.86,-34.96 644.48,-26.4"/>
<polygon fill="#63b8ff" stroke="#63b8ff" points="603.57,-373.32 594.19,-378.25 604.6,-380.24 603.57,-373.32"/>
</a>
</g>
</g>
<!-- Node12 -->
<g id="Node000012" class="node">
<title>Node12</title>
<g id="a_Node000012"><a xlink:href="$_date_time_8cpp.html" xlink:title=" ">
<polygon fill="white" stroke="#666666" points="686.5,-336 565.5,-336 565.5,-316 686.5,-316 686.5,-336"/>
<text text-anchor="middle" x="626" y="-322.5" font-family="Helvetica,sans-Serif" font-size="10.00">TullipApp/DateTime.cpp</text>
</a>
</g>
</g>
<!-- Node3&#45;&gt;Node12 -->
<g id="edge13_Node000003_Node000012" class="edge">
<title>Node3&#45;&gt;Node12</title>
<g id="a_edge13_Node000003_Node000012"><a xlink:title=" ">
<path fill="none" stroke="#63b8ff" d="M562.03,-365.81C577.56,-356.39 597.02,-344.58 610.38,-336.48"/>
<polygon fill="#63b8ff" stroke="#63b8ff" points="560.53,-362.63 553.8,-370.81 564.16,-368.61 560.53,-362.63"/>
</a>
</g>
</g>
<!-- Node3&#45;&gt;Node13 -->
<g id="edge14_Node000003_Node000013" class="edge">
<title>Node3&#45;&gt;Node13</title>
<g id="a_edge14_Node000003_Node000013"><a xlink:title=" ">
<path fill="none" stroke="#63b8ff" d="M542.57,-360.7C546.28,-347.77 551.48,-330.75 557,-316 561.74,-303.35 568.25,-289.17 572.53,-280.17"/>
<polygon fill="#63b8ff" stroke="#63b8ff" points="539.24,-359.59 539.91,-370.17 545.98,-361.48 539.24,-359.59"/>
</a>
</g>
</g>
<!-- Node3&#45;&gt;Node15 -->
<g id="edge18_Node000003_Node000015" class="edge">
<title>Node3&#45;&gt;Node15</title>
<g id="a_edge18_Node000003_Node000015"><a xlink:title=" ">
<path fill="none" stroke="#63b8ff" d="M506.64,-366.75C486.28,-357.18 460.02,-344.85 442.19,-336.48"/>
<polygon fill="#63b8ff" stroke="#63b8ff" points="505.06,-369.87 515.6,-370.95 508.03,-363.53 505.06,-369.87"/>
</a>
</g>
</g>
<!-- Node4&#45;&gt;Node2 -->
<g id="edge11_Node000004_Node000002" class="edge">
<title>Node4&#45;&gt;Node2</title>
<g id="a_edge11_Node000004_Node000002"><a xlink:title=" ">
<path fill="none" stroke="#63b8ff" d="M372.28,-194.87C325.84,-183.55 257.46,-166.87 214.89,-156.48"/>
<polygon fill="#63b8ff" stroke="#63b8ff" points="371.28,-198.23 381.82,-197.2 372.94,-191.43 371.28,-198.23"/>
</a>
</g>
</g>
<!-- Node5 -->
<g id="Node000005" class="node">
<title>Node5</title>
<g id="a_Node000005"><a xlink:href="$_child_dialog_8h.html" xlink:title=" ">
<polygon fill="white" stroke="#666666" points="527,-156 409,-156 409,-136 527,-136 527,-156"/>
<text text-anchor="middle" x="468" y="-142.5" font-family="Helvetica,sans-Serif" font-size="10.00">TullipApp/ChildDialog.h</text>
</a>
</g>
</g>
<!-- Node4&#45;&gt;Node5 -->
<g id="edge4_Node000004_Node000005" class="edge">
<title>Node4&#45;&gt;Node5</title>
<g id="a_edge4_Node000004_Node000005"><a xlink:title=" ">
<path fill="none" stroke="#63b8ff" d="M436.11,-188.6C444.37,-177.83 454.43,-164.7 461.01,-156.11"/>
<polygon fill="#63b8ff" stroke="#63b8ff" points="433.42,-186.36 430.11,-196.42 438.97,-190.62 433.42,-186.36"/>
</a>
</g>
</g>
<!-- Node7 -->
<g id="Node000007" class="node">
<title>Node7</title>
<g id="a_Node000007"><a xlink:href="$_data_base_g_u_i_8h.html" xlink:title="Defines the DataBaseGUI class for managing the graphical user interface of the database.">
<polygon fill="white" stroke="#666666" points="377.62,-94 248.38,-94 248.38,-74 377.62,-74 377.62,-94"/>
<text text-anchor="middle" x="313" y="-80.5" font-family="Helvetica,sans-Serif" font-size="10.00">TullipApp/DataBaseGUI.h</text>
</a>
</g>
</g>
<!-- Node4&#45;&gt;Node7 -->
<g id="edge12_Node000004_Node000007" class="edge">
<title>Node4&#45;&gt;Node7</title>
<g id="a_edge12_Node000004_Node000007"><a xlink:title=" ">
<path fill="none" stroke="#63b8ff" d="M406.43,-189.57C382.99,-163.33 339.45,-114.6 321.29,-94.28"/>
<polygon fill="#63b8ff" stroke="#63b8ff" points="403.53,-191.58 412.8,-196.7 408.75,-186.91 403.53,-191.58"/>
</a>
</g>
</g>
<!-- Node6 -->
<g id="Node000006" class="node">
<title>Node6</title>
<g id="a_Node000006"><a xlink:href="$_child_dialog_8cpp.html" xlink:title=" ">
<polygon fill="white" stroke="#666666" points="687.25,-94 558.75,-94 558.75,-74 687.25,-74 687.25,-94"/>
<text text-anchor="middle" x="623" y="-80.5" font-family="Helvetica,sans-Serif" font-size="10.00">TullipApp/ChildDialog.cpp</text>
</a>
</g>
</g>
<!-- Node5&#45;&gt;Node6 -->
<g id="edge5_Node000005_Node000006" class="edge">
<title>Node5&#45;&gt;Node6</title>
<g id="a_edge5_Node000005_Node000006"><a xlink:title=" ">
<path fill="none" stroke="#63b8ff" d="M502.77,-131.54C531.96,-120.24 572.92,-104.39 598.7,-94.41"/>
<polygon fill="#63b8ff" stroke="#63b8ff" points="501.69,-128.2 493.63,-135.08 504.22,-134.73 501.69,-128.2"/>
</a>
</g>
</g>
<!-- Node5&#45;&gt;Node7 -->
<g id="edge6_Node000005_Node000007" class="edge">
<title>Node5&#45;&gt;Node7</title>
<g id="a_edge6_Node000005_Node000007"><a xlink:title=" ">
<path fill="none" stroke="#63b8ff" d="M433.23,-131.54C404.04,-120.24 363.08,-104.39 337.3,-94.41"/>
<polygon fill="#63b8ff" stroke="#63b8ff" points="431.78,-134.73 442.37,-135.08 434.31,-128.2 431.78,-134.73"/>
</a>
</g>
</g>
<!-- Node11 -->
<g id="Node000011" class="node">
<title>Node11</title>
<g id="a_Node000011"><a xlink:href="$moc___child_dialog_8cpp.html" xlink:title=" ">
<polygon fill="white" stroke="#666666" points="540.5,-100 395.5,-100 395.5,-68 540.5,-68 540.5,-100"/>
<text text-anchor="start" x="403.5" y="-86.5" font-family="Helvetica,sans-Serif" font-size="10.00">TullipApp/x64/Debug</text>
<text text-anchor="middle" x="468" y="-74.5" font-family="Helvetica,sans-Serif" font-size="10.00">/qt/moc/moc_ChildDialog.cpp</text>
</a>
</g>
</g>
<!-- Node5&#45;&gt;Node11 -->
<g id="edge10_Node000005_Node000011" class="edge">
<title>Node5&#45;&gt;Node11</title>
<g id="a_edge10_Node000005_Node000011"><a xlink:title=" ">
<path fill="none" stroke="#63b8ff" d="M468,-124.31C468,-116.37 468,-107.46 468,-100.14"/>
<polygon fill="#63b8ff" stroke="#63b8ff" points="464.5,-124.11 468,-134.11 471.5,-124.11 464.5,-124.11"/>
</a>
</g>
</g>
<!-- Node8 -->
<g id="Node000008" class="node">
<title>Node8</title>
<g id="a_Node000008"><a xlink:href="$_data_base_g_u_i_8cpp.html" xlink:title=" ">
<polygon fill="white" stroke="#666666" points="465.88,-26 326.12,-26 326.12,-6 465.88,-6 465.88,-26"/>
<text text-anchor="middle" x="396" y="-12.5" font-family="Helvetica,sans-Serif" font-size="10.00">TullipApp/DataBaseGUI.cpp</text>
</a>
</g>
</g>
<!-- Node7&#45;&gt;Node8 -->
<g id="edge7_Node000007_Node000008" class="edge">
<title>Node7&#45;&gt;Node8</title>
<g id="a_edge7_Node000007_Node000008"><a xlink:title=" ">
<path fill="none" stroke="#63b8ff" d="M333.51,-66.69C349.44,-54.03 370.95,-36.92 384.13,-26.44"/>
<polygon fill="#63b8ff" stroke="#63b8ff" points="331.73,-63.64 326.08,-72.6 336.08,-69.12 331.73,-63.64"/>
</a>
</g>
</g>
<!-- Node7&#45;&gt;Node9 -->
<g id="edge8_Node000007_Node000009" class="edge">
<title>Node7&#45;&gt;Node9</title>
<g id="a_edge8_Node000007_Node000009"><a xlink:title=" ">
<path fill="none" stroke="#63b8ff" d="M368.75,-71.17C428.97,-58.39 523.73,-38.28 579.27,-26.49"/>
<polygon fill="#63b8ff" stroke="#63b8ff" points="368.09,-67.73 359.04,-73.23 369.55,-74.58 368.09,-67.73"/>
</a>
</g>
</g>
<!-- Node10 -->
<g id="Node000010" class="node">
<title>Node10</title>
<g id="a_Node000010"><a xlink:href="$moc___data_base_g_u_i_8cpp.html" xlink:title=" ">
<polygon fill="white" stroke="#666666" points="308.12,-32 151.88,-32 151.88,0 308.12,0 308.12,-32"/>
<text text-anchor="start" x="159.88" y="-18.5" font-family="Helvetica,sans-Serif" font-size="10.00">TullipApp/x64/Debug</text>
<text text-anchor="middle" x="230" y="-6.5" font-family="Helvetica,sans-Serif" font-size="10.00">/qt/moc/moc_DataBaseGUI.cpp</text>
</a>
</g>
</g>
<!-- Node7&#45;&gt;Node10 -->
<g id="edge9_Node000007_Node000010" class="edge">
<title>Node7&#45;&gt;Node10</title>
<g id="a_edge9_Node000007_Node000010"><a xlink:title=" ">
<path fill="none" stroke="#63b8ff" d="M292.28,-66.53C279.1,-56.04 262.13,-42.55 249.24,-32.3"/>
<polygon fill="#63b8ff" stroke="#63b8ff" points="289.92,-69.12 299.92,-72.6 294.27,-63.64 289.92,-69.12"/>
</a>
</g>
</g>
<!-- Node13&#45;&gt;Node4 -->
<g id="edge15_Node000013_Node000004" class="edge">
<title>Node13&#45;&gt;Node4</title>
<g id="a_edge15_Node000013_Node000004"><a xlink:title=" ">
<path fill="none" stroke="#63b8ff" d="M542.23,-255.54C513.04,-244.24 472.08,-228.39 446.3,-218.41"/>
<polygon fill="#63b8ff" stroke="#63b8ff" points="540.78,-258.73 551.37,-259.08 543.31,-252.2 540.78,-258.73"/>
</a>
</g>
</g>
<!-- Node14 -->
<g id="Node000014" class="node">
<title>Node14</title>
<g id="a_Node000014"><a xlink:href="$_lesson_8cpp.html" xlink:title=" ">
<polygon fill="white" stroke="#666666" points="643.88,-218 534.12,-218 534.12,-198 643.88,-198 643.88,-218"/>
<text text-anchor="middle" x="589" y="-204.5" font-family="Helvetica,sans-Serif" font-size="10.00">TullipApp/Lesson.cpp</text>
</a>
</g>
</g>
<!-- Node13&#45;&gt;Node14 -->
<g id="edge16_Node000013_Node000014" class="edge">
<title>Node13&#45;&gt;Node14</title>
<g id="a_edge16_Node000013_Node000014"><a xlink:title=" ">
<path fill="none" stroke="#63b8ff" d="M581.08,-248.59C583.15,-238.24 585.56,-226.18 587.18,-218.11"/>
<polygon fill="#63b8ff" stroke="#63b8ff" points="577.7,-247.65 579.17,-258.14 584.57,-249.02 577.7,-247.65"/>
</a>
</g>
</g>
<!-- Node15&#45;&gt;Node4 -->
<g id="edge24_Node000015_Node000004" class="edge">
<title>Node15&#45;&gt;Node4</title>
<g id="a_edge24_Node000015_Node000004"><a xlink:title=" ">
<path fill="none" stroke="#63b8ff" d="M422,-304.23C422,-278.8 422,-236.84 422,-218.3"/>
<polygon fill="#63b8ff" stroke="#63b8ff" points="418.5,-303.99 422,-313.99 425.5,-303.99 418.5,-303.99"/>
</a>
</g>
</g>
<!-- Node15&#45;&gt;Node5 -->
<g id="edge19_Node000015_Node000005" class="edge">
<title>Node15&#45;&gt;Node5</title>
<g id="a_edge19_Node000015_Node000005"><a xlink:title=" ">
<path fill="none" stroke="#63b8ff" d="M438.1,-307.15C454.07,-288.12 477.49,-256.35 487,-224 494.15,-199.69 481.2,-170.55 473.36,-156.08"/>
<polygon fill="#63b8ff" stroke="#63b8ff" points="435.63,-304.64 431.73,-314.49 440.93,-309.22 435.63,-304.64"/>
</a>
</g>
</g>
<!-- Node15&#45;&gt;Node13 -->
<g id="edge25_Node000015_Node000013" class="edge">
<title>Node15&#45;&gt;Node13</title>
<g id="a_edge25_Node000015_Node000013"><a xlink:title=" ">
<path fill="none" stroke="#63b8ff" d="M459.54,-311.92C487.41,-302.21 524.76,-289.2 549.79,-280.48"/>
<polygon fill="#63b8ff" stroke="#63b8ff" points="458.72,-308.5 450.43,-315.1 461.02,-315.11 458.72,-308.5"/>
</a>
</g>
</g>
<!-- Node16 -->
<g id="Node000016" class="node">
<title>Node16</title>
<g id="a_Node000016"><a xlink:href="$_child_entry_8h.html" xlink:title="Defines the ChildEntry class for managing the graphical representation of a child in the GUI.">
<polygon fill="white" stroke="#666666" points="334.38,-280 221.62,-280 221.62,-260 334.38,-260 334.38,-280"/>
<text text-anchor="middle" x="278" y="-266.5" font-family="Helvetica,sans-Serif" font-size="10.00">TullipApp/ChildEntry.h</text>
</a>
</g>
</g>
<!-- Node15&#45;&gt;Node16 -->
<g id="edge20_Node000015_Node000016" class="edge">
<title>Node15&#45;&gt;Node16</title>
<g id="a_edge20_Node000015_Node000016"><a xlink:title=" ">
<path fill="none" stroke="#63b8ff" d="M386.43,-311.66C360.62,-301.98 326.33,-289.12 303.28,-280.48"/>
<polygon fill="#63b8ff" stroke="#63b8ff" points="384.91,-314.83 395.5,-315.06 387.37,-308.27 384.91,-314.83"/>
</a>
</g>
</g>
<!-- Node19 -->
<g id="Node000019" class="node">
<title>Node19</title>
<g id="a_Node000019"><a xlink:href="$_person_8cpp.html" xlink:title=" ">
<polygon fill="white" stroke="#666666" points="203.5,-280 94.5,-280 94.5,-260 203.5,-260 203.5,-280"/>
<text text-anchor="middle" x="149" y="-266.5" font-family="Helvetica,sans-Serif" font-size="10.00">TullipApp/Person.cpp</text>
</a>
</g>
</g>
<!-- Node15&#45;&gt;Node19 -->
<g id="edge26_Node000015_Node000019" class="edge">
<title>Node15&#45;&gt;Node19</title>
<g id="a_edge26_Node000015_Node000019"><a xlink:title=" ">
<path fill="none" stroke="#63b8ff" d="M362.91,-313.31C313.21,-303.48 243.04,-289.6 196.81,-280.46"/>
<polygon fill="#63b8ff" stroke="#63b8ff" points="362.16,-316.73 372.65,-315.24 363.52,-309.86 362.16,-316.73"/>
</a>
</g>
</g>
<!-- Node16&#45;&gt;Node7 -->
<g id="edge22_Node000016_Node000007" class="edge">
<title>Node16&#45;&gt;Node7</title>
<g id="a_edge22_Node000016_Node000007"><a xlink:title=" ">
<path fill="none" stroke="#63b8ff" d="M210.12,-259.56C148.84,-250.34 66.79,-235.99 57,-224 48,-212.99 52,-205.31 57,-192 84.74,-118.16 181.74,-95 248.04,-87.9"/>
<polygon fill="#63b8ff" stroke="#63b8ff" points="209.4,-262.99 219.8,-261 210.42,-256.07 209.4,-262.99"/>
</a>
</g>
</g>
<!-- Node17 -->
<g id="Node000017" class="node">
<title>Node17</title>
<g id="a_Node000017"><a xlink:href="$_child_entry_8cpp.html" xlink:title=" ">
<polygon fill="white" stroke="#666666" points="189.62,-218 66.38,-218 66.38,-198 189.62,-198 189.62,-218"/>
<text text-anchor="middle" x="128" y="-204.5" font-family="Helvetica,sans-Serif" font-size="10.00">TullipApp/ChildEntry.cpp</text>
</a>
</g>
</g>
<!-- Node16&#45;&gt;Node17 -->
<g id="edge21_Node000016_Node000017" class="edge">
<title>Node16&#45;&gt;Node17</title>
<g id="a_edge21_Node000016_Node000017"><a xlink:title=" ">
<path fill="none" stroke="#63b8ff" d="M243.94,-255.38C215.63,-244.05 176.09,-228.23 151.27,-218.31"/>
<polygon fill="#63b8ff" stroke="#63b8ff" points="242.57,-258.6 253.16,-259.06 245.17,-252.1 242.57,-258.6"/>
</a>
</g>
</g>
<!-- Node18 -->
<g id="Node000018" class="node">
<title>Node18</title>
<g id="a_Node000018"><a xlink:href="$moc___child_entry_8cpp.html" xlink:title=" ">
<polygon fill="white" stroke="#666666" points="347.88,-224 208.12,-224 208.12,-192 347.88,-192 347.88,-224"/>
<text text-anchor="start" x="216.12" y="-210.5" font-family="Helvetica,sans-Serif" font-size="10.00">TullipApp/x64/Debug</text>
<text text-anchor="middle" x="278" y="-198.5" font-family="Helvetica,sans-Serif" font-size="10.00">/qt/moc/moc_ChildEntry.cpp</text>
</a>
</g>
</g>
<!-- Node16&#45;&gt;Node18 -->
<g id="edge23_Node000016_Node000018" class="edge">
<title>Node16&#45;&gt;Node18</title>
<g id="a_edge23_Node000016_Node000018"><a xlink:title=" ">
<path fill="none" stroke="#63b8ff" d="M278,-248.31C278,-240.37 278,-231.46 278,-224.14"/>
<polygon fill="#63b8ff" stroke="#63b8ff" points="274.5,-248.11 278,-258.11 281.5,-248.11 274.5,-248.11"/>
</a>
</g>
</g>
</g>
</svg>
