<?xml version="1.0" encoding="UTF-8" standalone="no"?>
<!DOCTYPE svg PUBLIC "-//W3C//DTD SVG 1.1//EN"
 "http://www.w3.org/Graphics/SVG/1.1/DTD/svg11.dtd">
<!-- Generated by graphviz version 12.2.1 (20241206.2353)
 -->
<!-- Title: contains_any_from_vector Pages: 1 -->
<svg width="291pt" height="90pt"
 viewBox="0.00 0.00 291.25 90.00" xmlns="http://www.w3.org/2000/svg" xmlns:xlink="http://www.w3.org/1999/xlink">
<g id="graph0" class="graph" transform="scale(1 1) rotate(0) translate(4 86)">
<title>contains_any_from_vector</title>
<!-- Node1 -->
<g id="Node000001" class="node">
<title>Node1</title>
<g id="a_Node000001"><a xlink:title="Checks if a vector contains any value from another vector.">
<polygon fill="#999999" stroke="#666666" points="283.25,-51 152.5,-51 152.5,-31 283.25,-31 283.25,-51"/>
<text text-anchor="middle" x="217.88" y="-37.5" font-family="Helvetica,sans-Serif" font-size="10.00">contains_any_from_vector</text>
</a>
</g>
</g>
<!-- Node2 -->
<g id="Node000002" class="node">
<title>Node2</title>
<g id="a_Node000002"><a xlink:href="$class_database.html#ad8e7c7035665c903a8a34b5dbff4e2a6" xlink:title="Filters lessons by a child&#39;s name.">
<polygon fill="white" stroke="#666666" points="116.5,-82 0,-82 0,-50 116.5,-50 116.5,-82"/>
<text text-anchor="start" x="8" y="-68.5" font-family="Helvetica,sans-Serif" font-size="10.00">Database::filter_lesson</text>
<text text-anchor="middle" x="58.25" y="-56.5" font-family="Helvetica,sans-Serif" font-size="10.00">_by_child_name</text>
</a>
</g>
</g>
<!-- Node1&#45;&gt;Node2 -->
<g id="edge1_Node000001_Node000002" class="edge">
<title>Node1&#45;&gt;Node2</title>
<g id="a_edge1_Node000001_Node000002"><a xlink:title=" ">
<path fill="none" stroke="#63b8ff" d="M141.21,-53C133.03,-54.3 124.81,-55.6 116.89,-56.86"/>
<polygon fill="#63b8ff" stroke="#63b8ff" points="141.48,-56.5 150.81,-51.48 140.39,-49.59 141.48,-56.5"/>
</a>
</g>
</g>
<!-- Node3 -->
<g id="Node000003" class="node">
<title>Node3</title>
<g id="a_Node000003"><a xlink:href="$class_database.html#abcc5c80902d844addb9fe92b8524976a" xlink:title="Filters lessons by a child&#39;s surname.">
<polygon fill="white" stroke="#666666" points="116.5,-32 0,-32 0,0 116.5,0 116.5,-32"/>
<text text-anchor="start" x="8" y="-18.5" font-family="Helvetica,sans-Serif" font-size="10.00">Database::filter_lesson</text>
<text text-anchor="middle" x="58.25" y="-6.5" font-family="Helvetica,sans-Serif" font-size="10.00">_by_child_surname</text>
</a>
</g>
</g>
<!-- Node1&#45;&gt;Node3 -->
<g id="edge2_Node000001_Node000003" class="edge">
<title>Node1&#45;&gt;Node3</title>
<g id="a_edge2_Node000001_Node000003"><a xlink:title=" ">
<path fill="none" stroke="#63b8ff" d="M141.21,-29C133.03,-27.7 124.81,-26.4 116.89,-25.14"/>
<polygon fill="#63b8ff" stroke="#63b8ff" points="140.39,-32.41 150.81,-30.52 141.48,-25.5 140.39,-32.41"/>
</a>
</g>
</g>
</g>
</svg>
