<?xml version="1.0" encoding="UTF-8" standalone="no"?>
<!DOCTYPE svg PUBLIC "-//W3C//DTD SVG 1.1//EN"
 "http://www.w3.org/Graphics/SVG/1.1/DTD/svg11.dtd">
<!-- Generated by graphviz version 12.2.1 (20241206.2353)
 -->
<!-- Title: TullipApp/Lesson.h Pages: 1 -->
<!--zoomable 288 -->

<svg id="main" version="1.1" xmlns="http://www.w3.org/2000/svg" xmlns:xlink="http://www.w3.org/1999/xlink" xml:space="preserve" onload="init(evt)">

<style type="text/css"><![CDATA[
.node, .edge {opacity: 0.7;}
.node.selected, .edge.selected {opacity: 1;}
.edge:hover path { stroke: red; }
.edge:hover polygon { stroke: red; fill: red; }
]]></style>

<defs>
  <circle id="rim" cx="0" cy="0" r="7"/>
  <circle id="rim2" cx="0" cy="0" r="3.5"/>
  <g id="zoomPlus">
    <use xlink:href="#rim" fill="#404040"><set attributeName="fill" to="#808080" begin="zoomplus.mouseover" end="zoomplus.mouseout"/></use>
    <path d="M-4,0h8M0,-4v8" fill="none" stroke="white" stroke-width="1.5" pointer-events="none"/>
  </g>
  <g id="zoomMin">
    <use xlink:href="#rim" fill="#404040"><set attributeName="fill" to="#808080" begin="zoomminus.mouseover" end="zoomminus.mouseout"/></use>
    <path d="M-4,0h8" fill="none" stroke="white" stroke-width="1.5" pointer-events="none"/>
  </g>
  <g id="arrowUp" transform="translate(30 24)">
    <use xlink:href="#rim"/>
    <path pointer-events="none" fill="none" stroke="white" stroke-width="1.5" d="M0,-3.0v7 M-2.5,-0.5L0,-3.0L2.5,-0.5"/>
  </g>
  <g id="arrowRight" transform="rotate(90) translate(36 -43)">
    <use xlink:href="#rim"/>
    <path pointer-events="none" fill="none" stroke="white" stroke-width="1.5" d="M0,-3.0v7 M-2.5,-0.5L0,-3.0L2.5,-0.5"/>
  </g>
  <g id="arrowDown" transform="rotate(180) translate(-30 -48)">
    <use xlink:href="#rim"/>
    <path pointer-events="none" fill="none" stroke="white" stroke-width="1.5" d="M0,-3.0v7 M-2.5,-0.5L0,-3.0L2.5,-0.5"/>
  </g>
  <g id="arrowLeft" transform="rotate(270) translate(-36 17)">
    <use xlink:href="#rim"/>
    <path pointer-events="none" fill="none" stroke="white" stroke-width="1.5" d="M0,-3.0v7 M-2.5,-0.5L0,-3.0L2.5,-0.5"/>
  </g>
  <g id="resetDef">
    <use xlink:href="#rim2" fill="#404040"><set attributeName="fill" to="#808080" begin="reset.mouseover" end="reset.mouseout"/></use>
  </g>
</defs>
<script type="application/ecmascript">
var viewWidth = 1074;
var viewHeight = 288;
var sectionId = 'dynsection-1';
</script>
<script type="application/ecmascript" xlink:href="svg.min.js"/>
<svg id="graph" class="graph">
<g id="viewport">
<title>TullipApp/Lesson.h</title>
<!-- Node1 -->
<g id="Node000001" class="node">
<title>Node1</title>
<g id="a_Node000001"><a xlink:title="Defines the Lesson class, which represents a lesson with its associated details.">
<polygon fill="#999999" stroke="#666666" points="788.88,-280 689.62,-280 689.62,-260 788.88,-260 788.88,-280"/>
<text text-anchor="middle" x="739.25" y="-266.5" font-family="Helvetica,sans-Serif" font-size="10.00">TullipApp/Lesson.h</text>
</a>
</g>
</g>
<!-- Node2 -->
<g id="Node000002" class="node">
<title>Node2</title>
<g id="a_Node000002"><a xlink:href="_data_base_8h.html" target="_top" xlink:title="Defines the Database class for managing lessons, parents, children, and employees.">
<polygon fill="white" stroke="#666666" points="623.88,-224 512.62,-224 512.62,-204 623.88,-204 623.88,-224"/>
<text text-anchor="middle" x="568.25" y="-210.5" font-family="Helvetica,sans-Serif" font-size="10.00">TullipApp/DataBase.h</text>
</a>
</g>
</g>
<!-- Node1&#45;&gt;Node2 -->
<g id="edge1_Node000001_Node000002" class="edge">
<title>Node1&#45;&gt;Node2</title>
<g id="a_edge1_Node000001_Node000002"><a xlink:title=" ">
<path fill="none" stroke="#63b8ff" d="M698.65,-256.18C667.82,-246.44 626.13,-233.28 598.27,-224.48"/>
<polygon fill="#63b8ff" stroke="#63b8ff" points="697.43,-259.46 708.02,-259.14 699.54,-252.79 697.43,-259.46"/>
</a>
</g>
</g>
<!-- Node11 -->
<g id="Node000011" class="node">
<title>Node11</title>
<g id="a_Node000011"><a xlink:href="_data_base___parser___functions_8h.html" target="_top" xlink:title=" ">
<polygon fill="white" stroke="#666666" points="748.25,-168 642.25,-168 642.25,-136 748.25,-136 748.25,-168"/>
<text text-anchor="start" x="650.25" y="-154.5" font-family="Helvetica,sans-Serif" font-size="10.00">TullipApp/DataBase</text>
<text text-anchor="middle" x="695.25" y="-142.5" font-family="Helvetica,sans-Serif" font-size="10.00">_Parser_Functions.h</text>
</a>
</g>
</g>
<!-- Node1&#45;&gt;Node11 -->
<g id="edge18_Node000001_Node000011" class="edge">
<title>Node1&#45;&gt;Node11</title>
<g id="a_edge18_Node000001_Node000011"><a xlink:title=" ">
<path fill="none" stroke="#63b8ff" d="M727.38,-250.08C722.81,-242.22 717.84,-232.89 714.25,-224 706.74,-205.43 701.29,-182.93 698.21,-168.31"/>
<polygon fill="#63b8ff" stroke="#63b8ff" points="724.23,-251.64 732.4,-258.39 730.22,-248.02 724.23,-251.64"/>
</a>
</g>
</g>
<!-- Node16 -->
<g id="Node000016" class="node">
<title>Node16</title>
<g id="a_Node000016"><a xlink:href="_lesson_8cpp.html" target="_top" xlink:title=" ">
<polygon fill="white" stroke="#666666" points="973.12,-224 863.38,-224 863.38,-204 973.12,-204 973.12,-224"/>
<text text-anchor="middle" x="918.25" y="-210.5" font-family="Helvetica,sans-Serif" font-size="10.00">TullipApp/Lesson.cpp</text>
</a>
</g>
</g>
<!-- Node1&#45;&gt;Node16 -->
<g id="edge19_Node000001_Node000016" class="edge">
<title>Node1&#45;&gt;Node16</title>
<g id="a_edge19_Node000001_Node000016"><a xlink:title=" ">
<path fill="none" stroke="#63b8ff" d="M781.33,-256.31C813.64,-246.56 857.54,-233.32 886.83,-224.48"/>
<polygon fill="#63b8ff" stroke="#63b8ff" points="780.44,-252.92 771.88,-259.16 782.46,-259.62 780.44,-252.92"/>
</a>
</g>
</g>
<!-- Node17 -->
<g id="Node000017" class="node">
<title>Node17</title>
<g id="a_Node000017"><a xlink:href="_lesson_entry_8h.html" target="_top" xlink:title="Defines the LessonEntry class for managing the graphical representation of a lesson in the GUI.">
<polygon fill="white" stroke="#666666" points="845.12,-224 723.38,-224 723.38,-204 845.12,-204 845.12,-224"/>
<text text-anchor="middle" x="784.25" y="-210.5" font-family="Helvetica,sans-Serif" font-size="10.00">TullipApp/LessonEntry.h</text>
</a>
</g>
</g>
<!-- Node1&#45;&gt;Node17 -->
<g id="edge20_Node000001_Node000017" class="edge">
<title>Node1&#45;&gt;Node17</title>
<g id="a_edge20_Node000001_Node000017"><a xlink:title=" ">
<path fill="none" stroke="#63b8ff" d="M754.25,-251C761.7,-242.06 770.4,-231.62 776.5,-224.3"/>
<polygon fill="#63b8ff" stroke="#63b8ff" points="751.77,-248.51 748.06,-258.43 757.15,-252.99 751.77,-248.51"/>
</a>
</g>
</g>
<!-- Node3 -->
<g id="Node000003" class="node">
<title>Node3</title>
<g id="a_Node000003"><a xlink:href="_child_dialog_8h.html" target="_top" xlink:title="Defines the ChildDialog class for managing child&#45;related information.">
<polygon fill="white" stroke="#666666" points="317.25,-162 199.25,-162 199.25,-142 317.25,-142 317.25,-162"/>
<text text-anchor="middle" x="258.25" y="-148.5" font-family="Helvetica,sans-Serif" font-size="10.00">TullipApp/ChildDialog.h</text>
</a>
</g>
</g>
<!-- Node2&#45;&gt;Node3 -->
<g id="edge2_Node000002_Node000003" class="edge">
<title>Node2&#45;&gt;Node3</title>
<g id="a_edge2_Node000002_Node000003"><a xlink:title=" ">
<path fill="none" stroke="#63b8ff" d="M508.17,-201.37C449.63,-190.04 361.7,-173.02 307.26,-162.48"/>
<polygon fill="#63b8ff" stroke="#63b8ff" points="507.5,-204.81 517.99,-203.27 508.83,-197.93 507.5,-204.81"/>
</a>
</g>
</g>
<!-- Node5 -->
<g id="Node000005" class="node">
<title>Node5</title>
<g id="a_Node000005"><a xlink:href="_data_base_g_u_i_8h.html" target="_top" xlink:title="Defines the DataBaseGUI class for managing the graphical user interface of the database.">
<polygon fill="white" stroke="#666666" points="438.88,-94 309.62,-94 309.62,-74 438.88,-74 438.88,-94"/>
<text text-anchor="middle" x="374.25" y="-80.5" font-family="Helvetica,sans-Serif" font-size="10.00">TullipApp/DataBaseGUI.h</text>
</a>
</g>
</g>
<!-- Node2&#45;&gt;Node5 -->
<g id="edge10_Node000002_Node000005" class="edge">
<title>Node2&#45;&gt;Node5</title>
<g id="a_edge10_Node000002_Node000005"><a xlink:title=" ">
<path fill="none" stroke="#63b8ff" d="M501.22,-207.35C470.11,-201.65 434.52,-190.33 409.25,-168 386.75,-148.12 378.31,-111.37 375.5,-94.24"/>
<polygon fill="#63b8ff" stroke="#63b8ff" points="500.52,-210.78 510.95,-208.96 501.66,-203.87 500.52,-210.78"/>
</a>
</g>
</g>
<!-- Node10 -->
<g id="Node000010" class="node">
<title>Node10</title>
<g id="a_Node000010"><a xlink:href="_data_base_8cpp.html" target="_top" xlink:title=" ">
<polygon fill="white" stroke="#666666" points="900.12,-94 778.38,-94 778.38,-74 900.12,-74 900.12,-94"/>
<text text-anchor="middle" x="839.25" y="-80.5" font-family="Helvetica,sans-Serif" font-size="10.00">TullipApp/DataBase.cpp</text>
</a>
</g>
</g>
<!-- Node2&#45;&gt;Node10 -->
<g id="edge9_Node000002_Node000010" class="edge">
<title>Node2&#45;&gt;Node10</title>
<g id="a_edge9_Node000002_Node000010"><a xlink:title=" ">
<path fill="none" stroke="#63b8ff" d="M579.21,-194.2C590.52,-176.5 609.78,-150.59 633.25,-136 640.33,-131.6 740.38,-107.93 798.39,-94.43"/>
<polygon fill="#63b8ff" stroke="#63b8ff" points="576.53,-191.88 574.3,-202.23 582.5,-195.53 576.53,-191.88"/>
</a>
</g>
</g>
<!-- Node2&#45;&gt;Node11 -->
<g id="edge11_Node000002_Node000011" class="edge">
<title>Node2&#45;&gt;Node11</title>
<g id="a_edge11_Node000002_Node000011"><a xlink:title=" ">
<path fill="none" stroke="#63b8ff" d="M598.46,-198.73C617.81,-189.58 642.92,-177.72 662.71,-168.37"/>
<polygon fill="#63b8ff" stroke="#63b8ff" points="597.01,-195.54 589.46,-202.98 600,-201.87 597.01,-195.54"/>
</a>
</g>
</g>
<!-- Node13 -->
<g id="Node000013" class="node">
<title>Node13</title>
<g id="a_Node000013"><a xlink:href="_parent_dialog_8h.html" target="_top" xlink:title="Defines the ParentDialog class for managing parent&#45;related information.">
<polygon fill="white" stroke="#666666" points="586.25,-162 462.25,-162 462.25,-142 586.25,-142 586.25,-162"/>
<text text-anchor="middle" x="524.25" y="-148.5" font-family="Helvetica,sans-Serif" font-size="10.00">TullipApp/ParentDialog.h</text>
</a>
</g>
</g>
<!-- Node2&#45;&gt;Node13 -->
<g id="edge14_Node000002_Node000013" class="edge">
<title>Node2&#45;&gt;Node13</title>
<g id="a_edge14_Node000002_Node000013"><a xlink:title=" ">
<path fill="none" stroke="#63b8ff" d="M554.75,-194.6C546.86,-183.83 537.23,-170.7 530.93,-162.11"/>
<polygon fill="#63b8ff" stroke="#63b8ff" points="551.74,-196.41 560.48,-202.4 557.39,-192.27 551.74,-196.41"/>
</a>
</g>
</g>
<!-- Node4 -->
<g id="Node000004" class="node">
<title>Node4</title>
<g id="a_Node000004"><a xlink:href="_child_dialog_8cpp.html" target="_top" xlink:title=" ">
<polygon fill="white" stroke="#666666" points="128.5,-94 0,-94 0,-74 128.5,-74 128.5,-94"/>
<text text-anchor="middle" x="64.25" y="-80.5" font-family="Helvetica,sans-Serif" font-size="10.00">TullipApp/ChildDialog.cpp</text>
</a>
</g>
</g>
<!-- Node3&#45;&gt;Node4 -->
<g id="edge3_Node000003_Node000004" class="edge">
<title>Node3&#45;&gt;Node4</title>
<g id="a_edge3_Node000003_Node000004"><a xlink:title=" ">
<path fill="none" stroke="#63b8ff" d="M219.88,-137.95C182.17,-125.12 125.54,-105.85 91.99,-94.44"/>
<polygon fill="#63b8ff" stroke="#63b8ff" points="218.43,-141.15 229.02,-141.06 220.68,-134.52 218.43,-141.15"/>
</a>
</g>
</g>
<!-- Node3&#45;&gt;Node5 -->
<g id="edge4_Node000003_Node000005" class="edge">
<title>Node3&#45;&gt;Node5</title>
<g id="a_edge4_Node000003_Node000005"><a xlink:title=" ">
<path fill="none" stroke="#63b8ff" d="M284.76,-135.91C307.19,-123.15 338.64,-105.26 357.66,-94.44"/>
<polygon fill="#63b8ff" stroke="#63b8ff" points="283.15,-132.81 276.19,-140.8 286.61,-138.89 283.15,-132.81"/>
</a>
</g>
</g>
<!-- Node9 -->
<g id="Node000009" class="node">
<title>Node9</title>
<g id="a_Node000009"><a xlink:href="moc___child_dialog_8cpp.html" target="_top" xlink:title=" ">
<polygon fill="white" stroke="#666666" points="291.75,-100 146.75,-100 146.75,-68 291.75,-68 291.75,-100"/>
<text text-anchor="start" x="154.75" y="-86.5" font-family="Helvetica,sans-Serif" font-size="10.00">TullipApp/x64/Debug</text>
<text text-anchor="middle" x="219.25" y="-74.5" font-family="Helvetica,sans-Serif" font-size="10.00">/qt/moc/moc_ChildDialog.cpp</text>
</a>
</g>
</g>
<!-- Node3&#45;&gt;Node9 -->
<g id="edge8_Node000003_Node000009" class="edge">
<title>Node3&#45;&gt;Node9</title>
<g id="a_edge8_Node000003_Node000009"><a xlink:title=" ">
<path fill="none" stroke="#63b8ff" d="M246.85,-131.71C240.94,-121.71 233.82,-109.66 228.29,-100.3"/>
<polygon fill="#63b8ff" stroke="#63b8ff" points="243.79,-133.41 251.89,-140.24 249.82,-129.85 243.79,-133.41"/>
</a>
</g>
</g>
<!-- Node6 -->
<g id="Node000006" class="node">
<title>Node6</title>
<g id="a_Node000006"><a xlink:href="_data_base_g_u_i_8cpp.html" target="_top" xlink:title=" ">
<polygon fill="white" stroke="#666666" points="306.12,-26 166.38,-26 166.38,-6 306.12,-6 306.12,-26"/>
<text text-anchor="middle" x="236.25" y="-12.5" font-family="Helvetica,sans-Serif" font-size="10.00">TullipApp/DataBaseGUI.cpp</text>
</a>
</g>
</g>
<!-- Node5&#45;&gt;Node6 -->
<g id="edge5_Node000005_Node000006" class="edge">
<title>Node5&#45;&gt;Node6</title>
<g id="a_edge5_Node000005_Node000006"><a xlink:title=" ">
<path fill="none" stroke="#63b8ff" d="M344.15,-68.6C317.38,-55.8 279.03,-37.46 255.99,-26.44"/>
<polygon fill="#63b8ff" stroke="#63b8ff" points="342.58,-71.73 353.11,-72.89 345.6,-65.42 342.58,-71.73"/>
</a>
</g>
</g>
<!-- Node7 -->
<g id="Node000007" class="node">
<title>Node7</title>
<g id="a_Node000007"><a xlink:href="_main_8cpp.html" target="_top" xlink:title=" ">
<polygon fill="white" stroke="#666666" points="423.88,-26 324.62,-26 324.62,-6 423.88,-6 423.88,-26"/>
<text text-anchor="middle" x="374.25" y="-12.5" font-family="Helvetica,sans-Serif" font-size="10.00">TullipApp/Main.cpp</text>
</a>
</g>
</g>
<!-- Node5&#45;&gt;Node7 -->
<g id="edge6_Node000005_Node000007" class="edge">
<title>Node5&#45;&gt;Node7</title>
<g id="a_edge6_Node000005_Node000007"><a xlink:title=" ">
<path fill="none" stroke="#63b8ff" d="M374.25,-62.28C374.25,-50.27 374.25,-35.74 374.25,-26.44"/>
<polygon fill="#63b8ff" stroke="#63b8ff" points="370.75,-62.03 374.25,-72.03 377.75,-62.03 370.75,-62.03"/>
</a>
</g>
</g>
<!-- Node8 -->
<g id="Node000008" class="node">
<title>Node8</title>
<g id="a_Node000008"><a xlink:href="moc___data_base_g_u_i_8cpp.html" target="_top" xlink:title=" ">
<polygon fill="white" stroke="#666666" points="598.38,-32 442.12,-32 442.12,0 598.38,0 598.38,-32"/>
<text text-anchor="start" x="450.12" y="-18.5" font-family="Helvetica,sans-Serif" font-size="10.00">TullipApp/x64/Debug</text>
<text text-anchor="middle" x="520.25" y="-6.5" font-family="Helvetica,sans-Serif" font-size="10.00">/qt/moc/moc_DataBaseGUI.cpp</text>
</a>
</g>
</g>
<!-- Node5&#45;&gt;Node8 -->
<g id="edge7_Node000005_Node000008" class="edge">
<title>Node5&#45;&gt;Node8</title>
<g id="a_edge7_Node000005_Node000008"><a xlink:title=" ">
<path fill="none" stroke="#63b8ff" d="M405.37,-68.93C429.08,-58.21 461.7,-43.47 486.12,-32.43"/>
<polygon fill="#63b8ff" stroke="#63b8ff" points="404.22,-65.61 396.55,-72.92 407.1,-71.99 404.22,-65.61"/>
</a>
</g>
</g>
<!-- Node11&#45;&gt;Node10 -->
<g id="edge12_Node000011_Node000010" class="edge">
<title>Node11&#45;&gt;Node10</title>
<g id="a_edge12_Node000011_Node000010"><a xlink:title=" ">
<path fill="none" stroke="#63b8ff" d="M739.17,-130.87C765.58,-118.76 797.97,-103.92 818.61,-94.46"/>
<polygon fill="#63b8ff" stroke="#63b8ff" points="738.02,-127.55 730.39,-134.9 740.94,-133.91 738.02,-127.55"/>
</a>
</g>
</g>
<!-- Node12 -->
<g id="Node000012" class="node">
<title>Node12</title>
<g id="a_Node000012"><a xlink:href="_data_base___parser___functions_8cpp.html" target="_top" xlink:title=" ">
<polygon fill="white" stroke="#666666" points="1034.5,-100 918,-100 918,-68 1034.5,-68 1034.5,-100"/>
<text text-anchor="start" x="926" y="-86.5" font-family="Helvetica,sans-Serif" font-size="10.00">TullipApp/DataBase</text>
<text text-anchor="middle" x="976.25" y="-74.5" font-family="Helvetica,sans-Serif" font-size="10.00">_Parser_Functions.cpp</text>
</a>
</g>
</g>
<!-- Node11&#45;&gt;Node12 -->
<g id="edge13_Node000011_Node000012" class="edge">
<title>Node11&#45;&gt;Node12</title>
<g id="a_edge13_Node000011_Node000012"><a xlink:title=" ">
<path fill="none" stroke="#63b8ff" d="M759.72,-135.42C818.77,-121.43 876.12,-108.11 917.66,-98.5"/>
<polygon fill="#63b8ff" stroke="#63b8ff" points="759.07,-131.98 750.15,-137.69 760.69,-138.79 759.07,-131.98"/>
</a>
</g>
</g>
<!-- Node13&#45;&gt;Node5 -->
<g id="edge15_Node000013_Node000005" class="edge">
<title>Node13&#45;&gt;Node5</title>
<g id="a_edge15_Node000013_Node000005"><a xlink:title=" ">
<path fill="none" stroke="#63b8ff" d="M492.3,-136.94C463.18,-124.13 420.97,-105.56 395.7,-94.44"/>
<polygon fill="#63b8ff" stroke="#63b8ff" points="490.81,-140.11 501.37,-140.93 493.63,-133.7 490.81,-140.11"/>
</a>
</g>
</g>
<!-- Node14 -->
<g id="Node000014" class="node">
<title>Node14</title>
<g id="a_Node000014"><a xlink:href="_parent_dialog_8cpp.html" target="_top" xlink:title=" ">
<polygon fill="white" stroke="#666666" points="591.5,-94 457,-94 457,-74 591.5,-74 591.5,-94"/>
<text text-anchor="middle" x="524.25" y="-80.5" font-family="Helvetica,sans-Serif" font-size="10.00">TullipApp/ParentDialog.cpp</text>
</a>
</g>
</g>
<!-- Node13&#45;&gt;Node14 -->
<g id="edge16_Node000013_Node000014" class="edge">
<title>Node13&#45;&gt;Node14</title>
<g id="a_edge16_Node000013_Node000014"><a xlink:title=" ">
<path fill="none" stroke="#63b8ff" d="M524.25,-130.28C524.25,-118.27 524.25,-103.74 524.25,-94.44"/>
<polygon fill="#63b8ff" stroke="#63b8ff" points="520.75,-130.03 524.25,-140.03 527.75,-130.03 520.75,-130.03"/>
</a>
</g>
</g>
<!-- Node15 -->
<g id="Node000015" class="node">
<title>Node15</title>
<g id="a_Node000015"><a xlink:href="moc___parent_dialog_8cpp.html" target="_top" xlink:title=" ">
<polygon fill="white" stroke="#666666" points="760.75,-100 609.75,-100 609.75,-68 760.75,-68 760.75,-100"/>
<text text-anchor="start" x="617.75" y="-86.5" font-family="Helvetica,sans-Serif" font-size="10.00">TullipApp/x64/Debug</text>
<text text-anchor="middle" x="685.25" y="-74.5" font-family="Helvetica,sans-Serif" font-size="10.00">/qt/moc/moc_ParentDialog.cpp</text>
</a>
</g>
</g>
<!-- Node13&#45;&gt;Node15 -->
<g id="edge17_Node000013_Node000015" class="edge">
<title>Node13&#45;&gt;Node15</title>
<g id="a_edge17_Node000013_Node000015"><a xlink:title=" ">
<path fill="none" stroke="#63b8ff" d="M557.87,-137.22C584.07,-126.48 620.44,-111.57 647.62,-100.43"/>
<polygon fill="#63b8ff" stroke="#63b8ff" points="556.64,-133.94 548.72,-140.97 559.3,-140.42 556.64,-133.94"/>
</a>
</g>
</g>
<!-- Node17&#45;&gt;Node5 -->
<g id="edge21_Node000017_Node000005" class="edge">
<title>Node17&#45;&gt;Node5</title>
<g id="a_edge21_Node000017_Node000005"><a xlink:title=" ">
<path fill="none" stroke="#63b8ff" d="M711.45,-208.72C627.97,-202.85 497.02,-190.38 453.25,-168 419.06,-150.52 391.52,-112.22 380.04,-94.43"/>
<polygon fill="#63b8ff" stroke="#63b8ff" points="711.17,-212.21 721.38,-209.41 711.65,-205.23 711.17,-212.21"/>
</a>
</g>
</g>
<!-- Node18 -->
<g id="Node000018" class="node">
<title>Node18</title>
<g id="a_Node000018"><a xlink:href="_lesson_entry_8cpp.html" target="_top" xlink:title=" ">
<polygon fill="white" stroke="#666666" points="898.38,-162 766.12,-162 766.12,-142 898.38,-142 898.38,-162"/>
<text text-anchor="middle" x="832.25" y="-148.5" font-family="Helvetica,sans-Serif" font-size="10.00">TullipApp/LessonEntry.cpp</text>
</a>
</g>
</g>
<!-- Node17&#45;&gt;Node18 -->
<g id="edge22_Node000017_Node000018" class="edge">
<title>Node17&#45;&gt;Node18</title>
<g id="a_edge22_Node000017_Node000018"><a xlink:title=" ">
<path fill="none" stroke="#63b8ff" d="M798.71,-194.92C807.37,-184.1 818.02,-170.79 824.96,-162.11"/>
<polygon fill="#63b8ff" stroke="#63b8ff" points="796.21,-192.45 792.7,-202.44 801.68,-196.82 796.21,-192.45"/>
</a>
</g>
</g>
<!-- Node19 -->
<g id="Node000019" class="node">
<title>Node19</title>
<g id="a_Node000019"><a xlink:href="moc___lesson_entry_8cpp.html" target="_top" xlink:title=" ">
<polygon fill="white" stroke="#666666" points="1065.62,-168 916.88,-168 916.88,-136 1065.62,-136 1065.62,-168"/>
<text text-anchor="start" x="924.88" y="-154.5" font-family="Helvetica,sans-Serif" font-size="10.00">TullipApp/x64/Debug</text>
<text text-anchor="middle" x="991.25" y="-142.5" font-family="Helvetica,sans-Serif" font-size="10.00">/qt/moc/moc_LessonEntry.cpp</text>
</a>
</g>
</g>
<!-- Node17&#45;&gt;Node19 -->
<g id="edge23_Node000017_Node000019" class="edge">
<title>Node17&#45;&gt;Node19</title>
<g id="a_edge23_Node000017_Node000019"><a xlink:title=" ">
<path fill="none" stroke="#63b8ff" d="M827.41,-200.49C859.51,-191.19 903.49,-178.44 937.81,-168.49"/>
<polygon fill="#63b8ff" stroke="#63b8ff" points="826.68,-197.06 818.05,-203.2 828.63,-203.78 826.68,-197.06"/>
</a>
</g>
</g>
</g>
</svg>

<g id="navigator" transform="translate(0 0)" fill="#404254">
  <rect fill="#f2f5e9" fill-opacity="0.5" stroke="#606060" stroke-width=".5" x="0" y="0" width="60" height="60"/>
  <use id="zoomplus" xlink:href="#zoomPlus" x="17" y="9" onmousedown="handleZoom(evt,'in')"/>
  <use id="zoomminus" xlink:href="#zoomMin" x="42" y="9" onmousedown="handleZoom(evt,'out')"/>
  <use id="reset" xlink:href="#resetDef" x="30" y="36" onmousedown="handleReset()"/>
   <use id="arrowup" xlink:href="#arrowUp" x="0" y="0" onmousedown="handlePan(0,-1)"/>
  <use id="arrowright" xlink:href="#arrowRight" x="0" y="0" onmousedown="handlePan(1,0)"/>
  <use id="arrowdown" xlink:href="#arrowDown" x="0" y="0" onmousedown="handlePan(0,1)"/>
  <use id="arrowleft" xlink:href="#arrowLeft" x="0" y="0" onmousedown="handlePan(-1,0)"/>
</g>
<svg viewBox="0 0 15 15" width="100%" height="30px" preserveAspectRatio="xMaxYMin meet">
 <g id="arrow_out" transform="scale(0.3 0.3)">
  <a xlink:href="_lesson_8h__dep__incl_org.svg" target="_base">
   <rect id="button" ry="5" rx="5" y="6" x="6" height="38" width="38"
        fill="#f2f5e9" fill-opacity="0.5" stroke="#606060" stroke-width="1.0"/>
   <path id="arrow"
     d="M 11.500037,31.436501 C 11.940474,20.09759 22.043105,11.32322 32.158766,21.979434 L 37.068811,17.246167 C 37.068811,17.246167 37.088388,32 37.088388,32 L 22.160133,31.978069 C 22.160133,31.978069 26.997745,27.140456 26.997745,27.140456 C 18.528582,18.264221 13.291696,25.230495 11.500037,31.436501 z"
     style="fill:#404040;"/>
  </a>
 </g>
</svg>

<style type='text/css'>
<![CDATA[
[data-mouse-over-selected='false'] { opacity: 0.7; }
[data-mouse-over-selected='true']  { opacity: 1.0; }
]]>
</style>
<script type="application/ecmascript"><![CDATA[
document.addEventListener('DOMContentLoaded', (event) => {
  highlightEdges();
  highlightAdjacentNodes();
});
]]></script>
</svg>
