<?xml version="1.0" encoding="UTF-8" standalone="no"?>
<!DOCTYPE svg PUBLIC "-//W3C//DTD SVG 1.1//EN"
 "http://www.w3.org/Graphics/SVG/1.1/DTD/svg11.dtd">
<!-- Generated by graphviz version 12.2.1 (20241206.2353)
 -->
<!-- Title: TullipApp/LessonEntry.cpp Pages: 1 -->
<svg width="1716pt" height="364pt"
 viewBox="0.00 0.00 1716.38 364.00" xmlns="http://www.w3.org/2000/svg" xmlns:xlink="http://www.w3.org/1999/xlink">
<g id="graph0" class="graph" transform="scale(1 1) rotate(0) translate(4 360)">
<title>TullipApp/LessonEntry.cpp</title>
<!-- Node1 -->
<g id="Node000001" class="node">
<title>Node1</title>
<g id="a_Node000001"><a xlink:title=" ">
<polygon fill="#999999" stroke="#666666" points="629.25,-356 497,-356 497,-336 629.25,-336 629.25,-356"/>
<text text-anchor="middle" x="563.12" y="-342.5" font-family="Helvetica,sans-Serif" font-size="10.00">TullipApp/LessonEntry.cpp</text>
</a>
</g>
</g>
<!-- Node2 -->
<g id="Node000002" class="node">
<title>Node2</title>
<g id="a_Node000002"><a xlink:href="_lesson_entry_8h.html" target="_top" xlink:title="Defines the LessonEntry class for managing the graphical representation of a lesson in the GUI.">
<polygon fill="white" stroke="#666666" points="554.25,-300 476,-300 476,-280 554.25,-280 554.25,-300"/>
<text text-anchor="middle" x="515.12" y="-286.5" font-family="Helvetica,sans-Serif" font-size="10.00">LessonEntry.h</text>
</a>
</g>
</g>
<!-- Node1&#45;&gt;Node2 -->
<g id="edge1_Node000001_Node000002" class="edge">
<title>Node1&#45;&gt;Node2</title>
<g id="a_edge1_Node000001_Node000002"><a xlink:title=" ">
<path fill="none" stroke="#63b8ff" d="M554.76,-335.59C548.23,-328.24 538.94,-317.8 531.01,-308.87"/>
<polygon fill="#63b8ff" stroke="#63b8ff" points="533.66,-306.58 524.4,-301.43 528.42,-311.23 533.66,-306.58"/>
</a>
</g>
</g>
<!-- Node30 -->
<g id="Node000030" class="node">
<title>Node30</title>
<g id="a_Node000030"><a xlink:title=" ">
<polygon fill="#e0e0e0" stroke="#999999" points="652.38,-300 571.88,-300 571.88,-280 652.38,-280 652.38,-300"/>
<text text-anchor="middle" x="612.12" y="-286.5" font-family="Helvetica,sans-Serif" font-size="10.00">QMessageBox</text>
</a>
</g>
</g>
<!-- Node1&#45;&gt;Node30 -->
<g id="edge45_Node000001_Node000030" class="edge">
<title>Node1&#45;&gt;Node30</title>
<g id="a_edge45_Node000001_Node000030"><a xlink:title=" ">
<path fill="none" stroke="#63b8ff" d="M571.66,-335.59C578.41,-328.16 588.01,-317.58 596.17,-308.58"/>
<polygon fill="#63b8ff" stroke="#63b8ff" points="598.54,-311.18 602.67,-301.42 593.36,-306.47 598.54,-311.18"/>
</a>
</g>
</g>
<!-- Node3 -->
<g id="Node000003" class="node">
<title>Node3</title>
<g id="a_Node000003"><a xlink:title=" ">
<polygon fill="#e0e0e0" stroke="#999999" points="54.25,-132 0,-132 0,-112 54.25,-112 54.25,-132"/>
<text text-anchor="middle" x="27.12" y="-118.5" font-family="Helvetica,sans-Serif" font-size="10.00">QWidget</text>
</a>
</g>
</g>
<!-- Node2&#45;&gt;Node3 -->
<g id="edge2_Node000002_Node000003" class="edge">
<title>Node2&#45;&gt;Node3</title>
<g id="a_edge2_Node000002_Node000003"><a xlink:title=" ">
<path fill="none" stroke="#63b8ff" d="M475.63,-285.63C374.35,-276.22 108.94,-246.43 46.12,-188 33.87,-176.6 29.37,-157.79 27.79,-143.33"/>
<polygon fill="#63b8ff" stroke="#63b8ff" points="31.3,-143.29 27.13,-133.55 24.31,-143.76 31.3,-143.29"/>
</a>
</g>
</g>
<!-- Node4 -->
<g id="Node000004" class="node">
<title>Node4</title>
<g id="a_Node000004"><a xlink:href="ui___lesson_entry_8h.html" target="_top" xlink:title=" ">
<polygon fill="white" stroke="#666666" points="560.62,-244 469.62,-244 469.62,-224 560.62,-224 560.62,-244"/>
<text text-anchor="middle" x="515.12" y="-230.5" font-family="Helvetica,sans-Serif" font-size="10.00">ui_LessonEntry.h</text>
</a>
</g>
</g>
<!-- Node2&#45;&gt;Node4 -->
<g id="edge3_Node000002_Node000004" class="edge">
<title>Node2&#45;&gt;Node4</title>
<g id="a_edge3_Node000002_Node000004"><a xlink:title=" ">
<path fill="none" stroke="#63b8ff" d="M515.12,-279.59C515.12,-273.01 515.12,-263.96 515.12,-255.73"/>
<polygon fill="#63b8ff" stroke="#63b8ff" points="518.63,-255.81 515.13,-245.81 511.63,-255.81 518.63,-255.81"/>
</a>
</g>
</g>
<!-- Node15 -->
<g id="Node000015" class="node">
<title>Node15</title>
<g id="a_Node000015"><a xlink:href="_lesson_8h.html" target="_top" xlink:title="Defines the Lesson class, which represents a lesson with its associated details.">
<polygon fill="white" stroke="#666666" points="1254,-244 1198.25,-244 1198.25,-224 1254,-224 1254,-244"/>
<text text-anchor="middle" x="1226.12" y="-230.5" font-family="Helvetica,sans-Serif" font-size="10.00">Lesson.h</text>
</a>
</g>
</g>
<!-- Node2&#45;&gt;Node15 -->
<g id="edge15_Node000002_Node000015" class="edge">
<title>Node2&#45;&gt;Node15</title>
<g id="a_edge15_Node000002_Node000015"><a xlink:title=" ">
<path fill="none" stroke="#63b8ff" d="M554.62,-281.21C557.49,-280.76 560.35,-280.35 563.12,-280 798.44,-250.06 1083.44,-239.18 1186.52,-236.06"/>
<polygon fill="#63b8ff" stroke="#63b8ff" points="1186.49,-239.57 1196.39,-235.77 1186.29,-232.57 1186.49,-239.57"/>
</a>
</g>
</g>
<!-- Node5 -->
<g id="Node000005" class="node">
<title>Node5</title>
<g id="a_Node000005"><a xlink:title=" ">
<polygon fill="#e0e0e0" stroke="#999999" points="243.12,-188 155.12,-188 155.12,-168 243.12,-168 243.12,-188"/>
<text text-anchor="middle" x="199.12" y="-174.5" font-family="Helvetica,sans-Serif" font-size="10.00">QtCore/QVariant</text>
</a>
</g>
</g>
<!-- Node4&#45;&gt;Node5 -->
<g id="edge4_Node000004_Node000005" class="edge">
<title>Node4&#45;&gt;Node5</title>
<g id="a_edge4_Node000004_Node000005"><a xlink:title=" ">
<path fill="none" stroke="#63b8ff" d="M469.18,-225.15C412.41,-215.45 315.89,-198.95 254.92,-188.53"/>
<polygon fill="#63b8ff" stroke="#63b8ff" points="255.54,-185.09 245.09,-186.85 254.36,-191.99 255.54,-185.09"/>
</a>
</g>
</g>
<!-- Node6 -->
<g id="Node000006" class="node">
<title>Node6</title>
<g id="a_Node000006"><a xlink:title=" ">
<polygon fill="#e0e0e0" stroke="#999999" points="382.62,-188 261.62,-188 261.62,-168 382.62,-168 382.62,-188"/>
<text text-anchor="middle" x="322.12" y="-174.5" font-family="Helvetica,sans-Serif" font-size="10.00">QtWidgets/QApplication</text>
</a>
</g>
</g>
<!-- Node4&#45;&gt;Node6 -->
<g id="edge5_Node000004_Node000006" class="edge">
<title>Node4&#45;&gt;Node6</title>
<g id="a_edge5_Node000004_Node000006"><a xlink:title=" ">
<path fill="none" stroke="#63b8ff" d="M481.51,-223.59C449.74,-214.71 401.86,-201.31 366.88,-191.52"/>
<polygon fill="#63b8ff" stroke="#63b8ff" points="368.04,-188.21 357.46,-188.89 366.15,-194.95 368.04,-188.21"/>
</a>
</g>
</g>
<!-- Node7 -->
<g id="Node000007" class="node">
<title>Node7</title>
<g id="a_Node000007"><a xlink:title=" ">
<polygon fill="#e0e0e0" stroke="#999999" points="501.5,-188 400.75,-188 400.75,-168 501.5,-168 501.5,-188"/>
<text text-anchor="middle" x="451.12" y="-174.5" font-family="Helvetica,sans-Serif" font-size="10.00">QtWidgets/QFrame</text>
</a>
</g>
</g>
<!-- Node4&#45;&gt;Node7 -->
<g id="edge6_Node000004_Node000007" class="edge">
<title>Node4&#45;&gt;Node7</title>
<g id="a_edge6_Node000004_Node000007"><a xlink:title=" ">
<path fill="none" stroke="#63b8ff" d="M503.98,-223.59C494.8,-215.85 481.57,-204.69 470.64,-195.47"/>
<polygon fill="#63b8ff" stroke="#63b8ff" points="473.2,-193.05 463.3,-189.27 468.69,-198.4 473.2,-193.05"/>
</a>
</g>
</g>
<!-- Node8 -->
<g id="Node000008" class="node">
<title>Node8</title>
<g id="a_Node000008"><a xlink:title=" ">
<polygon fill="#e0e0e0" stroke="#999999" points="640.25,-188 520,-188 520,-168 640.25,-168 640.25,-188"/>
<text text-anchor="middle" x="580.12" y="-174.5" font-family="Helvetica,sans-Serif" font-size="10.00">QtWidgets/QGridLayout</text>
</a>
</g>
</g>
<!-- Node4&#45;&gt;Node8 -->
<g id="edge7_Node000004_Node000008" class="edge">
<title>Node4&#45;&gt;Node8</title>
<g id="a_edge7_Node000004_Node000008"><a xlink:title=" ">
<path fill="none" stroke="#63b8ff" d="M526.45,-223.59C535.77,-215.85 549.2,-204.69 560.3,-195.47"/>
<polygon fill="#63b8ff" stroke="#63b8ff" points="562.31,-198.35 567.77,-189.27 557.84,-192.96 562.31,-198.35"/>
</a>
</g>
</g>
<!-- Node9 -->
<g id="Node000009" class="node">
<title>Node9</title>
<g id="a_Node000009"><a xlink:title=" ">
<polygon fill="#e0e0e0" stroke="#999999" points="754.25,-188 658,-188 658,-168 754.25,-168 754.25,-188"/>
<text text-anchor="middle" x="706.12" y="-174.5" font-family="Helvetica,sans-Serif" font-size="10.00">QtWidgets/QLabel</text>
</a>
</g>
</g>
<!-- Node4&#45;&gt;Node9 -->
<g id="edge8_Node000004_Node000009" class="edge">
<title>Node4&#45;&gt;Node9</title>
<g id="a_edge8_Node000004_Node000009"><a xlink:title=" ">
<path fill="none" stroke="#63b8ff" d="M548.39,-223.59C579.84,-214.71 627.21,-201.31 661.84,-191.52"/>
<polygon fill="#63b8ff" stroke="#63b8ff" points="662.47,-194.98 671.14,-188.89 660.56,-188.24 662.47,-194.98"/>
</a>
</g>
</g>
<!-- Node10 -->
<g id="Node000010" class="node">
<title>Node10</title>
<g id="a_Node000010"><a xlink:title=" ">
<polygon fill="#e0e0e0" stroke="#999999" points="896.12,-188 772.12,-188 772.12,-168 896.12,-168 896.12,-188"/>
<text text-anchor="middle" x="834.12" y="-174.5" font-family="Helvetica,sans-Serif" font-size="10.00">QtWidgets/QPushButton</text>
</a>
</g>
</g>
<!-- Node4&#45;&gt;Node10 -->
<g id="edge9_Node000004_Node000010" class="edge">
<title>Node4&#45;&gt;Node10</title>
<g id="a_edge9_Node000004_Node000010"><a xlink:title=" ">
<path fill="none" stroke="#63b8ff" d="M560.83,-225.26C614.76,-216.13 704.89,-200.88 766.81,-190.4"/>
<polygon fill="#63b8ff" stroke="#63b8ff" points="767.26,-193.87 776.53,-188.75 766.09,-186.97 767.26,-193.87"/>
</a>
</g>
</g>
<!-- Node11 -->
<g id="Node000011" class="node">
<title>Node11</title>
<g id="a_Node000011"><a xlink:title=" ">
<polygon fill="#e0e0e0" stroke="#999999" points="1018,-188 914.25,-188 914.25,-168 1018,-168 1018,-188"/>
<text text-anchor="middle" x="966.12" y="-174.5" font-family="Helvetica,sans-Serif" font-size="10.00">QtWidgets/QWidget</text>
</a>
</g>
</g>
<!-- Node4&#45;&gt;Node11 -->
<g id="edge10_Node000004_Node000011" class="edge">
<title>Node4&#45;&gt;Node11</title>
<g id="a_edge10_Node000004_Node000011"><a xlink:title=" ">
<path fill="none" stroke="#63b8ff" d="M561.11,-228.17C632.04,-220.62 772.7,-205.22 902.57,-188.3"/>
<polygon fill="#63b8ff" stroke="#63b8ff" points="902.94,-191.78 912.4,-187.01 902.03,-184.84 902.94,-191.78"/>
</a>
</g>
</g>
<!-- Node12 -->
<g id="Node000012" class="node">
<title>Node12</title>
<g id="a_Node000012"><a xlink:href="clickablelabel_8h.html" target="_top" xlink:title="ClickableLabel class definition.">
<polygon fill="white" stroke="#666666" points="137.5,-188 54.75,-188 54.75,-168 137.5,-168 137.5,-188"/>
<text text-anchor="middle" x="96.12" y="-174.5" font-family="Helvetica,sans-Serif" font-size="10.00">clickablelabel.h</text>
</a>
</g>
</g>
<!-- Node4&#45;&gt;Node12 -->
<g id="edge11_Node000004_Node000012" class="edge">
<title>Node4&#45;&gt;Node12</title>
<g id="a_edge11_Node000004_Node000012"><a xlink:title=" ">
<path fill="none" stroke="#63b8ff" d="M469.28,-228.25C401.51,-221.06 270.36,-206.42 149.16,-188.39"/>
<polygon fill="#63b8ff" stroke="#63b8ff" points="149.74,-184.94 139.33,-186.92 148.7,-191.86 149.74,-184.94"/>
</a>
</g>
</g>
<!-- Node12&#45;&gt;Node3 -->
<g id="edge13_Node000012_Node000003" class="edge">
<title>Node12&#45;&gt;Node3</title>
<g id="a_edge13_Node000012_Node000003"><a xlink:title=" ">
<path fill="none" stroke="#63b8ff" d="M84.11,-167.59C74.11,-159.77 59.66,-148.46 47.82,-139.19"/>
<polygon fill="#63b8ff" stroke="#63b8ff" points="50.23,-136.64 40.2,-133.23 45.92,-142.15 50.23,-136.64"/>
</a>
</g>
</g>
<!-- Node13 -->
<g id="Node000013" class="node">
<title>Node13</title>
<g id="a_Node000013"><a xlink:title=" ">
<polygon fill="#e0e0e0" stroke="#999999" points="119.5,-132 72.75,-132 72.75,-112 119.5,-112 119.5,-132"/>
<text text-anchor="middle" x="96.12" y="-118.5" font-family="Helvetica,sans-Serif" font-size="10.00">QLabel</text>
</a>
</g>
</g>
<!-- Node12&#45;&gt;Node13 -->
<g id="edge12_Node000012_Node000013" class="edge">
<title>Node12&#45;&gt;Node13</title>
<g id="a_edge12_Node000012_Node000013"><a xlink:title=" ">
<path fill="none" stroke="#63b8ff" d="M96.12,-167.59C96.12,-161.01 96.12,-151.96 96.12,-143.73"/>
<polygon fill="#63b8ff" stroke="#63b8ff" points="99.63,-143.81 96.13,-133.81 92.63,-143.81 99.63,-143.81"/>
</a>
</g>
</g>
<!-- Node14 -->
<g id="Node000014" class="node">
<title>Node14</title>
<g id="a_Node000014"><a xlink:title=" ">
<polygon fill="#e0e0e0" stroke="#999999" points="216.25,-132 138,-132 138,-112 216.25,-112 216.25,-132"/>
<text text-anchor="middle" x="177.12" y="-118.5" font-family="Helvetica,sans-Serif" font-size="10.00">QMouseEvent</text>
</a>
</g>
</g>
<!-- Node12&#45;&gt;Node14 -->
<g id="edge14_Node000012_Node000014" class="edge">
<title>Node12&#45;&gt;Node14</title>
<g id="a_edge14_Node000012_Node000014"><a xlink:title=" ">
<path fill="none" stroke="#63b8ff" d="M110.23,-167.59C122.12,-159.67 139.39,-148.16 153.4,-138.82"/>
<polygon fill="#63b8ff" stroke="#63b8ff" points="155.27,-141.78 161.65,-133.32 151.38,-135.95 155.27,-141.78"/>
</a>
</g>
</g>
<!-- Node16 -->
<g id="Node000016" class="node">
<title>Node16</title>
<g id="a_Node000016"><a xlink:title=" ">
<polygon fill="#e0e0e0" stroke="#999999" points="1122.62,-20 1079.62,-20 1079.62,0 1122.62,0 1122.62,-20"/>
<text text-anchor="middle" x="1101.12" y="-6.5" font-family="Helvetica,sans-Serif" font-size="10.00">vector</text>
</a>
</g>
</g>
<!-- Node15&#45;&gt;Node16 -->
<g id="edge16_Node000015_Node000016" class="edge">
<title>Node15&#45;&gt;Node16</title>
<g id="a_edge16_Node000015_Node000016"><a xlink:title=" ">
<path fill="none" stroke="#63b8ff" d="M1220.91,-223.74C1202.13,-190.39 1137.67,-75.9 1111.9,-30.13"/>
<polygon fill="#63b8ff" stroke="#63b8ff" points="1115.06,-28.61 1107.1,-21.61 1108.96,-32.05 1115.06,-28.61"/>
</a>
</g>
</g>
<!-- Node17 -->
<g id="Node000017" class="node">
<title>Node17</title>
<g id="a_Node000017"><a xlink:title=" ">
<polygon fill="#e0e0e0" stroke="#999999" points="1497.75,-132 1458.5,-132 1458.5,-112 1497.75,-112 1497.75,-132"/>
<text text-anchor="middle" x="1478.12" y="-118.5" font-family="Helvetica,sans-Serif" font-size="10.00">utility</text>
</a>
</g>
</g>
<!-- Node15&#45;&gt;Node17 -->
<g id="edge17_Node000015_Node000017" class="edge">
<title>Node15&#45;&gt;Node17</title>
<g id="a_edge17_Node000015_Node000017"><a xlink:title=" ">
<path fill="none" stroke="#63b8ff" d="M1254.42,-228.62C1288.22,-222.64 1345.89,-210.07 1391.12,-188 1417.15,-175.3 1443.25,-154.45 1459.98,-139.79"/>
<polygon fill="#63b8ff" stroke="#63b8ff" points="1462.01,-142.67 1467.12,-133.39 1457.34,-137.46 1462.01,-142.67"/>
</a>
</g>
</g>
<!-- Node18 -->
<g id="Node000018" class="node">
<title>Node18</title>
<g id="a_Node000018"><a xlink:title=" ">
<polygon fill="#e0e0e0" stroke="#999999" points="1175.5,-20 1140.75,-20 1140.75,0 1175.5,0 1175.5,-20"/>
<text text-anchor="middle" x="1158.12" y="-6.5" font-family="Helvetica,sans-Serif" font-size="10.00">map</text>
</a>
</g>
</g>
<!-- Node15&#45;&gt;Node18 -->
<g id="edge18_Node000015_Node000018" class="edge">
<title>Node15&#45;&gt;Node18</title>
<g id="a_edge18_Node000015_Node000018"><a xlink:title=" ">
<path fill="none" stroke="#63b8ff" d="M1223.29,-223.74C1213.14,-190.6 1178.45,-77.35 1164.25,-31.01"/>
<polygon fill="#63b8ff" stroke="#63b8ff" points="1167.69,-30.28 1161.42,-21.74 1161,-32.33 1167.69,-30.28"/>
</a>
</g>
</g>
<!-- Node19 -->
<g id="Node000019" class="node">
<title>Node19</title>
<g id="a_Node000019"><a xlink:title=" ">
<polygon fill="#e0e0e0" stroke="#999999" points="1566,-132 1516.25,-132 1516.25,-112 1566,-112 1566,-132"/>
<text text-anchor="middle" x="1541.12" y="-118.5" font-family="Helvetica,sans-Serif" font-size="10.00">optional</text>
</a>
</g>
</g>
<!-- Node15&#45;&gt;Node19 -->
<g id="edge19_Node000015_Node000019" class="edge">
<title>Node15&#45;&gt;Node19</title>
<g id="a_edge19_Node000015_Node000019"><a xlink:title=" ">
<path fill="none" stroke="#63b8ff" d="M1254.42,-229C1293.18,-222.97 1364.51,-209.87 1422.12,-188 1457.02,-174.75 1494.33,-152.99 1517.69,-138.33"/>
<polygon fill="#63b8ff" stroke="#63b8ff" points="1519.26,-141.48 1525.81,-133.16 1515.49,-135.58 1519.26,-141.48"/>
</a>
</g>
</g>
<!-- Node20 -->
<g id="Node000020" class="node">
<title>Node20</title>
<g id="a_Node000020"><a xlink:href="_date_time_8h.html" target="_top" xlink:title="Defines classes and utilities for working with dates, times, and combined date&#45;time values.">
<polygon fill="white" stroke="#666666" points="1325.62,-132 1258.62,-132 1258.62,-112 1325.62,-112 1325.62,-132"/>
<text text-anchor="middle" x="1292.12" y="-118.5" font-family="Helvetica,sans-Serif" font-size="10.00">DateTime.h</text>
</a>
</g>
</g>
<!-- Node15&#45;&gt;Node20 -->
<g id="edge20_Node000015_Node000020" class="edge">
<title>Node15&#45;&gt;Node20</title>
<g id="a_edge20_Node000015_Node000020"><a xlink:title=" ">
<path fill="none" stroke="#63b8ff" d="M1231.75,-223.62C1242.57,-205.6 1266.44,-165.81 1280.71,-142.02"/>
<polygon fill="#63b8ff" stroke="#63b8ff" points="1283.59,-144.03 1285.73,-133.65 1277.59,-140.43 1283.59,-144.03"/>
</a>
</g>
</g>
<!-- Node21 -->
<g id="Node000021" class="node">
<title>Node21</title>
<g id="a_Node000021"><a xlink:href="_helper___functions_8h.html" target="_top" xlink:title="Provides utility functions and templates for common operations.">
<polygon fill="white" stroke="#666666" points="1288.5,-76 1187.75,-76 1187.75,-56 1288.5,-56 1288.5,-76"/>
<text text-anchor="middle" x="1238.12" y="-62.5" font-family="Helvetica,sans-Serif" font-size="10.00">Helper_Functions.h</text>
</a>
</g>
</g>
<!-- Node15&#45;&gt;Node21 -->
<g id="edge44_Node000015_Node000021" class="edge">
<title>Node15&#45;&gt;Node21</title>
<g id="a_edge44_Node000015_Node000021"><a xlink:title=" ">
<path fill="none" stroke="#63b8ff" d="M1226.8,-223.6C1228.69,-197.46 1234.04,-123.48 1236.65,-87.36"/>
<polygon fill="#63b8ff" stroke="#63b8ff" points="1240.11,-88.03 1237.34,-77.81 1233.13,-87.53 1240.11,-88.03"/>
</a>
</g>
</g>
<!-- Node28 -->
<g id="Node000028" class="node">
<title>Node28</title>
<g id="a_Node000028"><a xlink:href="_person_8h.html" target="_top" xlink:title="Defines the Person class and its derived classes: Child, Parent, and Employee.">
<polygon fill="white" stroke="#666666" points="1381.62,-188 1326.62,-188 1326.62,-168 1381.62,-168 1381.62,-188"/>
<text text-anchor="middle" x="1354.12" y="-174.5" font-family="Helvetica,sans-Serif" font-size="10.00">Person.h</text>
</a>
</g>
</g>
<!-- Node15&#45;&gt;Node28 -->
<g id="edge34_Node000015_Node000028" class="edge">
<title>Node15&#45;&gt;Node28</title>
<g id="a_edge34_Node000015_Node000028"><a xlink:title=" ">
<path fill="none" stroke="#63b8ff" d="M1248.42,-223.59C1268.49,-215.13 1298.24,-202.58 1321.08,-192.94"/>
<polygon fill="#63b8ff" stroke="#63b8ff" points="1322.41,-196.18 1330.26,-189.07 1319.69,-189.73 1322.41,-196.18"/>
</a>
</g>
</g>
<!-- Node20&#45;&gt;Node21 -->
<g id="edge21_Node000020_Node000021" class="edge">
<title>Node20&#45;&gt;Node21</title>
<g id="a_edge21_Node000020_Node000021"><a xlink:title=" ">
<path fill="none" stroke="#63b8ff" d="M1282.72,-111.59C1275.21,-104.08 1264.48,-93.35 1255.43,-84.3"/>
<polygon fill="#63b8ff" stroke="#63b8ff" points="1258.04,-81.96 1248.49,-77.37 1253.09,-86.91 1258.04,-81.96"/>
</a>
</g>
</g>
<!-- Node22 -->
<g id="Node000022" class="node">
<title>Node22</title>
<g id="a_Node000022"><a xlink:title=" ">
<polygon fill="#e0e0e0" stroke="#999999" points="1396.88,-20 1343.38,-20 1343.38,0 1396.88,0 1396.88,-20"/>
<text text-anchor="middle" x="1370.12" y="-6.5" font-family="Helvetica,sans-Serif" font-size="10.00">iostream</text>
</a>
</g>
</g>
<!-- Node20&#45;&gt;Node22 -->
<g id="edge32_Node000020_Node000022" class="edge">
<title>Node20&#45;&gt;Node22</title>
<g id="a_edge32_Node000020_Node000022"><a xlink:title=" ">
<path fill="none" stroke="#63b8ff" d="M1298.78,-111.62C1311.61,-93.52 1340.02,-53.45 1356.86,-29.7"/>
<polygon fill="#63b8ff" stroke="#63b8ff" points="1359.69,-31.77 1362.62,-21.59 1353.98,-27.72 1359.69,-31.77"/>
</a>
</g>
</g>
<!-- Node23 -->
<g id="Node000023" class="node">
<title>Node23</title>
<g id="a_Node000023"><a xlink:title=" ">
<polygon fill="#e0e0e0" stroke="#999999" points="1552.12,-20 1512.12,-20 1512.12,0 1552.12,0 1552.12,-20"/>
<text text-anchor="middle" x="1532.12" y="-6.5" font-family="Helvetica,sans-Serif" font-size="10.00">string</text>
</a>
</g>
</g>
<!-- Node20&#45;&gt;Node23 -->
<g id="edge33_Node000020_Node000023" class="edge">
<title>Node20&#45;&gt;Node23</title>
<g id="a_edge33_Node000020_Node000023"><a xlink:title=" ">
<path fill="none" stroke="#63b8ff" d="M1325.89,-116.08C1384.33,-107.28 1499.44,-88.59 1513.12,-76 1525.44,-64.67 1529.93,-45.85 1531.5,-31.37"/>
<polygon fill="#63b8ff" stroke="#63b8ff" points="1534.98,-31.78 1532.14,-21.57 1527.99,-31.32 1534.98,-31.78"/>
</a>
</g>
</g>
<!-- Node26 -->
<g id="Node000026" class="node">
<title>Node26</title>
<g id="a_Node000026"><a xlink:href="_date_time___exceptions_8h.html" target="_top" xlink:title="Defines error messages and the DateTimeError exception class for date and time operations.">
<polygon fill="white" stroke="#666666" points="1503.62,-76 1382.62,-76 1382.62,-56 1503.62,-56 1503.62,-76"/>
<text text-anchor="middle" x="1443.12" y="-62.5" font-family="Helvetica,sans-Serif" font-size="10.00">DateTime_Exceptions.h</text>
</a>
</g>
</g>
<!-- Node20&#45;&gt;Node26 -->
<g id="edge28_Node000020_Node000026" class="edge">
<title>Node20&#45;&gt;Node26</title>
<g id="a_edge28_Node000020_Node000026"><a xlink:title=" ">
<path fill="none" stroke="#63b8ff" d="M1318.43,-111.59C1342.64,-102.94 1378.8,-90 1405.96,-80.29"/>
<polygon fill="#63b8ff" stroke="#63b8ff" points="1406.95,-83.65 1415.19,-76.99 1404.6,-77.06 1406.95,-83.65"/>
</a>
</g>
</g>
<!-- Node21&#45;&gt;Node16 -->
<g id="edge24_Node000021_Node000016" class="edge">
<title>Node21&#45;&gt;Node16</title>
<g id="a_edge24_Node000021_Node000016"><a xlink:title=" ">
<path fill="none" stroke="#63b8ff" d="M1214.26,-55.59C1191.92,-46.79 1158.37,-33.56 1133.6,-23.8"/>
<polygon fill="#63b8ff" stroke="#63b8ff" points="1134.9,-20.55 1124.32,-20.14 1132.34,-27.06 1134.9,-20.55"/>
</a>
</g>
</g>
<!-- Node21&#45;&gt;Node18 -->
<g id="edge27_Node000021_Node000018" class="edge">
<title>Node21&#45;&gt;Node18</title>
<g id="a_edge27_Node000021_Node000018"><a xlink:title=" ">
<path fill="none" stroke="#63b8ff" d="M1224.19,-55.59C1212.45,-47.67 1195.39,-36.16 1181.56,-26.82"/>
<polygon fill="#63b8ff" stroke="#63b8ff" points="1183.67,-24.02 1173.42,-21.33 1179.75,-29.82 1183.67,-24.02"/>
</a>
</g>
</g>
<!-- Node21&#45;&gt;Node22 -->
<g id="edge22_Node000021_Node000022" class="edge">
<title>Node21&#45;&gt;Node22</title>
<g id="a_edge22_Node000021_Node000022"><a xlink:title=" ">
<path fill="none" stroke="#63b8ff" d="M1261.12,-55.59C1281.91,-47.09 1312.78,-34.46 1336.36,-24.81"/>
<polygon fill="#63b8ff" stroke="#63b8ff" points="1337.62,-28.08 1345.55,-21.05 1334.97,-21.6 1337.62,-28.08"/>
</a>
</g>
</g>
<!-- Node21&#45;&gt;Node23 -->
<g id="edge23_Node000021_Node000023" class="edge">
<title>Node21&#45;&gt;Node23</title>
<g id="a_edge23_Node000021_Node000023"><a xlink:title=" ">
<path fill="none" stroke="#63b8ff" d="M1288.67,-55.72C1349.46,-44.55 1449.67,-26.14 1500.48,-16.81"/>
<polygon fill="#63b8ff" stroke="#63b8ff" points="1501.01,-20.27 1510.21,-15.03 1499.74,-13.39 1501.01,-20.27"/>
</a>
</g>
</g>
<!-- Node24 -->
<g id="Node000024" class="node">
<title>Node24</title>
<g id="a_Node000024"><a xlink:title=" ">
<polygon fill="#e0e0e0" stroke="#999999" points="1249,-20 1193.25,-20 1193.25,0 1249,0 1249,-20"/>
<text text-anchor="middle" x="1221.12" y="-6.5" font-family="Helvetica,sans-Serif" font-size="10.00">algorithm</text>
</a>
</g>
</g>
<!-- Node21&#45;&gt;Node24 -->
<g id="edge25_Node000021_Node000024" class="edge">
<title>Node21&#45;&gt;Node24</title>
<g id="a_edge25_Node000021_Node000024"><a xlink:title=" ">
<path fill="none" stroke="#63b8ff" d="M1235.16,-55.59C1233.04,-48.86 1230.11,-39.53 1227.47,-31.15"/>
<polygon fill="#63b8ff" stroke="#63b8ff" points="1230.85,-30.23 1224.51,-21.74 1224.17,-32.33 1230.85,-30.23"/>
</a>
</g>
</g>
<!-- Node25 -->
<g id="Node000025" class="node">
<title>Node25</title>
<g id="a_Node000025"><a xlink:title=" ">
<polygon fill="#e0e0e0" stroke="#999999" points="1325.12,-20 1267.12,-20 1267.12,0 1325.12,0 1325.12,-20"/>
<text text-anchor="middle" x="1296.12" y="-6.5" font-family="Helvetica,sans-Serif" font-size="10.00">functional</text>
</a>
</g>
</g>
<!-- Node21&#45;&gt;Node25 -->
<g id="edge26_Node000021_Node000025" class="edge">
<title>Node21&#45;&gt;Node25</title>
<g id="a_edge26_Node000021_Node000025"><a xlink:title=" ">
<path fill="none" stroke="#63b8ff" d="M1248.23,-55.59C1256.38,-48.01 1268.06,-37.13 1277.84,-28.02"/>
<polygon fill="#63b8ff" stroke="#63b8ff" points="1280.1,-30.71 1285.03,-21.33 1275.33,-25.58 1280.1,-30.71"/>
</a>
</g>
</g>
<!-- Node26&#45;&gt;Node22 -->
<g id="edge30_Node000026_Node000022" class="edge">
<title>Node26&#45;&gt;Node22</title>
<g id="a_edge30_Node000026_Node000022"><a xlink:title=" ">
<path fill="none" stroke="#63b8ff" d="M1430.41,-55.59C1419.73,-47.7 1404.25,-36.24 1391.64,-26.92"/>
<polygon fill="#63b8ff" stroke="#63b8ff" points="1394.03,-24.33 1383.91,-21.2 1389.87,-29.96 1394.03,-24.33"/>
</a>
</g>
</g>
<!-- Node26&#45;&gt;Node23 -->
<g id="edge29_Node000026_Node000023" class="edge">
<title>Node26&#45;&gt;Node23</title>
<g id="a_edge29_Node000026_Node000023"><a xlink:title=" ">
<path fill="none" stroke="#63b8ff" d="M1458.63,-55.59C1471.95,-47.51 1491.4,-35.71 1506.95,-26.27"/>
<polygon fill="#63b8ff" stroke="#63b8ff" points="1508.47,-29.44 1515.21,-21.26 1504.84,-23.46 1508.47,-29.44"/>
</a>
</g>
</g>
<!-- Node27 -->
<g id="Node000027" class="node">
<title>Node27</title>
<g id="a_Node000027"><a xlink:title=" ">
<polygon fill="#e0e0e0" stroke="#999999" points="1473.12,-20 1415.12,-20 1415.12,0 1473.12,0 1473.12,-20"/>
<text text-anchor="middle" x="1444.12" y="-6.5" font-family="Helvetica,sans-Serif" font-size="10.00">exception</text>
</a>
</g>
</g>
<!-- Node26&#45;&gt;Node27 -->
<g id="edge31_Node000026_Node000027" class="edge">
<title>Node26&#45;&gt;Node27</title>
<g id="a_edge31_Node000026_Node000027"><a xlink:title=" ">
<path fill="none" stroke="#63b8ff" d="M1443.3,-55.59C1443.42,-49.01 1443.59,-39.96 1443.74,-31.73"/>
<polygon fill="#63b8ff" stroke="#63b8ff" points="1447.24,-31.87 1443.92,-21.81 1440.24,-31.75 1447.24,-31.87"/>
</a>
</g>
</g>
<!-- Node28&#45;&gt;Node16 -->
<g id="edge38_Node000028_Node000016" class="edge">
<title>Node28&#45;&gt;Node16</title>
<g id="a_edge38_Node000028_Node000016"><a xlink:title=" ">
<path fill="none" stroke="#63b8ff" d="M1326.36,-169.42C1301.8,-162.01 1265.56,-149.32 1237.12,-132 1188.57,-102.42 1141.09,-54.66 1117.16,-28.88"/>
<polygon fill="#63b8ff" stroke="#63b8ff" points="1119.8,-26.58 1110.47,-21.56 1114.64,-31.3 1119.8,-26.58"/>
</a>
</g>
</g>
<!-- Node28&#45;&gt;Node17 -->
<g id="edge37_Node000028_Node000017" class="edge">
<title>Node28&#45;&gt;Node17</title>
<g id="a_edge37_Node000028_Node000017"><a xlink:title=" ">
<path fill="none" stroke="#63b8ff" d="M1375.72,-167.59C1395.64,-158.92 1425.41,-145.96 1447.72,-136.24"/>
<polygon fill="#63b8ff" stroke="#63b8ff" points="1448.85,-139.57 1456.62,-132.37 1446.05,-133.15 1448.85,-139.57"/>
</a>
</g>
</g>
<!-- Node28&#45;&gt;Node19 -->
<g id="edge39_Node000028_Node000019" class="edge">
<title>Node28&#45;&gt;Node19</title>
<g id="a_edge39_Node000028_Node000019"><a xlink:title=" ">
<path fill="none" stroke="#63b8ff" d="M1382.12,-168.92C1414.85,-159.46 1469.1,-143.8 1504.98,-133.44"/>
<polygon fill="#63b8ff" stroke="#63b8ff" points="1505.85,-136.83 1514.48,-130.69 1503.91,-130.1 1505.85,-136.83"/>
</a>
</g>
</g>
<!-- Node28&#45;&gt;Node20 -->
<g id="edge40_Node000028_Node000020" class="edge">
<title>Node28&#45;&gt;Node20</title>
<g id="a_edge40_Node000028_Node000020"><a xlink:title=" ">
<path fill="none" stroke="#63b8ff" d="M1343.33,-167.59C1334.52,-159.93 1321.87,-148.91 1311.35,-139.75"/>
<polygon fill="#63b8ff" stroke="#63b8ff" points="1313.78,-137.22 1303.94,-133.29 1309.18,-142.5 1313.78,-137.22"/>
</a>
</g>
</g>
<!-- Node28&#45;&gt;Node21 -->
<g id="edge43_Node000028_Node000021" class="edge">
<title>Node28&#45;&gt;Node21</title>
<g id="a_edge43_Node000028_Node000021"><a xlink:title=" ">
<path fill="none" stroke="#63b8ff" d="M1326.27,-172.44C1302.36,-167.02 1268.88,-155.55 1250.12,-132 1240.16,-119.49 1237.49,-101.34 1237.12,-87.4"/>
<polygon fill="#63b8ff" stroke="#63b8ff" points="1240.62,-87.62 1237.27,-77.57 1233.62,-87.52 1240.62,-87.62"/>
</a>
</g>
</g>
<!-- Node28&#45;&gt;Node22 -->
<g id="edge35_Node000028_Node000022" class="edge">
<title>Node28&#45;&gt;Node22</title>
<g id="a_edge35_Node000028_Node000022"><a xlink:title=" ">
<path fill="none" stroke="#63b8ff" d="M1355.03,-167.6C1357.55,-141.46 1364.68,-67.48 1368.16,-31.36"/>
<polygon fill="#63b8ff" stroke="#63b8ff" points="1371.61,-32.09 1369.08,-21.8 1364.64,-31.42 1371.61,-32.09"/>
</a>
</g>
</g>
<!-- Node28&#45;&gt;Node23 -->
<g id="edge36_Node000028_Node000023" class="edge">
<title>Node28&#45;&gt;Node23</title>
<g id="a_edge36_Node000028_Node000023"><a xlink:title=" ">
<path fill="none" stroke="#63b8ff" d="M1359.6,-167.52C1368.28,-153.32 1386.56,-126.64 1409.12,-112 1457.27,-80.76 1498.66,-121.89 1533.12,-76 1542.56,-63.44 1541.44,-45.31 1538.45,-31.39"/>
<polygon fill="#63b8ff" stroke="#63b8ff" points="1541.89,-30.72 1535.95,-21.95 1535.13,-32.52 1541.89,-30.72"/>
</a>
</g>
</g>
<!-- Node29 -->
<g id="Node000029" class="node">
<title>Node29</title>
<g id="a_Node000029"><a xlink:href="_data___helper___types_8h.html" target="_top" xlink:title="Defines utility classes for managing contact&#45;related data such as email, phone, and address.">
<polygon fill="white" stroke="#666666" points="1708.38,-76 1597.88,-76 1597.88,-56 1708.38,-56 1708.38,-76"/>
<text text-anchor="middle" x="1653.12" y="-62.5" font-family="Helvetica,sans-Serif" font-size="10.00">Data_Helper_Types.h</text>
</a>
</g>
</g>
<!-- Node28&#45;&gt;Node29 -->
<g id="edge41_Node000028_Node000029" class="edge">
<title>Node28&#45;&gt;Node29</title>
<g id="a_edge41_Node000028_Node000029"><a xlink:title=" ">
<path fill="none" stroke="#63b8ff" d="M1364.71,-167.7C1381.44,-153.5 1415.56,-126.53 1449.12,-112 1473.8,-101.32 1538.34,-87.91 1588.28,-78.52"/>
<polygon fill="#63b8ff" stroke="#63b8ff" points="1588.65,-82.01 1597.84,-76.74 1587.37,-75.13 1588.65,-82.01"/>
</a>
</g>
</g>
<!-- Node29&#45;&gt;Node23 -->
<g id="edge42_Node000029_Node000023" class="edge">
<title>Node29&#45;&gt;Node23</title>
<g id="a_edge42_Node000029_Node000023"><a xlink:title=" ">
<path fill="none" stroke="#63b8ff" d="M1632.05,-55.59C1612.93,-47.06 1584.52,-34.38 1562.87,-24.72"/>
<polygon fill="#63b8ff" stroke="#63b8ff" points="1564.5,-21.61 1553.94,-20.74 1561.64,-28.01 1564.5,-21.61"/>
</a>
</g>
</g>
</g>
</svg>
