<?xml version="1.0" encoding="UTF-8" standalone="no"?>
<!DOCTYPE svg PUBLIC "-//W3C//DTD SVG 1.1//EN"
 "http://www.w3.org/Graphics/SVG/1.1/DTD/svg11.dtd">
<!-- Generated by graphviz version 12.2.1 (20241206.2353)
 -->
<!-- Title: TullipApp/Lesson.h Pages: 1 -->
<!--zoomable 356 -->

<svg id="main" version="1.1" xmlns="http://www.w3.org/2000/svg" xmlns:xlink="http://www.w3.org/1999/xlink" xml:space="preserve" onload="init(evt)">

<style type="text/css"><![CDATA[
.node, .edge {opacity: 0.7;}
.node.selected, .edge.selected {opacity: 1;}
.edge:hover path { stroke: red; }
.edge:hover polygon { stroke: red; fill: red; }
]]></style>

<defs>
  <circle id="rim" cx="0" cy="0" r="7"/>
  <circle id="rim2" cx="0" cy="0" r="3.5"/>
  <g id="zoomPlus">
    <use xlink:href="#rim" fill="#404040"><set attributeName="fill" to="#808080" begin="zoomplus.mouseover" end="zoomplus.mouseout"/></use>
    <path d="M-4,0h8M0,-4v8" fill="none" stroke="white" stroke-width="1.5" pointer-events="none"/>
  </g>
  <g id="zoomMin">
    <use xlink:href="#rim" fill="#404040"><set attributeName="fill" to="#808080" begin="zoomminus.mouseover" end="zoomminus.mouseout"/></use>
    <path d="M-4,0h8" fill="none" stroke="white" stroke-width="1.5" pointer-events="none"/>
  </g>
  <g id="arrowUp" transform="translate(30 24)">
    <use xlink:href="#rim"/>
    <path pointer-events="none" fill="none" stroke="white" stroke-width="1.5" d="M0,-3.0v7 M-2.5,-0.5L0,-3.0L2.5,-0.5"/>
  </g>
  <g id="arrowRight" transform="rotate(90) translate(36 -43)">
    <use xlink:href="#rim"/>
    <path pointer-events="none" fill="none" stroke="white" stroke-width="1.5" d="M0,-3.0v7 M-2.5,-0.5L0,-3.0L2.5,-0.5"/>
  </g>
  <g id="arrowDown" transform="rotate(180) translate(-30 -48)">
    <use xlink:href="#rim"/>
    <path pointer-events="none" fill="none" stroke="white" stroke-width="1.5" d="M0,-3.0v7 M-2.5,-0.5L0,-3.0L2.5,-0.5"/>
  </g>
  <g id="arrowLeft" transform="rotate(270) translate(-36 17)">
    <use xlink:href="#rim"/>
    <path pointer-events="none" fill="none" stroke="white" stroke-width="1.5" d="M0,-3.0v7 M-2.5,-0.5L0,-3.0L2.5,-0.5"/>
  </g>
  <g id="resetDef">
    <use xlink:href="#rim2" fill="#404040"><set attributeName="fill" to="#808080" begin="reset.mouseover" end="reset.mouseout"/></use>
  </g>
</defs>
<script type="application/ecmascript">
var viewWidth = 1738;
var viewHeight = 356;
var sectionId = 'dynsection-1';
</script>
<script type="application/ecmascript" xlink:href="svg.min.js"/>
<svg id="graph" class="graph">
<g id="viewport">
<title>TullipApp/Lesson.h</title>
<!-- Node1 -->
<g id="Node000001" class="node">
<title>Node1</title>
<g id="a_Node000001"><a xlink:title="Defines the Lesson class, which represents a lesson with its associated details.">
<polygon fill="#999999" stroke="#666666" points="1379.88,-348 1280.62,-348 1280.62,-328 1379.88,-328 1379.88,-348"/>
<text text-anchor="middle" x="1330.25" y="-334.5" font-family="Helvetica,sans-Serif" font-size="10.00">TullipApp/Lesson.h</text>
</a>
</g>
</g>
<!-- Node2 -->
<g id="Node000002" class="node">
<title>Node2</title>
<g id="a_Node000002"><a xlink:href="_data_base_8h.html" target="_top" xlink:title="Defines the Database class for managing lessons, parents, children, and employees.">
<polygon fill="white" stroke="#666666" points="862.88,-292 751.62,-292 751.62,-272 862.88,-272 862.88,-292"/>
<text text-anchor="middle" x="807.25" y="-278.5" font-family="Helvetica,sans-Serif" font-size="10.00">TullipApp/DataBase.h</text>
</a>
</g>
</g>
<!-- Node1&#45;&gt;Node2 -->
<g id="edge1_Node000001_Node000002" class="edge">
<title>Node1&#45;&gt;Node2</title>
<g id="a_edge1_Node000001_Node000002"><a xlink:title=" ">
<path fill="none" stroke="#63b8ff" d="M1269.21,-330.7C1166.85,-320.13 962.13,-298.99 863.25,-288.78"/>
<polygon fill="#63b8ff" stroke="#63b8ff" points="1268.76,-334.17 1279.07,-331.72 1269.48,-327.21 1268.76,-334.17"/>
</a>
</g>
</g>
<!-- Node11 -->
<g id="Node000011" class="node">
<title>Node11</title>
<g id="a_Node000011"><a xlink:href="_data_base___parser___functions_8h.html" target="_top" xlink:title=" ">
<polygon fill="white" stroke="#666666" points="969.25,-236 863.25,-236 863.25,-204 969.25,-204 969.25,-236"/>
<text text-anchor="start" x="871.25" y="-222.5" font-family="Helvetica,sans-Serif" font-size="10.00">TullipApp/DataBase</text>
<text text-anchor="middle" x="916.25" y="-210.5" font-family="Helvetica,sans-Serif" font-size="10.00">_Parser_Functions.h</text>
</a>
</g>
</g>
<!-- Node1&#45;&gt;Node11 -->
<g id="edge26_Node000001_Node000011" class="edge">
<title>Node1&#45;&gt;Node11</title>
<g id="a_edge26_Node000001_Node000011"><a xlink:title=" ">
<path fill="none" stroke="#63b8ff" d="M1285.64,-324.5C1208.82,-302.98 1051.92,-259.01 969.51,-235.92"/>
<polygon fill="#63b8ff" stroke="#63b8ff" points="1284.34,-327.77 1294.91,-327.1 1286.23,-321.03 1284.34,-327.77"/>
</a>
</g>
</g>
<!-- Node13 -->
<g id="Node000013" class="node">
<title>Node13</title>
<g id="a_Node000013"><a xlink:href="_lesson_dialog_8h.html" target="_top" xlink:title="Defines the LessonDialog class for managing lesson&#45;related information.">
<polygon fill="white" stroke="#666666" points="1335.75,-230 1208.75,-230 1208.75,-210 1335.75,-210 1335.75,-230"/>
<text text-anchor="middle" x="1272.25" y="-216.5" font-family="Helvetica,sans-Serif" font-size="10.00">TullipApp/LessonDialog.h</text>
</a>
</g>
</g>
<!-- Node1&#45;&gt;Node13 -->
<g id="edge28_Node000001_Node000013" class="edge">
<title>Node1&#45;&gt;Node13</title>
<g id="a_edge28_Node000001_Node000013"><a xlink:title=" ">
<path fill="none" stroke="#63b8ff" d="M1320.38,-317.26C1307.73,-291.95 1286.3,-249.09 1276.9,-230.3"/>
<polygon fill="#63b8ff" stroke="#63b8ff" points="1317.22,-318.77 1324.83,-326.15 1323.49,-315.64 1317.22,-318.77"/>
</a>
</g>
</g>
<!-- Node15 -->
<g id="Node000015" class="node">
<title>Node15</title>
<g id="a_Node000015"><a xlink:href="_lesson_view_8h.html" target="_top" xlink:title="Defines the LessonView class for viewing lesson&#45;related information.">
<polygon fill="white" stroke="#666666" points="1544.38,-162 1424.12,-162 1424.12,-142 1544.38,-142 1544.38,-162"/>
<text text-anchor="middle" x="1484.25" y="-148.5" font-family="Helvetica,sans-Serif" font-size="10.00">TullipApp/LessonView.h</text>
</a>
</g>
</g>
<!-- Node1&#45;&gt;Node15 -->
<g id="edge33_Node000001_Node000015" class="edge">
<title>Node1&#45;&gt;Node15</title>
<g id="a_edge33_Node000001_Node000015"><a xlink:title=" ">
<path fill="none" stroke="#63b8ff" d="M1391.33,-330.89C1491.81,-319.36 1684.53,-290.53 1721.25,-236 1765.33,-170.55 1628.6,-156.16 1544.71,-153.34"/>
<polygon fill="#63b8ff" stroke="#63b8ff" points="1391.19,-327.38 1381.64,-331.98 1391.97,-334.34 1391.19,-327.38"/>
</a>
</g>
</g>
<!-- Node22 -->
<g id="Node000022" class="node">
<title>Node22</title>
<g id="a_Node000022"><a xlink:href="_lesson_8cpp.html" target="_top" xlink:title=" ">
<polygon fill="white" stroke="#666666" points="1574.12,-292 1464.38,-292 1464.38,-272 1574.12,-272 1574.12,-292"/>
<text text-anchor="middle" x="1519.25" y="-278.5" font-family="Helvetica,sans-Serif" font-size="10.00">TullipApp/Lesson.cpp</text>
</a>
</g>
</g>
<!-- Node1&#45;&gt;Node22 -->
<g id="edge27_Node000001_Node000022" class="edge">
<title>Node1&#45;&gt;Node22</title>
<g id="a_edge27_Node000001_Node000022"><a xlink:title=" ">
<path fill="none" stroke="#63b8ff" d="M1374.24,-324.43C1408.39,-314.67 1455.01,-301.35 1486.07,-292.48"/>
<polygon fill="#63b8ff" stroke="#63b8ff" points="1373.28,-321.07 1364.63,-327.18 1375.2,-327.8 1373.28,-321.07"/>
</a>
</g>
</g>
<!-- Node23 -->
<g id="Node000023" class="node">
<title>Node23</title>
<g id="a_Node000023"><a xlink:href="_lesson_entry_8h.html" target="_top" xlink:title="Defines the LessonEntry class for managing the graphical representation of a lesson in the GUI.">
<polygon fill="white" stroke="#666666" points="1446.12,-292 1324.38,-292 1324.38,-272 1446.12,-272 1446.12,-292"/>
<text text-anchor="middle" x="1385.25" y="-278.5" font-family="Helvetica,sans-Serif" font-size="10.00">TullipApp/LessonEntry.h</text>
</a>
</g>
</g>
<!-- Node1&#45;&gt;Node23 -->
<g id="edge29_Node000001_Node000023" class="edge">
<title>Node1&#45;&gt;Node23</title>
<g id="a_edge29_Node000001_Node000023"><a xlink:title=" ">
<path fill="none" stroke="#63b8ff" d="M1348.01,-319.57C1357.24,-310.5 1368.16,-299.78 1375.78,-292.3"/>
<polygon fill="#63b8ff" stroke="#63b8ff" points="1345.59,-317.03 1340.91,-326.53 1350.5,-322.03 1345.59,-317.03"/>
</a>
</g>
</g>
<!-- Node3 -->
<g id="Node000003" class="node">
<title>Node3</title>
<g id="a_Node000003"><a xlink:href="_child_dialog_8h.html" target="_top" xlink:title="Defines the ChildDialog class for managing child&#45;related information.">
<polygon fill="white" stroke="#666666" points="304.25,-230 186.25,-230 186.25,-210 304.25,-210 304.25,-230"/>
<text text-anchor="middle" x="245.25" y="-216.5" font-family="Helvetica,sans-Serif" font-size="10.00">TullipApp/ChildDialog.h</text>
</a>
</g>
</g>
<!-- Node2&#45;&gt;Node3 -->
<g id="edge2_Node000002_Node000003" class="edge">
<title>Node2&#45;&gt;Node3</title>
<g id="a_edge2_Node000002_Node000003"><a xlink:title=" ">
<path fill="none" stroke="#63b8ff" d="M739.77,-275.58C649.51,-268.07 484.56,-253.44 344.25,-236 331.31,-234.39 317.46,-232.44 304.33,-230.48"/>
<polygon fill="#63b8ff" stroke="#63b8ff" points="739.43,-279.06 749.69,-276.4 740.01,-272.09 739.43,-279.06"/>
</a>
</g>
</g>
<!-- Node5 -->
<g id="Node000005" class="node">
<title>Node5</title>
<g id="a_Node000005"><a xlink:href="_data_base_g_u_i_8h.html" target="_top" xlink:title="Defines the DataBaseGUI class for managing the graphical user interface of the database.">
<polygon fill="white" stroke="#666666" points="1087.88,-94 958.62,-94 958.62,-74 1087.88,-74 1087.88,-94"/>
<text text-anchor="middle" x="1023.25" y="-80.5" font-family="Helvetica,sans-Serif" font-size="10.00">TullipApp/DataBaseGUI.h</text>
</a>
</g>
</g>
<!-- Node2&#45;&gt;Node5 -->
<g id="edge10_Node000002_Node000005" class="edge">
<title>Node2&#45;&gt;Node5</title>
<g id="a_edge10_Node000002_Node000005"><a xlink:title=" ">
<path fill="none" stroke="#63b8ff" d="M739.88,-279.85C593.96,-275.2 270.13,-251.91 377.25,-136 416.14,-93.91 802.34,-86.51 958.36,-85.25"/>
<polygon fill="#63b8ff" stroke="#63b8ff" points="739.72,-283.35 749.82,-280.15 739.93,-276.35 739.72,-283.35"/>
</a>
</g>
</g>
<!-- Node10 -->
<g id="Node000010" class="node">
<title>Node10</title>
<g id="a_Node000010"><a xlink:href="_data_base_8cpp.html" target="_top" xlink:title=" ">
<polygon fill="white" stroke="#666666" points="868.12,-162 746.38,-162 746.38,-142 868.12,-142 868.12,-162"/>
<text text-anchor="middle" x="807.25" y="-148.5" font-family="Helvetica,sans-Serif" font-size="10.00">TullipApp/DataBase.cpp</text>
</a>
</g>
</g>
<!-- Node2&#45;&gt;Node10 -->
<g id="edge9_Node000002_Node000010" class="edge">
<title>Node2&#45;&gt;Node10</title>
<g id="a_edge9_Node000002_Node000010"><a xlink:title=" ">
<path fill="none" stroke="#63b8ff" d="M807.25,-260.57C807.25,-232.49 807.25,-183.09 807.25,-162.47"/>
<polygon fill="#63b8ff" stroke="#63b8ff" points="803.75,-260.28 807.25,-270.28 810.75,-260.28 803.75,-260.28"/>
</a>
</g>
</g>
<!-- Node2&#45;&gt;Node11 -->
<g id="edge11_Node000002_Node000011" class="edge">
<title>Node2&#45;&gt;Node11</title>
<g id="a_edge11_Node000002_Node000011"><a xlink:title=" ">
<path fill="none" stroke="#63b8ff" d="M834.35,-266.08C850.79,-257.03 871.73,-245.51 888.32,-236.37"/>
<polygon fill="#63b8ff" stroke="#63b8ff" points="832.68,-263.01 825.61,-270.9 836.06,-269.14 832.68,-263.01"/>
</a>
</g>
</g>
<!-- Node2&#45;&gt;Node13 -->
<g id="edge14_Node000002_Node000013" class="edge">
<title>Node2&#45;&gt;Node13</title>
<g id="a_edge14_Node000002_Node000013"><a xlink:title=" ">
<path fill="none" stroke="#63b8ff" d="M874.71,-272.3C964.18,-260.75 1120.97,-240.52 1208.52,-229.22"/>
<polygon fill="#63b8ff" stroke="#63b8ff" points="874.31,-268.82 864.84,-273.57 875.21,-275.76 874.31,-268.82"/>
</a>
</g>
</g>
<!-- Node19 -->
<g id="Node000019" class="node">
<title>Node19</title>
<g id="a_Node000019"><a xlink:href="_parent_dialog_8h.html" target="_top" xlink:title="Defines the ParentDialog class for managing parent&#45;related information.">
<polygon fill="white" stroke="#666666" points="727.25,-230 603.25,-230 603.25,-210 727.25,-210 727.25,-230"/>
<text text-anchor="middle" x="665.25" y="-216.5" font-family="Helvetica,sans-Serif" font-size="10.00">TullipApp/ParentDialog.h</text>
</a>
</g>
</g>
<!-- Node2&#45;&gt;Node19 -->
<g id="edge22_Node000002_Node000019" class="edge">
<title>Node2&#45;&gt;Node19</title>
<g id="a_edge22_Node000002_Node000019"><a xlink:title=" ">
<path fill="none" stroke="#63b8ff" d="M774.65,-267.23C747.87,-255.91 710.67,-240.19 687.28,-230.31"/>
<polygon fill="#63b8ff" stroke="#63b8ff" points="773.09,-270.37 783.67,-271.04 775.82,-263.92 773.09,-270.37"/>
</a>
</g>
</g>
<!-- Node4 -->
<g id="Node000004" class="node">
<title>Node4</title>
<g id="a_Node000004"><a xlink:href="_child_dialog_8cpp.html" target="_top" xlink:title=" ">
<polygon fill="white" stroke="#666666" points="128.5,-162 0,-162 0,-142 128.5,-142 128.5,-162"/>
<text text-anchor="middle" x="64.25" y="-148.5" font-family="Helvetica,sans-Serif" font-size="10.00">TullipApp/ChildDialog.cpp</text>
</a>
</g>
</g>
<!-- Node3&#45;&gt;Node4 -->
<g id="edge3_Node000003_Node000004" class="edge">
<title>Node3&#45;&gt;Node4</title>
<g id="a_edge3_Node000003_Node000004"><a xlink:title=" ">
<path fill="none" stroke="#63b8ff" d="M208.54,-205.61C173.36,-192.79 121.16,-173.75 90.13,-162.44"/>
<polygon fill="#63b8ff" stroke="#63b8ff" points="207.3,-208.89 217.9,-209.03 209.7,-202.31 207.3,-208.89"/>
</a>
</g>
</g>
<!-- Node3&#45;&gt;Node5 -->
<g id="edge4_Node000003_Node000005" class="edge">
<title>Node3&#45;&gt;Node5</title>
<g id="a_edge4_Node000003_Node000005"><a xlink:title=" ">
<path fill="none" stroke="#63b8ff" d="M263.86,-202.33C289.85,-179.2 334.91,-139.8 344.25,-136 454.37,-91.21 810.56,-85.32 958.21,-84.85"/>
<polygon fill="#63b8ff" stroke="#63b8ff" points="261.81,-199.46 256.68,-208.73 266.47,-204.69 261.81,-199.46"/>
</a>
</g>
</g>
<!-- Node9 -->
<g id="Node000009" class="node">
<title>Node9</title>
<g id="a_Node000009"><a xlink:href="moc___child_dialog_8cpp.html" target="_top" xlink:title=" ">
<polygon fill="white" stroke="#666666" points="291.75,-168 146.75,-168 146.75,-136 291.75,-136 291.75,-168"/>
<text text-anchor="start" x="154.75" y="-154.5" font-family="Helvetica,sans-Serif" font-size="10.00">TullipApp/x64/Debug</text>
<text text-anchor="middle" x="219.25" y="-142.5" font-family="Helvetica,sans-Serif" font-size="10.00">/qt/moc/moc_ChildDialog.cpp</text>
</a>
</g>
</g>
<!-- Node3&#45;&gt;Node9 -->
<g id="edge8_Node000003_Node000009" class="edge">
<title>Node3&#45;&gt;Node9</title>
<g id="a_edge8_Node000003_Node000009"><a xlink:title=" ">
<path fill="none" stroke="#63b8ff" d="M237.4,-199.07C233.51,-189.2 228.88,-177.46 225.28,-168.3"/>
<polygon fill="#63b8ff" stroke="#63b8ff" points="234.05,-200.11 240.97,-208.14 240.56,-197.55 234.05,-200.11"/>
</a>
</g>
</g>
<!-- Node6 -->
<g id="Node000006" class="node">
<title>Node6</title>
<g id="a_Node000006"><a xlink:href="_data_base_g_u_i_8cpp.html" target="_top" xlink:title=" ">
<polygon fill="white" stroke="#666666" points="955.12,-26 815.38,-26 815.38,-6 955.12,-6 955.12,-26"/>
<text text-anchor="middle" x="885.25" y="-12.5" font-family="Helvetica,sans-Serif" font-size="10.00">TullipApp/DataBaseGUI.cpp</text>
</a>
</g>
</g>
<!-- Node5&#45;&gt;Node6 -->
<g id="edge5_Node000005_Node000006" class="edge">
<title>Node5&#45;&gt;Node6</title>
<g id="a_edge5_Node000005_Node000006"><a xlink:title=" ">
<path fill="none" stroke="#63b8ff" d="M993.15,-68.6C966.38,-55.8 928.03,-37.46 904.99,-26.44"/>
<polygon fill="#63b8ff" stroke="#63b8ff" points="991.58,-71.73 1002.11,-72.89 994.6,-65.42 991.58,-71.73"/>
</a>
</g>
</g>
<!-- Node7 -->
<g id="Node000007" class="node">
<title>Node7</title>
<g id="a_Node000007"><a xlink:href="_main_8cpp.html" target="_top" xlink:title=" ">
<polygon fill="white" stroke="#666666" points="1072.88,-26 973.62,-26 973.62,-6 1072.88,-6 1072.88,-26"/>
<text text-anchor="middle" x="1023.25" y="-12.5" font-family="Helvetica,sans-Serif" font-size="10.00">TullipApp/Main.cpp</text>
</a>
</g>
</g>
<!-- Node5&#45;&gt;Node7 -->
<g id="edge6_Node000005_Node000007" class="edge">
<title>Node5&#45;&gt;Node7</title>
<g id="a_edge6_Node000005_Node000007"><a xlink:title=" ">
<path fill="none" stroke="#63b8ff" d="M1023.25,-62.28C1023.25,-50.27 1023.25,-35.74 1023.25,-26.44"/>
<polygon fill="#63b8ff" stroke="#63b8ff" points="1019.75,-62.03 1023.25,-72.03 1026.75,-62.03 1019.75,-62.03"/>
</a>
</g>
</g>
<!-- Node8 -->
<g id="Node000008" class="node">
<title>Node8</title>
<g id="a_Node000008"><a xlink:href="moc___data_base_g_u_i_8cpp.html" target="_top" xlink:title=" ">
<polygon fill="white" stroke="#666666" points="1247.38,-32 1091.12,-32 1091.12,0 1247.38,0 1247.38,-32"/>
<text text-anchor="start" x="1099.12" y="-18.5" font-family="Helvetica,sans-Serif" font-size="10.00">TullipApp/x64/Debug</text>
<text text-anchor="middle" x="1169.25" y="-6.5" font-family="Helvetica,sans-Serif" font-size="10.00">/qt/moc/moc_DataBaseGUI.cpp</text>
</a>
</g>
</g>
<!-- Node5&#45;&gt;Node8 -->
<g id="edge7_Node000005_Node000008" class="edge">
<title>Node5&#45;&gt;Node8</title>
<g id="a_edge7_Node000005_Node000008"><a xlink:title=" ">
<path fill="none" stroke="#63b8ff" d="M1054.37,-68.93C1078.08,-58.21 1110.7,-43.47 1135.12,-32.43"/>
<polygon fill="#63b8ff" stroke="#63b8ff" points="1053.22,-65.61 1045.55,-72.92 1056.1,-71.99 1053.22,-65.61"/>
</a>
</g>
</g>
<!-- Node11&#45;&gt;Node10 -->
<g id="edge12_Node000011_Node000010" class="edge">
<title>Node11&#45;&gt;Node10</title>
<g id="a_edge12_Node000011_Node000010"><a xlink:title=" ">
<path fill="none" stroke="#63b8ff" d="M880.86,-197.57C861.29,-185.72 837.94,-171.59 822.87,-162.46"/>
<polygon fill="#63b8ff" stroke="#63b8ff" points="879.03,-200.56 889.4,-202.74 882.66,-194.57 879.03,-200.56"/>
</a>
</g>
</g>
<!-- Node12 -->
<g id="Node000012" class="node">
<title>Node12</title>
<g id="a_Node000012"><a xlink:href="_data_base___parser___functions_8cpp.html" target="_top" xlink:title=" ">
<polygon fill="white" stroke="#666666" points="1002.5,-168 886,-168 886,-136 1002.5,-136 1002.5,-168"/>
<text text-anchor="start" x="894" y="-154.5" font-family="Helvetica,sans-Serif" font-size="10.00">TullipApp/DataBase</text>
<text text-anchor="middle" x="944.25" y="-142.5" font-family="Helvetica,sans-Serif" font-size="10.00">_Parser_Functions.cpp</text>
</a>
</g>
</g>
<!-- Node11&#45;&gt;Node12 -->
<g id="edge13_Node000011_Node000012" class="edge">
<title>Node11&#45;&gt;Node12</title>
<g id="a_edge13_Node000011_Node000012"><a xlink:title=" ">
<path fill="none" stroke="#63b8ff" d="M927.21,-193.17C930.79,-184.73 934.65,-175.63 937.79,-168.22"/>
<polygon fill="#63b8ff" stroke="#63b8ff" points="924.02,-191.73 923.34,-202.3 930.46,-194.46 924.02,-191.73"/>
</a>
</g>
</g>
<!-- Node13&#45;&gt;Node5 -->
<g id="edge15_Node000013_Node000005" class="edge">
<title>Node13&#45;&gt;Node5</title>
<g id="a_edge15_Node000013_Node000005"><a xlink:title=" ">
<path fill="none" stroke="#63b8ff" d="M1299.17,-203.79C1325.53,-187 1359.05,-159.25 1339.25,-136 1307.68,-98.93 1171.24,-88.71 1088.31,-85.96"/>
<polygon fill="#63b8ff" stroke="#63b8ff" points="1297.56,-200.68 1290.84,-208.87 1301.2,-206.65 1297.56,-200.68"/>
</a>
</g>
</g>
<!-- Node14 -->
<g id="Node000014" class="node">
<title>Node14</title>
<g id="a_Node000014"><a xlink:href="_lesson_dialog_8cpp.html" target="_top" xlink:title=" ">
<polygon fill="white" stroke="#666666" points="1330,-162 1192.5,-162 1192.5,-142 1330,-142 1330,-162"/>
<text text-anchor="middle" x="1261.25" y="-148.5" font-family="Helvetica,sans-Serif" font-size="10.00">TullipApp/LessonDialog.cpp</text>
</a>
</g>
</g>
<!-- Node13&#45;&gt;Node14 -->
<g id="edge16_Node000013_Node000014" class="edge">
<title>Node13&#45;&gt;Node14</title>
<g id="a_edge16_Node000013_Node000014"><a xlink:title=" ">
<path fill="none" stroke="#63b8ff" d="M1268.8,-198.28C1266.8,-186.27 1264.37,-171.74 1262.82,-162.44"/>
<polygon fill="#63b8ff" stroke="#63b8ff" points="1265.33,-198.76 1270.43,-208.05 1272.23,-197.61 1265.33,-198.76"/>
</a>
</g>
</g>
<!-- Node13&#45;&gt;Node15 -->
<g id="edge17_Node000013_Node000015" class="edge">
<title>Node13&#45;&gt;Node15</title>
<g id="a_edge17_Node000013_Node000015"><a xlink:title=" ">
<path fill="none" stroke="#63b8ff" d="M1313.39,-206.19C1354.59,-193.37 1417.04,-173.92 1453.93,-162.44"/>
<polygon fill="#63b8ff" stroke="#63b8ff" points="1312.58,-202.78 1304.07,-209.09 1314.66,-209.46 1312.58,-202.78"/>
</a>
</g>
</g>
<!-- Node18 -->
<g id="Node000018" class="node">
<title>Node18</title>
<g id="a_Node000018"><a xlink:href="moc___lesson_dialog_8cpp.html" target="_top" xlink:title=" ">
<polygon fill="white" stroke="#666666" points="1174.25,-168 1020.25,-168 1020.25,-136 1174.25,-136 1174.25,-168"/>
<text text-anchor="start" x="1028.25" y="-154.5" font-family="Helvetica,sans-Serif" font-size="10.00">TullipApp/x64/Debug</text>
<text text-anchor="middle" x="1097.25" y="-142.5" font-family="Helvetica,sans-Serif" font-size="10.00">/qt/moc/moc_LessonDialog.cpp</text>
</a>
</g>
</g>
<!-- Node13&#45;&gt;Node18 -->
<g id="edge21_Node000013_Node000018" class="edge">
<title>Node13&#45;&gt;Node18</title>
<g id="a_edge21_Node000013_Node000018"><a xlink:title=" ">
<path fill="none" stroke="#63b8ff" d="M1236.47,-205.51C1207.94,-194.74 1167.96,-179.67 1138.16,-168.43"/>
<polygon fill="#63b8ff" stroke="#63b8ff" points="1235.17,-208.76 1245.76,-209.01 1237.64,-202.21 1235.17,-208.76"/>
</a>
</g>
</g>
<!-- Node15&#45;&gt;Node5 -->
<g id="edge18_Node000015_Node000005" class="edge">
<title>Node15&#45;&gt;Node5</title>
<g id="a_edge18_Node000015_Node000005"><a xlink:title=" ">
<path fill="none" stroke="#63b8ff" d="M1428.92,-139.35C1422.63,-138.16 1416.31,-137.01 1410.25,-136 1297.45,-117.16 1165.2,-101 1088.16,-92.17"/>
<polygon fill="#63b8ff" stroke="#63b8ff" points="1428.15,-142.77 1438.64,-141.25 1429.49,-135.9 1428.15,-142.77"/>
</a>
</g>
</g>
<!-- Node16 -->
<g id="Node000016" class="node">
<title>Node16</title>
<g id="a_Node000016"><a xlink:href="_lesson_view_8cpp.html" target="_top" xlink:title=" ">
<polygon fill="white" stroke="#666666" points="1627.62,-94 1496.88,-94 1496.88,-74 1627.62,-74 1627.62,-94"/>
<text text-anchor="middle" x="1562.25" y="-80.5" font-family="Helvetica,sans-Serif" font-size="10.00">TullipApp/LessonView.cpp</text>
</a>
</g>
</g>
<!-- Node15&#45;&gt;Node16 -->
<g id="edge19_Node000015_Node000016" class="edge">
<title>Node15&#45;&gt;Node16</title>
<g id="a_edge19_Node000015_Node000016"><a xlink:title=" ">
<path fill="none" stroke="#63b8ff" d="M1503.95,-134.33C1518.87,-121.71 1538.82,-104.82 1551.1,-94.44"/>
<polygon fill="#63b8ff" stroke="#63b8ff" points="1501.95,-131.43 1496.58,-140.57 1506.48,-136.78 1501.95,-131.43"/>
</a>
</g>
</g>
<!-- Node17 -->
<g id="Node000017" class="node">
<title>Node17</title>
<g id="a_Node000017"><a xlink:href="moc___lesson_view_8cpp.html" target="_top" xlink:title=" ">
<polygon fill="white" stroke="#666666" points="1478.88,-100 1331.62,-100 1331.62,-68 1478.88,-68 1478.88,-100"/>
<text text-anchor="start" x="1339.62" y="-86.5" font-family="Helvetica,sans-Serif" font-size="10.00">TullipApp/x64/Debug</text>
<text text-anchor="middle" x="1405.25" y="-74.5" font-family="Helvetica,sans-Serif" font-size="10.00">/qt/moc/moc_LessonView.cpp</text>
</a>
</g>
</g>
<!-- Node15&#45;&gt;Node17 -->
<g id="edge20_Node000015_Node000017" class="edge">
<title>Node15&#45;&gt;Node17</title>
<g id="a_edge20_Node000015_Node000017"><a xlink:title=" ">
<path fill="none" stroke="#63b8ff" d="M1464.17,-134.22C1451.67,-123.78 1435.72,-110.45 1423.56,-100.3"/>
<polygon fill="#63b8ff" stroke="#63b8ff" points="1461.85,-136.85 1471.77,-140.57 1466.34,-131.48 1461.85,-136.85"/>
</a>
</g>
</g>
<!-- Node19&#45;&gt;Node5 -->
<g id="edge23_Node000019_Node000005" class="edge">
<title>Node19&#45;&gt;Node5</title>
<g id="a_edge23_Node000019_Node000005"><a xlink:title=" ">
<path fill="none" stroke="#63b8ff" d="M676.18,-200.12C688.46,-180.75 710.24,-151.34 737.25,-136 774.09,-115.08 885.75,-99.66 958.16,-91.52"/>
<polygon fill="#63b8ff" stroke="#63b8ff" points="673.35,-198.04 671.15,-208.4 679.33,-201.67 673.35,-198.04"/>
</a>
</g>
</g>
<!-- Node20 -->
<g id="Node000020" class="node">
<title>Node20</title>
<g id="a_Node000020"><a xlink:href="_parent_dialog_8cpp.html" target="_top" xlink:title=" ">
<polygon fill="white" stroke="#666666" points="520.5,-162 386,-162 386,-142 520.5,-142 520.5,-162"/>
<text text-anchor="middle" x="453.25" y="-148.5" font-family="Helvetica,sans-Serif" font-size="10.00">TullipApp/ParentDialog.cpp</text>
</a>
</g>
</g>
<!-- Node19&#45;&gt;Node20 -->
<g id="edge24_Node000019_Node000020" class="edge">
<title>Node19&#45;&gt;Node20</title>
<g id="a_edge24_Node000019_Node000020"><a xlink:title=" ">
<path fill="none" stroke="#63b8ff" d="M624.11,-206.19C582.91,-193.37 520.46,-173.92 483.57,-162.44"/>
<polygon fill="#63b8ff" stroke="#63b8ff" points="622.84,-209.46 633.43,-209.09 624.92,-202.78 622.84,-209.46"/>
</a>
</g>
</g>
<!-- Node21 -->
<g id="Node000021" class="node">
<title>Node21</title>
<g id="a_Node000021"><a xlink:href="moc___parent_dialog_8cpp.html" target="_top" xlink:title=" ">
<polygon fill="white" stroke="#666666" points="689.75,-168 538.75,-168 538.75,-136 689.75,-136 689.75,-168"/>
<text text-anchor="start" x="546.75" y="-154.5" font-family="Helvetica,sans-Serif" font-size="10.00">TullipApp/x64/Debug</text>
<text text-anchor="middle" x="614.25" y="-142.5" font-family="Helvetica,sans-Serif" font-size="10.00">/qt/moc/moc_ParentDialog.cpp</text>
</a>
</g>
</g>
<!-- Node19&#45;&gt;Node21 -->
<g id="edge25_Node000019_Node000021" class="edge">
<title>Node19&#45;&gt;Node21</title>
<g id="a_edge25_Node000019_Node000021"><a xlink:title=" ">
<path fill="none" stroke="#63b8ff" d="M651.08,-200.67C643.21,-190.48 633.53,-177.96 626.07,-168.3"/>
<polygon fill="#63b8ff" stroke="#63b8ff" points="648.13,-202.57 657.02,-208.35 653.67,-198.29 648.13,-202.57"/>
</a>
</g>
</g>
<!-- Node23&#45;&gt;Node5 -->
<g id="edge30_Node000023_Node000005" class="edge">
<title>Node23&#45;&gt;Node5</title>
<g id="a_edge30_Node000023_Node000005"><a xlink:title=" ">
<path fill="none" stroke="#63b8ff" d="M1387.81,-260.17C1390.44,-228.48 1390.18,-168.42 1356.25,-136 1318.83,-100.24 1173.97,-89.55 1088.12,-86.36"/>
<polygon fill="#63b8ff" stroke="#63b8ff" points="1384.34,-259.7 1386.8,-270 1391.31,-260.42 1384.34,-259.7"/>
</a>
</g>
</g>
<!-- Node24 -->
<g id="Node000024" class="node">
<title>Node24</title>
<g id="a_Node000024"><a xlink:href="_lesson_entry_8cpp.html" target="_top" xlink:title=" ">
<polygon fill="white" stroke="#666666" points="1545.38,-230 1413.12,-230 1413.12,-210 1545.38,-210 1545.38,-230"/>
<text text-anchor="middle" x="1479.25" y="-216.5" font-family="Helvetica,sans-Serif" font-size="10.00">TullipApp/LessonEntry.cpp</text>
</a>
</g>
</g>
<!-- Node23&#45;&gt;Node24 -->
<g id="edge31_Node000023_Node000024" class="edge">
<title>Node23&#45;&gt;Node24</title>
<g id="a_edge31_Node000023_Node000024"><a xlink:title=" ">
<path fill="none" stroke="#63b8ff" d="M1409.48,-265.54C1426.94,-254.39 1449.94,-239.71 1464.67,-230.31"/>
<polygon fill="#63b8ff" stroke="#63b8ff" points="1407.76,-262.48 1401.21,-270.81 1411.53,-268.38 1407.76,-262.48"/>
</a>
</g>
</g>
<!-- Node25 -->
<g id="Node000025" class="node">
<title>Node25</title>
<g id="a_Node000025"><a xlink:href="moc___lesson_entry_8cpp.html" target="_top" xlink:title=" ">
<polygon fill="white" stroke="#666666" points="1712.62,-236 1563.88,-236 1563.88,-204 1712.62,-204 1712.62,-236"/>
<text text-anchor="start" x="1571.88" y="-222.5" font-family="Helvetica,sans-Serif" font-size="10.00">TullipApp/x64/Debug</text>
<text text-anchor="middle" x="1638.25" y="-210.5" font-family="Helvetica,sans-Serif" font-size="10.00">/qt/moc/moc_LessonEntry.cpp</text>
</a>
</g>
</g>
<!-- Node23&#45;&gt;Node25 -->
<g id="edge32_Node000023_Node000025" class="edge">
<title>Node23&#45;&gt;Node25</title>
<g id="a_edge32_Node000023_Node000025"><a xlink:title=" ">
<path fill="none" stroke="#63b8ff" d="M1436.25,-268.9C1475.66,-259.56 1530.49,-246.56 1573.08,-236.46"/>
<polygon fill="#63b8ff" stroke="#63b8ff" points="1435.45,-265.5 1426.53,-271.21 1437.07,-272.31 1435.45,-265.5"/>
</a>
</g>
</g>
</g>
</svg>

<g id="navigator" transform="translate(0 0)" fill="#404254">
  <rect fill="#f2f5e9" fill-opacity="0.5" stroke="#606060" stroke-width=".5" x="0" y="0" width="60" height="60"/>
  <use id="zoomplus" xlink:href="#zoomPlus" x="17" y="9" onmousedown="handleZoom(evt,'in')"/>
  <use id="zoomminus" xlink:href="#zoomMin" x="42" y="9" onmousedown="handleZoom(evt,'out')"/>
  <use id="reset" xlink:href="#resetDef" x="30" y="36" onmousedown="handleReset()"/>
   <use id="arrowup" xlink:href="#arrowUp" x="0" y="0" onmousedown="handlePan(0,-1)"/>
  <use id="arrowright" xlink:href="#arrowRight" x="0" y="0" onmousedown="handlePan(1,0)"/>
  <use id="arrowdown" xlink:href="#arrowDown" x="0" y="0" onmousedown="handlePan(0,1)"/>
  <use id="arrowleft" xlink:href="#arrowLeft" x="0" y="0" onmousedown="handlePan(-1,0)"/>
</g>
<svg viewBox="0 0 15 15" width="100%" height="30px" preserveAspectRatio="xMaxYMin meet">
 <g id="arrow_out" transform="scale(0.3 0.3)">
  <a xlink:href="_lesson_8h__dep__incl_org.svg" target="_base">
   <rect id="button" ry="5" rx="5" y="6" x="6" height="38" width="38"
        fill="#f2f5e9" fill-opacity="0.5" stroke="#606060" stroke-width="1.0"/>
   <path id="arrow"
     d="M 11.500037,31.436501 C 11.940474,20.09759 22.043105,11.32322 32.158766,21.979434 L 37.068811,17.246167 C 37.068811,17.246167 37.088388,32 37.088388,32 L 22.160133,31.978069 C 22.160133,31.978069 26.997745,27.140456 26.997745,27.140456 C 18.528582,18.264221 13.291696,25.230495 11.500037,31.436501 z"
     style="fill:#404040;"/>
  </a>
 </g>
</svg>

<style type='text/css'>
<![CDATA[
[data-mouse-over-selected='false'] { opacity: 0.7; }
[data-mouse-over-selected='true']  { opacity: 1.0; }
]]>
</style>
<script type="application/ecmascript"><![CDATA[
document.addEventListener('DOMContentLoaded', (event) => {
  highlightEdges();
  highlightAdjacentNodes();
});
]]></script>
</svg>
