<?xml version="1.0" encoding="UTF-8" standalone="no"?>
<!DOCTYPE svg PUBLIC "-//W3C//DTD SVG 1.1//EN"
 "http://www.w3.org/Graphics/SVG/1.1/DTD/svg11.dtd">
<!-- Generated by graphviz version 12.2.1 (20241206.2353)
 -->
<!-- Title: TullipApp/LessonDialog.cpp Pages: 1 -->
<svg width="2569pt" height="420pt"
 viewBox="0.00 0.00 2569.25 420.00" xmlns="http://www.w3.org/2000/svg" xmlns:xlink="http://www.w3.org/1999/xlink">
<g id="graph0" class="graph" transform="scale(1 1) rotate(0) translate(4 416)">
<title>TullipApp/LessonDialog.cpp</title>
<!-- Node1 -->
<g id="Node000001" class="node">
<title>Node1</title>
<g id="a_Node000001"><a xlink:title=" ">
<polygon fill="#999999" stroke="#666666" points="2469.75,-412 2332.25,-412 2332.25,-392 2469.75,-392 2469.75,-412"/>
<text text-anchor="middle" x="2401" y="-398.5" font-family="Helvetica,sans-Serif" font-size="10.00">TullipApp/LessonDialog.cpp</text>
</a>
</g>
</g>
<!-- Node2 -->
<g id="Node000002" class="node">
<title>Node2</title>
<g id="a_Node000002"><a xlink:href="_lesson_dialog_8h.html" target="_top" xlink:title="Defines the LessonDialog class for managing lesson&#45;related information.">
<polygon fill="white" stroke="#666666" points="429.75,-356 346.25,-356 346.25,-336 429.75,-336 429.75,-356"/>
<text text-anchor="middle" x="388" y="-342.5" font-family="Helvetica,sans-Serif" font-size="10.00">LessonDialog.h</text>
</a>
</g>
</g>
<!-- Node1&#45;&gt;Node2 -->
<g id="edge1_Node000001_Node000002" class="edge">
<title>Node1&#45;&gt;Node2</title>
<g id="a_edge1_Node000001_Node000002"><a xlink:title=" ">
<path fill="none" stroke="#63b8ff" d="M2332,-399.15C2017.3,-390.71 721.43,-355.94 441.48,-348.43"/>
<polygon fill="#63b8ff" stroke="#63b8ff" points="441.65,-344.94 431.56,-348.17 441.46,-351.94 441.65,-344.94"/>
</a>
</g>
</g>
<!-- Node13 -->
<g id="Node000013" class="node">
<title>Node13</title>
<g id="a_Node000013"><a xlink:href="_date_time_8h.html" target="_top" xlink:title="Defines classes and utilities for working with dates, times, and combined date&#45;time values.">
<polygon fill="white" stroke="#666666" points="655.5,-132 588.5,-132 588.5,-112 655.5,-112 655.5,-132"/>
<text text-anchor="middle" x="622" y="-118.5" font-family="Helvetica,sans-Serif" font-size="10.00">DateTime.h</text>
</a>
</g>
</g>
<!-- Node1&#45;&gt;Node13 -->
<g id="edge67_Node000001_Node000013" class="edge">
<title>Node1&#45;&gt;Node13</title>
<g id="a_edge67_Node000001_Node000013"><a xlink:title=" ">
<path fill="none" stroke="#63b8ff" d="M2396.57,-391.53C2388.23,-372.77 2371,-329.4 2371,-291 2371,-291 2371,-291 2371,-233 2371,-202.9 2375.85,-186.36 2352,-168 2317.62,-141.53 935.9,-126.18 667.06,-123.44"/>
<polygon fill="#63b8ff" stroke="#63b8ff" points="667.37,-119.95 657.33,-123.35 667.3,-126.95 667.37,-119.95"/>
</a>
</g>
</g>
<!-- Node40 -->
<g id="Node000040" class="node">
<title>Node40</title>
<g id="a_Node000040"><a xlink:title=" ">
<polygon fill="#e0e0e0" stroke="#999999" points="2462.62,-356 2399.38,-356 2399.38,-336 2462.62,-336 2462.62,-356"/>
<text text-anchor="middle" x="2431" y="-342.5" font-family="Helvetica,sans-Serif" font-size="10.00">QScrollBar</text>
</a>
</g>
</g>
<!-- Node1&#45;&gt;Node40 -->
<g id="edge68_Node000001_Node000040" class="edge">
<title>Node1&#45;&gt;Node40</title>
<g id="a_edge68_Node000001_Node000040"><a xlink:title=" ">
<path fill="none" stroke="#63b8ff" d="M2406.23,-391.59C2410.1,-384.63 2415.51,-374.89 2420.28,-366.29"/>
<polygon fill="#63b8ff" stroke="#63b8ff" points="2423.3,-368.06 2425.1,-357.62 2417.18,-364.66 2423.3,-368.06"/>
</a>
</g>
</g>
<!-- Node41 -->
<g id="Node000041" class="node">
<title>Node41</title>
<g id="a_Node000041"><a xlink:title=" ">
<polygon fill="#e0e0e0" stroke="#999999" points="2561.25,-356 2480.75,-356 2480.75,-336 2561.25,-336 2561.25,-356"/>
<text text-anchor="middle" x="2521" y="-342.5" font-family="Helvetica,sans-Serif" font-size="10.00">QMessageBox</text>
</a>
</g>
</g>
<!-- Node1&#45;&gt;Node41 -->
<g id="edge69_Node000001_Node000041" class="edge">
<title>Node1&#45;&gt;Node41</title>
<g id="a_edge69_Node000001_Node000041"><a xlink:title=" ">
<path fill="none" stroke="#63b8ff" d="M2421.9,-391.59C2440.63,-383.17 2468.36,-370.69 2489.72,-361.07"/>
<polygon fill="#63b8ff" stroke="#63b8ff" points="2490.87,-364.4 2498.55,-357.1 2488,-358.01 2490.87,-364.4"/>
</a>
</g>
</g>
<!-- Node3 -->
<g id="Node000003" class="node">
<title>Node3</title>
<g id="a_Node000003"><a xlink:title=" ">
<polygon fill="#e0e0e0" stroke="#999999" points="564.62,-300 513.38,-300 513.38,-280 564.62,-280 564.62,-300"/>
<text text-anchor="middle" x="539" y="-286.5" font-family="Helvetica,sans-Serif" font-size="10.00">QDialog</text>
</a>
</g>
</g>
<!-- Node2&#45;&gt;Node3 -->
<g id="edge2_Node000002_Node000003" class="edge">
<title>Node2&#45;&gt;Node3</title>
<g id="a_edge2_Node000002_Node000003"><a xlink:title=" ">
<path fill="none" stroke="#63b8ff" d="M414.3,-335.59C438.66,-326.88 475.12,-313.84 502.33,-304.11"/>
<polygon fill="#63b8ff" stroke="#63b8ff" points="503.34,-307.47 511.57,-300.81 500.98,-300.88 503.34,-307.47"/>
</a>
</g>
</g>
<!-- Node4 -->
<g id="Node000004" class="node">
<title>Node4</title>
<g id="a_Node000004"><a xlink:href="_data_base_8h.html" target="_top" xlink:title="Defines the Database class for managing lessons, parents, children, and employees.">
<polygon fill="white" stroke="#666666" points="258.88,-300 191.12,-300 191.12,-280 258.88,-280 258.88,-300"/>
<text text-anchor="middle" x="225" y="-286.5" font-family="Helvetica,sans-Serif" font-size="10.00">DataBase.h</text>
</a>
</g>
</g>
<!-- Node2&#45;&gt;Node4 -->
<g id="edge3_Node000002_Node000004" class="edge">
<title>Node2&#45;&gt;Node4</title>
<g id="a_edge3_Node000002_Node000004"><a xlink:title=" ">
<path fill="none" stroke="#63b8ff" d="M359.61,-335.59C333.24,-326.86 293.74,-313.77 264.34,-304.03"/>
<polygon fill="#63b8ff" stroke="#63b8ff" points="265.64,-300.78 255.05,-300.96 263.44,-307.42 265.64,-300.78"/>
</a>
</g>
</g>
<!-- Node5 -->
<g id="Node000005" class="node">
<title>Node5</title>
<g id="a_Node000005"><a xlink:title=" ">
<polygon fill="#e0e0e0" stroke="#999999" points="269.5,-20 226.5,-20 226.5,0 269.5,0 269.5,-20"/>
<text text-anchor="middle" x="248" y="-6.5" font-family="Helvetica,sans-Serif" font-size="10.00">vector</text>
</a>
</g>
</g>
<!-- Node2&#45;&gt;Node5 -->
<g id="edge65_Node000002_Node000005" class="edge">
<title>Node2&#45;&gt;Node5</title>
<g id="a_edge65_Node000002_Node000005"><a xlink:title=" ">
<path fill="none" stroke="#63b8ff" d="M384.11,-335.72C365.23,-290.68 283.01,-94.52 256.36,-30.96"/>
<polygon fill="#63b8ff" stroke="#63b8ff" points="259.62,-29.66 252.52,-21.79 253.16,-32.37 259.62,-29.66"/>
</a>
</g>
</g>
<!-- Node6 -->
<g id="Node000006" class="node">
<title>Node6</title>
<g id="a_Node000006"><a xlink:title=" ">
<polygon fill="#e0e0e0" stroke="#999999" points="93.38,-20 58.62,-20 58.62,0 93.38,0 93.38,-20"/>
<text text-anchor="middle" x="76" y="-6.5" font-family="Helvetica,sans-Serif" font-size="10.00">map</text>
</a>
</g>
</g>
<!-- Node2&#45;&gt;Node6 -->
<g id="edge66_Node000002_Node000006" class="edge">
<title>Node2&#45;&gt;Node6</title>
<g id="a_edge66_Node000002_Node000006"><a xlink:title=" ">
<path fill="none" stroke="#63b8ff" d="M346.11,-342.04C245.78,-333.8 0,-306.33 0,-235 0,-235 0,-235 0,-121 0,-82.24 32.34,-47.24 54.83,-27.59"/>
<polygon fill="#63b8ff" stroke="#63b8ff" points="56.87,-30.44 62.29,-21.34 52.37,-25.08 56.87,-30.44"/>
</a>
</g>
</g>
<!-- Node10 -->
<g id="Node000010" class="node">
<title>Node10</title>
<g id="a_Node000010"><a xlink:href="_lesson_8h.html" target="_top" xlink:title="Defines the Lesson class, which represents a lesson with its associated details.">
<polygon fill="white" stroke="#666666" points="296.88,-244 241.12,-244 241.12,-224 296.88,-224 296.88,-244"/>
<text text-anchor="middle" x="269" y="-230.5" font-family="Helvetica,sans-Serif" font-size="10.00">Lesson.h</text>
</a>
</g>
</g>
<!-- Node2&#45;&gt;Node10 -->
<g id="edge64_Node000002_Node000010" class="edge">
<title>Node2&#45;&gt;Node10</title>
<g id="a_edge64_Node000002_Node000010"><a xlink:title=" ">
<path fill="none" stroke="#63b8ff" d="M365.93,-335.54C349.46,-327.72 327.11,-315.41 311,-300 297.21,-286.81 285.79,-268.25 278.36,-254.34"/>
<polygon fill="#63b8ff" stroke="#63b8ff" points="281.63,-253.04 273.97,-245.71 275.39,-256.21 281.63,-253.04"/>
</a>
</g>
</g>
<!-- Node22 -->
<g id="Node000022" class="node">
<title>Node22</title>
<g id="a_Node000022"><a xlink:href="_person_check_box_8h.html" target="_top" xlink:title="Defines the PersonCheckBox class for managing a checkbox widget for a person.">
<polygon fill="white" stroke="#666666" points="495.38,-300 394.62,-300 394.62,-280 495.38,-280 495.38,-300"/>
<text text-anchor="middle" x="445" y="-286.5" font-family="Helvetica,sans-Serif" font-size="10.00">PersonCheckBox.h</text>
</a>
</g>
</g>
<!-- Node2&#45;&gt;Node22 -->
<g id="edge41_Node000002_Node000022" class="edge">
<title>Node2&#45;&gt;Node22</title>
<g id="a_edge41_Node000002_Node000022"><a xlink:title=" ">
<path fill="none" stroke="#63b8ff" d="M397.93,-335.59C405.94,-328.01 417.42,-317.13 427.03,-308.02"/>
<polygon fill="#63b8ff" stroke="#63b8ff" points="429.23,-310.76 434.09,-301.34 424.42,-305.68 429.23,-310.76"/>
</a>
</g>
</g>
<!-- Node30 -->
<g id="Node000030" class="node">
<title>Node30</title>
<g id="a_Node000030"><a xlink:href="ui___lesson_dialog_8h.html" target="_top" xlink:title=" ">
<polygon fill="white" stroke="#666666" points="1478.12,-244 1381.88,-244 1381.88,-224 1478.12,-224 1478.12,-244"/>
<text text-anchor="middle" x="1430" y="-230.5" font-family="Helvetica,sans-Serif" font-size="10.00">ui_LessonDialog.h</text>
</a>
</g>
</g>
<!-- Node2&#45;&gt;Node30 -->
<g id="edge50_Node000002_Node000030" class="edge">
<title>Node2&#45;&gt;Node30</title>
<g id="a_edge50_Node000002_Node000030"><a xlink:title=" ">
<path fill="none" stroke="#63b8ff" d="M430.14,-340.55C592.74,-323.39 1179.71,-261.42 1370,-241.33"/>
<polygon fill="#63b8ff" stroke="#63b8ff" points="1370.34,-244.82 1379.92,-240.29 1369.6,-237.86 1370.34,-244.82"/>
</a>
</g>
</g>
<!-- Node4&#45;&gt;Node5 -->
<g id="edge4_Node000004_Node000005" class="edge">
<title>Node4&#45;&gt;Node5</title>
<g id="a_edge4_Node000004_Node000005"><a xlink:title=" ">
<path fill="none" stroke="#63b8ff" d="M190.75,-285.81C161.44,-281.3 120.12,-270.38 95,-244 74.24,-222.2 76,-209.1 76,-179 76,-179 76,-179 76,-121 76,-55.7 165.08,-27.42 215.02,-16.69"/>
<polygon fill="#63b8ff" stroke="#63b8ff" points="215.62,-20.14 224.73,-14.74 214.24,-13.28 215.62,-20.14"/>
</a>
</g>
</g>
<!-- Node4&#45;&gt;Node6 -->
<g id="edge5_Node000004_Node000006" class="edge">
<title>Node4&#45;&gt;Node6</title>
<g id="a_edge5_Node000004_Node000006"><a xlink:title=" ">
<path fill="none" stroke="#63b8ff" d="M190.7,-284.54C136.72,-275.38 38,-249.06 38,-179 38,-179 38,-179 38,-121 38,-87.77 53.68,-51.85 64.9,-30.4"/>
<polygon fill="#63b8ff" stroke="#63b8ff" points="67.94,-32.12 69.67,-21.66 61.8,-28.76 67.94,-32.12"/>
</a>
</g>
</g>
<!-- Node7 -->
<g id="Node000007" class="node">
<title>Node7</title>
<g id="a_Node000007"><a xlink:title=" ">
<polygon fill="#e0e0e0" stroke="#999999" points="576,-20 536,-20 536,0 576,0 576,-20"/>
<text text-anchor="middle" x="556" y="-6.5" font-family="Helvetica,sans-Serif" font-size="10.00">string</text>
</a>
</g>
</g>
<!-- Node4&#45;&gt;Node7 -->
<g id="edge6_Node000004_Node000007" class="edge">
<title>Node4&#45;&gt;Node7</title>
<g id="a_edge6_Node000004_Node000007"><a xlink:title=" ">
<path fill="none" stroke="#63b8ff" d="M247.68,-279.51C299.14,-258.15 428.91,-205.25 540,-168 594.81,-149.62 630.23,-178.19 665,-132 695.8,-91.08 628.43,-47.48 586.41,-25.49"/>
<polygon fill="#63b8ff" stroke="#63b8ff" points="588.19,-22.47 577.69,-21.06 585.02,-28.71 588.19,-22.47"/>
</a>
</g>
</g>
<!-- Node8 -->
<g id="Node000008" class="node">
<title>Node8</title>
<g id="a_Node000008"><a xlink:title=" ">
<polygon fill="#e0e0e0" stroke="#999999" points="153.5,-244 104.5,-244 104.5,-224 153.5,-224 153.5,-244"/>
<text text-anchor="middle" x="129" y="-230.5" font-family="Helvetica,sans-Serif" font-size="10.00">fstream</text>
</a>
</g>
</g>
<!-- Node4&#45;&gt;Node8 -->
<g id="edge7_Node000004_Node000008" class="edge">
<title>Node4&#45;&gt;Node8</title>
<g id="a_edge7_Node000004_Node000008"><a xlink:title=" ">
<path fill="none" stroke="#63b8ff" d="M208.28,-279.59C193.78,-271.44 172.53,-259.48 155.68,-250"/>
<polygon fill="#63b8ff" stroke="#63b8ff" points="157.6,-247.07 147.17,-245.22 154.17,-253.17 157.6,-247.07"/>
</a>
</g>
</g>
<!-- Node9 -->
<g id="Node000009" class="node">
<title>Node9</title>
<g id="a_Node000009"><a xlink:title=" ">
<polygon fill="#e0e0e0" stroke="#999999" points="222.62,-244 171.38,-244 171.38,-224 222.62,-224 222.62,-244"/>
<text text-anchor="middle" x="197" y="-230.5" font-family="Helvetica,sans-Serif" font-size="10.00">memory</text>
</a>
</g>
</g>
<!-- Node4&#45;&gt;Node9 -->
<g id="edge8_Node000004_Node000009" class="edge">
<title>Node4&#45;&gt;Node9</title>
<g id="a_edge8_Node000004_Node000009"><a xlink:title=" ">
<path fill="none" stroke="#63b8ff" d="M220.12,-279.59C216.51,-272.63 211.46,-262.89 207,-254.29"/>
<polygon fill="#63b8ff" stroke="#63b8ff" points="210.23,-252.91 202.52,-245.64 204.01,-256.13 210.23,-252.91"/>
</a>
</g>
</g>
<!-- Node4&#45;&gt;Node10 -->
<g id="edge9_Node000004_Node000010" class="edge">
<title>Node4&#45;&gt;Node10</title>
<g id="a_edge9_Node000004_Node000010"><a xlink:title=" ">
<path fill="none" stroke="#63b8ff" d="M232.66,-279.59C238.59,-272.32 246.99,-262.02 254.21,-253.15"/>
<polygon fill="#63b8ff" stroke="#63b8ff" points="256.86,-255.43 260.47,-245.47 251.44,-251.01 256.86,-255.43"/>
</a>
</g>
</g>
<!-- Node4&#45;&gt;Node13 -->
<g id="edge40_Node000004_Node000013" class="edge">
<title>Node4&#45;&gt;Node13</title>
<g id="a_edge40_Node000004_Node000013"><a xlink:title=" ">
<path fill="none" stroke="#63b8ff" d="M247.76,-279.53C269.62,-270.43 303.57,-256.29 333,-244 425.78,-205.25 535.25,-159.37 588.94,-136.86"/>
<polygon fill="#63b8ff" stroke="#63b8ff" points="590.26,-140.11 598.13,-133.01 587.55,-133.65 590.26,-140.11"/>
</a>
</g>
</g>
<!-- Node20 -->
<g id="Node000020" class="node">
<title>Node20</title>
<g id="a_Node000020"><a xlink:href="_person_8h.html" target="_top" xlink:title="Defines the Person class and its derived classes: Child, Parent, and Employee.">
<polygon fill="white" stroke="#666666" points="416.5,-188 361.5,-188 361.5,-168 416.5,-168 416.5,-188"/>
<text text-anchor="middle" x="389" y="-174.5" font-family="Helvetica,sans-Serif" font-size="10.00">Person.h</text>
</a>
</g>
</g>
<!-- Node4&#45;&gt;Node20 -->
<g id="edge39_Node000004_Node000020" class="edge">
<title>Node4&#45;&gt;Node20</title>
<g id="a_edge39_Node000004_Node000020"><a xlink:title=" ">
<path fill="none" stroke="#63b8ff" d="M243.83,-279.62C260.56,-271.02 285.49,-257.61 306,-244 328.69,-228.94 353.05,-209.43 369.46,-195.73"/>
<polygon fill="#63b8ff" stroke="#63b8ff" points="371.6,-198.51 376.98,-189.39 367.08,-193.16 371.6,-198.51"/>
</a>
</g>
</g>
<!-- Node10&#45;&gt;Node5 -->
<g id="edge10_Node000010_Node000005" class="edge">
<title>Node10&#45;&gt;Node5</title>
<g id="a_edge10_Node000010_Node000005"><a xlink:title=" ">
<path fill="none" stroke="#63b8ff" d="M250.18,-223.56C235.68,-215.59 215.83,-203.07 202,-188 182.77,-167.04 178.12,-159.54 171,-132 160.14,-89.95 199.83,-49.02 226.22,-27.22"/>
<polygon fill="#63b8ff" stroke="#63b8ff" points="228.06,-30.23 233.71,-21.27 223.71,-24.75 228.06,-30.23"/>
</a>
</g>
</g>
<!-- Node10&#45;&gt;Node6 -->
<g id="edge12_Node000010_Node000006" class="edge">
<title>Node10&#45;&gt;Node6</title>
<g id="a_edge12_Node000010_Node000006"><a xlink:title=" ">
<path fill="none" stroke="#63b8ff" d="M241.89,-223.54C223.39,-216.06 199.23,-204.19 182,-188 132.28,-141.28 97.87,-66.1 83.51,-30.67"/>
<polygon fill="#63b8ff" stroke="#63b8ff" points="86.89,-29.71 79.97,-21.69 80.38,-32.28 86.89,-29.71"/>
</a>
</g>
</g>
<!-- Node11 -->
<g id="Node000011" class="node">
<title>Node11</title>
<g id="a_Node000011"><a xlink:title=" ">
<polygon fill="#e0e0e0" stroke="#999999" points="219.62,-132 180.38,-132 180.38,-112 219.62,-112 219.62,-132"/>
<text text-anchor="middle" x="200" y="-118.5" font-family="Helvetica,sans-Serif" font-size="10.00">utility</text>
</a>
</g>
</g>
<!-- Node10&#45;&gt;Node11 -->
<g id="edge11_Node000010_Node000011" class="edge">
<title>Node10&#45;&gt;Node11</title>
<g id="a_edge11_Node000010_Node000011"><a xlink:title=" ">
<path fill="none" stroke="#63b8ff" d="M252.21,-223.57C239.74,-215.67 223.33,-203.26 214,-188 205.79,-174.56 202.35,-156.99 200.94,-143.51"/>
<polygon fill="#63b8ff" stroke="#63b8ff" points="204.43,-143.33 200.21,-133.61 197.45,-143.83 204.43,-143.33"/>
</a>
</g>
</g>
<!-- Node12 -->
<g id="Node000012" class="node">
<title>Node12</title>
<g id="a_Node000012"><a xlink:title=" ">
<polygon fill="#e0e0e0" stroke="#999999" points="363.88,-132 314.12,-132 314.12,-112 363.88,-112 363.88,-132"/>
<text text-anchor="middle" x="339" y="-118.5" font-family="Helvetica,sans-Serif" font-size="10.00">optional</text>
</a>
</g>
</g>
<!-- Node10&#45;&gt;Node12 -->
<g id="edge13_Node000010_Node000012" class="edge">
<title>Node10&#45;&gt;Node12</title>
<g id="a_edge13_Node000010_Node000012"><a xlink:title=" ">
<path fill="none" stroke="#63b8ff" d="M274.97,-223.62C286.44,-205.6 311.76,-165.81 326.89,-142.02"/>
<polygon fill="#63b8ff" stroke="#63b8ff" points="329.82,-143.95 332.23,-133.63 323.91,-140.19 329.82,-143.95"/>
</a>
</g>
</g>
<!-- Node10&#45;&gt;Node13 -->
<g id="edge14_Node000010_Node000013" class="edge">
<title>Node10&#45;&gt;Node13</title>
<g id="a_edge14_Node000010_Node000013"><a xlink:title=" ">
<path fill="none" stroke="#63b8ff" d="M297.22,-226.33C328.98,-218.49 381.9,-204.46 426,-188 445.75,-180.63 449.28,-175.44 469,-168 504.76,-154.51 546.45,-142.48 577.26,-134.26"/>
<polygon fill="#63b8ff" stroke="#63b8ff" points="577.85,-137.73 586.63,-131.8 576.07,-130.96 577.85,-137.73"/>
</a>
</g>
</g>
<!-- Node14 -->
<g id="Node000014" class="node">
<title>Node14</title>
<g id="a_Node000014"><a xlink:href="_helper___functions_8h.html" target="_top" xlink:title="Provides utility functions and templates for common operations.">
<polygon fill="white" stroke="#666666" points="414.38,-76 313.62,-76 313.62,-56 414.38,-56 414.38,-76"/>
<text text-anchor="middle" x="364" y="-62.5" font-family="Helvetica,sans-Serif" font-size="10.00">Helper_Functions.h</text>
</a>
</g>
</g>
<!-- Node10&#45;&gt;Node14 -->
<g id="edge38_Node000010_Node000014" class="edge">
<title>Node10&#45;&gt;Node14</title>
<g id="a_edge38_Node000010_Node000014"><a xlink:title=" ">
<path fill="none" stroke="#63b8ff" d="M269.81,-223.66C272.05,-202.17 279.97,-148.25 305,-112 313.21,-100.11 325.55,-90 336.82,-82.4"/>
<polygon fill="#63b8ff" stroke="#63b8ff" points="338.47,-85.49 345.05,-77.18 334.73,-79.58 338.47,-85.49"/>
</a>
</g>
</g>
<!-- Node10&#45;&gt;Node20 -->
<g id="edge28_Node000010_Node000020" class="edge">
<title>Node10&#45;&gt;Node20</title>
<g id="a_edge28_Node000010_Node000020"><a xlink:title=" ">
<path fill="none" stroke="#63b8ff" d="M289.9,-223.59C308.63,-215.17 336.36,-202.69 357.72,-193.07"/>
<polygon fill="#63b8ff" stroke="#63b8ff" points="358.87,-196.4 366.55,-189.1 356,-190.01 358.87,-196.4"/>
</a>
</g>
</g>
<!-- Node13&#45;&gt;Node7 -->
<g id="edge27_Node000013_Node000007" class="edge">
<title>Node13&#45;&gt;Node7</title>
<g id="a_edge27_Node000013_Node000007"><a xlink:title=" ">
<path fill="none" stroke="#63b8ff" d="M617.96,-111.92C612.14,-99.12 600.8,-75.19 589,-56 583.43,-46.95 576.58,-37.39 570.56,-29.42"/>
<polygon fill="#63b8ff" stroke="#63b8ff" points="573.36,-27.32 564.47,-21.54 567.82,-31.59 573.36,-27.32"/>
</a>
</g>
</g>
<!-- Node13&#45;&gt;Node14 -->
<g id="edge15_Node000013_Node000014" class="edge">
<title>Node13&#45;&gt;Node14</title>
<g id="a_edge15_Node000013_Node000014"><a xlink:title=" ">
<path fill="none" stroke="#63b8ff" d="M588.01,-113.88C545.39,-104.97 471.73,-89.55 420.57,-78.84"/>
<polygon fill="#63b8ff" stroke="#63b8ff" points="421.36,-75.43 410.85,-76.81 419.92,-82.28 421.36,-75.43"/>
</a>
</g>
</g>
<!-- Node15 -->
<g id="Node000015" class="node">
<title>Node15</title>
<g id="a_Node000015"><a xlink:title=" ">
<polygon fill="#e0e0e0" stroke="#999999" points="679.75,-20 626.25,-20 626.25,0 679.75,0 679.75,-20"/>
<text text-anchor="middle" x="653" y="-6.5" font-family="Helvetica,sans-Serif" font-size="10.00">iostream</text>
</a>
</g>
</g>
<!-- Node13&#45;&gt;Node15 -->
<g id="edge26_Node000013_Node000015" class="edge">
<title>Node13&#45;&gt;Node15</title>
<g id="a_edge26_Node000013_Node000015"><a xlink:title=" ">
<path fill="none" stroke="#63b8ff" d="M655.57,-119.2C711.44,-115.41 819.71,-104.5 843,-76 848.62,-69.12 848.51,-62.97 843,-56 824.46,-32.55 741.29,-20.06 691.34,-14.55"/>
<polygon fill="#63b8ff" stroke="#63b8ff" points="691.83,-11.08 681.52,-13.51 691.1,-18.04 691.83,-11.08"/>
</a>
</g>
</g>
<!-- Node18 -->
<g id="Node000018" class="node">
<title>Node18</title>
<g id="a_Node000018"><a xlink:href="_date_time___exceptions_8h.html" target="_top" xlink:title="Defines error messages and the DateTimeError exception class for date and time operations.">
<polygon fill="white" stroke="#666666" points="833.5,-76 712.5,-76 712.5,-56 833.5,-56 833.5,-76"/>
<text text-anchor="middle" x="773" y="-62.5" font-family="Helvetica,sans-Serif" font-size="10.00">DateTime_Exceptions.h</text>
</a>
</g>
</g>
<!-- Node13&#45;&gt;Node18 -->
<g id="edge22_Node000013_Node000018" class="edge">
<title>Node13&#45;&gt;Node18</title>
<g id="a_edge22_Node000013_Node000018"><a xlink:title=" ">
<path fill="none" stroke="#63b8ff" d="M648.3,-111.59C672.51,-102.94 708.68,-90 735.84,-80.29"/>
<polygon fill="#63b8ff" stroke="#63b8ff" points="736.83,-83.65 745.07,-76.99 734.47,-77.06 736.83,-83.65"/>
</a>
</g>
</g>
<!-- Node14&#45;&gt;Node5 -->
<g id="edge18_Node000014_Node000005" class="edge">
<title>Node14&#45;&gt;Node5</title>
<g id="a_edge18_Node000014_Node000005"><a xlink:title=" ">
<path fill="none" stroke="#63b8ff" d="M343.79,-55.59C325.77,-47.21 299.13,-34.8 278.52,-25.21"/>
<polygon fill="#63b8ff" stroke="#63b8ff" points="280.28,-22.17 269.74,-21.12 277.32,-28.51 280.28,-22.17"/>
</a>
</g>
</g>
<!-- Node14&#45;&gt;Node6 -->
<g id="edge21_Node000014_Node000006" class="edge">
<title>Node14&#45;&gt;Node6</title>
<g id="a_edge21_Node000014_Node000006"><a xlink:title=" ">
<path fill="none" stroke="#63b8ff" d="M313.5,-55.53C252.98,-44.18 153.61,-25.55 104.84,-16.41"/>
<polygon fill="#63b8ff" stroke="#63b8ff" points="105.55,-12.98 95.07,-14.58 104.26,-19.86 105.55,-12.98"/>
</a>
</g>
</g>
<!-- Node14&#45;&gt;Node7 -->
<g id="edge17_Node000014_Node000007" class="edge">
<title>Node14&#45;&gt;Node7</title>
<g id="a_edge17_Node000014_Node000007"><a xlink:title=" ">
<path fill="none" stroke="#63b8ff" d="M397.44,-55.59C433.26,-45.52 489.64,-29.66 524.63,-19.82"/>
<polygon fill="#63b8ff" stroke="#63b8ff" points="525.48,-23.22 534.16,-17.14 523.59,-16.48 525.48,-23.22"/>
</a>
</g>
</g>
<!-- Node14&#45;&gt;Node15 -->
<g id="edge16_Node000014_Node000015" class="edge">
<title>Node14&#45;&gt;Node15</title>
<g id="a_edge16_Node000014_Node000015"><a xlink:title=" ">
<path fill="none" stroke="#63b8ff" d="M414.67,-55.53C471.74,-44.87 563.21,-27.78 614.65,-18.17"/>
<polygon fill="#63b8ff" stroke="#63b8ff" points="615.24,-21.62 624.42,-16.34 613.95,-14.74 615.24,-21.62"/>
</a>
</g>
</g>
<!-- Node16 -->
<g id="Node000016" class="node">
<title>Node16</title>
<g id="a_Node000016"><a xlink:title=" ">
<polygon fill="#e0e0e0" stroke="#999999" points="367.88,-20 312.12,-20 312.12,0 367.88,0 367.88,-20"/>
<text text-anchor="middle" x="340" y="-6.5" font-family="Helvetica,sans-Serif" font-size="10.00">algorithm</text>
</a>
</g>
</g>
<!-- Node14&#45;&gt;Node16 -->
<g id="edge19_Node000014_Node000016" class="edge">
<title>Node14&#45;&gt;Node16</title>
<g id="a_edge19_Node000014_Node000016"><a xlink:title=" ">
<path fill="none" stroke="#63b8ff" d="M359.82,-55.59C356.76,-48.7 352.49,-39.1 348.7,-30.57"/>
<polygon fill="#63b8ff" stroke="#63b8ff" points="352.01,-29.4 344.75,-21.68 345.61,-32.24 352.01,-29.4"/>
</a>
</g>
</g>
<!-- Node17 -->
<g id="Node000017" class="node">
<title>Node17</title>
<g id="a_Node000017"><a xlink:title=" ">
<polygon fill="#e0e0e0" stroke="#999999" points="444,-20 386,-20 386,0 444,0 444,-20"/>
<text text-anchor="middle" x="415" y="-6.5" font-family="Helvetica,sans-Serif" font-size="10.00">functional</text>
</a>
</g>
</g>
<!-- Node14&#45;&gt;Node17 -->
<g id="edge20_Node000014_Node000017" class="edge">
<title>Node14&#45;&gt;Node17</title>
<g id="a_edge20_Node000014_Node000017"><a xlink:title=" ">
<path fill="none" stroke="#63b8ff" d="M372.88,-55.59C379.9,-48.16 389.9,-37.58 398.39,-28.58"/>
<polygon fill="#63b8ff" stroke="#63b8ff" points="400.86,-31.07 405.18,-21.4 395.77,-26.27 400.86,-31.07"/>
</a>
</g>
</g>
<!-- Node18&#45;&gt;Node7 -->
<g id="edge23_Node000018_Node000007" class="edge">
<title>Node18&#45;&gt;Node7</title>
<g id="a_edge23_Node000018_Node000007"><a xlink:title=" ">
<path fill="none" stroke="#63b8ff" d="M735.2,-55.59C693.29,-45.17 626.46,-28.53 587.35,-18.8"/>
<polygon fill="#63b8ff" stroke="#63b8ff" points="588.41,-15.46 577.86,-16.44 586.72,-22.25 588.41,-15.46"/>
</a>
</g>
</g>
<!-- Node18&#45;&gt;Node15 -->
<g id="edge24_Node000018_Node000015" class="edge">
<title>Node18&#45;&gt;Node15</title>
<g id="a_edge24_Node000018_Node000015"><a xlink:title=" ">
<path fill="none" stroke="#63b8ff" d="M752.1,-55.59C733.37,-47.17 705.64,-34.69 684.28,-25.07"/>
<polygon fill="#63b8ff" stroke="#63b8ff" points="686,-22.01 675.45,-21.1 683.13,-28.4 686,-22.01"/>
</a>
</g>
</g>
<!-- Node19 -->
<g id="Node000019" class="node">
<title>Node19</title>
<g id="a_Node000019"><a xlink:title=" ">
<polygon fill="#e0e0e0" stroke="#999999" points="802,-20 744,-20 744,0 802,0 802,-20"/>
<text text-anchor="middle" x="773" y="-6.5" font-family="Helvetica,sans-Serif" font-size="10.00">exception</text>
</a>
</g>
</g>
<!-- Node18&#45;&gt;Node19 -->
<g id="edge25_Node000018_Node000019" class="edge">
<title>Node18&#45;&gt;Node19</title>
<g id="a_edge25_Node000018_Node000019"><a xlink:title=" ">
<path fill="none" stroke="#63b8ff" d="M773,-55.59C773,-49.01 773,-39.96 773,-31.73"/>
<polygon fill="#63b8ff" stroke="#63b8ff" points="776.5,-31.81 773,-21.81 769.5,-31.81 776.5,-31.81"/>
</a>
</g>
</g>
<!-- Node20&#45;&gt;Node5 -->
<g id="edge32_Node000020_Node000005" class="edge">
<title>Node20&#45;&gt;Node5</title>
<g id="a_edge32_Node000020_Node000005"><a xlink:title=" ">
<path fill="none" stroke="#63b8ff" d="M389.01,-167.58C388.55,-153.93 385.87,-128.49 373,-112 351.96,-85.04 331.83,-97.21 305,-76 287.94,-62.52 271.94,-43.48 261.26,-29.5"/>
<polygon fill="#63b8ff" stroke="#63b8ff" points="264.15,-27.52 255.39,-21.57 258.53,-31.69 264.15,-27.52"/>
</a>
</g>
</g>
<!-- Node20&#45;&gt;Node7 -->
<g id="edge30_Node000020_Node000007" class="edge">
<title>Node20&#45;&gt;Node7</title>
<g id="a_edge30_Node000020_Node000007"><a xlink:title=" ">
<path fill="none" stroke="#63b8ff" d="M396.25,-167.6C403,-158.66 413.17,-144.74 421,-132 440.99,-99.48 433.45,-82.42 461,-56 478.92,-38.82 504.63,-27.19 524.78,-20.06"/>
<polygon fill="#63b8ff" stroke="#63b8ff" points="525.79,-23.42 534.18,-16.95 523.58,-16.77 525.79,-23.42"/>
</a>
</g>
</g>
<!-- Node20&#45;&gt;Node11 -->
<g id="edge31_Node000020_Node000011" class="edge">
<title>Node20&#45;&gt;Node11</title>
<g id="a_edge31_Node000020_Node000011"><a xlink:title=" ">
<path fill="none" stroke="#63b8ff" d="M361.11,-169.03C326.27,-159.08 266.86,-142.1 230.74,-131.78"/>
<polygon fill="#63b8ff" stroke="#63b8ff" points="231.92,-128.48 221.35,-129.1 230,-135.21 231.92,-128.48"/>
</a>
</g>
</g>
<!-- Node20&#45;&gt;Node12 -->
<g id="edge33_Node000020_Node000012" class="edge">
<title>Node20&#45;&gt;Node12</title>
<g id="a_edge33_Node000020_Node000012"><a xlink:title=" ">
<path fill="none" stroke="#63b8ff" d="M380.29,-167.59C373.41,-160.16 363.61,-149.58 355.28,-140.58"/>
<polygon fill="#63b8ff" stroke="#63b8ff" points="358,-138.37 348.64,-133.41 352.86,-143.12 358,-138.37"/>
</a>
</g>
</g>
<!-- Node20&#45;&gt;Node13 -->
<g id="edge34_Node000020_Node000013" class="edge">
<title>Node20&#45;&gt;Node13</title>
<g id="a_edge34_Node000020_Node000013"><a xlink:title=" ">
<path fill="none" stroke="#63b8ff" d="M416.64,-170.59C456.29,-161.41 529.73,-144.38 577.2,-133.38"/>
<polygon fill="#63b8ff" stroke="#63b8ff" points="577.95,-136.8 586.9,-131.13 576.37,-129.98 577.95,-136.8"/>
</a>
</g>
</g>
<!-- Node20&#45;&gt;Node14 -->
<g id="edge37_Node000020_Node000014" class="edge">
<title>Node20&#45;&gt;Node14</title>
<g id="a_edge37_Node000020_Node000014"><a xlink:title=" ">
<path fill="none" stroke="#63b8ff" d="M395.15,-167.52C402.67,-154.66 413.53,-131.1 406,-112 401.74,-101.19 393.53,-91.45 385.49,-83.82"/>
<polygon fill="#63b8ff" stroke="#63b8ff" points="387.99,-81.36 378.16,-77.41 383.38,-86.63 387.99,-81.36"/>
</a>
</g>
</g>
<!-- Node20&#45;&gt;Node15 -->
<g id="edge29_Node000020_Node000015" class="edge">
<title>Node20&#45;&gt;Node15</title>
<g id="a_edge29_Node000020_Node000015"><a xlink:title=" ">
<path fill="none" stroke="#63b8ff" d="M416.93,-168.09C440.9,-159.99 476.05,-147.03 505,-132 544.82,-111.32 554.41,-104.58 589,-76 606.66,-61.41 624.79,-42.56 637.22,-28.92"/>
<polygon fill="#63b8ff" stroke="#63b8ff" points="639.76,-31.33 643.84,-21.55 634.55,-26.66 639.76,-31.33"/>
</a>
</g>
</g>
<!-- Node21 -->
<g id="Node000021" class="node">
<title>Node21</title>
<g id="a_Node000021"><a xlink:href="_data___helper___types_8h.html" target="_top" xlink:title="Defines utility classes for managing contact&#45;related data such as email, phone, and address.">
<polygon fill="white" stroke="#666666" points="580.25,-76 469.75,-76 469.75,-56 580.25,-56 580.25,-76"/>
<text text-anchor="middle" x="525" y="-62.5" font-family="Helvetica,sans-Serif" font-size="10.00">Data_Helper_Types.h</text>
</a>
</g>
</g>
<!-- Node20&#45;&gt;Node21 -->
<g id="edge35_Node000020_Node000021" class="edge">
<title>Node20&#45;&gt;Node21</title>
<g id="a_edge35_Node000020_Node000021"><a xlink:title=" ">
<path fill="none" stroke="#63b8ff" d="M416.91,-167.99C436.68,-160.61 462.96,-148.65 482,-132 496.63,-119.21 508.38,-100.31 515.87,-86.19"/>
<polygon fill="#63b8ff" stroke="#63b8ff" points="518.9,-87.95 520.27,-77.44 512.65,-84.81 518.9,-87.95"/>
</a>
</g>
</g>
<!-- Node21&#45;&gt;Node7 -->
<g id="edge36_Node000021_Node000007" class="edge">
<title>Node21&#45;&gt;Node7</title>
<g id="a_edge36_Node000021_Node000007"><a xlink:title=" ">
<path fill="none" stroke="#63b8ff" d="M530.4,-55.59C534.44,-48.55 540.12,-38.67 545.09,-30"/>
<polygon fill="#63b8ff" stroke="#63b8ff" points="547.97,-32.03 549.91,-21.61 541.89,-28.54 547.97,-32.03"/>
</a>
</g>
</g>
<!-- Node22&#45;&gt;Node20 -->
<g id="edge49_Node000022_Node000020" class="edge">
<title>Node22&#45;&gt;Node20</title>
<g id="a_edge49_Node000022_Node000020"><a xlink:title=" ">
<path fill="none" stroke="#63b8ff" d="M440.23,-279.62C431.09,-261.68 410.98,-222.17 398.85,-198.35"/>
<polygon fill="#63b8ff" stroke="#63b8ff" points="402.11,-197.03 394.45,-189.7 395.87,-200.2 402.11,-197.03"/>
</a>
</g>
</g>
<!-- Node23 -->
<g id="Node000023" class="node">
<title>Node23</title>
<g id="a_Node000023"><a xlink:title=" ">
<polygon fill="#e0e0e0" stroke="#999999" points="565.12,-244 510.88,-244 510.88,-224 565.12,-224 565.12,-244"/>
<text text-anchor="middle" x="538" y="-230.5" font-family="Helvetica,sans-Serif" font-size="10.00">QWidget</text>
</a>
</g>
</g>
<!-- Node22&#45;&gt;Node23 -->
<g id="edge42_Node000022_Node000023" class="edge">
<title>Node22&#45;&gt;Node23</title>
<g id="a_edge42_Node000022_Node000023"><a xlink:title=" ">
<path fill="none" stroke="#63b8ff" d="M461.2,-279.59C475.25,-271.44 495.83,-259.48 512.16,-250"/>
<polygon fill="#63b8ff" stroke="#63b8ff" points="513.47,-253.29 520.37,-245.24 509.96,-247.23 513.47,-253.29"/>
</a>
</g>
</g>
<!-- Node24 -->
<g id="Node000024" class="node">
<title>Node24</title>
<g id="a_Node000024"><a xlink:href="ui___person_check_box_8h.html" target="_top" xlink:title=" ">
<polygon fill="white" stroke="#666666" points="873.75,-244 760.25,-244 760.25,-224 873.75,-224 873.75,-244"/>
<text text-anchor="middle" x="817" y="-230.5" font-family="Helvetica,sans-Serif" font-size="10.00">ui_PersonCheckBox.h</text>
</a>
</g>
</g>
<!-- Node22&#45;&gt;Node24 -->
<g id="edge43_Node000022_Node000024" class="edge">
<title>Node22&#45;&gt;Node24</title>
<g id="a_edge43_Node000022_Node000024"><a xlink:title=" ">
<path fill="none" stroke="#63b8ff" d="M495.84,-281.22C498.6,-280.8 501.34,-280.39 504,-280 588.27,-267.51 685.39,-253.63 748.81,-244.63"/>
<polygon fill="#63b8ff" stroke="#63b8ff" points="748.96,-248.15 758.36,-243.28 747.97,-241.22 748.96,-248.15"/>
</a>
</g>
</g>
<!-- Node25 -->
<g id="Node000025" class="node">
<title>Node25</title>
<g id="a_Node000025"><a xlink:title=" ">
<polygon fill="#e0e0e0" stroke="#999999" points="1179,-188 1091,-188 1091,-168 1179,-168 1179,-188"/>
<text text-anchor="middle" x="1135" y="-174.5" font-family="Helvetica,sans-Serif" font-size="10.00">QtCore/QVariant</text>
</a>
</g>
</g>
<!-- Node24&#45;&gt;Node25 -->
<g id="edge44_Node000024_Node000025" class="edge">
<title>Node24&#45;&gt;Node25</title>
<g id="a_edge44_Node000024_Node000025"><a xlink:title=" ">
<path fill="none" stroke="#63b8ff" d="M872.76,-223.53C930.87,-213.66 1021.4,-198.29 1079.44,-188.43"/>
<polygon fill="#63b8ff" stroke="#63b8ff" points="1079.83,-191.92 1089.11,-186.79 1078.66,-185.02 1079.83,-191.92"/>
</a>
</g>
</g>
<!-- Node26 -->
<g id="Node000026" class="node">
<title>Node26</title>
<g id="a_Node000026"><a xlink:title=" ">
<polygon fill="#e0e0e0" stroke="#999999" points="806.5,-188 685.5,-188 685.5,-168 806.5,-168 806.5,-188"/>
<text text-anchor="middle" x="746" y="-174.5" font-family="Helvetica,sans-Serif" font-size="10.00">QtWidgets/QApplication</text>
</a>
</g>
</g>
<!-- Node24&#45;&gt;Node26 -->
<g id="edge45_Node000024_Node000026" class="edge">
<title>Node24&#45;&gt;Node26</title>
<g id="a_edge45_Node000024_Node000026"><a xlink:title=" ">
<path fill="none" stroke="#63b8ff" d="M804.63,-223.59C794.35,-215.77 779.48,-204.46 767.29,-195.19"/>
<polygon fill="#63b8ff" stroke="#63b8ff" points="769.51,-192.48 759.43,-189.21 765.27,-198.05 769.51,-192.48"/>
</a>
</g>
</g>
<!-- Node27 -->
<g id="Node000027" class="node">
<title>Node27</title>
<g id="a_Node000027"><a xlink:title=" ">
<polygon fill="#e0e0e0" stroke="#999999" points="667.38,-188 548.62,-188 548.62,-168 667.38,-168 667.38,-188"/>
<text text-anchor="middle" x="608" y="-174.5" font-family="Helvetica,sans-Serif" font-size="10.00">QtWidgets/QCheckBox</text>
</a>
</g>
</g>
<!-- Node24&#45;&gt;Node27 -->
<g id="edge46_Node000024_Node000027" class="edge">
<title>Node24&#45;&gt;Node27</title>
<g id="a_edge46_Node000024_Node000027"><a xlink:title=" ">
<path fill="none" stroke="#63b8ff" d="M780.59,-223.59C745.89,-214.63 693.45,-201.08 655.48,-191.27"/>
<polygon fill="#63b8ff" stroke="#63b8ff" points="656.71,-187.97 646.15,-188.86 654.96,-194.75 656.71,-187.97"/>
</a>
</g>
</g>
<!-- Node28 -->
<g id="Node000028" class="node">
<title>Node28</title>
<g id="a_Node000028"><a xlink:title=" ">
<polygon fill="#e0e0e0" stroke="#999999" points="951.12,-188 824.88,-188 824.88,-168 951.12,-168 951.12,-188"/>
<text text-anchor="middle" x="888" y="-174.5" font-family="Helvetica,sans-Serif" font-size="10.00">QtWidgets/QVBoxLayout</text>
</a>
</g>
</g>
<!-- Node24&#45;&gt;Node28 -->
<g id="edge47_Node000024_Node000028" class="edge">
<title>Node24&#45;&gt;Node28</title>
<g id="a_edge47_Node000024_Node000028"><a xlink:title=" ">
<path fill="none" stroke="#63b8ff" d="M829.37,-223.59C839.65,-215.77 854.52,-204.46 866.71,-195.19"/>
<polygon fill="#63b8ff" stroke="#63b8ff" points="868.73,-198.05 874.57,-189.21 864.49,-192.48 868.73,-198.05"/>
</a>
</g>
</g>
<!-- Node29 -->
<g id="Node000029" class="node">
<title>Node29</title>
<g id="a_Node000029"><a xlink:title=" ">
<polygon fill="#e0e0e0" stroke="#999999" points="1072.88,-188 969.12,-188 969.12,-168 1072.88,-168 1072.88,-188"/>
<text text-anchor="middle" x="1021" y="-174.5" font-family="Helvetica,sans-Serif" font-size="10.00">QtWidgets/QWidget</text>
</a>
</g>
</g>
<!-- Node24&#45;&gt;Node29 -->
<g id="edge48_Node000024_Node000029" class="edge">
<title>Node24&#45;&gt;Node29</title>
<g id="a_edge48_Node000024_Node000029"><a xlink:title=" ">
<path fill="none" stroke="#63b8ff" d="M852.53,-223.59C886.26,-214.67 937.16,-201.19 974.18,-191.39"/>
<polygon fill="#63b8ff" stroke="#63b8ff" points="974.95,-194.81 983.73,-188.87 973.16,-188.04 974.95,-194.81"/>
</a>
</g>
</g>
<!-- Node30&#45;&gt;Node25 -->
<g id="edge51_Node000030_Node000025" class="edge">
<title>Node30&#45;&gt;Node25</title>
<g id="a_edge51_Node000030_Node000025"><a xlink:title=" ">
<path fill="none" stroke="#63b8ff" d="M1381.62,-224.14C1329.12,-214.53 1245.45,-199.22 1190.37,-189.14"/>
<polygon fill="#63b8ff" stroke="#63b8ff" points="1191.03,-185.7 1180.56,-187.34 1189.76,-192.58 1191.03,-185.7"/>
</a>
</g>
</g>
<!-- Node30&#45;&gt;Node26 -->
<g id="edge52_Node000030_Node000026" class="edge">
<title>Node30&#45;&gt;Node26</title>
<g id="a_edge52_Node000030_Node000026"><a xlink:title=" ">
<path fill="none" stroke="#63b8ff" d="M1381.76,-230.37C1279.84,-224.6 1034.86,-209.73 817.97,-188.14"/>
<polygon fill="#63b8ff" stroke="#63b8ff" points="818.49,-184.68 808.19,-187.16 817.79,-191.64 818.49,-184.68"/>
</a>
</g>
</g>
<!-- Node30&#45;&gt;Node28 -->
<g id="edge62_Node000030_Node000028" class="edge">
<title>Node30&#45;&gt;Node28</title>
<g id="a_edge62_Node000030_Node000028"><a xlink:title=" ">
<path fill="none" stroke="#63b8ff" d="M1381.58,-228.83C1298.3,-221.55 1122.29,-205.73 963.03,-188.31"/>
<polygon fill="#63b8ff" stroke="#63b8ff" points="963.42,-184.83 953.1,-187.22 962.65,-191.79 963.42,-184.83"/>
</a>
</g>
</g>
<!-- Node30&#45;&gt;Node29 -->
<g id="edge63_Node000030_Node000029" class="edge">
<title>Node30&#45;&gt;Node29</title>
<g id="a_edge63_Node000030_Node000029"><a xlink:title=" ">
<path fill="none" stroke="#63b8ff" d="M1381.55,-227.01C1316.45,-218.91 1196.84,-203.8 1084.44,-188.32"/>
<polygon fill="#63b8ff" stroke="#63b8ff" points="1085.12,-184.88 1074.73,-186.98 1084.16,-191.81 1085.12,-184.88"/>
</a>
</g>
</g>
<!-- Node31 -->
<g id="Node000031" class="node">
<title>Node31</title>
<g id="a_Node000031"><a xlink:title=" ">
<polygon fill="#e0e0e0" stroke="#999999" points="2342.88,-188 2221.12,-188 2221.12,-168 2342.88,-168 2342.88,-188"/>
<text text-anchor="middle" x="2282" y="-174.5" font-family="Helvetica,sans-Serif" font-size="10.00">QtWidgets/QComboBox</text>
</a>
</g>
</g>
<!-- Node30&#45;&gt;Node31 -->
<g id="edge53_Node000030_Node000031" class="edge">
<title>Node30&#45;&gt;Node31</title>
<g id="a_edge53_Node000030_Node000031"><a xlink:title=" ">
<path fill="none" stroke="#63b8ff" d="M1478.59,-231.39C1599.95,-227.13 1926.34,-214.09 2209.61,-188.15"/>
<polygon fill="#63b8ff" stroke="#63b8ff" points="2209.8,-191.65 2219.44,-187.25 2209.16,-184.68 2209.8,-191.65"/>
</a>
</g>
</g>
<!-- Node32 -->
<g id="Node000032" class="node">
<title>Node32</title>
<g id="a_Node000032"><a xlink:title=" ">
<polygon fill="#e0e0e0" stroke="#999999" points="1297.38,-188 1196.62,-188 1196.62,-168 1297.38,-168 1297.38,-188"/>
<text text-anchor="middle" x="1247" y="-174.5" font-family="Helvetica,sans-Serif" font-size="10.00">QtWidgets/QDialog</text>
</a>
</g>
</g>
<!-- Node30&#45;&gt;Node32 -->
<g id="edge54_Node000030_Node000032" class="edge">
<title>Node30&#45;&gt;Node32</title>
<g id="a_edge54_Node000030_Node000032"><a xlink:title=" ">
<path fill="none" stroke="#63b8ff" d="M1398.12,-223.59C1368.13,-214.74 1323,-201.43 1289.86,-191.65"/>
<polygon fill="#63b8ff" stroke="#63b8ff" points="1291.16,-188.38 1280.58,-188.91 1289.18,-195.09 1291.16,-188.38"/>
</a>
</g>
</g>
<!-- Node33 -->
<g id="Node000033" class="node">
<title>Node33</title>
<g id="a_Node000033"><a xlink:title=" ">
<polygon fill="#e0e0e0" stroke="#999999" points="1416.38,-188 1315.62,-188 1315.62,-168 1416.38,-168 1416.38,-188"/>
<text text-anchor="middle" x="1366" y="-174.5" font-family="Helvetica,sans-Serif" font-size="10.00">QtWidgets/QFrame</text>
</a>
</g>
</g>
<!-- Node30&#45;&gt;Node33 -->
<g id="edge55_Node000030_Node000033" class="edge">
<title>Node30&#45;&gt;Node33</title>
<g id="a_edge55_Node000030_Node000033"><a xlink:title=" ">
<path fill="none" stroke="#63b8ff" d="M1418.85,-223.59C1409.67,-215.85 1396.45,-204.69 1385.52,-195.47"/>
<polygon fill="#63b8ff" stroke="#63b8ff" points="1388.08,-193.05 1378.18,-189.27 1383.56,-198.4 1388.08,-193.05"/>
</a>
</g>
</g>
<!-- Node34 -->
<g id="Node000034" class="node">
<title>Node34</title>
<g id="a_Node000034"><a xlink:title=" ">
<polygon fill="#e0e0e0" stroke="#999999" points="1555.12,-188 1434.88,-188 1434.88,-168 1555.12,-168 1555.12,-188"/>
<text text-anchor="middle" x="1495" y="-174.5" font-family="Helvetica,sans-Serif" font-size="10.00">QtWidgets/QGridLayout</text>
</a>
</g>
</g>
<!-- Node30&#45;&gt;Node34 -->
<g id="edge56_Node000030_Node000034" class="edge">
<title>Node30&#45;&gt;Node34</title>
<g id="a_edge56_Node000030_Node000034"><a xlink:title=" ">
<path fill="none" stroke="#63b8ff" d="M1441.32,-223.59C1450.64,-215.85 1464.08,-204.69 1475.18,-195.47"/>
<polygon fill="#63b8ff" stroke="#63b8ff" points="1477.19,-198.35 1482.64,-189.27 1472.71,-192.96 1477.19,-198.35"/>
</a>
</g>
</g>
<!-- Node35 -->
<g id="Node000035" class="node">
<title>Node35</title>
<g id="a_Node000035"><a xlink:title=" ">
<polygon fill="#e0e0e0" stroke="#999999" points="1669.12,-188 1572.88,-188 1572.88,-168 1669.12,-168 1669.12,-188"/>
<text text-anchor="middle" x="1621" y="-174.5" font-family="Helvetica,sans-Serif" font-size="10.00">QtWidgets/QLabel</text>
</a>
</g>
</g>
<!-- Node30&#45;&gt;Node35 -->
<g id="edge57_Node000030_Node000035" class="edge">
<title>Node30&#45;&gt;Node35</title>
<g id="a_edge57_Node000030_Node000035"><a xlink:title=" ">
<path fill="none" stroke="#63b8ff" d="M1463.27,-223.59C1494.71,-214.71 1542.09,-201.31 1576.71,-191.52"/>
<polygon fill="#63b8ff" stroke="#63b8ff" points="1577.34,-194.98 1586.01,-188.89 1575.44,-188.24 1577.34,-194.98"/>
</a>
</g>
</g>
<!-- Node36 -->
<g id="Node000036" class="node">
<title>Node36</title>
<g id="a_Node000036"><a xlink:title=" ">
<polygon fill="#e0e0e0" stroke="#999999" points="1795.12,-188 1686.88,-188 1686.88,-168 1795.12,-168 1795.12,-188"/>
<text text-anchor="middle" x="1741" y="-174.5" font-family="Helvetica,sans-Serif" font-size="10.00">QtWidgets/QLineEdit</text>
</a>
</g>
</g>
<!-- Node30&#45;&gt;Node36 -->
<g id="edge58_Node000030_Node000036" class="edge">
<title>Node30&#45;&gt;Node36</title>
<g id="a_edge58_Node000030_Node000036"><a xlink:title=" ">
<path fill="none" stroke="#63b8ff" d="M1478.59,-224.56C1531.56,-215.37 1616.59,-200.6 1675.44,-190.38"/>
<polygon fill="#63b8ff" stroke="#63b8ff" points="1675.73,-193.89 1684.98,-188.73 1674.53,-186.99 1675.73,-193.89"/>
</a>
</g>
</g>
<!-- Node37 -->
<g id="Node000037" class="node">
<title>Node37</title>
<g id="a_Node000037"><a xlink:title=" ">
<polygon fill="#e0e0e0" stroke="#999999" points="1937,-188 1813,-188 1813,-168 1937,-168 1937,-188"/>
<text text-anchor="middle" x="1875" y="-174.5" font-family="Helvetica,sans-Serif" font-size="10.00">QtWidgets/QPushButton</text>
</a>
</g>
</g>
<!-- Node30&#45;&gt;Node37 -->
<g id="edge59_Node000030_Node000037" class="edge">
<title>Node30&#45;&gt;Node37</title>
<g id="a_edge59_Node000030_Node000037"><a xlink:title=" ">
<path fill="none" stroke="#63b8ff" d="M1478.43,-227.27C1547.64,-219.06 1679.17,-203.39 1801.61,-188.29"/>
<polygon fill="#63b8ff" stroke="#63b8ff" points="1801.67,-191.81 1811.16,-187.11 1800.81,-184.86 1801.67,-191.81"/>
</a>
</g>
</g>
<!-- Node38 -->
<g id="Node000038" class="node">
<title>Node38</title>
<g id="a_Node000038"><a xlink:title=" ">
<polygon fill="#e0e0e0" stroke="#999999" points="2073,-188 1955,-188 1955,-168 2073,-168 2073,-188"/>
<text text-anchor="middle" x="2014" y="-174.5" font-family="Helvetica,sans-Serif" font-size="10.00">QtWidgets/QScrollArea</text>
</a>
</g>
</g>
<!-- Node30&#45;&gt;Node38 -->
<g id="edge60_Node000030_Node000038" class="edge">
<title>Node30&#45;&gt;Node38</title>
<g id="a_edge60_Node000030_Node000038"><a xlink:title=" ">
<path fill="none" stroke="#63b8ff" d="M1478.45,-229.5C1568.02,-222.87 1765.84,-207.49 1943.29,-188.25"/>
<polygon fill="#63b8ff" stroke="#63b8ff" points="1943.62,-191.74 1953.18,-187.17 1942.86,-184.78 1943.62,-191.74"/>
</a>
</g>
</g>
<!-- Node39 -->
<g id="Node000039" class="node">
<title>Node39</title>
<g id="a_Node000039"><a xlink:title=" ">
<polygon fill="#e0e0e0" stroke="#999999" points="2203,-188 2091,-188 2091,-168 2203,-168 2203,-188"/>
<text text-anchor="middle" x="2147" y="-174.5" font-family="Helvetica,sans-Serif" font-size="10.00">QtWidgets/QTimeEdit</text>
</a>
</g>
</g>
<!-- Node30&#45;&gt;Node39 -->
<g id="edge61_Node000030_Node000039" class="edge">
<title>Node30&#45;&gt;Node39</title>
<g id="a_edge61_Node000030_Node000039"><a xlink:title=" ">
<path fill="none" stroke="#63b8ff" d="M1478.36,-230.8C1584.91,-225.71 1848.18,-211.79 2079.33,-188.21"/>
<polygon fill="#63b8ff" stroke="#63b8ff" points="2079.56,-191.7 2089.15,-187.2 2078.85,-184.74 2079.56,-191.7"/>
</a>
</g>
</g>
</g>
</svg>
