<?xml version="1.0" encoding="UTF-8" standalone="no"?>
<!DOCTYPE svg PUBLIC "-//W3C//DTD SVG 1.1//EN"
 "http://www.w3.org/Graphics/SVG/1.1/DTD/svg11.dtd">
<!-- Generated by graphviz version 12.2.1 (20241206.2353)
 -->
<!-- Title: TullipApp/Lesson.h Pages: 1 -->
<!--zoomable 252 -->

<svg id="main" version="1.1" xmlns="http://www.w3.org/2000/svg" xmlns:xlink="http://www.w3.org/1999/xlink" xml:space="preserve" onload="init(evt)">

<style type="text/css"><![CDATA[
.node, .edge {opacity: 0.7;}
.node.selected, .edge.selected {opacity: 1;}
.edge:hover path { stroke: red; }
.edge:hover polygon { stroke: red; fill: red; }
]]></style>

<defs>
  <circle id="rim" cx="0" cy="0" r="7"/>
  <circle id="rim2" cx="0" cy="0" r="3.5"/>
  <g id="zoomPlus">
    <use xlink:href="#rim" fill="#404040"><set attributeName="fill" to="#808080" begin="zoomplus.mouseover" end="zoomplus.mouseout"/></use>
    <path d="M-4,0h8M0,-4v8" fill="none" stroke="white" stroke-width="1.5" pointer-events="none"/>
  </g>
  <g id="zoomMin">
    <use xlink:href="#rim" fill="#404040"><set attributeName="fill" to="#808080" begin="zoomminus.mouseover" end="zoomminus.mouseout"/></use>
    <path d="M-4,0h8" fill="none" stroke="white" stroke-width="1.5" pointer-events="none"/>
  </g>
  <g id="arrowUp" transform="translate(30 24)">
    <use xlink:href="#rim"/>
    <path pointer-events="none" fill="none" stroke="white" stroke-width="1.5" d="M0,-3.0v7 M-2.5,-0.5L0,-3.0L2.5,-0.5"/>
  </g>
  <g id="arrowRight" transform="rotate(90) translate(36 -43)">
    <use xlink:href="#rim"/>
    <path pointer-events="none" fill="none" stroke="white" stroke-width="1.5" d="M0,-3.0v7 M-2.5,-0.5L0,-3.0L2.5,-0.5"/>
  </g>
  <g id="arrowDown" transform="rotate(180) translate(-30 -48)">
    <use xlink:href="#rim"/>
    <path pointer-events="none" fill="none" stroke="white" stroke-width="1.5" d="M0,-3.0v7 M-2.5,-0.5L0,-3.0L2.5,-0.5"/>
  </g>
  <g id="arrowLeft" transform="rotate(270) translate(-36 17)">
    <use xlink:href="#rim"/>
    <path pointer-events="none" fill="none" stroke="white" stroke-width="1.5" d="M0,-3.0v7 M-2.5,-0.5L0,-3.0L2.5,-0.5"/>
  </g>
  <g id="resetDef">
    <use xlink:href="#rim2" fill="#404040"><set attributeName="fill" to="#808080" begin="reset.mouseover" end="reset.mouseout"/></use>
  </g>
</defs>
<script type="application/ecmascript">
var viewWidth = 650;
var viewHeight = 252;
var sectionId = 'dynsection-0';
</script>
<script type="application/ecmascript" xlink:href="svg.min.js"/>
<svg id="graph" class="graph">
<g id="viewport">
<title>TullipApp/Lesson.h</title>
<!-- Node1 -->
<g id="Node000001" class="node">
<title>Node1</title>
<g id="a_Node000001"><a xlink:title="Defines the Lesson class, which represents a lesson with its associated details.">
<polygon fill="#999999" stroke="#666666" points="291,-244 191.75,-244 191.75,-224 291,-224 291,-244"/>
<text text-anchor="middle" x="241.38" y="-230.5" font-family="Helvetica,sans-Serif" font-size="10.00">TullipApp/Lesson.h</text>
</a>
</g>
</g>
<!-- Node2 -->
<g id="Node000002" class="node">
<title>Node2</title>
<g id="a_Node000002"><a xlink:title=" ">
<polygon fill="#e0e0e0" stroke="#999999" points="95.88,-20 52.88,-20 52.88,0 95.88,0 95.88,-20"/>
<text text-anchor="middle" x="74.38" y="-6.5" font-family="Helvetica,sans-Serif" font-size="10.00">vector</text>
</a>
</g>
</g>
<!-- Node1&#45;&gt;Node2 -->
<g id="edge1_Node000001_Node000002" class="edge">
<title>Node1&#45;&gt;Node2</title>
<g id="a_edge1_Node000001_Node000002"><a xlink:title=" ">
<path fill="none" stroke="#63b8ff" d="M229.48,-223.75C201.6,-201.43 131.6,-141.6 94.38,-76 86.51,-62.15 81.39,-44.85 78.29,-31.58"/>
<polygon fill="#63b8ff" stroke="#63b8ff" points="81.72,-30.88 76.24,-21.82 74.87,-32.32 81.72,-30.88"/>
</a>
</g>
</g>
<!-- Node3 -->
<g id="Node000003" class="node">
<title>Node3</title>
<g id="a_Node000003"><a xlink:title=" ">
<polygon fill="#e0e0e0" stroke="#999999" points="447,-132 407.75,-132 407.75,-112 447,-112 447,-132"/>
<text text-anchor="middle" x="427.38" y="-118.5" font-family="Helvetica,sans-Serif" font-size="10.00">utility</text>
</a>
</g>
</g>
<!-- Node1&#45;&gt;Node3 -->
<g id="edge2_Node000001_Node000003" class="edge">
<title>Node1&#45;&gt;Node3</title>
<g id="a_edge2_Node000001_Node000003"><a xlink:title=" ">
<path fill="none" stroke="#63b8ff" d="M265.7,-223.66C286.2,-215.39 316,-202.42 340.38,-188 364.88,-173.5 390.76,-153.49 407.85,-139.51"/>
<polygon fill="#63b8ff" stroke="#63b8ff" points="409.75,-142.48 415.22,-133.41 405.28,-137.09 409.75,-142.48"/>
</a>
</g>
</g>
<!-- Node4 -->
<g id="Node000004" class="node">
<title>Node4</title>
<g id="a_Node000004"><a xlink:title=" ">
<polygon fill="#e0e0e0" stroke="#999999" points="34.75,-20 0,-20 0,0 34.75,0 34.75,-20"/>
<text text-anchor="middle" x="17.38" y="-6.5" font-family="Helvetica,sans-Serif" font-size="10.00">map</text>
</a>
</g>
</g>
<!-- Node1&#45;&gt;Node4 -->
<g id="edge3_Node000001_Node000004" class="edge">
<title>Node1&#45;&gt;Node4</title>
<g id="a_edge3_Node000001_Node000004"><a xlink:title=" ">
<path fill="none" stroke="#63b8ff" d="M221.26,-223.52C205.02,-215.35 182.04,-202.59 164.38,-188 105.21,-139.12 52.05,-63.92 29.21,-29.43"/>
<polygon fill="#63b8ff" stroke="#63b8ff" points="32.35,-27.83 23.95,-21.38 26.49,-31.66 32.35,-27.83"/>
</a>
</g>
</g>
<!-- Node5 -->
<g id="Node000005" class="node">
<title>Node5</title>
<g id="a_Node000005"><a xlink:title=" ">
<polygon fill="#e0e0e0" stroke="#999999" points="515.25,-132 465.5,-132 465.5,-112 515.25,-112 515.25,-132"/>
<text text-anchor="middle" x="490.38" y="-118.5" font-family="Helvetica,sans-Serif" font-size="10.00">optional</text>
</a>
</g>
</g>
<!-- Node1&#45;&gt;Node5 -->
<g id="edge4_Node000001_Node000005" class="edge">
<title>Node1&#45;&gt;Node5</title>
<g id="a_edge4_Node000001_Node000005"><a xlink:title=" ">
<path fill="none" stroke="#63b8ff" d="M272.41,-223.58C298.66,-215.26 337.05,-202.26 369.38,-188 403.39,-172.99 440.86,-152.15 464.96,-138.15"/>
<polygon fill="#63b8ff" stroke="#63b8ff" points="466.56,-141.27 473.41,-133.19 463.02,-135.23 466.56,-141.27"/>
</a>
</g>
</g>
<!-- Node6 -->
<g id="Node000006" class="node">
<title>Node6</title>
<g id="a_Node000006"><a xlink:href="_date_time_8h.html" target="_top" xlink:title="Defines classes and utilities for working with dates, times, and combined date&#45;time values.">
<polygon fill="white" stroke="#666666" points="274.88,-132 207.88,-132 207.88,-112 274.88,-112 274.88,-132"/>
<text text-anchor="middle" x="241.38" y="-118.5" font-family="Helvetica,sans-Serif" font-size="10.00">DateTime.h</text>
</a>
</g>
</g>
<!-- Node1&#45;&gt;Node6 -->
<g id="edge5_Node000001_Node000006" class="edge">
<title>Node1&#45;&gt;Node6</title>
<g id="a_edge5_Node000001_Node000006"><a xlink:title=" ">
<path fill="none" stroke="#63b8ff" d="M241.38,-223.62C241.38,-206.01 241.38,-167.59 241.38,-143.65"/>
<polygon fill="#63b8ff" stroke="#63b8ff" points="244.88,-143.87 241.38,-133.87 237.88,-143.87 244.88,-143.87"/>
</a>
</g>
</g>
<!-- Node7 -->
<g id="Node000007" class="node">
<title>Node7</title>
<g id="a_Node000007"><a xlink:href="_helper___functions_8h.html" target="_top" xlink:title="Provides utility functions and templates for common operations.">
<polygon fill="white" stroke="#666666" points="221.75,-76 121,-76 121,-56 221.75,-56 221.75,-76"/>
<text text-anchor="middle" x="171.38" y="-62.5" font-family="Helvetica,sans-Serif" font-size="10.00">Helper_Functions.h</text>
</a>
</g>
</g>
<!-- Node1&#45;&gt;Node7 -->
<g id="edge29_Node000001_Node000007" class="edge">
<title>Node1&#45;&gt;Node7</title>
<g id="a_edge29_Node000001_Node000007"><a xlink:title=" ">
<path fill="none" stroke="#63b8ff" d="M234.26,-223.55C221.66,-206.34 195.54,-168.27 182.38,-132 177.16,-117.64 174.39,-100.58 172.94,-87.54"/>
<polygon fill="#63b8ff" stroke="#63b8ff" points="176.43,-87.23 172.02,-77.6 169.46,-87.88 176.43,-87.23"/>
</a>
</g>
</g>
<!-- Node14 -->
<g id="Node000014" class="node">
<title>Node14</title>
<g id="a_Node000014"><a xlink:href="_person_8h.html" target="_top" xlink:title="Defines the Person class and its derived classes: Child, Parent, and Employee.">
<polygon fill="white" stroke="#666666" points="330.88,-188 275.88,-188 275.88,-168 330.88,-168 330.88,-188"/>
<text text-anchor="middle" x="303.38" y="-174.5" font-family="Helvetica,sans-Serif" font-size="10.00">Person.h</text>
</a>
</g>
</g>
<!-- Node1&#45;&gt;Node14 -->
<g id="edge19_Node000001_Node000014" class="edge">
<title>Node1&#45;&gt;Node14</title>
<g id="a_edge19_Node000001_Node000014"><a xlink:title=" ">
<path fill="none" stroke="#63b8ff" d="M252.17,-223.59C260.98,-215.93 273.63,-204.91 284.15,-195.75"/>
<polygon fill="#63b8ff" stroke="#63b8ff" points="286.32,-198.5 291.56,-189.29 281.72,-193.22 286.32,-198.5"/>
</a>
</g>
</g>
<!-- Node6&#45;&gt;Node7 -->
<g id="edge6_Node000006_Node000007" class="edge">
<title>Node6&#45;&gt;Node7</title>
<g id="a_edge6_Node000006_Node000007"><a xlink:title=" ">
<path fill="none" stroke="#63b8ff" d="M229.18,-111.59C219.04,-103.77 204.38,-92.46 192.36,-83.19"/>
<polygon fill="#63b8ff" stroke="#63b8ff" points="194.68,-80.56 184.63,-77.22 190.41,-86.1 194.68,-80.56"/>
</a>
</g>
</g>
<!-- Node8 -->
<g id="Node000008" class="node">
<title>Node8</title>
<g id="a_Node000008"><a xlink:title=" ">
<polygon fill="#e0e0e0" stroke="#999999" points="317.12,-20 263.62,-20 263.62,0 317.12,0 317.12,-20"/>
<text text-anchor="middle" x="290.38" y="-6.5" font-family="Helvetica,sans-Serif" font-size="10.00">iostream</text>
</a>
</g>
</g>
<!-- Node6&#45;&gt;Node8 -->
<g id="edge17_Node000006_Node000008" class="edge">
<title>Node6&#45;&gt;Node8</title>
<g id="a_edge17_Node000006_Node000008"><a xlink:title=" ">
<path fill="none" stroke="#63b8ff" d="M245.55,-111.62C253.51,-93.76 270.99,-54.53 281.61,-30.67"/>
<polygon fill="#63b8ff" stroke="#63b8ff" points="284.72,-32.3 285.59,-21.74 278.33,-29.45 284.72,-32.3"/>
</a>
</g>
</g>
<!-- Node9 -->
<g id="Node000009" class="node">
<title>Node9</title>
<g id="a_Node000009"><a xlink:title=" ">
<polygon fill="#e0e0e0" stroke="#999999" points="485.38,-20 445.38,-20 445.38,0 485.38,0 485.38,-20"/>
<text text-anchor="middle" x="465.38" y="-6.5" font-family="Helvetica,sans-Serif" font-size="10.00">string</text>
</a>
</g>
</g>
<!-- Node6&#45;&gt;Node9 -->
<g id="edge18_Node000006_Node000009" class="edge">
<title>Node6&#45;&gt;Node9</title>
<g id="a_edge18_Node000006_Node000009"><a xlink:title=" ">
<path fill="none" stroke="#63b8ff" d="M275.09,-117.75C326.69,-112.12 421.88,-98.88 446.38,-76 458.47,-64.7 463.01,-46.18 464.64,-31.79"/>
<polygon fill="#63b8ff" stroke="#63b8ff" points="468.12,-32.23 465.34,-22 461.14,-31.73 468.12,-32.23"/>
</a>
</g>
</g>
<!-- Node12 -->
<g id="Node000012" class="node">
<title>Node12</title>
<g id="a_Node000012"><a xlink:href="_date_time___exceptions_8h.html" target="_top" xlink:title="Defines error messages and the DateTimeError exception class for date and time operations.">
<polygon fill="white" stroke="#666666" points="436.88,-76 315.88,-76 315.88,-56 436.88,-56 436.88,-76"/>
<text text-anchor="middle" x="376.38" y="-62.5" font-family="Helvetica,sans-Serif" font-size="10.00">DateTime_Exceptions.h</text>
</a>
</g>
</g>
<!-- Node6&#45;&gt;Node12 -->
<g id="edge13_Node000006_Node000012" class="edge">
<title>Node6&#45;&gt;Node12</title>
<g id="a_edge13_Node000006_Node000012"><a xlink:title=" ">
<path fill="none" stroke="#63b8ff" d="M264.89,-111.59C286.25,-103.05 318.01,-90.35 342.17,-80.68"/>
<polygon fill="#63b8ff" stroke="#63b8ff" points="343.29,-84.01 351.27,-77.04 340.69,-77.51 343.29,-84.01"/>
</a>
</g>
</g>
<!-- Node7&#45;&gt;Node2 -->
<g id="edge9_Node000007_Node000002" class="edge">
<title>Node7&#45;&gt;Node2</title>
<g id="a_edge9_Node000007_Node000002"><a xlink:title=" ">
<path fill="none" stroke="#63b8ff" d="M154.48,-55.59C139.83,-47.44 118.35,-35.48 101.33,-26"/>
<polygon fill="#63b8ff" stroke="#63b8ff" points="103.17,-23.02 92.73,-21.22 99.76,-29.14 103.17,-23.02"/>
</a>
</g>
</g>
<!-- Node7&#45;&gt;Node4 -->
<g id="edge12_Node000007_Node000004" class="edge">
<title>Node7&#45;&gt;Node4</title>
<g id="a_edge12_Node000007_Node000004"><a xlink:title=" ">
<path fill="none" stroke="#63b8ff" d="M144.55,-55.59C116.98,-45.93 74.21,-30.93 46,-21.04"/>
<polygon fill="#63b8ff" stroke="#63b8ff" points="47.27,-17.77 36.68,-17.77 44.95,-24.38 47.27,-17.77"/>
</a>
</g>
</g>
<!-- Node7&#45;&gt;Node8 -->
<g id="edge7_Node000007_Node000008" class="edge">
<title>Node7&#45;&gt;Node8</title>
<g id="a_edge7_Node000007_Node000008"><a xlink:title=" ">
<path fill="none" stroke="#63b8ff" d="M192.1,-55.59C210.59,-47.21 237.92,-34.8 259.07,-25.21"/>
<polygon fill="#63b8ff" stroke="#63b8ff" points="260.45,-28.42 268.11,-21.1 257.55,-22.05 260.45,-28.42"/>
</a>
</g>
</g>
<!-- Node7&#45;&gt;Node9 -->
<g id="edge8_Node000007_Node000009" class="edge">
<title>Node7&#45;&gt;Node9</title>
<g id="a_edge8_Node000007_Node000009"><a xlink:title=" ">
<path fill="none" stroke="#63b8ff" d="M221.92,-55.72C282.71,-44.55 382.92,-26.14 433.73,-16.81"/>
<polygon fill="#63b8ff" stroke="#63b8ff" points="434.26,-20.27 443.46,-15.03 432.99,-13.39 434.26,-20.27"/>
</a>
</g>
</g>
<!-- Node10 -->
<g id="Node000010" class="node">
<title>Node10</title>
<g id="a_Node000010"><a xlink:title=" ">
<polygon fill="#e0e0e0" stroke="#999999" points="169.25,-20 113.5,-20 113.5,0 169.25,0 169.25,-20"/>
<text text-anchor="middle" x="141.38" y="-6.5" font-family="Helvetica,sans-Serif" font-size="10.00">algorithm</text>
</a>
</g>
</g>
<!-- Node7&#45;&gt;Node10 -->
<g id="edge10_Node000007_Node000010" class="edge">
<title>Node7&#45;&gt;Node10</title>
<g id="a_edge10_Node000007_Node000010"><a xlink:title=" ">
<path fill="none" stroke="#63b8ff" d="M166.15,-55.59C162.28,-48.63 156.87,-38.89 152.09,-30.29"/>
<polygon fill="#63b8ff" stroke="#63b8ff" points="155.19,-28.66 147.28,-21.62 149.07,-32.06 155.19,-28.66"/>
</a>
</g>
</g>
<!-- Node11 -->
<g id="Node000011" class="node">
<title>Node11</title>
<g id="a_Node000011"><a xlink:title=" ">
<polygon fill="#e0e0e0" stroke="#999999" points="245.38,-20 187.38,-20 187.38,0 245.38,0 245.38,-20"/>
<text text-anchor="middle" x="216.38" y="-6.5" font-family="Helvetica,sans-Serif" font-size="10.00">functional</text>
</a>
</g>
</g>
<!-- Node7&#45;&gt;Node11 -->
<g id="edge11_Node000007_Node000011" class="edge">
<title>Node7&#45;&gt;Node11</title>
<g id="a_edge11_Node000007_Node000011"><a xlink:title=" ">
<path fill="none" stroke="#63b8ff" d="M179.21,-55.59C185.34,-48.24 194.05,-37.8 201.49,-28.87"/>
<polygon fill="#63b8ff" stroke="#63b8ff" points="203.94,-31.38 207.66,-21.46 198.57,-26.9 203.94,-31.38"/>
</a>
</g>
</g>
<!-- Node12&#45;&gt;Node8 -->
<g id="edge15_Node000012_Node000008" class="edge">
<title>Node12&#45;&gt;Node8</title>
<g id="a_edge15_Node000012_Node000008"><a xlink:title=" ">
<path fill="none" stroke="#63b8ff" d="M361.39,-55.59C348.65,-47.59 330.08,-35.93 315.13,-26.54"/>
<polygon fill="#63b8ff" stroke="#63b8ff" points="317.08,-23.64 306.75,-21.28 313.36,-29.57 317.08,-23.64"/>
</a>
</g>
</g>
<!-- Node12&#45;&gt;Node9 -->
<g id="edge14_Node000012_Node000009" class="edge">
<title>Node12&#45;&gt;Node9</title>
<g id="a_edge14_Node000012_Node000009"><a xlink:title=" ">
<path fill="none" stroke="#63b8ff" d="M391.88,-55.59C405.2,-47.51 424.65,-35.71 440.2,-26.27"/>
<polygon fill="#63b8ff" stroke="#63b8ff" points="441.72,-29.44 448.46,-21.26 438.09,-23.46 441.72,-29.44"/>
</a>
</g>
</g>
<!-- Node13 -->
<g id="Node000013" class="node">
<title>Node13</title>
<g id="a_Node000013"><a xlink:title=" ">
<polygon fill="#e0e0e0" stroke="#999999" points="405.38,-20 347.38,-20 347.38,0 405.38,0 405.38,-20"/>
<text text-anchor="middle" x="376.38" y="-6.5" font-family="Helvetica,sans-Serif" font-size="10.00">exception</text>
</a>
</g>
</g>
<!-- Node12&#45;&gt;Node13 -->
<g id="edge16_Node000012_Node000013" class="edge">
<title>Node12&#45;&gt;Node13</title>
<g id="a_edge16_Node000012_Node000013"><a xlink:title=" ">
<path fill="none" stroke="#63b8ff" d="M376.38,-55.59C376.38,-49.01 376.38,-39.96 376.38,-31.73"/>
<polygon fill="#63b8ff" stroke="#63b8ff" points="379.88,-31.81 376.38,-21.81 372.88,-31.81 379.88,-31.81"/>
</a>
</g>
</g>
<!-- Node14&#45;&gt;Node2 -->
<g id="edge23_Node000014_Node000002" class="edge">
<title>Node14&#45;&gt;Node2</title>
<g id="a_edge23_Node000014_Node000002"><a xlink:title=" ">
<path fill="none" stroke="#63b8ff" d="M275.85,-169.51C250.58,-162.01 212.6,-149.12 182.38,-132 147.71,-112.36 138.42,-106.15 112.38,-76 100.36,-62.09 90.08,-43.85 83.25,-30.23"/>
<polygon fill="#63b8ff" stroke="#63b8ff" points="86.51,-28.94 79.02,-21.44 80.2,-31.97 86.51,-28.94"/>
</a>
</g>
</g>
<!-- Node14&#45;&gt;Node3 -->
<g id="edge22_Node000014_Node000003" class="edge">
<title>Node14&#45;&gt;Node3</title>
<g id="a_edge22_Node000014_Node000003"><a xlink:title=" ">
<path fill="none" stroke="#63b8ff" d="M324.97,-167.59C344.89,-158.92 374.66,-145.96 396.97,-136.24"/>
<polygon fill="#63b8ff" stroke="#63b8ff" points="398.1,-139.57 405.87,-132.37 395.3,-133.15 398.1,-139.57"/>
</a>
</g>
</g>
<!-- Node14&#45;&gt;Node5 -->
<g id="edge24_Node000014_Node000005" class="edge">
<title>Node14&#45;&gt;Node5</title>
<g id="a_edge24_Node000014_Node000005"><a xlink:title=" ">
<path fill="none" stroke="#63b8ff" d="M331.37,-168.92C364.1,-159.46 418.35,-143.8 454.23,-133.44"/>
<polygon fill="#63b8ff" stroke="#63b8ff" points="455.1,-136.83 463.73,-130.69 453.16,-130.1 455.1,-136.83"/>
</a>
</g>
</g>
<!-- Node14&#45;&gt;Node6 -->
<g id="edge25_Node000014_Node000006" class="edge">
<title>Node14&#45;&gt;Node6</title>
<g id="a_edge25_Node000014_Node000006"><a xlink:title=" ">
<path fill="none" stroke="#63b8ff" d="M292.58,-167.59C283.77,-159.93 271.12,-148.91 260.6,-139.75"/>
<polygon fill="#63b8ff" stroke="#63b8ff" points="263.03,-137.22 253.19,-133.29 258.43,-142.5 263.03,-137.22"/>
</a>
</g>
</g>
<!-- Node14&#45;&gt;Node7 -->
<g id="edge28_Node000014_Node000007" class="edge">
<title>Node14&#45;&gt;Node7</title>
<g id="a_edge28_Node000014_Node000007"><a xlink:title=" ">
<path fill="none" stroke="#63b8ff" d="M275.83,-171.11C252.78,-164.9 220.36,-153.02 199.38,-132 187.15,-119.76 179.91,-101.33 175.86,-87.21"/>
<polygon fill="#63b8ff" stroke="#63b8ff" points="179.29,-86.5 173.45,-77.65 172.5,-88.21 179.29,-86.5"/>
</a>
</g>
</g>
<!-- Node14&#45;&gt;Node8 -->
<g id="edge20_Node000014_Node000008" class="edge">
<title>Node14&#45;&gt;Node8</title>
<g id="a_edge20_Node000014_Node000008"><a xlink:title=" ">
<path fill="none" stroke="#63b8ff" d="M302.64,-167.6C300.59,-141.46 294.8,-67.48 291.97,-31.36"/>
<polygon fill="#63b8ff" stroke="#63b8ff" points="295.49,-31.5 291.22,-21.81 288.51,-32.05 295.49,-31.5"/>
</a>
</g>
</g>
<!-- Node14&#45;&gt;Node9 -->
<g id="edge21_Node000014_Node000009" class="edge">
<title>Node14&#45;&gt;Node9</title>
<g id="a_edge21_Node000014_Node000009"><a xlink:title=" ">
<path fill="none" stroke="#63b8ff" d="M308.92,-167.63C317.7,-153.57 336.1,-127.08 358.38,-112 400.27,-83.63 436.79,-117.05 466.38,-76 475.56,-63.25 474.46,-45.15 471.54,-31.28"/>
<polygon fill="#63b8ff" stroke="#63b8ff" points="475.01,-30.69 469.11,-21.89 468.23,-32.45 475.01,-30.69"/>
</a>
</g>
</g>
<!-- Node15 -->
<g id="Node000015" class="node">
<title>Node15</title>
<g id="a_Node000015"><a xlink:href="_data___helper___types_8h.html" target="_top" xlink:title="Defines utility classes for managing contact&#45;related data such as email, phone, and address.">
<polygon fill="white" stroke="#666666" points="641.62,-76 531.12,-76 531.12,-56 641.62,-56 641.62,-76"/>
<text text-anchor="middle" x="586.38" y="-62.5" font-family="Helvetica,sans-Serif" font-size="10.00">Data_Helper_Types.h</text>
</a>
</g>
</g>
<!-- Node14&#45;&gt;Node15 -->
<g id="edge26_Node000014_Node000015" class="edge">
<title>Node14&#45;&gt;Node15</title>
<g id="a_edge26_Node000014_Node000015"><a xlink:title=" ">
<path fill="none" stroke="#63b8ff" d="M314.27,-167.54C331.14,-153.38 365.13,-126.75 398.38,-112 436.88,-94.92 482.82,-83.77 519.65,-76.84"/>
<polygon fill="#63b8ff" stroke="#63b8ff" points="520.06,-80.32 529.28,-75.1 518.82,-73.44 520.06,-80.32"/>
</a>
</g>
</g>
<!-- Node15&#45;&gt;Node9 -->
<g id="edge27_Node000015_Node000009" class="edge">
<title>Node15&#45;&gt;Node9</title>
<g id="a_edge27_Node000015_Node000009"><a xlink:title=" ">
<path fill="none" stroke="#63b8ff" d="M565.3,-55.59C546.18,-47.06 517.77,-34.38 496.12,-24.72"/>
<polygon fill="#63b8ff" stroke="#63b8ff" points="497.75,-21.61 487.19,-20.74 494.89,-28.01 497.75,-21.61"/>
</a>
</g>
</g>
</g>
</svg>

<g id="navigator" transform="translate(0 0)" fill="#404254">
  <rect fill="#f2f5e9" fill-opacity="0.5" stroke="#606060" stroke-width=".5" x="0" y="0" width="60" height="60"/>
  <use id="zoomplus" xlink:href="#zoomPlus" x="17" y="9" onmousedown="handleZoom(evt,'in')"/>
  <use id="zoomminus" xlink:href="#zoomMin" x="42" y="9" onmousedown="handleZoom(evt,'out')"/>
  <use id="reset" xlink:href="#resetDef" x="30" y="36" onmousedown="handleReset()"/>
   <use id="arrowup" xlink:href="#arrowUp" x="0" y="0" onmousedown="handlePan(0,-1)"/>
  <use id="arrowright" xlink:href="#arrowRight" x="0" y="0" onmousedown="handlePan(1,0)"/>
  <use id="arrowdown" xlink:href="#arrowDown" x="0" y="0" onmousedown="handlePan(0,1)"/>
  <use id="arrowleft" xlink:href="#arrowLeft" x="0" y="0" onmousedown="handlePan(-1,0)"/>
</g>
<svg viewBox="0 0 15 15" width="100%" height="30px" preserveAspectRatio="xMaxYMin meet">
 <g id="arrow_out" transform="scale(0.3 0.3)">
  <a xlink:href="_lesson_8h__incl_org.svg" target="_base">
   <rect id="button" ry="5" rx="5" y="6" x="6" height="38" width="38"
        fill="#f2f5e9" fill-opacity="0.5" stroke="#606060" stroke-width="1.0"/>
   <path id="arrow"
     d="M 11.500037,31.436501 C 11.940474,20.09759 22.043105,11.32322 32.158766,21.979434 L 37.068811,17.246167 C 37.068811,17.246167 37.088388,32 37.088388,32 L 22.160133,31.978069 C 22.160133,31.978069 26.997745,27.140456 26.997745,27.140456 C 18.528582,18.264221 13.291696,25.230495 11.500037,31.436501 z"
     style="fill:#404040;"/>
  </a>
 </g>
</svg>

<style type='text/css'>
<![CDATA[
[data-mouse-over-selected='false'] { opacity: 0.7; }
[data-mouse-over-selected='true']  { opacity: 1.0; }
]]>
</style>
<script type="application/ecmascript"><![CDATA[
document.addEventListener('DOMContentLoaded', (event) => {
  highlightEdges();
  highlightAdjacentNodes();
});
]]></script>
</svg>
