<?xml version="1.0" encoding="UTF-8" standalone="no"?>
<!DOCTYPE svg PUBLIC "-//W3C//DTD SVG 1.1//EN"
 "http://www.w3.org/Graphics/SVG/1.1/DTD/svg11.dtd">
<!-- Generated by graphviz version 12.2.1 (20241206.2353)
 -->
<!-- Title: TullipApp/Lesson.h Pages: 1 -->
<svg width="615pt" height="252pt"
 viewBox="0.00 0.00 614.62 252.00" xmlns="http://www.w3.org/2000/svg" xmlns:xlink="http://www.w3.org/1999/xlink">
<g id="graph0" class="graph" transform="scale(1 1) rotate(0) translate(4 248)">
<title>TullipApp/Lesson.h</title>
<!-- Node1 -->
<g id="Node000001" class="node">
<title>Node1</title>
<g id="a_Node000001"><a xlink:title="Defines the Lesson class, which represents a lesson with its associated details.">
<polygon fill="#999999" stroke="#666666" points="346,-244 246.75,-244 246.75,-224 346,-224 346,-244"/>
<text text-anchor="middle" x="296.38" y="-230.5" font-family="Helvetica,sans-Serif" font-size="10.00">TullipApp/Lesson.h</text>
</a>
</g>
</g>
<!-- Node2 -->
<g id="Node000002" class="node">
<title>Node2</title>
<g id="a_Node000002"><a xlink:title=" ">
<polygon fill="#e0e0e0" stroke="#999999" points="95.88,-20 52.88,-20 52.88,0 95.88,0 95.88,-20"/>
<text text-anchor="middle" x="74.38" y="-6.5" font-family="Helvetica,sans-Serif" font-size="10.00">vector</text>
</a>
</g>
</g>
<!-- Node1&#45;&gt;Node2 -->
<g id="edge1_Node000001_Node000002" class="edge">
<title>Node1&#45;&gt;Node2</title>
<g id="a_edge1_Node000001_Node000002"><a xlink:title=" ">
<path fill="none" stroke="#63b8ff" d="M277.66,-223.62C237.85,-202.71 144.34,-148.37 94.38,-76 85.13,-62.61 80.04,-44.8 77.32,-31.21"/>
<polygon fill="#63b8ff" stroke="#63b8ff" points="80.82,-30.92 75.68,-21.65 73.92,-32.1 80.82,-30.92"/>
</a>
</g>
</g>
<!-- Node3 -->
<g id="Node000003" class="node">
<title>Node3</title>
<g id="a_Node000003"><a xlink:title=" ">
<polygon fill="#e0e0e0" stroke="#999999" points="464,-132 424.75,-132 424.75,-112 464,-112 464,-132"/>
<text text-anchor="middle" x="444.38" y="-118.5" font-family="Helvetica,sans-Serif" font-size="10.00">utility</text>
</a>
</g>
</g>
<!-- Node1&#45;&gt;Node3 -->
<g id="edge2_Node000001_Node000003" class="edge">
<title>Node1&#45;&gt;Node3</title>
<g id="a_edge2_Node000001_Node000003"><a xlink:title=" ">
<path fill="none" stroke="#63b8ff" d="M324.74,-223.64C344.93,-216.08 371.99,-204.06 392.38,-188 408.84,-175.03 423.34,-155.89 432.81,-141.74"/>
<polygon fill="#63b8ff" stroke="#63b8ff" points="435.75,-143.65 438.21,-133.35 429.86,-139.86 435.75,-143.65"/>
</a>
</g>
</g>
<!-- Node4 -->
<g id="Node000004" class="node">
<title>Node4</title>
<g id="a_Node000004"><a xlink:title=" ">
<polygon fill="#e0e0e0" stroke="#999999" points="34.75,-20 0,-20 0,0 34.75,0 34.75,-20"/>
<text text-anchor="middle" x="17.38" y="-6.5" font-family="Helvetica,sans-Serif" font-size="10.00">map</text>
</a>
</g>
</g>
<!-- Node1&#45;&gt;Node4 -->
<g id="edge3_Node000001_Node000004" class="edge">
<title>Node1&#45;&gt;Node4</title>
<g id="a_edge3_Node000001_Node000004"><a xlink:title=" ">
<path fill="none" stroke="#63b8ff" d="M265.67,-223.5C242.86,-215.74 211.47,-203.51 186.38,-188 116.31,-144.7 55.45,-65.47 30.03,-29.57"/>
<polygon fill="#63b8ff" stroke="#63b8ff" points="33.01,-27.73 24.43,-21.52 27.27,-31.73 33.01,-27.73"/>
</a>
</g>
</g>
<!-- Node5 -->
<g id="Node000005" class="node">
<title>Node5</title>
<g id="a_Node000005"><a xlink:title=" ">
<polygon fill="#e0e0e0" stroke="#999999" points="532.25,-132 482.5,-132 482.5,-112 532.25,-112 532.25,-132"/>
<text text-anchor="middle" x="507.38" y="-118.5" font-family="Helvetica,sans-Serif" font-size="10.00">optional</text>
</a>
</g>
</g>
<!-- Node1&#45;&gt;Node5 -->
<g id="edge4_Node000001_Node000005" class="edge">
<title>Node1&#45;&gt;Node5</title>
<g id="a_edge4_Node000001_Node000005"><a xlink:title=" ">
<path fill="none" stroke="#63b8ff" d="M328.43,-223.51C353.19,-215.59 387.9,-203.17 416.38,-188 442.4,-174.14 469.57,-153.84 487.37,-139.63"/>
<polygon fill="#63b8ff" stroke="#63b8ff" points="489.5,-142.41 495.06,-133.39 485.09,-136.98 489.5,-142.41"/>
</a>
</g>
</g>
<!-- Node6 -->
<g id="Node000006" class="node">
<title>Node6</title>
<g id="a_Node000006"><a xlink:href="$_date_time_8h.html" xlink:title="Defines classes and utilities for working with dates, times, and combined date&#45;time values.">
<polygon fill="white" stroke="#666666" points="329.88,-132 262.88,-132 262.88,-112 329.88,-112 329.88,-132"/>
<text text-anchor="middle" x="296.38" y="-118.5" font-family="Helvetica,sans-Serif" font-size="10.00">DateTime.h</text>
</a>
</g>
</g>
<!-- Node1&#45;&gt;Node6 -->
<g id="edge5_Node000001_Node000006" class="edge">
<title>Node1&#45;&gt;Node6</title>
<g id="a_edge5_Node000001_Node000006"><a xlink:title=" ">
<path fill="none" stroke="#63b8ff" d="M296.38,-223.62C296.38,-206.01 296.38,-167.59 296.38,-143.65"/>
<polygon fill="#63b8ff" stroke="#63b8ff" points="299.88,-143.87 296.38,-133.87 292.88,-143.87 299.88,-143.87"/>
</a>
</g>
</g>
<!-- Node7 -->
<g id="Node000007" class="node">
<title>Node7</title>
<g id="a_Node000007"><a xlink:href="$_helper___functions_8h.html" xlink:title="Provides utility functions and templates for common operations.">
<polygon fill="white" stroke="#666666" points="224.75,-76 124,-76 124,-56 224.75,-56 224.75,-76"/>
<text text-anchor="middle" x="174.38" y="-62.5" font-family="Helvetica,sans-Serif" font-size="10.00">Helper_Functions.h</text>
</a>
</g>
</g>
<!-- Node1&#45;&gt;Node7 -->
<g id="edge28_Node000001_Node000007" class="edge">
<title>Node1&#45;&gt;Node7</title>
<g id="a_edge28_Node000001_Node000007"><a xlink:title=" ">
<path fill="none" stroke="#63b8ff" d="M289.47,-223.6C269.92,-197.01 213.98,-120.89 187.97,-85.5"/>
<polygon fill="#63b8ff" stroke="#63b8ff" points="190.85,-83.5 182.1,-77.52 185.21,-87.65 190.85,-83.5"/>
</a>
</g>
</g>
<!-- Node14 -->
<g id="Node000014" class="node">
<title>Node14</title>
<g id="a_Node000014"><a xlink:href="$_person_8h.html" xlink:title="Defines the Person class and its derived classes: Child, Parent, and Employee.">
<polygon fill="white" stroke="#666666" points="382.88,-188 327.88,-188 327.88,-168 382.88,-168 382.88,-188"/>
<text text-anchor="middle" x="355.38" y="-174.5" font-family="Helvetica,sans-Serif" font-size="10.00">Person.h</text>
</a>
</g>
</g>
<!-- Node1&#45;&gt;Node14 -->
<g id="edge19_Node000001_Node000014" class="edge">
<title>Node1&#45;&gt;Node14</title>
<g id="a_edge19_Node000001_Node000014"><a xlink:title=" ">
<path fill="none" stroke="#63b8ff" d="M306.65,-223.59C314.94,-216.01 326.82,-205.13 336.78,-196.02"/>
<polygon fill="#63b8ff" stroke="#63b8ff" points="339.09,-198.65 344.1,-189.32 334.36,-193.49 339.09,-198.65"/>
</a>
</g>
</g>
<!-- Node6&#45;&gt;Node7 -->
<g id="edge6_Node000006_Node000007" class="edge">
<title>Node6&#45;&gt;Node7</title>
<g id="a_edge6_Node000006_Node000007"><a xlink:title=" ">
<path fill="none" stroke="#63b8ff" d="M275.12,-111.59C256.09,-103.17 227.9,-90.69 206.17,-81.07"/>
<polygon fill="#63b8ff" stroke="#63b8ff" points="207.74,-77.94 197.18,-77.09 204.9,-84.34 207.74,-77.94"/>
</a>
</g>
</g>
<!-- Node8 -->
<g id="Node000008" class="node">
<title>Node8</title>
<g id="a_Node000008"><a xlink:title=" ">
<polygon fill="#e0e0e0" stroke="#999999" points="317.12,-20 263.62,-20 263.62,0 317.12,0 317.12,-20"/>
<text text-anchor="middle" x="290.38" y="-6.5" font-family="Helvetica,sans-Serif" font-size="10.00">iostream</text>
</a>
</g>
</g>
<!-- Node6&#45;&gt;Node8 -->
<g id="edge17_Node000006_Node000008" class="edge">
<title>Node6&#45;&gt;Node8</title>
<g id="a_edge17_Node000006_Node000008"><a xlink:title=" ">
<path fill="none" stroke="#63b8ff" d="M289.56,-111.56C283.7,-102.83 275.68,-89.23 272.38,-76 268.51,-60.54 273.84,-43.14 279.69,-30.24"/>
<polygon fill="#63b8ff" stroke="#63b8ff" points="282.68,-32.08 284.05,-21.57 276.43,-28.93 282.68,-32.08"/>
</a>
</g>
</g>
<!-- Node9 -->
<g id="Node000009" class="node">
<title>Node9</title>
<g id="a_Node000009"><a xlink:title=" ">
<polygon fill="#e0e0e0" stroke="#999999" points="451.38,-20 411.38,-20 411.38,0 451.38,0 451.38,-20"/>
<text text-anchor="middle" x="431.38" y="-6.5" font-family="Helvetica,sans-Serif" font-size="10.00">string</text>
</a>
</g>
</g>
<!-- Node6&#45;&gt;Node9 -->
<g id="edge18_Node000006_Node000009" class="edge">
<title>Node6&#45;&gt;Node9</title>
<g id="a_edge18_Node000006_Node000009"><a xlink:title=" ">
<path fill="none" stroke="#63b8ff" d="M329.53,-111.55C359.27,-102.47 399.93,-88.34 411.38,-76 422.68,-63.82 427.6,-45.38 429.74,-31.25"/>
<polygon fill="#63b8ff" stroke="#63b8ff" points="433.17,-32.04 430.82,-21.71 426.22,-31.25 433.17,-32.04"/>
</a>
</g>
</g>
<!-- Node12 -->
<g id="Node000012" class="node">
<title>Node12</title>
<g id="a_Node000012"><a xlink:href="$_date_time___exceptions_8h.html" xlink:title="Defines error messages and the DateTimeError exception class for date and time operations.">
<polygon fill="white" stroke="#666666" points="401.88,-76 280.88,-76 280.88,-56 401.88,-56 401.88,-76"/>
<text text-anchor="middle" x="341.38" y="-62.5" font-family="Helvetica,sans-Serif" font-size="10.00">DateTime_Exceptions.h</text>
</a>
</g>
</g>
<!-- Node6&#45;&gt;Node12 -->
<g id="edge13_Node000006_Node000012" class="edge">
<title>Node6&#45;&gt;Node12</title>
<g id="a_edge13_Node000006_Node000012"><a xlink:title=" ">
<path fill="none" stroke="#63b8ff" d="M304.21,-111.59C310.34,-104.24 319.05,-93.8 326.49,-84.87"/>
<polygon fill="#63b8ff" stroke="#63b8ff" points="328.94,-87.38 332.66,-77.46 323.57,-82.9 328.94,-87.38"/>
</a>
</g>
</g>
<!-- Node7&#45;&gt;Node2 -->
<g id="edge9_Node000007_Node000002" class="edge">
<title>Node7&#45;&gt;Node2</title>
<g id="a_edge9_Node000007_Node000002"><a xlink:title=" ">
<path fill="none" stroke="#63b8ff" d="M156.96,-55.59C141.71,-47.36 119.3,-35.26 101.67,-25.74"/>
<polygon fill="#63b8ff" stroke="#63b8ff" points="103.72,-22.87 93.26,-21.2 100.4,-29.03 103.72,-22.87"/>
</a>
</g>
</g>
<!-- Node7&#45;&gt;Node4 -->
<g id="edge12_Node000007_Node000004" class="edge">
<title>Node7&#45;&gt;Node4</title>
<g id="a_edge12_Node000007_Node000004"><a xlink:title=" ">
<path fill="none" stroke="#63b8ff" d="M147.03,-55.59C118.64,-45.83 74.45,-30.63 45.7,-20.74"/>
<polygon fill="#63b8ff" stroke="#63b8ff" points="47.17,-17.55 36.58,-17.6 44.9,-24.17 47.17,-17.55"/>
</a>
</g>
</g>
<!-- Node7&#45;&gt;Node8 -->
<g id="edge7_Node000007_Node000008" class="edge">
<title>Node7&#45;&gt;Node8</title>
<g id="a_edge7_Node000007_Node000008"><a xlink:title=" ">
<path fill="none" stroke="#63b8ff" d="M194.58,-55.59C212.6,-47.21 239.24,-34.8 259.86,-25.21"/>
<polygon fill="#63b8ff" stroke="#63b8ff" points="261.05,-28.51 268.64,-21.12 258.1,-22.17 261.05,-28.51"/>
</a>
</g>
</g>
<!-- Node7&#45;&gt;Node9 -->
<g id="edge8_Node000007_Node000009" class="edge">
<title>Node7&#45;&gt;Node9</title>
<g id="a_edge8_Node000007_Node000009"><a xlink:title=" ">
<path fill="none" stroke="#63b8ff" d="M224.98,-56.6C268.96,-48.94 334.57,-36.68 400.21,-20.34"/>
<polygon fill="#63b8ff" stroke="#63b8ff" points="400.86,-23.78 409.7,-17.94 399.15,-16.99 400.86,-23.78"/>
</a>
</g>
</g>
<!-- Node10 -->
<g id="Node000010" class="node">
<title>Node10</title>
<g id="a_Node000010"><a xlink:title=" ">
<polygon fill="#e0e0e0" stroke="#999999" points="169.25,-20 113.5,-20 113.5,0 169.25,0 169.25,-20"/>
<text text-anchor="middle" x="141.38" y="-6.5" font-family="Helvetica,sans-Serif" font-size="10.00">algorithm</text>
</a>
</g>
</g>
<!-- Node7&#45;&gt;Node10 -->
<g id="edge10_Node000007_Node000010" class="edge">
<title>Node7&#45;&gt;Node10</title>
<g id="a_edge10_Node000007_Node000010"><a xlink:title=" ">
<path fill="none" stroke="#63b8ff" d="M168.63,-55.59C164.32,-48.55 158.28,-38.67 152.99,-30"/>
<polygon fill="#63b8ff" stroke="#63b8ff" points="156.05,-28.3 147.85,-21.59 150.07,-31.95 156.05,-28.3"/>
</a>
</g>
</g>
<!-- Node11 -->
<g id="Node000011" class="node">
<title>Node11</title>
<g id="a_Node000011"><a xlink:title=" ">
<polygon fill="#e0e0e0" stroke="#999999" points="245.38,-20 187.38,-20 187.38,0 245.38,0 245.38,-20"/>
<text text-anchor="middle" x="216.38" y="-6.5" font-family="Helvetica,sans-Serif" font-size="10.00">functional</text>
</a>
</g>
</g>
<!-- Node7&#45;&gt;Node11 -->
<g id="edge11_Node000007_Node000011" class="edge">
<title>Node7&#45;&gt;Node11</title>
<g id="a_edge11_Node000007_Node000011"><a xlink:title=" ">
<path fill="none" stroke="#63b8ff" d="M181.69,-55.59C187.35,-48.32 195.36,-38.02 202.26,-29.15"/>
<polygon fill="#63b8ff" stroke="#63b8ff" points="204.84,-31.54 208.21,-21.49 199.31,-27.24 204.84,-31.54"/>
</a>
</g>
</g>
<!-- Node12&#45;&gt;Node8 -->
<g id="edge15_Node000012_Node000008" class="edge">
<title>Node12&#45;&gt;Node8</title>
<g id="a_edge15_Node000012_Node000008"><a xlink:title=" ">
<path fill="none" stroke="#63b8ff" d="M332.49,-55.59C325.47,-48.16 315.47,-37.58 306.98,-28.58"/>
<polygon fill="#63b8ff" stroke="#63b8ff" points="309.61,-26.27 300.2,-21.4 304.52,-31.07 309.61,-26.27"/>
</a>
</g>
</g>
<!-- Node12&#45;&gt;Node9 -->
<g id="edge14_Node000012_Node000009" class="edge">
<title>Node12&#45;&gt;Node9</title>
<g id="a_edge14_Node000012_Node000009"><a xlink:title=" ">
<path fill="none" stroke="#63b8ff" d="M357.05,-55.59C370.52,-47.51 390.19,-35.71 405.92,-26.27"/>
<polygon fill="#63b8ff" stroke="#63b8ff" points="407.5,-29.4 414.28,-21.26 403.9,-23.4 407.5,-29.4"/>
</a>
</g>
</g>
<!-- Node13 -->
<g id="Node000013" class="node">
<title>Node13</title>
<g id="a_Node000013"><a xlink:title=" ">
<polygon fill="#e0e0e0" stroke="#999999" points="393.38,-20 335.38,-20 335.38,0 393.38,0 393.38,-20"/>
<text text-anchor="middle" x="364.38" y="-6.5" font-family="Helvetica,sans-Serif" font-size="10.00">exception</text>
</a>
</g>
</g>
<!-- Node12&#45;&gt;Node13 -->
<g id="edge16_Node000012_Node000013" class="edge">
<title>Node12&#45;&gt;Node13</title>
<g id="a_edge16_Node000012_Node000013"><a xlink:title=" ">
<path fill="none" stroke="#63b8ff" d="M345.38,-55.59C348.28,-48.78 352.31,-39.32 355.92,-30.86"/>
<polygon fill="#63b8ff" stroke="#63b8ff" points="359.12,-32.26 359.82,-21.69 352.68,-29.52 359.12,-32.26"/>
</a>
</g>
</g>
<!-- Node14&#45;&gt;Node2 -->
<g id="edge22_Node000014_Node000002" class="edge">
<title>Node14&#45;&gt;Node2</title>
<g id="a_edge22_Node000014_Node000002"><a xlink:title=" ">
<path fill="none" stroke="#63b8ff" d="M327.57,-171.77C279.06,-161.37 178.17,-133.93 115.38,-76 101.45,-63.15 90.35,-44.55 83.24,-30.54"/>
<polygon fill="#63b8ff" stroke="#63b8ff" points="86.54,-29.34 79.06,-21.84 80.23,-32.37 86.54,-29.34"/>
</a>
</g>
</g>
<!-- Node14&#45;&gt;Node3 -->
<g id="edge21_Node000014_Node000003" class="edge">
<title>Node14&#45;&gt;Node3</title>
<g id="a_edge21_Node000014_Node000003"><a xlink:title=" ">
<path fill="none" stroke="#63b8ff" d="M370.88,-167.59C384.2,-159.51 403.65,-147.71 419.2,-138.27"/>
<polygon fill="#63b8ff" stroke="#63b8ff" points="420.72,-141.44 427.46,-133.26 417.09,-135.46 420.72,-141.44"/>
</a>
</g>
</g>
<!-- Node14&#45;&gt;Node5 -->
<g id="edge23_Node000014_Node000005" class="edge">
<title>Node14&#45;&gt;Node5</title>
<g id="a_edge23_Node000014_Node000005"><a xlink:title=" ">
<path fill="none" stroke="#63b8ff" d="M381.85,-167.59C406.67,-158.78 443.97,-145.53 471.46,-135.76"/>
<polygon fill="#63b8ff" stroke="#63b8ff" points="472.53,-139.09 480.79,-132.45 470.19,-132.5 472.53,-139.09"/>
</a>
</g>
</g>
<!-- Node14&#45;&gt;Node6 -->
<g id="edge24_Node000014_Node000006" class="edge">
<title>Node14&#45;&gt;Node6</title>
<g id="a_edge24_Node000014_Node000006"><a xlink:title=" ">
<path fill="none" stroke="#63b8ff" d="M345.1,-167.59C336.81,-160.01 324.93,-149.13 314.97,-140.02"/>
<polygon fill="#63b8ff" stroke="#63b8ff" points="317.39,-137.49 307.65,-133.32 312.66,-142.65 317.39,-137.49"/>
</a>
</g>
</g>
<!-- Node14&#45;&gt;Node7 -->
<g id="edge27_Node000014_Node000007" class="edge">
<title>Node14&#45;&gt;Node7</title>
<g id="a_edge27_Node000014_Node000007"><a xlink:title=" ">
<path fill="none" stroke="#63b8ff" d="M329.11,-167.5C308.15,-159.41 278.42,-146.77 254.38,-132 231.43,-117.91 207.82,-97.93 192.25,-83.85"/>
<polygon fill="#63b8ff" stroke="#63b8ff" points="194.93,-81.55 185.2,-77.35 190.18,-86.7 194.93,-81.55"/>
</a>
</g>
</g>
<!-- Node14&#45;&gt;Node9 -->
<g id="edge20_Node000014_Node000009" class="edge">
<title>Node14&#45;&gt;Node9</title>
<g id="a_edge20_Node000014_Node000009"><a xlink:title=" ">
<path fill="none" stroke="#63b8ff" d="M358.44,-167.9C363.19,-154.66 373.29,-129.73 387.38,-112 403.09,-92.22 420.55,-98.83 431.38,-76 437.89,-62.24 437.54,-44.94 435.75,-31.64"/>
<polygon fill="#63b8ff" stroke="#63b8ff" points="439.21,-31.1 434.03,-21.86 432.32,-32.32 439.21,-31.1"/>
</a>
</g>
</g>
<!-- Node15 -->
<g id="Node000015" class="node">
<title>Node15</title>
<g id="a_Node000015"><a xlink:href="$_data___helper___types_8h.html" xlink:title="Defines utility classes for managing contact&#45;related data such as email, phone, and address.">
<polygon fill="white" stroke="#666666" points="606.62,-76 496.12,-76 496.12,-56 606.62,-56 606.62,-76"/>
<text text-anchor="middle" x="551.38" y="-62.5" font-family="Helvetica,sans-Serif" font-size="10.00">Data_Helper_Types.h</text>
</a>
</g>
</g>
<!-- Node14&#45;&gt;Node15 -->
<g id="edge25_Node000014_Node000015" class="edge">
<title>Node14&#45;&gt;Node15</title>
<g id="a_edge25_Node000014_Node000015"><a xlink:title=" ">
<path fill="none" stroke="#63b8ff" d="M361.63,-167.64C371.47,-153.61 391.88,-127.14 415.38,-112 438.78,-96.92 467.71,-86.42 492.87,-79.39"/>
<polygon fill="#63b8ff" stroke="#63b8ff" points="493.54,-82.83 502.3,-76.88 491.74,-76.07 493.54,-82.83"/>
</a>
</g>
</g>
<!-- Node15&#45;&gt;Node9 -->
<g id="edge26_Node000015_Node000009" class="edge">
<title>Node15&#45;&gt;Node9</title>
<g id="a_edge26_Node000015_Node000009"><a xlink:title=" ">
<path fill="none" stroke="#63b8ff" d="M530.47,-55.59C511.52,-47.06 483.34,-34.38 461.87,-24.72"/>
<polygon fill="#63b8ff" stroke="#63b8ff" points="463.57,-21.65 453.02,-20.74 460.7,-28.03 463.57,-21.65"/>
</a>
</g>
</g>
</g>
</svg>
