<?xml version="1.0" encoding="UTF-8" standalone="no"?>
<!DOCTYPE svg PUBLIC "-//W3C//DTD SVG 1.1//EN"
 "http://www.w3.org/Graphics/SVG/1.1/DTD/svg11.dtd">
<!-- Generated by graphviz version 12.2.1 (20241206.2353)
 -->
<!-- Title: TullipApp/ParentEntry.cpp Pages: 1 -->
<!--zoomable 364 -->

<svg id="main" version="1.1" xmlns="http://www.w3.org/2000/svg" xmlns:xlink="http://www.w3.org/1999/xlink" xml:space="preserve" onload="init(evt)">

<style type="text/css"><![CDATA[
.node, .edge {opacity: 0.7;}
.node.selected, .edge.selected {opacity: 1;}
.edge:hover path { stroke: red; }
.edge:hover polygon { stroke: red; fill: red; }
]]></style>

<defs>
  <circle id="rim" cx="0" cy="0" r="7"/>
  <circle id="rim2" cx="0" cy="0" r="3.5"/>
  <g id="zoomPlus">
    <use xlink:href="#rim" fill="#404040"><set attributeName="fill" to="#808080" begin="zoomplus.mouseover" end="zoomplus.mouseout"/></use>
    <path d="M-4,0h8M0,-4v8" fill="none" stroke="white" stroke-width="1.5" pointer-events="none"/>
  </g>
  <g id="zoomMin">
    <use xlink:href="#rim" fill="#404040"><set attributeName="fill" to="#808080" begin="zoomminus.mouseover" end="zoomminus.mouseout"/></use>
    <path d="M-4,0h8" fill="none" stroke="white" stroke-width="1.5" pointer-events="none"/>
  </g>
  <g id="arrowUp" transform="translate(30 24)">
    <use xlink:href="#rim"/>
    <path pointer-events="none" fill="none" stroke="white" stroke-width="1.5" d="M0,-3.0v7 M-2.5,-0.5L0,-3.0L2.5,-0.5"/>
  </g>
  <g id="arrowRight" transform="rotate(90) translate(36 -43)">
    <use xlink:href="#rim"/>
    <path pointer-events="none" fill="none" stroke="white" stroke-width="1.5" d="M0,-3.0v7 M-2.5,-0.5L0,-3.0L2.5,-0.5"/>
  </g>
  <g id="arrowDown" transform="rotate(180) translate(-30 -48)">
    <use xlink:href="#rim"/>
    <path pointer-events="none" fill="none" stroke="white" stroke-width="1.5" d="M0,-3.0v7 M-2.5,-0.5L0,-3.0L2.5,-0.5"/>
  </g>
  <g id="arrowLeft" transform="rotate(270) translate(-36 17)">
    <use xlink:href="#rim"/>
    <path pointer-events="none" fill="none" stroke="white" stroke-width="1.5" d="M0,-3.0v7 M-2.5,-0.5L0,-3.0L2.5,-0.5"/>
  </g>
  <g id="resetDef">
    <use xlink:href="#rim2" fill="#404040"><set attributeName="fill" to="#808080" begin="reset.mouseover" end="reset.mouseout"/></use>
  </g>
</defs>
<script type="application/ecmascript">
var viewWidth = 1922;
var viewHeight = 364;
var sectionId = 'dynsection-0';
</script>
<script type="application/ecmascript" xlink:href="svg.min.js"/>
<svg id="graph" class="graph">
<g id="viewport">
<title>TullipApp/ParentEntry.cpp</title>
<!-- Node1 -->
<g id="Node000001" class="node">
<title>Node1</title>
<g id="a_Node000001"><a xlink:title=" ">
<polygon fill="#999999" stroke="#666666" points="473.75,-356 344.5,-356 344.5,-336 473.75,-336 473.75,-356"/>
<text text-anchor="middle" x="409.12" y="-342.5" font-family="Helvetica,sans-Serif" font-size="10.00">TullipApp/ParentEntry.cpp</text>
</a>
</g>
</g>
<!-- Node2 -->
<g id="Node000002" class="node">
<title>Node2</title>
<g id="a_Node000002"><a xlink:href="_parent_entry_8h.html" target="_top" xlink:title="Defines the ParentEntry class for managing the graphical representation of a parent in the GUI.">
<polygon fill="white" stroke="#666666" points="398.75,-300 323.5,-300 323.5,-280 398.75,-280 398.75,-300"/>
<text text-anchor="middle" x="361.12" y="-286.5" font-family="Helvetica,sans-Serif" font-size="10.00">ParentEntry.h</text>
</a>
</g>
</g>
<!-- Node1&#45;&gt;Node2 -->
<g id="edge1_Node000001_Node000002" class="edge">
<title>Node1&#45;&gt;Node2</title>
<g id="a_edge1_Node000001_Node000002"><a xlink:title=" ">
<path fill="none" stroke="#63b8ff" d="M400.76,-335.59C394.23,-328.24 384.94,-317.8 377.01,-308.87"/>
<polygon fill="#63b8ff" stroke="#63b8ff" points="379.66,-306.58 370.4,-301.43 374.42,-311.23 379.66,-306.58"/>
</a>
</g>
</g>
<!-- Node33 -->
<g id="Node000033" class="node">
<title>Node33</title>
<g id="a_Node000033"><a xlink:title=" ">
<polygon fill="#e0e0e0" stroke="#999999" points="497.38,-300 416.88,-300 416.88,-280 497.38,-280 497.38,-300"/>
<text text-anchor="middle" x="457.12" y="-286.5" font-family="Helvetica,sans-Serif" font-size="10.00">QMessageBox</text>
</a>
</g>
</g>
<!-- Node1&#45;&gt;Node33 -->
<g id="edge50_Node000001_Node000033" class="edge">
<title>Node1&#45;&gt;Node33</title>
<g id="a_edge50_Node000001_Node000033"><a xlink:title=" ">
<path fill="none" stroke="#63b8ff" d="M417.49,-335.59C424.02,-328.24 433.31,-317.8 441.24,-308.87"/>
<polygon fill="#63b8ff" stroke="#63b8ff" points="443.83,-311.23 447.85,-301.43 438.59,-306.58 443.83,-311.23"/>
</a>
</g>
</g>
<!-- Node3 -->
<g id="Node000003" class="node">
<title>Node3</title>
<g id="a_Node000003"><a xlink:title=" ">
<polygon fill="#e0e0e0" stroke="#999999" points="54.25,-76 0,-76 0,-56 54.25,-56 54.25,-76"/>
<text text-anchor="middle" x="27.12" y="-62.5" font-family="Helvetica,sans-Serif" font-size="10.00">QWidget</text>
</a>
</g>
</g>
<!-- Node2&#45;&gt;Node3 -->
<g id="edge2_Node000002_Node000003" class="edge">
<title>Node2&#45;&gt;Node3</title>
<g id="a_edge2_Node000002_Node000003"><a xlink:title=" ">
<path fill="none" stroke="#63b8ff" d="M323.17,-281.73C255.25,-266.64 113.29,-225.22 41.12,-132 31.39,-119.42 28.08,-101.55 27.1,-87.73"/>
<polygon fill="#63b8ff" stroke="#63b8ff" points="30.6,-87.84 26.78,-77.95 23.6,-88.06 30.6,-87.84"/>
</a>
</g>
</g>
<!-- Node4 -->
<g id="Node000004" class="node">
<title>Node4</title>
<g id="a_Node000004"><a xlink:href="ui___parent_entry_8h.html" target="_top" xlink:title=" ">
<polygon fill="white" stroke="#666666" points="642.12,-188 554.12,-188 554.12,-168 642.12,-168 642.12,-188"/>
<text text-anchor="middle" x="598.12" y="-174.5" font-family="Helvetica,sans-Serif" font-size="10.00">ui_ParentEntry.h</text>
</a>
</g>
</g>
<!-- Node2&#45;&gt;Node4 -->
<g id="edge3_Node000002_Node000004" class="edge">
<title>Node2&#45;&gt;Node4</title>
<g id="a_edge3_Node000002_Node000004"><a xlink:title=" ">
<path fill="none" stroke="#63b8ff" d="M381.33,-279.62C422.96,-260.3 518.48,-215.96 567.65,-193.14"/>
<polygon fill="#63b8ff" stroke="#63b8ff" points="569,-196.38 576.6,-188.99 566.05,-190.03 569,-196.38"/>
</a>
</g>
</g>
<!-- Node14 -->
<g id="Node000014" class="node">
<title>Node14</title>
<g id="a_Node000014"><a xlink:href="clickablelabel_8h.html" target="_top" xlink:title="ClickableLabel class definition.">
<polygon fill="white" stroke="#666666" points="152.5,-132 69.75,-132 69.75,-112 152.5,-112 152.5,-132"/>
<text text-anchor="middle" x="111.12" y="-118.5" font-family="Helvetica,sans-Serif" font-size="10.00">clickablelabel.h</text>
</a>
</g>
</g>
<!-- Node2&#45;&gt;Node14 -->
<g id="edge40_Node000002_Node000014" class="edge">
<title>Node2&#45;&gt;Node14</title>
<g id="a_edge40_Node000002_Node000014"><a xlink:title=" ">
<path fill="none" stroke="#63b8ff" d="M346.97,-279.6C305.8,-252.26 185.82,-172.6 134.67,-138.63"/>
<polygon fill="#63b8ff" stroke="#63b8ff" points="136.65,-135.75 126.39,-133.13 132.78,-141.58 136.65,-135.75"/>
</a>
</g>
</g>
<!-- Node17 -->
<g id="Node000017" class="node">
<title>Node17</title>
<g id="a_Node000017"><a xlink:href="_person_8h.html" target="_top" xlink:title="Defines the Person class and its derived classes: Child, Parent, and Employee.">
<polygon fill="white" stroke="#666666" points="1486.62,-188 1431.62,-188 1431.62,-168 1486.62,-168 1486.62,-188"/>
<text text-anchor="middle" x="1459.12" y="-174.5" font-family="Helvetica,sans-Serif" font-size="10.00">Person.h</text>
</a>
</g>
</g>
<!-- Node2&#45;&gt;Node17 -->
<g id="edge17_Node000002_Node000017" class="edge">
<title>Node2&#45;&gt;Node17</title>
<g id="a_edge17_Node000002_Node000017"><a xlink:title=" ">
<path fill="none" stroke="#63b8ff" d="M399.04,-281.42C402.11,-280.91 405.16,-280.42 408.12,-280 801.29,-223.59 1281.86,-190.31 1420.19,-181.42"/>
<polygon fill="#63b8ff" stroke="#63b8ff" points="1420.14,-184.93 1429.9,-180.8 1419.69,-177.95 1420.14,-184.93"/>
</a>
</g>
</g>
<!-- Node31 -->
<g id="Node000031" class="node">
<title>Node31</title>
<g id="a_Node000031"><a xlink:href="_child_label_8h.html" target="_top" xlink:title="Defines the ChildLabel class for displaying child name.">
<polygon fill="white" stroke="#666666" points="396.12,-244 326.12,-244 326.12,-224 396.12,-224 396.12,-244"/>
<text text-anchor="middle" x="361.12" y="-230.5" font-family="Helvetica,sans-Serif" font-size="10.00">ChildLabel.h</text>
</a>
</g>
</g>
<!-- Node2&#45;&gt;Node31 -->
<g id="edge41_Node000002_Node000031" class="edge">
<title>Node2&#45;&gt;Node31</title>
<g id="a_edge41_Node000002_Node000031"><a xlink:title=" ">
<path fill="none" stroke="#63b8ff" d="M361.12,-279.59C361.12,-273.01 361.12,-263.96 361.12,-255.73"/>
<polygon fill="#63b8ff" stroke="#63b8ff" points="364.63,-255.81 361.13,-245.81 357.63,-255.81 364.63,-255.81"/>
</a>
</g>
</g>
<!-- Node5 -->
<g id="Node000005" class="node">
<title>Node5</title>
<g id="a_Node000005"><a xlink:title=" ">
<polygon fill="#e0e0e0" stroke="#999999" points="519.12,-132 431.12,-132 431.12,-112 519.12,-112 519.12,-132"/>
<text text-anchor="middle" x="475.12" y="-118.5" font-family="Helvetica,sans-Serif" font-size="10.00">QtCore/QVariant</text>
</a>
</g>
</g>
<!-- Node4&#45;&gt;Node5 -->
<g id="edge4_Node000004_Node000005" class="edge">
<title>Node4&#45;&gt;Node5</title>
<g id="a_edge4_Node000004_Node000005"><a xlink:title=" ">
<path fill="none" stroke="#63b8ff" d="M576.7,-167.59C557.5,-159.17 529.08,-146.69 507.18,-137.07"/>
<polygon fill="#63b8ff" stroke="#63b8ff" points="508.67,-133.9 498.1,-133.09 505.85,-140.31 508.67,-133.9"/>
</a>
</g>
</g>
<!-- Node6 -->
<g id="Node000006" class="node">
<title>Node6</title>
<g id="a_Node000006"><a xlink:title=" ">
<polygon fill="#e0e0e0" stroke="#999999" points="658.62,-132 537.62,-132 537.62,-112 658.62,-112 658.62,-132"/>
<text text-anchor="middle" x="598.12" y="-118.5" font-family="Helvetica,sans-Serif" font-size="10.00">QtWidgets/QApplication</text>
</a>
</g>
</g>
<!-- Node4&#45;&gt;Node6 -->
<g id="edge5_Node000004_Node000006" class="edge">
<title>Node4&#45;&gt;Node6</title>
<g id="a_edge5_Node000004_Node000006"><a xlink:title=" ">
<path fill="none" stroke="#63b8ff" d="M598.12,-167.59C598.12,-161.01 598.12,-151.96 598.12,-143.73"/>
<polygon fill="#63b8ff" stroke="#63b8ff" points="601.63,-143.81 598.13,-133.81 594.63,-143.81 601.63,-143.81"/>
</a>
</g>
</g>
<!-- Node7 -->
<g id="Node000007" class="node">
<title>Node7</title>
<g id="a_Node000007"><a xlink:title=" ">
<polygon fill="#e0e0e0" stroke="#999999" points="777.5,-132 676.75,-132 676.75,-112 777.5,-112 777.5,-132"/>
<text text-anchor="middle" x="727.12" y="-118.5" font-family="Helvetica,sans-Serif" font-size="10.00">QtWidgets/QFrame</text>
</a>
</g>
</g>
<!-- Node4&#45;&gt;Node7 -->
<g id="edge6_Node000004_Node000007" class="edge">
<title>Node4&#45;&gt;Node7</title>
<g id="a_edge6_Node000004_Node000007"><a xlink:title=" ">
<path fill="none" stroke="#63b8ff" d="M620.6,-167.59C640.91,-159.09 671.08,-146.46 694.13,-136.81"/>
<polygon fill="#63b8ff" stroke="#63b8ff" points="695.21,-140.15 703.08,-133.06 692.51,-133.7 695.21,-140.15"/>
</a>
</g>
</g>
<!-- Node8 -->
<g id="Node000008" class="node">
<title>Node8</title>
<g id="a_Node000008"><a xlink:title=" ">
<polygon fill="#e0e0e0" stroke="#999999" points="291.25,-132 171,-132 171,-112 291.25,-112 291.25,-132"/>
<text text-anchor="middle" x="231.12" y="-118.5" font-family="Helvetica,sans-Serif" font-size="10.00">QtWidgets/QGridLayout</text>
</a>
</g>
</g>
<!-- Node4&#45;&gt;Node8 -->
<g id="edge7_Node000004_Node000008" class="edge">
<title>Node4&#45;&gt;Node8</title>
<g id="a_edge7_Node000004_Node000008"><a xlink:title=" ">
<path fill="none" stroke="#63b8ff" d="M553.86,-170.49C491.57,-161.32 377.35,-144.52 302.85,-133.55"/>
<polygon fill="#63b8ff" stroke="#63b8ff" points="303.6,-130.13 293.2,-132.13 302.58,-137.05 303.6,-130.13"/>
</a>
</g>
</g>
<!-- Node9 -->
<g id="Node000009" class="node">
<title>Node9</title>
<g id="a_Node000009"><a xlink:title=" ">
<polygon fill="#e0e0e0" stroke="#999999" points="892.25,-132 796,-132 796,-112 892.25,-112 892.25,-132"/>
<text text-anchor="middle" x="844.12" y="-118.5" font-family="Helvetica,sans-Serif" font-size="10.00">QtWidgets/QLabel</text>
</a>
</g>
</g>
<!-- Node4&#45;&gt;Node9 -->
<g id="edge8_Node000004_Node000009" class="edge">
<title>Node4&#45;&gt;Node9</title>
<g id="a_edge8_Node000004_Node000009"><a xlink:title=" ">
<path fill="none" stroke="#63b8ff" d="M641.26,-167.53C682.58,-158.46 745.1,-144.74 789.8,-134.93"/>
<polygon fill="#63b8ff" stroke="#63b8ff" points="790.55,-138.34 799.56,-132.78 789.05,-131.51 790.55,-138.34"/>
</a>
</g>
</g>
<!-- Node10 -->
<g id="Node000010" class="node">
<title>Node10</title>
<g id="a_Node000010"><a xlink:title=" ">
<polygon fill="#e0e0e0" stroke="#999999" points="1034.12,-132 910.12,-132 910.12,-112 1034.12,-112 1034.12,-132"/>
<text text-anchor="middle" x="972.12" y="-118.5" font-family="Helvetica,sans-Serif" font-size="10.00">QtWidgets/QPushButton</text>
</a>
</g>
</g>
<!-- Node4&#45;&gt;Node10 -->
<g id="edge9_Node000004_Node000010" class="edge">
<title>Node4&#45;&gt;Node10</title>
<g id="a_edge9_Node000004_Node000010"><a xlink:title=" ">
<path fill="none" stroke="#63b8ff" d="M642.5,-170.59C705.75,-161.46 822.62,-144.59 898.85,-133.58"/>
<polygon fill="#63b8ff" stroke="#63b8ff" points="898.89,-137.11 908.29,-132.22 897.89,-130.18 898.89,-137.11"/>
</a>
</g>
</g>
<!-- Node11 -->
<g id="Node000011" class="node">
<title>Node11</title>
<g id="a_Node000011"><a xlink:title=" ">
<polygon fill="#e0e0e0" stroke="#999999" points="1170.12,-132 1052.12,-132 1052.12,-112 1170.12,-112 1170.12,-132"/>
<text text-anchor="middle" x="1111.12" y="-118.5" font-family="Helvetica,sans-Serif" font-size="10.00">QtWidgets/QScrollArea</text>
</a>
</g>
</g>
<!-- Node4&#45;&gt;Node11 -->
<g id="edge10_Node000004_Node000011" class="edge">
<title>Node4&#45;&gt;Node11</title>
<g id="a_edge10_Node000004_Node000011"><a xlink:title=" ">
<path fill="none" stroke="#63b8ff" d="M642.39,-172.98C720.48,-165.79 888.14,-149.9 1040.4,-132.29"/>
<polygon fill="#63b8ff" stroke="#63b8ff" points="1040.77,-135.77 1050.3,-131.14 1039.96,-128.81 1040.77,-135.77"/>
</a>
</g>
</g>
<!-- Node12 -->
<g id="Node000012" class="node">
<title>Node12</title>
<g id="a_Node000012"><a xlink:title=" ">
<polygon fill="#e0e0e0" stroke="#999999" points="1314.25,-132 1188,-132 1188,-112 1314.25,-112 1314.25,-132"/>
<text text-anchor="middle" x="1251.12" y="-118.5" font-family="Helvetica,sans-Serif" font-size="10.00">QtWidgets/QVBoxLayout</text>
</a>
</g>
</g>
<!-- Node4&#45;&gt;Node12 -->
<g id="edge11_Node000004_Node000012" class="edge">
<title>Node4&#45;&gt;Node12</title>
<g id="a_edge11_Node000004_Node000012"><a xlink:title=" ">
<path fill="none" stroke="#63b8ff" d="M642.28,-174.29C737.7,-168.29 970.46,-152.81 1176.21,-132.25"/>
<polygon fill="#63b8ff" stroke="#63b8ff" points="1176.43,-135.75 1186.03,-131.26 1175.73,-128.78 1176.43,-135.75"/>
</a>
</g>
</g>
<!-- Node13 -->
<g id="Node000013" class="node">
<title>Node13</title>
<g id="a_Node000013"><a xlink:title=" ">
<polygon fill="#e0e0e0" stroke="#999999" points="413,-132 309.25,-132 309.25,-112 413,-112 413,-132"/>
<text text-anchor="middle" x="361.12" y="-118.5" font-family="Helvetica,sans-Serif" font-size="10.00">QtWidgets/QWidget</text>
</a>
</g>
</g>
<!-- Node4&#45;&gt;Node13 -->
<g id="edge12_Node000004_Node000013" class="edge">
<title>Node4&#45;&gt;Node13</title>
<g id="a_edge12_Node000004_Node000013"><a xlink:title=" ">
<path fill="none" stroke="#63b8ff" d="M556.57,-167.53C516.84,-158.48 456.79,-144.8 413.74,-134.99"/>
<polygon fill="#63b8ff" stroke="#63b8ff" points="414.63,-131.6 404.11,-132.79 413.08,-138.43 414.63,-131.6"/>
</a>
</g>
</g>
<!-- Node4&#45;&gt;Node14 -->
<g id="edge13_Node000004_Node000014" class="edge">
<title>Node4&#45;&gt;Node14</title>
<g id="a_edge13_Node000004_Node000014"><a xlink:title=" ">
<path fill="none" stroke="#63b8ff" d="M553.75,-173.48C476.71,-167.14 313,-152.65 163.99,-132.16"/>
<polygon fill="#63b8ff" stroke="#63b8ff" points="164.72,-128.73 154.33,-130.82 163.76,-135.66 164.72,-128.73"/>
</a>
</g>
</g>
<!-- Node14&#45;&gt;Node3 -->
<g id="edge15_Node000014_Node000003" class="edge">
<title>Node14&#45;&gt;Node3</title>
<g id="a_edge15_Node000014_Node000003"><a xlink:title=" ">
<path fill="none" stroke="#63b8ff" d="M96.49,-111.59C84.04,-103.59 65.91,-91.93 51.3,-82.54"/>
<polygon fill="#63b8ff" stroke="#63b8ff" points="53.45,-79.76 43.14,-77.3 49.66,-85.65 53.45,-79.76"/>
</a>
</g>
</g>
<!-- Node15 -->
<g id="Node000015" class="node">
<title>Node15</title>
<g id="a_Node000015"><a xlink:title=" ">
<polygon fill="#e0e0e0" stroke="#999999" points="215.5,-76 168.75,-76 168.75,-56 215.5,-56 215.5,-76"/>
<text text-anchor="middle" x="192.12" y="-62.5" font-family="Helvetica,sans-Serif" font-size="10.00">QLabel</text>
</a>
</g>
</g>
<!-- Node14&#45;&gt;Node15 -->
<g id="edge14_Node000014_Node000015" class="edge">
<title>Node14&#45;&gt;Node15</title>
<g id="a_edge14_Node000014_Node000015"><a xlink:title=" ">
<path fill="none" stroke="#63b8ff" d="M125.23,-111.59C137.12,-103.67 154.39,-92.16 168.4,-82.82"/>
<polygon fill="#63b8ff" stroke="#63b8ff" points="170.27,-85.78 176.65,-77.32 166.38,-79.95 170.27,-85.78"/>
</a>
</g>
</g>
<!-- Node16 -->
<g id="Node000016" class="node">
<title>Node16</title>
<g id="a_Node000016"><a xlink:title=" ">
<polygon fill="#e0e0e0" stroke="#999999" points="150.25,-76 72,-76 72,-56 150.25,-56 150.25,-76"/>
<text text-anchor="middle" x="111.12" y="-62.5" font-family="Helvetica,sans-Serif" font-size="10.00">QMouseEvent</text>
</a>
</g>
</g>
<!-- Node14&#45;&gt;Node16 -->
<g id="edge16_Node000014_Node000016" class="edge">
<title>Node14&#45;&gt;Node16</title>
<g id="a_edge16_Node000014_Node000016"><a xlink:title=" ">
<path fill="none" stroke="#63b8ff" d="M111.12,-111.59C111.12,-105.01 111.12,-95.96 111.12,-87.73"/>
<polygon fill="#63b8ff" stroke="#63b8ff" points="114.63,-87.81 111.13,-77.81 107.63,-87.81 114.63,-87.81"/>
</a>
</g>
</g>
<!-- Node18 -->
<g id="Node000018" class="node">
<title>Node18</title>
<g id="a_Node000018"><a xlink:title=" ">
<polygon fill="#e0e0e0" stroke="#999999" points="1627.88,-20 1574.38,-20 1574.38,0 1627.88,0 1627.88,-20"/>
<text text-anchor="middle" x="1601.12" y="-6.5" font-family="Helvetica,sans-Serif" font-size="10.00">iostream</text>
</a>
</g>
</g>
<!-- Node17&#45;&gt;Node18 -->
<g id="edge18_Node000017_Node000018" class="edge">
<title>Node17&#45;&gt;Node18</title>
<g id="a_edge18_Node000017_Node000018"><a xlink:title=" ">
<path fill="none" stroke="#63b8ff" d="M1476.85,-167.62C1491.05,-159.51 1510.89,-146.78 1525.12,-132 1555.12,-100.86 1579.5,-56.03 1592.01,-30.59"/>
<polygon fill="#63b8ff" stroke="#63b8ff" points="1595.08,-32.28 1596.24,-21.75 1588.77,-29.25 1595.08,-32.28"/>
</a>
</g>
</g>
<!-- Node19 -->
<g id="Node000019" class="node">
<title>Node19</title>
<g id="a_Node000019"><a xlink:title=" ">
<polygon fill="#e0e0e0" stroke="#999999" points="1780.12,-20 1740.12,-20 1740.12,0 1780.12,0 1780.12,-20"/>
<text text-anchor="middle" x="1760.12" y="-6.5" font-family="Helvetica,sans-Serif" font-size="10.00">string</text>
</a>
</g>
</g>
<!-- Node17&#45;&gt;Node19 -->
<g id="edge19_Node000017_Node000019" class="edge">
<title>Node17&#45;&gt;Node19</title>
<g id="a_edge19_Node000017_Node000019"><a xlink:title=" ">
<path fill="none" stroke="#63b8ff" d="M1486.83,-175.22C1576.34,-168.81 1855.01,-143.67 1907.12,-76 1939.27,-34.26 1844.05,-18.73 1791.84,-13.46"/>
<polygon fill="#63b8ff" stroke="#63b8ff" points="1792.3,-9.98 1782.02,-12.54 1791.65,-16.95 1792.3,-9.98"/>
</a>
</g>
</g>
<!-- Node20 -->
<g id="Node000020" class="node">
<title>Node20</title>
<g id="a_Node000020"><a xlink:title=" ">
<polygon fill="#e0e0e0" stroke="#999999" points="1447.75,-132 1408.5,-132 1408.5,-112 1447.75,-112 1447.75,-132"/>
<text text-anchor="middle" x="1428.12" y="-118.5" font-family="Helvetica,sans-Serif" font-size="10.00">utility</text>
</a>
</g>
</g>
<!-- Node17&#45;&gt;Node20 -->
<g id="edge20_Node000017_Node000020" class="edge">
<title>Node17&#45;&gt;Node20</title>
<g id="a_edge20_Node000017_Node000020"><a xlink:title=" ">
<path fill="none" stroke="#63b8ff" d="M1453.73,-167.59C1449.68,-160.55 1444.01,-150.67 1439.03,-142"/>
<polygon fill="#63b8ff" stroke="#63b8ff" points="1442.23,-140.54 1434.22,-133.61 1436.16,-144.03 1442.23,-140.54"/>
</a>
</g>
</g>
<!-- Node21 -->
<g id="Node000021" class="node">
<title>Node21</title>
<g id="a_Node000021"><a xlink:title=" ">
<polygon fill="#e0e0e0" stroke="#999999" points="1353.62,-20 1310.62,-20 1310.62,0 1353.62,0 1353.62,-20"/>
<text text-anchor="middle" x="1332.12" y="-6.5" font-family="Helvetica,sans-Serif" font-size="10.00">vector</text>
</a>
</g>
</g>
<!-- Node17&#45;&gt;Node21 -->
<g id="edge21_Node000017_Node000021" class="edge">
<title>Node17&#45;&gt;Node21</title>
<g id="a_edge21_Node000017_Node000021"><a xlink:title=" ">
<path fill="none" stroke="#63b8ff" d="M1439.81,-167.57C1425.24,-159.68 1405.52,-147.28 1392.12,-132 1365.3,-101.41 1347.27,-56.7 1338.44,-31.06"/>
<polygon fill="#63b8ff" stroke="#63b8ff" points="1341.87,-30.28 1335.42,-21.89 1335.23,-32.48 1341.87,-30.28"/>
</a>
</g>
</g>
<!-- Node22 -->
<g id="Node000022" class="node">
<title>Node22</title>
<g id="a_Node000022"><a xlink:title=" ">
<polygon fill="#e0e0e0" stroke="#999999" points="1516,-132 1466.25,-132 1466.25,-112 1516,-112 1516,-132"/>
<text text-anchor="middle" x="1491.12" y="-118.5" font-family="Helvetica,sans-Serif" font-size="10.00">optional</text>
</a>
</g>
</g>
<!-- Node17&#45;&gt;Node22 -->
<g id="edge22_Node000017_Node000022" class="edge">
<title>Node17&#45;&gt;Node22</title>
<g id="a_edge22_Node000017_Node000022"><a xlink:title=" ">
<path fill="none" stroke="#63b8ff" d="M1464.7,-167.59C1468.87,-160.55 1474.73,-150.67 1479.87,-142"/>
<polygon fill="#63b8ff" stroke="#63b8ff" points="1482.76,-143.99 1484.84,-133.6 1476.73,-140.42 1482.76,-143.99"/>
</a>
</g>
</g>
<!-- Node23 -->
<g id="Node000023" class="node">
<title>Node23</title>
<g id="a_Node000023"><a xlink:href="_date_time_8h.html" target="_top" xlink:title="Defines classes and utilities for working with dates, times, and combined date&#45;time values.">
<polygon fill="white" stroke="#666666" points="1639.62,-132 1572.62,-132 1572.62,-112 1639.62,-112 1639.62,-132"/>
<text text-anchor="middle" x="1606.12" y="-118.5" font-family="Helvetica,sans-Serif" font-size="10.00">DateTime.h</text>
</a>
</g>
</g>
<!-- Node17&#45;&gt;Node23 -->
<g id="edge23_Node000017_Node000023" class="edge">
<title>Node17&#45;&gt;Node23</title>
<g id="a_edge23_Node000017_Node000023"><a xlink:title=" ">
<path fill="none" stroke="#63b8ff" d="M1484.73,-167.59C1508.19,-158.97 1543.19,-146.12 1569.59,-136.42"/>
<polygon fill="#63b8ff" stroke="#63b8ff" points="1570.72,-139.73 1578.9,-133 1568.31,-133.16 1570.72,-139.73"/>
</a>
</g>
</g>
<!-- Node24 -->
<g id="Node000024" class="node">
<title>Node24</title>
<g id="a_Node000024"><a xlink:href="_helper___functions_8h.html" target="_top" xlink:title="Provides utility functions and templates for common operations.">
<polygon fill="white" stroke="#666666" points="1507.5,-76 1406.75,-76 1406.75,-56 1507.5,-56 1507.5,-76"/>
<text text-anchor="middle" x="1457.12" y="-62.5" font-family="Helvetica,sans-Serif" font-size="10.00">Helper_Functions.h</text>
</a>
</g>
</g>
<!-- Node17&#45;&gt;Node24 -->
<g id="edge39_Node000017_Node000024" class="edge">
<title>Node17&#45;&gt;Node24</title>
<g id="a_edge39_Node000017_Node000024"><a xlink:title=" ">
<path fill="none" stroke="#63b8ff" d="M1438.05,-167.54C1424.21,-160.06 1407.22,-148.19 1399.12,-132 1389.39,-112.53 1408.93,-94.41 1427.91,-82.27"/>
<polygon fill="#63b8ff" stroke="#63b8ff" points="1429.51,-85.39 1436.32,-77.27 1425.94,-79.37 1429.51,-85.39"/>
</a>
</g>
</g>
<!-- Node30 -->
<g id="Node000030" class="node">
<title>Node30</title>
<g id="a_Node000030"><a xlink:href="_data___helper___types_8h.html" target="_top" xlink:title="Defines utility classes for managing contact&#45;related data such as email, phone, and address.">
<polygon fill="white" stroke="#666666" points="1898.38,-76 1787.88,-76 1787.88,-56 1898.38,-56 1898.38,-76"/>
<text text-anchor="middle" x="1843.12" y="-62.5" font-family="Helvetica,sans-Serif" font-size="10.00">Data_Helper_Types.h</text>
</a>
</g>
</g>
<!-- Node17&#45;&gt;Node30 -->
<g id="edge37_Node000017_Node000030" class="edge">
<title>Node17&#45;&gt;Node30</title>
<g id="a_edge37_Node000017_Node000030"><a xlink:title=" ">
<path fill="none" stroke="#63b8ff" d="M1487.02,-171.22C1524.24,-163.33 1592.08,-148.28 1649.12,-132 1704.62,-116.17 1767.81,-94.25 1806.58,-80.35"/>
<polygon fill="#63b8ff" stroke="#63b8ff" points="1807.67,-83.68 1815.89,-76.99 1805.3,-77.09 1807.67,-83.68"/>
</a>
</g>
</g>
<!-- Node23&#45;&gt;Node18 -->
<g id="edge35_Node000023_Node000018" class="edge">
<title>Node23&#45;&gt;Node18</title>
<g id="a_edge35_Node000023_Node000018"><a xlink:title=" ">
<path fill="none" stroke="#63b8ff" d="M1605.1,-111.71C1604.14,-102.62 1602.77,-88.38 1602.12,-76 1601.35,-61.12 1601.11,-44.31 1601.06,-31.51"/>
<polygon fill="#63b8ff" stroke="#63b8ff" points="1604.56,-31.78 1601.05,-21.78 1597.56,-31.78 1604.56,-31.78"/>
</a>
</g>
</g>
<!-- Node23&#45;&gt;Node19 -->
<g id="edge36_Node000023_Node000019" class="edge">
<title>Node23&#45;&gt;Node19</title>
<g id="a_edge36_Node000023_Node000019"><a xlink:title=" ">
<path fill="none" stroke="#63b8ff" d="M1639.88,-118.43C1670.39,-114.33 1714.47,-103.67 1741.12,-76 1752.61,-64.08 1757.21,-45.62 1759.02,-31.41"/>
<polygon fill="#63b8ff" stroke="#63b8ff" points="1762.48,-32.07 1759.87,-21.8 1755.5,-31.45 1762.48,-32.07"/>
</a>
</g>
</g>
<!-- Node23&#45;&gt;Node24 -->
<g id="edge24_Node000023_Node000024" class="edge">
<title>Node23&#45;&gt;Node24</title>
<g id="a_edge24_Node000023_Node000024"><a xlink:title=" ">
<path fill="none" stroke="#63b8ff" d="M1580.17,-111.59C1556.28,-102.94 1520.6,-90 1493.8,-80.29"/>
<polygon fill="#63b8ff" stroke="#63b8ff" points="1495.3,-77.11 1484.7,-77 1492.91,-83.69 1495.3,-77.11"/>
</a>
</g>
</g>
<!-- Node28 -->
<g id="Node000028" class="node">
<title>Node28</title>
<g id="a_Node000028"><a xlink:href="_date_time___exceptions_8h.html" target="_top" xlink:title="Defines error messages and the DateTimeError exception class for date and time operations.">
<polygon fill="white" stroke="#666666" points="1731.62,-76 1610.62,-76 1610.62,-56 1731.62,-56 1731.62,-76"/>
<text text-anchor="middle" x="1671.12" y="-62.5" font-family="Helvetica,sans-Serif" font-size="10.00">DateTime_Exceptions.h</text>
</a>
</g>
</g>
<!-- Node23&#45;&gt;Node28 -->
<g id="edge31_Node000023_Node000028" class="edge">
<title>Node23&#45;&gt;Node28</title>
<g id="a_edge31_Node000023_Node000028"><a xlink:title=" ">
<path fill="none" stroke="#63b8ff" d="M1617.45,-111.59C1626.77,-103.85 1640.2,-92.69 1651.3,-83.47"/>
<polygon fill="#63b8ff" stroke="#63b8ff" points="1653.31,-86.35 1658.77,-77.27 1648.84,-80.96 1653.31,-86.35"/>
</a>
</g>
</g>
<!-- Node24&#45;&gt;Node18 -->
<g id="edge25_Node000024_Node000018" class="edge">
<title>Node24&#45;&gt;Node18</title>
<g id="a_edge25_Node000024_Node000018"><a xlink:title=" ">
<path fill="none" stroke="#63b8ff" d="M1482.21,-55.59C1505.19,-46.97 1539.48,-34.12 1565.34,-24.42"/>
<polygon fill="#63b8ff" stroke="#63b8ff" points="1566.29,-27.8 1574.43,-21.01 1563.84,-21.25 1566.29,-27.8"/>
</a>
</g>
</g>
<!-- Node24&#45;&gt;Node19 -->
<g id="edge26_Node000024_Node000019" class="edge">
<title>Node24&#45;&gt;Node19</title>
<g id="a_edge26_Node000024_Node000019"><a xlink:title=" ">
<path fill="none" stroke="#63b8ff" d="M1507.68,-56.35C1559.35,-47.45 1641.89,-33.08 1713.12,-20 1718.23,-19.06 1723.64,-18.05 1728.9,-17.05"/>
<polygon fill="#63b8ff" stroke="#63b8ff" points="1729.36,-20.52 1738.52,-15.21 1728.04,-13.65 1729.36,-20.52"/>
</a>
</g>
</g>
<!-- Node24&#45;&gt;Node21 -->
<g id="edge27_Node000024_Node000021" class="edge">
<title>Node24&#45;&gt;Node21</title>
<g id="a_edge27_Node000024_Node000021"><a xlink:title=" ">
<path fill="none" stroke="#63b8ff" d="M1435.35,-55.59C1415.76,-47.13 1386.7,-34.58 1364.4,-24.94"/>
<polygon fill="#63b8ff" stroke="#63b8ff" points="1366.03,-21.83 1355.46,-21.08 1363.25,-28.26 1366.03,-21.83"/>
</a>
</g>
</g>
<!-- Node25 -->
<g id="Node000025" class="node">
<title>Node25</title>
<g id="a_Node000025"><a xlink:title=" ">
<polygon fill="#e0e0e0" stroke="#999999" points="1480,-20 1424.25,-20 1424.25,0 1480,0 1480,-20"/>
<text text-anchor="middle" x="1452.12" y="-6.5" font-family="Helvetica,sans-Serif" font-size="10.00">algorithm</text>
</a>
</g>
</g>
<!-- Node24&#45;&gt;Node25 -->
<g id="edge28_Node000024_Node000025" class="edge">
<title>Node24&#45;&gt;Node25</title>
<g id="a_edge28_Node000024_Node000025"><a xlink:title=" ">
<path fill="none" stroke="#63b8ff" d="M1456.25,-55.59C1455.64,-49.01 1454.81,-39.96 1454.04,-31.73"/>
<polygon fill="#63b8ff" stroke="#63b8ff" points="1457.53,-31.44 1453.13,-21.81 1450.56,-32.09 1457.53,-31.44"/>
</a>
</g>
</g>
<!-- Node26 -->
<g id="Node000026" class="node">
<title>Node26</title>
<g id="a_Node000026"><a xlink:title=" ">
<polygon fill="#e0e0e0" stroke="#999999" points="1556.12,-20 1498.12,-20 1498.12,0 1556.12,0 1556.12,-20"/>
<text text-anchor="middle" x="1527.12" y="-6.5" font-family="Helvetica,sans-Serif" font-size="10.00">functional</text>
</a>
</g>
</g>
<!-- Node24&#45;&gt;Node26 -->
<g id="edge29_Node000024_Node000026" class="edge">
<title>Node24&#45;&gt;Node26</title>
<g id="a_edge29_Node000024_Node000026"><a xlink:title=" ">
<path fill="none" stroke="#63b8ff" d="M1469.32,-55.59C1479.46,-47.77 1494.12,-36.46 1506.14,-27.19"/>
<polygon fill="#63b8ff" stroke="#63b8ff" points="1508.09,-30.1 1513.87,-21.22 1503.82,-24.56 1508.09,-30.1"/>
</a>
</g>
</g>
<!-- Node27 -->
<g id="Node000027" class="node">
<title>Node27</title>
<g id="a_Node000027"><a xlink:title=" ">
<polygon fill="#e0e0e0" stroke="#999999" points="1406.5,-20 1371.75,-20 1371.75,0 1406.5,0 1406.5,-20"/>
<text text-anchor="middle" x="1389.12" y="-6.5" font-family="Helvetica,sans-Serif" font-size="10.00">map</text>
</a>
</g>
</g>
<!-- Node24&#45;&gt;Node27 -->
<g id="edge30_Node000024_Node000027" class="edge">
<title>Node24&#45;&gt;Node27</title>
<g id="a_edge30_Node000024_Node000027"><a xlink:title=" ">
<path fill="none" stroke="#63b8ff" d="M1445.28,-55.59C1435.43,-47.77 1421.19,-36.46 1409.52,-27.19"/>
<polygon fill="#63b8ff" stroke="#63b8ff" points="1412.03,-24.72 1402.02,-21.24 1407.67,-30.2 1412.03,-24.72"/>
</a>
</g>
</g>
<!-- Node28&#45;&gt;Node18 -->
<g id="edge33_Node000028_Node000018" class="edge">
<title>Node28&#45;&gt;Node18</title>
<g id="a_edge33_Node000028_Node000018"><a xlink:title=" ">
<path fill="none" stroke="#63b8ff" d="M1658.93,-55.59C1648.79,-47.77 1634.13,-36.46 1622.11,-27.19"/>
<polygon fill="#63b8ff" stroke="#63b8ff" points="1624.43,-24.56 1614.38,-21.22 1620.16,-30.1 1624.43,-24.56"/>
</a>
</g>
</g>
<!-- Node28&#45;&gt;Node19 -->
<g id="edge32_Node000028_Node000019" class="edge">
<title>Node28&#45;&gt;Node19</title>
<g id="a_edge32_Node000028_Node000019"><a xlink:title=" ">
<path fill="none" stroke="#63b8ff" d="M1686.63,-55.59C1699.95,-47.51 1719.4,-35.71 1734.95,-26.27"/>
<polygon fill="#63b8ff" stroke="#63b8ff" points="1736.47,-29.44 1743.21,-21.26 1732.84,-23.46 1736.47,-29.44"/>
</a>
</g>
</g>
<!-- Node29 -->
<g id="Node000029" class="node">
<title>Node29</title>
<g id="a_Node000029"><a xlink:title=" ">
<polygon fill="#e0e0e0" stroke="#999999" points="1704.12,-20 1646.12,-20 1646.12,0 1704.12,0 1704.12,-20"/>
<text text-anchor="middle" x="1675.12" y="-6.5" font-family="Helvetica,sans-Serif" font-size="10.00">exception</text>
</a>
</g>
</g>
<!-- Node28&#45;&gt;Node29 -->
<g id="edge34_Node000028_Node000029" class="edge">
<title>Node28&#45;&gt;Node29</title>
<g id="a_edge34_Node000028_Node000029"><a xlink:title=" ">
<path fill="none" stroke="#63b8ff" d="M1671.82,-55.59C1672.31,-49.01 1672.98,-39.96 1673.59,-31.73"/>
<polygon fill="#63b8ff" stroke="#63b8ff" points="1677.08,-32.04 1674.32,-21.81 1670.1,-31.52 1677.08,-32.04"/>
</a>
</g>
</g>
<!-- Node30&#45;&gt;Node19 -->
<g id="edge38_Node000030_Node000019" class="edge">
<title>Node30&#45;&gt;Node19</title>
<g id="a_edge38_Node000030_Node000019"><a xlink:title=" ">
<path fill="none" stroke="#63b8ff" d="M1828.67,-55.59C1816.37,-47.59 1798.45,-35.93 1784.02,-26.54"/>
<polygon fill="#63b8ff" stroke="#63b8ff" points="1786.25,-23.82 1775.96,-21.3 1782.44,-29.69 1786.25,-23.82"/>
</a>
</g>
</g>
<!-- Node31&#45;&gt;Node3 -->
<g id="edge42_Node000031_Node000003" class="edge">
<title>Node31&#45;&gt;Node3</title>
<g id="a_edge42_Node000031_Node000003"><a xlink:title=" ">
<path fill="none" stroke="#63b8ff" d="M325.98,-229.67C265.32,-222.24 139.9,-199.27 61.12,-132 47.35,-120.24 38.39,-101.49 33.15,-87.15"/>
<polygon fill="#63b8ff" stroke="#63b8ff" points="36.52,-86.21 30.06,-77.82 29.88,-88.41 36.52,-86.21"/>
</a>
</g>
</g>
<!-- Node31&#45;&gt;Node17 -->
<g id="edge49_Node000031_Node000017" class="edge">
<title>Node31&#45;&gt;Node17</title>
<g id="a_edge49_Node000031_Node000017"><a xlink:title=" ">
<path fill="none" stroke="#63b8ff" d="M396.41,-231.26C560.49,-223.19 1248.09,-189.38 1420.02,-180.92"/>
<polygon fill="#63b8ff" stroke="#63b8ff" points="1419.95,-184.43 1429.76,-180.44 1419.6,-177.44 1419.95,-184.43"/>
</a>
</g>
</g>
<!-- Node32 -->
<g id="Node000032" class="node">
<title>Node32</title>
<g id="a_Node000032"><a xlink:href="ui___child_label_8h.html" target="_top" xlink:title=" ">
<polygon fill="white" stroke="#666666" points="402.5,-188 319.75,-188 319.75,-168 402.5,-168 402.5,-188"/>
<text text-anchor="middle" x="361.12" y="-174.5" font-family="Helvetica,sans-Serif" font-size="10.00">ui_ChildLabel.h</text>
</a>
</g>
</g>
<!-- Node31&#45;&gt;Node32 -->
<g id="edge43_Node000031_Node000032" class="edge">
<title>Node31&#45;&gt;Node32</title>
<g id="a_edge43_Node000031_Node000032"><a xlink:title=" ">
<path fill="none" stroke="#63b8ff" d="M361.12,-223.59C361.12,-217.01 361.12,-207.96 361.12,-199.73"/>
<polygon fill="#63b8ff" stroke="#63b8ff" points="364.63,-199.81 361.13,-189.81 357.63,-199.81 364.63,-199.81"/>
</a>
</g>
</g>
<!-- Node32&#45;&gt;Node5 -->
<g id="edge44_Node000032_Node000005" class="edge">
<title>Node32&#45;&gt;Node5</title>
<g id="a_edge44_Node000032_Node000005"><a xlink:title=" ">
<path fill="none" stroke="#63b8ff" d="M380.98,-167.59C398.61,-159.24 424.63,-146.92 444.85,-137.34"/>
<polygon fill="#63b8ff" stroke="#63b8ff" points="446.21,-140.57 453.74,-133.13 443.21,-134.25 446.21,-140.57"/>
</a>
</g>
</g>
<!-- Node32&#45;&gt;Node6 -->
<g id="edge45_Node000032_Node000006" class="edge">
<title>Node32&#45;&gt;Node6</title>
<g id="a_edge45_Node000032_Node000006"><a xlink:title=" ">
<path fill="none" stroke="#63b8ff" d="M402.68,-167.53C442.41,-158.48 502.46,-144.8 545.51,-134.99"/>
<polygon fill="#63b8ff" stroke="#63b8ff" points="546.17,-138.43 555.14,-132.79 544.62,-131.6 546.17,-138.43"/>
</a>
</g>
</g>
<!-- Node32&#45;&gt;Node8 -->
<g id="edge46_Node000032_Node000008" class="edge">
<title>Node32&#45;&gt;Node8</title>
<g id="a_edge46_Node000032_Node000008"><a xlink:title=" ">
<path fill="none" stroke="#63b8ff" d="M338.48,-167.59C318.01,-159.09 287.61,-146.46 264.38,-136.81"/>
<polygon fill="#63b8ff" stroke="#63b8ff" points="265.92,-133.66 255.34,-133.06 263.24,-140.13 265.92,-133.66"/>
</a>
</g>
</g>
<!-- Node32&#45;&gt;Node13 -->
<g id="edge47_Node000032_Node000013" class="edge">
<title>Node32&#45;&gt;Node13</title>
<g id="a_edge47_Node000032_Node000013"><a xlink:title=" ">
<path fill="none" stroke="#63b8ff" d="M361.12,-167.59C361.12,-161.01 361.12,-151.96 361.12,-143.73"/>
<polygon fill="#63b8ff" stroke="#63b8ff" points="364.63,-143.81 361.13,-133.81 357.63,-143.81 364.63,-143.81"/>
</a>
</g>
</g>
<!-- Node32&#45;&gt;Node14 -->
<g id="edge48_Node000032_Node000014" class="edge">
<title>Node32&#45;&gt;Node14</title>
<g id="a_edge48_Node000032_Node000014"><a xlink:title=" ">
<path fill="none" stroke="#63b8ff" d="M319.28,-167.96C276.52,-158.73 210,-144.36 163.7,-134.36"/>
<polygon fill="#63b8ff" stroke="#63b8ff" points="164.68,-130.99 154.17,-132.3 163.2,-137.83 164.68,-130.99"/>
</a>
</g>
</g>
</g>
</svg>

<g id="navigator" transform="translate(0 0)" fill="#404254">
  <rect fill="#f2f5e9" fill-opacity="0.5" stroke="#606060" stroke-width=".5" x="0" y="0" width="60" height="60"/>
  <use id="zoomplus" xlink:href="#zoomPlus" x="17" y="9" onmousedown="handleZoom(evt,'in')"/>
  <use id="zoomminus" xlink:href="#zoomMin" x="42" y="9" onmousedown="handleZoom(evt,'out')"/>
  <use id="reset" xlink:href="#resetDef" x="30" y="36" onmousedown="handleReset()"/>
   <use id="arrowup" xlink:href="#arrowUp" x="0" y="0" onmousedown="handlePan(0,-1)"/>
  <use id="arrowright" xlink:href="#arrowRight" x="0" y="0" onmousedown="handlePan(1,0)"/>
  <use id="arrowdown" xlink:href="#arrowDown" x="0" y="0" onmousedown="handlePan(0,1)"/>
  <use id="arrowleft" xlink:href="#arrowLeft" x="0" y="0" onmousedown="handlePan(-1,0)"/>
</g>
<svg viewBox="0 0 15 15" width="100%" height="30px" preserveAspectRatio="xMaxYMin meet">
 <g id="arrow_out" transform="scale(0.3 0.3)">
  <a xlink:href="_parent_entry_8cpp__incl_org.svg" target="_base">
   <rect id="button" ry="5" rx="5" y="6" x="6" height="38" width="38"
        fill="#f2f5e9" fill-opacity="0.5" stroke="#606060" stroke-width="1.0"/>
   <path id="arrow"
     d="M 11.500037,31.436501 C 11.940474,20.09759 22.043105,11.32322 32.158766,21.979434 L 37.068811,17.246167 C 37.068811,17.246167 37.088388,32 37.088388,32 L 22.160133,31.978069 C 22.160133,31.978069 26.997745,27.140456 26.997745,27.140456 C 18.528582,18.264221 13.291696,25.230495 11.500037,31.436501 z"
     style="fill:#404040;"/>
  </a>
 </g>
</svg>

<style type='text/css'>
<![CDATA[
[data-mouse-over-selected='false'] { opacity: 0.7; }
[data-mouse-over-selected='true']  { opacity: 1.0; }
]]>
</style>
<script type="application/ecmascript"><![CDATA[
document.addEventListener('DOMContentLoaded', (event) => {
  highlightEdges();
  highlightAdjacentNodes();
});
]]></script>
</svg>
