<?xml version="1.0" encoding="UTF-8" standalone="no"?>
<!DOCTYPE svg PUBLIC "-//W3C//DTD SVG 1.1//EN"
 "http://www.w3.org/Graphics/SVG/1.1/DTD/svg11.dtd">
<!-- Generated by graphviz version 12.2.1 (20241206.2353)
 -->
<!-- Title: TullipApp/ParentEntry.h Pages: 1 -->
<svg width="592pt" height="164pt"
 viewBox="0.00 0.00 591.75 164.00" xmlns="http://www.w3.org/2000/svg" xmlns:xlink="http://www.w3.org/1999/xlink">
<g id="graph0" class="graph" transform="scale(1 1) rotate(0) translate(4 160)">
<title>TullipApp/ParentEntry.h</title>
<!-- Node1 -->
<g id="Node000001" class="node">
<title>Node1</title>
<g id="a_Node000001"><a xlink:title="Defines the ParentEntry class for managing the graphical representation of a parent in the GUI.">
<polygon fill="#999999" stroke="#666666" points="414.25,-156 295.5,-156 295.5,-136 414.25,-136 414.25,-156"/>
<text text-anchor="middle" x="354.88" y="-142.5" font-family="Helvetica,sans-Serif" font-size="10.00">TullipApp/ParentEntry.h</text>
</a>
</g>
</g>
<!-- Node2 -->
<g id="Node000002" class="node">
<title>Node2</title>
<g id="a_Node000002"><a xlink:href="_data_base_g_u_i_8h.html" target="_top" xlink:title="Defines the DataBaseGUI class for managing the graphical user interface of the database.">
<polygon fill="white" stroke="#666666" points="272.5,-94 143.25,-94 143.25,-74 272.5,-74 272.5,-94"/>
<text text-anchor="middle" x="207.88" y="-80.5" font-family="Helvetica,sans-Serif" font-size="10.00">TullipApp/DataBaseGUI.h</text>
</a>
</g>
</g>
<!-- Node1&#45;&gt;Node2 -->
<g id="edge1_Node000001_Node000002" class="edge">
<title>Node1&#45;&gt;Node2</title>
<g id="a_edge1_Node000001_Node000002"><a xlink:title=" ">
<path fill="none" stroke="#63b8ff" d="M321.5,-131.38C293.75,-120.05 255,-104.23 230.68,-94.31"/>
<polygon fill="#63b8ff" stroke="#63b8ff" points="319.92,-134.51 330.5,-135.05 322.57,-128.03 319.92,-134.51"/>
</a>
</g>
</g>
<!-- Node6 -->
<g id="Node000006" class="node">
<title>Node6</title>
<g id="a_Node000006"><a xlink:href="_parent_entry_8cpp.html" target="_top" xlink:title=" ">
<polygon fill="white" stroke="#666666" points="419.5,-94 290.25,-94 290.25,-74 419.5,-74 419.5,-94"/>
<text text-anchor="middle" x="354.88" y="-80.5" font-family="Helvetica,sans-Serif" font-size="10.00">TullipApp/ParentEntry.cpp</text>
</a>
</g>
</g>
<!-- Node1&#45;&gt;Node6 -->
<g id="edge5_Node000001_Node000006" class="edge">
<title>Node1&#45;&gt;Node6</title>
<g id="a_edge5_Node000001_Node000006"><a xlink:title=" ">
<path fill="none" stroke="#63b8ff" d="M354.88,-124.25C354.88,-113.97 354.88,-102.09 354.88,-94.11"/>
<polygon fill="#63b8ff" stroke="#63b8ff" points="351.38,-124.11 354.88,-134.11 358.38,-124.11 351.38,-124.11"/>
</a>
</g>
</g>
<!-- Node7 -->
<g id="Node000007" class="node">
<title>Node7</title>
<g id="a_Node000007"><a xlink:href="moc___parent_entry_8cpp.html" target="_top" xlink:title=" ">
<polygon fill="white" stroke="#666666" points="583.75,-100 438,-100 438,-68 583.75,-68 583.75,-100"/>
<text text-anchor="start" x="446" y="-86.5" font-family="Helvetica,sans-Serif" font-size="10.00">TullipApp/x64/Debug</text>
<text text-anchor="middle" x="510.88" y="-74.5" font-family="Helvetica,sans-Serif" font-size="10.00">/qt/moc/moc_ParentEntry.cpp</text>
</a>
</g>
</g>
<!-- Node1&#45;&gt;Node7 -->
<g id="edge6_Node000001_Node000007" class="edge">
<title>Node1&#45;&gt;Node7</title>
<g id="a_edge6_Node000001_Node000007"><a xlink:title=" ">
<path fill="none" stroke="#63b8ff" d="M389.97,-131.5C413.9,-122.3 445.64,-110.09 470.6,-100.49"/>
<polygon fill="#63b8ff" stroke="#63b8ff" points="388.74,-128.23 380.66,-135.08 391.25,-134.76 388.74,-128.23"/>
</a>
</g>
</g>
<!-- Node3 -->
<g id="Node000003" class="node">
<title>Node3</title>
<g id="a_Node000003"><a xlink:href="_data_base_g_u_i_8cpp.html" target="_top" xlink:title=" ">
<polygon fill="white" stroke="#666666" points="139.75,-26 0,-26 0,-6 139.75,-6 139.75,-26"/>
<text text-anchor="middle" x="69.88" y="-12.5" font-family="Helvetica,sans-Serif" font-size="10.00">TullipApp/DataBaseGUI.cpp</text>
</a>
</g>
</g>
<!-- Node2&#45;&gt;Node3 -->
<g id="edge2_Node000002_Node000003" class="edge">
<title>Node2&#45;&gt;Node3</title>
<g id="a_edge2_Node000002_Node000003"><a xlink:title=" ">
<path fill="none" stroke="#63b8ff" d="M177.77,-68.6C151.01,-55.8 112.65,-37.46 89.61,-26.44"/>
<polygon fill="#63b8ff" stroke="#63b8ff" points="176.21,-71.73 186.74,-72.89 179.23,-65.42 176.21,-71.73"/>
</a>
</g>
</g>
<!-- Node4 -->
<g id="Node000004" class="node">
<title>Node4</title>
<g id="a_Node000004"><a xlink:href="_main_8cpp.html" target="_top" xlink:title=" ">
<polygon fill="white" stroke="#666666" points="257.5,-26 158.25,-26 158.25,-6 257.5,-6 257.5,-26"/>
<text text-anchor="middle" x="207.88" y="-12.5" font-family="Helvetica,sans-Serif" font-size="10.00">TullipApp/Main.cpp</text>
</a>
</g>
</g>
<!-- Node2&#45;&gt;Node4 -->
<g id="edge3_Node000002_Node000004" class="edge">
<title>Node2&#45;&gt;Node4</title>
<g id="a_edge3_Node000002_Node000004"><a xlink:title=" ">
<path fill="none" stroke="#63b8ff" d="M207.88,-62.28C207.88,-50.27 207.88,-35.74 207.88,-26.44"/>
<polygon fill="#63b8ff" stroke="#63b8ff" points="204.38,-62.03 207.88,-72.03 211.38,-62.03 204.38,-62.03"/>
</a>
</g>
</g>
<!-- Node5 -->
<g id="Node000005" class="node">
<title>Node5</title>
<g id="a_Node000005"><a xlink:href="moc___data_base_g_u_i_8cpp.html" target="_top" xlink:title=" ">
<polygon fill="white" stroke="#666666" points="432,-32 275.75,-32 275.75,0 432,0 432,-32"/>
<text text-anchor="start" x="283.75" y="-18.5" font-family="Helvetica,sans-Serif" font-size="10.00">TullipApp/x64/Debug</text>
<text text-anchor="middle" x="353.88" y="-6.5" font-family="Helvetica,sans-Serif" font-size="10.00">/qt/moc/moc_DataBaseGUI.cpp</text>
</a>
</g>
</g>
<!-- Node2&#45;&gt;Node5 -->
<g id="edge4_Node000002_Node000005" class="edge">
<title>Node2&#45;&gt;Node5</title>
<g id="a_edge4_Node000002_Node000005"><a xlink:title=" ">
<path fill="none" stroke="#63b8ff" d="M239,-68.93C262.71,-58.21 295.33,-43.47 319.75,-32.43"/>
<polygon fill="#63b8ff" stroke="#63b8ff" points="237.84,-65.61 230.17,-72.92 240.73,-71.99 237.84,-65.61"/>
</a>
</g>
</g>
</g>
</svg>
