<?xml version="1.0" encoding="UTF-8" standalone="no"?>
<!DOCTYPE svg PUBLIC "-//W3C//DTD SVG 1.1//EN"
 "http://www.w3.org/Graphics/SVG/1.1/DTD/svg11.dtd">
<!-- Generated by graphviz version 12.2.1 (20241206.2353)
 -->
<!-- Title: TullipApp/ParentDialog.h Pages: 1 -->
<svg width="2402pt" height="364pt"
 viewBox="0.00 0.00 2401.93 364.00" xmlns="http://www.w3.org/2000/svg" xmlns:xlink="http://www.w3.org/1999/xlink">
<g id="graph0" class="graph" transform="scale(1 1) rotate(0) translate(4 360)">
<title>TullipApp/ParentDialog.h</title>
<!-- Node1 -->
<g id="Node000001" class="node">
<title>Node1</title>
<g id="a_Node000001"><a xlink:title="Defines the ParentDialog class for managing parent&#45;related information.">
<polygon fill="#999999" stroke="#666666" points="279.93,-356 155.93,-356 155.93,-336 279.93,-336 279.93,-356"/>
<text text-anchor="middle" x="217.93" y="-342.5" font-family="Helvetica,sans-Serif" font-size="10.00">TullipApp/ParentDialog.h</text>
</a>
</g>
</g>
<!-- Node2 -->
<g id="Node000002" class="node">
<title>Node2</title>
<g id="a_Node000002"><a xlink:title=" ">
<polygon fill="#e0e0e0" stroke="#999999" points="79.55,-300 28.3,-300 28.3,-280 79.55,-280 79.55,-300"/>
<text text-anchor="middle" x="53.93" y="-286.5" font-family="Helvetica,sans-Serif" font-size="10.00">QDialog</text>
</a>
</g>
</g>
<!-- Node1&#45;&gt;Node2 -->
<g id="edge1_Node000001_Node000002" class="edge">
<title>Node1&#45;&gt;Node2</title>
<g id="a_edge1_Node000001_Node000002"><a xlink:title=" ">
<path fill="none" stroke="#63b8ff" d="M189.36,-335.59C162.02,-326.59 120.64,-312.97 90.81,-303.15"/>
<polygon fill="#63b8ff" stroke="#63b8ff" points="92.03,-299.86 81.44,-300.06 89.84,-306.51 92.03,-299.86"/>
</a>
</g>
</g>
<!-- Node3 -->
<g id="Node000003" class="node">
<title>Node3</title>
<g id="a_Node000003"><a xlink:href="ui___parent_dialog_8h.html" target="_top" xlink:title=" ">
<polygon fill="white" stroke="#666666" points="1614.55,-244 1521.3,-244 1521.3,-224 1614.55,-224 1614.55,-244"/>
<text text-anchor="middle" x="1567.93" y="-230.5" font-family="Helvetica,sans-Serif" font-size="10.00">ui_ParentDialog.h</text>
</a>
</g>
</g>
<!-- Node1&#45;&gt;Node3 -->
<g id="edge2_Node000001_Node000003" class="edge">
<title>Node1&#45;&gt;Node3</title>
<g id="a_edge2_Node000001_Node000003"><a xlink:title=" ">
<path fill="none" stroke="#63b8ff" d="M280.33,-339.92C507.67,-321.39 1289.73,-257.67 1509.86,-239.73"/>
<polygon fill="#63b8ff" stroke="#63b8ff" points="1509.94,-243.24 1519.62,-238.94 1509.37,-236.26 1509.94,-243.24"/>
</a>
</g>
</g>
<!-- Node16 -->
<g id="Node000016" class="node">
<title>Node16</title>
<g id="a_Node000016"><a xlink:href="_person_8h.html" target="_top" xlink:title="Defines the Person class and its derived classes: Child, Parent, and Employee.">
<polygon fill="white" stroke="#666666" points="377.43,-188 322.43,-188 322.43,-168 377.43,-168 377.43,-188"/>
<text text-anchor="middle" x="349.93" y="-174.5" font-family="Helvetica,sans-Serif" font-size="10.00">Person.h</text>
</a>
</g>
</g>
<!-- Node1&#45;&gt;Node16 -->
<g id="edge15_Node000001_Node000016" class="edge">
<title>Node1&#45;&gt;Node16</title>
<g id="a_edge15_Node000001_Node000016"><a xlink:title=" ">
<path fill="none" stroke="#63b8ff" d="M201.22,-335.54C166.79,-314.89 93.88,-264.38 126.93,-224 149.74,-196.12 253.29,-185.12 310.91,-181.11"/>
<polygon fill="#63b8ff" stroke="#63b8ff" points="310.87,-184.62 320.62,-180.47 310.41,-177.63 310.87,-184.62"/>
</a>
</g>
</g>
<!-- Node30 -->
<g id="Node000030" class="node">
<title>Node30</title>
<g id="a_Node000030"><a xlink:href="_data_base_8h.html" target="_top" xlink:title="Defines the Database class for managing lessons, parents, children, and employees.">
<polygon fill="white" stroke="#666666" points="530.05,-300 463.8,-300 463.8,-280 530.05,-280 530.05,-300"/>
<text text-anchor="middle" x="496.93" y="-286.5" font-family="Helvetica,sans-Serif" font-size="10.00">Database.h</text>
</a>
</g>
</g>
<!-- Node1&#45;&gt;Node30 -->
<g id="edge38_Node000001_Node000030" class="edge">
<title>Node1&#45;&gt;Node30</title>
<g id="a_edge38_Node000001_Node000030"><a xlink:title=" ">
<path fill="none" stroke="#63b8ff" d="M266.84,-335.53C319.18,-325.4 401.5,-309.47 452.18,-299.66"/>
<polygon fill="#63b8ff" stroke="#63b8ff" points="452.78,-303.11 461.93,-297.77 451.45,-296.24 452.78,-303.11"/>
</a>
</g>
</g>
<!-- Node34 -->
<g id="Node000034" class="node">
<title>Node34</title>
<g id="a_Node000034"><a xlink:href="_child_check_box_8h.html" target="_top" xlink:title="Defines the ChildCheckBox class for managing a checkbox widget for a child.">
<polygon fill="white" stroke="#666666" points="264.18,-300 171.68,-300 171.68,-280 264.18,-280 264.18,-300"/>
<text text-anchor="middle" x="217.93" y="-286.5" font-family="Helvetica,sans-Serif" font-size="10.00">ChildCheckBox.h</text>
</a>
</g>
</g>
<!-- Node1&#45;&gt;Node34 -->
<g id="edge54_Node000001_Node000034" class="edge">
<title>Node1&#45;&gt;Node34</title>
<g id="a_edge54_Node000001_Node000034"><a xlink:title=" ">
<path fill="none" stroke="#63b8ff" d="M217.93,-335.59C217.93,-329.01 217.93,-319.96 217.93,-311.73"/>
<polygon fill="#63b8ff" stroke="#63b8ff" points="221.43,-311.81 217.93,-301.81 214.43,-311.81 221.43,-311.81"/>
</a>
</g>
</g>
<!-- Node4 -->
<g id="Node000004" class="node">
<title>Node4</title>
<g id="a_Node000004"><a xlink:title=" ">
<polygon fill="#e0e0e0" stroke="#999999" points="953.93,-188 865.93,-188 865.93,-168 953.93,-168 953.93,-188"/>
<text text-anchor="middle" x="909.93" y="-174.5" font-family="Helvetica,sans-Serif" font-size="10.00">QtCore/QVariant</text>
</a>
</g>
</g>
<!-- Node3&#45;&gt;Node4 -->
<g id="edge3_Node000003_Node000004" class="edge">
<title>Node3&#45;&gt;Node4</title>
<g id="a_edge3_Node000003_Node000004"><a xlink:title=" ">
<path fill="none" stroke="#63b8ff" d="M1521.18,-230.97C1421.27,-226.3 1179.35,-213.36 965.51,-188.07"/>
<polygon fill="#63b8ff" stroke="#63b8ff" points="966.23,-184.63 955.88,-186.92 965.39,-191.58 966.23,-184.63"/>
</a>
</g>
</g>
<!-- Node5 -->
<g id="Node000005" class="node">
<title>Node5</title>
<g id="a_Node000005"><a xlink:title=" ">
<polygon fill="#e0e0e0" stroke="#999999" points="1093.43,-188 972.43,-188 972.43,-168 1093.43,-168 1093.43,-188"/>
<text text-anchor="middle" x="1032.93" y="-174.5" font-family="Helvetica,sans-Serif" font-size="10.00">QtWidgets/QApplication</text>
</a>
</g>
</g>
<!-- Node3&#45;&gt;Node5 -->
<g id="edge4_Node000003_Node000005" class="edge">
<title>Node3&#45;&gt;Node5</title>
<g id="a_edge4_Node000003_Node000005"><a xlink:title=" ">
<path fill="none" stroke="#63b8ff" d="M1521.01,-228.95C1439.04,-221.77 1264.11,-205.97 1105.04,-188.2"/>
<polygon fill="#63b8ff" stroke="#63b8ff" points="1105.45,-184.73 1095.12,-187.09 1104.67,-191.68 1105.45,-184.73"/>
</a>
</g>
</g>
<!-- Node6 -->
<g id="Node000006" class="node">
<title>Node6</title>
<g id="a_Node000006"><a xlink:title=" ">
<polygon fill="#e0e0e0" stroke="#999999" points="1499.8,-188 1378.05,-188 1378.05,-168 1499.8,-168 1499.8,-188"/>
<text text-anchor="middle" x="1438.93" y="-174.5" font-family="Helvetica,sans-Serif" font-size="10.00">QtWidgets/QComboBox</text>
</a>
</g>
</g>
<!-- Node3&#45;&gt;Node6 -->
<g id="edge5_Node000003_Node000006" class="edge">
<title>Node3&#45;&gt;Node6</title>
<g id="a_edge5_Node000003_Node000006"><a xlink:title=" ">
<path fill="none" stroke="#63b8ff" d="M1545.46,-223.59C1525.14,-215.09 1494.97,-202.46 1471.92,-192.81"/>
<polygon fill="#63b8ff" stroke="#63b8ff" points="1473.54,-189.7 1462.97,-189.06 1470.84,-196.15 1473.54,-189.7"/>
</a>
</g>
</g>
<!-- Node7 -->
<g id="Node000007" class="node">
<title>Node7</title>
<g id="a_Node000007"><a xlink:title=" ">
<polygon fill="#e0e0e0" stroke="#999999" points="1618.3,-188 1517.55,-188 1517.55,-168 1618.3,-168 1618.3,-188"/>
<text text-anchor="middle" x="1567.93" y="-174.5" font-family="Helvetica,sans-Serif" font-size="10.00">QtWidgets/QDialog</text>
</a>
</g>
</g>
<!-- Node3&#45;&gt;Node7 -->
<g id="edge6_Node000003_Node000007" class="edge">
<title>Node3&#45;&gt;Node7</title>
<g id="a_edge6_Node000003_Node000007"><a xlink:title=" ">
<path fill="none" stroke="#63b8ff" d="M1567.93,-223.59C1567.93,-217.01 1567.93,-207.96 1567.93,-199.73"/>
<polygon fill="#63b8ff" stroke="#63b8ff" points="1571.43,-199.81 1567.93,-189.81 1564.43,-199.81 1571.43,-199.81"/>
</a>
</g>
</g>
<!-- Node8 -->
<g id="Node000008" class="node">
<title>Node8</title>
<g id="a_Node000008"><a xlink:title=" ">
<polygon fill="#e0e0e0" stroke="#999999" points="1737.3,-188 1636.55,-188 1636.55,-168 1737.3,-168 1737.3,-188"/>
<text text-anchor="middle" x="1686.93" y="-174.5" font-family="Helvetica,sans-Serif" font-size="10.00">QtWidgets/QFrame</text>
</a>
</g>
</g>
<!-- Node3&#45;&gt;Node8 -->
<g id="edge7_Node000003_Node000008" class="edge">
<title>Node3&#45;&gt;Node8</title>
<g id="a_edge7_Node000003_Node000008"><a xlink:title=" ">
<path fill="none" stroke="#63b8ff" d="M1588.65,-223.59C1607.14,-215.21 1634.47,-202.8 1655.62,-193.21"/>
<polygon fill="#63b8ff" stroke="#63b8ff" points="1657,-196.42 1664.66,-189.1 1654.11,-190.05 1657,-196.42"/>
</a>
</g>
</g>
<!-- Node9 -->
<g id="Node000009" class="node">
<title>Node9</title>
<g id="a_Node000009"><a xlink:title=" ">
<polygon fill="#e0e0e0" stroke="#999999" points="1876.05,-188 1755.8,-188 1755.8,-168 1876.05,-168 1876.05,-188"/>
<text text-anchor="middle" x="1815.93" y="-174.5" font-family="Helvetica,sans-Serif" font-size="10.00">QtWidgets/QGridLayout</text>
</a>
</g>
</g>
<!-- Node3&#45;&gt;Node9 -->
<g id="edge8_Node000003_Node000009" class="edge">
<title>Node3&#45;&gt;Node9</title>
<g id="a_edge8_Node000003_Node000009"><a xlink:title=" ">
<path fill="none" stroke="#63b8ff" d="M1611.41,-223.53C1653.16,-214.44 1716.36,-200.68 1761.45,-190.86"/>
<polygon fill="#63b8ff" stroke="#63b8ff" points="1761.99,-194.33 1771.02,-188.78 1760.5,-187.49 1761.99,-194.33"/>
</a>
</g>
</g>
<!-- Node10 -->
<g id="Node000010" class="node">
<title>Node10</title>
<g id="a_Node000010"><a xlink:title=" ">
<polygon fill="#e0e0e0" stroke="#999999" points="1990.05,-188 1893.8,-188 1893.8,-168 1990.05,-168 1990.05,-188"/>
<text text-anchor="middle" x="1941.93" y="-174.5" font-family="Helvetica,sans-Serif" font-size="10.00">QtWidgets/QLabel</text>
</a>
</g>
</g>
<!-- Node3&#45;&gt;Node10 -->
<g id="edge9_Node000003_Node000010" class="edge">
<title>Node3&#45;&gt;Node10</title>
<g id="a_edge9_Node000003_Node000010"><a xlink:title=" ">
<path fill="none" stroke="#63b8ff" d="M1614.96,-226.56C1674.64,-218.33 1781.09,-203.48 1882.09,-188.41"/>
<polygon fill="#63b8ff" stroke="#63b8ff" points="1882.56,-191.88 1891.93,-186.93 1881.52,-184.95 1882.56,-191.88"/>
</a>
</g>
</g>
<!-- Node11 -->
<g id="Node000011" class="node">
<title>Node11</title>
<g id="a_Node000011"><a xlink:title=" ">
<polygon fill="#e0e0e0" stroke="#999999" points="2116.05,-188 2007.8,-188 2007.8,-168 2116.05,-168 2116.05,-188"/>
<text text-anchor="middle" x="2061.93" y="-174.5" font-family="Helvetica,sans-Serif" font-size="10.00">QtWidgets/QLineEdit</text>
</a>
</g>
</g>
<!-- Node3&#45;&gt;Node11 -->
<g id="edge10_Node000003_Node000011" class="edge">
<title>Node3&#45;&gt;Node11</title>
<g id="a_edge10_Node000003_Node000011"><a xlink:title=" ">
<path fill="none" stroke="#63b8ff" d="M1614.87,-228.69C1692.12,-221.46 1851.15,-206.04 1996.02,-188.32"/>
<polygon fill="#63b8ff" stroke="#63b8ff" points="1996.31,-191.81 2005.81,-187.12 1995.45,-184.86 1996.31,-191.81"/>
</a>
</g>
</g>
<!-- Node12 -->
<g id="Node000012" class="node">
<title>Node12</title>
<g id="a_Node000012"><a xlink:title=" ">
<polygon fill="#e0e0e0" stroke="#999999" points="2257.93,-188 2133.93,-188 2133.93,-168 2257.93,-168 2257.93,-188"/>
<text text-anchor="middle" x="2195.93" y="-174.5" font-family="Helvetica,sans-Serif" font-size="10.00">QtWidgets/QPushButton</text>
</a>
</g>
</g>
<!-- Node3&#45;&gt;Node12 -->
<g id="edge11_Node000003_Node000012" class="edge">
<title>Node3&#45;&gt;Node12</title>
<g id="a_edge11_Node000003_Node000012"><a xlink:title=" ">
<path fill="none" stroke="#63b8ff" d="M1614.94,-229.93C1709.09,-223.61 1927.74,-208.17 2122.3,-188.23"/>
<polygon fill="#63b8ff" stroke="#63b8ff" points="2122.51,-191.73 2132.1,-187.22 2121.8,-184.76 2122.51,-191.73"/>
</a>
</g>
</g>
<!-- Node13 -->
<g id="Node000013" class="node">
<title>Node13</title>
<g id="a_Node000013"><a xlink:title=" ">
<polygon fill="#e0e0e0" stroke="#999999" points="2393.93,-188 2275.93,-188 2275.93,-168 2393.93,-168 2393.93,-188"/>
<text text-anchor="middle" x="2334.93" y="-174.5" font-family="Helvetica,sans-Serif" font-size="10.00">QtWidgets/QScrollArea</text>
</a>
</g>
</g>
<!-- Node3&#45;&gt;Node13 -->
<g id="edge12_Node000003_Node000013" class="edge">
<title>Node3&#45;&gt;Node13</title>
<g id="a_edge12_Node000003_Node000013"><a xlink:title=" ">
<path fill="none" stroke="#63b8ff" d="M1614.64,-231.08C1725.48,-226.29 2013.26,-212.49 2264.44,-188.18"/>
<polygon fill="#63b8ff" stroke="#63b8ff" points="2264.5,-191.69 2274.11,-187.24 2263.82,-184.72 2264.5,-191.69"/>
</a>
</g>
</g>
<!-- Node14 -->
<g id="Node000014" class="node">
<title>Node14</title>
<g id="a_Node000014"><a xlink:title=" ">
<polygon fill="#e0e0e0" stroke="#999999" points="1238.05,-188 1111.8,-188 1111.8,-168 1238.05,-168 1238.05,-188"/>
<text text-anchor="middle" x="1174.93" y="-174.5" font-family="Helvetica,sans-Serif" font-size="10.00">QtWidgets/QVBoxLayout</text>
</a>
</g>
</g>
<!-- Node3&#45;&gt;Node14 -->
<g id="edge13_Node000003_Node000014" class="edge">
<title>Node3&#45;&gt;Node14</title>
<g id="a_edge13_Node000003_Node000014"><a xlink:title=" ">
<path fill="none" stroke="#63b8ff" d="M1520.91,-226.54C1453.58,-217.29 1329.04,-200.18 1249.18,-189.2"/>
<polygon fill="#63b8ff" stroke="#63b8ff" points="1250.1,-185.8 1239.72,-187.9 1249.15,-192.73 1250.1,-185.8"/>
</a>
</g>
</g>
<!-- Node15 -->
<g id="Node000015" class="node">
<title>Node15</title>
<g id="a_Node000015"><a xlink:title=" ">
<polygon fill="#e0e0e0" stroke="#999999" points="1359.8,-188 1256.05,-188 1256.05,-168 1359.8,-168 1359.8,-188"/>
<text text-anchor="middle" x="1307.93" y="-174.5" font-family="Helvetica,sans-Serif" font-size="10.00">QtWidgets/QWidget</text>
</a>
</g>
</g>
<!-- Node3&#45;&gt;Node15 -->
<g id="edge14_Node000003_Node000015" class="edge">
<title>Node3&#45;&gt;Node15</title>
<g id="a_edge14_Node000003_Node000015"><a xlink:title=" ">
<path fill="none" stroke="#63b8ff" d="M1522.34,-223.53C1478.39,-214.4 1411.75,-200.56 1364.44,-190.74"/>
<polygon fill="#63b8ff" stroke="#63b8ff" points="1365.45,-187.37 1354.94,-188.76 1364.02,-194.23 1365.45,-187.37"/>
</a>
</g>
</g>
<!-- Node17 -->
<g id="Node000017" class="node">
<title>Node17</title>
<g id="a_Node000017"><a xlink:title=" ">
<polygon fill="#e0e0e0" stroke="#999999" points="367.68,-20 314.18,-20 314.18,0 367.68,0 367.68,-20"/>
<text text-anchor="middle" x="340.93" y="-6.5" font-family="Helvetica,sans-Serif" font-size="10.00">iostream</text>
</a>
</g>
</g>
<!-- Node16&#45;&gt;Node17 -->
<g id="edge16_Node000016_Node000017" class="edge">
<title>Node16&#45;&gt;Node17</title>
<g id="a_edge16_Node000016_Node000017"><a xlink:title=" ">
<path fill="none" stroke="#63b8ff" d="M349.42,-167.6C348,-141.46 343.99,-67.48 342.03,-31.36"/>
<polygon fill="#63b8ff" stroke="#63b8ff" points="345.55,-31.6 341.51,-21.81 338.56,-31.98 345.55,-31.6"/>
</a>
</g>
</g>
<!-- Node18 -->
<g id="Node000018" class="node">
<title>Node18</title>
<g id="a_Node000018"><a xlink:title=" ">
<polygon fill="#e0e0e0" stroke="#999999" points="137.93,-20 97.93,-20 97.93,0 137.93,0 137.93,-20"/>
<text text-anchor="middle" x="117.93" y="-6.5" font-family="Helvetica,sans-Serif" font-size="10.00">string</text>
</a>
</g>
</g>
<!-- Node16&#45;&gt;Node18 -->
<g id="edge17_Node000016_Node000018" class="edge">
<title>Node16&#45;&gt;Node18</title>
<g id="a_edge17_Node000016_Node000018"><a xlink:title=" ">
<path fill="none" stroke="#63b8ff" d="M322,-173.14C247.63,-162.2 47.92,-128.36 11.93,-76 -9.46,-44.89 47.86,-25.95 86.32,-17.07"/>
<polygon fill="#63b8ff" stroke="#63b8ff" points="87.03,-20.5 96.06,-14.96 85.55,-13.65 87.03,-20.5"/>
</a>
</g>
</g>
<!-- Node19 -->
<g id="Node000019" class="node">
<title>Node19</title>
<g id="a_Node000019"><a xlink:title=" ">
<polygon fill="#e0e0e0" stroke="#999999" points="453.55,-132 414.3,-132 414.3,-112 453.55,-112 453.55,-132"/>
<text text-anchor="middle" x="433.93" y="-118.5" font-family="Helvetica,sans-Serif" font-size="10.00">utility</text>
</a>
</g>
</g>
<!-- Node16&#45;&gt;Node19 -->
<g id="edge18_Node000016_Node000019" class="edge">
<title>Node16&#45;&gt;Node19</title>
<g id="a_edge18_Node000016_Node000019"><a xlink:title=" ">
<path fill="none" stroke="#63b8ff" d="M364.56,-167.59C377.01,-159.59 395.14,-147.93 409.75,-138.54"/>
<polygon fill="#63b8ff" stroke="#63b8ff" points="411.39,-141.65 417.91,-133.3 407.6,-135.76 411.39,-141.65"/>
</a>
</g>
</g>
<!-- Node20 -->
<g id="Node000020" class="node">
<title>Node20</title>
<g id="a_Node000020"><a xlink:title=" ">
<polygon fill="#e0e0e0" stroke="#999999" points="592.43,-20 549.43,-20 549.43,0 592.43,0 592.43,-20"/>
<text text-anchor="middle" x="570.93" y="-6.5" font-family="Helvetica,sans-Serif" font-size="10.00">vector</text>
</a>
</g>
</g>
<!-- Node16&#45;&gt;Node20 -->
<g id="edge19_Node000016_Node000020" class="edge">
<title>Node16&#45;&gt;Node20</title>
<g id="a_edge19_Node000016_Node000020"><a xlink:title=" ">
<path fill="none" stroke="#63b8ff" d="M355.48,-167.64C364.26,-153.59 382.67,-127.11 404.93,-112 446.44,-83.81 469.93,-103.46 511.93,-76 530.79,-63.67 547.55,-43.89 558.34,-29.39"/>
<polygon fill="#63b8ff" stroke="#63b8ff" points="560.95,-31.75 563.93,-21.58 555.26,-27.67 560.95,-31.75"/>
</a>
</g>
</g>
<!-- Node21 -->
<g id="Node000021" class="node">
<title>Node21</title>
<g id="a_Node000021"><a xlink:title=" ">
<polygon fill="#e0e0e0" stroke="#999999" points="521.8,-132 472.05,-132 472.05,-112 521.8,-112 521.8,-132"/>
<text text-anchor="middle" x="496.93" y="-118.5" font-family="Helvetica,sans-Serif" font-size="10.00">optional</text>
</a>
</g>
</g>
<!-- Node16&#45;&gt;Node21 -->
<g id="edge20_Node000016_Node000021" class="edge">
<title>Node16&#45;&gt;Node21</title>
<g id="a_edge20_Node000016_Node000021"><a xlink:title=" ">
<path fill="none" stroke="#63b8ff" d="M375.53,-167.59C399.14,-158.92 434.43,-145.96 460.88,-136.24"/>
<polygon fill="#63b8ff" stroke="#63b8ff" points="462.01,-139.55 470.19,-132.82 459.6,-132.98 462.01,-139.55"/>
</a>
</g>
</g>
<!-- Node22 -->
<g id="Node000022" class="node">
<title>Node22</title>
<g id="a_Node000022"><a xlink:href="_date_time_8h.html" target="_top" xlink:title="Defines classes and utilities for working with dates, times, and combined date&#45;time values.">
<polygon fill="white" stroke="#666666" points="281.43,-132 214.43,-132 214.43,-112 281.43,-112 281.43,-132"/>
<text text-anchor="middle" x="247.93" y="-118.5" font-family="Helvetica,sans-Serif" font-size="10.00">DateTime.h</text>
</a>
</g>
</g>
<!-- Node16&#45;&gt;Node22 -->
<g id="edge21_Node000016_Node000022" class="edge">
<title>Node16&#45;&gt;Node22</title>
<g id="a_edge21_Node000016_Node000022"><a xlink:title=" ">
<path fill="none" stroke="#63b8ff" d="M332.16,-167.59C316.61,-159.36 293.75,-147.26 275.76,-137.74"/>
<polygon fill="#63b8ff" stroke="#63b8ff" points="277.65,-134.77 267.17,-133.19 274.37,-140.96 277.65,-134.77"/>
</a>
</g>
</g>
<!-- Node23 -->
<g id="Node000023" class="node">
<title>Node23</title>
<g id="a_Node000023"><a xlink:href="_helper___functions_8h.html" target="_top" xlink:title="Provides utility functions and templates for common operations.">
<polygon fill="white" stroke="#666666" points="503.3,-76 402.55,-76 402.55,-56 503.3,-56 503.3,-76"/>
<text text-anchor="middle" x="452.93" y="-62.5" font-family="Helvetica,sans-Serif" font-size="10.00">Helper_Functions.h</text>
</a>
</g>
</g>
<!-- Node16&#45;&gt;Node23 -->
<g id="edge37_Node000016_Node000023" class="edge">
<title>Node16&#45;&gt;Node23</title>
<g id="a_edge37_Node000016_Node000023"><a xlink:title=" ">
<path fill="none" stroke="#63b8ff" d="M350.96,-167.57C352.9,-153.91 358.19,-128.47 371.93,-112 383.23,-98.45 399.71,-88.25 414.87,-81.02"/>
<polygon fill="#63b8ff" stroke="#63b8ff" points="415.97,-84.36 423.68,-77.09 413.12,-77.96 415.97,-84.36"/>
</a>
</g>
</g>
<!-- Node29 -->
<g id="Node000029" class="node">
<title>Node29</title>
<g id="a_Node000029"><a xlink:href="_data___helper___types_8h.html" target="_top" xlink:title="Defines utility classes for managing contact&#45;related data such as email, phone, and address.">
<polygon fill="white" stroke="#666666" points="131.18,-76 20.68,-76 20.68,-56 131.18,-56 131.18,-76"/>
<text text-anchor="middle" x="75.93" y="-62.5" font-family="Helvetica,sans-Serif" font-size="10.00">Data_Helper_Types.h</text>
</a>
</g>
</g>
<!-- Node16&#45;&gt;Node29 -->
<g id="edge35_Node000016_Node000029" class="edge">
<title>Node16&#45;&gt;Node29</title>
<g id="a_edge35_Node000016_Node000029"><a xlink:title=" ">
<path fill="none" stroke="#63b8ff" d="M322.13,-169.75C292.78,-161.76 245.4,-147.92 205.93,-132 168.9,-117.07 127.99,-95.77 102.14,-81.67"/>
<polygon fill="#63b8ff" stroke="#63b8ff" points="104.13,-78.78 93.68,-77.02 100.76,-84.91 104.13,-78.78"/>
</a>
</g>
</g>
<!-- Node22&#45;&gt;Node17 -->
<g id="edge33_Node000022_Node000017" class="edge">
<title>Node22&#45;&gt;Node17</title>
<g id="a_edge33_Node000022_Node000017"><a xlink:title=" ">
<path fill="none" stroke="#63b8ff" d="M269.96,-111.58C285.33,-104 305.28,-91.97 317.93,-76 328.17,-63.07 334.05,-45.22 337.29,-31.5"/>
<polygon fill="#63b8ff" stroke="#63b8ff" points="340.7,-32.3 339.28,-21.8 333.85,-30.9 340.7,-32.3"/>
</a>
</g>
</g>
<!-- Node22&#45;&gt;Node18 -->
<g id="edge34_Node000022_Node000018" class="edge">
<title>Node22&#45;&gt;Node18</title>
<g id="a_edge34_Node000022_Node000018"><a xlink:title=" ">
<path fill="none" stroke="#63b8ff" d="M231.27,-111.67C216.79,-103.21 195.59,-89.96 178.93,-76 161.77,-61.62 144.53,-42.75 132.78,-29.04"/>
<polygon fill="#63b8ff" stroke="#63b8ff" points="135.68,-27.05 126.56,-21.66 130.32,-31.56 135.68,-27.05"/>
</a>
</g>
</g>
<!-- Node22&#45;&gt;Node23 -->
<g id="edge22_Node000022_Node000023" class="edge">
<title>Node22&#45;&gt;Node23</title>
<g id="a_edge22_Node000022_Node000023"><a xlink:title=" ">
<path fill="none" stroke="#63b8ff" d="M281.78,-112.08C315.73,-103.14 368.27,-89.3 406.19,-79.31"/>
<polygon fill="#63b8ff" stroke="#63b8ff" points="406.71,-82.79 415.49,-76.86 404.93,-76.02 406.71,-82.79"/>
</a>
</g>
</g>
<!-- Node27 -->
<g id="Node000027" class="node">
<title>Node27</title>
<g id="a_Node000027"><a xlink:href="_date_time___exceptions_8h.html" target="_top" xlink:title="Defines error messages and the DateTimeError exception class for date and time operations.">
<polygon fill="white" stroke="#666666" points="308.43,-76 187.43,-76 187.43,-56 308.43,-56 308.43,-76"/>
<text text-anchor="middle" x="247.93" y="-62.5" font-family="Helvetica,sans-Serif" font-size="10.00">DateTime_Exceptions.h</text>
</a>
</g>
</g>
<!-- Node22&#45;&gt;Node27 -->
<g id="edge29_Node000022_Node000027" class="edge">
<title>Node22&#45;&gt;Node27</title>
<g id="a_edge29_Node000022_Node000027"><a xlink:title=" ">
<path fill="none" stroke="#63b8ff" d="M247.93,-111.59C247.93,-105.01 247.93,-95.96 247.93,-87.73"/>
<polygon fill="#63b8ff" stroke="#63b8ff" points="251.43,-87.81 247.93,-77.81 244.43,-87.81 251.43,-87.81"/>
</a>
</g>
</g>
<!-- Node23&#45;&gt;Node17 -->
<g id="edge23_Node000023_Node000017" class="edge">
<title>Node23&#45;&gt;Node17</title>
<g id="a_edge23_Node000023_Node000017"><a xlink:title=" ">
<path fill="none" stroke="#63b8ff" d="M433.42,-55.59C416.18,-47.28 390.77,-35.03 370.94,-25.47"/>
<polygon fill="#63b8ff" stroke="#63b8ff" points="372.48,-22.33 361.95,-21.14 369.44,-28.63 372.48,-22.33"/>
</a>
</g>
</g>
<!-- Node23&#45;&gt;Node18 -->
<g id="edge24_Node000023_Node000018" class="edge">
<title>Node23&#45;&gt;Node18</title>
<g id="a_edge24_Node000023_Node000018"><a xlink:title=" ">
<path fill="none" stroke="#63b8ff" d="M402.41,-56.86C332.3,-45.56 207.57,-25.45 149.41,-16.07"/>
<polygon fill="#63b8ff" stroke="#63b8ff" points="150.3,-12.67 139.87,-14.54 149.19,-19.58 150.3,-12.67"/>
</a>
</g>
</g>
<!-- Node23&#45;&gt;Node20 -->
<g id="edge25_Node000023_Node000020" class="edge">
<title>Node23&#45;&gt;Node20</title>
<g id="a_edge25_Node000023_Node000020"><a xlink:title=" ">
<path fill="none" stroke="#63b8ff" d="M473.48,-55.59C491.81,-47.21 518.91,-34.8 539.88,-25.21"/>
<polygon fill="#63b8ff" stroke="#63b8ff" points="541.2,-28.45 548.84,-21.11 538.29,-22.09 541.2,-28.45"/>
</a>
</g>
</g>
<!-- Node24 -->
<g id="Node000024" class="node">
<title>Node24</title>
<g id="a_Node000024"><a xlink:title=" ">
<polygon fill="#e0e0e0" stroke="#999999" points="446.8,-20 391.05,-20 391.05,0 446.8,0 446.8,-20"/>
<text text-anchor="middle" x="418.93" y="-6.5" font-family="Helvetica,sans-Serif" font-size="10.00">algorithm</text>
</a>
</g>
</g>
<!-- Node23&#45;&gt;Node24 -->
<g id="edge26_Node000023_Node000024" class="edge">
<title>Node23&#45;&gt;Node24</title>
<g id="a_edge26_Node000023_Node000024"><a xlink:title=" ">
<path fill="none" stroke="#63b8ff" d="M447,-55.59C442.57,-48.55 436.35,-38.67 430.89,-30"/>
<polygon fill="#63b8ff" stroke="#63b8ff" points="433.88,-28.18 425.59,-21.58 427.95,-31.91 433.88,-28.18"/>
</a>
</g>
</g>
<!-- Node25 -->
<g id="Node000025" class="node">
<title>Node25</title>
<g id="a_Node000025"><a xlink:title=" ">
<polygon fill="#e0e0e0" stroke="#999999" points="522.93,-20 464.93,-20 464.93,0 522.93,0 522.93,-20"/>
<text text-anchor="middle" x="493.93" y="-6.5" font-family="Helvetica,sans-Serif" font-size="10.00">functional</text>
</a>
</g>
</g>
<!-- Node23&#45;&gt;Node25 -->
<g id="edge27_Node000023_Node000025" class="edge">
<title>Node23&#45;&gt;Node25</title>
<g id="a_edge27_Node000023_Node000025"><a xlink:title=" ">
<path fill="none" stroke="#63b8ff" d="M460.07,-55.59C465.54,-48.39 473.25,-38.23 479.93,-29.43"/>
<polygon fill="#63b8ff" stroke="#63b8ff" points="482.69,-31.58 485.95,-21.5 477.12,-27.35 482.69,-31.58"/>
</a>
</g>
</g>
<!-- Node26 -->
<g id="Node000026" class="node">
<title>Node26</title>
<g id="a_Node000026"><a xlink:title=" ">
<polygon fill="#e0e0e0" stroke="#999999" points="681.3,-20 646.55,-20 646.55,0 681.3,0 681.3,-20"/>
<text text-anchor="middle" x="663.93" y="-6.5" font-family="Helvetica,sans-Serif" font-size="10.00">map</text>
</a>
</g>
</g>
<!-- Node23&#45;&gt;Node26 -->
<g id="edge28_Node000023_Node000026" class="edge">
<title>Node23&#45;&gt;Node26</title>
<g id="a_edge28_Node000023_Node000026"><a xlink:title=" ">
<path fill="none" stroke="#63b8ff" d="M489.68,-55.59C531.2,-44.97 597.87,-27.9 635.57,-18.26"/>
<polygon fill="#63b8ff" stroke="#63b8ff" points="635.99,-21.76 644.81,-15.89 634.26,-14.98 635.99,-21.76"/>
</a>
</g>
</g>
<!-- Node27&#45;&gt;Node17 -->
<g id="edge31_Node000027_Node000017" class="edge">
<title>Node27&#45;&gt;Node17</title>
<g id="a_edge31_Node000027_Node000017"><a xlink:title=" ">
<path fill="none" stroke="#63b8ff" d="M264.13,-55.59C278.18,-47.44 298.76,-35.48 315.08,-26"/>
<polygon fill="#63b8ff" stroke="#63b8ff" points="316.4,-29.29 323.29,-21.24 312.89,-23.23 316.4,-29.29"/>
</a>
</g>
</g>
<!-- Node27&#45;&gt;Node18 -->
<g id="edge30_Node000027_Node000018" class="edge">
<title>Node27&#45;&gt;Node18</title>
<g id="a_edge30_Node000027_Node000018"><a xlink:title=" ">
<path fill="none" stroke="#63b8ff" d="M225.28,-55.59C204.06,-46.78 172.16,-33.53 148.64,-23.76"/>
<polygon fill="#63b8ff" stroke="#63b8ff" points="150.15,-20.6 139.57,-19.99 147.47,-27.06 150.15,-20.6"/>
</a>
</g>
</g>
<!-- Node28 -->
<g id="Node000028" class="node">
<title>Node28</title>
<g id="a_Node000028"><a xlink:title=" ">
<polygon fill="#e0e0e0" stroke="#999999" points="276.93,-20 218.93,-20 218.93,0 276.93,0 276.93,-20"/>
<text text-anchor="middle" x="247.93" y="-6.5" font-family="Helvetica,sans-Serif" font-size="10.00">exception</text>
</a>
</g>
</g>
<!-- Node27&#45;&gt;Node28 -->
<g id="edge32_Node000027_Node000028" class="edge">
<title>Node27&#45;&gt;Node28</title>
<g id="a_edge32_Node000027_Node000028"><a xlink:title=" ">
<path fill="none" stroke="#63b8ff" d="M247.93,-55.59C247.93,-49.01 247.93,-39.96 247.93,-31.73"/>
<polygon fill="#63b8ff" stroke="#63b8ff" points="251.43,-31.81 247.93,-21.81 244.43,-31.81 251.43,-31.81"/>
</a>
</g>
</g>
<!-- Node29&#45;&gt;Node18 -->
<g id="edge36_Node000029_Node000018" class="edge">
<title>Node29&#45;&gt;Node18</title>
<g id="a_edge36_Node000029_Node000018"><a xlink:title=" ">
<path fill="none" stroke="#63b8ff" d="M83.24,-55.59C88.9,-48.32 96.91,-38.02 103.81,-29.15"/>
<polygon fill="#63b8ff" stroke="#63b8ff" points="106.39,-31.54 109.77,-21.49 100.86,-27.24 106.39,-31.54"/>
</a>
</g>
</g>
<!-- Node30&#45;&gt;Node16 -->
<g id="edge52_Node000030_Node000016" class="edge">
<title>Node30&#45;&gt;Node16</title>
<g id="a_edge52_Node000030_Node000016"><a xlink:title=" ">
<path fill="none" stroke="#63b8ff" d="M484.39,-279.62C459.33,-260.87 402.78,-218.55 371.59,-195.21"/>
<polygon fill="#63b8ff" stroke="#63b8ff" points="373.74,-192.45 363.64,-189.26 369.55,-198.06 373.74,-192.45"/>
</a>
</g>
</g>
<!-- Node30&#45;&gt;Node18 -->
<g id="edge41_Node000030_Node000018" class="edge">
<title>Node30&#45;&gt;Node18</title>
<g id="a_edge41_Node000030_Node000018"><a xlink:title=" ">
<path fill="none" stroke="#63b8ff" d="M463.61,-280.76C359.34,-254.14 43.72,-166.84 2.93,-76 -13.58,-39.23 46.77,-22.31 86.23,-15.32"/>
<polygon fill="#63b8ff" stroke="#63b8ff" points="86.66,-18.8 95.97,-13.74 85.53,-11.89 86.66,-18.8"/>
</a>
</g>
</g>
<!-- Node30&#45;&gt;Node20 -->
<g id="edge39_Node000030_Node000020" class="edge">
<title>Node30&#45;&gt;Node20</title>
<g id="a_edge39_Node000030_Node000020"><a xlink:title=" ">
<path fill="none" stroke="#63b8ff" d="M505.52,-279.82C513.47,-271.05 525.33,-257.23 533.93,-244 563.14,-199.01 567.77,-184.47 578.93,-132 585.98,-98.82 591.36,-89.48 585.93,-56 584.58,-47.68 581.91,-38.82 579.19,-31.18"/>
<polygon fill="#63b8ff" stroke="#63b8ff" points="582.46,-29.92 575.61,-21.84 575.92,-32.43 582.46,-29.92"/>
</a>
</g>
</g>
<!-- Node30&#45;&gt;Node22 -->
<g id="edge53_Node000030_Node000022" class="edge">
<title>Node30&#45;&gt;Node22</title>
<g id="a_edge53_Node000030_Node000022"><a xlink:title=" ">
<path fill="none" stroke="#63b8ff" d="M474.72,-279.53C438.86,-263.64 366.87,-229.28 313.93,-188 295.2,-173.4 276.12,-154.02 263.32,-140.23"/>
<polygon fill="#63b8ff" stroke="#63b8ff" points="266.23,-138.22 256.91,-133.2 261.06,-142.94 266.23,-138.22"/>
</a>
</g>
</g>
<!-- Node30&#45;&gt;Node26 -->
<g id="edge40_Node000030_Node000026" class="edge">
<title>Node30&#45;&gt;Node26</title>
<g id="a_edge40_Node000030_Node000026"><a xlink:title=" ">
<path fill="none" stroke="#63b8ff" d="M530.32,-286.19C588.41,-279.29 701.93,-255.94 701.93,-179 701.93,-179 701.93,-179 701.93,-121 701.93,-87.77 686.25,-51.85 675.03,-30.4"/>
<polygon fill="#63b8ff" stroke="#63b8ff" points="678.13,-28.76 670.26,-21.66 671.98,-32.12 678.13,-28.76"/>
</a>
</g>
</g>
<!-- Node31 -->
<g id="Node000031" class="node">
<title>Node31</title>
<g id="a_Node000031"><a xlink:title=" ">
<polygon fill="#e0e0e0" stroke="#999999" points="968.43,-244 919.43,-244 919.43,-224 968.43,-224 968.43,-244"/>
<text text-anchor="middle" x="943.93" y="-230.5" font-family="Helvetica,sans-Serif" font-size="10.00">fstream</text>
</a>
</g>
</g>
<!-- Node30&#45;&gt;Node31 -->
<g id="edge42_Node000030_Node000031" class="edge">
<title>Node30&#45;&gt;Node31</title>
<g id="a_edge42_Node000030_Node000031"><a xlink:title=" ">
<path fill="none" stroke="#63b8ff" d="M530.46,-287.16C599.53,-282.97 762.76,-271.11 908.27,-244.25"/>
<polygon fill="#63b8ff" stroke="#63b8ff" points="908.49,-247.77 917.67,-242.49 907.2,-240.89 908.49,-247.77"/>
</a>
</g>
</g>
<!-- Node32 -->
<g id="Node000032" class="node">
<title>Node32</title>
<g id="a_Node000032"><a xlink:title=" ">
<polygon fill="#e0e0e0" stroke="#999999" points="1037.55,-244 986.3,-244 986.3,-224 1037.55,-224 1037.55,-244"/>
<text text-anchor="middle" x="1011.93" y="-230.5" font-family="Helvetica,sans-Serif" font-size="10.00">memory</text>
</a>
</g>
</g>
<!-- Node30&#45;&gt;Node32 -->
<g id="edge43_Node000030_Node000032" class="edge">
<title>Node30&#45;&gt;Node32</title>
<g id="a_edge43_Node000030_Node000032"><a xlink:title=" ">
<path fill="none" stroke="#63b8ff" d="M530.42,-287.77C607.39,-284.55 802.89,-274.06 974.75,-244.31"/>
<polygon fill="#63b8ff" stroke="#63b8ff" points="975.3,-247.77 984.55,-242.59 974.09,-240.88 975.3,-247.77"/>
</a>
</g>
</g>
<!-- Node33 -->
<g id="Node000033" class="node">
<title>Node33</title>
<g id="a_Node000033"><a xlink:href="_lesson_8h.html" target="_top" xlink:title="Defines the Lesson class, which represents a lesson with its associated details.">
<polygon fill="white" stroke="#666666" points="524.8,-244 469.05,-244 469.05,-224 524.8,-224 524.8,-244"/>
<text text-anchor="middle" x="496.93" y="-230.5" font-family="Helvetica,sans-Serif" font-size="10.00">Lesson.h</text>
</a>
</g>
</g>
<!-- Node30&#45;&gt;Node33 -->
<g id="edge44_Node000030_Node000033" class="edge">
<title>Node30&#45;&gt;Node33</title>
<g id="a_edge44_Node000030_Node000033"><a xlink:title=" ">
<path fill="none" stroke="#63b8ff" d="M496.93,-279.59C496.93,-273.01 496.93,-263.96 496.93,-255.73"/>
<polygon fill="#63b8ff" stroke="#63b8ff" points="500.43,-255.81 496.93,-245.81 493.43,-255.81 500.43,-255.81"/>
</a>
</g>
</g>
<!-- Node33&#45;&gt;Node16 -->
<g id="edge50_Node000033_Node000016" class="edge">
<title>Node33&#45;&gt;Node16</title>
<g id="a_edge50_Node000033_Node000016"><a xlink:title=" ">
<path fill="none" stroke="#63b8ff" d="M471.32,-223.59C447.86,-214.97 412.86,-202.12 386.46,-192.42"/>
<polygon fill="#63b8ff" stroke="#63b8ff" points="387.75,-189.16 377.15,-189 385.33,-195.73 387.75,-189.16"/>
</a>
</g>
</g>
<!-- Node33&#45;&gt;Node19 -->
<g id="edge46_Node000033_Node000019" class="edge">
<title>Node33&#45;&gt;Node19</title>
<g id="a_edge46_Node000033_Node000019"><a xlink:title=" ">
<path fill="none" stroke="#63b8ff" d="M491.56,-223.62C481.23,-205.6 458.45,-165.81 444.82,-142.02"/>
<polygon fill="#63b8ff" stroke="#63b8ff" points="448.04,-140.61 440.04,-133.67 441.97,-144.09 448.04,-140.61"/>
</a>
</g>
</g>
<!-- Node33&#45;&gt;Node20 -->
<g id="edge45_Node000033_Node000020" class="edge">
<title>Node33&#45;&gt;Node20</title>
<g id="a_edge45_Node000033_Node000020"><a xlink:title=" ">
<path fill="none" stroke="#63b8ff" d="M510.85,-223.65C521.71,-215.56 536.22,-202.84 543.93,-188 570.62,-136.64 572.76,-66.35 571.95,-31.84"/>
<polygon fill="#63b8ff" stroke="#63b8ff" points="575.45,-31.86 571.6,-21.99 568.46,-32.11 575.45,-31.86"/>
</a>
</g>
</g>
<!-- Node33&#45;&gt;Node21 -->
<g id="edge48_Node000033_Node000021" class="edge">
<title>Node33&#45;&gt;Node21</title>
<g id="a_edge48_Node000033_Node000021"><a xlink:title=" ">
<path fill="none" stroke="#63b8ff" d="M496.93,-223.62C496.93,-206.01 496.93,-167.59 496.93,-143.65"/>
<polygon fill="#63b8ff" stroke="#63b8ff" points="500.43,-143.87 496.93,-133.87 493.43,-143.87 500.43,-143.87"/>
</a>
</g>
</g>
<!-- Node33&#45;&gt;Node22 -->
<g id="edge49_Node000033_Node000022" class="edge">
<title>Node33&#45;&gt;Node22</title>
<g id="a_edge49_Node000033_Node000022"><a xlink:title=" ">
<path fill="none" stroke="#63b8ff" d="M483.22,-223.55C462.92,-209.88 423.33,-184.4 386.93,-168 356.44,-154.26 320.49,-142.74 292.79,-134.79"/>
<polygon fill="#63b8ff" stroke="#63b8ff" points="293.87,-131.46 283.3,-132.13 291.98,-138.2 293.87,-131.46"/>
</a>
</g>
</g>
<!-- Node33&#45;&gt;Node23 -->
<g id="edge51_Node000033_Node000023" class="edge">
<title>Node33&#45;&gt;Node23</title>
<g id="a_edge51_Node000033_Node000023"><a xlink:title=" ">
<path fill="none" stroke="#63b8ff" d="M504.23,-223.59C519.72,-202.39 552.75,-149.79 530.93,-112 522.81,-97.95 508.45,-87.89 494.25,-80.9"/>
<polygon fill="#63b8ff" stroke="#63b8ff" points="495.96,-77.84 485.4,-76.96 493.11,-84.23 495.96,-77.84"/>
</a>
</g>
</g>
<!-- Node33&#45;&gt;Node26 -->
<g id="edge47_Node000033_Node000026" class="edge">
<title>Node33&#45;&gt;Node26</title>
<g id="a_edge47_Node000033_Node000026"><a xlink:title=" ">
<path fill="none" stroke="#63b8ff" d="M514.81,-223.55C528.86,-215.48 548.26,-202.84 561.93,-188 607.46,-138.53 641.49,-65.27 656.08,-30.58"/>
<polygon fill="#63b8ff" stroke="#63b8ff" points="659.14,-32.36 659.7,-21.78 652.66,-29.7 659.14,-32.36"/>
</a>
</g>
</g>
<!-- Node34&#45;&gt;Node16 -->
<g id="edge62_Node000034_Node000016" class="edge">
<title>Node34&#45;&gt;Node16</title>
<g id="a_edge62_Node000034_Node000016"><a xlink:title=" ">
<path fill="none" stroke="#63b8ff" d="M229.18,-279.62C251.59,-260.95 302.03,-218.92 330.11,-195.52"/>
<polygon fill="#63b8ff" stroke="#63b8ff" points="332.1,-198.41 337.54,-189.32 327.62,-193.04 332.1,-198.41"/>
</a>
</g>
</g>
<!-- Node35 -->
<g id="Node000035" class="node">
<title>Node35</title>
<g id="a_Node000035"><a xlink:title=" ">
<polygon fill="#e0e0e0" stroke="#999999" points="190.05,-244 135.8,-244 135.8,-224 190.05,-224 190.05,-244"/>
<text text-anchor="middle" x="162.93" y="-230.5" font-family="Helvetica,sans-Serif" font-size="10.00">QWidget</text>
</a>
</g>
</g>
<!-- Node34&#45;&gt;Node35 -->
<g id="edge55_Node000034_Node000035" class="edge">
<title>Node34&#45;&gt;Node35</title>
<g id="a_edge55_Node000034_Node000035"><a xlink:title=" ">
<path fill="none" stroke="#63b8ff" d="M208.35,-279.59C200.7,-272.08 189.77,-261.35 180.55,-252.3"/>
<polygon fill="#63b8ff" stroke="#63b8ff" points="183.06,-249.87 173.48,-245.36 178.16,-254.86 183.06,-249.87"/>
</a>
</g>
</g>
<!-- Node36 -->
<g id="Node000036" class="node">
<title>Node36</title>
<g id="a_Node000036"><a xlink:href="ui___child_check_box_8h.html" target="_top" xlink:title=" ">
<polygon fill="white" stroke="#666666" points="901.55,-244 796.3,-244 796.3,-224 901.55,-224 901.55,-244"/>
<text text-anchor="middle" x="848.93" y="-230.5" font-family="Helvetica,sans-Serif" font-size="10.00">ui_ChildCheckBox.h</text>
</a>
</g>
</g>
<!-- Node34&#45;&gt;Node36 -->
<g id="edge56_Node000034_Node000036" class="edge">
<title>Node34&#45;&gt;Node36</title>
<g id="a_edge56_Node000034_Node000036"><a xlink:title=" ">
<path fill="none" stroke="#63b8ff" d="M264.58,-285.01C375.87,-275.48 657.07,-251.42 784.45,-240.52"/>
<polygon fill="#63b8ff" stroke="#63b8ff" points="784.75,-244 794.42,-239.66 784.15,-237.03 784.75,-244"/>
</a>
</g>
</g>
<!-- Node36&#45;&gt;Node4 -->
<g id="edge57_Node000036_Node000004" class="edge">
<title>Node36&#45;&gt;Node4</title>
<g id="a_edge57_Node000036_Node000004"><a xlink:title=" ">
<path fill="none" stroke="#63b8ff" d="M859.55,-223.59C868.21,-215.93 880.66,-204.91 891.01,-195.75"/>
<polygon fill="#63b8ff" stroke="#63b8ff" points="893.12,-198.55 898.29,-189.3 888.48,-193.31 893.12,-198.55"/>
</a>
</g>
</g>
<!-- Node36&#45;&gt;Node5 -->
<g id="edge58_Node000036_Node000005" class="edge">
<title>Node36&#45;&gt;Node5</title>
<g id="a_edge58_Node000036_Node000005"><a xlink:title=" ">
<path fill="none" stroke="#63b8ff" d="M880.98,-223.59C911.13,-214.74 956.51,-201.43 989.83,-191.65"/>
<polygon fill="#63b8ff" stroke="#63b8ff" points="990.56,-195.08 999.17,-188.91 988.59,-188.36 990.56,-195.08"/>
</a>
</g>
</g>
<!-- Node36&#45;&gt;Node14 -->
<g id="edge60_Node000036_Node000014" class="edge">
<title>Node36&#45;&gt;Node14</title>
<g id="a_edge60_Node000036_Node000014"><a xlink:title=" ">
<path fill="none" stroke="#63b8ff" d="M902.03,-224.2C957.83,-214.96 1045.78,-200.39 1106.69,-190.3"/>
<polygon fill="#63b8ff" stroke="#63b8ff" points="1106.94,-193.81 1116.24,-188.72 1105.8,-186.9 1106.94,-193.81"/>
</a>
</g>
</g>
<!-- Node36&#45;&gt;Node15 -->
<g id="edge61_Node000036_Node000015" class="edge">
<title>Node36&#45;&gt;Node15</title>
<g id="a_edge61_Node000036_Node000015"><a xlink:title=" ">
<path fill="none" stroke="#63b8ff" d="M902.01,-225.16C905.02,-224.76 908.01,-224.37 910.93,-224 1056.3,-205.67 1096.02,-206.89 1244.36,-188.28"/>
<polygon fill="#63b8ff" stroke="#63b8ff" points="1244.72,-191.76 1254.2,-187.03 1243.84,-184.82 1244.72,-191.76"/>
</a>
</g>
</g>
<!-- Node37 -->
<g id="Node000037" class="node">
<title>Node37</title>
<g id="a_Node000037"><a xlink:title=" ">
<polygon fill="#e0e0e0" stroke="#999999" points="848.3,-188 729.55,-188 729.55,-168 848.3,-168 848.3,-188"/>
<text text-anchor="middle" x="788.93" y="-174.5" font-family="Helvetica,sans-Serif" font-size="10.00">QtWidgets/QCheckBox</text>
</a>
</g>
</g>
<!-- Node36&#45;&gt;Node37 -->
<g id="edge59_Node000036_Node000037" class="edge">
<title>Node36&#45;&gt;Node37</title>
<g id="a_edge59_Node000036_Node000037"><a xlink:title=" ">
<path fill="none" stroke="#63b8ff" d="M838.48,-223.59C829.96,-215.93 817.72,-204.91 807.53,-195.75"/>
<polygon fill="#63b8ff" stroke="#63b8ff" points="810.16,-193.4 800.38,-189.31 805.47,-198.6 810.16,-193.4"/>
</a>
</g>
</g>
</g>
</svg>
