<?xml version="1.0" encoding="UTF-8" standalone="no"?>
<!DOCTYPE svg PUBLIC "-//W3C//DTD SVG 1.1//EN"
 "http://www.w3.org/Graphics/SVG/1.1/DTD/svg11.dtd">
<!-- Generated by graphviz version 12.2.1 (20241206.2353)
 -->
<!-- Title: TullipApp/Person.h Pages: 1 -->
<svg width="631pt" height="196pt"
 viewBox="0.00 0.00 631.39 196.00" xmlns="http://www.w3.org/2000/svg" xmlns:xlink="http://www.w3.org/1999/xlink">
<g id="graph0" class="graph" transform="scale(1 1) rotate(0) translate(4 192)">
<title>TullipApp/Person.h</title>
<!-- Node1 -->
<g id="Node000001" class="node">
<title>Node1</title>
<g id="a_Node000001"><a xlink:title="Defines the Person class and its derived classes: Child, Parent, and Employee.">
<polygon fill="#999999" stroke="#666666" points="458.76,-188 360.26,-188 360.26,-168 458.76,-168 458.76,-188"/>
<text text-anchor="middle" x="409.51" y="-174.5" font-family="Helvetica,sans-Serif" font-size="10.00">TullipApp/Person.h</text>
</a>
</g>
</g>
<!-- Node2 -->
<g id="Node000002" class="node">
<title>Node2</title>
<g id="a_Node000002"><a xlink:title=" ">
<polygon fill="#e0e0e0" stroke="#999999" points="168.51,-20 128.51,-20 128.51,0 168.51,0 168.51,-20"/>
<text text-anchor="middle" x="148.51" y="-6.5" font-family="Helvetica,sans-Serif" font-size="10.00">string</text>
</a>
</g>
</g>
<!-- Node1&#45;&gt;Node2 -->
<g id="edge1_Node000001_Node000002" class="edge">
<title>Node1&#45;&gt;Node2</title>
<g id="a_edge1_Node000001_Node000002"><a xlink:title=" ">
<path fill="none" stroke="#63b8ff" d="M360.14,-172.2C262.21,-161.54 49.14,-132.28 6.51,-76 -24.18,-35.48 66.23,-19.45 116.84,-13.77"/>
<polygon fill="#63b8ff" stroke="#63b8ff" points="117.06,-17.26 126.65,-12.75 116.34,-10.3 117.06,-17.26"/>
</a>
</g>
</g>
<!-- Node3 -->
<g id="Node000003" class="node">
<title>Node3</title>
<g id="a_Node000003"><a xlink:title=" ">
<polygon fill="#e0e0e0" stroke="#999999" points="555.14,-132 515.89,-132 515.89,-112 555.14,-112 555.14,-132"/>
<text text-anchor="middle" x="535.51" y="-118.5" font-family="Helvetica,sans-Serif" font-size="10.00">utility</text>
</a>
</g>
</g>
<!-- Node1&#45;&gt;Node3 -->
<g id="edge2_Node000001_Node000003" class="edge">
<title>Node1&#45;&gt;Node3</title>
<g id="a_edge2_Node000001_Node000003"><a xlink:title=" ">
<path fill="none" stroke="#63b8ff" d="M431.46,-167.59C451.82,-158.87 482.31,-145.8 505.03,-136.06"/>
<polygon fill="#63b8ff" stroke="#63b8ff" points="506.27,-139.34 514.09,-132.18 503.52,-132.9 506.27,-139.34"/>
</a>
</g>
</g>
<!-- Node4 -->
<g id="Node000004" class="node">
<title>Node4</title>
<g id="a_Node000004"><a xlink:title=" ">
<polygon fill="#e0e0e0" stroke="#999999" points="580.01,-20 537.01,-20 537.01,0 580.01,0 580.01,-20"/>
<text text-anchor="middle" x="558.51" y="-6.5" font-family="Helvetica,sans-Serif" font-size="10.00">vector</text>
</a>
</g>
</g>
<!-- Node1&#45;&gt;Node4 -->
<g id="edge3_Node000001_Node000004" class="edge">
<title>Node1&#45;&gt;Node4</title>
<g id="a_edge3_Node000001_Node000004"><a xlink:title=" ">
<path fill="none" stroke="#63b8ff" d="M417.95,-167.6C442.02,-140.78 511.32,-63.57 542.72,-28.6"/>
<polygon fill="#63b8ff" stroke="#63b8ff" points="545.08,-31.2 549.16,-21.42 539.87,-26.53 545.08,-31.2"/>
</a>
</g>
</g>
<!-- Node5 -->
<g id="Node000005" class="node">
<title>Node5</title>
<g id="a_Node000005"><a xlink:title=" ">
<polygon fill="#e0e0e0" stroke="#999999" points="623.39,-132 573.64,-132 573.64,-112 623.39,-112 623.39,-132"/>
<text text-anchor="middle" x="598.51" y="-118.5" font-family="Helvetica,sans-Serif" font-size="10.00">optional</text>
</a>
</g>
</g>
<!-- Node1&#45;&gt;Node5 -->
<g id="edge4_Node000001_Node000005" class="edge">
<title>Node1&#45;&gt;Node5</title>
<g id="a_edge4_Node000001_Node000005"><a xlink:title=" ">
<path fill="none" stroke="#63b8ff" d="M442.43,-167.59C475.88,-158.04 527.56,-143.27 562.18,-133.38"/>
<polygon fill="#63b8ff" stroke="#63b8ff" points="563.11,-136.76 571.76,-130.64 561.19,-130.02 563.11,-136.76"/>
</a>
</g>
</g>
<!-- Node6 -->
<g id="Node000006" class="node">
<title>Node6</title>
<g id="a_Node000006"><a xlink:href="$_date_time_8h.html" xlink:title="Defines classes and utilities for working with dates, times, and combined date&#45;time values.">
<polygon fill="white" stroke="#666666" points="365.01,-132 298.01,-132 298.01,-112 365.01,-112 365.01,-132"/>
<text text-anchor="middle" x="331.51" y="-118.5" font-family="Helvetica,sans-Serif" font-size="10.00">DateTime.h</text>
</a>
</g>
</g>
<!-- Node1&#45;&gt;Node6 -->
<g id="edge5_Node000001_Node000006" class="edge">
<title>Node1&#45;&gt;Node6</title>
<g id="a_edge5_Node000001_Node000006"><a xlink:title=" ">
<path fill="none" stroke="#63b8ff" d="M395.93,-167.59C384.48,-159.67 367.85,-148.16 354.36,-138.82"/>
<polygon fill="#63b8ff" stroke="#63b8ff" points="356.66,-136.16 346.45,-133.34 352.68,-141.91 356.66,-136.16"/>
</a>
</g>
</g>
<!-- Node7 -->
<g id="Node000007" class="node">
<title>Node7</title>
<g id="a_Node000007"><a xlink:href="$_helper___functions_8h.html" xlink:title="Provides utility functions and templates for common operations.">
<polygon fill="white" stroke="#666666" points="459.89,-76 359.14,-76 359.14,-56 459.89,-56 459.89,-76"/>
<text text-anchor="middle" x="409.51" y="-62.5" font-family="Helvetica,sans-Serif" font-size="10.00">Helper_Functions.h</text>
</a>
</g>
</g>
<!-- Node1&#45;&gt;Node7 -->
<g id="edge21_Node000001_Node000007" class="edge">
<title>Node1&#45;&gt;Node7</title>
<g id="a_edge21_Node000001_Node000007"><a xlink:title=" ">
<path fill="none" stroke="#63b8ff" d="M409.51,-167.62C409.51,-150.01 409.51,-111.59 409.51,-87.65"/>
<polygon fill="#63b8ff" stroke="#63b8ff" points="413.01,-87.87 409.51,-77.87 406.01,-87.87 413.01,-87.87"/>
</a>
</g>
</g>
<!-- Node14 -->
<g id="Node000014" class="node">
<title>Node14</title>
<g id="a_Node000014"><a xlink:href="$_data___helper___types_8h.html" xlink:title="Defines utility classes for managing contact&#45;related data such as email, phone, and address.">
<polygon fill="white" stroke="#666666" points="125.76,-76 15.26,-76 15.26,-56 125.76,-56 125.76,-76"/>
<text text-anchor="middle" x="70.51" y="-62.5" font-family="Helvetica,sans-Serif" font-size="10.00">Data_Helper_Types.h</text>
</a>
</g>
</g>
<!-- Node1&#45;&gt;Node14 -->
<g id="edge19_Node000001_Node000014" class="edge">
<title>Node1&#45;&gt;Node14</title>
<g id="a_edge19_Node000001_Node000014"><a xlink:title=" ">
<path fill="none" stroke="#63b8ff" d="M380.32,-167.53C319.61,-147.83 179.71,-102.43 110.61,-80.01"/>
<polygon fill="#63b8ff" stroke="#63b8ff" points="111.79,-76.71 101.2,-76.96 109.63,-83.37 111.79,-76.71"/>
</a>
</g>
</g>
<!-- Node6&#45;&gt;Node2 -->
<g id="edge18_Node000006_Node000002" class="edge">
<title>Node6&#45;&gt;Node2</title>
<g id="a_edge18_Node000006_Node000002"><a xlink:title=" ">
<path fill="none" stroke="#63b8ff" d="M297.69,-119.92C262.5,-117.03 207.83,-107.37 173.51,-76 160.95,-64.52 154.64,-46.01 151.51,-31.67"/>
<polygon fill="#63b8ff" stroke="#63b8ff" points="154.97,-31.15 149.77,-21.92 148.08,-32.38 154.97,-31.15"/>
</a>
</g>
</g>
<!-- Node6&#45;&gt;Node7 -->
<g id="edge6_Node000006_Node000007" class="edge">
<title>Node6&#45;&gt;Node7</title>
<g id="a_edge6_Node000006_Node000007"><a xlink:title=" ">
<path fill="none" stroke="#63b8ff" d="M345.1,-111.59C356.55,-103.67 373.18,-92.16 386.67,-82.82"/>
<polygon fill="#63b8ff" stroke="#63b8ff" points="388.35,-85.91 394.58,-77.34 384.36,-80.16 388.35,-85.91"/>
</a>
</g>
</g>
<!-- Node8 -->
<g id="Node000008" class="node">
<title>Node8</title>
<g id="a_Node000008"><a xlink:title=" ">
<polygon fill="#e0e0e0" stroke="#999999" points="316.26,-20 262.76,-20 262.76,0 316.26,0 316.26,-20"/>
<text text-anchor="middle" x="289.51" y="-6.5" font-family="Helvetica,sans-Serif" font-size="10.00">iostream</text>
</a>
</g>
</g>
<!-- Node6&#45;&gt;Node8 -->
<g id="edge17_Node000006_Node000008" class="edge">
<title>Node6&#45;&gt;Node8</title>
<g id="a_edge17_Node000006_Node000008"><a xlink:title=" ">
<path fill="none" stroke="#63b8ff" d="M329.35,-111.56C326.27,-98.74 320.16,-75.23 312.51,-56 309.08,-47.36 304.54,-38.15 300.41,-30.34"/>
<polygon fill="#63b8ff" stroke="#63b8ff" points="303.58,-28.84 295.71,-21.74 297.43,-32.19 303.58,-28.84"/>
</a>
</g>
</g>
<!-- Node12 -->
<g id="Node000012" class="node">
<title>Node12</title>
<g id="a_Node000012"><a xlink:href="$_date_time___exceptions_8h.html" xlink:title="Defines error messages and the DateTimeError exception class for date and time operations.">
<polygon fill="white" stroke="#666666" points="303.01,-76 182.01,-76 182.01,-56 303.01,-56 303.01,-76"/>
<text text-anchor="middle" x="242.51" y="-62.5" font-family="Helvetica,sans-Serif" font-size="10.00">DateTime_Exceptions.h</text>
</a>
</g>
</g>
<!-- Node6&#45;&gt;Node12 -->
<g id="edge13_Node000006_Node000012" class="edge">
<title>Node6&#45;&gt;Node12</title>
<g id="a_edge13_Node000006_Node000012"><a xlink:title=" ">
<path fill="none" stroke="#63b8ff" d="M316.01,-111.59C302.69,-103.51 283.24,-91.71 267.69,-82.27"/>
<polygon fill="#63b8ff" stroke="#63b8ff" points="269.79,-79.46 259.43,-77.26 266.16,-85.44 269.79,-79.46"/>
</a>
</g>
</g>
<!-- Node7&#45;&gt;Node2 -->
<g id="edge8_Node000007_Node000002" class="edge">
<title>Node7&#45;&gt;Node2</title>
<g id="a_edge8_Node000007_Node000002"><a xlink:title=" ">
<path fill="none" stroke="#63b8ff" d="M358.93,-56.83C314.09,-49.22 246.67,-36.89 179.49,-20.28"/>
<polygon fill="#63b8ff" stroke="#63b8ff" points="180.73,-16.98 170.18,-17.95 179.03,-23.77 180.73,-16.98"/>
</a>
</g>
</g>
<!-- Node7&#45;&gt;Node4 -->
<g id="edge9_Node000007_Node000004" class="edge">
<title>Node7&#45;&gt;Node4</title>
<g id="a_edge9_Node000007_Node000004"><a xlink:title=" ">
<path fill="none" stroke="#63b8ff" d="M435.47,-55.59C460.68,-46.46 499.02,-32.56 526.19,-22.71"/>
<polygon fill="#63b8ff" stroke="#63b8ff" points="527.09,-26.11 535.3,-19.41 524.71,-19.53 527.09,-26.11"/>
</a>
</g>
</g>
<!-- Node7&#45;&gt;Node8 -->
<g id="edge7_Node000007_Node000008" class="edge">
<title>Node7&#45;&gt;Node8</title>
<g id="a_edge7_Node000007_Node000008"><a xlink:title=" ">
<path fill="none" stroke="#63b8ff" d="M388.61,-55.59C369.88,-47.17 342.16,-34.69 320.79,-25.07"/>
<polygon fill="#63b8ff" stroke="#63b8ff" points="322.51,-22.01 311.96,-21.1 319.64,-28.4 322.51,-22.01"/>
</a>
</g>
</g>
<!-- Node9 -->
<g id="Node000009" class="node">
<title>Node9</title>
<g id="a_Node000009"><a xlink:title=" ">
<polygon fill="#e0e0e0" stroke="#999999" points="442.39,-20 386.64,-20 386.64,0 442.39,0 442.39,-20"/>
<text text-anchor="middle" x="414.51" y="-6.5" font-family="Helvetica,sans-Serif" font-size="10.00">algorithm</text>
</a>
</g>
</g>
<!-- Node7&#45;&gt;Node9 -->
<g id="edge10_Node000007_Node000009" class="edge">
<title>Node7&#45;&gt;Node9</title>
<g id="a_edge10_Node000007_Node000009"><a xlink:title=" ">
<path fill="none" stroke="#63b8ff" d="M410.38,-55.59C410.99,-49.01 411.83,-39.96 412.59,-31.73"/>
<polygon fill="#63b8ff" stroke="#63b8ff" points="416.07,-32.09 413.51,-21.81 409.1,-31.44 416.07,-32.09"/>
</a>
</g>
</g>
<!-- Node10 -->
<g id="Node000010" class="node">
<title>Node10</title>
<g id="a_Node000010"><a xlink:title=" ">
<polygon fill="#e0e0e0" stroke="#999999" points="518.51,-20 460.51,-20 460.51,0 518.51,0 518.51,-20"/>
<text text-anchor="middle" x="489.51" y="-6.5" font-family="Helvetica,sans-Serif" font-size="10.00">functional</text>
</a>
</g>
</g>
<!-- Node7&#45;&gt;Node10 -->
<g id="edge11_Node000007_Node000010" class="edge">
<title>Node7&#45;&gt;Node10</title>
<g id="a_edge11_Node000007_Node000010"><a xlink:title=" ">
<path fill="none" stroke="#63b8ff" d="M423.45,-55.59C435.19,-47.67 452.24,-36.16 466.08,-26.82"/>
<polygon fill="#63b8ff" stroke="#63b8ff" points="467.88,-29.82 474.21,-21.33 463.97,-24.02 467.88,-29.82"/>
</a>
</g>
</g>
<!-- Node11 -->
<g id="Node000011" class="node">
<title>Node11</title>
<g id="a_Node000011"><a xlink:title=" ">
<polygon fill="#e0e0e0" stroke="#999999" points="368.89,-20 334.14,-20 334.14,0 368.89,0 368.89,-20"/>
<text text-anchor="middle" x="351.51" y="-6.5" font-family="Helvetica,sans-Serif" font-size="10.00">map</text>
</a>
</g>
</g>
<!-- Node7&#45;&gt;Node11 -->
<g id="edge12_Node000007_Node000011" class="edge">
<title>Node7&#45;&gt;Node11</title>
<g id="a_edge12_Node000007_Node000011"><a xlink:title=" ">
<path fill="none" stroke="#63b8ff" d="M399.41,-55.59C391.26,-48.01 379.58,-37.13 369.8,-28.02"/>
<polygon fill="#63b8ff" stroke="#63b8ff" points="372.31,-25.58 362.61,-21.33 367.54,-30.71 372.31,-25.58"/>
</a>
</g>
</g>
<!-- Node12&#45;&gt;Node2 -->
<g id="edge14_Node000012_Node000002" class="edge">
<title>Node12&#45;&gt;Node2</title>
<g id="a_edge14_Node000012_Node000002"><a xlink:title=" ">
<path fill="none" stroke="#63b8ff" d="M226.14,-55.59C211.94,-47.44 191.13,-35.48 174.63,-26"/>
<polygon fill="#63b8ff" stroke="#63b8ff" points="176.74,-23.18 166.33,-21.23 173.25,-29.25 176.74,-23.18"/>
</a>
</g>
</g>
<!-- Node12&#45;&gt;Node8 -->
<g id="edge15_Node000012_Node000008" class="edge">
<title>Node12&#45;&gt;Node8</title>
<g id="a_edge15_Node000012_Node000008"><a xlink:title=" ">
<path fill="none" stroke="#63b8ff" d="M250.7,-55.59C257.1,-48.24 266.19,-37.8 273.96,-28.87"/>
<polygon fill="#63b8ff" stroke="#63b8ff" points="276.5,-31.28 280.43,-21.44 271.22,-26.69 276.5,-31.28"/>
</a>
</g>
</g>
<!-- Node13 -->
<g id="Node000013" class="node">
<title>Node13</title>
<g id="a_Node000013"><a xlink:title=" ">
<polygon fill="#e0e0e0" stroke="#999999" points="244.51,-20 186.51,-20 186.51,0 244.51,0 244.51,-20"/>
<text text-anchor="middle" x="215.51" y="-6.5" font-family="Helvetica,sans-Serif" font-size="10.00">exception</text>
</a>
</g>
</g>
<!-- Node12&#45;&gt;Node13 -->
<g id="edge16_Node000012_Node000013" class="edge">
<title>Node12&#45;&gt;Node13</title>
<g id="a_edge16_Node000012_Node000013"><a xlink:title=" ">
<path fill="none" stroke="#63b8ff" d="M237.81,-55.59C234.36,-48.7 229.56,-39.1 225.3,-30.57"/>
<polygon fill="#63b8ff" stroke="#63b8ff" points="228.44,-29.03 220.84,-21.65 222.18,-32.16 228.44,-29.03"/>
</a>
</g>
</g>
<!-- Node14&#45;&gt;Node2 -->
<g id="edge20_Node000014_Node000002" class="edge">
<title>Node14&#45;&gt;Node2</title>
<g id="a_edge20_Node000014_Node000002"><a xlink:title=" ">
<path fill="none" stroke="#63b8ff" d="M84.1,-55.59C95.55,-47.67 112.18,-36.16 125.67,-26.82"/>
<polygon fill="#63b8ff" stroke="#63b8ff" points="127.35,-29.91 133.58,-21.34 123.36,-24.16 127.35,-29.91"/>
</a>
</g>
</g>
</g>
</svg>
