<?xml version="1.0" encoding="UTF-8" standalone="no"?>
<!DOCTYPE svg PUBLIC "-//W3C//DTD SVG 1.1//EN"
 "http://www.w3.org/Graphics/SVG/1.1/DTD/svg11.dtd">
<!-- Generated by graphviz version 12.2.1 (20241206.2353)
 -->
<!-- Title: TullipApp/PersonLabel.h Pages: 1 -->
<svg width="1233pt" height="252pt"
 viewBox="0.00 0.00 1232.63 252.00" xmlns="http://www.w3.org/2000/svg" xmlns:xlink="http://www.w3.org/1999/xlink">
<g id="graph0" class="graph" transform="scale(1 1) rotate(0) translate(4 248)">
<title>TullipApp/PersonLabel.h</title>
<!-- Node1 -->
<g id="Node000001" class="node">
<title>Node1</title>
<g id="a_Node000001"><a xlink:title=" ">
<polygon fill="#999999" stroke="#666666" points="376.26,-244 254.51,-244 254.51,-224 376.26,-224 376.26,-244"/>
<text text-anchor="middle" x="315.38" y="-230.5" font-family="Helvetica,sans-Serif" font-size="10.00">TullipApp/PersonLabel.h</text>
</a>
</g>
</g>
<!-- Node2 -->
<g id="Node000002" class="node">
<title>Node2</title>
<g id="a_Node000002"><a xlink:title=" ">
<polygon fill="#e0e0e0" stroke="#999999" points="143.51,-76 89.26,-76 89.26,-56 143.51,-56 143.51,-76"/>
<text text-anchor="middle" x="116.38" y="-62.5" font-family="Helvetica,sans-Serif" font-size="10.00">QWidget</text>
</a>
</g>
</g>
<!-- Node1&#45;&gt;Node2 -->
<g id="edge1_Node000001_Node000002" class="edge">
<title>Node1&#45;&gt;Node2</title>
<g id="a_edge1_Node000001_Node000002"><a xlink:title=" ">
<path fill="none" stroke="#63b8ff" d="M254.03,-232.88C181.11,-229.03 62.16,-210.22 5.38,-132 -16.58,-101.75 37.62,-83.27 77.79,-74.1"/>
<polygon fill="#63b8ff" stroke="#63b8ff" points="78.4,-77.55 87.44,-72.03 76.93,-70.71 78.4,-77.55"/>
</a>
</g>
</g>
<!-- Node3 -->
<g id="Node000003" class="node">
<title>Node3</title>
<g id="a_Node000003"><a xlink:href="ui___person_label_8h.html" target="_top" xlink:title=" ">
<polygon fill="white" stroke="#666666" points="360.88,-188 269.88,-188 269.88,-168 360.88,-168 360.88,-188"/>
<text text-anchor="middle" x="315.38" y="-174.5" font-family="Helvetica,sans-Serif" font-size="10.00">ui_PersonLabel.h</text>
</a>
</g>
</g>
<!-- Node1&#45;&gt;Node3 -->
<g id="edge2_Node000001_Node000003" class="edge">
<title>Node1&#45;&gt;Node3</title>
<g id="a_edge2_Node000001_Node000003"><a xlink:title=" ">
<path fill="none" stroke="#63b8ff" d="M315.38,-223.59C315.38,-217.01 315.38,-207.96 315.38,-199.73"/>
<polygon fill="#63b8ff" stroke="#63b8ff" points="318.88,-199.81 315.38,-189.81 311.88,-199.81 318.88,-199.81"/>
</a>
</g>
</g>
<!-- Node11 -->
<g id="Node000011" class="node">
<title>Node11</title>
<g id="a_Node000011"><a xlink:href="_person_8h.html" target="_top" xlink:title="Defines the Person class and its derived classes: Child, Parent, and Employee.">
<polygon fill="white" stroke="#666666" points="806.88,-188 751.88,-188 751.88,-168 806.88,-168 806.88,-188"/>
<text text-anchor="middle" x="779.38" y="-174.5" font-family="Helvetica,sans-Serif" font-size="10.00">Person.h</text>
</a>
</g>
</g>
<!-- Node1&#45;&gt;Node11 -->
<g id="edge11_Node000001_Node000011" class="edge">
<title>Node1&#45;&gt;Node11</title>
<g id="a_edge11_Node000001_Node000011"><a xlink:title=" ">
<path fill="none" stroke="#63b8ff" d="M376.52,-225.88C473.29,-214.62 659.06,-193 740.03,-183.58"/>
<polygon fill="#63b8ff" stroke="#63b8ff" points="740.39,-187.06 749.92,-182.43 739.58,-180.11 740.39,-187.06"/>
</a>
</g>
</g>
<!-- Node4 -->
<g id="Node000004" class="node">
<title>Node4</title>
<g id="a_Node000004"><a xlink:title=" ">
<polygon fill="#e0e0e0" stroke="#999999" points="462.38,-132 374.38,-132 374.38,-112 462.38,-112 462.38,-132"/>
<text text-anchor="middle" x="418.38" y="-118.5" font-family="Helvetica,sans-Serif" font-size="10.00">QtCore/QVariant</text>
</a>
</g>
</g>
<!-- Node3&#45;&gt;Node4 -->
<g id="edge3_Node000003_Node000004" class="edge">
<title>Node3&#45;&gt;Node4</title>
<g id="a_edge3_Node000003_Node000004"><a xlink:title=" ">
<path fill="none" stroke="#63b8ff" d="M333.32,-167.59C349.03,-159.36 372.11,-147.26 390.27,-137.74"/>
<polygon fill="#63b8ff" stroke="#63b8ff" points="391.73,-140.93 398.96,-133.18 388.48,-134.73 391.73,-140.93"/>
</a>
</g>
</g>
<!-- Node5 -->
<g id="Node000005" class="node">
<title>Node5</title>
<g id="a_Node000005"><a xlink:title=" ">
<polygon fill="#e0e0e0" stroke="#999999" points="601.88,-132 480.88,-132 480.88,-112 601.88,-112 601.88,-132"/>
<text text-anchor="middle" x="541.38" y="-118.5" font-family="Helvetica,sans-Serif" font-size="10.00">QtWidgets/QApplication</text>
</a>
</g>
</g>
<!-- Node3&#45;&gt;Node5 -->
<g id="edge4_Node000003_Node000005" class="edge">
<title>Node3&#45;&gt;Node5</title>
<g id="a_edge4_Node000003_Node000005"><a xlink:title=" ">
<path fill="none" stroke="#63b8ff" d="M355.01,-167.53C392.73,-158.52 449.67,-144.91 490.69,-135.11"/>
<polygon fill="#63b8ff" stroke="#63b8ff" points="491.42,-138.54 500.33,-132.81 489.79,-131.73 491.42,-138.54"/>
</a>
</g>
</g>
<!-- Node6 -->
<g id="Node000006" class="node">
<title>Node6</title>
<g id="a_Node000006"><a xlink:title=" ">
<polygon fill="#e0e0e0" stroke="#999999" points="134.51,-132 14.26,-132 14.26,-112 134.51,-112 134.51,-132"/>
<text text-anchor="middle" x="74.38" y="-118.5" font-family="Helvetica,sans-Serif" font-size="10.00">QtWidgets/QGridLayout</text>
</a>
</g>
</g>
<!-- Node3&#45;&gt;Node6 -->
<g id="edge5_Node000003_Node000006" class="edge">
<title>Node3&#45;&gt;Node6</title>
<g id="a_edge5_Node000003_Node000006"><a xlink:title=" ">
<path fill="none" stroke="#63b8ff" d="M273.13,-167.53C232.64,-158.46 171.4,-144.74 127.6,-134.93"/>
<polygon fill="#63b8ff" stroke="#63b8ff" points="128.59,-131.56 118.06,-132.79 127.06,-138.39 128.59,-131.56"/>
</a>
</g>
</g>
<!-- Node7 -->
<g id="Node000007" class="node">
<title>Node7</title>
<g id="a_Node000007"><a xlink:title=" ">
<polygon fill="#e0e0e0" stroke="#999999" points="256.26,-132 152.51,-132 152.51,-112 256.26,-112 256.26,-132"/>
<text text-anchor="middle" x="204.38" y="-118.5" font-family="Helvetica,sans-Serif" font-size="10.00">QtWidgets/QWidget</text>
</a>
</g>
</g>
<!-- Node3&#45;&gt;Node7 -->
<g id="edge6_Node000003_Node000007" class="edge">
<title>Node3&#45;&gt;Node7</title>
<g id="a_edge6_Node000003_Node000007"><a xlink:title=" ">
<path fill="none" stroke="#63b8ff" d="M296.05,-167.59C278.96,-159.28 253.78,-147.03 234.13,-137.47"/>
<polygon fill="#63b8ff" stroke="#63b8ff" points="235.75,-134.37 225.23,-133.14 232.69,-140.66 235.75,-134.37"/>
</a>
</g>
</g>
<!-- Node8 -->
<g id="Node000008" class="node">
<title>Node8</title>
<g id="a_Node000008"><a xlink:href="clickablelabel_8h.html" target="_top" xlink:title="ClickableLabel class definition.">
<polygon fill="white" stroke="#666666" points="356.76,-132 274.01,-132 274.01,-112 356.76,-112 356.76,-132"/>
<text text-anchor="middle" x="315.38" y="-118.5" font-family="Helvetica,sans-Serif" font-size="10.00">clickablelabel.h</text>
</a>
</g>
</g>
<!-- Node3&#45;&gt;Node8 -->
<g id="edge7_Node000003_Node000008" class="edge">
<title>Node3&#45;&gt;Node8</title>
<g id="a_edge7_Node000003_Node000008"><a xlink:title=" ">
<path fill="none" stroke="#63b8ff" d="M315.38,-167.59C315.38,-161.01 315.38,-151.96 315.38,-143.73"/>
<polygon fill="#63b8ff" stroke="#63b8ff" points="318.88,-143.81 315.38,-133.81 311.88,-143.81 318.88,-143.81"/>
</a>
</g>
</g>
<!-- Node8&#45;&gt;Node2 -->
<g id="edge9_Node000008_Node000002" class="edge">
<title>Node8&#45;&gt;Node2</title>
<g id="a_edge9_Node000008_Node000002"><a xlink:title=" ">
<path fill="none" stroke="#63b8ff" d="M280.72,-111.59C245.5,-102.04 191.08,-87.27 154.62,-77.38"/>
<polygon fill="#63b8ff" stroke="#63b8ff" points="155.96,-74.11 145.39,-74.87 154.12,-80.87 155.96,-74.11"/>
</a>
</g>
</g>
<!-- Node9 -->
<g id="Node000009" class="node">
<title>Node9</title>
<g id="a_Node000009"><a xlink:title=" ">
<polygon fill="#e0e0e0" stroke="#999999" points="297.76,-76 251.01,-76 251.01,-56 297.76,-56 297.76,-76"/>
<text text-anchor="middle" x="274.38" y="-62.5" font-family="Helvetica,sans-Serif" font-size="10.00">QLabel</text>
</a>
</g>
</g>
<!-- Node8&#45;&gt;Node9 -->
<g id="edge8_Node000008_Node000009" class="edge">
<title>Node8&#45;&gt;Node9</title>
<g id="a_edge8_Node000008_Node000009"><a xlink:title=" ">
<path fill="none" stroke="#63b8ff" d="M308.24,-111.59C302.77,-104.39 295.06,-94.23 288.38,-85.43"/>
<polygon fill="#63b8ff" stroke="#63b8ff" points="291.19,-83.35 282.36,-77.5 285.62,-87.58 291.19,-83.35"/>
</a>
</g>
</g>
<!-- Node10 -->
<g id="Node000010" class="node">
<title>Node10</title>
<g id="a_Node000010"><a xlink:title=" ">
<polygon fill="#e0e0e0" stroke="#999999" points="394.51,-76 316.26,-76 316.26,-56 394.51,-56 394.51,-76"/>
<text text-anchor="middle" x="355.38" y="-62.5" font-family="Helvetica,sans-Serif" font-size="10.00">QMouseEvent</text>
</a>
</g>
</g>
<!-- Node8&#45;&gt;Node10 -->
<g id="edge10_Node000008_Node000010" class="edge">
<title>Node8&#45;&gt;Node10</title>
<g id="a_edge10_Node000008_Node000010"><a xlink:title=" ">
<path fill="none" stroke="#63b8ff" d="M322.35,-111.59C327.68,-104.39 335.21,-94.23 341.73,-85.43"/>
<polygon fill="#63b8ff" stroke="#63b8ff" points="344.45,-87.63 347.59,-77.51 338.83,-83.47 344.45,-87.63"/>
</a>
</g>
</g>
<!-- Node12 -->
<g id="Node000012" class="node">
<title>Node12</title>
<g id="a_Node000012"><a xlink:title=" ">
<polygon fill="#e0e0e0" stroke="#999999" points="916.13,-20 862.63,-20 862.63,0 916.13,0 916.13,-20"/>
<text text-anchor="middle" x="889.38" y="-6.5" font-family="Helvetica,sans-Serif" font-size="10.00">iostream</text>
</a>
</g>
</g>
<!-- Node11&#45;&gt;Node12 -->
<g id="edge12_Node000011_Node000012" class="edge">
<title>Node11&#45;&gt;Node12</title>
<g id="a_edge12_Node000011_Node000012"><a xlink:title=" ">
<path fill="none" stroke="#63b8ff" d="M786.92,-167.52C793.98,-158.53 804.71,-144.57 813.38,-132 837.69,-96.76 863.76,-54.05 878.17,-29.95"/>
<polygon fill="#63b8ff" stroke="#63b8ff" points="881.05,-31.97 883.15,-21.58 875.03,-28.39 881.05,-31.97"/>
</a>
</g>
</g>
<!-- Node13 -->
<g id="Node000013" class="node">
<title>Node13</title>
<g id="a_Node000013"><a xlink:title=" ">
<polygon fill="#e0e0e0" stroke="#999999" points="1068.38,-20 1028.38,-20 1028.38,0 1068.38,0 1068.38,-20"/>
<text text-anchor="middle" x="1048.38" y="-6.5" font-family="Helvetica,sans-Serif" font-size="10.00">string</text>
</a>
</g>
</g>
<!-- Node11&#45;&gt;Node13 -->
<g id="edge13_Node000011_Node000013" class="edge">
<title>Node11&#45;&gt;Node13</title>
<g id="a_edge13_Node000011_Node000013"><a xlink:title=" ">
<path fill="none" stroke="#63b8ff" d="M807.09,-176.76C864.93,-174.54 997.42,-160.08 1049.38,-76 1057.56,-62.77 1056.64,-44.95 1054.05,-31.31"/>
<polygon fill="#63b8ff" stroke="#63b8ff" points="1057.48,-30.61 1051.77,-21.69 1050.67,-32.23 1057.48,-30.61"/>
</a>
</g>
</g>
<!-- Node14 -->
<g id="Node000014" class="node">
<title>Node14</title>
<g id="a_Node000014"><a xlink:title=" ">
<polygon fill="#e0e0e0" stroke="#999999" points="736.01,-132 696.76,-132 696.76,-112 736.01,-112 736.01,-132"/>
<text text-anchor="middle" x="716.38" y="-118.5" font-family="Helvetica,sans-Serif" font-size="10.00">utility</text>
</a>
</g>
</g>
<!-- Node11&#45;&gt;Node14 -->
<g id="edge14_Node000011_Node000014" class="edge">
<title>Node11&#45;&gt;Node14</title>
<g id="a_edge14_Node000011_Node000014"><a xlink:title=" ">
<path fill="none" stroke="#63b8ff" d="M768.41,-167.59C759.46,-159.93 746.61,-148.91 735.92,-139.75"/>
<polygon fill="#63b8ff" stroke="#63b8ff" points="738.25,-137.13 728.38,-133.28 733.69,-142.45 738.25,-137.13"/>
</a>
</g>
</g>
<!-- Node15 -->
<g id="Node000015" class="node">
<title>Node15</title>
<g id="a_Node000015"><a xlink:title=" ">
<polygon fill="#e0e0e0" stroke="#999999" points="641.88,-20 598.88,-20 598.88,0 641.88,0 641.88,-20"/>
<text text-anchor="middle" x="620.38" y="-6.5" font-family="Helvetica,sans-Serif" font-size="10.00">vector</text>
</a>
</g>
</g>
<!-- Node11&#45;&gt;Node15 -->
<g id="edge15_Node000011_Node000015" class="edge">
<title>Node11&#45;&gt;Node15</title>
<g id="a_edge15_Node000011_Node000015"><a xlink:title=" ">
<path fill="none" stroke="#63b8ff" d="M751.67,-169.96C730.02,-163.27 700.33,-151.29 680.38,-132 650.99,-103.58 633.8,-57.73 625.82,-31.39"/>
<polygon fill="#63b8ff" stroke="#63b8ff" points="629.24,-30.6 623.13,-21.94 622.51,-32.52 629.24,-30.6"/>
</a>
</g>
</g>
<!-- Node16 -->
<g id="Node000016" class="node">
<title>Node16</title>
<g id="a_Node000016"><a xlink:title=" ">
<polygon fill="#e0e0e0" stroke="#999999" points="804.26,-132 754.51,-132 754.51,-112 804.26,-112 804.26,-132"/>
<text text-anchor="middle" x="779.38" y="-118.5" font-family="Helvetica,sans-Serif" font-size="10.00">optional</text>
</a>
</g>
</g>
<!-- Node11&#45;&gt;Node16 -->
<g id="edge16_Node000011_Node000016" class="edge">
<title>Node11&#45;&gt;Node16</title>
<g id="a_edge16_Node000011_Node000016"><a xlink:title=" ">
<path fill="none" stroke="#63b8ff" d="M779.38,-167.59C779.38,-161.01 779.38,-151.96 779.38,-143.73"/>
<polygon fill="#63b8ff" stroke="#63b8ff" points="782.88,-143.81 779.38,-133.81 775.88,-143.81 782.88,-143.81"/>
</a>
</g>
</g>
<!-- Node17 -->
<g id="Node000017" class="node">
<title>Node17</title>
<g id="a_Node000017"><a xlink:href="_date_time_8h.html" target="_top" xlink:title="Defines classes and utilities for working with dates, times, and combined date&#45;time values.">
<polygon fill="white" stroke="#666666" points="927.88,-132 860.88,-132 860.88,-112 927.88,-112 927.88,-132"/>
<text text-anchor="middle" x="894.38" y="-118.5" font-family="Helvetica,sans-Serif" font-size="10.00">DateTime.h</text>
</a>
</g>
</g>
<!-- Node11&#45;&gt;Node17 -->
<g id="edge17_Node000011_Node000017" class="edge">
<title>Node11&#45;&gt;Node17</title>
<g id="a_edge17_Node000011_Node000017"><a xlink:title=" ">
<path fill="none" stroke="#63b8ff" d="M799.41,-167.59C817.2,-159.24 843.45,-146.92 863.85,-137.34"/>
<polygon fill="#63b8ff" stroke="#63b8ff" points="865.26,-140.54 872.82,-133.12 862.28,-134.21 865.26,-140.54"/>
</a>
</g>
</g>
<!-- Node18 -->
<g id="Node000018" class="node">
<title>Node18</title>
<g id="a_Node000018"><a xlink:href="_helper___functions_8h.html" target="_top" xlink:title="Provides utility functions and templates for common operations.">
<polygon fill="white" stroke="#666666" points="795.76,-76 695.01,-76 695.01,-56 795.76,-56 795.76,-76"/>
<text text-anchor="middle" x="745.38" y="-62.5" font-family="Helvetica,sans-Serif" font-size="10.00">Helper_Functions.h</text>
</a>
</g>
</g>
<!-- Node11&#45;&gt;Node18 -->
<g id="edge33_Node000011_Node000018" class="edge">
<title>Node11&#45;&gt;Node18</title>
<g id="a_edge33_Node000011_Node000018"><a xlink:title=" ">
<path fill="none" stroke="#63b8ff" d="M751.51,-171.65C729.89,-165.88 701.31,-154.32 687.38,-132 675.67,-113.23 696.28,-94.69 716.1,-82.24"/>
<polygon fill="#63b8ff" stroke="#63b8ff" points="717.76,-85.33 724.61,-77.25 714.21,-79.29 717.76,-85.33"/>
</a>
</g>
</g>
<!-- Node24 -->
<g id="Node000024" class="node">
<title>Node24</title>
<g id="a_Node000024"><a xlink:href="_data___helper___types_8h.html" target="_top" xlink:title="Defines utility classes for managing contact&#45;related data such as email, phone, and address.">
<polygon fill="white" stroke="#666666" points="1224.63,-76 1114.13,-76 1114.13,-56 1224.63,-56 1224.63,-76"/>
<text text-anchor="middle" x="1169.38" y="-62.5" font-family="Helvetica,sans-Serif" font-size="10.00">Data_Helper_Types.h</text>
</a>
</g>
</g>
<!-- Node11&#45;&gt;Node24 -->
<g id="edge31_Node000011_Node000024" class="edge">
<title>Node11&#45;&gt;Node24</title>
<g id="a_edge31_Node000011_Node000024"><a xlink:title=" ">
<path fill="none" stroke="#63b8ff" d="M807.33,-175.26C875.52,-170.66 1048.63,-156.83 1100.38,-132 1122.99,-121.15 1143.13,-100.19 1155.73,-85"/>
<polygon fill="#63b8ff" stroke="#63b8ff" points="1158.12,-87.61 1161.61,-77.61 1152.65,-83.25 1158.12,-87.61"/>
</a>
</g>
</g>
<!-- Node17&#45;&gt;Node12 -->
<g id="edge29_Node000017_Node000012" class="edge">
<title>Node17&#45;&gt;Node12</title>
<g id="a_edge29_Node000017_Node000012"><a xlink:title=" ">
<path fill="none" stroke="#63b8ff" d="M893.35,-111.71C892.4,-102.62 891.03,-88.38 890.38,-76 889.61,-61.12 889.36,-44.31 889.31,-31.51"/>
<polygon fill="#63b8ff" stroke="#63b8ff" points="892.81,-31.78 889.31,-21.78 885.81,-31.78 892.81,-31.78"/>
</a>
</g>
</g>
<!-- Node17&#45;&gt;Node13 -->
<g id="edge30_Node000017_Node000013" class="edge">
<title>Node17&#45;&gt;Node13</title>
<g id="a_edge30_Node000017_Node000013"><a xlink:title=" ">
<path fill="none" stroke="#63b8ff" d="M928.14,-118.43C958.65,-114.33 1002.73,-103.67 1029.38,-76 1040.86,-64.08 1045.46,-45.62 1047.28,-31.41"/>
<polygon fill="#63b8ff" stroke="#63b8ff" points="1050.73,-32.07 1048.12,-21.8 1043.76,-31.45 1050.73,-32.07"/>
</a>
</g>
</g>
<!-- Node17&#45;&gt;Node18 -->
<g id="edge18_Node000017_Node000018" class="edge">
<title>Node17&#45;&gt;Node18</title>
<g id="a_edge18_Node000017_Node000018"><a xlink:title=" ">
<path fill="none" stroke="#63b8ff" d="M868.43,-111.59C844.54,-102.94 808.85,-90 782.05,-80.29"/>
<polygon fill="#63b8ff" stroke="#63b8ff" points="783.55,-77.11 772.96,-77 781.17,-83.69 783.55,-77.11"/>
</a>
</g>
</g>
<!-- Node22 -->
<g id="Node000022" class="node">
<title>Node22</title>
<g id="a_Node000022"><a xlink:href="_date_time___exceptions_8h.html" target="_top" xlink:title="Defines error messages and the DateTimeError exception class for date and time operations.">
<polygon fill="white" stroke="#666666" points="1019.88,-76 898.88,-76 898.88,-56 1019.88,-56 1019.88,-76"/>
<text text-anchor="middle" x="959.38" y="-62.5" font-family="Helvetica,sans-Serif" font-size="10.00">DateTime_Exceptions.h</text>
</a>
</g>
</g>
<!-- Node17&#45;&gt;Node22 -->
<g id="edge25_Node000017_Node000022" class="edge">
<title>Node17&#45;&gt;Node22</title>
<g id="a_edge25_Node000017_Node000022"><a xlink:title=" ">
<path fill="none" stroke="#63b8ff" d="M905.7,-111.59C915.02,-103.85 928.46,-92.69 939.56,-83.47"/>
<polygon fill="#63b8ff" stroke="#63b8ff" points="941.57,-86.35 947.02,-77.27 937.1,-80.96 941.57,-86.35"/>
</a>
</g>
</g>
<!-- Node18&#45;&gt;Node12 -->
<g id="edge19_Node000018_Node000012" class="edge">
<title>Node18&#45;&gt;Node12</title>
<g id="a_edge19_Node000018_Node000012"><a xlink:title=" ">
<path fill="none" stroke="#63b8ff" d="M770.46,-55.59C793.45,-46.97 827.73,-34.12 853.59,-24.42"/>
<polygon fill="#63b8ff" stroke="#63b8ff" points="854.55,-27.8 862.69,-21.01 852.09,-21.25 854.55,-27.8"/>
</a>
</g>
</g>
<!-- Node18&#45;&gt;Node13 -->
<g id="edge20_Node000018_Node000013" class="edge">
<title>Node18&#45;&gt;Node13</title>
<g id="a_edge20_Node000018_Node000013"><a xlink:title=" ">
<path fill="none" stroke="#63b8ff" d="M795.94,-56.35C847.61,-47.45 930.15,-33.08 1001.38,-20 1006.48,-19.06 1011.89,-18.05 1017.16,-17.05"/>
<polygon fill="#63b8ff" stroke="#63b8ff" points="1017.62,-20.52 1026.78,-15.21 1016.3,-13.65 1017.62,-20.52"/>
</a>
</g>
</g>
<!-- Node18&#45;&gt;Node15 -->
<g id="edge21_Node000018_Node000015" class="edge">
<title>Node18&#45;&gt;Node15</title>
<g id="a_edge21_Node000018_Node000015"><a xlink:title=" ">
<path fill="none" stroke="#63b8ff" d="M723.61,-55.59C704.01,-47.13 674.95,-34.58 652.66,-24.94"/>
<polygon fill="#63b8ff" stroke="#63b8ff" points="654.28,-21.83 643.71,-21.08 651.51,-28.26 654.28,-21.83"/>
</a>
</g>
</g>
<!-- Node19 -->
<g id="Node000019" class="node">
<title>Node19</title>
<g id="a_Node000019"><a xlink:title=" ">
<polygon fill="#e0e0e0" stroke="#999999" points="768.26,-20 712.51,-20 712.51,0 768.26,0 768.26,-20"/>
<text text-anchor="middle" x="740.38" y="-6.5" font-family="Helvetica,sans-Serif" font-size="10.00">algorithm</text>
</a>
</g>
</g>
<!-- Node18&#45;&gt;Node19 -->
<g id="edge22_Node000018_Node000019" class="edge">
<title>Node18&#45;&gt;Node19</title>
<g id="a_edge22_Node000018_Node000019"><a xlink:title=" ">
<path fill="none" stroke="#63b8ff" d="M744.51,-55.59C743.9,-49.01 743.06,-39.96 742.3,-31.73"/>
<polygon fill="#63b8ff" stroke="#63b8ff" points="745.79,-31.44 741.38,-21.81 738.82,-32.09 745.79,-31.44"/>
</a>
</g>
</g>
<!-- Node20 -->
<g id="Node000020" class="node">
<title>Node20</title>
<g id="a_Node000020"><a xlink:title=" ">
<polygon fill="#e0e0e0" stroke="#999999" points="844.38,-20 786.38,-20 786.38,0 844.38,0 844.38,-20"/>
<text text-anchor="middle" x="815.38" y="-6.5" font-family="Helvetica,sans-Serif" font-size="10.00">functional</text>
</a>
</g>
</g>
<!-- Node18&#45;&gt;Node20 -->
<g id="edge23_Node000018_Node000020" class="edge">
<title>Node18&#45;&gt;Node20</title>
<g id="a_edge23_Node000018_Node000020"><a xlink:title=" ">
<path fill="none" stroke="#63b8ff" d="M757.57,-55.59C767.71,-47.77 782.37,-36.46 794.39,-27.19"/>
<polygon fill="#63b8ff" stroke="#63b8ff" points="796.35,-30.1 802.13,-21.22 792.07,-24.56 796.35,-30.1"/>
</a>
</g>
</g>
<!-- Node21 -->
<g id="Node000021" class="node">
<title>Node21</title>
<g id="a_Node000021"><a xlink:title=" ">
<polygon fill="#e0e0e0" stroke="#999999" points="694.76,-20 660.01,-20 660.01,0 694.76,0 694.76,-20"/>
<text text-anchor="middle" x="677.38" y="-6.5" font-family="Helvetica,sans-Serif" font-size="10.00">map</text>
</a>
</g>
</g>
<!-- Node18&#45;&gt;Node21 -->
<g id="edge24_Node000018_Node000021" class="edge">
<title>Node18&#45;&gt;Node21</title>
<g id="a_edge24_Node000018_Node000021"><a xlink:title=" ">
<path fill="none" stroke="#63b8ff" d="M733.54,-55.59C723.69,-47.77 709.45,-36.46 697.77,-27.19"/>
<polygon fill="#63b8ff" stroke="#63b8ff" points="700.28,-24.72 690.28,-21.24 695.93,-30.2 700.28,-24.72"/>
</a>
</g>
</g>
<!-- Node22&#45;&gt;Node12 -->
<g id="edge27_Node000022_Node000012" class="edge">
<title>Node22&#45;&gt;Node12</title>
<g id="a_edge27_Node000022_Node000012"><a xlink:title=" ">
<path fill="none" stroke="#63b8ff" d="M947.19,-55.59C937.05,-47.77 922.39,-36.46 910.37,-27.19"/>
<polygon fill="#63b8ff" stroke="#63b8ff" points="912.69,-24.56 902.63,-21.22 908.41,-30.1 912.69,-24.56"/>
</a>
</g>
</g>
<!-- Node22&#45;&gt;Node13 -->
<g id="edge26_Node000022_Node000013" class="edge">
<title>Node22&#45;&gt;Node13</title>
<g id="a_edge26_Node000022_Node000013"><a xlink:title=" ">
<path fill="none" stroke="#63b8ff" d="M974.88,-55.59C988.2,-47.51 1007.66,-35.71 1023.21,-26.27"/>
<polygon fill="#63b8ff" stroke="#63b8ff" points="1024.73,-29.44 1031.46,-21.26 1021.1,-23.46 1024.73,-29.44"/>
</a>
</g>
</g>
<!-- Node23 -->
<g id="Node000023" class="node">
<title>Node23</title>
<g id="a_Node000023"><a xlink:title=" ">
<polygon fill="#e0e0e0" stroke="#999999" points="992.38,-20 934.38,-20 934.38,0 992.38,0 992.38,-20"/>
<text text-anchor="middle" x="963.38" y="-6.5" font-family="Helvetica,sans-Serif" font-size="10.00">exception</text>
</a>
</g>
</g>
<!-- Node22&#45;&gt;Node23 -->
<g id="edge28_Node000022_Node000023" class="edge">
<title>Node22&#45;&gt;Node23</title>
<g id="a_edge28_Node000022_Node000023"><a xlink:title=" ">
<path fill="none" stroke="#63b8ff" d="M960.08,-55.59C960.57,-49.01 961.24,-39.96 961.85,-31.73"/>
<polygon fill="#63b8ff" stroke="#63b8ff" points="965.33,-32.04 962.58,-21.81 958.35,-31.52 965.33,-32.04"/>
</a>
</g>
</g>
<!-- Node24&#45;&gt;Node13 -->
<g id="edge32_Node000024_Node000013" class="edge">
<title>Node24&#45;&gt;Node13</title>
<g id="a_edge32_Node000024_Node000013"><a xlink:title=" ">
<path fill="none" stroke="#63b8ff" d="M1148.3,-55.59C1129.19,-47.06 1100.78,-34.38 1079.13,-24.72"/>
<polygon fill="#63b8ff" stroke="#63b8ff" points="1080.75,-21.61 1070.2,-20.74 1077.9,-28.01 1080.75,-21.61"/>
</a>
</g>
</g>
</g>
</svg>
