<?xml version="1.0" encoding="UTF-8" standalone="no"?>
<!DOCTYPE svg PUBLIC "-//W3C//DTD SVG 1.1//EN"
 "http://www.w3.org/Graphics/SVG/1.1/DTD/svg11.dtd">
<!-- Generated by graphviz version 12.2.1 (20241206.2353)
 -->
<!-- Title: TullipApp/Person.h Pages: 1 -->
<svg width="2493pt" height="356pt"
 viewBox="0.00 0.00 2492.88 356.00" xmlns="http://www.w3.org/2000/svg" xmlns:xlink="http://www.w3.org/1999/xlink">
<g id="graph0" class="graph" transform="scale(1 1) rotate(0) translate(4 352)">
<title>TullipApp/Person.h</title>
<!-- Node1 -->
<g id="Node000001" class="node">
<title>Node1</title>
<g id="a_Node000001"><a xlink:title="Defines the Person class and its derived classes: Child, Parent, and Employee.">
<polygon fill="#999999" stroke="#666666" points="954.75,-348 856.25,-348 856.25,-328 954.75,-328 954.75,-348"/>
<text text-anchor="middle" x="905.5" y="-334.5" font-family="Helvetica,sans-Serif" font-size="10.00">TullipApp/Person.h</text>
</a>
</g>
</g>
<!-- Node2 -->
<g id="Node000002" class="node">
<title>Node2</title>
<g id="a_Node000002"><a xlink:href="_child_check_box_8h.html" target="_top" xlink:title="Defines the ChildCheckBox class for managing a checkbox widget for a child.">
<polygon fill="white" stroke="#666666" points="359.5,-292 223.5,-292 223.5,-272 359.5,-272 359.5,-292"/>
<text text-anchor="middle" x="291.5" y="-278.5" font-family="Helvetica,sans-Serif" font-size="10.00">TullipApp/ChildCheckBox.h</text>
</a>
</g>
</g>
<!-- Node1&#45;&gt;Node2 -->
<g id="edge1_Node000001_Node000002" class="edge">
<title>Node1&#45;&gt;Node2</title>
<g id="a_edge1_Node000001_Node000002"><a xlink:title=" ">
<path fill="none" stroke="#63b8ff" d="M844.37,-331.62C729.04,-321.48 480.1,-299.59 359.6,-288.99"/>
<polygon fill="#63b8ff" stroke="#63b8ff" points="844,-335.1 854.27,-332.49 844.61,-328.13 844,-335.1"/>
</a>
</g>
</g>
<!-- Node4 -->
<g id="Node000004" class="node">
<title>Node4</title>
<g id="a_Node000004"><a xlink:href="_parent_dialog_8h.html" target="_top" xlink:title="Defines the ParentDialog class for managing parent&#45;related information.">
<polygon fill="white" stroke="#666666" points="298.5,-162 174.5,-162 174.5,-142 298.5,-142 298.5,-162"/>
<text text-anchor="middle" x="236.5" y="-148.5" font-family="Helvetica,sans-Serif" font-size="10.00">TullipApp/ParentDialog.h</text>
</a>
</g>
</g>
<!-- Node1&#45;&gt;Node4 -->
<g id="edge51_Node000001_Node000004" class="edge">
<title>Node1&#45;&gt;Node4</title>
<g id="a_edge51_Node000001_Node000004"><a xlink:title=" ">
<path fill="none" stroke="#63b8ff" d="M844.82,-335.15C699.4,-330.36 334.24,-316.26 214.5,-292 140.25,-276.96 97.4,-297.75 53.5,-236 19.59,-188.3 108.7,-167.48 174.16,-158.79"/>
<polygon fill="#63b8ff" stroke="#63b8ff" points="844.52,-338.64 854.63,-335.46 844.74,-331.64 844.52,-338.64"/>
</a>
</g>
</g>
<!-- Node12 -->
<g id="Node000012" class="node">
<title>Node12</title>
<g id="a_Node000012"><a xlink:href="_child_dialog_8h.html" target="_top" xlink:title="Defines the ChildDialog class for managing child&#45;related information.">
<polygon fill="white" stroke="#666666" points="572.5,-162 454.5,-162 454.5,-142 572.5,-142 572.5,-162"/>
<text text-anchor="middle" x="513.5" y="-148.5" font-family="Helvetica,sans-Serif" font-size="10.00">TullipApp/ChildDialog.h</text>
</a>
</g>
</g>
<!-- Node1&#45;&gt;Node12 -->
<g id="edge11_Node000001_Node000012" class="edge">
<title>Node1&#45;&gt;Node12</title>
<g id="a_edge11_Node000001_Node000012"><a xlink:title=" ">
<path fill="none" stroke="#63b8ff" d="M844.69,-332.63C735.99,-323.34 515.9,-297.21 475.5,-236 459.17,-211.27 486.98,-178.38 503.15,-162.45"/>
<polygon fill="#63b8ff" stroke="#63b8ff" points="844.35,-336.12 854.61,-333.46 844.93,-329.14 844.35,-336.12"/>
</a>
</g>
</g>
<!-- Node15 -->
<g id="Node000015" class="node">
<title>Node15</title>
<g id="a_Node000015"><a xlink:href="_child_entry_8h.html" target="_top" xlink:title="Defines the ChildEntry class for managing the graphical representation of a child in the GUI.">
<polygon fill="white" stroke="#666666" points="1151.88,-292 1039.12,-292 1039.12,-272 1151.88,-272 1151.88,-292"/>
<text text-anchor="middle" x="1095.5" y="-278.5" font-family="Helvetica,sans-Serif" font-size="10.00">TullipApp/ChildEntry.h</text>
</a>
</g>
</g>
<!-- Node1&#45;&gt;Node15 -->
<g id="edge15_Node000001_Node000015" class="edge">
<title>Node1&#45;&gt;Node15</title>
<g id="a_edge15_Node000001_Node000015"><a xlink:title=" ">
<path fill="none" stroke="#63b8ff" d="M949.27,-324.56C983.64,-314.79 1030.78,-301.39 1062.15,-292.48"/>
<polygon fill="#63b8ff" stroke="#63b8ff" points="948.71,-321.08 940.05,-327.18 950.63,-327.81 948.71,-321.08"/>
</a>
</g>
</g>
<!-- Node18 -->
<g id="Node000018" class="node">
<title>Node18</title>
<g id="a_Node000018"><a xlink:href="_child_label_8h.html" target="_top" xlink:title="Defines the ChildLabel class for displaying child name.">
<polygon fill="white" stroke="#666666" points="1468.25,-292 1354.75,-292 1354.75,-272 1468.25,-272 1468.25,-292"/>
<text text-anchor="middle" x="1411.5" y="-278.5" font-family="Helvetica,sans-Serif" font-size="10.00">TullipApp/ChildLabel.h</text>
</a>
</g>
</g>
<!-- Node1&#45;&gt;Node18 -->
<g id="edge19_Node000001_Node000018" class="edge">
<title>Node1&#45;&gt;Node18</title>
<g id="a_edge19_Node000001_Node000018"><a xlink:title=" ">
<path fill="none" stroke="#63b8ff" d="M966.19,-330.52C1064.8,-320 1258.42,-299.34 1354.56,-289.08"/>
<polygon fill="#63b8ff" stroke="#63b8ff" points="966.02,-327.02 956.44,-331.56 966.76,-333.98 966.02,-327.02"/>
</a>
</g>
</g>
<!-- Node20 -->
<g id="Node000020" class="node">
<title>Node20</title>
<g id="a_Node000020"><a xlink:href="_parent_entry_8h.html" target="_top" xlink:title="Defines the ParentEntry class for managing the graphical representation of a parent in the GUI.">
<polygon fill="white" stroke="#666666" points="1715.88,-230 1597.12,-230 1597.12,-210 1715.88,-210 1715.88,-230"/>
<text text-anchor="middle" x="1656.5" y="-216.5" font-family="Helvetica,sans-Serif" font-size="10.00">TullipApp/ParentEntry.h</text>
</a>
</g>
</g>
<!-- Node1&#45;&gt;Node20 -->
<g id="edge52_Node000001_Node000020" class="edge">
<title>Node1&#45;&gt;Node20</title>
<g id="a_edge52_Node000001_Node000020"><a xlink:title=" ">
<path fill="none" stroke="#63b8ff" d="M966.29,-334.52C1093.02,-328.96 1381.64,-314.25 1477.5,-292 1538.56,-277.83 1606.2,-246.33 1638.03,-230.49"/>
<polygon fill="#63b8ff" stroke="#63b8ff" points="966.25,-331.01 956.42,-334.94 966.56,-338.01 966.25,-331.01"/>
</a>
</g>
</g>
<!-- Node24 -->
<g id="Node000024" class="node">
<title>Node24</title>
<g id="a_Node000024"><a xlink:href="_data_base_8h.html" target="_top" xlink:title="Defines the Database class for managing lessons, parents, children, and employees.">
<polygon fill="white" stroke="#666666" points="596.12,-230 484.88,-230 484.88,-210 596.12,-210 596.12,-230"/>
<text text-anchor="middle" x="540.5" y="-216.5" font-family="Helvetica,sans-Serif" font-size="10.00">TullipApp/DataBase.h</text>
</a>
</g>
</g>
<!-- Node1&#45;&gt;Node24 -->
<g id="edge26_Node000001_Node000024" class="edge">
<title>Node1&#45;&gt;Node24</title>
<g id="a_edge26_Node000001_Node000024"><a xlink:title=" ">
<path fill="none" stroke="#63b8ff" d="M844.75,-333.35C791.44,-328.53 712.64,-317.43 648.5,-292 609.49,-276.54 569.85,-245.78 551.31,-230.32"/>
<polygon fill="#63b8ff" stroke="#63b8ff" points="844.28,-336.82 854.54,-334.18 844.88,-329.85 844.28,-336.82"/>
</a>
</g>
</g>
<!-- Node26 -->
<g id="Node000026" class="node">
<title>Node26</title>
<g id="a_Node000026"><a xlink:href="_data_base___parser___functions_8h.html" target="_top" xlink:title=" ">
<polygon fill="white" stroke="#666666" points="772.5,-168 666.5,-168 666.5,-136 772.5,-136 772.5,-168"/>
<text text-anchor="start" x="674.5" y="-154.5" font-family="Helvetica,sans-Serif" font-size="10.00">TullipApp/DataBase</text>
<text text-anchor="middle" x="719.5" y="-142.5" font-family="Helvetica,sans-Serif" font-size="10.00">_Parser_Functions.h</text>
</a>
</g>
</g>
<!-- Node1&#45;&gt;Node26 -->
<g id="edge34_Node000001_Node000026" class="edge">
<title>Node1&#45;&gt;Node26</title>
<g id="a_edge34_Node000001_Node000026"><a xlink:title=" ">
<path fill="none" stroke="#63b8ff" d="M888.1,-319.67C862.58,-294.25 813.45,-245.39 771.5,-204 759.26,-191.92 745.35,-178.28 735,-168.15"/>
<polygon fill="#63b8ff" stroke="#63b8ff" points="885.47,-321.98 895.02,-326.56 890.41,-317.02 885.47,-321.98"/>
</a>
</g>
</g>
<!-- Node28 -->
<g id="Node000028" class="node">
<title>Node28</title>
<g id="a_Node000028"><a xlink:href="_employee_dialog_8h.html" target="_top" xlink:title="Defines the EmployeeDialog class for editing employee information.">
<polygon fill="white" stroke="#666666" points="1967,-292 1828,-292 1828,-272 1967,-272 1967,-292"/>
<text text-anchor="middle" x="1897.5" y="-278.5" font-family="Helvetica,sans-Serif" font-size="10.00">TullipApp/EmployeeDialog.h</text>
</a>
</g>
</g>
<!-- Node1&#45;&gt;Node28 -->
<g id="edge35_Node000001_Node000028" class="edge">
<title>Node1&#45;&gt;Node28</title>
<g id="a_edge35_Node000001_Node000028"><a xlink:title=" ">
<path fill="none" stroke="#63b8ff" d="M966.29,-333.69C1140.78,-324.19 1642.51,-296.88 1827.72,-286.8"/>
<polygon fill="#63b8ff" stroke="#63b8ff" points="966.34,-330.18 956.54,-334.22 966.72,-337.17 966.34,-330.18"/>
</a>
</g>
</g>
<!-- Node31 -->
<g id="Node000031" class="node">
<title>Node31</title>
<g id="a_Node000031"><a xlink:href="_employee_entry_8h.html" target="_top" xlink:title="Defines the EmployeeEntry class for managing the graphical representation of a employee in the GUI.">
<polygon fill="white" stroke="#666666" points="2200.38,-292 2066.62,-292 2066.62,-272 2200.38,-272 2200.38,-292"/>
<text text-anchor="middle" x="2133.5" y="-278.5" font-family="Helvetica,sans-Serif" font-size="10.00">TullipApp/EmployeeEntry.h</text>
</a>
</g>
</g>
<!-- Node1&#45;&gt;Node31 -->
<g id="edge39_Node000001_Node000031" class="edge">
<title>Node1&#45;&gt;Node31</title>
<g id="a_edge39_Node000001_Node000031"><a xlink:title=" ">
<path fill="none" stroke="#63b8ff" d="M966.41,-334.77C1129.92,-328.7 1592.14,-311.09 1976.5,-292 2005.95,-290.54 2038.49,-288.71 2066.28,-287.08"/>
<polygon fill="#63b8ff" stroke="#63b8ff" points="966.53,-331.26 956.67,-335.13 966.79,-338.25 966.53,-331.26"/>
</a>
</g>
</g>
<!-- Node34 -->
<g id="Node000034" class="node">
<title>Node34</title>
<g id="a_Node000034"><a xlink:href="_lesson_8h.html" target="_top" xlink:title="Defines the Lesson class, which represents a lesson with its associated details.">
<polygon fill="white" stroke="#666666" points="757.12,-292 657.88,-292 657.88,-272 757.12,-272 757.12,-292"/>
<text text-anchor="middle" x="707.5" y="-278.5" font-family="Helvetica,sans-Serif" font-size="10.00">TullipApp/Lesson.h</text>
</a>
</g>
</g>
<!-- Node1&#45;&gt;Node34 -->
<g id="edge43_Node000001_Node000034" class="edge">
<title>Node1&#45;&gt;Node34</title>
<g id="a_edge43_Node000001_Node000034"><a xlink:title=" ">
<path fill="none" stroke="#63b8ff" d="M860.35,-324.69C824.49,-314.91 775.08,-301.43 742.26,-292.48"/>
<polygon fill="#63b8ff" stroke="#63b8ff" points="858.98,-327.94 869.55,-327.2 860.82,-321.19 858.98,-327.94"/>
</a>
</g>
</g>
<!-- Node39 -->
<g id="Node000039" class="node">
<title>Node39</title>
<g id="a_Node000039"><a xlink:href="_person_8cpp.html" target="_top" xlink:title=" ">
<polygon fill="white" stroke="#666666" points="2327,-292 2218,-292 2218,-272 2327,-272 2327,-292"/>
<text text-anchor="middle" x="2272.5" y="-278.5" font-family="Helvetica,sans-Serif" font-size="10.00">TullipApp/Person.cpp</text>
</a>
</g>
</g>
<!-- Node1&#45;&gt;Node39 -->
<g id="edge53_Node000001_Node000039" class="edge">
<title>Node1&#45;&gt;Node39</title>
<g id="a_edge53_Node000001_Node000039"><a xlink:title=" ">
<path fill="none" stroke="#63b8ff" d="M966.52,-337.22C1153.05,-337.39 1732.07,-334.22 2209.5,-292 2212.14,-291.77 2214.84,-291.5 2217.57,-291.2"/>
<polygon fill="#63b8ff" stroke="#63b8ff" points="966.58,-333.72 956.57,-337.21 966.57,-340.72 966.58,-333.72"/>
</a>
</g>
</g>
<!-- Node3 -->
<g id="Node000003" class="node">
<title>Node3</title>
<g id="a_Node000003"><a xlink:href="_child_check_box_8cpp.html" target="_top" xlink:title=" ">
<polygon fill="white" stroke="#666666" points="208.75,-230 62.25,-230 62.25,-210 208.75,-210 208.75,-230"/>
<text text-anchor="middle" x="135.5" y="-216.5" font-family="Helvetica,sans-Serif" font-size="10.00">TullipApp/ChildCheckBox.cpp</text>
</a>
</g>
</g>
<!-- Node2&#45;&gt;Node3 -->
<g id="edge2_Node000002_Node000003" class="edge">
<title>Node2&#45;&gt;Node3</title>
<g id="a_edge2_Node000002_Node000003"><a xlink:title=" ">
<path fill="none" stroke="#63b8ff" d="M256.5,-267.54C227.12,-256.24 185.91,-240.39 159.96,-230.41"/>
<polygon fill="#63b8ff" stroke="#63b8ff" points="255.12,-270.76 265.71,-271.08 257.64,-264.23 255.12,-270.76"/>
</a>
</g>
</g>
<!-- Node2&#45;&gt;Node4 -->
<g id="edge3_Node000002_Node000004" class="edge">
<title>Node2&#45;&gt;Node4</title>
<g id="a_edge3_Node000002_Node000004"><a xlink:title=" ">
<path fill="none" stroke="#63b8ff" d="M274.85,-263.25C268.28,-255.41 261.2,-245.76 256.5,-236 244.48,-211.03 239.35,-178.25 237.45,-162.4"/>
<polygon fill="#63b8ff" stroke="#63b8ff" points="272.16,-265.49 281.41,-270.67 277.41,-260.86 272.16,-265.49"/>
</a>
</g>
</g>
<!-- Node11 -->
<g id="Node000011" class="node">
<title>Node11</title>
<g id="a_Node000011"><a xlink:href="moc___child_check_box_8cpp.html" target="_top" xlink:title=" ">
<polygon fill="white" stroke="#666666" points="428,-236 265,-236 265,-204 428,-204 428,-236"/>
<text text-anchor="start" x="273" y="-222.5" font-family="Helvetica,sans-Serif" font-size="10.00">TullipApp/x64/Debug</text>
<text text-anchor="middle" x="346.5" y="-210.5" font-family="Helvetica,sans-Serif" font-size="10.00">/qt/moc/moc_ChildCheckBox.cpp</text>
</a>
</g>
</g>
<!-- Node2&#45;&gt;Node11 -->
<g id="edge10_Node000002_Node000011" class="edge">
<title>Node2&#45;&gt;Node11</title>
<g id="a_edge10_Node000002_Node000011"><a xlink:title=" ">
<path fill="none" stroke="#63b8ff" d="M307.66,-263.37C315.58,-254.73 325.03,-244.42 332.62,-236.14"/>
<polygon fill="#63b8ff" stroke="#63b8ff" points="305.29,-260.77 301.12,-270.51 310.45,-265.5 305.29,-260.77"/>
</a>
</g>
</g>
<!-- Node5 -->
<g id="Node000005" class="node">
<title>Node5</title>
<g id="a_Node000005"><a xlink:href="_data_base_g_u_i_8h.html" target="_top" xlink:title="Defines the DataBaseGUI class for managing the graphical user interface of the database.">
<polygon fill="white" stroke="#666666" points="1184.12,-94 1054.88,-94 1054.88,-74 1184.12,-74 1184.12,-94"/>
<text text-anchor="middle" x="1119.5" y="-80.5" font-family="Helvetica,sans-Serif" font-size="10.00">TullipApp/DataBaseGUI.h</text>
</a>
</g>
</g>
<!-- Node4&#45;&gt;Node5 -->
<g id="edge4_Node000004_Node000005" class="edge">
<title>Node4&#45;&gt;Node5</title>
<g id="a_edge4_Node000004_Node000005"><a xlink:title=" ">
<path fill="none" stroke="#63b8ff" d="M310.22,-145.49C479.57,-132.83 894.11,-101.85 1054.58,-89.85"/>
<polygon fill="#63b8ff" stroke="#63b8ff" points="310.16,-141.98 300.45,-146.22 310.69,-148.96 310.16,-141.98"/>
</a>
</g>
</g>
<!-- Node9 -->
<g id="Node000009" class="node">
<title>Node9</title>
<g id="a_Node000009"><a xlink:href="_parent_dialog_8cpp.html" target="_top" xlink:title=" ">
<polygon fill="white" stroke="#666666" points="303.75,-94 169.25,-94 169.25,-74 303.75,-74 303.75,-94"/>
<text text-anchor="middle" x="236.5" y="-80.5" font-family="Helvetica,sans-Serif" font-size="10.00">TullipApp/ParentDialog.cpp</text>
</a>
</g>
</g>
<!-- Node4&#45;&gt;Node9 -->
<g id="edge8_Node000004_Node000009" class="edge">
<title>Node4&#45;&gt;Node9</title>
<g id="a_edge8_Node000004_Node000009"><a xlink:title=" ">
<path fill="none" stroke="#63b8ff" d="M236.5,-130.28C236.5,-118.27 236.5,-103.74 236.5,-94.44"/>
<polygon fill="#63b8ff" stroke="#63b8ff" points="233,-130.03 236.5,-140.03 240,-130.03 233,-130.03"/>
</a>
</g>
</g>
<!-- Node10 -->
<g id="Node000010" class="node">
<title>Node10</title>
<g id="a_Node000010"><a xlink:href="moc___parent_dialog_8cpp.html" target="_top" xlink:title=" ">
<polygon fill="white" stroke="#666666" points="151,-100 0,-100 0,-68 151,-68 151,-100"/>
<text text-anchor="start" x="8" y="-86.5" font-family="Helvetica,sans-Serif" font-size="10.00">TullipApp/x64/Debug</text>
<text text-anchor="middle" x="75.5" y="-74.5" font-family="Helvetica,sans-Serif" font-size="10.00">/qt/moc/moc_ParentDialog.cpp</text>
</a>
</g>
</g>
<!-- Node4&#45;&gt;Node10 -->
<g id="edge9_Node000004_Node000010" class="edge">
<title>Node4&#45;&gt;Node10</title>
<g id="a_edge9_Node000004_Node000010"><a xlink:title=" ">
<path fill="none" stroke="#63b8ff" d="M202.88,-137.22C176.68,-126.48 140.31,-111.57 113.13,-100.43"/>
<polygon fill="#63b8ff" stroke="#63b8ff" points="201.45,-140.42 212.03,-140.97 204.11,-133.94 201.45,-140.42"/>
</a>
</g>
</g>
<!-- Node6 -->
<g id="Node000006" class="node">
<title>Node6</title>
<g id="a_Node000006"><a xlink:href="_data_base_g_u_i_8cpp.html" target="_top" xlink:title=" ">
<polygon fill="white" stroke="#666666" points="1051.38,-26 911.62,-26 911.62,-6 1051.38,-6 1051.38,-26"/>
<text text-anchor="middle" x="981.5" y="-12.5" font-family="Helvetica,sans-Serif" font-size="10.00">TullipApp/DataBaseGUI.cpp</text>
</a>
</g>
</g>
<!-- Node5&#45;&gt;Node6 -->
<g id="edge5_Node000005_Node000006" class="edge">
<title>Node5&#45;&gt;Node6</title>
<g id="a_edge5_Node000005_Node000006"><a xlink:title=" ">
<path fill="none" stroke="#63b8ff" d="M1089.4,-68.6C1062.63,-55.8 1024.28,-37.46 1001.24,-26.44"/>
<polygon fill="#63b8ff" stroke="#63b8ff" points="1087.83,-71.73 1098.36,-72.89 1090.85,-65.42 1087.83,-71.73"/>
</a>
</g>
</g>
<!-- Node7 -->
<g id="Node000007" class="node">
<title>Node7</title>
<g id="a_Node000007"><a xlink:href="_main_8cpp.html" target="_top" xlink:title=" ">
<polygon fill="white" stroke="#666666" points="1169.12,-26 1069.88,-26 1069.88,-6 1169.12,-6 1169.12,-26"/>
<text text-anchor="middle" x="1119.5" y="-12.5" font-family="Helvetica,sans-Serif" font-size="10.00">TullipApp/Main.cpp</text>
</a>
</g>
</g>
<!-- Node5&#45;&gt;Node7 -->
<g id="edge6_Node000005_Node000007" class="edge">
<title>Node5&#45;&gt;Node7</title>
<g id="a_edge6_Node000005_Node000007"><a xlink:title=" ">
<path fill="none" stroke="#63b8ff" d="M1119.5,-62.28C1119.5,-50.27 1119.5,-35.74 1119.5,-26.44"/>
<polygon fill="#63b8ff" stroke="#63b8ff" points="1116,-62.03 1119.5,-72.03 1123,-62.03 1116,-62.03"/>
</a>
</g>
</g>
<!-- Node8 -->
<g id="Node000008" class="node">
<title>Node8</title>
<g id="a_Node000008"><a xlink:href="moc___data_base_g_u_i_8cpp.html" target="_top" xlink:title=" ">
<polygon fill="white" stroke="#666666" points="1343.62,-32 1187.38,-32 1187.38,0 1343.62,0 1343.62,-32"/>
<text text-anchor="start" x="1195.38" y="-18.5" font-family="Helvetica,sans-Serif" font-size="10.00">TullipApp/x64/Debug</text>
<text text-anchor="middle" x="1265.5" y="-6.5" font-family="Helvetica,sans-Serif" font-size="10.00">/qt/moc/moc_DataBaseGUI.cpp</text>
</a>
</g>
</g>
<!-- Node5&#45;&gt;Node8 -->
<g id="edge7_Node000005_Node000008" class="edge">
<title>Node5&#45;&gt;Node8</title>
<g id="a_edge7_Node000005_Node000008"><a xlink:title=" ">
<path fill="none" stroke="#63b8ff" d="M1150.62,-68.93C1174.33,-58.21 1206.95,-43.47 1231.37,-32.43"/>
<polygon fill="#63b8ff" stroke="#63b8ff" points="1149.47,-65.61 1141.8,-72.92 1152.35,-71.99 1149.47,-65.61"/>
</a>
</g>
</g>
<!-- Node12&#45;&gt;Node5 -->
<g id="edge13_Node000012_Node000005" class="edge">
<title>Node12&#45;&gt;Node5</title>
<g id="a_edge13_Node000012_Node000005"><a xlink:title=" ">
<path fill="none" stroke="#63b8ff" d="M583.94,-141.14C597.4,-139.35 611.38,-137.56 624.5,-136 778.49,-117.67 959.89,-99.97 1054.56,-91.03"/>
<polygon fill="#63b8ff" stroke="#63b8ff" points="583.74,-137.64 574.29,-142.43 584.67,-144.57 583.74,-137.64"/>
</a>
</g>
</g>
<!-- Node13 -->
<g id="Node000013" class="node">
<title>Node13</title>
<g id="a_Node000013"><a xlink:href="_child_dialog_8cpp.html" target="_top" xlink:title=" ">
<polygon fill="white" stroke="#666666" points="613.75,-94 485.25,-94 485.25,-74 613.75,-74 613.75,-94"/>
<text text-anchor="middle" x="549.5" y="-80.5" font-family="Helvetica,sans-Serif" font-size="10.00">TullipApp/ChildDialog.cpp</text>
</a>
</g>
</g>
<!-- Node12&#45;&gt;Node13 -->
<g id="edge12_Node000012_Node000013" class="edge">
<title>Node12&#45;&gt;Node13</title>
<g id="a_edge12_Node000012_Node000013"><a xlink:title=" ">
<path fill="none" stroke="#63b8ff" d="M523.98,-131.78C530.68,-119.51 539.06,-104.14 544.35,-94.44"/>
<polygon fill="#63b8ff" stroke="#63b8ff" points="521.1,-129.76 519.38,-140.22 527.24,-133.11 521.1,-129.76"/>
</a>
</g>
</g>
<!-- Node14 -->
<g id="Node000014" class="node">
<title>Node14</title>
<g id="a_Node000014"><a xlink:href="moc___child_dialog_8cpp.html" target="_top" xlink:title=" ">
<polygon fill="white" stroke="#666666" points="467,-100 322,-100 322,-68 467,-68 467,-100"/>
<text text-anchor="start" x="330" y="-86.5" font-family="Helvetica,sans-Serif" font-size="10.00">TullipApp/x64/Debug</text>
<text text-anchor="middle" x="394.5" y="-74.5" font-family="Helvetica,sans-Serif" font-size="10.00">/qt/moc/moc_ChildDialog.cpp</text>
</a>
</g>
</g>
<!-- Node12&#45;&gt;Node14 -->
<g id="edge14_Node000012_Node000014" class="edge">
<title>Node12&#45;&gt;Node14</title>
<g id="a_edge14_Node000012_Node000014"><a xlink:title=" ">
<path fill="none" stroke="#63b8ff" d="M486.51,-136.03C467.27,-125.36 441.47,-111.05 422.09,-100.3"/>
<polygon fill="#63b8ff" stroke="#63b8ff" points="484.68,-139.02 495.13,-140.81 488.08,-132.9 484.68,-139.02"/>
</a>
</g>
</g>
<!-- Node15&#45;&gt;Node5 -->
<g id="edge17_Node000015_Node000005" class="edge">
<title>Node15&#45;&gt;Node5</title>
<g id="a_edge17_Node000015_Node000005"><a xlink:title=" ">
<path fill="none" stroke="#63b8ff" d="M1163.14,-269.48C1199.34,-261.79 1238.67,-250.44 1249.5,-236 1291.72,-179.67 1184.67,-117.48 1138.99,-94.34"/>
<polygon fill="#63b8ff" stroke="#63b8ff" points="1162.62,-266.02 1153.53,-271.45 1164.03,-272.88 1162.62,-266.02"/>
</a>
</g>
</g>
<!-- Node16 -->
<g id="Node000016" class="node">
<title>Node16</title>
<g id="a_Node000016"><a xlink:href="_child_entry_8cpp.html" target="_top" xlink:title=" ">
<polygon fill="white" stroke="#666666" points="1082.12,-230 958.88,-230 958.88,-210 1082.12,-210 1082.12,-230"/>
<text text-anchor="middle" x="1020.5" y="-216.5" font-family="Helvetica,sans-Serif" font-size="10.00">TullipApp/ChildEntry.cpp</text>
</a>
</g>
</g>
<!-- Node15&#45;&gt;Node16 -->
<g id="edge16_Node000015_Node000016" class="edge">
<title>Node15&#45;&gt;Node16</title>
<g id="a_edge16_Node000015_Node000016"><a xlink:title=" ">
<path fill="none" stroke="#63b8ff" d="M1074.93,-264.55C1061.06,-253.45 1043.29,-239.23 1031.89,-230.11"/>
<polygon fill="#63b8ff" stroke="#63b8ff" points="1072.6,-267.17 1082.6,-270.68 1076.98,-261.7 1072.6,-267.17"/>
</a>
</g>
</g>
<!-- Node17 -->
<g id="Node000017" class="node">
<title>Node17</title>
<g id="a_Node000017"><a xlink:href="moc___child_entry_8cpp.html" target="_top" xlink:title=" ">
<polygon fill="white" stroke="#666666" points="1240.38,-236 1100.62,-236 1100.62,-204 1240.38,-204 1240.38,-236"/>
<text text-anchor="start" x="1108.62" y="-222.5" font-family="Helvetica,sans-Serif" font-size="10.00">TullipApp/x64/Debug</text>
<text text-anchor="middle" x="1170.5" y="-210.5" font-family="Helvetica,sans-Serif" font-size="10.00">/qt/moc/moc_ChildEntry.cpp</text>
</a>
</g>
</g>
<!-- Node15&#45;&gt;Node17 -->
<g id="edge18_Node000015_Node000017" class="edge">
<title>Node15&#45;&gt;Node17</title>
<g id="a_edge18_Node000015_Node000017"><a xlink:title=" ">
<path fill="none" stroke="#63b8ff" d="M1116.11,-264.51C1127.09,-255.72 1140.52,-244.98 1151.28,-236.37"/>
<polygon fill="#63b8ff" stroke="#63b8ff" points="1114.02,-261.7 1108.4,-270.68 1118.4,-267.17 1114.02,-261.7"/>
</a>
</g>
</g>
<!-- Node19 -->
<g id="Node000019" class="node">
<title>Node19</title>
<g id="a_Node000019"><a xlink:href="_child_label_8cpp.html" target="_top" xlink:title=" ">
<polygon fill="white" stroke="#666666" points="1420.5,-230 1296.5,-230 1296.5,-210 1420.5,-210 1420.5,-230"/>
<text text-anchor="middle" x="1358.5" y="-216.5" font-family="Helvetica,sans-Serif" font-size="10.00">TullipApp/ChildLabel.cpp</text>
</a>
</g>
</g>
<!-- Node18&#45;&gt;Node19 -->
<g id="edge20_Node000018_Node000019" class="edge">
<title>Node18&#45;&gt;Node19</title>
<g id="a_edge20_Node000018_Node000019"><a xlink:title=" ">
<path fill="none" stroke="#63b8ff" d="M1395.82,-263.25C1386.21,-252.36 1374.29,-238.88 1366.55,-230.11"/>
<polygon fill="#63b8ff" stroke="#63b8ff" points="1392.97,-265.31 1402.22,-270.49 1398.22,-260.68 1392.97,-265.31"/>
</a>
</g>
</g>
<!-- Node18&#45;&gt;Node20 -->
<g id="edge21_Node000018_Node000020" class="edge">
<title>Node18&#45;&gt;Node20</title>
<g id="a_edge21_Node000018_Node000020"><a xlink:title=" ">
<path fill="none" stroke="#63b8ff" d="M1461.02,-268.87C1507.27,-257.55 1575.37,-240.87 1617.77,-230.48"/>
<polygon fill="#63b8ff" stroke="#63b8ff" points="1460.4,-265.42 1451.52,-271.2 1462.07,-272.22 1460.4,-265.42"/>
</a>
</g>
</g>
<!-- Node23 -->
<g id="Node000023" class="node">
<title>Node23</title>
<g id="a_Node000023"><a xlink:href="moc___child_label_8cpp.html" target="_top" xlink:title=" ">
<polygon fill="white" stroke="#666666" points="1578.75,-236 1438.25,-236 1438.25,-204 1578.75,-204 1578.75,-236"/>
<text text-anchor="start" x="1446.25" y="-222.5" font-family="Helvetica,sans-Serif" font-size="10.00">TullipApp/x64/Debug</text>
<text text-anchor="middle" x="1508.5" y="-210.5" font-family="Helvetica,sans-Serif" font-size="10.00">/qt/moc/moc_ChildLabel.cpp</text>
</a>
</g>
</g>
<!-- Node18&#45;&gt;Node23 -->
<g id="edge25_Node000018_Node000023" class="edge">
<title>Node18&#45;&gt;Node23</title>
<g id="a_edge25_Node000018_Node000023"><a xlink:title=" ">
<path fill="none" stroke="#63b8ff" d="M1436.03,-265.83C1450.6,-256.81 1469.02,-245.42 1483.65,-236.37"/>
<polygon fill="#63b8ff" stroke="#63b8ff" points="1434.61,-262.59 1427.94,-270.83 1438.29,-268.54 1434.61,-262.59"/>
</a>
</g>
</g>
<!-- Node20&#45;&gt;Node5 -->
<g id="edge22_Node000020_Node000005" class="edge">
<title>Node20&#45;&gt;Node5</title>
<g id="a_edge22_Node000020_Node000005"><a xlink:title=" ">
<path fill="none" stroke="#63b8ff" d="M1672.83,-201.02C1687.48,-182.67 1704.29,-154.37 1687.5,-136 1654.12,-99.49 1326.62,-88.9 1184.62,-86.01"/>
<polygon fill="#63b8ff" stroke="#63b8ff" points="1670.33,-198.55 1666.53,-208.44 1675.67,-203.08 1670.33,-198.55"/>
</a>
</g>
</g>
<!-- Node21 -->
<g id="Node000021" class="node">
<title>Node21</title>
<g id="a_Node000021"><a xlink:href="_parent_entry_8cpp.html" target="_top" xlink:title=" ">
<polygon fill="white" stroke="#666666" points="1514.12,-162 1384.88,-162 1384.88,-142 1514.12,-142 1514.12,-162"/>
<text text-anchor="middle" x="1449.5" y="-148.5" font-family="Helvetica,sans-Serif" font-size="10.00">TullipApp/ParentEntry.cpp</text>
</a>
</g>
</g>
<!-- Node20&#45;&gt;Node21 -->
<g id="edge23_Node000020_Node000021" class="edge">
<title>Node20&#45;&gt;Node21</title>
<g id="a_edge23_Node000020_Node000021"><a xlink:title=" ">
<path fill="none" stroke="#63b8ff" d="M1616.08,-206.11C1575.84,-193.28 1515.05,-173.9 1479.1,-162.44"/>
<polygon fill="#63b8ff" stroke="#63b8ff" points="1614.81,-209.38 1625.4,-209.08 1616.94,-202.71 1614.81,-209.38"/>
</a>
</g>
</g>
<!-- Node22 -->
<g id="Node000022" class="node">
<title>Node22</title>
<g id="a_Node000022"><a xlink:href="moc___parent_entry_8cpp.html" target="_top" xlink:title=" ">
<polygon fill="white" stroke="#666666" points="1678.38,-168 1532.62,-168 1532.62,-136 1678.38,-136 1678.38,-168"/>
<text text-anchor="start" x="1540.62" y="-154.5" font-family="Helvetica,sans-Serif" font-size="10.00">TullipApp/x64/Debug</text>
<text text-anchor="middle" x="1605.5" y="-142.5" font-family="Helvetica,sans-Serif" font-size="10.00">/qt/moc/moc_ParentEntry.cpp</text>
</a>
</g>
</g>
<!-- Node20&#45;&gt;Node22 -->
<g id="edge24_Node000020_Node000022" class="edge">
<title>Node20&#45;&gt;Node22</title>
<g id="a_edge24_Node000020_Node000022"><a xlink:title=" ">
<path fill="none" stroke="#63b8ff" d="M1642.33,-200.67C1634.46,-190.48 1624.78,-177.96 1617.32,-168.3"/>
<polygon fill="#63b8ff" stroke="#63b8ff" points="1639.38,-202.57 1648.27,-208.35 1644.92,-198.29 1639.38,-202.57"/>
</a>
</g>
</g>
<!-- Node24&#45;&gt;Node4 -->
<g id="edge33_Node000024_Node000004" class="edge">
<title>Node24&#45;&gt;Node4</title>
<g id="a_edge33_Node000024_Node000004"><a xlink:title=" ">
<path fill="none" stroke="#63b8ff" d="M485.99,-207.16C427.03,-194.37 334.23,-174.22 279.97,-162.44"/>
<polygon fill="#63b8ff" stroke="#63b8ff" points="484.95,-210.52 495.47,-209.22 486.44,-203.68 484.95,-210.52"/>
</a>
</g>
</g>
<!-- Node24&#45;&gt;Node5 -->
<g id="edge29_Node000024_Node000005" class="edge">
<title>Node24&#45;&gt;Node5</title>
<g id="a_edge29_Node000024_Node000005"><a xlink:title=" ">
<path fill="none" stroke="#63b8ff" d="M567.03,-203.8C583.21,-194.17 604.06,-181.1 621.5,-168 638.62,-155.14 637.94,-144.7 657.5,-136 692.94,-120.25 935.7,-99.39 1054.41,-89.98"/>
<polygon fill="#63b8ff" stroke="#63b8ff" points="565.32,-200.75 558.47,-208.83 568.86,-206.79 565.32,-200.75"/>
</a>
</g>
</g>
<!-- Node24&#45;&gt;Node12 -->
<g id="edge27_Node000024_Node000012" class="edge">
<title>Node24&#45;&gt;Node12</title>
<g id="a_edge27_Node000024_Node000012"><a xlink:title=" ">
<path fill="none" stroke="#63b8ff" d="M532.33,-199.03C527.36,-186.89 521.25,-171.94 517.36,-162.44"/>
<polygon fill="#63b8ff" stroke="#63b8ff" points="529.03,-200.21 536.06,-208.14 535.51,-197.56 529.03,-200.21"/>
</a>
</g>
</g>
<!-- Node25 -->
<g id="Node000025" class="node">
<title>Node25</title>
<g id="a_Node000025"><a xlink:href="_data_base_8cpp.html" target="_top" xlink:title=" ">
<polygon fill="white" stroke="#666666" points="753.38,-94 631.62,-94 631.62,-74 753.38,-74 753.38,-94"/>
<text text-anchor="middle" x="692.5" y="-80.5" font-family="Helvetica,sans-Serif" font-size="10.00">TullipApp/DataBase.cpp</text>
</a>
</g>
</g>
<!-- Node24&#45;&gt;Node25 -->
<g id="edge28_Node000024_Node000025" class="edge">
<title>Node24&#45;&gt;Node25</title>
<g id="a_edge28_Node000024_Node000025"><a xlink:title=" ">
<path fill="none" stroke="#63b8ff" d="M556.83,-201.53C573.31,-184.23 599.77,-157.32 624.5,-136 642.5,-120.49 664.75,-104.31 678.79,-94.45"/>
<polygon fill="#63b8ff" stroke="#63b8ff" points="554.55,-198.84 550.23,-208.52 559.64,-203.65 554.55,-198.84"/>
</a>
</g>
</g>
<!-- Node24&#45;&gt;Node26 -->
<g id="edge30_Node000024_Node000026" class="edge">
<title>Node24&#45;&gt;Node26</title>
<g id="a_edge30_Node000024_Node000026"><a xlink:title=" ">
<path fill="none" stroke="#63b8ff" d="M576.71,-205.65C605.92,-194.88 647.04,-179.72 677.66,-168.43"/>
<polygon fill="#63b8ff" stroke="#63b8ff" points="575.74,-202.28 567.57,-209.02 578.16,-208.84 575.74,-202.28"/>
</a>
</g>
</g>
<!-- Node26&#45;&gt;Node25 -->
<g id="edge31_Node000026_Node000025" class="edge">
<title>Node26&#45;&gt;Node25</title>
<g id="a_edge31_Node000026_Node000025"><a xlink:title=" ">
<path fill="none" stroke="#63b8ff" d="M709,-125.34C704.54,-114.42 699.61,-102.38 696.31,-94.32"/>
<polygon fill="#63b8ff" stroke="#63b8ff" points="705.64,-126.36 712.66,-134.29 712.12,-123.71 705.64,-126.36"/>
</a>
</g>
</g>
<!-- Node27 -->
<g id="Node000027" class="node">
<title>Node27</title>
<g id="a_Node000027"><a xlink:href="_data_base___parser___functions_8cpp.html" target="_top" xlink:title=" ">
<polygon fill="white" stroke="#666666" points="887.75,-100 771.25,-100 771.25,-68 887.75,-68 887.75,-100"/>
<text text-anchor="start" x="779.25" y="-86.5" font-family="Helvetica,sans-Serif" font-size="10.00">TullipApp/DataBase</text>
<text text-anchor="middle" x="829.5" y="-74.5" font-family="Helvetica,sans-Serif" font-size="10.00">_Parser_Functions.cpp</text>
</a>
</g>
</g>
<!-- Node26&#45;&gt;Node27 -->
<g id="edge32_Node000026_Node000027" class="edge">
<title>Node26&#45;&gt;Node27</title>
<g id="a_edge32_Node000026_Node000027"><a xlink:title=" ">
<path fill="none" stroke="#63b8ff" d="M754.84,-129.8C770.79,-120.23 789.28,-109.13 803.87,-100.38"/>
<polygon fill="#63b8ff" stroke="#63b8ff" points="753.36,-126.6 746.59,-134.75 756.96,-132.6 753.36,-126.6"/>
</a>
</g>
</g>
<!-- Node28&#45;&gt;Node5 -->
<g id="edge36_Node000028_Node000005" class="edge">
<title>Node28&#45;&gt;Node5</title>
<g id="a_edge36_Node000028_Node000005"><a xlink:title=" ">
<path fill="none" stroke="#63b8ff" d="M1978.28,-272.78C2040.04,-263.26 2109.45,-243.52 2076.5,-204 2019.21,-135.28 1390.41,-98.36 1184.41,-88.04"/>
<polygon fill="#63b8ff" stroke="#63b8ff" points="1978.16,-269.26 1968.76,-274.16 1979.16,-276.19 1978.16,-269.26"/>
</a>
</g>
</g>
<!-- Node29 -->
<g id="Node000029" class="node">
<title>Node29</title>
<g id="a_Node000029"><a xlink:href="_employee_dialog_8cpp.html" target="_top" xlink:title=" ">
<polygon fill="white" stroke="#666666" points="2067.25,-230 1917.75,-230 1917.75,-210 2067.25,-210 2067.25,-230"/>
<text text-anchor="middle" x="1992.5" y="-216.5" font-family="Helvetica,sans-Serif" font-size="10.00">TullipApp/EmployeeDialog.cpp</text>
</a>
</g>
</g>
<!-- Node28&#45;&gt;Node29 -->
<g id="edge37_Node000028_Node000029" class="edge">
<title>Node28&#45;&gt;Node29</title>
<g id="a_edge37_Node000028_Node000029"><a xlink:title=" ">
<path fill="none" stroke="#63b8ff" d="M1921.99,-265.54C1939.64,-254.39 1962.88,-239.71 1977.76,-230.31"/>
<polygon fill="#63b8ff" stroke="#63b8ff" points="1920.21,-262.52 1913.62,-270.82 1923.95,-268.44 1920.21,-262.52"/>
</a>
</g>
</g>
<!-- Node30 -->
<g id="Node000030" class="node">
<title>Node30</title>
<g id="a_Node000030"><a xlink:href="moc___employee_dialog_8cpp.html" target="_top" xlink:title=" ">
<polygon fill="white" stroke="#666666" points="1899.5,-236 1733.5,-236 1733.5,-204 1899.5,-204 1899.5,-236"/>
<text text-anchor="start" x="1741.5" y="-222.5" font-family="Helvetica,sans-Serif" font-size="10.00">TullipApp/x64/Debug</text>
<text text-anchor="middle" x="1816.5" y="-210.5" font-family="Helvetica,sans-Serif" font-size="10.00">/qt/moc/moc_EmployeeDialog.cpp</text>
</a>
</g>
</g>
<!-- Node28&#45;&gt;Node30 -->
<g id="edge38_Node000028_Node000030" class="edge">
<title>Node28&#45;&gt;Node30</title>
<g id="a_edge38_Node000028_Node000030"><a xlink:title=" ">
<path fill="none" stroke="#63b8ff" d="M1875.6,-264.78C1863.67,-255.94 1849,-245.07 1837.25,-236.37"/>
<polygon fill="#63b8ff" stroke="#63b8ff" points="1873.51,-267.58 1883.63,-270.72 1877.68,-261.96 1873.51,-267.58"/>
</a>
</g>
</g>
<!-- Node31&#45;&gt;Node5 -->
<g id="edge40_Node000031_Node000005" class="edge">
<title>Node31&#45;&gt;Node5</title>
<g id="a_edge40_Node000031_Node000005"><a xlink:title=" ">
<path fill="none" stroke="#63b8ff" d="M2127.88,-260.67C2122.13,-243.39 2111.58,-219.07 2094.5,-204 2027.24,-144.67 1992.32,-154.19 1904.5,-136 1767.51,-107.62 1347.02,-92 1184.53,-86.89"/>
<polygon fill="#63b8ff" stroke="#63b8ff" points="2124.48,-261.53 2130.74,-270.08 2131.18,-259.5 2124.48,-261.53"/>
</a>
</g>
</g>
<!-- Node32 -->
<g id="Node000032" class="node">
<title>Node32</title>
<g id="a_Node000032"><a xlink:href="_employee_entry_8cpp.html" target="_top" xlink:title=" ">
<polygon fill="white" stroke="#666666" points="2305.62,-230 2161.38,-230 2161.38,-210 2305.62,-210 2305.62,-230"/>
<text text-anchor="middle" x="2233.5" y="-216.5" font-family="Helvetica,sans-Serif" font-size="10.00">TullipApp/EmployeeEntry.cpp</text>
</a>
</g>
</g>
<!-- Node31&#45;&gt;Node32 -->
<g id="edge41_Node000031_Node000032" class="edge">
<title>Node31&#45;&gt;Node32</title>
<g id="a_edge41_Node000031_Node000032"><a xlink:title=" ">
<path fill="none" stroke="#63b8ff" d="M2158.75,-265.85C2177.4,-254.66 2202.17,-239.8 2217.98,-230.31"/>
<polygon fill="#63b8ff" stroke="#63b8ff" points="2157.2,-262.7 2150.42,-270.85 2160.8,-268.7 2157.2,-262.7"/>
</a>
</g>
</g>
<!-- Node33 -->
<g id="Node000033" class="node">
<title>Node33</title>
<g id="a_Node000033"><a xlink:href="moc___employee_entry_8cpp.html" target="_top" xlink:title=" ">
<polygon fill="white" stroke="#666666" points="2484.88,-236 2324.12,-236 2324.12,-204 2484.88,-204 2484.88,-236"/>
<text text-anchor="start" x="2332.12" y="-222.5" font-family="Helvetica,sans-Serif" font-size="10.00">TullipApp/x64/Debug</text>
<text text-anchor="middle" x="2404.5" y="-210.5" font-family="Helvetica,sans-Serif" font-size="10.00">/qt/moc/moc_EmployeeEntry.cpp</text>
</a>
</g>
</g>
<!-- Node31&#45;&gt;Node33 -->
<g id="edge42_Node000031_Node000033" class="edge">
<title>Node31&#45;&gt;Node33</title>
<g id="a_edge42_Node000031_Node000033"><a xlink:title=" ">
<path fill="none" stroke="#63b8ff" d="M2187.32,-269.08C2229.59,-259.73 2288.78,-246.62 2334.69,-236.46"/>
<polygon fill="#63b8ff" stroke="#63b8ff" points="2186.63,-265.65 2177.62,-271.23 2188.14,-272.49 2186.63,-265.65"/>
</a>
</g>
</g>
<!-- Node34&#45;&gt;Node24 -->
<g id="edge44_Node000034_Node000024" class="edge">
<title>Node34&#45;&gt;Node24</title>
<g id="a_edge44_Node000034_Node000024"><a xlink:title=" ">
<path fill="none" stroke="#63b8ff" d="M670.86,-267.84C639.36,-256.52 594.7,-240.47 566.69,-230.41"/>
<polygon fill="#63b8ff" stroke="#63b8ff" points="669.39,-271.03 679.98,-271.11 671.75,-264.44 669.39,-271.03"/>
</a>
</g>
</g>
<!-- Node34&#45;&gt;Node26 -->
<g id="edge45_Node000034_Node000026" class="edge">
<title>Node34&#45;&gt;Node26</title>
<g id="a_edge45_Node000034_Node000026"><a xlink:title=" ">
<path fill="none" stroke="#63b8ff" d="M674.51,-266.13C662.49,-258.88 650.2,-248.9 643.5,-236 636.95,-223.38 636.81,-216.55 643.5,-204 651.87,-188.3 667.47,-176.57 682.36,-168.35"/>
<polygon fill="#63b8ff" stroke="#63b8ff" points="672.65,-269.1 683.1,-270.85 676.02,-262.96 672.65,-269.1"/>
</a>
</g>
</g>
<!-- Node35 -->
<g id="Node000035" class="node">
<title>Node35</title>
<g id="a_Node000035"><a xlink:href="_lesson_8cpp.html" target="_top" xlink:title=" ">
<polygon fill="white" stroke="#666666" points="762.38,-230 652.62,-230 652.62,-210 762.38,-210 762.38,-230"/>
<text text-anchor="middle" x="707.5" y="-216.5" font-family="Helvetica,sans-Serif" font-size="10.00">TullipApp/Lesson.cpp</text>
</a>
</g>
</g>
<!-- Node34&#45;&gt;Node35 -->
<g id="edge46_Node000034_Node000035" class="edge">
<title>Node34&#45;&gt;Node35</title>
<g id="a_edge46_Node000034_Node000035"><a xlink:title=" ">
<path fill="none" stroke="#63b8ff" d="M707.5,-260.25C707.5,-249.97 707.5,-238.09 707.5,-230.11"/>
<polygon fill="#63b8ff" stroke="#63b8ff" points="704,-260.11 707.5,-270.11 711,-260.11 704,-260.11"/>
</a>
</g>
</g>
<!-- Node36 -->
<g id="Node000036" class="node">
<title>Node36</title>
<g id="a_Node000036"><a xlink:href="_lesson_entry_8h.html" target="_top" xlink:title="Defines the LessonEntry class for managing the graphical representation of a lesson in the GUI.">
<polygon fill="white" stroke="#666666" points="940.38,-230 818.62,-230 818.62,-210 940.38,-210 940.38,-230"/>
<text text-anchor="middle" x="879.5" y="-216.5" font-family="Helvetica,sans-Serif" font-size="10.00">TullipApp/LessonEntry.h</text>
</a>
</g>
</g>
<!-- Node34&#45;&gt;Node36 -->
<g id="edge47_Node000034_Node000036" class="edge">
<title>Node34&#45;&gt;Node36</title>
<g id="a_edge47_Node000034_Node000036"><a xlink:title=" ">
<path fill="none" stroke="#63b8ff" d="M745.23,-267.84C777.68,-256.52 823.67,-240.47 852.53,-230.41"/>
<polygon fill="#63b8ff" stroke="#63b8ff" points="744.09,-264.53 735.8,-271.13 746.4,-271.14 744.09,-264.53"/>
</a>
</g>
</g>
<!-- Node36&#45;&gt;Node5 -->
<g id="edge48_Node000036_Node000005" class="edge">
<title>Node36&#45;&gt;Node5</title>
<g id="a_edge48_Node000036_Node000005"><a xlink:title=" ">
<path fill="none" stroke="#63b8ff" d="M870.68,-199.12C864.01,-180.69 858.2,-153.56 872.5,-136 895.07,-108.29 989.3,-95.18 1054.62,-89.32"/>
<polygon fill="#63b8ff" stroke="#63b8ff" points="867.33,-200.17 874.32,-208.14 873.83,-197.55 867.33,-200.17"/>
</a>
</g>
</g>
<!-- Node37 -->
<g id="Node000037" class="node">
<title>Node37</title>
<g id="a_Node000037"><a xlink:href="_lesson_entry_8cpp.html" target="_top" xlink:title=" ">
<polygon fill="white" stroke="#666666" points="1180.62,-162 1048.38,-162 1048.38,-142 1180.62,-142 1180.62,-162"/>
<text text-anchor="middle" x="1114.5" y="-148.5" font-family="Helvetica,sans-Serif" font-size="10.00">TullipApp/LessonEntry.cpp</text>
</a>
</g>
</g>
<!-- Node36&#45;&gt;Node37 -->
<g id="edge49_Node000036_Node000037" class="edge">
<title>Node36&#45;&gt;Node37</title>
<g id="a_edge49_Node000036_Node000037"><a xlink:title=" ">
<path fill="none" stroke="#63b8ff" d="M924.23,-206.44C969.89,-193.61 1039.74,-174 1080.89,-162.44"/>
<polygon fill="#63b8ff" stroke="#63b8ff" points="923.31,-203.06 914.63,-209.13 925.2,-209.8 923.31,-203.06"/>
</a>
</g>
</g>
<!-- Node38 -->
<g id="Node000038" class="node">
<title>Node38</title>
<g id="a_Node000038"><a xlink:href="moc___lesson_entry_8cpp.html" target="_top" xlink:title=" ">
<polygon fill="white" stroke="#666666" points="1029.88,-168 881.12,-168 881.12,-136 1029.88,-136 1029.88,-168"/>
<text text-anchor="start" x="889.12" y="-154.5" font-family="Helvetica,sans-Serif" font-size="10.00">TullipApp/x64/Debug</text>
<text text-anchor="middle" x="955.5" y="-142.5" font-family="Helvetica,sans-Serif" font-size="10.00">/qt/moc/moc_LessonEntry.cpp</text>
</a>
</g>
</g>
<!-- Node36&#45;&gt;Node38 -->
<g id="edge50_Node000036_Node000038" class="edge">
<title>Node36&#45;&gt;Node38</title>
<g id="a_edge50_Node000036_Node000038"><a xlink:title=" ">
<path fill="none" stroke="#63b8ff" d="M898.82,-202.22C910.84,-191.78 926.19,-178.45 937.88,-168.3"/>
<polygon fill="#63b8ff" stroke="#63b8ff" points="896.79,-199.35 891.53,-208.55 901.38,-204.64 896.79,-199.35"/>
</a>
</g>
</g>
</g>
</svg>
