<?xml version="1.0" encoding="UTF-8" standalone="no"?>
<!DOCTYPE svg PUBLIC "-//W3C//DTD SVG 1.1//EN"
 "http://www.w3.org/Graphics/SVG/1.1/DTD/svg11.dtd">
<!-- Generated by graphviz version 12.2.1 (20241206.2353)
 -->
<!-- Title: Time::operator&lt; Pages: 1 -->
<svg width="494pt" height="142pt"
 viewBox="0.00 0.00 494.25 142.00" xmlns="http://www.w3.org/2000/svg" xmlns:xlink="http://www.w3.org/1999/xlink">
<g id="graph0" class="graph" transform="scale(1 1) rotate(0) translate(4 138)">
<title>Time::operator&lt;</title>
<!-- Node1 -->
<g id="Node000001" class="node">
<title>Node1</title>
<g id="a_Node000001"><a xlink:title=" ">
<polygon fill="#999999" stroke="#666666" points="85,-115 0,-115 0,-95 85,-95 85,-115"/>
<text text-anchor="middle" x="42.5" y="-101.5" font-family="Helvetica,sans-Serif" font-size="10.00">Time::operator&lt;</text>
</a>
</g>
</g>
<!-- Node2 -->
<g id="Node000002" class="node">
<title>Node2</title>
<g id="a_Node000002"><a xlink:href="class_time.html#a0eedb4e626b8e3fdcaf63519b86ea778" target="_top" xlink:title="Default constructor.">
<polygon fill="white" stroke="#666666" points="203.38,-134 137.88,-134 137.88,-114 203.38,-114 203.38,-134"/>
<text text-anchor="middle" x="170.62" y="-120.5" font-family="Helvetica,sans-Serif" font-size="10.00">Time::Time</text>
</a>
</g>
</g>
<!-- Node1&#45;&gt;Node2 -->
<g id="edge1_Node000001_Node000002" class="edge">
<title>Node1&#45;&gt;Node2</title>
<g id="a_edge1_Node000001_Node000002"><a xlink:title=" ">
<path fill="none" stroke="#63b8ff" d="M85.5,-111.33C98.58,-113.3 113.02,-115.47 126.2,-117.46"/>
<polygon fill="#63b8ff" stroke="#63b8ff" points="125.48,-120.89 135.89,-118.92 126.52,-113.97 125.48,-120.89"/>
</a>
</g>
</g>
<!-- Node3 -->
<g id="Node000003" class="node">
<title>Node3</title>
<g id="a_Node000003"><a xlink:href="class_time.html#a9ef9536d0f26494fbaf22d9c15972c4e" target="_top" xlink:title="Updates the time zone.">
<polygon fill="white" stroke="#666666" points="220.25,-96 121,-96 121,-76 220.25,-76 220.25,-96"/>
<text text-anchor="middle" x="170.62" y="-82.5" font-family="Helvetica,sans-Serif" font-size="10.00">Time::update_zone</text>
</a>
</g>
</g>
<!-- Node1&#45;&gt;Node3 -->
<g id="edge2_Node000001_Node000003" class="edge">
<title>Node1&#45;&gt;Node3</title>
<g id="a_edge2_Node000001_Node000003"><a xlink:title=" ">
<path fill="none" stroke="#63b8ff" d="M85.5,-98.67C93.19,-97.51 101.36,-96.28 109.47,-95.06"/>
<polygon fill="#63b8ff" stroke="#63b8ff" points="109.96,-98.53 119.33,-93.58 108.92,-91.61 109.96,-98.53"/>
</a>
</g>
</g>
<!-- Node4 -->
<g id="Node000004" class="node">
<title>Node4</title>
<g id="a_Node000004"><a xlink:href="class_time.html#a3d751c79781658bcd55d53167ef3ffa6" target="_top" xlink:title="Sets the time zone.">
<polygon fill="white" stroke="#666666" points="346.5,-115 263,-115 263,-95 346.5,-95 346.5,-115"/>
<text text-anchor="middle" x="304.75" y="-101.5" font-family="Helvetica,sans-Serif" font-size="10.00">Time::set_zone</text>
</a>
</g>
</g>
<!-- Node3&#45;&gt;Node4 -->
<g id="edge3_Node000003_Node000004" class="edge">
<title>Node3&#45;&gt;Node4</title>
<g id="a_edge3_Node000003_Node000004"><a xlink:title=" ">
<path fill="none" stroke="#63b8ff" d="M220.45,-93.02C230.6,-94.48 241.33,-96.02 251.59,-97.5"/>
<polygon fill="#63b8ff" stroke="#63b8ff" points="251.03,-100.95 261.42,-98.91 252.02,-94.03 251.03,-100.95"/>
</a>
</g>
</g>
<!-- Node5 -->
<g id="Node000005" class="node">
<title>Node5</title>
<g id="a_Node000005"><a xlink:href="class_time.html#a6a854d886badd1e186efeb6cbd757857" target="_top" xlink:title="Updates the time based on intervals of 15 minutes.">
<polygon fill="white" stroke="#666666" points="353.25,-77 256.25,-77 256.25,-57 353.25,-57 353.25,-77"/>
<text text-anchor="middle" x="304.75" y="-63.5" font-family="Helvetica,sans-Serif" font-size="10.00">Time::update_time</text>
</a>
</g>
</g>
<!-- Node3&#45;&gt;Node5 -->
<g id="edge4_Node000003_Node000005" class="edge">
<title>Node3&#45;&gt;Node5</title>
<g id="a_edge4_Node000003_Node000005"><a xlink:title=" ">
<path fill="none" stroke="#63b8ff" d="M220.45,-78.98C228.34,-77.84 236.59,-76.66 244.7,-75.49"/>
<polygon fill="#63b8ff" stroke="#63b8ff" points="245.11,-78.97 254.51,-74.08 244.11,-72.04 245.11,-78.97"/>
</a>
</g>
</g>
<!-- Node6 -->
<g id="Node000006" class="node">
<title>Node6</title>
<g id="a_Node000006"><a xlink:href="class_time.html#adf39a26857eb05cb2cdb7fc716b37446" target="_top" xlink:title="Gets the hours of the time.">
<polygon fill="white" stroke="#666666" points="481,-134 394.5,-134 394.5,-114 481,-114 481,-134"/>
<text text-anchor="middle" x="437.75" y="-120.5" font-family="Helvetica,sans-Serif" font-size="10.00">Time::get_hours</text>
</a>
</g>
</g>
<!-- Node5&#45;&gt;Node6 -->
<g id="edge5_Node000005_Node000006" class="edge">
<title>Node5&#45;&gt;Node6</title>
<g id="a_edge5_Node000005_Node000006"><a xlink:title=" ">
<path fill="none" stroke="#63b8ff" d="M333.34,-77.47C339.92,-80.12 346.88,-83.06 353.25,-86 369.67,-93.59 372.83,-97.41 389.25,-105 392.33,-106.43 395.56,-107.85 398.81,-109.24"/>
<polygon fill="#63b8ff" stroke="#63b8ff" points="397.19,-112.36 407.76,-112.95 399.87,-105.89 397.19,-112.36"/>
</a>
</g>
</g>
<!-- Node7 -->
<g id="Node000007" class="node">
<title>Node7</title>
<g id="a_Node000007"><a xlink:href="class_time.html#ad6e9f40abd0fc0dd6a7fc5bf8c624585" target="_top" xlink:title="Gets the minutes of the time.">
<polygon fill="white" stroke="#666666" points="486.25,-96 389.25,-96 389.25,-76 486.25,-76 486.25,-96"/>
<text text-anchor="middle" x="437.75" y="-82.5" font-family="Helvetica,sans-Serif" font-size="10.00">Time::get_minutes</text>
</a>
</g>
</g>
<!-- Node5&#45;&gt;Node7 -->
<g id="edge6_Node000005_Node000007" class="edge">
<title>Node5&#45;&gt;Node7</title>
<g id="a_edge6_Node000005_Node000007"><a xlink:title=" ">
<path fill="none" stroke="#63b8ff" d="M353.41,-73.91C361.27,-75.05 369.5,-76.25 377.59,-77.42"/>
<polygon fill="#63b8ff" stroke="#63b8ff" points="377,-80.87 387.4,-78.84 378.01,-73.94 377,-80.87"/>
</a>
</g>
</g>
<!-- Node8 -->
<g id="Node000008" class="node">
<title>Node8</title>
<g id="a_Node000008"><a xlink:href="class_time.html#aabfa0dd6f7e7e911246924aa4149c355" target="_top" xlink:title="Sets the hours of the time.">
<polygon fill="white" stroke="#666666" points="481,-58 394.5,-58 394.5,-38 481,-38 481,-58"/>
<text text-anchor="middle" x="437.75" y="-44.5" font-family="Helvetica,sans-Serif" font-size="10.00">Time::set_hours</text>
</a>
</g>
</g>
<!-- Node5&#45;&gt;Node8 -->
<g id="edge7_Node000005_Node000008" class="edge">
<title>Node5&#45;&gt;Node8</title>
<g id="a_edge7_Node000005_Node000008"><a xlink:title=" ">
<path fill="none" stroke="#63b8ff" d="M353.41,-60.09C362.98,-58.7 373.1,-57.23 382.87,-55.81"/>
<polygon fill="#63b8ff" stroke="#63b8ff" points="383.22,-59.3 392.61,-54.4 382.22,-52.37 383.22,-59.3"/>
</a>
</g>
</g>
<!-- Node9 -->
<g id="Node000009" class="node">
<title>Node9</title>
<g id="a_Node000009"><a xlink:href="class_time.html#a609f9d7c36ccf261eadadb4545dc3e01" target="_top" xlink:title="Sets the minutes of the time.">
<polygon fill="white" stroke="#666666" points="486.25,-20 389.25,-20 389.25,0 486.25,0 486.25,-20"/>
<text text-anchor="middle" x="437.75" y="-6.5" font-family="Helvetica,sans-Serif" font-size="10.00">Time::set_minutes</text>
</a>
</g>
</g>
<!-- Node5&#45;&gt;Node9 -->
<g id="edge8_Node000005_Node000009" class="edge">
<title>Node5&#45;&gt;Node9</title>
<g id="a_edge8_Node000005_Node000009"><a xlink:title=" ">
<path fill="none" stroke="#63b8ff" d="M327.95,-56.56C344.71,-48.76 368.31,-37.95 389.25,-29 392.6,-27.57 396.09,-26.11 399.6,-24.67"/>
<polygon fill="#63b8ff" stroke="#63b8ff" points="400.68,-28.01 408.63,-21 398.05,-21.52 400.68,-28.01"/>
</a>
</g>
</g>
</g>
</svg>
