<?xml version="1.0" encoding="UTF-8" standalone="no"?>
<!DOCTYPE svg PUBLIC "-//W3C//DTD SVG 1.1//EN"
 "http://www.w3.org/Graphics/SVG/1.1/DTD/svg11.dtd">
<!-- Generated by graphviz version 12.2.1 (20241206.2353)
 -->
<!-- Title: Time::get_time_string Pages: 1 -->
<!--zoomable 192 -->

<svg id="main" version="1.1" xmlns="http://www.w3.org/2000/svg" xmlns:xlink="http://www.w3.org/1999/xlink" xml:space="preserve" onload="init(evt)">

<style type="text/css"><![CDATA[
.node, .edge {opacity: 0.7;}
.node.selected, .edge.selected {opacity: 1;}
.edge:hover path { stroke: red; }
.edge:hover polygon { stroke: red; fill: red; }
]]></style>

<defs>
  <circle id="rim" cx="0" cy="0" r="7"/>
  <circle id="rim2" cx="0" cy="0" r="3.5"/>
  <g id="zoomPlus">
    <use xlink:href="#rim" fill="#404040"><set attributeName="fill" to="#808080" begin="zoomplus.mouseover" end="zoomplus.mouseout"/></use>
    <path d="M-4,0h8M0,-4v8" fill="none" stroke="white" stroke-width="1.5" pointer-events="none"/>
  </g>
  <g id="zoomMin">
    <use xlink:href="#rim" fill="#404040"><set attributeName="fill" to="#808080" begin="zoomminus.mouseover" end="zoomminus.mouseout"/></use>
    <path d="M-4,0h8" fill="none" stroke="white" stroke-width="1.5" pointer-events="none"/>
  </g>
  <g id="arrowUp" transform="translate(30 24)">
    <use xlink:href="#rim"/>
    <path pointer-events="none" fill="none" stroke="white" stroke-width="1.5" d="M0,-3.0v7 M-2.5,-0.5L0,-3.0L2.5,-0.5"/>
  </g>
  <g id="arrowRight" transform="rotate(90) translate(36 -43)">
    <use xlink:href="#rim"/>
    <path pointer-events="none" fill="none" stroke="white" stroke-width="1.5" d="M0,-3.0v7 M-2.5,-0.5L0,-3.0L2.5,-0.5"/>
  </g>
  <g id="arrowDown" transform="rotate(180) translate(-30 -48)">
    <use xlink:href="#rim"/>
    <path pointer-events="none" fill="none" stroke="white" stroke-width="1.5" d="M0,-3.0v7 M-2.5,-0.5L0,-3.0L2.5,-0.5"/>
  </g>
  <g id="arrowLeft" transform="rotate(270) translate(-36 17)">
    <use xlink:href="#rim"/>
    <path pointer-events="none" fill="none" stroke="white" stroke-width="1.5" d="M0,-3.0v7 M-2.5,-0.5L0,-3.0L2.5,-0.5"/>
  </g>
  <g id="resetDef">
    <use xlink:href="#rim2" fill="#404040"><set attributeName="fill" to="#808080" begin="reset.mouseover" end="reset.mouseout"/></use>
  </g>
</defs>
<script type="application/ecmascript">
var viewWidth = 559;
var viewHeight = 192;
var sectionId = 'dynsection-13';
</script>
<script type="application/ecmascript" xlink:href="svg.min.js"/>
<svg id="graph" class="graph">
<g id="viewport">
<title>Time::get_time_string</title>
<!-- Node1 -->
<g id="Node000001" class="node">
<title>Node1</title>
<g id="a_Node000001"><a xlink:title="Gets the time as a string.">
<polygon fill="#999999" stroke="#666666" points="550.75,-115 440.25,-115 440.25,-95 550.75,-95 550.75,-115"/>
<text text-anchor="middle" x="495.5" y="-101.5" font-family="Helvetica,sans-Serif" font-size="10.00">Time::get_time_string</text>
</a>
</g>
</g>
<!-- Node2 -->
<g id="Node000002" class="node">
<title>Node2</title>
<g id="a_Node000002"><a xlink:href="class_date_time.html#a7570508ce1e761a7eb2a9ca938b2c3eb" target="_top" xlink:title="Gets the combined date and time as a string.">
<polygon fill="white" stroke="#666666" points="400.5,-184 298.25,-184 298.25,-152 400.5,-152 400.5,-184"/>
<text text-anchor="start" x="306.25" y="-170.5" font-family="Helvetica,sans-Serif" font-size="10.00">DateTime::get_date</text>
<text text-anchor="middle" x="349.38" y="-158.5" font-family="Helvetica,sans-Serif" font-size="10.00">_time_string</text>
</a>
</g>
</g>
<!-- Node1&#45;&gt;Node2 -->
<g id="edge1_Node000001_Node000002" class="edge">
<title>Node1&#45;&gt;Node2</title>
<g id="a_edge1_Node000001_Node000002"><a xlink:title=" ">
<path fill="none" stroke="#63b8ff" d="M460.29,-119.95C438.56,-129.45 410.4,-141.76 388.03,-151.54"/>
<polygon fill="#63b8ff" stroke="#63b8ff" points="461.55,-123.22 469.31,-116.01 458.75,-116.81 461.55,-123.22"/>
</a>
</g>
</g>
<!-- Node3 -->
<g id="Node000003" class="node">
<title>Node3</title>
<g id="a_Node000003"><a xlink:href="class_schedule.html#a2d68fb0c1961d13c9560cc0ac52e649a" target="_top" xlink:title="Outputs the Schedule to a stream.">
<polygon fill="white" stroke="#666666" points="404.25,-134 294.5,-134 294.5,-114 404.25,-114 404.25,-134"/>
<text text-anchor="middle" x="349.38" y="-120.5" font-family="Helvetica,sans-Serif" font-size="10.00">Schedule::operator&lt;&lt;</text>
</a>
</g>
</g>
<!-- Node1&#45;&gt;Node3 -->
<g id="edge2_Node000001_Node000003" class="edge">
<title>Node1&#45;&gt;Node3</title>
<g id="a_edge2_Node000001_Node000003"><a xlink:title=" ">
<path fill="none" stroke="#63b8ff" d="M428.67,-113.68C420.57,-114.75 412.36,-115.83 404.46,-116.87"/>
<polygon fill="#63b8ff" stroke="#63b8ff" points="429.06,-117.16 438.51,-112.38 428.14,-110.22 429.06,-117.16"/>
</a>
</g>
</g>
<!-- Node4 -->
<g id="Node000004" class="node">
<title>Node4</title>
<g id="a_Node000004"><a xlink:href="class_time.html#a87380d6b7a9172e7b855ae096a6970b1" target="_top" xlink:title="Prints the time in a long format.">
<polygon fill="white" stroke="#666666" points="392.25,-96 306.5,-96 306.5,-76 392.25,-76 392.25,-96"/>
<text text-anchor="middle" x="349.38" y="-82.5" font-family="Helvetica,sans-Serif" font-size="10.00">Time::print_long</text>
</a>
</g>
</g>
<!-- Node1&#45;&gt;Node4 -->
<g id="edge3_Node000001_Node000004" class="edge">
<title>Node1&#45;&gt;Node4</title>
<g id="a_edge3_Node000001_Node000004"><a xlink:title=" ">
<path fill="none" stroke="#63b8ff" d="M428.76,-96.33C416.38,-94.7 403.76,-93.04 392.36,-91.53"/>
<polygon fill="#63b8ff" stroke="#63b8ff" points="428.14,-99.78 438.51,-97.62 429.06,-92.84 428.14,-99.78"/>
</a>
</g>
</g>
<!-- Node6 -->
<g id="Node000006" class="node">
<title>Node6</title>
<g id="a_Node000006"><a xlink:href="class_time.html#a65e4f673e7176b2abc162aab4ae267dc" target="_top" xlink:title="Prints the time in a short format.">
<polygon fill="white" stroke="#666666" points="394.12,-58 304.62,-58 304.62,-38 394.12,-38 394.12,-58"/>
<text text-anchor="middle" x="349.38" y="-44.5" font-family="Helvetica,sans-Serif" font-size="10.00">Time::print_short</text>
</a>
</g>
</g>
<!-- Node1&#45;&gt;Node6 -->
<g id="edge5_Node000001_Node000006" class="edge">
<title>Node1&#45;&gt;Node6</title>
<g id="a_edge5_Node000001_Node000006"><a xlink:title=" ">
<path fill="none" stroke="#63b8ff" d="M460.46,-90.11C443.64,-82.89 422.98,-74.24 404.25,-67 396.76,-64.1 388.61,-61.14 380.98,-58.44"/>
<polygon fill="#63b8ff" stroke="#63b8ff" points="458.95,-93.26 469.51,-94.01 461.72,-86.84 458.95,-93.26"/>
</a>
</g>
</g>
<!-- Node5 -->
<g id="Node000005" class="node">
<title>Node5</title>
<g id="a_Node000005"><a xlink:href="class_date_time.html#a570826a1b0ae205508810b5cdcc6129d" target="_top" xlink:title="Prints the date and time in a long format.">
<polygon fill="white" stroke="#666666" points="256.62,-96 149.88,-96 149.88,-76 256.62,-76 256.62,-96"/>
<text text-anchor="middle" x="203.25" y="-82.5" font-family="Helvetica,sans-Serif" font-size="10.00">DateTime::print_long</text>
</a>
</g>
</g>
<!-- Node4&#45;&gt;Node5 -->
<g id="edge4_Node000004_Node000005" class="edge">
<title>Node4&#45;&gt;Node5</title>
<g id="a_edge4_Node000004_Node000005"><a xlink:title=" ">
<path fill="none" stroke="#63b8ff" d="M295.11,-86C282.63,-86 269.34,-86 256.89,-86"/>
<polygon fill="#63b8ff" stroke="#63b8ff" points="294.79,-89.5 304.79,-86 294.79,-82.5 294.79,-89.5"/>
</a>
</g>
</g>
<!-- Node7 -->
<g id="Node000007" class="node">
<title>Node7</title>
<g id="a_Node000007"><a xlink:href="class_time.html#a51bd0fe65976379c55deefc3a495680b" target="_top" xlink:title="Outputs the time to a stream.">
<polygon fill="white" stroke="#666666" points="248.75,-58 157.75,-58 157.75,-38 248.75,-38 248.75,-58"/>
<text text-anchor="middle" x="203.25" y="-44.5" font-family="Helvetica,sans-Serif" font-size="10.00">Time::operator&lt;&lt;</text>
</a>
</g>
</g>
<!-- Node6&#45;&gt;Node7 -->
<g id="edge6_Node000006_Node000007" class="edge">
<title>Node6&#45;&gt;Node7</title>
<g id="a_edge6_Node000006_Node000007"><a xlink:title=" ">
<path fill="none" stroke="#63b8ff" d="M292.94,-48C278.4,-48 262.9,-48 249,-48"/>
<polygon fill="#63b8ff" stroke="#63b8ff" points="292.84,-51.5 302.84,-48 292.84,-44.5 292.84,-51.5"/>
</a>
</g>
</g>
<!-- Node8 -->
<g id="Node000008" class="node">
<title>Node8</title>
<g id="a_Node000008"><a xlink:href="class_date_time.html#a6f14b6b8aff8237f5768a8c1f53c026a" target="_top" xlink:title="Prints the date and time in a short format.">
<polygon fill="white" stroke="#666666" points="258.5,-20 148,-20 148,0 258.5,0 258.5,-20"/>
<text text-anchor="middle" x="203.25" y="-6.5" font-family="Helvetica,sans-Serif" font-size="10.00">DateTime::print_short</text>
</a>
</g>
</g>
<!-- Node6&#45;&gt;Node8 -->
<g id="edge7_Node000006_Node000008" class="edge">
<title>Node6&#45;&gt;Node8</title>
<g id="a_edge7_Node000006_Node000008"><a xlink:title=" ">
<path fill="none" stroke="#63b8ff" d="M297.63,-34.62C279.99,-29.97 260.49,-24.83 243.88,-20.45"/>
<polygon fill="#63b8ff" stroke="#63b8ff" points="296.59,-37.96 307.15,-37.13 298.37,-31.2 296.59,-37.96"/>
</a>
</g>
</g>
<!-- Node9 -->
<g id="Node000009" class="node">
<title>Node9</title>
<g id="a_Node000009"><a xlink:href="class_date_time.html#a4428b32e7ec538b2fee1bfcf5f377f45" target="_top" xlink:title="Outputs the DateTime to a stream.">
<polygon fill="white" stroke="#666666" points="112,-20 0,-20 0,0 112,0 112,-20"/>
<text text-anchor="middle" x="56" y="-6.5" font-family="Helvetica,sans-Serif" font-size="10.00">DateTime::operator&lt;&lt;</text>
</a>
</g>
</g>
<!-- Node8&#45;&gt;Node9 -->
<g id="edge8_Node000008_Node000009" class="edge">
<title>Node8&#45;&gt;Node9</title>
<g id="a_edge8_Node000008_Node000009"><a xlink:title=" ">
<path fill="none" stroke="#63b8ff" d="M136.45,-10C128.38,-10 120.19,-10 112.29,-10"/>
<polygon fill="#63b8ff" stroke="#63b8ff" points="136.24,-13.5 146.24,-10 136.24,-6.5 136.24,-13.5"/>
</a>
</g>
</g>
</g>
</svg>

<g id="navigator" transform="translate(0 0)" fill="#404254">
  <rect fill="#f2f5e9" fill-opacity="0.5" stroke="#606060" stroke-width=".5" x="0" y="0" width="60" height="60"/>
  <use id="zoomplus" xlink:href="#zoomPlus" x="17" y="9" onmousedown="handleZoom(evt,'in')"/>
  <use id="zoomminus" xlink:href="#zoomMin" x="42" y="9" onmousedown="handleZoom(evt,'out')"/>
  <use id="reset" xlink:href="#resetDef" x="30" y="36" onmousedown="handleReset()"/>
   <use id="arrowup" xlink:href="#arrowUp" x="0" y="0" onmousedown="handlePan(0,-1)"/>
  <use id="arrowright" xlink:href="#arrowRight" x="0" y="0" onmousedown="handlePan(1,0)"/>
  <use id="arrowdown" xlink:href="#arrowDown" x="0" y="0" onmousedown="handlePan(0,1)"/>
  <use id="arrowleft" xlink:href="#arrowLeft" x="0" y="0" onmousedown="handlePan(-1,0)"/>
</g>
<svg viewBox="0 0 15 15" width="100%" height="30px" preserveAspectRatio="xMaxYMin meet">
 <g id="arrow_out" transform="scale(0.3 0.3)">
  <a xlink:href="class_time_a2c3329584afd2d3f9aeeeeaf7a1298af_icgraph_org.svg" target="_base">
   <rect id="button" ry="5" rx="5" y="6" x="6" height="38" width="38"
        fill="#f2f5e9" fill-opacity="0.5" stroke="#606060" stroke-width="1.0"/>
   <path id="arrow"
     d="M 11.500037,31.436501 C 11.940474,20.09759 22.043105,11.32322 32.158766,21.979434 L 37.068811,17.246167 C 37.068811,17.246167 37.088388,32 37.088388,32 L 22.160133,31.978069 C 22.160133,31.978069 26.997745,27.140456 26.997745,27.140456 C 18.528582,18.264221 13.291696,25.230495 11.500037,31.436501 z"
     style="fill:#404040;"/>
  </a>
 </g>
</svg>

<style type='text/css'>
<![CDATA[
[data-mouse-over-selected='false'] { opacity: 0.7; }
[data-mouse-over-selected='true']  { opacity: 1.0; }
]]>
</style>
<script type="application/ecmascript"><![CDATA[
document.addEventListener('DOMContentLoaded', (event) => {
  highlightEdges();
  highlightAdjacentNodes();
});
]]></script>
</svg>
