<?xml version="1.0" encoding="UTF-8" standalone="no"?>
<!DOCTYPE svg PUBLIC "-//W3C//DTD SVG 1.1//EN"
 "http://www.w3.org/Graphics/SVG/1.1/DTD/svg11.dtd">
<!-- Generated by graphviz version 12.2.1 (20241206.2353)
 -->
<!-- Title: Database::remove_employee Pages: 1 -->
<svg width="333pt" height="142pt"
 viewBox="0.00 0.00 332.50 142.00" xmlns="http://www.w3.org/2000/svg" xmlns:xlink="http://www.w3.org/1999/xlink">

<svg id="main" version="1.1" xmlns="http://www.w3.org/2000/svg" xmlns:xlink="http://www.w3.org/1999/xlink" xml:space="preserve">

<style type="text/css"><![CDATA[
.node, .edge {opacity: 0.7;}
.node.selected, .edge.selected {opacity: 1;}
.edge:hover path { stroke: red; }
.edge:hover polygon { stroke: red; fill: red; }
]]></style>
<script type="application/ecmascript" xlink:href="svg.min.js"/>
<svg id="graph" class="graph">
<g id="graph0" class="graph" transform="scale(1 1) rotate(0) translate(4 138)">
<title>Database::remove_employee</title>
<!-- Node1 -->
<g id="Node000001" class="node">
<title>Node1</title>
<g id="a_Node000001"><a xlink:title="Removes an employee from the database.">
<polygon fill="#999999" stroke="#666666" points="143.5,-77 0,-77 0,-57 143.5,-57 143.5,-77"/>
<text text-anchor="middle" x="71.75" y="-63.5" font-family="Helvetica,sans-Serif" font-size="10.00">Database::remove_employee</text>
</a>
</g>
</g>
<!-- Node2 -->
<g id="Node000002" class="node">
<title>Node2</title>
<g id="a_Node000002"><a xlink:href="class_person.html#a6b1fec00d8d1f5af1a2977dc3f5f9eb8" target="_top" xlink:title="Gets the first name of the person.">
<polygon fill="white" stroke="#666666" points="299.75,-134 204.25,-134 204.25,-114 299.75,-114 299.75,-134"/>
<text text-anchor="middle" x="252" y="-120.5" font-family="Helvetica,sans-Serif" font-size="10.00">Person::get_name</text>
</a>
</g>
</g>
<!-- Node1&#45;&gt;Node2 -->
<g id="edge1_Node000001_Node000002" class="edge">
<title>Node1&#45;&gt;Node2</title>
<g id="a_edge1_Node000001_Node000002"><a xlink:title=" ">
<path fill="none" stroke="#63b8ff" d="M100.19,-77.47C121.63,-85.48 152.26,-96.55 179.5,-105 185.63,-106.9 192.09,-108.79 198.52,-110.58"/>
<polygon fill="#63b8ff" stroke="#63b8ff" points="197.22,-113.86 207.79,-113.12 199.07,-107.11 197.22,-113.86"/>
</a>
</g>
</g>
<!-- Node3 -->
<g id="Node000003" class="node">
<title>Node3</title>
<g id="a_Node000003"><a xlink:href="class_person.html#a7b3c8db44a49c4ba8c4838e19a235613" target="_top" xlink:title="Gets the last name of the person.">
<polygon fill="white" stroke="#666666" points="306.5,-96 197.5,-96 197.5,-76 306.5,-76 306.5,-96"/>
<text text-anchor="middle" x="252" y="-82.5" font-family="Helvetica,sans-Serif" font-size="10.00">Person::get_surname</text>
</a>
</g>
</g>
<!-- Node1&#45;&gt;Node3 -->
<g id="edge2_Node000001_Node000003" class="edge">
<title>Node1&#45;&gt;Node3</title>
<g id="a_edge2_Node000001_Node000003"><a xlink:title=" ">
<path fill="none" stroke="#63b8ff" d="M143.97,-74.59C157.83,-76.07 172.3,-77.61 185.95,-79.07"/>
<polygon fill="#63b8ff" stroke="#63b8ff" points="185.38,-82.52 195.69,-80.1 186.12,-75.56 185.38,-82.52"/>
</a>
</g>
</g>
<!-- Node4 -->
<g id="Node000004" class="node">
<title>Node4</title>
<g id="a_Node000004"><a xlink:href="_helper___functions_8h.html#a781a4053c4ee41e8a6ed9daad0bbc4e0" target="_top" xlink:title="Removes all occurrences of a specific element from a vector.">
<polygon fill="white" stroke="#666666" points="283.62,-58 220.38,-58 220.38,-38 283.62,-38 283.62,-58"/>
<text text-anchor="middle" x="252" y="-44.5" font-family="Helvetica,sans-Serif" font-size="10.00">remove_all</text>
</a>
</g>
</g>
<!-- Node1&#45;&gt;Node4 -->
<g id="edge3_Node000001_Node000004" class="edge">
<title>Node1&#45;&gt;Node4</title>
<g id="a_edge3_Node000001_Node000004"><a xlink:title=" ">
<path fill="none" stroke="#63b8ff" d="M143.97,-59.41C165.81,-57.08 189.15,-54.59 208.44,-52.54"/>
<polygon fill="#63b8ff" stroke="#63b8ff" points="208.8,-56.02 218.38,-51.48 208.06,-49.06 208.8,-56.02"/>
</a>
</g>
</g>
<!-- Node5 -->
<g id="Node000005" class="node">
<title>Node5</title>
<g id="a_Node000005"><a xlink:href="class_database.html#a764574ac9e94b5ab7eb8d106b9113bec" target="_top" xlink:title="Removes an entry from a multimap.">
<polygon fill="white" stroke="#666666" points="324.5,-20 179.5,-20 179.5,0 324.5,0 324.5,-20"/>
<text text-anchor="middle" x="252" y="-6.5" font-family="Helvetica,sans-Serif" font-size="10.00">Database::remove_from_map</text>
</a>
</g>
</g>
<!-- Node1&#45;&gt;Node5 -->
<g id="edge4_Node000001_Node000005" class="edge">
<title>Node1&#45;&gt;Node5</title>
<g id="a_edge4_Node000001_Node000005"><a xlink:title=" ">
<path fill="none" stroke="#63b8ff" d="M100.19,-56.53C121.63,-48.52 152.26,-37.45 179.5,-29 185.63,-27.1 192.09,-25.21 198.52,-23.42"/>
<polygon fill="#63b8ff" stroke="#63b8ff" points="199.07,-26.89 207.79,-20.88 197.22,-20.14 199.07,-26.89"/>
</a>
</g>
</g>
</g>
</svg>
</svg>

<style type='text/css'>
<![CDATA[
[data-mouse-over-selected='false'] { opacity: 0.7; }
[data-mouse-over-selected='true']  { opacity: 1.0; }
]]>
</style>
<script type="application/ecmascript"><![CDATA[
document.addEventListener('DOMContentLoaded', (event) => {
  highlightEdges();
  highlightAdjacentNodes();
});
]]></script>
</svg>
