<?xml version="1.0" encoding="UTF-8" standalone="no"?>
<!DOCTYPE svg PUBLIC "-//W3C//DTD SVG 1.1//EN"
 "http://www.w3.org/Graphics/SVG/1.1/DTD/svg11.dtd">
<!-- Generated by graphviz version 12.2.1 (20241206.2353)
 -->
<!-- Title: ParentDialog::ParentDialog Pages: 1 -->
<svg width="577pt" height="78pt"
 viewBox="0.00 0.00 576.75 78.00" xmlns="http://www.w3.org/2000/svg" xmlns:xlink="http://www.w3.org/1999/xlink">
<g id="graph0" class="graph" transform="scale(1 1) rotate(0) translate(4 74)">
<title>ParentDialog::ParentDialog</title>
<!-- Node1 -->
<g id="Node000001" class="node">
<title>Node1</title>
<g id="a_Node000001"><a xlink:title="Constructs a ParentDialog object.">
<polygon fill="#999999" stroke="#666666" points="134.5,-42 0,-42 0,-22 134.5,-22 134.5,-42"/>
<text text-anchor="middle" x="67.25" y="-28.5" font-family="Helvetica,sans-Serif" font-size="10.00">ParentDialog::ParentDialog</text>
</a>
</g>
</g>
<!-- Node2 -->
<g id="Node000002" class="node">
<title>Node2</title>
<g id="a_Node000002"><a xlink:href="class_parent_dialog.html#a35f4bfbef301aee353217e5a0d1224fb" target="_top" xlink:title="Searches for children based on the input in the name and surname fields.">
<polygon fill="white" stroke="#666666" points="282.5,-70 170.5,-70 170.5,-38 282.5,-38 282.5,-70"/>
<text text-anchor="start" x="178.5" y="-56.5" font-family="Helvetica,sans-Serif" font-size="10.00">ParentDialog::children</text>
<text text-anchor="middle" x="226.5" y="-44.5" font-family="Helvetica,sans-Serif" font-size="10.00">_search</text>
</a>
</g>
</g>
<!-- Node1&#45;&gt;Node2 -->
<g id="edge1_Node000001_Node000002" class="edge">
<title>Node1&#45;&gt;Node2</title>
<g id="a_edge1_Node000001_Node000002"><a xlink:title=" ">
<path fill="none" stroke="#63b8ff" d="M134.94,-41.33C142.81,-42.43 150.85,-43.56 158.72,-44.66"/>
<polygon fill="#63b8ff" stroke="#63b8ff" points="158.22,-48.12 168.61,-46.04 159.19,-41.19 158.22,-48.12"/>
</a>
</g>
</g>
<!-- Node3 -->
<g id="Node000003" class="node">
<title>Node3</title>
<g id="a_Node000003"><a xlink:href="class_parent_dialog.html#a75bd70150c2208775a5a7996c2a13b03" target="_top" xlink:title="Populates the dialog with child checkboxes.">
<polygon fill="white" stroke="#666666" points="433.5,-48 318.5,-48 318.5,-16 433.5,-16 433.5,-48"/>
<text text-anchor="start" x="326.5" y="-34.5" font-family="Helvetica,sans-Serif" font-size="10.00">ParentDialog::populate</text>
<text text-anchor="middle" x="376" y="-22.5" font-family="Helvetica,sans-Serif" font-size="10.00">_children</text>
</a>
</g>
</g>
<!-- Node1&#45;&gt;Node3 -->
<g id="edge5_Node000001_Node000003" class="edge">
<title>Node1&#45;&gt;Node3</title>
<g id="a_edge5_Node000001_Node000003"><a xlink:title=" ">
<path fill="none" stroke="#63b8ff" d="M134.8,-29.76C146.68,-29.45 158.96,-29.17 170.5,-29 220.27,-28.27 232.73,-28.19 282.5,-29 290.36,-29.13 298.6,-29.32 306.78,-29.54"/>
<polygon fill="#63b8ff" stroke="#63b8ff" points="306.65,-33.03 316.75,-29.83 306.85,-26.04 306.65,-33.03"/>
</a>
</g>
</g>
<!-- Node2&#45;&gt;Node3 -->
<g id="edge2_Node000002_Node000003" class="edge">
<title>Node2&#45;&gt;Node3</title>
<g id="a_edge2_Node000002_Node000003"><a xlink:title=" ">
<path fill="none" stroke="#63b8ff" d="M282.84,-45.75C290.73,-44.57 298.92,-43.35 307.02,-42.14"/>
<polygon fill="#63b8ff" stroke="#63b8ff" points="307.49,-45.61 316.87,-40.67 306.46,-38.68 307.49,-45.61"/>
</a>
</g>
</g>
<!-- Node4 -->
<g id="Node000004" class="node">
<title>Node4</title>
<g id="a_Node000004"><a xlink:href="class_parent_dialog.html#a0d21a80476d3434803df1bd450c3fe68" target="_top" xlink:title="Clears the child checkboxes from the dialog.">
<polygon fill="white" stroke="#666666" points="568.75,-70 469.5,-70 469.5,-38 568.75,-38 568.75,-70"/>
<text text-anchor="start" x="477.5" y="-56.5" font-family="Helvetica,sans-Serif" font-size="10.00">ParentDialog::clear</text>
<text text-anchor="middle" x="519.12" y="-44.5" font-family="Helvetica,sans-Serif" font-size="10.00">_children</text>
</a>
</g>
</g>
<!-- Node3&#45;&gt;Node4 -->
<g id="edge3_Node000003_Node000004" class="edge">
<title>Node3&#45;&gt;Node4</title>
<g id="a_edge3_Node000003_Node000004"><a xlink:title=" ">
<path fill="none" stroke="#63b8ff" d="M433.99,-40.88C441.81,-42.1 449.85,-43.36 457.72,-44.58"/>
<polygon fill="#63b8ff" stroke="#63b8ff" points="457.17,-48.04 467.59,-46.12 458.24,-41.12 457.17,-48.04"/>
</a>
</g>
</g>
<!-- Node5 -->
<g id="Node000005" class="node">
<title>Node5</title>
<g id="a_Node000005"><a xlink:href="_helper___functions_8h.html#abbf2bcc86eb4c36312bcad1565f4663e" target="_top" xlink:title="Checks if a vector contains a specific value.">
<polygon fill="white" stroke="#666666" points="545.5,-20 492.75,-20 492.75,0 545.5,0 545.5,-20"/>
<text text-anchor="middle" x="519.12" y="-6.5" font-family="Helvetica,sans-Serif" font-size="10.00">contains</text>
</a>
</g>
</g>
<!-- Node3&#45;&gt;Node5 -->
<g id="edge4_Node000003_Node000005" class="edge">
<title>Node3&#45;&gt;Node5</title>
<g id="a_edge4_Node000003_Node000005"><a xlink:title=" ">
<path fill="none" stroke="#63b8ff" d="M433.99,-23.12C450.05,-20.61 467.08,-17.96 481.59,-15.7"/>
<polygon fill="#63b8ff" stroke="#63b8ff" points="481.78,-19.21 491.12,-14.21 480.7,-12.29 481.78,-19.21"/>
</a>
</g>
</g>
</g>
</svg>
