<?xml version="1.0" encoding="UTF-8" standalone="no"?>
<!DOCTYPE svg PUBLIC "-//W3C//DTD SVG 1.1//EN"
 "http://www.w3.org/Graphics/SVG/1.1/DTD/svg11.dtd">
<!-- Generated by graphviz version 12.2.1 (20241206.2353)
 -->
<!-- Title: DataBaseGUI::child_remove Pages: 1 -->
<svg width="762pt" height="195pt"
 viewBox="0.00 0.00 761.50 194.68" xmlns="http://www.w3.org/2000/svg" xmlns:xlink="http://www.w3.org/1999/xlink">
<g id="graph0" class="graph" transform="scale(1 1) rotate(0) translate(4 190.68)">
<title>DataBaseGUI::child_remove</title>
<!-- Node1 -->
<g id="Node000001" class="node">
<title>Node1</title>
<g id="a_Node000001"><a xlink:title="Removes a child from the database.">
<polygon fill="#999999" stroke="#666666" points="753.5,-161.68 649.75,-161.68 649.75,-129.68 753.5,-129.68 753.5,-161.68"/>
<text text-anchor="start" x="657.75" y="-148.18" font-family="Helvetica,sans-Serif" font-size="10.00">DataBaseGUI::child</text>
<text text-anchor="middle" x="701.62" y="-136.18" font-family="Helvetica,sans-Serif" font-size="10.00">_remove</text>
</a>
</g>
</g>
<!-- Node2 -->
<g id="Node000002" class="node">
<title>Node2</title>
<g id="a_Node000002"><a xlink:href="$class_data_base_g_u_i.html#a334c0011a9d3a71539b326a888feccd3" xlink:title="Populates the children tab with a multimap of children.">
<polygon fill="white" stroke="#666666" points="132.62,-186.68 12.38,-186.68 12.38,-154.68 132.62,-154.68 132.62,-186.68"/>
<text text-anchor="start" x="20.38" y="-173.18" font-family="Helvetica,sans-Serif" font-size="10.00">DataBaseGUI::populate</text>
<text text-anchor="middle" x="72.5" y="-161.18" font-family="Helvetica,sans-Serif" font-size="10.00">_children_tab</text>
</a>
</g>
</g>
<!-- Node1&#45;&gt;Node2 -->
<g id="edge1_Node000001_Node000002" class="edge">
<title>Node1&#45;&gt;Node2</title>
<g id="a_edge1_Node000001_Node000002"><a xlink:title=" ">
<path fill="none" stroke="#63b8ff" d="M641.42,-165.09C632.25,-167.41 622.81,-169.4 613.75,-170.68 440.54,-195.1 232.97,-183.94 133.04,-176.08"/>
<polygon fill="#63b8ff" stroke="#63b8ff" points="642.23,-168.5 650.98,-162.53 640.41,-161.74 642.23,-168.5"/>
</a>
</g>
</g>
<!-- Node3 -->
<g id="Node000003" class="node">
<title>Node3</title>
<g id="a_Node000003"><a xlink:href="$class_data_base_g_u_i.html#af346d08370d9e4574980707f61b9c8f7" xlink:title="Populates the children tab with a list of children.">
<polygon fill="white" stroke="#666666" points="613.75,-161.68 493.5,-161.68 493.5,-129.68 613.75,-129.68 613.75,-161.68"/>
<text text-anchor="start" x="501.5" y="-148.18" font-family="Helvetica,sans-Serif" font-size="10.00">DataBaseGUI::populate</text>
<text text-anchor="middle" x="553.62" y="-136.18" font-family="Helvetica,sans-Serif" font-size="10.00">_children_tab</text>
</a>
</g>
</g>
<!-- Node1&#45;&gt;Node3 -->
<g id="edge2_Node000001_Node000003" class="edge">
<title>Node1&#45;&gt;Node3</title>
<g id="a_edge2_Node000001_Node000003"><a xlink:title=" ">
<path fill="none" stroke="#63b8ff" d="M638.1,-145.68C630.16,-145.68 622.06,-145.68 614.17,-145.68"/>
<polygon fill="#63b8ff" stroke="#63b8ff" points="638.05,-149.18 648.05,-145.68 638.05,-142.18 638.05,-149.18"/>
</a>
</g>
</g>
<!-- Node4 -->
<g id="Node000004" class="node">
<title>Node4</title>
<g id="a_Node000004"><a xlink:href="$class_data_base_g_u_i.html#a2d921da686e76ae195da018bb735a1ae" xlink:title=" ">
<polygon fill="white" stroke="#666666" points="451.5,-34.68 347.75,-34.68 347.75,-2.68 451.5,-2.68 451.5,-34.68"/>
<text text-anchor="start" x="355.75" y="-21.18" font-family="Helvetica,sans-Serif" font-size="10.00">DataBaseGUI::child</text>
<text text-anchor="middle" x="399.62" y="-9.18" font-family="Helvetica,sans-Serif" font-size="10.00">_search</text>
</a>
</g>
</g>
<!-- Node3&#45;&gt;Node4 -->
<g id="edge3_Node000003_Node000004" class="edge">
<title>Node3&#45;&gt;Node4</title>
<g id="a_edge3_Node000003_Node000004"><a xlink:title=" ">
<path fill="none" stroke="#63b8ff" d="M524.62,-122.28C494.27,-96.92 446.63,-57.12 420.11,-34.96"/>
<polygon fill="#63b8ff" stroke="#63b8ff" points="521.99,-124.64 531.9,-128.36 526.47,-119.26 521.99,-124.64"/>
</a>
</g>
</g>
<!-- Node6 -->
<g id="Node000006" class="node">
<title>Node6</title>
<g id="a_Node000006"><a xlink:href="$class_data_base_g_u_i.html#aa684465aa73b5b34bbadd24fc7f2f641" xlink:title=" ">
<polygon fill="white" stroke="#666666" points="457.5,-119.68 341.75,-119.68 341.75,-87.68 457.5,-87.68 457.5,-119.68"/>
<text text-anchor="start" x="349.75" y="-106.18" font-family="Helvetica,sans-Serif" font-size="10.00">DataBaseGUI::sort_to</text>
<text text-anchor="middle" x="399.62" y="-94.18" font-family="Helvetica,sans-Serif" font-size="10.00">_populate_children_tab</text>
</a>
</g>
</g>
<!-- Node3&#45;&gt;Node6 -->
<g id="edge5_Node000003_Node000006" class="edge">
<title>Node3&#45;&gt;Node6</title>
<g id="a_edge5_Node000003_Node000006"><a xlink:title=" ">
<path fill="none" stroke="#63b8ff" d="M482.35,-126.26C474.17,-124 465.9,-121.71 457.92,-119.51"/>
<polygon fill="#63b8ff" stroke="#63b8ff" points="481.39,-129.62 491.96,-128.91 483.26,-122.88 481.39,-129.62"/>
</a>
</g>
</g>
<!-- Node5 -->
<g id="Node000005" class="node">
<title>Node5</title>
<g id="a_Node000005"><a xlink:href="$class_data_base_g_u_i.html#aba10d1d8e9fb151632ff34de418cee82" xlink:title="Constructs a DataBaseGUI object.">
<polygon fill="white" stroke="#666666" points="145,-63.68 0,-63.68 0,-43.68 145,-43.68 145,-63.68"/>
<text text-anchor="middle" x="72.5" y="-50.18" font-family="Helvetica,sans-Serif" font-size="10.00">DataBaseGUI::DataBaseGUI</text>
</a>
</g>
</g>
<!-- Node4&#45;&gt;Node5 -->
<g id="edge4_Node000004_Node000005" class="edge">
<title>Node4&#45;&gt;Node5</title>
<g id="a_edge4_Node000004_Node000005"><a xlink:title=" ">
<path fill="none" stroke="#63b8ff" d="M336.13,-6.71C292.28,-0.38 232.51,4.09 181,-6.68 147.5,-13.68 111.68,-31.73 91,-43.32"/>
<polygon fill="#63b8ff" stroke="#63b8ff" points="335.58,-10.17 346,-8.22 336.64,-3.25 335.58,-10.17"/>
</a>
</g>
</g>
<!-- Node6&#45;&gt;Node1 -->
<g id="edge11_Node000006_Node000001" class="edge">
<title>Node6&#45;&gt;Node1</title>
<g id="a_edge11_Node000006_Node000001"><a xlink:title=" ">
<path fill="none" stroke="#63b8ff" d="M469.06,-105.65C511.08,-107.72 565.85,-111.96 613.75,-120.68 625.64,-122.84 638.24,-125.96 650.04,-129.27"/>
<polygon fill="#63b8ff" stroke="#63b8ff" points="469.23,-102.15 459.08,-105.19 468.91,-109.14 469.23,-102.15"/>
</a>
</g>
</g>
<!-- Node6&#45;&gt;Node5 -->
<g id="edge14_Node000006_Node000005" class="edge">
<title>Node6&#45;&gt;Node5</title>
<g id="a_edge14_Node000006_Node000005"><a xlink:title=" ">
<path fill="none" stroke="#63b8ff" d="M330.4,-106.46C287.17,-106.84 230.3,-104.82 181,-94.68 149.89,-88.28 115.96,-74.01 94.71,-64.12"/>
<polygon fill="#63b8ff" stroke="#63b8ff" points="330.19,-109.96 340.14,-106.32 330.09,-102.96 330.19,-109.96"/>
</a>
</g>
</g>
<!-- Node7 -->
<g id="Node000007" class="node">
<title>Node7</title>
<g id="a_Node000007"><a xlink:href="$class_data_base_g_u_i.html#a00f9044d3b8dd9c5dada244dac1b0df6" xlink:title="Adds a new child to the database.">
<polygon fill="white" stroke="#666666" points="305.75,-85.68 181,-85.68 181,-65.68 305.75,-65.68 305.75,-85.68"/>
<text text-anchor="middle" x="243.38" y="-72.18" font-family="Helvetica,sans-Serif" font-size="10.00">DataBaseGUI::child_add</text>
</a>
</g>
</g>
<!-- Node6&#45;&gt;Node7 -->
<g id="edge6_Node000006_Node000007" class="edge">
<title>Node6&#45;&gt;Node7</title>
<g id="a_edge6_Node000006_Node000007"><a xlink:title=" ">
<path fill="none" stroke="#63b8ff" d="M330.3,-91.27C320.91,-89.57 311.35,-87.83 302.17,-86.17"/>
<polygon fill="#63b8ff" stroke="#63b8ff" points="329.67,-94.72 340.14,-93.06 330.92,-87.83 329.67,-94.72"/>
</a>
</g>
</g>
<!-- Node8 -->
<g id="Node000008" class="node">
<title>Node8</title>
<g id="a_Node000008"><a xlink:href="$class_data_base_g_u_i.html#acb6c6b292e58d0ead30682f7f5705244" xlink:title="Edits an existing child in the database.">
<polygon fill="white" stroke="#666666" points="305.75,-161.68 181,-161.68 181,-141.68 305.75,-141.68 305.75,-161.68"/>
<text text-anchor="middle" x="243.38" y="-148.18" font-family="Helvetica,sans-Serif" font-size="10.00">DataBaseGUI::child_edit</text>
</a>
</g>
</g>
<!-- Node6&#45;&gt;Node8 -->
<g id="edge8_Node000006_Node000008" class="edge">
<title>Node6&#45;&gt;Node8</title>
<g id="a_edge8_Node000006_Node000008"><a xlink:title=" ">
<path fill="none" stroke="#63b8ff" d="M335.22,-123.41C315.59,-129.52 294.73,-136.01 277.95,-141.23"/>
<polygon fill="#63b8ff" stroke="#63b8ff" points="336.02,-126.82 344.53,-120.51 333.94,-120.14 336.02,-126.82"/>
</a>
</g>
</g>
<!-- Node9 -->
<g id="Node000009" class="node">
<title>Node9</title>
<g id="a_Node000009"><a xlink:href="$class_data_base_g_u_i.html#a2e6d3629f679c153cdd21b683ce794a1" xlink:title=" ">
<polygon fill="white" stroke="#666666" points="295.25,-47.68 191.5,-47.68 191.5,-15.68 295.25,-15.68 295.25,-47.68"/>
<text text-anchor="start" x="199.5" y="-34.18" font-family="Helvetica,sans-Serif" font-size="10.00">DataBaseGUI::child</text>
<text text-anchor="middle" x="243.38" y="-22.18" font-family="Helvetica,sans-Serif" font-size="10.00">_sort_change</text>
</a>
</g>
</g>
<!-- Node6&#45;&gt;Node9 -->
<g id="edge12_Node000006_Node000009" class="edge">
<title>Node6&#45;&gt;Node9</title>
<g id="a_edge12_Node000006_Node000009"><a xlink:title=" ">
<path fill="none" stroke="#63b8ff" d="M357.83,-82.12C341.74,-73.87 323.02,-64.55 305.75,-56.68 299.47,-53.81 292.76,-50.92 286.17,-48.17"/>
<polygon fill="#63b8ff" stroke="#63b8ff" points="356.14,-85.19 366.63,-86.68 359.35,-78.97 356.14,-85.19"/>
</a>
</g>
</g>
<!-- Node7&#45;&gt;Node5 -->
<g id="edge7_Node000007_Node000005" class="edge">
<title>Node7&#45;&gt;Node5</title>
<g id="a_edge7_Node000007_Node000005"><a xlink:title=" ">
<path fill="none" stroke="#63b8ff" d="M169.62,-66.2C161.53,-65.14 153.3,-64.07 145.22,-63.02"/>
<polygon fill="#63b8ff" stroke="#63b8ff" points="169.06,-69.65 179.43,-67.48 169.96,-62.71 169.06,-69.65"/>
</a>
</g>
</g>
<!-- Node8&#45;&gt;Node2 -->
<g id="edge9_Node000008_Node000002" class="edge">
<title>Node8&#45;&gt;Node2</title>
<g id="a_edge9_Node000008_Node000002"><a xlink:title=" ">
<path fill="none" stroke="#63b8ff" d="M169.76,-159.85C157.47,-161.23 144.83,-162.65 132.93,-163.99"/>
<polygon fill="#63b8ff" stroke="#63b8ff" points="169.88,-163.35 179.43,-158.76 169.1,-156.4 169.88,-163.35"/>
</a>
</g>
</g>
<!-- Node8&#45;&gt;Node3 -->
<g id="edge10_Node000008_Node000003" class="edge">
<title>Node8&#45;&gt;Node3</title>
<g id="a_edge10_Node000008_Node000003"><a xlink:title=" ">
<path fill="none" stroke="#63b8ff" d="M317.5,-150.25C371.14,-149.21 443.07,-147.81 493.19,-146.83"/>
<polygon fill="#63b8ff" stroke="#63b8ff" points="317.44,-146.75 307.51,-150.45 317.58,-153.75 317.44,-146.75"/>
</a>
</g>
</g>
<!-- Node9&#45;&gt;Node5 -->
<g id="edge13_Node000009_Node000005" class="edge">
<title>Node9&#45;&gt;Node5</title>
<g id="a_edge13_Node000009_Node000005"><a xlink:title=" ">
<path fill="none" stroke="#63b8ff" d="M180.14,-39.78C168.81,-41.26 156.91,-42.81 145.32,-44.32"/>
<polygon fill="#63b8ff" stroke="#63b8ff" points="180.28,-43.29 189.75,-38.53 179.38,-36.35 180.28,-43.29"/>
</a>
</g>
</g>
</g>
</svg>
