<?xml version="1.0" encoding="UTF-8" standalone="no"?>
<!DOCTYPE svg PUBLIC "-//W3C//DTD SVG 1.1//EN"
 "http://www.w3.org/Graphics/SVG/1.1/DTD/svg11.dtd">
<!-- Generated by graphviz version 12.2.1 (20241206.2353)
 -->
<!-- Title: Time::Time Pages: 1 -->
<svg width="376pt" height="674pt"
 viewBox="0.00 0.00 375.50 674.00" xmlns="http://www.w3.org/2000/svg" xmlns:xlink="http://www.w3.org/1999/xlink">
<g id="graph0" class="graph" transform="scale(1 1) rotate(0) translate(4 670)">
<title>Time::Time</title>
<!-- Node1 -->
<g id="Node000001" class="node">
<title>Node1</title>
<g id="a_Node000001"><a xlink:title="Default constructor.">
<polygon fill="#999999" stroke="#666666" points="367.5,-343 302,-343 302,-323 367.5,-323 367.5,-343"/>
<text text-anchor="middle" x="334.75" y="-329.5" font-family="Helvetica,sans-Serif" font-size="10.00">Time::Time</text>
</a>
</g>
</g>
<!-- Node2 -->
<g id="Node000002" class="node">
<title>Node2</title>
<g id="a_Node000002"><a xlink:href="class_date_time.html#a441be26f8869a84a597ab5a86567c5fd" target="_top" xlink:title=" ">
<polygon fill="white" stroke="#666666" points="261.5,-666 154,-666 154,-646 261.5,-646 261.5,-666"/>
<text text-anchor="middle" x="207.75" y="-652.5" font-family="Helvetica,sans-Serif" font-size="10.00">DateTime::DateTime</text>
</a>
</g>
</g>
<!-- Node1&#45;&gt;Node2 -->
<g id="edge1_Node000001_Node000002" class="edge">
<title>Node1&#45;&gt;Node2</title>
<g id="a_edge1_Node000001_Node000002"><a xlink:title=" ">
<path fill="none" stroke="#63b8ff" d="M331.71,-354.4C325.37,-416.45 304.16,-594.77 266,-637 262.91,-640.42 259.19,-643.22 255.15,-645.52"/>
<polygon fill="#63b8ff" stroke="#63b8ff" points="335.15,-355.11 332.66,-344.81 328.19,-354.42 335.15,-355.11"/>
</a>
</g>
</g>
<!-- Node3 -->
<g id="Node000003" class="node">
<title>Node3</title>
<g id="a_Node000003"><a xlink:href="class_date_time.html#a4543e8fa355d1f18d63d1b3c62008643" target="_top" xlink:title=" ">
<polygon fill="white" stroke="#666666" points="261.5,-628 154,-628 154,-608 261.5,-608 261.5,-628"/>
<text text-anchor="middle" x="207.75" y="-614.5" font-family="Helvetica,sans-Serif" font-size="10.00">DateTime::DateTime</text>
</a>
</g>
</g>
<!-- Node1&#45;&gt;Node3 -->
<g id="edge2_Node000001_Node000003" class="edge">
<title>Node1&#45;&gt;Node3</title>
<g id="a_edge2_Node000001_Node000003"><a xlink:title=" ">
<path fill="none" stroke="#63b8ff" d="M330.93,-354.66C323.13,-411.48 299.59,-562.93 266,-599 262.79,-602.45 258.94,-605.27 254.77,-607.58"/>
<polygon fill="#63b8ff" stroke="#63b8ff" points="334.37,-355.36 332.23,-344.98 327.43,-354.43 334.37,-355.36"/>
</a>
</g>
</g>
<!-- Node4 -->
<g id="Node000004" class="node">
<title>Node4</title>
<g id="a_Node000004"><a xlink:href="class_date_time.html#ac463d3a3129c42752cada995b102df8b" target="_top" xlink:title="Constructs a DateTime from day, month, year, hours, minutes, and seconds.">
<polygon fill="white" stroke="#666666" points="261.5,-590 154,-590 154,-570 261.5,-570 261.5,-590"/>
<text text-anchor="middle" x="207.75" y="-576.5" font-family="Helvetica,sans-Serif" font-size="10.00">DateTime::DateTime</text>
</a>
</g>
</g>
<!-- Node1&#45;&gt;Node4 -->
<g id="edge3_Node000001_Node000004" class="edge">
<title>Node1&#45;&gt;Node4</title>
<g id="a_edge3_Node000001_Node000004"><a xlink:title=" ">
<path fill="none" stroke="#63b8ff" d="M333.06,-354.8C330.54,-398.44 318.95,-497.36 266,-556 260.8,-561.76 254,-566.18 246.9,-569.55"/>
<polygon fill="#63b8ff" stroke="#63b8ff" points="336.55,-355.02 333.51,-344.87 329.56,-354.7 336.55,-355.02"/>
</a>
</g>
</g>
<!-- Node5 -->
<g id="Node000005" class="node">
<title>Node5</title>
<g id="a_Node000005"><a xlink:href="class_date_time.html#a4456e1a9119ecd64441d20d541dc8568" target="_top" xlink:title="Gets the current date and time.">
<polygon fill="white" stroke="#666666" points="113.5,-542 0,-542 0,-510 113.5,-510 113.5,-542"/>
<text text-anchor="start" x="8" y="-528.5" font-family="Helvetica,sans-Serif" font-size="10.00">DateTime::get_current</text>
<text text-anchor="middle" x="56.75" y="-516.5" font-family="Helvetica,sans-Serif" font-size="10.00">_datetime</text>
</a>
</g>
</g>
<!-- Node1&#45;&gt;Node5 -->
<g id="edge4_Node000001_Node000005" class="edge">
<title>Node1&#45;&gt;Node5</title>
<g id="a_edge4_Node000001_Node000005"><a xlink:title=" ">
<path fill="none" stroke="#63b8ff" d="M333.45,-354.64C331.57,-395.55 320.99,-483.63 266,-523 222.34,-554.26 159.26,-550.26 113.98,-541.39"/>
<polygon fill="#63b8ff" stroke="#63b8ff" points="336.95,-354.76 333.75,-344.65 329.95,-354.54 336.95,-354.76"/>
</a>
</g>
</g>
<!-- Node6 -->
<g id="Node000006" class="node">
<title>Node6</title>
<g id="a_Node000006"><a xlink:href="class_time.html#ae9b71bc06b2c5a28a96e46e7f1d0a239" target="_top" xlink:title="Gets the current time.">
<polygon fill="white" stroke="#666666" points="266,-514 149.5,-514 149.5,-494 266,-494 266,-514"/>
<text text-anchor="middle" x="207.75" y="-500.5" font-family="Helvetica,sans-Serif" font-size="10.00">Time::get_current_time</text>
</a>
</g>
</g>
<!-- Node1&#45;&gt;Node6 -->
<g id="edge5_Node000001_Node000006" class="edge">
<title>Node1&#45;&gt;Node6</title>
<g id="a_edge5_Node000001_Node000006"><a xlink:title=" ">
<path fill="none" stroke="#63b8ff" d="M329.99,-354.08C323.08,-386.71 305.31,-449.4 266,-485 262.2,-488.44 257.75,-491.27 253.05,-493.58"/>
<polygon fill="#63b8ff" stroke="#63b8ff" points="333.35,-355.13 331.83,-344.65 326.48,-353.79 333.35,-355.13"/>
</a>
</g>
</g>
<!-- Node7 -->
<g id="Node000007" class="node">
<title>Node7</title>
<g id="a_Node000007"><a xlink:href="class_date_time.html#a12991398e93cd333b42eb0531341184d" target="_top" xlink:title="Gets the time component of the DateTime.">
<polygon fill="white" stroke="#666666" points="258.88,-476 156.62,-476 156.62,-456 258.88,-456 258.88,-476"/>
<text text-anchor="middle" x="207.75" y="-462.5" font-family="Helvetica,sans-Serif" font-size="10.00">DateTime::get_time</text>
</a>
</g>
</g>
<!-- Node1&#45;&gt;Node7 -->
<g id="edge7_Node000001_Node000007" class="edge">
<title>Node1&#45;&gt;Node7</title>
<g id="a_edge7_Node000001_Node000007"><a xlink:title=" ">
<path fill="none" stroke="#63b8ff" d="M326.58,-353.84C316.78,-379.35 296.82,-422.21 266,-447 261.76,-450.41 256.88,-453.22 251.79,-455.54"/>
<polygon fill="#63b8ff" stroke="#63b8ff" points="329.82,-355.18 329.96,-344.59 323.24,-352.78 329.82,-355.18"/>
</a>
</g>
</g>
<!-- Node9 -->
<g id="Node000009" class="node">
<title>Node9</title>
<g id="a_Node000009"><a xlink:href="class_time.html#a4029a4af02c185345ef9b209f31450bd" target="_top" xlink:title=" ">
<polygon fill="white" stroke="#666666" points="251.75,-438 163.75,-438 163.75,-418 251.75,-418 251.75,-438"/>
<text text-anchor="middle" x="207.75" y="-424.5" font-family="Helvetica,sans-Serif" font-size="10.00">Time::operator!=</text>
</a>
</g>
</g>
<!-- Node1&#45;&gt;Node9 -->
<g id="edge9_Node000001_Node000009" class="edge">
<title>Node1&#45;&gt;Node9</title>
<g id="a_edge9_Node000001_Node000009"><a xlink:title=" ">
<path fill="none" stroke="#63b8ff" d="M320.84,-352.52C308.59,-369.64 288.72,-394.06 266,-409 260.84,-412.39 255.01,-415.23 249.11,-417.59"/>
<polygon fill="#63b8ff" stroke="#63b8ff" points="323.47,-354.88 326.28,-344.66 317.71,-350.9 323.47,-354.88"/>
</a>
</g>
</g>
<!-- Node10 -->
<g id="Node000010" class="node">
<title>Node10</title>
<g id="a_Node000010"><a xlink:href="class_time.html#a3dee842a041ca4e8d9c1e9eb267b3801" target="_top" xlink:title=" ">
<polygon fill="white" stroke="#666666" points="250.25,-400 165.25,-400 165.25,-380 250.25,-380 250.25,-400"/>
<text text-anchor="middle" x="207.75" y="-386.5" font-family="Helvetica,sans-Serif" font-size="10.00">Time::operator&lt;</text>
</a>
</g>
</g>
<!-- Node1&#45;&gt;Node10 -->
<g id="edge10_Node000001_Node000010" class="edge">
<title>Node1&#45;&gt;Node10</title>
<g id="a_edge10_Node000001_Node000010"><a xlink:title=" ">
<path fill="none" stroke="#63b8ff" d="M307.59,-349.21C295.26,-356.45 280.17,-364.74 266,-371 258.91,-374.13 251.14,-377.04 243.67,-379.59"/>
<polygon fill="#63b8ff" stroke="#63b8ff" points="309.15,-352.36 315.93,-344.22 305.55,-346.36 309.15,-352.36"/>
</a>
</g>
</g>
<!-- Node11 -->
<g id="Node000011" class="node">
<title>Node11</title>
<g id="a_Node000011"><a xlink:href="class_time.html#a51bd0fe65976379c55deefc3a495680b" target="_top" xlink:title="Outputs the time to a stream.">
<polygon fill="white" stroke="#666666" points="253.25,-362 162.25,-362 162.25,-342 253.25,-342 253.25,-362"/>
<text text-anchor="middle" x="207.75" y="-348.5" font-family="Helvetica,sans-Serif" font-size="10.00">Time::operator&lt;&lt;</text>
</a>
</g>
</g>
<!-- Node1&#45;&gt;Node11 -->
<g id="edge11_Node000001_Node000011" class="edge">
<title>Node1&#45;&gt;Node11</title>
<g id="a_edge11_Node000001_Node000011"><a xlink:title=" ">
<path fill="none" stroke="#63b8ff" d="M290.49,-339.57C278.55,-341.39 265.58,-343.36 253.55,-345.19"/>
<polygon fill="#63b8ff" stroke="#63b8ff" points="290.7,-343.08 300.06,-338.12 289.65,-336.16 290.7,-343.08"/>
</a>
</g>
</g>
<!-- Node12 -->
<g id="Node000012" class="node">
<title>Node12</title>
<g id="a_Node000012"><a xlink:href="class_time.html#ad4f6e1d73590a2c89aa5d80813f74ab1" target="_top" xlink:title=" ">
<polygon fill="white" stroke="#666666" points="253.25,-324 162.25,-324 162.25,-304 253.25,-304 253.25,-324"/>
<text text-anchor="middle" x="207.75" y="-310.5" font-family="Helvetica,sans-Serif" font-size="10.00">Time::operator&lt;=</text>
</a>
</g>
</g>
<!-- Node1&#45;&gt;Node12 -->
<g id="edge12_Node000001_Node000012" class="edge">
<title>Node1&#45;&gt;Node12</title>
<g id="a_edge12_Node000001_Node000012"><a xlink:title=" ">
<path fill="none" stroke="#63b8ff" d="M290.49,-326.43C278.55,-324.61 265.58,-322.64 253.55,-320.81"/>
<polygon fill="#63b8ff" stroke="#63b8ff" points="289.65,-329.84 300.06,-327.88 290.7,-322.92 289.65,-329.84"/>
</a>
</g>
</g>
<!-- Node13 -->
<g id="Node000013" class="node">
<title>Node13</title>
<g id="a_Node000013"><a xlink:href="class_time.html#a9bb9e2d94a8b7e334c7373174ed553b9" target="_top" xlink:title=" ">
<polygon fill="white" stroke="#666666" points="250.25,-286 165.25,-286 165.25,-266 250.25,-266 250.25,-286"/>
<text text-anchor="middle" x="207.75" y="-272.5" font-family="Helvetica,sans-Serif" font-size="10.00">Time::operator=</text>
</a>
</g>
</g>
<!-- Node1&#45;&gt;Node13 -->
<g id="edge13_Node000001_Node000013" class="edge">
<title>Node1&#45;&gt;Node13</title>
<g id="a_edge13_Node000001_Node000013"><a xlink:title=" ">
<path fill="none" stroke="#63b8ff" d="M307.59,-316.79C295.26,-309.55 280.17,-301.26 266,-295 258.91,-291.87 251.14,-288.96 243.67,-286.41"/>
<polygon fill="#63b8ff" stroke="#63b8ff" points="305.55,-319.64 315.93,-321.78 309.15,-313.64 305.55,-319.64"/>
</a>
</g>
</g>
<!-- Node14 -->
<g id="Node000014" class="node">
<title>Node14</title>
<g id="a_Node000014"><a xlink:href="class_time.html#a8c931f8b593f5889ee586c19fda81870" target="_top" xlink:title=" ">
<polygon fill="white" stroke="#666666" points="250.25,-248 165.25,-248 165.25,-228 250.25,-228 250.25,-248"/>
<text text-anchor="middle" x="207.75" y="-234.5" font-family="Helvetica,sans-Serif" font-size="10.00">Time::operator=</text>
</a>
</g>
</g>
<!-- Node1&#45;&gt;Node14 -->
<g id="edge14_Node000001_Node000014" class="edge">
<title>Node1&#45;&gt;Node14</title>
<g id="a_edge14_Node000001_Node000014"><a xlink:title=" ">
<path fill="none" stroke="#63b8ff" d="M320.84,-313.48C308.59,-296.36 288.72,-271.94 266,-257 260.84,-253.61 255.01,-250.77 249.11,-248.41"/>
<polygon fill="#63b8ff" stroke="#63b8ff" points="317.71,-315.1 326.28,-321.34 323.47,-311.12 317.71,-315.1"/>
</a>
</g>
</g>
<!-- Node15 -->
<g id="Node000015" class="node">
<title>Node15</title>
<g id="a_Node000015"><a xlink:href="class_time.html#a358022173825bc5eb75e2101df0f78e4" target="_top" xlink:title=" ">
<polygon fill="white" stroke="#666666" points="253.25,-210 162.25,-210 162.25,-190 253.25,-190 253.25,-210"/>
<text text-anchor="middle" x="207.75" y="-196.5" font-family="Helvetica,sans-Serif" font-size="10.00">Time::operator==</text>
</a>
</g>
</g>
<!-- Node1&#45;&gt;Node15 -->
<g id="edge15_Node000001_Node000015" class="edge">
<title>Node1&#45;&gt;Node15</title>
<g id="a_edge15_Node000001_Node000015"><a xlink:title=" ">
<path fill="none" stroke="#63b8ff" d="M326.58,-312.16C316.78,-286.65 296.82,-243.79 266,-219 261.76,-215.59 256.88,-212.78 251.79,-210.46"/>
<polygon fill="#63b8ff" stroke="#63b8ff" points="323.24,-313.22 329.96,-321.41 329.82,-310.82 323.24,-313.22"/>
</a>
</g>
</g>
<!-- Node16 -->
<g id="Node000016" class="node">
<title>Node16</title>
<g id="a_Node000016"><a xlink:href="class_time.html#aca20d7c5d322ab8e950cddf64572a7d3" target="_top" xlink:title=" ">
<polygon fill="white" stroke="#666666" points="250.25,-172 165.25,-172 165.25,-152 250.25,-152 250.25,-172"/>
<text text-anchor="middle" x="207.75" y="-158.5" font-family="Helvetica,sans-Serif" font-size="10.00">Time::operator&gt;</text>
</a>
</g>
</g>
<!-- Node1&#45;&gt;Node16 -->
<g id="edge16_Node000001_Node000016" class="edge">
<title>Node1&#45;&gt;Node16</title>
<g id="a_edge16_Node000001_Node000016"><a xlink:title=" ">
<path fill="none" stroke="#63b8ff" d="M329.99,-311.92C323.08,-279.29 305.31,-216.6 266,-181 261.58,-176.99 256.28,-173.83 250.73,-171.33"/>
<polygon fill="#63b8ff" stroke="#63b8ff" points="326.48,-312.21 331.83,-321.35 333.35,-310.87 326.48,-312.21"/>
</a>
</g>
</g>
<!-- Node17 -->
<g id="Node000017" class="node">
<title>Node17</title>
<g id="a_Node000017"><a xlink:href="class_time.html#ab8785e557e3d70b465f0487ede95b996" target="_top" xlink:title=" ">
<polygon fill="white" stroke="#666666" points="253.25,-134 162.25,-134 162.25,-114 253.25,-114 253.25,-134"/>
<text text-anchor="middle" x="207.75" y="-120.5" font-family="Helvetica,sans-Serif" font-size="10.00">Time::operator&gt;=</text>
</a>
</g>
</g>
<!-- Node1&#45;&gt;Node17 -->
<g id="edge17_Node000001_Node000017" class="edge">
<title>Node1&#45;&gt;Node17</title>
<g id="a_edge17_Node000001_Node000017"><a xlink:title=" ">
<path fill="none" stroke="#63b8ff" d="M332.11,-311.45C327.98,-272.41 313.79,-189.74 266,-143 262.41,-139.49 258.15,-136.62 253.6,-134.29"/>
<polygon fill="#63b8ff" stroke="#63b8ff" points="328.6,-311.55 333,-321.18 335.57,-310.91 328.6,-311.55"/>
</a>
</g>
</g>
<!-- Node18 -->
<g id="Node000018" class="node">
<title>Node18</title>
<g id="a_Node000018"><a xlink:href="class_date_time.html#ac5e36db3765af3de5d7f33623dbd1ab1" target="_top" xlink:title="Sets the time component of the DateTime.">
<polygon fill="white" stroke="#666666" points="258.88,-96 156.62,-96 156.62,-76 258.88,-76 258.88,-96"/>
<text text-anchor="middle" x="207.75" y="-82.5" font-family="Helvetica,sans-Serif" font-size="10.00">DateTime::set_time</text>
</a>
</g>
</g>
<!-- Node1&#45;&gt;Node18 -->
<g id="edge18_Node000001_Node000018" class="edge">
<title>Node1&#45;&gt;Node18</title>
<g id="a_edge18_Node000001_Node000018"><a xlink:title=" ">
<path fill="none" stroke="#63b8ff" d="M333.62,-311.28C332.17,-266.52 322.49,-163.3 266,-105 262.65,-101.54 258.65,-98.71 254.35,-96.4"/>
<polygon fill="#63b8ff" stroke="#63b8ff" points="330.12,-311.29 333.82,-321.22 337.12,-311.15 330.12,-311.29"/>
</a>
</g>
</g>
<!-- Node19 -->
<g id="Node000019" class="node">
<title>Node19</title>
<g id="a_Node000019"><a xlink:href="class_time.html#a84762ec51f9aa67202ad044de2e37ff5" target="_top" xlink:title=" ">
<polygon fill="white" stroke="#666666" points="240.5,-58 175,-58 175,-38 240.5,-38 240.5,-58"/>
<text text-anchor="middle" x="207.75" y="-44.5" font-family="Helvetica,sans-Serif" font-size="10.00">Time::Time</text>
</a>
</g>
</g>
<!-- Node1&#45;&gt;Node19 -->
<g id="edge19_Node000001_Node000019" class="edge">
<title>Node1&#45;&gt;Node19</title>
<g id="a_edge19_Node000001_Node000019"><a xlink:title=" ">
<path fill="none" stroke="#63b8ff" d="M330.93,-311.34C323.13,-254.52 299.59,-103.07 266,-67 259.36,-59.87 249.99,-55.42 240.75,-52.63"/>
<polygon fill="#63b8ff" stroke="#63b8ff" points="327.43,-311.57 332.23,-321.02 334.37,-310.64 327.43,-311.57"/>
</a>
</g>
</g>
<!-- Node20 -->
<g id="Node000020" class="node">
<title>Node20</title>
<g id="a_Node000020"><a xlink:href="class_time.html#a1cb90ccc61157970eca760467516a97b" target="_top" xlink:title=" ">
<polygon fill="white" stroke="#666666" points="240.5,-20 175,-20 175,0 240.5,0 240.5,-20"/>
<text text-anchor="middle" x="207.75" y="-6.5" font-family="Helvetica,sans-Serif" font-size="10.00">Time::Time</text>
</a>
</g>
</g>
<!-- Node1&#45;&gt;Node20 -->
<g id="edge20_Node000001_Node000020" class="edge">
<title>Node1&#45;&gt;Node20</title>
<g id="a_edge20_Node000001_Node000020"><a xlink:title=" ">
<path fill="none" stroke="#63b8ff" d="M331.71,-311.6C325.37,-249.55 304.16,-71.23 266,-29 259.47,-21.77 250.13,-17.29 240.88,-14.51"/>
<polygon fill="#63b8ff" stroke="#63b8ff" points="328.19,-311.58 332.66,-321.19 335.15,-310.89 328.19,-311.58"/>
</a>
</g>
</g>
<!-- Node6&#45;&gt;Node5 -->
<g id="edge6_Node000006_Node000005" class="edge">
<title>Node6&#45;&gt;Node5</title>
<g id="a_edge6_Node000006_Node000005"><a xlink:title=" ">
<path fill="none" stroke="#63b8ff" d="M137.83,-514.18C129.76,-515.37 121.6,-516.57 113.73,-517.73"/>
<polygon fill="#63b8ff" stroke="#63b8ff" points="138.26,-517.65 147.65,-512.73 137.24,-510.73 138.26,-517.65"/>
</a>
</g>
</g>
<!-- Node8 -->
<g id="Node000008" class="node">
<title>Node8</title>
<g id="a_Node000008"><a xlink:href="class_date_time.html#a55aeb70b786c22cd521ce0f1ce89489f" target="_top" xlink:title="Sets the date component of the DateTime.">
<polygon fill="white" stroke="#666666" points="107.88,-476 5.62,-476 5.62,-456 107.88,-456 107.88,-476"/>
<text text-anchor="middle" x="56.75" y="-462.5" font-family="Helvetica,sans-Serif" font-size="10.00">DateTime::set_date</text>
</a>
</g>
</g>
<!-- Node7&#45;&gt;Node8 -->
<g id="edge8_Node000007_Node000008" class="edge">
<title>Node7&#45;&gt;Node8</title>
<g id="a_edge8_Node000007_Node000008"><a xlink:title=" ">
<path fill="none" stroke="#63b8ff" d="M145.17,-466C132.84,-466 120.03,-466 108.14,-466"/>
<polygon fill="#63b8ff" stroke="#63b8ff" points="144.79,-469.5 154.79,-466 144.79,-462.5 144.79,-469.5"/>
</a>
</g>
</g>
</g>
</svg>
