<?xml version="1.0" encoding="UTF-8" standalone="no"?>
<!DOCTYPE svg PUBLIC "-//W3C//DTD SVG 1.1//EN"
 "http://www.w3.org/Graphics/SVG/1.1/DTD/svg11.dtd">
<!-- Generated by graphviz version 12.2.1 (20241206.2353)
 -->
<!-- Title: Database::import_Lessons_from_csv_file Pages: 1 -->
<!--zoomable 280 -->

<svg id="main" version="1.1" xmlns="http://www.w3.org/2000/svg" xmlns:xlink="http://www.w3.org/1999/xlink" xml:space="preserve" onload="init(evt)">

<style type="text/css"><![CDATA[
.node, .edge {opacity: 0.7;}
.node.selected, .edge.selected {opacity: 1;}
.edge:hover path { stroke: red; }
.edge:hover polygon { stroke: red; fill: red; }
]]></style>

<defs>
  <circle id="rim" cx="0" cy="0" r="7"/>
  <circle id="rim2" cx="0" cy="0" r="3.5"/>
  <g id="zoomPlus">
    <use xlink:href="#rim" fill="#404040"><set attributeName="fill" to="#808080" begin="zoomplus.mouseover" end="zoomplus.mouseout"/></use>
    <path d="M-4,0h8M0,-4v8" fill="none" stroke="white" stroke-width="1.5" pointer-events="none"/>
  </g>
  <g id="zoomMin">
    <use xlink:href="#rim" fill="#404040"><set attributeName="fill" to="#808080" begin="zoomminus.mouseover" end="zoomminus.mouseout"/></use>
    <path d="M-4,0h8" fill="none" stroke="white" stroke-width="1.5" pointer-events="none"/>
  </g>
  <g id="arrowUp" transform="translate(30 24)">
    <use xlink:href="#rim"/>
    <path pointer-events="none" fill="none" stroke="white" stroke-width="1.5" d="M0,-3.0v7 M-2.5,-0.5L0,-3.0L2.5,-0.5"/>
  </g>
  <g id="arrowRight" transform="rotate(90) translate(36 -43)">
    <use xlink:href="#rim"/>
    <path pointer-events="none" fill="none" stroke="white" stroke-width="1.5" d="M0,-3.0v7 M-2.5,-0.5L0,-3.0L2.5,-0.5"/>
  </g>
  <g id="arrowDown" transform="rotate(180) translate(-30 -48)">
    <use xlink:href="#rim"/>
    <path pointer-events="none" fill="none" stroke="white" stroke-width="1.5" d="M0,-3.0v7 M-2.5,-0.5L0,-3.0L2.5,-0.5"/>
  </g>
  <g id="arrowLeft" transform="rotate(270) translate(-36 17)">
    <use xlink:href="#rim"/>
    <path pointer-events="none" fill="none" stroke="white" stroke-width="1.5" d="M0,-3.0v7 M-2.5,-0.5L0,-3.0L2.5,-0.5"/>
  </g>
  <g id="resetDef">
    <use xlink:href="#rim2" fill="#404040"><set attributeName="fill" to="#808080" begin="reset.mouseover" end="reset.mouseout"/></use>
  </g>
</defs>
<script type="application/ecmascript">
var viewWidth = 1001;
var viewHeight = 280;
var sectionId = 'dynsection-54';
</script>
<script type="application/ecmascript" xlink:href="svg.min.js"/>
<svg id="graph" class="graph">
<g id="viewport">
<title>Database::import_Lessons_from_csv_file</title>
<!-- Node1 -->
<g id="Node000001" class="node">
<title>Node1</title>
<g id="a_Node000001"><a xlink:title="Imports lessons from a CSV file.">
<polygon fill="#999999" stroke="#666666" points="133,-152 0,-152 0,-120 133,-120 133,-152"/>
<text text-anchor="start" x="8" y="-138.5" font-family="Helvetica,sans-Serif" font-size="10.00">Database::import_Lessons</text>
<text text-anchor="middle" x="66.5" y="-126.5" font-family="Helvetica,sans-Serif" font-size="10.00">_from_csv_file</text>
</a>
</g>
</g>
<!-- Node2 -->
<g id="Node000002" class="node">
<title>Node2</title>
<g id="a_Node000002"><a xlink:href="class_c_s_v___parser.html#abf9be7d0476752028afd45de9be64877" target="_top" xlink:title="Parses a lesson from a CSV line.">
<polygon fill="white" stroke="#666666" points="303.5,-146 169,-146 169,-126 303.5,-126 303.5,-146"/>
<text text-anchor="middle" x="236.25" y="-132.5" font-family="Helvetica,sans-Serif" font-size="10.00">CSV_Parser::parse_lesson</text>
</a>
</g>
</g>
<!-- Node1&#45;&gt;Node2 -->
<g id="edge1_Node000001_Node000002" class="edge">
<title>Node1&#45;&gt;Node2</title>
<g id="a_edge1_Node000001_Node000002"><a xlink:title=" ">
<path fill="none" stroke="#63b8ff" d="M133.32,-136C141.18,-136 149.26,-136 157.27,-136"/>
<polygon fill="#63b8ff" stroke="#63b8ff" points="157.01,-139.5 167.01,-136 157.01,-132.5 157.01,-139.5"/>
</a>
</g>
</g>
<!-- Node3 -->
<g id="Node000003" class="node">
<title>Node3</title>
<g id="a_Node000003"><a xlink:href="class_c_s_v___parser.html#a2645253cdd45f0fe2df1f4883ab64b36" target="_top" xlink:title="Parses lesson&#39;s attendance from a CSV line.">
<polygon fill="white" stroke="#666666" points="474,-221 339.5,-221 339.5,-189 474,-189 474,-221"/>
<text text-anchor="start" x="347.5" y="-207.5" font-family="Helvetica,sans-Serif" font-size="10.00">CSV_Parser::parse_lesson</text>
<text text-anchor="middle" x="406.75" y="-195.5" font-family="Helvetica,sans-Serif" font-size="10.00">_attendance</text>
</a>
</g>
</g>
<!-- Node2&#45;&gt;Node3 -->
<g id="edge2_Node000002_Node000003" class="edge">
<title>Node2&#45;&gt;Node3</title>
<g id="a_edge2_Node000002_Node000003"><a xlink:title=" ">
<path fill="none" stroke="#63b8ff" d="M262.84,-146.48C287.22,-156.46 324.6,-171.77 355.02,-184.23"/>
<polygon fill="#63b8ff" stroke="#63b8ff" points="353.48,-187.38 364.06,-187.93 356.13,-180.9 353.48,-187.38"/>
</a>
</g>
</g>
<!-- Node12 -->
<g id="Node000012" class="node">
<title>Node12</title>
<g id="a_Node000012"><a xlink:href="class_c_s_v___parser.html#acc479fe8705c80c065e4d725a02c852d" target="_top" xlink:title="Parses lesson&#39;s children from a CSV line.">
<polygon fill="white" stroke="#666666" points="474,-152 339.5,-152 339.5,-120 474,-120 474,-152"/>
<text text-anchor="start" x="347.5" y="-138.5" font-family="Helvetica,sans-Serif" font-size="10.00">CSV_Parser::parse_lesson</text>
<text text-anchor="middle" x="406.75" y="-126.5" font-family="Helvetica,sans-Serif" font-size="10.00">_children</text>
</a>
</g>
</g>
<!-- Node2&#45;&gt;Node12 -->
<g id="edge13_Node000002_Node000012" class="edge">
<title>Node2&#45;&gt;Node12</title>
<g id="a_edge13_Node000002_Node000012"><a xlink:title=" ">
<path fill="none" stroke="#63b8ff" d="M303.85,-136C311.72,-136 319.82,-136 327.83,-136"/>
<polygon fill="#63b8ff" stroke="#63b8ff" points="327.57,-139.5 337.57,-136 327.57,-132.5 327.57,-139.5"/>
</a>
</g>
</g>
<!-- Node15 -->
<g id="Node000015" class="node">
<title>Node15</title>
<g id="a_Node000015"><a xlink:href="class_c_s_v___parser.html#a4732941a7b14e0908b4c94286d957ede" target="_top" xlink:title="Parses lesson&#39;s employees from a CSV line.">
<polygon fill="white" stroke="#666666" points="474,-76 339.5,-76 339.5,-44 474,-44 474,-76"/>
<text text-anchor="start" x="347.5" y="-62.5" font-family="Helvetica,sans-Serif" font-size="10.00">CSV_Parser::parse_lesson</text>
<text text-anchor="middle" x="406.75" y="-50.5" font-family="Helvetica,sans-Serif" font-size="10.00">_employees</text>
</a>
</g>
</g>
<!-- Node2&#45;&gt;Node15 -->
<g id="edge17_Node000002_Node000015" class="edge">
<title>Node2&#45;&gt;Node15</title>
<g id="a_edge17_Node000002_Node000015"><a xlink:title=" ">
<path fill="none" stroke="#63b8ff" d="M260.33,-125.59C285.7,-114.15 327.14,-95.46 359.3,-80.95"/>
<polygon fill="#63b8ff" stroke="#63b8ff" points="360.33,-84.32 368.01,-77.02 357.45,-77.94 360.33,-84.32"/>
</a>
</g>
</g>
<!-- Node4 -->
<g id="Node000004" class="node">
<title>Node4</title>
<g id="a_Node000004"><a xlink:href="class_database.html#a12af120f4bd82e7c70ffd191f13f0011" target="_top" xlink:title="Adds a lesson to the database.">
<polygon fill="white" stroke="#666666" points="646.38,-272 532.88,-272 532.88,-252 646.38,-252 646.38,-272"/>
<text text-anchor="middle" x="589.62" y="-258.5" font-family="Helvetica,sans-Serif" font-size="10.00">Database::add_lesson</text>
</a>
</g>
</g>
<!-- Node3&#45;&gt;Node4 -->
<g id="edge3_Node000003_Node000004" class="edge">
<title>Node3&#45;&gt;Node4</title>
<g id="a_edge3_Node000003_Node000004"><a xlink:title=" ">
<path fill="none" stroke="#63b8ff" d="M448.66,-221.47C467.21,-228.61 489.53,-236.75 510,-243 516.61,-245.02 523.59,-246.96 530.54,-248.79"/>
<polygon fill="#63b8ff" stroke="#63b8ff" points="529.38,-252.1 539.93,-251.18 531.1,-245.32 529.38,-252.1"/>
</a>
</g>
</g>
<!-- Node6 -->
<g id="Node000006" class="node">
<title>Node6</title>
<g id="a_Node000006"><a xlink:href="class_database.html#a60ef6f17c1f6e1da26cf7fafd568164f" target="_top" xlink:title="Gets a child by name and surname.">
<polygon fill="white" stroke="#666666" points="641.5,-196 537.75,-196 537.75,-164 641.5,-164 641.5,-196"/>
<text text-anchor="start" x="545.75" y="-182.5" font-family="Helvetica,sans-Serif" font-size="10.00">Database::get_child</text>
<text text-anchor="middle" x="589.62" y="-170.5" font-family="Helvetica,sans-Serif" font-size="10.00">_by_name_surname</text>
</a>
</g>
</g>
<!-- Node3&#45;&gt;Node6 -->
<g id="edge5_Node000003_Node000006" class="edge">
<title>Node3&#45;&gt;Node6</title>
<g id="a_edge5_Node000003_Node000006"><a xlink:title=" ">
<path fill="none" stroke="#63b8ff" d="M474.33,-195.8C491.27,-193.46 509.42,-190.95 526.15,-188.64"/>
<polygon fill="#63b8ff" stroke="#63b8ff" points="526.54,-192.11 535.97,-187.28 525.58,-185.18 526.54,-192.11"/>
</a>
</g>
</g>
<!-- Node11 -->
<g id="Node000011" class="node">
<title>Node11</title>
<g id="a_Node000011"><a xlink:href="class_lesson.html#ac4b68f1c8fbcbc5ec3404207578d399c" target="_top" xlink:title="Sets the attendance of children for a specific date.">
<polygon fill="white" stroke="#666666" points="649.75,-234 529.5,-234 529.5,-214 649.75,-214 649.75,-234"/>
<text text-anchor="middle" x="589.62" y="-220.5" font-family="Helvetica,sans-Serif" font-size="10.00">Lesson::set_attendance</text>
</a>
</g>
</g>
<!-- Node3&#45;&gt;Node11 -->
<g id="edge12_Node000003_Node000011" class="edge">
<title>Node3&#45;&gt;Node11</title>
<g id="a_edge12_Node000003_Node000011"><a xlink:title=" ">
<path fill="none" stroke="#63b8ff" d="M474.33,-211.99C488.48,-213.48 503.46,-215.05 517.77,-216.56"/>
<polygon fill="#63b8ff" stroke="#63b8ff" points="517.24,-220.02 527.55,-217.58 517.97,-213.06 517.24,-220.02"/>
</a>
</g>
</g>
<!-- Node5 -->
<g id="Node000005" class="node">
<title>Node5</title>
<g id="a_Node000005"><a xlink:href="class_lesson.html#a25d5ac20ba2894748d604e75a00d756a" target="_top" xlink:title="Gets the schedule of the lesson.">
<polygon fill="white" stroke="#666666" points="825.88,-272 714.62,-272 714.62,-252 825.88,-252 825.88,-272"/>
<text text-anchor="middle" x="770.25" y="-258.5" font-family="Helvetica,sans-Serif" font-size="10.00">Lesson::get_schedule</text>
</a>
</g>
</g>
<!-- Node4&#45;&gt;Node5 -->
<g id="edge4_Node000004_Node000005" class="edge">
<title>Node4&#45;&gt;Node5</title>
<g id="a_edge4_Node000004_Node000005"><a xlink:title=" ">
<path fill="none" stroke="#63b8ff" d="M646.65,-262C664.53,-262 684.48,-262 703.02,-262"/>
<polygon fill="#63b8ff" stroke="#63b8ff" points="702.83,-265.5 712.83,-262 702.83,-258.5 702.83,-265.5"/>
</a>
</g>
</g>
<!-- Node7 -->
<g id="Node000007" class="node">
<title>Node7</title>
<g id="a_Node000007"><a xlink:href="class_database.html#a448f32cb2e58118d83634666431562c2" target="_top" xlink:title="Filters children by name.">
<polygon fill="white" stroke="#666666" points="824.38,-189 716.12,-189 716.12,-157 824.38,-157 824.38,-189"/>
<text text-anchor="start" x="724.12" y="-175.5" font-family="Helvetica,sans-Serif" font-size="10.00">Database::filter_child</text>
<text text-anchor="middle" x="770.25" y="-163.5" font-family="Helvetica,sans-Serif" font-size="10.00">_by_name</text>
</a>
</g>
</g>
<!-- Node6&#45;&gt;Node7 -->
<g id="edge6_Node000006_Node000007" class="edge">
<title>Node6&#45;&gt;Node7</title>
<g id="a_edge6_Node000006_Node000007"><a xlink:title=" ">
<path fill="none" stroke="#63b8ff" d="M641.81,-177.99C661.38,-177.23 683.96,-176.34 704.63,-175.53"/>
<polygon fill="#63b8ff" stroke="#63b8ff" points="704.51,-179.04 714.37,-175.15 704.24,-172.05 704.51,-179.04"/>
</a>
</g>
</g>
<!-- Node10 -->
<g id="Node000010" class="node">
<title>Node10</title>
<g id="a_Node000010"><a xlink:href="class_database.html#a48cdf44f55b29d6141c5e00b88fa4d22" target="_top" xlink:title="Filters children by surname.">
<polygon fill="white" stroke="#666666" points="824.38,-139 716.12,-139 716.12,-107 824.38,-107 824.38,-139"/>
<text text-anchor="start" x="724.12" y="-125.5" font-family="Helvetica,sans-Serif" font-size="10.00">Database::filter_child</text>
<text text-anchor="middle" x="770.25" y="-113.5" font-family="Helvetica,sans-Serif" font-size="10.00">_by_surname</text>
</a>
</g>
</g>
<!-- Node6&#45;&gt;Node10 -->
<g id="edge9_Node000006_Node000010" class="edge">
<title>Node6&#45;&gt;Node10</title>
<g id="a_edge9_Node000006_Node000010"><a xlink:title=" ">
<path fill="none" stroke="#63b8ff" d="M641.8,-163.74C650.95,-160.83 660.38,-157.83 669.25,-155 681.47,-151.1 694.53,-146.93 707.05,-142.92"/>
<polygon fill="#63b8ff" stroke="#63b8ff" points="707.97,-146.3 716.43,-139.92 705.84,-139.64 707.97,-146.3"/>
</a>
</g>
</g>
<!-- Node8 -->
<g id="Node000008" class="node">
<title>Node8</title>
<g id="a_Node000008"><a xlink:href="_helper___functions_8h.html#a0d3fbaad2936b89eb0d594cba2929800" target="_top" xlink:title="Filters a vector of pointers based on a predicate.">
<polygon fill="white" stroke="#666666" points="949.5,-130 914.75,-130 914.75,-110 949.5,-110 949.5,-130"/>
<text text-anchor="middle" x="932.12" y="-116.5" font-family="Helvetica,sans-Serif" font-size="10.00">filter</text>
</a>
</g>
</g>
<!-- Node7&#45;&gt;Node8 -->
<g id="edge7_Node000007_Node000008" class="edge">
<title>Node7&#45;&gt;Node8</title>
<g id="a_edge7_Node000007_Node000008"><a xlink:title=" ">
<path fill="none" stroke="#63b8ff" d="M820.96,-156.52C848.12,-147.52 880.75,-136.7 903.41,-129.19"/>
<polygon fill="#63b8ff" stroke="#63b8ff" points="904.45,-132.53 912.84,-126.06 902.25,-125.89 904.45,-132.53"/>
</a>
</g>
</g>
<!-- Node9 -->
<g id="Node000009" class="node">
<title>Node9</title>
<g id="a_Node000009"><a xlink:href="_helper___functions_8h.html#ab487a2e8523090e129c7f67ed349c9a1" target="_top" xlink:title="Filters a multimap by its keys based on a predicate.">
<polygon fill="white" stroke="#666666" points="993,-89 871.25,-89 871.25,-69 993,-69 993,-89"/>
<text text-anchor="middle" x="932.12" y="-75.5" font-family="Helvetica,sans-Serif" font-size="10.00">filter_multimap_by_keys</text>
</a>
</g>
</g>
<!-- Node7&#45;&gt;Node9 -->
<g id="edge8_Node000007_Node000009" class="edge">
<title>Node7&#45;&gt;Node9</title>
<g id="a_edge8_Node000007_Node000009"><a xlink:title=" ">
<path fill="none" stroke="#63b8ff" d="M821.27,-156.62C826.2,-154.09 830.96,-151.23 835.25,-148 856.28,-132.19 850.06,-116.6 871.25,-101 874.76,-98.41 878.61,-96.1 882.61,-94.05"/>
<polygon fill="#63b8ff" stroke="#63b8ff" points="883.72,-97.39 891.37,-90.06 880.82,-91.01 883.72,-97.39"/>
</a>
</g>
</g>
<!-- Node10&#45;&gt;Node8 -->
<g id="edge10_Node000010_Node000008" class="edge">
<title>Node10&#45;&gt;Node8</title>
<g id="a_edge10_Node000010_Node000008"><a xlink:title=" ">
<path fill="none" stroke="#63b8ff" d="M824.49,-122C850.73,-121.51 881.31,-120.93 902.98,-120.53"/>
<polygon fill="#63b8ff" stroke="#63b8ff" points="902.86,-124.03 912.8,-120.34 902.73,-117.03 902.86,-124.03"/>
</a>
</g>
</g>
<!-- Node10&#45;&gt;Node9 -->
<g id="edge11_Node000010_Node000009" class="edge">
<title>Node10&#45;&gt;Node9</title>
<g id="a_edge11_Node000010_Node000009"><a xlink:title=" ">
<path fill="none" stroke="#63b8ff" d="M824.49,-108.35C843.14,-103.21 863.99,-97.48 882.27,-92.45"/>
<polygon fill="#63b8ff" stroke="#63b8ff" points="883.1,-95.85 891.82,-89.82 881.25,-89.1 883.1,-95.85"/>
</a>
</g>
</g>
<!-- Node12&#45;&gt;Node6 -->
<g id="edge15_Node000012_Node000006" class="edge">
<title>Node12&#45;&gt;Node6</title>
<g id="a_edge15_Node000012_Node000006"><a xlink:title=" ">
<path fill="none" stroke="#63b8ff" d="M474.33,-152.2C491.43,-156.36 509.77,-160.82 526.63,-164.92"/>
<polygon fill="#63b8ff" stroke="#63b8ff" points="525.45,-168.23 536,-167.2 527.11,-161.43 525.45,-168.23"/>
</a>
</g>
</g>
<!-- Node13 -->
<g id="Node000013" class="node">
<title>Node13</title>
<g id="a_Node000013"><a xlink:href="class_lesson.html#aaaaf02b40b853b755bb1d5ff28954d0e" target="_top" xlink:title="Adds a child to the lesson.">
<polygon fill="white" stroke="#666666" points="637,-146 542.25,-146 542.25,-126 637,-126 637,-146"/>
<text text-anchor="middle" x="589.62" y="-132.5" font-family="Helvetica,sans-Serif" font-size="10.00">Lesson::add_child</text>
</a>
</g>
</g>
<!-- Node12&#45;&gt;Node13 -->
<g id="edge14_Node000012_Node000013" class="edge">
<title>Node12&#45;&gt;Node13</title>
<g id="a_edge14_Node000012_Node000013"><a xlink:title=" ">
<path fill="none" stroke="#63b8ff" d="M474.33,-136C492.76,-136 512.61,-136 530.51,-136"/>
<polygon fill="#63b8ff" stroke="#63b8ff" points="530.45,-139.5 540.45,-136 530.45,-132.5 530.45,-139.5"/>
</a>
</g>
</g>
<!-- Node14 -->
<g id="Node000014" class="node">
<title>Node14</title>
<g id="a_Node000014"><a xlink:href="class_lesson.html#a50940a91b16eb52c2c3127b4100b026a" target="_top" xlink:title="Sets the payment date of a child.">
<polygon fill="white" stroke="#666666" points="669.25,-108 510,-108 510,-88 669.25,-88 669.25,-108"/>
<text text-anchor="middle" x="589.62" y="-94.5" font-family="Helvetica,sans-Serif" font-size="10.00">Lesson::set_child_payment_date</text>
</a>
</g>
</g>
<!-- Node12&#45;&gt;Node14 -->
<g id="edge16_Node000012_Node000014" class="edge">
<title>Node12&#45;&gt;Node14</title>
<g id="a_edge16_Node000012_Node000014"><a xlink:title=" ">
<path fill="none" stroke="#63b8ff" d="M474.33,-122.01C491.85,-118.33 510.65,-114.38 527.85,-110.77"/>
<polygon fill="#63b8ff" stroke="#63b8ff" points="528.34,-114.24 537.4,-108.76 526.9,-107.39 528.34,-114.24"/>
</a>
</g>
</g>
<!-- Node16 -->
<g id="Node000016" class="node">
<title>Node16</title>
<g id="a_Node000016"><a xlink:href="class_lesson.html#afc2b347e65cd703a676749de028cf824" target="_top" xlink:title="Adds an employee to the lesson.">
<polygon fill="white" stroke="#666666" points="647.88,-70 531.38,-70 531.38,-50 647.88,-50 647.88,-70"/>
<text text-anchor="middle" x="589.62" y="-56.5" font-family="Helvetica,sans-Serif" font-size="10.00">Lesson::add_employee</text>
</a>
</g>
</g>
<!-- Node15&#45;&gt;Node16 -->
<g id="edge18_Node000015_Node000016" class="edge">
<title>Node15&#45;&gt;Node16</title>
<g id="a_edge18_Node000015_Node000016"><a xlink:title=" ">
<path fill="none" stroke="#63b8ff" d="M474.33,-60C489.18,-60 504.95,-60 519.89,-60"/>
<polygon fill="#63b8ff" stroke="#63b8ff" points="519.6,-63.5 529.6,-60 519.6,-56.5 519.6,-63.5"/>
</a>
</g>
</g>
<!-- Node17 -->
<g id="Node000017" class="node">
<title>Node17</title>
<g id="a_Node000017"><a xlink:href="class_database.html#ad50041d3d5067356b4581bed63a51449" target="_top" xlink:title="Gets an employee by name and surname.">
<polygon fill="white" stroke="#666666" points="652,-32 527.25,-32 527.25,0 652,0 652,-32"/>
<text text-anchor="start" x="535.25" y="-18.5" font-family="Helvetica,sans-Serif" font-size="10.00">Database::get_employee</text>
<text text-anchor="middle" x="589.62" y="-6.5" font-family="Helvetica,sans-Serif" font-size="10.00">_by_name_surname</text>
</a>
</g>
</g>
<!-- Node15&#45;&gt;Node17 -->
<g id="edge19_Node000015_Node000017" class="edge">
<title>Node15&#45;&gt;Node17</title>
<g id="a_edge19_Node000015_Node000017"><a xlink:title=" ">
<path fill="none" stroke="#63b8ff" d="M474.33,-43.8C487.92,-40.5 502.29,-37 516.08,-33.65"/>
<polygon fill="#63b8ff" stroke="#63b8ff" points="516.62,-37.12 525.51,-31.35 514.97,-30.32 516.62,-37.12"/>
</a>
</g>
</g>
<!-- Node18 -->
<g id="Node000018" class="node">
<title>Node18</title>
<g id="a_Node000018"><a xlink:href="class_database.html#ab4078647d304eaebd16c83baf22a2b18" target="_top" xlink:title="Filters employees by name.">
<polygon fill="white" stroke="#666666" points="835.25,-89 705.25,-89 705.25,-57 835.25,-57 835.25,-89"/>
<text text-anchor="start" x="713.25" y="-75.5" font-family="Helvetica,sans-Serif" font-size="10.00">Database::filter_employee</text>
<text text-anchor="middle" x="770.25" y="-63.5" font-family="Helvetica,sans-Serif" font-size="10.00">_by_name</text>
</a>
</g>
</g>
<!-- Node17&#45;&gt;Node18 -->
<g id="edge20_Node000017_Node000018" class="edge">
<title>Node17&#45;&gt;Node18</title>
<g id="a_edge20_Node000017_Node000018"><a xlink:title=" ">
<path fill="none" stroke="#63b8ff" d="M642.23,-32.39C651.24,-35.26 660.52,-38.21 669.25,-41 681.47,-44.9 694.53,-49.07 707.05,-53.08"/>
<polygon fill="#63b8ff" stroke="#63b8ff" points="705.84,-56.36 716.43,-56.08 707.97,-49.7 705.84,-56.36"/>
</a>
</g>
</g>
<!-- Node19 -->
<g id="Node000019" class="node">
<title>Node19</title>
<g id="a_Node000019"><a xlink:href="class_database.html#af7863b68cb40f5715660eeccaaf56f52" target="_top" xlink:title="Filters employees by surname.">
<polygon fill="white" stroke="#666666" points="835.25,-39 705.25,-39 705.25,-7 835.25,-7 835.25,-39"/>
<text text-anchor="start" x="713.25" y="-25.5" font-family="Helvetica,sans-Serif" font-size="10.00">Database::filter_employee</text>
<text text-anchor="middle" x="770.25" y="-13.5" font-family="Helvetica,sans-Serif" font-size="10.00">_by_surname</text>
</a>
</g>
</g>
<!-- Node17&#45;&gt;Node19 -->
<g id="edge23_Node000017_Node000019" class="edge">
<title>Node17&#45;&gt;Node19</title>
<g id="a_edge23_Node000017_Node000019"><a xlink:title=" ">
<path fill="none" stroke="#63b8ff" d="M652.35,-18.42C665.58,-18.94 679.71,-19.49 693.41,-20.03"/>
<polygon fill="#63b8ff" stroke="#63b8ff" points="693.15,-23.52 703.28,-20.41 693.42,-16.53 693.15,-23.52"/>
</a>
</g>
</g>
<!-- Node18&#45;&gt;Node8 -->
<g id="edge21_Node000018_Node000008" class="edge">
<title>Node18&#45;&gt;Node8</title>
<g id="a_edge21_Node000018_Node000008"><a xlink:title=" ">
<path fill="none" stroke="#63b8ff" d="M827.17,-89.44C853.03,-97.04 882.59,-105.73 903.56,-111.9"/>
<polygon fill="#63b8ff" stroke="#63b8ff" points="902.5,-115.23 913.09,-114.7 904.48,-108.52 902.5,-115.23"/>
</a>
</g>
</g>
<!-- Node18&#45;&gt;Node9 -->
<g id="edge22_Node000018_Node000009" class="edge">
<title>Node18&#45;&gt;Node9</title>
<g id="a_edge22_Node000018_Node000009"><a xlink:title=" ">
<path fill="none" stroke="#63b8ff" d="M835.36,-75.41C843.33,-75.71 851.52,-76.01 859.59,-76.32"/>
<polygon fill="#63b8ff" stroke="#63b8ff" points="859.26,-79.81 869.38,-76.68 859.52,-72.81 859.26,-79.81"/>
</a>
</g>
</g>
<!-- Node19&#45;&gt;Node8 -->
<g id="edge24_Node000019_Node000008" class="edge">
<title>Node19&#45;&gt;Node8</title>
<g id="a_edge24_Node000019_Node000008"><a xlink:title=" ">
<path fill="none" stroke="#63b8ff" d="M821.69,-39.42C826.49,-41.93 831.1,-44.78 835.25,-48 856.89,-64.78 849.44,-81.44 871.25,-98 880.64,-105.13 892.58,-110.14 903.32,-113.55"/>
<polygon fill="#63b8ff" stroke="#63b8ff" points="902.3,-116.9 912.87,-116.24 904.2,-110.16 902.3,-116.9"/>
</a>
</g>
</g>
<!-- Node19&#45;&gt;Node9 -->
<g id="edge25_Node000019_Node000009" class="edge">
<title>Node19&#45;&gt;Node9</title>
<g id="a_edge25_Node000019_Node000009"><a xlink:title=" ">
<path fill="none" stroke="#63b8ff" d="M818.35,-39.5C841.36,-47.56 868.76,-57.16 890.79,-64.87"/>
<polygon fill="#63b8ff" stroke="#63b8ff" points="889.43,-68.1 900.02,-68.11 891.74,-61.5 889.43,-68.1"/>
</a>
</g>
</g>
</g>
</svg>

<g id="navigator" transform="translate(0 0)" fill="#404254">
  <rect fill="#f2f5e9" fill-opacity="0.5" stroke="#606060" stroke-width=".5" x="0" y="0" width="60" height="60"/>
  <use id="zoomplus" xlink:href="#zoomPlus" x="17" y="9" onmousedown="handleZoom(evt,'in')"/>
  <use id="zoomminus" xlink:href="#zoomMin" x="42" y="9" onmousedown="handleZoom(evt,'out')"/>
  <use id="reset" xlink:href="#resetDef" x="30" y="36" onmousedown="handleReset()"/>
   <use id="arrowup" xlink:href="#arrowUp" x="0" y="0" onmousedown="handlePan(0,-1)"/>
  <use id="arrowright" xlink:href="#arrowRight" x="0" y="0" onmousedown="handlePan(1,0)"/>
  <use id="arrowdown" xlink:href="#arrowDown" x="0" y="0" onmousedown="handlePan(0,1)"/>
  <use id="arrowleft" xlink:href="#arrowLeft" x="0" y="0" onmousedown="handlePan(-1,0)"/>
</g>
<svg viewBox="0 0 15 15" width="100%" height="30px" preserveAspectRatio="xMaxYMin meet">
 <g id="arrow_out" transform="scale(0.3 0.3)">
  <a xlink:href="class_database_a5234a41c55542e88486c147ca399f386_cgraph_org.svg" target="_base">
   <rect id="button" ry="5" rx="5" y="6" x="6" height="38" width="38"
        fill="#f2f5e9" fill-opacity="0.5" stroke="#606060" stroke-width="1.0"/>
   <path id="arrow"
     d="M 11.500037,31.436501 C 11.940474,20.09759 22.043105,11.32322 32.158766,21.979434 L 37.068811,17.246167 C 37.068811,17.246167 37.088388,32 37.088388,32 L 22.160133,31.978069 C 22.160133,31.978069 26.997745,27.140456 26.997745,27.140456 C 18.528582,18.264221 13.291696,25.230495 11.500037,31.436501 z"
     style="fill:#404040;"/>
  </a>
 </g>
</svg>

<style type='text/css'>
<![CDATA[
[data-mouse-over-selected='false'] { opacity: 0.7; }
[data-mouse-over-selected='true']  { opacity: 1.0; }
]]>
</style>
<script type="application/ecmascript"><![CDATA[
document.addEventListener('DOMContentLoaded', (event) => {
  highlightEdges();
  highlightAdjacentNodes();
});
]]></script>
</svg>
