<?xml version="1.0" encoding="UTF-8" standalone="no"?>
<!DOCTYPE svg PUBLIC "-//W3C//DTD SVG 1.1//EN"
 "http://www.w3.org/Graphics/SVG/1.1/DTD/svg11.dtd">
<!-- Generated by graphviz version 12.2.1 (20241206.2353)
 -->
<!-- Title: Date::get_day Pages: 1 -->
<svg width="718pt" height="166pt"
 viewBox="0.00 0.00 718.00 166.00" xmlns="http://www.w3.org/2000/svg" xmlns:xlink="http://www.w3.org/1999/xlink">
<g id="graph0" class="graph" transform="scale(1 1) rotate(0) translate(4 162)">
<title>Date::get_day</title>
<!-- Node1 -->
<g id="Node000001" class="node">
<title>Node1</title>
<g id="a_Node000001"><a xlink:title="Gets the day of the date.">
<polygon fill="#999999" stroke="#666666" points="710,-67 632.5,-67 632.5,-47 710,-47 710,-67"/>
<text text-anchor="middle" x="671.25" y="-53.5" font-family="Helvetica,sans-Serif" font-size="10.00">Date::get_day</text>
</a>
</g>
</g>
<!-- Node2 -->
<g id="Node000002" class="node">
<title>Node2</title>
<g id="a_Node000002"><a xlink:href="class_date.html#a4a50a2f4e115c9368603a7226c45872b" target="_top" xlink:title="Gets the date as a string.">
<polygon fill="white" stroke="#666666" points="576.62,-89 466.88,-89 466.88,-69 576.62,-69 576.62,-89"/>
<text text-anchor="middle" x="521.75" y="-75.5" font-family="Helvetica,sans-Serif" font-size="10.00">Date::get_date_string</text>
</a>
</g>
</g>
<!-- Node1&#45;&gt;Node2 -->
<g id="edge1_Node000001_Node000002" class="edge">
<title>Node1&#45;&gt;Node2</title>
<g id="a_edge1_Node000001_Node000002"><a xlink:title=" ">
<path fill="none" stroke="#63b8ff" d="M621.23,-64.31C607.05,-66.43 591.49,-68.75 577.01,-70.91"/>
<polygon fill="#63b8ff" stroke="#63b8ff" points="621.39,-67.83 630.77,-62.89 620.36,-60.9 621.39,-67.83"/>
</a>
</g>
</g>
<!-- Node10 -->
<g id="Node000010" class="node">
<title>Node10</title>
<g id="a_Node000010"><a xlink:href="class_date.html#a05d75f0746a6fa8796c17666b900641e" target="_top" xlink:title="Gets the weekday for a given date.">
<polygon fill="white" stroke="#666666" points="596.5,-48 447,-48 447,-28 596.5,-28 596.5,-48"/>
<text text-anchor="middle" x="521.75" y="-34.5" font-family="Helvetica,sans-Serif" font-size="10.00">Date::get_weekday_from_date</text>
</a>
</g>
</g>
<!-- Node1&#45;&gt;Node10 -->
<g id="edge9_Node000001_Node000010" class="edge">
<title>Node1&#45;&gt;Node10</title>
<g id="a_edge9_Node000001_Node000010"><a xlink:title=" ">
<path fill="none" stroke="#63b8ff" d="M621.11,-50.67C613.26,-49.66 604.99,-48.59 596.72,-47.53"/>
<polygon fill="#63b8ff" stroke="#63b8ff" points="620.4,-54.11 630.76,-51.91 621.29,-47.16 620.4,-54.11"/>
</a>
</g>
</g>
<!-- Node3 -->
<g id="Node000003" class="node">
<title>Node3</title>
<g id="a_Node000003"><a xlink:href="class_date_time.html#a7570508ce1e761a7eb2a9ca938b2c3eb" target="_top" xlink:title="Gets the combined date and time as a string.">
<polygon fill="white" stroke="#666666" points="403.88,-158 301.62,-158 301.62,-126 403.88,-126 403.88,-158"/>
<text text-anchor="start" x="309.62" y="-144.5" font-family="Helvetica,sans-Serif" font-size="10.00">DateTime::get_date</text>
<text text-anchor="middle" x="352.75" y="-132.5" font-family="Helvetica,sans-Serif" font-size="10.00">_time_string</text>
</a>
</g>
</g>
<!-- Node2&#45;&gt;Node3 -->
<g id="edge2_Node000002_Node000003" class="edge">
<title>Node2&#45;&gt;Node3</title>
<g id="a_edge2_Node000002_Node000003"><a xlink:title=" ">
<path fill="none" stroke="#63b8ff" d="M482.49,-93.44C457.12,-103 423.78,-115.58 397.39,-125.54"/>
<polygon fill="#63b8ff" stroke="#63b8ff" points="483.64,-96.74 491.76,-89.94 481.17,-90.19 483.64,-96.74"/>
</a>
</g>
</g>
<!-- Node4 -->
<g id="Node000004" class="node">
<title>Node4</title>
<g id="a_Node000004"><a xlink:href="class_date.html#a1453e0b6696844fd1fbc1b3961959946" target="_top" xlink:title="Prints the date in a long format.">
<polygon fill="white" stroke="#666666" points="395.25,-108 310.25,-108 310.25,-88 395.25,-88 395.25,-108"/>
<text text-anchor="middle" x="352.75" y="-94.5" font-family="Helvetica,sans-Serif" font-size="10.00">Date::print_long</text>
</a>
</g>
</g>
<!-- Node2&#45;&gt;Node4 -->
<g id="edge3_Node000002_Node000004" class="edge">
<title>Node2&#45;&gt;Node4</title>
<g id="a_edge3_Node000002_Node000004"><a xlink:title=" ">
<path fill="none" stroke="#63b8ff" d="M455.23,-86.45C435.13,-88.74 413.58,-91.19 395.53,-93.25"/>
<polygon fill="#63b8ff" stroke="#63b8ff" points="455.49,-89.95 465.03,-85.34 454.69,-82.99 455.49,-89.95"/>
</a>
</g>
</g>
<!-- Node6 -->
<g id="Node000006" class="node">
<title>Node6</title>
<g id="a_Node000006"><a xlink:href="class_date.html#a55db960044bdecc41d808e0185b1ed8f" target="_top" xlink:title="Prints the date in a short format.">
<polygon fill="white" stroke="#666666" points="397.12,-70 308.38,-70 308.38,-50 397.12,-50 397.12,-70"/>
<text text-anchor="middle" x="352.75" y="-56.5" font-family="Helvetica,sans-Serif" font-size="10.00">Date::print_short</text>
</a>
</g>
</g>
<!-- Node2&#45;&gt;Node6 -->
<g id="edge5_Node000002_Node000006" class="edge">
<title>Node2&#45;&gt;Node6</title>
<g id="a_edge5_Node000002_Node000006"><a xlink:title=" ">
<path fill="none" stroke="#63b8ff" d="M455.29,-71.55C435.87,-69.34 415.08,-66.98 397.41,-64.97"/>
<polygon fill="#63b8ff" stroke="#63b8ff" points="454.69,-75.01 465.03,-72.66 455.49,-68.05 454.69,-75.01"/>
</a>
</g>
</g>
<!-- Node5 -->
<g id="Node000005" class="node">
<title>Node5</title>
<g id="a_Node000005"><a xlink:href="class_date_time.html#a570826a1b0ae205508810b5cdcc6129d" target="_top" xlink:title="Prints the date and time in a long format.">
<polygon fill="white" stroke="#666666" points="256.62,-108 149.88,-108 149.88,-88 256.62,-88 256.62,-108"/>
<text text-anchor="middle" x="203.25" y="-94.5" font-family="Helvetica,sans-Serif" font-size="10.00">DateTime::print_long</text>
</a>
</g>
</g>
<!-- Node4&#45;&gt;Node5 -->
<g id="edge4_Node000004_Node000005" class="edge">
<title>Node4&#45;&gt;Node5</title>
<g id="a_edge4_Node000004_Node000005"><a xlink:title=" ">
<path fill="none" stroke="#63b8ff" d="M298.76,-98C285.18,-98 270.59,-98 257.02,-98"/>
<polygon fill="#63b8ff" stroke="#63b8ff" points="298.36,-101.5 308.36,-98 298.36,-94.5 298.36,-101.5"/>
</a>
</g>
</g>
<!-- Node7 -->
<g id="Node000007" class="node">
<title>Node7</title>
<g id="a_Node000007"><a xlink:href="class_date.html#a4c4ff6ff6215424fcec7bea646913a2d" target="_top" xlink:title="Outputs the date to a stream.">
<polygon fill="white" stroke="#666666" points="248.38,-70 158.12,-70 158.12,-50 248.38,-50 248.38,-70"/>
<text text-anchor="middle" x="203.25" y="-56.5" font-family="Helvetica,sans-Serif" font-size="10.00">Date::operator&lt;&lt;</text>
</a>
</g>
</g>
<!-- Node6&#45;&gt;Node7 -->
<g id="edge6_Node000006_Node000007" class="edge">
<title>Node6&#45;&gt;Node7</title>
<g id="a_edge6_Node000006_Node000007"><a xlink:title=" ">
<path fill="none" stroke="#63b8ff" d="M296.64,-60C280.83,-60 263.79,-60 248.7,-60"/>
<polygon fill="#63b8ff" stroke="#63b8ff" points="296.38,-63.5 306.38,-60 296.38,-56.5 296.38,-63.5"/>
</a>
</g>
</g>
<!-- Node8 -->
<g id="Node000008" class="node">
<title>Node8</title>
<g id="a_Node000008"><a xlink:href="class_date_time.html#a6f14b6b8aff8237f5768a8c1f53c026a" target="_top" xlink:title="Prints the date and time in a short format.">
<polygon fill="white" stroke="#666666" points="258.5,-32 148,-32 148,-12 258.5,-12 258.5,-32"/>
<text text-anchor="middle" x="203.25" y="-18.5" font-family="Helvetica,sans-Serif" font-size="10.00">DateTime::print_short</text>
</a>
</g>
</g>
<!-- Node6&#45;&gt;Node8 -->
<g id="edge7_Node000006_Node000008" class="edge">
<title>Node6&#45;&gt;Node8</title>
<g id="a_edge7_Node000006_Node000008"><a xlink:title=" ">
<path fill="none" stroke="#63b8ff" d="M300.07,-46.69C281.96,-42.02 261.89,-36.85 244.81,-32.45"/>
<polygon fill="#63b8ff" stroke="#63b8ff" points="299.03,-50.03 309.59,-49.14 300.78,-43.25 299.03,-50.03"/>
</a>
</g>
</g>
<!-- Node9 -->
<g id="Node000009" class="node">
<title>Node9</title>
<g id="a_Node000009"><a xlink:href="class_date_time.html#a4428b32e7ec538b2fee1bfcf5f377f45" target="_top" xlink:title="Outputs the DateTime to a stream.">
<polygon fill="white" stroke="#666666" points="112,-32 0,-32 0,-12 112,-12 112,-32"/>
<text text-anchor="middle" x="56" y="-18.5" font-family="Helvetica,sans-Serif" font-size="10.00">DateTime::operator&lt;&lt;</text>
</a>
</g>
</g>
<!-- Node8&#45;&gt;Node9 -->
<g id="edge8_Node000008_Node000009" class="edge">
<title>Node8&#45;&gt;Node9</title>
<g id="a_edge8_Node000008_Node000009"><a xlink:title=" ">
<path fill="none" stroke="#63b8ff" d="M136.45,-22C128.38,-22 120.19,-22 112.29,-22"/>
<polygon fill="#63b8ff" stroke="#63b8ff" points="136.24,-25.5 146.24,-22 136.24,-18.5 136.24,-25.5"/>
</a>
</g>
</g>
<!-- Node11 -->
<g id="Node000011" class="node">
<title>Node11</title>
<g id="a_Node000011"><a xlink:href="class_database.html#a3ab08425557dc0b07c6452f30c5a2710" target="_top" xlink:title="Filters lessons by day.">
<polygon fill="white" stroke="#666666" points="411,-32 294.5,-32 294.5,0 411,0 411,-32"/>
<text text-anchor="start" x="302.5" y="-18.5" font-family="Helvetica,sans-Serif" font-size="10.00">Database::filter_lesson</text>
<text text-anchor="middle" x="352.75" y="-6.5" font-family="Helvetica,sans-Serif" font-size="10.00">_by_day</text>
</a>
</g>
</g>
<!-- Node10&#45;&gt;Node11 -->
<g id="edge10_Node000010_Node000011" class="edge">
<title>Node10&#45;&gt;Node11</title>
<g id="a_edge10_Node000010_Node000011"><a xlink:title=" ">
<path fill="none" stroke="#63b8ff" d="M435.18,-26.73C427.15,-25.67 419.14,-24.61 411.45,-23.6"/>
<polygon fill="#63b8ff" stroke="#63b8ff" points="434.66,-30.19 445.03,-28.02 435.57,-23.25 434.66,-30.19"/>
</a>
</g>
</g>
</g>
</svg>
