<?xml version="1.0" encoding="UTF-8" standalone="no"?>
<!DOCTYPE svg PUBLIC "-//W3C//DTD SVG 1.1//EN"
 "http://www.w3.org/Graphics/SVG/1.1/DTD/svg11.dtd">
<!-- Generated by graphviz version 12.2.1 (20241206.2353)
 -->
<!-- Title: Address::Address Pages: 1 -->
<svg width="243pt" height="218pt"
 viewBox="0.00 0.00 243.25 218.00" xmlns="http://www.w3.org/2000/svg" xmlns:xlink="http://www.w3.org/1999/xlink">
<g id="graph0" class="graph" transform="scale(1 1) rotate(0) translate(4 214)">
<title>Address::Address</title>
<!-- Node1 -->
<g id="Node000001" class="node">
<title>Node1</title>
<g id="a_Node000001"><a xlink:title="Default constructor.">
<polygon fill="#999999" stroke="#666666" points="235.25,-115 141.25,-115 141.25,-95 235.25,-95 235.25,-115"/>
<text text-anchor="middle" x="188.25" y="-101.5" font-family="Helvetica,sans-Serif" font-size="10.00">Address::Address</text>
</a>
</g>
</g>
<!-- Node2 -->
<g id="Node000002" class="node">
<title>Node2</title>
<g id="a_Node000002"><a xlink:href="$class_address.html#a3e8530fd5481ce9facaaa22e0f8e28aa" xlink:title=" ">
<polygon fill="white" stroke="#666666" points="99.62,-210 5.62,-210 5.62,-190 99.62,-190 99.62,-210"/>
<text text-anchor="middle" x="52.62" y="-196.5" font-family="Helvetica,sans-Serif" font-size="10.00">Address::Address</text>
</a>
</g>
</g>
<!-- Node1&#45;&gt;Node2 -->
<g id="edge1_Node000001_Node000002" class="edge">
<title>Node1&#45;&gt;Node2</title>
<g id="a_edge1_Node000001_Node000002"><a xlink:title=" ">
<path fill="none" stroke="#63b8ff" d="M170.83,-124.01C155.36,-140.92 130.8,-165.33 105.25,-181 99.88,-184.29 93.84,-187.15 87.85,-189.58"/>
<polygon fill="#63b8ff" stroke="#63b8ff" points="173.38,-126.41 177.43,-116.61 168.16,-121.74 173.38,-126.41"/>
</a>
</g>
</g>
<!-- Node3 -->
<g id="Node000003" class="node">
<title>Node3</title>
<g id="a_Node000003"><a xlink:href="$class_address.html#a444817f2754d8f1b2eb4b0979fd9a853" xlink:title=" ">
<polygon fill="white" stroke="#666666" points="99.62,-172 5.62,-172 5.62,-152 99.62,-152 99.62,-172"/>
<text text-anchor="middle" x="52.62" y="-158.5" font-family="Helvetica,sans-Serif" font-size="10.00">Address::Address</text>
</a>
</g>
</g>
<!-- Node1&#45;&gt;Node3 -->
<g id="edge2_Node000001_Node000003" class="edge">
<title>Node1&#45;&gt;Node3</title>
<g id="a_edge2_Node000001_Node000003"><a xlink:title=" ">
<path fill="none" stroke="#63b8ff" d="M155.54,-120.43C140.43,-127.59 122.04,-136.03 105.25,-143 98.19,-145.93 90.51,-148.88 83.27,-151.56"/>
<polygon fill="#63b8ff" stroke="#63b8ff" points="157,-123.61 164.52,-116.14 153.98,-117.29 157,-123.61"/>
</a>
</g>
</g>
<!-- Node4 -->
<g id="Node000004" class="node">
<title>Node4</title>
<g id="a_Node000004"><a xlink:href="$class_address.html#a80c235f20581e5d7b4210e5a2b488447" xlink:title="Outputs the address to a stream.">
<polygon fill="white" stroke="#666666" points="105.25,-134 0,-134 0,-114 105.25,-114 105.25,-134"/>
<text text-anchor="middle" x="52.62" y="-120.5" font-family="Helvetica,sans-Serif" font-size="10.00">Address::operator&lt;&lt;</text>
</a>
</g>
</g>
<!-- Node1&#45;&gt;Node4 -->
<g id="edge3_Node000001_Node000004" class="edge">
<title>Node1&#45;&gt;Node4</title>
<g id="a_edge3_Node000001_Node000004"><a xlink:title=" ">
<path fill="none" stroke="#63b8ff" d="M129.66,-113.19C121.59,-114.34 113.34,-115.51 105.39,-116.64"/>
<polygon fill="#63b8ff" stroke="#63b8ff" points="129.98,-116.68 139.39,-111.81 129,-109.75 129.98,-116.68"/>
</a>
</g>
</g>
<!-- Node5 -->
<g id="Node000005" class="node">
<title>Node5</title>
<g id="a_Node000005"><a xlink:href="$class_address.html#a4228f50efd8c050115ae43daa3a8eb94" xlink:title=" ">
<polygon fill="white" stroke="#666666" points="102.25,-96 3,-96 3,-76 102.25,-76 102.25,-96"/>
<text text-anchor="middle" x="52.62" y="-82.5" font-family="Helvetica,sans-Serif" font-size="10.00">Address::operator=</text>
</a>
</g>
</g>
<!-- Node1&#45;&gt;Node5 -->
<g id="edge4_Node000001_Node000005" class="edge">
<title>Node1&#45;&gt;Node5</title>
<g id="a_edge4_Node000001_Node000005"><a xlink:title=" ">
<path fill="none" stroke="#63b8ff" d="M129.66,-96.81C120.65,-95.53 111.42,-94.22 102.63,-92.97"/>
<polygon fill="#63b8ff" stroke="#63b8ff" points="129,-100.25 139.39,-98.19 129.98,-93.32 129,-100.25"/>
</a>
</g>
</g>
<!-- Node6 -->
<g id="Node000006" class="node">
<title>Node6</title>
<g id="a_Node000006"><a xlink:href="$class_address.html#abec8ec2618de9089d86e999d1713e20a" xlink:title=" ">
<polygon fill="white" stroke="#666666" points="102.25,-58 3,-58 3,-38 102.25,-38 102.25,-58"/>
<text text-anchor="middle" x="52.62" y="-44.5" font-family="Helvetica,sans-Serif" font-size="10.00">Address::operator=</text>
</a>
</g>
</g>
<!-- Node1&#45;&gt;Node6 -->
<g id="edge5_Node000001_Node000006" class="edge">
<title>Node1&#45;&gt;Node6</title>
<g id="a_edge5_Node000001_Node000006"><a xlink:title=" ">
<path fill="none" stroke="#63b8ff" d="M155.54,-89.57C140.43,-82.41 122.04,-73.97 105.25,-67 98.19,-64.07 90.51,-61.12 83.27,-58.44"/>
<polygon fill="#63b8ff" stroke="#63b8ff" points="153.98,-92.71 164.52,-93.86 157,-86.39 153.98,-92.71"/>
</a>
</g>
</g>
<!-- Node7 -->
<g id="Node000007" class="node">
<title>Node7</title>
<g id="a_Node000007"><a xlink:href="$class_address.html#aa0c35165dfdead1c4ca7577048d147f6" xlink:title="Compares two Address objects for equality.">
<polygon fill="white" stroke="#666666" points="105.25,-20 0,-20 0,0 105.25,0 105.25,-20"/>
<text text-anchor="middle" x="52.62" y="-6.5" font-family="Helvetica,sans-Serif" font-size="10.00">Address::operator==</text>
</a>
</g>
</g>
<!-- Node1&#45;&gt;Node7 -->
<g id="edge6_Node000001_Node000007" class="edge">
<title>Node1&#45;&gt;Node7</title>
<g id="a_edge6_Node000001_Node000007"><a xlink:title=" ">
<path fill="none" stroke="#63b8ff" d="M170.83,-85.99C155.36,-69.08 130.8,-44.67 105.25,-29 99.88,-25.71 93.84,-22.85 87.85,-20.42"/>
<polygon fill="#63b8ff" stroke="#63b8ff" points="168.16,-88.26 177.43,-93.39 173.38,-83.59 168.16,-88.26"/>
</a>
</g>
</g>
</g>
</svg>
