<?xml version="1.0" encoding="UTF-8" standalone="no"?>
<!DOCTYPE svg PUBLIC "-//W3C//DTD SVG 1.1//EN"
 "http://www.w3.org/Graphics/SVG/1.1/DTD/svg11.dtd">
<!-- Generated by graphviz version 12.2.1 (20241206.2353)
 -->
<!-- Title: LessonEntry Pages: 1 -->
<!--zoomable 1041 -->

<svg id="main" version="1.1" xmlns="http://www.w3.org/2000/svg" xmlns:xlink="http://www.w3.org/1999/xlink" xml:space="preserve" onload="init(evt)">

<style type="text/css"><![CDATA[
.node, .edge {opacity: 0.7;}
.node.selected, .edge.selected {opacity: 1;}
.edge:hover path { stroke: red; }
.edge:hover polygon { stroke: red; fill: red; }
]]></style>

<defs>
  <circle id="rim" cx="0" cy="0" r="7"/>
  <circle id="rim2" cx="0" cy="0" r="3.5"/>
  <g id="zoomPlus">
    <use xlink:href="#rim" fill="#404040"><set attributeName="fill" to="#808080" begin="zoomplus.mouseover" end="zoomplus.mouseout"/></use>
    <path d="M-4,0h8M0,-4v8" fill="none" stroke="white" stroke-width="1.5" pointer-events="none"/>
  </g>
  <g id="zoomMin">
    <use xlink:href="#rim" fill="#404040"><set attributeName="fill" to="#808080" begin="zoomminus.mouseover" end="zoomminus.mouseout"/></use>
    <path d="M-4,0h8" fill="none" stroke="white" stroke-width="1.5" pointer-events="none"/>
  </g>
  <g id="arrowUp" transform="translate(30 24)">
    <use xlink:href="#rim"/>
    <path pointer-events="none" fill="none" stroke="white" stroke-width="1.5" d="M0,-3.0v7 M-2.5,-0.5L0,-3.0L2.5,-0.5"/>
  </g>
  <g id="arrowRight" transform="rotate(90) translate(36 -43)">
    <use xlink:href="#rim"/>
    <path pointer-events="none" fill="none" stroke="white" stroke-width="1.5" d="M0,-3.0v7 M-2.5,-0.5L0,-3.0L2.5,-0.5"/>
  </g>
  <g id="arrowDown" transform="rotate(180) translate(-30 -48)">
    <use xlink:href="#rim"/>
    <path pointer-events="none" fill="none" stroke="white" stroke-width="1.5" d="M0,-3.0v7 M-2.5,-0.5L0,-3.0L2.5,-0.5"/>
  </g>
  <g id="arrowLeft" transform="rotate(270) translate(-36 17)">
    <use xlink:href="#rim"/>
    <path pointer-events="none" fill="none" stroke="white" stroke-width="1.5" d="M0,-3.0v7 M-2.5,-0.5L0,-3.0L2.5,-0.5"/>
  </g>
  <g id="resetDef">
    <use xlink:href="#rim2" fill="#404040"><set attributeName="fill" to="#808080" begin="reset.mouseover" end="reset.mouseout"/></use>
  </g>
</defs>
<script type="application/ecmascript">
var viewWidth = 409;
var viewHeight = 1041;
var sectionId = 'dynsection-1';
</script>
<script type="application/ecmascript" xlink:href="svg.min.js"/>
<svg id="graph" class="graph">
<g id="viewport">
<title>LessonEntry</title>
<!-- Node1 -->
<g id="Node000001" class="node">
<title>Node1</title>
<g id="a_Node000001"><a xlink:title="Represents a GUI widget for a lesson entry.">
<polygon fill="#999999" stroke="none" points="163.38,-84 68.88,-84 68.88,0 163.38,0 163.38,-84"/>
<text text-anchor="start" x="88.75" y="-70.5" font-family="Helvetica,sans-Serif" font-size="10.00">LessonEntry</text>
<text text-anchor="start" x="114.62" y="-54.5" font-family="Helvetica,sans-Serif" font-size="10.00"> </text>
<text text-anchor="start" x="72.88" y="-38.5" font-family="Helvetica,sans-Serif" font-size="10.00">+</text>
<text text-anchor="start" x="82.88" y="-38.5" font-family="Helvetica,sans-Serif" font-size="10.00">LessonEntry()</text>
<text text-anchor="start" x="72.88" y="-22.5" font-family="Helvetica,sans-Serif" font-size="10.00">+</text>
<text text-anchor="start" x="82.88" y="-22.5" font-family="Helvetica,sans-Serif" font-size="10.00">address_clicked()</text>
<text text-anchor="start" x="72.88" y="-6.5" font-family="Helvetica,sans-Serif" font-size="10.00">+</text>
<text text-anchor="start" x="82.88" y="-6.5" font-family="Helvetica,sans-Serif" font-size="10.00">~LessonEntry()</text>
<polygon fill="#666666" stroke="#666666" points="68.88,-66 68.88,-66 163.38,-66 163.38,-66 68.88,-66"/>
<polygon fill="#666666" stroke="#666666" points="68.88,-50 68.88,-50 163.38,-50 163.38,-50 68.88,-50"/>
<polygon fill="none" stroke="#666666" points="68.88,0 68.88,-84 163.38,-84 163.38,0 68.88,0"/>
</a>
</g>
</g>
<!-- Node2 -->
<g id="Node000002" class="node">
<title>Node2</title>
<g id="a_Node000002"><a xlink:title=" ">
<polygon fill="white" stroke="none" points="46.25,-280 0,-280 0,-228 46.25,-228 46.25,-280"/>
<text text-anchor="start" x="4" y="-266.5" font-family="Helvetica,sans-Serif" font-size="10.00">QWidget</text>
<text text-anchor="start" x="21.62" y="-250.5" font-family="Helvetica,sans-Serif" font-size="10.00"> </text>
<text text-anchor="start" x="21.62" y="-234.5" font-family="Helvetica,sans-Serif" font-size="10.00"> </text>
<polygon fill="#666666" stroke="#666666" points="0,-262 0,-262 46.25,-262 46.25,-262 0,-262"/>
<polygon fill="#666666" stroke="#666666" points="0,-246 0,-246 46.25,-246 46.25,-246 0,-246"/>
<polygon fill="none" stroke="#666666" points="0,-228 0,-280 46.25,-280 46.25,-228 0,-228"/>
</a>
</g>
</g>
<!-- Node2&#45;&gt;Node1 -->
<g id="edge1_Node000001_Node000002" class="edge">
<title>Node2&#45;&gt;Node1</title>
<g id="a_edge1_Node000001_Node000002"><a xlink:title=" ">
<path fill="none" stroke="#63b8ff" d="M29.28,-217.02C34.29,-192.35 42.62,-159.28 55.12,-132 62.77,-115.31 73.5,-98.36 83.84,-83.79"/>
<polygon fill="none" stroke="#63b8ff" points="25.89,-216.08 27.43,-226.56 32.77,-217.41 25.89,-216.08"/>
</a>
</g>
</g>
<!-- Node3 -->
<g id="Node000003" class="node">
<title>Node3</title>
<g id="a_Node000003"><a xlink:href="class_ui_1_1_lesson_entry_class.html" target="_top" xlink:title=" ">
<polygon fill="white" stroke="none" points="168.12,-280 64.12,-280 64.12,-228 168.12,-228 168.12,-280"/>
<text text-anchor="start" x="68.12" y="-266.5" font-family="Helvetica,sans-Serif" font-size="10.00">Ui::LessonEntryClass</text>
<text text-anchor="start" x="114.62" y="-250.5" font-family="Helvetica,sans-Serif" font-size="10.00"> </text>
<text text-anchor="start" x="114.62" y="-234.5" font-family="Helvetica,sans-Serif" font-size="10.00"> </text>
<polygon fill="#666666" stroke="#666666" points="64.12,-262 64.12,-262 168.12,-262 168.12,-262 64.12,-262"/>
<polygon fill="#666666" stroke="#666666" points="64.12,-246 64.12,-246 168.12,-246 168.12,-246 64.12,-246"/>
<polygon fill="none" stroke="#666666" points="64.12,-228 64.12,-280 168.12,-280 168.12,-228 64.12,-228"/>
</a>
</g>
</g>
<!-- Node3&#45;&gt;Node1 -->
<g id="edge2_Node000001_Node000003" class="edge">
<title>Node3&#45;&gt;Node1</title>
<g id="a_edge2_Node000001_Node000003"><a xlink:title=" ">
<path fill="none" stroke="#63b8ff" d="M116.12,-228.09C116.12,-195.86 116.12,-138.86 116.12,-96.6"/>
<polygon fill="none" stroke="#63b8ff" points="116.13,-96.62 112.13,-90.62 116.13,-84.62 120.13,-90.62 116.13,-96.62"/>
</a>
</g>
<text text-anchor="middle" x="122.88" y="-104.5" font-family="Helvetica,sans-Serif" font-size="10.00" fill="grey"> &#45;ui</text>
</g>
<!-- Node4 -->
<g id="Node000004" class="node">
<title>Node4</title>
<g id="a_Node000004"><a xlink:href="class_ui___lesson_entry_class.html" target="_top" xlink:title=" ">
<polygon fill="white" stroke="none" points="164.75,-620 61.5,-620 61.5,-456 164.75,-456 164.75,-620"/>
<text text-anchor="start" x="65.5" y="-606.5" font-family="Helvetica,sans-Serif" font-size="10.00">Ui_LessonEntryClass</text>
<text text-anchor="start" x="70.69" y="-590.5" font-family="Helvetica,sans-Serif" font-size="10.00">+</text>
<text text-anchor="start" x="85.88" y="-590.5" font-family="Helvetica,sans-Serif" font-size="10.00">gridLayout</text>
<text text-anchor="start" x="70.69" y="-574.5" font-family="Helvetica,sans-Serif" font-size="10.00">+</text>
<text text-anchor="start" x="85.88" y="-574.5" font-family="Helvetica,sans-Serif" font-size="10.00">frame</text>
<text text-anchor="start" x="70.69" y="-558.5" font-family="Helvetica,sans-Serif" font-size="10.00">+</text>
<text text-anchor="start" x="85.88" y="-558.5" font-family="Helvetica,sans-Serif" font-size="10.00">gridLayout_2</text>
<text text-anchor="start" x="70.69" y="-542.5" font-family="Helvetica,sans-Serif" font-size="10.00">+</text>
<text text-anchor="start" x="85.88" y="-542.5" font-family="Helvetica,sans-Serif" font-size="10.00">remove_button</text>
<text text-anchor="start" x="70.69" y="-526.5" font-family="Helvetica,sans-Serif" font-size="10.00">+</text>
<text text-anchor="start" x="85.88" y="-526.5" font-family="Helvetica,sans-Serif" font-size="10.00">time</text>
<text text-anchor="start" x="70.69" y="-510.5" font-family="Helvetica,sans-Serif" font-size="10.00">+</text>
<text text-anchor="start" x="85.88" y="-510.5" font-family="Helvetica,sans-Serif" font-size="10.00">view_button</text>
<text text-anchor="start" x="70.69" y="-494.5" font-family="Helvetica,sans-Serif" font-size="10.00">+</text>
<text text-anchor="start" x="85.88" y="-494.5" font-family="Helvetica,sans-Serif" font-size="10.00">day</text>
<text text-anchor="start" x="70.69" y="-478.5" font-family="Helvetica,sans-Serif" font-size="10.00">+</text>
<text text-anchor="start" x="85.88" y="-478.5" font-family="Helvetica,sans-Serif" font-size="10.00">setupUi()</text>
<text text-anchor="start" x="70.69" y="-462.5" font-family="Helvetica,sans-Serif" font-size="10.00">+</text>
<text text-anchor="start" x="85.88" y="-462.5" font-family="Helvetica,sans-Serif" font-size="10.00">retranslateUi()</text>
<polygon fill="#666666" stroke="#666666" points="61.5,-602 61.5,-602 164.75,-602 164.75,-602 61.5,-602"/>
<polygon fill="#666666" stroke="#666666" points="61.5,-490 61.5,-490 83.88,-490 83.88,-490 61.5,-490"/>
<polygon fill="#666666" stroke="#666666" points="83.88,-490 83.88,-490 164.75,-490 164.75,-490 83.88,-490"/>
<polygon fill="none" stroke="#666666" points="61.5,-456 61.5,-620 164.75,-620 164.75,-456 61.5,-456"/>
</a>
</g>
</g>
<!-- Node4&#45;&gt;Node3 -->
<g id="edge3_Node000003_Node000004" class="edge">
<title>Node4&#45;&gt;Node3</title>
<g id="a_edge3_Node000003_Node000004"><a xlink:title=" ">
<path fill="none" stroke="#63b8ff" d="M114.11,-444.8C114.72,-386.93 115.47,-316.54 115.86,-279.9"/>
<polygon fill="none" stroke="#63b8ff" points="110.61,-444.64 114,-454.68 117.61,-444.71 110.61,-444.64"/>
</a>
</g>
</g>
<!-- Node5 -->
<g id="Node000005" class="node">
<title>Node5</title>
<g id="a_Node000005"><a xlink:href="class_clickable_label.html" target="_top" xlink:title="A QLabel subclass that emits a clicked signal when the label is clicked.">
<polygon fill="white" stroke="none" points="166.5,-856 51.75,-856 51.75,-788 166.5,-788 166.5,-856"/>
<text text-anchor="start" x="77.25" y="-842.5" font-family="Helvetica,sans-Serif" font-size="10.00">ClickableLabel</text>
<text text-anchor="start" x="107.62" y="-826.5" font-family="Helvetica,sans-Serif" font-size="10.00"> </text>
<text text-anchor="start" x="55.75" y="-810.5" font-family="Helvetica,sans-Serif" font-size="10.00">+</text>
<text text-anchor="start" x="65.75" y="-810.5" font-family="Helvetica,sans-Serif" font-size="10.00">ClickableLabel()</text>
<text text-anchor="start" x="56.12" y="-794.5" font-family="Helvetica,sans-Serif" font-size="10.00">#</text>
<text text-anchor="start" x="65.75" y="-794.5" font-family="Helvetica,sans-Serif" font-size="10.00">mouseReleaseEvent()</text>
<polygon fill="#666666" stroke="#666666" points="51.75,-838 51.75,-838 166.5,-838 166.5,-838 51.75,-838"/>
<polygon fill="#666666" stroke="#666666" points="51.75,-822 51.75,-822 166.5,-822 166.5,-822 51.75,-822"/>
<polygon fill="none" stroke="#666666" points="51.75,-788 51.75,-856 166.5,-856 166.5,-788 51.75,-788"/>
</a>
</g>
</g>
<!-- Node5&#45;&gt;Node4 -->
<g id="edge4_Node000004_Node000005" class="edge">
<title>Node5&#45;&gt;Node4</title>
<g id="a_edge4_Node000004_Node000005"><a xlink:title=" ">
<path fill="none" stroke="#63b8ff" d="M109.59,-788.1C110.13,-750.25 111.03,-686.42 111.79,-632.86"/>
<polygon fill="none" stroke="#63b8ff" points="111.8,-632.74 107.88,-626.68 111.97,-620.74 115.88,-626.79 111.8,-632.74"/>
</a>
</g>
<text text-anchor="middle" x="132.99" y="-672.5" font-family="Helvetica,sans-Serif" font-size="10.00" fill="grey"> +address</text>
</g>
<!-- Node6 -->
<g id="Node000006" class="node">
<title>Node6</title>
<g id="a_Node000006"><a xlink:title=" ">
<polygon fill="white" stroke="none" points="128.5,-1033 89.75,-1033 89.75,-981 128.5,-981 128.5,-1033"/>
<text text-anchor="start" x="93.75" y="-1019.5" font-family="Helvetica,sans-Serif" font-size="10.00">QLabel</text>
<text text-anchor="start" x="107.62" y="-1003.5" font-family="Helvetica,sans-Serif" font-size="10.00"> </text>
<text text-anchor="start" x="107.62" y="-987.5" font-family="Helvetica,sans-Serif" font-size="10.00"> </text>
<polygon fill="#666666" stroke="#666666" points="89.75,-1015 89.75,-1015 128.5,-1015 128.5,-1015 89.75,-1015"/>
<polygon fill="#666666" stroke="#666666" points="89.75,-999 89.75,-999 128.5,-999 128.5,-999 89.75,-999"/>
<polygon fill="none" stroke="#666666" points="89.75,-981 89.75,-1033 128.5,-1033 128.5,-981 89.75,-981"/>
</a>
</g>
</g>
<!-- Node6&#45;&gt;Node5 -->
<g id="edge5_Node000005_Node000006" class="edge">
<title>Node6&#45;&gt;Node5</title>
<g id="a_edge5_Node000005_Node000006"><a xlink:title=" ">
<path fill="none" stroke="#63b8ff" d="M109.12,-969.87C109.12,-936.72 109.12,-888.03 109.12,-855.93"/>
<polygon fill="none" stroke="#63b8ff" points="105.63,-969.81 109.13,-979.81 112.63,-969.81 105.63,-969.81"/>
</a>
</g>
</g>
<!-- Node7 -->
<g id="Node000007" class="node">
<title>Node7</title>
<g id="a_Node000007"><a xlink:href="class_lesson.html" target="_top" xlink:title="Represents a lesson.">
<polygon fill="white" stroke="none" points="274,-376 192.25,-376 192.25,-132 274,-132 274,-376"/>
<text text-anchor="start" x="217.38" y="-362.5" font-family="Helvetica,sans-Serif" font-size="10.00">Lesson</text>
<text text-anchor="start" x="197.75" y="-346.5" font-family="Helvetica,sans-Serif" font-size="10.00">&#45;</text>
<text text-anchor="start" x="206.25" y="-346.5" font-family="Helvetica,sans-Serif" font-size="10.00">children_</text>
<text text-anchor="start" x="197.75" y="-330.5" font-family="Helvetica,sans-Serif" font-size="10.00">&#45;</text>
<text text-anchor="start" x="206.25" y="-330.5" font-family="Helvetica,sans-Serif" font-size="10.00">employees_</text>
<text text-anchor="start" x="197.75" y="-314.5" font-family="Helvetica,sans-Serif" font-size="10.00">&#45;</text>
<text text-anchor="start" x="206.25" y="-314.5" font-family="Helvetica,sans-Serif" font-size="10.00">attendance_</text>
<text text-anchor="start" x="196.25" y="-298.5" font-family="Helvetica,sans-Serif" font-size="10.00">+</text>
<text text-anchor="start" x="206.25" y="-298.5" font-family="Helvetica,sans-Serif" font-size="10.00">Lesson()</text>
<text text-anchor="start" x="196.25" y="-282.5" font-family="Helvetica,sans-Serif" font-size="10.00">+</text>
<text text-anchor="start" x="206.25" y="-282.5" font-family="Helvetica,sans-Serif" font-size="10.00">Lesson()</text>
<text text-anchor="start" x="196.25" y="-266.5" font-family="Helvetica,sans-Serif" font-size="10.00">+</text>
<text text-anchor="start" x="206.25" y="-266.5" font-family="Helvetica,sans-Serif" font-size="10.00">Lesson()</text>
<text text-anchor="start" x="196.25" y="-250.5" font-family="Helvetica,sans-Serif" font-size="10.00">+</text>
<text text-anchor="start" x="206.25" y="-250.5" font-family="Helvetica,sans-Serif" font-size="10.00">Lesson()</text>
<text text-anchor="start" x="196.25" y="-234.5" font-family="Helvetica,sans-Serif" font-size="10.00">+</text>
<text text-anchor="start" x="206.25" y="-234.5" font-family="Helvetica,sans-Serif" font-size="10.00">Lesson()</text>
<text text-anchor="start" x="196.25" y="-218.5" font-family="Helvetica,sans-Serif" font-size="10.00">+</text>
<text text-anchor="start" x="206.25" y="-218.5" font-family="Helvetica,sans-Serif" font-size="10.00">operator=()</text>
<text text-anchor="start" x="196.25" y="-202.5" font-family="Helvetica,sans-Serif" font-size="10.00">+</text>
<text text-anchor="start" x="206.25" y="-202.5" font-family="Helvetica,sans-Serif" font-size="10.00">operator=()</text>
<text text-anchor="start" x="196.25" y="-186.5" font-family="Helvetica,sans-Serif" font-size="10.00">+</text>
<text text-anchor="start" x="206.25" y="-186.5" font-family="Helvetica,sans-Serif" font-size="10.00">operator==()</text>
<text text-anchor="start" x="196.25" y="-170.5" font-family="Helvetica,sans-Serif" font-size="10.00">+</text>
<text text-anchor="start" x="206.25" y="-170.5" font-family="Helvetica,sans-Serif" font-size="10.00">get_schedule()</text>
<text text-anchor="start" x="196.25" y="-154.5" font-family="Helvetica,sans-Serif" font-size="10.00">+</text>
<text text-anchor="start" x="206.25" y="-154.5" font-family="Helvetica,sans-Serif" font-size="10.00">set_schedule()</text>
<text text-anchor="start" x="206.25" y="-138.5" font-family="Helvetica,sans-Serif" font-size="10.00">and 21 more...</text>
<polygon fill="#666666" stroke="#666666" points="192.25,-358 192.25,-358 274,-358 274,-358 192.25,-358"/>
<polygon fill="#666666" stroke="#666666" points="192.25,-310 192.25,-310 204.25,-310 204.25,-310 192.25,-310"/>
<polygon fill="#666666" stroke="#666666" points="204.25,-310 204.25,-310 274,-310 274,-310 204.25,-310"/>
<polygon fill="none" stroke="#666666" points="192.25,-132 192.25,-376 274,-376 274,-132 192.25,-132"/>
</a>
</g>
</g>
<!-- Node7&#45;&gt;Node1 -->
<g id="edge6_Node000001_Node000007" class="edge">
<title>Node7&#45;&gt;Node1</title>
<g id="a_edge6_Node000001_Node000007"><a xlink:title=" ">
<path fill="none" stroke="#63b8ff" d="M192.37,-160.68C187.46,-150.88 182.33,-141.15 177.12,-132 169.96,-119.41 161.56,-106.3 153.32,-94.14"/>
<polygon fill="none" stroke="#63b8ff" points="153.47,-94.36 146.77,-91.68 146.67,-84.47 153.36,-87.15 153.47,-94.36"/>
</a>
</g>
<text text-anchor="middle" x="184.78" y="-104.5" font-family="Helvetica,sans-Serif" font-size="10.00" fill="grey"> &#45;lesson_</text>
</g>
<!-- Node8 -->
<g id="Node000008" class="node">
<title>Node8</title>
<g id="a_Node000008"><a xlink:href="class_schedule.html" target="_top" xlink:title=" ">
<polygon fill="white" stroke="none" points="271,-644 195.25,-644 195.25,-432 271,-432 271,-644"/>
<text text-anchor="start" x="212.88" y="-630.5" font-family="Helvetica,sans-Serif" font-size="10.00">Schedule</text>
<text text-anchor="start" x="200.75" y="-614.5" font-family="Helvetica,sans-Serif" font-size="10.00">&#45;</text>
<text text-anchor="start" x="209.25" y="-614.5" font-family="Helvetica,sans-Serif" font-size="10.00">day_</text>
<text text-anchor="start" x="199.25" y="-598.5" font-family="Helvetica,sans-Serif" font-size="10.00">+</text>
<text text-anchor="start" x="209.25" y="-598.5" font-family="Helvetica,sans-Serif" font-size="10.00">Schedule()</text>
<text text-anchor="start" x="199.25" y="-582.5" font-family="Helvetica,sans-Serif" font-size="10.00">+</text>
<text text-anchor="start" x="209.25" y="-582.5" font-family="Helvetica,sans-Serif" font-size="10.00">Schedule()</text>
<text text-anchor="start" x="199.25" y="-566.5" font-family="Helvetica,sans-Serif" font-size="10.00">+</text>
<text text-anchor="start" x="209.25" y="-566.5" font-family="Helvetica,sans-Serif" font-size="10.00">Schedule()</text>
<text text-anchor="start" x="199.25" y="-550.5" font-family="Helvetica,sans-Serif" font-size="10.00">+</text>
<text text-anchor="start" x="209.25" y="-550.5" font-family="Helvetica,sans-Serif" font-size="10.00">Schedule()</text>
<text text-anchor="start" x="199.25" y="-534.5" font-family="Helvetica,sans-Serif" font-size="10.00">+</text>
<text text-anchor="start" x="209.25" y="-534.5" font-family="Helvetica,sans-Serif" font-size="10.00">Schedule()</text>
<text text-anchor="start" x="199.25" y="-518.5" font-family="Helvetica,sans-Serif" font-size="10.00">+</text>
<text text-anchor="start" x="209.25" y="-518.5" font-family="Helvetica,sans-Serif" font-size="10.00">operator=()</text>
<text text-anchor="start" x="199.25" y="-502.5" font-family="Helvetica,sans-Serif" font-size="10.00">+</text>
<text text-anchor="start" x="209.25" y="-502.5" font-family="Helvetica,sans-Serif" font-size="10.00">operator=()</text>
<text text-anchor="start" x="199.25" y="-486.5" font-family="Helvetica,sans-Serif" font-size="10.00">+</text>
<text text-anchor="start" x="209.25" y="-486.5" font-family="Helvetica,sans-Serif" font-size="10.00">get_day()</text>
<text text-anchor="start" x="199.25" y="-470.5" font-family="Helvetica,sans-Serif" font-size="10.00">+</text>
<text text-anchor="start" x="209.25" y="-470.5" font-family="Helvetica,sans-Serif" font-size="10.00">set_day()</text>
<text text-anchor="start" x="199.25" y="-454.5" font-family="Helvetica,sans-Serif" font-size="10.00">+</text>
<text text-anchor="start" x="209.25" y="-454.5" font-family="Helvetica,sans-Serif" font-size="10.00">get_time()</text>
<text text-anchor="start" x="209.25" y="-438.5" font-family="Helvetica,sans-Serif" font-size="10.00">and 8 more...</text>
<polygon fill="#666666" stroke="#666666" points="195.25,-626 195.25,-626 271,-626 271,-626 195.25,-626"/>
<polygon fill="#666666" stroke="#666666" points="195.25,-610 195.25,-610 207.25,-610 207.25,-610 195.25,-610"/>
<polygon fill="#666666" stroke="#666666" points="207.25,-610 207.25,-610 271,-610 271,-610 207.25,-610"/>
<polygon fill="none" stroke="#666666" points="195.25,-432 195.25,-644 271,-644 271,-432 195.25,-432"/>
</a>
</g>
</g>
<!-- Node8&#45;&gt;Node7 -->
<g id="edge7_Node000007_Node000008" class="edge">
<title>Node8&#45;&gt;Node7</title>
<g id="a_edge7_Node000007_Node000008"><a xlink:title=" ">
<path fill="none" stroke="#63b8ff" d="M233.12,-432.39C233.12,-418.09 233.12,-403.25 233.12,-388.51"/>
<polygon fill="none" stroke="#63b8ff" points="233.13,-388.51 229.13,-382.51 233.13,-376.51 237.13,-382.51 233.13,-388.51"/>
</a>
</g>
<text text-anchor="middle" x="258.25" y="-396.5" font-family="Helvetica,sans-Serif" font-size="10.00" fill="grey"> &#45;schedule_</text>
</g>
<!-- Node9 -->
<g id="Node000009" class="node">
<title>Node9</title>
<g id="a_Node000009"><a xlink:href="class_time.html" target="_top" xlink:title="Represents a time (hours, minutes, seconds, and time zone).">
<polygon fill="white" stroke="none" points="281.5,-944 184.75,-944 184.75,-700 281.5,-700 281.5,-944"/>
<text text-anchor="start" x="222.25" y="-930.5" font-family="Helvetica,sans-Serif" font-size="10.00">Time</text>
<text text-anchor="start" x="189.12" y="-914.5" font-family="Helvetica,sans-Serif" font-size="10.00">#</text>
<text text-anchor="start" x="198.75" y="-914.5" font-family="Helvetica,sans-Serif" font-size="10.00">time_</text>
<text text-anchor="start" x="188.75" y="-898.5" font-family="Helvetica,sans-Serif" font-size="10.00">+</text>
<text text-anchor="start" x="198.75" y="-898.5" font-family="Helvetica,sans-Serif" font-size="10.00">Time()</text>
<text text-anchor="start" x="188.75" y="-882.5" font-family="Helvetica,sans-Serif" font-size="10.00">+</text>
<text text-anchor="start" x="198.75" y="-882.5" font-family="Helvetica,sans-Serif" font-size="10.00">Time()</text>
<text text-anchor="start" x="188.75" y="-866.5" font-family="Helvetica,sans-Serif" font-size="10.00">+</text>
<text text-anchor="start" x="198.75" y="-866.5" font-family="Helvetica,sans-Serif" font-size="10.00">Time()</text>
<text text-anchor="start" x="188.75" y="-850.5" font-family="Helvetica,sans-Serif" font-size="10.00">+</text>
<text text-anchor="start" x="198.75" y="-850.5" font-family="Helvetica,sans-Serif" font-size="10.00">Time()</text>
<text text-anchor="start" x="188.75" y="-834.5" font-family="Helvetica,sans-Serif" font-size="10.00">+</text>
<text text-anchor="start" x="198.75" y="-834.5" font-family="Helvetica,sans-Serif" font-size="10.00">Time()</text>
<text text-anchor="start" x="188.75" y="-818.5" font-family="Helvetica,sans-Serif" font-size="10.00">+</text>
<text text-anchor="start" x="198.75" y="-818.5" font-family="Helvetica,sans-Serif" font-size="10.00">Time()</text>
<text text-anchor="start" x="188.75" y="-802.5" font-family="Helvetica,sans-Serif" font-size="10.00">+</text>
<text text-anchor="start" x="198.75" y="-802.5" font-family="Helvetica,sans-Serif" font-size="10.00">operator=()</text>
<text text-anchor="start" x="188.75" y="-786.5" font-family="Helvetica,sans-Serif" font-size="10.00">+</text>
<text text-anchor="start" x="198.75" y="-786.5" font-family="Helvetica,sans-Serif" font-size="10.00">operator=()</text>
<text text-anchor="start" x="188.75" y="-770.5" font-family="Helvetica,sans-Serif" font-size="10.00">+</text>
<text text-anchor="start" x="198.75" y="-770.5" font-family="Helvetica,sans-Serif" font-size="10.00">set_seconds()</text>
<text text-anchor="start" x="188.75" y="-754.5" font-family="Helvetica,sans-Serif" font-size="10.00">+</text>
<text text-anchor="start" x="198.75" y="-754.5" font-family="Helvetica,sans-Serif" font-size="10.00">get_seconds()</text>
<text text-anchor="start" x="198.75" y="-738.5" font-family="Helvetica,sans-Serif" font-size="10.00">and 17 more...</text>
<text text-anchor="start" x="188.75" y="-722.5" font-family="Helvetica,sans-Serif" font-size="10.00">+</text>
<text text-anchor="start" x="198.75" y="-722.5" font-family="Helvetica,sans-Serif" font-size="10.00">get_current_time()</text>
<text text-anchor="start" x="189.12" y="-706.5" font-family="Helvetica,sans-Serif" font-size="10.00">#</text>
<text text-anchor="start" x="198.75" y="-706.5" font-family="Helvetica,sans-Serif" font-size="10.00">update_time()</text>
<polygon fill="#666666" stroke="#666666" points="184.75,-926 184.75,-926 281.5,-926 281.5,-926 184.75,-926"/>
<polygon fill="#666666" stroke="#666666" points="184.75,-910 184.75,-910 196.75,-910 196.75,-910 184.75,-910"/>
<polygon fill="#666666" stroke="#666666" points="196.75,-910 196.75,-910 281.5,-910 281.5,-910 196.75,-910"/>
<polygon fill="none" stroke="#666666" points="184.75,-700 184.75,-944 281.5,-944 281.5,-700 184.75,-700"/>
</a>
</g>
</g>
<!-- Node9&#45;&gt;Node8 -->
<g id="edge8_Node000008_Node000009" class="edge">
<title>Node9&#45;&gt;Node8</title>
<g id="a_edge8_Node000008_Node000009"><a xlink:title=" ">
<path fill="none" stroke="#63b8ff" d="M233.12,-689.1C233.12,-673.83 233.12,-658.42 233.12,-643.58"/>
<polygon fill="none" stroke="#63b8ff" points="229.63,-688.67 233.13,-698.67 236.63,-688.67 229.63,-688.67"/>
</a>
</g>
</g>
<!-- Node10 -->
<g id="Node000010" class="node">
<title>Node10</title>
<g id="a_Node000010"><a xlink:href="class_address.html" target="_top" xlink:title="Represents a physical address.">
<polygon fill="white" stroke="none" points="377.75,-652 300.5,-652 300.5,-424 377.75,-424 377.75,-652"/>
<text text-anchor="start" x="321.12" y="-638.5" font-family="Helvetica,sans-Serif" font-size="10.00">Address</text>
<text text-anchor="start" x="306" y="-622.5" font-family="Helvetica,sans-Serif" font-size="10.00">&#45;</text>
<text text-anchor="start" x="314.5" y="-622.5" font-family="Helvetica,sans-Serif" font-size="10.00">address_</text>
<text text-anchor="start" x="304.5" y="-606.5" font-family="Helvetica,sans-Serif" font-size="10.00">+</text>
<text text-anchor="start" x="314.5" y="-606.5" font-family="Helvetica,sans-Serif" font-size="10.00">Address()</text>
<text text-anchor="start" x="304.5" y="-590.5" font-family="Helvetica,sans-Serif" font-size="10.00">+</text>
<text text-anchor="start" x="314.5" y="-590.5" font-family="Helvetica,sans-Serif" font-size="10.00">Address()</text>
<text text-anchor="start" x="304.5" y="-574.5" font-family="Helvetica,sans-Serif" font-size="10.00">+</text>
<text text-anchor="start" x="314.5" y="-574.5" font-family="Helvetica,sans-Serif" font-size="10.00">Address()</text>
<text text-anchor="start" x="304.5" y="-558.5" font-family="Helvetica,sans-Serif" font-size="10.00">+</text>
<text text-anchor="start" x="314.5" y="-558.5" font-family="Helvetica,sans-Serif" font-size="10.00">Address()</text>
<text text-anchor="start" x="304.5" y="-542.5" font-family="Helvetica,sans-Serif" font-size="10.00">+</text>
<text text-anchor="start" x="314.5" y="-542.5" font-family="Helvetica,sans-Serif" font-size="10.00">Address()</text>
<text text-anchor="start" x="304.5" y="-526.5" font-family="Helvetica,sans-Serif" font-size="10.00">+</text>
<text text-anchor="start" x="314.5" y="-526.5" font-family="Helvetica,sans-Serif" font-size="10.00">operator=()</text>
<text text-anchor="start" x="304.5" y="-510.5" font-family="Helvetica,sans-Serif" font-size="10.00">+</text>
<text text-anchor="start" x="314.5" y="-510.5" font-family="Helvetica,sans-Serif" font-size="10.00">operator=()</text>
<text text-anchor="start" x="304.5" y="-494.5" font-family="Helvetica,sans-Serif" font-size="10.00">+</text>
<text text-anchor="start" x="314.5" y="-494.5" font-family="Helvetica,sans-Serif" font-size="10.00">operator==()</text>
<text text-anchor="start" x="304.5" y="-478.5" font-family="Helvetica,sans-Serif" font-size="10.00">+</text>
<text text-anchor="start" x="314.5" y="-478.5" font-family="Helvetica,sans-Serif" font-size="10.00">get_address()</text>
<text text-anchor="start" x="304.5" y="-462.5" font-family="Helvetica,sans-Serif" font-size="10.00">+</text>
<text text-anchor="start" x="314.5" y="-462.5" font-family="Helvetica,sans-Serif" font-size="10.00">set_address()</text>
<text text-anchor="start" x="304.5" y="-446.5" font-family="Helvetica,sans-Serif" font-size="10.00">+</text>
<text text-anchor="start" x="314.5" y="-446.5" font-family="Helvetica,sans-Serif" font-size="10.00">copy()</text>
<text text-anchor="start" x="304.5" y="-430.5" font-family="Helvetica,sans-Serif" font-size="10.00">+</text>
<text text-anchor="start" x="314.5" y="-430.5" font-family="Helvetica,sans-Serif" font-size="10.00">~Address()</text>
<polygon fill="#666666" stroke="#666666" points="300.5,-634 300.5,-634 377.75,-634 377.75,-634 300.5,-634"/>
<polygon fill="#666666" stroke="#666666" points="300.5,-618 300.5,-618 312.5,-618 312.5,-618 300.5,-618"/>
<polygon fill="#666666" stroke="#666666" points="312.5,-618 312.5,-618 377.75,-618 377.75,-618 312.5,-618"/>
<polygon fill="none" stroke="#666666" points="300.5,-424 300.5,-652 377.75,-652 377.75,-424 300.5,-424"/>
</a>
</g>
</g>
<!-- Node10&#45;&gt;Node7 -->
<g id="edge9_Node000007_Node000010" class="edge">
<title>Node10&#45;&gt;Node7</title>
<g id="a_edge9_Node000007_Node000010"><a xlink:title=" ">
<path fill="none" stroke="#63b8ff" d="M300.62,-430.32C296.11,-418.05 291.54,-405.75 287.12,-394 284.34,-386.61 281.46,-379 278.53,-371.34"/>
<polygon fill="none" stroke="#63b8ff" points="278.53,-371.32 272.65,-367.14 274.24,-360.11 280.12,-364.28 278.53,-371.32"/>
</a>
</g>
<text text-anchor="middle" x="314.32" y="-396.5" font-family="Helvetica,sans-Serif" font-size="10.00" fill="grey"> &#45;address_</text>
</g>
<!-- Node11 -->
<g id="Node000011" class="node">
<title>Node11</title>
<g id="a_Node000011"><a xlink:href="class_contacts.html" target="_top" xlink:title="Base class for contact&#45;related utilities.">
<polygon fill="white" stroke="none" points="401.12,-848 299.12,-848 299.12,-796 401.12,-796 401.12,-848"/>
<text text-anchor="start" x="330.25" y="-834.5" font-family="Helvetica,sans-Serif" font-size="10.00">Contacts</text>
<text text-anchor="start" x="348.62" y="-818.5" font-family="Helvetica,sans-Serif" font-size="10.00"> </text>
<text text-anchor="start" x="303.12" y="-802.5" font-family="Helvetica,sans-Serif" font-size="10.00">#</text>
<text text-anchor="start" x="312.38" y="-802.5" font-family="Helvetica,sans-Serif" font-size="10.00">copy_to_clipboard()</text>
<polygon fill="#666666" stroke="#666666" points="299.12,-830 299.12,-830 401.12,-830 401.12,-830 299.12,-830"/>
<polygon fill="#666666" stroke="#666666" points="299.12,-814 299.12,-814 401.12,-814 401.12,-814 299.12,-814"/>
<polygon fill="none" stroke="#666666" points="299.12,-796 299.12,-848 401.12,-848 401.12,-796 299.12,-796"/>
</a>
</g>
</g>
<!-- Node11&#45;&gt;Node10 -->
<g id="edge10_Node000010_Node000011" class="edge">
<title>Node11&#45;&gt;Node10</title>
<g id="a_edge10_Node000010_Node000011"><a xlink:title=" ">
<path fill="none" stroke="#63b8ff" d="M348.74,-785.4C347.43,-751.8 345.39,-699.61 343.53,-651.89"/>
<polygon fill="none" stroke="#63b8ff" points="345.22,-785.1 349.11,-794.96 352.22,-784.83 345.22,-785.1"/>
</a>
</g>
</g>
</g>
</svg>

<g id="navigator" transform="translate(0 0)" fill="#404254">
  <rect fill="#f2f5e9" fill-opacity="0.5" stroke="#606060" stroke-width=".5" x="0" y="0" width="60" height="60"/>
  <use id="zoomplus" xlink:href="#zoomPlus" x="17" y="9" onmousedown="handleZoom(evt,'in')"/>
  <use id="zoomminus" xlink:href="#zoomMin" x="42" y="9" onmousedown="handleZoom(evt,'out')"/>
  <use id="reset" xlink:href="#resetDef" x="30" y="36" onmousedown="handleReset()"/>
   <use id="arrowup" xlink:href="#arrowUp" x="0" y="0" onmousedown="handlePan(0,-1)"/>
  <use id="arrowright" xlink:href="#arrowRight" x="0" y="0" onmousedown="handlePan(1,0)"/>
  <use id="arrowdown" xlink:href="#arrowDown" x="0" y="0" onmousedown="handlePan(0,1)"/>
  <use id="arrowleft" xlink:href="#arrowLeft" x="0" y="0" onmousedown="handlePan(-1,0)"/>
</g>
<svg viewBox="0 0 15 15" width="100%" height="30px" preserveAspectRatio="xMaxYMin meet">
 <g id="arrow_out" transform="scale(0.3 0.3)">
  <a xlink:href="class_lesson_entry__coll__graph_org.svg" target="_base">
   <rect id="button" ry="5" rx="5" y="6" x="6" height="38" width="38"
        fill="#f2f5e9" fill-opacity="0.5" stroke="#606060" stroke-width="1.0"/>
   <path id="arrow"
     d="M 11.500037,31.436501 C 11.940474,20.09759 22.043105,11.32322 32.158766,21.979434 L 37.068811,17.246167 C 37.068811,17.246167 37.088388,32 37.088388,32 L 22.160133,31.978069 C 22.160133,31.978069 26.997745,27.140456 26.997745,27.140456 C 18.528582,18.264221 13.291696,25.230495 11.500037,31.436501 z"
     style="fill:#404040;"/>
  </a>
 </g>
</svg>

<style type='text/css'>
<![CDATA[
[data-mouse-over-selected='false'] { opacity: 0.7; }
[data-mouse-over-selected='true']  { opacity: 1.0; }
]]>
</style>
<script type="application/ecmascript"><![CDATA[
document.addEventListener('DOMContentLoaded', (event) => {
  highlightEdges();
  highlightAdjacentNodes();
});
]]></script>
</svg>
