<?xml version="1.0" encoding="UTF-8" standalone="no"?>
<!DOCTYPE svg PUBLIC "-//W3C//DTD SVG 1.1//EN"
 "http://www.w3.org/Graphics/SVG/1.1/DTD/svg11.dtd">
<!-- Generated by graphviz version 12.2.1 (20241206.2353)
 -->
<!-- Title: DataBaseGUI::populate_employee_tab Pages: 1 -->
<svg width="1485pt" height="442pt"
 viewBox="0.00 0.00 1484.75 442.42" xmlns="http://www.w3.org/2000/svg" xmlns:xlink="http://www.w3.org/1999/xlink">
<g id="graph0" class="graph" transform="scale(1 1) rotate(0) translate(4 438.42)">
<title>DataBaseGUI::populate_employee_tab</title>
<!-- Node1 -->
<g id="Node000001" class="node">
<title>Node1</title>
<g id="a_Node000001"><a xlink:title="Populates the parent tab with a list of parents.">
<polygon fill="#999999" stroke="#666666" points="1476.75,-92 1356.5,-92 1356.5,-60 1476.75,-60 1476.75,-92"/>
<text text-anchor="start" x="1364.5" y="-78.5" font-family="Helvetica,sans-Serif" font-size="10.00">DataBaseGUI::populate</text>
<text text-anchor="middle" x="1416.62" y="-66.5" font-family="Helvetica,sans-Serif" font-size="10.00">_employee_tab</text>
</a>
</g>
</g>
<!-- Node2 -->
<g id="Node000002" class="node">
<title>Node2</title>
<g id="a_Node000002"><a xlink:href="class_data_base_g_u_i.html#a54b1ac54d775ea37ae05fd54c756aebe" target="_top" xlink:title="Searches for employees based on the provided name and surname.">
<polygon fill="white" stroke="#666666" points="1320.5,-320 1195,-320 1195,-288 1320.5,-288 1320.5,-320"/>
<text text-anchor="start" x="1203" y="-306.5" font-family="Helvetica,sans-Serif" font-size="10.00">DataBaseGUI::employee</text>
<text text-anchor="middle" x="1257.75" y="-294.5" font-family="Helvetica,sans-Serif" font-size="10.00">_search</text>
</a>
</g>
</g>
<!-- Node1&#45;&gt;Node2 -->
<g id="edge1_Node000001_Node000002" class="edge">
<title>Node1&#45;&gt;Node2</title>
<g id="a_edge1_Node000001_Node000002"><a xlink:title=" ">
<path fill="none" stroke="#63b8ff" d="M1397.97,-101.65C1365.43,-148.95 1296.85,-248.63 1269.93,-287.75"/>
<polygon fill="#63b8ff" stroke="#63b8ff" points="1400.7,-103.87 1403.49,-93.64 1394.93,-99.9 1400.7,-103.87"/>
</a>
</g>
</g>
<!-- Node16 -->
<g id="Node000016" class="node">
<title>Node16</title>
<g id="a_Node000016"><a xlink:href="class_data_base_g_u_i.html#a0298d31c219c66a65a01eb01372e254d" target="_top" xlink:title="Selects the appropriate sorting to use based on employee sort index.">
<polygon fill="white" stroke="#666666" points="1319.75,-114 1195.75,-114 1195.75,-82 1319.75,-82 1319.75,-114"/>
<text text-anchor="start" x="1203.75" y="-100.5" font-family="Helvetica,sans-Serif" font-size="10.00">DataBaseGUI::sort_to</text>
<text text-anchor="middle" x="1257.75" y="-88.5" font-family="Helvetica,sans-Serif" font-size="10.00">_populate_employee_tab</text>
</a>
</g>
</g>
<!-- Node1&#45;&gt;Node16 -->
<g id="edge23_Node000001_Node000016" class="edge">
<title>Node1&#45;&gt;Node16</title>
<g id="a_edge23_Node000001_Node000016"><a xlink:title=" ">
<path fill="none" stroke="#63b8ff" d="M1345.11,-85.89C1336.81,-87.05 1328.39,-88.23 1320.23,-89.38"/>
<polygon fill="#63b8ff" stroke="#63b8ff" points="1345.4,-89.38 1354.82,-84.53 1344.43,-82.45 1345.4,-89.38"/>
</a>
</g>
</g>
<!-- Node3 -->
<g id="Node000003" class="node">
<title>Node3</title>
<g id="a_Node000003"><a xlink:href="class_data_base_g_u_i.html#a3a2267784d541d4c74b143458aa7eedb" target="_top" xlink:title="Searches for employees based on the provided employee pointer.">
<polygon fill="white" stroke="#666666" points="1148.5,-320 1023,-320 1023,-288 1148.5,-288 1148.5,-320"/>
<text text-anchor="start" x="1031" y="-306.5" font-family="Helvetica,sans-Serif" font-size="10.00">DataBaseGUI::employee</text>
<text text-anchor="middle" x="1085.75" y="-294.5" font-family="Helvetica,sans-Serif" font-size="10.00">_search_by_pointer</text>
</a>
</g>
</g>
<!-- Node2&#45;&gt;Node3 -->
<g id="edge2_Node000002_Node000003" class="edge">
<title>Node2&#45;&gt;Node3</title>
<g id="a_edge2_Node000002_Node000003"><a xlink:title=" ">
<path fill="none" stroke="#63b8ff" d="M1183.48,-304C1171.94,-304 1160.1,-304 1148.84,-304"/>
<polygon fill="#63b8ff" stroke="#63b8ff" points="1183.38,-307.5 1193.38,-304 1183.38,-300.5 1183.38,-307.5"/>
</a>
</g>
</g>
<!-- Node8 -->
<g id="Node000008" class="node">
<title>Node8</title>
<g id="a_Node000008"><a xlink:href="class_data_base_g_u_i.html#a6c35e47ed05a80db144f240dee805a9d" target="_top" xlink:title="Sets up the GUI.">
<polygon fill="white" stroke="#666666" points="294.88,-232 187.38,-232 187.38,-212 294.88,-212 294.88,-232"/>
<text text-anchor="middle" x="241.12" y="-218.5" font-family="Helvetica,sans-Serif" font-size="10.00">DataBaseGUI::setup</text>
</a>
</g>
</g>
<!-- Node2&#45;&gt;Node8 -->
<g id="edge22_Node000002_Node000008" class="edge">
<title>Node2&#45;&gt;Node8</title>
<g id="a_edge22_Node000002_Node000008"><a xlink:title=" ">
<path fill="none" stroke="#63b8ff" d="M1219.72,-325.93C1157.66,-360.56 1027.71,-424 908.75,-424 908.75,-424 908.75,-424 728.75,-424 553.28,-424 485.06,-467.55 337.25,-373 282.96,-338.27 254.09,-260.29 245.18,-232.27"/>
<polygon fill="#63b8ff" stroke="#63b8ff" points="1221.15,-329.15 1228.13,-321.18 1217.7,-323.06 1221.15,-329.15"/>
</a>
</g>
</g>
<!-- Node4 -->
<g id="Node000004" class="node">
<title>Node4</title>
<g id="a_Node000004"><a xlink:href="class_data_base_g_u_i.html#aadcf1044a300a89dadd104cfadb9a1b1" target="_top" xlink:title="Views a lesson in the GUI.">
<polygon fill="white" stroke="#666666" points="976.5,-314 839,-314 839,-294 976.5,-294 976.5,-314"/>
<text text-anchor="middle" x="907.75" y="-300.5" font-family="Helvetica,sans-Serif" font-size="10.00">DataBaseGUI::lesson_view</text>
</a>
</g>
</g>
<!-- Node3&#45;&gt;Node4 -->
<g id="edge3_Node000003_Node000004" class="edge">
<title>Node3&#45;&gt;Node4</title>
<g id="a_edge3_Node000003_Node000004"><a xlink:title=" ">
<path fill="none" stroke="#63b8ff" d="M1011.39,-304C999.94,-304 988.15,-304 976.83,-304"/>
<polygon fill="#63b8ff" stroke="#63b8ff" points="1011.19,-307.5 1021.19,-304 1011.19,-300.5 1011.19,-307.5"/>
</a>
</g>
</g>
<!-- Node4&#45;&gt;Node4 -->
<g id="edge4_Node000004_Node000004" class="edge">
<title>Node4&#45;&gt;Node4</title>
<g id="a_edge4_Node000004_Node000004"><a xlink:title=" ">
<path fill="none" stroke="#63b8ff" d="M939.54,-325.11C935.75,-329.14 925.15,-332 907.75,-332 876.81,-332 867.38,-322.98 879.47,-314.34"/>
<polygon fill="#63b8ff" stroke="#63b8ff" points="942.93,-324.2 936.5,-315.78 936.27,-326.37 942.93,-324.2"/>
</a>
</g>
</g>
<!-- Node5 -->
<g id="Node000005" class="node">
<title>Node5</title>
<g id="a_Node000005"><a xlink:href="class_data_base_g_u_i.html#a74e047889e913eae69ec40ec17f53c9d" target="_top" xlink:title="Populates the lessons tab with a multimap of lessons.">
<polygon fill="white" stroke="#666666" points="301.25,-405 181,-405 181,-373 301.25,-373 301.25,-405"/>
<text text-anchor="start" x="189" y="-391.5" font-family="Helvetica,sans-Serif" font-size="10.00">DataBaseGUI::populate</text>
<text text-anchor="middle" x="241.12" y="-379.5" font-family="Helvetica,sans-Serif" font-size="10.00">_lesson_tab</text>
</a>
</g>
</g>
<!-- Node4&#45;&gt;Node5 -->
<g id="edge5_Node000004_Node000005" class="edge">
<title>Node4&#45;&gt;Node5</title>
<g id="a_edge5_Node000004_Node000005"><a xlink:title=" ">
<path fill="none" stroke="#63b8ff" d="M856.74,-317.17C839.76,-321.34 820.63,-325.72 803,-329 656.67,-356.25 619.09,-358.03 471,-373 413.54,-378.81 347.74,-383.17 301.49,-385.86"/>
<polygon fill="#63b8ff" stroke="#63b8ff" points="857.22,-320.66 866.08,-314.84 855.53,-313.87 857.22,-320.66"/>
</a>
</g>
</g>
<!-- Node6 -->
<g id="Node000006" class="node">
<title>Node6</title>
<g id="a_Node000006"><a xlink:href="class_data_base_g_u_i.html#aa6b02e4e81b0113fb1c75d7d5ef0be59" target="_top" xlink:title="Populates the lessons tab with a list of lessons.">
<polygon fill="white" stroke="#666666" points="789.88,-320 669.62,-320 669.62,-288 789.88,-288 789.88,-320"/>
<text text-anchor="start" x="677.62" y="-306.5" font-family="Helvetica,sans-Serif" font-size="10.00">DataBaseGUI::populate</text>
<text text-anchor="middle" x="729.75" y="-294.5" font-family="Helvetica,sans-Serif" font-size="10.00">_lesson_tab</text>
</a>
</g>
</g>
<!-- Node4&#45;&gt;Node6 -->
<g id="edge6_Node000004_Node000006" class="edge">
<title>Node4&#45;&gt;Node6</title>
<g id="a_edge6_Node000004_Node000006"><a xlink:title=" ">
<path fill="none" stroke="#63b8ff" d="M827.36,-304C814.9,-304 802.21,-304 790.3,-304"/>
<polygon fill="#63b8ff" stroke="#63b8ff" points="827.19,-307.5 837.19,-304 827.19,-300.5 827.19,-307.5"/>
</a>
</g>
</g>
<!-- Node7 -->
<g id="Node000007" class="node">
<title>Node7</title>
<g id="a_Node000007"><a xlink:href="class_data_base_g_u_i.html#a55b3c6d3607f17f55d4c321e97fdce7f" target="_top" xlink:title="Searches for lessons based on the provided child name and surname.">
<polygon fill="white" stroke="#666666" points="619.75,-320 507.75,-320 507.75,-288 619.75,-288 619.75,-320"/>
<text text-anchor="start" x="515.75" y="-306.5" font-family="Helvetica,sans-Serif" font-size="10.00">DataBaseGUI::lesson</text>
<text text-anchor="middle" x="563.75" y="-294.5" font-family="Helvetica,sans-Serif" font-size="10.00">_search</text>
</a>
</g>
</g>
<!-- Node6&#45;&gt;Node7 -->
<g id="edge7_Node000006_Node000007" class="edge">
<title>Node6&#45;&gt;Node7</title>
<g id="a_edge7_Node000006_Node000007"><a xlink:title=" ">
<path fill="none" stroke="#63b8ff" d="M658.4,-304C645.57,-304 632.36,-304 620.04,-304"/>
<polygon fill="#63b8ff" stroke="#63b8ff" points="658.03,-307.5 668.03,-304 658.03,-300.5 658.03,-307.5"/>
</a>
</g>
</g>
<!-- Node11 -->
<g id="Node000011" class="node">
<title>Node11</title>
<g id="a_Node000011"><a xlink:href="class_data_base_g_u_i.html#a1ad152b7becf3e0051cdd5dbae6d4abc" target="_top" xlink:title="Selects the appropriate sorting to use based on lesson sort index.">
<polygon fill="white" stroke="#666666" points="620.5,-270 507,-270 507,-238 620.5,-238 620.5,-270"/>
<text text-anchor="start" x="515" y="-256.5" font-family="Helvetica,sans-Serif" font-size="10.00">DataBaseGUI::sort_to</text>
<text text-anchor="middle" x="563.75" y="-244.5" font-family="Helvetica,sans-Serif" font-size="10.00">_populate_lesson_tab</text>
</a>
</g>
</g>
<!-- Node6&#45;&gt;Node11 -->
<g id="edge11_Node000006_Node000011" class="edge">
<title>Node6&#45;&gt;Node11</title>
<g id="a_edge11_Node000006_Node000011"><a xlink:title=" ">
<path fill="none" stroke="#63b8ff" d="M664.28,-284.34C649.24,-279.76 633.38,-274.92 618.85,-270.49"/>
<polygon fill="#63b8ff" stroke="#63b8ff" points="663.02,-287.62 673.6,-287.19 665.06,-280.92 663.02,-287.62"/>
</a>
</g>
</g>
<!-- Node7&#45;&gt;Node8 -->
<g id="edge8_Node000007_Node000008" class="edge">
<title>Node7&#45;&gt;Node8</title>
<g id="a_edge8_Node000007_Node000008"><a xlink:title=" ">
<path fill="none" stroke="#63b8ff" d="M496.11,-306.96C450.24,-306.95 388.57,-302.84 337.25,-285 303.57,-273.29 270.23,-246.9 253.39,-232.27"/>
<polygon fill="#63b8ff" stroke="#63b8ff" points="495.92,-310.46 505.9,-306.89 495.88,-303.46 495.92,-310.46"/>
</a>
</g>
</g>
<!-- Node9 -->
<g id="Node000009" class="node">
<title>Node9</title>
<g id="a_Node000009"><a xlink:href="class_data_base_g_u_i.html#a2c83afe3a30fb5166d275d9a74d33196" target="_top" xlink:title="Default constructor.">
<polygon fill="white" stroke="#666666" points="145,-251 0,-251 0,-231 145,-231 145,-251"/>
<text text-anchor="middle" x="72.5" y="-237.5" font-family="Helvetica,sans-Serif" font-size="10.00">DataBaseGUI::DataBaseGUI</text>
</a>
</g>
</g>
<!-- Node8&#45;&gt;Node9 -->
<g id="edge9_Node000008_Node000009" class="edge">
<title>Node8&#45;&gt;Node9</title>
<g id="a_edge9_Node000008_Node000009"><a xlink:title=" ">
<path fill="none" stroke="#63b8ff" d="M175.53,-229.37C165.64,-230.49 155.37,-231.67 145.32,-232.81"/>
<polygon fill="#63b8ff" stroke="#63b8ff" points="175.9,-232.85 185.44,-228.24 175.11,-225.89 175.9,-232.85"/>
</a>
</g>
</g>
<!-- Node10 -->
<g id="Node000010" class="node">
<title>Node10</title>
<g id="a_Node000010"><a xlink:href="class_data_base_g_u_i.html#aba10d1d8e9fb151632ff34de418cee82" target="_top" xlink:title="Constructs a DataBaseGUI object.">
<polygon fill="white" stroke="#666666" points="145,-213 0,-213 0,-193 145,-193 145,-213"/>
<text text-anchor="middle" x="72.5" y="-199.5" font-family="Helvetica,sans-Serif" font-size="10.00">DataBaseGUI::DataBaseGUI</text>
</a>
</g>
</g>
<!-- Node8&#45;&gt;Node10 -->
<g id="edge10_Node000008_Node000010" class="edge">
<title>Node8&#45;&gt;Node10</title>
<g id="a_edge10_Node000008_Node000010"><a xlink:title=" ">
<path fill="none" stroke="#63b8ff" d="M175.53,-214.63C165.64,-213.51 155.37,-212.33 145.32,-211.19"/>
<polygon fill="#63b8ff" stroke="#63b8ff" points="175.11,-218.11 185.44,-215.76 175.9,-211.15 175.11,-218.11"/>
</a>
</g>
</g>
<!-- Node11&#45;&gt;Node4 -->
<g id="edge19_Node000011_Node000004" class="edge">
<title>Node11&#45;&gt;Node4</title>
<g id="a_edge19_Node000011_Node000004"><a xlink:title=" ">
<path fill="none" stroke="#63b8ff" d="M632.34,-258.7C680.22,-262.62 745.82,-269.16 803,-279 824.91,-282.77 849.08,-288.5 868.57,-293.52"/>
<polygon fill="#63b8ff" stroke="#63b8ff" points="632.63,-255.22 622.39,-257.91 632.08,-262.19 632.63,-255.22"/>
</a>
</g>
</g>
<!-- Node12 -->
<g id="Node000012" class="node">
<title>Node12</title>
<g id="a_Node000012"><a xlink:href="class_data_base_g_u_i.html#a778bdaec7f9281df4c0ead66c9dcffd2" target="_top" xlink:title="Adds a new lesson to the database.">
<polygon fill="white" stroke="#666666" points="470.62,-276 337.62,-276 337.62,-256 470.62,-256 470.62,-276"/>
<text text-anchor="middle" x="404.12" y="-262.5" font-family="Helvetica,sans-Serif" font-size="10.00">DataBaseGUI::lesson_add</text>
</a>
</g>
</g>
<!-- Node11&#45;&gt;Node12 -->
<g id="edge12_Node000011_Node000012" class="edge">
<title>Node11&#45;&gt;Node12</title>
<g id="a_edge12_Node000011_Node000012"><a xlink:title=" ">
<path fill="none" stroke="#63b8ff" d="M495.41,-259.13C487.3,-259.74 479.02,-260.37 470.93,-260.99"/>
<polygon fill="#63b8ff" stroke="#63b8ff" points="495.52,-262.63 505.22,-258.38 494.99,-255.65 495.52,-262.63"/>
</a>
</g>
</g>
<!-- Node13 -->
<g id="Node000013" class="node">
<title>Node13</title>
<g id="a_Node000013"><a xlink:href="class_data_base_g_u_i.html#a66a3e89a9852de3522d98f2c1f8cdeed" target="_top" xlink:title="Removes a lesson from the database.">
<polygon fill="white" stroke="#666666" points="460.12,-364 348.12,-364 348.12,-332 460.12,-332 460.12,-364"/>
<text text-anchor="start" x="356.12" y="-350.5" font-family="Helvetica,sans-Serif" font-size="10.00">DataBaseGUI::lesson</text>
<text text-anchor="middle" x="404.12" y="-338.5" font-family="Helvetica,sans-Serif" font-size="10.00">_remove</text>
</a>
</g>
</g>
<!-- Node11&#45;&gt;Node13 -->
<g id="edge14_Node000011_Node000013" class="edge">
<title>Node11&#45;&gt;Node13</title>
<g id="a_edge14_Node000011_Node000013"><a xlink:title=" ">
<path fill="none" stroke="#63b8ff" d="M513.35,-275.59C511.19,-276.71 509.06,-277.85 507,-279 478.08,-295.12 446.83,-317.01 426.68,-331.78"/>
<polygon fill="#63b8ff" stroke="#63b8ff" points="514.87,-278.74 522.28,-271.17 511.76,-272.47 514.87,-278.74"/>
</a>
</g>
</g>
<!-- Node14 -->
<g id="Node000014" class="node">
<title>Node14</title>
<g id="a_Node000014"><a xlink:href="class_data_base_g_u_i.html#a0478b87f545d97b9e3ef55858242878b" target="_top" xlink:title="Changes the sorting method for lessons.">
<polygon fill="white" stroke="#666666" points="460.12,-238 348.12,-238 348.12,-206 460.12,-206 460.12,-238"/>
<text text-anchor="start" x="356.12" y="-224.5" font-family="Helvetica,sans-Serif" font-size="10.00">DataBaseGUI::lesson</text>
<text text-anchor="middle" x="404.12" y="-212.5" font-family="Helvetica,sans-Serif" font-size="10.00">_sort_change</text>
</a>
</g>
</g>
<!-- Node11&#45;&gt;Node14 -->
<g id="edge17_Node000011_Node000014" class="edge">
<title>Node11&#45;&gt;Node14</title>
<g id="a_edge17_Node000011_Node000014"><a xlink:title=" ">
<path fill="none" stroke="#63b8ff" d="M495.63,-240.37C483.89,-237.99 471.8,-235.54 460.43,-233.23"/>
<polygon fill="#63b8ff" stroke="#63b8ff" points="494.75,-243.77 505.25,-242.33 496.15,-236.91 494.75,-243.77"/>
</a>
</g>
</g>
<!-- Node15 -->
<g id="Node000015" class="node">
<title>Node15</title>
<g id="a_Node000015"><a xlink:href="class_data_base_g_u_i.html#a438b5070d6a58ffa5e884d18740852c6" target="_top" xlink:title="Handles tab change events.">
<polygon fill="white" stroke="#666666" points="471,-188 337.25,-188 337.25,-168 471,-168 471,-188"/>
<text text-anchor="middle" x="404.12" y="-174.5" font-family="Helvetica,sans-Serif" font-size="10.00">DataBaseGUI::tab_change</text>
</a>
</g>
</g>
<!-- Node11&#45;&gt;Node15 -->
<g id="edge20_Node000011_Node000015" class="edge">
<title>Node11&#45;&gt;Node15</title>
<g id="a_edge20_Node000011_Node000015"><a xlink:title=" ">
<path fill="none" stroke="#63b8ff" d="M530.85,-231.15C513.74,-219.69 491.91,-206.3 471,-197 463.71,-193.76 455.73,-190.91 447.91,-188.48"/>
<polygon fill="#63b8ff" stroke="#63b8ff" points="528.86,-234.03 539.1,-236.78 532.81,-228.25 528.86,-234.03"/>
</a>
</g>
</g>
<!-- Node12&#45;&gt;Node8 -->
<g id="edge13_Node000012_Node000008" class="edge">
<title>Node12&#45;&gt;Node8</title>
<g id="a_edge13_Node000012_Node000008"><a xlink:title=" ">
<path fill="none" stroke="#63b8ff" d="M354.08,-252.6C330.38,-246.12 302.36,-238.46 280.28,-232.43"/>
<polygon fill="#63b8ff" stroke="#63b8ff" points="352.94,-255.91 363.51,-255.17 354.79,-249.16 352.94,-255.91"/>
</a>
</g>
</g>
<!-- Node13&#45;&gt;Node5 -->
<g id="edge15_Node000013_Node000005" class="edge">
<title>Node13&#45;&gt;Node5</title>
<g id="a_edge15_Node000013_Node000005"><a xlink:title=" ">
<path fill="none" stroke="#63b8ff" d="M336.69,-364.92C325.02,-367.89 312.94,-370.97 301.48,-373.88"/>
<polygon fill="#63b8ff" stroke="#63b8ff" points="337.42,-368.34 346.25,-362.48 335.7,-361.56 337.42,-368.34"/>
</a>
</g>
</g>
<!-- Node13&#45;&gt;Node6 -->
<g id="edge16_Node000013_Node000006" class="edge">
<title>Node13&#45;&gt;Node6</title>
<g id="a_edge16_Node000013_Node000006"><a xlink:title=" ">
<path fill="none" stroke="#63b8ff" d="M471.65,-344.53C514.36,-341.71 570.92,-336.87 620.5,-329 636.41,-326.47 653.45,-322.94 669.2,-319.32"/>
<polygon fill="#63b8ff" stroke="#63b8ff" points="471.53,-341.03 461.78,-345.15 471.98,-348.01 471.53,-341.03"/>
</a>
</g>
</g>
<!-- Node14&#45;&gt;Node8 -->
<g id="edge18_Node000014_Node000008" class="edge">
<title>Node14&#45;&gt;Node8</title>
<g id="a_edge18_Node000014_Node000008"><a xlink:title=" ">
<path fill="none" stroke="#63b8ff" d="M336.35,-222C322.63,-222 308.35,-222 295.19,-222"/>
<polygon fill="#63b8ff" stroke="#63b8ff" points="336.2,-225.5 346.2,-222 336.2,-218.5 336.2,-225.5"/>
</a>
</g>
</g>
<!-- Node15&#45;&gt;Node8 -->
<g id="edge21_Node000015_Node000008" class="edge">
<title>Node15&#45;&gt;Node8</title>
<g id="a_edge21_Node000015_Node000008"><a xlink:title=" ">
<path fill="none" stroke="#63b8ff" d="M354.08,-191.4C330.38,-197.88 302.36,-205.54 280.28,-211.57"/>
<polygon fill="#63b8ff" stroke="#63b8ff" points="354.79,-194.84 363.51,-188.83 352.94,-188.09 354.79,-194.84"/>
</a>
</g>
</g>
<!-- Node16&#45;&gt;Node15 -->
<g id="edge34_Node000016_Node000015" class="edge">
<title>Node16&#45;&gt;Node15</title>
<g id="a_edge34_Node000016_Node000015"><a xlink:title=" ">
<path fill="none" stroke="#63b8ff" d="M1207.58,-118.64C1141.06,-144.65 1018.11,-186 908.75,-186 908.75,-186 908.75,-186 728.75,-186 639.67,-186 536.84,-182.93 471.43,-180.6"/>
<polygon fill="#63b8ff" stroke="#63b8ff" points="1208.74,-121.95 1216.75,-115.01 1206.16,-115.44 1208.74,-121.95"/>
</a>
</g>
</g>
<!-- Node17 -->
<g id="Node000017" class="node">
<title>Node17</title>
<g id="a_Node000017"><a xlink:href="class_data_base_g_u_i.html#a0f194ae2af0655dbec77fea4c37a0388" target="_top" xlink:title="Adds a new employee to the database.">
<polygon fill="white" stroke="#666666" points="803,-109 656.5,-109 656.5,-89 803,-89 803,-109"/>
<text text-anchor="middle" x="729.75" y="-95.5" font-family="Helvetica,sans-Serif" font-size="10.00">DataBaseGUI::employee_add</text>
</a>
</g>
</g>
<!-- Node16&#45;&gt;Node17 -->
<g id="edge24_Node000016_Node000017" class="edge">
<title>Node16&#45;&gt;Node17</title>
<g id="a_edge24_Node000016_Node000017"><a xlink:title=" ">
<path fill="none" stroke="#63b8ff" d="M1184.15,-98.14C1083.83,-98.33 903.88,-98.67 803.49,-98.86"/>
<polygon fill="#63b8ff" stroke="#63b8ff" points="1183.87,-101.64 1193.87,-98.12 1183.86,-94.64 1183.87,-101.64"/>
</a>
</g>
</g>
<!-- Node18 -->
<g id="Node000018" class="node">
<title>Node18</title>
<g id="a_Node000018"><a xlink:href="class_data_base_g_u_i.html#ae9c0b91905f7d70563c285cd9b5dace3" target="_top" xlink:title="Edits an existing employee in the database.">
<polygon fill="white" stroke="#666666" points="1159,-20 1012.5,-20 1012.5,0 1159,0 1159,-20"/>
<text text-anchor="middle" x="1085.75" y="-6.5" font-family="Helvetica,sans-Serif" font-size="10.00">DataBaseGUI::employee_edit</text>
</a>
</g>
</g>
<!-- Node16&#45;&gt;Node18 -->
<g id="edge26_Node000016_Node000018" class="edge">
<title>Node16&#45;&gt;Node18</title>
<g id="a_edge26_Node000016_Node000018"><a xlink:title=" ">
<path fill="none" stroke="#63b8ff" d="M1229.34,-74.6C1210.6,-59.66 1184.61,-40.93 1159,-29 1151.83,-25.66 1143.97,-22.83 1136.16,-20.46"/>
<polygon fill="#63b8ff" stroke="#63b8ff" points="1227.04,-77.24 1237,-80.84 1231.46,-71.81 1227.04,-77.24"/>
</a>
</g>
</g>
<!-- Node20 -->
<g id="Node000020" class="node">
<title>Node20</title>
<g id="a_Node000020"><a xlink:href="class_data_base_g_u_i.html#a4b70294327e9c316224af10d7a369749" target="_top" xlink:title="Removes an employee from the database.">
<polygon fill="white" stroke="#666666" points="1148.5,-70 1023,-70 1023,-38 1148.5,-38 1148.5,-70"/>
<text text-anchor="start" x="1031" y="-56.5" font-family="Helvetica,sans-Serif" font-size="10.00">DataBaseGUI::employee</text>
<text text-anchor="middle" x="1085.75" y="-44.5" font-family="Helvetica,sans-Serif" font-size="10.00">_remove</text>
</a>
</g>
</g>
<!-- Node16&#45;&gt;Node20 -->
<g id="edge29_Node000016_Node000020" class="edge">
<title>Node16&#45;&gt;Node20</title>
<g id="a_edge29_Node000016_Node000020"><a xlink:title=" ">
<path fill="none" stroke="#63b8ff" d="M1184.59,-79.32C1172.72,-76.25 1160.5,-73.09 1148.89,-70.08"/>
<polygon fill="#63b8ff" stroke="#63b8ff" points="1183.35,-82.62 1193.91,-81.74 1185.11,-75.84 1183.35,-82.62"/>
</a>
</g>
</g>
<!-- Node21 -->
<g id="Node000021" class="node">
<title>Node21</title>
<g id="a_Node000021"><a xlink:href="class_data_base_g_u_i.html#a7db832ef3939cc57a78a16f4c09994a6" target="_top" xlink:title="Changes the sorting method for employees.">
<polygon fill="white" stroke="#666666" points="970.5,-158 845,-158 845,-126 970.5,-126 970.5,-158"/>
<text text-anchor="start" x="853" y="-144.5" font-family="Helvetica,sans-Serif" font-size="10.00">DataBaseGUI::employee</text>
<text text-anchor="middle" x="907.75" y="-132.5" font-family="Helvetica,sans-Serif" font-size="10.00">_sort_change</text>
</a>
</g>
</g>
<!-- Node16&#45;&gt;Node21 -->
<g id="edge32_Node000016_Node000021" class="edge">
<title>Node16&#45;&gt;Node21</title>
<g id="a_edge32_Node000016_Node000021"><a xlink:title=" ">
<path fill="none" stroke="#63b8ff" d="M1184.35,-108.56C1175.81,-109.75 1167.21,-110.92 1159,-112 1094.9,-120.43 1021.43,-129.12 970.76,-134.97"/>
<polygon fill="#63b8ff" stroke="#63b8ff" points="1184.6,-112.06 1194.01,-107.2 1183.62,-105.13 1184.6,-112.06"/>
</a>
</g>
</g>
<!-- Node17&#45;&gt;Node8 -->
<g id="edge25_Node000017_Node000008" class="edge">
<title>Node17&#45;&gt;Node8</title>
<g id="a_edge25_Node000017_Node000008"><a xlink:title=" ">
<path fill="none" stroke="#63b8ff" d="M644.8,-88.24C562.56,-81.41 435.61,-80.96 337.25,-126 295.44,-145.15 261.89,-191.25 248.46,-211.81"/>
<polygon fill="#63b8ff" stroke="#63b8ff" points="644.33,-91.71 654.6,-89.11 644.95,-84.74 644.33,-91.71"/>
</a>
</g>
</g>
<!-- Node18&#45;&gt;Node1 -->
<g id="edge28_Node000018_Node000001" class="edge">
<title>Node18&#45;&gt;Node1</title>
<g id="a_edge28_Node000018_Node000001"><a xlink:title=" ">
<path fill="none" stroke="#63b8ff" d="M1149.95,-22.68C1209.42,-34.62 1297.81,-52.36 1356.07,-64.05"/>
<polygon fill="#63b8ff" stroke="#63b8ff" points="1150.8,-19.28 1140.31,-20.75 1149.42,-26.15 1150.8,-19.28"/>
</a>
</g>
</g>
<!-- Node19 -->
<g id="Node000019" class="node">
<title>Node19</title>
<g id="a_Node000019"><a xlink:href="class_data_base_g_u_i.html#a2232520db239e60a4c37ee49868e6652" target="_top" xlink:title="Populates the parent tab with a multimap of parents.">
<polygon fill="white" stroke="#666666" points="967.88,-48 847.62,-48 847.62,-16 967.88,-16 967.88,-48"/>
<text text-anchor="start" x="855.62" y="-34.5" font-family="Helvetica,sans-Serif" font-size="10.00">DataBaseGUI::populate</text>
<text text-anchor="middle" x="907.75" y="-22.5" font-family="Helvetica,sans-Serif" font-size="10.00">_employee_tab</text>
</a>
</g>
</g>
<!-- Node18&#45;&gt;Node19 -->
<g id="edge27_Node000018_Node000019" class="edge">
<title>Node18&#45;&gt;Node19</title>
<g id="a_edge27_Node000018_Node000019"><a xlink:title=" ">
<path fill="none" stroke="#63b8ff" d="M1000.78,-20.5C989.82,-21.87 978.77,-23.25 968.32,-24.55"/>
<polygon fill="#63b8ff" stroke="#63b8ff" points="1001.16,-23.98 1010.65,-19.26 1000.29,-17.03 1001.16,-23.98"/>
</a>
</g>
</g>
<!-- Node20&#45;&gt;Node1 -->
<g id="edge31_Node000020_Node000001" class="edge">
<title>Node20&#45;&gt;Node1</title>
<g id="a_edge31_Node000020_Node000001"><a xlink:title=" ">
<path fill="none" stroke="#63b8ff" d="M1160.42,-58.93C1219.43,-62.88 1301.14,-68.34 1356.07,-72.02"/>
<polygon fill="#63b8ff" stroke="#63b8ff" points="1160.66,-55.44 1150.45,-58.26 1160.19,-62.42 1160.66,-55.44"/>
</a>
</g>
</g>
<!-- Node20&#45;&gt;Node19 -->
<g id="edge30_Node000020_Node000019" class="edge">
<title>Node20&#45;&gt;Node19</title>
<g id="a_edge30_Node000020_Node000019"><a xlink:title=" ">
<path fill="none" stroke="#63b8ff" d="M1011.31,-44.82C996.94,-43.02 982.02,-41.16 968.17,-39.43"/>
<polygon fill="#63b8ff" stroke="#63b8ff" points="1010.84,-48.29 1021.2,-46.06 1011.71,-41.34 1010.84,-48.29"/>
</a>
</g>
</g>
<!-- Node21&#45;&gt;Node8 -->
<g id="edge33_Node000021_Node000008" class="edge">
<title>Node21&#45;&gt;Node8</title>
<g id="a_edge33_Node000021_Node000008"><a xlink:title=" ">
<path fill="none" stroke="#63b8ff" d="M833.3,-131.64C722.71,-118.81 508.21,-104.73 337.25,-159 303.08,-169.85 269.67,-196.85 253.04,-211.74"/>
<polygon fill="#63b8ff" stroke="#63b8ff" points="832.79,-135.11 843.14,-132.82 833.63,-128.16 832.79,-135.11"/>
</a>
</g>
</g>
</g>
</svg>
