<?xml version="1.0" encoding="UTF-8" standalone="no"?>
<!DOCTYPE svg PUBLIC "-//W3C//DTD SVG 1.1//EN"
 "http://www.w3.org/Graphics/SVG/1.1/DTD/svg11.dtd">
<!-- Generated by graphviz version 12.2.1 (20241206.2353)
 -->
<!-- Title: PersonLabel::childClicked Pages: 1 -->
<!--zoomable 146 -->

<svg id="main" version="1.1" xmlns="http://www.w3.org/2000/svg" xmlns:xlink="http://www.w3.org/1999/xlink" xml:space="preserve" onload="init(evt)">

<style type="text/css"><![CDATA[
.node, .edge {opacity: 0.7;}
.node.selected, .edge.selected {opacity: 1;}
.edge:hover path { stroke: red; }
.edge:hover polygon { stroke: red; fill: red; }
]]></style>

<defs>
  <circle id="rim" cx="0" cy="0" r="7"/>
  <circle id="rim2" cx="0" cy="0" r="3.5"/>
  <g id="zoomPlus">
    <use xlink:href="#rim" fill="#404040"><set attributeName="fill" to="#808080" begin="zoomplus.mouseover" end="zoomplus.mouseout"/></use>
    <path d="M-4,0h8M0,-4v8" fill="none" stroke="white" stroke-width="1.5" pointer-events="none"/>
  </g>
  <g id="zoomMin">
    <use xlink:href="#rim" fill="#404040"><set attributeName="fill" to="#808080" begin="zoomminus.mouseover" end="zoomminus.mouseout"/></use>
    <path d="M-4,0h8" fill="none" stroke="white" stroke-width="1.5" pointer-events="none"/>
  </g>
  <g id="arrowUp" transform="translate(30 24)">
    <use xlink:href="#rim"/>
    <path pointer-events="none" fill="none" stroke="white" stroke-width="1.5" d="M0,-3.0v7 M-2.5,-0.5L0,-3.0L2.5,-0.5"/>
  </g>
  <g id="arrowRight" transform="rotate(90) translate(36 -43)">
    <use xlink:href="#rim"/>
    <path pointer-events="none" fill="none" stroke="white" stroke-width="1.5" d="M0,-3.0v7 M-2.5,-0.5L0,-3.0L2.5,-0.5"/>
  </g>
  <g id="arrowDown" transform="rotate(180) translate(-30 -48)">
    <use xlink:href="#rim"/>
    <path pointer-events="none" fill="none" stroke="white" stroke-width="1.5" d="M0,-3.0v7 M-2.5,-0.5L0,-3.0L2.5,-0.5"/>
  </g>
  <g id="arrowLeft" transform="rotate(270) translate(-36 17)">
    <use xlink:href="#rim"/>
    <path pointer-events="none" fill="none" stroke="white" stroke-width="1.5" d="M0,-3.0v7 M-2.5,-0.5L0,-3.0L2.5,-0.5"/>
  </g>
  <g id="resetDef">
    <use xlink:href="#rim2" fill="#404040"><set attributeName="fill" to="#808080" begin="reset.mouseover" end="reset.mouseout"/></use>
  </g>
</defs>
<script type="application/ecmascript">
var viewWidth = 616;
var viewHeight = 146;
var sectionId = 'dynsection-3';
</script>
<script type="application/ecmascript" xlink:href="svg.min.js"/>
<svg id="graph" class="graph">
<g id="viewport">
<title>PersonLabel::childClicked</title>
<!-- Node1 -->
<g id="Node000001" class="node">
<title>Node1</title>
<g id="a_Node000001"><a xlink:title="Signal emitted when the person label is clicked.">
<polygon fill="#999999" stroke="#666666" points="607.75,-80 478.5,-80 478.5,-60 607.75,-60 607.75,-80"/>
<text text-anchor="middle" x="543.12" y="-66.5" font-family="Helvetica,sans-Serif" font-size="10.00">PersonLabel::childClicked</text>
</a>
</g>
</g>
<!-- Node2 -->
<g id="Node000002" class="node">
<title>Node2</title>
<g id="a_Node000002"><a xlink:href="class_person_label.html#a84dedd1b0abbbfdf9771882b02bbd9df" target="_top" xlink:title="Handles the click event on the label.">
<polygon fill="white" stroke="#666666" points="442.5,-138 330.5,-138 330.5,-106 442.5,-106 442.5,-138"/>
<text text-anchor="start" x="338.5" y="-124.5" font-family="Helvetica,sans-Serif" font-size="10.00">PersonLabel::on_label</text>
<text text-anchor="middle" x="386.5" y="-112.5" font-family="Helvetica,sans-Serif" font-size="10.00">_clicked</text>
</a>
</g>
</g>
<!-- Node1&#45;&gt;Node2 -->
<g id="edge1_Node000001_Node000002" class="edge">
<title>Node1&#45;&gt;Node2</title>
<g id="a_edge1_Node000001_Node000002"><a xlink:title=" ">
<path fill="none" stroke="#63b8ff" d="M500.39,-84.04C480.63,-90.68 456.91,-98.66 436.33,-105.58"/>
<polygon fill="#63b8ff" stroke="#63b8ff" points="501.41,-87.39 509.77,-80.88 499.18,-80.75 501.41,-87.39"/>
</a>
</g>
</g>
<!-- Node4 -->
<g id="Node000004" class="node">
<title>Node4</title>
<g id="a_Node000004"><a xlink:href="class_lesson_view.html#ab176e4c21a912197c8400af154e31f4c" target="_top" xlink:title="Populates the children sections of the lesson view.">
<polygon fill="white" stroke="#666666" points="442.5,-86 330.5,-86 330.5,-54 442.5,-54 442.5,-86"/>
<text text-anchor="start" x="338.5" y="-72.5" font-family="Helvetica,sans-Serif" font-size="10.00">LessonView::populate</text>
<text text-anchor="middle" x="386.5" y="-60.5" font-family="Helvetica,sans-Serif" font-size="10.00">_children</text>
</a>
</g>
</g>
<!-- Node1&#45;&gt;Node4 -->
<g id="edge3_Node000001_Node000004" class="edge">
<title>Node1&#45;&gt;Node4</title>
<g id="a_edge3_Node000001_Node000004"><a xlink:title=" ">
<path fill="none" stroke="#63b8ff" d="M466.89,-70C458.75,-70 450.59,-70 442.75,-70"/>
<polygon fill="#63b8ff" stroke="#63b8ff" points="466.83,-73.5 476.83,-70 466.83,-66.5 466.83,-73.5"/>
</a>
</g>
</g>
<!-- Node7 -->
<g id="Node000007" class="node">
<title>Node7</title>
<g id="a_Node000007"><a xlink:href="class_parent_entry.html#afbc19a7aa219add3dd8efa219c1b713d" target="_top" xlink:title="Sets up the parent entry widget.">
<polygon fill="white" stroke="#666666" points="435.38,-33 337.62,-33 337.62,-1 435.38,-1 435.38,-33"/>
<text text-anchor="start" x="345.62" y="-19.5" font-family="Helvetica,sans-Serif" font-size="10.00">ParentEntry::setup</text>
<text text-anchor="middle" x="386.5" y="-7.5" font-family="Helvetica,sans-Serif" font-size="10.00">_parent</text>
</a>
</g>
</g>
<!-- Node1&#45;&gt;Node7 -->
<g id="edge7_Node000001_Node000007" class="edge">
<title>Node1&#45;&gt;Node7</title>
<g id="a_edge7_Node000001_Node000007"><a xlink:title=" ">
<path fill="none" stroke="#63b8ff" d="M500.86,-55.85C480.69,-48.94 456.31,-40.59 435.34,-33.4"/>
<polygon fill="#63b8ff" stroke="#63b8ff" points="499.55,-59.11 510.14,-59.04 501.82,-52.48 499.55,-59.11"/>
</a>
</g>
</g>
<!-- Node3 -->
<g id="Node000003" class="node">
<title>Node3</title>
<g id="a_Node000003"><a xlink:href="class_person_label.html#a94331464b364eff3b1b12d192e293d93" target="_top" xlink:title="Constructs a PersonLabel for a given person and sets up the UI.">
<polygon fill="white" stroke="#666666" points="294.5,-134 164.5,-134 164.5,-114 294.5,-114 294.5,-134"/>
<text text-anchor="middle" x="229.5" y="-120.5" font-family="Helvetica,sans-Serif" font-size="10.00">PersonLabel::PersonLabel</text>
</a>
</g>
</g>
<!-- Node2&#45;&gt;Node3 -->
<g id="edge2_Node000002_Node000003" class="edge">
<title>Node2&#45;&gt;Node3</title>
<g id="a_edge2_Node000002_Node000003"><a xlink:title=" ">
<path fill="none" stroke="#63b8ff" d="M318.92,-122.86C310.97,-122.96 302.86,-123.07 294.94,-123.17"/>
<polygon fill="#63b8ff" stroke="#63b8ff" points="318.95,-126.36 328.9,-122.73 318.86,-119.36 318.95,-126.36"/>
</a>
</g>
</g>
<!-- Node5 -->
<g id="Node000005" class="node">
<title>Node5</title>
<g id="a_Node000005"><a xlink:href="class_lesson_view.html#a01642f9f2ac50e57169729fd7bfdd4e2" target="_top" xlink:title="Function called when the edit button is clicked.">
<polygon fill="white" stroke="#666666" points="291.88,-96 167.12,-96 167.12,-76 291.88,-76 291.88,-96"/>
<text text-anchor="middle" x="229.5" y="-82.5" font-family="Helvetica,sans-Serif" font-size="10.00">LessonView::edit_lesson</text>
</a>
</g>
</g>
<!-- Node4&#45;&gt;Node5 -->
<g id="edge4_Node000004_Node000005" class="edge">
<title>Node4&#45;&gt;Node5</title>
<g id="a_edge4_Node000004_Node000005"><a xlink:title=" ">
<path fill="none" stroke="#63b8ff" d="M319.23,-76.84C310.28,-77.76 301.13,-78.71 292.26,-79.62"/>
<polygon fill="#63b8ff" stroke="#63b8ff" points="319.32,-80.35 328.91,-75.84 318.6,-73.39 319.32,-80.35"/>
</a>
</g>
</g>
<!-- Node6 -->
<g id="Node000006" class="node">
<title>Node6</title>
<g id="a_Node000006"><a xlink:href="class_lesson_view.html#a5652733016a72ccf85b1df6e88a3513e" target="_top" xlink:title="Constructs a LessonView widget.">
<polygon fill="white" stroke="#666666" points="128.5,-77 0,-77 0,-57 128.5,-57 128.5,-77"/>
<text text-anchor="middle" x="64.25" y="-63.5" font-family="Helvetica,sans-Serif" font-size="10.00">LessonView::LessonView</text>
</a>
</g>
</g>
<!-- Node4&#45;&gt;Node6 -->
<g id="edge6_Node000004_Node000006" class="edge">
<title>Node4&#45;&gt;Node6</title>
<g id="a_edge6_Node000004_Node000006"><a xlink:title=" ">
<path fill="none" stroke="#63b8ff" d="M318.72,-67.55C310.56,-67.32 302.34,-67.13 294.5,-67 238.59,-66.08 175,-66.17 128.99,-66.44"/>
<polygon fill="#63b8ff" stroke="#63b8ff" points="318.55,-71.04 328.65,-67.84 318.76,-64.05 318.55,-71.04"/>
</a>
</g>
</g>
<!-- Node5&#45;&gt;Node6 -->
<g id="edge5_Node000005_Node000006" class="edge">
<title>Node5&#45;&gt;Node6</title>
<g id="a_edge5_Node000005_Node000006"><a xlink:title=" ">
<path fill="none" stroke="#63b8ff" d="M155.63,-77.52C146.73,-76.48 137.7,-75.43 128.96,-74.41"/>
<polygon fill="#63b8ff" stroke="#63b8ff" points="154.94,-80.96 165.28,-78.64 155.75,-74.01 154.94,-80.96"/>
</a>
</g>
</g>
<!-- Node8 -->
<g id="Node000008" class="node">
<title>Node8</title>
<g id="a_Node000008"><a xlink:href="class_parent_entry.html#a336ea0e092db59f6838eacc73bdee3da" target="_top" xlink:title="Constructs a ParentEntry widget.">
<polygon fill="white" stroke="#666666" points="292.25,-20 166.75,-20 166.75,0 292.25,0 292.25,-20"/>
<text text-anchor="middle" x="229.5" y="-6.5" font-family="Helvetica,sans-Serif" font-size="10.00">ParentEntry::ParentEntry</text>
</a>
</g>
</g>
<!-- Node7&#45;&gt;Node8 -->
<g id="edge8_Node000007_Node000008" class="edge">
<title>Node7&#45;&gt;Node8</title>
<g id="a_edge8_Node000007_Node000008"><a xlink:title=" ">
<path fill="none" stroke="#63b8ff" d="M326.11,-14.32C315.16,-13.82 303.69,-13.31 292.65,-12.81"/>
<polygon fill="#63b8ff" stroke="#63b8ff" points="325.65,-17.8 335.79,-14.76 325.96,-10.81 325.65,-17.8"/>
</a>
</g>
</g>
</g>
</svg>

<g id="navigator" transform="translate(0 0)" fill="#404254">
  <rect fill="#f2f5e9" fill-opacity="0.5" stroke="#606060" stroke-width=".5" x="0" y="0" width="60" height="60"/>
  <use id="zoomplus" xlink:href="#zoomPlus" x="17" y="9" onmousedown="handleZoom(evt,'in')"/>
  <use id="zoomminus" xlink:href="#zoomMin" x="42" y="9" onmousedown="handleZoom(evt,'out')"/>
  <use id="reset" xlink:href="#resetDef" x="30" y="36" onmousedown="handleReset()"/>
   <use id="arrowup" xlink:href="#arrowUp" x="0" y="0" onmousedown="handlePan(0,-1)"/>
  <use id="arrowright" xlink:href="#arrowRight" x="0" y="0" onmousedown="handlePan(1,0)"/>
  <use id="arrowdown" xlink:href="#arrowDown" x="0" y="0" onmousedown="handlePan(0,1)"/>
  <use id="arrowleft" xlink:href="#arrowLeft" x="0" y="0" onmousedown="handlePan(-1,0)"/>
</g>
<svg viewBox="0 0 15 15" width="100%" height="30px" preserveAspectRatio="xMaxYMin meet">
 <g id="arrow_out" transform="scale(0.3 0.3)">
  <a xlink:href="class_person_label_aa2a831964f915778bba70329d5e8c7c9_icgraph_org.svg" target="_base">
   <rect id="button" ry="5" rx="5" y="6" x="6" height="38" width="38"
        fill="#f2f5e9" fill-opacity="0.5" stroke="#606060" stroke-width="1.0"/>
   <path id="arrow"
     d="M 11.500037,31.436501 C 11.940474,20.09759 22.043105,11.32322 32.158766,21.979434 L 37.068811,17.246167 C 37.068811,17.246167 37.088388,32 37.088388,32 L 22.160133,31.978069 C 22.160133,31.978069 26.997745,27.140456 26.997745,27.140456 C 18.528582,18.264221 13.291696,25.230495 11.500037,31.436501 z"
     style="fill:#404040;"/>
  </a>
 </g>
</svg>

<style type='text/css'>
<![CDATA[
[data-mouse-over-selected='false'] { opacity: 0.7; }
[data-mouse-over-selected='true']  { opacity: 1.0; }
]]>
</style>
<script type="application/ecmascript"><![CDATA[
document.addEventListener('DOMContentLoaded', (event) => {
  highlightEdges();
  highlightAdjacentNodes();
});
]]></script>
</svg>
