<?xml version="1.0" encoding="UTF-8" standalone="no"?>
<!DOCTYPE svg PUBLIC "-//W3C//DTD SVG 1.1//EN"
 "http://www.w3.org/Graphics/SVG/1.1/DTD/svg11.dtd">
<!-- Generated by graphviz version 12.2.1 (20241206.2353)
 -->
<!-- Title: ChildEntry::removeRequested Pages: 1 -->
<!--zoomable 866 -->

<svg id="main" version="1.1" xmlns="http://www.w3.org/2000/svg" xmlns:xlink="http://www.w3.org/1999/xlink" xml:space="preserve" onload="init(evt)">

<style type="text/css"><![CDATA[
.node, .edge {opacity: 0.7;}
.node.selected, .edge.selected {opacity: 1;}
.edge:hover path { stroke: red; }
.edge:hover polygon { stroke: red; fill: red; }
]]></style>

<defs>
  <circle id="rim" cx="0" cy="0" r="7"/>
  <circle id="rim2" cx="0" cy="0" r="3.5"/>
  <g id="zoomPlus">
    <use xlink:href="#rim" fill="#404040"><set attributeName="fill" to="#808080" begin="zoomplus.mouseover" end="zoomplus.mouseout"/></use>
    <path d="M-4,0h8M0,-4v8" fill="none" stroke="white" stroke-width="1.5" pointer-events="none"/>
  </g>
  <g id="zoomMin">
    <use xlink:href="#rim" fill="#404040"><set attributeName="fill" to="#808080" begin="zoomminus.mouseover" end="zoomminus.mouseout"/></use>
    <path d="M-4,0h8" fill="none" stroke="white" stroke-width="1.5" pointer-events="none"/>
  </g>
  <g id="arrowUp" transform="translate(30 24)">
    <use xlink:href="#rim"/>
    <path pointer-events="none" fill="none" stroke="white" stroke-width="1.5" d="M0,-3.0v7 M-2.5,-0.5L0,-3.0L2.5,-0.5"/>
  </g>
  <g id="arrowRight" transform="rotate(90) translate(36 -43)">
    <use xlink:href="#rim"/>
    <path pointer-events="none" fill="none" stroke="white" stroke-width="1.5" d="M0,-3.0v7 M-2.5,-0.5L0,-3.0L2.5,-0.5"/>
  </g>
  <g id="arrowDown" transform="rotate(180) translate(-30 -48)">
    <use xlink:href="#rim"/>
    <path pointer-events="none" fill="none" stroke="white" stroke-width="1.5" d="M0,-3.0v7 M-2.5,-0.5L0,-3.0L2.5,-0.5"/>
  </g>
  <g id="arrowLeft" transform="rotate(270) translate(-36 17)">
    <use xlink:href="#rim"/>
    <path pointer-events="none" fill="none" stroke="white" stroke-width="1.5" d="M0,-3.0v7 M-2.5,-0.5L0,-3.0L2.5,-0.5"/>
  </g>
  <g id="resetDef">
    <use xlink:href="#rim2" fill="#404040"><set attributeName="fill" to="#808080" begin="reset.mouseover" end="reset.mouseout"/></use>
  </g>
</defs>
<script type="application/ecmascript">
var viewWidth = 1580;
var viewHeight = 866;
var sectionId = 'dynsection-5';
</script>
<script type="application/ecmascript" xlink:href="svg.min.js"/>
<svg id="graph" class="graph">
<g id="viewport">
<title>ChildEntry::removeRequested</title>
<!-- Node1 -->
<g id="Node000001" class="node">
<title>Node1</title>
<g id="a_Node000001"><a xlink:title="Signal emitted when a child removal is requested.">
<polygon fill="#999999" stroke="#666666" points="1571.5,-89.02 1424.25,-89.02 1424.25,-69.02 1571.5,-69.02 1571.5,-89.02"/>
<text text-anchor="middle" x="1497.88" y="-75.52" font-family="Helvetica,sans-Serif" font-size="10.00">ChildEntry::removeRequested</text>
</a>
</g>
</g>
<!-- Node2 -->
<g id="Node000002" class="node">
<title>Node2</title>
<g id="a_Node000002"><a xlink:href="class_data_base_g_u_i.html#a334c0011a9d3a71539b326a888feccd3" target="_top" xlink:title="Populates the children tab with a multimap of children.">
<polygon fill="white" stroke="#666666" points="301.25,-84.02 181,-84.02 181,-52.02 301.25,-52.02 301.25,-84.02"/>
<text text-anchor="start" x="189" y="-70.52" font-family="Helvetica,sans-Serif" font-size="10.00">DataBaseGUI::populate</text>
<text text-anchor="middle" x="241.12" y="-58.52" font-family="Helvetica,sans-Serif" font-size="10.00">_children_tab</text>
</a>
</g>
</g>
<!-- Node1&#45;&gt;Node2 -->
<g id="edge1_Node000001_Node000002" class="edge">
<title>Node1&#45;&gt;Node2</title>
<g id="a_edge1_Node000001_Node000002"><a xlink:title=" ">
<path fill="none" stroke="#63b8ff" d="M1461.64,-64.56C1404.01,-42.26 1285.55,-2.02 1181.12,-2.02 1181.12,-2.02 1181.12,-2.02 563.88,-2.02 462.8,-2.02 434.63,6.06 337.25,-21.02 312.76,-27.83 287.03,-40.96 268.51,-51.61"/>
<polygon fill="#63b8ff" stroke="#63b8ff" points="1460.01,-67.68 1470.6,-68.08 1462.57,-61.17 1460.01,-67.68"/>
</a>
</g>
</g>
<!-- Node3 -->
<g id="Node000003" class="node">
<title>Node3</title>
<g id="a_Node000003"><a xlink:href="class_data_base_g_u_i.html#af346d08370d9e4574980707f61b9c8f7" target="_top" xlink:title="Populates the children tab with a list of children.">
<polygon fill="white" stroke="#666666" points="1388.25,-183.02 1268,-183.02 1268,-151.02 1388.25,-151.02 1388.25,-183.02"/>
<text text-anchor="start" x="1276" y="-169.52" font-family="Helvetica,sans-Serif" font-size="10.00">DataBaseGUI::populate</text>
<text text-anchor="middle" x="1328.12" y="-157.52" font-family="Helvetica,sans-Serif" font-size="10.00">_children_tab</text>
</a>
</g>
</g>
<!-- Node1&#45;&gt;Node3 -->
<g id="edge2_Node000001_Node000003" class="edge">
<title>Node1&#45;&gt;Node3</title>
<g id="a_edge2_Node000001_Node000003"><a xlink:title=" ">
<path fill="none" stroke="#63b8ff" d="M1467.08,-94.65C1437.07,-110.4 1390.95,-134.59 1360.41,-150.61"/>
<polygon fill="#63b8ff" stroke="#63b8ff" points="1468.4,-97.91 1475.63,-90.16 1465.15,-91.71 1468.4,-97.91"/>
</a>
</g>
</g>
<!-- Node4 -->
<g id="Node000004" class="node">
<title>Node4</title>
<g id="a_Node000004"><a xlink:href="class_data_base_g_u_i.html#a2d921da686e76ae195da018bb735a1ae" target="_top" xlink:title="Searches for children based on the provided name and surname.">
<polygon fill="white" stroke="#666666" points="1232,-370.02 1128.25,-370.02 1128.25,-338.02 1232,-338.02 1232,-370.02"/>
<text text-anchor="start" x="1136.25" y="-356.52" font-family="Helvetica,sans-Serif" font-size="10.00">DataBaseGUI::child</text>
<text text-anchor="middle" x="1180.12" y="-344.52" font-family="Helvetica,sans-Serif" font-size="10.00">_search</text>
</a>
</g>
</g>
<!-- Node3&#45;&gt;Node4 -->
<g id="edge3_Node000003_Node000004" class="edge">
<title>Node3&#45;&gt;Node4</title>
<g id="a_edge3_Node000003_Node000004"><a xlink:title=" ">
<path fill="none" stroke="#63b8ff" d="M1315.22,-193.63C1299.61,-226.41 1269.71,-282.47 1232,-321.02 1225.96,-327.19 1218.57,-332.8 1211.32,-337.56"/>
<polygon fill="#63b8ff" stroke="#63b8ff" points="1318.27,-195.38 1319.32,-184.84 1311.92,-192.42 1318.27,-195.38"/>
</a>
</g>
</g>
<!-- Node10 -->
<g id="Node000010" class="node">
<title>Node10</title>
<g id="a_Node000010"><a xlink:href="class_data_base_g_u_i.html#a6c35e47ed05a80db144f240dee805a9d" target="_top" xlink:title="Sets up the GUI.">
<polygon fill="white" stroke="#666666" points="294.88,-424.02 187.38,-424.02 187.38,-404.02 294.88,-404.02 294.88,-424.02"/>
<text text-anchor="middle" x="241.12" y="-410.52" font-family="Helvetica,sans-Serif" font-size="10.00">DataBaseGUI::setup</text>
</a>
</g>
</g>
<!-- Node3&#45;&gt;Node10 -->
<g id="edge44_Node000003_Node000010" class="edge">
<title>Node3&#45;&gt;Node10</title>
<g id="a_edge44_Node000003_Node000010"><a xlink:title=" ">
<path fill="none" stroke="#63b8ff" d="M1289.85,-188.93C1236.61,-218.09 1134.89,-266.02 1041.38,-266.02 1041.38,-266.02 1041.38,-266.02 563.88,-266.02 462.8,-266.02 425.49,-235.72 337.25,-285.02 287.69,-312.71 256.71,-378.19 246.17,-403.64"/>
<polygon fill="#63b8ff" stroke="#63b8ff" points="1291.48,-192.03 1298.51,-184.11 1288.07,-185.92 1291.48,-192.03"/>
</a>
</g>
</g>
<!-- Node27 -->
<g id="Node000027" class="node">
<title>Node27</title>
<g id="a_Node000027"><a xlink:href="class_data_base_g_u_i.html#aa684465aa73b5b34bbadd24fc7f2f641" target="_top" xlink:title="Selects the appropriate sorting to use based on child sort index.">
<polygon fill="white" stroke="#666666" points="622.75,-183.02 507,-183.02 507,-151.02 622.75,-151.02 622.75,-183.02"/>
<text text-anchor="start" x="515" y="-169.52" font-family="Helvetica,sans-Serif" font-size="10.00">DataBaseGUI::sort_to</text>
<text text-anchor="middle" x="564.88" y="-157.52" font-family="Helvetica,sans-Serif" font-size="10.00">_populate_children_tab</text>
</a>
</g>
</g>
<!-- Node3&#45;&gt;Node27 -->
<g id="edge45_Node000003_Node000027" class="edge">
<title>Node3&#45;&gt;Node27</title>
<g id="a_edge45_Node000003_Node000027"><a xlink:title=" ">
<path fill="none" stroke="#63b8ff" d="M1256.54,-167.02C1198.71,-167.02 1114.74,-167.02 1041.38,-167.02 1041.38,-167.02 1041.38,-167.02 882.75,-167.02 791.98,-167.02 686.58,-167.02 623.12,-167.02"/>
<polygon fill="#63b8ff" stroke="#63b8ff" points="1256.23,-170.52 1266.23,-167.02 1256.23,-163.52 1256.23,-170.52"/>
</a>
</g>
</g>
<!-- Node5 -->
<g id="Node000005" class="node">
<title>Node5</title>
<g id="a_Node000005"><a xlink:href="class_data_base_g_u_i.html#aadb0e7d323a970603312695c0dd9b264" target="_top" xlink:title="Searches for children based on the provided child pointer.">
<polygon fill="white" stroke="#666666" points="1092.25,-641.02 988.5,-641.02 988.5,-609.02 1092.25,-609.02 1092.25,-641.02"/>
<text text-anchor="start" x="996.5" y="-627.52" font-family="Helvetica,sans-Serif" font-size="10.00">DataBaseGUI::child</text>
<text text-anchor="middle" x="1040.38" y="-615.52" font-family="Helvetica,sans-Serif" font-size="10.00">_search_by_pointer</text>
</a>
</g>
</g>
<!-- Node4&#45;&gt;Node5 -->
<g id="edge4_Node000004_Node000005" class="edge">
<title>Node4&#45;&gt;Node5</title>
<g id="a_edge4_Node000004_Node000005"><a xlink:title=" ">
<path fill="none" stroke="#63b8ff" d="M1165.8,-380.23C1137.64,-435.63 1072.78,-563.23 1049.71,-608.62"/>
<polygon fill="#63b8ff" stroke="#63b8ff" points="1168.82,-382.01 1170.23,-371.51 1162.58,-378.84 1168.82,-382.01"/>
</a>
</g>
</g>
<!-- Node4&#45;&gt;Node10 -->
<g id="edge43_Node000004_Node000010" class="edge">
<title>Node4&#45;&gt;Node10</title>
<g id="a_edge43_Node000004_Node000010"><a xlink:title=" ">
<path fill="none" stroke="#63b8ff" d="M1116.33,-354.02C1056.74,-354.02 964.64,-354.02 884.75,-354.02 884.75,-354.02 884.75,-354.02 563.88,-354.02 462.8,-354.02 435.3,-348.48 337.25,-373.02 309.69,-379.92 279.91,-393.92 261.15,-403.63"/>
<polygon fill="#63b8ff" stroke="#63b8ff" points="1116.29,-357.52 1126.29,-354.02 1116.29,-350.52 1116.29,-357.52"/>
</a>
</g>
</g>
<!-- Node6 -->
<g id="Node000006" class="node">
<title>Node6</title>
<g id="a_Node000006"><a xlink:href="class_data_base_g_u_i.html#aadcf1044a300a89dadd104cfadb9a1b1" target="_top" xlink:title="Views a lesson in the GUI.">
<polygon fill="white" stroke="#666666" points="952.5,-607.02 815,-607.02 815,-587.02 952.5,-587.02 952.5,-607.02"/>
<text text-anchor="middle" x="883.75" y="-593.52" font-family="Helvetica,sans-Serif" font-size="10.00">DataBaseGUI::lesson_view</text>
</a>
</g>
</g>
<!-- Node5&#45;&gt;Node6 -->
<g id="edge5_Node000005_Node000006" class="edge">
<title>Node5&#45;&gt;Node6</title>
<g id="a_edge5_Node000005_Node000006"><a xlink:title=" ">
<path fill="none" stroke="#63b8ff" d="M977.14,-613.75C965.77,-611.69 953.95,-609.55 942.71,-607.52"/>
<polygon fill="#63b8ff" stroke="#63b8ff" points="976.36,-617.17 986.83,-615.51 977.61,-610.28 976.36,-617.17"/>
</a>
</g>
</g>
<!-- Node18 -->
<g id="Node000018" class="node">
<title>Node18</title>
<g id="a_Node000018"><a xlink:href="class_data_base_g_u_i.html#a33f2f95926f7b4b05227dcf395e235d3" target="_top" xlink:title="Populates the parent tab with a multimap of parents.">
<polygon fill="white" stroke="#666666" points="301.25,-830.02 181,-830.02 181,-798.02 301.25,-798.02 301.25,-830.02"/>
<text text-anchor="start" x="189" y="-816.52" font-family="Helvetica,sans-Serif" font-size="10.00">DataBaseGUI::populate</text>
<text text-anchor="middle" x="241.12" y="-804.52" font-family="Helvetica,sans-Serif" font-size="10.00">_parent_tab</text>
</a>
</g>
</g>
<!-- Node5&#45;&gt;Node18 -->
<g id="edge24_Node000005_Node000018" class="edge">
<title>Node5&#45;&gt;Node18</title>
<g id="a_edge24_Node000005_Node000018"><a xlink:title=" ">
<path fill="none" stroke="#63b8ff" d="M1022,-650.68C978.7,-711.24 859.37,-858.02 719.88,-858.02 719.88,-858.02 719.88,-858.02 563.88,-858.02 462.8,-858.02 436.86,-856.15 337.25,-839.02 324.46,-836.82 310.88,-833.72 298.11,-830.46"/>
<polygon fill="#63b8ff" stroke="#63b8ff" points="1024.76,-652.84 1027.65,-642.64 1019.04,-648.81 1024.76,-652.84"/>
</a>
</g>
</g>
<!-- Node19 -->
<g id="Node000019" class="node">
<title>Node19</title>
<g id="a_Node000019"><a xlink:href="class_data_base_g_u_i.html#a739b2cf48c0cb6e3cab2da0a7bbd6d6d" target="_top" xlink:title="Populates the parent tab with a list of parents.">
<polygon fill="white" stroke="#666666" points="779,-790.02 658.75,-790.02 658.75,-758.02 779,-758.02 779,-790.02"/>
<text text-anchor="start" x="666.75" y="-776.52" font-family="Helvetica,sans-Serif" font-size="10.00">DataBaseGUI::populate</text>
<text text-anchor="middle" x="718.88" y="-764.52" font-family="Helvetica,sans-Serif" font-size="10.00">_parent_tab</text>
</a>
</g>
</g>
<!-- Node5&#45;&gt;Node19 -->
<g id="edge25_Node000005_Node000019" class="edge">
<title>Node5&#45;&gt;Node19</title>
<g id="a_edge25_Node000005_Node000019"><a xlink:title=" ">
<path fill="none" stroke="#63b8ff" d="M994.03,-646.17C929.69,-676.17 813.28,-730.46 755.04,-757.62"/>
<polygon fill="#63b8ff" stroke="#63b8ff" points="995.31,-649.43 1002.9,-642.03 992.36,-643.09 995.31,-649.43"/>
</a>
</g>
</g>
<!-- Node6&#45;&gt;Node6 -->
<g id="edge6_Node000006_Node000006" class="edge">
<title>Node6&#45;&gt;Node6</title>
<g id="a_edge6_Node000006_Node000006"><a xlink:title=" ">
<path fill="none" stroke="#63b8ff" d="M911.43,-618.46C907.87,-622.32 898.64,-625.02 883.75,-625.02 856.52,-625.02 848.23,-616 858.86,-607.36"/>
<polygon fill="#63b8ff" stroke="#63b8ff" points="914.84,-617.67 909.01,-608.83 908.05,-619.38 914.84,-617.67"/>
</a>
</g>
</g>
<!-- Node7 -->
<g id="Node000007" class="node">
<title>Node7</title>
<g id="a_Node000007"><a xlink:href="class_data_base_g_u_i.html#a74e047889e913eae69ec40ec17f53c9d" target="_top" xlink:title="Populates the lessons tab with a multimap of lessons.">
<polygon fill="white" stroke="#666666" points="301.25,-663.02 181,-663.02 181,-631.02 301.25,-631.02 301.25,-663.02"/>
<text text-anchor="start" x="189" y="-649.52" font-family="Helvetica,sans-Serif" font-size="10.00">DataBaseGUI::populate</text>
<text text-anchor="middle" x="241.12" y="-637.52" font-family="Helvetica,sans-Serif" font-size="10.00">_lesson_tab</text>
</a>
</g>
</g>
<!-- Node6&#45;&gt;Node7 -->
<g id="edge7_Node000006_Node000007" class="edge">
<title>Node6&#45;&gt;Node7</title>
<g id="a_edge7_Node000006_Node000007"><a xlink:title=" ">
<path fill="none" stroke="#63b8ff" d="M856.6,-613.19C811.11,-640.26 713.57,-693.68 622.75,-713.02 498.64,-739.45 458.35,-750.92 337.25,-713.02 306.17,-703.3 276.34,-679.45 258.61,-663.25"/>
<polygon fill="#63b8ff" stroke="#63b8ff" points="858.2,-616.31 864.96,-608.15 854.59,-610.31 858.2,-616.31"/>
</a>
</g>
</g>
<!-- Node8 -->
<g id="Node000008" class="node">
<title>Node8</title>
<g id="a_Node000008"><a xlink:href="class_data_base_g_u_i.html#aa6b02e4e81b0113fb1c75d7d5ef0be59" target="_top" xlink:title="Populates the lessons tab with a list of lessons.">
<polygon fill="white" stroke="#666666" points="779,-566.02 658.75,-566.02 658.75,-534.02 779,-534.02 779,-566.02"/>
<text text-anchor="start" x="666.75" y="-552.52" font-family="Helvetica,sans-Serif" font-size="10.00">DataBaseGUI::populate</text>
<text text-anchor="middle" x="718.88" y="-540.52" font-family="Helvetica,sans-Serif" font-size="10.00">_lesson_tab</text>
</a>
</g>
</g>
<!-- Node6&#45;&gt;Node8 -->
<g id="edge8_Node000006_Node000008" class="edge">
<title>Node6&#45;&gt;Node8</title>
<g id="a_edge8_Node000006_Node000008"><a xlink:title=" ">
<path fill="none" stroke="#63b8ff" d="M835.62,-583.42C817.32,-578.14 796.19,-572.04 777.03,-566.52"/>
<polygon fill="#63b8ff" stroke="#63b8ff" points="834.57,-586.76 845.15,-586.17 836.51,-580.04 834.57,-586.76"/>
</a>
</g>
</g>
<!-- Node9 -->
<g id="Node000009" class="node">
<title>Node9</title>
<g id="a_Node000009"><a xlink:href="class_data_base_g_u_i.html#a55b3c6d3607f17f55d4c321e97fdce7f" target="_top" xlink:title="Searches for lessons based on the provided child name and surname.">
<polygon fill="white" stroke="#666666" points="620.88,-534.02 508.88,-534.02 508.88,-502.02 620.88,-502.02 620.88,-534.02"/>
<text text-anchor="start" x="516.88" y="-520.52" font-family="Helvetica,sans-Serif" font-size="10.00">DataBaseGUI::lesson</text>
<text text-anchor="middle" x="564.88" y="-508.52" font-family="Helvetica,sans-Serif" font-size="10.00">_search</text>
</a>
</g>
</g>
<!-- Node8&#45;&gt;Node9 -->
<g id="edge9_Node000008_Node000009" class="edge">
<title>Node8&#45;&gt;Node9</title>
<g id="a_edge9_Node000008_Node000009"><a xlink:title=" ">
<path fill="none" stroke="#63b8ff" d="M647.56,-535.22C638.71,-533.35 629.76,-531.47 621.19,-529.67"/>
<polygon fill="#63b8ff" stroke="#63b8ff" points="646.68,-538.61 657.19,-537.25 648.13,-531.76 646.68,-538.61"/>
</a>
</g>
</g>
<!-- Node13 -->
<g id="Node000013" class="node">
<title>Node13</title>
<g id="a_Node000013"><a xlink:href="class_data_base_g_u_i.html#a1ad152b7becf3e0051cdd5dbae6d4abc" target="_top" xlink:title="Selects the appropriate sorting to use based on lesson sort index.">
<polygon fill="white" stroke="#666666" points="621.62,-484.02 508.12,-484.02 508.12,-452.02 621.62,-452.02 621.62,-484.02"/>
<text text-anchor="start" x="516.12" y="-470.52" font-family="Helvetica,sans-Serif" font-size="10.00">DataBaseGUI::sort_to</text>
<text text-anchor="middle" x="564.88" y="-458.52" font-family="Helvetica,sans-Serif" font-size="10.00">_populate_lesson_tab</text>
</a>
</g>
</g>
<!-- Node8&#45;&gt;Node13 -->
<g id="edge13_Node000008_Node000013" class="edge">
<title>Node8&#45;&gt;Node13</title>
<g id="a_edge13_Node000008_Node000013"><a xlink:title=" ">
<path fill="none" stroke="#63b8ff" d="M683.15,-527.78C665.39,-516.77 643.24,-503.61 622.75,-493.02 617.1,-490.1 611.03,-487.2 605.04,-484.46"/>
<polygon fill="#63b8ff" stroke="#63b8ff" points="680.92,-530.51 691.25,-532.84 684.63,-524.57 680.92,-530.51"/>
</a>
</g>
</g>
<!-- Node9&#45;&gt;Node10 -->
<g id="edge10_Node000009_Node000010" class="edge">
<title>Node9&#45;&gt;Node10</title>
<g id="a_edge10_Node000009_Node000010"><a xlink:title=" ">
<path fill="none" stroke="#63b8ff" d="M496.93,-523.33C450.32,-524.47 387.73,-520.75 337.25,-499.02 298.39,-482.3 264.57,-443.21 249.89,-424.44"/>
<polygon fill="#63b8ff" stroke="#63b8ff" points="497.02,-526.83 506.9,-523 496.79,-519.84 497.02,-526.83"/>
</a>
</g>
</g>
<!-- Node11 -->
<g id="Node000011" class="node">
<title>Node11</title>
<g id="a_Node000011"><a xlink:href="class_data_base_g_u_i.html#a2c83afe3a30fb5166d275d9a74d33196" target="_top" xlink:title="Default constructor.">
<polygon fill="white" stroke="#666666" points="145,-443.02 0,-443.02 0,-423.02 145,-423.02 145,-443.02"/>
<text text-anchor="middle" x="72.5" y="-429.52" font-family="Helvetica,sans-Serif" font-size="10.00">DataBaseGUI::DataBaseGUI</text>
</a>
</g>
</g>
<!-- Node10&#45;&gt;Node11 -->
<g id="edge11_Node000010_Node000011" class="edge">
<title>Node10&#45;&gt;Node11</title>
<g id="a_edge11_Node000010_Node000011"><a xlink:title=" ">
<path fill="none" stroke="#63b8ff" d="M175.53,-421.39C165.64,-422.52 155.37,-423.69 145.32,-424.83"/>
<polygon fill="#63b8ff" stroke="#63b8ff" points="175.9,-424.87 185.44,-420.26 175.11,-417.91 175.9,-424.87"/>
</a>
</g>
</g>
<!-- Node12 -->
<g id="Node000012" class="node">
<title>Node12</title>
<g id="a_Node000012"><a xlink:href="class_data_base_g_u_i.html#aba10d1d8e9fb151632ff34de418cee82" target="_top" xlink:title="Constructs a DataBaseGUI object.">
<polygon fill="white" stroke="#666666" points="145,-405.02 0,-405.02 0,-385.02 145,-385.02 145,-405.02"/>
<text text-anchor="middle" x="72.5" y="-391.52" font-family="Helvetica,sans-Serif" font-size="10.00">DataBaseGUI::DataBaseGUI</text>
</a>
</g>
</g>
<!-- Node10&#45;&gt;Node12 -->
<g id="edge12_Node000010_Node000012" class="edge">
<title>Node10&#45;&gt;Node12</title>
<g id="a_edge12_Node000010_Node000012"><a xlink:title=" ">
<path fill="none" stroke="#63b8ff" d="M175.53,-406.66C165.64,-405.53 155.37,-404.36 145.32,-403.21"/>
<polygon fill="#63b8ff" stroke="#63b8ff" points="175.11,-410.13 185.44,-407.79 175.9,-403.18 175.11,-410.13"/>
</a>
</g>
</g>
<!-- Node13&#45;&gt;Node6 -->
<g id="edge21_Node000013_Node000006" class="edge">
<title>Node13&#45;&gt;Node6</title>
<g id="a_edge21_Node000013_Node000006"><a xlink:title=" ">
<path fill="none" stroke="#63b8ff" d="M633.2,-479.81C676.2,-488.83 732.43,-503.44 779,-525.02 815.2,-541.8 852.37,-571.11 870.83,-586.66"/>
<polygon fill="#63b8ff" stroke="#63b8ff" points="633.99,-476.4 623.49,-477.83 632.59,-483.26 633.99,-476.4"/>
</a>
</g>
</g>
<!-- Node14 -->
<g id="Node000014" class="node">
<title>Node14</title>
<g id="a_Node000014"><a xlink:href="class_data_base_g_u_i.html#a778bdaec7f9281df4c0ead66c9dcffd2" target="_top" xlink:title="Adds a new lesson to the database.">
<polygon fill="white" stroke="#666666" points="470.62,-490.02 337.62,-490.02 337.62,-470.02 470.62,-470.02 470.62,-490.02"/>
<text text-anchor="middle" x="404.12" y="-476.52" font-family="Helvetica,sans-Serif" font-size="10.00">DataBaseGUI::lesson_add</text>
</a>
</g>
</g>
<!-- Node13&#45;&gt;Node14 -->
<g id="edge14_Node000013_Node000014" class="edge">
<title>Node13&#45;&gt;Node14</title>
<g id="a_edge14_Node000013_Node000014"><a xlink:title=" ">
<path fill="none" stroke="#63b8ff" d="M496.5,-473.11C488.02,-473.75 479.36,-474.41 470.91,-475.05"/>
<polygon fill="#63b8ff" stroke="#63b8ff" points="496.69,-476.61 506.4,-472.37 496.16,-469.63 496.69,-476.61"/>
</a>
</g>
</g>
<!-- Node15 -->
<g id="Node000015" class="node">
<title>Node15</title>
<g id="a_Node000015"><a xlink:href="class_data_base_g_u_i.html#a66a3e89a9852de3522d98f2c1f8cdeed" target="_top" xlink:title="Removes a lesson from the database.">
<polygon fill="white" stroke="#666666" points="460.12,-578.02 348.12,-578.02 348.12,-546.02 460.12,-546.02 460.12,-578.02"/>
<text text-anchor="start" x="356.12" y="-564.52" font-family="Helvetica,sans-Serif" font-size="10.00">DataBaseGUI::lesson</text>
<text text-anchor="middle" x="404.12" y="-552.52" font-family="Helvetica,sans-Serif" font-size="10.00">_remove</text>
</a>
</g>
</g>
<!-- Node13&#45;&gt;Node15 -->
<g id="edge16_Node000013_Node000015" class="edge">
<title>Node13&#45;&gt;Node15</title>
<g id="a_edge16_Node000013_Node000015"><a xlink:title=" ">
<path fill="none" stroke="#63b8ff" d="M513.74,-489.45C511.44,-490.62 509.19,-491.81 507,-493.02 478.02,-509.03 446.79,-530.95 426.65,-545.75"/>
<polygon fill="#63b8ff" stroke="#63b8ff" points="515.14,-492.66 522.6,-485.13 512.08,-486.36 515.14,-492.66"/>
</a>
</g>
</g>
<!-- Node16 -->
<g id="Node000016" class="node">
<title>Node16</title>
<g id="a_Node000016"><a xlink:href="class_data_base_g_u_i.html#a0478b87f545d97b9e3ef55858242878b" target="_top" xlink:title="Changes the sorting method for lessons.">
<polygon fill="white" stroke="#666666" points="460.12,-452.02 348.12,-452.02 348.12,-420.02 460.12,-420.02 460.12,-452.02"/>
<text text-anchor="start" x="356.12" y="-438.52" font-family="Helvetica,sans-Serif" font-size="10.00">DataBaseGUI::lesson</text>
<text text-anchor="middle" x="404.12" y="-426.52" font-family="Helvetica,sans-Serif" font-size="10.00">_sort_change</text>
</a>
</g>
</g>
<!-- Node13&#45;&gt;Node16 -->
<g id="edge19_Node000013_Node000016" class="edge">
<title>Node13&#45;&gt;Node16</title>
<g id="a_edge19_Node000013_Node000016"><a xlink:title=" ">
<path fill="none" stroke="#63b8ff" d="M496.93,-454.53C484.82,-452.09 472.32,-449.57 460.59,-447.2"/>
<polygon fill="#63b8ff" stroke="#63b8ff" points="495.93,-457.89 506.42,-456.44 497.31,-451.03 495.93,-457.89"/>
</a>
</g>
</g>
<!-- Node17 -->
<g id="Node000017" class="node">
<title>Node17</title>
<g id="a_Node000017"><a xlink:href="class_data_base_g_u_i.html#a438b5070d6a58ffa5e884d18740852c6" target="_top" xlink:title="Handles tab change events.">
<polygon fill="white" stroke="#666666" points="471,-402.02 337.25,-402.02 337.25,-382.02 471,-382.02 471,-402.02"/>
<text text-anchor="middle" x="404.12" y="-388.52" font-family="Helvetica,sans-Serif" font-size="10.00">DataBaseGUI::tab_change</text>
</a>
</g>
</g>
<!-- Node13&#45;&gt;Node17 -->
<g id="edge22_Node000013_Node000017" class="edge">
<title>Node13&#45;&gt;Node17</title>
<g id="a_edge22_Node000013_Node000017"><a xlink:title=" ">
<path fill="none" stroke="#63b8ff" d="M532.04,-445.51C514.63,-433.98 492.32,-420.43 471,-411.02 463.6,-407.75 455.48,-404.88 447.55,-402.42"/>
<polygon fill="#63b8ff" stroke="#63b8ff" points="529.66,-448.13 539.91,-450.82 533.58,-442.33 529.66,-448.13"/>
</a>
</g>
</g>
<!-- Node14&#45;&gt;Node10 -->
<g id="edge15_Node000014_Node000010" class="edge">
<title>Node14&#45;&gt;Node10</title>
<g id="a_edge15_Node000014_Node000010"><a xlink:title=" ">
<path fill="none" stroke="#63b8ff" d="M351.83,-466.2C346.86,-464.57 341.93,-462.84 337.25,-461.02 309.77,-450.37 279.48,-434.67 260.63,-424.4"/>
<polygon fill="#63b8ff" stroke="#63b8ff" points="350.65,-469.5 361.24,-469.14 352.74,-462.82 350.65,-469.5"/>
</a>
</g>
</g>
<!-- Node15&#45;&gt;Node7 -->
<g id="edge17_Node000015_Node000007" class="edge">
<title>Node15&#45;&gt;Node7</title>
<g id="a_edge17_Node000015_Node000007"><a xlink:title=" ">
<path fill="none" stroke="#63b8ff" d="M361.95,-583.76C334.36,-598.33 298.6,-617.21 273.35,-630.54"/>
<polygon fill="#63b8ff" stroke="#63b8ff" points="363.53,-586.88 370.74,-579.12 360.27,-580.69 363.53,-586.88"/>
</a>
</g>
</g>
<!-- Node15&#45;&gt;Node8 -->
<g id="edge18_Node000015_Node000008" class="edge">
<title>Node15&#45;&gt;Node8</title>
<g id="a_edge18_Node000015_Node000008"><a xlink:title=" ">
<path fill="none" stroke="#63b8ff" d="M471.97,-559.46C527.28,-557.33 605.12,-554.35 658.31,-552.31"/>
<polygon fill="#63b8ff" stroke="#63b8ff" points="471.9,-555.96 462.04,-559.84 472.17,-562.95 471.9,-555.96"/>
</a>
</g>
</g>
<!-- Node16&#45;&gt;Node10 -->
<g id="edge20_Node000016_Node000010" class="edge">
<title>Node16&#45;&gt;Node10</title>
<g id="a_edge20_Node000016_Node000010"><a xlink:title=" ">
<path fill="none" stroke="#63b8ff" d="M336.35,-426.9C322.63,-425.02 308.35,-423.07 295.19,-421.27"/>
<polygon fill="#63b8ff" stroke="#63b8ff" points="335.84,-430.36 346.22,-428.24 336.78,-423.42 335.84,-430.36"/>
</a>
</g>
</g>
<!-- Node17&#45;&gt;Node10 -->
<g id="edge23_Node000017_Node000010" class="edge">
<title>Node17&#45;&gt;Node10</title>
<g id="a_edge23_Node000017_Node000010"><a xlink:title=" ">
<path fill="none" stroke="#63b8ff" d="M325.87,-402.58C315.39,-404.01 304.84,-405.45 294.93,-406.81"/>
<polygon fill="#63b8ff" stroke="#63b8ff" points="326.24,-406.06 335.68,-401.24 325.29,-399.12 326.24,-406.06"/>
</a>
</g>
</g>
<!-- Node20 -->
<g id="Node000020" class="node">
<title>Node20</title>
<g id="a_Node000020"><a xlink:href="class_data_base_g_u_i.html#a7c3d843eec449d8a4ec5ce6bf0375358" target="_top" xlink:title="Searches for parents based on the provided name and surname.">
<polygon fill="white" stroke="#666666" points="620.12,-622.02 509.62,-622.02 509.62,-590.02 620.12,-590.02 620.12,-622.02"/>
<text text-anchor="start" x="517.62" y="-608.52" font-family="Helvetica,sans-Serif" font-size="10.00">DataBaseGUI::parent</text>
<text text-anchor="middle" x="564.88" y="-596.52" font-family="Helvetica,sans-Serif" font-size="10.00">_search</text>
</a>
</g>
</g>
<!-- Node19&#45;&gt;Node20 -->
<g id="edge26_Node000019_Node000020" class="edge">
<title>Node19&#45;&gt;Node20</title>
<g id="a_edge26_Node000019_Node000020"><a xlink:title=" ">
<path fill="none" stroke="#63b8ff" d="M697.5,-749.17C678.58,-726.36 649.41,-691.84 622.75,-663.02 609.65,-648.86 594.15,-633.4 582.64,-622.16"/>
<polygon fill="#63b8ff" stroke="#63b8ff" points="694.67,-751.24 703.73,-756.72 700.06,-746.78 694.67,-751.24"/>
</a>
</g>
</g>
<!-- Node22 -->
<g id="Node000022" class="node">
<title>Node22</title>
<g id="a_Node000022"><a xlink:href="class_data_base_g_u_i.html#a625b5e2018395a458ff517bbf364e1bf" target="_top" xlink:title="Selects the appropriate sorting to use based on parent sort index.">
<polygon fill="white" stroke="#666666" points="621.62,-704.02 508.12,-704.02 508.12,-672.02 621.62,-672.02 621.62,-704.02"/>
<text text-anchor="start" x="516.12" y="-690.52" font-family="Helvetica,sans-Serif" font-size="10.00">DataBaseGUI::sort_to</text>
<text text-anchor="middle" x="564.88" y="-678.52" font-family="Helvetica,sans-Serif" font-size="10.00">_populate_parent_tab</text>
</a>
</g>
</g>
<!-- Node19&#45;&gt;Node22 -->
<g id="edge31_Node000019_Node000022" class="edge">
<title>Node19&#45;&gt;Node22</title>
<g id="a_edge31_Node000019_Node000022"><a xlink:title=" ">
<path fill="none" stroke="#63b8ff" d="M678.95,-752C652.77,-737.19 618.82,-717.98 594.97,-704.48"/>
<polygon fill="#63b8ff" stroke="#63b8ff" points="677.18,-755.02 687.61,-756.9 680.63,-748.93 677.18,-755.02"/>
</a>
</g>
</g>
<!-- Node20&#45;&gt;Node10 -->
<g id="edge30_Node000020_Node000010" class="edge">
<title>Node20&#45;&gt;Node10</title>
<g id="a_edge30_Node000020_Node000010"><a xlink:title=" ">
<path fill="none" stroke="#63b8ff" d="M498.1,-616.15C449.8,-620.09 384.62,-617.77 337.25,-587.02 276.3,-547.45 251.06,-454.78 244.19,-424.09"/>
<polygon fill="#63b8ff" stroke="#63b8ff" points="498.24,-619.65 507.87,-615.24 497.59,-612.68 498.24,-619.65"/>
</a>
</g>
</g>
<!-- Node21 -->
<g id="Node000021" class="node">
<title>Node21</title>
<g id="a_Node000021"><a xlink:href="class_data_base_g_u_i.html#a8e1fe573ef6a09e112989968ec1a2b43" target="_top" xlink:title="Searches for parents based on the provided parent pointer.">
<polygon fill="white" stroke="#666666" points="459.38,-326.02 348.88,-326.02 348.88,-294.02 459.38,-294.02 459.38,-326.02"/>
<text text-anchor="start" x="356.88" y="-312.52" font-family="Helvetica,sans-Serif" font-size="10.00">DataBaseGUI::parent</text>
<text text-anchor="middle" x="404.12" y="-300.52" font-family="Helvetica,sans-Serif" font-size="10.00">_search_by_pointer</text>
</a>
</g>
</g>
<!-- Node20&#45;&gt;Node21 -->
<g id="edge27_Node000020_Node000021" class="edge">
<title>Node20&#45;&gt;Node21</title>
<g id="a_edge27_Node000020_Node000021"><a xlink:title=" ">
<path fill="none" stroke="#63b8ff" d="M536.65,-582C525.89,-571.12 514.36,-557.46 507,-543.02 471.92,-474.22 508.58,-440.49 471,-373.02 460.6,-354.36 442.85,-337.86 428.4,-326.43"/>
<polygon fill="#63b8ff" stroke="#63b8ff" points="533.95,-584.25 543.56,-588.7 538.82,-579.23 533.95,-584.25"/>
</a>
</g>
</g>
<!-- Node21&#45;&gt;Node2 -->
<g id="edge28_Node000021_Node000002" class="edge">
<title>Node21&#45;&gt;Node2</title>
<g id="a_edge28_Node000021_Node000002"><a xlink:title=" ">
<path fill="none" stroke="#63b8ff" d="M374.15,-286.01C361.86,-274.94 347.94,-261.13 337.25,-247.02 295.82,-192.31 262.31,-117.09 248.7,-84.35"/>
<polygon fill="#63b8ff" stroke="#63b8ff" points="371.78,-288.59 381.61,-292.56 376.4,-283.33 371.78,-288.59"/>
</a>
</g>
</g>
<!-- Node21&#45;&gt;Node3 -->
<g id="edge29_Node000021_Node000003" class="edge">
<title>Node21&#45;&gt;Node3</title>
<g id="a_edge29_Node000021_Node000003"><a xlink:title=" ">
<path fill="none" stroke="#63b8ff" d="M471.04,-309.02C534.34,-308.15 632.64,-307.02 717.88,-307.02 1041.38,-307.02 1041.38,-307.02 1041.38,-307.02 1126.94,-307.02 1157.15,-321.49 1232,-280.02 1273.27,-257.16 1304.36,-208.78 1318.58,-183.38"/>
<polygon fill="#63b8ff" stroke="#63b8ff" points="471.11,-305.52 461.16,-309.16 471.21,-312.52 471.11,-305.52"/>
</a>
</g>
</g>
<!-- Node22&#45;&gt;Node17 -->
<g id="edge42_Node000022_Node000017" class="edge">
<title>Node22&#45;&gt;Node17</title>
<g id="a_edge42_Node000022_Node000017"><a xlink:title=" ">
<path fill="none" stroke="#63b8ff" d="M533.29,-664.12C523.4,-654.83 513.36,-643.44 507,-631.02 461.84,-542.83 536.78,-485.11 471,-411.02 467.92,-407.55 464.25,-404.7 460.24,-402.35"/>
<polygon fill="#63b8ff" stroke="#63b8ff" points="530.9,-666.68 540.71,-670.7 535.55,-661.45 530.9,-666.68"/>
</a>
</g>
</g>
<!-- Node23 -->
<g id="Node000023" class="node">
<title>Node23</title>
<g id="a_Node000023"><a xlink:href="class_data_base_g_u_i.html#a336fa47d9a9e56d585d82f53d33e8593" target="_top" xlink:title="Adds a new parent to the database.">
<polygon fill="white" stroke="#666666" points="469.88,-654.02 338.38,-654.02 338.38,-634.02 469.88,-634.02 469.88,-654.02"/>
<text text-anchor="middle" x="404.12" y="-640.52" font-family="Helvetica,sans-Serif" font-size="10.00">DataBaseGUI::parent_add</text>
</a>
</g>
</g>
<!-- Node22&#45;&gt;Node23 -->
<g id="edge32_Node000022_Node000023" class="edge">
<title>Node22&#45;&gt;Node23</title>
<g id="a_edge32_Node000022_Node000023"><a xlink:title=" ">
<path fill="none" stroke="#63b8ff" d="M496.84,-669.44C478.32,-664.31 458.89,-658.92 442.7,-654.44"/>
<polygon fill="#63b8ff" stroke="#63b8ff" points="495.88,-672.81 506.45,-672.1 497.75,-666.06 495.88,-672.81"/>
</a>
</g>
</g>
<!-- Node24 -->
<g id="Node000024" class="node">
<title>Node24</title>
<g id="a_Node000024"><a xlink:href="class_data_base_g_u_i.html#a5b049fb9e0e5d78c4c2e81e569b471f9" target="_top" xlink:title="Edits an existing parent in the database.">
<polygon fill="white" stroke="#666666" points="469.88,-780.02 338.38,-780.02 338.38,-760.02 469.88,-760.02 469.88,-780.02"/>
<text text-anchor="middle" x="404.12" y="-766.52" font-family="Helvetica,sans-Serif" font-size="10.00">DataBaseGUI::parent_edit</text>
</a>
</g>
</g>
<!-- Node22&#45;&gt;Node24 -->
<g id="edge34_Node000022_Node000024" class="edge">
<title>Node22&#45;&gt;Node24</title>
<g id="a_edge34_Node000022_Node000024"><a xlink:title=" ">
<path fill="none" stroke="#63b8ff" d="M521.96,-709.67C490.73,-725.8 449.46,-747.12 425.25,-759.63"/>
<polygon fill="#63b8ff" stroke="#63b8ff" points="523.51,-712.81 530.79,-705.11 520.3,-706.59 523.51,-712.81"/>
</a>
</g>
</g>
<!-- Node25 -->
<g id="Node000025" class="node">
<title>Node25</title>
<g id="a_Node000025"><a xlink:href="class_data_base_g_u_i.html#ad8a42f24cdb603ba85c1cdd4ea2e73a4" target="_top" xlink:title="Removes a parent from the database.">
<polygon fill="white" stroke="#666666" points="459.38,-830.02 348.88,-830.02 348.88,-798.02 459.38,-798.02 459.38,-830.02"/>
<text text-anchor="start" x="356.88" y="-816.52" font-family="Helvetica,sans-Serif" font-size="10.00">DataBaseGUI::parent</text>
<text text-anchor="middle" x="404.12" y="-804.52" font-family="Helvetica,sans-Serif" font-size="10.00">_remove</text>
</a>
</g>
</g>
<!-- Node22&#45;&gt;Node25 -->
<g id="edge37_Node000022_Node000025" class="edge">
<title>Node22&#45;&gt;Node25</title>
<g id="a_edge37_Node000022_Node000025"><a xlink:title=" ">
<path fill="none" stroke="#63b8ff" d="M546.15,-713.17C529.13,-735.72 501.55,-768.34 471,-789.02 466.24,-792.24 461.01,-795.13 455.63,-797.68"/>
<polygon fill="#63b8ff" stroke="#63b8ff" points="548.76,-715.53 551.88,-705.41 543.12,-711.38 548.76,-715.53"/>
</a>
</g>
</g>
<!-- Node26 -->
<g id="Node000026" class="node">
<title>Node26</title>
<g id="a_Node000026"><a xlink:href="class_data_base_g_u_i.html#a783bdf1d65998f887dd6445741450480" target="_top" xlink:title="Changes the sorting method for parents.">
<polygon fill="white" stroke="#666666" points="459.38,-704.02 348.88,-704.02 348.88,-672.02 459.38,-672.02 459.38,-704.02"/>
<text text-anchor="start" x="356.88" y="-690.52" font-family="Helvetica,sans-Serif" font-size="10.00">DataBaseGUI::parent</text>
<text text-anchor="middle" x="404.12" y="-678.52" font-family="Helvetica,sans-Serif" font-size="10.00">_sort_change</text>
</a>
</g>
</g>
<!-- Node22&#45;&gt;Node26 -->
<g id="edge40_Node000022_Node000026" class="edge">
<title>Node22&#45;&gt;Node26</title>
<g id="a_edge40_Node000022_Node000026"><a xlink:title=" ">
<path fill="none" stroke="#63b8ff" d="M496.74,-688.02C484.42,-688.02 471.69,-688.02 459.79,-688.02"/>
<polygon fill="#63b8ff" stroke="#63b8ff" points="496.39,-691.52 506.39,-688.02 496.39,-684.52 496.39,-691.52"/>
</a>
</g>
</g>
<!-- Node23&#45;&gt;Node10 -->
<g id="edge33_Node000023_Node000010" class="edge">
<title>Node23&#45;&gt;Node10</title>
<g id="a_edge33_Node000023_Node000010"><a xlink:title=" ">
<path fill="none" stroke="#63b8ff" d="M349.02,-628.52C344.78,-626.08 340.78,-623.27 337.25,-620.02 275.21,-562.94 250.42,-457.34 243.96,-424.23"/>
<polygon fill="#63b8ff" stroke="#63b8ff" points="347.39,-631.62 357.9,-632.89 350.48,-625.34 347.39,-631.62"/>
</a>
</g>
</g>
<!-- Node24&#45;&gt;Node18 -->
<g id="edge35_Node000024_Node000018" class="edge">
<title>Node24&#45;&gt;Node18</title>
<g id="a_edge35_Node000024_Node000018"><a xlink:title=" ">
<path fill="none" stroke="#63b8ff" d="M353.94,-783.46C337.46,-787.97 318.91,-793.04 301.72,-797.73"/>
<polygon fill="#63b8ff" stroke="#63b8ff" points="354.79,-786.86 363.51,-780.85 352.94,-780.11 354.79,-786.86"/>
</a>
</g>
</g>
<!-- Node24&#45;&gt;Node19 -->
<g id="edge36_Node000024_Node000019" class="edge">
<title>Node24&#45;&gt;Node19</title>
<g id="a_edge36_Node000024_Node000019"><a xlink:title=" ">
<path fill="none" stroke="#63b8ff" d="M481.47,-771C535.92,-771.69 608.1,-772.62 658.31,-773.26"/>
<polygon fill="#63b8ff" stroke="#63b8ff" points="481.69,-767.5 471.64,-770.87 481.6,-774.5 481.69,-767.5"/>
</a>
</g>
</g>
<!-- Node25&#45;&gt;Node18 -->
<g id="edge38_Node000025_Node000018" class="edge">
<title>Node25&#45;&gt;Node18</title>
<g id="a_edge38_Node000025_Node000018"><a xlink:title=" ">
<path fill="none" stroke="#63b8ff" d="M337.41,-814.02C325.54,-814.02 313.22,-814.02 301.55,-814.02"/>
<polygon fill="#63b8ff" stroke="#63b8ff" points="337.1,-817.52 347.1,-814.02 337.1,-810.52 337.1,-817.52"/>
</a>
</g>
</g>
<!-- Node25&#45;&gt;Node19 -->
<g id="edge39_Node000025_Node000019" class="edge">
<title>Node25&#45;&gt;Node19</title>
<g id="a_edge39_Node000025_Node000019"><a xlink:title=" ">
<path fill="none" stroke="#63b8ff" d="M470.85,-805.61C526.22,-798.53 604.76,-788.49 658.31,-781.64"/>
<polygon fill="#63b8ff" stroke="#63b8ff" points="470.73,-802.1 461.26,-806.84 471.62,-809.05 470.73,-802.1"/>
</a>
</g>
</g>
<!-- Node26&#45;&gt;Node10 -->
<g id="edge41_Node000026_Node000010" class="edge">
<title>Node26&#45;&gt;Node10</title>
<g id="a_edge41_Node000026_Node000010"><a xlink:title=" ">
<path fill="none" stroke="#63b8ff" d="M339.54,-665.17C338.75,-664.47 337.99,-663.76 337.25,-663.02 266,-591.93 247.15,-461.9 243.1,-424.4"/>
<polygon fill="#63b8ff" stroke="#63b8ff" points="337.29,-667.87 347.43,-670.95 341.43,-662.22 337.29,-667.87"/>
</a>
</g>
</g>
<!-- Node27&#45;&gt;Node17 -->
<g id="edge58_Node000027_Node000017" class="edge">
<title>Node27&#45;&gt;Node17</title>
<g id="a_edge58_Node000027_Node000017"><a xlink:title=" ">
<path fill="none" stroke="#63b8ff" d="M552.67,-193.73C537.35,-228.44 507.55,-289.94 471,-335.02 455.86,-353.7 434.11,-371.16 419.81,-381.72"/>
<polygon fill="#63b8ff" stroke="#63b8ff" points="555.76,-195.41 556.53,-184.85 549.34,-192.63 555.76,-195.41"/>
</a>
</g>
</g>
<!-- Node28 -->
<g id="Node000028" class="node">
<title>Node28</title>
<g id="a_Node000028"><a xlink:href="class_data_base_g_u_i.html#a00f9044d3b8dd9c5dada244dac1b0df6" target="_top" xlink:title="Adds a new child to the database.">
<polygon fill="white" stroke="#666666" points="466.5,-188.02 341.75,-188.02 341.75,-168.02 466.5,-168.02 466.5,-188.02"/>
<text text-anchor="middle" x="404.12" y="-174.52" font-family="Helvetica,sans-Serif" font-size="10.00">DataBaseGUI::child_add</text>
</a>
</g>
</g>
<!-- Node27&#45;&gt;Node28 -->
<g id="edge46_Node000027_Node000028" class="edge">
<title>Node27&#45;&gt;Node28</title>
<g id="a_edge46_Node000027_Node000028"><a xlink:title=" ">
<path fill="none" stroke="#63b8ff" d="M495.22,-171.78C485.81,-172.43 476.19,-173.1 466.91,-173.74"/>
<polygon fill="#63b8ff" stroke="#63b8ff" points="495.32,-175.28 505.05,-171.1 494.83,-168.3 495.32,-175.28"/>
</a>
</g>
</g>
<!-- Node29 -->
<g id="Node000029" class="node">
<title>Node29</title>
<g id="a_Node000029"><a xlink:href="class_data_base_g_u_i.html#acb6c6b292e58d0ead30682f7f5705244" target="_top" xlink:title="Edits an existing child in the database.">
<polygon fill="white" stroke="#666666" points="466.5,-100.02 341.75,-100.02 341.75,-80.02 466.5,-80.02 466.5,-100.02"/>
<text text-anchor="middle" x="404.12" y="-86.52" font-family="Helvetica,sans-Serif" font-size="10.00">DataBaseGUI::child_edit</text>
</a>
</g>
</g>
<!-- Node27&#45;&gt;Node29 -->
<g id="edge48_Node000027_Node000029" class="edge">
<title>Node27&#45;&gt;Node29</title>
<g id="a_edge48_Node000027_Node000029"><a xlink:title=" ">
<path fill="none" stroke="#63b8ff" d="M532.45,-144.33C515,-132.54 492.53,-118.63 471,-109.02 463.72,-105.77 455.73,-102.92 447.92,-100.49"/>
<polygon fill="#63b8ff" stroke="#63b8ff" points="530.11,-146.97 540.34,-149.76 534.08,-141.21 530.11,-146.97"/>
</a>
</g>
</g>
<!-- Node30 -->
<g id="Node000030" class="node">
<title>Node30</title>
<g id="a_Node000030"><a xlink:href="class_data_base_g_u_i.html#ae3a08843db874e51a7cea32fa8937ca5" target="_top" xlink:title="Removes a child from the database.">
<polygon fill="white" stroke="#666666" points="456,-62.02 352.25,-62.02 352.25,-30.02 456,-30.02 456,-62.02"/>
<text text-anchor="start" x="360.25" y="-48.52" font-family="Helvetica,sans-Serif" font-size="10.00">DataBaseGUI::child</text>
<text text-anchor="middle" x="404.12" y="-36.52" font-family="Helvetica,sans-Serif" font-size="10.00">_remove</text>
</a>
</g>
</g>
<!-- Node27&#45;&gt;Node30 -->
<g id="edge51_Node000027_Node000030" class="edge">
<title>Node27&#45;&gt;Node30</title>
<g id="a_edge51_Node000027_Node000030"><a xlink:title=" ">
<path fill="none" stroke="#63b8ff" d="M544.77,-141.78C527.51,-120.44 500.36,-90.35 471,-71.02 466.2,-67.86 460.94,-65.02 455.55,-62.48"/>
<polygon fill="#63b8ff" stroke="#63b8ff" points="541.88,-143.76 550.83,-149.43 547.36,-139.41 541.88,-143.76"/>
</a>
</g>
</g>
<!-- Node31 -->
<g id="Node000031" class="node">
<title>Node31</title>
<g id="a_Node000031"><a xlink:href="class_data_base_g_u_i.html#a2e6d3629f679c153cdd21b683ce794a1" target="_top" xlink:title="Changes the sorting method for children.">
<polygon fill="white" stroke="#666666" points="456,-150.02 352.25,-150.02 352.25,-118.02 456,-118.02 456,-150.02"/>
<text text-anchor="start" x="360.25" y="-136.52" font-family="Helvetica,sans-Serif" font-size="10.00">DataBaseGUI::child</text>
<text text-anchor="middle" x="404.12" y="-124.52" font-family="Helvetica,sans-Serif" font-size="10.00">_sort_change</text>
</a>
</g>
</g>
<!-- Node27&#45;&gt;Node31 -->
<g id="edge54_Node000027_Node000031" class="edge">
<title>Node27&#45;&gt;Node31</title>
<g id="a_edge54_Node000027_Node000031"><a xlink:title=" ">
<path fill="none" stroke="#63b8ff" d="M495.62,-152.83C482.43,-150.09 468.82,-147.26 456.3,-144.66"/>
<polygon fill="#63b8ff" stroke="#63b8ff" points="494.58,-156.19 505.08,-154.8 496,-149.34 494.58,-156.19"/>
</a>
</g>
</g>
<!-- Node32 -->
<g id="Node000032" class="node">
<title>Node32</title>
<g id="a_Node000032"><a xlink:href="class_data_base_g_u_i.html#a20d1ece0affaa1f5b6876ee072dd2ab1" target="_top" xlink:title="Imports a database from a file.">
<polygon fill="white" stroke="#666666" points="459.38,-238.02 348.88,-238.02 348.88,-206.02 459.38,-206.02 459.38,-238.02"/>
<text text-anchor="start" x="356.88" y="-224.52" font-family="Helvetica,sans-Serif" font-size="10.00">DataBaseGUI::import</text>
<text text-anchor="middle" x="404.12" y="-212.52" font-family="Helvetica,sans-Serif" font-size="10.00">_database</text>
</a>
</g>
</g>
<!-- Node27&#45;&gt;Node32 -->
<g id="edge56_Node000027_Node000032" class="edge">
<title>Node27&#45;&gt;Node32</title>
<g id="a_edge56_Node000027_Node000032"><a xlink:title=" ">
<path fill="none" stroke="#63b8ff" d="M506,-187.07C488.48,-193.14 469.45,-199.73 452.69,-205.54"/>
<polygon fill="#63b8ff" stroke="#63b8ff" points="506.94,-190.45 515.24,-183.87 504.65,-183.84 506.94,-190.45"/>
</a>
</g>
</g>
<!-- Node28&#45;&gt;Node10 -->
<g id="edge47_Node000028_Node000010" class="edge">
<title>Node28&#45;&gt;Node10</title>
<g id="a_edge47_Node000028_Node000010"><a xlink:title=" ">
<path fill="none" stroke="#63b8ff" d="M340.71,-194.26C339.51,-195.13 338.36,-196.05 337.25,-197.02 270.72,-255.29 248.84,-368.74 243.54,-403.59"/>
<polygon fill="#63b8ff" stroke="#63b8ff" points="342.41,-197.32 349.22,-189.2 338.84,-191.3 342.41,-197.32"/>
</a>
</g>
</g>
<!-- Node29&#45;&gt;Node2 -->
<g id="edge49_Node000029_Node000002" class="edge">
<title>Node29&#45;&gt;Node2</title>
<g id="a_edge49_Node000029_Node000002"><a xlink:title=" ">
<path fill="none" stroke="#63b8ff" d="M330.21,-80.06C320.64,-78.75 310.93,-77.42 301.63,-76.15"/>
<polygon fill="#63b8ff" stroke="#63b8ff" points="329.46,-83.49 339.84,-81.37 330.4,-76.55 329.46,-83.49"/>
</a>
</g>
</g>
<!-- Node29&#45;&gt;Node3 -->
<g id="edge50_Node000029_Node000003" class="edge">
<title>Node29&#45;&gt;Node3</title>
<g id="a_edge50_Node000029_Node000003"><a xlink:title=" ">
<path fill="none" stroke="#63b8ff" d="M478.28,-94.05C541.65,-97.19 635.78,-101.02 717.88,-101.02 1041.38,-101.02 1041.38,-101.02 1041.38,-101.02 1129.2,-101.02 1228.41,-130.99 1283.79,-150.54"/>
<polygon fill="#63b8ff" stroke="#63b8ff" points="478.49,-90.55 468.33,-93.55 478.14,-97.55 478.49,-90.55"/>
</a>
</g>
</g>
<!-- Node30&#45;&gt;Node2 -->
<g id="edge52_Node000030_Node000002" class="edge">
<title>Node30&#45;&gt;Node2</title>
<g id="a_edge52_Node000030_Node000002"><a xlink:title=" ">
<path fill="none" stroke="#63b8ff" d="M341.04,-54.5C328.13,-56.27 314.55,-58.12 301.73,-59.88"/>
<polygon fill="#63b8ff" stroke="#63b8ff" points="341.25,-58.01 350.68,-53.19 340.3,-51.07 341.25,-58.01"/>
</a>
</g>
</g>
<!-- Node30&#45;&gt;Node3 -->
<g id="edge53_Node000030_Node000003" class="edge">
<title>Node30&#45;&gt;Node3</title>
<g id="a_edge53_Node000030_Node000003"><a xlink:title=" ">
<path fill="none" stroke="#63b8ff" d="M467.66,-46.97C530.79,-47.85 631.1,-49.02 717.88,-49.02 1041.38,-49.02 1041.38,-49.02 1041.38,-49.02 1129.68,-49.02 1151.8,-68.08 1232,-105.02 1259.04,-117.48 1287.27,-136.81 1305.89,-150.57"/>
<polygon fill="#63b8ff" stroke="#63b8ff" points="467.88,-43.48 457.83,-46.83 467.78,-50.48 467.88,-43.48"/>
</a>
</g>
</g>
<!-- Node31&#45;&gt;Node10 -->
<g id="edge55_Node000031_Node000010" class="edge">
<title>Node31&#45;&gt;Node10</title>
<g id="a_edge55_Node000031_Node000010"><a xlink:title=" ">
<path fill="none" stroke="#63b8ff" d="M342.32,-154.53C340.53,-155.93 338.83,-157.43 337.25,-159.02 264.62,-232.06 246.71,-365.62 242.99,-403.66"/>
<polygon fill="#63b8ff" stroke="#63b8ff" points="344.14,-157.52 350.59,-149.12 340.31,-151.67 344.14,-157.52"/>
</a>
</g>
</g>
<!-- Node32&#45;&gt;Node10 -->
<g id="edge57_Node000032_Node000010" class="edge">
<title>Node32&#45;&gt;Node10</title>
<g id="a_edge57_Node000032_Node000010"><a xlink:title=" ">
<path fill="none" stroke="#63b8ff" d="M347.42,-244.23C343.81,-246.61 340.37,-249.2 337.25,-252.02 286.86,-297.44 255.56,-376 245.59,-403.86"/>
<polygon fill="#63b8ff" stroke="#63b8ff" points="349.13,-247.28 355.98,-239.19 345.58,-241.25 349.13,-247.28"/>
</a>
</g>
</g>
</g>
</svg>

<g id="navigator" transform="translate(0 0)" fill="#404254">
  <rect fill="#f2f5e9" fill-opacity="0.5" stroke="#606060" stroke-width=".5" x="0" y="0" width="60" height="60"/>
  <use id="zoomplus" xlink:href="#zoomPlus" x="17" y="9" onmousedown="handleZoom(evt,'in')"/>
  <use id="zoomminus" xlink:href="#zoomMin" x="42" y="9" onmousedown="handleZoom(evt,'out')"/>
  <use id="reset" xlink:href="#resetDef" x="30" y="36" onmousedown="handleReset()"/>
   <use id="arrowup" xlink:href="#arrowUp" x="0" y="0" onmousedown="handlePan(0,-1)"/>
  <use id="arrowright" xlink:href="#arrowRight" x="0" y="0" onmousedown="handlePan(1,0)"/>
  <use id="arrowdown" xlink:href="#arrowDown" x="0" y="0" onmousedown="handlePan(0,1)"/>
  <use id="arrowleft" xlink:href="#arrowLeft" x="0" y="0" onmousedown="handlePan(-1,0)"/>
</g>
<svg viewBox="0 0 15 15" width="100%" height="30px" preserveAspectRatio="xMaxYMin meet">
 <g id="arrow_out" transform="scale(0.3 0.3)">
  <a xlink:href="class_child_entry_a69e495a83c20ea922198adea9ae47ddb_icgraph_org.svg" target="_base">
   <rect id="button" ry="5" rx="5" y="6" x="6" height="38" width="38"
        fill="#f2f5e9" fill-opacity="0.5" stroke="#606060" stroke-width="1.0"/>
   <path id="arrow"
     d="M 11.500037,31.436501 C 11.940474,20.09759 22.043105,11.32322 32.158766,21.979434 L 37.068811,17.246167 C 37.068811,17.246167 37.088388,32 37.088388,32 L 22.160133,31.978069 C 22.160133,31.978069 26.997745,27.140456 26.997745,27.140456 C 18.528582,18.264221 13.291696,25.230495 11.500037,31.436501 z"
     style="fill:#404040;"/>
  </a>
 </g>
</svg>

<style type='text/css'>
<![CDATA[
[data-mouse-over-selected='false'] { opacity: 0.7; }
[data-mouse-over-selected='true']  { opacity: 1.0; }
]]>
</style>
<script type="application/ecmascript"><![CDATA[
document.addEventListener('DOMContentLoaded', (event) => {
  highlightEdges();
  highlightAdjacentNodes();
});
]]></script>
</svg>
