<?xml version="1.0" encoding="UTF-8" standalone="no"?>
<!DOCTYPE svg PUBLIC "-//W3C//DTD SVG 1.1//EN"
 "http://www.w3.org/Graphics/SVG/1.1/DTD/svg11.dtd">
<!-- Generated by graphviz version 12.2.1 (20241206.2353)
 -->
<!-- Title: Date::get_day Pages: 1 -->
<svg width="704pt" height="192pt"
 viewBox="0.00 0.00 703.75 192.00" xmlns="http://www.w3.org/2000/svg" xmlns:xlink="http://www.w3.org/1999/xlink">
<g id="graph0" class="graph" transform="scale(1 1) rotate(0) translate(4 188)">
<title>Date::get_day</title>
<!-- Node1 -->
<g id="Node000001" class="node">
<title>Node1</title>
<g id="a_Node000001"><a xlink:title="Gets the day of the date.">
<polygon fill="#999999" stroke="#666666" points="695.75,-96 618.25,-96 618.25,-76 695.75,-76 695.75,-96"/>
<text text-anchor="middle" x="657" y="-82.5" font-family="Helvetica,sans-Serif" font-size="10.00">Date::get_day</text>
</a>
</g>
</g>
<!-- Node2 -->
<g id="Node000002" class="node">
<title>Node2</title>
<g id="a_Node000002"><a xlink:href="class_date.html#a4a50a2f4e115c9368603a7226c45872b" target="_top" xlink:title="Gets the date as a string.">
<polygon fill="white" stroke="#666666" points="562.38,-115 452.62,-115 452.62,-95 562.38,-95 562.38,-115"/>
<text text-anchor="middle" x="507.5" y="-101.5" font-family="Helvetica,sans-Serif" font-size="10.00">Date::get_date_string</text>
</a>
</g>
</g>
<!-- Node1&#45;&gt;Node2 -->
<g id="edge1_Node000001_Node000002" class="edge">
<title>Node1&#45;&gt;Node2</title>
<g id="a_edge1_Node000001_Node000002"><a xlink:title=" ">
<path fill="none" stroke="#63b8ff" d="M606.98,-92.31C592.8,-94.14 577.24,-96.15 562.76,-98.01"/>
<polygon fill="#63b8ff" stroke="#63b8ff" points="607.04,-95.84 616.51,-91.09 606.15,-88.89 607.04,-95.84"/>
</a>
</g>
</g>
<!-- Node11 -->
<g id="Node000011" class="node">
<title>Node11</title>
<g id="a_Node000011"><a xlink:href="class_date.html#a05d75f0746a6fa8796c17666b900641e" target="_top" xlink:title="Gets the weekday for a given date.">
<polygon fill="white" stroke="#666666" points="582.25,-77 432.75,-77 432.75,-57 582.25,-57 582.25,-77"/>
<text text-anchor="middle" x="507.5" y="-63.5" font-family="Helvetica,sans-Serif" font-size="10.00">Date::get_weekday_from_date</text>
</a>
</g>
</g>
<!-- Node1&#45;&gt;Node11 -->
<g id="edge10_Node000001_Node000011" class="edge">
<title>Node1&#45;&gt;Node11</title>
<g id="a_edge10_Node000001_Node000011"><a xlink:title=" ">
<path fill="none" stroke="#63b8ff" d="M606.86,-79.67C599.01,-78.66 590.74,-77.59 582.47,-76.53"/>
<polygon fill="#63b8ff" stroke="#63b8ff" points="606.15,-83.11 616.51,-80.91 607.04,-76.16 606.15,-83.11"/>
</a>
</g>
</g>
<!-- Node3 -->
<g id="Node000003" class="node">
<title>Node3</title>
<g id="a_Node000003"><a xlink:href="class_date_time.html#a7570508ce1e761a7eb2a9ca938b2c3eb" target="_top" xlink:title="Gets the combined date and time as a string.">
<polygon fill="white" stroke="#666666" points="396.75,-184 294.5,-184 294.5,-152 396.75,-152 396.75,-184"/>
<text text-anchor="start" x="302.5" y="-170.5" font-family="Helvetica,sans-Serif" font-size="10.00">DateTime::get_date</text>
<text text-anchor="middle" x="345.62" y="-158.5" font-family="Helvetica,sans-Serif" font-size="10.00">_time_string</text>
</a>
</g>
</g>
<!-- Node2&#45;&gt;Node3 -->
<g id="edge2_Node000002_Node000003" class="edge">
<title>Node2&#45;&gt;Node3</title>
<g id="a_edge2_Node000002_Node000003"><a xlink:title=" ">
<path fill="none" stroke="#63b8ff" d="M469.54,-119.56C445.3,-129.12 413.55,-141.63 388.4,-151.54"/>
<polygon fill="#63b8ff" stroke="#63b8ff" points="470.67,-122.88 478.69,-115.96 468.1,-116.37 470.67,-122.88"/>
</a>
</g>
</g>
<!-- Node4 -->
<g id="Node000004" class="node">
<title>Node4</title>
<g id="a_Node000004"><a xlink:href="class_child.html#a7e44a9fa1706cf6514aae81ad646eb02" target="_top" xlink:title="Outputs the Child object to a stream.">
<polygon fill="white" stroke="#666666" points="391.5,-134 299.75,-134 299.75,-114 391.5,-114 391.5,-134"/>
<text text-anchor="middle" x="345.62" y="-120.5" font-family="Helvetica,sans-Serif" font-size="10.00">Child::operator&lt;&lt;</text>
</a>
</g>
</g>
<!-- Node2&#45;&gt;Node4 -->
<g id="edge3_Node000002_Node000004" class="edge">
<title>Node2&#45;&gt;Node4</title>
<g id="a_edge3_Node000002_Node000004"><a xlink:title=" ">
<path fill="none" stroke="#63b8ff" d="M441.11,-112.77C424.58,-114.74 407.2,-116.8 391.91,-118.62"/>
<polygon fill="#63b8ff" stroke="#63b8ff" points="441.35,-116.27 450.87,-111.61 440.53,-109.32 441.35,-116.27"/>
</a>
</g>
</g>
<!-- Node5 -->
<g id="Node000005" class="node">
<title>Node5</title>
<g id="a_Node000005"><a xlink:href="class_date.html#a1453e0b6696844fd1fbc1b3961959946" target="_top" xlink:title="Prints the date in a long format.">
<polygon fill="white" stroke="#666666" points="388.12,-96 303.12,-96 303.12,-76 388.12,-76 388.12,-96"/>
<text text-anchor="middle" x="345.62" y="-82.5" font-family="Helvetica,sans-Serif" font-size="10.00">Date::print_long</text>
</a>
</g>
</g>
<!-- Node2&#45;&gt;Node5 -->
<g id="edge4_Node000002_Node000005" class="edge">
<title>Node2&#45;&gt;Node5</title>
<g id="a_edge4_Node000002_Node000005"><a xlink:title=" ">
<path fill="none" stroke="#63b8ff" d="M441.18,-97.24C423.41,-95.13 404.65,-92.9 388.56,-90.98"/>
<polygon fill="#63b8ff" stroke="#63b8ff" points="440.53,-100.68 450.87,-98.39 441.35,-93.73 440.53,-100.68"/>
</a>
</g>
</g>
<!-- Node7 -->
<g id="Node000007" class="node">
<title>Node7</title>
<g id="a_Node000007"><a xlink:href="class_date.html#a55db960044bdecc41d808e0185b1ed8f" target="_top" xlink:title="Prints the date in a short format.">
<polygon fill="white" stroke="#666666" points="390,-58 301.25,-58 301.25,-38 390,-38 390,-58"/>
<text text-anchor="middle" x="345.62" y="-44.5" font-family="Helvetica,sans-Serif" font-size="10.00">Date::print_short</text>
</a>
</g>
</g>
<!-- Node2&#45;&gt;Node7 -->
<g id="edge6_Node000002_Node000007" class="edge">
<title>Node2&#45;&gt;Node7</title>
<g id="a_edge6_Node000002_Node000007"><a xlink:title=" ">
<path fill="none" stroke="#63b8ff" d="M448.27,-91.37C442.97,-89.72 437.73,-87.92 432.75,-86 415.88,-79.48 413.24,-74.44 396.75,-67 390.13,-64.01 382.9,-61.08 376.03,-58.45"/>
<polygon fill="#63b8ff" stroke="#63b8ff" points="447.13,-94.68 457.71,-94.13 449.1,-87.96 447.13,-94.68"/>
</a>
</g>
</g>
<!-- Node6 -->
<g id="Node000006" class="node">
<title>Node6</title>
<g id="a_Node000006"><a xlink:href="class_date_time.html#a570826a1b0ae205508810b5cdcc6129d" target="_top" xlink:title="Prints the date and time in a long format.">
<polygon fill="white" stroke="#666666" points="256.62,-96 149.88,-96 149.88,-76 256.62,-76 256.62,-96"/>
<text text-anchor="middle" x="203.25" y="-82.5" font-family="Helvetica,sans-Serif" font-size="10.00">DateTime::print_long</text>
</a>
</g>
</g>
<!-- Node5&#45;&gt;Node6 -->
<g id="edge5_Node000005_Node000006" class="edge">
<title>Node5&#45;&gt;Node6</title>
<g id="a_edge5_Node000005_Node000006"><a xlink:title=" ">
<path fill="none" stroke="#63b8ff" d="M291.43,-86C280.17,-86 268.29,-86 257.05,-86"/>
<polygon fill="#63b8ff" stroke="#63b8ff" points="291.37,-89.5 301.37,-86 291.37,-82.5 291.37,-89.5"/>
</a>
</g>
</g>
<!-- Node8 -->
<g id="Node000008" class="node">
<title>Node8</title>
<g id="a_Node000008"><a xlink:href="class_date.html#a4c4ff6ff6215424fcec7bea646913a2d" target="_top" xlink:title="Outputs the date to a stream.">
<polygon fill="white" stroke="#666666" points="248.38,-58 158.12,-58 158.12,-38 248.38,-38 248.38,-58"/>
<text text-anchor="middle" x="203.25" y="-44.5" font-family="Helvetica,sans-Serif" font-size="10.00">Date::operator&lt;&lt;</text>
</a>
</g>
</g>
<!-- Node7&#45;&gt;Node8 -->
<g id="edge7_Node000007_Node000008" class="edge">
<title>Node7&#45;&gt;Node8</title>
<g id="a_edge7_Node000007_Node000008"><a xlink:title=" ">
<path fill="none" stroke="#63b8ff" d="M289.81,-48C276.24,-48 261.86,-48 248.84,-48"/>
<polygon fill="#63b8ff" stroke="#63b8ff" points="289.47,-51.5 299.47,-48 289.47,-44.5 289.47,-51.5"/>
</a>
</g>
</g>
<!-- Node9 -->
<g id="Node000009" class="node">
<title>Node9</title>
<g id="a_Node000009"><a xlink:href="class_date_time.html#a6f14b6b8aff8237f5768a8c1f53c026a" target="_top" xlink:title="Prints the date and time in a short format.">
<polygon fill="white" stroke="#666666" points="258.5,-20 148,-20 148,0 258.5,0 258.5,-20"/>
<text text-anchor="middle" x="203.25" y="-6.5" font-family="Helvetica,sans-Serif" font-size="10.00">DateTime::print_short</text>
</a>
</g>
</g>
<!-- Node7&#45;&gt;Node9 -->
<g id="edge8_Node000007_Node000009" class="edge">
<title>Node7&#45;&gt;Node9</title>
<g id="a_edge8_Node000007_Node000009"><a xlink:title=" ">
<path fill="none" stroke="#63b8ff" d="M294.96,-34.55C277.84,-29.92 258.95,-24.81 242.85,-20.45"/>
<polygon fill="#63b8ff" stroke="#63b8ff" points="293.87,-37.89 304.43,-37.12 295.7,-31.13 293.87,-37.89"/>
</a>
</g>
</g>
<!-- Node10 -->
<g id="Node000010" class="node">
<title>Node10</title>
<g id="a_Node000010"><a xlink:href="class_date_time.html#a4428b32e7ec538b2fee1bfcf5f377f45" target="_top" xlink:title="Outputs the DateTime to a stream.">
<polygon fill="white" stroke="#666666" points="112,-20 0,-20 0,0 112,0 112,-20"/>
<text text-anchor="middle" x="56" y="-6.5" font-family="Helvetica,sans-Serif" font-size="10.00">DateTime::operator&lt;&lt;</text>
</a>
</g>
</g>
<!-- Node9&#45;&gt;Node10 -->
<g id="edge9_Node000009_Node000010" class="edge">
<title>Node9&#45;&gt;Node10</title>
<g id="a_edge9_Node000009_Node000010"><a xlink:title=" ">
<path fill="none" stroke="#63b8ff" d="M136.45,-10C128.38,-10 120.19,-10 112.29,-10"/>
<polygon fill="#63b8ff" stroke="#63b8ff" points="136.24,-13.5 146.24,-10 136.24,-6.5 136.24,-13.5"/>
</a>
</g>
</g>
</g>
</svg>
