<?xml version="1.0" encoding="UTF-8" standalone="no"?>
<!DOCTYPE svg PUBLIC "-//W3C//DTD SVG 1.1//EN"
 "http://www.w3.org/Graphics/SVG/1.1/DTD/svg11.dtd">
<!-- Generated by graphviz version 12.2.1 (20241206.2353)
 -->
<!-- Title: Date::set_day Pages: 1 -->
<svg width="186pt" height="66pt"
 viewBox="0.00 0.00 185.50 66.00" xmlns="http://www.w3.org/2000/svg" xmlns:xlink="http://www.w3.org/1999/xlink">
<g id="graph0" class="graph" transform="scale(1 1) rotate(0) translate(4 62)">
<title>Date::set_day</title>
<!-- Node1 -->
<g id="Node000001" class="node">
<title>Node1</title>
<g id="a_Node000001"><a xlink:title="Sets the day of the date.">
<polygon fill="#999999" stroke="#666666" points="177.5,-39 100,-39 100,-19 177.5,-19 177.5,-39"/>
<text text-anchor="middle" x="138.75" y="-25.5" font-family="Helvetica,sans-Serif" font-size="10.00">Date::set_day</text>
</a>
</g>
</g>
<!-- Node2 -->
<g id="Node000002" class="node">
<title>Node2</title>
<g id="a_Node000002"><a xlink:href="class_date.html#abb3e3f8660490bbe3ddee03b37e42eca" target="_top" xlink:title="Constructs a Date from a string representation of the date.">
<polygon fill="white" stroke="#666666" points="64,-58 0,-58 0,-38 64,-38 64,-58"/>
<text text-anchor="middle" x="32" y="-44.5" font-family="Helvetica,sans-Serif" font-size="10.00">Date::Date</text>
</a>
</g>
</g>
<!-- Node1&#45;&gt;Node2 -->
<g id="edge1_Node000001_Node000002" class="edge">
<title>Node1&#45;&gt;Node2</title>
<g id="a_edge1_Node000001_Node000002"><a xlink:title=" ">
<path fill="none" stroke="#63b8ff" d="M88.56,-37.92C80.33,-39.41 72,-40.93 64.38,-42.31"/>
<polygon fill="#63b8ff" stroke="#63b8ff" points="88.93,-41.41 98.15,-36.18 87.68,-34.52 88.93,-41.41"/>
</a>
</g>
</g>
<!-- Node3 -->
<g id="Node000003" class="node">
<title>Node3</title>
<g id="a_Node000003"><a xlink:href="class_date.html#afffadab5d7aac0a51e91ef2c5081b1b2" target="_top" xlink:title="Constructs a Date from day, month, and year values.">
<polygon fill="white" stroke="#666666" points="64,-20 0,-20 0,0 64,0 64,-20"/>
<text text-anchor="middle" x="32" y="-6.5" font-family="Helvetica,sans-Serif" font-size="10.00">Date::Date</text>
</a>
</g>
</g>
<!-- Node1&#45;&gt;Node3 -->
<g id="edge2_Node000001_Node000003" class="edge">
<title>Node1&#45;&gt;Node3</title>
<g id="a_edge2_Node000001_Node000003"><a xlink:title=" ">
<path fill="none" stroke="#63b8ff" d="M88.56,-20.08C80.33,-18.59 72,-17.07 64.38,-15.69"/>
<polygon fill="#63b8ff" stroke="#63b8ff" points="87.68,-23.48 98.15,-21.82 88.93,-16.59 87.68,-23.48"/>
</a>
</g>
</g>
</g>
</svg>
