<?xml version="1.0" encoding="UTF-8" standalone="no"?>
<!DOCTYPE svg PUBLIC "-//W3C//DTD SVG 1.1//EN"
 "http://www.w3.org/Graphics/SVG/1.1/DTD/svg11.dtd">
<!-- Generated by graphviz version 12.2.1 (20241206.2353)
 -->
<!-- Title: Lesson::get_datetime Pages: 1 -->
<svg width="284pt" height="66pt"
 viewBox="0.00 0.00 283.75 66.00" xmlns="http://www.w3.org/2000/svg" xmlns:xlink="http://www.w3.org/1999/xlink">
<g id="graph0" class="graph" transform="scale(1 1) rotate(0) translate(4 62)">
<title>Lesson::get_datetime</title>
<!-- Node1 -->
<g id="Node000001" class="node">
<title>Node1</title>
<g id="a_Node000001"><a xlink:title="Gets the date and time of the lesson.">
<polygon fill="#999999" stroke="#666666" points="275.75,-39 166,-39 166,-19 275.75,-19 275.75,-39"/>
<text text-anchor="middle" x="220.88" y="-25.5" font-family="Helvetica,sans-Serif" font-size="10.00">Lesson::get_datetime</text>
</a>
</g>
</g>
<!-- Node2 -->
<g id="Node000002" class="node">
<title>Node2</title>
<g id="a_Node000002"><a xlink:href="class_database.html#aaadc65d8eed9fdef218300f82902ca41" target="_top" xlink:title="Adds a lesson to the database.">
<polygon fill="white" stroke="#666666" points="121.75,-58 8.25,-58 8.25,-38 121.75,-38 121.75,-58"/>
<text text-anchor="middle" x="65" y="-44.5" font-family="Helvetica,sans-Serif" font-size="10.00">Database::add_lesson</text>
</a>
</g>
</g>
<!-- Node1&#45;&gt;Node2 -->
<g id="edge1_Node000001_Node000002" class="edge">
<title>Node1&#45;&gt;Node2</title>
<g id="a_edge1_Node000001_Node000002"><a xlink:title=" ">
<path fill="none" stroke="#63b8ff" d="M154.53,-37.07C143.74,-38.4 132.64,-39.77 122.1,-41.07"/>
<polygon fill="#63b8ff" stroke="#63b8ff" points="154.63,-40.58 164.12,-35.88 153.77,-33.64 154.63,-40.58"/>
</a>
</g>
</g>
<!-- Node3 -->
<g id="Node000003" class="node">
<title>Node3</title>
<g id="a_Node000003"><a xlink:href="class_database.html#a68806d26995eecb355c6835e29f45e38" target="_top" xlink:title="Removes a lesson from the database.">
<polygon fill="white" stroke="#666666" points="130,-20 0,-20 0,0 130,0 130,-20"/>
<text text-anchor="middle" x="65" y="-6.5" font-family="Helvetica,sans-Serif" font-size="10.00">Database::remove_lesson</text>
</a>
</g>
</g>
<!-- Node1&#45;&gt;Node3 -->
<g id="edge2_Node000001_Node000003" class="edge">
<title>Node1&#45;&gt;Node3</title>
<g id="a_edge2_Node000001_Node000003"><a xlink:title=" ">
<path fill="none" stroke="#63b8ff" d="M154.46,-20.92C146.46,-19.93 138.29,-18.93 130.3,-17.94"/>
<polygon fill="#63b8ff" stroke="#63b8ff" points="153.77,-24.36 164.12,-22.12 154.63,-17.42 153.77,-24.36"/>
</a>
</g>
</g>
</g>
</svg>
