<?xml version="1.0" encoding="UTF-8" standalone="no"?>
<!DOCTYPE svg PUBLIC "-//W3C//DTD SVG 1.1//EN"
 "http://www.w3.org/Graphics/SVG/1.1/DTD/svg11.dtd">
<!-- Generated by graphviz version 12.2.1 (20241206.2353)
 -->
<!-- Title: Parent::~Parent Pages: 1 -->
<svg width="337pt" height="28pt"
 viewBox="0.00 0.00 337.25 28.00" xmlns="http://www.w3.org/2000/svg" xmlns:xlink="http://www.w3.org/1999/xlink">
<g id="graph0" class="graph" transform="scale(1 1) rotate(0) translate(4 24)">
<title>Parent::~Parent</title>
<!-- Node1 -->
<g id="Node000001" class="node">
<title>Node1</title>
<g id="a_Node000001"><a xlink:title="Destructor.">
<polygon fill="#999999" stroke="#666666" points="85,-20 0,-20 0,0 85,0 85,-20"/>
<text text-anchor="middle" x="42.5" y="-6.5" font-family="Helvetica,sans-Serif" font-size="10.00">Parent::~Parent</text>
</a>
</g>
</g>
<!-- Node2 -->
<g id="Node000002" class="node">
<title>Node2</title>
<g id="a_Node000002"><a xlink:href="class_parent.html#a079738966a5c9f87e7d234c43e235132" target="_top" xlink:title="Default constructor.">
<polygon fill="white" stroke="#666666" points="200,-20 121,-20 121,0 200,0 200,-20"/>
<text text-anchor="middle" x="160.5" y="-6.5" font-family="Helvetica,sans-Serif" font-size="10.00">Parent::Parent</text>
</a>
</g>
</g>
<!-- Node1&#45;&gt;Node2 -->
<g id="edge1_Node000001_Node000002" class="edge">
<title>Node1&#45;&gt;Node2</title>
<g id="a_edge1_Node000001_Node000002"><a xlink:title=" ">
<path fill="none" stroke="#63b8ff" d="M85.38,-10C93.14,-10 101.32,-10 109.3,-10"/>
<polygon fill="#63b8ff" stroke="#63b8ff" points="109.26,-13.5 119.26,-10 109.26,-6.5 109.26,-13.5"/>
</a>
</g>
</g>
<!-- Node3 -->
<g id="Node000003" class="node">
<title>Node3</title>
<g id="a_Node000003"><a xlink:href="class_parent.html#a3fa387494ad7c650bb24604970bf5957" target="_top" xlink:title="Checks if the parent is a mother.">
<polygon fill="white" stroke="#666666" points="329.25,-20 236,-20 236,0 329.25,0 329.25,-20"/>
<text text-anchor="middle" x="282.62" y="-6.5" font-family="Helvetica,sans-Serif" font-size="10.00">Parent::is_mother</text>
</a>
</g>
</g>
<!-- Node2&#45;&gt;Node3 -->
<g id="edge2_Node000002_Node000003" class="edge">
<title>Node2&#45;&gt;Node3</title>
<g id="a_edge2_Node000002_Node000003"><a xlink:title=" ">
<path fill="none" stroke="#63b8ff" d="M200.17,-10C207.91,-10 216.19,-10 224.4,-10"/>
<polygon fill="#63b8ff" stroke="#63b8ff" points="224.39,-13.5 234.39,-10 224.39,-6.5 224.39,-13.5"/>
</a>
</g>
</g>
</g>
</svg>
