<?xml version="1.0" encoding="UTF-8" standalone="no"?>
<!DOCTYPE svg PUBLIC "-//W3C//DTD SVG 1.1//EN"
 "http://www.w3.org/Graphics/SVG/1.1/DTD/svg11.dtd">
<!-- Generated by graphviz version 12.2.1 (20241206.2353)
 -->
<!-- Title: DataBaseGUI::child_search_by_pointer Pages: 1 -->
<svg width="1417pt" height="667pt"
 viewBox="0.00 0.00 1417.25 666.86" xmlns="http://www.w3.org/2000/svg" xmlns:xlink="http://www.w3.org/1999/xlink">
<g id="graph0" class="graph" transform="scale(1 1) rotate(0) translate(4 662.86)">
<title>DataBaseGUI::child_search_by_pointer</title>
<!-- Node1 -->
<g id="Node000001" class="node">
<title>Node1</title>
<g id="a_Node000001"><a xlink:title="Searches for children based on the provided child pointer.">
<polygon fill="#999999" stroke="#666666" points="1409.25,-547.25 1305.5,-547.25 1305.5,-515.25 1409.25,-515.25 1409.25,-547.25"/>
<text text-anchor="start" x="1313.5" y="-533.75" font-family="Helvetica,sans-Serif" font-size="10.00">DataBaseGUI::child</text>
<text text-anchor="middle" x="1357.38" y="-521.75" font-family="Helvetica,sans-Serif" font-size="10.00">_search_by_pointer</text>
</a>
</g>
</g>
<!-- Node2 -->
<g id="Node000002" class="node">
<title>Node2</title>
<g id="a_Node000002"><a xlink:href="class_data_base_g_u_i.html#aadcf1044a300a89dadd104cfadb9a1b1" target="_top" xlink:title="Views a lesson in the GUI.">
<polygon fill="white" stroke="#666666" points="963.75,-612.25 826.25,-612.25 826.25,-592.25 963.75,-592.25 963.75,-612.25"/>
<text text-anchor="middle" x="895" y="-598.75" font-family="Helvetica,sans-Serif" font-size="10.00">DataBaseGUI::lesson_view</text>
</a>
</g>
</g>
<!-- Node1&#45;&gt;Node2 -->
<g id="edge1_Node000001_Node000002" class="edge">
<title>Node1&#45;&gt;Node2</title>
<g id="a_edge1_Node000001_Node000002"><a xlink:title=" ">
<path fill="none" stroke="#63b8ff" d="M1308.72,-551.92C1296.17,-556.65 1282.49,-561.18 1269.5,-564.25 1164.68,-589.04 1039.56,-597.66 964.02,-600.66"/>
<polygon fill="#63b8ff" stroke="#63b8ff" points="1309.96,-555.19 1318.01,-548.29 1307.42,-548.67 1309.96,-555.19"/>
</a>
</g>
</g>
<!-- Node14 -->
<g id="Node000014" class="node">
<title>Node14</title>
<g id="a_Node000014"><a xlink:href="class_data_base_g_u_i.html#a33f2f95926f7b4b05227dcf395e235d3" target="_top" xlink:title="Populates the parent tab with a multimap of parents.">
<polygon fill="white" stroke="#666666" points="784.62,-489.25 664.38,-489.25 664.38,-457.25 784.62,-457.25 784.62,-489.25"/>
<text text-anchor="start" x="672.38" y="-475.75" font-family="Helvetica,sans-Serif" font-size="10.00">DataBaseGUI::populate</text>
<text text-anchor="middle" x="724.5" y="-463.75" font-family="Helvetica,sans-Serif" font-size="10.00">_parent_tab</text>
</a>
</g>
</g>
<!-- Node1&#45;&gt;Node14 -->
<g id="edge20_Node000001_Node000014" class="edge">
<title>Node1&#45;&gt;Node14</title>
<g id="a_edge20_Node000001_Node000014"><a xlink:title=" ">
<path fill="none" stroke="#63b8ff" d="M1293.9,-531.01C1194.37,-529.82 993.92,-524.06 826.25,-498.25 812.53,-496.14 797.96,-493.04 784.27,-489.73"/>
<polygon fill="#63b8ff" stroke="#63b8ff" points="1293.69,-534.51 1303.73,-531.12 1293.77,-527.51 1293.69,-534.51"/>
</a>
</g>
</g>
<!-- Node15 -->
<g id="Node000015" class="node">
<title>Node15</title>
<g id="a_Node000015"><a xlink:href="class_data_base_g_u_i.html#a739b2cf48c0cb6e3cab2da0a7bbd6d6d" target="_top" xlink:title="Populates the parent tab with a list of parents.">
<polygon fill="white" stroke="#666666" points="1269.5,-451.25 1149.25,-451.25 1149.25,-419.25 1269.5,-419.25 1269.5,-451.25"/>
<text text-anchor="start" x="1157.25" y="-437.75" font-family="Helvetica,sans-Serif" font-size="10.00">DataBaseGUI::populate</text>
<text text-anchor="middle" x="1209.38" y="-425.75" font-family="Helvetica,sans-Serif" font-size="10.00">_parent_tab</text>
</a>
</g>
</g>
<!-- Node1&#45;&gt;Node15 -->
<g id="edge21_Node000001_Node000015" class="edge">
<title>Node1&#45;&gt;Node15</title>
<g id="a_edge21_Node000001_Node000015"><a xlink:title=" ">
<path fill="none" stroke="#63b8ff" d="M1322.27,-508.83C1295.63,-491.31 1259.22,-467.37 1235.26,-451.62"/>
<polygon fill="#63b8ff" stroke="#63b8ff" points="1320.06,-511.57 1330.34,-514.14 1323.91,-505.72 1320.06,-511.57"/>
</a>
</g>
</g>
<!-- Node2&#45;&gt;Node2 -->
<g id="edge2_Node000002_Node000002" class="edge">
<title>Node2&#45;&gt;Node2</title>
<g id="a_edge2_Node000002_Node000002"><a xlink:title=" ">
<path fill="none" stroke="#63b8ff" d="M923.54,-623.7C919.87,-627.55 910.35,-630.25 895,-630.25 866.93,-630.25 858.37,-621.23 869.34,-612.59"/>
<polygon fill="#63b8ff" stroke="#63b8ff" points="926.94,-622.86 921.04,-614.06 920.17,-624.62 926.94,-622.86"/>
</a>
</g>
</g>
<!-- Node3 -->
<g id="Node000003" class="node">
<title>Node3</title>
<g id="a_Node000003"><a xlink:href="class_data_base_g_u_i.html#a74e047889e913eae69ec40ec17f53c9d" target="_top" xlink:title="Populates the lessons tab with a multimap of lessons.">
<polygon fill="white" stroke="#666666" points="301.25,-653.25 181,-653.25 181,-621.25 301.25,-621.25 301.25,-653.25"/>
<text text-anchor="start" x="189" y="-639.75" font-family="Helvetica,sans-Serif" font-size="10.00">DataBaseGUI::populate</text>
<text text-anchor="middle" x="241.12" y="-627.75" font-family="Helvetica,sans-Serif" font-size="10.00">_lesson_tab</text>
</a>
</g>
</g>
<!-- Node2&#45;&gt;Node3 -->
<g id="edge3_Node000002_Node000003" class="edge">
<title>Node2&#45;&gt;Node3</title>
<g id="a_edge3_Node000002_Node000003"><a xlink:title=" ">
<path fill="none" stroke="#63b8ff" d="M861.93,-617.32C841.83,-625.92 815.11,-635.84 790.25,-640.25 614.8,-671.37 402.76,-655.36 301.53,-644.52"/>
<polygon fill="#63b8ff" stroke="#63b8ff" points="863.24,-620.57 870.98,-613.34 860.42,-614.17 863.24,-620.57"/>
</a>
</g>
</g>
<!-- Node4 -->
<g id="Node000004" class="node">
<title>Node4</title>
<g id="a_Node000004"><a xlink:href="class_data_base_g_u_i.html#aa6b02e4e81b0113fb1c75d7d5ef0be59" target="_top" xlink:title="Populates the lessons tab with a list of lessons.">
<polygon fill="white" stroke="#666666" points="784.62,-631.25 664.38,-631.25 664.38,-599.25 784.62,-599.25 784.62,-631.25"/>
<text text-anchor="start" x="672.38" y="-617.75" font-family="Helvetica,sans-Serif" font-size="10.00">DataBaseGUI::populate</text>
<text text-anchor="middle" x="724.5" y="-605.75" font-family="Helvetica,sans-Serif" font-size="10.00">_lesson_tab</text>
</a>
</g>
</g>
<!-- Node2&#45;&gt;Node4 -->
<g id="edge4_Node000002_Node000004" class="edge">
<title>Node2&#45;&gt;Node4</title>
<g id="a_edge4_Node000002_Node000004"><a xlink:title=" ">
<path fill="none" stroke="#63b8ff" d="M814.69,-608.37C804.65,-609.15 794.51,-609.93 784.86,-610.67"/>
<polygon fill="#63b8ff" stroke="#63b8ff" points="814.74,-611.88 824.44,-607.62 814.2,-604.9 814.74,-611.88"/>
</a>
</g>
</g>
<!-- Node5 -->
<g id="Node000005" class="node">
<title>Node5</title>
<g id="a_Node000005"><a xlink:href="class_data_base_g_u_i.html#a55b3c6d3607f17f55d4c321e97fdce7f" target="_top" xlink:title="Searches for lessons based on the provided child name and surname.">
<polygon fill="white" stroke="#666666" points="620.88,-590.25 508.88,-590.25 508.88,-558.25 620.88,-558.25 620.88,-590.25"/>
<text text-anchor="start" x="516.88" y="-576.75" font-family="Helvetica,sans-Serif" font-size="10.00">DataBaseGUI::lesson</text>
<text text-anchor="middle" x="564.88" y="-564.75" font-family="Helvetica,sans-Serif" font-size="10.00">_search</text>
</a>
</g>
</g>
<!-- Node4&#45;&gt;Node5 -->
<g id="edge5_Node000004_Node000005" class="edge">
<title>Node4&#45;&gt;Node5</title>
<g id="a_edge5_Node000004_Node000005"><a xlink:title=" ">
<path fill="none" stroke="#63b8ff" d="M652.91,-596.89C642.26,-594.12 631.4,-591.3 621.13,-588.63"/>
<polygon fill="#63b8ff" stroke="#63b8ff" points="651.88,-600.24 662.44,-599.37 653.65,-593.47 651.88,-600.24"/>
</a>
</g>
</g>
<!-- Node9 -->
<g id="Node000009" class="node">
<title>Node9</title>
<g id="a_Node000009"><a xlink:href="class_data_base_g_u_i.html#a1ad152b7becf3e0051cdd5dbae6d4abc" target="_top" xlink:title="Selects the appropriate sorting to use based on lesson sort index.">
<polygon fill="white" stroke="#666666" points="621.62,-540.25 508.12,-540.25 508.12,-508.25 621.62,-508.25 621.62,-540.25"/>
<text text-anchor="start" x="516.12" y="-526.75" font-family="Helvetica,sans-Serif" font-size="10.00">DataBaseGUI::sort_to</text>
<text text-anchor="middle" x="564.88" y="-514.75" font-family="Helvetica,sans-Serif" font-size="10.00">_populate_lesson_tab</text>
</a>
</g>
</g>
<!-- Node4&#45;&gt;Node9 -->
<g id="edge9_Node000004_Node000009" class="edge">
<title>Node4&#45;&gt;Node9</title>
<g id="a_edge9_Node000004_Node000009"><a xlink:title=" ">
<path fill="none" stroke="#63b8ff" d="M672.03,-593.48C667.42,-590.91 662.92,-588.16 658.75,-585.25 640.2,-572.3 641.43,-562.02 622.75,-549.25 618.21,-546.15 613.22,-543.29 608.14,-540.7"/>
<polygon fill="#63b8ff" stroke="#63b8ff" points="670.4,-596.58 680.89,-598.09 673.63,-590.37 670.4,-596.58"/>
</a>
</g>
</g>
<!-- Node6 -->
<g id="Node000006" class="node">
<title>Node6</title>
<g id="a_Node000006"><a xlink:href="class_data_base_g_u_i.html#a6c35e47ed05a80db144f240dee805a9d" target="_top" xlink:title="Sets up the GUI.">
<polygon fill="white" stroke="#666666" points="294.88,-346.25 187.38,-346.25 187.38,-326.25 294.88,-326.25 294.88,-346.25"/>
<text text-anchor="middle" x="241.12" y="-332.75" font-family="Helvetica,sans-Serif" font-size="10.00">DataBaseGUI::setup</text>
</a>
</g>
</g>
<!-- Node5&#45;&gt;Node6 -->
<g id="edge6_Node000005_Node000006" class="edge">
<title>Node5&#45;&gt;Node6</title>
<g id="a_edge6_Node000005_Node000006"><a xlink:title=" ">
<path fill="none" stroke="#63b8ff" d="M497.14,-583.07C448.34,-585.89 382.97,-581.7 337.25,-548.25 266.92,-496.8 247.55,-381.25 243.22,-346.39"/>
<polygon fill="#63b8ff" stroke="#63b8ff" points="497.3,-586.57 507.03,-582.38 496.81,-579.59 497.3,-586.57"/>
</a>
</g>
</g>
<!-- Node7 -->
<g id="Node000007" class="node">
<title>Node7</title>
<g id="a_Node000007"><a xlink:href="class_data_base_g_u_i.html#a2c83afe3a30fb5166d275d9a74d33196" target="_top" xlink:title="Default constructor.">
<polygon fill="white" stroke="#666666" points="145,-365.25 0,-365.25 0,-345.25 145,-345.25 145,-365.25"/>
<text text-anchor="middle" x="72.5" y="-351.75" font-family="Helvetica,sans-Serif" font-size="10.00">DataBaseGUI::DataBaseGUI</text>
</a>
</g>
</g>
<!-- Node6&#45;&gt;Node7 -->
<g id="edge7_Node000006_Node000007" class="edge">
<title>Node6&#45;&gt;Node7</title>
<g id="a_edge7_Node000006_Node000007"><a xlink:title=" ">
<path fill="none" stroke="#63b8ff" d="M175.53,-343.62C165.64,-344.75 155.37,-345.92 145.32,-347.06"/>
<polygon fill="#63b8ff" stroke="#63b8ff" points="175.9,-347.1 185.44,-342.49 175.11,-340.14 175.9,-347.1"/>
</a>
</g>
</g>
<!-- Node8 -->
<g id="Node000008" class="node">
<title>Node8</title>
<g id="a_Node000008"><a xlink:href="class_data_base_g_u_i.html#aba10d1d8e9fb151632ff34de418cee82" target="_top" xlink:title="Constructs a DataBaseGUI object.">
<polygon fill="white" stroke="#666666" points="145,-327.25 0,-327.25 0,-307.25 145,-307.25 145,-327.25"/>
<text text-anchor="middle" x="72.5" y="-313.75" font-family="Helvetica,sans-Serif" font-size="10.00">DataBaseGUI::DataBaseGUI</text>
</a>
</g>
</g>
<!-- Node6&#45;&gt;Node8 -->
<g id="edge8_Node000006_Node000008" class="edge">
<title>Node6&#45;&gt;Node8</title>
<g id="a_edge8_Node000006_Node000008"><a xlink:title=" ">
<path fill="none" stroke="#63b8ff" d="M175.53,-328.89C165.64,-327.76 155.37,-326.59 145.32,-325.44"/>
<polygon fill="#63b8ff" stroke="#63b8ff" points="175.11,-332.36 185.44,-330.02 175.9,-325.41 175.11,-332.36"/>
</a>
</g>
</g>
<!-- Node9&#45;&gt;Node2 -->
<g id="edge17_Node000009_Node000002" class="edge">
<title>Node9&#45;&gt;Node2</title>
<g id="a_edge17_Node000009_Node000002"><a xlink:title=" ">
<path fill="none" stroke="#63b8ff" d="M632.8,-540.94C641.52,-543.08 650.35,-545.23 658.75,-547.25 724.61,-563.11 801,-580.85 848.42,-591.78"/>
<polygon fill="#63b8ff" stroke="#63b8ff" points="633.85,-537.59 623.3,-538.6 632.18,-544.39 633.85,-537.59"/>
</a>
</g>
</g>
<!-- Node10 -->
<g id="Node000010" class="node">
<title>Node10</title>
<g id="a_Node000010"><a xlink:href="class_data_base_g_u_i.html#a778bdaec7f9281df4c0ead66c9dcffd2" target="_top" xlink:title="Adds a new lesson to the database.">
<polygon fill="white" stroke="#666666" points="470.62,-539.25 337.62,-539.25 337.62,-519.25 470.62,-519.25 470.62,-539.25"/>
<text text-anchor="middle" x="404.12" y="-525.75" font-family="Helvetica,sans-Serif" font-size="10.00">DataBaseGUI::lesson_add</text>
</a>
</g>
</g>
<!-- Node9&#45;&gt;Node10 -->
<g id="edge10_Node000009_Node000010" class="edge">
<title>Node9&#45;&gt;Node10</title>
<g id="a_edge10_Node000009_Node000010"><a xlink:title=" ">
<path fill="none" stroke="#63b8ff" d="M496.5,-526.37C488.02,-526.64 479.36,-526.91 470.91,-527.18"/>
<polygon fill="#63b8ff" stroke="#63b8ff" points="496.51,-529.88 506.39,-526.06 496.29,-522.88 496.51,-529.88"/>
</a>
</g>
</g>
<!-- Node11 -->
<g id="Node000011" class="node">
<title>Node11</title>
<g id="a_Node000011"><a xlink:href="class_data_base_g_u_i.html#a66a3e89a9852de3522d98f2c1f8cdeed" target="_top" xlink:title="Removes a lesson from the database.">
<polygon fill="white" stroke="#666666" points="460.12,-631.25 348.12,-631.25 348.12,-599.25 460.12,-599.25 460.12,-631.25"/>
<text text-anchor="start" x="356.12" y="-617.75" font-family="Helvetica,sans-Serif" font-size="10.00">DataBaseGUI::lesson</text>
<text text-anchor="middle" x="404.12" y="-605.75" font-family="Helvetica,sans-Serif" font-size="10.00">_remove</text>
</a>
</g>
</g>
<!-- Node9&#45;&gt;Node11 -->
<g id="edge12_Node000009_Node000011" class="edge">
<title>Node9&#45;&gt;Node11</title>
<g id="a_edge12_Node000009_Node000011"><a xlink:title=" ">
<path fill="none" stroke="#63b8ff" d="M514.16,-545.54C511.72,-546.76 509.32,-548 507,-549.25 478.8,-564.46 448.18,-584.87 427.94,-598.95"/>
<polygon fill="#63b8ff" stroke="#63b8ff" points="515.46,-548.8 522.95,-541.31 512.42,-542.49 515.46,-548.8"/>
</a>
</g>
</g>
<!-- Node12 -->
<g id="Node000012" class="node">
<title>Node12</title>
<g id="a_Node000012"><a xlink:href="class_data_base_g_u_i.html#a0478b87f545d97b9e3ef55858242878b" target="_top" xlink:title="Changes the sorting method for lessons.">
<polygon fill="white" stroke="#666666" points="460.12,-501.25 348.12,-501.25 348.12,-469.25 460.12,-469.25 460.12,-501.25"/>
<text text-anchor="start" x="356.12" y="-487.75" font-family="Helvetica,sans-Serif" font-size="10.00">DataBaseGUI::lesson</text>
<text text-anchor="middle" x="404.12" y="-475.75" font-family="Helvetica,sans-Serif" font-size="10.00">_sort_change</text>
</a>
</g>
</g>
<!-- Node9&#45;&gt;Node12 -->
<g id="edge15_Node000009_Node000012" class="edge">
<title>Node9&#45;&gt;Node12</title>
<g id="a_edge15_Node000009_Node000012"><a xlink:title=" ">
<path fill="none" stroke="#63b8ff" d="M496.93,-507.81C484.82,-504.83 472.32,-501.76 460.59,-498.88"/>
<polygon fill="#63b8ff" stroke="#63b8ff" points="495.89,-511.15 506.44,-510.14 497.56,-504.36 495.89,-511.15"/>
</a>
</g>
</g>
<!-- Node13 -->
<g id="Node000013" class="node">
<title>Node13</title>
<g id="a_Node000013"><a xlink:href="class_data_base_g_u_i.html#a438b5070d6a58ffa5e884d18740852c6" target="_top" xlink:title="Handles tab change events.">
<polygon fill="white" stroke="#666666" points="471,-365.25 337.25,-365.25 337.25,-345.25 471,-345.25 471,-365.25"/>
<text text-anchor="middle" x="404.12" y="-351.75" font-family="Helvetica,sans-Serif" font-size="10.00">DataBaseGUI::tab_change</text>
</a>
</g>
</g>
<!-- Node9&#45;&gt;Node13 -->
<g id="edge18_Node000009_Node000013" class="edge">
<title>Node9&#45;&gt;Node13</title>
<g id="a_edge18_Node000009_Node000013"><a xlink:title=" ">
<path fill="none" stroke="#63b8ff" d="M540.8,-499.69C505.56,-462.18 439.8,-392.17 414.97,-365.73"/>
<polygon fill="#63b8ff" stroke="#63b8ff" points="538.22,-502.05 547.62,-506.95 543.32,-497.26 538.22,-502.05"/>
</a>
</g>
</g>
<!-- Node10&#45;&gt;Node6 -->
<g id="edge11_Node000010_Node000006" class="edge">
<title>Node10&#45;&gt;Node6</title>
<g id="a_edge11_Node000010_Node000006"><a xlink:title=" ">
<path fill="none" stroke="#63b8ff" d="M341.42,-513.29C339.98,-512.33 338.59,-511.32 337.25,-510.25 280.84,-465.04 252.97,-376.92 244.77,-346.71"/>
<polygon fill="#63b8ff" stroke="#63b8ff" points="339.71,-516.34 350.16,-518.06 343.06,-510.2 339.71,-516.34"/>
</a>
</g>
</g>
<!-- Node11&#45;&gt;Node3 -->
<g id="edge13_Node000011_Node000003" class="edge">
<title>Node11&#45;&gt;Node3</title>
<g id="a_edge13_Node000011_Node000003"><a xlink:title=" ">
<path fill="none" stroke="#63b8ff" d="M336.33,-624.38C324.77,-625.96 312.82,-627.59 301.48,-629.14"/>
<polygon fill="#63b8ff" stroke="#63b8ff" points="336.78,-627.85 346.22,-623.03 335.84,-620.92 336.78,-627.85"/>
</a>
</g>
</g>
<!-- Node11&#45;&gt;Node4 -->
<g id="edge14_Node000011_Node000004" class="edge">
<title>Node11&#45;&gt;Node4</title>
<g id="a_edge14_Node000011_Node000004"><a xlink:title=" ">
<path fill="none" stroke="#63b8ff" d="M471.99,-615.25C528.75,-615.25 609.43,-615.25 663.99,-615.25"/>
<polygon fill="#63b8ff" stroke="#63b8ff" points="472.13,-611.75 462.13,-615.25 472.13,-618.75 472.13,-611.75"/>
</a>
</g>
</g>
<!-- Node12&#45;&gt;Node6 -->
<g id="edge16_Node000012_Node000006" class="edge">
<title>Node12&#45;&gt;Node6</title>
<g id="a_edge16_Node000012_Node000006"><a xlink:title=" ">
<path fill="none" stroke="#63b8ff" d="M349.26,-463.36C345.05,-460.87 340.99,-458.16 337.25,-455.25 295.73,-422.9 261.28,-368.94 248,-346.51"/>
<polygon fill="#63b8ff" stroke="#63b8ff" points="347.5,-466.39 357.96,-468.08 350.84,-460.23 347.5,-466.39"/>
</a>
</g>
</g>
<!-- Node13&#45;&gt;Node6 -->
<g id="edge19_Node000013_Node000006" class="edge">
<title>Node13&#45;&gt;Node6</title>
<g id="a_edge19_Node000013_Node000006"><a xlink:title=" ">
<path fill="none" stroke="#63b8ff" d="M325.87,-346.14C315.39,-344.9 304.84,-343.65 294.93,-342.48"/>
<polygon fill="#63b8ff" stroke="#63b8ff" points="325.33,-349.6 335.67,-347.29 326.15,-342.64 325.33,-349.6"/>
</a>
</g>
</g>
<!-- Node16 -->
<g id="Node000016" class="node">
<title>Node16</title>
<g id="a_Node000016"><a xlink:href="class_data_base_g_u_i.html#a7c3d843eec449d8a4ec5ce6bf0375358" target="_top" xlink:title="Searches for parents based on the provided name and surname.">
<polygon fill="white" stroke="#666666" points="1111.75,-110.25 1001.25,-110.25 1001.25,-78.25 1111.75,-78.25 1111.75,-110.25"/>
<text text-anchor="start" x="1009.25" y="-96.75" font-family="Helvetica,sans-Serif" font-size="10.00">DataBaseGUI::parent</text>
<text text-anchor="middle" x="1056.5" y="-84.75" font-family="Helvetica,sans-Serif" font-size="10.00">_search</text>
</a>
</g>
</g>
<!-- Node15&#45;&gt;Node16 -->
<g id="edge22_Node000015_Node000016" class="edge">
<title>Node15&#45;&gt;Node16</title>
<g id="a_edge22_Node000015_Node000016"><a xlink:title=" ">
<path fill="none" stroke="#63b8ff" d="M1196.57,-408.58C1166.71,-341.08 1088.79,-164.98 1064.7,-110.54"/>
<polygon fill="#63b8ff" stroke="#63b8ff" points="1193.24,-409.69 1200.49,-417.42 1199.64,-406.86 1193.24,-409.69"/>
</a>
</g>
</g>
<!-- Node27 -->
<g id="Node000027" class="node">
<title>Node27</title>
<g id="a_Node000027"><a xlink:href="class_data_base_g_u_i.html#a625b5e2018395a458ff517bbf364e1bf" target="_top" xlink:title="Selects the appropriate sorting to use based on parent sort index.">
<polygon fill="white" stroke="#666666" points="1113.25,-407.25 999.75,-407.25 999.75,-375.25 1113.25,-375.25 1113.25,-407.25"/>
<text text-anchor="start" x="1007.75" y="-393.75" font-family="Helvetica,sans-Serif" font-size="10.00">DataBaseGUI::sort_to</text>
<text text-anchor="middle" x="1056.5" y="-381.75" font-family="Helvetica,sans-Serif" font-size="10.00">_populate_parent_tab</text>
</a>
</g>
</g>
<!-- Node15&#45;&gt;Node27 -->
<g id="edge45_Node000015_Node000027" class="edge">
<title>Node15&#45;&gt;Node27</title>
<g id="a_edge45_Node000015_Node000027"><a xlink:title=" ">
<path fill="none" stroke="#63b8ff" d="M1141.14,-415.65C1131.98,-412.97 1122.66,-410.26 1113.73,-407.65"/>
<polygon fill="#63b8ff" stroke="#63b8ff" points="1140.16,-419.01 1150.74,-418.45 1142.12,-412.29 1140.16,-419.01"/>
</a>
</g>
</g>
<!-- Node16&#45;&gt;Node6 -->
<g id="edge44_Node000016_Node000006" class="edge">
<title>Node16&#45;&gt;Node6</title>
<g id="a_edge44_Node000016_Node000006"><a xlink:title=" ">
<path fill="none" stroke="#63b8ff" d="M1003.68,-73.85C939.46,-50.45 826.16,-15.25 725.5,-15.25 725.5,-15.25 725.5,-15.25 563.88,-15.25 462.8,-15.25 416.18,28.88 337.25,-34.25 288.85,-72.97 251.91,-277.8 243.79,-326.06"/>
<polygon fill="#63b8ff" stroke="#63b8ff" points="1002.31,-77.08 1012.9,-77.26 1004.74,-70.51 1002.31,-77.08"/>
</a>
</g>
</g>
<!-- Node17 -->
<g id="Node000017" class="node">
<title>Node17</title>
<g id="a_Node000017"><a xlink:href="class_data_base_g_u_i.html#a8e1fe573ef6a09e112989968ec1a2b43" target="_top" xlink:title="Searches for parents based on the provided parent pointer.">
<polygon fill="white" stroke="#666666" points="950.25,-110.25 839.75,-110.25 839.75,-78.25 950.25,-78.25 950.25,-110.25"/>
<text text-anchor="start" x="847.75" y="-96.75" font-family="Helvetica,sans-Serif" font-size="10.00">DataBaseGUI::parent</text>
<text text-anchor="middle" x="895" y="-84.75" font-family="Helvetica,sans-Serif" font-size="10.00">_search_by_pointer</text>
</a>
</g>
</g>
<!-- Node16&#45;&gt;Node17 -->
<g id="edge23_Node000016_Node000017" class="edge">
<title>Node16&#45;&gt;Node17</title>
<g id="a_edge23_Node000016_Node000017"><a xlink:title=" ">
<path fill="none" stroke="#63b8ff" d="M989.81,-94.25C976.82,-94.25 963.32,-94.25 950.74,-94.25"/>
<polygon fill="#63b8ff" stroke="#63b8ff" points="989.54,-97.75 999.54,-94.25 989.54,-90.75 989.54,-97.75"/>
</a>
</g>
</g>
<!-- Node18 -->
<g id="Node000018" class="node">
<title>Node18</title>
<g id="a_Node000018"><a xlink:href="class_data_base_g_u_i.html#a334c0011a9d3a71539b326a888feccd3" target="_top" xlink:title="Populates the children tab with a multimap of children.">
<polygon fill="white" stroke="#666666" points="301.25,-69.25 181,-69.25 181,-37.25 301.25,-37.25 301.25,-69.25"/>
<text text-anchor="start" x="189" y="-55.75" font-family="Helvetica,sans-Serif" font-size="10.00">DataBaseGUI::populate</text>
<text text-anchor="middle" x="241.12" y="-43.75" font-family="Helvetica,sans-Serif" font-size="10.00">_children_tab</text>
</a>
</g>
</g>
<!-- Node17&#45;&gt;Node18 -->
<g id="edge24_Node000017_Node000018" class="edge">
<title>Node17&#45;&gt;Node18</title>
<g id="a_edge24_Node000017_Node000018"><a xlink:title=" ">
<path fill="none" stroke="#63b8ff" d="M828.56,-78.43C724.55,-55.26 515.07,-16.67 337.25,-34.25 325.69,-35.4 313.45,-37.3 301.73,-39.48"/>
<polygon fill="#63b8ff" stroke="#63b8ff" points="827.5,-81.78 838.03,-80.57 829.04,-74.95 827.5,-81.78"/>
</a>
</g>
</g>
<!-- Node19 -->
<g id="Node000019" class="node">
<title>Node19</title>
<g id="a_Node000019"><a xlink:href="class_data_base_g_u_i.html#af346d08370d9e4574980707f61b9c8f7" target="_top" xlink:title="Populates the children tab with a list of children.">
<polygon fill="white" stroke="#666666" points="784.62,-167.25 664.38,-167.25 664.38,-135.25 784.62,-135.25 784.62,-167.25"/>
<text text-anchor="start" x="672.38" y="-153.75" font-family="Helvetica,sans-Serif" font-size="10.00">DataBaseGUI::populate</text>
<text text-anchor="middle" x="724.5" y="-141.75" font-family="Helvetica,sans-Serif" font-size="10.00">_children_tab</text>
</a>
</g>
</g>
<!-- Node17&#45;&gt;Node19 -->
<g id="edge25_Node000017_Node000019" class="edge">
<title>Node17&#45;&gt;Node19</title>
<g id="a_edge25_Node000017_Node000019"><a xlink:title=" ">
<path fill="none" stroke="#63b8ff" d="M834.52,-114.38C814.75,-121.06 792.98,-128.43 774.13,-134.8"/>
<polygon fill="#63b8ff" stroke="#63b8ff" points="835.48,-117.74 843.83,-111.22 833.23,-111.11 835.48,-117.74"/>
</a>
</g>
</g>
<!-- Node19&#45;&gt;Node6 -->
<g id="edge29_Node000019_Node000006" class="edge">
<title>Node19&#45;&gt;Node6</title>
<g id="a_edge29_Node000019_Node000006"><a xlink:title=" ">
<path fill="none" stroke="#63b8ff" d="M679.65,-172.27C662.05,-180.56 641.52,-190.04 622.75,-198.25 556,-227.44 539.33,-234.98 471,-260.25 402.48,-285.6 321.03,-311.7 276.11,-325.75"/>
<polygon fill="#63b8ff" stroke="#63b8ff" points="680.73,-175.63 688.28,-168.19 677.74,-169.31 680.73,-175.63"/>
</a>
</g>
</g>
<!-- Node20 -->
<g id="Node000020" class="node">
<title>Node20</title>
<g id="a_Node000020"><a xlink:href="class_data_base_g_u_i.html#a2d921da686e76ae195da018bb735a1ae" target="_top" xlink:title="Searches for children based on the provided name and surname.">
<polygon fill="white" stroke="#666666" points="616.75,-413.25 513,-413.25 513,-381.25 616.75,-381.25 616.75,-413.25"/>
<text text-anchor="start" x="521" y="-399.75" font-family="Helvetica,sans-Serif" font-size="10.00">DataBaseGUI::child</text>
<text text-anchor="middle" x="564.88" y="-387.75" font-family="Helvetica,sans-Serif" font-size="10.00">_search</text>
</a>
</g>
</g>
<!-- Node19&#45;&gt;Node20 -->
<g id="edge26_Node000019_Node000020" class="edge">
<title>Node19&#45;&gt;Node20</title>
<g id="a_edge26_Node000019_Node000020"><a xlink:title=" ">
<path fill="none" stroke="#63b8ff" d="M707.02,-176.96C674.53,-227.68 603.02,-339.29 576.26,-381.05"/>
<polygon fill="#63b8ff" stroke="#63b8ff" points="709.89,-178.98 712.34,-168.67 704,-175.2 709.89,-178.98"/>
</a>
</g>
</g>
<!-- Node21 -->
<g id="Node000021" class="node">
<title>Node21</title>
<g id="a_Node000021"><a xlink:href="class_data_base_g_u_i.html#aa684465aa73b5b34bbadd24fc7f2f641" target="_top" xlink:title="Selects the appropriate sorting to use based on child sort index.">
<polygon fill="white" stroke="#666666" points="622.75,-189.25 507,-189.25 507,-157.25 622.75,-157.25 622.75,-189.25"/>
<text text-anchor="start" x="515" y="-175.75" font-family="Helvetica,sans-Serif" font-size="10.00">DataBaseGUI::sort_to</text>
<text text-anchor="middle" x="564.88" y="-163.75" font-family="Helvetica,sans-Serif" font-size="10.00">_populate_children_tab</text>
</a>
</g>
</g>
<!-- Node19&#45;&gt;Node21 -->
<g id="edge30_Node000019_Node000021" class="edge">
<title>Node19&#45;&gt;Node21</title>
<g id="a_edge30_Node000019_Node000021"><a xlink:title=" ">
<path fill="none" stroke="#63b8ff" d="M652.83,-161.12C642.91,-162.5 632.83,-163.91 623.2,-165.25"/>
<polygon fill="#63b8ff" stroke="#63b8ff" points="652.99,-164.63 662.41,-159.78 652.02,-157.7 652.99,-164.63"/>
</a>
</g>
</g>
<!-- Node20&#45;&gt;Node1 -->
<g id="edge27_Node000020_Node000001" class="edge">
<title>Node20&#45;&gt;Node1</title>
<g id="a_edge27_Node000020_Node000001"><a xlink:title=" ">
<path fill="none" stroke="#63b8ff" d="M581.18,-423.14C597.14,-447.41 624.57,-482.28 658.75,-498.25 773.26,-551.78 1164,-540.01 1305.06,-533.79"/>
<polygon fill="#63b8ff" stroke="#63b8ff" points="584.18,-421.33 575.87,-414.76 578.26,-425.08 584.18,-421.33"/>
</a>
</g>
</g>
<!-- Node20&#45;&gt;Node6 -->
<g id="edge28_Node000020_Node000006" class="edge">
<title>Node20&#45;&gt;Node6</title>
<g id="a_edge28_Node000020_Node000006"><a xlink:title=" ">
<path fill="none" stroke="#63b8ff" d="M501.49,-395.59C455.52,-393.24 391.78,-387.63 337.25,-374.25 310.82,-367.77 282.01,-355.46 263.1,-346.61"/>
<polygon fill="#63b8ff" stroke="#63b8ff" points="501.12,-399.08 511.27,-396.05 501.45,-392.08 501.12,-399.08"/>
</a>
</g>
</g>
<!-- Node21&#45;&gt;Node13 -->
<g id="edge43_Node000021_Node000013" class="edge">
<title>Node21&#45;&gt;Node13</title>
<g id="a_edge43_Node000021_Node000013"><a xlink:title=" ">
<path fill="none" stroke="#63b8ff" d="M542.08,-198.24C506.69,-238.81 438.26,-317.26 413.95,-345.13"/>
<polygon fill="#63b8ff" stroke="#63b8ff" points="544.58,-200.7 548.51,-190.87 539.3,-196.1 544.58,-200.7"/>
</a>
</g>
</g>
<!-- Node22 -->
<g id="Node000022" class="node">
<title>Node22</title>
<g id="a_Node000022"><a xlink:href="class_data_base_g_u_i.html#a00f9044d3b8dd9c5dada244dac1b0df6" target="_top" xlink:title="Adds a new child to the database.">
<polygon fill="white" stroke="#666666" points="466.5,-201.25 341.75,-201.25 341.75,-181.25 466.5,-181.25 466.5,-201.25"/>
<text text-anchor="middle" x="404.12" y="-187.75" font-family="Helvetica,sans-Serif" font-size="10.00">DataBaseGUI::child_add</text>
</a>
</g>
</g>
<!-- Node21&#45;&gt;Node22 -->
<g id="edge31_Node000021_Node000022" class="edge">
<title>Node21&#45;&gt;Node22</title>
<g id="a_edge31_Node000021_Node000022"><a xlink:title=" ">
<path fill="none" stroke="#63b8ff" d="M495.22,-181.04C485.81,-182.1 476.19,-183.19 466.91,-184.25"/>
<polygon fill="#63b8ff" stroke="#63b8ff" points="495.52,-184.53 505.06,-179.92 494.73,-177.57 495.52,-184.53"/>
</a>
</g>
</g>
<!-- Node23 -->
<g id="Node000023" class="node">
<title>Node23</title>
<g id="a_Node000023"><a xlink:href="class_data_base_g_u_i.html#acb6c6b292e58d0ead30682f7f5705244" target="_top" xlink:title="Edits an existing child in the database.">
<polygon fill="white" stroke="#666666" points="466.5,-63.25 341.75,-63.25 341.75,-43.25 466.5,-43.25 466.5,-63.25"/>
<text text-anchor="middle" x="404.12" y="-49.75" font-family="Helvetica,sans-Serif" font-size="10.00">DataBaseGUI::child_edit</text>
</a>
</g>
</g>
<!-- Node21&#45;&gt;Node23 -->
<g id="edge33_Node000021_Node000023" class="edge">
<title>Node21&#45;&gt;Node23</title>
<g id="a_edge33_Node000021_Node000023"><a xlink:title=" ">
<path fill="none" stroke="#63b8ff" d="M543.54,-148.19C521.66,-121.79 487.76,-82.62 471,-72.25 465.43,-68.81 459.22,-65.97 452.89,-63.63"/>
<polygon fill="#63b8ff" stroke="#63b8ff" points="540.71,-150.26 549.77,-155.76 546.12,-145.82 540.71,-150.26"/>
</a>
</g>
</g>
<!-- Node24 -->
<g id="Node000024" class="node">
<title>Node24</title>
<g id="a_Node000024"><a xlink:href="class_data_base_g_u_i.html#ae3a08843db874e51a7cea32fa8937ca5" target="_top" xlink:title="Removes a child from the database.">
<polygon fill="white" stroke="#666666" points="456,-113.25 352.25,-113.25 352.25,-81.25 456,-81.25 456,-113.25"/>
<text text-anchor="start" x="360.25" y="-99.75" font-family="Helvetica,sans-Serif" font-size="10.00">DataBaseGUI::child</text>
<text text-anchor="middle" x="404.12" y="-87.75" font-family="Helvetica,sans-Serif" font-size="10.00">_remove</text>
</a>
</g>
</g>
<!-- Node21&#45;&gt;Node24 -->
<g id="edge36_Node000021_Node000024" class="edge">
<title>Node21&#45;&gt;Node24</title>
<g id="a_edge36_Node000021_Node000024"><a xlink:title=" ">
<path fill="none" stroke="#63b8ff" d="M522.32,-151.6C517.14,-148.82 511.94,-145.99 507,-143.25 490.8,-134.26 487.72,-130.23 471,-122.25 464.71,-119.25 457.95,-116.34 451.25,-113.64"/>
<polygon fill="#63b8ff" stroke="#63b8ff" points="520.35,-154.51 530.82,-156.12 523.64,-148.33 520.35,-154.51"/>
</a>
</g>
</g>
<!-- Node25 -->
<g id="Node000025" class="node">
<title>Node25</title>
<g id="a_Node000025"><a xlink:href="class_data_base_g_u_i.html#a2e6d3629f679c153cdd21b683ce794a1" target="_top" xlink:title="Changes the sorting method for children.">
<polygon fill="white" stroke="#666666" points="456,-251.25 352.25,-251.25 352.25,-219.25 456,-219.25 456,-251.25"/>
<text text-anchor="start" x="360.25" y="-237.75" font-family="Helvetica,sans-Serif" font-size="10.00">DataBaseGUI::child</text>
<text text-anchor="middle" x="404.12" y="-225.75" font-family="Helvetica,sans-Serif" font-size="10.00">_sort_change</text>
</a>
</g>
</g>
<!-- Node21&#45;&gt;Node25 -->
<g id="edge39_Node000021_Node000025" class="edge">
<title>Node21&#45;&gt;Node25</title>
<g id="a_edge39_Node000021_Node000025"><a xlink:title=" ">
<path fill="none" stroke="#63b8ff" d="M512.66,-193.83C499.13,-199.22 484.53,-204.99 471,-210.25 463.82,-213.05 456.18,-215.98 448.75,-218.81"/>
<polygon fill="#63b8ff" stroke="#63b8ff" points="513.85,-197.12 521.84,-190.17 511.25,-190.62 513.85,-197.12"/>
</a>
</g>
</g>
<!-- Node26 -->
<g id="Node000026" class="node">
<title>Node26</title>
<g id="a_Node000026"><a xlink:href="class_data_base_g_u_i.html#a20d1ece0affaa1f5b6876ee072dd2ab1" target="_top" xlink:title="Imports a database from a file.">
<polygon fill="white" stroke="#666666" points="459.38,-163.25 348.88,-163.25 348.88,-131.25 459.38,-131.25 459.38,-163.25"/>
<text text-anchor="start" x="356.88" y="-149.75" font-family="Helvetica,sans-Serif" font-size="10.00">DataBaseGUI::import</text>
<text text-anchor="middle" x="404.12" y="-137.75" font-family="Helvetica,sans-Serif" font-size="10.00">_database</text>
</a>
</g>
</g>
<!-- Node21&#45;&gt;Node26 -->
<g id="edge41_Node000021_Node000026" class="edge">
<title>Node21&#45;&gt;Node26</title>
<g id="a_edge41_Node000021_Node000026"><a xlink:title=" ">
<path fill="none" stroke="#63b8ff" d="M495.29,-162.02C483.39,-160.07 471.16,-158.07 459.7,-156.19"/>
<polygon fill="#63b8ff" stroke="#63b8ff" points="494.63,-165.46 505.07,-163.62 495.77,-158.55 494.63,-165.46"/>
</a>
</g>
</g>
<!-- Node22&#45;&gt;Node6 -->
<g id="edge32_Node000022_Node000006" class="edge">
<title>Node22&#45;&gt;Node6</title>
<g id="a_edge32_Node000022_Node000006"><a xlink:title=" ">
<path fill="none" stroke="#63b8ff" d="M343.37,-206.5C341.25,-207.66 339.2,-208.91 337.25,-210.25 291.63,-241.63 258.78,-301.94 246.95,-325.99"/>
<polygon fill="#63b8ff" stroke="#63b8ff" points="344.73,-209.72 352.3,-202.32 341.76,-203.39 344.73,-209.72"/>
</a>
</g>
</g>
<!-- Node23&#45;&gt;Node18 -->
<g id="edge34_Node000023_Node000018" class="edge">
<title>Node23&#45;&gt;Node18</title>
<g id="a_edge34_Node000023_Node000018"><a xlink:title=" ">
<path fill="none" stroke="#63b8ff" d="M329.9,-53.25C320.43,-53.25 310.83,-53.25 301.63,-53.25"/>
<polygon fill="#63b8ff" stroke="#63b8ff" points="329.83,-56.75 339.83,-53.25 329.83,-49.75 329.83,-56.75"/>
</a>
</g>
</g>
<!-- Node23&#45;&gt;Node19 -->
<g id="edge35_Node000023_Node000019" class="edge">
<title>Node23&#45;&gt;Node19</title>
<g id="a_edge35_Node000023_Node000019"><a xlink:title=" ">
<path fill="none" stroke="#63b8ff" d="M463.45,-66.34C507.62,-76.78 569.57,-92.55 622.75,-110.25 644.25,-117.41 667.73,-126.87 686.61,-134.89"/>
<polygon fill="#63b8ff" stroke="#63b8ff" points="464.35,-62.96 453.81,-64.09 462.75,-69.78 464.35,-62.96"/>
</a>
</g>
</g>
<!-- Node24&#45;&gt;Node18 -->
<g id="edge37_Node000024_Node000018" class="edge">
<title>Node24&#45;&gt;Node18</title>
<g id="a_edge37_Node000024_Node000018"><a xlink:title=" ">
<path fill="none" stroke="#63b8ff" d="M341.44,-80.39C328.41,-76.83 314.68,-73.08 301.73,-69.54"/>
<polygon fill="#63b8ff" stroke="#63b8ff" points="340.15,-83.67 350.72,-82.93 342,-76.92 340.15,-83.67"/>
</a>
</g>
</g>
<!-- Node24&#45;&gt;Node19 -->
<g id="edge38_Node000024_Node000019" class="edge">
<title>Node24&#45;&gt;Node19</title>
<g id="a_edge38_Node000024_Node000019"><a xlink:title=" ">
<path fill="none" stroke="#63b8ff" d="M467.47,-107.83C524.4,-117.48 607.97,-131.66 663.99,-141.16"/>
<polygon fill="#63b8ff" stroke="#63b8ff" points="468.39,-104.43 457.95,-106.21 467.22,-111.34 468.39,-104.43"/>
</a>
</g>
</g>
<!-- Node25&#45;&gt;Node6 -->
<g id="edge40_Node000025_Node000006" class="edge">
<title>Node25&#45;&gt;Node6</title>
<g id="a_edge40_Node000025_Node000006"><a xlink:title=" ">
<path fill="none" stroke="#63b8ff" d="M353.44,-256.49C347.89,-259.27 342.39,-262.21 337.25,-265.25 305.5,-284.04 271.64,-311.26 254.15,-325.94"/>
<polygon fill="#63b8ff" stroke="#63b8ff" points="354.56,-259.83 362.05,-252.34 351.52,-253.53 354.56,-259.83"/>
</a>
</g>
</g>
<!-- Node26&#45;&gt;Node6 -->
<g id="edge42_Node000026_Node000006" class="edge">
<title>Node26&#45;&gt;Node6</title>
<g id="a_edge42_Node000026_Node000006"><a xlink:title=" ">
<path fill="none" stroke="#63b8ff" d="M340.2,-169.89C339.19,-170.65 338.21,-171.44 337.25,-172.25 285.06,-216.56 254.88,-297.14 245.4,-325.79"/>
<polygon fill="#63b8ff" stroke="#63b8ff" points="342.08,-172.84 348.6,-164.49 338.29,-166.96 342.08,-172.84"/>
</a>
</g>
</g>
<!-- Node27&#45;&gt;Node13 -->
<g id="edge56_Node000027_Node000013" class="edge">
<title>Node27&#45;&gt;Node13</title>
<g id="a_edge56_Node000027_Node000013"><a xlink:title=" ">
<path fill="none" stroke="#63b8ff" d="M988.18,-387.53C862.95,-380.59 595.65,-365.8 471.29,-358.92"/>
<polygon fill="#63b8ff" stroke="#63b8ff" points="987.8,-391.01 997.98,-388.07 988.18,-384.02 987.8,-391.01"/>
</a>
</g>
</g>
<!-- Node28 -->
<g id="Node000028" class="node">
<title>Node28</title>
<g id="a_Node000028"><a xlink:href="class_data_base_g_u_i.html#a336fa47d9a9e56d585d82f53d33e8593" target="_top" xlink:title="Adds a new parent to the database.">
<polygon fill="white" stroke="#666666" points="790.25,-325.25 658.75,-325.25 658.75,-305.25 790.25,-305.25 790.25,-325.25"/>
<text text-anchor="middle" x="724.5" y="-311.75" font-family="Helvetica,sans-Serif" font-size="10.00">DataBaseGUI::parent_add</text>
</a>
</g>
</g>
<!-- Node27&#45;&gt;Node28 -->
<g id="edge46_Node000027_Node000028" class="edge">
<title>Node27&#45;&gt;Node28</title>
<g id="a_edge46_Node000027_Node000028"><a xlink:title=" ">
<path fill="none" stroke="#63b8ff" d="M1023.57,-368.78C1006.59,-358 984.9,-345.98 963.75,-339.25 907.1,-321.23 839.4,-315.85 790.67,-314.62"/>
<polygon fill="#63b8ff" stroke="#63b8ff" points="1021.43,-371.57 1031.71,-374.11 1025.26,-365.71 1021.43,-371.57"/>
</a>
</g>
</g>
<!-- Node29 -->
<g id="Node000029" class="node">
<title>Node29</title>
<g id="a_Node000029"><a xlink:href="class_data_base_g_u_i.html#a5b049fb9e0e5d78c4c2e81e569b471f9" target="_top" xlink:title="Edits an existing parent in the database.">
<polygon fill="white" stroke="#666666" points="960.75,-439.25 829.25,-439.25 829.25,-419.25 960.75,-419.25 960.75,-439.25"/>
<text text-anchor="middle" x="895" y="-425.75" font-family="Helvetica,sans-Serif" font-size="10.00">DataBaseGUI::parent_edit</text>
</a>
</g>
</g>
<!-- Node27&#45;&gt;Node29 -->
<g id="edge48_Node000027_Node000029" class="edge">
<title>Node27&#45;&gt;Node29</title>
<g id="a_edge48_Node000027_Node000029"><a xlink:title=" ">
<path fill="none" stroke="#63b8ff" d="M988.14,-407.3C971.85,-411.18 954.85,-415.23 939.96,-418.78"/>
<polygon fill="#63b8ff" stroke="#63b8ff" points="988.88,-410.72 997.79,-405 987.26,-403.91 988.88,-410.72"/>
</a>
</g>
</g>
<!-- Node30 -->
<g id="Node000030" class="node">
<title>Node30</title>
<g id="a_Node000030"><a xlink:href="class_data_base_g_u_i.html#ad8a42f24cdb603ba85c1cdd4ea2e73a4" target="_top" xlink:title="Removes a parent from the database.">
<polygon fill="white" stroke="#666666" points="950.25,-489.25 839.75,-489.25 839.75,-457.25 950.25,-457.25 950.25,-489.25"/>
<text text-anchor="start" x="847.75" y="-475.75" font-family="Helvetica,sans-Serif" font-size="10.00">DataBaseGUI::parent</text>
<text text-anchor="middle" x="895" y="-463.75" font-family="Helvetica,sans-Serif" font-size="10.00">_remove</text>
</a>
</g>
</g>
<!-- Node27&#45;&gt;Node30 -->
<g id="edge51_Node000027_Node000030" class="edge">
<title>Node27&#45;&gt;Node30</title>
<g id="a_edge51_Node000027_Node000030"><a xlink:title=" ">
<path fill="none" stroke="#63b8ff" d="M1022.61,-413.95C1005.52,-425.15 984.03,-438.34 963.75,-448.25 957.56,-451.28 950.89,-454.16 944.26,-456.82"/>
<polygon fill="#63b8ff" stroke="#63b8ff" points="1024.46,-416.92 1030.85,-408.47 1020.59,-411.09 1024.46,-416.92"/>
</a>
</g>
</g>
<!-- Node31 -->
<g id="Node000031" class="node">
<title>Node31</title>
<g id="a_Node000031"><a xlink:href="class_data_base_g_u_i.html#a783bdf1d65998f887dd6445741450480" target="_top" xlink:title="Changes the sorting method for parents.">
<polygon fill="white" stroke="#666666" points="779.75,-426.25 669.25,-426.25 669.25,-394.25 779.75,-394.25 779.75,-426.25"/>
<text text-anchor="start" x="677.25" y="-412.75" font-family="Helvetica,sans-Serif" font-size="10.00">DataBaseGUI::parent</text>
<text text-anchor="middle" x="724.5" y="-400.75" font-family="Helvetica,sans-Serif" font-size="10.00">_sort_change</text>
</a>
</g>
</g>
<!-- Node27&#45;&gt;Node31 -->
<g id="edge54_Node000027_Node000031" class="edge">
<title>Node27&#45;&gt;Node31</title>
<g id="a_edge54_Node000027_Node000031"><a xlink:title=" ">
<path fill="none" stroke="#63b8ff" d="M988.4,-395.12C926.99,-398.65 837.24,-403.82 780.11,-407.11"/>
<polygon fill="#63b8ff" stroke="#63b8ff" points="988.23,-398.63 998.01,-394.56 987.82,-391.64 988.23,-398.63"/>
</a>
</g>
</g>
<!-- Node28&#45;&gt;Node6 -->
<g id="edge47_Node000028_Node000006" class="edge">
<title>Node28&#45;&gt;Node6</title>
<g id="a_edge47_Node000028_Node000006"><a xlink:title=" ">
<path fill="none" stroke="#63b8ff" d="M646.99,-318.59C548.7,-322.88 380.61,-330.21 295.24,-333.94"/>
<polygon fill="#63b8ff" stroke="#63b8ff" points="646.98,-322.09 656.82,-318.16 646.67,-315.1 646.98,-322.09"/>
</a>
</g>
</g>
<!-- Node29&#45;&gt;Node14 -->
<g id="edge49_Node000029_Node000014" class="edge">
<title>Node29&#45;&gt;Node14</title>
<g id="a_edge49_Node000029_Node000014"><a xlink:title=" ">
<path fill="none" stroke="#63b8ff" d="M843.03,-442.56C824.72,-447.34 803.91,-452.78 784.94,-457.73"/>
<polygon fill="#63b8ff" stroke="#63b8ff" points="843.81,-445.98 852.6,-440.06 842.04,-439.2 843.81,-445.98"/>
</a>
</g>
</g>
<!-- Node29&#45;&gt;Node15 -->
<g id="edge50_Node000029_Node000015" class="edge">
<title>Node29&#45;&gt;Node15</title>
<g id="a_edge50_Node000029_Node000015"><a xlink:title=" ">
<path fill="none" stroke="#63b8ff" d="M972.52,-430.72C1026.87,-431.77 1098.81,-433.15 1148.88,-434.11"/>
<polygon fill="#63b8ff" stroke="#63b8ff" points="972.78,-427.23 962.71,-430.53 972.64,-434.23 972.78,-427.23"/>
</a>
</g>
</g>
<!-- Node30&#45;&gt;Node14 -->
<g id="edge52_Node000030_Node000014" class="edge">
<title>Node30&#45;&gt;Node14</title>
<g id="a_edge52_Node000030_Node000014"><a xlink:title=" ">
<path fill="none" stroke="#63b8ff" d="M828.06,-473.25C813.82,-473.25 798.85,-473.25 784.88,-473.25"/>
<polygon fill="#63b8ff" stroke="#63b8ff" points="827.78,-476.75 837.78,-473.25 827.78,-469.75 827.78,-476.75"/>
</a>
</g>
</g>
<!-- Node30&#45;&gt;Node15 -->
<g id="edge53_Node000030_Node000015" class="edge">
<title>Node30&#45;&gt;Node15</title>
<g id="a_edge53_Node000030_Node000015"><a xlink:title=" ">
<path fill="none" stroke="#63b8ff" d="M961.65,-465.27C1016.95,-458.54 1095.39,-449 1148.88,-442.49"/>
<polygon fill="#63b8ff" stroke="#63b8ff" points="961.57,-461.75 952.07,-466.43 962.42,-468.7 961.57,-461.75"/>
</a>
</g>
</g>
<!-- Node31&#45;&gt;Node6 -->
<g id="edge55_Node000031_Node000006" class="edge">
<title>Node31&#45;&gt;Node6</title>
<g id="a_edge55_Node000031_Node000006"><a xlink:title=" ">
<path fill="none" stroke="#63b8ff" d="M657.69,-420.73C578.77,-430.5 443.81,-438.25 337.25,-398.25 304.4,-385.92 271.24,-360.77 254.09,-346.58"/>
<polygon fill="#63b8ff" stroke="#63b8ff" points="657.95,-424.22 667.42,-419.47 657.05,-417.28 657.95,-424.22"/>
</a>
</g>
</g>
</g>
</svg>
