<?xml version="1.0" encoding="UTF-8" standalone="no"?>
<!DOCTYPE svg PUBLIC "-//W3C//DTD SVG 1.1//EN"
 "http://www.w3.org/Graphics/SVG/1.1/DTD/svg11.dtd">
<!-- Generated by graphviz version 12.2.1 (20241206.2353)
 -->
<!-- Title: Database::import_from_stream Pages: 1 -->
<!--zoomable 520 -->

<svg id="main" version="1.1" xmlns="http://www.w3.org/2000/svg" xmlns:xlink="http://www.w3.org/1999/xlink" xml:space="preserve" onload="init(evt)">

<style type="text/css"><![CDATA[
.node, .edge {opacity: 0.7;}
.node.selected, .edge.selected {opacity: 1;}
.edge:hover path { stroke: red; }
.edge:hover polygon { stroke: red; fill: red; }
]]></style>

<defs>
  <circle id="rim" cx="0" cy="0" r="7"/>
  <circle id="rim2" cx="0" cy="0" r="3.5"/>
  <g id="zoomPlus">
    <use xlink:href="#rim" fill="#404040"><set attributeName="fill" to="#808080" begin="zoomplus.mouseover" end="zoomplus.mouseout"/></use>
    <path d="M-4,0h8M0,-4v8" fill="none" stroke="white" stroke-width="1.5" pointer-events="none"/>
  </g>
  <g id="zoomMin">
    <use xlink:href="#rim" fill="#404040"><set attributeName="fill" to="#808080" begin="zoomminus.mouseover" end="zoomminus.mouseout"/></use>
    <path d="M-4,0h8" fill="none" stroke="white" stroke-width="1.5" pointer-events="none"/>
  </g>
  <g id="arrowUp" transform="translate(30 24)">
    <use xlink:href="#rim"/>
    <path pointer-events="none" fill="none" stroke="white" stroke-width="1.5" d="M0,-3.0v7 M-2.5,-0.5L0,-3.0L2.5,-0.5"/>
  </g>
  <g id="arrowRight" transform="rotate(90) translate(36 -43)">
    <use xlink:href="#rim"/>
    <path pointer-events="none" fill="none" stroke="white" stroke-width="1.5" d="M0,-3.0v7 M-2.5,-0.5L0,-3.0L2.5,-0.5"/>
  </g>
  <g id="arrowDown" transform="rotate(180) translate(-30 -48)">
    <use xlink:href="#rim"/>
    <path pointer-events="none" fill="none" stroke="white" stroke-width="1.5" d="M0,-3.0v7 M-2.5,-0.5L0,-3.0L2.5,-0.5"/>
  </g>
  <g id="arrowLeft" transform="rotate(270) translate(-36 17)">
    <use xlink:href="#rim"/>
    <path pointer-events="none" fill="none" stroke="white" stroke-width="1.5" d="M0,-3.0v7 M-2.5,-0.5L0,-3.0L2.5,-0.5"/>
  </g>
  <g id="resetDef">
    <use xlink:href="#rim2" fill="#404040"><set attributeName="fill" to="#808080" begin="reset.mouseover" end="reset.mouseout"/></use>
  </g>
</defs>
<script type="application/ecmascript">
var viewWidth = 1178;
var viewHeight = 520;
var sectionId = 'dynsection-52';
</script>
<script type="application/ecmascript" xlink:href="svg.min.js"/>
<svg id="graph" class="graph">
<g id="viewport">
<title>Database::import_from_stream</title>
<!-- Node1 -->
<g id="Node000001" class="node">
<title>Node1</title>
<g id="a_Node000001"><a xlink:title="Imports data from a stream.">
<polygon fill="#999999" stroke="#666666" points="115.75,-370 0,-370 0,-338 115.75,-338 115.75,-370"/>
<text text-anchor="start" x="8" y="-356.5" font-family="Helvetica,sans-Serif" font-size="10.00">Database::import_from</text>
<text text-anchor="middle" x="57.88" y="-344.5" font-family="Helvetica,sans-Serif" font-size="10.00">_stream</text>
</a>
</g>
</g>
<!-- Node2 -->
<g id="Node000002" class="node">
<title>Node2</title>
<g id="a_Node000002"><a xlink:href="class_database.html#a5010b6ed864bd832f96c86e33097e95f" target="_top" xlink:title="Imports children from a CSV file.">
<polygon fill="white" stroke="#666666" points="290.38,-445 158.12,-445 158.12,-413 290.38,-413 290.38,-445"/>
<text text-anchor="start" x="166.12" y="-431.5" font-family="Helvetica,sans-Serif" font-size="10.00">Database::import_Children</text>
<text text-anchor="middle" x="224.25" y="-419.5" font-family="Helvetica,sans-Serif" font-size="10.00">_from_csv_file</text>
</a>
</g>
</g>
<!-- Node1&#45;&gt;Node2 -->
<g id="edge1_Node000001_Node000002" class="edge">
<title>Node1&#45;&gt;Node2</title>
<g id="a_edge1_Node000001_Node000002"><a xlink:title=" ">
<path fill="none" stroke="#63b8ff" d="M86.35,-370.27C104.54,-380.67 129.13,-394.03 151.75,-404 155.12,-405.48 158.61,-406.94 162.15,-408.37"/>
<polygon fill="#63b8ff" stroke="#63b8ff" points="160.85,-411.62 171.44,-411.96 163.38,-405.09 160.85,-411.62"/>
</a>
</g>
</g>
<!-- Node13 -->
<g id="Node000013" class="node">
<title>Node13</title>
<g id="a_Node000013"><a xlink:href="class_database.html#a8ba6656ed991b406bb7b3ecb716726af" target="_top" xlink:title="Imports employees from a CSV file.">
<polygon fill="white" stroke="#666666" points="296.75,-395 151.75,-395 151.75,-363 296.75,-363 296.75,-395"/>
<text text-anchor="start" x="159.75" y="-381.5" font-family="Helvetica,sans-Serif" font-size="10.00">Database::import_Employees</text>
<text text-anchor="middle" x="224.25" y="-369.5" font-family="Helvetica,sans-Serif" font-size="10.00">_from_csv_file</text>
</a>
</g>
</g>
<!-- Node1&#45;&gt;Node13 -->
<g id="edge14_Node000001_Node000013" class="edge">
<title>Node1&#45;&gt;Node13</title>
<g id="a_edge14_Node000001_Node000013"><a xlink:title=" ">
<path fill="none" stroke="#63b8ff" d="M115.9,-362.67C123.75,-363.87 131.92,-365.11 140.12,-366.36"/>
<polygon fill="#63b8ff" stroke="#63b8ff" points="139.35,-369.78 149.77,-367.82 140.41,-362.86 139.35,-369.78"/>
</a>
</g>
</g>
<!-- Node16 -->
<g id="Node000016" class="node">
<title>Node16</title>
<g id="a_Node000016"><a xlink:href="class_database.html#a5234a41c55542e88486c147ca399f386" target="_top" xlink:title="Imports lessons from a CSV file.">
<polygon fill="white" stroke="#666666" points="290.75,-231 157.75,-231 157.75,-199 290.75,-199 290.75,-231"/>
<text text-anchor="start" x="165.75" y="-217.5" font-family="Helvetica,sans-Serif" font-size="10.00">Database::import_Lessons</text>
<text text-anchor="middle" x="224.25" y="-205.5" font-family="Helvetica,sans-Serif" font-size="10.00">_from_csv_file</text>
</a>
</g>
</g>
<!-- Node1&#45;&gt;Node16 -->
<g id="edge19_Node000001_Node000016" class="edge">
<title>Node1&#45;&gt;Node16</title>
<g id="a_edge19_Node000001_Node000016"><a xlink:title=" ">
<path fill="none" stroke="#63b8ff" d="M78.38,-337.51C107.29,-313.06 161.7,-267.05 194.98,-238.9"/>
<polygon fill="#63b8ff" stroke="#63b8ff" points="197.24,-241.58 202.62,-232.45 192.72,-236.23 197.24,-241.58"/>
</a>
</g>
</g>
<!-- Node33 -->
<g id="Node000033" class="node">
<title>Node33</title>
<g id="a_Node000033"><a xlink:href="class_database.html#a0036708a325b181645735f8fc0c2beaa" target="_top" xlink:title="Imports parents from a CSV file.">
<polygon fill="white" stroke="#666666" points="289.25,-345 159.25,-345 159.25,-313 289.25,-313 289.25,-345"/>
<text text-anchor="start" x="167.25" y="-331.5" font-family="Helvetica,sans-Serif" font-size="10.00">Database::import_Parents</text>
<text text-anchor="middle" x="224.25" y="-319.5" font-family="Helvetica,sans-Serif" font-size="10.00">_from_csv_file</text>
</a>
</g>
</g>
<!-- Node1&#45;&gt;Node33 -->
<g id="edge46_Node000001_Node000033" class="edge">
<title>Node1&#45;&gt;Node33</title>
<g id="a_edge46_Node000001_Node000033"><a xlink:title=" ">
<path fill="none" stroke="#63b8ff" d="M115.9,-345.33C126.23,-343.76 137.14,-342.1 147.89,-340.46"/>
<polygon fill="#63b8ff" stroke="#63b8ff" points="148.15,-343.96 157.51,-339 147.1,-337.04 148.15,-343.96"/>
</a>
</g>
</g>
<!-- Node3 -->
<g id="Node000003" class="node">
<title>Node3</title>
<g id="a_Node000003"><a xlink:href="class_c_s_v___parser.html#ac72a5ce5b687b3d05f2d7e73d3ba42e4" target="_top" xlink:title="Parses a child from a CSV line.">
<polygon fill="white" stroke="#666666" points="469.88,-439 343.62,-439 343.62,-419 469.88,-419 469.88,-439"/>
<text text-anchor="middle" x="406.75" y="-425.5" font-family="Helvetica,sans-Serif" font-size="10.00">CSV_Parser::parse_child</text>
</a>
</g>
</g>
<!-- Node2&#45;&gt;Node3 -->
<g id="edge2_Node000002_Node000003" class="edge">
<title>Node2&#45;&gt;Node3</title>
<g id="a_edge2_Node000002_Node000003"><a xlink:title=" ">
<path fill="none" stroke="#63b8ff" d="M290.67,-429C304.07,-429 318.26,-429 331.93,-429"/>
<polygon fill="#63b8ff" stroke="#63b8ff" points="331.75,-432.5 341.75,-429 331.75,-425.5 331.75,-432.5"/>
</a>
</g>
</g>
<!-- Node4 -->
<g id="Node000004" class="node">
<title>Node4</title>
<g id="a_Node000004"><a xlink:href="class_database.html#a19e6fd7e9b36ab995675732c6ef67c8c" target="_top" xlink:title="Adds a child to the database.">
<polygon fill="white" stroke="#666666" points="636.62,-433 531.38,-433 531.38,-413 636.62,-413 636.62,-433"/>
<text text-anchor="middle" x="584" y="-419.5" font-family="Helvetica,sans-Serif" font-size="10.00">Database::add_child</text>
</a>
</g>
</g>
<!-- Node3&#45;&gt;Node4 -->
<g id="edge3_Node000003_Node000004" class="edge">
<title>Node3&#45;&gt;Node4</title>
<g id="a_edge3_Node000003_Node000004"><a xlink:title=" ">
<path fill="none" stroke="#63b8ff" d="M470.03,-426.87C486.1,-426.32 503.42,-425.72 519.55,-425.17"/>
<polygon fill="#63b8ff" stroke="#63b8ff" points="519.66,-428.67 529.53,-424.83 519.42,-421.67 519.66,-428.67"/>
</a>
</g>
</g>
<!-- Node8 -->
<g id="Node000008" class="node">
<title>Node8</title>
<g id="a_Node000008"><a xlink:href="class_database.html#ad82c8f66e655d641f118c6162139a30b" target="_top" xlink:title="Gets a parent by name and surname.">
<polygon fill="white" stroke="#666666" points="821.75,-512 712,-512 712,-480 821.75,-480 821.75,-512"/>
<text text-anchor="start" x="720" y="-498.5" font-family="Helvetica,sans-Serif" font-size="10.00">Database::get_parent</text>
<text text-anchor="middle" x="766.88" y="-486.5" font-family="Helvetica,sans-Serif" font-size="10.00">_by_name_surname</text>
</a>
</g>
</g>
<!-- Node3&#45;&gt;Node8 -->
<g id="edge7_Node000003_Node000008" class="edge">
<title>Node3&#45;&gt;Node8</title>
<g id="a_edge7_Node000003_Node000008"><a xlink:title=" ">
<path fill="none" stroke="#63b8ff" d="M463.71,-439.47C527.9,-451.48 633.02,-471.14 700.81,-483.83"/>
<polygon fill="#63b8ff" stroke="#63b8ff" points="699.81,-487.2 710.29,-485.6 701.1,-480.32 699.81,-487.2"/>
</a>
</g>
</g>
<!-- Node5 -->
<g id="Node000005" class="node">
<title>Node5</title>
<g id="a_Node000005"><a xlink:href="class_child.html#a54d980b94b52ef8ad5c52eb4dfc265c5" target="_top" xlink:title="Gets the birth date of the child.">
<polygon fill="white" stroke="#666666" points="819.88,-462 713.88,-462 713.88,-442 819.88,-442 819.88,-462"/>
<text text-anchor="middle" x="766.88" y="-448.5" font-family="Helvetica,sans-Serif" font-size="10.00">Child::get_birth_date</text>
</a>
</g>
</g>
<!-- Node4&#45;&gt;Node5 -->
<g id="edge4_Node000004_Node000005" class="edge">
<title>Node4&#45;&gt;Node5</title>
<g id="a_edge4_Node000004_Node000005"><a xlink:title=" ">
<path fill="none" stroke="#63b8ff" d="M636.83,-431.31C657.18,-434.57 680.75,-438.35 702.13,-441.78"/>
<polygon fill="#63b8ff" stroke="#63b8ff" points="701.49,-445.22 711.91,-443.35 702.59,-438.31 701.49,-445.22"/>
</a>
</g>
</g>
<!-- Node6 -->
<g id="Node000006" class="node">
<title>Node6</title>
<g id="a_Node000006"><a xlink:href="class_person.html#a6b1fec00d8d1f5af1a2977dc3f5f9eb8" target="_top" xlink:title="Gets the first name of the person.">
<polygon fill="white" stroke="#666666" points="814.62,-424 719.12,-424 719.12,-404 814.62,-404 814.62,-424"/>
<text text-anchor="middle" x="766.88" y="-410.5" font-family="Helvetica,sans-Serif" font-size="10.00">Person::get_name</text>
</a>
</g>
</g>
<!-- Node4&#45;&gt;Node6 -->
<g id="edge5_Node000004_Node000006" class="edge">
<title>Node4&#45;&gt;Node6</title>
<g id="a_edge5_Node000004_Node000006"><a xlink:title=" ">
<path fill="none" stroke="#63b8ff" d="M636.83,-420.42C658.89,-419.32 684.72,-418.04 707.45,-416.91"/>
<polygon fill="#63b8ff" stroke="#63b8ff" points="707.35,-420.42 717.16,-416.42 707,-413.43 707.35,-420.42"/>
</a>
</g>
</g>
<!-- Node7 -->
<g id="Node000007" class="node">
<title>Node7</title>
<g id="a_Node000007"><a xlink:href="class_person.html#a7b3c8db44a49c4ba8c4838e19a235613" target="_top" xlink:title="Gets the last name of the person.">
<polygon fill="white" stroke="#666666" points="821.38,-386 712.38,-386 712.38,-366 821.38,-366 821.38,-386"/>
<text text-anchor="middle" x="766.88" y="-372.5" font-family="Helvetica,sans-Serif" font-size="10.00">Person::get_surname</text>
</a>
</g>
</g>
<!-- Node4&#45;&gt;Node7 -->
<g id="edge6_Node000004_Node000007" class="edge">
<title>Node4&#45;&gt;Node7</title>
<g id="a_edge6_Node000004_Node000007"><a xlink:title=" ">
<path fill="none" stroke="#63b8ff" d="M621.84,-412.62C641.26,-407.22 665.51,-400.6 687.25,-395 694.83,-393.05 702.84,-391.04 710.72,-389.1"/>
<polygon fill="#63b8ff" stroke="#63b8ff" points="711.38,-392.55 720.27,-386.78 709.72,-385.75 711.38,-392.55"/>
</a>
</g>
</g>
<!-- Node9 -->
<g id="Node000009" class="node">
<title>Node9</title>
<g id="a_Node000009"><a xlink:href="class_database.html#a427341d23d0431b1e75b2c82c412f00a" target="_top" xlink:title="Filters parents by name.">
<polygon fill="white" stroke="#666666" points="1005,-270 890,-270 890,-238 1005,-238 1005,-270"/>
<text text-anchor="start" x="898" y="-256.5" font-family="Helvetica,sans-Serif" font-size="10.00">Database::filter_parent</text>
<text text-anchor="middle" x="947.5" y="-244.5" font-family="Helvetica,sans-Serif" font-size="10.00">_by_name</text>
</a>
</g>
</g>
<!-- Node8&#45;&gt;Node9 -->
<g id="edge8_Node000008_Node000009" class="edge">
<title>Node8&#45;&gt;Node9</title>
<g id="a_edge8_Node000008_Node000009"><a xlink:title=" ">
<path fill="none" stroke="#63b8ff" d="M821.96,-487.32C831.22,-483.63 839.95,-478.4 846.5,-471 904.02,-405.97 827.11,-345.86 882.5,-279 882.84,-278.59 883.19,-278.18 883.55,-277.78"/>
<polygon fill="#63b8ff" stroke="#63b8ff" points="885.68,-280.57 890.88,-271.33 881.06,-275.31 885.68,-280.57"/>
</a>
</g>
</g>
<!-- Node12 -->
<g id="Node000012" class="node">
<title>Node12</title>
<g id="a_Node000012"><a xlink:href="class_database.html#a09a0e8fe44e256daff05eeba15c22153" target="_top" xlink:title="Filters parents by surname.">
<polygon fill="white" stroke="#666666" points="1005,-320 890,-320 890,-288 1005,-288 1005,-320"/>
<text text-anchor="start" x="898" y="-306.5" font-family="Helvetica,sans-Serif" font-size="10.00">Database::filter_parent</text>
<text text-anchor="middle" x="947.5" y="-294.5" font-family="Helvetica,sans-Serif" font-size="10.00">_by_surname</text>
</a>
</g>
</g>
<!-- Node8&#45;&gt;Node12 -->
<g id="edge11_Node000008_Node000012" class="edge">
<title>Node8&#45;&gt;Node12</title>
<g id="a_edge11_Node000008_Node000012"><a xlink:title=" ">
<path fill="none" stroke="#63b8ff" d="M822.09,-484.51C830.8,-481.1 839.31,-476.69 846.5,-471 893.57,-433.75 923.46,-367.79 937.35,-330.9"/>
<polygon fill="#63b8ff" stroke="#63b8ff" points="940.51,-332.46 940.64,-321.87 933.93,-330.07 940.51,-332.46"/>
</a>
</g>
</g>
<!-- Node10 -->
<g id="Node000010" class="node">
<title>Node10</title>
<g id="a_Node000010"><a xlink:href="_helper___functions_8h.html#a0d3fbaad2936b89eb0d594cba2929800" target="_top" xlink:title="Filters a vector of pointers based on a predicate.">
<polygon fill="white" stroke="#666666" points="1126.75,-170 1092,-170 1092,-150 1126.75,-150 1126.75,-170"/>
<text text-anchor="middle" x="1109.38" y="-156.5" font-family="Helvetica,sans-Serif" font-size="10.00">filter</text>
</a>
</g>
</g>
<!-- Node9&#45;&gt;Node10 -->
<g id="edge9_Node000009_Node000010" class="edge">
<title>Node9&#45;&gt;Node10</title>
<g id="a_edge9_Node000009_Node000010"><a xlink:title=" ">
<path fill="none" stroke="#63b8ff" d="M998.52,-237.62C1003.45,-235.09 1008.21,-232.23 1012.5,-229 1033.53,-213.19 1027.31,-197.6 1048.5,-182 1058,-175.01 1069.95,-170.03 1080.68,-166.59"/>
<polygon fill="#63b8ff" stroke="#63b8ff" points="1081.55,-169.98 1090.2,-163.87 1079.63,-163.25 1081.55,-169.98"/>
</a>
</g>
</g>
<!-- Node11 -->
<g id="Node000011" class="node">
<title>Node11</title>
<g id="a_Node000011"><a xlink:href="_helper___functions_8h.html#ab487a2e8523090e129c7f67ed349c9a1" target="_top" xlink:title="Filters a multimap by its keys based on a predicate.">
<polygon fill="white" stroke="#666666" points="1170.25,-211 1048.5,-211 1048.5,-191 1170.25,-191 1170.25,-211"/>
<text text-anchor="middle" x="1109.38" y="-197.5" font-family="Helvetica,sans-Serif" font-size="10.00">filter_multimap_by_keys</text>
</a>
</g>
</g>
<!-- Node9&#45;&gt;Node11 -->
<g id="edge10_Node000009_Node000011" class="edge">
<title>Node9&#45;&gt;Node11</title>
<g id="a_edge10_Node000009_Node000011"><a xlink:title=" ">
<path fill="none" stroke="#63b8ff" d="M998.21,-237.52C1019.96,-230.31 1045.22,-221.94 1066.06,-215.03"/>
<polygon fill="#63b8ff" stroke="#63b8ff" points="1067,-218.4 1075.39,-211.94 1064.79,-211.76 1067,-218.4"/>
</a>
</g>
</g>
<!-- Node12&#45;&gt;Node10 -->
<g id="edge12_Node000012_Node000010" class="edge">
<title>Node12&#45;&gt;Node10</title>
<g id="a_edge12_Node000012_Node000010"><a xlink:title=" ">
<path fill="none" stroke="#63b8ff" d="M1001.77,-287.52C1005.68,-285.06 1009.32,-282.23 1012.5,-279 1044.74,-246.21 1015.93,-214.46 1048.5,-182 1057.12,-173.41 1069.36,-168.14 1080.54,-164.93"/>
<polygon fill="#63b8ff" stroke="#63b8ff" points="1081.22,-168.36 1090.12,-162.62 1079.58,-161.56 1081.22,-168.36"/>
</a>
</g>
</g>
<!-- Node12&#45;&gt;Node11 -->
<g id="edge13_Node000012_Node000011" class="edge">
<title>Node12&#45;&gt;Node11</title>
<g id="a_edge13_Node000012_Node000011"><a xlink:title=" ">
<path fill="none" stroke="#63b8ff" d="M995.44,-287.63C1001.32,-285.01 1007.14,-282.12 1012.5,-279 1041.68,-261.99 1071.22,-236.41 1089.65,-219.23"/>
<polygon fill="#63b8ff" stroke="#63b8ff" points="1092.04,-221.79 1096.89,-212.36 1087.22,-216.71 1092.04,-221.79"/>
</a>
</g>
</g>
<!-- Node14 -->
<g id="Node000014" class="node">
<title>Node14</title>
<g id="a_Node000014"><a xlink:href="class_c_s_v___parser.html#aec118453b336d4c0cae88b0be94afa70" target="_top" xlink:title="Parses an employee from a CSV line.">
<polygon fill="white" stroke="#666666" points="480.75,-389 332.75,-389 332.75,-369 480.75,-369 480.75,-389"/>
<text text-anchor="middle" x="406.75" y="-375.5" font-family="Helvetica,sans-Serif" font-size="10.00">CSV_Parser::parse_employee</text>
</a>
</g>
</g>
<!-- Node13&#45;&gt;Node14 -->
<g id="edge15_Node000013_Node000014" class="edge">
<title>Node13&#45;&gt;Node14</title>
<g id="a_edge15_Node000013_Node000014"><a xlink:title=" ">
<path fill="none" stroke="#63b8ff" d="M297.11,-379C304.99,-379 313.07,-379 321.09,-379"/>
<polygon fill="#63b8ff" stroke="#63b8ff" points="320.85,-382.5 330.85,-379 320.85,-375.5 320.85,-382.5"/>
</a>
</g>
</g>
<!-- Node15 -->
<g id="Node000015" class="node">
<title>Node15</title>
<g id="a_Node000015"><a xlink:href="class_database.html#a7694df2f0f4e7d75e75ef409dcc40898" target="_top" xlink:title="Adds an employee to the database.">
<polygon fill="white" stroke="#666666" points="647.5,-389 520.5,-389 520.5,-369 647.5,-369 647.5,-389"/>
<text text-anchor="middle" x="584" y="-375.5" font-family="Helvetica,sans-Serif" font-size="10.00">Database::add_employee</text>
</a>
</g>
</g>
<!-- Node14&#45;&gt;Node15 -->
<g id="edge16_Node000014_Node000015" class="edge">
<title>Node14&#45;&gt;Node15</title>
<g id="a_edge16_Node000014_Node000015"><a xlink:title=" ">
<path fill="none" stroke="#63b8ff" d="M481.06,-379C490.16,-379 499.47,-379 508.59,-379"/>
<polygon fill="#63b8ff" stroke="#63b8ff" points="508.49,-382.5 518.49,-379 508.49,-375.5 508.49,-382.5"/>
</a>
</g>
</g>
<!-- Node15&#45;&gt;Node6 -->
<g id="edge17_Node000015_Node000006" class="edge">
<title>Node15&#45;&gt;Node6</title>
<g id="a_edge17_Node000015_Node000006"><a xlink:title=" ">
<path fill="none" stroke="#63b8ff" d="M638.78,-389.41C660.42,-393.59 685.42,-398.43 707.5,-402.7"/>
<polygon fill="#63b8ff" stroke="#63b8ff" points="706.78,-406.13 717.26,-404.59 708.11,-399.26 706.78,-406.13"/>
</a>
</g>
</g>
<!-- Node15&#45;&gt;Node7 -->
<g id="edge18_Node000015_Node000007" class="edge">
<title>Node15&#45;&gt;Node7</title>
<g id="a_edge18_Node000015_Node000007"><a xlink:title=" ">
<path fill="none" stroke="#63b8ff" d="M647.75,-377.96C664.91,-377.67 683.54,-377.37 700.83,-377.08"/>
<polygon fill="#63b8ff" stroke="#63b8ff" points="700.51,-380.58 710.45,-376.92 700.39,-373.59 700.51,-380.58"/>
</a>
</g>
</g>
<!-- Node17 -->
<g id="Node000017" class="node">
<title>Node17</title>
<g id="a_Node000017"><a xlink:href="class_c_s_v___parser.html#abf9be7d0476752028afd45de9be64877" target="_top" xlink:title="Parses a lesson from a CSV line.">
<polygon fill="white" stroke="#666666" points="474,-155 339.5,-155 339.5,-135 474,-135 474,-155"/>
<text text-anchor="middle" x="406.75" y="-141.5" font-family="Helvetica,sans-Serif" font-size="10.00">CSV_Parser::parse_lesson</text>
</a>
</g>
</g>
<!-- Node16&#45;&gt;Node17 -->
<g id="edge20_Node000016_Node000017" class="edge">
<title>Node16&#45;&gt;Node17</title>
<g id="a_edge20_Node000016_Node000017"><a xlink:title=" ">
<path fill="none" stroke="#63b8ff" d="M267.57,-198.59C298.06,-186.76 338.83,-170.95 368.18,-159.57"/>
<polygon fill="#63b8ff" stroke="#63b8ff" points="369.35,-162.87 377.41,-155.99 366.82,-156.34 369.35,-162.87"/>
</a>
</g>
</g>
<!-- Node18 -->
<g id="Node000018" class="node">
<title>Node18</title>
<g id="a_Node000018"><a xlink:href="class_database.html#a12af120f4bd82e7c70ffd191f13f0011" target="_top" xlink:title="Adds a lesson to the database.">
<polygon fill="white" stroke="#666666" points="823.62,-108 710.12,-108 710.12,-88 823.62,-88 823.62,-108"/>
<text text-anchor="middle" x="766.88" y="-94.5" font-family="Helvetica,sans-Serif" font-size="10.00">Database::add_lesson</text>
</a>
</g>
</g>
<!-- Node17&#45;&gt;Node18 -->
<g id="edge21_Node000017_Node000018" class="edge">
<title>Node17&#45;&gt;Node18</title>
<g id="a_edge21_Node000017_Node000018"><a xlink:title=" ">
<path fill="none" stroke="#63b8ff" d="M447.36,-134.54C467.93,-129.45 493.55,-123.67 516.75,-120 577.82,-110.35 648.04,-104.63 698.33,-101.45"/>
<polygon fill="#63b8ff" stroke="#63b8ff" points="698.43,-104.95 708.19,-100.84 698,-97.96 698.43,-104.95"/>
</a>
</g>
</g>
<!-- Node20 -->
<g id="Node000020" class="node">
<title>Node20</title>
<g id="a_Node000020"><a xlink:href="class_c_s_v___parser.html#a2645253cdd45f0fe2df1f4883ab64b36" target="_top" xlink:title="Parses lesson&#39;s attendance from a CSV line.">
<polygon fill="white" stroke="#666666" points="651.25,-161 516.75,-161 516.75,-129 651.25,-129 651.25,-161"/>
<text text-anchor="start" x="524.75" y="-147.5" font-family="Helvetica,sans-Serif" font-size="10.00">CSV_Parser::parse_lesson</text>
<text text-anchor="middle" x="584" y="-135.5" font-family="Helvetica,sans-Serif" font-size="10.00">_attendance</text>
</a>
</g>
</g>
<!-- Node17&#45;&gt;Node20 -->
<g id="edge23_Node000017_Node000020" class="edge">
<title>Node17&#45;&gt;Node20</title>
<g id="a_edge23_Node000017_Node000020"><a xlink:title=" ">
<path fill="none" stroke="#63b8ff" d="M474,-145C484.18,-145 494.77,-145 505.17,-145"/>
<polygon fill="#63b8ff" stroke="#63b8ff" points="504.85,-148.5 514.85,-145 504.85,-141.5 504.85,-148.5"/>
</a>
</g>
</g>
<!-- Node25 -->
<g id="Node000025" class="node">
<title>Node25</title>
<g id="a_Node000025"><a xlink:href="class_c_s_v___parser.html#acc479fe8705c80c065e4d725a02c852d" target="_top" xlink:title="Parses lesson&#39;s children from a CSV line.">
<polygon fill="white" stroke="#666666" points="651.25,-225 516.75,-225 516.75,-193 651.25,-193 651.25,-225"/>
<text text-anchor="start" x="524.75" y="-211.5" font-family="Helvetica,sans-Serif" font-size="10.00">CSV_Parser::parse_lesson</text>
<text text-anchor="middle" x="584" y="-199.5" font-family="Helvetica,sans-Serif" font-size="10.00">_children</text>
</a>
</g>
</g>
<!-- Node17&#45;&gt;Node25 -->
<g id="edge33_Node000017_Node000025" class="edge">
<title>Node17&#45;&gt;Node25</title>
<g id="a_edge33_Node000017_Node000025"><a xlink:title=" ">
<path fill="none" stroke="#63b8ff" d="M436.3,-155.43C460.94,-164.42 497.24,-177.68 527.57,-188.76"/>
<polygon fill="#63b8ff" stroke="#63b8ff" points="526.01,-191.91 536.6,-192.06 528.41,-185.34 526.01,-191.91"/>
</a>
</g>
</g>
<!-- Node28 -->
<g id="Node000028" class="node">
<title>Node28</title>
<g id="a_Node000028"><a xlink:href="class_c_s_v___parser.html#a4732941a7b14e0908b4c94286d957ede" target="_top" xlink:title="Parses lesson&#39;s employees from a CSV line.">
<polygon fill="white" stroke="#666666" points="651.25,-73 516.75,-73 516.75,-41 651.25,-41 651.25,-73"/>
<text text-anchor="start" x="524.75" y="-59.5" font-family="Helvetica,sans-Serif" font-size="10.00">CSV_Parser::parse_lesson</text>
<text text-anchor="middle" x="584" y="-47.5" font-family="Helvetica,sans-Serif" font-size="10.00">_employees</text>
</a>
</g>
</g>
<!-- Node17&#45;&gt;Node28 -->
<g id="edge37_Node000017_Node000028" class="edge">
<title>Node17&#45;&gt;Node28</title>
<g id="a_edge37_Node000017_Node000028"><a xlink:title=" ">
<path fill="none" stroke="#63b8ff" d="M426.47,-134.57C448.03,-122.67 484.63,-102.8 516.75,-87 522.7,-84.07 529,-81.08 535.25,-78.18"/>
<polygon fill="#63b8ff" stroke="#63b8ff" points="536.66,-81.39 544.29,-74.04 533.74,-75.03 536.66,-81.39"/>
</a>
</g>
</g>
<!-- Node19 -->
<g id="Node000019" class="node">
<title>Node19</title>
<g id="a_Node000019"><a xlink:href="class_lesson.html#a25d5ac20ba2894748d604e75a00d756a" target="_top" xlink:title="Gets the schedule of the lesson.">
<polygon fill="white" stroke="#666666" points="1003.12,-120 891.88,-120 891.88,-100 1003.12,-100 1003.12,-120"/>
<text text-anchor="middle" x="947.5" y="-106.5" font-family="Helvetica,sans-Serif" font-size="10.00">Lesson::get_schedule</text>
</a>
</g>
</g>
<!-- Node18&#45;&gt;Node19 -->
<g id="edge22_Node000018_Node000019" class="edge">
<title>Node18&#45;&gt;Node19</title>
<g id="a_edge22_Node000018_Node000019"><a xlink:title=" ">
<path fill="none" stroke="#63b8ff" d="M823.9,-101.76C841.78,-102.96 861.73,-104.31 880.27,-105.55"/>
<polygon fill="#63b8ff" stroke="#63b8ff" points="879.87,-109.03 890.08,-106.21 880.34,-102.05 879.87,-109.03"/>
</a>
</g>
</g>
<!-- Node20&#45;&gt;Node18 -->
<g id="edge24_Node000020_Node000018" class="edge">
<title>Node20&#45;&gt;Node18</title>
<g id="a_edge24_Node000020_Node000018"><a xlink:title=" ">
<path fill="none" stroke="#63b8ff" d="M643.86,-128.56C658.04,-124.68 673.17,-120.63 687.25,-117 694.83,-115.05 702.84,-113.04 710.72,-111.1"/>
<polygon fill="#63b8ff" stroke="#63b8ff" points="711.38,-114.55 720.27,-108.78 709.72,-107.75 711.38,-114.55"/>
</a>
</g>
</g>
<!-- Node21 -->
<g id="Node000021" class="node">
<title>Node21</title>
<g id="a_Node000021"><a xlink:href="class_database.html#a60ef6f17c1f6e1da26cf7fafd568164f" target="_top" xlink:title="Gets a child by name and surname.">
<polygon fill="white" stroke="#666666" points="818.75,-196 715,-196 715,-164 818.75,-164 818.75,-196"/>
<text text-anchor="start" x="723" y="-182.5" font-family="Helvetica,sans-Serif" font-size="10.00">Database::get_child</text>
<text text-anchor="middle" x="766.88" y="-170.5" font-family="Helvetica,sans-Serif" font-size="10.00">_by_name_surname</text>
</a>
</g>
</g>
<!-- Node20&#45;&gt;Node21 -->
<g id="edge25_Node000020_Node000021" class="edge">
<title>Node20&#45;&gt;Node21</title>
<g id="a_edge25_Node000020_Node000021"><a xlink:title=" ">
<path fill="none" stroke="#63b8ff" d="M651.58,-157.88C668.68,-161.19 687.02,-164.74 703.88,-168"/>
<polygon fill="#63b8ff" stroke="#63b8ff" points="702.75,-171.35 713.23,-169.81 704.08,-164.48 702.75,-171.35"/>
</a>
</g>
</g>
<!-- Node24 -->
<g id="Node000024" class="node">
<title>Node24</title>
<g id="a_Node000024"><a xlink:href="class_lesson.html#ac4b68f1c8fbcbc5ec3404207578d399c" target="_top" xlink:title="Sets the attendance of children for a specific date.">
<polygon fill="white" stroke="#666666" points="827,-146 706.75,-146 706.75,-126 827,-126 827,-146"/>
<text text-anchor="middle" x="766.88" y="-132.5" font-family="Helvetica,sans-Serif" font-size="10.00">Lesson::set_attendance</text>
</a>
</g>
</g>
<!-- Node20&#45;&gt;Node24 -->
<g id="edge32_Node000020_Node000024" class="edge">
<title>Node20&#45;&gt;Node24</title>
<g id="a_edge32_Node000020_Node000024"><a xlink:title=" ">
<path fill="none" stroke="#63b8ff" d="M651.58,-141.69C665.73,-140.98 680.71,-140.24 695.02,-139.53"/>
<polygon fill="#63b8ff" stroke="#63b8ff" points="694.98,-143.03 704.8,-139.04 694.63,-136.04 694.98,-143.03"/>
</a>
</g>
</g>
<!-- Node22 -->
<g id="Node000022" class="node">
<title>Node22</title>
<g id="a_Node000022"><a xlink:href="class_database.html#a448f32cb2e58118d83634666431562c2" target="_top" xlink:title="Filters children by name.">
<polygon fill="white" stroke="#666666" points="1001.62,-170 893.38,-170 893.38,-138 1001.62,-138 1001.62,-170"/>
<text text-anchor="start" x="901.38" y="-156.5" font-family="Helvetica,sans-Serif" font-size="10.00">Database::filter_child</text>
<text text-anchor="middle" x="947.5" y="-144.5" font-family="Helvetica,sans-Serif" font-size="10.00">_by_name</text>
</a>
</g>
</g>
<!-- Node21&#45;&gt;Node22 -->
<g id="edge26_Node000021_Node000022" class="edge">
<title>Node21&#45;&gt;Node22</title>
<g id="a_edge26_Node000021_Node000022"><a xlink:title=" ">
<path fill="none" stroke="#63b8ff" d="M819.06,-172.55C838.63,-169.7 861.21,-166.41 881.88,-163.41"/>
<polygon fill="#63b8ff" stroke="#63b8ff" points="882.24,-166.89 891.63,-161.99 881.23,-159.96 882.24,-166.89"/>
</a>
</g>
</g>
<!-- Node23 -->
<g id="Node000023" class="node">
<title>Node23</title>
<g id="a_Node000023"><a xlink:href="class_database.html#a48cdf44f55b29d6141c5e00b88fa4d22" target="_top" xlink:title="Filters children by surname.">
<polygon fill="white" stroke="#666666" points="1001.62,-220 893.38,-220 893.38,-188 1001.62,-188 1001.62,-220"/>
<text text-anchor="start" x="901.38" y="-206.5" font-family="Helvetica,sans-Serif" font-size="10.00">Database::filter_child</text>
<text text-anchor="middle" x="947.5" y="-194.5" font-family="Helvetica,sans-Serif" font-size="10.00">_by_surname</text>
</a>
</g>
</g>
<!-- Node21&#45;&gt;Node23 -->
<g id="edge29_Node000021_Node000023" class="edge">
<title>Node21&#45;&gt;Node23</title>
<g id="a_edge29_Node000021_Node000023"><a xlink:title=" ">
<path fill="none" stroke="#63b8ff" d="M819.06,-186.88C838.63,-189.51 861.21,-192.54 881.88,-195.32"/>
<polygon fill="#63b8ff" stroke="#63b8ff" points="881.25,-198.76 891.63,-196.63 882.18,-191.83 881.25,-198.76"/>
</a>
</g>
</g>
<!-- Node22&#45;&gt;Node10 -->
<g id="edge27_Node000022_Node000010" class="edge">
<title>Node22&#45;&gt;Node10</title>
<g id="a_edge27_Node000022_Node000010"><a xlink:title=" ">
<path fill="none" stroke="#63b8ff" d="M1001.74,-156C1027.98,-156.98 1058.56,-158.13 1080.23,-158.94"/>
<polygon fill="#63b8ff" stroke="#63b8ff" points="1079.92,-162.43 1090.05,-159.31 1080.18,-155.44 1079.92,-162.43"/>
</a>
</g>
</g>
<!-- Node22&#45;&gt;Node11 -->
<g id="edge28_Node000022_Node000011" class="edge">
<title>Node22&#45;&gt;Node11</title>
<g id="a_edge28_Node000022_Node000011"><a xlink:title=" ">
<path fill="none" stroke="#63b8ff" d="M1001.74,-169.65C1021.24,-175.38 1043.13,-181.82 1061.98,-187.36"/>
<polygon fill="#63b8ff" stroke="#63b8ff" points="1060.95,-190.71 1071.53,-190.17 1062.92,-183.99 1060.95,-190.71"/>
</a>
</g>
</g>
<!-- Node23&#45;&gt;Node10 -->
<g id="edge30_Node000023_Node000010" class="edge">
<title>Node23&#45;&gt;Node10</title>
<g id="a_edge30_Node000023_Node000010"><a xlink:title=" ">
<path fill="none" stroke="#63b8ff" d="M1001.74,-189.35C1028.1,-182.09 1058.84,-173.63 1080.53,-167.66"/>
<polygon fill="#63b8ff" stroke="#63b8ff" points="1081.39,-171.06 1090.1,-165.03 1079.53,-164.31 1081.39,-171.06"/>
</a>
</g>
</g>
<!-- Node23&#45;&gt;Node11 -->
<g id="edge31_Node000023_Node000011" class="edge">
<title>Node23&#45;&gt;Node11</title>
<g id="a_edge31_Node000023_Node000011"><a xlink:title=" ">
<path fill="none" stroke="#63b8ff" d="M1001.74,-203C1013.03,-202.79 1025.12,-202.56 1036.96,-202.34"/>
<polygon fill="#63b8ff" stroke="#63b8ff" points="1036.75,-205.84 1046.68,-202.16 1036.62,-198.85 1036.75,-205.84"/>
</a>
</g>
</g>
<!-- Node25&#45;&gt;Node21 -->
<g id="edge35_Node000025_Node000021" class="edge">
<title>Node25&#45;&gt;Node21</title>
<g id="a_edge35_Node000025_Node000021"><a xlink:title=" ">
<path fill="none" stroke="#63b8ff" d="M651.58,-198.33C668.52,-195.61 686.67,-192.7 703.4,-190.02"/>
<polygon fill="#63b8ff" stroke="#63b8ff" points="703.9,-193.48 713.22,-188.44 702.8,-186.57 703.9,-193.48"/>
</a>
</g>
</g>
<!-- Node26 -->
<g id="Node000026" class="node">
<title>Node26</title>
<g id="a_Node000026"><a xlink:href="class_lesson.html#aaaaf02b40b853b755bb1d5ff28954d0e" target="_top" xlink:title="Adds a child to the lesson.">
<polygon fill="white" stroke="#666666" points="814.25,-272 719.5,-272 719.5,-252 814.25,-252 814.25,-272"/>
<text text-anchor="middle" x="766.88" y="-258.5" font-family="Helvetica,sans-Serif" font-size="10.00">Lesson::add_child</text>
</a>
</g>
</g>
<!-- Node25&#45;&gt;Node26 -->
<g id="edge34_Node000025_Node000026" class="edge">
<title>Node25&#45;&gt;Node26</title>
<g id="a_edge34_Node000025_Node000026"><a xlink:title=" ">
<path fill="none" stroke="#63b8ff" d="M631.83,-225.49C649.14,-231.34 669,-237.77 687.25,-243 694.24,-245 701.62,-246.97 708.95,-248.84"/>
<polygon fill="#63b8ff" stroke="#63b8ff" points="707.95,-252.2 718.5,-251.23 709.65,-245.41 707.95,-252.2"/>
</a>
</g>
</g>
<!-- Node27 -->
<g id="Node000027" class="node">
<title>Node27</title>
<g id="a_Node000027"><a xlink:href="class_lesson.html#a50940a91b16eb52c2c3127b4100b026a" target="_top" xlink:title="Sets the payment date of a child.">
<polygon fill="white" stroke="#666666" points="846.5,-234 687.25,-234 687.25,-214 846.5,-214 846.5,-234"/>
<text text-anchor="middle" x="766.88" y="-220.5" font-family="Helvetica,sans-Serif" font-size="10.00">Lesson::set_child_payment_date</text>
</a>
</g>
</g>
<!-- Node25&#45;&gt;Node27 -->
<g id="edge36_Node000025_Node000027" class="edge">
<title>Node25&#45;&gt;Node27</title>
<g id="a_edge36_Node000025_Node000027"><a xlink:title=" ">
<path fill="none" stroke="#63b8ff" d="M651.58,-214.52C659.39,-215.17 667.45,-215.84 675.51,-216.51"/>
<polygon fill="#63b8ff" stroke="#63b8ff" points="675.11,-219.98 685.36,-217.32 675.69,-213.01 675.11,-219.98"/>
</a>
</g>
</g>
<!-- Node29 -->
<g id="Node000029" class="node">
<title>Node29</title>
<g id="a_Node000029"><a xlink:href="class_lesson.html#afc2b347e65cd703a676749de028cf824" target="_top" xlink:title="Adds an employee to the lesson.">
<polygon fill="white" stroke="#666666" points="825.12,-70 708.62,-70 708.62,-50 825.12,-50 825.12,-70"/>
<text text-anchor="middle" x="766.88" y="-56.5" font-family="Helvetica,sans-Serif" font-size="10.00">Lesson::add_employee</text>
</a>
</g>
</g>
<!-- Node28&#45;&gt;Node29 -->
<g id="edge38_Node000028_Node000029" class="edge">
<title>Node28&#45;&gt;Node29</title>
<g id="a_edge38_Node000028_Node000029"><a xlink:title=" ">
<path fill="none" stroke="#63b8ff" d="M651.58,-58.1C666.43,-58.35 682.2,-58.61 697.14,-58.86"/>
<polygon fill="#63b8ff" stroke="#63b8ff" points="696.8,-62.35 706.85,-59.02 696.91,-55.36 696.8,-62.35"/>
</a>
</g>
</g>
<!-- Node30 -->
<g id="Node000030" class="node">
<title>Node30</title>
<g id="a_Node000030"><a xlink:href="class_database.html#ad50041d3d5067356b4581bed63a51449" target="_top" xlink:title="Gets an employee by name and surname.">
<polygon fill="white" stroke="#666666" points="829.25,-32 704.5,-32 704.5,0 829.25,0 829.25,-32"/>
<text text-anchor="start" x="712.5" y="-18.5" font-family="Helvetica,sans-Serif" font-size="10.00">Database::get_employee</text>
<text text-anchor="middle" x="766.88" y="-6.5" font-family="Helvetica,sans-Serif" font-size="10.00">_by_name_surname</text>
</a>
</g>
</g>
<!-- Node28&#45;&gt;Node30 -->
<g id="edge39_Node000028_Node000030" class="edge">
<title>Node28&#45;&gt;Node30</title>
<g id="a_edge39_Node000028_Node000030"><a xlink:title=" ">
<path fill="none" stroke="#63b8ff" d="M651.58,-41.91C665.17,-38.83 679.54,-35.57 693.33,-32.45"/>
<polygon fill="#63b8ff" stroke="#63b8ff" points="693.78,-35.93 702.76,-30.31 692.23,-29.1 693.78,-35.93"/>
</a>
</g>
</g>
<!-- Node31 -->
<g id="Node000031" class="node">
<title>Node31</title>
<g id="a_Node000031"><a xlink:href="class_database.html#ab4078647d304eaebd16c83baf22a2b18" target="_top" xlink:title="Filters employees by name.">
<polygon fill="white" stroke="#666666" points="1012.5,-82 882.5,-82 882.5,-50 1012.5,-50 1012.5,-82"/>
<text text-anchor="start" x="890.5" y="-68.5" font-family="Helvetica,sans-Serif" font-size="10.00">Database::filter_employee</text>
<text text-anchor="middle" x="947.5" y="-56.5" font-family="Helvetica,sans-Serif" font-size="10.00">_by_name</text>
</a>
</g>
</g>
<!-- Node30&#45;&gt;Node31 -->
<g id="edge40_Node000030_Node000031" class="edge">
<title>Node30&#45;&gt;Node31</title>
<g id="a_edge40_Node000030_Node000031"><a xlink:title=" ">
<path fill="none" stroke="#63b8ff" d="M826.36,-32.37C842.47,-36.88 860.11,-41.82 876.78,-46.48"/>
<polygon fill="#63b8ff" stroke="#63b8ff" points="875.54,-49.77 886.12,-49.1 877.43,-43.03 875.54,-49.77"/>
</a>
</g>
</g>
<!-- Node32 -->
<g id="Node000032" class="node">
<title>Node32</title>
<g id="a_Node000032"><a xlink:href="class_database.html#af7863b68cb40f5715660eeccaaf56f52" target="_top" xlink:title="Filters employees by surname.">
<polygon fill="white" stroke="#666666" points="1012.5,-32 882.5,-32 882.5,0 1012.5,0 1012.5,-32"/>
<text text-anchor="start" x="890.5" y="-18.5" font-family="Helvetica,sans-Serif" font-size="10.00">Database::filter_employee</text>
<text text-anchor="middle" x="947.5" y="-6.5" font-family="Helvetica,sans-Serif" font-size="10.00">_by_surname</text>
</a>
</g>
</g>
<!-- Node30&#45;&gt;Node32 -->
<g id="edge43_Node000030_Node000032" class="edge">
<title>Node30&#45;&gt;Node32</title>
<g id="a_edge43_Node000030_Node000032"><a xlink:title=" ">
<path fill="none" stroke="#63b8ff" d="M829.6,-16C842.83,-16 856.96,-16 870.66,-16"/>
<polygon fill="#63b8ff" stroke="#63b8ff" points="870.53,-19.5 880.53,-16 870.53,-12.5 870.53,-19.5"/>
</a>
</g>
</g>
<!-- Node31&#45;&gt;Node10 -->
<g id="edge41_Node000031_Node000010" class="edge">
<title>Node31&#45;&gt;Node10</title>
<g id="a_edge41_Node000031_Node000010"><a xlink:title=" ">
<path fill="none" stroke="#63b8ff" d="M994.59,-82.38C1000.72,-85.03 1006.84,-87.92 1012.5,-91 1039.81,-105.85 1068.39,-127.31 1087.16,-142.34"/>
<polygon fill="#63b8ff" stroke="#63b8ff" points="1084.89,-145 1094.85,-148.59 1089.3,-139.57 1084.89,-145"/>
</a>
</g>
</g>
<!-- Node31&#45;&gt;Node11 -->
<g id="edge42_Node000031_Node000011" class="edge">
<title>Node31&#45;&gt;Node11</title>
<g id="a_edge42_Node000031_Node000011"><a xlink:title=" ">
<path fill="none" stroke="#63b8ff" d="M1001.35,-82.4C1005.39,-84.89 1009.18,-87.74 1012.5,-91 1042.62,-120.64 1018.08,-149.67 1048.5,-179 1050.85,-181.27 1053.46,-183.31 1056.23,-185.14"/>
<polygon fill="#63b8ff" stroke="#63b8ff" points="1054.38,-188.12 1064.83,-189.87 1057.76,-181.98 1054.38,-188.12"/>
</a>
</g>
</g>
<!-- Node32&#45;&gt;Node10 -->
<g id="edge44_Node000032_Node000010" class="edge">
<title>Node32&#45;&gt;Node10</title>
<g id="a_edge44_Node000032_Node000010"><a xlink:title=" ">
<path fill="none" stroke="#63b8ff" d="M998.44,-32.49C1003.39,-35 1008.17,-37.83 1012.5,-41 1049.93,-68.43 1080.96,-113.93 1096.87,-140"/>
<polygon fill="#63b8ff" stroke="#63b8ff" points="1093.67,-141.46 1101.79,-148.27 1099.69,-137.89 1093.67,-141.46"/>
</a>
</g>
</g>
<!-- Node32&#45;&gt;Node11 -->
<g id="edge45_Node000032_Node000011" class="edge">
<title>Node32&#45;&gt;Node11</title>
<g id="a_edge45_Node000032_Node000011"><a xlink:title=" ">
<path fill="none" stroke="#63b8ff" d="M1002.44,-32.34C1006.15,-34.83 1009.57,-37.7 1012.5,-41 1054.62,-88.37 1005.9,-132.06 1048.5,-179 1050.42,-181.12 1052.56,-183.03 1054.86,-184.76"/>
<polygon fill="#63b8ff" stroke="#63b8ff" points="1052.72,-187.56 1063.08,-189.77 1056.37,-181.58 1052.72,-187.56"/>
</a>
</g>
</g>
<!-- Node34 -->
<g id="Node000034" class="node">
<title>Node34</title>
<g id="a_Node000034"><a xlink:href="class_c_s_v___parser.html#a43700e2ac18a5503278f29a57ed734a3" target="_top" xlink:title="Parses a parent from a CSV line.">
<polygon fill="white" stroke="#666666" points="473.25,-342 340.25,-342 340.25,-322 473.25,-322 473.25,-342"/>
<text text-anchor="middle" x="406.75" y="-328.5" font-family="Helvetica,sans-Serif" font-size="10.00">CSV_Parser::parse_parent</text>
</a>
</g>
</g>
<!-- Node33&#45;&gt;Node34 -->
<g id="edge47_Node000033_Node000034" class="edge">
<title>Node33&#45;&gt;Node34</title>
<g id="a_edge47_Node000033_Node000034"><a xlink:title=" ">
<path fill="none" stroke="#63b8ff" d="M289.65,-330.07C302.26,-330.28 315.6,-330.5 328.57,-330.72"/>
<polygon fill="#63b8ff" stroke="#63b8ff" points="328.28,-334.21 338.34,-330.88 328.4,-327.21 328.28,-334.21"/>
</a>
</g>
</g>
<!-- Node35 -->
<g id="Node000035" class="node">
<title>Node35</title>
<g id="a_Node000035"><a xlink:href="class_database.html#ab9f567b93fb0e0be48d59cb6b6d3b7b7" target="_top" xlink:title="Adds a parent to the database.">
<polygon fill="white" stroke="#666666" points="640,-348 528,-348 528,-328 640,-328 640,-348"/>
<text text-anchor="middle" x="584" y="-334.5" font-family="Helvetica,sans-Serif" font-size="10.00">Database::add_parent</text>
</a>
</g>
</g>
<!-- Node34&#45;&gt;Node35 -->
<g id="edge48_Node000034_Node000035" class="edge">
<title>Node34&#45;&gt;Node35</title>
<g id="a_edge48_Node000034_Node000035"><a xlink:title=" ">
<path fill="none" stroke="#63b8ff" d="M473.51,-334.25C487.61,-334.73 502.52,-335.24 516.64,-335.73"/>
<polygon fill="#63b8ff" stroke="#63b8ff" points="516.14,-339.21 526.26,-336.06 516.38,-332.22 516.14,-339.21"/>
</a>
</g>
</g>
<!-- Node35&#45;&gt;Node6 -->
<g id="edge51_Node000035_Node000006" class="edge">
<title>Node35&#45;&gt;Node6</title>
<g id="a_edge51_Node000035_Node000006"><a xlink:title=" ">
<path fill="none" stroke="#63b8ff" d="M626.22,-348.49C634.82,-351.54 643.59,-355.34 651.25,-360 670.32,-371.59 667.71,-384.22 687.25,-395 693.7,-398.56 700.81,-401.46 708.03,-403.82"/>
<polygon fill="#63b8ff" stroke="#63b8ff" points="706.99,-407.16 717.57,-406.58 708.94,-400.43 706.99,-407.16"/>
</a>
</g>
</g>
<!-- Node35&#45;&gt;Node7 -->
<g id="edge52_Node000035_Node000007" class="edge">
<title>Node35&#45;&gt;Node7</title>
<g id="a_edge52_Node000035_Node000007"><a xlink:title=" ">
<path fill="none" stroke="#63b8ff" d="M634.9,-348.48C656.55,-353.03 682.11,-358.4 704.87,-363.18"/>
<polygon fill="#63b8ff" stroke="#63b8ff" points="704.15,-366.61 714.65,-365.24 705.59,-359.76 704.15,-366.61"/>
</a>
</g>
</g>
<!-- Node36 -->
<g id="Node000036" class="node">
<title>Node36</title>
<g id="a_Node000036"><a xlink:href="class_email.html#a9402dc77167245cc5943d04850b92414" target="_top" xlink:title="Gets the email address.">
<polygon fill="white" stroke="#666666" points="811.25,-310 722.5,-310 722.5,-290 811.25,-290 811.25,-310"/>
<text text-anchor="middle" x="766.88" y="-296.5" font-family="Helvetica,sans-Serif" font-size="10.00">Email::get_email</text>
</a>
</g>
</g>
<!-- Node35&#45;&gt;Node36 -->
<g id="edge49_Node000035_Node000036" class="edge">
<title>Node35&#45;&gt;Node36</title>
<g id="a_edge49_Node000035_Node000036"><a xlink:title=" ">
<path fill="none" stroke="#63b8ff" d="M634.9,-327.52C658.55,-322.55 686.87,-316.6 711.11,-311.51"/>
<polygon fill="#63b8ff" stroke="#63b8ff" points="711.74,-314.95 720.81,-309.47 710.3,-308.1 711.74,-314.95"/>
</a>
</g>
</g>
<!-- Node37 -->
<g id="Node000037" class="node">
<title>Node37</title>
<g id="a_Node000037"><a xlink:href="class_parent.html#aa82a75e6096795dcf5d608169ae4de5d" target="_top" xlink:title="Gets the email address of the parent.">
<polygon fill="white" stroke="#666666" points="813.12,-348 720.62,-348 720.62,-328 813.12,-328 813.12,-348"/>
<text text-anchor="middle" x="766.88" y="-334.5" font-family="Helvetica,sans-Serif" font-size="10.00">Parent::get_email</text>
</a>
</g>
</g>
<!-- Node35&#45;&gt;Node37 -->
<g id="edge50_Node000035_Node000037" class="edge">
<title>Node35&#45;&gt;Node37</title>
<g id="a_edge50_Node000035_Node000037"><a xlink:title=" ">
<path fill="none" stroke="#63b8ff" d="M640.25,-338C662,-338 686.97,-338 708.89,-338"/>
<polygon fill="#63b8ff" stroke="#63b8ff" points="708.86,-341.5 718.86,-338 708.86,-334.5 708.86,-341.5"/>
</a>
</g>
</g>
</g>
</svg>

<g id="navigator" transform="translate(0 0)" fill="#404254">
  <rect fill="#f2f5e9" fill-opacity="0.5" stroke="#606060" stroke-width=".5" x="0" y="0" width="60" height="60"/>
  <use id="zoomplus" xlink:href="#zoomPlus" x="17" y="9" onmousedown="handleZoom(evt,'in')"/>
  <use id="zoomminus" xlink:href="#zoomMin" x="42" y="9" onmousedown="handleZoom(evt,'out')"/>
  <use id="reset" xlink:href="#resetDef" x="30" y="36" onmousedown="handleReset()"/>
   <use id="arrowup" xlink:href="#arrowUp" x="0" y="0" onmousedown="handlePan(0,-1)"/>
  <use id="arrowright" xlink:href="#arrowRight" x="0" y="0" onmousedown="handlePan(1,0)"/>
  <use id="arrowdown" xlink:href="#arrowDown" x="0" y="0" onmousedown="handlePan(0,1)"/>
  <use id="arrowleft" xlink:href="#arrowLeft" x="0" y="0" onmousedown="handlePan(-1,0)"/>
</g>
<svg viewBox="0 0 15 15" width="100%" height="30px" preserveAspectRatio="xMaxYMin meet">
 <g id="arrow_out" transform="scale(0.3 0.3)">
  <a xlink:href="class_database_af3b2c97f6ffbcff3ec1c0f78a91d6107_cgraph_org.svg" target="_base">
   <rect id="button" ry="5" rx="5" y="6" x="6" height="38" width="38"
        fill="#f2f5e9" fill-opacity="0.5" stroke="#606060" stroke-width="1.0"/>
   <path id="arrow"
     d="M 11.500037,31.436501 C 11.940474,20.09759 22.043105,11.32322 32.158766,21.979434 L 37.068811,17.246167 C 37.068811,17.246167 37.088388,32 37.088388,32 L 22.160133,31.978069 C 22.160133,31.978069 26.997745,27.140456 26.997745,27.140456 C 18.528582,18.264221 13.291696,25.230495 11.500037,31.436501 z"
     style="fill:#404040;"/>
  </a>
 </g>
</svg>

<style type='text/css'>
<![CDATA[
[data-mouse-over-selected='false'] { opacity: 0.7; }
[data-mouse-over-selected='true']  { opacity: 1.0; }
]]>
</style>
<script type="application/ecmascript"><![CDATA[
document.addEventListener('DOMContentLoaded', (event) => {
  highlightEdges();
  highlightAdjacentNodes();
});
]]></script>
</svg>
