<?xml version="1.0" encoding="UTF-8" standalone="no"?>
<!DOCTYPE svg PUBLIC "-//W3C//DTD SVG 1.1//EN"
 "http://www.w3.org/Graphics/SVG/1.1/DTD/svg11.dtd">
<!-- Generated by graphviz version 12.2.1 (20241206.2353)
 -->
<!-- Title: Ui_EmployeeEntryClass Pages: 1 -->
<svg width="124pt" height="308pt"
 viewBox="0.00 0.00 124.00 308.00" xmlns="http://www.w3.org/2000/svg" xmlns:xlink="http://www.w3.org/1999/xlink">
<g id="graph0" class="graph" transform="scale(1 1) rotate(0) translate(4 304)">
<title>Ui_EmployeeEntryClass</title>
<!-- Node1 -->
<g id="Node000001" class="node">
<title>Node1</title>
<g id="a_Node000001"><a xlink:title=" ">
<polygon fill="#999999" stroke="none" points="115.62,-300 0.38,-300 0.38,-88 115.62,-88 115.62,-300"/>
<text text-anchor="start" x="4.38" y="-286.5" font-family="Helvetica,sans-Serif" font-size="10.00">Ui_EmployeeEntryClass</text>
<text text-anchor="start" x="12.56" y="-270.5" font-family="Helvetica,sans-Serif" font-size="10.00">+</text>
<text text-anchor="start" x="30.75" y="-270.5" font-family="Helvetica,sans-Serif" font-size="10.00">gridLayout</text>
<text text-anchor="start" x="12.56" y="-254.5" font-family="Helvetica,sans-Serif" font-size="10.00">+</text>
<text text-anchor="start" x="30.75" y="-254.5" font-family="Helvetica,sans-Serif" font-size="10.00">frame</text>
<text text-anchor="start" x="12.56" y="-238.5" font-family="Helvetica,sans-Serif" font-size="10.00">+</text>
<text text-anchor="start" x="30.75" y="-238.5" font-family="Helvetica,sans-Serif" font-size="10.00">gridLayout_2</text>
<text text-anchor="start" x="12.56" y="-222.5" font-family="Helvetica,sans-Serif" font-size="10.00">+</text>
<text text-anchor="start" x="30.75" y="-222.5" font-family="Helvetica,sans-Serif" font-size="10.00">email</text>
<text text-anchor="start" x="12.56" y="-206.5" font-family="Helvetica,sans-Serif" font-size="10.00">+</text>
<text text-anchor="start" x="30.75" y="-206.5" font-family="Helvetica,sans-Serif" font-size="10.00">edit_button</text>
<text text-anchor="start" x="12.56" y="-190.5" font-family="Helvetica,sans-Serif" font-size="10.00">+</text>
<text text-anchor="start" x="30.75" y="-190.5" font-family="Helvetica,sans-Serif" font-size="10.00">remove_button</text>
<text text-anchor="start" x="12.56" y="-174.5" font-family="Helvetica,sans-Serif" font-size="10.00">+</text>
<text text-anchor="start" x="30.75" y="-174.5" font-family="Helvetica,sans-Serif" font-size="10.00">surname</text>
<text text-anchor="start" x="12.56" y="-158.5" font-family="Helvetica,sans-Serif" font-size="10.00">+</text>
<text text-anchor="start" x="30.75" y="-158.5" font-family="Helvetica,sans-Serif" font-size="10.00">name</text>
<text text-anchor="start" x="12.56" y="-142.5" font-family="Helvetica,sans-Serif" font-size="10.00">+</text>
<text text-anchor="start" x="30.75" y="-142.5" font-family="Helvetica,sans-Serif" font-size="10.00">phone</text>
<text text-anchor="start" x="12.56" y="-126.5" font-family="Helvetica,sans-Serif" font-size="10.00">+</text>
<text text-anchor="start" x="30.75" y="-126.5" font-family="Helvetica,sans-Serif" font-size="10.00">hours_worked</text>
<text text-anchor="start" x="12.56" y="-110.5" font-family="Helvetica,sans-Serif" font-size="10.00">+</text>
<text text-anchor="start" x="30.75" y="-110.5" font-family="Helvetica,sans-Serif" font-size="10.00">setupUi()</text>
<text text-anchor="start" x="12.56" y="-94.5" font-family="Helvetica,sans-Serif" font-size="10.00">+</text>
<text text-anchor="start" x="30.75" y="-94.5" font-family="Helvetica,sans-Serif" font-size="10.00">retranslateUi()</text>
<polygon fill="#666666" stroke="#666666" points="0.38,-282 0.38,-282 115.62,-282 115.62,-282 0.38,-282"/>
<polygon fill="#666666" stroke="#666666" points="0.38,-122 0.38,-122 28.75,-122 28.75,-122 0.38,-122"/>
<polygon fill="#666666" stroke="#666666" points="28.75,-122 28.75,-122 115.62,-122 115.62,-122 28.75,-122"/>
<polygon fill="none" stroke="#666666" points="0.38,-88 0.38,-300 115.62,-300 115.62,-88 0.38,-88"/>
</a>
</g>
</g>
<!-- Node2 -->
<g id="Node000002" class="node">
<title>Node2</title>
<g id="a_Node000002"><a xlink:href="class_ui_1_1_employee_entry_class.html" target="_top" xlink:title=" ">
<polygon fill="white" stroke="none" points="116,-52 0,-52 0,0 116,0 116,-52"/>
<text text-anchor="start" x="4" y="-38.5" font-family="Helvetica,sans-Serif" font-size="10.00">Ui::EmployeeEntryClass</text>
<text text-anchor="start" x="56.5" y="-22.5" font-family="Helvetica,sans-Serif" font-size="10.00"> </text>
<text text-anchor="start" x="56.5" y="-6.5" font-family="Helvetica,sans-Serif" font-size="10.00"> </text>
<polygon fill="#666666" stroke="#666666" points="0,-34 0,-34 116,-34 116,-34 0,-34"/>
<polygon fill="#666666" stroke="#666666" points="0,-18 0,-18 116,-18 116,-18 0,-18"/>
<polygon fill="none" stroke="#666666" points="0,0 0,-52 116,-52 116,0 0,0"/>
</a>
</g>
</g>
<!-- Node1&#45;&gt;Node2 -->
<g id="edge1_Node000001_Node000002" class="edge">
<title>Node1&#45;&gt;Node2</title>
<g id="a_edge1_Node000001_Node000002"><a xlink:title=" ">
<path fill="none" stroke="#63b8ff" d="M58,-76.91C58,-67.76 58,-59.26 58,-51.95"/>
<polygon fill="none" stroke="#63b8ff" points="54.5,-76.83 58,-86.83 61.5,-76.83 54.5,-76.83"/>
</a>
</g>
</g>
</g>
</svg>
