<?xml version="1.0" encoding="UTF-8" standalone="no"?>
<!DOCTYPE svg PUBLIC "-//W3C//DTD SVG 1.1//EN"
 "http://www.w3.org/Graphics/SVG/1.1/DTD/svg11.dtd">
<!-- Generated by graphviz version 12.2.1 (20241206.2353)
 -->
<!-- Title: DataBaseGUI::populate_lesson_tab Pages: 1 -->
<svg width="789pt" height="237pt"
 viewBox="0.00 0.00 788.50 237.16" xmlns="http://www.w3.org/2000/svg" xmlns:xlink="http://www.w3.org/1999/xlink">
<g id="graph0" class="graph" transform="scale(1 1) rotate(0) translate(4 233.16)">
<title>DataBaseGUI::populate_lesson_tab</title>
<!-- Node1 -->
<g id="Node000001" class="node">
<title>Node1</title>
<g id="a_Node000001"><a xlink:title="Populates the lessons tab with a list of lessons.">
<polygon fill="#999999" stroke="#666666" points="780.5,-110 660.25,-110 660.25,-78 780.5,-78 780.5,-110"/>
<text text-anchor="start" x="668.25" y="-96.5" font-family="Helvetica,sans-Serif" font-size="10.00">DataBaseGUI::populate</text>
<text text-anchor="middle" x="720.38" y="-84.5" font-family="Helvetica,sans-Serif" font-size="10.00">_lesson_tab</text>
</a>
</g>
</g>
<!-- Node2 -->
<g id="Node000002" class="node">
<title>Node2</title>
<g id="a_Node000002"><a xlink:href="class_data_base_g_u_i.html#a55b3c6d3607f17f55d4c321e97fdce7f" target="_top" xlink:title="Searches for lessons based on the provided child name and surname.">
<polygon fill="white" stroke="#666666" points="623.5,-220 511.5,-220 511.5,-188 623.5,-188 623.5,-220"/>
<text text-anchor="start" x="519.5" y="-206.5" font-family="Helvetica,sans-Serif" font-size="10.00">DataBaseGUI::lesson</text>
<text text-anchor="middle" x="567.5" y="-194.5" font-family="Helvetica,sans-Serif" font-size="10.00">_search</text>
</a>
</g>
</g>
<!-- Node1&#45;&gt;Node2 -->
<g id="edge1_Node000001_Node000002" class="edge">
<title>Node1&#45;&gt;Node2</title>
<g id="a_edge1_Node000001_Node000002"><a xlink:title=" ">
<path fill="none" stroke="#63b8ff" d="M687.86,-116.98C658.81,-138.16 616.42,-169.06 590.75,-187.78"/>
<polygon fill="#63b8ff" stroke="#63b8ff" points="689.55,-120.08 695.56,-111.36 685.42,-114.42 689.55,-120.08"/>
</a>
</g>
</g>
<!-- Node6 -->
<g id="Node000006" class="node">
<title>Node6</title>
<g id="a_Node000006"><a xlink:href="class_data_base_g_u_i.html#a1ad152b7becf3e0051cdd5dbae6d4abc" target="_top" xlink:title="Selects the appropriate sorting to use based on lesson sort index.">
<polygon fill="white" stroke="#666666" points="624.25,-132 510.75,-132 510.75,-100 624.25,-100 624.25,-132"/>
<text text-anchor="start" x="518.75" y="-118.5" font-family="Helvetica,sans-Serif" font-size="10.00">DataBaseGUI::sort_to</text>
<text text-anchor="middle" x="567.5" y="-106.5" font-family="Helvetica,sans-Serif" font-size="10.00">_populate_lesson_tab</text>
</a>
</g>
</g>
<!-- Node1&#45;&gt;Node6 -->
<g id="edge5_Node000001_Node000006" class="edge">
<title>Node1&#45;&gt;Node6</title>
<g id="a_edge5_Node000001_Node000006"><a xlink:title=" ">
<path fill="none" stroke="#63b8ff" d="M649.06,-104.25C640.85,-105.45 632.55,-106.66 624.57,-107.82"/>
<polygon fill="#63b8ff" stroke="#63b8ff" points="649.29,-107.76 658.68,-102.85 648.28,-100.83 649.29,-107.76"/>
</a>
</g>
</g>
<!-- Node3 -->
<g id="Node000003" class="node">
<title>Node3</title>
<g id="a_Node000003"><a xlink:href="class_data_base_g_u_i.html#a6c35e47ed05a80db144f240dee805a9d" target="_top" xlink:title="Sets up the GUI.">
<polygon fill="white" stroke="#666666" points="294.88,-192 187.38,-192 187.38,-172 294.88,-172 294.88,-192"/>
<text text-anchor="middle" x="241.12" y="-178.5" font-family="Helvetica,sans-Serif" font-size="10.00">DataBaseGUI::setup</text>
</a>
</g>
</g>
<!-- Node2&#45;&gt;Node3 -->
<g id="edge2_Node000002_Node000003" class="edge">
<title>Node2&#45;&gt;Node3</title>
<g id="a_edge2_Node000002_Node000003"><a xlink:title=" ">
<path fill="none" stroke="#63b8ff" d="M500.26,-219.38C454.15,-227.69 391.45,-234.18 337.25,-223 308.89,-217.15 278.58,-202.44 259.99,-192.33"/>
<polygon fill="#63b8ff" stroke="#63b8ff" points="500.65,-222.87 509.82,-217.58 499.35,-215.99 500.65,-222.87"/>
</a>
</g>
</g>
<!-- Node4 -->
<g id="Node000004" class="node">
<title>Node4</title>
<g id="a_Node000004"><a xlink:href="class_data_base_g_u_i.html#a2c83afe3a30fb5166d275d9a74d33196" target="_top" xlink:title="Default constructor.">
<polygon fill="white" stroke="#666666" points="145,-211 0,-211 0,-191 145,-191 145,-211"/>
<text text-anchor="middle" x="72.5" y="-197.5" font-family="Helvetica,sans-Serif" font-size="10.00">DataBaseGUI::DataBaseGUI</text>
</a>
</g>
</g>
<!-- Node3&#45;&gt;Node4 -->
<g id="edge3_Node000003_Node000004" class="edge">
<title>Node3&#45;&gt;Node4</title>
<g id="a_edge3_Node000003_Node000004"><a xlink:title=" ">
<path fill="none" stroke="#63b8ff" d="M175.53,-189.37C165.64,-190.49 155.37,-191.67 145.32,-192.81"/>
<polygon fill="#63b8ff" stroke="#63b8ff" points="175.9,-192.85 185.44,-188.24 175.11,-185.89 175.9,-192.85"/>
</a>
</g>
</g>
<!-- Node5 -->
<g id="Node000005" class="node">
<title>Node5</title>
<g id="a_Node000005"><a xlink:href="class_data_base_g_u_i.html#aba10d1d8e9fb151632ff34de418cee82" target="_top" xlink:title="Constructs a DataBaseGUI object.">
<polygon fill="white" stroke="#666666" points="145,-173 0,-173 0,-153 145,-153 145,-173"/>
<text text-anchor="middle" x="72.5" y="-159.5" font-family="Helvetica,sans-Serif" font-size="10.00">DataBaseGUI::DataBaseGUI</text>
</a>
</g>
</g>
<!-- Node3&#45;&gt;Node5 -->
<g id="edge4_Node000003_Node000005" class="edge">
<title>Node3&#45;&gt;Node5</title>
<g id="a_edge4_Node000003_Node000005"><a xlink:title=" ">
<path fill="none" stroke="#63b8ff" d="M175.53,-174.63C165.64,-173.51 155.37,-172.33 145.32,-171.19"/>
<polygon fill="#63b8ff" stroke="#63b8ff" points="175.11,-178.11 185.44,-175.76 175.9,-171.15 175.11,-178.11"/>
</a>
</g>
</g>
<!-- Node7 -->
<g id="Node000007" class="node">
<title>Node7</title>
<g id="a_Node000007"><a xlink:href="class_data_base_g_u_i.html#a778bdaec7f9281df4c0ead66c9dcffd2" target="_top" xlink:title="Adds a new lesson to the database.">
<polygon fill="white" stroke="#666666" points="472.5,-214 339.5,-214 339.5,-194 472.5,-194 472.5,-214"/>
<text text-anchor="middle" x="406" y="-200.5" font-family="Helvetica,sans-Serif" font-size="10.00">DataBaseGUI::lesson_add</text>
</a>
</g>
</g>
<!-- Node6&#45;&gt;Node7 -->
<g id="edge6_Node000006_Node000007" class="edge">
<title>Node6&#45;&gt;Node7</title>
<g id="a_edge6_Node000006_Node000007"><a xlink:title=" ">
<path fill="none" stroke="#63b8ff" d="M540.37,-139.83C522.9,-154.66 498.79,-173.12 474.75,-185 467.96,-188.36 460.49,-191.2 453.06,-193.59"/>
<polygon fill="#63b8ff" stroke="#63b8ff" points="542.47,-142.65 547.73,-133.45 537.88,-137.36 542.47,-142.65"/>
</a>
</g>
</g>
<!-- Node8 -->
<g id="Node000008" class="node">
<title>Node8</title>
<g id="a_Node000008"><a xlink:href="class_data_base_g_u_i.html#a66a3e89a9852de3522d98f2c1f8cdeed" target="_top" xlink:title="Removes a lesson from the database.">
<polygon fill="white" stroke="#666666" points="462,-88 350,-88 350,-56 462,-56 462,-88"/>
<text text-anchor="start" x="358" y="-74.5" font-family="Helvetica,sans-Serif" font-size="10.00">DataBaseGUI::lesson</text>
<text text-anchor="middle" x="406" y="-62.5" font-family="Helvetica,sans-Serif" font-size="10.00">_remove</text>
</a>
</g>
</g>
<!-- Node6&#45;&gt;Node8 -->
<g id="edge8_Node000006_Node000008" class="edge">
<title>Node6&#45;&gt;Node8</title>
<g id="a_edge8_Node000006_Node000008"><a xlink:title=" ">
<path fill="none" stroke="#63b8ff" d="M499.18,-97.43C486.94,-94.05 474.3,-90.57 462.46,-87.3"/>
<polygon fill="#63b8ff" stroke="#63b8ff" points="498.24,-100.8 508.81,-100.08 500.1,-94.05 498.24,-100.8"/>
</a>
</g>
</g>
<!-- Node10 -->
<g id="Node000010" class="node">
<title>Node10</title>
<g id="a_Node000010"><a xlink:href="class_data_base_g_u_i.html#a0478b87f545d97b9e3ef55858242878b" target="_top" xlink:title="Changes the sorting method for lessons.">
<polygon fill="white" stroke="#666666" points="462,-176 350,-176 350,-144 462,-144 462,-176"/>
<text text-anchor="start" x="358" y="-162.5" font-family="Helvetica,sans-Serif" font-size="10.00">DataBaseGUI::lesson</text>
<text text-anchor="middle" x="406" y="-150.5" font-family="Helvetica,sans-Serif" font-size="10.00">_sort_change</text>
</a>
</g>
</g>
<!-- Node6&#45;&gt;Node10 -->
<g id="edge11_Node000006_Node000010" class="edge">
<title>Node6&#45;&gt;Node10</title>
<g id="a_edge11_Node000006_Node000010"><a xlink:title=" ">
<path fill="none" stroke="#63b8ff" d="M499.18,-134.57C486.94,-137.95 474.3,-141.43 462.46,-144.7"/>
<polygon fill="#63b8ff" stroke="#63b8ff" points="500.1,-137.95 508.81,-131.92 498.24,-131.2 500.1,-137.95"/>
</a>
</g>
</g>
<!-- Node11 -->
<g id="Node000011" class="node">
<title>Node11</title>
<g id="a_Node000011"><a xlink:href="class_data_base_g_u_i.html#aadcf1044a300a89dadd104cfadb9a1b1" target="_top" xlink:title="Views a lesson in the GUI.">
<polygon fill="white" stroke="#666666" points="474.75,-20 337.25,-20 337.25,0 474.75,0 474.75,-20"/>
<text text-anchor="middle" x="406" y="-6.5" font-family="Helvetica,sans-Serif" font-size="10.00">DataBaseGUI::lesson_view</text>
</a>
</g>
</g>
<!-- Node6&#45;&gt;Node11 -->
<g id="edge13_Node000006_Node000011" class="edge">
<title>Node6&#45;&gt;Node11</title>
<g id="a_edge13_Node000006_Node000011"><a xlink:title=" ">
<path fill="none" stroke="#63b8ff" d="M537.99,-92.87C520.26,-78.92 496.72,-61.16 474.75,-47 459.54,-37.2 441.53,-27.45 427.91,-20.42"/>
<polygon fill="#63b8ff" stroke="#63b8ff" points="535.51,-95.37 545.51,-98.84 539.86,-89.88 535.51,-95.37"/>
</a>
</g>
</g>
<!-- Node12 -->
<g id="Node000012" class="node">
<title>Node12</title>
<g id="a_Node000012"><a xlink:href="class_data_base_g_u_i.html#a438b5070d6a58ffa5e884d18740852c6" target="_top" xlink:title="Handles tab change events.">
<polygon fill="white" stroke="#666666" points="472.88,-126 339.12,-126 339.12,-106 472.88,-106 472.88,-126"/>
<text text-anchor="middle" x="406" y="-112.5" font-family="Helvetica,sans-Serif" font-size="10.00">DataBaseGUI::tab_change</text>
</a>
</g>
</g>
<!-- Node6&#45;&gt;Node12 -->
<g id="edge17_Node000006_Node000012" class="edge">
<title>Node6&#45;&gt;Node12</title>
<g id="a_edge17_Node000006_Node000012"><a xlink:title=" ">
<path fill="none" stroke="#63b8ff" d="M498.89,-116C490.44,-116 481.81,-116 473.37,-116"/>
<polygon fill="#63b8ff" stroke="#63b8ff" points="498.75,-119.5 508.75,-116 498.75,-112.5 498.75,-119.5"/>
</a>
</g>
</g>
<!-- Node7&#45;&gt;Node3 -->
<g id="edge7_Node000007_Node000003" class="edge">
<title>Node7&#45;&gt;Node3</title>
<g id="a_edge7_Node000007_Node000003"><a xlink:title=" ">
<path fill="none" stroke="#63b8ff" d="M328.13,-193.62C316.97,-192.11 305.69,-190.59 295.14,-189.16"/>
<polygon fill="#63b8ff" stroke="#63b8ff" points="327.34,-197.04 337.72,-194.91 328.28,-190.11 327.34,-197.04"/>
</a>
</g>
</g>
<!-- Node8&#45;&gt;Node1 -->
<g id="edge10_Node000008_Node000001" class="edge">
<title>Node8&#45;&gt;Node1</title>
<g id="a_edge10_Node000008_Node000001"><a xlink:title=" ">
<path fill="none" stroke="#63b8ff" d="M473.77,-76.7C529.01,-80.59 606.75,-86.07 659.88,-89.81"/>
<polygon fill="#63b8ff" stroke="#63b8ff" points="474.07,-73.21 463.85,-76 473.58,-80.2 474.07,-73.21"/>
</a>
</g>
</g>
<!-- Node9 -->
<g id="Node000009" class="node">
<title>Node9</title>
<g id="a_Node000009"><a xlink:href="class_data_base_g_u_i.html#a74e047889e913eae69ec40ec17f53c9d" target="_top" xlink:title="Populates the lessons tab with a multimap of lessons.">
<polygon fill="white" stroke="#666666" points="301.25,-57 181,-57 181,-25 301.25,-25 301.25,-57"/>
<text text-anchor="start" x="189" y="-43.5" font-family="Helvetica,sans-Serif" font-size="10.00">DataBaseGUI::populate</text>
<text text-anchor="middle" x="241.12" y="-31.5" font-family="Helvetica,sans-Serif" font-size="10.00">_lesson_tab</text>
</a>
</g>
</g>
<!-- Node8&#45;&gt;Node9 -->
<g id="edge9_Node000008_Node000009" class="edge">
<title>Node8&#45;&gt;Node9</title>
<g id="a_edge9_Node000008_Node000009"><a xlink:title=" ">
<path fill="none" stroke="#63b8ff" d="M338.76,-59.39C326.48,-57.06 313.73,-54.63 301.68,-52.33"/>
<polygon fill="#63b8ff" stroke="#63b8ff" points="337.89,-62.79 348.37,-61.22 339.2,-55.91 337.89,-62.79"/>
</a>
</g>
</g>
<!-- Node10&#45;&gt;Node3 -->
<g id="edge12_Node000010_Node000003" class="edge">
<title>Node10&#45;&gt;Node3</title>
<g id="a_edge12_Node000010_Node000003"><a xlink:title=" ">
<path fill="none" stroke="#63b8ff" d="M338.49,-168.98C324.11,-170.93 309.08,-172.96 295.28,-174.82"/>
<polygon fill="#63b8ff" stroke="#63b8ff" points="338.92,-172.46 348.36,-167.65 337.98,-165.52 338.92,-172.46"/>
</a>
</g>
</g>
<!-- Node11&#45;&gt;Node1 -->
<g id="edge16_Node000011_Node000001" class="edge">
<title>Node11&#45;&gt;Node1</title>
<g id="a_edge16_Node000011_Node000001"><a xlink:title=" ">
<path fill="none" stroke="#63b8ff" d="M456.94,-23.43C512.17,-38.28 601.09,-62.19 659.88,-78"/>
<polygon fill="#63b8ff" stroke="#63b8ff" points="458.05,-20.1 447.49,-20.89 456.24,-26.86 458.05,-20.1"/>
</a>
</g>
</g>
<!-- Node11&#45;&gt;Node9 -->
<g id="edge15_Node000011_Node000009" class="edge">
<title>Node11&#45;&gt;Node9</title>
<g id="a_edge15_Node000011_Node000009"><a xlink:title=" ">
<path fill="none" stroke="#63b8ff" d="M338.76,-22.61C326.48,-24.94 313.73,-27.37 301.68,-29.67"/>
<polygon fill="#63b8ff" stroke="#63b8ff" points="339.2,-26.09 348.37,-20.78 337.89,-19.21 339.2,-26.09"/>
</a>
</g>
</g>
<!-- Node11&#45;&gt;Node11 -->
<g id="edge14_Node000011_Node000011" class="edge">
<title>Node11&#45;&gt;Node11</title>
<g id="a_edge14_Node000011_Node000011"><a xlink:title=" ">
<path fill="none" stroke="#63b8ff" d="M434.54,-31.44C430.87,-35.3 421.35,-38 406,-38 377.93,-38 369.37,-28.98 380.34,-20.34"/>
<polygon fill="#63b8ff" stroke="#63b8ff" points="437.94,-30.6 432.04,-21.8 431.17,-32.36 437.94,-30.6"/>
</a>
</g>
</g>
<!-- Node12&#45;&gt;Node3 -->
<g id="edge18_Node000012_Node000003" class="edge">
<title>Node12&#45;&gt;Node3</title>
<g id="a_edge18_Node000012_Node000003"><a xlink:title=" ">
<path fill="none" stroke="#63b8ff" d="M352.44,-129.7C347.26,-131.36 342.13,-133.13 337.25,-135 309.73,-145.55 279.45,-161.27 260.61,-171.58"/>
<polygon fill="#63b8ff" stroke="#63b8ff" points="353.05,-133.17 361.59,-126.9 351.01,-126.47 353.05,-133.17"/>
</a>
</g>
</g>
</g>
</svg>
