<?xml version="1.0" encoding="UTF-8" standalone="no"?>
<!DOCTYPE svg PUBLIC "-//W3C//DTD SVG 1.1//EN"
 "http://www.w3.org/Graphics/SVG/1.1/DTD/svg11.dtd">
<!-- Generated by graphviz version 12.2.1 (20241206.2353)
 -->
<!-- Title: DataBaseGUI::populate_parent_tab Pages: 1 -->
<!--zoomable 609 -->

<svg id="main" version="1.1" xmlns="http://www.w3.org/2000/svg" xmlns:xlink="http://www.w3.org/1999/xlink" xml:space="preserve" onload="init(evt)">

<style type="text/css"><![CDATA[
.node, .edge {opacity: 0.7;}
.node.selected, .edge.selected {opacity: 1;}
.edge:hover path { stroke: red; }
.edge:hover polygon { stroke: red; fill: red; }
]]></style>

<defs>
  <circle id="rim" cx="0" cy="0" r="7"/>
  <circle id="rim2" cx="0" cy="0" r="3.5"/>
  <g id="zoomPlus">
    <use xlink:href="#rim" fill="#404040"><set attributeName="fill" to="#808080" begin="zoomplus.mouseover" end="zoomplus.mouseout"/></use>
    <path d="M-4,0h8M0,-4v8" fill="none" stroke="white" stroke-width="1.5" pointer-events="none"/>
  </g>
  <g id="zoomMin">
    <use xlink:href="#rim" fill="#404040"><set attributeName="fill" to="#808080" begin="zoomminus.mouseover" end="zoomminus.mouseout"/></use>
    <path d="M-4,0h8" fill="none" stroke="white" stroke-width="1.5" pointer-events="none"/>
  </g>
  <g id="arrowUp" transform="translate(30 24)">
    <use xlink:href="#rim"/>
    <path pointer-events="none" fill="none" stroke="white" stroke-width="1.5" d="M0,-3.0v7 M-2.5,-0.5L0,-3.0L2.5,-0.5"/>
  </g>
  <g id="arrowRight" transform="rotate(90) translate(36 -43)">
    <use xlink:href="#rim"/>
    <path pointer-events="none" fill="none" stroke="white" stroke-width="1.5" d="M0,-3.0v7 M-2.5,-0.5L0,-3.0L2.5,-0.5"/>
  </g>
  <g id="arrowDown" transform="rotate(180) translate(-30 -48)">
    <use xlink:href="#rim"/>
    <path pointer-events="none" fill="none" stroke="white" stroke-width="1.5" d="M0,-3.0v7 M-2.5,-0.5L0,-3.0L2.5,-0.5"/>
  </g>
  <g id="arrowLeft" transform="rotate(270) translate(-36 17)">
    <use xlink:href="#rim"/>
    <path pointer-events="none" fill="none" stroke="white" stroke-width="1.5" d="M0,-3.0v7 M-2.5,-0.5L0,-3.0L2.5,-0.5"/>
  </g>
  <g id="resetDef">
    <use xlink:href="#rim2" fill="#404040"><set attributeName="fill" to="#808080" begin="reset.mouseover" end="reset.mouseout"/></use>
  </g>
</defs>
<script type="application/ecmascript">
var viewWidth = 1236;
var viewHeight = 609;
var sectionId = 'dynsection-62';
</script>
<script type="application/ecmascript" xlink:href="svg.min.js"/>
<svg id="graph" class="graph">
<g id="viewport">
<title>DataBaseGUI::populate_parent_tab</title>
<!-- Node1 -->
<g id="Node000001" class="node">
<title>Node1</title>
<g id="a_Node000001"><a xlink:title="Populates the parent tab with a list of parents.">
<polygon fill="#999999" stroke="#666666" points="1228.25,-120 1108,-120 1108,-88 1228.25,-88 1228.25,-120"/>
<text text-anchor="start" x="1116" y="-106.5" font-family="Helvetica,sans-Serif" font-size="10.00">DataBaseGUI::populate</text>
<text text-anchor="middle" x="1168.12" y="-94.5" font-family="Helvetica,sans-Serif" font-size="10.00">_parent_tab</text>
</a>
</g>
</g>
<!-- Node2 -->
<g id="Node000002" class="node">
<title>Node2</title>
<g id="a_Node000002"><a xlink:href="class_data_base_g_u_i.html#a7c3d843eec449d8a4ec5ce6bf0375358" target="_top" xlink:title="Searches for parents based on the provided name and surname.">
<polygon fill="white" stroke="#666666" points="1072,-249 961.5,-249 961.5,-217 1072,-217 1072,-249"/>
<text text-anchor="start" x="969.5" y="-235.5" font-family="Helvetica,sans-Serif" font-size="10.00">DataBaseGUI::parent</text>
<text text-anchor="middle" x="1016.75" y="-223.5" font-family="Helvetica,sans-Serif" font-size="10.00">_search</text>
</a>
</g>
</g>
<!-- Node1&#45;&gt;Node2 -->
<g id="edge1_Node000001_Node000002" class="edge">
<title>Node1&#45;&gt;Node2</title>
<g id="a_edge1_Node000001_Node000002"><a xlink:title=" ">
<path fill="none" stroke="#63b8ff" d="M1139.49,-127.86C1109.51,-153.75 1062.47,-194.38 1036.51,-216.79"/>
<polygon fill="#63b8ff" stroke="#63b8ff" points="1141.78,-130.51 1147.06,-121.33 1137.21,-125.21 1141.78,-130.51"/>
</a>
</g>
</g>
<!-- Node19 -->
<g id="Node000019" class="node">
<title>Node19</title>
<g id="a_Node000019"><a xlink:href="class_data_base_g_u_i.html#a625b5e2018395a458ff517bbf364e1bf" target="_top" xlink:title="Selects the appropriate sorting to use based on parent sort index.">
<polygon fill="white" stroke="#666666" points="621.62,-167 508.12,-167 508.12,-135 621.62,-135 621.62,-167"/>
<text text-anchor="start" x="516.12" y="-153.5" font-family="Helvetica,sans-Serif" font-size="10.00">DataBaseGUI::sort_to</text>
<text text-anchor="middle" x="564.88" y="-141.5" font-family="Helvetica,sans-Serif" font-size="10.00">_populate_parent_tab</text>
</a>
</g>
</g>
<!-- Node1&#45;&gt;Node19 -->
<g id="edge29_Node000001_Node000019" class="edge">
<title>Node1&#45;&gt;Node19</title>
<g id="a_edge29_Node000001_Node000019"><a xlink:title=" ">
<path fill="none" stroke="#63b8ff" d="M1096.45,-115.05C1088.22,-116.14 1079.93,-117.16 1072,-118 908.91,-135.29 715.23,-144.89 621.8,-148.84"/>
<polygon fill="#63b8ff" stroke="#63b8ff" points="1096.67,-118.55 1106.1,-113.72 1095.71,-111.62 1096.67,-118.55"/>
</a>
</g>
</g>
<!-- Node3 -->
<g id="Node000003" class="node">
<title>Node3</title>
<g id="a_Node000003"><a xlink:href="class_data_base_g_u_i.html#a8e1fe573ef6a09e112989968ec1a2b43" target="_top" xlink:title="Searches for parents based on the provided parent pointer.">
<polygon fill="white" stroke="#666666" points="925.5,-473 815,-473 815,-441 925.5,-441 925.5,-473"/>
<text text-anchor="start" x="823" y="-459.5" font-family="Helvetica,sans-Serif" font-size="10.00">DataBaseGUI::parent</text>
<text text-anchor="middle" x="870.25" y="-447.5" font-family="Helvetica,sans-Serif" font-size="10.00">_search_by_pointer</text>
</a>
</g>
</g>
<!-- Node2&#45;&gt;Node3 -->
<g id="edge2_Node000002_Node000003" class="edge">
<title>Node2&#45;&gt;Node3</title>
<g id="a_edge2_Node000002_Node000003"><a xlink:title=" ">
<path fill="none" stroke="#63b8ff" d="M999.07,-258.86C969.06,-305.37 906.8,-401.89 881.89,-440.5"/>
<polygon fill="#63b8ff" stroke="#63b8ff" points="1001.82,-261.04 1004.3,-250.74 995.94,-257.25 1001.82,-261.04"/>
</a>
</g>
</g>
<!-- Node9 -->
<g id="Node000009" class="node">
<title>Node9</title>
<g id="a_Node000009"><a xlink:href="class_data_base_g_u_i.html#a6c35e47ed05a80db144f240dee805a9d" target="_top" xlink:title="Sets up the GUI.">
<polygon fill="white" stroke="#666666" points="294.88,-322 187.38,-322 187.38,-302 294.88,-302 294.88,-322"/>
<text text-anchor="middle" x="241.12" y="-308.5" font-family="Helvetica,sans-Serif" font-size="10.00">DataBaseGUI::setup</text>
</a>
</g>
</g>
<!-- Node2&#45;&gt;Node9 -->
<g id="edge28_Node000002_Node000009" class="edge">
<title>Node2&#45;&gt;Node9</title>
<g id="a_edge28_Node000002_Node000009"><a xlink:title=" ">
<path fill="none" stroke="#63b8ff" d="M949.72,-230.27C827.07,-226.82 556.6,-226.83 337.25,-281 314.49,-286.62 289.28,-294.94 270.53,-301.54"/>
<polygon fill="#63b8ff" stroke="#63b8ff" points="949.51,-233.77 959.61,-230.57 949.72,-226.77 949.51,-233.77"/>
</a>
</g>
</g>
<!-- Node4 -->
<g id="Node000004" class="node">
<title>Node4</title>
<g id="a_Node000004"><a xlink:href="class_data_base_g_u_i.html#a334c0011a9d3a71539b326a888feccd3" target="_top" xlink:title="Populates the children tab with a multimap of children.">
<polygon fill="white" stroke="#666666" points="301.25,-592 181,-592 181,-560 301.25,-560 301.25,-592"/>
<text text-anchor="start" x="189" y="-578.5" font-family="Helvetica,sans-Serif" font-size="10.00">DataBaseGUI::populate</text>
<text text-anchor="middle" x="241.12" y="-566.5" font-family="Helvetica,sans-Serif" font-size="10.00">_children_tab</text>
</a>
</g>
</g>
<!-- Node3&#45;&gt;Node4 -->
<g id="edge3_Node000003_Node000004" class="edge">
<title>Node3&#45;&gt;Node4</title>
<g id="a_edge3_Node000003_Node000004"><a xlink:title=" ">
<path fill="none" stroke="#63b8ff" d="M824.48,-478.07C752.11,-510.85 604.08,-572.6 471,-595 412.38,-604.87 396.41,-600.85 337.25,-595 325.69,-593.86 313.45,-591.95 301.73,-589.77"/>
<polygon fill="#63b8ff" stroke="#63b8ff" points="825.57,-481.42 833.22,-474.09 822.67,-475.05 825.57,-481.42"/>
</a>
</g>
</g>
<!-- Node5 -->
<g id="Node000005" class="node">
<title>Node5</title>
<g id="a_Node000005"><a xlink:href="class_data_base_g_u_i.html#af346d08370d9e4574980707f61b9c8f7" target="_top" xlink:title="Populates the children tab with a list of children.">
<polygon fill="white" stroke="#666666" points="779,-473 658.75,-473 658.75,-441 779,-441 779,-473"/>
<text text-anchor="start" x="666.75" y="-459.5" font-family="Helvetica,sans-Serif" font-size="10.00">DataBaseGUI::populate</text>
<text text-anchor="middle" x="718.88" y="-447.5" font-family="Helvetica,sans-Serif" font-size="10.00">_children_tab</text>
</a>
</g>
</g>
<!-- Node3&#45;&gt;Node5 -->
<g id="edge4_Node000003_Node000005" class="edge">
<title>Node3&#45;&gt;Node5</title>
<g id="a_edge4_Node000003_Node000005"><a xlink:title=" ">
<path fill="none" stroke="#63b8ff" d="M803.66,-457C795.62,-457 787.43,-457 779.48,-457"/>
<polygon fill="#63b8ff" stroke="#63b8ff" points="803.39,-460.5 813.39,-457 803.39,-453.5 803.39,-460.5"/>
</a>
</g>
</g>
<!-- Node6 -->
<g id="Node000006" class="node">
<title>Node6</title>
<g id="a_Node000006"><a xlink:href="class_data_base_g_u_i.html#a2d921da686e76ae195da018bb735a1ae" target="_top" xlink:title="Searches for children based on the provided name and surname.">
<polygon fill="white" stroke="#666666" points="616.75,-293 513,-293 513,-261 616.75,-261 616.75,-293"/>
<text text-anchor="start" x="521" y="-279.5" font-family="Helvetica,sans-Serif" font-size="10.00">DataBaseGUI::child</text>
<text text-anchor="middle" x="564.88" y="-267.5" font-family="Helvetica,sans-Serif" font-size="10.00">_search</text>
</a>
</g>
</g>
<!-- Node5&#45;&gt;Node6 -->
<g id="edge5_Node000005_Node000006" class="edge">
<title>Node5&#45;&gt;Node6</title>
<g id="a_edge5_Node000005_Node000006"><a xlink:title=" ">
<path fill="none" stroke="#63b8ff" d="M706.35,-430.54C691.13,-398.07 661.63,-342.9 622.75,-307 617.17,-301.85 610.54,-297.32 603.82,-293.44"/>
<polygon fill="#63b8ff" stroke="#63b8ff" points="702.99,-431.61 710.33,-439.25 709.36,-428.7 702.99,-431.61"/>
</a>
</g>
</g>
<!-- Node5&#45;&gt;Node9 -->
<g id="edge12_Node000005_Node000009" class="edge">
<title>Node5&#45;&gt;Node9</title>
<g id="a_edge12_Node000005_Node000009"><a xlink:title=" ">
<path fill="none" stroke="#63b8ff" d="M684.18,-434.38C638.22,-404.83 552.28,-354.14 471,-331 412.33,-314.3 342.03,-310.77 294.97,-310.64"/>
<polygon fill="#63b8ff" stroke="#63b8ff" points="682.07,-437.18 692.36,-439.7 685.88,-431.31 682.07,-437.18"/>
</a>
</g>
</g>
<!-- Node12 -->
<g id="Node000012" class="node">
<title>Node12</title>
<g id="a_Node000012"><a xlink:href="class_data_base_g_u_i.html#aa684465aa73b5b34bbadd24fc7f2f641" target="_top" xlink:title="Selects the appropriate sorting to use based on child sort index.">
<polygon fill="white" stroke="#666666" points="622.75,-473 507,-473 507,-441 622.75,-441 622.75,-473"/>
<text text-anchor="start" x="515" y="-459.5" font-family="Helvetica,sans-Serif" font-size="10.00">DataBaseGUI::sort_to</text>
<text text-anchor="middle" x="564.88" y="-447.5" font-family="Helvetica,sans-Serif" font-size="10.00">_populate_children_tab</text>
</a>
</g>
</g>
<!-- Node5&#45;&gt;Node12 -->
<g id="edge13_Node000005_Node000012" class="edge">
<title>Node5&#45;&gt;Node12</title>
<g id="a_edge13_Node000005_Node000012"><a xlink:title=" ">
<path fill="none" stroke="#63b8ff" d="M647.33,-457C639.23,-457 631.06,-457 623.17,-457"/>
<polygon fill="#63b8ff" stroke="#63b8ff" points="647.16,-460.5 657.16,-457 647.16,-453.5 647.16,-460.5"/>
</a>
</g>
</g>
<!-- Node7 -->
<g id="Node000007" class="node">
<title>Node7</title>
<g id="a_Node000007"><a xlink:href="class_data_base_g_u_i.html#aadb0e7d323a970603312695c0dd9b264" target="_top" xlink:title="Searches for children based on the provided child pointer.">
<polygon fill="white" stroke="#666666" points="456,-120 352.25,-120 352.25,-88 456,-88 456,-120"/>
<text text-anchor="start" x="360.25" y="-106.5" font-family="Helvetica,sans-Serif" font-size="10.00">DataBaseGUI::child</text>
<text text-anchor="middle" x="404.12" y="-94.5" font-family="Helvetica,sans-Serif" font-size="10.00">_search_by_pointer</text>
</a>
</g>
</g>
<!-- Node6&#45;&gt;Node7 -->
<g id="edge6_Node000006_Node000007" class="edge">
<title>Node6&#45;&gt;Node7</title>
<g id="a_edge6_Node000006_Node000007"><a xlink:title=" ">
<path fill="none" stroke="#63b8ff" d="M550.09,-250.81C529.86,-213.17 492.23,-146.4 471,-129 466.55,-125.36 461.52,-122.21 456.26,-119.49"/>
<polygon fill="#63b8ff" stroke="#63b8ff" points="546.8,-252.07 554.6,-259.25 552.98,-248.78 546.8,-252.07"/>
</a>
</g>
</g>
<!-- Node6&#45;&gt;Node9 -->
<g id="edge9_Node000006_Node000009" class="edge">
<title>Node6&#45;&gt;Node9</title>
<g id="a_edge9_Node000006_Node000009"><a xlink:title=" ">
<path fill="none" stroke="#63b8ff" d="M501.75,-281.85C456.15,-285.63 392.77,-291.35 337.25,-298 323.49,-299.65 308.66,-301.7 294.89,-303.72"/>
<polygon fill="#63b8ff" stroke="#63b8ff" points="501.75,-285.36 511.43,-281.06 501.18,-278.39 501.75,-285.36"/>
</a>
</g>
</g>
<!-- Node7&#45;&gt;Node1 -->
<g id="edge8_Node000007_Node000001" class="edge">
<title>Node7&#45;&gt;Node1</title>
<g id="a_edge8_Node000007_Node000001"><a xlink:title=" ">
<path fill="none" stroke="#63b8ff" d="M467.66,-104C530.8,-104 631.11,-104 717.88,-104 871.25,-104 871.25,-104 871.25,-104 953.18,-104 1047.87,-104 1107.62,-104"/>
<polygon fill="#63b8ff" stroke="#63b8ff" points="467.83,-100.5 457.83,-104 467.83,-107.5 467.83,-100.5"/>
</a>
</g>
</g>
<!-- Node8 -->
<g id="Node000008" class="node">
<title>Node8</title>
<g id="a_Node000008"><a xlink:href="class_data_base_g_u_i.html#a33f2f95926f7b4b05227dcf395e235d3" target="_top" xlink:title="Populates the parent tab with a multimap of parents.">
<polygon fill="white" stroke="#666666" points="301.25,-76 181,-76 181,-44 301.25,-44 301.25,-76"/>
<text text-anchor="start" x="189" y="-62.5" font-family="Helvetica,sans-Serif" font-size="10.00">DataBaseGUI::populate</text>
<text text-anchor="middle" x="241.12" y="-50.5" font-family="Helvetica,sans-Serif" font-size="10.00">_parent_tab</text>
</a>
</g>
</g>
<!-- Node7&#45;&gt;Node8 -->
<g id="edge7_Node000007_Node000008" class="edge">
<title>Node7&#45;&gt;Node8</title>
<g id="a_edge7_Node000007_Node000008"><a xlink:title=" ">
<path fill="none" stroke="#63b8ff" d="M341.44,-87.14C328.41,-83.58 314.68,-79.83 301.73,-76.29"/>
<polygon fill="#63b8ff" stroke="#63b8ff" points="340.15,-90.42 350.72,-89.68 342,-83.67 340.15,-90.42"/>
</a>
</g>
</g>
<!-- Node10 -->
<g id="Node000010" class="node">
<title>Node10</title>
<g id="a_Node000010"><a xlink:href="class_data_base_g_u_i.html#a2c83afe3a30fb5166d275d9a74d33196" target="_top" xlink:title="Default constructor.">
<polygon fill="white" stroke="#666666" points="145,-341 0,-341 0,-321 145,-321 145,-341"/>
<text text-anchor="middle" x="72.5" y="-327.5" font-family="Helvetica,sans-Serif" font-size="10.00">DataBaseGUI::DataBaseGUI</text>
</a>
</g>
</g>
<!-- Node9&#45;&gt;Node10 -->
<g id="edge10_Node000009_Node000010" class="edge">
<title>Node9&#45;&gt;Node10</title>
<g id="a_edge10_Node000009_Node000010"><a xlink:title=" ">
<path fill="none" stroke="#63b8ff" d="M175.53,-319.37C165.64,-320.49 155.37,-321.67 145.32,-322.81"/>
<polygon fill="#63b8ff" stroke="#63b8ff" points="175.9,-322.85 185.44,-318.24 175.11,-315.89 175.9,-322.85"/>
</a>
</g>
</g>
<!-- Node11 -->
<g id="Node000011" class="node">
<title>Node11</title>
<g id="a_Node000011"><a xlink:href="class_data_base_g_u_i.html#aba10d1d8e9fb151632ff34de418cee82" target="_top" xlink:title="Constructs a DataBaseGUI object.">
<polygon fill="white" stroke="#666666" points="145,-303 0,-303 0,-283 145,-283 145,-303"/>
<text text-anchor="middle" x="72.5" y="-289.5" font-family="Helvetica,sans-Serif" font-size="10.00">DataBaseGUI::DataBaseGUI</text>
</a>
</g>
</g>
<!-- Node9&#45;&gt;Node11 -->
<g id="edge11_Node000009_Node000011" class="edge">
<title>Node9&#45;&gt;Node11</title>
<g id="a_edge11_Node000009_Node000011"><a xlink:title=" ">
<path fill="none" stroke="#63b8ff" d="M175.53,-304.63C165.64,-303.51 155.37,-302.33 145.32,-301.19"/>
<polygon fill="#63b8ff" stroke="#63b8ff" points="175.11,-308.11 185.44,-305.76 175.9,-301.15 175.11,-308.11"/>
</a>
</g>
</g>
<!-- Node13 -->
<g id="Node000013" class="node">
<title>Node13</title>
<g id="a_Node000013"><a xlink:href="class_data_base_g_u_i.html#a00f9044d3b8dd9c5dada244dac1b0df6" target="_top" xlink:title="Adds a new child to the database.">
<polygon fill="white" stroke="#666666" points="466.5,-398 341.75,-398 341.75,-378 466.5,-378 466.5,-398"/>
<text text-anchor="middle" x="404.12" y="-384.5" font-family="Helvetica,sans-Serif" font-size="10.00">DataBaseGUI::child_add</text>
</a>
</g>
</g>
<!-- Node12&#45;&gt;Node13 -->
<g id="edge14_Node000012_Node000013" class="edge">
<title>Node12&#45;&gt;Node13</title>
<g id="a_edge14_Node000012_Node000013"><a xlink:title=" ">
<path fill="none" stroke="#63b8ff" d="M527.08,-434.85C510.37,-425.4 490.1,-414.79 471,-407 463.18,-403.81 454.62,-400.92 446.35,-398.43"/>
<polygon fill="#63b8ff" stroke="#63b8ff" points="525.26,-437.84 535.67,-439.79 528.75,-431.77 525.26,-437.84"/>
</a>
</g>
</g>
<!-- Node14 -->
<g id="Node000014" class="node">
<title>Node14</title>
<g id="a_Node000014"><a xlink:href="class_data_base_g_u_i.html#acb6c6b292e58d0ead30682f7f5705244" target="_top" xlink:title="Edits an existing child in the database.">
<polygon fill="white" stroke="#666666" points="466.5,-586 341.75,-586 341.75,-566 466.5,-566 466.5,-586"/>
<text text-anchor="middle" x="404.12" y="-572.5" font-family="Helvetica,sans-Serif" font-size="10.00">DataBaseGUI::child_edit</text>
</a>
</g>
</g>
<!-- Node12&#45;&gt;Node14 -->
<g id="edge16_Node000012_Node000014" class="edge">
<title>Node12&#45;&gt;Node14</title>
<g id="a_edge16_Node000012_Node000014"><a xlink:title=" ">
<path fill="none" stroke="#63b8ff" d="M546.48,-482.48C529.68,-505.21 502.25,-537.77 471,-557 465.42,-560.43 459.2,-563.26 452.87,-565.6"/>
<polygon fill="#63b8ff" stroke="#63b8ff" points="549.12,-484.8 552.12,-474.64 543.44,-480.71 549.12,-484.8"/>
</a>
</g>
</g>
<!-- Node15 -->
<g id="Node000015" class="node">
<title>Node15</title>
<g id="a_Node000015"><a xlink:href="class_data_base_g_u_i.html#ae3a08843db874e51a7cea32fa8937ca5" target="_top" xlink:title="Removes a child from the database.">
<polygon fill="white" stroke="#666666" points="456,-548 352.25,-548 352.25,-516 456,-516 456,-548"/>
<text text-anchor="start" x="360.25" y="-534.5" font-family="Helvetica,sans-Serif" font-size="10.00">DataBaseGUI::child</text>
<text text-anchor="middle" x="404.12" y="-522.5" font-family="Helvetica,sans-Serif" font-size="10.00">_remove</text>
</a>
</g>
</g>
<!-- Node12&#45;&gt;Node15 -->
<g id="edge19_Node000012_Node000015" class="edge">
<title>Node12&#45;&gt;Node15</title>
<g id="a_edge19_Node000012_Node000015"><a xlink:title=" ">
<path fill="none" stroke="#63b8ff" d="M526.02,-478.83C509.4,-488.04 489.49,-498.56 471,-507 464.55,-509.95 457.64,-512.84 450.81,-515.56"/>
<polygon fill="#63b8ff" stroke="#63b8ff" points="527.57,-481.98 534.59,-474.04 524.15,-475.87 527.57,-481.98"/>
</a>
</g>
</g>
<!-- Node16 -->
<g id="Node000016" class="node">
<title>Node16</title>
<g id="a_Node000016"><a xlink:href="class_data_base_g_u_i.html#a2e6d3629f679c153cdd21b683ce794a1" target="_top" xlink:title="Changes the sorting method for children.">
<polygon fill="white" stroke="#666666" points="456,-498 352.25,-498 352.25,-466 456,-466 456,-498"/>
<text text-anchor="start" x="360.25" y="-484.5" font-family="Helvetica,sans-Serif" font-size="10.00">DataBaseGUI::child</text>
<text text-anchor="middle" x="404.12" y="-472.5" font-family="Helvetica,sans-Serif" font-size="10.00">_sort_change</text>
</a>
</g>
</g>
<!-- Node12&#45;&gt;Node16 -->
<g id="edge22_Node000012_Node000016" class="edge">
<title>Node12&#45;&gt;Node16</title>
<g id="a_edge22_Node000012_Node000016"><a xlink:title=" ">
<path fill="none" stroke="#63b8ff" d="M495.22,-467.81C482.16,-469.87 468.7,-471.99 456.3,-473.94"/>
<polygon fill="#63b8ff" stroke="#63b8ff" points="495.73,-471.27 505.07,-466.26 494.64,-464.36 495.73,-471.27"/>
</a>
</g>
</g>
<!-- Node17 -->
<g id="Node000017" class="node">
<title>Node17</title>
<g id="a_Node000017"><a xlink:href="class_data_base_g_u_i.html#a20d1ece0affaa1f5b6876ee072dd2ab1" target="_top" xlink:title="Imports a database from a file.">
<polygon fill="white" stroke="#666666" points="459.38,-448 348.88,-448 348.88,-416 459.38,-416 459.38,-448"/>
<text text-anchor="start" x="356.88" y="-434.5" font-family="Helvetica,sans-Serif" font-size="10.00">DataBaseGUI::import</text>
<text text-anchor="middle" x="404.12" y="-422.5" font-family="Helvetica,sans-Serif" font-size="10.00">_database</text>
</a>
</g>
</g>
<!-- Node12&#45;&gt;Node17 -->
<g id="edge24_Node000012_Node000017" class="edge">
<title>Node12&#45;&gt;Node17</title>
<g id="a_edge24_Node000012_Node000017"><a xlink:title=" ">
<path fill="none" stroke="#63b8ff" d="M495.29,-446.2C483.39,-444.33 471.16,-442.4 459.7,-440.59"/>
<polygon fill="#63b8ff" stroke="#63b8ff" points="494.64,-449.64 505.07,-447.74 495.73,-442.73 494.64,-449.64"/>
</a>
</g>
</g>
<!-- Node18 -->
<g id="Node000018" class="node">
<title>Node18</title>
<g id="a_Node000018"><a xlink:href="class_data_base_g_u_i.html#a438b5070d6a58ffa5e884d18740852c6" target="_top" xlink:title="Handles tab change events.">
<polygon fill="white" stroke="#666666" points="471,-360 337.25,-360 337.25,-340 471,-340 471,-360"/>
<text text-anchor="middle" x="404.12" y="-346.5" font-family="Helvetica,sans-Serif" font-size="10.00">DataBaseGUI::tab_change</text>
</a>
</g>
</g>
<!-- Node12&#45;&gt;Node18 -->
<g id="edge26_Node000012_Node000018" class="edge">
<title>Node12&#45;&gt;Node18</title>
<g id="a_edge26_Node000012_Node000018"><a xlink:title=" ">
<path fill="none" stroke="#63b8ff" d="M543.57,-432.06C526.22,-412.29 499.59,-385.36 471,-369 465.11,-365.63 458.58,-362.82 451.98,-360.49"/>
<polygon fill="#63b8ff" stroke="#63b8ff" points="540.71,-434.11 549.88,-439.43 546.03,-429.55 540.71,-434.11"/>
</a>
</g>
</g>
<!-- Node13&#45;&gt;Node9 -->
<g id="edge15_Node000013_Node000009" class="edge">
<title>Node13&#45;&gt;Node9</title>
<g id="a_edge15_Node000013_Node000009"><a xlink:title=" ">
<path fill="none" stroke="#63b8ff" d="M349.91,-373.96C345.58,-372.42 341.31,-370.77 337.25,-369 307.06,-355.87 274.76,-334.85 256.64,-322.34"/>
<polygon fill="#63b8ff" stroke="#63b8ff" points="348.7,-377.24 359.3,-377.06 350.9,-370.6 348.7,-377.24"/>
</a>
</g>
</g>
<!-- Node14&#45;&gt;Node4 -->
<g id="edge17_Node000014_Node000004" class="edge">
<title>Node14&#45;&gt;Node4</title>
<g id="a_edge17_Node000014_Node000004"><a xlink:title=" ">
<path fill="none" stroke="#63b8ff" d="M329.9,-576C320.43,-576 310.83,-576 301.63,-576"/>
<polygon fill="#63b8ff" stroke="#63b8ff" points="329.83,-579.5 339.83,-576 329.83,-572.5 329.83,-579.5"/>
</a>
</g>
</g>
<!-- Node14&#45;&gt;Node5 -->
<g id="edge18_Node000014_Node000005" class="edge">
<title>Node14&#45;&gt;Node5</title>
<g id="a_edge18_Node000014_Node000005"><a xlink:title=" ">
<path fill="none" stroke="#63b8ff" d="M452.93,-562.37C459.02,-560.59 465.16,-558.77 471,-557 538.71,-536.53 557.69,-536.76 622.75,-509 646.64,-498.81 672.42,-484.49 691.1,-473.46"/>
<polygon fill="#63b8ff" stroke="#63b8ff" points="452.18,-558.94 443.56,-565.09 454.14,-565.66 452.18,-558.94"/>
</a>
</g>
</g>
<!-- Node15&#45;&gt;Node4 -->
<g id="edge20_Node000015_Node000004" class="edge">
<title>Node15&#45;&gt;Node4</title>
<g id="a_edge20_Node000015_Node000004"><a xlink:title=" ">
<path fill="none" stroke="#63b8ff" d="M341.44,-548.86C328.41,-552.42 314.68,-556.17 301.73,-559.71"/>
<polygon fill="#63b8ff" stroke="#63b8ff" points="342,-552.33 350.72,-546.32 340.15,-545.58 342,-552.33"/>
</a>
</g>
</g>
<!-- Node15&#45;&gt;Node5 -->
<g id="edge21_Node000015_Node000005" class="edge">
<title>Node15&#45;&gt;Node5</title>
<g id="a_edge21_Node000015_Node000005"><a xlink:title=" ">
<path fill="none" stroke="#63b8ff" d="M467.24,-518.27C510.84,-508.5 570.46,-494.87 622.75,-482 634.27,-479.16 646.55,-476.02 658.32,-472.96"/>
<polygon fill="#63b8ff" stroke="#63b8ff" points="466.71,-514.8 457.72,-520.4 468.24,-521.63 466.71,-514.8"/>
</a>
</g>
</g>
<!-- Node16&#45;&gt;Node9 -->
<g id="edge23_Node000016_Node000009" class="edge">
<title>Node16&#45;&gt;Node9</title>
<g id="a_edge23_Node000016_Node000009"><a xlink:title=" ">
<path fill="none" stroke="#63b8ff" d="M342.52,-460.85C340.69,-459.63 338.93,-458.35 337.25,-457 289.12,-418.36 257.07,-348.62 246.22,-322.37"/>
<polygon fill="#63b8ff" stroke="#63b8ff" points="340.35,-463.64 350.75,-465.65 343.88,-457.59 340.35,-463.64"/>
</a>
</g>
</g>
<!-- Node17&#45;&gt;Node9 -->
<g id="edge25_Node000017_Node000009" class="edge">
<title>Node17&#45;&gt;Node9</title>
<g id="a_edge25_Node000017_Node000009"><a xlink:title=" ">
<path fill="none" stroke="#63b8ff" d="M342.98,-410.45C341.01,-409.35 339.1,-408.2 337.25,-407 299.61,-382.68 264.92,-341.4 249.93,-322.28"/>
<polygon fill="#63b8ff" stroke="#63b8ff" points="341.25,-413.5 351.75,-414.93 344.43,-407.27 341.25,-413.5"/>
</a>
</g>
</g>
<!-- Node18&#45;&gt;Node9 -->
<g id="edge27_Node000018_Node000009" class="edge">
<title>Node18&#45;&gt;Node9</title>
<g id="a_edge27_Node000018_Node000009"><a xlink:title=" ">
<path fill="none" stroke="#63b8ff" d="M347.56,-336.88C327.57,-332.17 305.3,-326.91 286.4,-322.45"/>
<polygon fill="#63b8ff" stroke="#63b8ff" points="346.7,-340.28 357.23,-339.17 348.3,-333.46 346.7,-340.28"/>
</a>
</g>
</g>
<!-- Node19&#45;&gt;Node18 -->
<g id="edge40_Node000019_Node000018" class="edge">
<title>Node19&#45;&gt;Node18</title>
<g id="a_edge40_Node000019_Node000018"><a xlink:title=" ">
<path fill="none" stroke="#63b8ff" d="M543.77,-176.2C508.66,-220.22 437.61,-309.28 413.41,-339.61"/>
<polygon fill="#63b8ff" stroke="#63b8ff" points="546.44,-178.47 549.94,-168.47 540.97,-174.1 546.44,-178.47"/>
</a>
</g>
</g>
<!-- Node20 -->
<g id="Node000020" class="node">
<title>Node20</title>
<g id="a_Node000020"><a xlink:href="class_data_base_g_u_i.html#a336fa47d9a9e56d585d82f53d33e8593" target="_top" xlink:title="Adds a new parent to the database.">
<polygon fill="white" stroke="#666666" points="469.88,-208 338.38,-208 338.38,-188 469.88,-188 469.88,-208"/>
<text text-anchor="middle" x="404.12" y="-194.5" font-family="Helvetica,sans-Serif" font-size="10.00">DataBaseGUI::parent_add</text>
</a>
</g>
</g>
<!-- Node19&#45;&gt;Node20 -->
<g id="edge30_Node000019_Node000020" class="edge">
<title>Node19&#45;&gt;Node20</title>
<g id="a_edge30_Node000019_Node000020"><a xlink:title=" ">
<path fill="none" stroke="#63b8ff" d="M498.98,-170.67C489.6,-173.49 480.06,-176.33 471,-179 461.52,-181.79 451.27,-184.77 441.73,-187.53"/>
<polygon fill="#63b8ff" stroke="#63b8ff" points="499.87,-174.06 508.44,-167.83 497.85,-167.36 499.87,-174.06"/>
</a>
</g>
</g>
<!-- Node21 -->
<g id="Node000021" class="node">
<title>Node21</title>
<g id="a_Node000021"><a xlink:href="class_data_base_g_u_i.html#a5b049fb9e0e5d78c4c2e81e569b471f9" target="_top" xlink:title="Edits an existing parent in the database.">
<polygon fill="white" stroke="#666666" points="469.88,-70 338.38,-70 338.38,-50 469.88,-50 469.88,-70"/>
<text text-anchor="middle" x="404.12" y="-56.5" font-family="Helvetica,sans-Serif" font-size="10.00">DataBaseGUI::parent_edit</text>
</a>
</g>
</g>
<!-- Node19&#45;&gt;Node21 -->
<g id="edge32_Node000019_Node000021" class="edge">
<title>Node19&#45;&gt;Node21</title>
<g id="a_edge32_Node000019_Node000021"><a xlink:title=" ">
<path fill="none" stroke="#63b8ff" d="M539.01,-127.46C521.26,-111.78 496.17,-91.79 471,-79 464.42,-75.66 457.16,-72.82 449.95,-70.44"/>
<polygon fill="#63b8ff" stroke="#63b8ff" points="536.2,-129.65 545.97,-133.75 540.89,-124.45 536.2,-129.65"/>
</a>
</g>
</g>
<!-- Node22 -->
<g id="Node000022" class="node">
<title>Node22</title>
<g id="a_Node000022"><a xlink:href="class_data_base_g_u_i.html#ad8a42f24cdb603ba85c1cdd4ea2e73a4" target="_top" xlink:title="Removes a parent from the database.">
<polygon fill="white" stroke="#666666" points="459.38,-32 348.88,-32 348.88,0 459.38,0 459.38,-32"/>
<text text-anchor="start" x="356.88" y="-18.5" font-family="Helvetica,sans-Serif" font-size="10.00">DataBaseGUI::parent</text>
<text text-anchor="middle" x="404.12" y="-6.5" font-family="Helvetica,sans-Serif" font-size="10.00">_remove</text>
</a>
</g>
</g>
<!-- Node19&#45;&gt;Node22 -->
<g id="edge35_Node000019_Node000022" class="edge">
<title>Node19&#45;&gt;Node22</title>
<g id="a_edge35_Node000019_Node000022"><a xlink:title=" ">
<path fill="none" stroke="#63b8ff" d="M547.7,-125.11C531.12,-100.47 503.27,-63.85 471,-41 466.51,-37.82 461.56,-34.98 456.45,-32.47"/>
<polygon fill="#63b8ff" stroke="#63b8ff" points="544.64,-126.84 553.06,-133.28 550.5,-123 544.64,-126.84"/>
</a>
</g>
</g>
<!-- Node23 -->
<g id="Node000023" class="node">
<title>Node23</title>
<g id="a_Node000023"><a xlink:href="class_data_base_g_u_i.html#a783bdf1d65998f887dd6445741450480" target="_top" xlink:title="Changes the sorting method for parents.">
<polygon fill="white" stroke="#666666" points="459.38,-170 348.88,-170 348.88,-138 459.38,-138 459.38,-170"/>
<text text-anchor="start" x="356.88" y="-156.5" font-family="Helvetica,sans-Serif" font-size="10.00">DataBaseGUI::parent</text>
<text text-anchor="middle" x="404.12" y="-144.5" font-family="Helvetica,sans-Serif" font-size="10.00">_sort_change</text>
</a>
</g>
</g>
<!-- Node19&#45;&gt;Node23 -->
<g id="edge38_Node000019_Node000023" class="edge">
<title>Node19&#45;&gt;Node23</title>
<g id="a_edge38_Node000019_Node000023"><a xlink:title=" ">
<path fill="none" stroke="#63b8ff" d="M496.74,-152.27C484.42,-152.5 471.69,-152.74 459.79,-152.97"/>
<polygon fill="#63b8ff" stroke="#63b8ff" points="496.46,-155.77 506.39,-152.09 496.33,-148.78 496.46,-155.77"/>
</a>
</g>
</g>
<!-- Node20&#45;&gt;Node9 -->
<g id="edge31_Node000020_Node000009" class="edge">
<title>Node20&#45;&gt;Node9</title>
<g id="a_edge31_Node000020_Node000009"><a xlink:title=" ">
<path fill="none" stroke="#63b8ff" d="M355.63,-212.63C349.25,-215.35 342.95,-218.47 337.25,-222 300.5,-244.71 265.9,-283.29 250.51,-301.67"/>
<polygon fill="#63b8ff" stroke="#63b8ff" points="356.91,-215.89 364.93,-208.97 354.34,-209.38 356.91,-215.89"/>
</a>
</g>
</g>
<!-- Node21&#45;&gt;Node1 -->
<g id="edge34_Node000021_Node000001" class="edge">
<title>Node21&#45;&gt;Node1</title>
<g id="a_edge34_Node000021_Node000001"><a xlink:title=" ">
<path fill="none" stroke="#63b8ff" d="M481.59,-61.14C544.91,-61.99 637.24,-63 717.88,-63 871.25,-63 871.25,-63 871.25,-63 953.83,-63 1048.17,-78.87 1107.67,-90.86"/>
<polygon fill="#63b8ff" stroke="#63b8ff" points="481.67,-57.64 471.63,-61.01 481.58,-64.64 481.67,-57.64"/>
</a>
</g>
</g>
<!-- Node21&#45;&gt;Node8 -->
<g id="edge33_Node000021_Node000008" class="edge">
<title>Node21&#45;&gt;Node8</title>
<g id="a_edge33_Node000021_Node000008"><a xlink:title=" ">
<path fill="none" stroke="#63b8ff" d="M326.71,-60C318.3,-60 309.83,-60 301.67,-60"/>
<polygon fill="#63b8ff" stroke="#63b8ff" points="326.59,-63.5 336.59,-60 326.59,-56.5 326.59,-63.5"/>
</a>
</g>
</g>
<!-- Node22&#45;&gt;Node1 -->
<g id="edge37_Node000022_Node000001" class="edge">
<title>Node22&#45;&gt;Node1</title>
<g id="a_edge37_Node000022_Node000001"><a xlink:title=" ">
<path fill="none" stroke="#63b8ff" d="M471.04,-17C534.34,-17.87 632.64,-19 717.88,-19 871.25,-19 871.25,-19 871.25,-19 969.59,-19 1079.41,-62.91 1133.41,-87.61"/>
<polygon fill="#63b8ff" stroke="#63b8ff" points="471.21,-13.5 461.16,-16.86 471.11,-20.5 471.21,-13.5"/>
</a>
</g>
</g>
<!-- Node22&#45;&gt;Node8 -->
<g id="edge36_Node000022_Node000008" class="edge">
<title>Node22&#45;&gt;Node8</title>
<g id="a_edge36_Node000022_Node000008"><a xlink:title=" ">
<path fill="none" stroke="#63b8ff" d="M337.78,-33.86C325.79,-37.13 313.34,-40.54 301.55,-43.76"/>
<polygon fill="#63b8ff" stroke="#63b8ff" points="338.43,-37.31 347.16,-31.3 336.59,-30.56 338.43,-37.31"/>
</a>
</g>
</g>
<!-- Node23&#45;&gt;Node9 -->
<g id="edge39_Node000023_Node000009" class="edge">
<title>Node23&#45;&gt;Node9</title>
<g id="a_edge39_Node000023_Node000009"><a xlink:title=" ">
<path fill="none" stroke="#63b8ff" d="M341.28,-176.1C339.9,-177.03 338.55,-178 337.25,-179 291.59,-214.17 258.53,-277.19 246.8,-301.78"/>
<polygon fill="#63b8ff" stroke="#63b8ff" points="342.72,-179.32 349.55,-171.22 339.16,-173.29 342.72,-179.32"/>
</a>
</g>
</g>
</g>
</svg>

<g id="navigator" transform="translate(0 0)" fill="#404254">
  <rect fill="#f2f5e9" fill-opacity="0.5" stroke="#606060" stroke-width=".5" x="0" y="0" width="60" height="60"/>
  <use id="zoomplus" xlink:href="#zoomPlus" x="17" y="9" onmousedown="handleZoom(evt,'in')"/>
  <use id="zoomminus" xlink:href="#zoomMin" x="42" y="9" onmousedown="handleZoom(evt,'out')"/>
  <use id="reset" xlink:href="#resetDef" x="30" y="36" onmousedown="handleReset()"/>
   <use id="arrowup" xlink:href="#arrowUp" x="0" y="0" onmousedown="handlePan(0,-1)"/>
  <use id="arrowright" xlink:href="#arrowRight" x="0" y="0" onmousedown="handlePan(1,0)"/>
  <use id="arrowdown" xlink:href="#arrowDown" x="0" y="0" onmousedown="handlePan(0,1)"/>
  <use id="arrowleft" xlink:href="#arrowLeft" x="0" y="0" onmousedown="handlePan(-1,0)"/>
</g>
<svg viewBox="0 0 15 15" width="100%" height="30px" preserveAspectRatio="xMaxYMin meet">
 <g id="arrow_out" transform="scale(0.3 0.3)">
  <a xlink:href="class_data_base_g_u_i_a739b2cf48c0cb6e3cab2da0a7bbd6d6d_icgraph_org.svg" target="_base">
   <rect id="button" ry="5" rx="5" y="6" x="6" height="38" width="38"
        fill="#f2f5e9" fill-opacity="0.5" stroke="#606060" stroke-width="1.0"/>
   <path id="arrow"
     d="M 11.500037,31.436501 C 11.940474,20.09759 22.043105,11.32322 32.158766,21.979434 L 37.068811,17.246167 C 37.068811,17.246167 37.088388,32 37.088388,32 L 22.160133,31.978069 C 22.160133,31.978069 26.997745,27.140456 26.997745,27.140456 C 18.528582,18.264221 13.291696,25.230495 11.500037,31.436501 z"
     style="fill:#404040;"/>
  </a>
 </g>
</svg>

<style type='text/css'>
<![CDATA[
[data-mouse-over-selected='false'] { opacity: 0.7; }
[data-mouse-over-selected='true']  { opacity: 1.0; }
]]>
</style>
<script type="application/ecmascript"><![CDATA[
document.addEventListener('DOMContentLoaded', (event) => {
  highlightEdges();
  highlightAdjacentNodes();
});
]]></script>
</svg>
