<?xml version="1.0" encoding="UTF-8" standalone="no"?>
<!DOCTYPE svg PUBLIC "-//W3C//DTD SVG 1.1//EN"
 "http://www.w3.org/Graphics/SVG/1.1/DTD/svg11.dtd">
<!-- Generated by graphviz version 12.2.1 (20241206.2353)
 -->
<!-- Title: DataBaseGUI::child_add Pages: 1 -->
<svg width="624pt" height="204pt"
 viewBox="0.00 0.00 624.00 204.00" xmlns="http://www.w3.org/2000/svg" xmlns:xlink="http://www.w3.org/1999/xlink">
<g id="graph0" class="graph" transform="scale(1 1) rotate(0) translate(4 200)">
<title>DataBaseGUI::child_add</title>
<!-- Node1 -->
<g id="Node000001" class="node">
<title>Node1</title>
<g id="a_Node000001"><a xlink:title="Adds a new child to the database.">
<polygon fill="#999999" stroke="#666666" points="124.75,-108 0,-108 0,-88 124.75,-88 124.75,-108"/>
<text text-anchor="middle" x="62.38" y="-94.5" font-family="Helvetica,sans-Serif" font-size="10.00">DataBaseGUI::child_add</text>
</a>
</g>
</g>
<!-- Node2 -->
<g id="Node000002" class="node">
<title>Node2</title>
<g id="a_Node000002"><a xlink:href="$class_data_base_g_u_i.html#aa684465aa73b5b34bbadd24fc7f2f641" xlink:title=" ">
<polygon fill="white" stroke="#666666" points="276.5,-114 160.75,-114 160.75,-82 276.5,-82 276.5,-114"/>
<text text-anchor="start" x="168.75" y="-100.5" font-family="Helvetica,sans-Serif" font-size="10.00">DataBaseGUI::sort_to</text>
<text text-anchor="middle" x="218.62" y="-88.5" font-family="Helvetica,sans-Serif" font-size="10.00">_populate_children_tab</text>
</a>
</g>
</g>
<!-- Node1&#45;&gt;Node2 -->
<g id="edge1_Node000001_Node000002" class="edge">
<title>Node1&#45;&gt;Node2</title>
<g id="a_edge1_Node000001_Node000002"><a xlink:title=" ">
<path fill="none" stroke="#63b8ff" d="M125.23,-98C133,-98 140.98,-98 148.85,-98"/>
<polygon fill="#63b8ff" stroke="#63b8ff" points="148.75,-101.5 158.75,-98 148.75,-94.5 148.75,-101.5"/>
</a>
</g>
</g>
<!-- Node3 -->
<g id="Node000003" class="node">
<title>Node3</title>
<g id="a_Node000003"><a xlink:href="$class_data_base_g_u_i.html#af346d08370d9e4574980707f61b9c8f7" xlink:title="Populates the children tab with a list of children.">
<polygon fill="white" stroke="#666666" points="432.75,-114 312.5,-114 312.5,-82 432.75,-82 432.75,-114"/>
<text text-anchor="start" x="320.5" y="-100.5" font-family="Helvetica,sans-Serif" font-size="10.00">DataBaseGUI::populate</text>
<text text-anchor="middle" x="372.62" y="-88.5" font-family="Helvetica,sans-Serif" font-size="10.00">_children_tab</text>
</a>
</g>
</g>
<!-- Node2&#45;&gt;Node3 -->
<g id="edge2_Node000002_Node000003" class="edge">
<title>Node2&#45;&gt;Node3</title>
<g id="a_edge2_Node000002_Node000003"><a xlink:title=" ">
<path fill="none" stroke="#63b8ff" d="M276.66,-98C284.56,-98 292.75,-98 300.87,-98"/>
<polygon fill="#63b8ff" stroke="#63b8ff" points="300.73,-101.5 310.73,-98 300.73,-94.5 300.73,-101.5"/>
</a>
</g>
</g>
<!-- Node4 -->
<g id="Node000004" class="node">
<title>Node4</title>
<g id="a_Node000004"><a xlink:href="$class_data_base_g_u_i.html#acb6c6b292e58d0ead30682f7f5705244" xlink:title="Edits an existing child in the database.">
<polygon fill="white" stroke="#666666" points="604.75,-196 480,-196 480,-176 604.75,-176 604.75,-196"/>
<text text-anchor="middle" x="542.38" y="-182.5" font-family="Helvetica,sans-Serif" font-size="10.00">DataBaseGUI::child_edit</text>
</a>
</g>
</g>
<!-- Node3&#45;&gt;Node4 -->
<g id="edge3_Node000003_Node000004" class="edge">
<title>Node3&#45;&gt;Node4</title>
<g id="a_edge3_Node000003_Node000004"><a xlink:title=" ">
<path fill="none" stroke="#63b8ff" d="M391.62,-114.24C409.83,-129.87 439.42,-153.13 468.75,-167 472.51,-168.78 476.45,-170.4 480.48,-171.89"/>
<polygon fill="#63b8ff" stroke="#63b8ff" points="479.25,-175.17 489.84,-175.04 481.48,-168.54 479.25,-175.17"/>
</a>
</g>
</g>
<!-- Node5 -->
<g id="Node000005" class="node">
<title>Node5</title>
<g id="a_Node000005"><a xlink:href="$class_data_base_g_u_i.html#ae3a08843db874e51a7cea32fa8937ca5" xlink:title="Removes a child from the database.">
<polygon fill="white" stroke="#666666" points="594.25,-32 490.5,-32 490.5,0 594.25,0 594.25,-32"/>
<text text-anchor="start" x="498.5" y="-18.5" font-family="Helvetica,sans-Serif" font-size="10.00">DataBaseGUI::child</text>
<text text-anchor="middle" x="542.38" y="-6.5" font-family="Helvetica,sans-Serif" font-size="10.00">_remove</text>
</a>
</g>
</g>
<!-- Node3&#45;&gt;Node5 -->
<g id="edge5_Node000003_Node000005" class="edge">
<title>Node3&#45;&gt;Node5</title>
<g id="a_edge5_Node000003_Node000005"><a xlink:title=" ">
<path fill="none" stroke="#63b8ff" d="M397.88,-81.53C416.66,-69.27 443.62,-52.7 468.75,-41 472.24,-39.38 475.87,-37.8 479.56,-36.28"/>
<polygon fill="#63b8ff" stroke="#63b8ff" points="480.61,-39.63 488.64,-32.72 478.05,-33.11 480.61,-39.63"/>
</a>
</g>
</g>
<!-- Node6 -->
<g id="Node000006" class="node">
<title>Node6</title>
<g id="a_Node000006"><a xlink:href="$class_data_base_g_u_i.html#afbc53e28ad83200fe77e0fa5a6eb970f" xlink:title="Clears the children tab.">
<polygon fill="white" stroke="#666666" points="601,-158 483.75,-158 483.75,-126 601,-126 601,-158"/>
<text text-anchor="start" x="491.75" y="-144.5" font-family="Helvetica,sans-Serif" font-size="10.00">DataBaseGUI::children</text>
<text text-anchor="middle" x="542.38" y="-132.5" font-family="Helvetica,sans-Serif" font-size="10.00">_tab_clear</text>
</a>
</g>
</g>
<!-- Node3&#45;&gt;Node6 -->
<g id="edge7_Node000003_Node000006" class="edge">
<title>Node3&#45;&gt;Node6</title>
<g id="a_edge7_Node000003_Node000006"><a xlink:title=" ">
<path fill="none" stroke="#63b8ff" d="M433.24,-113.64C445.97,-116.98 459.51,-120.53 472.55,-123.95"/>
<polygon fill="#63b8ff" stroke="#63b8ff" points="471.34,-127.25 481.9,-126.4 473.11,-120.48 471.34,-127.25"/>
</a>
</g>
</g>
<!-- Node7 -->
<g id="Node000007" class="node">
<title>Node7</title>
<g id="a_Node000007"><a xlink:href="$class_child_entry.html#abda9dea89937d77c4def3fb81d964ff9" xlink:title=" ">
<polygon fill="white" stroke="#666666" points="607.75,-108 477,-108 477,-88 607.75,-88 607.75,-108"/>
<text text-anchor="middle" x="542.38" y="-94.5" font-family="Helvetica,sans-Serif" font-size="10.00">ChildEntry::editRequested</text>
</a>
</g>
</g>
<!-- Node3&#45;&gt;Node7 -->
<g id="edge8_Node000003_Node000007" class="edge">
<title>Node3&#45;&gt;Node7</title>
<g id="a_edge8_Node000003_Node000007"><a xlink:title=" ">
<path fill="none" stroke="#63b8ff" d="M433.24,-98C443.54,-98 454.38,-98 465.06,-98"/>
<polygon fill="#63b8ff" stroke="#63b8ff" points="465.03,-101.5 475.03,-98 465.03,-94.5 465.03,-101.5"/>
</a>
</g>
</g>
<!-- Node8 -->
<g id="Node000008" class="node">
<title>Node8</title>
<g id="a_Node000008"><a xlink:href="$class_child_entry.html#a69e495a83c20ea922198adea9ae47ddb" xlink:title=" ">
<polygon fill="white" stroke="#666666" points="616,-70 468.75,-70 468.75,-50 616,-50 616,-70"/>
<text text-anchor="middle" x="542.38" y="-56.5" font-family="Helvetica,sans-Serif" font-size="10.00">ChildEntry::removeRequested</text>
</a>
</g>
</g>
<!-- Node3&#45;&gt;Node8 -->
<g id="edge9_Node000003_Node000008" class="edge">
<title>Node3&#45;&gt;Node8</title>
<g id="a_edge9_Node000003_Node000008"><a xlink:title=" ">
<path fill="none" stroke="#63b8ff" d="M433.24,-84.5C449.77,-80.75 467.67,-76.7 484.06,-72.98"/>
<polygon fill="#63b8ff" stroke="#63b8ff" points="484.68,-76.43 493.66,-70.81 483.13,-69.61 484.68,-76.43"/>
</a>
</g>
</g>
<!-- Node4&#45;&gt;Node2 -->
<g id="edge4_Node000004_Node000002" class="edge">
<title>Node4&#45;&gt;Node2</title>
<g id="a_edge4_Node000004_Node000002"><a xlink:title=" ">
<path fill="none" stroke="#63b8ff" d="M501.01,-175.55C490.5,-172.8 479.2,-169.81 468.75,-167 407.51,-150.51 337.97,-131.2 287.95,-117.21"/>
<polygon fill="#63b8ff" stroke="#63b8ff" points="288.98,-113.86 278.41,-114.54 287.1,-120.6 288.98,-113.86"/>
</a>
</g>
</g>
<!-- Node5&#45;&gt;Node2 -->
<g id="edge6_Node000005_Node000002" class="edge">
<title>Node5&#45;&gt;Node2</title>
<g id="a_edge6_Node000005_Node000002"><a xlink:title=" ">
<path fill="none" stroke="#63b8ff" d="M490.4,-28.4C443.97,-39.77 373.55,-57.18 312.5,-73 304.41,-75.1 295.93,-77.33 287.52,-79.56"/>
<polygon fill="#63b8ff" stroke="#63b8ff" points="286.78,-76.14 278.02,-82.1 288.58,-82.9 286.78,-76.14"/>
</a>
</g>
</g>
</g>
</svg>
