<?xml version="1.0" encoding="UTF-8" standalone="no"?>
<!DOCTYPE svg PUBLIC "-//W3C//DTD SVG 1.1//EN"
 "http://www.w3.org/Graphics/SVG/1.1/DTD/svg11.dtd">
<!-- Generated by graphviz version 12.2.1 (20241206.2353)
 -->
<!-- Title: Ui::LessonEntryClass Pages: 1 -->
<svg width="123pt" height="466pt"
 viewBox="0.00 0.00 122.75 466.00" xmlns="http://www.w3.org/2000/svg" xmlns:xlink="http://www.w3.org/1999/xlink">
<g id="graph0" class="graph" transform="scale(1 1) rotate(0) translate(4 462)">
<title>Ui::LessonEntryClass</title>
<!-- Node1 -->
<g id="Node000001" class="node">
<title>Node1</title>
<g id="a_Node000001"><a xlink:title=" ">
<polygon fill="#999999" stroke="none" points="109.38,-52 5.38,-52 5.38,0 109.38,0 109.38,-52"/>
<text text-anchor="start" x="9.38" y="-38.5" font-family="Helvetica,sans-Serif" font-size="10.00">Ui::LessonEntryClass</text>
<text text-anchor="start" x="55.88" y="-22.5" font-family="Helvetica,sans-Serif" font-size="10.00"> </text>
<text text-anchor="start" x="55.88" y="-6.5" font-family="Helvetica,sans-Serif" font-size="10.00"> </text>
<polygon fill="#666666" stroke="#666666" points="5.38,-34 5.38,-34 109.38,-34 109.38,-34 5.38,-34"/>
<polygon fill="#666666" stroke="#666666" points="5.38,-18 5.38,-18 109.38,-18 109.38,-18 5.38,-18"/>
<polygon fill="none" stroke="#666666" points="5.38,0 5.38,-52 109.38,-52 109.38,0 5.38,0"/>
</a>
</g>
</g>
<!-- Node2 -->
<g id="Node000002" class="node">
<title>Node2</title>
<g id="a_Node000002"><a xlink:href="class_ui___lesson_entry_class.html" target="_top" xlink:title=" ">
<polygon fill="white" stroke="none" points="109,-253 5.75,-253 5.75,-89 109,-89 109,-253"/>
<text text-anchor="start" x="9.75" y="-239.5" font-family="Helvetica,sans-Serif" font-size="10.00">Ui_LessonEntryClass</text>
<text text-anchor="start" x="14.94" y="-223.5" font-family="Helvetica,sans-Serif" font-size="10.00">+</text>
<text text-anchor="start" x="30.12" y="-223.5" font-family="Helvetica,sans-Serif" font-size="10.00">gridLayout</text>
<text text-anchor="start" x="14.94" y="-207.5" font-family="Helvetica,sans-Serif" font-size="10.00">+</text>
<text text-anchor="start" x="30.12" y="-207.5" font-family="Helvetica,sans-Serif" font-size="10.00">frame</text>
<text text-anchor="start" x="14.94" y="-191.5" font-family="Helvetica,sans-Serif" font-size="10.00">+</text>
<text text-anchor="start" x="30.12" y="-191.5" font-family="Helvetica,sans-Serif" font-size="10.00">gridLayout_2</text>
<text text-anchor="start" x="14.94" y="-175.5" font-family="Helvetica,sans-Serif" font-size="10.00">+</text>
<text text-anchor="start" x="30.12" y="-175.5" font-family="Helvetica,sans-Serif" font-size="10.00">remove_button</text>
<text text-anchor="start" x="14.94" y="-159.5" font-family="Helvetica,sans-Serif" font-size="10.00">+</text>
<text text-anchor="start" x="30.12" y="-159.5" font-family="Helvetica,sans-Serif" font-size="10.00">time</text>
<text text-anchor="start" x="14.94" y="-143.5" font-family="Helvetica,sans-Serif" font-size="10.00">+</text>
<text text-anchor="start" x="30.12" y="-143.5" font-family="Helvetica,sans-Serif" font-size="10.00">view_button</text>
<text text-anchor="start" x="14.94" y="-127.5" font-family="Helvetica,sans-Serif" font-size="10.00">+</text>
<text text-anchor="start" x="30.12" y="-127.5" font-family="Helvetica,sans-Serif" font-size="10.00">day</text>
<text text-anchor="start" x="14.94" y="-111.5" font-family="Helvetica,sans-Serif" font-size="10.00">+</text>
<text text-anchor="start" x="30.12" y="-111.5" font-family="Helvetica,sans-Serif" font-size="10.00">setupUi()</text>
<text text-anchor="start" x="14.94" y="-95.5" font-family="Helvetica,sans-Serif" font-size="10.00">+</text>
<text text-anchor="start" x="30.12" y="-95.5" font-family="Helvetica,sans-Serif" font-size="10.00">retranslateUi()</text>
<polygon fill="#666666" stroke="#666666" points="5.75,-235 5.75,-235 109,-235 109,-235 5.75,-235"/>
<polygon fill="#666666" stroke="#666666" points="5.75,-123 5.75,-123 28.12,-123 28.12,-123 5.75,-123"/>
<polygon fill="#666666" stroke="#666666" points="28.12,-123 28.12,-123 109,-123 109,-123 28.12,-123"/>
<polygon fill="none" stroke="#666666" points="5.75,-89 5.75,-253 109,-253 109,-89 5.75,-89"/>
</a>
</g>
</g>
<!-- Node2&#45;&gt;Node1 -->
<g id="edge1_Node000001_Node000002" class="edge">
<title>Node2&#45;&gt;Node1</title>
<g id="a_edge1_Node000001_Node000002"><a xlink:title=" ">
<path fill="none" stroke="#63b8ff" d="M57.38,-78.02C57.38,-68.57 57.38,-59.64 57.38,-51.97"/>
<polygon fill="none" stroke="#63b8ff" points="53.88,-77.79 57.38,-87.79 60.88,-77.79 53.88,-77.79"/>
</a>
</g>
</g>
<!-- Node3 -->
<g id="Node000003" class="node">
<title>Node3</title>
<g id="a_Node000003"><a xlink:href="class_clickable_label.html" target="_top" xlink:title="A QLabel subclass that emits a clicked signal when the label is clicked.">
<polygon fill="white" stroke="none" points="114.75,-369 0,-369 0,-301 114.75,-301 114.75,-369"/>
<text text-anchor="start" x="25.5" y="-355.5" font-family="Helvetica,sans-Serif" font-size="10.00">ClickableLabel</text>
<text text-anchor="start" x="55.88" y="-339.5" font-family="Helvetica,sans-Serif" font-size="10.00"> </text>
<text text-anchor="start" x="4" y="-323.5" font-family="Helvetica,sans-Serif" font-size="10.00">+</text>
<text text-anchor="start" x="14" y="-323.5" font-family="Helvetica,sans-Serif" font-size="10.00">ClickableLabel()</text>
<text text-anchor="start" x="4.38" y="-307.5" font-family="Helvetica,sans-Serif" font-size="10.00">#</text>
<text text-anchor="start" x="14" y="-307.5" font-family="Helvetica,sans-Serif" font-size="10.00">mouseReleaseEvent()</text>
<polygon fill="#666666" stroke="#666666" points="0,-351 0,-351 114.75,-351 114.75,-351 0,-351"/>
<polygon fill="#666666" stroke="#666666" points="0,-335 0,-335 114.75,-335 114.75,-335 0,-335"/>
<polygon fill="none" stroke="#666666" points="0,-301 0,-369 114.75,-369 114.75,-301 0,-301"/>
</a>
</g>
</g>
<!-- Node3&#45;&gt;Node2 -->
<g id="edge2_Node000002_Node000003" class="edge">
<title>Node3&#45;&gt;Node2</title>
<g id="a_edge2_Node000002_Node000003"><a xlink:title=" ">
<path fill="none" stroke="#63b8ff" d="M57.38,-301.22C57.38,-290.68 57.38,-278.42 57.38,-265.74"/>
<polygon fill="none" stroke="#63b8ff" points="57.38,-265.87 53.38,-259.87 57.38,-253.87 61.38,-259.87 57.38,-265.87"/>
</a>
</g>
<text text-anchor="middle" x="79.12" y="-273.5" font-family="Helvetica,sans-Serif" font-size="10.00" fill="grey"> +address</text>
</g>
<!-- Node4 -->
<g id="Node000004" class="node">
<title>Node4</title>
<g id="a_Node000004"><a xlink:title=" ">
<polygon fill="white" stroke="none" points="76.75,-458 38,-458 38,-406 76.75,-406 76.75,-458"/>
<text text-anchor="start" x="42" y="-444.5" font-family="Helvetica,sans-Serif" font-size="10.00">QLabel</text>
<text text-anchor="start" x="55.88" y="-428.5" font-family="Helvetica,sans-Serif" font-size="10.00"> </text>
<text text-anchor="start" x="55.88" y="-412.5" font-family="Helvetica,sans-Serif" font-size="10.00"> </text>
<polygon fill="#666666" stroke="#666666" points="38,-440 38,-440 76.75,-440 76.75,-440 38,-440"/>
<polygon fill="#666666" stroke="#666666" points="38,-424 38,-424 76.75,-424 76.75,-424 38,-424"/>
<polygon fill="none" stroke="#666666" points="38,-406 38,-458 76.75,-458 76.75,-406 38,-406"/>
</a>
</g>
</g>
<!-- Node4&#45;&gt;Node3 -->
<g id="edge3_Node000003_Node000004" class="edge">
<title>Node4&#45;&gt;Node3</title>
<g id="a_edge3_Node000003_Node000004"><a xlink:title=" ">
<path fill="none" stroke="#63b8ff" d="M57.38,-394.77C57.38,-386.18 57.38,-377.08 57.38,-368.66"/>
<polygon fill="none" stroke="#63b8ff" points="53.88,-394.53 57.38,-404.53 60.88,-394.53 53.88,-394.53"/>
</a>
</g>
</g>
</g>
</svg>
