<?xml version="1.0" encoding="UTF-8" standalone="no"?>
<!DOCTYPE svg PUBLIC "-//W3C//DTD SVG 1.1//EN"
 "http://www.w3.org/Graphics/SVG/1.1/DTD/svg11.dtd">
<!-- Generated by graphviz version 12.2.1 (20241206.2353)
 -->
<!-- Title: ClickableLabel::clicked Pages: 1 -->
<svg width="478pt" height="280pt"
 viewBox="0.00 0.00 477.50 280.00" xmlns="http://www.w3.org/2000/svg" xmlns:xlink="http://www.w3.org/1999/xlink">
<g id="graph0" class="graph" transform="scale(1 1) rotate(0) translate(4 276)">
<title>ClickableLabel::clicked</title>
<!-- Node1 -->
<g id="Node000001" class="node">
<title>Node1</title>
<g id="a_Node000001"><a xlink:title="Signal emitted when the label is clicked.">
<polygon fill="#999999" stroke="#666666" points="469.5,-158 353,-158 353,-138 469.5,-138 469.5,-158"/>
<text text-anchor="middle" x="411.25" y="-144.5" font-family="Helvetica,sans-Serif" font-size="10.00">ClickableLabel::clicked</text>
</a>
</g>
</g>
<!-- Node2 -->
<g id="Node000002" class="node">
<title>Node2</title>
<g id="a_Node000002"><a xlink:href="class_child_entry.html#a13bd0b2c4b5a30e5d63ed6e786c405bf" target="_top" xlink:title="Constructs a ChildEntry widget.">
<polygon fill="white" stroke="#666666" points="296,-272 182.5,-272 182.5,-252 296,-252 296,-272"/>
<text text-anchor="middle" x="239.25" y="-258.5" font-family="Helvetica,sans-Serif" font-size="10.00">ChildEntry::ChildEntry</text>
</a>
</g>
</g>
<!-- Node1&#45;&gt;Node2 -->
<g id="edge1_Node000001_Node000002" class="edge">
<title>Node1&#45;&gt;Node2</title>
<g id="a_edge1_Node000001_Node000002"><a xlink:title=" ">
<path fill="none" stroke="#63b8ff" d="M396.31,-167.68C379.85,-189.43 350.44,-223.91 317,-243 310.56,-246.67 303.43,-249.64 296.17,-252.04"/>
<polygon fill="#63b8ff" stroke="#63b8ff" points="399.13,-169.76 402.23,-159.63 393.49,-165.61 399.13,-169.76"/>
</a>
</g>
</g>
<!-- Node3 -->
<g id="Node000003" class="node">
<title>Node3</title>
<g id="a_Node000003"><a xlink:href="class_employee_entry.html#a80de24a339dce061075e03f78978f4a6" target="_top" xlink:title="Constructs an EmployeeEntry widget.">
<polygon fill="white" stroke="#666666" points="317,-234 161.5,-234 161.5,-214 317,-214 317,-234"/>
<text text-anchor="middle" x="239.25" y="-220.5" font-family="Helvetica,sans-Serif" font-size="10.00">EmployeeEntry::EmployeeEntry</text>
</a>
</g>
</g>
<!-- Node1&#45;&gt;Node3 -->
<g id="edge2_Node000001_Node000003" class="edge">
<title>Node1&#45;&gt;Node3</title>
<g id="a_edge2_Node000001_Node000003"><a xlink:title=" ">
<path fill="none" stroke="#63b8ff" d="M387.22,-164.84C368.98,-177.49 342.41,-194.39 317,-205 309.02,-208.33 300.32,-211.18 291.74,-213.57"/>
<polygon fill="#63b8ff" stroke="#63b8ff" points="389.07,-167.83 395.21,-159.19 385.02,-162.11 389.07,-167.83"/>
</a>
</g>
</g>
<!-- Node4 -->
<g id="Node000004" class="node">
<title>Node4</title>
<g id="a_Node000004"><a xlink:href="class_lesson_entry.html#aea1e4e5c021933e1a3063691fd1aef09" target="_top" xlink:title="Constructs a LessonEntry widget.">
<polygon fill="white" stroke="#666666" points="305,-196 173.5,-196 173.5,-176 305,-176 305,-196"/>
<text text-anchor="middle" x="239.25" y="-182.5" font-family="Helvetica,sans-Serif" font-size="10.00">LessonEntry::LessonEntry</text>
</a>
</g>
</g>
<!-- Node1&#45;&gt;Node4 -->
<g id="edge3_Node000001_Node000004" class="edge">
<title>Node1&#45;&gt;Node4</title>
<g id="a_edge3_Node000001_Node000004"><a xlink:title=" ">
<path fill="none" stroke="#63b8ff" d="M352.16,-160.98C330.9,-165.74 307.14,-171.05 287,-175.55"/>
<polygon fill="#63b8ff" stroke="#63b8ff" points="352.87,-164.41 361.87,-158.81 351.35,-157.58 352.87,-164.41"/>
</a>
</g>
</g>
<!-- Node5 -->
<g id="Node000005" class="node">
<title>Node5</title>
<g id="a_Node000005"><a xlink:href="class_lesson_view.html#a5652733016a72ccf85b1df6e88a3513e" target="_top" xlink:title="Constructs a LessonView widget.">
<polygon fill="white" stroke="#666666" points="303.5,-158 175,-158 175,-138 303.5,-138 303.5,-158"/>
<text text-anchor="middle" x="239.25" y="-144.5" font-family="Helvetica,sans-Serif" font-size="10.00">LessonView::LessonView</text>
</a>
</g>
</g>
<!-- Node1&#45;&gt;Node5 -->
<g id="edge4_Node000001_Node000005" class="edge">
<title>Node1&#45;&gt;Node5</title>
<g id="a_edge4_Node000001_Node000005"><a xlink:title=" ">
<path fill="none" stroke="#63b8ff" d="M341.46,-148C329.04,-148 316.14,-148 303.88,-148"/>
<polygon fill="#63b8ff" stroke="#63b8ff" points="341.18,-151.5 351.18,-148 341.18,-144.5 341.18,-151.5"/>
</a>
</g>
</g>
<!-- Node6 -->
<g id="Node000006" class="node">
<title>Node6</title>
<g id="a_Node000006"><a xlink:href="class_clickable_label.html#a040d1af68245bbc4989fefe04b9ffdd0" target="_top" xlink:title="Handles mouse release events.">
<polygon fill="white" stroke="#666666" points="314.75,-120 163.75,-120 163.75,-88 314.75,-88 314.75,-120"/>
<text text-anchor="start" x="171.75" y="-106.5" font-family="Helvetica,sans-Serif" font-size="10.00">ClickableLabel::mouseRelease</text>
<text text-anchor="middle" x="239.25" y="-94.5" font-family="Helvetica,sans-Serif" font-size="10.00">Event</text>
</a>
</g>
</g>
<!-- Node1&#45;&gt;Node6 -->
<g id="edge5_Node000001_Node000006" class="edge">
<title>Node1&#45;&gt;Node6</title>
<g id="a_edge5_Node000001_Node000006"><a xlink:title=" ">
<path fill="none" stroke="#63b8ff" d="M358.93,-134.72C341.59,-130.23 322.01,-125.16 303.84,-120.46"/>
<polygon fill="#63b8ff" stroke="#63b8ff" points="357.94,-138.08 368.5,-137.19 359.69,-131.3 357.94,-138.08"/>
</a>
</g>
</g>
<!-- Node7 -->
<g id="Node000007" class="node">
<title>Node7</title>
<g id="a_Node000007"><a xlink:href="class_person_label.html#a94331464b364eff3b1b12d192e293d93" target="_top" xlink:title="Constructs a PersonLabel for a given person and sets up the UI.">
<polygon fill="white" stroke="#666666" points="304.25,-70 174.25,-70 174.25,-50 304.25,-50 304.25,-70"/>
<text text-anchor="middle" x="239.25" y="-56.5" font-family="Helvetica,sans-Serif" font-size="10.00">PersonLabel::PersonLabel</text>
</a>
</g>
</g>
<!-- Node1&#45;&gt;Node7 -->
<g id="edge6_Node000001_Node000007" class="edge">
<title>Node1&#45;&gt;Node7</title>
<g id="a_edge6_Node000001_Node000007"><a xlink:title=" ">
<path fill="none" stroke="#63b8ff" d="M391.05,-130.2C373.16,-114.53 345.09,-92.22 317,-79 309.8,-75.61 301.92,-72.78 294.04,-70.43"/>
<polygon fill="#63b8ff" stroke="#63b8ff" points="388.51,-132.62 398.29,-136.69 393.18,-127.41 388.51,-132.62"/>
</a>
</g>
</g>
<!-- Node8 -->
<g id="Node000008" class="node">
<title>Node8</title>
<g id="a_Node000008"><a xlink:href="class_parent_entry.html#afbc19a7aa219add3dd8efa219c1b713d" target="_top" xlink:title="Sets up the parent entry widget.">
<polygon fill="white" stroke="#666666" points="288.12,-32 190.38,-32 190.38,0 288.12,0 288.12,-32"/>
<text text-anchor="start" x="198.38" y="-18.5" font-family="Helvetica,sans-Serif" font-size="10.00">ParentEntry::setup</text>
<text text-anchor="middle" x="239.25" y="-6.5" font-family="Helvetica,sans-Serif" font-size="10.00">_parent</text>
</a>
</g>
</g>
<!-- Node1&#45;&gt;Node8 -->
<g id="edge7_Node000001_Node000008" class="edge">
<title>Node1&#45;&gt;Node8</title>
<g id="a_edge7_Node000001_Node000008"><a xlink:title=" ">
<path fill="none" stroke="#63b8ff" d="M397.78,-128.02C381.85,-104.06 352.09,-64.21 317,-41 308.35,-35.28 298.29,-30.78 288.35,-27.27"/>
<polygon fill="#63b8ff" stroke="#63b8ff" points="394.73,-129.75 403.1,-136.24 400.61,-125.94 394.73,-129.75"/>
</a>
</g>
</g>
<!-- Node9 -->
<g id="Node000009" class="node">
<title>Node9</title>
<g id="a_Node000009"><a xlink:href="class_parent_entry.html#a336ea0e092db59f6838eacc73bdee3da" target="_top" xlink:title="Constructs a ParentEntry widget.">
<polygon fill="white" stroke="#666666" points="125.5,-26 0,-26 0,-6 125.5,-6 125.5,-26"/>
<text text-anchor="middle" x="62.75" y="-12.5" font-family="Helvetica,sans-Serif" font-size="10.00">ParentEntry::ParentEntry</text>
</a>
</g>
</g>
<!-- Node8&#45;&gt;Node9 -->
<g id="edge8_Node000008_Node000009" class="edge">
<title>Node8&#45;&gt;Node9</title>
<g id="a_edge8_Node000008_Node000009"><a xlink:title=" ">
<path fill="none" stroke="#63b8ff" d="M178.6,-16C161.58,-16 142.98,-16 125.81,-16"/>
<polygon fill="#63b8ff" stroke="#63b8ff" points="178.59,-19.5 188.59,-16 178.59,-12.5 178.59,-19.5"/>
</a>
</g>
</g>
</g>
</svg>
