<?xml version="1.0" encoding="UTF-8" standalone="no"?>
<!DOCTYPE svg PUBLIC "-//W3C//DTD SVG 1.1//EN"
 "http://www.w3.org/Graphics/SVG/1.1/DTD/svg11.dtd">
<!-- Generated by graphviz version 12.2.1 (20241206.2353)
 -->
<!-- Title: Parent::operator= Pages: 1 -->
<svg width="344pt" height="28pt"
 viewBox="0.00 0.00 344.00 28.00" xmlns="http://www.w3.org/2000/svg" xmlns:xlink="http://www.w3.org/1999/xlink">
<g id="graph0" class="graph" transform="scale(1 1) rotate(0) translate(4 24)">
<title>Parent::operator=</title>
<!-- Node1 -->
<g id="Node000001" class="node">
<title>Node1</title>
<g id="a_Node000001"><a xlink:title=" ">
<polygon fill="#999999" stroke="#666666" points="91.75,-20 0,-20 0,0 91.75,0 91.75,-20"/>
<text text-anchor="middle" x="45.88" y="-6.5" font-family="Helvetica,sans-Serif" font-size="10.00">Parent::operator=</text>
</a>
</g>
</g>
<!-- Node2 -->
<g id="Node000002" class="node">
<title>Node2</title>
<g id="a_Node000002"><a xlink:href="class_parent.html#a079738966a5c9f87e7d234c43e235132" target="_top" xlink:title="Default constructor.">
<polygon fill="white" stroke="#666666" points="206.75,-20 127.75,-20 127.75,0 206.75,0 206.75,-20"/>
<text text-anchor="middle" x="167.25" y="-6.5" font-family="Helvetica,sans-Serif" font-size="10.00">Parent::Parent</text>
</a>
</g>
</g>
<!-- Node1&#45;&gt;Node2 -->
<g id="edge1_Node000001_Node000002" class="edge">
<title>Node1&#45;&gt;Node2</title>
<g id="a_edge1_Node000001_Node000002"><a xlink:title=" ">
<path fill="none" stroke="#63b8ff" d="M92.01,-10C99.81,-10 107.97,-10 115.91,-10"/>
<polygon fill="#63b8ff" stroke="#63b8ff" points="115.79,-13.5 125.79,-10 115.79,-6.5 115.79,-13.5"/>
</a>
</g>
</g>
<!-- Node3 -->
<g id="Node000003" class="node">
<title>Node3</title>
<g id="a_Node000003"><a xlink:href="class_parent.html#a3fa387494ad7c650bb24604970bf5957" target="_top" xlink:title="Checks if the parent is a mother.">
<polygon fill="white" stroke="#666666" points="336,-20 242.75,-20 242.75,0 336,0 336,-20"/>
<text text-anchor="middle" x="289.38" y="-6.5" font-family="Helvetica,sans-Serif" font-size="10.00">Parent::is_mother</text>
</a>
</g>
</g>
<!-- Node2&#45;&gt;Node3 -->
<g id="edge2_Node000002_Node000003" class="edge">
<title>Node2&#45;&gt;Node3</title>
<g id="a_edge2_Node000002_Node000003"><a xlink:title=" ">
<path fill="none" stroke="#63b8ff" d="M206.92,-10C214.66,-10 222.94,-10 231.15,-10"/>
<polygon fill="#63b8ff" stroke="#63b8ff" points="231.14,-13.5 241.14,-10 231.14,-6.5 231.14,-13.5"/>
</a>
</g>
</g>
</g>
</svg>
