<?xml version="1.0" encoding="UTF-8" standalone="no"?>
<!DOCTYPE svg PUBLIC "-//W3C//DTD SVG 1.1//EN"
 "http://www.w3.org/Graphics/SVG/1.1/DTD/svg11.dtd">
<!-- Generated by graphviz version 12.2.1 (20241206.2353)
 -->
<!-- Title: LessonView::clear_employees Pages: 1 -->
<svg width="492pt" height="66pt"
 viewBox="0.00 0.00 491.75 66.00" xmlns="http://www.w3.org/2000/svg" xmlns:xlink="http://www.w3.org/1999/xlink">
<g id="graph0" class="graph" transform="scale(1 1) rotate(0) translate(4 62)">
<title>LessonView::clear_employees</title>
<!-- Node1 -->
<g id="Node000001" class="node">
<title>Node1</title>
<g id="a_Node000001"><a xlink:title="Clears the employees section of the lesson view.">
<polygon fill="#999999" stroke="#666666" points="483.75,-39 335,-39 335,-19 483.75,-19 483.75,-39"/>
<text text-anchor="middle" x="409.38" y="-25.5" font-family="Helvetica,sans-Serif" font-size="10.00">LessonView::clear_employees</text>
</a>
</g>
</g>
<!-- Node2 -->
<g id="Node000002" class="node">
<title>Node2</title>
<g id="a_Node000002"><a xlink:href="class_lesson_view.html#a01642f9f2ac50e57169729fd7bfdd4e2" target="_top" xlink:title="Function called when the edit button is clicked.">
<polygon fill="white" stroke="#666666" points="294.12,-58 169.38,-58 169.38,-38 294.12,-38 294.12,-58"/>
<text text-anchor="middle" x="231.75" y="-44.5" font-family="Helvetica,sans-Serif" font-size="10.00">LessonView::edit_lesson</text>
</a>
</g>
</g>
<!-- Node1&#45;&gt;Node2 -->
<g id="edge1_Node000001_Node000002" class="edge">
<title>Node1&#45;&gt;Node2</title>
<g id="a_edge1_Node000001_Node000002"><a xlink:title=" ">
<path fill="none" stroke="#63b8ff" d="M323.33,-38.2C313.65,-39.25 303.91,-40.3 294.61,-41.31"/>
<polygon fill="#63b8ff" stroke="#63b8ff" points="323.59,-41.69 333.15,-37.14 322.83,-34.73 323.59,-41.69"/>
</a>
</g>
</g>
<!-- Node4 -->
<g id="Node000004" class="node">
<title>Node4</title>
<g id="a_Node000004"><a xlink:href="class_lesson_view.html#a8e184a5e6a7275c6f3df4e6bf3229a6b" target="_top" xlink:title="Destructor for the LessonView widget.">
<polygon fill="white" stroke="#666666" points="299,-20 164.5,-20 164.5,0 299,0 299,-20"/>
<text text-anchor="middle" x="231.75" y="-6.5" font-family="Helvetica,sans-Serif" font-size="10.00">LessonView::~LessonView</text>
</a>
</g>
</g>
<!-- Node1&#45;&gt;Node4 -->
<g id="edge3_Node000001_Node000004" class="edge">
<title>Node1&#45;&gt;Node4</title>
<g id="a_edge3_Node000001_Node000004"><a xlink:title=" ">
<path fill="none" stroke="#63b8ff" d="M323.3,-19.8C315.24,-18.92 307.14,-18.05 299.29,-17.2"/>
<polygon fill="#63b8ff" stroke="#63b8ff" points="322.83,-23.27 333.15,-20.86 323.59,-16.31 322.83,-23.27"/>
</a>
</g>
</g>
<!-- Node3 -->
<g id="Node000003" class="node">
<title>Node3</title>
<g id="a_Node000003"><a xlink:href="class_lesson_view.html#a5652733016a72ccf85b1df6e88a3513e" target="_top" xlink:title="Constructs a LessonView widget.">
<polygon fill="white" stroke="#666666" points="128.5,-58 0,-58 0,-38 128.5,-38 128.5,-58"/>
<text text-anchor="middle" x="64.25" y="-44.5" font-family="Helvetica,sans-Serif" font-size="10.00">LessonView::LessonView</text>
</a>
</g>
</g>
<!-- Node2&#45;&gt;Node3 -->
<g id="edge2_Node000002_Node000003" class="edge">
<title>Node2&#45;&gt;Node3</title>
<g id="a_edge2_Node000002_Node000003"><a xlink:title=" ">
<path fill="none" stroke="#63b8ff" d="M157.89,-48C148.22,-48 138.36,-48 128.86,-48"/>
<polygon fill="#63b8ff" stroke="#63b8ff" points="157.61,-51.5 167.61,-48 157.61,-44.5 157.61,-51.5"/>
</a>
</g>
</g>
</g>
</svg>
