<?xml version="1.0" encoding="UTF-8" standalone="no"?>
<!DOCTYPE svg PUBLIC "-//W3C//DTD SVG 1.1//EN"
 "http://www.w3.org/Graphics/SVG/1.1/DTD/svg11.dtd">
<!-- Generated by graphviz version 12.2.1 (20241206.2353)
 -->
<!-- Title: Time::set_seconds Pages: 1 -->
<svg width="209pt" height="66pt"
 viewBox="0.00 0.00 208.75 66.00" xmlns="http://www.w3.org/2000/svg" xmlns:xlink="http://www.w3.org/1999/xlink">
<g id="graph0" class="graph" transform="scale(1 1) rotate(0) translate(4 62)">
<title>Time::set_seconds</title>
<!-- Node1 -->
<g id="Node000001" class="node">
<title>Node1</title>
<g id="a_Node000001"><a xlink:title="Sets the seconds of the time.">
<polygon fill="#999999" stroke="#666666" points="200.75,-39 101.5,-39 101.5,-19 200.75,-19 200.75,-39"/>
<text text-anchor="middle" x="151.12" y="-25.5" font-family="Helvetica,sans-Serif" font-size="10.00">Time::set_seconds</text>
</a>
</g>
</g>
<!-- Node2 -->
<g id="Node000002" class="node">
<title>Node2</title>
<g id="a_Node000002"><a xlink:href="class_time.html#a1f3ef09473068d4fabab7194731522ff" target="_top" xlink:title="Constructs a Time from a string representation of the time.">
<polygon fill="white" stroke="#666666" points="65.5,-58 0,-58 0,-38 65.5,-38 65.5,-58"/>
<text text-anchor="middle" x="32.75" y="-44.5" font-family="Helvetica,sans-Serif" font-size="10.00">Time::Time</text>
</a>
</g>
</g>
<!-- Node1&#45;&gt;Node2 -->
<g id="edge1_Node000001_Node000002" class="edge">
<title>Node1&#45;&gt;Node2</title>
<g id="a_edge1_Node000001_Node000002"><a xlink:title=" ">
<path fill="none" stroke="#63b8ff" d="M89.84,-38.84C81.55,-40.2 73.32,-41.54 65.82,-42.76"/>
<polygon fill="#63b8ff" stroke="#63b8ff" points="90.31,-42.31 99.62,-37.25 89.18,-35.4 90.31,-42.31"/>
</a>
</g>
</g>
<!-- Node3 -->
<g id="Node000003" class="node">
<title>Node3</title>
<g id="a_Node000003"><a xlink:href="class_time.html#af188ac5c1b6cb0bd774b761f0bfdc3bd" target="_top" xlink:title="Constructs a Time from hours, minutes, and seconds.">
<polygon fill="white" stroke="#666666" points="65.5,-20 0,-20 0,0 65.5,0 65.5,-20"/>
<text text-anchor="middle" x="32.75" y="-6.5" font-family="Helvetica,sans-Serif" font-size="10.00">Time::Time</text>
</a>
</g>
</g>
<!-- Node1&#45;&gt;Node3 -->
<g id="edge2_Node000001_Node000003" class="edge">
<title>Node1&#45;&gt;Node3</title>
<g id="a_edge2_Node000001_Node000003"><a xlink:title=" ">
<path fill="none" stroke="#63b8ff" d="M89.84,-19.16C81.55,-17.8 73.32,-16.46 65.82,-15.24"/>
<polygon fill="#63b8ff" stroke="#63b8ff" points="89.18,-22.6 99.62,-20.75 90.31,-15.69 89.18,-22.6"/>
</a>
</g>
</g>
</g>
</svg>
