<?xml version="1.0" encoding="UTF-8" standalone="no"?>
<!DOCTYPE svg PUBLIC "-//W3C//DTD SVG 1.1//EN"
 "http://www.w3.org/Graphics/SVG/1.1/DTD/svg11.dtd">
<!-- Generated by graphviz version 12.2.1 (20241206.2353)
 -->
<!-- Title: DataBaseGUI::child_edit Pages: 1 -->
<svg width="624pt" height="166pt"
 viewBox="0.00 0.00 624.00 166.00" xmlns="http://www.w3.org/2000/svg" xmlns:xlink="http://www.w3.org/1999/xlink">
<g id="graph0" class="graph" transform="scale(1 1) rotate(0) translate(4 162)">
<title>DataBaseGUI::child_edit</title>
<!-- Node1 -->
<g id="Node000001" class="node">
<title>Node1</title>
<g id="a_Node000001"><a xlink:title="Edits an existing child in the database.">
<polygon fill="#999999" stroke="#666666" points="124.75,-124 0,-124 0,-104 124.75,-104 124.75,-124"/>
<text text-anchor="middle" x="62.38" y="-110.5" font-family="Helvetica,sans-Serif" font-size="10.00">DataBaseGUI::child_edit</text>
</a>
</g>
</g>
<!-- Node2 -->
<g id="Node000002" class="node">
<title>Node2</title>
<g id="a_Node000002"><a xlink:href="$class_data_base_g_u_i.html#aa684465aa73b5b34bbadd24fc7f2f641" xlink:title=" ">
<polygon fill="white" stroke="#666666" points="276.5,-152 160.75,-152 160.75,-120 276.5,-120 276.5,-152"/>
<text text-anchor="start" x="168.75" y="-138.5" font-family="Helvetica,sans-Serif" font-size="10.00">DataBaseGUI::sort_to</text>
<text text-anchor="middle" x="218.62" y="-126.5" font-family="Helvetica,sans-Serif" font-size="10.00">_populate_children_tab</text>
</a>
</g>
</g>
<!-- Node1&#45;&gt;Node2 -->
<g id="edge1_Node000001_Node000002" class="edge">
<title>Node1&#45;&gt;Node2</title>
<g id="a_edge1_Node000001_Node000002"><a xlink:title=" ">
<path fill="none" stroke="#63b8ff" d="M125.23,-122.82C133.09,-123.94 141.17,-125.1 149.13,-126.23"/>
<polygon fill="#63b8ff" stroke="#63b8ff" points="148.37,-129.66 158.76,-127.6 149.36,-122.73 148.37,-129.66"/>
</a>
</g>
</g>
<!-- Node3 -->
<g id="Node000003" class="node">
<title>Node3</title>
<g id="a_Node000003"><a xlink:href="$class_data_base_g_u_i.html#af346d08370d9e4574980707f61b9c8f7" xlink:title="Populates the children tab with a list of children.">
<polygon fill="white" stroke="#666666" points="432.75,-108 312.5,-108 312.5,-76 432.75,-76 432.75,-108"/>
<text text-anchor="start" x="320.5" y="-94.5" font-family="Helvetica,sans-Serif" font-size="10.00">DataBaseGUI::populate</text>
<text text-anchor="middle" x="372.62" y="-82.5" font-family="Helvetica,sans-Serif" font-size="10.00">_children_tab</text>
</a>
</g>
</g>
<!-- Node2&#45;&gt;Node3 -->
<g id="edge2_Node000002_Node000003" class="edge">
<title>Node2&#45;&gt;Node3</title>
<g id="a_edge2_Node000002_Node000003"><a xlink:title=" ">
<path fill="none" stroke="#63b8ff" d="M276.22,-119.62C285.26,-117 294.7,-114.27 303.96,-111.59"/>
<polygon fill="#63b8ff" stroke="#63b8ff" points="304.64,-115.03 313.27,-108.89 302.69,-108.31 304.64,-115.03"/>
</a>
</g>
</g>
<!-- Node3&#45;&gt;Node1 -->
<g id="edge3_Node000003_Node000001" class="edge">
<title>Node3&#45;&gt;Node1</title>
<g id="a_edge3_Node000003_Node000001"><a xlink:title=" ">
<path fill="none" stroke="#63b8ff" d="M312.19,-96.24C261.97,-99.83 189.85,-104.97 136.17,-108.8"/>
<polygon fill="#63b8ff" stroke="#63b8ff" points="136.25,-105.29 126.52,-109.49 136.75,-112.27 136.25,-105.29"/>
</a>
</g>
</g>
<!-- Node4 -->
<g id="Node000004" class="node">
<title>Node4</title>
<g id="a_Node000004"><a xlink:href="$class_data_base_g_u_i.html#ae3a08843db874e51a7cea32fa8937ca5" xlink:title="Removes a child from the database.">
<polygon fill="white" stroke="#666666" points="594.25,-158 490.5,-158 490.5,-126 594.25,-126 594.25,-158"/>
<text text-anchor="start" x="498.5" y="-144.5" font-family="Helvetica,sans-Serif" font-size="10.00">DataBaseGUI::child</text>
<text text-anchor="middle" x="542.38" y="-132.5" font-family="Helvetica,sans-Serif" font-size="10.00">_remove</text>
</a>
</g>
</g>
<!-- Node3&#45;&gt;Node4 -->
<g id="edge4_Node000003_Node000004" class="edge">
<title>Node3&#45;&gt;Node4</title>
<g id="a_edge4_Node000003_Node000004"><a xlink:title=" ">
<path fill="none" stroke="#63b8ff" d="M428.55,-108.37C444.78,-113.21 462.65,-118.54 479.29,-123.5"/>
<polygon fill="#63b8ff" stroke="#63b8ff" points="477.99,-126.76 488.57,-126.26 479.99,-120.05 477.99,-126.76"/>
</a>
</g>
</g>
<!-- Node5 -->
<g id="Node000005" class="node">
<title>Node5</title>
<g id="a_Node000005"><a xlink:href="$class_data_base_g_u_i.html#afbc53e28ad83200fe77e0fa5a6eb970f" xlink:title="Clears the children tab.">
<polygon fill="white" stroke="#666666" points="601,-108 483.75,-108 483.75,-76 601,-76 601,-108"/>
<text text-anchor="start" x="491.75" y="-94.5" font-family="Helvetica,sans-Serif" font-size="10.00">DataBaseGUI::children</text>
<text text-anchor="middle" x="542.38" y="-82.5" font-family="Helvetica,sans-Serif" font-size="10.00">_tab_clear</text>
</a>
</g>
</g>
<!-- Node3&#45;&gt;Node5 -->
<g id="edge6_Node000003_Node000005" class="edge">
<title>Node3&#45;&gt;Node5</title>
<g id="a_edge6_Node000003_Node000005"><a xlink:title=" ">
<path fill="none" stroke="#63b8ff" d="M433.24,-92C445.84,-92 459.24,-92 472.16,-92"/>
<polygon fill="#63b8ff" stroke="#63b8ff" points="471.85,-95.5 481.85,-92 471.85,-88.5 471.85,-95.5"/>
</a>
</g>
</g>
<!-- Node6 -->
<g id="Node000006" class="node">
<title>Node6</title>
<g id="a_Node000006"><a xlink:href="$class_child_entry.html#abda9dea89937d77c4def3fb81d964ff9" xlink:title=" ">
<polygon fill="white" stroke="#666666" points="607.75,-58 477,-58 477,-38 607.75,-38 607.75,-58"/>
<text text-anchor="middle" x="542.38" y="-44.5" font-family="Helvetica,sans-Serif" font-size="10.00">ChildEntry::editRequested</text>
</a>
</g>
</g>
<!-- Node3&#45;&gt;Node6 -->
<g id="edge7_Node000003_Node000006" class="edge">
<title>Node3&#45;&gt;Node6</title>
<g id="a_edge7_Node000003_Node000006"><a xlink:title=" ">
<path fill="none" stroke="#63b8ff" d="M433.25,-76.32C445.01,-73.23 457.27,-70.01 468.75,-67 475.78,-65.16 483.2,-63.21 490.5,-61.3"/>
<polygon fill="#63b8ff" stroke="#63b8ff" points="491.16,-64.75 499.95,-58.83 489.39,-57.97 491.16,-64.75"/>
</a>
</g>
</g>
<!-- Node7 -->
<g id="Node000007" class="node">
<title>Node7</title>
<g id="a_Node000007"><a xlink:href="$class_child_entry.html#a69e495a83c20ea922198adea9ae47ddb" xlink:title=" ">
<polygon fill="white" stroke="#666666" points="616,-20 468.75,-20 468.75,0 616,0 616,-20"/>
<text text-anchor="middle" x="542.38" y="-6.5" font-family="Helvetica,sans-Serif" font-size="10.00">ChildEntry::removeRequested</text>
</a>
</g>
</g>
<!-- Node3&#45;&gt;Node7 -->
<g id="edge8_Node000003_Node000007" class="edge">
<title>Node3&#45;&gt;Node7</title>
<g id="a_edge8_Node000003_Node000007"><a xlink:title=" ">
<path fill="none" stroke="#63b8ff" d="M393.99,-75.62C412.51,-61.46 441.08,-41.37 468.75,-29 472.97,-27.11 477.41,-25.39 481.93,-23.81"/>
<polygon fill="#63b8ff" stroke="#63b8ff" points="482.67,-27.25 491.12,-20.86 480.53,-20.58 482.67,-27.25"/>
</a>
</g>
</g>
<!-- Node4&#45;&gt;Node2 -->
<g id="edge5_Node000004_Node000002" class="edge">
<title>Node4&#45;&gt;Node2</title>
<g id="a_edge5_Node000004_Node000002"><a xlink:title=" ">
<path fill="none" stroke="#63b8ff" d="M490.06,-141.04C435.4,-140.02 348.59,-138.41 288.12,-137.28"/>
<polygon fill="#63b8ff" stroke="#63b8ff" points="288.35,-133.78 278.29,-137.09 288.22,-140.78 288.35,-133.78"/>
</a>
</g>
</g>
</g>
</svg>
