<?xml version="1.0" encoding="UTF-8" standalone="no"?>
<!DOCTYPE svg PUBLIC "-//W3C//DTD SVG 1.1//EN"
 "http://www.w3.org/Graphics/SVG/1.1/DTD/svg11.dtd">
<!-- Generated by graphviz version 12.2.1 (20241206.2353)
 -->
<!-- Title: CSV_Parser::parse_lesson_children Pages: 1 -->
<!--zoomable 116 -->

<svg id="main" version="1.1" xmlns="http://www.w3.org/2000/svg" xmlns:xlink="http://www.w3.org/1999/xlink" xml:space="preserve" onload="init(evt)">

<style type="text/css"><![CDATA[
.node, .edge {opacity: 0.7;}
.node.selected, .edge.selected {opacity: 1;}
.edge:hover path { stroke: red; }
.edge:hover polygon { stroke: red; fill: red; }
]]></style>

<defs>
  <circle id="rim" cx="0" cy="0" r="7"/>
  <circle id="rim2" cx="0" cy="0" r="3.5"/>
  <g id="zoomPlus">
    <use xlink:href="#rim" fill="#404040"><set attributeName="fill" to="#808080" begin="zoomplus.mouseover" end="zoomplus.mouseout"/></use>
    <path d="M-4,0h8M0,-4v8" fill="none" stroke="white" stroke-width="1.5" pointer-events="none"/>
  </g>
  <g id="zoomMin">
    <use xlink:href="#rim" fill="#404040"><set attributeName="fill" to="#808080" begin="zoomminus.mouseover" end="zoomminus.mouseout"/></use>
    <path d="M-4,0h8" fill="none" stroke="white" stroke-width="1.5" pointer-events="none"/>
  </g>
  <g id="arrowUp" transform="translate(30 24)">
    <use xlink:href="#rim"/>
    <path pointer-events="none" fill="none" stroke="white" stroke-width="1.5" d="M0,-3.0v7 M-2.5,-0.5L0,-3.0L2.5,-0.5"/>
  </g>
  <g id="arrowRight" transform="rotate(90) translate(36 -43)">
    <use xlink:href="#rim"/>
    <path pointer-events="none" fill="none" stroke="white" stroke-width="1.5" d="M0,-3.0v7 M-2.5,-0.5L0,-3.0L2.5,-0.5"/>
  </g>
  <g id="arrowDown" transform="rotate(180) translate(-30 -48)">
    <use xlink:href="#rim"/>
    <path pointer-events="none" fill="none" stroke="white" stroke-width="1.5" d="M0,-3.0v7 M-2.5,-0.5L0,-3.0L2.5,-0.5"/>
  </g>
  <g id="arrowLeft" transform="rotate(270) translate(-36 17)">
    <use xlink:href="#rim"/>
    <path pointer-events="none" fill="none" stroke="white" stroke-width="1.5" d="M0,-3.0v7 M-2.5,-0.5L0,-3.0L2.5,-0.5"/>
  </g>
  <g id="resetDef">
    <use xlink:href="#rim2" fill="#404040"><set attributeName="fill" to="#808080" begin="reset.mouseover" end="reset.mouseout"/></use>
  </g>
</defs>
<script type="application/ecmascript">
var viewWidth = 640;
var viewHeight = 116;
var sectionId = 'dynsection-9';
</script>
<script type="application/ecmascript" xlink:href="svg.min.js"/>
<svg id="graph" class="graph">
<g id="viewport">
<title>CSV_Parser::parse_lesson_children</title>
<!-- Node1 -->
<g id="Node000001" class="node">
<title>Node1</title>
<g id="a_Node000001"><a xlink:title="Parses lesson&#39;s children from a CSV line.">
<polygon fill="#999999" stroke="#666666" points="134.5,-70 0,-70 0,-38 134.5,-38 134.5,-70"/>
<text text-anchor="start" x="8" y="-56.5" font-family="Helvetica,sans-Serif" font-size="10.00">CSV_Parser::parse_lesson</text>
<text text-anchor="middle" x="67.25" y="-44.5" font-family="Helvetica,sans-Serif" font-size="10.00">_children</text>
</a>
</g>
</g>
<!-- Node2 -->
<g id="Node000002" class="node">
<title>Node2</title>
<g id="a_Node000002"><a xlink:href="class_lesson.html#aaaaf02b40b853b755bb1d5ff28954d0e" target="_top" xlink:title="Adds a child to the lesson.">
<polygon fill="white" stroke="#666666" points="297.5,-108 202.75,-108 202.75,-88 297.5,-88 297.5,-108"/>
<text text-anchor="middle" x="250.12" y="-94.5" font-family="Helvetica,sans-Serif" font-size="10.00">Lesson::add_child</text>
</a>
</g>
</g>
<!-- Node1&#45;&gt;Node2 -->
<g id="edge1_Node000001_Node000002" class="edge">
<title>Node1&#45;&gt;Node2</title>
<g id="a_edge1_Node000001_Node000002"><a xlink:title=" ">
<path fill="none" stroke="#63b8ff" d="M134.8,-70.3C146.68,-73.2 158.96,-76.19 170.5,-79 178.38,-80.92 186.71,-82.93 194.88,-84.91"/>
<polygon fill="#63b8ff" stroke="#63b8ff" points="193.85,-88.26 204.39,-87.21 195.5,-81.46 193.85,-88.26"/>
</a>
</g>
</g>
<!-- Node3 -->
<g id="Node000003" class="node">
<title>Node3</title>
<g id="a_Node000003"><a xlink:href="class_database.html#a60ef6f17c1f6e1da26cf7fafd568164f" target="_top" xlink:title="Gets a child by name and surname.">
<polygon fill="white" stroke="#666666" points="302,-70 198.25,-70 198.25,-38 302,-38 302,-70"/>
<text text-anchor="start" x="206.25" y="-56.5" font-family="Helvetica,sans-Serif" font-size="10.00">Database::get_child</text>
<text text-anchor="middle" x="250.12" y="-44.5" font-family="Helvetica,sans-Serif" font-size="10.00">_by_name_surname</text>
</a>
</g>
</g>
<!-- Node1&#45;&gt;Node3 -->
<g id="edge2_Node000001_Node000003" class="edge">
<title>Node1&#45;&gt;Node3</title>
<g id="a_edge2_Node000001_Node000003"><a xlink:title=" ">
<path fill="none" stroke="#63b8ff" d="M134.83,-54C151.77,-54 169.92,-54 186.65,-54"/>
<polygon fill="#63b8ff" stroke="#63b8ff" points="186.45,-57.5 196.45,-54 186.45,-50.5 186.45,-57.5"/>
</a>
</g>
</g>
<!-- Node8 -->
<g id="Node000008" class="node">
<title>Node8</title>
<g id="a_Node000008"><a xlink:href="class_lesson.html#a50940a91b16eb52c2c3127b4100b026a" target="_top" xlink:title="Sets the payment date of a child.">
<polygon fill="white" stroke="#666666" points="329.75,-20 170.5,-20 170.5,0 329.75,0 329.75,-20"/>
<text text-anchor="middle" x="250.12" y="-6.5" font-family="Helvetica,sans-Serif" font-size="10.00">Lesson::set_child_payment_date</text>
</a>
</g>
</g>
<!-- Node1&#45;&gt;Node8 -->
<g id="edge9_Node000001_Node000008" class="edge">
<title>Node1&#45;&gt;Node8</title>
<g id="a_edge9_Node000001_Node000008"><a xlink:title=" ">
<path fill="none" stroke="#63b8ff" d="M134.8,-37.7C146.68,-34.8 158.96,-31.81 170.5,-29 178.38,-27.08 186.71,-25.07 194.88,-23.09"/>
<polygon fill="#63b8ff" stroke="#63b8ff" points="195.5,-26.54 204.39,-20.79 193.85,-19.74 195.5,-26.54"/>
</a>
</g>
</g>
<!-- Node4 -->
<g id="Node000004" class="node">
<title>Node4</title>
<g id="a_Node000004"><a xlink:href="class_database.html#a448f32cb2e58118d83634666431562c2" target="_top" xlink:title="Filters children by name.">
<polygon fill="white" stroke="#666666" points="474,-95 365.75,-95 365.75,-63 474,-63 474,-95"/>
<text text-anchor="start" x="373.75" y="-81.5" font-family="Helvetica,sans-Serif" font-size="10.00">Database::filter_child</text>
<text text-anchor="middle" x="419.88" y="-69.5" font-family="Helvetica,sans-Serif" font-size="10.00">_by_name</text>
</a>
</g>
</g>
<!-- Node3&#45;&gt;Node4 -->
<g id="edge3_Node000003_Node000004" class="edge">
<title>Node3&#45;&gt;Node4</title>
<g id="a_edge3_Node000003_Node000004"><a xlink:title=" ">
<path fill="none" stroke="#63b8ff" d="M302.37,-61.64C318.73,-64.07 337.05,-66.81 354.24,-69.37"/>
<polygon fill="#63b8ff" stroke="#63b8ff" points="353.43,-72.79 363.84,-70.8 354.46,-65.86 353.43,-72.79"/>
</a>
</g>
</g>
<!-- Node7 -->
<g id="Node000007" class="node">
<title>Node7</title>
<g id="a_Node000007"><a xlink:href="class_database.html#a48cdf44f55b29d6141c5e00b88fa4d22" target="_top" xlink:title="Filters children by surname.">
<polygon fill="white" stroke="#666666" points="474,-45 365.75,-45 365.75,-13 474,-13 474,-45"/>
<text text-anchor="start" x="373.75" y="-31.5" font-family="Helvetica,sans-Serif" font-size="10.00">Database::filter_child</text>
<text text-anchor="middle" x="419.88" y="-19.5" font-family="Helvetica,sans-Serif" font-size="10.00">_by_surname</text>
</a>
</g>
</g>
<!-- Node3&#45;&gt;Node7 -->
<g id="edge6_Node000003_Node000007" class="edge">
<title>Node3&#45;&gt;Node7</title>
<g id="a_edge6_Node000003_Node000007"><a xlink:title=" ">
<path fill="none" stroke="#63b8ff" d="M302.37,-46.36C318.73,-43.93 337.05,-41.19 354.24,-38.63"/>
<polygon fill="#63b8ff" stroke="#63b8ff" points="354.46,-42.14 363.84,-37.2 353.43,-35.21 354.46,-42.14"/>
</a>
</g>
</g>
<!-- Node5 -->
<g id="Node000005" class="node">
<title>Node5</title>
<g id="a_Node000005"><a xlink:href="_helper___functions_8h.html#a0d3fbaad2936b89eb0d594cba2929800" target="_top" xlink:title="Filters a vector of pointers based on a predicate.">
<polygon fill="white" stroke="#666666" points="588.25,-86 553.5,-86 553.5,-66 588.25,-66 588.25,-86"/>
<text text-anchor="middle" x="570.88" y="-72.5" font-family="Helvetica,sans-Serif" font-size="10.00">filter</text>
</a>
</g>
</g>
<!-- Node4&#45;&gt;Node5 -->
<g id="edge4_Node000004_Node000005" class="edge">
<title>Node4&#45;&gt;Node5</title>
<g id="a_edge4_Node000004_Node000005"><a xlink:title=" ">
<path fill="none" stroke="#63b8ff" d="M474.25,-77.93C496.99,-77.47 522.59,-76.95 541.58,-76.57"/>
<polygon fill="#63b8ff" stroke="#63b8ff" points="541.57,-80.07 551.49,-76.37 541.43,-73.07 541.57,-80.07"/>
</a>
</g>
</g>
<!-- Node6 -->
<g id="Node000006" class="node">
<title>Node6</title>
<g id="a_Node000006"><a xlink:href="_helper___functions_8h.html#ab487a2e8523090e129c7f67ed349c9a1" target="_top" xlink:title="Filters a multimap by its keys based on a predicate.">
<polygon fill="white" stroke="#666666" points="631.75,-45 510,-45 510,-25 631.75,-25 631.75,-45"/>
<text text-anchor="middle" x="570.88" y="-31.5" font-family="Helvetica,sans-Serif" font-size="10.00">filter_multimap_by_keys</text>
</a>
</g>
</g>
<!-- Node4&#45;&gt;Node6 -->
<g id="edge5_Node000004_Node000006" class="edge">
<title>Node4&#45;&gt;Node6</title>
<g id="a_edge5_Node000004_Node000006"><a xlink:title=" ">
<path fill="none" stroke="#63b8ff" d="M474.25,-63.24C490.37,-58.48 507.94,-53.29 523.57,-48.68"/>
<polygon fill="#63b8ff" stroke="#63b8ff" points="524.5,-52.05 533.1,-45.86 522.52,-45.34 524.5,-52.05"/>
</a>
</g>
</g>
<!-- Node7&#45;&gt;Node5 -->
<g id="edge7_Node000007_Node000005" class="edge">
<title>Node7&#45;&gt;Node5</title>
<g id="a_edge7_Node000007_Node000005"><a xlink:title=" ">
<path fill="none" stroke="#63b8ff" d="M472.99,-45.44C496.31,-52.79 522.86,-61.17 542.26,-67.29"/>
<polygon fill="#63b8ff" stroke="#63b8ff" points="541.02,-70.57 551.61,-70.24 543.12,-63.89 541.02,-70.57"/>
</a>
</g>
</g>
<!-- Node7&#45;&gt;Node6 -->
<g id="edge8_Node000007_Node000006" class="edge">
<title>Node7&#45;&gt;Node6</title>
<g id="a_edge8_Node000007_Node000006"><a xlink:title=" ">
<path fill="none" stroke="#63b8ff" d="M474.25,-31.15C482.02,-31.46 490.13,-31.79 498.2,-32.11"/>
<polygon fill="#63b8ff" stroke="#63b8ff" points="497.89,-35.6 508.02,-32.51 498.17,-28.61 497.89,-35.6"/>
</a>
</g>
</g>
</g>
</svg>

<g id="navigator" transform="translate(0 0)" fill="#404254">
  <rect fill="#f2f5e9" fill-opacity="0.5" stroke="#606060" stroke-width=".5" x="0" y="0" width="60" height="60"/>
  <use id="zoomplus" xlink:href="#zoomPlus" x="17" y="9" onmousedown="handleZoom(evt,'in')"/>
  <use id="zoomminus" xlink:href="#zoomMin" x="42" y="9" onmousedown="handleZoom(evt,'out')"/>
  <use id="reset" xlink:href="#resetDef" x="30" y="36" onmousedown="handleReset()"/>
   <use id="arrowup" xlink:href="#arrowUp" x="0" y="0" onmousedown="handlePan(0,-1)"/>
  <use id="arrowright" xlink:href="#arrowRight" x="0" y="0" onmousedown="handlePan(1,0)"/>
  <use id="arrowdown" xlink:href="#arrowDown" x="0" y="0" onmousedown="handlePan(0,1)"/>
  <use id="arrowleft" xlink:href="#arrowLeft" x="0" y="0" onmousedown="handlePan(-1,0)"/>
</g>
<svg viewBox="0 0 15 15" width="100%" height="30px" preserveAspectRatio="xMaxYMin meet">
 <g id="arrow_out" transform="scale(0.3 0.3)">
  <a xlink:href="class_c_s_v___parser_acc479fe8705c80c065e4d725a02c852d_cgraph_org.svg" target="_base">
   <rect id="button" ry="5" rx="5" y="6" x="6" height="38" width="38"
        fill="#f2f5e9" fill-opacity="0.5" stroke="#606060" stroke-width="1.0"/>
   <path id="arrow"
     d="M 11.500037,31.436501 C 11.940474,20.09759 22.043105,11.32322 32.158766,21.979434 L 37.068811,17.246167 C 37.068811,17.246167 37.088388,32 37.088388,32 L 22.160133,31.978069 C 22.160133,31.978069 26.997745,27.140456 26.997745,27.140456 C 18.528582,18.264221 13.291696,25.230495 11.500037,31.436501 z"
     style="fill:#404040;"/>
  </a>
 </g>
</svg>

<style type='text/css'>
<![CDATA[
[data-mouse-over-selected='false'] { opacity: 0.7; }
[data-mouse-over-selected='true']  { opacity: 1.0; }
]]>
</style>
<script type="application/ecmascript"><![CDATA[
document.addEventListener('DOMContentLoaded', (event) => {
  highlightEdges();
  highlightAdjacentNodes();
});
]]></script>
</svg>
