<?xml version="1.0" encoding="UTF-8" standalone="no"?>
<!DOCTYPE svg PUBLIC "-//W3C//DTD SVG 1.1//EN"
 "http://www.w3.org/Graphics/SVG/1.1/DTD/svg11.dtd">
<!-- Generated by graphviz version 12.2.1 (20241206.2353)
 -->
<!-- Title: Parent::get_email Pages: 1 -->
<svg width="922pt" height="210pt"
 viewBox="0.00 0.00 921.50 210.00" xmlns="http://www.w3.org/2000/svg" xmlns:xlink="http://www.w3.org/1999/xlink">
<g id="graph0" class="graph" transform="scale(1 1) rotate(0) translate(4 206)">
<title>Parent::get_email</title>
<!-- Node1 -->
<g id="Node000001" class="node">
<title>Node1</title>
<g id="a_Node000001"><a xlink:title="Gets the email address of the parent.">
<polygon fill="#999999" stroke="#666666" points="913.5,-108 821,-108 821,-88 913.5,-88 913.5,-108"/>
<text text-anchor="middle" x="867.25" y="-94.5" font-family="Helvetica,sans-Serif" font-size="10.00">Parent::get_email</text>
</a>
</g>
</g>
<!-- Node2 -->
<g id="Node000002" class="node">
<title>Node2</title>
<g id="a_Node000002"><a xlink:href="class_database.html#ab9f567b93fb0e0be48d59cb6b6d3b7b7" target="_top" xlink:title="Adds a parent to the database.">
<polygon fill="white" stroke="#666666" points="767.75,-196 655.75,-196 655.75,-176 767.75,-176 767.75,-196"/>
<text text-anchor="middle" x="711.75" y="-182.5" font-family="Helvetica,sans-Serif" font-size="10.00">Database::add_parent</text>
</a>
</g>
</g>
<!-- Node1&#45;&gt;Node2 -->
<g id="edge1_Node000001_Node000002" class="edge">
<title>Node1&#45;&gt;Node2</title>
<g id="a_edge1_Node000001_Node000002"><a xlink:title=" ">
<path fill="none" stroke="#63b8ff" d="M849.48,-116.25C834.14,-131.9 810.06,-153.93 785,-167 778.44,-170.42 771.23,-173.26 763.97,-175.6"/>
<polygon fill="#63b8ff" stroke="#63b8ff" points="851.65,-119.05 856.02,-109.4 846.58,-114.22 851.65,-119.05"/>
</a>
</g>
</g>
<!-- Node7 -->
<g id="Node000007" class="node">
<title>Node7</title>
<g id="a_Node000007"><a xlink:href="class_database.html#a97d19db70a72013ed95a85d5417a37ce" target="_top" xlink:title="Filters parents by email.">
<polygon fill="white" stroke="#666666" points="769.25,-158 654.25,-158 654.25,-126 769.25,-126 769.25,-158"/>
<text text-anchor="start" x="662.25" y="-144.5" font-family="Helvetica,sans-Serif" font-size="10.00">Database::filter_parent</text>
<text text-anchor="middle" x="711.75" y="-132.5" font-family="Helvetica,sans-Serif" font-size="10.00">_by_email</text>
</a>
</g>
</g>
<!-- Node1&#45;&gt;Node7 -->
<g id="edge6_Node000001_Node000007" class="edge">
<title>Node1&#45;&gt;Node7</title>
<g id="a_edge6_Node000001_Node000007"><a xlink:title=" ">
<path fill="none" stroke="#63b8ff" d="M818.9,-111.57C803.3,-116.04 785.8,-121.06 769.57,-125.71"/>
<polygon fill="#63b8ff" stroke="#63b8ff" points="819.77,-114.96 828.42,-108.84 817.84,-108.24 819.77,-114.96"/>
</a>
</g>
</g>
<!-- Node8 -->
<g id="Node000008" class="node">
<title>Node8</title>
<g id="a_Node000008"><a xlink:href="class_database.html#ac93799e482b7dbee6db4bb094f7255ce" target="_top" xlink:title="Removes a parent from the database.">
<polygon fill="white" stroke="#666666" points="776,-108 647.5,-108 647.5,-88 776,-88 776,-108"/>
<text text-anchor="middle" x="711.75" y="-94.5" font-family="Helvetica,sans-Serif" font-size="10.00">Database::remove_parent</text>
</a>
</g>
</g>
<!-- Node1&#45;&gt;Node8 -->
<g id="edge7_Node000001_Node000008" class="edge">
<title>Node1&#45;&gt;Node8</title>
<g id="a_edge7_Node000001_Node000008"><a xlink:title=" ">
<path fill="none" stroke="#63b8ff" d="M809.25,-98C798.54,-98 787.29,-98 776.39,-98"/>
<polygon fill="#63b8ff" stroke="#63b8ff" points="809.1,-101.5 819.1,-98 809.1,-94.5 809.1,-101.5"/>
</a>
</g>
</g>
<!-- Node9 -->
<g id="Node000009" class="node">
<title>Node9</title>
<g id="a_Node000009"><a xlink:href="class_database.html#a3bdc14caecc90d02e843116c3c28f91c" target="_top" xlink:title="Adds a parent&#39;s information to the maps.">
<polygon fill="white" stroke="#666666" points="785,-70 638.5,-70 638.5,-50 785,-50 785,-70"/>
<text text-anchor="middle" x="711.75" y="-56.5" font-family="Helvetica,sans-Serif" font-size="10.00">Database::update_parent_end</text>
</a>
</g>
</g>
<!-- Node1&#45;&gt;Node9 -->
<g id="edge8_Node000001_Node000009" class="edge">
<title>Node1&#45;&gt;Node9</title>
<g id="a_edge8_Node000001_Node000009"><a xlink:title=" ">
<path fill="none" stroke="#63b8ff" d="M812.74,-84.75C793.82,-80.07 772.81,-74.87 754.96,-70.45"/>
<polygon fill="#63b8ff" stroke="#63b8ff" points="811.88,-88.15 822.43,-87.15 813.56,-81.35 811.88,-88.15"/>
</a>
</g>
</g>
<!-- Node10 -->
<g id="Node000010" class="node">
<title>Node10</title>
<g id="a_Node000010"><a xlink:href="class_database.html#a2f49b299c2bd30461bbd0fb27fce3a57" target="_top" xlink:title="Removes a parent&#39;s information from the maps.">
<polygon fill="white" stroke="#666666" points="774.5,-32 649,-32 649,0 774.5,0 774.5,-32"/>
<text text-anchor="start" x="657" y="-18.5" font-family="Helvetica,sans-Serif" font-size="10.00">Database::update_parent</text>
<text text-anchor="middle" x="711.75" y="-6.5" font-family="Helvetica,sans-Serif" font-size="10.00">_start</text>
</a>
</g>
</g>
<!-- Node1&#45;&gt;Node10 -->
<g id="edge9_Node000001_Node000010" class="edge">
<title>Node1&#45;&gt;Node10</title>
<g id="a_edge9_Node000001_Node000010"><a xlink:title=" ">
<path fill="none" stroke="#63b8ff" d="M844.82,-80.46C829.02,-68.17 806.6,-52.04 785,-41 778.97,-37.92 772.48,-35.07 765.94,-32.49"/>
<polygon fill="#63b8ff" stroke="#63b8ff" points="842.54,-83.12 852.55,-86.6 846.89,-77.64 842.54,-83.12"/>
</a>
</g>
</g>
<!-- Node3 -->
<g id="Node000003" class="node">
<title>Node3</title>
<g id="a_Node000003"><a xlink:href="class_c_s_v___parser.html#a43700e2ac18a5503278f29a57ed734a3" target="_top" xlink:title="Parses a parent from a CSV line.">
<polygon fill="white" stroke="#666666" points="602.5,-196 469.5,-196 469.5,-176 602.5,-176 602.5,-196"/>
<text text-anchor="middle" x="536" y="-182.5" font-family="Helvetica,sans-Serif" font-size="10.00">CSV_Parser::parse_parent</text>
</a>
</g>
</g>
<!-- Node2&#45;&gt;Node3 -->
<g id="edge2_Node000002_Node000003" class="edge">
<title>Node2&#45;&gt;Node3</title>
<g id="a_edge2_Node000002_Node000003"><a xlink:title=" ">
<path fill="none" stroke="#63b8ff" d="M644.12,-186C630.59,-186 616.36,-186 602.85,-186"/>
<polygon fill="#63b8ff" stroke="#63b8ff" points="643.78,-189.5 653.78,-186 643.78,-182.5 643.78,-189.5"/>
</a>
</g>
</g>
<!-- Node4 -->
<g id="Node000004" class="node">
<title>Node4</title>
<g id="a_Node000004"><a xlink:href="class_database.html#a0036708a325b181645735f8fc0c2beaa" target="_top" xlink:title="Imports parents from a CSV file.">
<polygon fill="white" stroke="#666666" points="433.5,-202 303.5,-202 303.5,-170 433.5,-170 433.5,-202"/>
<text text-anchor="start" x="311.5" y="-188.5" font-family="Helvetica,sans-Serif" font-size="10.00">Database::import_Parents</text>
<text text-anchor="middle" x="368.5" y="-176.5" font-family="Helvetica,sans-Serif" font-size="10.00">_from_csv_file</text>
</a>
</g>
</g>
<!-- Node3&#45;&gt;Node4 -->
<g id="edge3_Node000003_Node000004" class="edge">
<title>Node3&#45;&gt;Node4</title>
<g id="a_edge3_Node000003_Node000004"><a xlink:title=" ">
<path fill="none" stroke="#63b8ff" d="M457.83,-186C449.79,-186 441.68,-186 433.81,-186"/>
<polygon fill="#63b8ff" stroke="#63b8ff" points="457.6,-189.5 467.6,-186 457.6,-182.5 457.6,-189.5"/>
</a>
</g>
</g>
<!-- Node5 -->
<g id="Node000005" class="node">
<title>Node5</title>
<g id="a_Node000005"><a xlink:href="class_database.html#af3b2c97f6ffbcff3ec1c0f78a91d6107" target="_top" xlink:title="Imports data from a stream.">
<polygon fill="white" stroke="#666666" points="267.5,-202 151.75,-202 151.75,-170 267.5,-170 267.5,-202"/>
<text text-anchor="start" x="159.75" y="-188.5" font-family="Helvetica,sans-Serif" font-size="10.00">Database::import_from</text>
<text text-anchor="middle" x="209.62" y="-176.5" font-family="Helvetica,sans-Serif" font-size="10.00">_stream</text>
</a>
</g>
</g>
<!-- Node4&#45;&gt;Node5 -->
<g id="edge4_Node000004_Node000005" class="edge">
<title>Node4&#45;&gt;Node5</title>
<g id="a_edge4_Node000004_Node000005"><a xlink:title=" ">
<path fill="none" stroke="#63b8ff" d="M291.92,-186C283.87,-186 275.78,-186 267.99,-186"/>
<polygon fill="#63b8ff" stroke="#63b8ff" points="291.73,-189.5 301.73,-186 291.73,-182.5 291.73,-189.5"/>
</a>
</g>
</g>
<!-- Node6 -->
<g id="Node000006" class="node">
<title>Node6</title>
<g id="a_Node000006"><a xlink:href="class_database.html#a0a08797a6ca7a3456150370e3f816d4c" target="_top" xlink:title="Imports data from a CSV file.">
<polygon fill="white" stroke="#666666" points="115.75,-202 0,-202 0,-170 115.75,-170 115.75,-202"/>
<text text-anchor="start" x="8" y="-188.5" font-family="Helvetica,sans-Serif" font-size="10.00">Database::import_from</text>
<text text-anchor="middle" x="57.88" y="-176.5" font-family="Helvetica,sans-Serif" font-size="10.00">_csv_file</text>
</a>
</g>
</g>
<!-- Node5&#45;&gt;Node6 -->
<g id="edge5_Node000005_Node000006" class="edge">
<title>Node5&#45;&gt;Node6</title>
<g id="a_edge5_Node000005_Node000006"><a xlink:title=" ">
<path fill="none" stroke="#63b8ff" d="M140.16,-186C131.99,-186 123.73,-186 115.76,-186"/>
<polygon fill="#63b8ff" stroke="#63b8ff" points="140.07,-189.5 150.07,-186 140.07,-182.5 140.07,-189.5"/>
</a>
</g>
</g>
</g>
</svg>
