<?xml version="1.0" encoding="UTF-8" standalone="no"?>
<!DOCTYPE svg PUBLIC "-//W3C//DTD SVG 1.1//EN"
 "http://www.w3.org/Graphics/SVG/1.1/DTD/svg11.dtd">
<!-- Generated by graphviz version 12.2.1 (20241206.2353)
 -->
<!-- Title: Database::export_to_stream Pages: 1 -->
<svg width="294pt" height="190pt"
 viewBox="0.00 0.00 293.50 190.00" xmlns="http://www.w3.org/2000/svg" xmlns:xlink="http://www.w3.org/1999/xlink">
<g id="graph0" class="graph" transform="scale(1 1) rotate(0) translate(4 186)">
<title>Database::export_to_stream</title>
<!-- Node1 -->
<g id="Node000001" class="node">
<title>Node1</title>
<g id="a_Node000001"><a xlink:title="Exports data to a stream.">
<polygon fill="#999999" stroke="#666666" points="104.5,-107 0,-107 0,-75 104.5,-75 104.5,-107"/>
<text text-anchor="start" x="8" y="-93.5" font-family="Helvetica,sans-Serif" font-size="10.00">Database::export_to</text>
<text text-anchor="middle" x="52.25" y="-81.5" font-family="Helvetica,sans-Serif" font-size="10.00">_stream</text>
</a>
</g>
</g>
<!-- Node2 -->
<g id="Node000002" class="node">
<title>Node2</title>
<g id="a_Node000002"><a xlink:href="class_database.html#a1aeb301c4e62896370c486cd3391b4c1" target="_top" xlink:title="Exports children to a CSV file.">
<polygon fill="white" stroke="#666666" points="279.12,-182 146.88,-182 146.88,-150 279.12,-150 279.12,-182"/>
<text text-anchor="start" x="154.88" y="-168.5" font-family="Helvetica,sans-Serif" font-size="10.00">Database::export_Children</text>
<text text-anchor="middle" x="213" y="-156.5" font-family="Helvetica,sans-Serif" font-size="10.00">_to_csv_file</text>
</a>
</g>
</g>
<!-- Node1&#45;&gt;Node2 -->
<g id="edge1_Node000001_Node000002" class="edge">
<title>Node1&#45;&gt;Node2</title>
<g id="a_edge1_Node000001_Node000002"><a xlink:title=" ">
<path fill="none" stroke="#63b8ff" d="M78.93,-107.39C95.97,-117.84 119.06,-131.21 140.5,-141 143.79,-142.5 147.2,-143.97 150.66,-145.39"/>
<polygon fill="#63b8ff" stroke="#63b8ff" points="149.15,-148.56 159.74,-148.97 151.72,-142.05 149.15,-148.56"/>
</a>
</g>
</g>
<!-- Node3 -->
<g id="Node000003" class="node">
<title>Node3</title>
<g id="a_Node000003"><a xlink:href="class_database.html#a331a8626ba05195269528d4138ef9f81" target="_top" xlink:title="Exports employees to a CSV file.">
<polygon fill="white" stroke="#666666" points="285.5,-132 140.5,-132 140.5,-100 285.5,-100 285.5,-132"/>
<text text-anchor="start" x="148.5" y="-118.5" font-family="Helvetica,sans-Serif" font-size="10.00">Database::export_Employees</text>
<text text-anchor="middle" x="213" y="-106.5" font-family="Helvetica,sans-Serif" font-size="10.00">_to_csv_file</text>
</a>
</g>
</g>
<!-- Node1&#45;&gt;Node3 -->
<g id="edge2_Node000001_Node000003" class="edge">
<title>Node1&#45;&gt;Node3</title>
<g id="a_edge2_Node000001_Node000003"><a xlink:title=" ">
<path fill="none" stroke="#63b8ff" d="M104.79,-99.12C112.57,-100.34 120.76,-101.63 129,-102.93"/>
<polygon fill="#63b8ff" stroke="#63b8ff" points="128.32,-106.37 138.74,-104.46 129.41,-99.45 128.32,-106.37"/>
</a>
</g>
</g>
<!-- Node4 -->
<g id="Node000004" class="node">
<title>Node4</title>
<g id="a_Node000004"><a xlink:href="class_database.html#a415d6b7c807f0ed446431d9a6349675f" target="_top" xlink:title="Exports lessons to a CSV file.">
<polygon fill="white" stroke="#666666" points="279.5,-82 146.5,-82 146.5,-50 279.5,-50 279.5,-82"/>
<text text-anchor="start" x="154.5" y="-68.5" font-family="Helvetica,sans-Serif" font-size="10.00">Database::export_Lessons</text>
<text text-anchor="middle" x="213" y="-56.5" font-family="Helvetica,sans-Serif" font-size="10.00">_to_csv_file</text>
</a>
</g>
</g>
<!-- Node1&#45;&gt;Node4 -->
<g id="edge3_Node000001_Node000004" class="edge">
<title>Node1&#45;&gt;Node4</title>
<g id="a_edge3_Node000001_Node000004"><a xlink:title=" ">
<path fill="none" stroke="#63b8ff" d="M104.79,-82.88C114.5,-81.35 124.84,-79.73 135.13,-78.11"/>
<polygon fill="#63b8ff" stroke="#63b8ff" points="135.41,-81.61 144.74,-76.59 134.32,-74.69 135.41,-81.61"/>
</a>
</g>
</g>
<!-- Node5 -->
<g id="Node000005" class="node">
<title>Node5</title>
<g id="a_Node000005"><a xlink:href="class_database.html#a73ac31eda79b61b8efc1ad4284c7b288" target="_top" xlink:title="Exports parents to a CSV file.">
<polygon fill="white" stroke="#666666" points="278,-32 148,-32 148,0 278,0 278,-32"/>
<text text-anchor="start" x="156" y="-18.5" font-family="Helvetica,sans-Serif" font-size="10.00">Database::export_Parents</text>
<text text-anchor="middle" x="213" y="-6.5" font-family="Helvetica,sans-Serif" font-size="10.00">_to_csv_file</text>
</a>
</g>
</g>
<!-- Node1&#45;&gt;Node5 -->
<g id="edge4_Node000001_Node000005" class="edge">
<title>Node1&#45;&gt;Node5</title>
<g id="a_edge4_Node000001_Node000005"><a xlink:title=" ">
<path fill="none" stroke="#63b8ff" d="M78.93,-74.61C95.97,-64.16 119.06,-50.79 140.5,-41 143.79,-39.5 147.2,-38.03 150.66,-36.61"/>
<polygon fill="#63b8ff" stroke="#63b8ff" points="151.72,-39.95 159.74,-33.03 149.15,-33.44 151.72,-39.95"/>
</a>
</g>
</g>
</g>
</svg>
