<?xml version="1.0" encoding="UTF-8" standalone="no"?>
<!DOCTYPE svg PUBLIC "-//W3C//DTD SVG 1.1//EN"
 "http://www.w3.org/Graphics/SVG/1.1/DTD/svg11.dtd">
<!-- Generated by graphviz version 12.2.1 (20241206.2353)
 -->
<!-- Title: DataBaseGUI::populate_children_tab Pages: 1 -->
<!--zoomable 836 -->

<svg id="main" version="1.1" xmlns="http://www.w3.org/2000/svg" xmlns:xlink="http://www.w3.org/1999/xlink" xml:space="preserve" onload="init(evt)">

<style type="text/css"><![CDATA[
.node, .edge {opacity: 0.7;}
.node.selected, .edge.selected {opacity: 1;}
.edge:hover path { stroke: red; }
.edge:hover polygon { stroke: red; fill: red; }
]]></style>

<defs>
  <circle id="rim" cx="0" cy="0" r="7"/>
  <circle id="rim2" cx="0" cy="0" r="3.5"/>
  <g id="zoomPlus">
    <use xlink:href="#rim" fill="#404040"><set attributeName="fill" to="#808080" begin="zoomplus.mouseover" end="zoomplus.mouseout"/></use>
    <path d="M-4,0h8M0,-4v8" fill="none" stroke="white" stroke-width="1.5" pointer-events="none"/>
  </g>
  <g id="zoomMin">
    <use xlink:href="#rim" fill="#404040"><set attributeName="fill" to="#808080" begin="zoomminus.mouseover" end="zoomminus.mouseout"/></use>
    <path d="M-4,0h8" fill="none" stroke="white" stroke-width="1.5" pointer-events="none"/>
  </g>
  <g id="arrowUp" transform="translate(30 24)">
    <use xlink:href="#rim"/>
    <path pointer-events="none" fill="none" stroke="white" stroke-width="1.5" d="M0,-3.0v7 M-2.5,-0.5L0,-3.0L2.5,-0.5"/>
  </g>
  <g id="arrowRight" transform="rotate(90) translate(36 -43)">
    <use xlink:href="#rim"/>
    <path pointer-events="none" fill="none" stroke="white" stroke-width="1.5" d="M0,-3.0v7 M-2.5,-0.5L0,-3.0L2.5,-0.5"/>
  </g>
  <g id="arrowDown" transform="rotate(180) translate(-30 -48)">
    <use xlink:href="#rim"/>
    <path pointer-events="none" fill="none" stroke="white" stroke-width="1.5" d="M0,-3.0v7 M-2.5,-0.5L0,-3.0L2.5,-0.5"/>
  </g>
  <g id="arrowLeft" transform="rotate(270) translate(-36 17)">
    <use xlink:href="#rim"/>
    <path pointer-events="none" fill="none" stroke="white" stroke-width="1.5" d="M0,-3.0v7 M-2.5,-0.5L0,-3.0L2.5,-0.5"/>
  </g>
  <g id="resetDef">
    <use xlink:href="#rim2" fill="#404040"><set attributeName="fill" to="#808080" begin="reset.mouseover" end="reset.mouseout"/></use>
  </g>
</defs>
<script type="application/ecmascript">
var viewWidth = 1396;
var viewHeight = 836;
var sectionId = 'dynsection-60';
</script>
<script type="application/ecmascript" xlink:href="svg.min.js"/>
<svg id="graph" class="graph">
<g id="viewport">
<title>DataBaseGUI::populate_children_tab</title>
<!-- Node1 -->
<g id="Node000001" class="node">
<title>Node1</title>
<g id="a_Node000001"><a xlink:title="Populates the children tab with a list of children.">
<polygon fill="#999999" stroke="#666666" points="1388.25,-222 1268,-222 1268,-190 1388.25,-190 1388.25,-222"/>
<text text-anchor="start" x="1276" y="-208.5" font-family="Helvetica,sans-Serif" font-size="10.00">DataBaseGUI::populate</text>
<text text-anchor="middle" x="1328.12" y="-196.5" font-family="Helvetica,sans-Serif" font-size="10.00">_children_tab</text>
</a>
</g>
</g>
<!-- Node2 -->
<g id="Node000002" class="node">
<title>Node2</title>
<g id="a_Node000002"><a xlink:href="class_data_base_g_u_i.html#a2d921da686e76ae195da018bb735a1ae" target="_top" xlink:title="Searches for children based on the provided name and surname.">
<polygon fill="white" stroke="#666666" points="1232,-340 1128.25,-340 1128.25,-308 1232,-308 1232,-340"/>
<text text-anchor="start" x="1136.25" y="-326.5" font-family="Helvetica,sans-Serif" font-size="10.00">DataBaseGUI::child</text>
<text text-anchor="middle" x="1180.12" y="-314.5" font-family="Helvetica,sans-Serif" font-size="10.00">_search</text>
</a>
</g>
</g>
<!-- Node1&#45;&gt;Node2 -->
<g id="edge1_Node000001_Node000002" class="edge">
<title>Node1&#45;&gt;Node2</title>
<g id="a_edge1_Node000001_Node000002"><a xlink:title=" ">
<path fill="none" stroke="#63b8ff" d="M1302.38,-230.03C1283.69,-247.69 1257.07,-271.85 1232,-291 1224.47,-296.75 1215.95,-302.54 1208.06,-307.62"/>
<polygon fill="#63b8ff" stroke="#63b8ff" points="1304.7,-232.65 1309.52,-223.22 1299.87,-227.59 1304.7,-232.65"/>
</a>
</g>
</g>
<!-- Node8 -->
<g id="Node000008" class="node">
<title>Node8</title>
<g id="a_Node000008"><a xlink:href="class_data_base_g_u_i.html#a6c35e47ed05a80db144f240dee805a9d" target="_top" xlink:title="Sets up the GUI.">
<polygon fill="white" stroke="#666666" points="294.88,-391 187.38,-391 187.38,-371 294.88,-371 294.88,-391"/>
<text text-anchor="middle" x="241.12" y="-377.5" font-family="Helvetica,sans-Serif" font-size="10.00">DataBaseGUI::setup</text>
</a>
</g>
</g>
<!-- Node1&#45;&gt;Node8 -->
<g id="edge42_Node000001_Node000008" class="edge">
<title>Node1&#45;&gt;Node8</title>
<g id="a_edge42_Node000001_Node000008"><a xlink:title=" ">
<path fill="none" stroke="#63b8ff" d="M1256.48,-217.57C1198.78,-226.02 1115.03,-236 1041.38,-236 1041.38,-236 1041.38,-236 563.88,-236 462.8,-236 425.76,-206.2 337.25,-255 288.29,-282 256.95,-345.98 246.24,-370.86"/>
<polygon fill="#63b8ff" stroke="#63b8ff" points="1256.79,-221.06 1266.16,-216.13 1255.76,-214.14 1256.79,-221.06"/>
</a>
</g>
</g>
<!-- Node26 -->
<g id="Node000026" class="node">
<title>Node26</title>
<g id="a_Node000026"><a xlink:href="class_data_base_g_u_i.html#aa684465aa73b5b34bbadd24fc7f2f641" target="_top" xlink:title="Selects the appropriate sorting to use based on child sort index.">
<polygon fill="white" stroke="#666666" points="622.75,-170 507,-170 507,-138 622.75,-138 622.75,-170"/>
<text text-anchor="start" x="515" y="-156.5" font-family="Helvetica,sans-Serif" font-size="10.00">DataBaseGUI::sort_to</text>
<text text-anchor="middle" x="564.88" y="-144.5" font-family="Helvetica,sans-Serif" font-size="10.00">_populate_children_tab</text>
</a>
</g>
</g>
<!-- Node1&#45;&gt;Node26 -->
<g id="edge43_Node000001_Node000026" class="edge">
<title>Node1&#45;&gt;Node26</title>
<g id="a_edge43_Node000001_Node000026"><a xlink:title=" ">
<path fill="none" stroke="#63b8ff" d="M1256.48,-194.43C1198.78,-185.98 1115.03,-176 1041.38,-176 1041.38,-176 1041.38,-176 882.75,-176 791.76,-176 686.43,-166.86 623.04,-160.36"/>
<polygon fill="#63b8ff" stroke="#63b8ff" points="1255.76,-197.86 1266.16,-195.87 1256.79,-190.94 1255.76,-197.86"/>
</a>
</g>
</g>
<!-- Node3 -->
<g id="Node000003" class="node">
<title>Node3</title>
<g id="a_Node000003"><a xlink:href="class_data_base_g_u_i.html#aadb0e7d323a970603312695c0dd9b264" target="_top" xlink:title="Searches for children based on the provided child pointer.">
<polygon fill="white" stroke="#666666" points="1092.25,-616 988.5,-616 988.5,-584 1092.25,-584 1092.25,-616"/>
<text text-anchor="start" x="996.5" y="-602.5" font-family="Helvetica,sans-Serif" font-size="10.00">DataBaseGUI::child</text>
<text text-anchor="middle" x="1040.38" y="-590.5" font-family="Helvetica,sans-Serif" font-size="10.00">_search_by_pointer</text>
</a>
</g>
</g>
<!-- Node2&#45;&gt;Node3 -->
<g id="edge2_Node000002_Node000003" class="edge">
<title>Node2&#45;&gt;Node3</title>
<g id="a_edge2_Node000002_Node000003"><a xlink:title=" ">
<path fill="none" stroke="#63b8ff" d="M1165.79,-350.72C1137.55,-407.29 1072.45,-537.73 1049.54,-583.65"/>
<polygon fill="#63b8ff" stroke="#63b8ff" points="1168.91,-352.3 1170.24,-341.79 1162.65,-349.18 1168.91,-352.3"/>
</a>
</g>
</g>
<!-- Node2&#45;&gt;Node8 -->
<g id="edge41_Node000002_Node000008" class="edge">
<title>Node2&#45;&gt;Node8</title>
<g id="a_edge41_Node000002_Node000008"><a xlink:title=" ">
<path fill="none" stroke="#63b8ff" d="M1116.33,-324C1056.74,-324 964.64,-324 884.75,-324 884.75,-324 884.75,-324 563.88,-324 462.8,-324 435.62,-319.78 337.25,-343 310.77,-349.25 281.96,-361.6 263.07,-370.53"/>
<polygon fill="#63b8ff" stroke="#63b8ff" points="1116.29,-327.5 1126.29,-324 1116.29,-320.5 1116.29,-327.5"/>
</a>
</g>
</g>
<!-- Node4 -->
<g id="Node000004" class="node">
<title>Node4</title>
<g id="a_Node000004"><a xlink:href="class_data_base_g_u_i.html#aadcf1044a300a89dadd104cfadb9a1b1" target="_top" xlink:title="Views a lesson in the GUI.">
<polygon fill="white" stroke="#666666" points="952.5,-582 815,-582 815,-562 952.5,-562 952.5,-582"/>
<text text-anchor="middle" x="883.75" y="-568.5" font-family="Helvetica,sans-Serif" font-size="10.00">DataBaseGUI::lesson_view</text>
</a>
</g>
</g>
<!-- Node3&#45;&gt;Node4 -->
<g id="edge3_Node000003_Node000004" class="edge">
<title>Node3&#45;&gt;Node4</title>
<g id="a_edge3_Node000003_Node000004"><a xlink:title=" ">
<path fill="none" stroke="#63b8ff" d="M977.14,-588.73C965.77,-586.67 953.95,-584.53 942.71,-582.5"/>
<polygon fill="#63b8ff" stroke="#63b8ff" points="976.36,-592.15 986.83,-590.48 977.61,-585.26 976.36,-592.15"/>
</a>
</g>
</g>
<!-- Node16 -->
<g id="Node000016" class="node">
<title>Node16</title>
<g id="a_Node000016"><a xlink:href="class_data_base_g_u_i.html#a33f2f95926f7b4b05227dcf395e235d3" target="_top" xlink:title="Populates the parent tab with a multimap of parents.">
<polygon fill="white" stroke="#666666" points="301.25,-806 181,-806 181,-774 301.25,-774 301.25,-806"/>
<text text-anchor="start" x="189" y="-792.5" font-family="Helvetica,sans-Serif" font-size="10.00">DataBaseGUI::populate</text>
<text text-anchor="middle" x="241.12" y="-780.5" font-family="Helvetica,sans-Serif" font-size="10.00">_parent_tab</text>
</a>
</g>
</g>
<!-- Node3&#45;&gt;Node16 -->
<g id="edge22_Node000003_Node000016" class="edge">
<title>Node3&#45;&gt;Node16</title>
<g id="a_edge22_Node000003_Node000016"><a xlink:title=" ">
<path fill="none" stroke="#63b8ff" d="M1021.57,-625.52C977.72,-685.04 858.01,-828 719.88,-828 719.88,-828 719.88,-828 563.88,-828 462.8,-828 437.33,-823.14 337.25,-809 325.66,-807.36 313.35,-805.21 301.57,-802.95"/>
<polygon fill="#63b8ff" stroke="#63b8ff" points="1024.25,-627.78 1027.29,-617.62 1018.59,-623.67 1024.25,-627.78"/>
</a>
</g>
</g>
<!-- Node17 -->
<g id="Node000017" class="node">
<title>Node17</title>
<g id="a_Node000017"><a xlink:href="class_data_base_g_u_i.html#a739b2cf48c0cb6e3cab2da0a7bbd6d6d" target="_top" xlink:title="Populates the parent tab with a list of parents.">
<polygon fill="white" stroke="#666666" points="779,-762 658.75,-762 658.75,-730 779,-730 779,-762"/>
<text text-anchor="start" x="666.75" y="-748.5" font-family="Helvetica,sans-Serif" font-size="10.00">DataBaseGUI::populate</text>
<text text-anchor="middle" x="718.88" y="-736.5" font-family="Helvetica,sans-Serif" font-size="10.00">_parent_tab</text>
</a>
</g>
</g>
<!-- Node3&#45;&gt;Node17 -->
<g id="edge23_Node000003_Node000017" class="edge">
<title>Node3&#45;&gt;Node17</title>
<g id="a_edge23_Node000003_Node000017"><a xlink:title=" ">
<path fill="none" stroke="#63b8ff" d="M993.1,-621.14C928.85,-650.5 813.97,-703 755.77,-729.6"/>
<polygon fill="#63b8ff" stroke="#63b8ff" points="994.33,-624.43 1001.97,-617.09 991.42,-618.07 994.33,-624.43"/>
</a>
</g>
</g>
<!-- Node4&#45;&gt;Node4 -->
<g id="edge4_Node000004_Node000004" class="edge">
<title>Node4&#45;&gt;Node4</title>
<g id="a_edge4_Node000004_Node000004"><a xlink:title=" ">
<path fill="none" stroke="#63b8ff" d="M911.43,-593.44C907.87,-597.3 898.64,-600 883.75,-600 856.52,-600 848.23,-590.98 858.86,-582.34"/>
<polygon fill="#63b8ff" stroke="#63b8ff" points="914.84,-592.65 909.01,-583.81 908.05,-594.36 914.84,-592.65"/>
</a>
</g>
</g>
<!-- Node5 -->
<g id="Node000005" class="node">
<title>Node5</title>
<g id="a_Node000005"><a xlink:href="class_data_base_g_u_i.html#a74e047889e913eae69ec40ec17f53c9d" target="_top" xlink:title="Populates the lessons tab with a multimap of lessons.">
<polygon fill="white" stroke="#666666" points="301.25,-633 181,-633 181,-601 301.25,-601 301.25,-633"/>
<text text-anchor="start" x="189" y="-619.5" font-family="Helvetica,sans-Serif" font-size="10.00">DataBaseGUI::populate</text>
<text text-anchor="middle" x="241.12" y="-607.5" font-family="Helvetica,sans-Serif" font-size="10.00">_lesson_tab</text>
</a>
</g>
</g>
<!-- Node4&#45;&gt;Node5 -->
<g id="edge5_Node000004_Node000005" class="edge">
<title>Node4&#45;&gt;Node5</title>
<g id="a_edge5_Node000004_Node000005"><a xlink:title=" ">
<path fill="none" stroke="#63b8ff" d="M855.48,-588.06C809.41,-614.14 712.42,-664.66 622.75,-683 498.43,-708.43 458.35,-720.9 337.25,-683 306.17,-673.27 276.34,-649.43 258.61,-633.23"/>
<polygon fill="#63b8ff" stroke="#63b8ff" points="857.04,-591.19 863.97,-583.18 853.56,-585.12 857.04,-591.19"/>
</a>
</g>
</g>
<!-- Node6 -->
<g id="Node000006" class="node">
<title>Node6</title>
<g id="a_Node000006"><a xlink:href="class_data_base_g_u_i.html#aa6b02e4e81b0113fb1c75d7d5ef0be59" target="_top" xlink:title="Populates the lessons tab with a list of lessons.">
<polygon fill="white" stroke="#666666" points="779,-536 658.75,-536 658.75,-504 779,-504 779,-536"/>
<text text-anchor="start" x="666.75" y="-522.5" font-family="Helvetica,sans-Serif" font-size="10.00">DataBaseGUI::populate</text>
<text text-anchor="middle" x="718.88" y="-510.5" font-family="Helvetica,sans-Serif" font-size="10.00">_lesson_tab</text>
</a>
</g>
</g>
<!-- Node4&#45;&gt;Node6 -->
<g id="edge6_Node000004_Node000006" class="edge">
<title>Node4&#45;&gt;Node6</title>
<g id="a_edge6_Node000004_Node000006"><a xlink:title=" ">
<path fill="none" stroke="#63b8ff" d="M839.36,-558.15C818.44,-551.47 793.19,-543.41 771.31,-536.42"/>
<polygon fill="#63b8ff" stroke="#63b8ff" points="838.15,-561.43 848.74,-561.14 840.28,-554.77 838.15,-561.43"/>
</a>
</g>
</g>
<!-- Node7 -->
<g id="Node000007" class="node">
<title>Node7</title>
<g id="a_Node000007"><a xlink:href="class_data_base_g_u_i.html#a55b3c6d3607f17f55d4c321e97fdce7f" target="_top" xlink:title="Searches for lessons based on the provided child name and surname.">
<polygon fill="white" stroke="#666666" points="620.88,-504 508.88,-504 508.88,-472 620.88,-472 620.88,-504"/>
<text text-anchor="start" x="516.88" y="-490.5" font-family="Helvetica,sans-Serif" font-size="10.00">DataBaseGUI::lesson</text>
<text text-anchor="middle" x="564.88" y="-478.5" font-family="Helvetica,sans-Serif" font-size="10.00">_search</text>
</a>
</g>
</g>
<!-- Node6&#45;&gt;Node7 -->
<g id="edge7_Node000006_Node000007" class="edge">
<title>Node6&#45;&gt;Node7</title>
<g id="a_edge7_Node000006_Node000007"><a xlink:title=" ">
<path fill="none" stroke="#63b8ff" d="M647.56,-505.2C638.71,-503.33 629.76,-501.45 621.19,-499.64"/>
<polygon fill="#63b8ff" stroke="#63b8ff" points="646.68,-508.59 657.19,-507.22 648.13,-501.74 646.68,-508.59"/>
</a>
</g>
</g>
<!-- Node11 -->
<g id="Node000011" class="node">
<title>Node11</title>
<g id="a_Node000011"><a xlink:href="class_data_base_g_u_i.html#a1ad152b7becf3e0051cdd5dbae6d4abc" target="_top" xlink:title="Selects the appropriate sorting to use based on lesson sort index.">
<polygon fill="white" stroke="#666666" points="621.62,-454 508.12,-454 508.12,-422 621.62,-422 621.62,-454"/>
<text text-anchor="start" x="516.12" y="-440.5" font-family="Helvetica,sans-Serif" font-size="10.00">DataBaseGUI::sort_to</text>
<text text-anchor="middle" x="564.88" y="-428.5" font-family="Helvetica,sans-Serif" font-size="10.00">_populate_lesson_tab</text>
</a>
</g>
</g>
<!-- Node6&#45;&gt;Node11 -->
<g id="edge11_Node000006_Node000011" class="edge">
<title>Node6&#45;&gt;Node11</title>
<g id="a_edge11_Node000006_Node000011"><a xlink:title=" ">
<path fill="none" stroke="#63b8ff" d="M683.15,-497.76C665.39,-486.75 643.24,-473.59 622.75,-463 617.1,-460.08 611.03,-457.18 605.04,-454.44"/>
<polygon fill="#63b8ff" stroke="#63b8ff" points="680.92,-500.49 691.25,-502.82 684.63,-494.55 680.92,-500.49"/>
</a>
</g>
</g>
<!-- Node7&#45;&gt;Node8 -->
<g id="edge8_Node000007_Node000008" class="edge">
<title>Node7&#45;&gt;Node8</title>
<g id="a_edge8_Node000007_Node000008"><a xlink:title=" ">
<path fill="none" stroke="#63b8ff" d="M497.57,-493.56C450.83,-494.88 387.82,-491.28 337.25,-469 297.72,-451.58 263.98,-410.79 249.58,-391.48"/>
<polygon fill="#63b8ff" stroke="#63b8ff" points="497.4,-497.07 507.27,-493.2 497.14,-490.08 497.4,-497.07"/>
</a>
</g>
</g>
<!-- Node9 -->
<g id="Node000009" class="node">
<title>Node9</title>
<g id="a_Node000009"><a xlink:href="class_data_base_g_u_i.html#a2c83afe3a30fb5166d275d9a74d33196" target="_top" xlink:title="Default constructor.">
<polygon fill="white" stroke="#666666" points="145,-410 0,-410 0,-390 145,-390 145,-410"/>
<text text-anchor="middle" x="72.5" y="-396.5" font-family="Helvetica,sans-Serif" font-size="10.00">DataBaseGUI::DataBaseGUI</text>
</a>
</g>
</g>
<!-- Node8&#45;&gt;Node9 -->
<g id="edge9_Node000008_Node000009" class="edge">
<title>Node8&#45;&gt;Node9</title>
<g id="a_edge9_Node000008_Node000009"><a xlink:title=" ">
<path fill="none" stroke="#63b8ff" d="M175.53,-388.37C165.64,-389.49 155.37,-390.67 145.32,-391.81"/>
<polygon fill="#63b8ff" stroke="#63b8ff" points="175.9,-391.85 185.44,-387.24 175.11,-384.89 175.9,-391.85"/>
</a>
</g>
</g>
<!-- Node10 -->
<g id="Node000010" class="node">
<title>Node10</title>
<g id="a_Node000010"><a xlink:href="class_data_base_g_u_i.html#aba10d1d8e9fb151632ff34de418cee82" target="_top" xlink:title="Constructs a DataBaseGUI object.">
<polygon fill="white" stroke="#666666" points="145,-372 0,-372 0,-352 145,-352 145,-372"/>
<text text-anchor="middle" x="72.5" y="-358.5" font-family="Helvetica,sans-Serif" font-size="10.00">DataBaseGUI::DataBaseGUI</text>
</a>
</g>
</g>
<!-- Node8&#45;&gt;Node10 -->
<g id="edge10_Node000008_Node000010" class="edge">
<title>Node8&#45;&gt;Node10</title>
<g id="a_edge10_Node000008_Node000010"><a xlink:title=" ">
<path fill="none" stroke="#63b8ff" d="M175.53,-373.63C165.64,-372.51 155.37,-371.33 145.32,-370.19"/>
<polygon fill="#63b8ff" stroke="#63b8ff" points="175.11,-377.11 185.44,-374.76 175.9,-370.15 175.11,-377.11"/>
</a>
</g>
</g>
<!-- Node11&#45;&gt;Node4 -->
<g id="edge19_Node000011_Node000004" class="edge">
<title>Node11&#45;&gt;Node4</title>
<g id="a_edge19_Node000011_Node000004"><a xlink:title=" ">
<path fill="none" stroke="#63b8ff" d="M633,-449.2C676.15,-458 732.62,-472.6 779,-495 816.37,-513.05 853.91,-545.22 871.86,-561.68"/>
<polygon fill="#63b8ff" stroke="#63b8ff" points="633.74,-445.77 623.25,-447.27 632.38,-452.64 633.74,-445.77"/>
</a>
</g>
</g>
<!-- Node12 -->
<g id="Node000012" class="node">
<title>Node12</title>
<g id="a_Node000012"><a xlink:href="class_data_base_g_u_i.html#a778bdaec7f9281df4c0ead66c9dcffd2" target="_top" xlink:title="Adds a new lesson to the database.">
<polygon fill="white" stroke="#666666" points="470.62,-410 337.62,-410 337.62,-390 470.62,-390 470.62,-410"/>
<text text-anchor="middle" x="404.12" y="-396.5" font-family="Helvetica,sans-Serif" font-size="10.00">DataBaseGUI::lesson_add</text>
</a>
</g>
</g>
<!-- Node11&#45;&gt;Node12 -->
<g id="edge12_Node000011_Node000012" class="edge">
<title>Node11&#45;&gt;Node12</title>
<g id="a_edge12_Node000011_Node000012"><a xlink:title=" ">
<path fill="none" stroke="#63b8ff" d="M496.83,-421.95C480.62,-418.07 463.7,-414.02 448.88,-410.47"/>
<polygon fill="#63b8ff" stroke="#63b8ff" points="495.89,-425.33 506.43,-424.25 497.52,-418.52 495.89,-425.33"/>
</a>
</g>
</g>
<!-- Node13 -->
<g id="Node000013" class="node">
<title>Node13</title>
<g id="a_Node000013"><a xlink:href="class_data_base_g_u_i.html#a66a3e89a9852de3522d98f2c1f8cdeed" target="_top" xlink:title="Removes a lesson from the database.">
<polygon fill="white" stroke="#666666" points="460.12,-548 348.12,-548 348.12,-516 460.12,-516 460.12,-548"/>
<text text-anchor="start" x="356.12" y="-534.5" font-family="Helvetica,sans-Serif" font-size="10.00">DataBaseGUI::lesson</text>
<text text-anchor="middle" x="404.12" y="-522.5" font-family="Helvetica,sans-Serif" font-size="10.00">_remove</text>
</a>
</g>
</g>
<!-- Node11&#45;&gt;Node13 -->
<g id="edge14_Node000011_Node000013" class="edge">
<title>Node11&#45;&gt;Node13</title>
<g id="a_edge14_Node000011_Node000013"><a xlink:title=" ">
<path fill="none" stroke="#63b8ff" d="M513.74,-459.43C511.44,-460.6 509.19,-461.79 507,-463 478.02,-479.01 446.79,-500.93 426.65,-515.73"/>
<polygon fill="#63b8ff" stroke="#63b8ff" points="515.14,-462.63 522.6,-455.11 512.08,-456.34 515.14,-462.63"/>
</a>
</g>
</g>
<!-- Node14 -->
<g id="Node000014" class="node">
<title>Node14</title>
<g id="a_Node000014"><a xlink:href="class_data_base_g_u_i.html#a0478b87f545d97b9e3ef55858242878b" target="_top" xlink:title="Changes the sorting method for lessons.">
<polygon fill="white" stroke="#666666" points="460.12,-460 348.12,-460 348.12,-428 460.12,-428 460.12,-460"/>
<text text-anchor="start" x="356.12" y="-446.5" font-family="Helvetica,sans-Serif" font-size="10.00">DataBaseGUI::lesson</text>
<text text-anchor="middle" x="404.12" y="-434.5" font-family="Helvetica,sans-Serif" font-size="10.00">_sort_change</text>
</a>
</g>
</g>
<!-- Node11&#45;&gt;Node14 -->
<g id="edge17_Node000011_Node000014" class="edge">
<title>Node11&#45;&gt;Node14</title>
<g id="a_edge17_Node000011_Node000014"><a xlink:title=" ">
<path fill="none" stroke="#63b8ff" d="M496.56,-440.54C484.57,-441 472.2,-441.46 460.59,-441.9"/>
<polygon fill="#63b8ff" stroke="#63b8ff" points="496.53,-444.05 506.39,-440.17 496.27,-437.05 496.53,-444.05"/>
</a>
</g>
</g>
<!-- Node15 -->
<g id="Node000015" class="node">
<title>Node15</title>
<g id="a_Node000015"><a xlink:href="class_data_base_g_u_i.html#a438b5070d6a58ffa5e884d18740852c6" target="_top" xlink:title="Handles tab change events.">
<polygon fill="white" stroke="#666666" points="471,-372 337.25,-372 337.25,-352 471,-352 471,-372"/>
<text text-anchor="middle" x="404.12" y="-358.5" font-family="Helvetica,sans-Serif" font-size="10.00">DataBaseGUI::tab_change</text>
</a>
</g>
</g>
<!-- Node11&#45;&gt;Node15 -->
<g id="edge20_Node000011_Node000015" class="edge">
<title>Node11&#45;&gt;Node15</title>
<g id="a_edge20_Node000011_Node000015"><a xlink:title=" ">
<path fill="none" stroke="#63b8ff" d="M532.04,-415.49C514.63,-403.96 492.32,-390.41 471,-381 463.6,-377.73 455.48,-374.86 447.55,-372.4"/>
<polygon fill="#63b8ff" stroke="#63b8ff" points="529.66,-418.11 539.91,-420.8 533.58,-412.31 529.66,-418.11"/>
</a>
</g>
</g>
<!-- Node12&#45;&gt;Node8 -->
<g id="edge13_Node000012_Node000008" class="edge">
<title>Node12&#45;&gt;Node8</title>
<g id="a_edge13_Node000012_Node000008"><a xlink:title=" ">
<path fill="none" stroke="#63b8ff" d="M325.87,-390.88C315.39,-389.65 304.84,-388.4 294.93,-387.23"/>
<polygon fill="#63b8ff" stroke="#63b8ff" points="325.33,-394.34 335.67,-392.04 326.15,-387.39 325.33,-394.34"/>
</a>
</g>
</g>
<!-- Node13&#45;&gt;Node5 -->
<g id="edge15_Node000013_Node000005" class="edge">
<title>Node13&#45;&gt;Node5</title>
<g id="a_edge15_Node000013_Node000005"><a xlink:title=" ">
<path fill="none" stroke="#63b8ff" d="M361.95,-553.74C334.36,-568.31 298.6,-587.19 273.35,-600.52"/>
<polygon fill="#63b8ff" stroke="#63b8ff" points="363.53,-556.86 370.74,-549.1 360.27,-550.67 363.53,-556.86"/>
</a>
</g>
</g>
<!-- Node13&#45;&gt;Node6 -->
<g id="edge16_Node000013_Node000006" class="edge">
<title>Node13&#45;&gt;Node6</title>
<g id="a_edge16_Node000013_Node000006"><a xlink:title=" ">
<path fill="none" stroke="#63b8ff" d="M471.97,-529.44C527.28,-527.31 605.12,-524.33 658.31,-522.29"/>
<polygon fill="#63b8ff" stroke="#63b8ff" points="471.9,-525.94 462.04,-529.82 472.17,-532.93 471.9,-525.94"/>
</a>
</g>
</g>
<!-- Node14&#45;&gt;Node8 -->
<g id="edge18_Node000014_Node000008" class="edge">
<title>Node14&#45;&gt;Node8</title>
<g id="a_edge18_Node000014_Node000008"><a xlink:title=" ">
<path fill="none" stroke="#63b8ff" d="M348.98,-423.54C345.01,-422.01 341.06,-420.49 337.25,-419 313.72,-409.84 287.02,-399.15 267.92,-391.44"/>
<polygon fill="#63b8ff" stroke="#63b8ff" points="347.5,-426.72 358.09,-427.02 350,-420.18 347.5,-426.72"/>
</a>
</g>
</g>
<!-- Node15&#45;&gt;Node8 -->
<g id="edge21_Node000015_Node000008" class="edge">
<title>Node15&#45;&gt;Node8</title>
<g id="a_edge21_Node000015_Node000008"><a xlink:title=" ">
<path fill="none" stroke="#63b8ff" d="M325.87,-371.12C315.39,-372.35 304.84,-373.6 294.93,-374.77"/>
<polygon fill="#63b8ff" stroke="#63b8ff" points="326.15,-374.61 335.67,-369.96 325.33,-367.66 326.15,-374.61"/>
</a>
</g>
</g>
<!-- Node18 -->
<g id="Node000018" class="node">
<title>Node18</title>
<g id="a_Node000018"><a xlink:href="class_data_base_g_u_i.html#a7c3d843eec449d8a4ec5ce6bf0375358" target="_top" xlink:title="Searches for parents based on the provided name and surname.">
<polygon fill="white" stroke="#666666" points="620.12,-592 509.62,-592 509.62,-560 620.12,-560 620.12,-592"/>
<text text-anchor="start" x="517.62" y="-578.5" font-family="Helvetica,sans-Serif" font-size="10.00">DataBaseGUI::parent</text>
<text text-anchor="middle" x="564.88" y="-566.5" font-family="Helvetica,sans-Serif" font-size="10.00">_search</text>
</a>
</g>
</g>
<!-- Node17&#45;&gt;Node18 -->
<g id="edge24_Node000017_Node000018" class="edge">
<title>Node17&#45;&gt;Node18</title>
<g id="a_edge24_Node000017_Node000018"><a xlink:title=" ">
<path fill="none" stroke="#63b8ff" d="M697.57,-720.65C678.7,-697.4 649.56,-662.24 622.75,-633 609.71,-618.78 594.2,-603.33 582.68,-592.1"/>
<polygon fill="#63b8ff" stroke="#63b8ff" points="694.79,-722.78 703.8,-728.36 700.23,-718.38 694.79,-722.78"/>
</a>
</g>
</g>
<!-- Node21 -->
<g id="Node000021" class="node">
<title>Node21</title>
<g id="a_Node000021"><a xlink:href="class_data_base_g_u_i.html#a625b5e2018395a458ff517bbf364e1bf" target="_top" xlink:title="Selects the appropriate sorting to use based on parent sort index.">
<polygon fill="white" stroke="#666666" points="621.62,-674 508.12,-674 508.12,-642 621.62,-642 621.62,-674"/>
<text text-anchor="start" x="516.12" y="-660.5" font-family="Helvetica,sans-Serif" font-size="10.00">DataBaseGUI::sort_to</text>
<text text-anchor="middle" x="564.88" y="-648.5" font-family="Helvetica,sans-Serif" font-size="10.00">_populate_parent_tab</text>
</a>
</g>
</g>
<!-- Node17&#45;&gt;Node21 -->
<g id="edge29_Node000017_Node000021" class="edge">
<title>Node17&#45;&gt;Node21</title>
<g id="a_edge29_Node000017_Node000021"><a xlink:title=" ">
<path fill="none" stroke="#63b8ff" d="M679.9,-724.02C653.32,-708.63 618.38,-688.4 594.22,-674.41"/>
<polygon fill="#63b8ff" stroke="#63b8ff" points="677.92,-726.91 688.33,-728.9 681.43,-720.86 677.92,-726.91"/>
</a>
</g>
</g>
<!-- Node18&#45;&gt;Node8 -->
<g id="edge28_Node000018_Node000008" class="edge">
<title>Node18&#45;&gt;Node8</title>
<g id="a_edge28_Node000018_Node000008"><a xlink:title=" ">
<path fill="none" stroke="#63b8ff" d="M498.04,-586.23C449.7,-590.22 384.5,-587.92 337.25,-557 275.64,-516.68 250.83,-422.44 244.13,-391.24"/>
<polygon fill="#63b8ff" stroke="#63b8ff" points="498.19,-589.73 507.81,-585.3 497.53,-582.76 498.19,-589.73"/>
</a>
</g>
</g>
<!-- Node19 -->
<g id="Node000019" class="node">
<title>Node19</title>
<g id="a_Node000019"><a xlink:href="class_data_base_g_u_i.html#a8e1fe573ef6a09e112989968ec1a2b43" target="_top" xlink:title="Searches for parents based on the provided parent pointer.">
<polygon fill="white" stroke="#666666" points="459.38,-296 348.88,-296 348.88,-264 459.38,-264 459.38,-296"/>
<text text-anchor="start" x="356.88" y="-282.5" font-family="Helvetica,sans-Serif" font-size="10.00">DataBaseGUI::parent</text>
<text text-anchor="middle" x="404.12" y="-270.5" font-family="Helvetica,sans-Serif" font-size="10.00">_search_by_pointer</text>
</a>
</g>
</g>
<!-- Node18&#45;&gt;Node19 -->
<g id="edge25_Node000018_Node000019" class="edge">
<title>Node18&#45;&gt;Node19</title>
<g id="a_edge25_Node000018_Node000019"><a xlink:title=" ">
<path fill="none" stroke="#63b8ff" d="M536.65,-551.98C525.89,-541.09 514.36,-527.44 507,-513 471.92,-444.2 508.58,-410.47 471,-343 460.6,-324.34 442.85,-307.84 428.4,-296.41"/>
<polygon fill="#63b8ff" stroke="#63b8ff" points="533.95,-554.23 543.56,-558.68 538.82,-549.2 533.95,-554.23"/>
</a>
</g>
</g>
<!-- Node19&#45;&gt;Node1 -->
<g id="edge27_Node000019_Node000001" class="edge">
<title>Node19&#45;&gt;Node1</title>
<g id="a_edge27_Node000019_Node000001"><a xlink:title=" ">
<path fill="none" stroke="#63b8ff" d="M471.04,-279C534.34,-278.13 632.64,-277 717.88,-277 1041.38,-277 1041.38,-277 1041.38,-277 1126.94,-277 1149.93,-274.22 1232,-250 1254.86,-243.25 1279.24,-231.89 1297.59,-222.4"/>
<polygon fill="#63b8ff" stroke="#63b8ff" points="471.11,-275.5 461.16,-279.14 471.21,-282.5 471.11,-275.5"/>
</a>
</g>
</g>
<!-- Node20 -->
<g id="Node000020" class="node">
<title>Node20</title>
<g id="a_Node000020"><a xlink:href="class_data_base_g_u_i.html#a334c0011a9d3a71539b326a888feccd3" target="_top" xlink:title="Populates the children tab with a multimap of children.">
<polygon fill="white" stroke="#666666" points="301.25,-70 181,-70 181,-38 301.25,-38 301.25,-70"/>
<text text-anchor="start" x="189" y="-56.5" font-family="Helvetica,sans-Serif" font-size="10.00">DataBaseGUI::populate</text>
<text text-anchor="middle" x="241.12" y="-44.5" font-family="Helvetica,sans-Serif" font-size="10.00">_children_tab</text>
</a>
</g>
</g>
<!-- Node19&#45;&gt;Node20 -->
<g id="edge26_Node000019_Node000020" class="edge">
<title>Node19&#45;&gt;Node20</title>
<g id="a_edge26_Node000019_Node000020"><a xlink:title=" ">
<path fill="none" stroke="#63b8ff" d="M374.68,-256.03C362.37,-244.87 348.29,-231 337.25,-217 298.28,-167.61 264.26,-100.62 249.68,-70.21"/>
<polygon fill="#63b8ff" stroke="#63b8ff" points="372.32,-258.61 382.13,-262.63 376.96,-253.37 372.32,-258.61"/>
</a>
</g>
</g>
<!-- Node21&#45;&gt;Node15 -->
<g id="edge40_Node000021_Node000015" class="edge">
<title>Node21&#45;&gt;Node15</title>
<g id="a_edge40_Node000021_Node000015"><a xlink:title=" ">
<path fill="none" stroke="#63b8ff" d="M533.29,-634.1C523.4,-624.81 513.36,-613.41 507,-601 461.84,-512.81 536.78,-455.09 471,-381 467.92,-377.53 464.25,-374.67 460.24,-372.33"/>
<polygon fill="#63b8ff" stroke="#63b8ff" points="530.9,-636.66 540.71,-640.68 535.55,-631.43 530.9,-636.66"/>
</a>
</g>
</g>
<!-- Node22 -->
<g id="Node000022" class="node">
<title>Node22</title>
<g id="a_Node000022"><a xlink:href="class_data_base_g_u_i.html#a336fa47d9a9e56d585d82f53d33e8593" target="_top" xlink:title="Adds a new parent to the database.">
<polygon fill="white" stroke="#666666" points="469.88,-624 338.38,-624 338.38,-604 469.88,-604 469.88,-624"/>
<text text-anchor="middle" x="404.12" y="-610.5" font-family="Helvetica,sans-Serif" font-size="10.00">DataBaseGUI::parent_add</text>
</a>
</g>
</g>
<!-- Node21&#45;&gt;Node22 -->
<g id="edge30_Node000021_Node000022" class="edge">
<title>Node21&#45;&gt;Node22</title>
<g id="a_edge30_Node000021_Node000022"><a xlink:title=" ">
<path fill="none" stroke="#63b8ff" d="M496.84,-639.42C478.32,-634.29 458.89,-628.9 442.7,-624.42"/>
<polygon fill="#63b8ff" stroke="#63b8ff" points="495.88,-642.78 506.45,-642.08 497.75,-636.04 495.88,-642.78"/>
</a>
</g>
</g>
<!-- Node23 -->
<g id="Node000023" class="node">
<title>Node23</title>
<g id="a_Node000023"><a xlink:href="class_data_base_g_u_i.html#a5b049fb9e0e5d78c4c2e81e569b471f9" target="_top" xlink:title="Edits an existing parent in the database.">
<polygon fill="white" stroke="#666666" points="469.88,-800 338.38,-800 338.38,-780 469.88,-780 469.88,-800"/>
<text text-anchor="middle" x="404.12" y="-786.5" font-family="Helvetica,sans-Serif" font-size="10.00">DataBaseGUI::parent_edit</text>
</a>
</g>
</g>
<!-- Node21&#45;&gt;Node23 -->
<g id="edge32_Node000021_Node000023" class="edge">
<title>Node21&#45;&gt;Node23</title>
<g id="a_edge32_Node000021_Node000023"><a xlink:title=" ">
<path fill="none" stroke="#63b8ff" d="M549.06,-683.93C533.03,-709.71 505.12,-748.55 471,-771 465.83,-774.4 460.04,-777.2 454.1,-779.51"/>
<polygon fill="#63b8ff" stroke="#63b8ff" points="552.04,-685.76 554.21,-675.39 546.05,-682.14 552.04,-685.76"/>
</a>
</g>
</g>
<!-- Node24 -->
<g id="Node000024" class="node">
<title>Node24</title>
<g id="a_Node000024"><a xlink:href="class_data_base_g_u_i.html#ad8a42f24cdb603ba85c1cdd4ea2e73a4" target="_top" xlink:title="Removes a parent from the database.">
<polygon fill="white" stroke="#666666" points="459.38,-762 348.88,-762 348.88,-730 459.38,-730 459.38,-762"/>
<text text-anchor="start" x="356.88" y="-748.5" font-family="Helvetica,sans-Serif" font-size="10.00">DataBaseGUI::parent</text>
<text text-anchor="middle" x="404.12" y="-736.5" font-family="Helvetica,sans-Serif" font-size="10.00">_remove</text>
</a>
</g>
</g>
<!-- Node21&#45;&gt;Node24 -->
<g id="edge35_Node000021_Node000024" class="edge">
<title>Node21&#45;&gt;Node24</title>
<g id="a_edge35_Node000021_Node000024"><a xlink:title=" ">
<path fill="none" stroke="#63b8ff" d="M524.58,-679.78C496.78,-695.19 460.07,-715.54 434.72,-729.59"/>
<polygon fill="#63b8ff" stroke="#63b8ff" points="526.01,-682.99 533.06,-675.08 522.62,-676.87 526.01,-682.99"/>
</a>
</g>
</g>
<!-- Node25 -->
<g id="Node000025" class="node">
<title>Node25</title>
<g id="a_Node000025"><a xlink:href="class_data_base_g_u_i.html#a783bdf1d65998f887dd6445741450480" target="_top" xlink:title="Changes the sorting method for parents.">
<polygon fill="white" stroke="#666666" points="459.38,-674 348.88,-674 348.88,-642 459.38,-642 459.38,-674"/>
<text text-anchor="start" x="356.88" y="-660.5" font-family="Helvetica,sans-Serif" font-size="10.00">DataBaseGUI::parent</text>
<text text-anchor="middle" x="404.12" y="-648.5" font-family="Helvetica,sans-Serif" font-size="10.00">_sort_change</text>
</a>
</g>
</g>
<!-- Node21&#45;&gt;Node25 -->
<g id="edge38_Node000021_Node000025" class="edge">
<title>Node21&#45;&gt;Node25</title>
<g id="a_edge38_Node000021_Node000025"><a xlink:title=" ">
<path fill="none" stroke="#63b8ff" d="M496.74,-658C484.42,-658 471.69,-658 459.79,-658"/>
<polygon fill="#63b8ff" stroke="#63b8ff" points="496.39,-661.5 506.39,-658 496.39,-654.5 496.39,-661.5"/>
</a>
</g>
</g>
<!-- Node22&#45;&gt;Node8 -->
<g id="edge31_Node000022_Node000008" class="edge">
<title>Node22&#45;&gt;Node8</title>
<g id="a_edge31_Node000022_Node000008"><a xlink:title=" ">
<path fill="none" stroke="#63b8ff" d="M349,-598.52C344.76,-596.08 340.77,-593.25 337.25,-590 274.63,-532.06 250.23,-424.94 243.91,-391.35"/>
<polygon fill="#63b8ff" stroke="#63b8ff" points="347.36,-601.61 357.88,-602.9 350.46,-595.34 347.36,-601.61"/>
</a>
</g>
</g>
<!-- Node23&#45;&gt;Node16 -->
<g id="edge33_Node000023_Node000016" class="edge">
<title>Node23&#45;&gt;Node16</title>
<g id="a_edge33_Node000023_Node000016"><a xlink:title=" ">
<path fill="none" stroke="#63b8ff" d="M326.71,-790C318.3,-790 309.83,-790 301.67,-790"/>
<polygon fill="#63b8ff" stroke="#63b8ff" points="326.59,-793.5 336.59,-790 326.59,-786.5 326.59,-793.5"/>
</a>
</g>
</g>
<!-- Node23&#45;&gt;Node17 -->
<g id="edge34_Node000023_Node000017" class="edge">
<title>Node23&#45;&gt;Node17</title>
<g id="a_edge34_Node000023_Node000017"><a xlink:title=" ">
<path fill="none" stroke="#63b8ff" d="M481.11,-779.7C522.92,-773.99 575.71,-766.7 622.75,-760 634.24,-758.36 646.5,-756.58 658.26,-754.86"/>
<polygon fill="#63b8ff" stroke="#63b8ff" points="480.83,-776.2 471.4,-781.02 481.78,-783.14 480.83,-776.2"/>
</a>
</g>
</g>
<!-- Node24&#45;&gt;Node16 -->
<g id="edge36_Node000024_Node000016" class="edge">
<title>Node24&#45;&gt;Node16</title>
<g id="a_edge36_Node000024_Node000016"><a xlink:title=" ">
<path fill="none" stroke="#63b8ff" d="M337.78,-763.86C325.79,-767.13 313.34,-770.54 301.55,-773.76"/>
<polygon fill="#63b8ff" stroke="#63b8ff" points="338.43,-767.31 347.16,-761.3 336.59,-760.56 338.43,-767.31"/>
</a>
</g>
</g>
<!-- Node24&#45;&gt;Node17 -->
<g id="edge37_Node000024_Node000017" class="edge">
<title>Node24&#45;&gt;Node17</title>
<g id="a_edge37_Node000024_Node000017"><a xlink:title=" ">
<path fill="none" stroke="#63b8ff" d="M471.2,-746C526.55,-746 604.87,-746 658.31,-746"/>
<polygon fill="#63b8ff" stroke="#63b8ff" points="471.27,-742.5 461.27,-746 471.27,-749.5 471.27,-742.5"/>
</a>
</g>
</g>
<!-- Node25&#45;&gt;Node8 -->
<g id="edge39_Node000025_Node000008" class="edge">
<title>Node25&#45;&gt;Node8</title>
<g id="a_edge39_Node000025_Node000008"><a xlink:title=" ">
<path fill="none" stroke="#63b8ff" d="M339.53,-635.15C338.75,-634.46 337.99,-633.74 337.25,-633 265.23,-560.85 246.89,-428.84 243.03,-391.24"/>
<polygon fill="#63b8ff" stroke="#63b8ff" points="337.29,-637.84 347.42,-640.95 341.43,-632.2 337.29,-637.84"/>
</a>
</g>
</g>
<!-- Node26&#45;&gt;Node15 -->
<g id="edge56_Node000026_Node000015" class="edge">
<title>Node26&#45;&gt;Node15</title>
<g id="a_edge56_Node000026_Node000015"><a xlink:title=" ">
<path fill="none" stroke="#63b8ff" d="M550.93,-180.2C534.71,-211.65 504.88,-265.14 471,-305 455.43,-323.32 433.79,-340.87 419.62,-351.54"/>
<polygon fill="#63b8ff" stroke="#63b8ff" points="553.99,-181.9 555.4,-171.4 547.75,-178.73 553.99,-181.9"/>
</a>
</g>
</g>
<!-- Node27 -->
<g id="Node000027" class="node">
<title>Node27</title>
<g id="a_Node000027"><a xlink:href="class_data_base_g_u_i.html#a00f9044d3b8dd9c5dada244dac1b0df6" target="_top" xlink:title="Adds a new child to the database.">
<polygon fill="white" stroke="#666666" points="466.5,-208 341.75,-208 341.75,-188 466.5,-188 466.5,-208"/>
<text text-anchor="middle" x="404.12" y="-194.5" font-family="Helvetica,sans-Serif" font-size="10.00">DataBaseGUI::child_add</text>
</a>
</g>
</g>
<!-- Node26&#45;&gt;Node27 -->
<g id="edge44_Node000026_Node000027" class="edge">
<title>Node26&#45;&gt;Node27</title>
<g id="a_edge44_Node000026_Node000027"><a xlink:title=" ">
<path fill="none" stroke="#63b8ff" d="M495.66,-172.91C477.44,-177.96 458.42,-183.23 442.55,-187.63"/>
<polygon fill="#63b8ff" stroke="#63b8ff" points="496.4,-176.33 505.1,-170.29 494.53,-169.59 496.4,-176.33"/>
</a>
</g>
</g>
<!-- Node28 -->
<g id="Node000028" class="node">
<title>Node28</title>
<g id="a_Node000028"><a xlink:href="class_data_base_g_u_i.html#acb6c6b292e58d0ead30682f7f5705244" target="_top" xlink:title="Edits an existing child in the database.">
<polygon fill="white" stroke="#666666" points="466.5,-20 341.75,-20 341.75,0 466.5,0 466.5,-20"/>
<text text-anchor="middle" x="404.12" y="-6.5" font-family="Helvetica,sans-Serif" font-size="10.00">DataBaseGUI::child_edit</text>
</a>
</g>
</g>
<!-- Node26&#45;&gt;Node28 -->
<g id="edge46_Node000026_Node000028" class="edge">
<title>Node26&#45;&gt;Node28</title>
<g id="a_edge46_Node000026_Node000028"><a xlink:title=" ">
<path fill="none" stroke="#63b8ff" d="M550.89,-127.44C535.62,-98.96 507.64,-54.41 471,-29 466.01,-25.54 460.4,-22.71 454.6,-20.38"/>
<polygon fill="#63b8ff" stroke="#63b8ff" points="547.7,-128.89 555.41,-136.16 553.91,-125.67 547.7,-128.89"/>
</a>
</g>
</g>
<!-- Node29 -->
<g id="Node000029" class="node">
<title>Node29</title>
<g id="a_Node000029"><a xlink:href="class_data_base_g_u_i.html#ae3a08843db874e51a7cea32fa8937ca5" target="_top" xlink:title="Removes a child from the database.">
<polygon fill="white" stroke="#666666" points="456,-70 352.25,-70 352.25,-38 456,-38 456,-70"/>
<text text-anchor="start" x="360.25" y="-56.5" font-family="Helvetica,sans-Serif" font-size="10.00">DataBaseGUI::child</text>
<text text-anchor="middle" x="404.12" y="-44.5" font-family="Helvetica,sans-Serif" font-size="10.00">_remove</text>
</a>
</g>
</g>
<!-- Node26&#45;&gt;Node29 -->
<g id="edge49_Node000026_Node000029" class="edge">
<title>Node26&#45;&gt;Node29</title>
<g id="a_edge49_Node000026_Node000029"><a xlink:title=" ">
<path fill="none" stroke="#63b8ff" d="M534.18,-130.74C525.4,-123.79 515.78,-116.13 507,-109 490.83,-95.87 488.98,-89.51 471,-79 465.61,-75.85 459.76,-72.97 453.84,-70.36"/>
<polygon fill="#63b8ff" stroke="#63b8ff" points="531.77,-133.29 541.79,-136.73 536.1,-127.79 531.77,-133.29"/>
</a>
</g>
</g>
<!-- Node30 -->
<g id="Node000030" class="node">
<title>Node30</title>
<g id="a_Node000030"><a xlink:href="class_data_base_g_u_i.html#a2e6d3629f679c153cdd21b683ce794a1" target="_top" xlink:title="Changes the sorting method for children.">
<polygon fill="white" stroke="#666666" points="456,-170 352.25,-170 352.25,-138 456,-138 456,-170"/>
<text text-anchor="start" x="360.25" y="-156.5" font-family="Helvetica,sans-Serif" font-size="10.00">DataBaseGUI::child</text>
<text text-anchor="middle" x="404.12" y="-144.5" font-family="Helvetica,sans-Serif" font-size="10.00">_sort_change</text>
</a>
</g>
</g>
<!-- Node26&#45;&gt;Node30 -->
<g id="edge52_Node000026_Node000030" class="edge">
<title>Node26&#45;&gt;Node30</title>
<g id="a_edge52_Node000026_Node000030"><a xlink:title=" ">
<path fill="none" stroke="#63b8ff" d="M495.22,-154C482.16,-154 468.7,-154 456.3,-154"/>
<polygon fill="#63b8ff" stroke="#63b8ff" points="495.05,-157.5 505.05,-154 495.05,-150.5 495.05,-157.5"/>
</a>
</g>
</g>
<!-- Node31 -->
<g id="Node000031" class="node">
<title>Node31</title>
<g id="a_Node000031"><a xlink:href="class_data_base_g_u_i.html#a20d1ece0affaa1f5b6876ee072dd2ab1" target="_top" xlink:title="Imports a database from a file.">
<polygon fill="white" stroke="#666666" points="459.38,-120 348.88,-120 348.88,-88 459.38,-88 459.38,-120"/>
<text text-anchor="start" x="356.88" y="-106.5" font-family="Helvetica,sans-Serif" font-size="10.00">DataBaseGUI::import</text>
<text text-anchor="middle" x="404.12" y="-94.5" font-family="Helvetica,sans-Serif" font-size="10.00">_database</text>
</a>
</g>
</g>
<!-- Node26&#45;&gt;Node31 -->
<g id="edge54_Node000026_Node000031" class="edge">
<title>Node26&#45;&gt;Node31</title>
<g id="a_edge54_Node000026_Node000031"><a xlink:title=" ">
<path fill="none" stroke="#63b8ff" d="M501.04,-134.21C486.62,-129.67 471.42,-124.88 457.49,-120.49"/>
<polygon fill="#63b8ff" stroke="#63b8ff" points="499.86,-137.51 510.45,-137.17 501.96,-130.83 499.86,-137.51"/>
</a>
</g>
</g>
<!-- Node27&#45;&gt;Node8 -->
<g id="edge45_Node000027_Node000008" class="edge">
<title>Node27&#45;&gt;Node8</title>
<g id="a_edge45_Node000027_Node000008"><a xlink:title=" ">
<path fill="none" stroke="#63b8ff" d="M350.89,-213.11C346.02,-215.65 341.37,-218.59 337.25,-222 285.67,-264.62 255.11,-342.95 245.46,-370.82"/>
<polygon fill="#63b8ff" stroke="#63b8ff" points="352.09,-216.41 359.73,-209.07 349.18,-210.04 352.09,-216.41"/>
</a>
</g>
</g>
<!-- Node28&#45;&gt;Node1 -->
<g id="edge48_Node000028_Node000001" class="edge">
<title>Node28&#45;&gt;Node1</title>
<g id="a_edge48_Node000028_Node000001"><a xlink:title=" ">
<path fill="none" stroke="#63b8ff" d="M478.25,-15.86C541.6,-20.43 635.73,-26 717.88,-26 1041.38,-26 1041.38,-26 1041.38,-26 1133.08,-26 1156.52,-52.91 1232,-105 1266.89,-129.08 1298.77,-167.79 1315.28,-189.63"/>
<polygon fill="#63b8ff" stroke="#63b8ff" points="478.53,-12.37 468.3,-15.13 478.02,-19.35 478.53,-12.37"/>
</a>
</g>
</g>
<!-- Node28&#45;&gt;Node20 -->
<g id="edge47_Node000028_Node000020" class="edge">
<title>Node28&#45;&gt;Node20</title>
<g id="a_edge47_Node000028_Node000020"><a xlink:title=" ">
<path fill="none" stroke="#63b8ff" d="M353.94,-23.44C337.46,-27.95 318.91,-33.02 301.72,-37.71"/>
<polygon fill="#63b8ff" stroke="#63b8ff" points="354.79,-26.84 363.51,-20.83 352.94,-20.09 354.79,-26.84"/>
</a>
</g>
</g>
<!-- Node29&#45;&gt;Node1 -->
<g id="edge51_Node000029_Node000001" class="edge">
<title>Node29&#45;&gt;Node1</title>
<g id="a_edge51_Node000029_Node000001"><a xlink:title=" ">
<path fill="none" stroke="#63b8ff" d="M467.24,-67C530.12,-79 630.31,-95 717.88,-95 1041.38,-95 1041.38,-95 1041.38,-95 1144.62,-95 1255.49,-158.75 1303.13,-189.62"/>
<polygon fill="#63b8ff" stroke="#63b8ff" points="468.29,-63.64 457.81,-65.17 466.96,-70.51 468.29,-63.64"/>
</a>
</g>
</g>
<!-- Node29&#45;&gt;Node20 -->
<g id="edge50_Node000029_Node000020" class="edge">
<title>Node29&#45;&gt;Node20</title>
<g id="a_edge50_Node000029_Node000020"><a xlink:title=" ">
<path fill="none" stroke="#63b8ff" d="M341.04,-54C328.13,-54 314.55,-54 301.73,-54"/>
<polygon fill="#63b8ff" stroke="#63b8ff" points="340.67,-57.5 350.67,-54 340.67,-50.5 340.67,-57.5"/>
</a>
</g>
</g>
<!-- Node30&#45;&gt;Node8 -->
<g id="edge53_Node000030_Node000008" class="edge">
<title>Node30&#45;&gt;Node8</title>
<g id="a_edge53_Node000030_Node000008"><a xlink:title=" ">
<path fill="none" stroke="#63b8ff" d="M342.37,-174.77C340.58,-176.1 338.87,-177.5 337.25,-179 276.65,-235.08 251.04,-337.68 244.15,-370.56"/>
<polygon fill="#63b8ff" stroke="#63b8ff" points="343.98,-177.89 350.58,-169.6 340.26,-171.97 343.98,-177.89"/>
</a>
</g>
</g>
<!-- Node31&#45;&gt;Node8 -->
<g id="edge55_Node000031_Node000008" class="edge">
<title>Node31&#45;&gt;Node8</title>
<g id="a_edge55_Node000031_Node000008"><a xlink:title=" ">
<path fill="none" stroke="#63b8ff" d="M339.53,-126.85C338.75,-127.54 337.99,-128.26 337.25,-129 265.23,-201.15 246.89,-333.16 243.03,-370.76"/>
<polygon fill="#63b8ff" stroke="#63b8ff" points="341.43,-129.8 347.42,-121.05 337.29,-124.16 341.43,-129.8"/>
</a>
</g>
</g>
</g>
</svg>

<g id="navigator" transform="translate(0 0)" fill="#404254">
  <rect fill="#f2f5e9" fill-opacity="0.5" stroke="#606060" stroke-width=".5" x="0" y="0" width="60" height="60"/>
  <use id="zoomplus" xlink:href="#zoomPlus" x="17" y="9" onmousedown="handleZoom(evt,'in')"/>
  <use id="zoomminus" xlink:href="#zoomMin" x="42" y="9" onmousedown="handleZoom(evt,'out')"/>
  <use id="reset" xlink:href="#resetDef" x="30" y="36" onmousedown="handleReset()"/>
   <use id="arrowup" xlink:href="#arrowUp" x="0" y="0" onmousedown="handlePan(0,-1)"/>
  <use id="arrowright" xlink:href="#arrowRight" x="0" y="0" onmousedown="handlePan(1,0)"/>
  <use id="arrowdown" xlink:href="#arrowDown" x="0" y="0" onmousedown="handlePan(0,1)"/>
  <use id="arrowleft" xlink:href="#arrowLeft" x="0" y="0" onmousedown="handlePan(-1,0)"/>
</g>
<svg viewBox="0 0 15 15" width="100%" height="30px" preserveAspectRatio="xMaxYMin meet">
 <g id="arrow_out" transform="scale(0.3 0.3)">
  <a xlink:href="class_data_base_g_u_i_af346d08370d9e4574980707f61b9c8f7_icgraph_org.svg" target="_base">
   <rect id="button" ry="5" rx="5" y="6" x="6" height="38" width="38"
        fill="#f2f5e9" fill-opacity="0.5" stroke="#606060" stroke-width="1.0"/>
   <path id="arrow"
     d="M 11.500037,31.436501 C 11.940474,20.09759 22.043105,11.32322 32.158766,21.979434 L 37.068811,17.246167 C 37.068811,17.246167 37.088388,32 37.088388,32 L 22.160133,31.978069 C 22.160133,31.978069 26.997745,27.140456 26.997745,27.140456 C 18.528582,18.264221 13.291696,25.230495 11.500037,31.436501 z"
     style="fill:#404040;"/>
  </a>
 </g>
</svg>

<style type='text/css'>
<![CDATA[
[data-mouse-over-selected='false'] { opacity: 0.7; }
[data-mouse-over-selected='true']  { opacity: 1.0; }
]]>
</style>
<script type="application/ecmascript"><![CDATA[
document.addEventListener('DOMContentLoaded', (event) => {
  highlightEdges();
  highlightAdjacentNodes();
});
]]></script>
</svg>
