<?xml version="1.0" encoding="UTF-8" standalone="no"?>
<!DOCTYPE svg PUBLIC "-//W3C//DTD SVG 1.1//EN"
 "http://www.w3.org/Graphics/SVG/1.1/DTD/svg11.dtd">
<!-- Generated by graphviz version 12.2.1 (20241206.2353)
 -->
<!-- Title: Time::print_long Pages: 1 -->
<svg width="378pt" height="104pt"
 viewBox="0.00 0.00 377.75 104.00" xmlns="http://www.w3.org/2000/svg" xmlns:xlink="http://www.w3.org/1999/xlink">

<svg id="main" version="1.1" xmlns="http://www.w3.org/2000/svg" xmlns:xlink="http://www.w3.org/1999/xlink" xml:space="preserve">

<style type="text/css"><![CDATA[
.node, .edge {opacity: 0.7;}
.node.selected, .edge.selected {opacity: 1;}
.edge:hover path { stroke: red; }
.edge:hover polygon { stroke: red; fill: red; }
]]></style>
<script type="application/ecmascript" xlink:href="svg.min.js"/>
<svg id="graph" class="graph">
<g id="graph0" class="graph" transform="scale(1 1) rotate(0) translate(4 100)">
<title>Time::print_long</title>
<!-- Node1 -->
<g id="Node000001" class="node">
<title>Node1</title>
<g id="a_Node000001"><a xlink:title="Prints the time in a long format.">
<polygon fill="#999999" stroke="#666666" points="85.75,-39 0,-39 0,-19 85.75,-19 85.75,-39"/>
<text text-anchor="middle" x="42.88" y="-25.5" font-family="Helvetica,sans-Serif" font-size="10.00">Time::print_long</text>
</a>
</g>
</g>
<!-- Node2 -->
<g id="Node000002" class="node">
<title>Node2</title>
<g id="a_Node000002"><a xlink:href="class_time.html#a2c3329584afd2d3f9aeeeeaf7a1298af" target="_top" xlink:title="Gets the time as a string.">
<polygon fill="white" stroke="#666666" points="233.38,-58 122.88,-58 122.88,-38 233.38,-38 233.38,-58"/>
<text text-anchor="middle" x="178.12" y="-44.5" font-family="Helvetica,sans-Serif" font-size="10.00">Time::get_time_string</text>
</a>
</g>
</g>
<!-- Node1&#45;&gt;Node2 -->
<g id="edge1_Node000001_Node000002" class="edge">
<title>Node1&#45;&gt;Node2</title>
<g id="a_edge1_Node000001_Node000002"><a xlink:title=" ">
<path fill="none" stroke="#63b8ff" d="M86.04,-35.01C94.09,-36.16 102.71,-37.39 111.3,-38.61"/>
<polygon fill="#63b8ff" stroke="#63b8ff" points="110.65,-42.06 121.04,-40 111.64,-35.13 110.65,-42.06"/>
</a>
</g>
</g>
<!-- Node6 -->
<g id="Node000006" class="node">
<title>Node6</title>
<g id="a_Node000006"><a xlink:href="class_time.html#a65e3d3b014c26d5e83147913906627fd" target="_top" xlink:title="Gets the time zone as a string.">
<polygon fill="white" stroke="#666666" points="234.5,-20 121.75,-20 121.75,0 234.5,0 234.5,-20"/>
<text text-anchor="middle" x="178.12" y="-6.5" font-family="Helvetica,sans-Serif" font-size="10.00">Time::get_zone_string</text>
</a>
</g>
</g>
<!-- Node1&#45;&gt;Node6 -->
<g id="edge5_Node000001_Node000006" class="edge">
<title>Node1&#45;&gt;Node6</title>
<g id="a_edge5_Node000001_Node000006"><a xlink:title=" ">
<path fill="none" stroke="#63b8ff" d="M86.04,-22.99C93.79,-21.88 102.07,-20.7 110.34,-19.52"/>
<polygon fill="#63b8ff" stroke="#63b8ff" points="110.68,-23.01 120.08,-18.13 109.69,-16.08 110.68,-23.01"/>
</a>
</g>
</g>
<!-- Node3 -->
<g id="Node000003" class="node">
<title>Node3</title>
<g id="a_Node000003"><a xlink:href="class_time.html#adf39a26857eb05cb2cdb7fc716b37446" target="_top" xlink:title="Gets the hours of the time.">
<polygon fill="white" stroke="#666666" points="363.38,-96 276.88,-96 276.88,-76 363.38,-76 363.38,-96"/>
<text text-anchor="middle" x="320.12" y="-82.5" font-family="Helvetica,sans-Serif" font-size="10.00">Time::get_hours</text>
</a>
</g>
</g>
<!-- Node2&#45;&gt;Node3 -->
<g id="edge2_Node000002_Node000003" class="edge">
<title>Node2&#45;&gt;Node3</title>
<g id="a_edge2_Node000002_Node000003"><a xlink:title=" ">
<path fill="none" stroke="#63b8ff" d="M217.75,-58.48C233.82,-62.85 252.67,-67.96 269.72,-72.59"/>
<polygon fill="#63b8ff" stroke="#63b8ff" points="268.6,-75.91 279.16,-75.15 270.43,-69.16 268.6,-75.91"/>
</a>
</g>
</g>
<!-- Node4 -->
<g id="Node000004" class="node">
<title>Node4</title>
<g id="a_Node000004"><a xlink:href="class_time.html#ad6e9f40abd0fc0dd6a7fc5bf8c624585" target="_top" xlink:title="Gets the minutes of the time.">
<polygon fill="white" stroke="#666666" points="368.62,-58 271.62,-58 271.62,-38 368.62,-38 368.62,-58"/>
<text text-anchor="middle" x="320.12" y="-44.5" font-family="Helvetica,sans-Serif" font-size="10.00">Time::get_minutes</text>
</a>
</g>
</g>
<!-- Node2&#45;&gt;Node4 -->
<g id="edge3_Node000002_Node000004" class="edge">
<title>Node2&#45;&gt;Node4</title>
<g id="a_edge3_Node000002_Node000004"><a xlink:title=" ">
<path fill="none" stroke="#63b8ff" d="M233.65,-48C242.3,-48 251.28,-48 260.03,-48"/>
<polygon fill="#63b8ff" stroke="#63b8ff" points="259.83,-51.5 269.83,-48 259.83,-44.5 259.83,-51.5"/>
</a>
</g>
</g>
<!-- Node5 -->
<g id="Node000005" class="node">
<title>Node5</title>
<g id="a_Node000005"><a xlink:href="class_time.html#addc7f4c98a8bc263bd05d70710b37a4b" target="_top" xlink:title="Gets the seconds of the time.">
<polygon fill="white" stroke="#666666" points="369.75,-20 270.5,-20 270.5,0 369.75,0 369.75,-20"/>
<text text-anchor="middle" x="320.12" y="-6.5" font-family="Helvetica,sans-Serif" font-size="10.00">Time::get_seconds</text>
</a>
</g>
</g>
<!-- Node2&#45;&gt;Node5 -->
<g id="edge4_Node000002_Node000005" class="edge">
<title>Node2&#45;&gt;Node5</title>
<g id="a_edge4_Node000002_Node000005"><a xlink:title=" ">
<path fill="none" stroke="#63b8ff" d="M217.75,-37.52C233.82,-33.15 252.67,-28.04 269.72,-23.41"/>
<polygon fill="#63b8ff" stroke="#63b8ff" points="270.43,-26.84 279.16,-20.85 268.6,-20.09 270.43,-26.84"/>
</a>
</g>
</g>
</g>
</svg>
</svg>

<style type='text/css'>
<![CDATA[
[data-mouse-over-selected='false'] { opacity: 0.7; }
[data-mouse-over-selected='true']  { opacity: 1.0; }
]]>
</style>
<script type="application/ecmascript"><![CDATA[
document.addEventListener('DOMContentLoaded', (event) => {
  highlightEdges();
  highlightAdjacentNodes();
});
]]></script>
</svg>
