<?xml version="1.0" encoding="UTF-8" standalone="no"?>
<!DOCTYPE svg PUBLIC "-//W3C//DTD SVG 1.1//EN"
 "http://www.w3.org/Graphics/SVG/1.1/DTD/svg11.dtd">
<!-- Generated by graphviz version 12.2.1 (20241206.2353)
 -->
<!-- Title: Database::remove_from_map Pages: 1 -->
<svg width="333pt" height="254pt"
 viewBox="0.00 0.00 332.50 254.00" xmlns="http://www.w3.org/2000/svg" xmlns:xlink="http://www.w3.org/1999/xlink">
<g id="graph0" class="graph" transform="scale(1 1) rotate(0) translate(4 250)">
<title>Database::remove_from_map</title>
<!-- Node1 -->
<g id="Node000001" class="node">
<title>Node1</title>
<g id="a_Node000001"><a xlink:title="Removes an entry from a multimap.">
<polygon fill="#999999" stroke="#666666" points="324.5,-148 179.5,-148 179.5,-128 324.5,-128 324.5,-148"/>
<text text-anchor="middle" x="252" y="-134.5" font-family="Helvetica,sans-Serif" font-size="10.00">Database::remove_from_map</text>
</a>
</g>
</g>
<!-- Node2 -->
<g id="Node000002" class="node">
<title>Node2</title>
<g id="a_Node000002"><a xlink:href="class_database.html#a666ab0d4f96402ecae70425b2c6863fb" target="_top" xlink:title="Removes a child from the database.">
<polygon fill="white" stroke="#666666" points="132.62,-246 10.87,-246 10.87,-226 132.62,-226 132.62,-246"/>
<text text-anchor="middle" x="71.75" y="-232.5" font-family="Helvetica,sans-Serif" font-size="10.00">Database::remove_child</text>
</a>
</g>
</g>
<!-- Node1&#45;&gt;Node2 -->
<g id="edge1_Node000001_Node000002" class="edge">
<title>Node1&#45;&gt;Node2</title>
<g id="a_edge1_Node000001_Node000002"><a xlink:title=" ">
<path fill="none" stroke="#63b8ff" d="M231.57,-155.79C211.09,-173.66 177.17,-200.82 143.5,-217 136.51,-220.36 128.83,-223.2 121.19,-225.57"/>
<polygon fill="#63b8ff" stroke="#63b8ff" points="233.71,-158.57 238.86,-149.31 229.06,-153.34 233.71,-158.57"/>
</a>
</g>
</g>
<!-- Node3 -->
<g id="Node000003" class="node">
<title>Node3</title>
<g id="a_Node000003"><a xlink:href="class_database.html#a634fba21c974bb1fe271204801df71c1" target="_top" xlink:title="Removes an employee from the database.">
<polygon fill="white" stroke="#666666" points="143.5,-208 0,-208 0,-188 143.5,-188 143.5,-208"/>
<text text-anchor="middle" x="71.75" y="-194.5" font-family="Helvetica,sans-Serif" font-size="10.00">Database::remove_employee</text>
</a>
</g>
</g>
<!-- Node1&#45;&gt;Node3 -->
<g id="edge2_Node000001_Node000003" class="edge">
<title>Node1&#45;&gt;Node3</title>
<g id="a_edge2_Node000001_Node000003"><a xlink:title=" ">
<path fill="none" stroke="#63b8ff" d="M215.49,-152.59C194.7,-160.87 167.82,-171.12 143.5,-179 134.18,-182.02 124.07,-184.94 114.48,-187.55"/>
<polygon fill="#63b8ff" stroke="#63b8ff" points="216.68,-155.88 224.66,-148.91 214.07,-149.39 216.68,-155.88"/>
</a>
</g>
</g>
<!-- Node4 -->
<g id="Node000004" class="node">
<title>Node4</title>
<g id="a_Node000004"><a xlink:href="class_database.html#ac93799e482b7dbee6db4bb094f7255ce" target="_top" xlink:title="Removes a parent from the database.">
<polygon fill="white" stroke="#666666" points="136,-170 7.5,-170 7.5,-150 136,-150 136,-170"/>
<text text-anchor="middle" x="71.75" y="-156.5" font-family="Helvetica,sans-Serif" font-size="10.00">Database::remove_parent</text>
</a>
</g>
</g>
<!-- Node1&#45;&gt;Node4 -->
<g id="edge3_Node000001_Node000004" class="edge">
<title>Node1&#45;&gt;Node4</title>
<g id="a_edge3_Node000001_Node000004"><a xlink:title=" ">
<path fill="none" stroke="#63b8ff" d="M167.67,-148.28C157.16,-149.58 146.53,-150.89 136.39,-152.15"/>
<polygon fill="#63b8ff" stroke="#63b8ff" points="168.01,-151.77 177.51,-147.07 167.16,-144.82 168.01,-151.77"/>
</a>
</g>
</g>
<!-- Node5 -->
<g id="Node000005" class="node">
<title>Node5</title>
<g id="a_Node000005"><a xlink:href="class_database.html#a283eb646c12fff3f96e217bf5c3a7dc3" target="_top" xlink:title="Removes a child&#39;s information from the maps.">
<polygon fill="white" stroke="#666666" points="131.12,-132 12.38,-132 12.38,-100 131.12,-100 131.12,-132"/>
<text text-anchor="start" x="20.38" y="-118.5" font-family="Helvetica,sans-Serif" font-size="10.00">Database::update_child</text>
<text text-anchor="middle" x="71.75" y="-106.5" font-family="Helvetica,sans-Serif" font-size="10.00">_start</text>
</a>
</g>
</g>
<!-- Node1&#45;&gt;Node5 -->
<g id="edge4_Node000001_Node000005" class="edge">
<title>Node1&#45;&gt;Node5</title>
<g id="a_edge4_Node000001_Node000005"><a xlink:title=" ">
<path fill="none" stroke="#63b8ff" d="M167.84,-127.74C155.61,-126.23 143.22,-124.7 131.61,-123.26"/>
<polygon fill="#63b8ff" stroke="#63b8ff" points="167.16,-131.18 177.51,-128.93 168.01,-124.23 167.16,-131.18"/>
</a>
</g>
</g>
<!-- Node6 -->
<g id="Node000006" class="node">
<title>Node6</title>
<g id="a_Node000006"><a xlink:href="class_database.html#a7bbdd3a035f7164c5ddf45fcc28693e7" target="_top" xlink:title="Removes an employee&#39;s information from the maps.">
<polygon fill="white" stroke="#666666" points="142,-82 1.5,-82 1.5,-50 142,-50 142,-82"/>
<text text-anchor="start" x="9.5" y="-68.5" font-family="Helvetica,sans-Serif" font-size="10.00">Database::update_employee</text>
<text text-anchor="middle" x="71.75" y="-56.5" font-family="Helvetica,sans-Serif" font-size="10.00">_start</text>
</a>
</g>
</g>
<!-- Node1&#45;&gt;Node6 -->
<g id="edge5_Node000001_Node000006" class="edge">
<title>Node1&#45;&gt;Node6</title>
<g id="a_edge5_Node000001_Node000006"><a xlink:title=" ">
<path fill="none" stroke="#63b8ff" d="M218.18,-122.91C197.02,-113.37 168.83,-101 143.5,-91 136.23,-88.13 128.48,-85.23 120.88,-82.48"/>
<polygon fill="#63b8ff" stroke="#63b8ff" points="216.62,-126.05 227.17,-126.99 219.51,-119.67 216.62,-126.05"/>
</a>
</g>
</g>
<!-- Node7 -->
<g id="Node000007" class="node">
<title>Node7</title>
<g id="a_Node000007"><a xlink:href="class_database.html#a2f49b299c2bd30461bbd0fb27fce3a57" target="_top" xlink:title="Removes a parent&#39;s information from the maps.">
<polygon fill="white" stroke="#666666" points="134.5,-32 9,-32 9,0 134.5,0 134.5,-32"/>
<text text-anchor="start" x="17" y="-18.5" font-family="Helvetica,sans-Serif" font-size="10.00">Database::update_parent</text>
<text text-anchor="middle" x="71.75" y="-6.5" font-family="Helvetica,sans-Serif" font-size="10.00">_start</text>
</a>
</g>
</g>
<!-- Node1&#45;&gt;Node7 -->
<g id="edge6_Node000001_Node000007" class="edge">
<title>Node1&#45;&gt;Node7</title>
<g id="a_edge6_Node000001_Node000007"><a xlink:title=" ">
<path fill="none" stroke="#63b8ff" d="M234.8,-119.49C215.11,-97.99 179.98,-62.71 143.5,-41 138.13,-37.8 132.28,-34.92 126.33,-32.36"/>
<polygon fill="#63b8ff" stroke="#63b8ff" points="231.95,-121.55 241.24,-126.65 237.15,-116.87 231.95,-121.55"/>
</a>
</g>
</g>
</g>
</svg>
