<?xml version="1.0" encoding="UTF-8" standalone="no"?>
<!DOCTYPE svg PUBLIC "-//W3C//DTD SVG 1.1//EN"
 "http://www.w3.org/Graphics/SVG/1.1/DTD/svg11.dtd">
<!-- Generated by graphviz version 12.2.1 (20241206.2353)
 -->
<!-- Title: LessonDialog::create_employee_check_box Pages: 1 -->
<svg width="619pt" height="112pt"
 viewBox="0.00 0.00 618.75 112.00" xmlns="http://www.w3.org/2000/svg" xmlns:xlink="http://www.w3.org/1999/xlink">
<g id="graph0" class="graph" transform="scale(1 1) rotate(0) translate(4 108)">
<title>LessonDialog::create_employee_check_box</title>
<!-- Node1 -->
<g id="Node000001" class="node">
<title>Node1</title>
<g id="a_Node000001"><a xlink:title="Creates a checkbox for an employee.">
<polygon fill="#999999" stroke="#666666" points="610.75,-57 495,-57 495,-25 610.75,-25 610.75,-57"/>
<text text-anchor="start" x="503" y="-43.5" font-family="Helvetica,sans-Serif" font-size="10.00">LessonDialog::create</text>
<text text-anchor="middle" x="552.88" y="-31.5" font-family="Helvetica,sans-Serif" font-size="10.00">_employee_check_box</text>
</a>
</g>
</g>
<!-- Node2 -->
<g id="Node000002" class="node">
<title>Node2</title>
<g id="a_Node000002"><a xlink:href="class_lesson_dialog.html#a2883fd6f7079ecb26550deb519302db0" target="_top" xlink:title="Populates the dialog with employees.">
<polygon fill="white" stroke="#666666" points="459,-82 341,-82 341,-50 459,-50 459,-82"/>
<text text-anchor="start" x="349" y="-68.5" font-family="Helvetica,sans-Serif" font-size="10.00">LessonDialog::populate</text>
<text text-anchor="middle" x="400" y="-56.5" font-family="Helvetica,sans-Serif" font-size="10.00">_employees</text>
</a>
</g>
</g>
<!-- Node1&#45;&gt;Node2 -->
<g id="edge1_Node000001_Node000002" class="edge">
<title>Node1&#45;&gt;Node2</title>
<g id="a_edge1_Node000001_Node000002"><a xlink:title=" ">
<path fill="none" stroke="#63b8ff" d="M483.54,-52.32C475.47,-53.66 467.29,-55.02 459.37,-56.33"/>
<polygon fill="#63b8ff" stroke="#63b8ff" points="484.05,-55.79 493.34,-50.7 482.9,-48.88 484.05,-55.79"/>
</a>
</g>
</g>
<!-- Node5 -->
<g id="Node000005" class="node">
<title>Node5</title>
<g id="a_Node000005"><a xlink:href="class_lesson_dialog.html#ae4ff794125c43c773c2f6eea7167242a" target="_top" xlink:title="Populates the dialog with employees.">
<polygon fill="white" stroke="#666666" points="459,-32 341,-32 341,0 459,0 459,-32"/>
<text text-anchor="start" x="349" y="-18.5" font-family="Helvetica,sans-Serif" font-size="10.00">LessonDialog::populate</text>
<text text-anchor="middle" x="400" y="-6.5" font-family="Helvetica,sans-Serif" font-size="10.00">_employees</text>
</a>
</g>
</g>
<!-- Node1&#45;&gt;Node5 -->
<g id="edge5_Node000001_Node000005" class="edge">
<title>Node1&#45;&gt;Node5</title>
<g id="a_edge5_Node000001_Node000005"><a xlink:title=" ">
<path fill="none" stroke="#63b8ff" d="M483.54,-29.68C475.47,-28.34 467.29,-26.98 459.37,-25.67"/>
<polygon fill="#63b8ff" stroke="#63b8ff" points="482.9,-33.12 493.34,-31.3 484.05,-26.21 482.9,-33.12"/>
</a>
</g>
</g>
<!-- Node3 -->
<g id="Node000003" class="node">
<title>Node3</title>
<g id="a_Node000003"><a xlink:href="class_lesson_dialog.html#a6cec6904588a83618b0d776547ea2697" target="_top" xlink:title="Searches for employees based on the input in the name and surname fields.">
<polygon fill="white" stroke="#666666" points="305,-104 176.5,-104 176.5,-72 305,-72 305,-104"/>
<text text-anchor="start" x="184.5" y="-90.5" font-family="Helvetica,sans-Serif" font-size="10.00">LessonDialog::employees</text>
<text text-anchor="middle" x="240.75" y="-78.5" font-family="Helvetica,sans-Serif" font-size="10.00">_search</text>
</a>
</g>
</g>
<!-- Node2&#45;&gt;Node3 -->
<g id="edge2_Node000002_Node000003" class="edge">
<title>Node2&#45;&gt;Node3</title>
<g id="a_edge2_Node000002_Node000003"><a xlink:title=" ">
<path fill="none" stroke="#63b8ff" d="M329.64,-75.7C321.59,-76.83 313.41,-77.98 305.44,-79.09"/>
<polygon fill="#63b8ff" stroke="#63b8ff" points="329.98,-79.19 339.39,-74.34 329.01,-72.26 329.98,-79.19"/>
</a>
</g>
</g>
<!-- Node4 -->
<g id="Node000004" class="node">
<title>Node4</title>
<g id="a_Node000004"><a xlink:href="class_lesson_dialog.html#a4ddf55a3925f45bd1cd3ecef02c261d5" target="_top" xlink:title="Constructs a LessonDialog object.">
<polygon fill="white" stroke="#666666" points="140.5,-76 0,-76 0,-56 140.5,-56 140.5,-76"/>
<text text-anchor="middle" x="70.25" y="-62.5" font-family="Helvetica,sans-Serif" font-size="10.00">LessonDialog::LessonDialog</text>
</a>
</g>
</g>
<!-- Node2&#45;&gt;Node4 -->
<g id="edge4_Node000002_Node000004" class="edge">
<title>Node2&#45;&gt;Node4</title>
<g id="a_edge4_Node000002_Node000004"><a xlink:title=" ">
<path fill="none" stroke="#63b8ff" d="M329.15,-63.52C321.01,-63.31 312.82,-63.12 305,-63 247.9,-62.09 233.61,-62.19 176.5,-63 164.98,-63.16 152.76,-63.43 140.88,-63.74"/>
<polygon fill="#63b8ff" stroke="#63b8ff" points="328.98,-67.02 339.08,-63.8 329.18,-60.02 328.98,-67.02"/>
</a>
</g>
</g>
<!-- Node3&#45;&gt;Node4 -->
<g id="edge3_Node000003_Node000004" class="edge">
<title>Node3&#45;&gt;Node4</title>
<g id="a_edge3_Node000003_Node000004"><a xlink:title=" ">
<path fill="none" stroke="#63b8ff" d="M164.9,-78.23C156.93,-77.19 148.86,-76.13 140.96,-75.1"/>
<polygon fill="#63b8ff" stroke="#63b8ff" points="164.18,-81.66 174.55,-79.49 165.08,-74.72 164.18,-81.66"/>
</a>
</g>
</g>
</g>
</svg>
