<?xml version="1.0" encoding="UTF-8" standalone="no"?>
<!DOCTYPE svg PUBLIC "-//W3C//DTD SVG 1.1//EN"
 "http://www.w3.org/Graphics/SVG/1.1/DTD/svg11.dtd">
<!-- Generated by graphviz version 12.2.1 (20241206.2353)
 -->
<!-- Title: DataBaseGUI::parent_search Pages: 1 -->
<svg width="1105pt" height="436pt"
 viewBox="0.00 0.00 1104.75 435.69" xmlns="http://www.w3.org/2000/svg" xmlns:xlink="http://www.w3.org/1999/xlink">
<g id="graph0" class="graph" transform="scale(1 1) rotate(0) translate(4 431.69)">
<title>DataBaseGUI::parent_search</title>
<!-- Node1 -->
<g id="Node000001" class="node">
<title>Node1</title>
<g id="a_Node000001"><a xlink:title="Searches for parents based on the provided name and surname.">
<polygon fill="#999999" stroke="#666666" points="110.5,-337.69 0,-337.69 0,-305.69 110.5,-305.69 110.5,-337.69"/>
<text text-anchor="start" x="8" y="-324.19" font-family="Helvetica,sans-Serif" font-size="10.00">DataBaseGUI::parent</text>
<text text-anchor="middle" x="55.25" y="-312.19" font-family="Helvetica,sans-Serif" font-size="10.00">_search</text>
</a>
</g>
</g>
<!-- Node2 -->
<g id="Node000002" class="node">
<title>Node2</title>
<g id="a_Node000002"><a xlink:href="class_data_base_g_u_i.html#a739b2cf48c0cb6e3cab2da0a7bbd6d6d" target="_top" xlink:title="Populates the parent tab with a list of parents.">
<polygon fill="white" stroke="#666666" points="266.75,-243.69 146.5,-243.69 146.5,-211.69 266.75,-211.69 266.75,-243.69"/>
<text text-anchor="start" x="154.5" y="-230.19" font-family="Helvetica,sans-Serif" font-size="10.00">DataBaseGUI::populate</text>
<text text-anchor="middle" x="206.62" y="-218.19" font-family="Helvetica,sans-Serif" font-size="10.00">_parent_tab</text>
</a>
</g>
</g>
<!-- Node1&#45;&gt;Node2 -->
<g id="edge1_Node000001_Node000002" class="edge">
<title>Node1&#45;&gt;Node2</title>
<g id="a_edge1_Node000001_Node000002"><a xlink:title=" ">
<path fill="none" stroke="#63b8ff" d="M82.27,-305.32C106.61,-290 143.17,-266.99 170.18,-250"/>
<polygon fill="#63b8ff" stroke="#63b8ff" points="171.77,-253.13 178.37,-244.84 168.05,-247.21 171.77,-253.13"/>
</a>
</g>
</g>
<!-- Node3 -->
<g id="Node000003" class="node">
<title>Node3</title>
<g id="a_Node000003"><a xlink:href="class_data_base_g_u_i.html#aadb0e7d323a970603312695c0dd9b264" target="_top" xlink:title="Searches for children based on the provided child pointer.">
<polygon fill="white" stroke="#666666" points="431.25,-375.69 327.5,-375.69 327.5,-343.69 431.25,-343.69 431.25,-375.69"/>
<text text-anchor="start" x="335.5" y="-362.19" font-family="Helvetica,sans-Serif" font-size="10.00">DataBaseGUI::child</text>
<text text-anchor="middle" x="379.38" y="-350.19" font-family="Helvetica,sans-Serif" font-size="10.00">_search_by_pointer</text>
</a>
</g>
</g>
<!-- Node2&#45;&gt;Node3 -->
<g id="edge2_Node000002_Node000003" class="edge">
<title>Node2&#45;&gt;Node3</title>
<g id="a_edge2_Node000002_Node000003"><a xlink:title=" ">
<path fill="none" stroke="#63b8ff" d="M217.91,-243.89C233.53,-267.2 265.37,-310.11 302.75,-334.69 307.14,-337.58 311.89,-340.16 316.81,-342.46"/>
<polygon fill="#63b8ff" stroke="#63b8ff" points="315.08,-345.53 325.65,-346.21 317.81,-339.09 315.08,-345.53"/>
</a>
</g>
</g>
<!-- Node16 -->
<g id="Node000016" class="node">
<title>Node16</title>
<g id="a_Node000016"><a xlink:href="class_parent_entry.html#a45e22d202e52c9dbc7e7e72575dc0e91" target="_top" xlink:title="Signal emitted when a child search is requested.">
<polygon fill="white" stroke="#666666" points="441.75,-199.69 317,-199.69 317,-167.69 441.75,-167.69 441.75,-199.69"/>
<text text-anchor="start" x="325" y="-186.19" font-family="Helvetica,sans-Serif" font-size="10.00">ParentEntry::childSearch</text>
<text text-anchor="middle" x="379.38" y="-174.19" font-family="Helvetica,sans-Serif" font-size="10.00">Requested</text>
</a>
</g>
</g>
<!-- Node2&#45;&gt;Node16 -->
<g id="edge20_Node000002_Node000016" class="edge">
<title>Node2&#45;&gt;Node16</title>
<g id="a_edge20_Node000002_Node000016"><a xlink:title=" ">
<path fill="none" stroke="#63b8ff" d="M266.87,-212.43C279.43,-209.19 292.84,-205.74 305.83,-202.39"/>
<polygon fill="#63b8ff" stroke="#63b8ff" points="306.35,-205.87 315.16,-199.98 304.6,-199.09 306.35,-205.87"/>
</a>
</g>
</g>
<!-- Node17 -->
<g id="Node000017" class="node">
<title>Node17</title>
<g id="a_Node000017"><a xlink:href="class_parent_entry.html#ab0a6b9993e8f1dc2f58ceedfee0f7d0b" target="_top" xlink:title="Signal emitted when a parent edit is requested.">
<polygon fill="white" stroke="#666666" points="447.75,-149.69 311,-149.69 311,-129.69 447.75,-129.69 447.75,-149.69"/>
<text text-anchor="middle" x="379.38" y="-136.19" font-family="Helvetica,sans-Serif" font-size="10.00">ParentEntry::editRequested</text>
</a>
</g>
</g>
<!-- Node2&#45;&gt;Node17 -->
<g id="edge21_Node000002_Node000017" class="edge">
<title>Node2&#45;&gt;Node17</title>
<g id="a_edge21_Node000002_Node000017"><a xlink:title=" ">
<path fill="none" stroke="#63b8ff" d="M225.59,-211.39C243.78,-195.71 273.36,-172.42 302.75,-158.69 306.71,-156.85 310.87,-155.16 315.12,-153.63"/>
<polygon fill="#63b8ff" stroke="#63b8ff" points="315.95,-157.04 324.37,-150.6 313.77,-150.39 315.95,-157.04"/>
</a>
</g>
</g>
<!-- Node18 -->
<g id="Node000018" class="node">
<title>Node18</title>
<g id="a_Node000018"><a xlink:href="class_data_base_g_u_i.html#a5b049fb9e0e5d78c4c2e81e569b471f9" target="_top" xlink:title="Edits an existing parent in the database.">
<polygon fill="white" stroke="#666666" points="445.12,-111.69 313.62,-111.69 313.62,-91.69 445.12,-91.69 445.12,-111.69"/>
<text text-anchor="middle" x="379.38" y="-98.19" font-family="Helvetica,sans-Serif" font-size="10.00">DataBaseGUI::parent_edit</text>
</a>
</g>
</g>
<!-- Node2&#45;&gt;Node18 -->
<g id="edge22_Node000002_Node000018" class="edge">
<title>Node2&#45;&gt;Node18</title>
<g id="a_edge22_Node000002_Node000018"><a xlink:title=" ">
<path fill="none" stroke="#63b8ff" d="M217.43,-211.53C232.66,-187.85 264.28,-144.02 302.75,-120.69 305.23,-119.19 307.83,-117.8 310.5,-116.53"/>
<polygon fill="#63b8ff" stroke="#63b8ff" points="311.83,-119.77 319.73,-112.71 309.15,-113.3 311.83,-119.77"/>
</a>
</g>
</g>
<!-- Node20 -->
<g id="Node000020" class="node">
<title>Node20</title>
<g id="a_Node000020"><a xlink:href="class_data_base_g_u_i.html#ad8a42f24cdb603ba85c1cdd4ea2e73a4" target="_top" xlink:title="Removes a parent from the database.">
<polygon fill="white" stroke="#666666" points="434.62,-73.69 324.12,-73.69 324.12,-41.69 434.62,-41.69 434.62,-73.69"/>
<text text-anchor="start" x="332.12" y="-60.19" font-family="Helvetica,sans-Serif" font-size="10.00">DataBaseGUI::parent</text>
<text text-anchor="middle" x="379.38" y="-48.19" font-family="Helvetica,sans-Serif" font-size="10.00">_remove</text>
</a>
</g>
</g>
<!-- Node2&#45;&gt;Node20 -->
<g id="edge25_Node000002_Node000020" class="edge">
<title>Node2&#45;&gt;Node20</title>
<g id="a_edge25_Node000002_Node000020"><a xlink:title=" ">
<path fill="none" stroke="#63b8ff" d="M213.89,-211.64C226.32,-181.86 256.9,-117.89 302.75,-82.69 306.07,-80.14 309.67,-77.85 313.42,-75.78"/>
<polygon fill="#63b8ff" stroke="#63b8ff" points="314.82,-78.99 322.3,-71.49 311.77,-72.69 314.82,-78.99"/>
</a>
</g>
</g>
<!-- Node21 -->
<g id="Node000021" class="node">
<title>Node21</title>
<g id="a_Node000021"><a xlink:href="class_data_base_g_u_i.html#a3d4aa66da32413ddd29330e008b1865a" target="_top" xlink:title="Clears the parent tab.">
<polygon fill="white" stroke="#666666" points="434.62,-325.69 324.12,-325.69 324.12,-293.69 434.62,-293.69 434.62,-325.69"/>
<text text-anchor="start" x="332.12" y="-312.19" font-family="Helvetica,sans-Serif" font-size="10.00">DataBaseGUI::parent</text>
<text text-anchor="middle" x="379.38" y="-300.19" font-family="Helvetica,sans-Serif" font-size="10.00">_tab_clear</text>
</a>
</g>
</g>
<!-- Node2&#45;&gt;Node21 -->
<g id="edge27_Node000002_Node000021" class="edge">
<title>Node2&#45;&gt;Node21</title>
<g id="a_edge27_Node000002_Node000021"><a xlink:title=" ">
<path fill="none" stroke="#63b8ff" d="M235.46,-244.09C254.18,-254.82 279.58,-268.82 302.75,-279.69 309.54,-282.88 316.76,-286.04 323.95,-289.03"/>
<polygon fill="#63b8ff" stroke="#63b8ff" points="322.41,-292.19 332.99,-292.73 325.06,-285.71 322.41,-292.19"/>
</a>
</g>
</g>
<!-- Node22 -->
<g id="Node000022" class="node">
<title>Node22</title>
<g id="a_Node000022"><a xlink:href="class_parent_entry.html#ada9ff642ea28fbec8f40767df83cc5f1" target="_top" xlink:title="Signal emitted when a parent removal is requested.">
<polygon fill="white" stroke="#666666" points="456,-237.69 302.75,-237.69 302.75,-217.69 456,-217.69 456,-237.69"/>
<text text-anchor="middle" x="379.38" y="-224.19" font-family="Helvetica,sans-Serif" font-size="10.00">ParentEntry::removeRequested</text>
</a>
</g>
</g>
<!-- Node2&#45;&gt;Node22 -->
<g id="edge28_Node000002_Node000022" class="edge">
<title>Node2&#45;&gt;Node22</title>
<g id="a_edge28_Node000002_Node000022"><a xlink:title=" ">
<path fill="none" stroke="#63b8ff" d="M266.87,-227.69C274.66,-227.69 282.77,-227.69 290.91,-227.69"/>
<polygon fill="#63b8ff" stroke="#63b8ff" points="290.88,-231.19 300.88,-227.69 290.88,-224.19 290.88,-231.19"/>
</a>
</g>
</g>
<!-- Node4 -->
<g id="Node000004" class="node">
<title>Node4</title>
<g id="a_Node000004"><a xlink:href="class_data_base_g_u_i.html#a2d921da686e76ae195da018bb735a1ae" target="_top" xlink:title="Searches for children based on the provided name and surname.">
<polygon fill="white" stroke="#666666" points="600.62,-202.69 496.88,-202.69 496.88,-170.69 600.62,-170.69 600.62,-202.69"/>
<text text-anchor="start" x="504.88" y="-189.19" font-family="Helvetica,sans-Serif" font-size="10.00">DataBaseGUI::child</text>
<text text-anchor="middle" x="548.75" y="-177.19" font-family="Helvetica,sans-Serif" font-size="10.00">_search</text>
</a>
</g>
</g>
<!-- Node3&#45;&gt;Node4 -->
<g id="edge3_Node000003_Node000004" class="edge">
<title>Node3&#45;&gt;Node4</title>
<g id="a_edge3_Node000003_Node000004"><a xlink:title=" ">
<path fill="none" stroke="#63b8ff" d="M431.67,-348.16C440.33,-344.74 448.83,-340.34 456,-334.69 466.95,-326.06 509.78,-252.99 532.84,-212.85"/>
<polygon fill="#63b8ff" stroke="#63b8ff" points="535.83,-214.68 537.76,-204.26 529.76,-211.2 535.83,-214.68"/>
</a>
</g>
</g>
<!-- Node12 -->
<g id="Node000012" class="node">
<title>Node12</title>
<g id="a_Node000012"><a xlink:href="class_person.html#a6b1fec00d8d1f5af1a2977dc3f5f9eb8" target="_top" xlink:title="Gets the first name of the person.">
<polygon fill="white" stroke="#666666" points="1086.62,-334.69 991.12,-334.69 991.12,-314.69 1086.62,-314.69 1086.62,-334.69"/>
<text text-anchor="middle" x="1038.88" y="-321.19" font-family="Helvetica,sans-Serif" font-size="10.00">Person::get_name</text>
</a>
</g>
</g>
<!-- Node3&#45;&gt;Node12 -->
<g id="edge18_Node000003_Node000012" class="edge">
<title>Node3&#45;&gt;Node12</title>
<g id="a_edge18_Node000003_Node000012"><a xlink:title=" ">
<path fill="none" stroke="#63b8ff" d="M431.67,-353.35C510.3,-343.97 665.44,-326.86 797.75,-320.69 863.12,-317.65 879.57,-319.29 945,-320.69 956.13,-320.93 968.01,-321.33 979.43,-321.79"/>
<polygon fill="#63b8ff" stroke="#63b8ff" points="978.99,-325.28 989.13,-322.2 979.28,-318.28 978.99,-325.28"/>
</a>
</g>
</g>
<!-- Node13 -->
<g id="Node000013" class="node">
<title>Node13</title>
<g id="a_Node000013"><a xlink:href="class_person.html#a7b3c8db44a49c4ba8c4838e19a235613" target="_top" xlink:title="Gets the last name of the person.">
<polygon fill="white" stroke="#666666" points="1093.38,-375.69 984.38,-375.69 984.38,-355.69 1093.38,-355.69 1093.38,-375.69"/>
<text text-anchor="middle" x="1038.88" y="-362.19" font-family="Helvetica,sans-Serif" font-size="10.00">Person::get_surname</text>
</a>
</g>
</g>
<!-- Node3&#45;&gt;Node13 -->
<g id="edge19_Node000003_Node000013" class="edge">
<title>Node3&#45;&gt;Node13</title>
<g id="a_edge19_Node000003_Node000013"><a xlink:title=" ">
<path fill="none" stroke="#63b8ff" d="M431.38,-362.27C530.4,-366.92 755.6,-375.79 945,-370.69 954.07,-370.45 963.62,-370.07 973.02,-369.63"/>
<polygon fill="#63b8ff" stroke="#63b8ff" points="973.04,-373.14 982.85,-369.14 972.69,-366.14 973.04,-373.14"/>
</a>
</g>
</g>
<!-- Node5 -->
<g id="Node000005" class="node">
<title>Node5</title>
<g id="a_Node000005"><a xlink:href="class_data_base_g_u_i.html#af346d08370d9e4574980707f61b9c8f7" target="_top" xlink:title="Populates the children tab with a list of children.">
<polygon fill="white" stroke="#666666" points="761.75,-179.69 641.5,-179.69 641.5,-147.69 761.75,-147.69 761.75,-179.69"/>
<text text-anchor="start" x="649.5" y="-166.19" font-family="Helvetica,sans-Serif" font-size="10.00">DataBaseGUI::populate</text>
<text text-anchor="middle" x="701.62" y="-154.19" font-family="Helvetica,sans-Serif" font-size="10.00">_children_tab</text>
</a>
</g>
</g>
<!-- Node4&#45;&gt;Node5 -->
<g id="edge4_Node000004_Node000005" class="edge">
<title>Node4&#45;&gt;Node5</title>
<g id="a_edge4_Node000004_Node000005"><a xlink:title=" ">
<path fill="none" stroke="#63b8ff" d="M600.83,-178.91C610.11,-177.49 619.94,-175.99 629.67,-174.51"/>
<polygon fill="#63b8ff" stroke="#63b8ff" points="630.15,-177.98 639.51,-173.01 629.09,-171.06 630.15,-177.98"/>
</a>
</g>
</g>
<!-- Node6 -->
<g id="Node000006" class="node">
<title>Node6</title>
<g id="a_Node000006"><a xlink:href="class_data_base_g_u_i.html#acb6c6b292e58d0ead30682f7f5705244" target="_top" xlink:title="Edits an existing child in the database.">
<polygon fill="white" stroke="#666666" points="933.75,-47.69 809,-47.69 809,-27.69 933.75,-27.69 933.75,-47.69"/>
<text text-anchor="middle" x="871.38" y="-34.19" font-family="Helvetica,sans-Serif" font-size="10.00">DataBaseGUI::child_edit</text>
</a>
</g>
</g>
<!-- Node5&#45;&gt;Node6 -->
<g id="edge5_Node000005_Node000006" class="edge">
<title>Node5&#45;&gt;Node6</title>
<g id="a_edge5_Node000005_Node000006"><a xlink:title=" ">
<path fill="none" stroke="#63b8ff" d="M712.46,-147.58C727.72,-123.96 759.4,-80.21 797.75,-56.69 800.18,-55.2 802.73,-53.83 805.35,-52.56"/>
<polygon fill="#63b8ff" stroke="#63b8ff" points="806.51,-55.87 814.38,-48.77 803.8,-49.42 806.51,-55.87"/>
</a>
</g>
</g>
<!-- Node8 -->
<g id="Node000008" class="node">
<title>Node8</title>
<g id="a_Node000008"><a xlink:href="class_data_base_g_u_i.html#ae3a08843db874e51a7cea32fa8937ca5" target="_top" xlink:title="Removes a child from the database.">
<polygon fill="white" stroke="#666666" points="923.25,-273.69 819.5,-273.69 819.5,-241.69 923.25,-241.69 923.25,-273.69"/>
<text text-anchor="start" x="827.5" y="-260.19" font-family="Helvetica,sans-Serif" font-size="10.00">DataBaseGUI::child</text>
<text text-anchor="middle" x="871.38" y="-248.19" font-family="Helvetica,sans-Serif" font-size="10.00">_remove</text>
</a>
</g>
</g>
<!-- Node5&#45;&gt;Node8 -->
<g id="edge8_Node000005_Node000008" class="edge">
<title>Node5&#45;&gt;Node8</title>
<g id="a_edge8_Node000005_Node000008"><a xlink:title=" ">
<path fill="none" stroke="#63b8ff" d="M721.55,-180.04C739.99,-195.31 769.33,-217.92 797.75,-232.69 801.23,-234.5 804.86,-236.22 808.58,-237.86"/>
<polygon fill="#63b8ff" stroke="#63b8ff" points="807.19,-241.07 817.77,-241.64 809.86,-234.6 807.19,-241.07"/>
</a>
</g>
</g>
<!-- Node9 -->
<g id="Node000009" class="node">
<title>Node9</title>
<g id="a_Node000009"><a xlink:href="class_data_base_g_u_i.html#afbc53e28ad83200fe77e0fa5a6eb970f" target="_top" xlink:title="Clears the children tab.">
<polygon fill="white" stroke="#666666" points="930,-223.69 812.75,-223.69 812.75,-191.69 930,-191.69 930,-223.69"/>
<text text-anchor="start" x="820.75" y="-210.19" font-family="Helvetica,sans-Serif" font-size="10.00">DataBaseGUI::children</text>
<text text-anchor="middle" x="871.38" y="-198.19" font-family="Helvetica,sans-Serif" font-size="10.00">_tab_clear</text>
</a>
</g>
</g>
<!-- Node5&#45;&gt;Node9 -->
<g id="edge10_Node000005_Node000009" class="edge">
<title>Node5&#45;&gt;Node9</title>
<g id="a_edge10_Node000005_Node000009"><a xlink:title=" ">
<path fill="none" stroke="#63b8ff" d="M762.24,-179.33C774.97,-182.67 788.51,-186.22 801.55,-189.64"/>
<polygon fill="#63b8ff" stroke="#63b8ff" points="800.34,-192.94 810.9,-192.09 802.11,-186.17 800.34,-192.94"/>
</a>
</g>
</g>
<!-- Node10 -->
<g id="Node000010" class="node">
<title>Node10</title>
<g id="a_Node000010"><a xlink:href="class_child_entry.html#abda9dea89937d77c4def3fb81d964ff9" target="_top" xlink:title="Signal emitted when a child edit is requested.">
<polygon fill="white" stroke="#666666" points="936.75,-173.69 806,-173.69 806,-153.69 936.75,-153.69 936.75,-173.69"/>
<text text-anchor="middle" x="871.38" y="-160.19" font-family="Helvetica,sans-Serif" font-size="10.00">ChildEntry::editRequested</text>
</a>
</g>
</g>
<!-- Node5&#45;&gt;Node10 -->
<g id="edge11_Node000005_Node000010" class="edge">
<title>Node5&#45;&gt;Node10</title>
<g id="a_edge11_Node000005_Node000010"><a xlink:title=" ">
<path fill="none" stroke="#63b8ff" d="M762.24,-163.69C772.54,-163.69 783.38,-163.69 794.06,-163.69"/>
<polygon fill="#63b8ff" stroke="#63b8ff" points="794.03,-167.19 804.03,-163.69 794.03,-160.19 794.03,-167.19"/>
</a>
</g>
</g>
<!-- Node11 -->
<g id="Node000011" class="node">
<title>Node11</title>
<g id="a_Node000011"><a xlink:href="class_data_base_g_u_i.html#a8e1fe573ef6a09e112989968ec1a2b43" target="_top" xlink:title="Searches for parents based on the provided parent pointer.">
<polygon fill="white" stroke="#666666" points="926.62,-361.69 816.12,-361.69 816.12,-329.69 926.62,-329.69 926.62,-361.69"/>
<text text-anchor="start" x="824.12" y="-348.19" font-family="Helvetica,sans-Serif" font-size="10.00">DataBaseGUI::parent</text>
<text text-anchor="middle" x="871.38" y="-336.19" font-family="Helvetica,sans-Serif" font-size="10.00">_search_by_pointer</text>
</a>
</g>
</g>
<!-- Node5&#45;&gt;Node11 -->
<g id="edge12_Node000005_Node000011" class="edge">
<title>Node5&#45;&gt;Node11</title>
<g id="a_edge12_Node000005_Node000011"><a xlink:title=" ">
<path fill="none" stroke="#63b8ff" d="M714.08,-179.85C731.14,-203.48 764.77,-248.36 797.75,-282.69 811.12,-296.62 827.24,-310.82 840.89,-322.21"/>
<polygon fill="#63b8ff" stroke="#63b8ff" points="838.33,-324.64 848.28,-328.29 842.78,-319.23 838.33,-324.64"/>
</a>
</g>
</g>
<!-- Node14 -->
<g id="Node000014" class="node">
<title>Node14</title>
<g id="a_Node000014"><a xlink:href="class_child_entry.html#a11d827331ad040002cce25952c27e47a" target="_top" xlink:title="Signal emitted when a parent search is requested.">
<polygon fill="white" stroke="#666666" points="935.62,-135.69 807.12,-135.69 807.12,-103.69 935.62,-103.69 935.62,-135.69"/>
<text text-anchor="start" x="815.12" y="-122.19" font-family="Helvetica,sans-Serif" font-size="10.00">ChildEntry::parrentSearch</text>
<text text-anchor="middle" x="871.38" y="-110.19" font-family="Helvetica,sans-Serif" font-size="10.00">Requested</text>
</a>
</g>
</g>
<!-- Node5&#45;&gt;Node14 -->
<g id="edge16_Node000005_Node000014" class="edge">
<title>Node5&#45;&gt;Node14</title>
<g id="a_edge16_Node000005_Node000014"><a xlink:title=" ">
<path fill="none" stroke="#63b8ff" d="M762.24,-148.06C773.37,-145.14 785.13,-142.05 796.63,-139.04"/>
<polygon fill="#63b8ff" stroke="#63b8ff" points="797.3,-142.48 806.08,-136.56 795.52,-135.71 797.3,-142.48"/>
</a>
</g>
</g>
<!-- Node15 -->
<g id="Node000015" class="node">
<title>Node15</title>
<g id="a_Node000015"><a xlink:href="class_child_entry.html#a69e495a83c20ea922198adea9ae47ddb" target="_top" xlink:title="Signal emitted when a child removal is requested.">
<polygon fill="white" stroke="#666666" points="945,-85.69 797.75,-85.69 797.75,-65.69 945,-65.69 945,-85.69"/>
<text text-anchor="middle" x="871.38" y="-72.19" font-family="Helvetica,sans-Serif" font-size="10.00">ChildEntry::removeRequested</text>
</a>
</g>
</g>
<!-- Node5&#45;&gt;Node15 -->
<g id="edge17_Node000005_Node000015" class="edge">
<title>Node5&#45;&gt;Node15</title>
<g id="a_edge17_Node000005_Node000015"><a xlink:title=" ">
<path fill="none" stroke="#63b8ff" d="M720.62,-147.46C738.83,-131.82 768.42,-108.56 797.75,-94.69 801.51,-92.92 805.45,-91.29 809.48,-89.8"/>
<polygon fill="#63b8ff" stroke="#63b8ff" points="810.48,-93.16 818.84,-86.66 808.25,-86.52 810.48,-93.16"/>
</a>
</g>
</g>
<!-- Node7 -->
<g id="Node000007" class="node">
<title>Node7</title>
<g id="a_Node000007"><a xlink:href="class_data_base_g_u_i.html#aa684465aa73b5b34bbadd24fc7f2f641" target="_top" xlink:title="Selects the appropriate sorting to use based on child sort index.">
<polygon fill="white" stroke="#666666" points="1096.75,-53.69 981,-53.69 981,-21.69 1096.75,-21.69 1096.75,-53.69"/>
<text text-anchor="start" x="989" y="-40.19" font-family="Helvetica,sans-Serif" font-size="10.00">DataBaseGUI::sort_to</text>
<text text-anchor="middle" x="1038.88" y="-28.19" font-family="Helvetica,sans-Serif" font-size="10.00">_populate_children_tab</text>
</a>
</g>
</g>
<!-- Node6&#45;&gt;Node7 -->
<g id="edge6_Node000006_Node000007" class="edge">
<title>Node6&#45;&gt;Node7</title>
<g id="a_edge6_Node000006_Node000007"><a xlink:title=" ">
<path fill="none" stroke="#63b8ff" d="M934,-37.69C945.44,-37.69 957.46,-37.69 969.1,-37.69"/>
<polygon fill="#63b8ff" stroke="#63b8ff" points="969.07,-41.19 979.07,-37.69 969.07,-34.19 969.07,-41.19"/>
</a>
</g>
</g>
<!-- Node7&#45;&gt;Node5 -->
<g id="edge7_Node000007_Node000005" class="edge">
<title>Node7&#45;&gt;Node5</title>
<g id="a_edge7_Node000007_Node000005"><a xlink:title=" ">
<path fill="none" stroke="#63b8ff" d="M995.96,-21.27C945.67,-4.38 860.31,15.08 797.75,-18.69 751.34,-43.75 723.9,-102.42 711.2,-136.97"/>
<polygon fill="#63b8ff" stroke="#63b8ff" points="707.95,-135.65 707.95,-146.24 714.56,-137.96 707.95,-135.65"/>
</a>
</g>
</g>
<!-- Node8&#45;&gt;Node7 -->
<g id="edge9_Node000008_Node000007" class="edge">
<title>Node8&#45;&gt;Node7</title>
<g id="a_edge9_Node000008_Node000007"><a xlink:title=" ">
<path fill="none" stroke="#63b8ff" d="M923.66,-245.87C931.39,-242.51 938.83,-238.2 945,-232.69 996.15,-187.02 1021.62,-107.09 1031.99,-65.15"/>
<polygon fill="#63b8ff" stroke="#63b8ff" points="1035.35,-66.16 1034.23,-55.63 1028.54,-64.56 1035.35,-66.16"/>
</a>
</g>
</g>
<!-- Node11&#45;&gt;Node1 -->
<g id="edge15_Node000011_Node000001" class="edge">
<title>Node11&#45;&gt;Node1</title>
<g id="a_edge15_Node000011_Node000001"><a xlink:title=" ">
<path fill="none" stroke="#63b8ff" d="M832.19,-362.09C772.91,-386.02 654.61,-427.69 549.75,-427.69 378.38,-427.69 378.38,-427.69 378.38,-427.69 271.46,-427.69 154.14,-374.36 94.97,-343.35"/>
<polygon fill="#63b8ff" stroke="#63b8ff" points="96.77,-340.34 86.29,-338.74 93.48,-346.52 96.77,-340.34"/>
</a>
</g>
</g>
<!-- Node11&#45;&gt;Node12 -->
<g id="edge13_Node000011_Node000012" class="edge">
<title>Node11&#45;&gt;Node12</title>
<g id="a_edge13_Node000011_Node000012"><a xlink:title=" ">
<path fill="none" stroke="#63b8ff" d="M927.02,-338.76C943.94,-336.61 962.63,-334.24 979.77,-332.07"/>
<polygon fill="#63b8ff" stroke="#63b8ff" points="979.79,-335.59 989.27,-330.86 978.91,-328.65 979.79,-335.59"/>
</a>
</g>
</g>
<!-- Node11&#45;&gt;Node13 -->
<g id="edge14_Node000011_Node000013" class="edge">
<title>Node11&#45;&gt;Node13</title>
<g id="a_edge14_Node000011_Node000013"><a xlink:title=" ">
<path fill="none" stroke="#63b8ff" d="M927.02,-352.3C941.66,-354.07 957.62,-356 972.75,-357.82"/>
<polygon fill="#63b8ff" stroke="#63b8ff" points="972.28,-361.29 982.63,-359.02 973.12,-354.34 972.28,-361.29"/>
</a>
</g>
</g>
<!-- Node19 -->
<g id="Node000019" class="node">
<title>Node19</title>
<g id="a_Node000019"><a xlink:href="class_data_base_g_u_i.html#a625b5e2018395a458ff517bbf364e1bf" target="_top" xlink:title="Selects the appropriate sorting to use based on parent sort index.">
<polygon fill="white" stroke="#666666" points="605.5,-117.69 492,-117.69 492,-85.69 605.5,-85.69 605.5,-117.69"/>
<text text-anchor="start" x="500" y="-104.19" font-family="Helvetica,sans-Serif" font-size="10.00">DataBaseGUI::sort_to</text>
<text text-anchor="middle" x="548.75" y="-92.19" font-family="Helvetica,sans-Serif" font-size="10.00">_populate_parent_tab</text>
</a>
</g>
</g>
<!-- Node18&#45;&gt;Node19 -->
<g id="edge23_Node000018_Node000019" class="edge">
<title>Node18&#45;&gt;Node19</title>
<g id="a_edge23_Node000018_Node000019"><a xlink:title=" ">
<path fill="none" stroke="#63b8ff" d="M445.57,-101.69C456.99,-101.69 468.91,-101.69 480.39,-101.69"/>
<polygon fill="#63b8ff" stroke="#63b8ff" points="480.19,-105.19 490.19,-101.69 480.19,-98.19 480.19,-105.19"/>
</a>
</g>
</g>
<!-- Node19&#45;&gt;Node2 -->
<g id="edge24_Node000019_Node000002" class="edge">
<title>Node19&#45;&gt;Node2</title>
<g id="a_edge24_Node000019_Node000002"><a xlink:title=" ">
<path fill="none" stroke="#63b8ff" d="M529.41,-118.19C517.59,-129.54 502.51,-145.46 492,-161.69 469.7,-196.13 490.2,-224.04 456,-246.69 396.3,-286.24 309.91,-266.68 256.34,-247.93"/>
<polygon fill="#63b8ff" stroke="#63b8ff" points="257.77,-244.72 247.18,-244.6 255.38,-251.3 257.77,-244.72"/>
</a>
</g>
</g>
<!-- Node20&#45;&gt;Node19 -->
<g id="edge26_Node000020_Node000019" class="edge">
<title>Node20&#45;&gt;Node19</title>
<g id="a_edge26_Node000020_Node000019"><a xlink:title=" ">
<path fill="none" stroke="#63b8ff" d="M434.72,-71.98C449.39,-75.84 465.44,-80.06 480.71,-84.07"/>
<polygon fill="#63b8ff" stroke="#63b8ff" points="479.65,-87.41 490.21,-86.57 481.42,-80.64 479.65,-87.41"/>
</a>
</g>
</g>
</g>
</svg>
