<?xml version="1.0" encoding="UTF-8" standalone="no"?>
<!DOCTYPE svg PUBLIC "-//W3C//DTD SVG 1.1//EN"
 "http://www.w3.org/Graphics/SVG/1.1/DTD/svg11.dtd">
<!-- Generated by graphviz version 12.2.1 (20241206.2353)
 -->
<!-- Title: ParentEntry Pages: 1 -->
<svg width="375pt" height="913pt"
 viewBox="0.00 0.00 375.12 913.00" xmlns="http://www.w3.org/2000/svg" xmlns:xlink="http://www.w3.org/1999/xlink">
<g id="graph0" class="graph" transform="scale(1 1) rotate(0) translate(4 909)">
<title>ParentEntry</title>
<!-- Node1 -->
<g id="Node000001" class="node">
<title>Node1</title>
<g id="a_Node000001"><a xlink:title="Represents a GUI widget for a parent entry.">
<polygon fill="#999999" stroke="none" points="156.75,-100 73.5,-100 73.5,0 156.75,0 156.75,-100"/>
<text text-anchor="start" x="89.25" y="-86.5" font-family="Helvetica,sans-Serif" font-size="10.00">ParentEntry</text>
<text text-anchor="start" x="113.62" y="-70.5" font-family="Helvetica,sans-Serif" font-size="10.00"> </text>
<text text-anchor="start" x="77.5" y="-54.5" font-family="Helvetica,sans-Serif" font-size="10.00">+</text>
<text text-anchor="start" x="87.5" y="-54.5" font-family="Helvetica,sans-Serif" font-size="10.00">ParentEntry()</text>
<text text-anchor="start" x="77.5" y="-38.5" font-family="Helvetica,sans-Serif" font-size="10.00">+</text>
<text text-anchor="start" x="87.5" y="-38.5" font-family="Helvetica,sans-Serif" font-size="10.00">~ParentEntry()</text>
<text text-anchor="start" x="79" y="-22.5" font-family="Helvetica,sans-Serif" font-size="10.00">&#45;</text>
<text text-anchor="start" x="87.5" y="-22.5" font-family="Helvetica,sans-Serif" font-size="10.00">setup_parent()</text>
<text text-anchor="start" x="79" y="-6.5" font-family="Helvetica,sans-Serif" font-size="10.00">&#45;</text>
<text text-anchor="start" x="87.5" y="-6.5" font-family="Helvetica,sans-Serif" font-size="10.00">email_clicked()</text>
<polygon fill="#666666" stroke="#666666" points="73.5,-82 73.5,-82 156.75,-82 156.75,-82 73.5,-82"/>
<polygon fill="#666666" stroke="#666666" points="73.5,-66 73.5,-66 156.75,-66 156.75,-66 73.5,-66"/>
<polygon fill="none" stroke="#666666" points="73.5,0 73.5,-100 156.75,-100 156.75,0 73.5,0"/>
</a>
</g>
</g>
<!-- Node2 -->
<g id="Node000002" class="node">
<title>Node2</title>
<g id="a_Node000002"><a xlink:title=" ">
<polygon fill="white" stroke="none" points="46.25,-288 0,-288 0,-236 46.25,-236 46.25,-288"/>
<text text-anchor="start" x="4" y="-274.5" font-family="Helvetica,sans-Serif" font-size="10.00">QWidget</text>
<text text-anchor="start" x="21.62" y="-258.5" font-family="Helvetica,sans-Serif" font-size="10.00"> </text>
<text text-anchor="start" x="21.62" y="-242.5" font-family="Helvetica,sans-Serif" font-size="10.00"> </text>
<polygon fill="#666666" stroke="#666666" points="0,-270 0,-270 46.25,-270 46.25,-270 0,-270"/>
<polygon fill="#666666" stroke="#666666" points="0,-254 0,-254 46.25,-254 46.25,-254 0,-254"/>
<polygon fill="none" stroke="#666666" points="0,-236 0,-288 46.25,-288 46.25,-236 0,-236"/>
</a>
</g>
</g>
<!-- Node2&#45;&gt;Node1 -->
<g id="edge1_Node000001_Node000002" class="edge">
<title>Node2&#45;&gt;Node1</title>
<g id="a_edge1_Node000001_Node000002"><a xlink:title=" ">
<path fill="none" stroke="#63b8ff" d="M30.64,-224.92C36,-202.28 44.21,-172.79 55.12,-148 62.31,-131.69 71.86,-114.86 81.22,-99.89"/>
<polygon fill="none" stroke="#63b8ff" points="27.24,-224.06 28.43,-234.59 34.06,-225.62 27.24,-224.06"/>
</a>
</g>
</g>
<!-- Node3 -->
<g id="Node000003" class="node">
<title>Node3</title>
<g id="a_Node000003"><a xlink:href="class_ui_1_1_parent_entry_class.html" target="_top" xlink:title=" ">
<polygon fill="white" stroke="none" points="165.62,-288 64.62,-288 64.62,-236 165.62,-236 165.62,-288"/>
<text text-anchor="start" x="68.62" y="-274.5" font-family="Helvetica,sans-Serif" font-size="10.00">Ui::ParentEntryClass</text>
<text text-anchor="start" x="113.62" y="-258.5" font-family="Helvetica,sans-Serif" font-size="10.00"> </text>
<text text-anchor="start" x="113.62" y="-242.5" font-family="Helvetica,sans-Serif" font-size="10.00"> </text>
<polygon fill="#666666" stroke="#666666" points="64.62,-270 64.62,-270 165.62,-270 165.62,-270 64.62,-270"/>
<polygon fill="#666666" stroke="#666666" points="64.62,-254 64.62,-254 165.62,-254 165.62,-254 64.62,-254"/>
<polygon fill="none" stroke="#666666" points="64.62,-236 64.62,-288 165.62,-288 165.62,-236 64.62,-236"/>
</a>
</g>
</g>
<!-- Node3&#45;&gt;Node1 -->
<g id="edge2_Node000001_Node000003" class="edge">
<title>Node3&#45;&gt;Node1</title>
<g id="a_edge2_Node000001_Node000003"><a xlink:title=" ">
<path fill="none" stroke="#63b8ff" d="M115.12,-236.09C115.12,-205.89 115.12,-153.94 115.12,-112.75"/>
<polygon fill="none" stroke="#63b8ff" points="115.13,-112.7 111.13,-106.7 115.13,-100.7 119.13,-106.7 115.13,-112.7"/>
</a>
</g>
<text text-anchor="middle" x="121.88" y="-120.5" font-family="Helvetica,sans-Serif" font-size="10.00" fill="grey"> &#45;ui</text>
</g>
<!-- Node4 -->
<g id="Node000004" class="node">
<title>Node4</title>
<g id="a_Node000004"><a xlink:href="class_ui___parent_entry_class.html" target="_top" xlink:title=" ">
<polygon fill="white" stroke="none" points="164.25,-676 64,-676 64,-448 164.25,-448 164.25,-676"/>
<text text-anchor="start" x="68" y="-662.5" font-family="Helvetica,sans-Serif" font-size="10.00">Ui_ParentEntryClass</text>
<text text-anchor="start" x="69.44" y="-646.5" font-family="Helvetica,sans-Serif" font-size="10.00">+</text>
<text text-anchor="start" x="80.88" y="-646.5" font-family="Helvetica,sans-Serif" font-size="10.00">gridLayout</text>
<text text-anchor="start" x="69.44" y="-630.5" font-family="Helvetica,sans-Serif" font-size="10.00">+</text>
<text text-anchor="start" x="80.88" y="-630.5" font-family="Helvetica,sans-Serif" font-size="10.00">frame</text>
<text text-anchor="start" x="69.44" y="-614.5" font-family="Helvetica,sans-Serif" font-size="10.00">+</text>
<text text-anchor="start" x="80.88" y="-614.5" font-family="Helvetica,sans-Serif" font-size="10.00">gridLayout_2</text>
<text text-anchor="start" x="69.44" y="-598.5" font-family="Helvetica,sans-Serif" font-size="10.00">+</text>
<text text-anchor="start" x="80.88" y="-598.5" font-family="Helvetica,sans-Serif" font-size="10.00">edit_button</text>
<text text-anchor="start" x="69.44" y="-582.5" font-family="Helvetica,sans-Serif" font-size="10.00">+</text>
<text text-anchor="start" x="80.88" y="-582.5" font-family="Helvetica,sans-Serif" font-size="10.00">name</text>
<text text-anchor="start" x="69.44" y="-566.5" font-family="Helvetica,sans-Serif" font-size="10.00">+</text>
<text text-anchor="start" x="80.88" y="-566.5" font-family="Helvetica,sans-Serif" font-size="10.00">surname</text>
<text text-anchor="start" x="69.44" y="-550.5" font-family="Helvetica,sans-Serif" font-size="10.00">+</text>
<text text-anchor="start" x="80.88" y="-550.5" font-family="Helvetica,sans-Serif" font-size="10.00">remove_button</text>
<text text-anchor="start" x="69.44" y="-534.5" font-family="Helvetica,sans-Serif" font-size="10.00">+</text>
<text text-anchor="start" x="80.88" y="-534.5" font-family="Helvetica,sans-Serif" font-size="10.00">children</text>
<text text-anchor="start" x="69.44" y="-518.5" font-family="Helvetica,sans-Serif" font-size="10.00">+</text>
<text text-anchor="start" x="80.88" y="-518.5" font-family="Helvetica,sans-Serif" font-size="10.00">children_contents</text>
<text text-anchor="start" x="69.44" y="-502.5" font-family="Helvetica,sans-Serif" font-size="10.00">+</text>
<text text-anchor="start" x="80.88" y="-502.5" font-family="Helvetica,sans-Serif" font-size="10.00">verticalLayout</text>
<text text-anchor="start" x="69.44" y="-486.5" font-family="Helvetica,sans-Serif" font-size="10.00">+</text>
<text text-anchor="start" x="80.88" y="-486.5" font-family="Helvetica,sans-Serif" font-size="10.00">gender</text>
<text text-anchor="start" x="69.44" y="-470.5" font-family="Helvetica,sans-Serif" font-size="10.00">+</text>
<text text-anchor="start" x="80.88" y="-470.5" font-family="Helvetica,sans-Serif" font-size="10.00">setupUi()</text>
<text text-anchor="start" x="69.44" y="-454.5" font-family="Helvetica,sans-Serif" font-size="10.00">+</text>
<text text-anchor="start" x="80.88" y="-454.5" font-family="Helvetica,sans-Serif" font-size="10.00">retranslateUi()</text>
<polygon fill="#666666" stroke="#666666" points="64,-658 64,-658 164.25,-658 164.25,-658 64,-658"/>
<polygon fill="#666666" stroke="#666666" points="64,-482 64,-482 78.88,-482 78.88,-482 64,-482"/>
<polygon fill="#666666" stroke="#666666" points="78.88,-482 78.88,-482 164.25,-482 164.25,-482 78.88,-482"/>
<polygon fill="none" stroke="#666666" points="64,-448 64,-676 164.25,-676 164.25,-448 64,-448"/>
</a>
</g>
</g>
<!-- Node4&#45;&gt;Node3 -->
<g id="edge3_Node000003_Node000004" class="edge">
<title>Node4&#45;&gt;Node3</title>
<g id="a_edge3_Node000003_Node000004"><a xlink:title=" ">
<path fill="none" stroke="#63b8ff" d="M114.54,-436.9C114.73,-381.2 114.93,-320.71 115.04,-287.79"/>
<polygon fill="none" stroke="#63b8ff" points="111.04,-436.81 114.51,-446.83 118.04,-436.84 111.04,-436.81"/>
</a>
</g>
</g>
<!-- Node5 -->
<g id="Node000005" class="node">
<title>Node5</title>
<g id="a_Node000005"><a xlink:href="class_clickable_label.html" target="_top" xlink:title="A QLabel subclass that emits a clicked signal when the label is clicked.">
<polygon fill="white" stroke="none" points="171.5,-816 56.75,-816 56.75,-748 171.5,-748 171.5,-816"/>
<text text-anchor="start" x="82.25" y="-802.5" font-family="Helvetica,sans-Serif" font-size="10.00">ClickableLabel</text>
<text text-anchor="start" x="112.62" y="-786.5" font-family="Helvetica,sans-Serif" font-size="10.00"> </text>
<text text-anchor="start" x="60.75" y="-770.5" font-family="Helvetica,sans-Serif" font-size="10.00">+</text>
<text text-anchor="start" x="70.75" y="-770.5" font-family="Helvetica,sans-Serif" font-size="10.00">ClickableLabel()</text>
<text text-anchor="start" x="61.12" y="-754.5" font-family="Helvetica,sans-Serif" font-size="10.00">#</text>
<text text-anchor="start" x="70.75" y="-754.5" font-family="Helvetica,sans-Serif" font-size="10.00">mouseReleaseEvent()</text>
<polygon fill="#666666" stroke="#666666" points="56.75,-798 56.75,-798 171.5,-798 171.5,-798 56.75,-798"/>
<polygon fill="#666666" stroke="#666666" points="56.75,-782 56.75,-782 171.5,-782 171.5,-782 56.75,-782"/>
<polygon fill="none" stroke="#666666" points="56.75,-748 56.75,-816 171.5,-816 171.5,-748 56.75,-748"/>
</a>
</g>
</g>
<!-- Node5&#45;&gt;Node4 -->
<g id="edge4_Node000004_Node000005" class="edge">
<title>Node5&#45;&gt;Node4</title>
<g id="a_edge4_Node000004_Node000005"><a xlink:title=" ">
<path fill="none" stroke="#63b8ff" d="M114.12,-748.36C114.12,-731.8 114.12,-710.52 114.12,-688.31"/>
<polygon fill="none" stroke="#63b8ff" points="114.13,-688.43 110.13,-682.43 114.13,-676.43 118.13,-682.43 114.13,-688.43"/>
</a>
</g>
<text text-anchor="middle" x="130.25" y="-720.5" font-family="Helvetica,sans-Serif" font-size="10.00" fill="grey"> +email</text>
</g>
<!-- Node6 -->
<g id="Node000006" class="node">
<title>Node6</title>
<g id="a_Node000006"><a xlink:title=" ">
<polygon fill="white" stroke="none" points="133.5,-905 94.75,-905 94.75,-853 133.5,-853 133.5,-905"/>
<text text-anchor="start" x="98.75" y="-891.5" font-family="Helvetica,sans-Serif" font-size="10.00">QLabel</text>
<text text-anchor="start" x="112.62" y="-875.5" font-family="Helvetica,sans-Serif" font-size="10.00"> </text>
<text text-anchor="start" x="112.62" y="-859.5" font-family="Helvetica,sans-Serif" font-size="10.00"> </text>
<polygon fill="#666666" stroke="#666666" points="94.75,-887 94.75,-887 133.5,-887 133.5,-887 94.75,-887"/>
<polygon fill="#666666" stroke="#666666" points="94.75,-871 94.75,-871 133.5,-871 133.5,-871 94.75,-871"/>
<polygon fill="none" stroke="#666666" points="94.75,-853 94.75,-905 133.5,-905 133.5,-853 94.75,-853"/>
</a>
</g>
</g>
<!-- Node6&#45;&gt;Node5 -->
<g id="edge5_Node000005_Node000006" class="edge">
<title>Node6&#45;&gt;Node5</title>
<g id="a_edge5_Node000005_Node000006"><a xlink:title=" ">
<path fill="none" stroke="#63b8ff" d="M114.12,-841.77C114.12,-833.18 114.12,-824.08 114.12,-815.66"/>
<polygon fill="none" stroke="#63b8ff" points="110.63,-841.53 114.13,-851.53 117.63,-841.53 110.63,-841.53"/>
</a>
</g>
</g>
<!-- Node7 -->
<g id="Node000007" class="node">
<title>Node7</title>
<g id="a_Node000007"><a xlink:href="class_parent.html" target="_top" xlink:title="Represents a parent.">
<polygon fill="white" stroke="none" points="260,-376 184.25,-376 184.25,-148 260,-148 260,-376"/>
<text text-anchor="start" x="207.88" y="-362.5" font-family="Helvetica,sans-Serif" font-size="10.00">Parent</text>
<text text-anchor="start" x="188.62" y="-346.5" font-family="Helvetica,sans-Serif" font-size="10.00">#</text>
<text text-anchor="start" x="198.25" y="-346.5" font-family="Helvetica,sans-Serif" font-size="10.00">is_mother_</text>
<text text-anchor="start" x="188.62" y="-330.5" font-family="Helvetica,sans-Serif" font-size="10.00">#</text>
<text text-anchor="start" x="198.25" y="-330.5" font-family="Helvetica,sans-Serif" font-size="10.00">children_</text>
<text text-anchor="start" x="188.25" y="-314.5" font-family="Helvetica,sans-Serif" font-size="10.00">+</text>
<text text-anchor="start" x="198.25" y="-314.5" font-family="Helvetica,sans-Serif" font-size="10.00">Parent()</text>
<text text-anchor="start" x="188.25" y="-298.5" font-family="Helvetica,sans-Serif" font-size="10.00">+</text>
<text text-anchor="start" x="198.25" y="-298.5" font-family="Helvetica,sans-Serif" font-size="10.00">Parent()</text>
<text text-anchor="start" x="188.25" y="-282.5" font-family="Helvetica,sans-Serif" font-size="10.00">+</text>
<text text-anchor="start" x="198.25" y="-282.5" font-family="Helvetica,sans-Serif" font-size="10.00">Parent()</text>
<text text-anchor="start" x="188.25" y="-266.5" font-family="Helvetica,sans-Serif" font-size="10.00">+</text>
<text text-anchor="start" x="198.25" y="-266.5" font-family="Helvetica,sans-Serif" font-size="10.00">Parent()</text>
<text text-anchor="start" x="188.25" y="-250.5" font-family="Helvetica,sans-Serif" font-size="10.00">+</text>
<text text-anchor="start" x="198.25" y="-250.5" font-family="Helvetica,sans-Serif" font-size="10.00">Parent()</text>
<text text-anchor="start" x="188.25" y="-234.5" font-family="Helvetica,sans-Serif" font-size="10.00">+</text>
<text text-anchor="start" x="198.25" y="-234.5" font-family="Helvetica,sans-Serif" font-size="10.00">operator=()</text>
<text text-anchor="start" x="188.25" y="-218.5" font-family="Helvetica,sans-Serif" font-size="10.00">+</text>
<text text-anchor="start" x="198.25" y="-218.5" font-family="Helvetica,sans-Serif" font-size="10.00">operator=()</text>
<text text-anchor="start" x="188.25" y="-202.5" font-family="Helvetica,sans-Serif" font-size="10.00">+</text>
<text text-anchor="start" x="198.25" y="-202.5" font-family="Helvetica,sans-Serif" font-size="10.00">operator==()</text>
<text text-anchor="start" x="188.25" y="-186.5" font-family="Helvetica,sans-Serif" font-size="10.00">+</text>
<text text-anchor="start" x="198.25" y="-186.5" font-family="Helvetica,sans-Serif" font-size="10.00">operator!=()</text>
<text text-anchor="start" x="188.25" y="-170.5" font-family="Helvetica,sans-Serif" font-size="10.00">+</text>
<text text-anchor="start" x="198.25" y="-170.5" font-family="Helvetica,sans-Serif" font-size="10.00">get_email()</text>
<text text-anchor="start" x="198.25" y="-154.5" font-family="Helvetica,sans-Serif" font-size="10.00">and 9 more...</text>
<polygon fill="#666666" stroke="#666666" points="184.25,-358 184.25,-358 260,-358 260,-358 184.25,-358"/>
<polygon fill="#666666" stroke="#666666" points="184.25,-326 184.25,-326 196.25,-326 196.25,-326 184.25,-326"/>
<polygon fill="#666666" stroke="#666666" points="196.25,-326 196.25,-326 260,-326 260,-326 196.25,-326"/>
<polygon fill="none" stroke="#666666" points="184.25,-148 184.25,-376 260,-376 260,-148 184.25,-148"/>
</a>
</g>
</g>
<!-- Node7&#45;&gt;Node1 -->
<g id="edge6_Node000001_Node000007" class="edge">
<title>Node7&#45;&gt;Node1</title>
<g id="a_edge6_Node000001_Node000007"><a xlink:title=" ">
<path fill="none" stroke="#63b8ff" d="M184.33,-168.9C181,-161.77 177.58,-154.73 174.12,-148 167.79,-135.65 160.47,-122.75 153.19,-110.54"/>
<polygon fill="none" stroke="#63b8ff" points="153.23,-110.6 146.7,-107.53 147.02,-100.33 153.54,-103.39 153.23,-110.6"/>
</a>
</g>
<text text-anchor="middle" x="205.45" y="-120.5" font-family="Helvetica,sans-Serif" font-size="10.00" fill="grey"> &#45;database_parent_</text>
</g>
<!-- Node8 -->
<g id="Node000008" class="node">
<title>Node8</title>
<g id="a_Node000008"><a xlink:href="class_person.html" target="_top" xlink:title="Represents a generic person.">
<polygon fill="white" stroke="none" points="262.25,-700 182,-700 182,-424 262.25,-424 262.25,-700"/>
<text text-anchor="start" x="206.75" y="-686.5" font-family="Helvetica,sans-Serif" font-size="10.00">Person</text>
<text text-anchor="start" x="186.38" y="-670.5" font-family="Helvetica,sans-Serif" font-size="10.00">#</text>
<text text-anchor="start" x="196" y="-670.5" font-family="Helvetica,sans-Serif" font-size="10.00">name_</text>
<text text-anchor="start" x="186.38" y="-654.5" font-family="Helvetica,sans-Serif" font-size="10.00">#</text>
<text text-anchor="start" x="196" y="-654.5" font-family="Helvetica,sans-Serif" font-size="10.00">surname_</text>
<text text-anchor="start" x="186" y="-638.5" font-family="Helvetica,sans-Serif" font-size="10.00">+</text>
<text text-anchor="start" x="196" y="-638.5" font-family="Helvetica,sans-Serif" font-size="10.00">Person()</text>
<text text-anchor="start" x="186" y="-622.5" font-family="Helvetica,sans-Serif" font-size="10.00">+</text>
<text text-anchor="start" x="196" y="-622.5" font-family="Helvetica,sans-Serif" font-size="10.00">Person()</text>
<text text-anchor="start" x="186" y="-606.5" font-family="Helvetica,sans-Serif" font-size="10.00">+</text>
<text text-anchor="start" x="196" y="-606.5" font-family="Helvetica,sans-Serif" font-size="10.00">Person()</text>
<text text-anchor="start" x="186" y="-590.5" font-family="Helvetica,sans-Serif" font-size="10.00">+</text>
<text text-anchor="start" x="196" y="-590.5" font-family="Helvetica,sans-Serif" font-size="10.00">Person()</text>
<text text-anchor="start" x="186" y="-574.5" font-family="Helvetica,sans-Serif" font-size="10.00">+</text>
<text text-anchor="start" x="196" y="-574.5" font-family="Helvetica,sans-Serif" font-size="10.00">Person()</text>
<text text-anchor="start" x="186" y="-558.5" font-family="Helvetica,sans-Serif" font-size="10.00">+</text>
<text text-anchor="start" x="196" y="-558.5" font-family="Helvetica,sans-Serif" font-size="10.00">operator=()</text>
<text text-anchor="start" x="186" y="-542.5" font-family="Helvetica,sans-Serif" font-size="10.00">+</text>
<text text-anchor="start" x="196" y="-542.5" font-family="Helvetica,sans-Serif" font-size="10.00">operator=()</text>
<text text-anchor="start" x="186" y="-526.5" font-family="Helvetica,sans-Serif" font-size="10.00">+</text>
<text text-anchor="start" x="196" y="-526.5" font-family="Helvetica,sans-Serif" font-size="10.00">operator==()</text>
<text text-anchor="start" x="186" y="-510.5" font-family="Helvetica,sans-Serif" font-size="10.00">+</text>
<text text-anchor="start" x="196" y="-510.5" font-family="Helvetica,sans-Serif" font-size="10.00">operator!=()</text>
<text text-anchor="start" x="186" y="-494.5" font-family="Helvetica,sans-Serif" font-size="10.00">+</text>
<text text-anchor="start" x="196" y="-494.5" font-family="Helvetica,sans-Serif" font-size="10.00">get_name()</text>
<text text-anchor="start" x="186" y="-478.5" font-family="Helvetica,sans-Serif" font-size="10.00">+</text>
<text text-anchor="start" x="196" y="-478.5" font-family="Helvetica,sans-Serif" font-size="10.00">set_name()</text>
<text text-anchor="start" x="186" y="-462.5" font-family="Helvetica,sans-Serif" font-size="10.00">+</text>
<text text-anchor="start" x="196" y="-462.5" font-family="Helvetica,sans-Serif" font-size="10.00">get_surname()</text>
<text text-anchor="start" x="186" y="-446.5" font-family="Helvetica,sans-Serif" font-size="10.00">+</text>
<text text-anchor="start" x="196" y="-446.5" font-family="Helvetica,sans-Serif" font-size="10.00">set_surname()</text>
<text text-anchor="start" x="186" y="-430.5" font-family="Helvetica,sans-Serif" font-size="10.00">+</text>
<text text-anchor="start" x="196" y="-430.5" font-family="Helvetica,sans-Serif" font-size="10.00">~Person()</text>
<polygon fill="#666666" stroke="#666666" points="182,-682 182,-682 262.25,-682 262.25,-682 182,-682"/>
<polygon fill="#666666" stroke="#666666" points="182,-650 182,-650 194,-650 194,-650 182,-650"/>
<polygon fill="#666666" stroke="#666666" points="194,-650 194,-650 262.25,-650 262.25,-650 194,-650"/>
<polygon fill="none" stroke="#666666" points="182,-424 182,-700 262.25,-700 262.25,-424 182,-424"/>
</a>
</g>
</g>
<!-- Node8&#45;&gt;Node7 -->
<g id="edge7_Node000007_Node000008" class="edge">
<title>Node8&#45;&gt;Node7</title>
<g id="a_edge7_Node000007_Node000008"><a xlink:title=" ">
<path fill="none" stroke="#63b8ff" d="M222.12,-412.78C222.12,-400.33 222.12,-387.87 222.12,-375.75"/>
<polygon fill="none" stroke="#63b8ff" points="218.63,-412.7 222.13,-422.7 225.63,-412.7 218.63,-412.7"/>
</a>
</g>
</g>
<!-- Node9 -->
<g id="Node000009" class="node">
<title>Node9</title>
<g id="a_Node000009"><a xlink:href="class_email.html" target="_top" xlink:title="Represents an email address.">
<polygon fill="white" stroke="none" points="351.75,-676 280.5,-676 280.5,-448 351.75,-448 351.75,-676"/>
<text text-anchor="start" x="303.75" y="-662.5" font-family="Helvetica,sans-Serif" font-size="10.00">Email</text>
<text text-anchor="start" x="286" y="-646.5" font-family="Helvetica,sans-Serif" font-size="10.00">&#45;</text>
<text text-anchor="start" x="294.5" y="-646.5" font-family="Helvetica,sans-Serif" font-size="10.00">email_</text>
<text text-anchor="start" x="284.5" y="-630.5" font-family="Helvetica,sans-Serif" font-size="10.00">+</text>
<text text-anchor="start" x="294.5" y="-630.5" font-family="Helvetica,sans-Serif" font-size="10.00">Email()</text>
<text text-anchor="start" x="284.5" y="-614.5" font-family="Helvetica,sans-Serif" font-size="10.00">+</text>
<text text-anchor="start" x="294.5" y="-614.5" font-family="Helvetica,sans-Serif" font-size="10.00">Email()</text>
<text text-anchor="start" x="284.5" y="-598.5" font-family="Helvetica,sans-Serif" font-size="10.00">+</text>
<text text-anchor="start" x="294.5" y="-598.5" font-family="Helvetica,sans-Serif" font-size="10.00">Email()</text>
<text text-anchor="start" x="284.5" y="-582.5" font-family="Helvetica,sans-Serif" font-size="10.00">+</text>
<text text-anchor="start" x="294.5" y="-582.5" font-family="Helvetica,sans-Serif" font-size="10.00">Email()</text>
<text text-anchor="start" x="284.5" y="-566.5" font-family="Helvetica,sans-Serif" font-size="10.00">+</text>
<text text-anchor="start" x="294.5" y="-566.5" font-family="Helvetica,sans-Serif" font-size="10.00">Email()</text>
<text text-anchor="start" x="284.5" y="-550.5" font-family="Helvetica,sans-Serif" font-size="10.00">+</text>
<text text-anchor="start" x="294.5" y="-550.5" font-family="Helvetica,sans-Serif" font-size="10.00">operator=()</text>
<text text-anchor="start" x="284.5" y="-534.5" font-family="Helvetica,sans-Serif" font-size="10.00">+</text>
<text text-anchor="start" x="294.5" y="-534.5" font-family="Helvetica,sans-Serif" font-size="10.00">operator=()</text>
<text text-anchor="start" x="284.5" y="-518.5" font-family="Helvetica,sans-Serif" font-size="10.00">+</text>
<text text-anchor="start" x="294.5" y="-518.5" font-family="Helvetica,sans-Serif" font-size="10.00">operator==()</text>
<text text-anchor="start" x="284.5" y="-502.5" font-family="Helvetica,sans-Serif" font-size="10.00">+</text>
<text text-anchor="start" x="294.5" y="-502.5" font-family="Helvetica,sans-Serif" font-size="10.00">get_email()</text>
<text text-anchor="start" x="284.5" y="-486.5" font-family="Helvetica,sans-Serif" font-size="10.00">+</text>
<text text-anchor="start" x="294.5" y="-486.5" font-family="Helvetica,sans-Serif" font-size="10.00">set_email()</text>
<text text-anchor="start" x="284.5" y="-470.5" font-family="Helvetica,sans-Serif" font-size="10.00">+</text>
<text text-anchor="start" x="294.5" y="-470.5" font-family="Helvetica,sans-Serif" font-size="10.00">copy()</text>
<text text-anchor="start" x="284.5" y="-454.5" font-family="Helvetica,sans-Serif" font-size="10.00">+</text>
<text text-anchor="start" x="294.5" y="-454.5" font-family="Helvetica,sans-Serif" font-size="10.00">~Email()</text>
<polygon fill="#666666" stroke="#666666" points="280.5,-658 280.5,-658 351.75,-658 351.75,-658 280.5,-658"/>
<polygon fill="#666666" stroke="#666666" points="280.5,-642 280.5,-642 292.5,-642 292.5,-642 280.5,-642"/>
<polygon fill="#666666" stroke="#666666" points="292.5,-642 292.5,-642 351.75,-642 351.75,-642 292.5,-642"/>
<polygon fill="none" stroke="#666666" points="280.5,-448 280.5,-676 351.75,-676 351.75,-448 280.5,-448"/>
</a>
</g>
</g>
<!-- Node9&#45;&gt;Node7 -->
<g id="edge8_Node000007_Node000009" class="edge">
<title>Node9&#45;&gt;Node7</title>
<g id="a_edge8_Node000007_Node000009"><a xlink:title=" ">
<path fill="none" stroke="#63b8ff" d="M280.59,-448.34C274.39,-428.68 267.9,-408.13 261.61,-388.16"/>
<polygon fill="none" stroke="#63b8ff" points="261.59,-388.12 255.97,-383.61 257.98,-376.68 263.6,-381.2 261.59,-388.12"/>
</a>
</g>
<text text-anchor="middle" x="284.68" y="-396.5" font-family="Helvetica,sans-Serif" font-size="10.00" fill="grey"> #email_</text>
</g>
<!-- Node10 -->
<g id="Node000010" class="node">
<title>Node10</title>
<g id="a_Node000010"><a xlink:href="class_contacts.html" target="_top" xlink:title="Base class for contact&#45;related utilities.">
<polygon fill="white" stroke="none" points="367.12,-808 265.12,-808 265.12,-756 367.12,-756 367.12,-808"/>
<text text-anchor="start" x="296.25" y="-794.5" font-family="Helvetica,sans-Serif" font-size="10.00">Contacts</text>
<text text-anchor="start" x="314.62" y="-778.5" font-family="Helvetica,sans-Serif" font-size="10.00"> </text>
<text text-anchor="start" x="269.12" y="-762.5" font-family="Helvetica,sans-Serif" font-size="10.00">#</text>
<text text-anchor="start" x="278.38" y="-762.5" font-family="Helvetica,sans-Serif" font-size="10.00">copy_to_clipboard()</text>
<polygon fill="#666666" stroke="#666666" points="265.12,-790 265.12,-790 367.12,-790 367.12,-790 265.12,-790"/>
<polygon fill="#666666" stroke="#666666" points="265.12,-774 265.12,-774 367.12,-774 367.12,-774 265.12,-774"/>
<polygon fill="none" stroke="#666666" points="265.12,-756 265.12,-808 367.12,-808 367.12,-756 265.12,-756"/>
</a>
</g>
</g>
<!-- Node10&#45;&gt;Node9 -->
<g id="edge9_Node000009_Node000010" class="edge">
<title>Node10&#45;&gt;Node9</title>
<g id="a_edge9_Node000009_Node000010"><a xlink:title=" ">
<path fill="none" stroke="#63b8ff" d="M316.12,-744.95C316.12,-725.77 316.12,-701.01 316.12,-675.97"/>
<polygon fill="none" stroke="#63b8ff" points="312.63,-744.9 316.13,-754.9 319.63,-744.9 312.63,-744.9"/>
</a>
</g>
</g>
</g>
</svg>
