<?xml version="1.0" encoding="UTF-8" standalone="no"?>
<!DOCTYPE svg PUBLIC "-//W3C//DTD SVG 1.1//EN"
 "http://www.w3.org/Graphics/SVG/1.1/DTD/svg11.dtd">
<!-- Generated by graphviz version 12.2.1 (20241206.2353)
 -->
<!-- Title: DataBaseGUI::populate_lesson_tab Pages: 1 -->
<svg width="1668pt" height="648pt"
 viewBox="0.00 0.00 1668.00 648.00" xmlns="http://www.w3.org/2000/svg" xmlns:xlink="http://www.w3.org/1999/xlink">
<g id="graph0" class="graph" transform="scale(1 1) rotate(0) translate(4 644)">
<title>DataBaseGUI::populate_lesson_tab</title>
<!-- Node1 -->
<g id="Node000001" class="node">
<title>Node1</title>
<g id="a_Node000001"><a xlink:title="Populates the lessons tab with a list of lessons.">
<polygon fill="#999999" stroke="#666666" points="120.25,-155 0,-155 0,-123 120.25,-123 120.25,-155"/>
<text text-anchor="start" x="8" y="-141.5" font-family="Helvetica,sans-Serif" font-size="10.00">DataBaseGUI::populate</text>
<text text-anchor="middle" x="60.12" y="-129.5" font-family="Helvetica,sans-Serif" font-size="10.00">_lesson_tab</text>
</a>
</g>
</g>
<!-- Node2 -->
<g id="Node000002" class="node">
<title>Node2</title>
<g id="a_Node000002"><a xlink:href="class_data_base_g_u_i.html#a66a3e89a9852de3522d98f2c1f8cdeed" target="_top" xlink:title="Removes a lesson from the database.">
<polygon fill="white" stroke="#666666" points="290.38,-277 178.38,-277 178.38,-245 290.38,-245 290.38,-277"/>
<text text-anchor="start" x="186.38" y="-263.5" font-family="Helvetica,sans-Serif" font-size="10.00">DataBaseGUI::lesson</text>
<text text-anchor="middle" x="234.38" y="-251.5" font-family="Helvetica,sans-Serif" font-size="10.00">_remove</text>
</a>
</g>
</g>
<!-- Node1&#45;&gt;Node2 -->
<g id="edge1_Node000001_Node000002" class="edge">
<title>Node1&#45;&gt;Node2</title>
<g id="a_edge1_Node000001_Node000002"><a xlink:title=" ">
<path fill="none" stroke="#63b8ff" d="M74.38,-155.33C91.47,-175.48 122.98,-209.68 156.25,-231 161.32,-234.25 166.79,-237.23 172.4,-239.96"/>
<polygon fill="#63b8ff" stroke="#63b8ff" points="170.66,-243.01 181.21,-243.96 173.55,-236.64 170.66,-243.01"/>
</a>
</g>
</g>
<!-- Node4 -->
<g id="Node000004" class="node">
<title>Node4</title>
<g id="a_Node000004"><a xlink:href="class_data_base_g_u_i.html#a2cb0d5bb3e2e1795dd1e9fd61d51544c" target="_top" xlink:title="Clears the lessons tab.">
<polygon fill="white" stroke="#666666" points="290.38,-133 178.38,-133 178.38,-101 290.38,-101 290.38,-133"/>
<text text-anchor="start" x="186.38" y="-119.5" font-family="Helvetica,sans-Serif" font-size="10.00">DataBaseGUI::lesson</text>
<text text-anchor="middle" x="234.38" y="-107.5" font-family="Helvetica,sans-Serif" font-size="10.00">_tab_clear</text>
</a>
</g>
</g>
<!-- Node1&#45;&gt;Node4 -->
<g id="edge4_Node000001_Node000004" class="edge">
<title>Node1&#45;&gt;Node4</title>
<g id="a_edge4_Node000001_Node000004"><a xlink:title=" ">
<path fill="none" stroke="#63b8ff" d="M120.4,-131.43C135.44,-129.51 151.69,-127.43 167.05,-125.47"/>
<polygon fill="#63b8ff" stroke="#63b8ff" points="167.07,-129 176.54,-124.26 166.18,-122.05 167.07,-129"/>
</a>
</g>
</g>
<!-- Node5 -->
<g id="Node000005" class="node">
<title>Node5</title>
<g id="a_Node000005"><a xlink:href="class_data_base_g_u_i.html#aadcf1044a300a89dadd104cfadb9a1b1" target="_top" xlink:title="Views a lesson in the GUI.">
<polygon fill="white" stroke="#666666" points="303.12,-171 165.62,-171 165.62,-151 303.12,-151 303.12,-171"/>
<text text-anchor="middle" x="234.38" y="-157.5" font-family="Helvetica,sans-Serif" font-size="10.00">DataBaseGUI::lesson_view</text>
</a>
</g>
</g>
<!-- Node1&#45;&gt;Node5 -->
<g id="edge5_Node000001_Node000005" class="edge">
<title>Node1&#45;&gt;Node5</title>
<g id="a_edge5_Node000001_Node000005"><a xlink:title=" ">
<path fill="none" stroke="#63b8ff" d="M120.4,-146.57C131.28,-147.96 142.79,-149.43 154.14,-150.88"/>
<polygon fill="#63b8ff" stroke="#63b8ff" points="153.54,-154.33 163.9,-152.13 154.43,-147.39 153.54,-154.33"/>
</a>
</g>
</g>
<!-- Node40 -->
<g id="Node000040" class="node">
<title>Node40</title>
<g id="a_Node000040"><a xlink:href="class_lesson_entry.html#ac407f16eaac263953c0c07079cac4064" target="_top" xlink:title="Signal emitted when a lesson removal is requested.">
<polygon fill="white" stroke="#666666" points="312.5,-83 156.25,-83 156.25,-63 312.5,-63 312.5,-83"/>
<text text-anchor="middle" x="234.38" y="-69.5" font-family="Helvetica,sans-Serif" font-size="10.00">LessonEntry::removeRequested</text>
</a>
</g>
</g>
<!-- Node1&#45;&gt;Node40 -->
<g id="edge53_Node000001_Node000040" class="edge">
<title>Node1&#45;&gt;Node40</title>
<g id="a_edge53_Node000001_Node000040"><a xlink:title=" ">
<path fill="none" stroke="#63b8ff" d="M89.96,-122.7C108.46,-112.76 133.24,-100.41 156.25,-92 161.62,-90.04 167.27,-88.22 172.97,-86.54"/>
<polygon fill="#63b8ff" stroke="#63b8ff" points="173.78,-89.94 182.48,-83.89 171.9,-83.2 173.78,-89.94"/>
</a>
</g>
</g>
<!-- Node41 -->
<g id="Node000041" class="node">
<title>Node41</title>
<g id="a_Node000041"><a xlink:href="class_lesson_entry.html#aa248a8baf6fda97f43b21a90d31e2642" target="_top" xlink:title="Signal emitted when a lesson view is requested.">
<polygon fill="white" stroke="#666666" points="306.5,-45 162.25,-45 162.25,-25 306.5,-25 306.5,-45"/>
<text text-anchor="middle" x="234.38" y="-31.5" font-family="Helvetica,sans-Serif" font-size="10.00">LessonEntry::viewRequested</text>
</a>
</g>
</g>
<!-- Node1&#45;&gt;Node41 -->
<g id="edge54_Node000001_Node000041" class="edge">
<title>Node1&#45;&gt;Node41</title>
<g id="a_edge54_Node000001_Node000041"><a xlink:title=" ">
<path fill="none" stroke="#63b8ff" d="M74.84,-122.61C91.93,-103.29 122.95,-71.57 156.25,-54 159.48,-52.3 162.87,-50.74 166.35,-49.32"/>
<polygon fill="#63b8ff" stroke="#63b8ff" points="167.36,-52.68 175.57,-45.98 164.98,-46.1 167.36,-52.68"/>
</a>
</g>
</g>
<!-- Node3 -->
<g id="Node000003" class="node">
<title>Node3</title>
<g id="a_Node000003"><a xlink:href="class_data_base_g_u_i.html#a1ad152b7becf3e0051cdd5dbae6d4abc" target="_top" xlink:title="Selects the appropriate sorting to use based on lesson sort index.">
<polygon fill="white" stroke="#666666" points="480.38,-271 366.88,-271 366.88,-239 480.38,-239 480.38,-271"/>
<text text-anchor="start" x="374.88" y="-257.5" font-family="Helvetica,sans-Serif" font-size="10.00">DataBaseGUI::sort_to</text>
<text text-anchor="middle" x="423.62" y="-245.5" font-family="Helvetica,sans-Serif" font-size="10.00">_populate_lesson_tab</text>
</a>
</g>
</g>
<!-- Node2&#45;&gt;Node3 -->
<g id="edge2_Node000002_Node000003" class="edge">
<title>Node2&#45;&gt;Node3</title>
<g id="a_edge2_Node000002_Node000003"><a xlink:title=" ">
<path fill="none" stroke="#63b8ff" d="M290.8,-259.22C311.09,-258.57 334.27,-257.83 355.48,-257.15"/>
<polygon fill="#63b8ff" stroke="#63b8ff" points="355.3,-260.66 365.19,-256.84 355.08,-253.66 355.3,-260.66"/>
</a>
</g>
</g>
<!-- Node3&#45;&gt;Node1 -->
<g id="edge3_Node000003_Node000001" class="edge">
<title>Node3&#45;&gt;Node1</title>
<g id="a_edge3_Node000003_Node000001"><a xlink:title=" ">
<path fill="none" stroke="#63b8ff" d="M366.43,-245.32C300.01,-233.47 193.76,-213.11 156.25,-198 133.44,-188.81 109.93,-174.29 91.99,-161.95"/>
<polygon fill="#63b8ff" stroke="#63b8ff" points="94.07,-159.13 83.88,-156.24 90.04,-164.85 94.07,-159.13"/>
</a>
</g>
</g>
<!-- Node5&#45;&gt;Node3 -->
<g id="edge52_Node000005_Node000003" class="edge">
<title>Node5&#45;&gt;Node3</title>
<g id="a_edge52_Node000005_Node000003"><a xlink:title=" ">
<path fill="none" stroke="#63b8ff" d="M256.47,-171.44C272.24,-179.49 294.16,-191.21 312.5,-203 329.33,-213.81 330.8,-220.69 348.5,-230 351.32,-231.48 354.24,-232.9 357.22,-234.26"/>
<polygon fill="#63b8ff" stroke="#63b8ff" points="355.58,-237.37 366.16,-238.04 358.31,-230.92 355.58,-237.37"/>
</a>
</g>
</g>
<!-- Node5&#45;&gt;Node5 -->
<g id="edge50_Node000005_Node000005" class="edge">
<title>Node5&#45;&gt;Node5</title>
<g id="a_edge50_Node000005_Node000005"><a xlink:title=" ">
<path fill="none" stroke="#63b8ff" d="M206.69,-171.34C194.86,-179.98 204.09,-189 234.38,-189 251.41,-189 261.79,-186.14 265.5,-182.11"/>
<polygon fill="#63b8ff" stroke="#63b8ff" points="268.9,-181.24 262.52,-172.78 262.23,-183.37 268.9,-181.24"/>
</a>
</g>
</g>
<!-- Node6 -->
<g id="Node000006" class="node">
<title>Node6</title>
<g id="a_Node000006"><a xlink:href="class_data_base_g_u_i.html#aadb0e7d323a970603312695c0dd9b264" target="_top" xlink:title="Searches for children based on the provided child pointer.">
<polygon fill="white" stroke="#666666" points="475.5,-183 371.75,-183 371.75,-151 475.5,-151 475.5,-183"/>
<text text-anchor="start" x="379.75" y="-169.5" font-family="Helvetica,sans-Serif" font-size="10.00">DataBaseGUI::child</text>
<text text-anchor="middle" x="423.62" y="-157.5" font-family="Helvetica,sans-Serif" font-size="10.00">_search_by_pointer</text>
</a>
</g>
</g>
<!-- Node5&#45;&gt;Node6 -->
<g id="edge6_Node000005_Node000006" class="edge">
<title>Node5&#45;&gt;Node6</title>
<g id="a_edge6_Node000005_Node000006"><a xlink:title=" ">
<path fill="none" stroke="#63b8ff" d="M303.51,-163.18C321.95,-163.77 341.82,-164.41 359.95,-164.99"/>
<polygon fill="#63b8ff" stroke="#63b8ff" points="359.66,-168.48 369.77,-165.31 359.89,-161.49 359.66,-168.48"/>
</a>
</g>
</g>
<!-- Node28 -->
<g id="Node000028" class="node">
<title>Node28</title>
<g id="a_Node000028"><a xlink:href="class_lesson_view.html#aa227f774e8716f77d11ee4485f14b94b" target="_top" xlink:title="Signal emitted when a child is clicked.">
<polygon fill="white" stroke="#666666" points="487.88,-95 359.38,-95 359.38,-75 487.88,-75 487.88,-95"/>
<text text-anchor="middle" x="423.62" y="-81.5" font-family="Helvetica,sans-Serif" font-size="10.00">LessonView::childClicked</text>
</a>
</g>
</g>
<!-- Node5&#45;&gt;Node28 -->
<g id="edge35_Node000005_Node000028" class="edge">
<title>Node5&#45;&gt;Node28</title>
<g id="a_edge35_Node000005_Node000028"><a xlink:title=" ">
<path fill="none" stroke="#63b8ff" d="M291.8,-150.62C298.98,-148.29 306.06,-145.45 312.5,-142 331.63,-131.75 329.75,-119.93 348.5,-109 354.86,-105.29 361.87,-102.08 368.97,-99.31"/>
<polygon fill="#63b8ff" stroke="#63b8ff" points="370.07,-102.63 378.3,-95.96 367.71,-96.04 370.07,-102.63"/>
</a>
</g>
</g>
<!-- Node29 -->
<g id="Node000029" class="node">
<title>Node29</title>
<g id="a_Node000029"><a xlink:href="class_data_base_g_u_i.html#a3a2267784d541d4c74b143458aa7eedb" target="_top" xlink:title="Searches for employees based on the provided employee pointer.">
<polygon fill="white" stroke="#666666" points="967.12,-133 841.62,-133 841.62,-101 967.12,-101 967.12,-133"/>
<text text-anchor="start" x="849.62" y="-119.5" font-family="Helvetica,sans-Serif" font-size="10.00">DataBaseGUI::employee</text>
<text text-anchor="middle" x="904.38" y="-107.5" font-family="Helvetica,sans-Serif" font-size="10.00">_search_by_pointer</text>
</a>
</g>
</g>
<!-- Node5&#45;&gt;Node29 -->
<g id="edge36_Node000005_Node000029" class="edge">
<title>Node5&#45;&gt;Node29</title>
<g id="a_edge36_Node000005_Node000029"><a xlink:title=" ">
<path fill="none" stroke="#63b8ff" d="M289.57,-150.52C308.18,-147.29 329.19,-144.05 348.5,-142 520.36,-123.76 723.54,-118.81 829.95,-117.48"/>
<polygon fill="#63b8ff" stroke="#63b8ff" points="829.72,-120.98 839.68,-117.36 829.64,-113.98 829.72,-120.98"/>
</a>
</g>
</g>
<!-- Node38 -->
<g id="Node000038" class="node">
<title>Node38</title>
<g id="a_Node000038"><a xlink:href="class_lesson_view.html#a4275d407e328010c92ad6aa2e058274f" target="_top" xlink:title="Signal emitted when an employee is clicked.">
<polygon fill="white" stroke="#666666" points="498.75,-57 348.5,-57 348.5,-37 498.75,-37 498.75,-57"/>
<text text-anchor="middle" x="423.62" y="-43.5" font-family="Helvetica,sans-Serif" font-size="10.00">LessonView::employeeClicked</text>
</a>
</g>
</g>
<!-- Node5&#45;&gt;Node38 -->
<g id="edge49_Node000005_Node000038" class="edge">
<title>Node5&#45;&gt;Node38</title>
<g id="a_edge49_Node000005_Node000038"><a xlink:title=" ">
<path fill="none" stroke="#63b8ff" d="M298.7,-150.52C303.65,-148.21 308.34,-145.4 312.5,-142 341.44,-118.35 319.67,-89.78 348.5,-66 349.81,-64.92 351.18,-63.89 352.59,-62.93"/>
<polygon fill="#63b8ff" stroke="#63b8ff" points="354.17,-66.06 361.17,-58.1 350.74,-59.96 354.17,-66.06"/>
</a>
</g>
</g>
<!-- Node39 -->
<g id="Node000039" class="node">
<title>Node39</title>
<g id="a_Node000039"><a xlink:href="class_lesson_view.html#aa1cc5b2f31000f0aaa8180eab0fd17a1" target="_top" xlink:title="Signal emitted when a lesson is edited.">
<polygon fill="white" stroke="#666666" points="489.38,-221 357.88,-221 357.88,-201 489.38,-201 489.38,-221"/>
<text text-anchor="middle" x="423.62" y="-207.5" font-family="Helvetica,sans-Serif" font-size="10.00">LessonView::lessonEdited</text>
</a>
</g>
</g>
<!-- Node5&#45;&gt;Node39 -->
<g id="edge51_Node000005_Node000039" class="edge">
<title>Node5&#45;&gt;Node39</title>
<g id="a_edge51_Node000005_Node000039"><a xlink:title=" ">
<path fill="none" stroke="#63b8ff" d="M273.04,-171.49C295.02,-177.57 323.3,-185.32 348.5,-192 355.58,-193.88 363.04,-195.83 370.4,-197.73"/>
<polygon fill="#63b8ff" stroke="#63b8ff" points="369.4,-201.09 379.96,-200.19 371.15,-194.31 369.4,-201.09"/>
</a>
</g>
</g>
<!-- Node7 -->
<g id="Node000007" class="node">
<title>Node7</title>
<g id="a_Node000007"><a xlink:href="class_data_base_g_u_i.html#a2d921da686e76ae195da018bb735a1ae" target="_top" xlink:title="Searches for children based on the provided name and surname.">
<polygon fill="white" stroke="#666666" points="638.5,-328 534.75,-328 534.75,-296 638.5,-296 638.5,-328"/>
<text text-anchor="start" x="542.75" y="-314.5" font-family="Helvetica,sans-Serif" font-size="10.00">DataBaseGUI::child</text>
<text text-anchor="middle" x="586.62" y="-302.5" font-family="Helvetica,sans-Serif" font-size="10.00">_search</text>
</a>
</g>
</g>
<!-- Node6&#45;&gt;Node7 -->
<g id="edge7_Node000006_Node000007" class="edge">
<title>Node6&#45;&gt;Node7</title>
<g id="a_edge7_Node000006_Node000007"><a xlink:title=" ">
<path fill="none" stroke="#63b8ff" d="M475.74,-179.55C483.87,-182.84 491.86,-186.93 498.75,-192 532.39,-216.77 558.32,-258.42 572.78,-285.56"/>
<polygon fill="#63b8ff" stroke="#63b8ff" points="569.53,-286.9 577.22,-294.18 575.75,-283.69 569.53,-286.9"/>
</a>
</g>
</g>
<!-- Node15 -->
<g id="Node000015" class="node">
<title>Node15</title>
<g id="a_Node000015"><a xlink:href="class_person.html#a6b1fec00d8d1f5af1a2977dc3f5f9eb8" target="_top" xlink:title="Gets the first name of the person.">
<polygon fill="white" stroke="#666666" points="1124.5,-209 1029,-209 1029,-189 1124.5,-189 1124.5,-209"/>
<text text-anchor="middle" x="1076.75" y="-195.5" font-family="Helvetica,sans-Serif" font-size="10.00">Person::get_name</text>
</a>
</g>
</g>
<!-- Node6&#45;&gt;Node15 -->
<g id="edge33_Node000006_Node000015" class="edge">
<title>Node6&#45;&gt;Node15</title>
<g id="a_edge33_Node000006_Node000015"><a xlink:title=" ">
<path fill="none" stroke="#63b8ff" d="M475.81,-173.93C494.34,-176.2 515.46,-178.53 534.75,-180 710.07,-193.4 918.09,-197.36 1017.37,-198.52"/>
<polygon fill="#63b8ff" stroke="#63b8ff" points="1017.09,-202.02 1027.13,-198.63 1017.17,-195.02 1017.09,-202.02"/>
</a>
</g>
</g>
<!-- Node16 -->
<g id="Node000016" class="node">
<title>Node16</title>
<g id="a_Node000016"><a xlink:href="class_person.html#a7b3c8db44a49c4ba8c4838e19a235613" target="_top" xlink:title="Gets the last name of the person.">
<polygon fill="white" stroke="#666666" points="1131.25,-171 1022.25,-171 1022.25,-151 1131.25,-151 1131.25,-171"/>
<text text-anchor="middle" x="1076.75" y="-157.5" font-family="Helvetica,sans-Serif" font-size="10.00">Person::get_surname</text>
</a>
</g>
</g>
<!-- Node6&#45;&gt;Node16 -->
<g id="edge34_Node000006_Node000016" class="edge">
<title>Node6&#45;&gt;Node16</title>
<g id="a_edge34_Node000006_Node000016"><a xlink:title=" ">
<path fill="none" stroke="#63b8ff" d="M475.99,-166.53C593.32,-165.45 880.83,-162.8 1010.47,-161.6"/>
<polygon fill="#63b8ff" stroke="#63b8ff" points="1010.29,-165.1 1020.26,-161.51 1010.23,-158.1 1010.29,-165.1"/>
</a>
</g>
</g>
<!-- Node8 -->
<g id="Node000008" class="node">
<title>Node8</title>
<g id="a_Node000008"><a xlink:href="class_data_base_g_u_i.html#af346d08370d9e4574980707f61b9c8f7" target="_top" xlink:title="Populates the children tab with a list of children.">
<polygon fill="white" stroke="#666666" points="794.75,-397 674.5,-397 674.5,-365 794.75,-365 794.75,-397"/>
<text text-anchor="start" x="682.5" y="-383.5" font-family="Helvetica,sans-Serif" font-size="10.00">DataBaseGUI::populate</text>
<text text-anchor="middle" x="734.62" y="-371.5" font-family="Helvetica,sans-Serif" font-size="10.00">_children_tab</text>
</a>
</g>
</g>
<!-- Node7&#45;&gt;Node8 -->
<g id="edge8_Node000007_Node000008" class="edge">
<title>Node7&#45;&gt;Node8</title>
<g id="a_edge8_Node000007_Node000008"><a xlink:title=" ">
<path fill="none" stroke="#63b8ff" d="M622.22,-328.35C642.08,-337.74 667.24,-349.62 688.61,-359.73"/>
<polygon fill="#63b8ff" stroke="#63b8ff" points="686.86,-362.77 697.4,-363.88 689.85,-356.44 686.86,-362.77"/>
</a>
</g>
</g>
<!-- Node9 -->
<g id="Node000009" class="node">
<title>Node9</title>
<g id="a_Node000009"><a xlink:href="class_data_base_g_u_i.html#acb6c6b292e58d0ead30682f7f5705244" target="_top" xlink:title="Edits an existing child in the database.">
<polygon fill="white" stroke="#666666" points="966.75,-561 842,-561 842,-541 966.75,-541 966.75,-561"/>
<text text-anchor="middle" x="904.38" y="-547.5" font-family="Helvetica,sans-Serif" font-size="10.00">DataBaseGUI::child_edit</text>
</a>
</g>
</g>
<!-- Node8&#45;&gt;Node9 -->
<g id="edge9_Node000008_Node000009" class="edge">
<title>Node8&#45;&gt;Node9</title>
<g id="a_edge9_Node000008_Node000009"><a xlink:title=" ">
<path fill="none" stroke="#63b8ff" d="M741.13,-397.03C752.63,-428.08 782.26,-496.48 830.75,-532 832.52,-533.3 834.38,-534.51 836.3,-535.64"/>
<polygon fill="#63b8ff" stroke="#63b8ff" points="834.47,-538.64 844.98,-539.95 837.58,-532.37 834.47,-538.64"/>
</a>
</g>
</g>
<!-- Node11 -->
<g id="Node000011" class="node">
<title>Node11</title>
<g id="a_Node000011"><a xlink:href="class_data_base_g_u_i.html#ae3a08843db874e51a7cea32fa8937ca5" target="_top" xlink:title="Removes a child from the database.">
<polygon fill="white" stroke="#666666" points="956.25,-397 852.5,-397 852.5,-365 956.25,-365 956.25,-397"/>
<text text-anchor="start" x="860.5" y="-383.5" font-family="Helvetica,sans-Serif" font-size="10.00">DataBaseGUI::child</text>
<text text-anchor="middle" x="904.38" y="-371.5" font-family="Helvetica,sans-Serif" font-size="10.00">_remove</text>
</a>
</g>
</g>
<!-- Node8&#45;&gt;Node11 -->
<g id="edge12_Node000008_Node000011" class="edge">
<title>Node8&#45;&gt;Node11</title>
<g id="a_edge12_Node000008_Node000011"><a xlink:title=" ">
<path fill="none" stroke="#63b8ff" d="M795.24,-381C810.02,-381 825.91,-381 840.83,-381"/>
<polygon fill="#63b8ff" stroke="#63b8ff" points="840.5,-384.5 850.5,-381 840.5,-377.5 840.5,-384.5"/>
</a>
</g>
</g>
<!-- Node12 -->
<g id="Node000012" class="node">
<title>Node12</title>
<g id="a_Node000012"><a xlink:href="class_data_base_g_u_i.html#afbc53e28ad83200fe77e0fa5a6eb970f" target="_top" xlink:title="Clears the children tab.">
<polygon fill="white" stroke="#666666" points="963,-347 845.75,-347 845.75,-315 963,-315 963,-347"/>
<text text-anchor="start" x="853.75" y="-333.5" font-family="Helvetica,sans-Serif" font-size="10.00">DataBaseGUI::children</text>
<text text-anchor="middle" x="904.38" y="-321.5" font-family="Helvetica,sans-Serif" font-size="10.00">_tab_clear</text>
</a>
</g>
</g>
<!-- Node8&#45;&gt;Node12 -->
<g id="edge14_Node000008_Node000012" class="edge">
<title>Node8&#45;&gt;Node12</title>
<g id="a_edge14_Node000008_Node000012"><a xlink:title=" ">
<path fill="none" stroke="#63b8ff" d="M790.55,-364.63C805.39,-360.2 821.61,-355.37 837,-350.78"/>
<polygon fill="#63b8ff" stroke="#63b8ff" points="838,-354.14 846.59,-347.93 836,-347.43 838,-354.14"/>
</a>
</g>
</g>
<!-- Node13 -->
<g id="Node000013" class="node">
<title>Node13</title>
<g id="a_Node000013"><a xlink:href="class_child_entry.html#abda9dea89937d77c4def3fb81d964ff9" target="_top" xlink:title="Signal emitted when a child edit is requested.">
<polygon fill="white" stroke="#666666" points="969.75,-297 839,-297 839,-277 969.75,-277 969.75,-297"/>
<text text-anchor="middle" x="904.38" y="-283.5" font-family="Helvetica,sans-Serif" font-size="10.00">ChildEntry::editRequested</text>
</a>
</g>
</g>
<!-- Node8&#45;&gt;Node13 -->
<g id="edge15_Node000008_Node000013" class="edge">
<title>Node8&#45;&gt;Node13</title>
<g id="a_edge15_Node000008_Node000013"><a xlink:title=" ">
<path fill="none" stroke="#63b8ff" d="M752.02,-364.54C769.89,-347.5 800.06,-321.27 830.75,-306 834.24,-304.26 837.9,-302.67 841.66,-301.22"/>
<polygon fill="#63b8ff" stroke="#63b8ff" points="842.67,-304.57 850.96,-297.97 840.37,-297.96 842.67,-304.57"/>
</a>
</g>
</g>
<!-- Node14 -->
<g id="Node000014" class="node">
<title>Node14</title>
<g id="a_Node000014"><a xlink:href="class_data_base_g_u_i.html#a8e1fe573ef6a09e112989968ec1a2b43" target="_top" xlink:title="Searches for parents based on the provided parent pointer.">
<polygon fill="white" stroke="#666666" points="959.62,-259 849.12,-259 849.12,-227 959.62,-227 959.62,-259"/>
<text text-anchor="start" x="857.12" y="-245.5" font-family="Helvetica,sans-Serif" font-size="10.00">DataBaseGUI::parent</text>
<text text-anchor="middle" x="904.38" y="-233.5" font-family="Helvetica,sans-Serif" font-size="10.00">_search_by_pointer</text>
</a>
</g>
</g>
<!-- Node8&#45;&gt;Node14 -->
<g id="edge16_Node000008_Node000014" class="edge">
<title>Node8&#45;&gt;Node14</title>
<g id="a_edge16_Node000008_Node000014"><a xlink:title=" ">
<path fill="none" stroke="#63b8ff" d="M745.23,-364.75C760.42,-340.38 792.26,-294.4 830.75,-268 833.24,-266.29 835.86,-264.69 838.57,-263.19"/>
<polygon fill="#63b8ff" stroke="#63b8ff" points="839.9,-266.43 847.3,-258.86 836.79,-260.16 839.9,-266.43"/>
</a>
</g>
</g>
<!-- Node26 -->
<g id="Node000026" class="node">
<title>Node26</title>
<g id="a_Node000026"><a xlink:href="class_child_entry.html#a11d827331ad040002cce25952c27e47a" target="_top" xlink:title="Signal emitted when a parent search is requested.">
<polygon fill="white" stroke="#666666" points="968.62,-523 840.12,-523 840.12,-491 968.62,-491 968.62,-523"/>
<text text-anchor="start" x="848.12" y="-509.5" font-family="Helvetica,sans-Serif" font-size="10.00">ChildEntry::parrentSearch</text>
<text text-anchor="middle" x="904.38" y="-497.5" font-family="Helvetica,sans-Serif" font-size="10.00">Requested</text>
</a>
</g>
</g>
<!-- Node8&#45;&gt;Node26 -->
<g id="edge31_Node000008_Node000026" class="edge">
<title>Node8&#45;&gt;Node26</title>
<g id="a_edge31_Node000008_Node000026"><a xlink:title=" ">
<path fill="none" stroke="#63b8ff" d="M746.98,-397.31C763.17,-419.44 794.94,-458.87 830.75,-482 832.6,-483.19 834.51,-484.34 836.47,-485.43"/>
<polygon fill="#63b8ff" stroke="#63b8ff" points="834.73,-488.47 845.24,-489.83 837.87,-482.22 834.73,-488.47"/>
</a>
</g>
</g>
<!-- Node27 -->
<g id="Node000027" class="node">
<title>Node27</title>
<g id="a_Node000027"><a xlink:href="class_child_entry.html#a69e495a83c20ea922198adea9ae47ddb" target="_top" xlink:title="Signal emitted when a child removal is requested.">
<polygon fill="white" stroke="#666666" points="978,-473 830.75,-473 830.75,-453 978,-453 978,-473"/>
<text text-anchor="middle" x="904.38" y="-459.5" font-family="Helvetica,sans-Serif" font-size="10.00">ChildEntry::removeRequested</text>
</a>
</g>
</g>
<!-- Node8&#45;&gt;Node27 -->
<g id="edge32_Node000008_Node000027" class="edge">
<title>Node8&#45;&gt;Node27</title>
<g id="a_edge32_Node000008_Node000027"><a xlink:title=" ">
<path fill="none" stroke="#63b8ff" d="M759.02,-397.35C777.78,-409.94 805.12,-427.14 830.75,-439 838.54,-442.61 847.03,-445.92 855.37,-448.86"/>
<polygon fill="#63b8ff" stroke="#63b8ff" points="854.14,-452.14 864.74,-452.02 856.38,-445.51 854.14,-452.14"/>
</a>
</g>
</g>
<!-- Node10 -->
<g id="Node000010" class="node">
<title>Node10</title>
<g id="a_Node000010"><a xlink:href="class_data_base_g_u_i.html#aa684465aa73b5b34bbadd24fc7f2f641" target="_top" xlink:title="Selects the appropriate sorting to use based on child sort index.">
<polygon fill="white" stroke="#666666" points="1134.62,-441 1018.88,-441 1018.88,-409 1134.62,-409 1134.62,-441"/>
<text text-anchor="start" x="1026.88" y="-427.5" font-family="Helvetica,sans-Serif" font-size="10.00">DataBaseGUI::sort_to</text>
<text text-anchor="middle" x="1076.75" y="-415.5" font-family="Helvetica,sans-Serif" font-size="10.00">_populate_children_tab</text>
</a>
</g>
</g>
<!-- Node9&#45;&gt;Node10 -->
<g id="edge10_Node000009_Node000010" class="edge">
<title>Node9&#45;&gt;Node10</title>
<g id="a_edge10_Node000009_Node000010"><a xlink:title=" ">
<path fill="none" stroke="#63b8ff" d="M959.56,-540.57C966,-538.26 972.31,-535.44 978,-532 1012.26,-511.31 1041.69,-475.02 1059.06,-450.5"/>
<polygon fill="#63b8ff" stroke="#63b8ff" points="1061.88,-452.57 1064.68,-442.36 1056.12,-448.6 1061.88,-452.57"/>
</a>
</g>
</g>
<!-- Node10&#45;&gt;Node8 -->
<g id="edge11_Node000010_Node000008" class="edge">
<title>Node10&#45;&gt;Node8</title>
<g id="a_edge11_Node000010_Node000008"><a xlink:title=" ">
<path fill="none" stroke="#63b8ff" d="M1018.47,-423.46C968.59,-421.44 894.48,-416.76 830.75,-406 821.55,-404.45 811.95,-402.42 802.53,-400.19"/>
<polygon fill="#63b8ff" stroke="#63b8ff" points="803.61,-396.85 793.07,-397.86 801.94,-403.65 803.61,-396.85"/>
</a>
</g>
</g>
<!-- Node11&#45;&gt;Node10 -->
<g id="edge13_Node000011_Node000010" class="edge">
<title>Node11&#45;&gt;Node10</title>
<g id="a_edge13_Node000011_Node000010"><a xlink:title=" ">
<path fill="none" stroke="#63b8ff" d="M956.49,-394.2C972.49,-398.33 990.41,-402.96 1007.4,-407.35"/>
<polygon fill="#63b8ff" stroke="#63b8ff" points="1006.38,-410.7 1016.94,-409.81 1008.13,-403.92 1006.38,-410.7"/>
</a>
</g>
</g>
<!-- Node14&#45;&gt;Node15 -->
<g id="edge17_Node000014_Node000015" class="edge">
<title>Node14&#45;&gt;Node15</title>
<g id="a_edge17_Node000014_Node000015"><a xlink:title=" ">
<path fill="none" stroke="#63b8ff" d="M959.75,-228.96C980.38,-223.63 1003.78,-217.59 1024.15,-212.33"/>
<polygon fill="#63b8ff" stroke="#63b8ff" points="1024.83,-215.76 1033.64,-209.87 1023.08,-208.99 1024.83,-215.76"/>
</a>
</g>
</g>
<!-- Node14&#45;&gt;Node16 -->
<g id="edge18_Node000014_Node000016" class="edge">
<title>Node14&#45;&gt;Node16</title>
<g id="a_edge18_Node000014_Node000016"><a xlink:title=" ">
<path fill="none" stroke="#63b8ff" d="M929.98,-226.55C951.46,-212.73 983.84,-193.18 1014,-180 1017.99,-178.26 1022.19,-176.6 1026.45,-175.06"/>
<polygon fill="#63b8ff" stroke="#63b8ff" points="1027.29,-178.47 1035.62,-171.92 1025.02,-171.84 1027.29,-178.47"/>
</a>
</g>
</g>
<!-- Node17 -->
<g id="Node000017" class="node">
<title>Node17</title>
<g id="a_Node000017"><a xlink:href="class_data_base_g_u_i.html#a7c3d843eec449d8a4ec5ce6bf0375358" target="_top" xlink:title="Searches for parents based on the provided name and surname.">
<polygon fill="white" stroke="#666666" points="1132,-325 1021.5,-325 1021.5,-293 1132,-293 1132,-325"/>
<text text-anchor="start" x="1029.5" y="-311.5" font-family="Helvetica,sans-Serif" font-size="10.00">DataBaseGUI::parent</text>
<text text-anchor="middle" x="1076.75" y="-299.5" font-family="Helvetica,sans-Serif" font-size="10.00">_search</text>
</a>
</g>
</g>
<!-- Node14&#45;&gt;Node17 -->
<g id="edge19_Node000014_Node000017" class="edge">
<title>Node14&#45;&gt;Node17</title>
<g id="a_edge19_Node000014_Node000017"><a xlink:title=" ">
<path fill="none" stroke="#63b8ff" d="M954.37,-259.37C962.3,-262.16 970.4,-265.1 978,-268 994.35,-274.23 1012.03,-281.49 1027.81,-288.15"/>
<polygon fill="#63b8ff" stroke="#63b8ff" points="1026.42,-291.37 1036.99,-292.06 1029.16,-284.92 1026.42,-291.37"/>
</a>
</g>
</g>
<!-- Node18 -->
<g id="Node000018" class="node">
<title>Node18</title>
<g id="a_Node000018"><a xlink:href="class_data_base_g_u_i.html#a739b2cf48c0cb6e3cab2da0a7bbd6d6d" target="_top" xlink:title="Populates the parent tab with a list of parents.">
<polygon fill="white" stroke="#666666" points="1295.75,-520 1175.5,-520 1175.5,-488 1295.75,-488 1295.75,-520"/>
<text text-anchor="start" x="1183.5" y="-506.5" font-family="Helvetica,sans-Serif" font-size="10.00">DataBaseGUI::populate</text>
<text text-anchor="middle" x="1235.62" y="-494.5" font-family="Helvetica,sans-Serif" font-size="10.00">_parent_tab</text>
</a>
</g>
</g>
<!-- Node17&#45;&gt;Node18 -->
<g id="edge20_Node000017_Node000018" class="edge">
<title>Node17&#45;&gt;Node18</title>
<g id="a_edge20_Node000017_Node000018"><a xlink:title=" ">
<path fill="none" stroke="#63b8ff" d="M1090.86,-325.29C1118.25,-359.34 1181.74,-438.26 1214.41,-478.87"/>
<polygon fill="#63b8ff" stroke="#63b8ff" points="1211.5,-480.84 1220.5,-486.44 1216.96,-476.45 1211.5,-480.84"/>
</a>
</g>
</g>
<!-- Node18&#45;&gt;Node6 -->
<g id="edge21_Node000018_Node000006" class="edge">
<title>Node18&#45;&gt;Node6</title>
<g id="a_edge21_Node000018_Node000006"><a xlink:title=" ">
<path fill="none" stroke="#63b8ff" d="M1196.92,-520.39C1136.57,-545.09 1014,-589 905.38,-589 733.62,-589 733.62,-589 733.62,-589 590.95,-589 597.55,-465.11 534.75,-337 505.53,-277.38 543.74,-240.84 498.75,-192 495.03,-187.97 490.65,-184.58 485.89,-181.75"/>
<polygon fill="#63b8ff" stroke="#63b8ff" points="487.58,-178.68 477.07,-177.33 484.45,-184.94 487.58,-178.68"/>
</a>
</g>
</g>
<!-- Node19 -->
<g id="Node000019" class="node">
<title>Node19</title>
<g id="a_Node000019"><a xlink:href="class_parent_entry.html#a45e22d202e52c9dbc7e7e72575dc0e91" target="_top" xlink:title="Signal emitted when a child search is requested.">
<polygon fill="white" stroke="#666666" points="1478.25,-388 1353.5,-388 1353.5,-356 1478.25,-356 1478.25,-388"/>
<text text-anchor="start" x="1361.5" y="-374.5" font-family="Helvetica,sans-Serif" font-size="10.00">ParentEntry::childSearch</text>
<text text-anchor="middle" x="1415.88" y="-362.5" font-family="Helvetica,sans-Serif" font-size="10.00">Requested</text>
</a>
</g>
</g>
<!-- Node18&#45;&gt;Node19 -->
<g id="edge22_Node000018_Node000019" class="edge">
<title>Node18&#45;&gt;Node19</title>
<g id="a_edge22_Node000018_Node000019"><a xlink:title=" ">
<path fill="none" stroke="#63b8ff" d="M1246.83,-487.67C1262.33,-464.19 1294.04,-421.07 1331.75,-397 1335.26,-394.76 1338.98,-392.71 1342.82,-390.84"/>
<polygon fill="#63b8ff" stroke="#63b8ff" points="1344.08,-394.11 1351.84,-386.9 1341.28,-387.7 1344.08,-394.11"/>
</a>
</g>
</g>
<!-- Node20 -->
<g id="Node000020" class="node">
<title>Node20</title>
<g id="a_Node000020"><a xlink:href="class_parent_entry.html#ab0a6b9993e8f1dc2f58ceedfee0f7d0b" target="_top" xlink:title="Signal emitted when a parent edit is requested.">
<polygon fill="white" stroke="#666666" points="1484.25,-640 1347.5,-640 1347.5,-620 1484.25,-620 1484.25,-640"/>
<text text-anchor="middle" x="1415.88" y="-626.5" font-family="Helvetica,sans-Serif" font-size="10.00">ParentEntry::editRequested</text>
</a>
</g>
</g>
<!-- Node18&#45;&gt;Node20 -->
<g id="edge23_Node000018_Node000020" class="edge">
<title>Node18&#45;&gt;Node20</title>
<g id="a_edge23_Node000018_Node000020"><a xlink:title=" ">
<path fill="none" stroke="#63b8ff" d="M1246.37,-520.27C1261.51,-544.09 1293.03,-588.09 1331.75,-611 1334.41,-612.57 1337.18,-614.01 1340.04,-615.34"/>
<polygon fill="#63b8ff" stroke="#63b8ff" points="1338.68,-618.56 1349.26,-619.06 1341.3,-612.07 1338.68,-618.56"/>
</a>
</g>
</g>
<!-- Node21 -->
<g id="Node000021" class="node">
<title>Node21</title>
<g id="a_Node000021"><a xlink:href="class_data_base_g_u_i.html#a5b049fb9e0e5d78c4c2e81e569b471f9" target="_top" xlink:title="Edits an existing parent in the database.">
<polygon fill="white" stroke="#666666" points="1481.62,-552 1350.12,-552 1350.12,-532 1481.62,-532 1481.62,-552"/>
<text text-anchor="middle" x="1415.88" y="-538.5" font-family="Helvetica,sans-Serif" font-size="10.00">DataBaseGUI::parent_edit</text>
</a>
</g>
</g>
<!-- Node18&#45;&gt;Node21 -->
<g id="edge24_Node000018_Node000021" class="edge">
<title>Node18&#45;&gt;Node21</title>
<g id="a_edge24_Node000018_Node000021"><a xlink:title=" ">
<path fill="none" stroke="#63b8ff" d="M1295.98,-516.65C1314.85,-520.68 1335.74,-525.13 1354.68,-529.17"/>
<polygon fill="#63b8ff" stroke="#63b8ff" points="1353.88,-532.58 1364.39,-531.24 1355.34,-525.73 1353.88,-532.58"/>
</a>
</g>
</g>
<!-- Node23 -->
<g id="Node000023" class="node">
<title>Node23</title>
<g id="a_Node000023"><a xlink:href="class_data_base_g_u_i.html#ad8a42f24cdb603ba85c1cdd4ea2e73a4" target="_top" xlink:title="Removes a parent from the database.">
<polygon fill="white" stroke="#666666" points="1471.12,-602 1360.62,-602 1360.62,-570 1471.12,-570 1471.12,-602"/>
<text text-anchor="start" x="1368.62" y="-588.5" font-family="Helvetica,sans-Serif" font-size="10.00">DataBaseGUI::parent</text>
<text text-anchor="middle" x="1415.88" y="-576.5" font-family="Helvetica,sans-Serif" font-size="10.00">_remove</text>
</a>
</g>
</g>
<!-- Node18&#45;&gt;Node23 -->
<g id="edge27_Node000018_Node000023" class="edge">
<title>Node18&#45;&gt;Node23</title>
<g id="a_edge27_Node000018_Node000023"><a xlink:title=" ">
<path fill="none" stroke="#63b8ff" d="M1260.37,-520.49C1279.09,-532.93 1306.21,-549.72 1331.75,-561 1337.58,-563.57 1343.75,-565.98 1349.99,-568.2"/>
<polygon fill="#63b8ff" stroke="#63b8ff" points="1348.48,-571.39 1359.08,-571.28 1350.73,-564.76 1348.48,-571.39"/>
</a>
</g>
</g>
<!-- Node24 -->
<g id="Node000024" class="node">
<title>Node24</title>
<g id="a_Node000024"><a xlink:href="class_data_base_g_u_i.html#a3d4aa66da32413ddd29330e008b1865a" target="_top" xlink:title="Clears the parent tab.">
<polygon fill="white" stroke="#666666" points="1471.12,-476 1360.62,-476 1360.62,-444 1471.12,-444 1471.12,-476"/>
<text text-anchor="start" x="1368.62" y="-462.5" font-family="Helvetica,sans-Serif" font-size="10.00">DataBaseGUI::parent</text>
<text text-anchor="middle" x="1415.88" y="-450.5" font-family="Helvetica,sans-Serif" font-size="10.00">_tab_clear</text>
</a>
</g>
</g>
<!-- Node18&#45;&gt;Node24 -->
<g id="edge29_Node000018_Node000024" class="edge">
<title>Node18&#45;&gt;Node24</title>
<g id="a_edge29_Node000018_Node000024"><a xlink:title=" ">
<path fill="none" stroke="#63b8ff" d="M1295.98,-489.35C1313.17,-485.1 1332.04,-480.45 1349.57,-476.12"/>
<polygon fill="#63b8ff" stroke="#63b8ff" points="1349.95,-479.63 1358.82,-473.84 1348.27,-472.84 1349.95,-479.63"/>
</a>
</g>
</g>
<!-- Node25 -->
<g id="Node000025" class="node">
<title>Node25</title>
<g id="a_Node000025"><a xlink:href="class_parent_entry.html#ada9ff642ea28fbec8f40767df83cc5f1" target="_top" xlink:title="Signal emitted when a parent removal is requested.">
<polygon fill="white" stroke="#666666" points="1492.5,-426 1339.25,-426 1339.25,-406 1492.5,-406 1492.5,-426"/>
<text text-anchor="middle" x="1415.88" y="-412.5" font-family="Helvetica,sans-Serif" font-size="10.00">ParentEntry::removeRequested</text>
</a>
</g>
</g>
<!-- Node18&#45;&gt;Node25 -->
<g id="edge30_Node000018_Node000025" class="edge">
<title>Node18&#45;&gt;Node25</title>
<g id="a_edge30_Node000018_Node000025"><a xlink:title=" ">
<path fill="none" stroke="#63b8ff" d="M1254.52,-487.56C1272.67,-471.78 1302.21,-448.41 1331.75,-435 1336,-433.07 1340.46,-431.33 1345.01,-429.76"/>
<polygon fill="#63b8ff" stroke="#63b8ff" points="1345.82,-433.17 1354.32,-426.85 1343.73,-426.49 1345.82,-433.17"/>
</a>
</g>
</g>
<!-- Node22 -->
<g id="Node000022" class="node">
<title>Node22</title>
<g id="a_Node000022"><a xlink:href="class_data_base_g_u_i.html#a625b5e2018395a458ff517bbf364e1bf" target="_top" xlink:title="Selects the appropriate sorting to use based on parent sort index.">
<polygon fill="white" stroke="#666666" points="1654.75,-558 1541.25,-558 1541.25,-526 1654.75,-526 1654.75,-558"/>
<text text-anchor="start" x="1549.25" y="-544.5" font-family="Helvetica,sans-Serif" font-size="10.00">DataBaseGUI::sort_to</text>
<text text-anchor="middle" x="1598" y="-532.5" font-family="Helvetica,sans-Serif" font-size="10.00">_populate_parent_tab</text>
</a>
</g>
</g>
<!-- Node21&#45;&gt;Node22 -->
<g id="edge25_Node000021_Node000022" class="edge">
<title>Node21&#45;&gt;Node22</title>
<g id="a_edge25_Node000021_Node000022"><a xlink:title=" ">
<path fill="none" stroke="#63b8ff" d="M1481.9,-542C1497.47,-542 1514.13,-542 1529.79,-542"/>
<polygon fill="#63b8ff" stroke="#63b8ff" points="1529.48,-545.5 1539.48,-542 1529.48,-538.5 1529.48,-545.5"/>
</a>
</g>
</g>
<!-- Node22&#45;&gt;Node18 -->
<g id="edge26_Node000022_Node000018" class="edge">
<title>Node22&#45;&gt;Node18</title>
<g id="a_edge26_Node000022_Node000018"><a xlink:title=" ">
<path fill="none" stroke="#63b8ff" d="M1540.77,-529.79C1527.45,-527.23 1513.27,-524.77 1500,-523 1435.12,-514.34 1360.69,-509.43 1307.54,-506.78"/>
<polygon fill="#63b8ff" stroke="#63b8ff" points="1307.87,-503.29 1297.71,-506.31 1307.53,-510.28 1307.87,-503.29"/>
</a>
</g>
</g>
<!-- Node23&#45;&gt;Node22 -->
<g id="edge28_Node000023_Node000022" class="edge">
<title>Node23&#45;&gt;Node22</title>
<g id="a_edge28_Node000023_Node000022"><a xlink:title=" ">
<path fill="none" stroke="#63b8ff" d="M1471.41,-572.68C1489.76,-568.2 1510.45,-563.14 1529.67,-558.45"/>
<polygon fill="#63b8ff" stroke="#63b8ff" points="1530.43,-561.86 1539.31,-556.09 1528.77,-555.06 1530.43,-561.86"/>
</a>
</g>
</g>
<!-- Node29&#45;&gt;Node15 -->
<g id="edge47_Node000029_Node000015" class="edge">
<title>Node29&#45;&gt;Node15</title>
<g id="a_edge47_Node000029_Node000015"><a xlink:title=" ">
<path fill="none" stroke="#63b8ff" d="M929.98,-133.45C951.46,-147.27 983.84,-166.82 1014,-180 1017.99,-181.74 1022.19,-183.4 1026.45,-184.94"/>
<polygon fill="#63b8ff" stroke="#63b8ff" points="1025.02,-188.16 1035.62,-188.08 1027.29,-181.53 1025.02,-188.16"/>
</a>
</g>
</g>
<!-- Node29&#45;&gt;Node16 -->
<g id="edge48_Node000029_Node000016" class="edge">
<title>Node29&#45;&gt;Node16</title>
<g id="a_edge48_Node000029_Node000016"><a xlink:title=" ">
<path fill="none" stroke="#63b8ff" d="M967.37,-133.01C986.03,-137.83 1006.3,-143.06 1024.21,-147.69"/>
<polygon fill="#63b8ff" stroke="#63b8ff" points="1023.28,-151.07 1033.84,-150.18 1025.04,-144.29 1023.28,-151.07"/>
</a>
</g>
</g>
<!-- Node30 -->
<g id="Node000030" class="node">
<title>Node30</title>
<g id="a_Node000030"><a xlink:href="class_data_base_g_u_i.html#a54b1ac54d775ea37ae05fd54c756aebe" target="_top" xlink:title="Searches for employees based on the provided name and surname.">
<polygon fill="white" stroke="#666666" points="1139.5,-133 1014,-133 1014,-101 1139.5,-101 1139.5,-133"/>
<text text-anchor="start" x="1022" y="-119.5" font-family="Helvetica,sans-Serif" font-size="10.00">DataBaseGUI::employee</text>
<text text-anchor="middle" x="1076.75" y="-107.5" font-family="Helvetica,sans-Serif" font-size="10.00">_search</text>
</a>
</g>
</g>
<!-- Node29&#45;&gt;Node30 -->
<g id="edge37_Node000029_Node000030" class="edge">
<title>Node29&#45;&gt;Node30</title>
<g id="a_edge37_Node000029_Node000030"><a xlink:title=" ">
<path fill="none" stroke="#63b8ff" d="M967.37,-117C978.64,-117 990.5,-117 1002.08,-117"/>
<polygon fill="#63b8ff" stroke="#63b8ff" points="1002.01,-120.5 1012.01,-117 1002.01,-113.5 1002.01,-120.5"/>
</a>
</g>
</g>
<!-- Node31 -->
<g id="Node000031" class="node">
<title>Node31</title>
<g id="a_Node000031"><a xlink:href="class_data_base_g_u_i.html#abab0899c6a55e240687bf21734273428" target="_top" xlink:title="Populates the parent tab with a list of parents.">
<polygon fill="white" stroke="#666666" points="1295.75,-133 1175.5,-133 1175.5,-101 1295.75,-101 1295.75,-133"/>
<text text-anchor="start" x="1183.5" y="-119.5" font-family="Helvetica,sans-Serif" font-size="10.00">DataBaseGUI::populate</text>
<text text-anchor="middle" x="1235.62" y="-107.5" font-family="Helvetica,sans-Serif" font-size="10.00">_employee_tab</text>
</a>
</g>
</g>
<!-- Node30&#45;&gt;Node31 -->
<g id="edge38_Node000030_Node000031" class="edge">
<title>Node30&#45;&gt;Node31</title>
<g id="a_edge38_Node000030_Node000031"><a xlink:title=" ">
<path fill="none" stroke="#63b8ff" d="M1139.75,-117C1147.67,-117 1155.82,-117 1163.86,-117"/>
<polygon fill="#63b8ff" stroke="#63b8ff" points="1163.61,-120.5 1173.61,-117 1163.61,-113.5 1163.61,-120.5"/>
</a>
</g>
</g>
<!-- Node32 -->
<g id="Node000032" class="node">
<title>Node32</title>
<g id="a_Node000032"><a xlink:href="class_employee_entry.html#ada71cffbda6a2614d266a6cc85d6684a" target="_top" xlink:title="Signal emitted when a employee edit is requested.">
<polygon fill="white" stroke="#666666" points="1491.75,-234 1340,-234 1340,-214 1491.75,-214 1491.75,-234"/>
<text text-anchor="middle" x="1415.88" y="-220.5" font-family="Helvetica,sans-Serif" font-size="10.00">EmployeeEntry::editRequested</text>
</a>
</g>
</g>
<!-- Node31&#45;&gt;Node32 -->
<g id="edge39_Node000031_Node000032" class="edge">
<title>Node31&#45;&gt;Node32</title>
<g id="a_edge39_Node000031_Node000032"><a xlink:title=" ">
<path fill="none" stroke="#63b8ff" d="M1249.58,-133.37C1266.35,-153.42 1297.53,-186.94 1331.75,-205 1335.02,-206.73 1338.45,-208.3 1341.97,-209.73"/>
<polygon fill="#63b8ff" stroke="#63b8ff" points="1340.72,-213 1351.32,-213.09 1343.09,-206.41 1340.72,-213"/>
</a>
</g>
</g>
<!-- Node33 -->
<g id="Node000033" class="node">
<title>Node33</title>
<g id="a_Node000033"><a xlink:href="class_data_base_g_u_i.html#ae9c0b91905f7d70563c285cd9b5dace3" target="_top" xlink:title="Edits an existing employee in the database.">
<polygon fill="white" stroke="#666666" points="1489.12,-146 1342.62,-146 1342.62,-126 1489.12,-126 1489.12,-146"/>
<text text-anchor="middle" x="1415.88" y="-132.5" font-family="Helvetica,sans-Serif" font-size="10.00">DataBaseGUI::employee_edit</text>
</a>
</g>
</g>
<!-- Node31&#45;&gt;Node33 -->
<g id="edge40_Node000031_Node000033" class="edge">
<title>Node31&#45;&gt;Node33</title>
<g id="a_edge40_Node000031_Node000033"><a xlink:title=" ">
<path fill="none" stroke="#63b8ff" d="M1295.98,-123.33C1307.18,-124.52 1319.1,-125.79 1330.89,-127.05"/>
<polygon fill="#63b8ff" stroke="#63b8ff" points="1330.32,-130.51 1340.63,-128.09 1331.06,-123.55 1330.32,-130.51"/>
</a>
</g>
</g>
<!-- Node35 -->
<g id="Node000035" class="node">
<title>Node35</title>
<g id="a_Node000035"><a xlink:href="class_data_base_g_u_i.html#a4b70294327e9c316224af10d7a369749" target="_top" xlink:title="Removes an employee from the database.">
<polygon fill="white" stroke="#666666" points="1478.62,-196 1353.12,-196 1353.12,-164 1478.62,-164 1478.62,-196"/>
<text text-anchor="start" x="1361.12" y="-182.5" font-family="Helvetica,sans-Serif" font-size="10.00">DataBaseGUI::employee</text>
<text text-anchor="middle" x="1415.88" y="-170.5" font-family="Helvetica,sans-Serif" font-size="10.00">_remove</text>
</a>
</g>
</g>
<!-- Node31&#45;&gt;Node35 -->
<g id="edge43_Node000031_Node000035" class="edge">
<title>Node31&#45;&gt;Node35</title>
<g id="a_edge43_Node000031_Node000035"><a xlink:title=" ">
<path fill="none" stroke="#63b8ff" d="M1275.67,-133.5C1292.76,-140.48 1313.11,-148.49 1331.75,-155 1336.73,-156.74 1341.91,-158.47 1347.13,-160.17"/>
<polygon fill="#63b8ff" stroke="#63b8ff" points="1345.84,-163.43 1356.43,-163.12 1347.96,-156.76 1345.84,-163.43"/>
</a>
</g>
</g>
<!-- Node36 -->
<g id="Node000036" class="node">
<title>Node36</title>
<g id="a_Node000036"><a xlink:href="class_data_base_g_u_i.html#aa5bbb368e92b4bf89edf9071df42aab3" target="_top" xlink:title="Clears the parent tab.">
<polygon fill="white" stroke="#666666" points="1478.62,-70 1353.12,-70 1353.12,-38 1478.62,-38 1478.62,-70"/>
<text text-anchor="start" x="1361.12" y="-56.5" font-family="Helvetica,sans-Serif" font-size="10.00">DataBaseGUI::employee</text>
<text text-anchor="middle" x="1415.88" y="-44.5" font-family="Helvetica,sans-Serif" font-size="10.00">_tab_clear</text>
</a>
</g>
</g>
<!-- Node31&#45;&gt;Node36 -->
<g id="edge45_Node000031_Node000036" class="edge">
<title>Node31&#45;&gt;Node36</title>
<g id="a_edge45_Node000031_Node000036"><a xlink:title=" ">
<path fill="none" stroke="#63b8ff" d="M1282.99,-100.61C1305.8,-92.55 1333.51,-82.76 1357.63,-74.23"/>
<polygon fill="#63b8ff" stroke="#63b8ff" points="1358.74,-77.55 1367,-70.92 1356.41,-70.95 1358.74,-77.55"/>
</a>
</g>
</g>
<!-- Node37 -->
<g id="Node000037" class="node">
<title>Node37</title>
<g id="a_Node000037"><a xlink:href="class_employee_entry.html#a6f579e66e8fc13dbc45c940edfc50b32" target="_top" xlink:title="Signal emitted when a employee removal is requested.">
<polygon fill="white" stroke="#666666" points="1500,-20 1331.75,-20 1331.75,0 1500,0 1500,-20"/>
<text text-anchor="middle" x="1415.88" y="-6.5" font-family="Helvetica,sans-Serif" font-size="10.00">EmployeeEntry::removeRequested</text>
</a>
</g>
</g>
<!-- Node31&#45;&gt;Node37 -->
<g id="edge46_Node000031_Node000037" class="edge">
<title>Node31&#45;&gt;Node37</title>
<g id="a_edge46_Node000031_Node000037"><a xlink:title=" ">
<path fill="none" stroke="#63b8ff" d="M1249.58,-100.63C1266.35,-80.58 1297.53,-47.06 1331.75,-29 1335.02,-27.27 1338.45,-25.7 1341.97,-24.27"/>
<polygon fill="#63b8ff" stroke="#63b8ff" points="1343.09,-27.59 1351.32,-20.91 1340.72,-21 1343.09,-27.59"/>
</a>
</g>
</g>
<!-- Node34 -->
<g id="Node000034" class="node">
<title>Node34</title>
<g id="a_Node000034"><a xlink:href="class_data_base_g_u_i.html#a0298d31c219c66a65a01eb01372e254d" target="_top" xlink:title="Selects the appropriate sorting to use based on employee sort index.">
<polygon fill="white" stroke="#666666" points="1660,-152 1536,-152 1536,-120 1660,-120 1660,-152"/>
<text text-anchor="start" x="1544" y="-138.5" font-family="Helvetica,sans-Serif" font-size="10.00">DataBaseGUI::sort_to</text>
<text text-anchor="middle" x="1598" y="-126.5" font-family="Helvetica,sans-Serif" font-size="10.00">_populate_employee_tab</text>
</a>
</g>
</g>
<!-- Node33&#45;&gt;Node34 -->
<g id="edge41_Node000033_Node000034" class="edge">
<title>Node33&#45;&gt;Node34</title>
<g id="a_edge41_Node000033_Node000034"><a xlink:title=" ">
<path fill="none" stroke="#63b8ff" d="M1489.62,-136C1501.04,-136 1512.85,-136 1524.28,-136"/>
<polygon fill="#63b8ff" stroke="#63b8ff" points="1524.03,-139.5 1534.03,-136 1524.03,-132.5 1524.03,-139.5"/>
</a>
</g>
</g>
<!-- Node34&#45;&gt;Node31 -->
<g id="edge42_Node000034_Node000031" class="edge">
<title>Node34&#45;&gt;Node31</title>
<g id="a_edge42_Node000034_Node000031"><a xlink:title=" ">
<path fill="none" stroke="#63b8ff" d="M1535.69,-122.13C1523.9,-120 1511.61,-118.13 1500,-117 1435.02,-110.7 1360.6,-111.42 1307.48,-113.3"/>
<polygon fill="#63b8ff" stroke="#63b8ff" points="1307.52,-109.8 1297.66,-113.67 1307.78,-116.79 1307.52,-109.8"/>
</a>
</g>
</g>
<!-- Node35&#45;&gt;Node34 -->
<g id="edge44_Node000035_Node000034" class="edge">
<title>Node35&#45;&gt;Node34</title>
<g id="a_edge44_Node000035_Node000034"><a xlink:title=" ">
<path fill="none" stroke="#63b8ff" d="M1479.12,-164.8C1493.84,-161.2 1509.67,-157.33 1524.8,-153.64"/>
<polygon fill="#63b8ff" stroke="#63b8ff" points="1525.32,-157.11 1534.2,-151.34 1523.66,-150.31 1525.32,-157.11"/>
</a>
</g>
</g>
</g>
</svg>
