<?xml version="1.0" encoding="UTF-8" standalone="no"?>
<!DOCTYPE svg PUBLIC "-//W3C//DTD SVG 1.1//EN"
 "http://www.w3.org/Graphics/SVG/1.1/DTD/svg11.dtd">
<!-- Generated by graphviz version 12.2.1 (20241206.2353)
 -->
<!-- Title: DataBaseGUI::child_search Pages: 1 -->
<!--zoomable 684 -->

<svg id="main" version="1.1" xmlns="http://www.w3.org/2000/svg" xmlns:xlink="http://www.w3.org/1999/xlink" xml:space="preserve" onload="init(evt)">

<style type="text/css"><![CDATA[
.node, .edge {opacity: 0.7;}
.node.selected, .edge.selected {opacity: 1;}
.edge:hover path { stroke: red; }
.edge:hover polygon { stroke: red; fill: red; }
]]></style>

<defs>
  <circle id="rim" cx="0" cy="0" r="7"/>
  <circle id="rim2" cx="0" cy="0" r="3.5"/>
  <g id="zoomPlus">
    <use xlink:href="#rim" fill="#404040"><set attributeName="fill" to="#808080" begin="zoomplus.mouseover" end="zoomplus.mouseout"/></use>
    <path d="M-4,0h8M0,-4v8" fill="none" stroke="white" stroke-width="1.5" pointer-events="none"/>
  </g>
  <g id="zoomMin">
    <use xlink:href="#rim" fill="#404040"><set attributeName="fill" to="#808080" begin="zoomminus.mouseover" end="zoomminus.mouseout"/></use>
    <path d="M-4,0h8" fill="none" stroke="white" stroke-width="1.5" pointer-events="none"/>
  </g>
  <g id="arrowUp" transform="translate(30 24)">
    <use xlink:href="#rim"/>
    <path pointer-events="none" fill="none" stroke="white" stroke-width="1.5" d="M0,-3.0v7 M-2.5,-0.5L0,-3.0L2.5,-0.5"/>
  </g>
  <g id="arrowRight" transform="rotate(90) translate(36 -43)">
    <use xlink:href="#rim"/>
    <path pointer-events="none" fill="none" stroke="white" stroke-width="1.5" d="M0,-3.0v7 M-2.5,-0.5L0,-3.0L2.5,-0.5"/>
  </g>
  <g id="arrowDown" transform="rotate(180) translate(-30 -48)">
    <use xlink:href="#rim"/>
    <path pointer-events="none" fill="none" stroke="white" stroke-width="1.5" d="M0,-3.0v7 M-2.5,-0.5L0,-3.0L2.5,-0.5"/>
  </g>
  <g id="arrowLeft" transform="rotate(270) translate(-36 17)">
    <use xlink:href="#rim"/>
    <path pointer-events="none" fill="none" stroke="white" stroke-width="1.5" d="M0,-3.0v7 M-2.5,-0.5L0,-3.0L2.5,-0.5"/>
  </g>
  <g id="resetDef">
    <use xlink:href="#rim2" fill="#404040"><set attributeName="fill" to="#808080" begin="reset.mouseover" end="reset.mouseout"/></use>
  </g>
</defs>
<script type="application/ecmascript">
var viewWidth = 1562;
var viewHeight = 684;
var sectionId = 'dynsection-12';
</script>
<script type="application/ecmascript" xlink:href="svg.min.js"/>
<svg id="graph" class="graph">
<g id="viewport">
<title>DataBaseGUI::child_search</title>
<!-- Node1 -->
<g id="Node000001" class="node">
<title>Node1</title>
<g id="a_Node000001"><a xlink:title="Searches for children based on the provided name and surname.">
<polygon fill="#999999" stroke="#666666" points="1553.5,-328 1449.75,-328 1449.75,-296 1553.5,-296 1553.5,-328"/>
<text text-anchor="start" x="1457.75" y="-314.5" font-family="Helvetica,sans-Serif" font-size="10.00">DataBaseGUI::child</text>
<text text-anchor="middle" x="1501.62" y="-302.5" font-family="Helvetica,sans-Serif" font-size="10.00">_search</text>
</a>
</g>
</g>
<!-- Node2 -->
<g id="Node000002" class="node">
<title>Node2</title>
<g id="a_Node000002"><a xlink:href="class_data_base_g_u_i.html#aadb0e7d323a970603312695c0dd9b264" target="_top" xlink:title="Searches for children based on the provided child pointer.">
<polygon fill="white" stroke="#666666" points="1413.75,-577 1310,-577 1310,-545 1413.75,-545 1413.75,-577"/>
<text text-anchor="start" x="1318" y="-563.5" font-family="Helvetica,sans-Serif" font-size="10.00">DataBaseGUI::child</text>
<text text-anchor="middle" x="1361.88" y="-551.5" font-family="Helvetica,sans-Serif" font-size="10.00">_search_by_pointer</text>
</a>
</g>
</g>
<!-- Node1&#45;&gt;Node2 -->
<g id="edge1_Node000001_Node000002" class="edge">
<title>Node1&#45;&gt;Node2</title>
<g id="a_edge1_Node000001_Node000002"><a xlink:title=" ">
<path fill="none" stroke="#63b8ff" d="M1486.05,-338.35C1457.57,-389.83 1395.29,-502.41 1371.95,-544.6"/>
<polygon fill="#63b8ff" stroke="#63b8ff" points="1489.08,-340.11 1490.85,-329.66 1482.95,-336.72 1489.08,-340.11"/>
</a>
</g>
</g>
<!-- Node7 -->
<g id="Node000007" class="node">
<title>Node7</title>
<g id="a_Node000007"><a xlink:href="class_data_base_g_u_i.html#a6c35e47ed05a80db144f240dee805a9d" target="_top" xlink:title="Sets up the GUI.">
<polygon fill="white" stroke="#666666" points="294.88,-379 187.38,-379 187.38,-359 294.88,-359 294.88,-379"/>
<text text-anchor="middle" x="241.12" y="-365.5" font-family="Helvetica,sans-Serif" font-size="10.00">DataBaseGUI::setup</text>
</a>
</g>
</g>
<!-- Node1&#45;&gt;Node7 -->
<g id="edge56_Node000001_Node000007" class="edge">
<title>Node1&#45;&gt;Node7</title>
<g id="a_edge56_Node000001_Node000007"><a xlink:title=" ">
<path fill="none" stroke="#63b8ff" d="M1438.11,-312C1380.21,-312 1291.73,-312 1214.88,-312 1214.88,-312 1214.88,-312 571.75,-312 463.73,-312 338.67,-342.09 278.35,-358.55"/>
<polygon fill="#63b8ff" stroke="#63b8ff" points="1437.75,-315.5 1447.75,-312 1437.75,-308.5 1437.75,-315.5"/>
</a>
</g>
</g>
<!-- Node3 -->
<g id="Node000003" class="node">
<title>Node3</title>
<g id="a_Node000003"><a xlink:href="class_data_base_g_u_i.html#aadcf1044a300a89dadd104cfadb9a1b1" target="_top" xlink:title="Views a lesson in the GUI.">
<polygon fill="white" stroke="#666666" points="968.25,-650 830.75,-650 830.75,-630 968.25,-630 968.25,-650"/>
<text text-anchor="middle" x="899.5" y="-636.5" font-family="Helvetica,sans-Serif" font-size="10.00">DataBaseGUI::lesson_view</text>
</a>
</g>
</g>
<!-- Node2&#45;&gt;Node3 -->
<g id="edge2_Node000002_Node000003" class="edge">
<title>Node2&#45;&gt;Node3</title>
<g id="a_edge2_Node000002_Node000003"><a xlink:title=" ">
<path fill="none" stroke="#63b8ff" d="M1332.41,-584.17C1316.28,-595.92 1295.15,-609.13 1274,-616 1171.42,-649.34 1044.83,-649.54 968.5,-645.55"/>
<polygon fill="#63b8ff" stroke="#63b8ff" points="1334.2,-587.21 1340.08,-578.39 1329.99,-581.62 1334.2,-587.21"/>
</a>
</g>
</g>
<!-- Node15 -->
<g id="Node000015" class="node">
<title>Node15</title>
<g id="a_Node000015"><a xlink:href="class_data_base_g_u_i.html#a33f2f95926f7b4b05227dcf395e235d3" target="_top" xlink:title="Populates the parent tab with a multimap of parents.">
<polygon fill="white" stroke="#666666" points="794.75,-566 674.5,-566 674.5,-534 794.75,-534 794.75,-566"/>
<text text-anchor="start" x="682.5" y="-552.5" font-family="Helvetica,sans-Serif" font-size="10.00">DataBaseGUI::populate</text>
<text text-anchor="middle" x="734.62" y="-540.5" font-family="Helvetica,sans-Serif" font-size="10.00">_parent_tab</text>
</a>
</g>
</g>
<!-- Node2&#45;&gt;Node15 -->
<g id="edge21_Node000002_Node000015" class="edge">
<title>Node2&#45;&gt;Node15</title>
<g id="a_edge21_Node000002_Node000015"><a xlink:title=" ">
<path fill="none" stroke="#63b8ff" d="M1298.27,-571.93C1198.55,-587.49 997.85,-611.16 830.75,-583 828.02,-582.54 804.77,-574.48 781.93,-566.44"/>
<polygon fill="#63b8ff" stroke="#63b8ff" points="1298.81,-575.39 1308.13,-570.37 1297.71,-568.48 1298.81,-575.39"/>
</a>
</g>
</g>
<!-- Node16 -->
<g id="Node000016" class="node">
<title>Node16</title>
<g id="a_Node000016"><a xlink:href="class_data_base_g_u_i.html#a739b2cf48c0cb6e3cab2da0a7bbd6d6d" target="_top" xlink:title="Populates the parent tab with a list of parents.">
<polygon fill="white" stroke="#666666" points="1274,-536 1153.75,-536 1153.75,-504 1274,-504 1274,-536"/>
<text text-anchor="start" x="1161.75" y="-522.5" font-family="Helvetica,sans-Serif" font-size="10.00">DataBaseGUI::populate</text>
<text text-anchor="middle" x="1213.88" y="-510.5" font-family="Helvetica,sans-Serif" font-size="10.00">_parent_tab</text>
</a>
</g>
</g>
<!-- Node2&#45;&gt;Node16 -->
<g id="edge22_Node000002_Node000016" class="edge">
<title>Node2&#45;&gt;Node16</title>
<g id="a_edge22_Node000002_Node000016"><a xlink:title=" ">
<path fill="none" stroke="#63b8ff" d="M1298.87,-543.59C1290.43,-541.22 1281.79,-538.79 1273.41,-536.44"/>
<polygon fill="#63b8ff" stroke="#63b8ff" points="1297.78,-546.92 1308.35,-546.25 1299.67,-540.18 1297.78,-546.92"/>
</a>
</g>
</g>
<!-- Node3&#45;&gt;Node3 -->
<g id="edge3_Node000003_Node000003" class="edge">
<title>Node3&#45;&gt;Node3</title>
<g id="a_edge3_Node000003_Node000003"><a xlink:title=" ">
<path fill="none" stroke="#63b8ff" d="M928.04,-661.44C924.37,-665.3 914.85,-668 899.5,-668 871.43,-668 862.87,-658.98 873.84,-650.34"/>
<polygon fill="#63b8ff" stroke="#63b8ff" points="931.44,-660.6 925.54,-651.8 924.67,-662.36 931.44,-660.6"/>
</a>
</g>
</g>
<!-- Node4 -->
<g id="Node000004" class="node">
<title>Node4</title>
<g id="a_Node000004"><a xlink:href="class_data_base_g_u_i.html#a74e047889e913eae69ec40ec17f53c9d" target="_top" xlink:title="Populates the lessons tab with a multimap of lessons.">
<polygon fill="white" stroke="#666666" points="301.25,-676 181,-676 181,-644 301.25,-644 301.25,-676"/>
<text text-anchor="start" x="189" y="-662.5" font-family="Helvetica,sans-Serif" font-size="10.00">DataBaseGUI::populate</text>
<text text-anchor="middle" x="241.12" y="-650.5" font-family="Helvetica,sans-Serif" font-size="10.00">_lesson_tab</text>
</a>
</g>
</g>
<!-- Node3&#45;&gt;Node4 -->
<g id="edge4_Node000003_Node000004" class="edge">
<title>Node3&#45;&gt;Node4</title>
<g id="a_edge4_Node000003_Node000004"><a xlink:title=" ">
<path fill="none" stroke="#63b8ff" d="M849.92,-653.07C832.64,-657.1 812.95,-661.01 794.75,-663 616.16,-682.56 403.17,-671.9 301.65,-664.76"/>
<polygon fill="#63b8ff" stroke="#63b8ff" points="850.52,-656.52 859.42,-650.77 848.87,-649.72 850.52,-656.52"/>
</a>
</g>
</g>
<!-- Node5 -->
<g id="Node000005" class="node">
<title>Node5</title>
<g id="a_Node000005"><a xlink:href="class_data_base_g_u_i.html#aa6b02e4e81b0113fb1c75d7d5ef0be59" target="_top" xlink:title="Populates the lessons tab with a list of lessons.">
<polygon fill="white" stroke="#666666" points="794.75,-654 674.5,-654 674.5,-622 794.75,-622 794.75,-654"/>
<text text-anchor="start" x="682.5" y="-640.5" font-family="Helvetica,sans-Serif" font-size="10.00">DataBaseGUI::populate</text>
<text text-anchor="middle" x="734.62" y="-628.5" font-family="Helvetica,sans-Serif" font-size="10.00">_lesson_tab</text>
</a>
</g>
</g>
<!-- Node3&#45;&gt;Node5 -->
<g id="edge5_Node000003_Node000005" class="edge">
<title>Node3&#45;&gt;Node5</title>
<g id="a_edge5_Node000003_Node000005"><a xlink:title=" ">
<path fill="none" stroke="#63b8ff" d="M819.06,-639.02C811.03,-638.93 802.97,-638.83 795.2,-638.73"/>
<polygon fill="#63b8ff" stroke="#63b8ff" points="818.81,-642.52 828.86,-639.14 818.9,-635.52 818.81,-642.52"/>
</a>
</g>
</g>
<!-- Node6 -->
<g id="Node000006" class="node">
<title>Node6</title>
<g id="a_Node000006"><a xlink:href="class_data_base_g_u_i.html#a55b3c6d3607f17f55d4c321e97fdce7f" target="_top" xlink:title="Searches for lessons based on the provided child name and surname.">
<polygon fill="white" stroke="#666666" points="628.75,-611 516.75,-611 516.75,-579 628.75,-579 628.75,-611"/>
<text text-anchor="start" x="524.75" y="-597.5" font-family="Helvetica,sans-Serif" font-size="10.00">DataBaseGUI::lesson</text>
<text text-anchor="middle" x="572.75" y="-585.5" font-family="Helvetica,sans-Serif" font-size="10.00">_search</text>
</a>
</g>
</g>
<!-- Node5&#45;&gt;Node6 -->
<g id="edge6_Node000005_Node000006" class="edge">
<title>Node5&#45;&gt;Node6</title>
<g id="a_edge6_Node000005_Node000006"><a xlink:title=" ">
<path fill="none" stroke="#63b8ff" d="M663.24,-619.07C651.81,-615.99 640.11,-612.85 629.1,-609.89"/>
<polygon fill="#63b8ff" stroke="#63b8ff" points="662.07,-622.38 672.63,-621.6 663.88,-615.62 662.07,-622.38"/>
</a>
</g>
</g>
<!-- Node10 -->
<g id="Node000010" class="node">
<title>Node10</title>
<g id="a_Node000010"><a xlink:href="class_data_base_g_u_i.html#a1ad152b7becf3e0051cdd5dbae6d4abc" target="_top" xlink:title="Selects the appropriate sorting to use based on lesson sort index.">
<polygon fill="white" stroke="#666666" points="629.5,-561 516,-561 516,-529 629.5,-529 629.5,-561"/>
<text text-anchor="start" x="524" y="-547.5" font-family="Helvetica,sans-Serif" font-size="10.00">DataBaseGUI::sort_to</text>
<text text-anchor="middle" x="572.75" y="-535.5" font-family="Helvetica,sans-Serif" font-size="10.00">_populate_lesson_tab</text>
</a>
</g>
</g>
<!-- Node5&#45;&gt;Node10 -->
<g id="edge10_Node000005_Node000010" class="edge">
<title>Node5&#45;&gt;Node10</title>
<g id="a_edge10_Node000005_Node000010"><a xlink:title=" ">
<path fill="none" stroke="#63b8ff" d="M686.59,-616.05C682.38,-613.52 678.29,-610.83 674.5,-608 655.85,-594.09 657.83,-582.95 638.5,-570 633.8,-566.85 628.64,-564.01 623.35,-561.48"/>
<polygon fill="#63b8ff" stroke="#63b8ff" points="684.76,-619.03 695.19,-620.89 688.19,-612.93 684.76,-619.03"/>
</a>
</g>
</g>
<!-- Node6&#45;&gt;Node7 -->
<g id="edge7_Node000006_Node000007" class="edge">
<title>Node6&#45;&gt;Node7</title>
<g id="a_edge7_Node000006_Node000007"><a xlink:title=" ">
<path fill="none" stroke="#63b8ff" d="M505.23,-604.71C454.65,-608.45 385.74,-605.35 337.25,-571 269.24,-522.82 248.37,-413.09 243.43,-379.18"/>
<polygon fill="#63b8ff" stroke="#63b8ff" points="505.53,-608.2 515.19,-603.85 504.93,-601.22 505.53,-608.2"/>
</a>
</g>
</g>
<!-- Node8 -->
<g id="Node000008" class="node">
<title>Node8</title>
<g id="a_Node000008"><a xlink:href="class_data_base_g_u_i.html#a2c83afe3a30fb5166d275d9a74d33196" target="_top" xlink:title="Default constructor.">
<polygon fill="white" stroke="#666666" points="145,-398 0,-398 0,-378 145,-378 145,-398"/>
<text text-anchor="middle" x="72.5" y="-384.5" font-family="Helvetica,sans-Serif" font-size="10.00">DataBaseGUI::DataBaseGUI</text>
</a>
</g>
</g>
<!-- Node7&#45;&gt;Node8 -->
<g id="edge8_Node000007_Node000008" class="edge">
<title>Node7&#45;&gt;Node8</title>
<g id="a_edge8_Node000007_Node000008"><a xlink:title=" ">
<path fill="none" stroke="#63b8ff" d="M175.53,-376.37C165.64,-377.49 155.37,-378.67 145.32,-379.81"/>
<polygon fill="#63b8ff" stroke="#63b8ff" points="175.9,-379.85 185.44,-375.24 175.11,-372.89 175.9,-379.85"/>
</a>
</g>
</g>
<!-- Node9 -->
<g id="Node000009" class="node">
<title>Node9</title>
<g id="a_Node000009"><a xlink:href="class_data_base_g_u_i.html#aba10d1d8e9fb151632ff34de418cee82" target="_top" xlink:title="Constructs a DataBaseGUI object.">
<polygon fill="white" stroke="#666666" points="145,-360 0,-360 0,-340 145,-340 145,-360"/>
<text text-anchor="middle" x="72.5" y="-346.5" font-family="Helvetica,sans-Serif" font-size="10.00">DataBaseGUI::DataBaseGUI</text>
</a>
</g>
</g>
<!-- Node7&#45;&gt;Node9 -->
<g id="edge9_Node000007_Node000009" class="edge">
<title>Node7&#45;&gt;Node9</title>
<g id="a_edge9_Node000007_Node000009"><a xlink:title=" ">
<path fill="none" stroke="#63b8ff" d="M175.53,-361.63C165.64,-360.51 155.37,-359.33 145.32,-358.19"/>
<polygon fill="#63b8ff" stroke="#63b8ff" points="175.11,-365.11 185.44,-362.76 175.9,-358.15 175.11,-365.11"/>
</a>
</g>
</g>
<!-- Node10&#45;&gt;Node3 -->
<g id="edge18_Node000010_Node000003" class="edge">
<title>Node10&#45;&gt;Node3</title>
<g id="a_edge18_Node000010_Node000003"><a xlink:title=" ">
<path fill="none" stroke="#63b8ff" d="M639.83,-564.75C651.38,-568.18 663.29,-571.7 674.5,-575 740.74,-594.47 818.11,-616.84 862.4,-629.61"/>
<polygon fill="#63b8ff" stroke="#63b8ff" points="640.93,-561.42 630.35,-561.93 638.93,-568.13 640.93,-561.42"/>
</a>
</g>
</g>
<!-- Node11 -->
<g id="Node000011" class="node">
<title>Node11</title>
<g id="a_Node000011"><a xlink:href="class_data_base_g_u_i.html#a778bdaec7f9281df4c0ead66c9dcffd2" target="_top" xlink:title="Adds a new lesson to the database.">
<polygon fill="white" stroke="#666666" points="470.62,-512 337.62,-512 337.62,-492 470.62,-492 470.62,-512"/>
<text text-anchor="middle" x="404.12" y="-498.5" font-family="Helvetica,sans-Serif" font-size="10.00">DataBaseGUI::lesson_add</text>
</a>
</g>
</g>
<!-- Node10&#45;&gt;Node11 -->
<g id="edge11_Node000010_Node000011" class="edge">
<title>Node10&#45;&gt;Node11</title>
<g id="a_edge11_Node000010_Node000011"><a xlink:title=" ">
<path fill="none" stroke="#63b8ff" d="M504.84,-527.73C484.8,-522.56 463.44,-517.05 445.65,-512.46"/>
<polygon fill="#63b8ff" stroke="#63b8ff" points="503.78,-531.07 514.34,-530.18 505.53,-524.3 503.78,-531.07"/>
</a>
</g>
</g>
<!-- Node12 -->
<g id="Node000012" class="node">
<title>Node12</title>
<g id="a_Node000012"><a xlink:href="class_data_base_g_u_i.html#a66a3e89a9852de3522d98f2c1f8cdeed" target="_top" xlink:title="Removes a lesson from the database.">
<polygon fill="white" stroke="#666666" points="460.12,-654 348.12,-654 348.12,-622 460.12,-622 460.12,-654"/>
<text text-anchor="start" x="356.12" y="-640.5" font-family="Helvetica,sans-Serif" font-size="10.00">DataBaseGUI::lesson</text>
<text text-anchor="middle" x="404.12" y="-628.5" font-family="Helvetica,sans-Serif" font-size="10.00">_remove</text>
</a>
</g>
</g>
<!-- Node10&#45;&gt;Node12 -->
<g id="edge13_Node000010_Node000012" class="edge">
<title>Node10&#45;&gt;Node12</title>
<g id="a_edge13_Node000010_Node000012"><a xlink:title=" ">
<path fill="none" stroke="#63b8ff" d="M515.24,-565.96C512.43,-567.27 509.67,-568.62 507,-570 477.74,-585.18 446.57,-606.9 426.52,-621.69"/>
<polygon fill="#63b8ff" stroke="#63b8ff" points="516.45,-569.25 524.18,-562 513.62,-562.85 516.45,-569.25"/>
</a>
</g>
</g>
<!-- Node13 -->
<g id="Node000013" class="node">
<title>Node13</title>
<g id="a_Node000013"><a xlink:href="class_data_base_g_u_i.html#a0478b87f545d97b9e3ef55858242878b" target="_top" xlink:title="Changes the sorting method for lessons.">
<polygon fill="white" stroke="#666666" points="460.12,-562 348.12,-562 348.12,-530 460.12,-530 460.12,-562"/>
<text text-anchor="start" x="356.12" y="-548.5" font-family="Helvetica,sans-Serif" font-size="10.00">DataBaseGUI::lesson</text>
<text text-anchor="middle" x="404.12" y="-536.5" font-family="Helvetica,sans-Serif" font-size="10.00">_sort_change</text>
</a>
</g>
</g>
<!-- Node10&#45;&gt;Node13 -->
<g id="edge16_Node000010_Node000013" class="edge">
<title>Node10&#45;&gt;Node13</title>
<g id="a_edge16_Node000010_Node000013"><a xlink:title=" ">
<path fill="none" stroke="#63b8ff" d="M504.71,-545.4C489.99,-545.49 474.56,-545.58 460.36,-545.67"/>
<polygon fill="#63b8ff" stroke="#63b8ff" points="504.31,-548.9 514.29,-545.34 504.27,-541.91 504.31,-548.9"/>
</a>
</g>
</g>
<!-- Node14 -->
<g id="Node000014" class="node">
<title>Node14</title>
<g id="a_Node000014"><a xlink:href="class_data_base_g_u_i.html#a438b5070d6a58ffa5e884d18740852c6" target="_top" xlink:title="Handles tab change events.">
<polygon fill="white" stroke="#666666" points="471,-474 337.25,-474 337.25,-454 471,-454 471,-474"/>
<text text-anchor="middle" x="404.12" y="-460.5" font-family="Helvetica,sans-Serif" font-size="10.00">DataBaseGUI::tab_change</text>
</a>
</g>
</g>
<!-- Node10&#45;&gt;Node14 -->
<g id="edge19_Node000010_Node000014" class="edge">
<title>Node10&#45;&gt;Node14</title>
<g id="a_edge19_Node000010_Node000014"><a xlink:title=" ">
<path fill="none" stroke="#63b8ff" d="M539.67,-522.15C520.46,-509.27 495.15,-493.68 471,-483 463.6,-479.73 455.48,-476.85 447.55,-474.4"/>
<polygon fill="#63b8ff" stroke="#63b8ff" points="537.64,-525 547.87,-527.74 541.58,-519.21 537.64,-525"/>
</a>
</g>
</g>
<!-- Node11&#45;&gt;Node7 -->
<g id="edge12_Node000011_Node000007" class="edge">
<title>Node11&#45;&gt;Node7</title>
<g id="a_edge12_Node000011_Node000007"><a xlink:title=" ">
<path fill="none" stroke="#63b8ff" d="M344.24,-487.04C341.82,-485.8 339.48,-484.45 337.25,-483 294.29,-454.97 260.64,-401.63 247.78,-379.27"/>
<polygon fill="#63b8ff" stroke="#63b8ff" points="342.57,-490.13 353.13,-490.99 345.42,-483.74 342.57,-490.13"/>
</a>
</g>
</g>
<!-- Node12&#45;&gt;Node4 -->
<g id="edge14_Node000012_Node000004" class="edge">
<title>Node12&#45;&gt;Node4</title>
<g id="a_edge14_Node000012_Node000004"><a xlink:title=" ">
<path fill="none" stroke="#63b8ff" d="M336.33,-647.13C324.77,-648.71 312.82,-650.34 301.48,-651.89"/>
<polygon fill="#63b8ff" stroke="#63b8ff" points="336.78,-650.6 346.22,-645.78 335.84,-643.66 336.78,-650.6"/>
</a>
</g>
</g>
<!-- Node12&#45;&gt;Node5 -->
<g id="edge15_Node000012_Node000005" class="edge">
<title>Node12&#45;&gt;Node5</title>
<g id="a_edge15_Node000012_Node000005"><a xlink:title=" ">
<path fill="none" stroke="#63b8ff" d="M472.11,-638C531.43,-638 617.2,-638 674.14,-638"/>
<polygon fill="#63b8ff" stroke="#63b8ff" points="472.13,-634.5 462.13,-638 472.13,-641.5 472.13,-634.5"/>
</a>
</g>
</g>
<!-- Node13&#45;&gt;Node7 -->
<g id="edge17_Node000013_Node000007" class="edge">
<title>Node13&#45;&gt;Node7</title>
<g id="a_edge17_Node000013_Node000007"><a xlink:title=" ">
<path fill="none" stroke="#63b8ff" d="M340.71,-523.66C339.52,-522.8 338.37,-521.92 337.25,-521 287.68,-480.32 256.29,-406.69 245.92,-379.47"/>
<polygon fill="#63b8ff" stroke="#63b8ff" points="338.69,-526.52 349.03,-528.83 342.38,-520.58 338.69,-526.52"/>
</a>
</g>
</g>
<!-- Node14&#45;&gt;Node7 -->
<g id="edge20_Node000014_Node000007" class="edge">
<title>Node14&#45;&gt;Node7</title>
<g id="a_edge20_Node000014_Node000007"><a xlink:title=" ">
<path fill="none" stroke="#63b8ff" d="M358.11,-449.6C350.98,-446.75 343.8,-443.54 337.25,-440 304.61,-422.37 270.84,-394.43 253.67,-379.4"/>
<polygon fill="#63b8ff" stroke="#63b8ff" points="356.44,-452.71 367.03,-452.97 358.91,-446.16 356.44,-452.71"/>
</a>
</g>
</g>
<!-- Node17 -->
<g id="Node000017" class="node">
<title>Node17</title>
<g id="a_Node000017"><a xlink:href="class_data_base_g_u_i.html#a7c3d843eec449d8a4ec5ce6bf0375358" target="_top" xlink:title="Searches for parents based on the provided name and surname.">
<polygon fill="white" stroke="#666666" points="1116.25,-372 1005.75,-372 1005.75,-340 1116.25,-340 1116.25,-372"/>
<text text-anchor="start" x="1013.75" y="-358.5" font-family="Helvetica,sans-Serif" font-size="10.00">DataBaseGUI::parent</text>
<text text-anchor="middle" x="1061" y="-346.5" font-family="Helvetica,sans-Serif" font-size="10.00">_search</text>
</a>
</g>
</g>
<!-- Node16&#45;&gt;Node17 -->
<g id="edge23_Node000016_Node000017" class="edge">
<title>Node16&#45;&gt;Node17</title>
<g id="a_edge23_Node000016_Node000017"><a xlink:title=" ">
<path fill="none" stroke="#63b8ff" d="M1190.09,-495.23C1158.81,-461.24 1103.46,-401.07 1076.96,-372.26"/>
<polygon fill="#63b8ff" stroke="#63b8ff" points="1187.49,-497.57 1196.83,-502.56 1192.64,-492.83 1187.49,-497.57"/>
</a>
</g>
</g>
<!-- Node27 -->
<g id="Node000027" class="node">
<title>Node27</title>
<g id="a_Node000027"><a xlink:href="class_data_base_g_u_i.html#a625b5e2018395a458ff517bbf364e1bf" target="_top" xlink:title="Selects the appropriate sorting to use based on parent sort index.">
<polygon fill="white" stroke="#666666" points="1117.75,-492 1004.25,-492 1004.25,-460 1117.75,-460 1117.75,-492"/>
<text text-anchor="start" x="1012.25" y="-478.5" font-family="Helvetica,sans-Serif" font-size="10.00">DataBaseGUI::sort_to</text>
<text text-anchor="middle" x="1061" y="-466.5" font-family="Helvetica,sans-Serif" font-size="10.00">_populate_parent_tab</text>
</a>
</g>
</g>
<!-- Node16&#45;&gt;Node27 -->
<g id="edge44_Node000016_Node000027" class="edge">
<title>Node16&#45;&gt;Node27</title>
<g id="a_edge44_Node000016_Node000027"><a xlink:title=" ">
<path fill="none" stroke="#63b8ff" d="M1145.64,-500.39C1136.48,-497.72 1127.16,-495 1118.23,-492.4"/>
<polygon fill="#63b8ff" stroke="#63b8ff" points="1144.66,-503.75 1155.24,-503.19 1146.62,-497.03 1144.66,-503.75"/>
</a>
</g>
</g>
<!-- Node17&#45;&gt;Node7 -->
<g id="edge43_Node000017_Node000007" class="edge">
<title>Node17&#45;&gt;Node7</title>
<g id="a_edge43_Node000017_Node000007"><a xlink:title=" ">
<path fill="none" stroke="#63b8ff" d="M994.1,-354.07C928.56,-352.31 825.16,-350 735.62,-350 735.62,-350 735.62,-350 571.75,-350 474.02,-350 360.25,-358.43 295.16,-364.06"/>
<polygon fill="#63b8ff" stroke="#63b8ff" points="993.88,-357.56 1003.97,-354.34 994.07,-350.56 993.88,-357.56"/>
</a>
</g>
</g>
<!-- Node18 -->
<g id="Node000018" class="node">
<title>Node18</title>
<g id="a_Node000018"><a xlink:href="class_data_base_g_u_i.html#a8e1fe573ef6a09e112989968ec1a2b43" target="_top" xlink:title="Searches for parents based on the provided parent pointer.">
<polygon fill="white" stroke="#666666" points="954.75,-187 844.25,-187 844.25,-155 954.75,-155 954.75,-187"/>
<text text-anchor="start" x="852.25" y="-173.5" font-family="Helvetica,sans-Serif" font-size="10.00">DataBaseGUI::parent</text>
<text text-anchor="middle" x="899.5" y="-161.5" font-family="Helvetica,sans-Serif" font-size="10.00">_search_by_pointer</text>
</a>
</g>
</g>
<!-- Node17&#45;&gt;Node18 -->
<g id="edge24_Node000017_Node000018" class="edge">
<title>Node17&#45;&gt;Node18</title>
<g id="a_edge24_Node000017_Node000018"><a xlink:title=" ">
<path fill="none" stroke="#63b8ff" d="M1038.47,-331.03C1005.3,-292.56 942.62,-219.85 914.62,-187.38"/>
<polygon fill="#63b8ff" stroke="#63b8ff" points="1035.68,-333.15 1044.86,-338.44 1040.98,-328.58 1035.68,-333.15"/>
</a>
</g>
</g>
<!-- Node19 -->
<g id="Node000019" class="node">
<title>Node19</title>
<g id="a_Node000019"><a xlink:href="class_data_base_g_u_i.html#a334c0011a9d3a71539b326a888feccd3" target="_top" xlink:title="Populates the children tab with a multimap of children.">
<polygon fill="white" stroke="#666666" points="301.25,-64 181,-64 181,-32 301.25,-32 301.25,-64"/>
<text text-anchor="start" x="189" y="-50.5" font-family="Helvetica,sans-Serif" font-size="10.00">DataBaseGUI::populate</text>
<text text-anchor="middle" x="241.12" y="-38.5" font-family="Helvetica,sans-Serif" font-size="10.00">_children_tab</text>
</a>
</g>
</g>
<!-- Node18&#45;&gt;Node19 -->
<g id="edge25_Node000018_Node000019" class="edge">
<title>Node18&#45;&gt;Node19</title>
<g id="a_edge25_Node000018_Node000019"><a xlink:title=" ">
<path fill="none" stroke="#63b8ff" d="M832.52,-170.59C787.46,-169.06 726.7,-164.5 674.5,-152 596.37,-133.28 580.58,-116.28 507,-84 490.8,-76.89 488.09,-71.58 471,-67 414.77,-51.92 348.24,-47.86 301.44,-47.16"/>
<polygon fill="#63b8ff" stroke="#63b8ff" points="832.3,-174.09 842.4,-170.88 832.51,-167.09 832.3,-174.09"/>
</a>
</g>
</g>
<!-- Node20 -->
<g id="Node000020" class="node">
<title>Node20</title>
<g id="a_Node000020"><a xlink:href="class_data_base_g_u_i.html#af346d08370d9e4574980707f61b9c8f7" target="_top" xlink:title="Populates the children tab with a list of children.">
<polygon fill="white" stroke="#666666" points="794.75,-143 674.5,-143 674.5,-111 794.75,-111 794.75,-143"/>
<text text-anchor="start" x="682.5" y="-129.5" font-family="Helvetica,sans-Serif" font-size="10.00">DataBaseGUI::populate</text>
<text text-anchor="middle" x="734.62" y="-117.5" font-family="Helvetica,sans-Serif" font-size="10.00">_children_tab</text>
</a>
</g>
</g>
<!-- Node18&#45;&gt;Node20 -->
<g id="edge26_Node000018_Node000020" class="edge">
<title>Node18&#45;&gt;Node20</title>
<g id="a_edge26_Node000018_Node000020"><a xlink:title=" ">
<path fill="none" stroke="#63b8ff" d="M833,-153.31C820.51,-149.93 807.5,-146.42 795.2,-143.09"/>
<polygon fill="#63b8ff" stroke="#63b8ff" points="831.78,-156.6 842.35,-155.83 833.61,-149.84 831.78,-156.6"/>
</a>
</g>
</g>
<!-- Node20&#45;&gt;Node1 -->
<g id="edge27_Node000020_Node000001" class="edge">
<title>Node20&#45;&gt;Node1</title>
<g id="a_edge27_Node000020_Node000001"><a xlink:title=" ">
<path fill="none" stroke="#63b8ff" d="M806.56,-127C872.28,-127 972.74,-127 1060,-127 1214.88,-127 1214.88,-127 1214.88,-127 1338.39,-127 1450.69,-250.31 1487.76,-295.58"/>
<polygon fill="#63b8ff" stroke="#63b8ff" points="806.63,-123.5 796.63,-127 806.63,-130.5 806.63,-123.5"/>
</a>
</g>
</g>
<!-- Node20&#45;&gt;Node7 -->
<g id="edge28_Node000020_Node000007" class="edge">
<title>Node20&#45;&gt;Node7</title>
<g id="a_edge28_Node000020_Node000007"><a xlink:title=" ">
<path fill="none" stroke="#63b8ff" d="M662.8,-123.51C563.16,-119.99 388.05,-119.38 337.25,-155 265.34,-205.42 247.06,-323.11 243.1,-358.65"/>
<polygon fill="#63b8ff" stroke="#63b8ff" points="662.63,-127 672.76,-123.88 662.9,-120.01 662.63,-127"/>
</a>
</g>
</g>
<!-- Node21 -->
<g id="Node000021" class="node">
<title>Node21</title>
<g id="a_Node000021"><a xlink:href="class_data_base_g_u_i.html#aa684465aa73b5b34bbadd24fc7f2f641" target="_top" xlink:title="Selects the appropriate sorting to use based on child sort index.">
<polygon fill="white" stroke="#666666" points="630.62,-231 514.88,-231 514.88,-199 630.62,-199 630.62,-231"/>
<text text-anchor="start" x="522.88" y="-217.5" font-family="Helvetica,sans-Serif" font-size="10.00">DataBaseGUI::sort_to</text>
<text text-anchor="middle" x="572.75" y="-205.5" font-family="Helvetica,sans-Serif" font-size="10.00">_populate_children_tab</text>
</a>
</g>
</g>
<!-- Node20&#45;&gt;Node21 -->
<g id="edge29_Node000020_Node000021" class="edge">
<title>Node20&#45;&gt;Node21</title>
<g id="a_edge29_Node000020_Node000021"><a xlink:title=" ">
<path fill="none" stroke="#63b8ff" d="M694.05,-148.78C666.05,-164.19 629.09,-184.54 603.56,-198.59"/>
<polygon fill="#63b8ff" stroke="#63b8ff" points="695.53,-151.96 702.6,-144.08 692.15,-145.83 695.53,-151.96"/>
</a>
</g>
</g>
<!-- Node21&#45;&gt;Node14 -->
<g id="edge42_Node000021_Node000014" class="edge">
<title>Node21&#45;&gt;Node14</title>
<g id="a_edge42_Node000021_Node000014"><a xlink:title=" ">
<path fill="none" stroke="#63b8ff" d="M554.44,-240.86C518.39,-294.74 436.55,-417.03 412.13,-453.53"/>
<polygon fill="#63b8ff" stroke="#63b8ff" points="557.32,-242.85 559.98,-232.6 551.51,-238.96 557.32,-242.85"/>
</a>
</g>
</g>
<!-- Node22 -->
<g id="Node000022" class="node">
<title>Node22</title>
<g id="a_Node000022"><a xlink:href="class_data_base_g_u_i.html#a00f9044d3b8dd9c5dada244dac1b0df6" target="_top" xlink:title="Adds a new child to the database.">
<polygon fill="white" stroke="#666666" points="466.5,-184 341.75,-184 341.75,-164 466.5,-164 466.5,-184"/>
<text text-anchor="middle" x="404.12" y="-170.5" font-family="Helvetica,sans-Serif" font-size="10.00">DataBaseGUI::child_add</text>
</a>
</g>
</g>
<!-- Node21&#45;&gt;Node22 -->
<g id="edge30_Node000021_Node000022" class="edge">
<title>Node21&#45;&gt;Node22</title>
<g id="a_edge30_Node000021_Node000022"><a xlink:title=" ">
<path fill="none" stroke="#63b8ff" d="M503.43,-198.19C484.52,-193.54 464.54,-188.62 447.57,-184.44"/>
<polygon fill="#63b8ff" stroke="#63b8ff" points="502.39,-201.54 512.94,-200.53 504.06,-194.74 502.39,-201.54"/>
</a>
</g>
</g>
<!-- Node23 -->
<g id="Node000023" class="node">
<title>Node23</title>
<g id="a_Node000023"><a xlink:href="class_data_base_g_u_i.html#acb6c6b292e58d0ead30682f7f5705244" target="_top" xlink:title="Edits an existing child in the database.">
<polygon fill="white" stroke="#666666" points="466.5,-20 341.75,-20 341.75,0 466.5,0 466.5,-20"/>
<text text-anchor="middle" x="404.12" y="-6.5" font-family="Helvetica,sans-Serif" font-size="10.00">DataBaseGUI::child_edit</text>
</a>
</g>
</g>
<!-- Node21&#45;&gt;Node23 -->
<g id="edge32_Node000021_Node000023" class="edge">
<title>Node21&#45;&gt;Node23</title>
<g id="a_edge32_Node000021_Node000023"><a xlink:title=" ">
<path fill="none" stroke="#63b8ff" d="M557.11,-189.37C538.96,-158.66 506.1,-106.42 471,-67 454.91,-48.93 433.2,-31.18 419.18,-20.41"/>
<polygon fill="#63b8ff" stroke="#63b8ff" points="553.86,-190.73 561.92,-197.6 559.9,-187.2 553.86,-190.73"/>
</a>
</g>
</g>
<!-- Node24 -->
<g id="Node000024" class="node">
<title>Node24</title>
<g id="a_Node000024"><a xlink:href="class_data_base_g_u_i.html#ae3a08843db874e51a7cea32fa8937ca5" target="_top" xlink:title="Removes a child from the database.">
<polygon fill="white" stroke="#666666" points="456,-108 352.25,-108 352.25,-76 456,-76 456,-108"/>
<text text-anchor="start" x="360.25" y="-94.5" font-family="Helvetica,sans-Serif" font-size="10.00">DataBaseGUI::child</text>
<text text-anchor="middle" x="404.12" y="-82.5" font-family="Helvetica,sans-Serif" font-size="10.00">_remove</text>
</a>
</g>
</g>
<!-- Node21&#45;&gt;Node24 -->
<g id="edge35_Node000021_Node000024" class="edge">
<title>Node21&#45;&gt;Node24</title>
<g id="a_edge35_Node000021_Node000024"><a xlink:title=" ">
<path fill="none" stroke="#63b8ff" d="M521.2,-193.44C516.28,-190.8 511.47,-187.97 507,-185 488.95,-173 445.5,-131.48 421.59,-108.18"/>
<polygon fill="#63b8ff" stroke="#63b8ff" points="519.49,-196.5 529.99,-197.92 522.66,-190.26 519.49,-196.5"/>
</a>
</g>
</g>
<!-- Node25 -->
<g id="Node000025" class="node">
<title>Node25</title>
<g id="a_Node000025"><a xlink:href="class_data_base_g_u_i.html#a2e6d3629f679c153cdd21b683ce794a1" target="_top" xlink:title="Changes the sorting method for children.">
<polygon fill="white" stroke="#666666" points="456,-234 352.25,-234 352.25,-202 456,-202 456,-234"/>
<text text-anchor="start" x="360.25" y="-220.5" font-family="Helvetica,sans-Serif" font-size="10.00">DataBaseGUI::child</text>
<text text-anchor="middle" x="404.12" y="-208.5" font-family="Helvetica,sans-Serif" font-size="10.00">_sort_change</text>
</a>
</g>
</g>
<!-- Node21&#45;&gt;Node25 -->
<g id="edge38_Node000021_Node000025" class="edge">
<title>Node21&#45;&gt;Node25</title>
<g id="a_edge38_Node000021_Node000025"><a xlink:title=" ">
<path fill="none" stroke="#63b8ff" d="M503.18,-216.23C487.55,-216.52 471.2,-216.81 456.43,-217.08"/>
<polygon fill="#63b8ff" stroke="#63b8ff" points="502.96,-219.74 512.89,-216.06 502.83,-212.74 502.96,-219.74"/>
</a>
</g>
</g>
<!-- Node26 -->
<g id="Node000026" class="node">
<title>Node26</title>
<g id="a_Node000026"><a xlink:href="class_data_base_g_u_i.html#a20d1ece0affaa1f5b6876ee072dd2ab1" target="_top" xlink:title="Imports a database from a file.">
<polygon fill="white" stroke="#666666" points="459.38,-284 348.88,-284 348.88,-252 459.38,-252 459.38,-284"/>
<text text-anchor="start" x="356.88" y="-270.5" font-family="Helvetica,sans-Serif" font-size="10.00">DataBaseGUI::import</text>
<text text-anchor="middle" x="404.12" y="-258.5" font-family="Helvetica,sans-Serif" font-size="10.00">_database</text>
</a>
</g>
</g>
<!-- Node21&#45;&gt;Node26 -->
<g id="edge40_Node000021_Node000026" class="edge">
<title>Node21&#45;&gt;Node26</title>
<g id="a_edge40_Node000021_Node000026"><a xlink:title=" ">
<path fill="none" stroke="#63b8ff" d="M509.37,-234.84C492.09,-240.34 473.51,-246.25 456.9,-251.53"/>
<polygon fill="#63b8ff" stroke="#63b8ff" points="510.03,-238.3 518.5,-231.94 507.91,-231.63 510.03,-238.3"/>
</a>
</g>
</g>
<!-- Node22&#45;&gt;Node7 -->
<g id="edge31_Node000022_Node000007" class="edge">
<title>Node22&#45;&gt;Node7</title>
<g id="a_edge31_Node000022_Node000007"><a xlink:title=" ">
<path fill="none" stroke="#63b8ff" d="M341.41,-189.96C339.97,-190.91 338.58,-191.93 337.25,-193 280.17,-238.97 252.56,-328.72 244.62,-358.86"/>
<polygon fill="#63b8ff" stroke="#63b8ff" points="343.06,-193.05 350.15,-185.17 339.7,-186.91 343.06,-193.05"/>
</a>
</g>
</g>
<!-- Node23&#45;&gt;Node19 -->
<g id="edge33_Node000023_Node000019" class="edge">
<title>Node23&#45;&gt;Node19</title>
<g id="a_edge33_Node000023_Node000019"><a xlink:title=" ">
<path fill="none" stroke="#63b8ff" d="M347.6,-23.1C332.72,-26.62 316.56,-30.43 301.47,-33.99"/>
<polygon fill="#63b8ff" stroke="#63b8ff" points="348.3,-26.54 357.23,-20.83 346.7,-19.72 348.3,-26.54"/>
</a>
</g>
</g>
<!-- Node23&#45;&gt;Node20 -->
<g id="edge34_Node000023_Node000020" class="edge">
<title>Node23&#45;&gt;Node20</title>
<g id="a_edge34_Node000023_Node000020"><a xlink:title=" ">
<path fill="none" stroke="#63b8ff" d="M445.06,-24.22C506.27,-46.02 622.94,-87.58 687.6,-110.61"/>
<polygon fill="#63b8ff" stroke="#63b8ff" points="446.33,-20.96 435.73,-20.9 443.98,-27.55 446.33,-20.96"/>
</a>
</g>
</g>
<!-- Node24&#45;&gt;Node19 -->
<g id="edge36_Node000024_Node000019" class="edge">
<title>Node24&#45;&gt;Node19</title>
<g id="a_edge36_Node000024_Node000019"><a xlink:title=" ">
<path fill="none" stroke="#63b8ff" d="M341.44,-75.14C328.41,-71.58 314.68,-67.83 301.73,-64.29"/>
<polygon fill="#63b8ff" stroke="#63b8ff" points="340.15,-78.42 350.72,-77.68 342,-71.67 340.15,-78.42"/>
</a>
</g>
</g>
<!-- Node24&#45;&gt;Node20 -->
<g id="edge37_Node000024_Node000020" class="edge">
<title>Node24&#45;&gt;Node20</title>
<g id="a_edge37_Node000024_Node000020"><a xlink:title=" ">
<path fill="none" stroke="#63b8ff" d="M467.45,-98.64C526.86,-104.97 615.69,-114.43 674.14,-120.66"/>
<polygon fill="#63b8ff" stroke="#63b8ff" points="468.17,-95.2 457.85,-97.62 467.43,-102.16 468.17,-95.2"/>
</a>
</g>
</g>
<!-- Node25&#45;&gt;Node7 -->
<g id="edge39_Node000025_Node000007" class="edge">
<title>Node25&#45;&gt;Node7</title>
<g id="a_edge39_Node000025_Node000007"><a xlink:title=" ">
<path fill="none" stroke="#63b8ff" d="M342.06,-239.66C340.41,-240.73 338.8,-241.84 337.25,-243 293.17,-276.05 259.67,-334.88 247.31,-358.63"/>
<polygon fill="#63b8ff" stroke="#63b8ff" points="343.66,-242.78 350.64,-234.8 340.21,-236.69 343.66,-242.78"/>
</a>
</g>
</g>
<!-- Node26&#45;&gt;Node7 -->
<g id="edge41_Node000026_Node000007" class="edge">
<title>Node26&#45;&gt;Node7</title>
<g id="a_edge41_Node000026_Node000007"><a xlink:title=" ">
<path fill="none" stroke="#63b8ff" d="M353.44,-289.24C347.89,-292.02 342.39,-294.96 337.25,-298 305.5,-316.78 271.64,-344.01 254.15,-358.69"/>
<polygon fill="#63b8ff" stroke="#63b8ff" points="354.56,-292.58 362.05,-285.08 351.52,-286.27 354.56,-292.58"/>
</a>
</g>
</g>
<!-- Node27&#45;&gt;Node14 -->
<g id="edge55_Node000027_Node000014" class="edge">
<title>Node27&#45;&gt;Node14</title>
<g id="a_edge55_Node000027_Node000014"><a xlink:title=" ">
<path fill="none" stroke="#63b8ff" d="M992.5,-474.76C866.38,-472.45 596.45,-467.51 471.33,-465.21"/>
<polygon fill="#63b8ff" stroke="#63b8ff" points="992.31,-478.26 1002.37,-474.94 992.44,-471.26 992.31,-478.26"/>
</a>
</g>
</g>
<!-- Node28 -->
<g id="Node000028" class="node">
<title>Node28</title>
<g id="a_Node000028"><a xlink:href="class_data_base_g_u_i.html#a336fa47d9a9e56d585d82f53d33e8593" target="_top" xlink:title="Adds a new parent to the database.">
<polygon fill="white" stroke="#666666" points="638.5,-442 507,-442 507,-422 638.5,-422 638.5,-442"/>
<text text-anchor="middle" x="572.75" y="-428.5" font-family="Helvetica,sans-Serif" font-size="10.00">DataBaseGUI::parent_add</text>
</a>
</g>
</g>
<!-- Node27&#45;&gt;Node28 -->
<g id="edge45_Node000027_Node000028" class="edge">
<title>Node27&#45;&gt;Node28</title>
<g id="a_edge45_Node000027_Node000028"><a xlink:title=" ">
<path fill="none" stroke="#63b8ff" d="M992.68,-465.13C984.46,-463.98 976.17,-462.9 968.25,-462 852.58,-448.8 717.14,-439.93 638.81,-435.44"/>
<polygon fill="#63b8ff" stroke="#63b8ff" points="991.91,-468.56 1002.31,-466.52 992.91,-461.63 991.91,-468.56"/>
</a>
</g>
</g>
<!-- Node29 -->
<g id="Node000029" class="node">
<title>Node29</title>
<g id="a_Node000029"><a xlink:href="class_data_base_g_u_i.html#a5b049fb9e0e5d78c4c2e81e569b471f9" target="_top" xlink:title="Edits an existing parent in the database.">
<polygon fill="white" stroke="#666666" points="965.25,-574 833.75,-574 833.75,-554 965.25,-554 965.25,-574"/>
<text text-anchor="middle" x="899.5" y="-560.5" font-family="Helvetica,sans-Serif" font-size="10.00">DataBaseGUI::parent_edit</text>
</a>
</g>
</g>
<!-- Node27&#45;&gt;Node29 -->
<g id="edge47_Node000027_Node000029" class="edge">
<title>Node27&#45;&gt;Node29</title>
<g id="a_edge47_Node000027_Node000029"><a xlink:title=" ">
<path fill="none" stroke="#63b8ff" d="M1033.87,-499.83C1016.4,-514.66 992.29,-533.12 968.25,-545 961.46,-548.36 953.99,-551.2 946.56,-553.59"/>
<polygon fill="#63b8ff" stroke="#63b8ff" points="1035.97,-502.65 1041.23,-493.45 1031.38,-497.36 1035.97,-502.65"/>
</a>
</g>
</g>
<!-- Node30 -->
<g id="Node000030" class="node">
<title>Node30</title>
<g id="a_Node000030"><a xlink:href="class_data_base_g_u_i.html#ad8a42f24cdb603ba85c1cdd4ea2e73a4" target="_top" xlink:title="Removes a parent from the database.">
<polygon fill="white" stroke="#666666" points="954.75,-536 844.25,-536 844.25,-504 954.75,-504 954.75,-536"/>
<text text-anchor="start" x="852.25" y="-522.5" font-family="Helvetica,sans-Serif" font-size="10.00">DataBaseGUI::parent</text>
<text text-anchor="middle" x="899.5" y="-510.5" font-family="Helvetica,sans-Serif" font-size="10.00">_remove</text>
</a>
</g>
</g>
<!-- Node27&#45;&gt;Node30 -->
<g id="edge50_Node000027_Node000030" class="edge">
<title>Node27&#45;&gt;Node30</title>
<g id="a_edge50_Node000027_Node000030"><a xlink:title=" ">
<path fill="none" stroke="#63b8ff" d="M992.86,-494.52C980.29,-497.99 967.29,-501.58 955.15,-504.92"/>
<polygon fill="#63b8ff" stroke="#63b8ff" points="993.6,-497.95 1002.31,-491.92 991.74,-491.2 993.6,-497.95"/>
</a>
</g>
</g>
<!-- Node31 -->
<g id="Node000031" class="node">
<title>Node31</title>
<g id="a_Node000031"><a xlink:href="class_data_base_g_u_i.html#a783bdf1d65998f887dd6445741450480" target="_top" xlink:title="Changes the sorting method for parents.">
<polygon fill="white" stroke="#666666" points="789.88,-410 679.38,-410 679.38,-378 789.88,-378 789.88,-410"/>
<text text-anchor="start" x="687.38" y="-396.5" font-family="Helvetica,sans-Serif" font-size="10.00">DataBaseGUI::parent</text>
<text text-anchor="middle" x="734.62" y="-384.5" font-family="Helvetica,sans-Serif" font-size="10.00">_sort_change</text>
</a>
</g>
</g>
<!-- Node27&#45;&gt;Node31 -->
<g id="edge53_Node000027_Node000031" class="edge">
<title>Node27&#45;&gt;Node31</title>
<g id="a_edge53_Node000027_Node000031"><a xlink:title=" ">
<path fill="none" stroke="#63b8ff" d="M1027.64,-453.55C1010.69,-442.89 989.16,-430.97 968.25,-424 909.34,-404.35 838.07,-397.47 790.06,-395.11"/>
<polygon fill="#63b8ff" stroke="#63b8ff" points="1025.48,-456.32 1035.77,-458.82 1029.28,-450.45 1025.48,-456.32"/>
</a>
</g>
</g>
<!-- Node28&#45;&gt;Node7 -->
<g id="edge46_Node000028_Node000007" class="edge">
<title>Node28&#45;&gt;Node7</title>
<g id="a_edge46_Node000028_Node000007"><a xlink:title=" ">
<path fill="none" stroke="#63b8ff" d="M495.23,-426.24C449.05,-421.76 389.28,-414.21 337.25,-402 313.08,-396.33 286.46,-386.79 267.54,-379.43"/>
<polygon fill="#63b8ff" stroke="#63b8ff" points="494.87,-429.72 505.15,-427.17 495.52,-422.75 494.87,-429.72"/>
</a>
</g>
</g>
<!-- Node29&#45;&gt;Node15 -->
<g id="edge48_Node000029_Node000015" class="edge">
<title>Node29&#45;&gt;Node15</title>
<g id="a_edge48_Node000029_Node000015"><a xlink:title=" ">
<path fill="none" stroke="#63b8ff" d="M822.25,-557.45C813.17,-556.67 804.01,-555.88 795.22,-555.12"/>
<polygon fill="#63b8ff" stroke="#63b8ff" points="821.89,-560.93 832.15,-558.3 822.49,-553.95 821.89,-560.93"/>
</a>
</g>
</g>
<!-- Node29&#45;&gt;Node16 -->
<g id="edge49_Node000029_Node000016" class="edge">
<title>Node29&#45;&gt;Node16</title>
<g id="a_edge49_Node000029_Node000016"><a xlink:title=" ">
<path fill="none" stroke="#63b8ff" d="M976.81,-553.63C1018.48,-547.93 1070.96,-540.67 1117.75,-534 1129.24,-532.36 1141.5,-530.58 1153.26,-528.86"/>
<polygon fill="#63b8ff" stroke="#63b8ff" points="976.57,-550.13 967.14,-554.95 977.52,-557.07 976.57,-550.13"/>
</a>
</g>
</g>
<!-- Node30&#45;&gt;Node15 -->
<g id="edge51_Node000030_Node000015" class="edge">
<title>Node30&#45;&gt;Node15</title>
<g id="a_edge51_Node000030_Node000015"><a xlink:title=" ">
<path fill="none" stroke="#63b8ff" d="M832.62,-532.13C820.25,-534.41 807.37,-536.78 795.2,-539.03"/>
<polygon fill="#63b8ff" stroke="#63b8ff" points="833.12,-535.6 842.32,-530.35 831.85,-528.72 833.12,-535.6"/>
</a>
</g>
</g>
<!-- Node30&#45;&gt;Node16 -->
<g id="edge52_Node000030_Node000016" class="edge">
<title>Node30&#45;&gt;Node16</title>
<g id="a_edge52_Node000030_Node000016"><a xlink:title=" ">
<path fill="none" stroke="#63b8ff" d="M966.5,-520C1021.78,-520 1100,-520 1153.38,-520"/>
<polygon fill="#63b8ff" stroke="#63b8ff" points="966.58,-516.5 956.58,-520 966.58,-523.5 966.58,-516.5"/>
</a>
</g>
</g>
<!-- Node31&#45;&gt;Node7 -->
<g id="edge54_Node000031_Node000007" class="edge">
<title>Node31&#45;&gt;Node7</title>
<g id="a_edge54_Node000031_Node000007"><a xlink:title=" ">
<path fill="none" stroke="#63b8ff" d="M667.87,-390.66C569.48,-385.65 385.86,-376.31 295.35,-371.71"/>
<polygon fill="#63b8ff" stroke="#63b8ff" points="667.47,-394.14 677.64,-391.15 667.83,-387.15 667.47,-394.14"/>
</a>
</g>
</g>
</g>
</svg>

<g id="navigator" transform="translate(0 0)" fill="#404254">
  <rect fill="#f2f5e9" fill-opacity="0.5" stroke="#606060" stroke-width=".5" x="0" y="0" width="60" height="60"/>
  <use id="zoomplus" xlink:href="#zoomPlus" x="17" y="9" onmousedown="handleZoom(evt,'in')"/>
  <use id="zoomminus" xlink:href="#zoomMin" x="42" y="9" onmousedown="handleZoom(evt,'out')"/>
  <use id="reset" xlink:href="#resetDef" x="30" y="36" onmousedown="handleReset()"/>
   <use id="arrowup" xlink:href="#arrowUp" x="0" y="0" onmousedown="handlePan(0,-1)"/>
  <use id="arrowright" xlink:href="#arrowRight" x="0" y="0" onmousedown="handlePan(1,0)"/>
  <use id="arrowdown" xlink:href="#arrowDown" x="0" y="0" onmousedown="handlePan(0,1)"/>
  <use id="arrowleft" xlink:href="#arrowLeft" x="0" y="0" onmousedown="handlePan(-1,0)"/>
</g>
<svg viewBox="0 0 15 15" width="100%" height="30px" preserveAspectRatio="xMaxYMin meet">
 <g id="arrow_out" transform="scale(0.3 0.3)">
  <a xlink:href="class_data_base_g_u_i_a2d921da686e76ae195da018bb735a1ae_icgraph_org.svg" target="_base">
   <rect id="button" ry="5" rx="5" y="6" x="6" height="38" width="38"
        fill="#f2f5e9" fill-opacity="0.5" stroke="#606060" stroke-width="1.0"/>
   <path id="arrow"
     d="M 11.500037,31.436501 C 11.940474,20.09759 22.043105,11.32322 32.158766,21.979434 L 37.068811,17.246167 C 37.068811,17.246167 37.088388,32 37.088388,32 L 22.160133,31.978069 C 22.160133,31.978069 26.997745,27.140456 26.997745,27.140456 C 18.528582,18.264221 13.291696,25.230495 11.500037,31.436501 z"
     style="fill:#404040;"/>
  </a>
 </g>
</svg>

<style type='text/css'>
<![CDATA[
[data-mouse-over-selected='false'] { opacity: 0.7; }
[data-mouse-over-selected='true']  { opacity: 1.0; }
]]>
</style>
<script type="application/ecmascript"><![CDATA[
document.addEventListener('DOMContentLoaded', (event) => {
  highlightEdges();
  highlightAdjacentNodes();
});
]]></script>
</svg>
