<?xml version="1.0" encoding="UTF-8" standalone="no"?>
<!DOCTYPE svg PUBLIC "-//W3C//DTD SVG 1.1//EN"
 "http://www.w3.org/Graphics/SVG/1.1/DTD/svg11.dtd">
<!-- Generated by graphviz version 12.2.1 (20241206.2353)
 -->
<!-- Title: Contacts Pages: 1 -->
<svg width="263pt" height="324pt"
 viewBox="0.00 0.00 263.25 324.00" xmlns="http://www.w3.org/2000/svg" xmlns:xlink="http://www.w3.org/1999/xlink">
<g id="graph0" class="graph" transform="scale(1 1) rotate(0) translate(4 320)">
<title>Contacts</title>
<!-- Node1 -->
<g id="Node000001" class="node">
<title>Node1</title>
<g id="a_Node000001"><a xlink:title="Base class for contact&#45;related utilities.">
<polygon fill="#999999" stroke="none" points="181.62,-316 79.62,-316 79.62,-264 181.62,-264 181.62,-316"/>
<text text-anchor="start" x="110.75" y="-302.5" font-family="Helvetica,sans-Serif" font-size="10.00">Contacts</text>
<text text-anchor="start" x="129.12" y="-286.5" font-family="Helvetica,sans-Serif" font-size="10.00"> </text>
<text text-anchor="start" x="83.62" y="-270.5" font-family="Helvetica,sans-Serif" font-size="10.00">#</text>
<text text-anchor="start" x="92.88" y="-270.5" font-family="Helvetica,sans-Serif" font-size="10.00">copy_to_clipboard()</text>
<polygon fill="#666666" stroke="#666666" points="79.62,-298 79.62,-298 181.62,-298 181.62,-298 79.62,-298"/>
<polygon fill="#666666" stroke="#666666" points="79.62,-282 79.62,-282 181.62,-282 181.62,-282 79.62,-282"/>
<polygon fill="none" stroke="#666666" points="79.62,-264 79.62,-316 181.62,-316 181.62,-264 79.62,-264"/>
</a>
</g>
</g>
<!-- Node2 -->
<g id="Node000002" class="node">
<title>Node2</title>
<g id="a_Node000002"><a xlink:href="$class_address.html" xlink:title="Represents a physical address.">
<polygon fill="white" stroke="none" points="77.25,-228 0,-228 0,0 77.25,0 77.25,-228"/>
<text text-anchor="start" x="20.62" y="-214.5" font-family="Helvetica,sans-Serif" font-size="10.00">Address</text>
<text text-anchor="start" x="5.5" y="-198.5" font-family="Helvetica,sans-Serif" font-size="10.00">&#45;</text>
<text text-anchor="start" x="14" y="-198.5" font-family="Helvetica,sans-Serif" font-size="10.00">address_</text>
<text text-anchor="start" x="4" y="-182.5" font-family="Helvetica,sans-Serif" font-size="10.00">+</text>
<text text-anchor="start" x="14" y="-182.5" font-family="Helvetica,sans-Serif" font-size="10.00">Address()</text>
<text text-anchor="start" x="4" y="-166.5" font-family="Helvetica,sans-Serif" font-size="10.00">+</text>
<text text-anchor="start" x="14" y="-166.5" font-family="Helvetica,sans-Serif" font-size="10.00">Address()</text>
<text text-anchor="start" x="4" y="-150.5" font-family="Helvetica,sans-Serif" font-size="10.00">+</text>
<text text-anchor="start" x="14" y="-150.5" font-family="Helvetica,sans-Serif" font-size="10.00">Address()</text>
<text text-anchor="start" x="4" y="-134.5" font-family="Helvetica,sans-Serif" font-size="10.00">+</text>
<text text-anchor="start" x="14" y="-134.5" font-family="Helvetica,sans-Serif" font-size="10.00">Address()</text>
<text text-anchor="start" x="4" y="-118.5" font-family="Helvetica,sans-Serif" font-size="10.00">+</text>
<text text-anchor="start" x="14" y="-118.5" font-family="Helvetica,sans-Serif" font-size="10.00">Address()</text>
<text text-anchor="start" x="4" y="-102.5" font-family="Helvetica,sans-Serif" font-size="10.00">+</text>
<text text-anchor="start" x="14" y="-102.5" font-family="Helvetica,sans-Serif" font-size="10.00">operator=()</text>
<text text-anchor="start" x="4" y="-86.5" font-family="Helvetica,sans-Serif" font-size="10.00">+</text>
<text text-anchor="start" x="14" y="-86.5" font-family="Helvetica,sans-Serif" font-size="10.00">operator=()</text>
<text text-anchor="start" x="4" y="-70.5" font-family="Helvetica,sans-Serif" font-size="10.00">+</text>
<text text-anchor="start" x="14" y="-70.5" font-family="Helvetica,sans-Serif" font-size="10.00">operator==()</text>
<text text-anchor="start" x="4" y="-54.5" font-family="Helvetica,sans-Serif" font-size="10.00">+</text>
<text text-anchor="start" x="14" y="-54.5" font-family="Helvetica,sans-Serif" font-size="10.00">get_address()</text>
<text text-anchor="start" x="4" y="-38.5" font-family="Helvetica,sans-Serif" font-size="10.00">+</text>
<text text-anchor="start" x="14" y="-38.5" font-family="Helvetica,sans-Serif" font-size="10.00">set_address()</text>
<text text-anchor="start" x="4" y="-22.5" font-family="Helvetica,sans-Serif" font-size="10.00">+</text>
<text text-anchor="start" x="14" y="-22.5" font-family="Helvetica,sans-Serif" font-size="10.00">copy()</text>
<text text-anchor="start" x="4" y="-6.5" font-family="Helvetica,sans-Serif" font-size="10.00">+</text>
<text text-anchor="start" x="14" y="-6.5" font-family="Helvetica,sans-Serif" font-size="10.00">~Address()</text>
<polygon fill="#666666" stroke="#666666" points="0,-210 0,-210 77.25,-210 77.25,-210 0,-210"/>
<polygon fill="#666666" stroke="#666666" points="0,-194 0,-194 12,-194 12,-194 0,-194"/>
<polygon fill="#666666" stroke="#666666" points="12,-194 12,-194 77.25,-194 77.25,-194 12,-194"/>
<polygon fill="none" stroke="#666666" points="0,0 0,-228 77.25,-228 77.25,0 0,0"/>
</a>
</g>
</g>
<!-- Node1&#45;&gt;Node2 -->
<g id="edge1_Node000001_Node000002" class="edge">
<title>Node1&#45;&gt;Node2</title>
<g id="a_edge1_Node000001_Node000002"><a xlink:title=" ">
<path fill="none" stroke="#63b8ff" d="M103.42,-255.16C97.16,-246.57 90.81,-237.17 85.62,-228 82.75,-222.91 79.95,-217.62 77.24,-212.21"/>
<polygon fill="none" stroke="#63b8ff" points="100.43,-257 109.23,-262.9 106.03,-252.8 100.43,-257"/>
</a>
</g>
</g>
<!-- Node3 -->
<g id="Node000003" class="node">
<title>Node3</title>
<g id="a_Node000003"><a xlink:href="$class_email.html" xlink:title="Represents an email address.">
<polygon fill="white" stroke="none" points="166.25,-228 95,-228 95,0 166.25,0 166.25,-228"/>
<text text-anchor="start" x="118.25" y="-214.5" font-family="Helvetica,sans-Serif" font-size="10.00">Email</text>
<text text-anchor="start" x="100.5" y="-198.5" font-family="Helvetica,sans-Serif" font-size="10.00">&#45;</text>
<text text-anchor="start" x="109" y="-198.5" font-family="Helvetica,sans-Serif" font-size="10.00">email_</text>
<text text-anchor="start" x="99" y="-182.5" font-family="Helvetica,sans-Serif" font-size="10.00">+</text>
<text text-anchor="start" x="109" y="-182.5" font-family="Helvetica,sans-Serif" font-size="10.00">Email()</text>
<text text-anchor="start" x="99" y="-166.5" font-family="Helvetica,sans-Serif" font-size="10.00">+</text>
<text text-anchor="start" x="109" y="-166.5" font-family="Helvetica,sans-Serif" font-size="10.00">Email()</text>
<text text-anchor="start" x="99" y="-150.5" font-family="Helvetica,sans-Serif" font-size="10.00">+</text>
<text text-anchor="start" x="109" y="-150.5" font-family="Helvetica,sans-Serif" font-size="10.00">Email()</text>
<text text-anchor="start" x="99" y="-134.5" font-family="Helvetica,sans-Serif" font-size="10.00">+</text>
<text text-anchor="start" x="109" y="-134.5" font-family="Helvetica,sans-Serif" font-size="10.00">Email()</text>
<text text-anchor="start" x="99" y="-118.5" font-family="Helvetica,sans-Serif" font-size="10.00">+</text>
<text text-anchor="start" x="109" y="-118.5" font-family="Helvetica,sans-Serif" font-size="10.00">Email()</text>
<text text-anchor="start" x="99" y="-102.5" font-family="Helvetica,sans-Serif" font-size="10.00">+</text>
<text text-anchor="start" x="109" y="-102.5" font-family="Helvetica,sans-Serif" font-size="10.00">operator=()</text>
<text text-anchor="start" x="99" y="-86.5" font-family="Helvetica,sans-Serif" font-size="10.00">+</text>
<text text-anchor="start" x="109" y="-86.5" font-family="Helvetica,sans-Serif" font-size="10.00">operator=()</text>
<text text-anchor="start" x="99" y="-70.5" font-family="Helvetica,sans-Serif" font-size="10.00">+</text>
<text text-anchor="start" x="109" y="-70.5" font-family="Helvetica,sans-Serif" font-size="10.00">operator==()</text>
<text text-anchor="start" x="99" y="-54.5" font-family="Helvetica,sans-Serif" font-size="10.00">+</text>
<text text-anchor="start" x="109" y="-54.5" font-family="Helvetica,sans-Serif" font-size="10.00">get_email()</text>
<text text-anchor="start" x="99" y="-38.5" font-family="Helvetica,sans-Serif" font-size="10.00">+</text>
<text text-anchor="start" x="109" y="-38.5" font-family="Helvetica,sans-Serif" font-size="10.00">set_email()</text>
<text text-anchor="start" x="99" y="-22.5" font-family="Helvetica,sans-Serif" font-size="10.00">+</text>
<text text-anchor="start" x="109" y="-22.5" font-family="Helvetica,sans-Serif" font-size="10.00">copy()</text>
<text text-anchor="start" x="99" y="-6.5" font-family="Helvetica,sans-Serif" font-size="10.00">+</text>
<text text-anchor="start" x="109" y="-6.5" font-family="Helvetica,sans-Serif" font-size="10.00">~Email()</text>
<polygon fill="#666666" stroke="#666666" points="95,-210 95,-210 166.25,-210 166.25,-210 95,-210"/>
<polygon fill="#666666" stroke="#666666" points="95,-194 95,-194 107,-194 107,-194 95,-194"/>
<polygon fill="#666666" stroke="#666666" points="107,-194 107,-194 166.25,-194 166.25,-194 107,-194"/>
<polygon fill="none" stroke="#666666" points="95,0 95,-228 166.25,-228 166.25,0 95,0"/>
</a>
</g>
</g>
<!-- Node1&#45;&gt;Node3 -->
<g id="edge2_Node000001_Node000003" class="edge">
<title>Node1&#45;&gt;Node3</title>
<g id="a_edge2_Node000001_Node000003"><a xlink:title=" ">
<path fill="none" stroke="#63b8ff" d="M130.62,-252.72C130.62,-245.03 130.62,-236.53 130.62,-227.64"/>
<polygon fill="none" stroke="#63b8ff" points="127.13,-252.56 130.63,-262.56 134.13,-252.56 127.13,-252.56"/>
</a>
</g>
</g>
<!-- Node4 -->
<g id="Node000004" class="node">
<title>Node4</title>
<g id="a_Node000004"><a xlink:href="$class_phone.html" xlink:title="Represents a phone number.">
<polygon fill="white" stroke="none" points="255.25,-228 184,-228 184,0 255.25,0 255.25,-228"/>
<text text-anchor="start" x="205.75" y="-214.5" font-family="Helvetica,sans-Serif" font-size="10.00">Phone</text>
<text text-anchor="start" x="189.5" y="-198.5" font-family="Helvetica,sans-Serif" font-size="10.00">&#45;</text>
<text text-anchor="start" x="198" y="-198.5" font-family="Helvetica,sans-Serif" font-size="10.00">phone_</text>
<text text-anchor="start" x="188" y="-182.5" font-family="Helvetica,sans-Serif" font-size="10.00">+</text>
<text text-anchor="start" x="198" y="-182.5" font-family="Helvetica,sans-Serif" font-size="10.00">Phone()</text>
<text text-anchor="start" x="188" y="-166.5" font-family="Helvetica,sans-Serif" font-size="10.00">+</text>
<text text-anchor="start" x="198" y="-166.5" font-family="Helvetica,sans-Serif" font-size="10.00">Phone()</text>
<text text-anchor="start" x="188" y="-150.5" font-family="Helvetica,sans-Serif" font-size="10.00">+</text>
<text text-anchor="start" x="198" y="-150.5" font-family="Helvetica,sans-Serif" font-size="10.00">Phone()</text>
<text text-anchor="start" x="188" y="-134.5" font-family="Helvetica,sans-Serif" font-size="10.00">+</text>
<text text-anchor="start" x="198" y="-134.5" font-family="Helvetica,sans-Serif" font-size="10.00">Phone()</text>
<text text-anchor="start" x="188" y="-118.5" font-family="Helvetica,sans-Serif" font-size="10.00">+</text>
<text text-anchor="start" x="198" y="-118.5" font-family="Helvetica,sans-Serif" font-size="10.00">Phone()</text>
<text text-anchor="start" x="188" y="-102.5" font-family="Helvetica,sans-Serif" font-size="10.00">+</text>
<text text-anchor="start" x="198" y="-102.5" font-family="Helvetica,sans-Serif" font-size="10.00">operator=()</text>
<text text-anchor="start" x="188" y="-86.5" font-family="Helvetica,sans-Serif" font-size="10.00">+</text>
<text text-anchor="start" x="198" y="-86.5" font-family="Helvetica,sans-Serif" font-size="10.00">operator=()</text>
<text text-anchor="start" x="188" y="-70.5" font-family="Helvetica,sans-Serif" font-size="10.00">+</text>
<text text-anchor="start" x="198" y="-70.5" font-family="Helvetica,sans-Serif" font-size="10.00">operator==()</text>
<text text-anchor="start" x="188" y="-54.5" font-family="Helvetica,sans-Serif" font-size="10.00">+</text>
<text text-anchor="start" x="198" y="-54.5" font-family="Helvetica,sans-Serif" font-size="10.00">get_phone()</text>
<text text-anchor="start" x="188" y="-38.5" font-family="Helvetica,sans-Serif" font-size="10.00">+</text>
<text text-anchor="start" x="198" y="-38.5" font-family="Helvetica,sans-Serif" font-size="10.00">set_phone()</text>
<text text-anchor="start" x="188" y="-22.5" font-family="Helvetica,sans-Serif" font-size="10.00">+</text>
<text text-anchor="start" x="198" y="-22.5" font-family="Helvetica,sans-Serif" font-size="10.00">copy()</text>
<text text-anchor="start" x="188" y="-6.5" font-family="Helvetica,sans-Serif" font-size="10.00">+</text>
<text text-anchor="start" x="198" y="-6.5" font-family="Helvetica,sans-Serif" font-size="10.00">~Phone()</text>
<polygon fill="#666666" stroke="#666666" points="184,-210 184,-210 255.25,-210 255.25,-210 184,-210"/>
<polygon fill="#666666" stroke="#666666" points="184,-194 184,-194 196,-194 196,-194 184,-194"/>
<polygon fill="#666666" stroke="#666666" points="196,-194 196,-194 255.25,-194 255.25,-194 196,-194"/>
<polygon fill="none" stroke="#666666" points="184,0 184,-228 255.25,-228 255.25,0 184,0"/>
</a>
</g>
</g>
<!-- Node1&#45;&gt;Node4 -->
<g id="edge3_Node000001_Node000004" class="edge">
<title>Node1&#45;&gt;Node4</title>
<g id="a_edge3_Node000001_Node000004"><a xlink:title=" ">
<path fill="none" stroke="#63b8ff" d="M157.97,-255.24C164.24,-246.65 170.54,-237.23 175.62,-228 178.57,-222.65 181.41,-217.07 184.14,-211.36"/>
<polygon fill="none" stroke="#63b8ff" points="155.37,-252.88 152.16,-262.98 160.97,-257.08 155.37,-252.88"/>
</a>
</g>
</g>
</g>
</svg>
