<?xml version="1.0" encoding="UTF-8" standalone="no"?>
<!DOCTYPE svg PUBLIC "-//W3C//DTD SVG 1.1//EN"
 "http://www.w3.org/Graphics/SVG/1.1/DTD/svg11.dtd">
<!-- Generated by graphviz version 12.2.1 (20241206.2353)
 -->
<!-- Title: Database::import_Employees_from_csv_file Pages: 1 -->
<svg width="457pt" height="40pt"
 viewBox="0.00 0.00 456.50 40.00" xmlns="http://www.w3.org/2000/svg" xmlns:xlink="http://www.w3.org/1999/xlink">
<g id="graph0" class="graph" transform="scale(1 1) rotate(0) translate(4 36)">
<title>Database::import_Employees_from_csv_file</title>
<!-- Node1 -->
<g id="Node000001" class="node">
<title>Node1</title>
<g id="a_Node000001"><a xlink:title="Imports employees from a CSV file.">
<polygon fill="#999999" stroke="#666666" points="448.5,-32 303.5,-32 303.5,0 448.5,0 448.5,-32"/>
<text text-anchor="start" x="311.5" y="-18.5" font-family="Helvetica,sans-Serif" font-size="10.00">Database::import_Employees</text>
<text text-anchor="middle" x="376" y="-6.5" font-family="Helvetica,sans-Serif" font-size="10.00">_from_csv_file</text>
</a>
</g>
</g>
<!-- Node2 -->
<g id="Node000002" class="node">
<title>Node2</title>
<g id="a_Node000002"><a xlink:href="class_database.html#af3b2c97f6ffbcff3ec1c0f78a91d6107" target="_top" xlink:title="Imports data from a stream.">
<polygon fill="white" stroke="#666666" points="267.5,-32 151.75,-32 151.75,0 267.5,0 267.5,-32"/>
<text text-anchor="start" x="159.75" y="-18.5" font-family="Helvetica,sans-Serif" font-size="10.00">Database::import_from</text>
<text text-anchor="middle" x="209.62" y="-6.5" font-family="Helvetica,sans-Serif" font-size="10.00">_stream</text>
</a>
</g>
</g>
<!-- Node1&#45;&gt;Node2 -->
<g id="edge1_Node000001_Node000002" class="edge">
<title>Node1&#45;&gt;Node2</title>
<g id="a_edge1_Node000001_Node000002"><a xlink:title=" ">
<path fill="none" stroke="#63b8ff" d="M291.93,-16C283.82,-16 275.71,-16 267.94,-16"/>
<polygon fill="#63b8ff" stroke="#63b8ff" points="291.87,-19.5 301.87,-16 291.87,-12.5 291.87,-19.5"/>
</a>
</g>
</g>
<!-- Node3 -->
<g id="Node000003" class="node">
<title>Node3</title>
<g id="a_Node000003"><a xlink:href="class_database.html#a0a08797a6ca7a3456150370e3f816d4c" target="_top" xlink:title="Imports data from a CSV file.">
<polygon fill="white" stroke="#666666" points="115.75,-32 0,-32 0,0 115.75,0 115.75,-32"/>
<text text-anchor="start" x="8" y="-18.5" font-family="Helvetica,sans-Serif" font-size="10.00">Database::import_from</text>
<text text-anchor="middle" x="57.88" y="-6.5" font-family="Helvetica,sans-Serif" font-size="10.00">_csv_file</text>
</a>
</g>
</g>
<!-- Node2&#45;&gt;Node3 -->
<g id="edge2_Node000002_Node000003" class="edge">
<title>Node2&#45;&gt;Node3</title>
<g id="a_edge2_Node000002_Node000003"><a xlink:title=" ">
<path fill="none" stroke="#63b8ff" d="M140.16,-16C131.99,-16 123.73,-16 115.76,-16"/>
<polygon fill="#63b8ff" stroke="#63b8ff" points="140.07,-19.5 150.07,-16 140.07,-12.5 140.07,-19.5"/>
</a>
</g>
</g>
</g>
</svg>
