<?xml version="1.0" encoding="UTF-8" standalone="no"?>
<!DOCTYPE svg PUBLIC "-//W3C//DTD SVG 1.1//EN"
 "http://www.w3.org/Graphics/SVG/1.1/DTD/svg11.dtd">
<!-- Generated by graphviz version 12.2.1 (20241206.2353)
 -->
<!-- Title: LessonEntry::removeRequested Pages: 1 -->
<svg width="977pt" height="196pt"
 viewBox="0.00 0.00 977.00 195.69" xmlns="http://www.w3.org/2000/svg" xmlns:xlink="http://www.w3.org/1999/xlink">
<g id="graph0" class="graph" transform="scale(1 1) rotate(0) translate(4 191.69)">
<title>LessonEntry::removeRequested</title>
<!-- Node1 -->
<g id="Node000001" class="node">
<title>Node1</title>
<g id="a_Node000001"><a xlink:title="Signal emitted when a lesson removal is requested.">
<polygon fill="#999999" stroke="#666666" points="969,-171 812.75,-171 812.75,-151 969,-151 969,-171"/>
<text text-anchor="middle" x="890.88" y="-157.5" font-family="Helvetica,sans-Serif" font-size="10.00">LessonEntry::removeRequested</text>
</a>
</g>
</g>
<!-- Node2 -->
<g id="Node000002" class="node">
<title>Node2</title>
<g id="a_Node000002"><a xlink:href="class_data_base_g_u_i.html#a74e047889e913eae69ec40ec17f53c9d" target="_top" xlink:title="Populates the lessons tab with a multimap of lessons.">
<polygon fill="white" stroke="#666666" points="301.25,-180 181,-180 181,-148 301.25,-148 301.25,-180"/>
<text text-anchor="start" x="189" y="-166.5" font-family="Helvetica,sans-Serif" font-size="10.00">DataBaseGUI::populate</text>
<text text-anchor="middle" x="241.12" y="-154.5" font-family="Helvetica,sans-Serif" font-size="10.00">_lesson_tab</text>
</a>
</g>
</g>
<!-- Node1&#45;&gt;Node2 -->
<g id="edge1_Node000001_Node000002" class="edge">
<title>Node1&#45;&gt;Node2</title>
<g id="a_edge1_Node000001_Node000002"><a xlink:title=" ">
<path fill="none" stroke="#63b8ff" d="M801.21,-171.31C748.74,-176.89 680.93,-183.2 620.5,-186 570.11,-188.33 557.4,-188.09 507,-186 436.35,-183.07 355.36,-175.76 301.74,-170.37"/>
<polygon fill="#63b8ff" stroke="#63b8ff" points="801.43,-174.81 810.99,-170.26 800.68,-167.85 801.43,-174.81"/>
</a>
</g>
</g>
<!-- Node3 -->
<g id="Node000003" class="node">
<title>Node3</title>
<g id="a_Node000003"><a xlink:href="class_data_base_g_u_i.html#aa6b02e4e81b0113fb1c75d7d5ef0be59" target="_top" xlink:title="Populates the lessons tab with a list of lessons.">
<polygon fill="white" stroke="#666666" points="776.75,-155 656.5,-155 656.5,-123 776.75,-123 776.75,-155"/>
<text text-anchor="start" x="664.5" y="-141.5" font-family="Helvetica,sans-Serif" font-size="10.00">DataBaseGUI::populate</text>
<text text-anchor="middle" x="716.62" y="-129.5" font-family="Helvetica,sans-Serif" font-size="10.00">_lesson_tab</text>
</a>
</g>
</g>
<!-- Node1&#45;&gt;Node3 -->
<g id="edge2_Node000001_Node000003" class="edge">
<title>Node1&#45;&gt;Node3</title>
<g id="a_edge2_Node000001_Node000003"><a xlink:title=" ">
<path fill="none" stroke="#63b8ff" d="M800.95,-149.64C792.91,-148.62 784.9,-147.59 777.2,-146.61"/>
<polygon fill="#63b8ff" stroke="#63b8ff" points="800.45,-153.11 810.81,-150.9 801.34,-146.16 800.45,-153.11"/>
</a>
</g>
</g>
<!-- Node4 -->
<g id="Node000004" class="node">
<title>Node4</title>
<g id="a_Node000004"><a xlink:href="class_data_base_g_u_i.html#a55b3c6d3607f17f55d4c321e97fdce7f" target="_top" xlink:title="Searches for lessons based on the provided child name and surname.">
<polygon fill="white" stroke="#666666" points="619.75,-177 507.75,-177 507.75,-145 619.75,-145 619.75,-177"/>
<text text-anchor="start" x="515.75" y="-163.5" font-family="Helvetica,sans-Serif" font-size="10.00">DataBaseGUI::lesson</text>
<text text-anchor="middle" x="563.75" y="-151.5" font-family="Helvetica,sans-Serif" font-size="10.00">_search</text>
</a>
</g>
</g>
<!-- Node3&#45;&gt;Node4 -->
<g id="edge3_Node000003_Node000004" class="edge">
<title>Node3&#45;&gt;Node4</title>
<g id="a_edge3_Node000003_Node000004"><a xlink:title=" ">
<path fill="none" stroke="#63b8ff" d="M645.29,-149.26C636.74,-150.5 628.11,-151.76 619.84,-152.97"/>
<polygon fill="#63b8ff" stroke="#63b8ff" points="645.54,-152.76 654.93,-147.85 644.53,-145.83 645.54,-152.76"/>
</a>
</g>
</g>
<!-- Node5 -->
<g id="Node000005" class="node">
<title>Node5</title>
<g id="a_Node000005"><a xlink:href="class_data_base_g_u_i.html#a1ad152b7becf3e0051cdd5dbae6d4abc" target="_top" xlink:title="Selects the appropriate sorting to use based on lesson sort index.">
<polygon fill="white" stroke="#666666" points="620.5,-89 507,-89 507,-57 620.5,-57 620.5,-89"/>
<text text-anchor="start" x="515" y="-75.5" font-family="Helvetica,sans-Serif" font-size="10.00">DataBaseGUI::sort_to</text>
<text text-anchor="middle" x="563.75" y="-63.5" font-family="Helvetica,sans-Serif" font-size="10.00">_populate_lesson_tab</text>
</a>
</g>
</g>
<!-- Node3&#45;&gt;Node5 -->
<g id="edge4_Node000003_Node000005" class="edge">
<title>Node3&#45;&gt;Node5</title>
<g id="a_edge4_Node000003_Node000005"><a xlink:title=" ">
<path fill="none" stroke="#63b8ff" d="M667.55,-117.97C646.42,-108.72 621.97,-98.03 602.21,-89.39"/>
<polygon fill="#63b8ff" stroke="#63b8ff" points="665.99,-121.11 676.56,-121.91 668.8,-114.69 665.99,-121.11"/>
</a>
</g>
</g>
<!-- Node6 -->
<g id="Node000006" class="node">
<title>Node6</title>
<g id="a_Node000006"><a xlink:href="class_data_base_g_u_i.html#a66a3e89a9852de3522d98f2c1f8cdeed" target="_top" xlink:title="Removes a lesson from the database.">
<polygon fill="white" stroke="#666666" points="460.12,-139 348.12,-139 348.12,-107 460.12,-107 460.12,-139"/>
<text text-anchor="start" x="356.12" y="-125.5" font-family="Helvetica,sans-Serif" font-size="10.00">DataBaseGUI::lesson</text>
<text text-anchor="middle" x="404.12" y="-113.5" font-family="Helvetica,sans-Serif" font-size="10.00">_remove</text>
</a>
</g>
</g>
<!-- Node5&#45;&gt;Node6 -->
<g id="edge5_Node000005_Node000006" class="edge">
<title>Node5&#45;&gt;Node6</title>
<g id="a_edge5_Node000005_Node000006"><a xlink:title=" ">
<path fill="none" stroke="#63b8ff" d="M500.36,-92.79C486.04,-97.33 470.96,-102.12 457.12,-106.51"/>
<polygon fill="#63b8ff" stroke="#63b8ff" points="501.22,-96.19 509.69,-89.83 499.1,-89.52 501.22,-96.19"/>
</a>
</g>
</g>
<!-- Node7 -->
<g id="Node000007" class="node">
<title>Node7</title>
<g id="a_Node000007"><a xlink:href="class_data_base_g_u_i.html#a0478b87f545d97b9e3ef55858242878b" target="_top" xlink:title="Changes the sorting method for lessons.">
<polygon fill="white" stroke="#666666" points="460.12,-89 348.12,-89 348.12,-57 460.12,-57 460.12,-89"/>
<text text-anchor="start" x="356.12" y="-75.5" font-family="Helvetica,sans-Serif" font-size="10.00">DataBaseGUI::lesson</text>
<text text-anchor="middle" x="404.12" y="-63.5" font-family="Helvetica,sans-Serif" font-size="10.00">_sort_change</text>
</a>
</g>
</g>
<!-- Node5&#45;&gt;Node7 -->
<g id="edge8_Node000005_Node000007" class="edge">
<title>Node5&#45;&gt;Node7</title>
<g id="a_edge8_Node000005_Node000007"><a xlink:title=" ">
<path fill="none" stroke="#63b8ff" d="M495.26,-73C483.64,-73 471.68,-73 460.43,-73"/>
<polygon fill="#63b8ff" stroke="#63b8ff" points="495.22,-76.5 505.22,-73 495.22,-69.5 495.22,-76.5"/>
</a>
</g>
</g>
<!-- Node8 -->
<g id="Node000008" class="node">
<title>Node8</title>
<g id="a_Node000008"><a xlink:href="class_data_base_g_u_i.html#a438b5070d6a58ffa5e884d18740852c6" target="_top" xlink:title="Handles tab change events.">
<polygon fill="white" stroke="#666666" points="471,-39 337.25,-39 337.25,-19 471,-19 471,-39"/>
<text text-anchor="middle" x="404.12" y="-25.5" font-family="Helvetica,sans-Serif" font-size="10.00">DataBaseGUI::tab_change</text>
</a>
</g>
</g>
<!-- Node5&#45;&gt;Node8 -->
<g id="edge9_Node000005_Node000008" class="edge">
<title>Node5&#45;&gt;Node8</title>
<g id="a_edge9_Node000005_Node000008"><a xlink:title=" ">
<path fill="none" stroke="#63b8ff" d="M495.86,-54.33C477.68,-49.25 458.63,-43.94 442.7,-39.49"/>
<polygon fill="#63b8ff" stroke="#63b8ff" points="494.7,-57.64 505.28,-56.96 496.58,-50.9 494.7,-57.64"/>
</a>
</g>
</g>
<!-- Node6&#45;&gt;Node2 -->
<g id="edge6_Node000006_Node000002" class="edge">
<title>Node6&#45;&gt;Node2</title>
<g id="a_edge6_Node000006_Node000002"><a xlink:title=" ">
<path fill="none" stroke="#63b8ff" d="M336.69,-139.92C325.02,-142.89 312.94,-145.97 301.48,-148.88"/>
<polygon fill="#63b8ff" stroke="#63b8ff" points="337.42,-143.34 346.25,-137.48 335.7,-136.56 337.42,-143.34"/>
</a>
</g>
</g>
<!-- Node6&#45;&gt;Node3 -->
<g id="edge7_Node000006_Node000003" class="edge">
<title>Node6&#45;&gt;Node3</title>
<g id="a_edge7_Node000006_Node000003"><a xlink:title=" ">
<path fill="none" stroke="#63b8ff" d="M471.85,-126.44C526.61,-129.26 603.44,-133.22 656.12,-135.93"/>
<polygon fill="#63b8ff" stroke="#63b8ff" points="472.19,-122.95 462.02,-125.93 471.83,-129.94 472.19,-122.95"/>
</a>
</g>
</g>
<!-- Node9 -->
<g id="Node000009" class="node">
<title>Node9</title>
<g id="a_Node000009"><a xlink:href="class_data_base_g_u_i.html#a6c35e47ed05a80db144f240dee805a9d" target="_top" xlink:title="Sets up the GUI.">
<polygon fill="white" stroke="#666666" points="294.88,-39 187.38,-39 187.38,-19 294.88,-19 294.88,-39"/>
<text text-anchor="middle" x="241.12" y="-25.5" font-family="Helvetica,sans-Serif" font-size="10.00">DataBaseGUI::setup</text>
</a>
</g>
</g>
<!-- Node8&#45;&gt;Node9 -->
<g id="edge10_Node000008_Node000009" class="edge">
<title>Node8&#45;&gt;Node9</title>
<g id="a_edge10_Node000008_Node000009"><a xlink:title=" ">
<path fill="none" stroke="#63b8ff" d="M325.87,-29C315.39,-29 304.84,-29 294.93,-29"/>
<polygon fill="#63b8ff" stroke="#63b8ff" points="325.66,-32.5 335.66,-29 325.66,-25.5 325.66,-32.5"/>
</a>
</g>
</g>
<!-- Node10 -->
<g id="Node000010" class="node">
<title>Node10</title>
<g id="a_Node000010"><a xlink:href="class_data_base_g_u_i.html#a2c83afe3a30fb5166d275d9a74d33196" target="_top" xlink:title="Default constructor.">
<polygon fill="white" stroke="#666666" points="145,-58 0,-58 0,-38 145,-38 145,-58"/>
<text text-anchor="middle" x="72.5" y="-44.5" font-family="Helvetica,sans-Serif" font-size="10.00">DataBaseGUI::DataBaseGUI</text>
</a>
</g>
</g>
<!-- Node9&#45;&gt;Node10 -->
<g id="edge11_Node000009_Node000010" class="edge">
<title>Node9&#45;&gt;Node10</title>
<g id="a_edge11_Node000009_Node000010"><a xlink:title=" ">
<path fill="none" stroke="#63b8ff" d="M175.53,-36.37C165.64,-37.49 155.37,-38.67 145.32,-39.81"/>
<polygon fill="#63b8ff" stroke="#63b8ff" points="175.9,-39.85 185.44,-35.24 175.11,-32.89 175.9,-39.85"/>
</a>
</g>
</g>
<!-- Node11 -->
<g id="Node000011" class="node">
<title>Node11</title>
<g id="a_Node000011"><a xlink:href="class_data_base_g_u_i.html#aba10d1d8e9fb151632ff34de418cee82" target="_top" xlink:title="Constructs a DataBaseGUI object.">
<polygon fill="white" stroke="#666666" points="145,-20 0,-20 0,0 145,0 145,-20"/>
<text text-anchor="middle" x="72.5" y="-6.5" font-family="Helvetica,sans-Serif" font-size="10.00">DataBaseGUI::DataBaseGUI</text>
</a>
</g>
</g>
<!-- Node9&#45;&gt;Node11 -->
<g id="edge12_Node000009_Node000011" class="edge">
<title>Node9&#45;&gt;Node11</title>
<g id="a_edge12_Node000009_Node000011"><a xlink:title=" ">
<path fill="none" stroke="#63b8ff" d="M175.53,-21.63C165.64,-20.51 155.37,-19.33 145.32,-18.19"/>
<polygon fill="#63b8ff" stroke="#63b8ff" points="175.11,-25.11 185.44,-22.76 175.9,-18.15 175.11,-25.11"/>
</a>
</g>
</g>
</g>
</svg>
