<?xml version="1.0" encoding="UTF-8" standalone="no"?>
<!DOCTYPE svg PUBLIC "-//W3C//DTD SVG 1.1//EN"
 "http://www.w3.org/Graphics/SVG/1.1/DTD/svg11.dtd">
<!-- Generated by graphviz version 12.2.1 (20241206.2353)
 -->
<!-- Title: ChildLabel Pages: 1 -->
<svg width="441pt" height="1053pt"
 viewBox="0.00 0.00 441.38 1053.00" xmlns="http://www.w3.org/2000/svg" xmlns:xlink="http://www.w3.org/1999/xlink">
<g id="graph0" class="graph" transform="scale(1 1) rotate(0) translate(4 1049)">
<title>ChildLabel</title>
<!-- Node1 -->
<g id="Node000001" class="node">
<title>Node1</title>
<g id="a_Node000001"><a xlink:title="Represents a label for displaying child name.">
<polygon fill="#999999" stroke="none" points="150,-68 74.25,-68 74.25,0 150,0 150,-68"/>
<text text-anchor="start" x="89.25" y="-54.5" font-family="Helvetica,sans-Serif" font-size="10.00">ChildLabel</text>
<text text-anchor="start" x="110.62" y="-38.5" font-family="Helvetica,sans-Serif" font-size="10.00"> </text>
<text text-anchor="start" x="78.25" y="-22.5" font-family="Helvetica,sans-Serif" font-size="10.00">+</text>
<text text-anchor="start" x="88.25" y="-22.5" font-family="Helvetica,sans-Serif" font-size="10.00">ChildLabel()</text>
<text text-anchor="start" x="78.25" y="-6.5" font-family="Helvetica,sans-Serif" font-size="10.00">+</text>
<text text-anchor="start" x="88.25" y="-6.5" font-family="Helvetica,sans-Serif" font-size="10.00">~ChildLabel()</text>
<polygon fill="#666666" stroke="#666666" points="74.25,-50 74.25,-50 150,-50 150,-50 74.25,-50"/>
<polygon fill="#666666" stroke="#666666" points="74.25,-34 74.25,-34 150,-34 150,-34 74.25,-34"/>
<polygon fill="none" stroke="#666666" points="74.25,0 74.25,-68 150,-68 150,0 74.25,0"/>
</a>
</g>
</g>
<!-- Node2 -->
<g id="Node000002" class="node">
<title>Node2</title>
<g id="a_Node000002"><a xlink:title=" ">
<polygon fill="white" stroke="none" points="46.25,-248 0,-248 0,-196 46.25,-196 46.25,-248"/>
<text text-anchor="start" x="4" y="-234.5" font-family="Helvetica,sans-Serif" font-size="10.00">QWidget</text>
<text text-anchor="start" x="21.62" y="-218.5" font-family="Helvetica,sans-Serif" font-size="10.00"> </text>
<text text-anchor="start" x="21.62" y="-202.5" font-family="Helvetica,sans-Serif" font-size="10.00"> </text>
<polygon fill="#666666" stroke="#666666" points="0,-230 0,-230 46.25,-230 46.25,-230 0,-230"/>
<polygon fill="#666666" stroke="#666666" points="0,-214 0,-214 46.25,-214 46.25,-214 0,-214"/>
<polygon fill="none" stroke="#666666" points="0,-196 0,-248 46.25,-248 46.25,-196 0,-196"/>
</a>
</g>
</g>
<!-- Node2&#45;&gt;Node1 -->
<g id="edge1_Node000001_Node000002" class="edge">
<title>Node2&#45;&gt;Node1</title>
<g id="a_edge1_Node000001_Node000002"><a xlink:title=" ">
<path fill="none" stroke="#63b8ff" d="M30.96,-185.47C36.28,-164.62 44.32,-138.1 55.12,-116 63.35,-99.16 74.91,-81.98 85.47,-67.79"/>
<polygon fill="none" stroke="#63b8ff" points="27.62,-184.39 28.64,-194.94 34.42,-186.06 27.62,-184.39"/>
</a>
</g>
</g>
<!-- Node3 -->
<g id="Node000003" class="node">
<title>Node3</title>
<g id="a_Node000003"><a xlink:href="class_ui_1_1_child_label_class.html" target="_top" xlink:title=" ">
<polygon fill="white" stroke="none" points="159.62,-248 64.62,-248 64.62,-196 159.62,-196 159.62,-248"/>
<text text-anchor="start" x="68.62" y="-234.5" font-family="Helvetica,sans-Serif" font-size="10.00">Ui::ChildLabelClass</text>
<text text-anchor="start" x="110.62" y="-218.5" font-family="Helvetica,sans-Serif" font-size="10.00"> </text>
<text text-anchor="start" x="110.62" y="-202.5" font-family="Helvetica,sans-Serif" font-size="10.00"> </text>
<polygon fill="#666666" stroke="#666666" points="64.62,-230 64.62,-230 159.62,-230 159.62,-230 64.62,-230"/>
<polygon fill="#666666" stroke="#666666" points="64.62,-214 64.62,-214 159.62,-214 159.62,-214 64.62,-214"/>
<polygon fill="none" stroke="#666666" points="64.62,-196 64.62,-248 159.62,-248 159.62,-196 64.62,-196"/>
</a>
</g>
</g>
<!-- Node3&#45;&gt;Node1 -->
<g id="edge2_Node000001_Node000003" class="edge">
<title>Node3&#45;&gt;Node1</title>
<g id="a_edge2_Node000001_Node000003"><a xlink:title=" ">
<path fill="none" stroke="#63b8ff" d="M112.12,-196.3C112.12,-166.9 112.12,-117.22 112.12,-80.74"/>
<polygon fill="none" stroke="#63b8ff" points="112.13,-80.86 108.13,-74.86 112.13,-68.86 116.13,-74.86 112.13,-80.86"/>
</a>
</g>
<text text-anchor="middle" x="118.88" y="-88.5" font-family="Helvetica,sans-Serif" font-size="10.00" fill="grey"> &#45;ui</text>
</g>
<!-- Node4 -->
<g id="Node000004" class="node">
<title>Node4</title>
<g id="a_Node000004"><a xlink:href="class_ui___child_label_class.html" target="_top" xlink:title=" ">
<polygon fill="white" stroke="none" points="145.25,-544 51,-544 51,-476 145.25,-476 145.25,-544"/>
<text text-anchor="start" x="55" y="-530.5" font-family="Helvetica,sans-Serif" font-size="10.00">Ui_ChildLabelClass</text>
<text text-anchor="start" x="58.69" y="-514.5" font-family="Helvetica,sans-Serif" font-size="10.00">+</text>
<text text-anchor="start" x="72.38" y="-514.5" font-family="Helvetica,sans-Serif" font-size="10.00">gridLayout</text>
<text text-anchor="start" x="58.69" y="-498.5" font-family="Helvetica,sans-Serif" font-size="10.00">+</text>
<text text-anchor="start" x="72.38" y="-498.5" font-family="Helvetica,sans-Serif" font-size="10.00">setupUi()</text>
<text text-anchor="start" x="58.69" y="-482.5" font-family="Helvetica,sans-Serif" font-size="10.00">+</text>
<text text-anchor="start" x="72.38" y="-482.5" font-family="Helvetica,sans-Serif" font-size="10.00">retranslateUi()</text>
<polygon fill="#666666" stroke="#666666" points="51,-526 51,-526 145.25,-526 145.25,-526 51,-526"/>
<polygon fill="#666666" stroke="#666666" points="51,-510 51,-510 70.38,-510 70.38,-510 51,-510"/>
<polygon fill="#666666" stroke="#666666" points="70.38,-510 70.38,-510 145.25,-510 145.25,-510 70.38,-510"/>
<polygon fill="none" stroke="#666666" points="51,-476 51,-544 145.25,-544 145.25,-476 51,-476"/>
</a>
</g>
</g>
<!-- Node4&#45;&gt;Node3 -->
<g id="edge3_Node000003_Node000004" class="edge">
<title>Node4&#45;&gt;Node3</title>
<g id="a_edge3_Node000003_Node000004"><a xlink:title=" ">
<path fill="none" stroke="#63b8ff" d="M100.28,-465.05C103.25,-404.25 108.53,-296.48 110.9,-247.93"/>
<polygon fill="none" stroke="#63b8ff" points="96.8,-464.52 99.8,-474.68 103.79,-464.86 96.8,-464.52"/>
</a>
</g>
</g>
<!-- Node5 -->
<g id="Node000005" class="node">
<title>Node5</title>
<g id="a_Node000005"><a xlink:href="class_clickable_label.html" target="_top" xlink:title="A QLabel subclass that emits a clicked signal when the label is clicked.">
<polygon fill="white" stroke="none" points="129.5,-852 14.75,-852 14.75,-784 129.5,-784 129.5,-852"/>
<text text-anchor="start" x="40.25" y="-838.5" font-family="Helvetica,sans-Serif" font-size="10.00">ClickableLabel</text>
<text text-anchor="start" x="70.62" y="-822.5" font-family="Helvetica,sans-Serif" font-size="10.00"> </text>
<text text-anchor="start" x="18.75" y="-806.5" font-family="Helvetica,sans-Serif" font-size="10.00">+</text>
<text text-anchor="start" x="28.75" y="-806.5" font-family="Helvetica,sans-Serif" font-size="10.00">ClickableLabel()</text>
<text text-anchor="start" x="19.12" y="-790.5" font-family="Helvetica,sans-Serif" font-size="10.00">#</text>
<text text-anchor="start" x="28.75" y="-790.5" font-family="Helvetica,sans-Serif" font-size="10.00">mouseReleaseEvent()</text>
<polygon fill="#666666" stroke="#666666" points="14.75,-834 14.75,-834 129.5,-834 129.5,-834 14.75,-834"/>
<polygon fill="#666666" stroke="#666666" points="14.75,-818 14.75,-818 129.5,-818 129.5,-818 14.75,-818"/>
<polygon fill="none" stroke="#666666" points="14.75,-784 14.75,-852 129.5,-852 129.5,-784 14.75,-784"/>
</a>
</g>
</g>
<!-- Node5&#45;&gt;Node4 -->
<g id="edge4_Node000004_Node000005" class="edge">
<title>Node5&#45;&gt;Node4</title>
<g id="a_edge4_Node000004_Node000005"><a xlink:title=" ">
<path fill="none" stroke="#63b8ff" d="M74.91,-784.25C79.56,-729.53 88.92,-619.35 94.22,-556.91"/>
<polygon fill="none" stroke="#63b8ff" points="94.23,-556.83 90.75,-550.51 95.25,-544.87 98.72,-551.19 94.23,-556.83"/>
</a>
</g>
<text text-anchor="middle" x="123.78" y="-652.5" font-family="Helvetica,sans-Serif" font-size="10.00" fill="grey"> +name_surname</text>
</g>
<!-- Node6 -->
<g id="Node000006" class="node">
<title>Node6</title>
<g id="a_Node000006"><a xlink:title=" ">
<polygon fill="white" stroke="none" points="91.5,-1045 52.75,-1045 52.75,-993 91.5,-993 91.5,-1045"/>
<text text-anchor="start" x="56.75" y="-1031.5" font-family="Helvetica,sans-Serif" font-size="10.00">QLabel</text>
<text text-anchor="start" x="70.62" y="-1015.5" font-family="Helvetica,sans-Serif" font-size="10.00"> </text>
<text text-anchor="start" x="70.62" y="-999.5" font-family="Helvetica,sans-Serif" font-size="10.00"> </text>
<polygon fill="#666666" stroke="#666666" points="52.75,-1027 52.75,-1027 91.5,-1027 91.5,-1027 52.75,-1027"/>
<polygon fill="#666666" stroke="#666666" points="52.75,-1011 52.75,-1011 91.5,-1011 91.5,-1011 52.75,-1011"/>
<polygon fill="none" stroke="#666666" points="52.75,-993 52.75,-1045 91.5,-1045 91.5,-993 52.75,-993"/>
</a>
</g>
</g>
<!-- Node6&#45;&gt;Node5 -->
<g id="edge5_Node000005_Node000006" class="edge">
<title>Node6&#45;&gt;Node5</title>
<g id="a_edge5_Node000005_Node000006"><a xlink:title=" ">
<path fill="none" stroke="#63b8ff" d="M72.12,-981.91C72.12,-944.82 72.12,-887.55 72.12,-851.73"/>
<polygon fill="none" stroke="#63b8ff" points="68.63,-981.69 72.13,-991.69 75.63,-981.69 68.63,-981.69"/>
</a>
</g>
</g>
<!-- Node7 -->
<g id="Node000007" class="node">
<title>Node7</title>
<g id="a_Node000007"><a xlink:href="class_child.html" target="_top" xlink:title="Represents a child.">
<polygon fill="white" stroke="none" points="272,-328 196.25,-328 196.25,-116 272,-116 272,-328"/>
<text text-anchor="start" x="222.88" y="-314.5" font-family="Helvetica,sans-Serif" font-size="10.00">Child</text>
<text text-anchor="start" x="232.62" y="-298.5" font-family="Helvetica,sans-Serif" font-size="10.00"> </text>
<text text-anchor="start" x="200.25" y="-282.5" font-family="Helvetica,sans-Serif" font-size="10.00">+</text>
<text text-anchor="start" x="210.25" y="-282.5" font-family="Helvetica,sans-Serif" font-size="10.00">Child()</text>
<text text-anchor="start" x="200.25" y="-266.5" font-family="Helvetica,sans-Serif" font-size="10.00">+</text>
<text text-anchor="start" x="210.25" y="-266.5" font-family="Helvetica,sans-Serif" font-size="10.00">Child()</text>
<text text-anchor="start" x="200.25" y="-250.5" font-family="Helvetica,sans-Serif" font-size="10.00">+</text>
<text text-anchor="start" x="210.25" y="-250.5" font-family="Helvetica,sans-Serif" font-size="10.00">Child()</text>
<text text-anchor="start" x="200.25" y="-234.5" font-family="Helvetica,sans-Serif" font-size="10.00">+</text>
<text text-anchor="start" x="210.25" y="-234.5" font-family="Helvetica,sans-Serif" font-size="10.00">Child()</text>
<text text-anchor="start" x="200.25" y="-218.5" font-family="Helvetica,sans-Serif" font-size="10.00">+</text>
<text text-anchor="start" x="210.25" y="-218.5" font-family="Helvetica,sans-Serif" font-size="10.00">Child()</text>
<text text-anchor="start" x="200.25" y="-202.5" font-family="Helvetica,sans-Serif" font-size="10.00">+</text>
<text text-anchor="start" x="210.25" y="-202.5" font-family="Helvetica,sans-Serif" font-size="10.00">operator=()</text>
<text text-anchor="start" x="200.25" y="-186.5" font-family="Helvetica,sans-Serif" font-size="10.00">+</text>
<text text-anchor="start" x="210.25" y="-186.5" font-family="Helvetica,sans-Serif" font-size="10.00">operator=()</text>
<text text-anchor="start" x="200.25" y="-170.5" font-family="Helvetica,sans-Serif" font-size="10.00">+</text>
<text text-anchor="start" x="210.25" y="-170.5" font-family="Helvetica,sans-Serif" font-size="10.00">operator==()</text>
<text text-anchor="start" x="200.25" y="-154.5" font-family="Helvetica,sans-Serif" font-size="10.00">+</text>
<text text-anchor="start" x="210.25" y="-154.5" font-family="Helvetica,sans-Serif" font-size="10.00">operator!=()</text>
<text text-anchor="start" x="200.25" y="-138.5" font-family="Helvetica,sans-Serif" font-size="10.00">+</text>
<text text-anchor="start" x="210.25" y="-138.5" font-family="Helvetica,sans-Serif" font-size="10.00">get_age()</text>
<text text-anchor="start" x="210.25" y="-122.5" font-family="Helvetica,sans-Serif" font-size="10.00">and 7 more...</text>
<polygon fill="#666666" stroke="#666666" points="196.25,-310 196.25,-310 272,-310 272,-310 196.25,-310"/>
<polygon fill="#666666" stroke="#666666" points="196.25,-294 196.25,-294 272,-294 272,-294 196.25,-294"/>
<polygon fill="none" stroke="#666666" points="196.25,-116 196.25,-328 272,-328 272,-116 196.25,-116"/>
</a>
</g>
</g>
<!-- Node7&#45;&gt;Node1 -->
<g id="edge6_Node000001_Node000007" class="edge">
<title>Node7&#45;&gt;Node1</title>
<g id="a_edge6_Node000001_Node000007"><a xlink:title=" ">
<path fill="none" stroke="#63b8ff" d="M196.36,-159.91C187.24,-145.44 177.43,-130.11 168.12,-116 160.05,-103.76 151.11,-90.63 142.78,-78.59"/>
<polygon fill="none" stroke="#63b8ff" points="142.7,-78.48 135.99,-75.83 135.86,-68.62 142.56,-71.27 142.7,-78.48"/>
</a>
</g>
<text text-anchor="middle" x="170.34" y="-88.5" font-family="Helvetica,sans-Serif" font-size="10.00" fill="grey"> &#45;child_</text>
</g>
<!-- Node8 -->
<g id="Node000008" class="node">
<title>Node8</title>
<g id="a_Node000008"><a xlink:href="class_person.html" target="_top" xlink:title="Represents a generic person.">
<polygon fill="white" stroke="none" points="228.25,-956 148,-956 148,-680 228.25,-680 228.25,-956"/>
<text text-anchor="start" x="172.75" y="-942.5" font-family="Helvetica,sans-Serif" font-size="10.00">Person</text>
<text text-anchor="start" x="152.38" y="-926.5" font-family="Helvetica,sans-Serif" font-size="10.00">#</text>
<text text-anchor="start" x="162" y="-926.5" font-family="Helvetica,sans-Serif" font-size="10.00">name_</text>
<text text-anchor="start" x="152.38" y="-910.5" font-family="Helvetica,sans-Serif" font-size="10.00">#</text>
<text text-anchor="start" x="162" y="-910.5" font-family="Helvetica,sans-Serif" font-size="10.00">surname_</text>
<text text-anchor="start" x="152" y="-894.5" font-family="Helvetica,sans-Serif" font-size="10.00">+</text>
<text text-anchor="start" x="162" y="-894.5" font-family="Helvetica,sans-Serif" font-size="10.00">Person()</text>
<text text-anchor="start" x="152" y="-878.5" font-family="Helvetica,sans-Serif" font-size="10.00">+</text>
<text text-anchor="start" x="162" y="-878.5" font-family="Helvetica,sans-Serif" font-size="10.00">Person()</text>
<text text-anchor="start" x="152" y="-862.5" font-family="Helvetica,sans-Serif" font-size="10.00">+</text>
<text text-anchor="start" x="162" y="-862.5" font-family="Helvetica,sans-Serif" font-size="10.00">Person()</text>
<text text-anchor="start" x="152" y="-846.5" font-family="Helvetica,sans-Serif" font-size="10.00">+</text>
<text text-anchor="start" x="162" y="-846.5" font-family="Helvetica,sans-Serif" font-size="10.00">Person()</text>
<text text-anchor="start" x="152" y="-830.5" font-family="Helvetica,sans-Serif" font-size="10.00">+</text>
<text text-anchor="start" x="162" y="-830.5" font-family="Helvetica,sans-Serif" font-size="10.00">Person()</text>
<text text-anchor="start" x="152" y="-814.5" font-family="Helvetica,sans-Serif" font-size="10.00">+</text>
<text text-anchor="start" x="162" y="-814.5" font-family="Helvetica,sans-Serif" font-size="10.00">operator=()</text>
<text text-anchor="start" x="152" y="-798.5" font-family="Helvetica,sans-Serif" font-size="10.00">+</text>
<text text-anchor="start" x="162" y="-798.5" font-family="Helvetica,sans-Serif" font-size="10.00">operator=()</text>
<text text-anchor="start" x="152" y="-782.5" font-family="Helvetica,sans-Serif" font-size="10.00">+</text>
<text text-anchor="start" x="162" y="-782.5" font-family="Helvetica,sans-Serif" font-size="10.00">operator==()</text>
<text text-anchor="start" x="152" y="-766.5" font-family="Helvetica,sans-Serif" font-size="10.00">+</text>
<text text-anchor="start" x="162" y="-766.5" font-family="Helvetica,sans-Serif" font-size="10.00">operator!=()</text>
<text text-anchor="start" x="152" y="-750.5" font-family="Helvetica,sans-Serif" font-size="10.00">+</text>
<text text-anchor="start" x="162" y="-750.5" font-family="Helvetica,sans-Serif" font-size="10.00">get_name()</text>
<text text-anchor="start" x="152" y="-734.5" font-family="Helvetica,sans-Serif" font-size="10.00">+</text>
<text text-anchor="start" x="162" y="-734.5" font-family="Helvetica,sans-Serif" font-size="10.00">set_name()</text>
<text text-anchor="start" x="152" y="-718.5" font-family="Helvetica,sans-Serif" font-size="10.00">+</text>
<text text-anchor="start" x="162" y="-718.5" font-family="Helvetica,sans-Serif" font-size="10.00">get_surname()</text>
<text text-anchor="start" x="152" y="-702.5" font-family="Helvetica,sans-Serif" font-size="10.00">+</text>
<text text-anchor="start" x="162" y="-702.5" font-family="Helvetica,sans-Serif" font-size="10.00">set_surname()</text>
<text text-anchor="start" x="152" y="-686.5" font-family="Helvetica,sans-Serif" font-size="10.00">+</text>
<text text-anchor="start" x="162" y="-686.5" font-family="Helvetica,sans-Serif" font-size="10.00">~Person()</text>
<polygon fill="#666666" stroke="#666666" points="148,-938 148,-938 228.25,-938 228.25,-938 148,-938"/>
<polygon fill="#666666" stroke="#666666" points="148,-906 148,-906 160,-906 160,-906 148,-906"/>
<polygon fill="#666666" stroke="#666666" points="160,-906 160,-906 228.25,-906 228.25,-906 160,-906"/>
<polygon fill="none" stroke="#666666" points="148,-680 148,-956 228.25,-956 228.25,-680 148,-680"/>
</a>
</g>
</g>
<!-- Node8&#45;&gt;Node7 -->
<g id="edge7_Node000007_Node000008" class="edge">
<title>Node8&#45;&gt;Node7</title>
<g id="a_edge7_Node000007_Node000008"><a xlink:title=" ">
<path fill="none" stroke="#63b8ff" d="M185.89,-669.07C186.23,-586.17 189.32,-481.05 200.12,-388 202.4,-368.39 205.84,-347.65 209.67,-327.74"/>
<polygon fill="none" stroke="#63b8ff" points="182.39,-668.83 185.87,-678.84 189.39,-668.85 182.39,-668.83"/>
</a>
</g>
</g>
<!-- Node10 -->
<g id="Node000010" class="node">
<title>Node10</title>
<g id="a_Node000010"><a xlink:href="class_parent.html" target="_top" xlink:title="Represents a parent.">
<polygon fill="white" stroke="none" points="285,-624 209.25,-624 209.25,-396 285,-396 285,-624"/>
<text text-anchor="start" x="232.88" y="-610.5" font-family="Helvetica,sans-Serif" font-size="10.00">Parent</text>
<text text-anchor="start" x="213.62" y="-594.5" font-family="Helvetica,sans-Serif" font-size="10.00">#</text>
<text text-anchor="start" x="223.25" y="-594.5" font-family="Helvetica,sans-Serif" font-size="10.00">is_mother_</text>
<text text-anchor="start" x="213.62" y="-578.5" font-family="Helvetica,sans-Serif" font-size="10.00">#</text>
<text text-anchor="start" x="223.25" y="-578.5" font-family="Helvetica,sans-Serif" font-size="10.00">children_</text>
<text text-anchor="start" x="213.25" y="-562.5" font-family="Helvetica,sans-Serif" font-size="10.00">+</text>
<text text-anchor="start" x="223.25" y="-562.5" font-family="Helvetica,sans-Serif" font-size="10.00">Parent()</text>
<text text-anchor="start" x="213.25" y="-546.5" font-family="Helvetica,sans-Serif" font-size="10.00">+</text>
<text text-anchor="start" x="223.25" y="-546.5" font-family="Helvetica,sans-Serif" font-size="10.00">Parent()</text>
<text text-anchor="start" x="213.25" y="-530.5" font-family="Helvetica,sans-Serif" font-size="10.00">+</text>
<text text-anchor="start" x="223.25" y="-530.5" font-family="Helvetica,sans-Serif" font-size="10.00">Parent()</text>
<text text-anchor="start" x="213.25" y="-514.5" font-family="Helvetica,sans-Serif" font-size="10.00">+</text>
<text text-anchor="start" x="223.25" y="-514.5" font-family="Helvetica,sans-Serif" font-size="10.00">Parent()</text>
<text text-anchor="start" x="213.25" y="-498.5" font-family="Helvetica,sans-Serif" font-size="10.00">+</text>
<text text-anchor="start" x="223.25" y="-498.5" font-family="Helvetica,sans-Serif" font-size="10.00">Parent()</text>
<text text-anchor="start" x="213.25" y="-482.5" font-family="Helvetica,sans-Serif" font-size="10.00">+</text>
<text text-anchor="start" x="223.25" y="-482.5" font-family="Helvetica,sans-Serif" font-size="10.00">operator=()</text>
<text text-anchor="start" x="213.25" y="-466.5" font-family="Helvetica,sans-Serif" font-size="10.00">+</text>
<text text-anchor="start" x="223.25" y="-466.5" font-family="Helvetica,sans-Serif" font-size="10.00">operator=()</text>
<text text-anchor="start" x="213.25" y="-450.5" font-family="Helvetica,sans-Serif" font-size="10.00">+</text>
<text text-anchor="start" x="223.25" y="-450.5" font-family="Helvetica,sans-Serif" font-size="10.00">operator==()</text>
<text text-anchor="start" x="213.25" y="-434.5" font-family="Helvetica,sans-Serif" font-size="10.00">+</text>
<text text-anchor="start" x="223.25" y="-434.5" font-family="Helvetica,sans-Serif" font-size="10.00">operator!=()</text>
<text text-anchor="start" x="213.25" y="-418.5" font-family="Helvetica,sans-Serif" font-size="10.00">+</text>
<text text-anchor="start" x="223.25" y="-418.5" font-family="Helvetica,sans-Serif" font-size="10.00">get_email()</text>
<text text-anchor="start" x="223.25" y="-402.5" font-family="Helvetica,sans-Serif" font-size="10.00">and 9 more...</text>
<polygon fill="#666666" stroke="#666666" points="209.25,-606 209.25,-606 285,-606 285,-606 209.25,-606"/>
<polygon fill="#666666" stroke="#666666" points="209.25,-574 209.25,-574 221.25,-574 221.25,-574 209.25,-574"/>
<polygon fill="#666666" stroke="#666666" points="221.25,-574 221.25,-574 285,-574 285,-574 221.25,-574"/>
<polygon fill="none" stroke="#666666" points="209.25,-396 209.25,-624 285,-624 285,-396 209.25,-396"/>
</a>
</g>
</g>
<!-- Node8&#45;&gt;Node10 -->
<g id="edge10_Node000010_Node000008" class="edge">
<title>Node8&#45;&gt;Node10</title>
<g id="a_edge10_Node000010_Node000008"><a xlink:title=" ">
<path fill="none" stroke="#63b8ff" d="M216.65,-669.08C219.57,-653.9 222.51,-638.66 225.35,-623.94"/>
<polygon fill="none" stroke="#63b8ff" points="213.26,-668.14 214.81,-678.62 220.14,-669.47 213.26,-668.14"/>
</a>
</g>
</g>
<!-- Node9 -->
<g id="Node000009" class="node">
<title>Node9</title>
<g id="a_Node000009"><a xlink:href="class_date.html" target="_top" xlink:title="Represents a date (day, month, year).">
<polygon fill="white" stroke="none" points="433.38,-632 302.88,-632 302.88,-388 433.38,-388 433.38,-632"/>
<text text-anchor="start" x="357.62" y="-618.5" font-family="Helvetica,sans-Serif" font-size="10.00">Date</text>
<text text-anchor="start" x="307.25" y="-602.5" font-family="Helvetica,sans-Serif" font-size="10.00">#</text>
<text text-anchor="start" x="316.88" y="-602.5" font-family="Helvetica,sans-Serif" font-size="10.00">date_</text>
<text text-anchor="start" x="306.88" y="-586.5" font-family="Helvetica,sans-Serif" font-size="10.00">+</text>
<text text-anchor="start" x="316.88" y="-586.5" font-family="Helvetica,sans-Serif" font-size="10.00">Date()</text>
<text text-anchor="start" x="306.88" y="-570.5" font-family="Helvetica,sans-Serif" font-size="10.00">+</text>
<text text-anchor="start" x="316.88" y="-570.5" font-family="Helvetica,sans-Serif" font-size="10.00">Date()</text>
<text text-anchor="start" x="306.88" y="-554.5" font-family="Helvetica,sans-Serif" font-size="10.00">+</text>
<text text-anchor="start" x="316.88" y="-554.5" font-family="Helvetica,sans-Serif" font-size="10.00">Date()</text>
<text text-anchor="start" x="306.88" y="-538.5" font-family="Helvetica,sans-Serif" font-size="10.00">+</text>
<text text-anchor="start" x="316.88" y="-538.5" font-family="Helvetica,sans-Serif" font-size="10.00">Date()</text>
<text text-anchor="start" x="306.88" y="-522.5" font-family="Helvetica,sans-Serif" font-size="10.00">+</text>
<text text-anchor="start" x="316.88" y="-522.5" font-family="Helvetica,sans-Serif" font-size="10.00">Date()</text>
<text text-anchor="start" x="306.88" y="-506.5" font-family="Helvetica,sans-Serif" font-size="10.00">+</text>
<text text-anchor="start" x="316.88" y="-506.5" font-family="Helvetica,sans-Serif" font-size="10.00">Date()</text>
<text text-anchor="start" x="306.88" y="-490.5" font-family="Helvetica,sans-Serif" font-size="10.00">+</text>
<text text-anchor="start" x="316.88" y="-490.5" font-family="Helvetica,sans-Serif" font-size="10.00">operator=()</text>
<text text-anchor="start" x="306.88" y="-474.5" font-family="Helvetica,sans-Serif" font-size="10.00">+</text>
<text text-anchor="start" x="316.88" y="-474.5" font-family="Helvetica,sans-Serif" font-size="10.00">operator=()</text>
<text text-anchor="start" x="306.88" y="-458.5" font-family="Helvetica,sans-Serif" font-size="10.00">+</text>
<text text-anchor="start" x="316.88" y="-458.5" font-family="Helvetica,sans-Serif" font-size="10.00">set_day()</text>
<text text-anchor="start" x="306.88" y="-442.5" font-family="Helvetica,sans-Serif" font-size="10.00">+</text>
<text text-anchor="start" x="316.88" y="-442.5" font-family="Helvetica,sans-Serif" font-size="10.00">get_day()</text>
<text text-anchor="start" x="316.88" y="-426.5" font-family="Helvetica,sans-Serif" font-size="10.00">and 15 more...</text>
<text text-anchor="start" x="306.88" y="-410.5" font-family="Helvetica,sans-Serif" font-size="10.00">+</text>
<text text-anchor="start" x="316.88" y="-410.5" font-family="Helvetica,sans-Serif" font-size="10.00">get_weekday_from_date()</text>
<text text-anchor="start" x="306.88" y="-394.5" font-family="Helvetica,sans-Serif" font-size="10.00">+</text>
<text text-anchor="start" x="316.88" y="-394.5" font-family="Helvetica,sans-Serif" font-size="10.00">get_current_date()</text>
<polygon fill="#666666" stroke="#666666" points="302.88,-614 302.88,-614 433.38,-614 433.38,-614 302.88,-614"/>
<polygon fill="#666666" stroke="#666666" points="302.88,-598 302.88,-598 314.88,-598 314.88,-598 302.88,-598"/>
<polygon fill="#666666" stroke="#666666" points="314.88,-598 314.88,-598 433.38,-598 433.38,-598 314.88,-598"/>
<polygon fill="none" stroke="#666666" points="302.88,-388 302.88,-632 433.38,-632 433.38,-388 302.88,-388"/>
</a>
</g>
</g>
<!-- Node9&#45;&gt;Node7 -->
<g id="edge8_Node000007_Node000009" class="edge">
<title>Node9&#45;&gt;Node7</title>
<g id="a_edge8_Node000007_Node000009"><a xlink:title=" ">
<path fill="none" stroke="#63b8ff" d="M311.49,-388.12C300.06,-363.74 288.23,-338.47 277.35,-315.25"/>
<polygon fill="none" stroke="#63b8ff" points="277.4,-315.36 271.23,-311.62 272.31,-304.49 278.47,-308.23 277.4,-315.36"/>
</a>
</g>
<text text-anchor="middle" x="329.25" y="-354.5" font-family="Helvetica,sans-Serif" font-size="10.00" fill="grey"> #birth_date_</text>
</g>
<!-- Node10&#45;&gt;Node7 -->
<g id="edge9_Node000007_Node000010" class="edge">
<title>Node10&#45;&gt;Node7</title>
<g id="a_edge9_Node000007_Node000010"><a xlink:title=" ">
<path fill="none" stroke="#63b8ff" d="M242.01,-396.38C241.17,-378.05 240.31,-359.02 239.47,-340.58"/>
<polygon fill="none" stroke="#63b8ff" points="239.47,-340.49 235.2,-334.67 238.92,-328.5 243.19,-334.31 239.47,-340.49"/>
</a>
</g>
<text text-anchor="middle" x="256.75" y="-360.5" font-family="Helvetica,sans-Serif" font-size="10.00" fill="grey"> #dad_</text>
<text text-anchor="middle" x="256.75" y="-348.5" font-family="Helvetica,sans-Serif" font-size="10.00" fill="grey">#mom_</text>
</g>
<!-- Node11 -->
<g id="Node000011" class="node">
<title>Node11</title>
<g id="a_Node000011"><a xlink:href="class_email.html" target="_top" xlink:title="Represents an email address.">
<polygon fill="white" stroke="none" points="317.75,-932 246.5,-932 246.5,-704 317.75,-704 317.75,-932"/>
<text text-anchor="start" x="269.75" y="-918.5" font-family="Helvetica,sans-Serif" font-size="10.00">Email</text>
<text text-anchor="start" x="252" y="-902.5" font-family="Helvetica,sans-Serif" font-size="10.00">&#45;</text>
<text text-anchor="start" x="260.5" y="-902.5" font-family="Helvetica,sans-Serif" font-size="10.00">email_</text>
<text text-anchor="start" x="250.5" y="-886.5" font-family="Helvetica,sans-Serif" font-size="10.00">+</text>
<text text-anchor="start" x="260.5" y="-886.5" font-family="Helvetica,sans-Serif" font-size="10.00">Email()</text>
<text text-anchor="start" x="250.5" y="-870.5" font-family="Helvetica,sans-Serif" font-size="10.00">+</text>
<text text-anchor="start" x="260.5" y="-870.5" font-family="Helvetica,sans-Serif" font-size="10.00">Email()</text>
<text text-anchor="start" x="250.5" y="-854.5" font-family="Helvetica,sans-Serif" font-size="10.00">+</text>
<text text-anchor="start" x="260.5" y="-854.5" font-family="Helvetica,sans-Serif" font-size="10.00">Email()</text>
<text text-anchor="start" x="250.5" y="-838.5" font-family="Helvetica,sans-Serif" font-size="10.00">+</text>
<text text-anchor="start" x="260.5" y="-838.5" font-family="Helvetica,sans-Serif" font-size="10.00">Email()</text>
<text text-anchor="start" x="250.5" y="-822.5" font-family="Helvetica,sans-Serif" font-size="10.00">+</text>
<text text-anchor="start" x="260.5" y="-822.5" font-family="Helvetica,sans-Serif" font-size="10.00">Email()</text>
<text text-anchor="start" x="250.5" y="-806.5" font-family="Helvetica,sans-Serif" font-size="10.00">+</text>
<text text-anchor="start" x="260.5" y="-806.5" font-family="Helvetica,sans-Serif" font-size="10.00">operator=()</text>
<text text-anchor="start" x="250.5" y="-790.5" font-family="Helvetica,sans-Serif" font-size="10.00">+</text>
<text text-anchor="start" x="260.5" y="-790.5" font-family="Helvetica,sans-Serif" font-size="10.00">operator=()</text>
<text text-anchor="start" x="250.5" y="-774.5" font-family="Helvetica,sans-Serif" font-size="10.00">+</text>
<text text-anchor="start" x="260.5" y="-774.5" font-family="Helvetica,sans-Serif" font-size="10.00">operator==()</text>
<text text-anchor="start" x="250.5" y="-758.5" font-family="Helvetica,sans-Serif" font-size="10.00">+</text>
<text text-anchor="start" x="260.5" y="-758.5" font-family="Helvetica,sans-Serif" font-size="10.00">get_email()</text>
<text text-anchor="start" x="250.5" y="-742.5" font-family="Helvetica,sans-Serif" font-size="10.00">+</text>
<text text-anchor="start" x="260.5" y="-742.5" font-family="Helvetica,sans-Serif" font-size="10.00">set_email()</text>
<text text-anchor="start" x="250.5" y="-726.5" font-family="Helvetica,sans-Serif" font-size="10.00">+</text>
<text text-anchor="start" x="260.5" y="-726.5" font-family="Helvetica,sans-Serif" font-size="10.00">copy()</text>
<text text-anchor="start" x="250.5" y="-710.5" font-family="Helvetica,sans-Serif" font-size="10.00">+</text>
<text text-anchor="start" x="260.5" y="-710.5" font-family="Helvetica,sans-Serif" font-size="10.00">~Email()</text>
<polygon fill="#666666" stroke="#666666" points="246.5,-914 246.5,-914 317.75,-914 317.75,-914 246.5,-914"/>
<polygon fill="#666666" stroke="#666666" points="246.5,-898 246.5,-898 258.5,-898 258.5,-898 246.5,-898"/>
<polygon fill="#666666" stroke="#666666" points="258.5,-898 258.5,-898 317.75,-898 317.75,-898 258.5,-898"/>
<polygon fill="none" stroke="#666666" points="246.5,-704 246.5,-932 317.75,-932 317.75,-704 246.5,-704"/>
</a>
</g>
</g>
<!-- Node11&#45;&gt;Node10 -->
<g id="edge11_Node000010_Node000011" class="edge">
<title>Node11&#45;&gt;Node10</title>
<g id="a_edge11_Node000010_Node000011"><a xlink:title=" ">
<path fill="none" stroke="#63b8ff" d="M269.24,-704.36C266.72,-682.32 264.06,-659.08 261.5,-636.64"/>
<polygon fill="none" stroke="#63b8ff" points="261.51,-636.73 256.85,-631.22 260.14,-624.81 264.8,-630.31 261.51,-636.73"/>
</a>
</g>
<text text-anchor="middle" x="281.95" y="-652.5" font-family="Helvetica,sans-Serif" font-size="10.00" fill="grey"> #email_</text>
</g>
<!-- Node12 -->
<g id="Node000012" class="node">
<title>Node12</title>
<g id="a_Node000012"><a xlink:href="class_contacts.html" target="_top" xlink:title="Base class for contact&#45;related utilities.">
<polygon fill="white" stroke="none" points="333.12,-1045 231.12,-1045 231.12,-993 333.12,-993 333.12,-1045"/>
<text text-anchor="start" x="262.25" y="-1031.5" font-family="Helvetica,sans-Serif" font-size="10.00">Contacts</text>
<text text-anchor="start" x="280.62" y="-1015.5" font-family="Helvetica,sans-Serif" font-size="10.00"> </text>
<text text-anchor="start" x="235.12" y="-999.5" font-family="Helvetica,sans-Serif" font-size="10.00">#</text>
<text text-anchor="start" x="244.38" y="-999.5" font-family="Helvetica,sans-Serif" font-size="10.00">copy_to_clipboard()</text>
<polygon fill="#666666" stroke="#666666" points="231.12,-1027 231.12,-1027 333.12,-1027 333.12,-1027 231.12,-1027"/>
<polygon fill="#666666" stroke="#666666" points="231.12,-1011 231.12,-1011 333.12,-1011 333.12,-1011 231.12,-1011"/>
<polygon fill="none" stroke="#666666" points="231.12,-993 231.12,-1045 333.12,-1045 333.12,-993 231.12,-993"/>
</a>
</g>
</g>
<!-- Node12&#45;&gt;Node11 -->
<g id="edge12_Node000011_Node000012" class="edge">
<title>Node12&#45;&gt;Node11</title>
<g id="a_edge12_Node000011_Node000012"><a xlink:title=" ">
<path fill="none" stroke="#63b8ff" d="M282.12,-981.85C282.12,-967.41 282.12,-949.94 282.12,-931.87"/>
<polygon fill="none" stroke="#63b8ff" points="278.63,-981.69 282.13,-991.69 285.63,-981.69 278.63,-981.69"/>
</a>
</g>
</g>
</g>
</svg>
