<?xml version="1.0" encoding="UTF-8" standalone="no"?>
<!DOCTYPE svg PUBLIC "-//W3C//DTD SVG 1.1//EN"
 "http://www.w3.org/Graphics/SVG/1.1/DTD/svg11.dtd">
<!-- Generated by graphviz version 12.2.1 (20241206.2353)
 -->
<!-- Title: Ui_EmployeeEntryClass Pages: 1 -->
<svg width="123pt" height="405pt"
 viewBox="0.00 0.00 123.25 405.00" xmlns="http://www.w3.org/2000/svg" xmlns:xlink="http://www.w3.org/1999/xlink">

<svg id="main" version="1.1" xmlns="http://www.w3.org/2000/svg" xmlns:xlink="http://www.w3.org/1999/xlink" xml:space="preserve">

<style type="text/css"><![CDATA[
.node, .edge {opacity: 0.7;}
.node.selected, .edge.selected {opacity: 1;}
.edge:hover path { stroke: red; }
.edge:hover polygon { stroke: red; fill: red; }
]]></style>
<script type="application/ecmascript" xlink:href="svg.min.js"/>
<svg id="graph" class="graph">
<g id="graph0" class="graph" transform="scale(1 1) rotate(0) translate(4 401)">
<title>Ui_EmployeeEntryClass</title>
<!-- Node1 -->
<g id="Node000001" class="node">
<title>Node1</title>
<g id="a_Node000001"><a xlink:title=" ">
<polygon fill="#999999" stroke="none" points="115.25,-180 0,-180 0,0 115.25,0 115.25,-180"/>
<text text-anchor="start" x="4" y="-166.5" font-family="Helvetica,sans-Serif" font-size="10.00">Ui_EmployeeEntryClass</text>
<text text-anchor="start" x="12.19" y="-150.5" font-family="Helvetica,sans-Serif" font-size="10.00">+</text>
<text text-anchor="start" x="30.38" y="-150.5" font-family="Helvetica,sans-Serif" font-size="10.00">gridLayout</text>
<text text-anchor="start" x="12.19" y="-134.5" font-family="Helvetica,sans-Serif" font-size="10.00">+</text>
<text text-anchor="start" x="30.38" y="-134.5" font-family="Helvetica,sans-Serif" font-size="10.00">frame</text>
<text text-anchor="start" x="12.19" y="-118.5" font-family="Helvetica,sans-Serif" font-size="10.00">+</text>
<text text-anchor="start" x="30.38" y="-118.5" font-family="Helvetica,sans-Serif" font-size="10.00">gridLayout_2</text>
<text text-anchor="start" x="12.19" y="-102.5" font-family="Helvetica,sans-Serif" font-size="10.00">+</text>
<text text-anchor="start" x="30.38" y="-102.5" font-family="Helvetica,sans-Serif" font-size="10.00">edit_button</text>
<text text-anchor="start" x="12.19" y="-86.5" font-family="Helvetica,sans-Serif" font-size="10.00">+</text>
<text text-anchor="start" x="30.38" y="-86.5" font-family="Helvetica,sans-Serif" font-size="10.00">remove_button</text>
<text text-anchor="start" x="12.19" y="-70.5" font-family="Helvetica,sans-Serif" font-size="10.00">+</text>
<text text-anchor="start" x="30.38" y="-70.5" font-family="Helvetica,sans-Serif" font-size="10.00">surname</text>
<text text-anchor="start" x="12.19" y="-54.5" font-family="Helvetica,sans-Serif" font-size="10.00">+</text>
<text text-anchor="start" x="30.38" y="-54.5" font-family="Helvetica,sans-Serif" font-size="10.00">name</text>
<text text-anchor="start" x="12.19" y="-38.5" font-family="Helvetica,sans-Serif" font-size="10.00">+</text>
<text text-anchor="start" x="30.38" y="-38.5" font-family="Helvetica,sans-Serif" font-size="10.00">hours_worked</text>
<text text-anchor="start" x="12.19" y="-22.5" font-family="Helvetica,sans-Serif" font-size="10.00">+</text>
<text text-anchor="start" x="30.38" y="-22.5" font-family="Helvetica,sans-Serif" font-size="10.00">setupUi()</text>
<text text-anchor="start" x="12.19" y="-6.5" font-family="Helvetica,sans-Serif" font-size="10.00">+</text>
<text text-anchor="start" x="30.38" y="-6.5" font-family="Helvetica,sans-Serif" font-size="10.00">retranslateUi()</text>
<polygon fill="#666666" stroke="#666666" points="0,-162 0,-162 115.25,-162 115.25,-162 0,-162"/>
<polygon fill="#666666" stroke="#666666" points="0,-34 0,-34 28.38,-34 28.38,-34 0,-34"/>
<polygon fill="#666666" stroke="#666666" points="28.38,-34 28.38,-34 115.25,-34 115.25,-34 28.38,-34"/>
<polygon fill="none" stroke="#666666" points="0,0 0,-180 115.25,-180 115.25,0 0,0"/>
</a>
</g>
</g>
<!-- Node2 -->
<g id="Node000002" class="node">
<title>Node2</title>
<g id="a_Node000002"><a xlink:href="class_clickable_label.html" target="_top" xlink:title="A QLabel subclass that emits a clicked signal when the label is clicked.">
<polygon fill="white" stroke="none" points="115,-308 0.25,-308 0.25,-240 115,-240 115,-308"/>
<text text-anchor="start" x="25.75" y="-294.5" font-family="Helvetica,sans-Serif" font-size="10.00">ClickableLabel</text>
<text text-anchor="start" x="56.12" y="-278.5" font-family="Helvetica,sans-Serif" font-size="10.00"> </text>
<text text-anchor="start" x="4.25" y="-262.5" font-family="Helvetica,sans-Serif" font-size="10.00">+</text>
<text text-anchor="start" x="14.25" y="-262.5" font-family="Helvetica,sans-Serif" font-size="10.00">ClickableLabel()</text>
<text text-anchor="start" x="4.62" y="-246.5" font-family="Helvetica,sans-Serif" font-size="10.00">#</text>
<text text-anchor="start" x="14.25" y="-246.5" font-family="Helvetica,sans-Serif" font-size="10.00">mouseReleaseEvent()</text>
<polygon fill="#666666" stroke="#666666" points="0.25,-290 0.25,-290 115,-290 115,-290 0.25,-290"/>
<polygon fill="#666666" stroke="#666666" points="0.25,-274 0.25,-274 115,-274 115,-274 0.25,-274"/>
<polygon fill="none" stroke="#666666" points="0.25,-240 0.25,-308 115,-308 115,-240 0.25,-240"/>
</a>
</g>
</g>
<!-- Node2&#45;&gt;Node1 -->
<g id="edge1_Node000001_Node000002" class="edge">
<title>Node2&#45;&gt;Node1</title>
<g id="a_edge1_Node000001_Node000002"><a xlink:title=" ">
<path fill="none" stroke="#63b8ff" d="M57.62,-240.04C57.62,-226.42 57.62,-209.83 57.62,-192.73"/>
<polygon fill="none" stroke="#63b8ff" points="57.63,-192.8 53.63,-186.8 57.63,-180.8 61.63,-186.8 57.63,-192.8"/>
</a>
</g>
<text text-anchor="middle" x="73.75" y="-212.5" font-family="Helvetica,sans-Serif" font-size="10.00" fill="grey"> +email</text>
<text text-anchor="middle" x="73.75" y="-200.5" font-family="Helvetica,sans-Serif" font-size="10.00" fill="grey">+phone</text>
</g>
<!-- Node3 -->
<g id="Node000003" class="node">
<title>Node3</title>
<g id="a_Node000003"><a xlink:title=" ">
<polygon fill="white" stroke="none" points="77,-397 38.25,-397 38.25,-345 77,-345 77,-397"/>
<text text-anchor="start" x="42.25" y="-383.5" font-family="Helvetica,sans-Serif" font-size="10.00">QLabel</text>
<text text-anchor="start" x="56.12" y="-367.5" font-family="Helvetica,sans-Serif" font-size="10.00"> </text>
<text text-anchor="start" x="56.12" y="-351.5" font-family="Helvetica,sans-Serif" font-size="10.00"> </text>
<polygon fill="#666666" stroke="#666666" points="38.25,-379 38.25,-379 77,-379 77,-379 38.25,-379"/>
<polygon fill="#666666" stroke="#666666" points="38.25,-363 38.25,-363 77,-363 77,-363 38.25,-363"/>
<polygon fill="none" stroke="#666666" points="38.25,-345 38.25,-397 77,-397 77,-345 38.25,-345"/>
</a>
</g>
</g>
<!-- Node3&#45;&gt;Node2 -->
<g id="edge2_Node000002_Node000003" class="edge">
<title>Node3&#45;&gt;Node2</title>
<g id="a_edge2_Node000002_Node000003"><a xlink:title=" ">
<path fill="none" stroke="#63b8ff" d="M57.62,-333.77C57.62,-325.18 57.62,-316.08 57.62,-307.66"/>
<polygon fill="none" stroke="#63b8ff" points="54.13,-333.53 57.63,-343.53 61.13,-333.53 54.13,-333.53"/>
</a>
</g>
</g>
</g>
</svg>
</svg>

<style type='text/css'>
<![CDATA[
[data-mouse-over-selected='false'] { opacity: 0.7; }
[data-mouse-over-selected='true']  { opacity: 1.0; }
]]>
</style>
<script type="application/ecmascript"><![CDATA[
document.addEventListener('DOMContentLoaded', (event) => {
  highlightEdges();
  highlightAdjacentNodes();
});
]]></script>
</svg>
