<?xml version="1.0" encoding="UTF-8" standalone="no"?>
<!DOCTYPE svg PUBLIC "-//W3C//DTD SVG 1.1//EN"
 "http://www.w3.org/Graphics/SVG/1.1/DTD/svg11.dtd">
<!-- Generated by graphviz version 12.2.1 (20241206.2353)
 -->
<!-- Title: Database::import_Children_from_csv_file Pages: 1 -->
<!--zoomable 204 -->

<svg id="main" version="1.1" xmlns="http://www.w3.org/2000/svg" xmlns:xlink="http://www.w3.org/1999/xlink" xml:space="preserve" onload="init(evt)">

<style type="text/css"><![CDATA[
.node, .edge {opacity: 0.7;}
.node.selected, .edge.selected {opacity: 1;}
.edge:hover path { stroke: red; }
.edge:hover polygon { stroke: red; fill: red; }
]]></style>

<defs>
  <circle id="rim" cx="0" cy="0" r="7"/>
  <circle id="rim2" cx="0" cy="0" r="3.5"/>
  <g id="zoomPlus">
    <use xlink:href="#rim" fill="#404040"><set attributeName="fill" to="#808080" begin="zoomplus.mouseover" end="zoomplus.mouseout"/></use>
    <path d="M-4,0h8M0,-4v8" fill="none" stroke="white" stroke-width="1.5" pointer-events="none"/>
  </g>
  <g id="zoomMin">
    <use xlink:href="#rim" fill="#404040"><set attributeName="fill" to="#808080" begin="zoomminus.mouseover" end="zoomminus.mouseout"/></use>
    <path d="M-4,0h8" fill="none" stroke="white" stroke-width="1.5" pointer-events="none"/>
  </g>
  <g id="arrowUp" transform="translate(30 24)">
    <use xlink:href="#rim"/>
    <path pointer-events="none" fill="none" stroke="white" stroke-width="1.5" d="M0,-3.0v7 M-2.5,-0.5L0,-3.0L2.5,-0.5"/>
  </g>
  <g id="arrowRight" transform="rotate(90) translate(36 -43)">
    <use xlink:href="#rim"/>
    <path pointer-events="none" fill="none" stroke="white" stroke-width="1.5" d="M0,-3.0v7 M-2.5,-0.5L0,-3.0L2.5,-0.5"/>
  </g>
  <g id="arrowDown" transform="rotate(180) translate(-30 -48)">
    <use xlink:href="#rim"/>
    <path pointer-events="none" fill="none" stroke="white" stroke-width="1.5" d="M0,-3.0v7 M-2.5,-0.5L0,-3.0L2.5,-0.5"/>
  </g>
  <g id="arrowLeft" transform="rotate(270) translate(-36 17)">
    <use xlink:href="#rim"/>
    <path pointer-events="none" fill="none" stroke="white" stroke-width="1.5" d="M0,-3.0v7 M-2.5,-0.5L0,-3.0L2.5,-0.5"/>
  </g>
  <g id="resetDef">
    <use xlink:href="#rim2" fill="#404040"><set attributeName="fill" to="#808080" begin="reset.mouseover" end="reset.mouseout"/></use>
  </g>
</defs>
<script type="application/ecmascript">
var viewWidth = 757;
var viewHeight = 204;
var sectionId = 'dynsection-47';
</script>
<script type="application/ecmascript" xlink:href="svg.min.js"/>
<svg id="graph" class="graph">
<g id="viewport">
<title>Database::import_Children_from_csv_file</title>
<!-- Node1 -->
<g id="Node000001" class="node">
<title>Node1</title>
<g id="a_Node000001"><a xlink:title="Imports children from a CSV file.">
<polygon fill="#999999" stroke="#666666" points="132.25,-104 0,-104 0,-72 132.25,-72 132.25,-104"/>
<text text-anchor="start" x="8" y="-90.5" font-family="Helvetica,sans-Serif" font-size="10.00">Database::import_Children</text>
<text text-anchor="middle" x="66.12" y="-78.5" font-family="Helvetica,sans-Serif" font-size="10.00">_from_csv_file</text>
</a>
</g>
</g>
<!-- Node2 -->
<g id="Node000002" class="node">
<title>Node2</title>
<g id="a_Node000002"><a xlink:href="class_c_s_v___parser.html#ac72a5ce5b687b3d05f2d7e73d3ba42e4" target="_top" xlink:title="Parses a child from a CSV line.">
<polygon fill="white" stroke="#666666" points="294.5,-98 168.25,-98 168.25,-78 294.5,-78 294.5,-98"/>
<text text-anchor="middle" x="231.38" y="-84.5" font-family="Helvetica,sans-Serif" font-size="10.00">CSV_Parser::parse_child</text>
</a>
</g>
</g>
<!-- Node1&#45;&gt;Node2 -->
<g id="edge1_Node000001_Node000002" class="edge">
<title>Node1&#45;&gt;Node2</title>
<g id="a_edge1_Node000001_Node000002"><a xlink:title=" ">
<path fill="none" stroke="#63b8ff" d="M132.58,-88C140.39,-88 148.4,-88 156.32,-88"/>
<polygon fill="#63b8ff" stroke="#63b8ff" points="156.3,-91.5 166.3,-88 156.3,-84.5 156.3,-91.5"/>
</a>
</g>
</g>
<!-- Node3 -->
<g id="Node000003" class="node">
<title>Node3</title>
<g id="a_Node000003"><a xlink:href="class_database.html#a19e6fd7e9b36ab995675732c6ef67c8c" target="_top" xlink:title="Adds a child to the database.">
<polygon fill="white" stroke="#666666" points="438,-139 332.75,-139 332.75,-119 438,-119 438,-139"/>
<text text-anchor="middle" x="385.38" y="-125.5" font-family="Helvetica,sans-Serif" font-size="10.00">Database::add_child</text>
</a>
</g>
</g>
<!-- Node2&#45;&gt;Node3 -->
<g id="edge2_Node000002_Node000003" class="edge">
<title>Node2&#45;&gt;Node3</title>
<g id="a_edge2_Node000002_Node000003"><a xlink:title=" ">
<path fill="none" stroke="#63b8ff" d="M271.12,-98.45C290.42,-103.66 313.97,-110.01 334.59,-115.57"/>
<polygon fill="#63b8ff" stroke="#63b8ff" points="333.67,-118.95 344.24,-118.17 335.49,-112.19 333.67,-118.95"/>
</a>
</g>
</g>
<!-- Node7 -->
<g id="Node000007" class="node">
<title>Node7</title>
<g id="a_Node000007"><a xlink:href="class_database.html#ad82c8f66e655d641f118c6162139a30b" target="_top" xlink:title="Gets a parent by name and surname.">
<polygon fill="white" stroke="#666666" points="440.25,-82 330.5,-82 330.5,-50 440.25,-50 440.25,-82"/>
<text text-anchor="start" x="338.5" y="-68.5" font-family="Helvetica,sans-Serif" font-size="10.00">Database::get_parent</text>
<text text-anchor="middle" x="385.38" y="-56.5" font-family="Helvetica,sans-Serif" font-size="10.00">_by_name_surname</text>
</a>
</g>
</g>
<!-- Node2&#45;&gt;Node7 -->
<g id="edge6_Node000002_Node000007" class="edge">
<title>Node2&#45;&gt;Node7</title>
<g id="a_edge6_Node000002_Node000007"><a xlink:title=" ">
<path fill="none" stroke="#63b8ff" d="M294.64,-78.99C302.66,-77.83 310.9,-76.63 318.97,-75.47"/>
<polygon fill="#63b8ff" stroke="#63b8ff" points="319.34,-78.95 328.74,-74.05 318.34,-72.02 319.34,-78.95"/>
</a>
</g>
</g>
<!-- Node4 -->
<g id="Node000004" class="node">
<title>Node4</title>
<g id="a_Node000004"><a xlink:href="class_child.html#a54d980b94b52ef8ad5c52eb4dfc265c5" target="_top" xlink:title="Gets the birth date of the child.">
<polygon fill="white" stroke="#666666" points="586.75,-196 480.75,-196 480.75,-176 586.75,-176 586.75,-196"/>
<text text-anchor="middle" x="533.75" y="-182.5" font-family="Helvetica,sans-Serif" font-size="10.00">Child::get_birth_date</text>
</a>
</g>
</g>
<!-- Node3&#45;&gt;Node4 -->
<g id="edge3_Node000003_Node000004" class="edge">
<title>Node3&#45;&gt;Node4</title>
<g id="a_edge3_Node000003_Node000004"><a xlink:title=" ">
<path fill="none" stroke="#63b8ff" d="M409.83,-139.49C427.85,-147.41 453.44,-158.36 476.25,-167 480.6,-168.65 485.17,-170.31 489.75,-171.92"/>
<polygon fill="#63b8ff" stroke="#63b8ff" points="488.31,-175.12 498.9,-175.07 490.59,-168.5 488.31,-175.12"/>
</a>
</g>
</g>
<!-- Node5 -->
<g id="Node000005" class="node">
<title>Node5</title>
<g id="a_Node000005"><a xlink:href="class_person.html#a6b1fec00d8d1f5af1a2977dc3f5f9eb8" target="_top" xlink:title="Gets the first name of the person.">
<polygon fill="white" stroke="#666666" points="581.5,-158 486,-158 486,-138 581.5,-138 581.5,-158"/>
<text text-anchor="middle" x="533.75" y="-144.5" font-family="Helvetica,sans-Serif" font-size="10.00">Person::get_name</text>
</a>
</g>
</g>
<!-- Node3&#45;&gt;Node5 -->
<g id="edge4_Node000003_Node000005" class="edge">
<title>Node3&#45;&gt;Node5</title>
<g id="a_edge4_Node000003_Node000005"><a xlink:title=" ">
<path fill="none" stroke="#63b8ff" d="M438.39,-135.75C450.1,-137.27 462.6,-138.89 474.54,-140.44"/>
<polygon fill="#63b8ff" stroke="#63b8ff" points="473.91,-143.89 484.27,-141.71 474.81,-136.95 473.91,-143.89"/>
</a>
</g>
</g>
<!-- Node6 -->
<g id="Node000006" class="node">
<title>Node6</title>
<g id="a_Node000006"><a xlink:href="class_person.html#a7b3c8db44a49c4ba8c4838e19a235613" target="_top" xlink:title="Gets the last name of the person.">
<polygon fill="white" stroke="#666666" points="588.25,-120 479.25,-120 479.25,-100 588.25,-100 588.25,-120"/>
<text text-anchor="middle" x="533.75" y="-106.5" font-family="Helvetica,sans-Serif" font-size="10.00">Person::get_surname</text>
</a>
</g>
</g>
<!-- Node3&#45;&gt;Node6 -->
<g id="edge5_Node000003_Node000006" class="edge">
<title>Node3&#45;&gt;Node6</title>
<g id="a_edge5_Node000003_Node000006"><a xlink:title=" ">
<path fill="none" stroke="#63b8ff" d="M438.39,-122.25C447.84,-121.02 457.81,-119.73 467.58,-118.46"/>
<polygon fill="#63b8ff" stroke="#63b8ff" points="467.95,-121.94 477.42,-117.18 467.05,-115 467.95,-121.94"/>
</a>
</g>
</g>
<!-- Node8 -->
<g id="Node000008" class="node">
<title>Node8</title>
<g id="a_Node000008"><a xlink:href="class_database.html#a427341d23d0431b1e75b2c82c412f00a" target="_top" xlink:title="Filters parents by name.">
<polygon fill="white" stroke="#666666" points="591.25,-82 476.25,-82 476.25,-50 591.25,-50 591.25,-82"/>
<text text-anchor="start" x="484.25" y="-68.5" font-family="Helvetica,sans-Serif" font-size="10.00">Database::filter_parent</text>
<text text-anchor="middle" x="533.75" y="-56.5" font-family="Helvetica,sans-Serif" font-size="10.00">_by_name</text>
</a>
</g>
</g>
<!-- Node7&#45;&gt;Node8 -->
<g id="edge7_Node000007_Node000008" class="edge">
<title>Node7&#45;&gt;Node8</title>
<g id="a_edge7_Node000007_Node000008"><a xlink:title=" ">
<path fill="none" stroke="#63b8ff" d="M440.46,-66C448.32,-66 456.5,-66 464.59,-66"/>
<polygon fill="#63b8ff" stroke="#63b8ff" points="464.43,-69.5 474.43,-66 464.43,-62.5 464.43,-69.5"/>
</a>
</g>
</g>
<!-- Node11 -->
<g id="Node000011" class="node">
<title>Node11</title>
<g id="a_Node000011"><a xlink:href="class_database.html#a09a0e8fe44e256daff05eeba15c22153" target="_top" xlink:title="Filters parents by surname.">
<polygon fill="white" stroke="#666666" points="591.25,-32 476.25,-32 476.25,0 591.25,0 591.25,-32"/>
<text text-anchor="start" x="484.25" y="-18.5" font-family="Helvetica,sans-Serif" font-size="10.00">Database::filter_parent</text>
<text text-anchor="middle" x="533.75" y="-6.5" font-family="Helvetica,sans-Serif" font-size="10.00">_by_surname</text>
</a>
</g>
</g>
<!-- Node7&#45;&gt;Node11 -->
<g id="edge10_Node000007_Node000011" class="edge">
<title>Node7&#45;&gt;Node11</title>
<g id="a_edge10_Node000007_Node000011"><a xlink:title=" ">
<path fill="none" stroke="#63b8ff" d="M434.3,-49.63C446.94,-45.31 460.72,-40.6 473.86,-36.11"/>
<polygon fill="#63b8ff" stroke="#63b8ff" points="474.95,-39.44 483.28,-32.9 472.69,-32.82 474.95,-39.44"/>
</a>
</g>
</g>
<!-- Node9 -->
<g id="Node000009" class="node">
<title>Node9</title>
<g id="a_Node000009"><a xlink:href="_helper___functions_8h.html#a0d3fbaad2936b89eb0d594cba2929800" target="_top" xlink:title="Filters a vector of pointers based on a predicate.">
<polygon fill="white" stroke="#666666" points="705.5,-73 670.75,-73 670.75,-53 705.5,-53 705.5,-73"/>
<text text-anchor="middle" x="688.12" y="-59.5" font-family="Helvetica,sans-Serif" font-size="10.00">filter</text>
</a>
</g>
</g>
<!-- Node8&#45;&gt;Node9 -->
<g id="edge8_Node000008_Node000009" class="edge">
<title>Node8&#45;&gt;Node9</title>
<g id="a_edge8_Node000008_Node000009"><a xlink:title=" ">
<path fill="none" stroke="#63b8ff" d="M591.49,-64.88C614.53,-64.43 640.12,-63.93 659.03,-63.55"/>
<polygon fill="#63b8ff" stroke="#63b8ff" points="658.95,-67.06 668.88,-63.36 658.81,-60.06 658.95,-67.06"/>
</a>
</g>
</g>
<!-- Node10 -->
<g id="Node000010" class="node">
<title>Node10</title>
<g id="a_Node000010"><a xlink:href="_helper___functions_8h.html#ab487a2e8523090e129c7f67ed349c9a1" target="_top" xlink:title="Filters a multimap by its keys based on a predicate.">
<polygon fill="white" stroke="#666666" points="749,-32 627.25,-32 627.25,-12 749,-12 749,-32"/>
<text text-anchor="middle" x="688.12" y="-18.5" font-family="Helvetica,sans-Serif" font-size="10.00">filter_multimap_by_keys</text>
</a>
</g>
</g>
<!-- Node8&#45;&gt;Node10 -->
<g id="edge9_Node000008_Node000010" class="edge">
<title>Node8&#45;&gt;Node10</title>
<g id="a_edge9_Node000008_Node000010"><a xlink:title=" ">
<path fill="none" stroke="#63b8ff" d="M591.49,-49.62C607.56,-44.98 624.86,-39.98 640.28,-35.53"/>
<polygon fill="#63b8ff" stroke="#63b8ff" points="641.03,-38.95 649.67,-32.82 639.09,-32.23 641.03,-38.95"/>
</a>
</g>
</g>
<!-- Node11&#45;&gt;Node9 -->
<g id="edge11_Node000011_Node000009" class="edge">
<title>Node11&#45;&gt;Node9</title>
<g id="a_edge11_Node000011_Node000009"><a xlink:title=" ">
<path fill="none" stroke="#63b8ff" d="M588.04,-32.44C612.15,-39.87 639.62,-48.35 659.52,-54.48"/>
<polygon fill="#63b8ff" stroke="#63b8ff" points="658.24,-57.75 668.83,-57.36 660.3,-51.06 658.24,-57.75"/>
</a>
</g>
</g>
<!-- Node11&#45;&gt;Node10 -->
<g id="edge12_Node000011_Node000010" class="edge">
<title>Node11&#45;&gt;Node10</title>
<g id="a_edge12_Node000011_Node000010"><a xlink:title=" ">
<path fill="none" stroke="#63b8ff" d="M591.49,-18.23C599.31,-18.54 607.42,-18.86 615.47,-19.18"/>
<polygon fill="#63b8ff" stroke="#63b8ff" points="615.12,-22.67 625.25,-19.56 615.4,-15.67 615.12,-22.67"/>
</a>
</g>
</g>
</g>
</svg>

<g id="navigator" transform="translate(0 0)" fill="#404254">
  <rect fill="#f2f5e9" fill-opacity="0.5" stroke="#606060" stroke-width=".5" x="0" y="0" width="60" height="60"/>
  <use id="zoomplus" xlink:href="#zoomPlus" x="17" y="9" onmousedown="handleZoom(evt,'in')"/>
  <use id="zoomminus" xlink:href="#zoomMin" x="42" y="9" onmousedown="handleZoom(evt,'out')"/>
  <use id="reset" xlink:href="#resetDef" x="30" y="36" onmousedown="handleReset()"/>
   <use id="arrowup" xlink:href="#arrowUp" x="0" y="0" onmousedown="handlePan(0,-1)"/>
  <use id="arrowright" xlink:href="#arrowRight" x="0" y="0" onmousedown="handlePan(1,0)"/>
  <use id="arrowdown" xlink:href="#arrowDown" x="0" y="0" onmousedown="handlePan(0,1)"/>
  <use id="arrowleft" xlink:href="#arrowLeft" x="0" y="0" onmousedown="handlePan(-1,0)"/>
</g>
<svg viewBox="0 0 15 15" width="100%" height="30px" preserveAspectRatio="xMaxYMin meet">
 <g id="arrow_out" transform="scale(0.3 0.3)">
  <a xlink:href="class_database_a5010b6ed864bd832f96c86e33097e95f_cgraph_org.svg" target="_base">
   <rect id="button" ry="5" rx="5" y="6" x="6" height="38" width="38"
        fill="#f2f5e9" fill-opacity="0.5" stroke="#606060" stroke-width="1.0"/>
   <path id="arrow"
     d="M 11.500037,31.436501 C 11.940474,20.09759 22.043105,11.32322 32.158766,21.979434 L 37.068811,17.246167 C 37.068811,17.246167 37.088388,32 37.088388,32 L 22.160133,31.978069 C 22.160133,31.978069 26.997745,27.140456 26.997745,27.140456 C 18.528582,18.264221 13.291696,25.230495 11.500037,31.436501 z"
     style="fill:#404040;"/>
  </a>
 </g>
</svg>

<style type='text/css'>
<![CDATA[
[data-mouse-over-selected='false'] { opacity: 0.7; }
[data-mouse-over-selected='true']  { opacity: 1.0; }
]]>
</style>
<script type="application/ecmascript"><![CDATA[
document.addEventListener('DOMContentLoaded', (event) => {
  highlightEdges();
  highlightAdjacentNodes();
});
]]></script>
</svg>
