<?xml version="1.0" encoding="UTF-8" standalone="no"?>
<!DOCTYPE svg PUBLIC "-//W3C//DTD SVG 1.1//EN"
 "http://www.w3.org/Graphics/SVG/1.1/DTD/svg11.dtd">
<!-- Generated by graphviz version 12.2.1 (20241206.2353)
 -->
<!-- Title: Lesson::get_schedule Pages: 1 -->
<svg width="1117pt" height="160pt"
 viewBox="0.00 0.00 1116.75 160.00" xmlns="http://www.w3.org/2000/svg" xmlns:xlink="http://www.w3.org/1999/xlink">
<g id="graph0" class="graph" transform="scale(1 1) rotate(0) translate(4 156)">
<title>Lesson::get_schedule</title>
<!-- Node1 -->
<g id="Node000001" class="node">
<title>Node1</title>
<g id="a_Node000001"><a xlink:title="Gets the schedule of the lesson.">
<polygon fill="#999999" stroke="#666666" points="1108.75,-89 997.5,-89 997.5,-69 1108.75,-69 1108.75,-89"/>
<text text-anchor="middle" x="1053.12" y="-75.5" font-family="Helvetica,sans-Serif" font-size="10.00">Lesson::get_schedule</text>
</a>
</g>
</g>
<!-- Node2 -->
<g id="Node000002" class="node">
<title>Node2</title>
<g id="a_Node000002"><a xlink:href="class_database.html#a12af120f4bd82e7c70ffd191f13f0011" target="_top" xlink:title="Adds a lesson to the database.">
<polygon fill="white" stroke="#666666" points="944.25,-146 830.75,-146 830.75,-126 944.25,-126 944.25,-146"/>
<text text-anchor="middle" x="887.5" y="-132.5" font-family="Helvetica,sans-Serif" font-size="10.00">Database::add_lesson</text>
</a>
</g>
</g>
<!-- Node1&#45;&gt;Node2 -->
<g id="edge1_Node000001_Node000002" class="edge">
<title>Node1&#45;&gt;Node2</title>
<g id="a_edge1_Node000001_Node000002"><a xlink:title=" ">
<path fill="none" stroke="#63b8ff" d="M1019.24,-94.12C1002.23,-101.6 980.99,-110.41 961.5,-117 952.32,-120.1 942.35,-123 932.81,-125.55"/>
<polygon fill="#63b8ff" stroke="#63b8ff" points="1020.66,-97.32 1028.37,-90.05 1017.81,-90.93 1020.66,-97.32"/>
</a>
</g>
</g>
<!-- Node8 -->
<g id="Node000008" class="node">
<title>Node8</title>
<g id="a_Node000008"><a xlink:href="class_database.html#a68806d26995eecb355c6835e29f45e38" target="_top" xlink:title="Removes a lesson from the database.">
<polygon fill="white" stroke="#666666" points="952.5,-108 822.5,-108 822.5,-88 952.5,-88 952.5,-108"/>
<text text-anchor="middle" x="887.5" y="-94.5" font-family="Helvetica,sans-Serif" font-size="10.00">Database::remove_lesson</text>
</a>
</g>
</g>
<!-- Node1&#45;&gt;Node8 -->
<g id="edge8_Node000001_Node000008" class="edge">
<title>Node1&#45;&gt;Node8</title>
<g id="a_edge8_Node000001_Node000008"><a xlink:title=" ">
<path fill="none" stroke="#63b8ff" d="M985.99,-86.68C975.08,-87.95 963.79,-89.26 952.92,-90.52"/>
<polygon fill="#63b8ff" stroke="#63b8ff" points="986.15,-90.18 995.68,-85.55 985.34,-83.23 986.15,-90.18"/>
</a>
</g>
</g>
<!-- Node9 -->
<g id="Node000009" class="node">
<title>Node9</title>
<g id="a_Node000009"><a xlink:href="class_database.html#a19fbca1d66460d712681aa7ffd761c80" target="_top" xlink:title="Adds a lesson&#39;s information to the maps.">
<polygon fill="white" stroke="#666666" points="961.5,-70 813.5,-70 813.5,-50 961.5,-50 961.5,-70"/>
<text text-anchor="middle" x="887.5" y="-56.5" font-family="Helvetica,sans-Serif" font-size="10.00">Database::update_lesson_end</text>
</a>
</g>
</g>
<!-- Node1&#45;&gt;Node9 -->
<g id="edge9_Node000001_Node000009" class="edge">
<title>Node1&#45;&gt;Node9</title>
<g id="a_edge9_Node000001_Node000009"><a xlink:title=" ">
<path fill="none" stroke="#63b8ff" d="M985.82,-71.3C977.94,-70.39 969.87,-69.45 961.9,-68.52"/>
<polygon fill="#63b8ff" stroke="#63b8ff" points="985.34,-74.77 995.68,-72.45 986.15,-67.82 985.34,-74.77"/>
</a>
</g>
</g>
<!-- Node10 -->
<g id="Node000010" class="node">
<title>Node10</title>
<g id="a_Node000010"><a xlink:href="class_database.html#a4a177c6c35a2dab6017842abec500f8c" target="_top" xlink:title="Removes a lesson&#39;s information from the maps.">
<polygon fill="white" stroke="#666666" points="951,-32 824,-32 824,0 951,0 951,-32"/>
<text text-anchor="start" x="832" y="-18.5" font-family="Helvetica,sans-Serif" font-size="10.00">Database::update_lesson</text>
<text text-anchor="middle" x="887.5" y="-6.5" font-family="Helvetica,sans-Serif" font-size="10.00">_start</text>
</a>
</g>
</g>
<!-- Node1&#45;&gt;Node10 -->
<g id="edge10_Node000001_Node000010" class="edge">
<title>Node1&#45;&gt;Node10</title>
<g id="a_edge10_Node000001_Node000010"><a xlink:title=" ">
<path fill="none" stroke="#63b8ff" d="M1017.97,-64.04C1001.08,-56.81 980.34,-48.17 961.5,-41 953.99,-38.14 945.99,-35.25 938.14,-32.5"/>
<polygon fill="#63b8ff" stroke="#63b8ff" points="1016.49,-67.21 1027.06,-67.96 1019.26,-60.79 1016.49,-67.21"/>
</a>
</g>
</g>
<!-- Node3 -->
<g id="Node000003" class="node">
<title>Node3</title>
<g id="a_Node000003"><a xlink:href="class_c_s_v___parser.html#abf9be7d0476752028afd45de9be64877" target="_top" xlink:title="Parses a lesson from a CSV line.">
<polygon fill="white" stroke="#666666" points="607,-146 472.5,-146 472.5,-126 607,-126 607,-146"/>
<text text-anchor="middle" x="539.75" y="-132.5" font-family="Helvetica,sans-Serif" font-size="10.00">CSV_Parser::parse_lesson</text>
</a>
</g>
</g>
<!-- Node2&#45;&gt;Node3 -->
<g id="edge2_Node000002_Node000003" class="edge">
<title>Node2&#45;&gt;Node3</title>
<g id="a_edge2_Node000002_Node000003"><a xlink:title=" ">
<path fill="none" stroke="#63b8ff" d="M819.11,-138.14C805.35,-138.5 790.96,-138.81 777.5,-139 717.73,-139.82 702.77,-139.88 643,-139 631.46,-138.83 619.18,-138.55 607.3,-138.24"/>
<polygon fill="#63b8ff" stroke="#63b8ff" points="819.08,-141.65 828.98,-137.88 818.89,-134.65 819.08,-141.65"/>
</a>
</g>
</g>
<!-- Node7 -->
<g id="Node000007" class="node">
<title>Node7</title>
<g id="a_Node000007"><a xlink:href="class_c_s_v___parser.html#a2645253cdd45f0fe2df1f4883ab64b36" target="_top" xlink:title="Parses lesson&#39;s attendance from a CSV line.">
<polygon fill="white" stroke="#666666" points="777.5,-130 643,-130 643,-98 777.5,-98 777.5,-130"/>
<text text-anchor="start" x="651" y="-116.5" font-family="Helvetica,sans-Serif" font-size="10.00">CSV_Parser::parse_lesson</text>
<text text-anchor="middle" x="710.25" y="-104.5" font-family="Helvetica,sans-Serif" font-size="10.00">_attendance</text>
</a>
</g>
</g>
<!-- Node2&#45;&gt;Node7 -->
<g id="edge6_Node000002_Node000007" class="edge">
<title>Node2&#45;&gt;Node7</title>
<g id="a_edge6_Node000002_Node000007"><a xlink:title=" ">
<path fill="none" stroke="#63b8ff" d="M819.36,-127.57C805.8,-125.87 791.53,-124.08 777.98,-122.38"/>
<polygon fill="#63b8ff" stroke="#63b8ff" points="818.71,-131.02 829.07,-128.79 819.58,-124.07 818.71,-131.02"/>
</a>
</g>
</g>
<!-- Node4 -->
<g id="Node000004" class="node">
<title>Node4</title>
<g id="a_Node000004"><a xlink:href="class_database.html#a5234a41c55542e88486c147ca399f386" target="_top" xlink:title="Imports lessons from a CSV file.">
<polygon fill="white" stroke="#666666" points="436.5,-152 303.5,-152 303.5,-120 436.5,-120 436.5,-152"/>
<text text-anchor="start" x="311.5" y="-138.5" font-family="Helvetica,sans-Serif" font-size="10.00">Database::import_Lessons</text>
<text text-anchor="middle" x="370" y="-126.5" font-family="Helvetica,sans-Serif" font-size="10.00">_from_csv_file</text>
</a>
</g>
</g>
<!-- Node3&#45;&gt;Node4 -->
<g id="edge3_Node000003_Node000004" class="edge">
<title>Node3&#45;&gt;Node4</title>
<g id="a_edge3_Node000003_Node000004"><a xlink:title=" ">
<path fill="none" stroke="#63b8ff" d="M461.07,-136C452.96,-136 444.78,-136 436.82,-136"/>
<polygon fill="#63b8ff" stroke="#63b8ff" points="460.94,-139.5 470.94,-136 460.94,-132.5 460.94,-139.5"/>
</a>
</g>
</g>
<!-- Node5 -->
<g id="Node000005" class="node">
<title>Node5</title>
<g id="a_Node000005"><a xlink:href="class_database.html#af3b2c97f6ffbcff3ec1c0f78a91d6107" target="_top" xlink:title="Imports data from a stream.">
<polygon fill="white" stroke="#666666" points="267.5,-152 151.75,-152 151.75,-120 267.5,-120 267.5,-152"/>
<text text-anchor="start" x="159.75" y="-138.5" font-family="Helvetica,sans-Serif" font-size="10.00">Database::import_from</text>
<text text-anchor="middle" x="209.62" y="-126.5" font-family="Helvetica,sans-Serif" font-size="10.00">_stream</text>
</a>
</g>
</g>
<!-- Node4&#45;&gt;Node5 -->
<g id="edge4_Node000004_Node000005" class="edge">
<title>Node4&#45;&gt;Node5</title>
<g id="a_edge4_Node000004_Node000005"><a xlink:title=" ">
<path fill="none" stroke="#63b8ff" d="M291.85,-136C283.78,-136 275.68,-136 267.88,-136"/>
<polygon fill="#63b8ff" stroke="#63b8ff" points="291.7,-139.5 301.7,-136 291.7,-132.5 291.7,-139.5"/>
</a>
</g>
</g>
<!-- Node6 -->
<g id="Node000006" class="node">
<title>Node6</title>
<g id="a_Node000006"><a xlink:href="class_database.html#a0a08797a6ca7a3456150370e3f816d4c" target="_top" xlink:title="Imports data from a CSV file.">
<polygon fill="white" stroke="#666666" points="115.75,-152 0,-152 0,-120 115.75,-120 115.75,-152"/>
<text text-anchor="start" x="8" y="-138.5" font-family="Helvetica,sans-Serif" font-size="10.00">Database::import_from</text>
<text text-anchor="middle" x="57.88" y="-126.5" font-family="Helvetica,sans-Serif" font-size="10.00">_csv_file</text>
</a>
</g>
</g>
<!-- Node5&#45;&gt;Node6 -->
<g id="edge5_Node000005_Node000006" class="edge">
<title>Node5&#45;&gt;Node6</title>
<g id="a_edge5_Node000005_Node000006"><a xlink:title=" ">
<path fill="none" stroke="#63b8ff" d="M140.16,-136C131.99,-136 123.73,-136 115.76,-136"/>
<polygon fill="#63b8ff" stroke="#63b8ff" points="140.07,-139.5 150.07,-136 140.07,-132.5 140.07,-139.5"/>
</a>
</g>
</g>
<!-- Node7&#45;&gt;Node3 -->
<g id="edge7_Node000007_Node000003" class="edge">
<title>Node7&#45;&gt;Node3</title>
<g id="a_edge7_Node000007_Node000003"><a xlink:title=" ">
<path fill="none" stroke="#63b8ff" d="M631.4,-124.16C623.39,-125.21 615.29,-126.27 607.41,-127.3"/>
<polygon fill="#63b8ff" stroke="#63b8ff" points="631.69,-127.66 641.15,-122.89 630.78,-120.72 631.69,-127.66"/>
</a>
</g>
</g>
</g>
</svg>
