<?xml version="1.0" encoding="UTF-8" standalone="no"?>
<!DOCTYPE svg PUBLIC "-//W3C//DTD SVG 1.1//EN"
 "http://www.w3.org/Graphics/SVG/1.1/DTD/svg11.dtd">
<!-- Generated by graphviz version 12.2.1 (20241206.2353)
 -->
<!-- Title: LessonDialog::LessonDialog Pages: 1 -->
<!--zoomable 190 -->

<svg id="main" version="1.1" xmlns="http://www.w3.org/2000/svg" xmlns:xlink="http://www.w3.org/1999/xlink" xml:space="preserve" onload="init(evt)">

<style type="text/css"><![CDATA[
.node, .edge {opacity: 0.7;}
.node.selected, .edge.selected {opacity: 1;}
.edge:hover path { stroke: red; }
.edge:hover polygon { stroke: red; fill: red; }
]]></style>

<defs>
  <circle id="rim" cx="0" cy="0" r="7"/>
  <circle id="rim2" cx="0" cy="0" r="3.5"/>
  <g id="zoomPlus">
    <use xlink:href="#rim" fill="#404040"><set attributeName="fill" to="#808080" begin="zoomplus.mouseover" end="zoomplus.mouseout"/></use>
    <path d="M-4,0h8M0,-4v8" fill="none" stroke="white" stroke-width="1.5" pointer-events="none"/>
  </g>
  <g id="zoomMin">
    <use xlink:href="#rim" fill="#404040"><set attributeName="fill" to="#808080" begin="zoomminus.mouseover" end="zoomminus.mouseout"/></use>
    <path d="M-4,0h8" fill="none" stroke="white" stroke-width="1.5" pointer-events="none"/>
  </g>
  <g id="arrowUp" transform="translate(30 24)">
    <use xlink:href="#rim"/>
    <path pointer-events="none" fill="none" stroke="white" stroke-width="1.5" d="M0,-3.0v7 M-2.5,-0.5L0,-3.0L2.5,-0.5"/>
  </g>
  <g id="arrowRight" transform="rotate(90) translate(36 -43)">
    <use xlink:href="#rim"/>
    <path pointer-events="none" fill="none" stroke="white" stroke-width="1.5" d="M0,-3.0v7 M-2.5,-0.5L0,-3.0L2.5,-0.5"/>
  </g>
  <g id="arrowDown" transform="rotate(180) translate(-30 -48)">
    <use xlink:href="#rim"/>
    <path pointer-events="none" fill="none" stroke="white" stroke-width="1.5" d="M0,-3.0v7 M-2.5,-0.5L0,-3.0L2.5,-0.5"/>
  </g>
  <g id="arrowLeft" transform="rotate(270) translate(-36 17)">
    <use xlink:href="#rim"/>
    <path pointer-events="none" fill="none" stroke="white" stroke-width="1.5" d="M0,-3.0v7 M-2.5,-0.5L0,-3.0L2.5,-0.5"/>
  </g>
  <g id="resetDef">
    <use xlink:href="#rim2" fill="#404040"><set attributeName="fill" to="#808080" begin="reset.mouseover" end="reset.mouseout"/></use>
  </g>
</defs>
<script type="application/ecmascript">
var viewWidth = 708;
var viewHeight = 190;
var sectionId = 'dynsection-2';
</script>
<script type="application/ecmascript" xlink:href="svg.min.js"/>
<svg id="graph" class="graph">
<g id="viewport">
<title>LessonDialog::LessonDialog</title>
<!-- Node1 -->
<g id="Node000001" class="node">
<title>Node1</title>
<g id="a_Node000001"><a xlink:title="Constructs a LessonDialog object.">
<polygon fill="#999999" stroke="#666666" points="140.5,-79 0,-79 0,-59 140.5,-59 140.5,-79"/>
<text text-anchor="middle" x="70.25" y="-65.5" font-family="Helvetica,sans-Serif" font-size="10.00">LessonDialog::LessonDialog</text>
</a>
</g>
</g>
<!-- Node2 -->
<g id="Node000002" class="node">
<title>Node2</title>
<g id="a_Node000002"><a xlink:href="class_lesson_dialog.html#ac10e391b7a2221ff937a30ccf61124b2" target="_top" xlink:title="Searches for children based on the input in the name and surname fields.">
<polygon fill="white" stroke="#666666" points="298.25,-151 183.25,-151 183.25,-119 298.25,-119 298.25,-151"/>
<text text-anchor="start" x="191.25" y="-137.5" font-family="Helvetica,sans-Serif" font-size="10.00">LessonDialog::children</text>
<text text-anchor="middle" x="240.75" y="-125.5" font-family="Helvetica,sans-Serif" font-size="10.00">_search</text>
</a>
</g>
</g>
<!-- Node1&#45;&gt;Node2 -->
<g id="edge1_Node000001_Node000002" class="edge">
<title>Node1&#45;&gt;Node2</title>
<g id="a_edge1_Node000001_Node000002"><a xlink:title=" ">
<path fill="none" stroke="#63b8ff" d="M97.95,-79.46C121.83,-88.81 157.54,-102.8 187.15,-114.4"/>
<polygon fill="#63b8ff" stroke="#63b8ff" points="185.75,-117.61 196.34,-118 188.3,-111.09 185.75,-117.61"/>
</a>
</g>
</g>
<!-- Node3 -->
<g id="Node000003" class="node">
<title>Node3</title>
<g id="a_Node000003"><a xlink:href="class_lesson_dialog.html#a375a77c87696df60e0cbab9da70b7a67" target="_top" xlink:title="Populates the dialog with children and employees.">
<polygon fill="white" stroke="#666666" points="459,-141 341,-141 341,-109 459,-109 459,-141"/>
<text text-anchor="start" x="349" y="-127.5" font-family="Helvetica,sans-Serif" font-size="10.00">LessonDialog::populate</text>
<text text-anchor="middle" x="400" y="-115.5" font-family="Helvetica,sans-Serif" font-size="10.00">_children</text>
</a>
</g>
</g>
<!-- Node1&#45;&gt;Node3 -->
<g id="edge11_Node000001_Node000003" class="edge">
<title>Node1&#45;&gt;Node3</title>
<g id="a_edge11_Node000001_Node000003"><a xlink:title=" ">
<path fill="none" stroke="#63b8ff" d="M132.51,-79.47C188.36,-89.01 270.8,-103.1 329.18,-113.07"/>
<polygon fill="#63b8ff" stroke="#63b8ff" points="328.58,-116.52 339.02,-114.75 329.76,-109.62 328.58,-116.52"/>
</a>
</g>
</g>
<!-- Node7 -->
<g id="Node000007" class="node">
<title>Node7</title>
<g id="a_Node000007"><a xlink:href="class_lesson_dialog.html#a6cec6904588a83618b0d776547ea2697" target="_top" xlink:title="Searches for employees based on the input in the name and surname fields.">
<polygon fill="white" stroke="#666666" points="305,-63 176.5,-63 176.5,-31 305,-31 305,-63"/>
<text text-anchor="start" x="184.5" y="-49.5" font-family="Helvetica,sans-Serif" font-size="10.00">LessonDialog::employees</text>
<text text-anchor="middle" x="240.75" y="-37.5" font-family="Helvetica,sans-Serif" font-size="10.00">_search</text>
</a>
</g>
</g>
<!-- Node1&#45;&gt;Node7 -->
<g id="edge6_Node000001_Node000007" class="edge">
<title>Node1&#45;&gt;Node7</title>
<g id="a_edge6_Node000001_Node000007"><a xlink:title=" ">
<path fill="none" stroke="#63b8ff" d="M140.76,-59.92C148.71,-58.89 156.84,-57.83 164.85,-56.78"/>
<polygon fill="#63b8ff" stroke="#63b8ff" points="165.11,-60.27 174.57,-55.51 164.21,-53.33 165.11,-60.27"/>
</a>
</g>
</g>
<!-- Node8 -->
<g id="Node000008" class="node">
<title>Node8</title>
<g id="a_Node000008"><a xlink:href="class_lesson_dialog.html#a2883fd6f7079ecb26550deb519302db0" target="_top" xlink:title="Populates the dialog with employees.">
<polygon fill="white" stroke="#666666" points="459,-38 341,-38 341,-6 459,-6 459,-38"/>
<text text-anchor="start" x="349" y="-24.5" font-family="Helvetica,sans-Serif" font-size="10.00">LessonDialog::populate</text>
<text text-anchor="middle" x="400" y="-12.5" font-family="Helvetica,sans-Serif" font-size="10.00">_employees</text>
</a>
</g>
</g>
<!-- Node1&#45;&gt;Node8 -->
<g id="edge12_Node000001_Node000008" class="edge">
<title>Node1&#45;&gt;Node8</title>
<g id="a_edge12_Node000001_Node000008"><a xlink:title=" ">
<path fill="none" stroke="#63b8ff" d="M88.35,-58.64C108.57,-47.06 143.62,-29.01 176.5,-22 226.89,-11.26 285.18,-11.71 329.45,-14.61"/>
<polygon fill="#63b8ff" stroke="#63b8ff" points="328.95,-18.08 339.17,-15.31 329.45,-11.1 328.95,-18.08"/>
</a>
</g>
</g>
<!-- Node2&#45;&gt;Node3 -->
<g id="edge2_Node000002_Node000003" class="edge">
<title>Node2&#45;&gt;Node3</title>
<g id="a_edge2_Node000002_Node000003"><a xlink:title=" ">
<path fill="none" stroke="#63b8ff" d="M298.52,-131.39C308.49,-130.76 318.97,-130.09 329.25,-129.44"/>
<polygon fill="#63b8ff" stroke="#63b8ff" points="329.46,-132.93 339.21,-128.8 329.01,-125.94 329.46,-132.93"/>
</a>
</g>
</g>
<!-- Node4 -->
<g id="Node000004" class="node">
<title>Node4</title>
<g id="a_Node000004"><a xlink:href="class_lesson_dialog.html#ab3e1766d811c3efd7fe55cc197f5f31a" target="_top" xlink:title="Clears the children checkboxes from the dialog.">
<polygon fill="white" stroke="#666666" points="604,-182 501.75,-182 501.75,-150 604,-150 604,-182"/>
<text text-anchor="start" x="509.75" y="-168.5" font-family="Helvetica,sans-Serif" font-size="10.00">LessonDialog::clear</text>
<text text-anchor="middle" x="552.88" y="-156.5" font-family="Helvetica,sans-Serif" font-size="10.00">_children</text>
</a>
</g>
</g>
<!-- Node3&#45;&gt;Node4 -->
<g id="edge3_Node000003_Node000004" class="edge">
<title>Node3&#45;&gt;Node4</title>
<g id="a_edge3_Node000003_Node000004"><a xlink:title=" ">
<path fill="none" stroke="#63b8ff" d="M459.33,-140.85C469.56,-143.63 480.24,-146.53 490.55,-149.33"/>
<polygon fill="#63b8ff" stroke="#63b8ff" points="489.52,-152.68 500.09,-151.93 491.36,-145.93 489.52,-152.68"/>
</a>
</g>
</g>
<!-- Node5 -->
<g id="Node000005" class="node">
<title>Node5</title>
<g id="a_Node000005"><a xlink:href="class_lesson_dialog.html#a2898fcef2819d773d4f20e82d88a8ffd" target="_top" xlink:title="Creates a checkbox for a child.">
<polygon fill="white" stroke="#666666" points="607,-132 498.75,-132 498.75,-100 607,-100 607,-132"/>
<text text-anchor="start" x="506.75" y="-118.5" font-family="Helvetica,sans-Serif" font-size="10.00">LessonDialog::create</text>
<text text-anchor="middle" x="552.88" y="-106.5" font-family="Helvetica,sans-Serif" font-size="10.00">_child_check_box</text>
</a>
</g>
</g>
<!-- Node3&#45;&gt;Node5 -->
<g id="edge4_Node000003_Node000005" class="edge">
<title>Node3&#45;&gt;Node5</title>
<g id="a_edge4_Node000003_Node000005"><a xlink:title=" ">
<path fill="none" stroke="#63b8ff" d="M459.33,-121.52C468.53,-120.97 478.08,-120.4 487.41,-119.85"/>
<polygon fill="#63b8ff" stroke="#63b8ff" points="487.35,-123.36 497.12,-119.27 486.93,-116.37 487.35,-123.36"/>
</a>
</g>
</g>
<!-- Node6 -->
<g id="Node000006" class="node">
<title>Node6</title>
<g id="a_Node000006"><a xlink:href="_helper___functions_8h.html#abbf2bcc86eb4c36312bcad1565f4663e" target="_top" xlink:title="Checks if a vector contains a specific value.">
<polygon fill="white" stroke="#666666" points="699.5,-76 646.75,-76 646.75,-56 699.5,-56 699.5,-76"/>
<text text-anchor="middle" x="673.12" y="-62.5" font-family="Helvetica,sans-Serif" font-size="10.00">contains</text>
</a>
</g>
</g>
<!-- Node5&#45;&gt;Node6 -->
<g id="edge5_Node000005_Node000006" class="edge">
<title>Node5&#45;&gt;Node6</title>
<g id="a_edge5_Node000005_Node000006"><a xlink:title=" ">
<path fill="none" stroke="#63b8ff" d="M592.59,-99.63C606.98,-93.55 623.2,-86.69 637.22,-80.76"/>
<polygon fill="#63b8ff" stroke="#63b8ff" points="638.21,-84.14 646.06,-77.02 635.49,-77.69 638.21,-84.14"/>
</a>
</g>
</g>
<!-- Node7&#45;&gt;Node8 -->
<g id="edge7_Node000007_Node000008" class="edge">
<title>Node7&#45;&gt;Node8</title>
<g id="a_edge7_Node000007_Node000008"><a xlink:title=" ">
<path fill="none" stroke="#63b8ff" d="M305.26,-36.9C313.19,-35.64 321.34,-34.35 329.37,-33.07"/>
<polygon fill="#63b8ff" stroke="#63b8ff" points="329.77,-36.55 339.1,-31.52 328.67,-29.64 329.77,-36.55"/>
</a>
</g>
</g>
<!-- Node9 -->
<g id="Node000009" class="node">
<title>Node9</title>
<g id="a_Node000009"><a xlink:href="class_lesson_dialog.html#a3b170e2ee723cc875e1601fec67be0fc" target="_top" xlink:title="Clears the employees checkboxes from the dialog.">
<polygon fill="white" stroke="#666666" points="604,-82 501.75,-82 501.75,-50 604,-50 604,-82"/>
<text text-anchor="start" x="509.75" y="-68.5" font-family="Helvetica,sans-Serif" font-size="10.00">LessonDialog::clear</text>
<text text-anchor="middle" x="552.88" y="-56.5" font-family="Helvetica,sans-Serif" font-size="10.00">_employees</text>
</a>
</g>
</g>
<!-- Node8&#45;&gt;Node9 -->
<g id="edge8_Node000008_Node000009" class="edge">
<title>Node8&#45;&gt;Node9</title>
<g id="a_edge8_Node000008_Node000009"><a xlink:title=" ">
<path fill="none" stroke="#63b8ff" d="M457.18,-38.38C468.11,-41.57 479.63,-44.93 490.71,-48.16"/>
<polygon fill="#63b8ff" stroke="#63b8ff" points="489.58,-51.48 500.16,-50.92 491.54,-44.76 489.58,-51.48"/>
</a>
</g>
</g>
<!-- Node10 -->
<g id="Node000010" class="node">
<title>Node10</title>
<g id="a_Node000010"><a xlink:href="class_lesson_dialog.html#a03b443caff10683095b4d9138e004d1e" target="_top" xlink:title="Creates a checkbox for an employee.">
<polygon fill="white" stroke="#666666" points="610.75,-32 495,-32 495,0 610.75,0 610.75,-32"/>
<text text-anchor="start" x="503" y="-18.5" font-family="Helvetica,sans-Serif" font-size="10.00">LessonDialog::create</text>
<text text-anchor="middle" x="552.88" y="-6.5" font-family="Helvetica,sans-Serif" font-size="10.00">_employee_check_box</text>
</a>
</g>
</g>
<!-- Node8&#45;&gt;Node10 -->
<g id="edge9_Node000008_Node000010" class="edge">
<title>Node8&#45;&gt;Node10</title>
<g id="a_edge9_Node000008_Node000010"><a xlink:title=" ">
<path fill="none" stroke="#63b8ff" d="M459.33,-19.68C467.22,-19.37 475.38,-19.04 483.42,-18.72"/>
<polygon fill="#63b8ff" stroke="#63b8ff" points="483.33,-22.23 493.18,-18.33 483.05,-15.23 483.33,-22.23"/>
</a>
</g>
</g>
<!-- Node10&#45;&gt;Node6 -->
<g id="edge10_Node000010_Node000006" class="edge">
<title>Node10&#45;&gt;Node6</title>
<g id="a_edge10_Node000010_Node000006"><a xlink:title=" ">
<path fill="none" stroke="#63b8ff" d="M592.59,-32.37C606.98,-38.45 623.2,-45.31 637.22,-51.24"/>
<polygon fill="#63b8ff" stroke="#63b8ff" points="635.49,-54.31 646.06,-54.98 638.21,-47.86 635.49,-54.31"/>
</a>
</g>
</g>
</g>
</svg>

<g id="navigator" transform="translate(0 0)" fill="#404254">
  <rect fill="#f2f5e9" fill-opacity="0.5" stroke="#606060" stroke-width=".5" x="0" y="0" width="60" height="60"/>
  <use id="zoomplus" xlink:href="#zoomPlus" x="17" y="9" onmousedown="handleZoom(evt,'in')"/>
  <use id="zoomminus" xlink:href="#zoomMin" x="42" y="9" onmousedown="handleZoom(evt,'out')"/>
  <use id="reset" xlink:href="#resetDef" x="30" y="36" onmousedown="handleReset()"/>
   <use id="arrowup" xlink:href="#arrowUp" x="0" y="0" onmousedown="handlePan(0,-1)"/>
  <use id="arrowright" xlink:href="#arrowRight" x="0" y="0" onmousedown="handlePan(1,0)"/>
  <use id="arrowdown" xlink:href="#arrowDown" x="0" y="0" onmousedown="handlePan(0,1)"/>
  <use id="arrowleft" xlink:href="#arrowLeft" x="0" y="0" onmousedown="handlePan(-1,0)"/>
</g>
<svg viewBox="0 0 15 15" width="100%" height="30px" preserveAspectRatio="xMaxYMin meet">
 <g id="arrow_out" transform="scale(0.3 0.3)">
  <a xlink:href="class_lesson_dialog_a4ddf55a3925f45bd1cd3ecef02c261d5_cgraph_org.svg" target="_base">
   <rect id="button" ry="5" rx="5" y="6" x="6" height="38" width="38"
        fill="#f2f5e9" fill-opacity="0.5" stroke="#606060" stroke-width="1.0"/>
   <path id="arrow"
     d="M 11.500037,31.436501 C 11.940474,20.09759 22.043105,11.32322 32.158766,21.979434 L 37.068811,17.246167 C 37.068811,17.246167 37.088388,32 37.088388,32 L 22.160133,31.978069 C 22.160133,31.978069 26.997745,27.140456 26.997745,27.140456 C 18.528582,18.264221 13.291696,25.230495 11.500037,31.436501 z"
     style="fill:#404040;"/>
  </a>
 </g>
</svg>

<style type='text/css'>
<![CDATA[
[data-mouse-over-selected='false'] { opacity: 0.7; }
[data-mouse-over-selected='true']  { opacity: 1.0; }
]]>
</style>
<script type="application/ecmascript"><![CDATA[
document.addEventListener('DOMContentLoaded', (event) => {
  highlightEdges();
  highlightAdjacentNodes();
});
]]></script>
</svg>
