<?xml version="1.0" encoding="UTF-8" standalone="no"?>
<!DOCTYPE svg PUBLIC "-//W3C//DTD SVG 1.1//EN"
 "http://www.w3.org/Graphics/SVG/1.1/DTD/svg11.dtd">
<!-- Generated by graphviz version 12.2.1 (20241206.2353)
 -->
<!-- Title: DataBaseGUI::employee_remove Pages: 1 -->
<!--zoomable 278 -->

<svg id="main" version="1.1" xmlns="http://www.w3.org/2000/svg" xmlns:xlink="http://www.w3.org/1999/xlink" xml:space="preserve" onload="init(evt)">

<style type="text/css"><![CDATA[
.node, .edge {opacity: 0.7;}
.node.selected, .edge.selected {opacity: 1;}
.edge:hover path { stroke: red; }
.edge:hover polygon { stroke: red; fill: red; }
]]></style>

<defs>
  <circle id="rim" cx="0" cy="0" r="7"/>
  <circle id="rim2" cx="0" cy="0" r="3.5"/>
  <g id="zoomPlus">
    <use xlink:href="#rim" fill="#404040"><set attributeName="fill" to="#808080" begin="zoomplus.mouseover" end="zoomplus.mouseout"/></use>
    <path d="M-4,0h8M0,-4v8" fill="none" stroke="white" stroke-width="1.5" pointer-events="none"/>
  </g>
  <g id="zoomMin">
    <use xlink:href="#rim" fill="#404040"><set attributeName="fill" to="#808080" begin="zoomminus.mouseover" end="zoomminus.mouseout"/></use>
    <path d="M-4,0h8" fill="none" stroke="white" stroke-width="1.5" pointer-events="none"/>
  </g>
  <g id="arrowUp" transform="translate(30 24)">
    <use xlink:href="#rim"/>
    <path pointer-events="none" fill="none" stroke="white" stroke-width="1.5" d="M0,-3.0v7 M-2.5,-0.5L0,-3.0L2.5,-0.5"/>
  </g>
  <g id="arrowRight" transform="rotate(90) translate(36 -43)">
    <use xlink:href="#rim"/>
    <path pointer-events="none" fill="none" stroke="white" stroke-width="1.5" d="M0,-3.0v7 M-2.5,-0.5L0,-3.0L2.5,-0.5"/>
  </g>
  <g id="arrowDown" transform="rotate(180) translate(-30 -48)">
    <use xlink:href="#rim"/>
    <path pointer-events="none" fill="none" stroke="white" stroke-width="1.5" d="M0,-3.0v7 M-2.5,-0.5L0,-3.0L2.5,-0.5"/>
  </g>
  <g id="arrowLeft" transform="rotate(270) translate(-36 17)">
    <use xlink:href="#rim"/>
    <path pointer-events="none" fill="none" stroke="white" stroke-width="1.5" d="M0,-3.0v7 M-2.5,-0.5L0,-3.0L2.5,-0.5"/>
  </g>
  <g id="resetDef">
    <use xlink:href="#rim2" fill="#404040"><set attributeName="fill" to="#808080" begin="reset.mouseover" end="reset.mouseout"/></use>
  </g>
</defs>
<script type="application/ecmascript">
var viewWidth = 971;
var viewHeight = 278;
var sectionId = 'dynsection-23';
</script>
<script type="application/ecmascript" xlink:href="svg.min.js"/>
<svg id="graph" class="graph">
<g id="viewport">
<title>DataBaseGUI::employee_remove</title>
<!-- Node1 -->
<g id="Node000001" class="node">
<title>Node1</title>
<g id="a_Node000001"><a xlink:title="Removes an employee from the database.">
<polygon fill="#999999" stroke="#666666" points="963,-155 837.5,-155 837.5,-123 963,-123 963,-155"/>
<text text-anchor="start" x="845.5" y="-141.5" font-family="Helvetica,sans-Serif" font-size="10.00">DataBaseGUI::employee</text>
<text text-anchor="middle" x="900.25" y="-129.5" font-family="Helvetica,sans-Serif" font-size="10.00">_remove</text>
</a>
</g>
</g>
<!-- Node2 -->
<g id="Node000002" class="node">
<title>Node2</title>
<g id="a_Node000002"><a xlink:href="class_data_base_g_u_i.html#a2232520db239e60a4c37ee49868e6652" target="_top" xlink:title="Populates the parent tab with a multimap of parents.">
<polygon fill="white" stroke="#666666" points="301.25,-164 181,-164 181,-132 301.25,-132 301.25,-164"/>
<text text-anchor="start" x="189" y="-150.5" font-family="Helvetica,sans-Serif" font-size="10.00">DataBaseGUI::populate</text>
<text text-anchor="middle" x="241.12" y="-138.5" font-family="Helvetica,sans-Serif" font-size="10.00">_employee_tab</text>
</a>
</g>
</g>
<!-- Node1&#45;&gt;Node2 -->
<g id="edge1_Node000001_Node000002" class="edge">
<title>Node1&#45;&gt;Node2</title>
<g id="a_edge1_Node000001_Node000002"><a xlink:title=" ">
<path fill="none" stroke="#63b8ff" d="M860.13,-160.83C766.37,-210.1 522.86,-319.81 337.25,-243 298.65,-227.02 267.52,-186.94 252.29,-164.28"/>
<polygon fill="#63b8ff" stroke="#63b8ff" points="861.77,-163.92 868.95,-156.13 858.48,-157.74 861.77,-163.92"/>
</a>
</g>
</g>
<!-- Node3 -->
<g id="Node000003" class="node">
<title>Node3</title>
<g id="a_Node000003"><a xlink:href="class_data_base_g_u_i.html#abab0899c6a55e240687bf21734273428" target="_top" xlink:title="Populates the parent tab with a list of parents.">
<polygon fill="white" stroke="#666666" points="801.5,-155 681.25,-155 681.25,-123 801.5,-123 801.5,-155"/>
<text text-anchor="start" x="689.25" y="-141.5" font-family="Helvetica,sans-Serif" font-size="10.00">DataBaseGUI::populate</text>
<text text-anchor="middle" x="741.38" y="-129.5" font-family="Helvetica,sans-Serif" font-size="10.00">_employee_tab</text>
</a>
</g>
</g>
<!-- Node1&#45;&gt;Node3 -->
<g id="edge2_Node000001_Node000003" class="edge">
<title>Node1&#45;&gt;Node3</title>
<g id="a_edge2_Node000001_Node000003"><a xlink:title=" ">
<path fill="none" stroke="#63b8ff" d="M825.94,-139C817.88,-139 809.74,-139 801.88,-139"/>
<polygon fill="#63b8ff" stroke="#63b8ff" points="825.74,-142.5 835.74,-139 825.74,-135.5 825.74,-142.5"/>
</a>
</g>
</g>
<!-- Node4 -->
<g id="Node000004" class="node">
<title>Node4</title>
<g id="a_Node000004"><a xlink:href="class_data_base_g_u_i.html#a54b1ac54d775ea37ae05fd54c756aebe" target="_top" xlink:title="Searches for employees based on the provided name and surname.">
<polygon fill="white" stroke="#666666" points="645.25,-199 519.75,-199 519.75,-167 645.25,-167 645.25,-199"/>
<text text-anchor="start" x="527.75" y="-185.5" font-family="Helvetica,sans-Serif" font-size="10.00">DataBaseGUI::employee</text>
<text text-anchor="middle" x="582.5" y="-173.5" font-family="Helvetica,sans-Serif" font-size="10.00">_search</text>
</a>
</g>
</g>
<!-- Node3&#45;&gt;Node4 -->
<g id="edge3_Node000003_Node000004" class="edge">
<title>Node3&#45;&gt;Node4</title>
<g id="a_edge3_Node000003_Node000004"><a xlink:title=" ">
<path fill="none" stroke="#63b8ff" d="M671.17,-158.41C661.51,-161.12 651.66,-163.88 642.22,-166.53"/>
<polygon fill="#63b8ff" stroke="#63b8ff" points="671.82,-161.86 680.5,-155.79 669.93,-155.12 671.82,-161.86"/>
</a>
</g>
</g>
<!-- Node9 -->
<g id="Node000009" class="node">
<title>Node9</title>
<g id="a_Node000009"><a xlink:href="class_data_base_g_u_i.html#a0298d31c219c66a65a01eb01372e254d" target="_top" xlink:title="Selects the appropriate sorting to use based on employee sort index.">
<polygon fill="white" stroke="#666666" points="644.5,-111 520.5,-111 520.5,-79 644.5,-79 644.5,-111"/>
<text text-anchor="start" x="528.5" y="-97.5" font-family="Helvetica,sans-Serif" font-size="10.00">DataBaseGUI::sort_to</text>
<text text-anchor="middle" x="582.5" y="-85.5" font-family="Helvetica,sans-Serif" font-size="10.00">_populate_employee_tab</text>
</a>
</g>
</g>
<!-- Node3&#45;&gt;Node9 -->
<g id="edge8_Node000003_Node000009" class="edge">
<title>Node3&#45;&gt;Node9</title>
<g id="a_edge8_Node000003_Node000009"><a xlink:title=" ">
<path fill="none" stroke="#63b8ff" d="M671.17,-119.59C661.51,-116.88 651.66,-114.12 642.22,-111.47"/>
<polygon fill="#63b8ff" stroke="#63b8ff" points="669.93,-122.88 680.5,-122.21 671.82,-116.14 669.93,-122.88"/>
</a>
</g>
</g>
<!-- Node5 -->
<g id="Node000005" class="node">
<title>Node5</title>
<g id="a_Node000005"><a xlink:href="class_data_base_g_u_i.html#a3a2267784d541d4c74b143458aa7eedb" target="_top" xlink:title="Searches for employees based on the provided employee pointer.">
<polygon fill="white" stroke="#666666" points="473.25,-234 347.75,-234 347.75,-202 473.25,-202 473.25,-234"/>
<text text-anchor="start" x="355.75" y="-220.5" font-family="Helvetica,sans-Serif" font-size="10.00">DataBaseGUI::employee</text>
<text text-anchor="middle" x="410.5" y="-208.5" font-family="Helvetica,sans-Serif" font-size="10.00">_search_by_pointer</text>
</a>
</g>
</g>
<!-- Node4&#45;&gt;Node5 -->
<g id="edge4_Node000004_Node000005" class="edge">
<title>Node4&#45;&gt;Node5</title>
<g id="a_edge4_Node000004_Node000005"><a xlink:title=" ">
<path fill="none" stroke="#63b8ff" d="M508.59,-198.01C496.94,-200.41 484.97,-202.87 473.59,-205.22"/>
<polygon fill="#63b8ff" stroke="#63b8ff" points="509.07,-201.48 518.16,-196.04 507.66,-194.63 509.07,-201.48"/>
</a>
</g>
</g>
<!-- Node6 -->
<g id="Node000006" class="node">
<title>Node6</title>
<g id="a_Node000006"><a xlink:href="class_data_base_g_u_i.html#a6c35e47ed05a80db144f240dee805a9d" target="_top" xlink:title="Sets up the GUI.">
<polygon fill="white" stroke="#666666" points="294.88,-95 187.38,-95 187.38,-75 294.88,-75 294.88,-95"/>
<text text-anchor="middle" x="241.12" y="-81.5" font-family="Helvetica,sans-Serif" font-size="10.00">DataBaseGUI::setup</text>
</a>
</g>
</g>
<!-- Node4&#45;&gt;Node6 -->
<g id="edge5_Node000004_Node000006" class="edge">
<title>Node4&#45;&gt;Node6</title>
<g id="a_edge5_Node000004_Node000006"><a xlink:title=" ">
<path fill="none" stroke="#63b8ff" d="M507.93,-185.96C457.8,-185.3 391.02,-179.04 337.25,-155 317.71,-146.26 318.31,-135.94 301.25,-123 287.93,-112.9 271.93,-102.72 259.94,-95.45"/>
<polygon fill="#63b8ff" stroke="#63b8ff" points="507.8,-189.46 517.82,-186.01 507.84,-182.46 507.8,-189.46"/>
</a>
</g>
</g>
<!-- Node7 -->
<g id="Node000007" class="node">
<title>Node7</title>
<g id="a_Node000007"><a xlink:href="class_data_base_g_u_i.html#a2c83afe3a30fb5166d275d9a74d33196" target="_top" xlink:title="Default constructor.">
<polygon fill="white" stroke="#666666" points="145,-114 0,-114 0,-94 145,-94 145,-114"/>
<text text-anchor="middle" x="72.5" y="-100.5" font-family="Helvetica,sans-Serif" font-size="10.00">DataBaseGUI::DataBaseGUI</text>
</a>
</g>
</g>
<!-- Node6&#45;&gt;Node7 -->
<g id="edge6_Node000006_Node000007" class="edge">
<title>Node6&#45;&gt;Node7</title>
<g id="a_edge6_Node000006_Node000007"><a xlink:title=" ">
<path fill="none" stroke="#63b8ff" d="M175.53,-92.37C165.64,-93.49 155.37,-94.67 145.32,-95.81"/>
<polygon fill="#63b8ff" stroke="#63b8ff" points="175.9,-95.85 185.44,-91.24 175.11,-88.89 175.9,-95.85"/>
</a>
</g>
</g>
<!-- Node8 -->
<g id="Node000008" class="node">
<title>Node8</title>
<g id="a_Node000008"><a xlink:href="class_data_base_g_u_i.html#aba10d1d8e9fb151632ff34de418cee82" target="_top" xlink:title="Constructs a DataBaseGUI object.">
<polygon fill="white" stroke="#666666" points="145,-76 0,-76 0,-56 145,-56 145,-76"/>
<text text-anchor="middle" x="72.5" y="-62.5" font-family="Helvetica,sans-Serif" font-size="10.00">DataBaseGUI::DataBaseGUI</text>
</a>
</g>
</g>
<!-- Node6&#45;&gt;Node8 -->
<g id="edge7_Node000006_Node000008" class="edge">
<title>Node6&#45;&gt;Node8</title>
<g id="a_edge7_Node000006_Node000008"><a xlink:title=" ">
<path fill="none" stroke="#63b8ff" d="M175.53,-77.63C165.64,-76.51 155.37,-75.33 145.32,-74.19"/>
<polygon fill="#63b8ff" stroke="#63b8ff" points="175.11,-81.11 185.44,-78.76 175.9,-74.15 175.11,-81.11"/>
</a>
</g>
</g>
<!-- Node9&#45;&gt;Node1 -->
<g id="edge14_Node000009_Node000001" class="edge">
<title>Node9&#45;&gt;Node1</title>
<g id="a_edge14_Node000009_Node000001"><a xlink:title=" ">
<path fill="none" stroke="#63b8ff" d="M656.31,-98.36C698.86,-101.07 753.47,-105.82 801.5,-114 814.54,-116.22 828.39,-119.31 841.44,-122.55"/>
<polygon fill="#63b8ff" stroke="#63b8ff" points="656.63,-94.88 646.43,-97.76 656.2,-101.86 656.63,-94.88"/>
</a>
</g>
</g>
<!-- Node10 -->
<g id="Node000010" class="node">
<title>Node10</title>
<g id="a_Node000010"><a xlink:href="class_data_base_g_u_i.html#a0f194ae2af0655dbec77fea4c37a0388" target="_top" xlink:title="Adds a new employee to the database.">
<polygon fill="white" stroke="#666666" points="483.75,-108 337.25,-108 337.25,-88 483.75,-88 483.75,-108"/>
<text text-anchor="middle" x="410.5" y="-94.5" font-family="Helvetica,sans-Serif" font-size="10.00">DataBaseGUI::employee_add</text>
</a>
</g>
</g>
<!-- Node9&#45;&gt;Node10 -->
<g id="edge9_Node000009_Node000010" class="edge">
<title>Node9&#45;&gt;Node10</title>
<g id="a_edge9_Node000009_Node000010"><a xlink:title=" ">
<path fill="none" stroke="#63b8ff" d="M508.72,-96.28C500.55,-96.43 492.23,-96.58 484.07,-96.72"/>
<polygon fill="#63b8ff" stroke="#63b8ff" points="508.68,-99.79 518.61,-96.11 508.55,-92.79 508.68,-99.79"/>
</a>
</g>
</g>
<!-- Node11 -->
<g id="Node000011" class="node">
<title>Node11</title>
<g id="a_Node000011"><a xlink:href="class_data_base_g_u_i.html#ae9c0b91905f7d70563c285cd9b5dace3" target="_top" xlink:title="Edits an existing employee in the database.">
<polygon fill="white" stroke="#666666" points="483.75,-146 337.25,-146 337.25,-126 483.75,-126 483.75,-146"/>
<text text-anchor="middle" x="410.5" y="-132.5" font-family="Helvetica,sans-Serif" font-size="10.00">DataBaseGUI::employee_edit</text>
</a>
</g>
</g>
<!-- Node9&#45;&gt;Node11 -->
<g id="edge11_Node000009_Node000011" class="edge">
<title>Node9&#45;&gt;Node11</title>
<g id="a_edge11_Node000009_Node000011"><a xlink:title=" ">
<path fill="none" stroke="#63b8ff" d="M509.09,-112.46C490.65,-116.91 471.41,-121.55 454.93,-125.52"/>
<polygon fill="#63b8ff" stroke="#63b8ff" points="509.75,-115.9 518.65,-110.16 508.11,-109.1 509.75,-115.9"/>
</a>
</g>
</g>
<!-- Node12 -->
<g id="Node000012" class="node">
<title>Node12</title>
<g id="a_Node000012"><a xlink:href="class_data_base_g_u_i.html#a7db832ef3939cc57a78a16f4c09994a6" target="_top" xlink:title="Changes the sorting method for employees.">
<polygon fill="white" stroke="#666666" points="473.25,-70 347.75,-70 347.75,-38 473.25,-38 473.25,-70"/>
<text text-anchor="start" x="355.75" y="-56.5" font-family="Helvetica,sans-Serif" font-size="10.00">DataBaseGUI::employee</text>
<text text-anchor="middle" x="410.5" y="-44.5" font-family="Helvetica,sans-Serif" font-size="10.00">_sort_change</text>
</a>
</g>
</g>
<!-- Node9&#45;&gt;Node12 -->
<g id="edge15_Node000009_Node000012" class="edge">
<title>Node9&#45;&gt;Node12</title>
<g id="a_edge15_Node000009_Node000012"><a xlink:title=" ">
<path fill="none" stroke="#63b8ff" d="M508.98,-77.51C497.22,-74.67 485.13,-71.76 473.64,-68.99"/>
<polygon fill="#63b8ff" stroke="#63b8ff" points="508.11,-80.9 518.65,-79.84 509.75,-74.1 508.11,-80.9"/>
</a>
</g>
</g>
<!-- Node13 -->
<g id="Node000013" class="node">
<title>Node13</title>
<g id="a_Node000013"><a xlink:href="class_data_base_g_u_i.html#a438b5070d6a58ffa5e884d18740852c6" target="_top" xlink:title="Handles tab change events.">
<polygon fill="white" stroke="#666666" points="477.38,-20 343.62,-20 343.62,0 477.38,0 477.38,-20"/>
<text text-anchor="middle" x="410.5" y="-6.5" font-family="Helvetica,sans-Serif" font-size="10.00">DataBaseGUI::tab_change</text>
</a>
</g>
</g>
<!-- Node9&#45;&gt;Node13 -->
<g id="edge17_Node000009_Node000013" class="edge">
<title>Node9&#45;&gt;Node13</title>
<g id="a_edge17_Node000009_Node000013"><a xlink:title=" ">
<path fill="none" stroke="#63b8ff" d="M552.86,-71.86C534.14,-57.74 508.64,-40.28 483.75,-29 476.43,-25.68 468.41,-22.85 460.47,-20.48"/>
<polygon fill="#63b8ff" stroke="#63b8ff" points="550.47,-74.44 560.53,-77.77 554.74,-68.89 550.47,-74.44"/>
</a>
</g>
</g>
<!-- Node10&#45;&gt;Node6 -->
<g id="edge10_Node000010_Node000006" class="edge">
<title>Node10&#45;&gt;Node6</title>
<g id="a_edge10_Node000010_Node000006"><a xlink:title=" ">
<path fill="none" stroke="#63b8ff" d="M325.81,-91.5C315.41,-90.69 305.01,-89.88 295.25,-89.13"/>
<polygon fill="#63b8ff" stroke="#63b8ff" points="325.31,-94.97 335.55,-92.26 325.85,-87.99 325.31,-94.97"/>
</a>
</g>
</g>
<!-- Node11&#45;&gt;Node2 -->
<g id="edge12_Node000011_Node000002" class="edge">
<title>Node11&#45;&gt;Node2</title>
<g id="a_edge12_Node000011_Node000002"><a xlink:title=" ">
<path fill="none" stroke="#63b8ff" d="M325.62,-142.01C317.51,-142.6 309.4,-143.18 301.6,-143.74"/>
<polygon fill="#63b8ff" stroke="#63b8ff" points="325.83,-145.51 335.55,-141.3 325.33,-138.53 325.83,-145.51"/>
</a>
</g>
</g>
<!-- Node11&#45;&gt;Node3 -->
<g id="edge13_Node000011_Node000003" class="edge">
<title>Node11&#45;&gt;Node3</title>
<g id="a_edge13_Node000011_Node000003"><a xlink:title=" ">
<path fill="none" stroke="#63b8ff" d="M495.45,-136.77C553.39,-137.29 629.02,-137.98 680.82,-138.46"/>
<polygon fill="#63b8ff" stroke="#63b8ff" points="495.66,-133.27 485.62,-136.68 495.59,-140.27 495.66,-133.27"/>
</a>
</g>
</g>
<!-- Node12&#45;&gt;Node6 -->
<g id="edge16_Node000012_Node000006" class="edge">
<title>Node12&#45;&gt;Node6</title>
<g id="a_edge16_Node000012_Node000006"><a xlink:title=" ">
<path fill="none" stroke="#63b8ff" d="M336.6,-67.5C322.68,-70.08 308.35,-72.73 295.19,-75.17"/>
<polygon fill="#63b8ff" stroke="#63b8ff" points="336.97,-70.99 346.16,-65.73 335.69,-64.11 336.97,-70.99"/>
</a>
</g>
</g>
<!-- Node13&#45;&gt;Node6 -->
<g id="edge18_Node000013_Node000006" class="edge">
<title>Node13&#45;&gt;Node6</title>
<g id="a_edge18_Node000013_Node000006"><a xlink:title=" ">
<path fill="none" stroke="#63b8ff" d="M351.51,-23.73C346.63,-25.34 341.82,-27.1 337.25,-29 307.18,-41.52 275.1,-62.11 256.94,-74.53"/>
<polygon fill="#63b8ff" stroke="#63b8ff" points="352.26,-27.16 360.79,-20.87 350.21,-20.47 352.26,-27.16"/>
</a>
</g>
</g>
</g>
</svg>

<g id="navigator" transform="translate(0 0)" fill="#404254">
  <rect fill="#f2f5e9" fill-opacity="0.5" stroke="#606060" stroke-width=".5" x="0" y="0" width="60" height="60"/>
  <use id="zoomplus" xlink:href="#zoomPlus" x="17" y="9" onmousedown="handleZoom(evt,'in')"/>
  <use id="zoomminus" xlink:href="#zoomMin" x="42" y="9" onmousedown="handleZoom(evt,'out')"/>
  <use id="reset" xlink:href="#resetDef" x="30" y="36" onmousedown="handleReset()"/>
   <use id="arrowup" xlink:href="#arrowUp" x="0" y="0" onmousedown="handlePan(0,-1)"/>
  <use id="arrowright" xlink:href="#arrowRight" x="0" y="0" onmousedown="handlePan(1,0)"/>
  <use id="arrowdown" xlink:href="#arrowDown" x="0" y="0" onmousedown="handlePan(0,1)"/>
  <use id="arrowleft" xlink:href="#arrowLeft" x="0" y="0" onmousedown="handlePan(-1,0)"/>
</g>
<svg viewBox="0 0 15 15" width="100%" height="30px" preserveAspectRatio="xMaxYMin meet">
 <g id="arrow_out" transform="scale(0.3 0.3)">
  <a xlink:href="class_data_base_g_u_i_a4b70294327e9c316224af10d7a369749_icgraph_org.svg" target="_base">
   <rect id="button" ry="5" rx="5" y="6" x="6" height="38" width="38"
        fill="#f2f5e9" fill-opacity="0.5" stroke="#606060" stroke-width="1.0"/>
   <path id="arrow"
     d="M 11.500037,31.436501 C 11.940474,20.09759 22.043105,11.32322 32.158766,21.979434 L 37.068811,17.246167 C 37.068811,17.246167 37.088388,32 37.088388,32 L 22.160133,31.978069 C 22.160133,31.978069 26.997745,27.140456 26.997745,27.140456 C 18.528582,18.264221 13.291696,25.230495 11.500037,31.436501 z"
     style="fill:#404040;"/>
  </a>
 </g>
</svg>

<style type='text/css'>
<![CDATA[
[data-mouse-over-selected='false'] { opacity: 0.7; }
[data-mouse-over-selected='true']  { opacity: 1.0; }
]]>
</style>
<script type="application/ecmascript"><![CDATA[
document.addEventListener('DOMContentLoaded', (event) => {
  highlightEdges();
  highlightAdjacentNodes();
});
]]></script>
</svg>
