<?xml version="1.0" encoding="UTF-8" standalone="no"?>
<!DOCTYPE svg PUBLIC "-//W3C//DTD SVG 1.1//EN"
 "http://www.w3.org/Graphics/SVG/1.1/DTD/svg11.dtd">
<!-- Generated by graphviz version 12.2.1 (20241206.2353)
 -->
<!-- Title: DataBaseGUI::populate_lesson_tab Pages: 1 -->
<svg width="470pt" height="149pt"
 viewBox="0.00 0.00 470.00 148.51" xmlns="http://www.w3.org/2000/svg" xmlns:xlink="http://www.w3.org/1999/xlink">
<g id="graph0" class="graph" transform="scale(1 1) rotate(0) translate(4 144.51)">
<title>DataBaseGUI::populate_lesson_tab</title>
<!-- Node1 -->
<g id="Node000001" class="node">
<title>Node1</title>
<g id="a_Node000001"><a xlink:title="Populates the lessons tab with a list of lessons.">
<polygon fill="#999999" stroke="#666666" points="120.25,-68.51 0,-68.51 0,-36.51 120.25,-36.51 120.25,-68.51"/>
<text text-anchor="start" x="8" y="-55.01" font-family="Helvetica,sans-Serif" font-size="10.00">DataBaseGUI::populate</text>
<text text-anchor="middle" x="60.12" y="-43.01" font-family="Helvetica,sans-Serif" font-size="10.00">_lesson_tab</text>
</a>
</g>
</g>
<!-- Node2 -->
<g id="Node000002" class="node">
<title>Node2</title>
<g id="a_Node000002"><a xlink:href="class_data_base_g_u_i.html#a66a3e89a9852de3522d98f2c1f8cdeed" target="_top" xlink:title="Removes a lesson from the database.">
<polygon fill="white" stroke="#666666" points="290.38,-140.51 178.38,-140.51 178.38,-108.51 290.38,-108.51 290.38,-140.51"/>
<text text-anchor="start" x="186.38" y="-127.01" font-family="Helvetica,sans-Serif" font-size="10.00">DataBaseGUI::lesson</text>
<text text-anchor="middle" x="234.38" y="-115.01" font-family="Helvetica,sans-Serif" font-size="10.00">_remove</text>
</a>
</g>
</g>
<!-- Node1&#45;&gt;Node2 -->
<g id="edge1_Node000001_Node000002" class="edge">
<title>Node1&#45;&gt;Node2</title>
<g id="a_edge1_Node000001_Node000002"><a xlink:title=" ">
<path fill="none" stroke="#63b8ff" d="M91.45,-68.9C109.88,-78.51 134.07,-90.49 156.25,-99.51 160.24,-101.13 164.38,-102.73 168.58,-104.27"/>
<polygon fill="#63b8ff" stroke="#63b8ff" points="167.06,-107.44 177.65,-107.5 169.41,-100.85 167.06,-107.44"/>
</a>
</g>
</g>
<!-- Node4 -->
<g id="Node000004" class="node">
<title>Node4</title>
<g id="a_Node000004"><a xlink:href="class_data_base_g_u_i.html#a2cb0d5bb3e2e1795dd1e9fd61d51544c" target="_top" xlink:title="Clears the lessons tab.">
<polygon fill="white" stroke="#666666" points="290.38,-90.51 178.38,-90.51 178.38,-58.51 290.38,-58.51 290.38,-90.51"/>
<text text-anchor="start" x="186.38" y="-77.01" font-family="Helvetica,sans-Serif" font-size="10.00">DataBaseGUI::lesson</text>
<text text-anchor="middle" x="234.38" y="-65.01" font-family="Helvetica,sans-Serif" font-size="10.00">_tab_clear</text>
</a>
</g>
</g>
<!-- Node1&#45;&gt;Node4 -->
<g id="edge4_Node000001_Node000004" class="edge">
<title>Node1&#45;&gt;Node4</title>
<g id="a_edge4_Node000001_Node000004"><a xlink:title=" ">
<path fill="none" stroke="#63b8ff" d="M120.4,-60.08C135.44,-62 151.69,-64.08 167.05,-66.04"/>
<polygon fill="#63b8ff" stroke="#63b8ff" points="166.18,-69.46 176.54,-67.25 167.07,-62.51 166.18,-69.46"/>
</a>
</g>
</g>
<!-- Node5 -->
<g id="Node000005" class="node">
<title>Node5</title>
<g id="a_Node000005"><a xlink:href="class_lesson_entry.html#ac407f16eaac263953c0c07079cac4064" target="_top" xlink:title="Signal emitted when a lesson removal is requested.">
<polygon fill="white" stroke="#666666" points="312.5,-40.51 156.25,-40.51 156.25,-20.51 312.5,-20.51 312.5,-40.51"/>
<text text-anchor="middle" x="234.38" y="-27.01" font-family="Helvetica,sans-Serif" font-size="10.00">LessonEntry::removeRequested</text>
</a>
</g>
</g>
<!-- Node1&#45;&gt;Node5 -->
<g id="edge5_Node000001_Node000005" class="edge">
<title>Node1&#45;&gt;Node5</title>
<g id="a_edge5_Node000001_Node000005"><a xlink:title=" ">
<path fill="none" stroke="#63b8ff" d="M120.4,-44.94C128.3,-43.93 136.53,-42.88 144.79,-41.82"/>
<polygon fill="#63b8ff" stroke="#63b8ff" points="145.06,-45.32 154.54,-40.58 144.18,-38.37 145.06,-45.32"/>
</a>
</g>
</g>
<!-- Node3 -->
<g id="Node000003" class="node">
<title>Node3</title>
<g id="a_Node000003"><a xlink:href="class_data_base_g_u_i.html#a1ad152b7becf3e0051cdd5dbae6d4abc" target="_top" xlink:title="Selects the appropriate sorting to use based on lesson sort index.">
<polygon fill="white" stroke="#666666" points="462,-74.51 348.5,-74.51 348.5,-42.51 462,-42.51 462,-74.51"/>
<text text-anchor="start" x="356.5" y="-61.01" font-family="Helvetica,sans-Serif" font-size="10.00">DataBaseGUI::sort_to</text>
<text text-anchor="middle" x="405.25" y="-49.01" font-family="Helvetica,sans-Serif" font-size="10.00">_populate_lesson_tab</text>
</a>
</g>
</g>
<!-- Node2&#45;&gt;Node3 -->
<g id="edge2_Node000002_Node000003" class="edge">
<title>Node2&#45;&gt;Node3</title>
<g id="a_edge2_Node000002_Node000003"><a xlink:title=" ">
<path fill="none" stroke="#63b8ff" d="M288.74,-108.03C296.75,-105.32 304.88,-102.44 312.5,-99.51 327.96,-93.57 344.58,-86.39 359.36,-79.72"/>
<polygon fill="#63b8ff" stroke="#63b8ff" points="360.74,-82.94 368.39,-75.6 357.84,-76.57 360.74,-82.94"/>
</a>
</g>
</g>
<!-- Node3&#45;&gt;Node1 -->
<g id="edge3_Node000003_Node000001" class="edge">
<title>Node3&#45;&gt;Node1</title>
<g id="a_edge3_Node000003_Node000001"><a xlink:title=" ">
<path fill="none" stroke="#63b8ff" d="M380.19,-42.16C362.37,-31.08 337.03,-17.43 312.5,-11.51 244.99,4.77 224.26,2.52 156.25,-11.51 137.14,-15.45 117.15,-23.42 100.45,-31.28"/>
<polygon fill="#63b8ff" stroke="#63b8ff" points="99.32,-27.94 91.87,-35.47 102.39,-34.23 99.32,-27.94"/>
</a>
</g>
</g>
</g>
</svg>
