<?xml version="1.0" encoding="UTF-8" standalone="no"?>
<!DOCTYPE svg PUBLIC "-//W3C//DTD SVG 1.1//EN"
 "http://www.w3.org/Graphics/SVG/1.1/DTD/svg11.dtd">
<!-- Generated by graphviz version 12.2.1 (20241206.2353)
 -->
<!-- Title: DataBaseGUI::employee_edit Pages: 1 -->
<svg width="992pt" height="291pt"
 viewBox="0.00 0.00 992.00 291.18" xmlns="http://www.w3.org/2000/svg" xmlns:xlink="http://www.w3.org/1999/xlink">
<g id="graph0" class="graph" transform="scale(1 1) rotate(0) translate(4 287.18)">
<title>DataBaseGUI::employee_edit</title>
<!-- Node1 -->
<g id="Node000001" class="node">
<title>Node1</title>
<g id="a_Node000001"><a xlink:title="Edits an existing employee in the database.">
<polygon fill="#999999" stroke="#666666" points="984,-152 837.5,-152 837.5,-132 984,-132 984,-152"/>
<text text-anchor="middle" x="910.75" y="-138.5" font-family="Helvetica,sans-Serif" font-size="10.00">DataBaseGUI::employee_edit</text>
</a>
</g>
</g>
<!-- Node2 -->
<g id="Node000002" class="node">
<title>Node2</title>
<g id="a_Node000002"><a xlink:href="class_data_base_g_u_i.html#a2232520db239e60a4c37ee49868e6652" target="_top" xlink:title="Populates the parent tab with a multimap of parents.">
<polygon fill="white" stroke="#666666" points="301.25,-169 181,-169 181,-137 301.25,-137 301.25,-169"/>
<text text-anchor="start" x="189" y="-155.5" font-family="Helvetica,sans-Serif" font-size="10.00">DataBaseGUI::populate</text>
<text text-anchor="middle" x="241.12" y="-143.5" font-family="Helvetica,sans-Serif" font-size="10.00">_employee_tab</text>
</a>
</g>
</g>
<!-- Node1&#45;&gt;Node2 -->
<g id="edge1_Node000001_Node000002" class="edge">
<title>Node1&#45;&gt;Node2</title>
<g id="a_edge1_Node000001_Node000002"><a xlink:title=" ">
<path fill="none" stroke="#63b8ff" d="M882.78,-158.17C798.6,-206.42 534.6,-340.81 337.25,-255 296.84,-237.43 265.81,-193.29 251.24,-169.24"/>
<polygon fill="#63b8ff" stroke="#63b8ff" points="884.38,-161.29 891.26,-153.24 880.86,-155.24 884.38,-161.29"/>
</a>
</g>
</g>
<!-- Node3 -->
<g id="Node000003" class="node">
<title>Node3</title>
<g id="a_Node000003"><a xlink:href="class_data_base_g_u_i.html#abab0899c6a55e240687bf21734273428" target="_top" xlink:title="Populates the parent tab with a list of parents.">
<polygon fill="white" stroke="#666666" points="801.5,-158 681.25,-158 681.25,-126 801.5,-126 801.5,-158"/>
<text text-anchor="start" x="689.25" y="-144.5" font-family="Helvetica,sans-Serif" font-size="10.00">DataBaseGUI::populate</text>
<text text-anchor="middle" x="741.38" y="-132.5" font-family="Helvetica,sans-Serif" font-size="10.00">_employee_tab</text>
</a>
</g>
</g>
<!-- Node1&#45;&gt;Node3 -->
<g id="edge2_Node000001_Node000003" class="edge">
<title>Node1&#45;&gt;Node3</title>
<g id="a_edge2_Node000001_Node000003"><a xlink:title=" ">
<path fill="none" stroke="#63b8ff" d="M825.87,-142C817.76,-142 809.65,-142 801.85,-142"/>
<polygon fill="#63b8ff" stroke="#63b8ff" points="825.8,-145.5 835.8,-142 825.8,-138.5 825.8,-145.5"/>
</a>
</g>
</g>
<!-- Node4 -->
<g id="Node000004" class="node">
<title>Node4</title>
<g id="a_Node000004"><a xlink:href="class_data_base_g_u_i.html#a54b1ac54d775ea37ae05fd54c756aebe" target="_top" xlink:title="Searches for employees based on the provided name and surname.">
<polygon fill="white" stroke="#666666" points="645.25,-202 519.75,-202 519.75,-170 645.25,-170 645.25,-202"/>
<text text-anchor="start" x="527.75" y="-188.5" font-family="Helvetica,sans-Serif" font-size="10.00">DataBaseGUI::employee</text>
<text text-anchor="middle" x="582.5" y="-176.5" font-family="Helvetica,sans-Serif" font-size="10.00">_search</text>
</a>
</g>
</g>
<!-- Node3&#45;&gt;Node4 -->
<g id="edge3_Node000003_Node000004" class="edge">
<title>Node3&#45;&gt;Node4</title>
<g id="a_edge3_Node000003_Node000004"><a xlink:title=" ">
<path fill="none" stroke="#63b8ff" d="M671.17,-161.41C661.51,-164.12 651.66,-166.88 642.22,-169.53"/>
<polygon fill="#63b8ff" stroke="#63b8ff" points="671.82,-164.86 680.5,-158.79 669.93,-158.12 671.82,-164.86"/>
</a>
</g>
</g>
<!-- Node9 -->
<g id="Node000009" class="node">
<title>Node9</title>
<g id="a_Node000009"><a xlink:href="class_data_base_g_u_i.html#a0298d31c219c66a65a01eb01372e254d" target="_top" xlink:title="Selects the appropriate sorting to use based on employee sort index.">
<polygon fill="white" stroke="#666666" points="644.5,-114 520.5,-114 520.5,-82 644.5,-82 644.5,-114"/>
<text text-anchor="start" x="528.5" y="-100.5" font-family="Helvetica,sans-Serif" font-size="10.00">DataBaseGUI::sort_to</text>
<text text-anchor="middle" x="582.5" y="-88.5" font-family="Helvetica,sans-Serif" font-size="10.00">_populate_employee_tab</text>
</a>
</g>
</g>
<!-- Node3&#45;&gt;Node9 -->
<g id="edge8_Node000003_Node000009" class="edge">
<title>Node3&#45;&gt;Node9</title>
<g id="a_edge8_Node000003_Node000009"><a xlink:title=" ">
<path fill="none" stroke="#63b8ff" d="M671.17,-122.59C661.51,-119.88 651.66,-117.12 642.22,-114.47"/>
<polygon fill="#63b8ff" stroke="#63b8ff" points="669.93,-125.88 680.5,-125.21 671.82,-119.14 669.93,-125.88"/>
</a>
</g>
</g>
<!-- Node5 -->
<g id="Node000005" class="node">
<title>Node5</title>
<g id="a_Node000005"><a xlink:href="class_data_base_g_u_i.html#a3a2267784d541d4c74b143458aa7eedb" target="_top" xlink:title="Searches for employees based on the provided employee pointer.">
<polygon fill="white" stroke="#666666" points="473.25,-246 347.75,-246 347.75,-214 473.25,-214 473.25,-246"/>
<text text-anchor="start" x="355.75" y="-232.5" font-family="Helvetica,sans-Serif" font-size="10.00">DataBaseGUI::employee</text>
<text text-anchor="middle" x="410.5" y="-220.5" font-family="Helvetica,sans-Serif" font-size="10.00">_search_by_pointer</text>
</a>
</g>
</g>
<!-- Node4&#45;&gt;Node5 -->
<g id="edge4_Node000004_Node000005" class="edge">
<title>Node4&#45;&gt;Node5</title>
<g id="a_edge4_Node000004_Node000005"><a xlink:title=" ">
<path fill="none" stroke="#63b8ff" d="M508.59,-204.87C496.94,-207.89 484.97,-210.98 473.59,-213.93"/>
<polygon fill="#63b8ff" stroke="#63b8ff" points="509.38,-208.28 518.18,-202.39 507.62,-201.51 509.38,-208.28"/>
</a>
</g>
</g>
<!-- Node6 -->
<g id="Node000006" class="node">
<title>Node6</title>
<g id="a_Node000006"><a xlink:href="class_data_base_g_u_i.html#a6c35e47ed05a80db144f240dee805a9d" target="_top" xlink:title="Sets up the GUI.">
<polygon fill="white" stroke="#666666" points="294.88,-97 187.38,-97 187.38,-77 294.88,-77 294.88,-97"/>
<text text-anchor="middle" x="241.12" y="-83.5" font-family="Helvetica,sans-Serif" font-size="10.00">DataBaseGUI::setup</text>
</a>
</g>
</g>
<!-- Node4&#45;&gt;Node6 -->
<g id="edge5_Node000004_Node000006" class="edge">
<title>Node4&#45;&gt;Node6</title>
<g id="a_edge5_Node000004_Node000006"><a xlink:title=" ">
<path fill="none" stroke="#63b8ff" d="M507.83,-193.91C457.36,-196.15 390.24,-192.7 337.25,-167 316.02,-156.71 319.05,-143.48 301.25,-128 287.96,-116.44 271.37,-105.18 259.15,-97.39"/>
<polygon fill="#63b8ff" stroke="#63b8ff" points="508,-197.41 517.79,-193.37 507.62,-190.42 508,-197.41"/>
</a>
</g>
</g>
<!-- Node7 -->
<g id="Node000007" class="node">
<title>Node7</title>
<g id="a_Node000007"><a xlink:href="class_data_base_g_u_i.html#a2c83afe3a30fb5166d275d9a74d33196" target="_top" xlink:title="Default constructor.">
<polygon fill="white" stroke="#666666" points="145,-116 0,-116 0,-96 145,-96 145,-116"/>
<text text-anchor="middle" x="72.5" y="-102.5" font-family="Helvetica,sans-Serif" font-size="10.00">DataBaseGUI::DataBaseGUI</text>
</a>
</g>
</g>
<!-- Node6&#45;&gt;Node7 -->
<g id="edge6_Node000006_Node000007" class="edge">
<title>Node6&#45;&gt;Node7</title>
<g id="a_edge6_Node000006_Node000007"><a xlink:title=" ">
<path fill="none" stroke="#63b8ff" d="M175.53,-94.37C165.64,-95.49 155.37,-96.67 145.32,-97.81"/>
<polygon fill="#63b8ff" stroke="#63b8ff" points="175.9,-97.85 185.44,-93.24 175.11,-90.89 175.9,-97.85"/>
</a>
</g>
</g>
<!-- Node8 -->
<g id="Node000008" class="node">
<title>Node8</title>
<g id="a_Node000008"><a xlink:href="class_data_base_g_u_i.html#aba10d1d8e9fb151632ff34de418cee82" target="_top" xlink:title="Constructs a DataBaseGUI object.">
<polygon fill="white" stroke="#666666" points="145,-78 0,-78 0,-58 145,-58 145,-78"/>
<text text-anchor="middle" x="72.5" y="-64.5" font-family="Helvetica,sans-Serif" font-size="10.00">DataBaseGUI::DataBaseGUI</text>
</a>
</g>
</g>
<!-- Node6&#45;&gt;Node8 -->
<g id="edge7_Node000006_Node000008" class="edge">
<title>Node6&#45;&gt;Node8</title>
<g id="a_edge7_Node000006_Node000008"><a xlink:title=" ">
<path fill="none" stroke="#63b8ff" d="M175.53,-79.63C165.64,-78.51 155.37,-77.33 145.32,-76.19"/>
<polygon fill="#63b8ff" stroke="#63b8ff" points="175.11,-83.11 185.44,-80.76 175.9,-76.15 175.11,-83.11"/>
</a>
</g>
</g>
<!-- Node9&#45;&gt;Node1 -->
<g id="edge11_Node000009_Node000001" class="edge">
<title>Node9&#45;&gt;Node1</title>
<g id="a_edge11_Node000009_Node000001"><a xlink:title=" ">
<path fill="none" stroke="#63b8ff" d="M656.24,-101.78C698.76,-104.63 753.38,-109.38 801.5,-117 824.55,-120.65 850,-126.43 870.42,-131.52"/>
<polygon fill="#63b8ff" stroke="#63b8ff" points="656.57,-98.3 646.37,-101.14 656.12,-105.28 656.57,-98.3"/>
</a>
</g>
</g>
<!-- Node10 -->
<g id="Node000010" class="node">
<title>Node10</title>
<g id="a_Node000010"><a xlink:href="class_data_base_g_u_i.html#a0f194ae2af0655dbec77fea4c37a0388" target="_top" xlink:title="Adds a new employee to the database.">
<polygon fill="white" stroke="#666666" points="483.75,-108 337.25,-108 337.25,-88 483.75,-88 483.75,-108"/>
<text text-anchor="middle" x="410.5" y="-94.5" font-family="Helvetica,sans-Serif" font-size="10.00">DataBaseGUI::employee_add</text>
</a>
</g>
</g>
<!-- Node9&#45;&gt;Node10 -->
<g id="edge9_Node000009_Node000010" class="edge">
<title>Node9&#45;&gt;Node10</title>
<g id="a_edge9_Node000009_Node000010"><a xlink:title=" ">
<path fill="none" stroke="#63b8ff" d="M508.72,-98C500.55,-98 492.23,-98 484.07,-98"/>
<polygon fill="#63b8ff" stroke="#63b8ff" points="508.61,-101.5 518.61,-98 508.61,-94.5 508.61,-101.5"/>
</a>
</g>
</g>
<!-- Node11 -->
<g id="Node000011" class="node">
<title>Node11</title>
<g id="a_Node000011"><a xlink:href="class_data_base_g_u_i.html#a4b70294327e9c316224af10d7a369749" target="_top" xlink:title="Removes an employee from the database.">
<polygon fill="white" stroke="#666666" points="473.25,-158 347.75,-158 347.75,-126 473.25,-126 473.25,-158"/>
<text text-anchor="start" x="355.75" y="-144.5" font-family="Helvetica,sans-Serif" font-size="10.00">DataBaseGUI::employee</text>
<text text-anchor="middle" x="410.5" y="-132.5" font-family="Helvetica,sans-Serif" font-size="10.00">_remove</text>
</a>
</g>
</g>
<!-- Node9&#45;&gt;Node11 -->
<g id="edge12_Node000009_Node000011" class="edge">
<title>Node9&#45;&gt;Node11</title>
<g id="a_edge12_Node000009_Node000011"><a xlink:title=" ">
<path fill="none" stroke="#63b8ff" d="M509.34,-116.68C497.47,-119.75 485.25,-122.91 473.64,-125.92"/>
<polygon fill="#63b8ff" stroke="#63b8ff" points="509.86,-120.16 518.66,-114.26 508.1,-113.38 509.86,-120.16"/>
</a>
</g>
</g>
<!-- Node12 -->
<g id="Node000012" class="node">
<title>Node12</title>
<g id="a_Node000012"><a xlink:href="class_data_base_g_u_i.html#a7db832ef3939cc57a78a16f4c09994a6" target="_top" xlink:title="Changes the sorting method for employees.">
<polygon fill="white" stroke="#666666" points="473.25,-70 347.75,-70 347.75,-38 473.25,-38 473.25,-70"/>
<text text-anchor="start" x="355.75" y="-56.5" font-family="Helvetica,sans-Serif" font-size="10.00">DataBaseGUI::employee</text>
<text text-anchor="middle" x="410.5" y="-44.5" font-family="Helvetica,sans-Serif" font-size="10.00">_sort_change</text>
</a>
</g>
</g>
<!-- Node9&#45;&gt;Node12 -->
<g id="edge15_Node000009_Node000012" class="edge">
<title>Node9&#45;&gt;Node12</title>
<g id="a_edge15_Node000009_Node000012"><a xlink:title=" ">
<path fill="none" stroke="#63b8ff" d="M509.34,-79.32C497.47,-76.25 485.25,-73.09 473.64,-70.08"/>
<polygon fill="#63b8ff" stroke="#63b8ff" points="508.1,-82.62 518.66,-81.74 509.86,-75.84 508.1,-82.62"/>
</a>
</g>
</g>
<!-- Node13 -->
<g id="Node000013" class="node">
<title>Node13</title>
<g id="a_Node000013"><a xlink:href="class_data_base_g_u_i.html#a438b5070d6a58ffa5e884d18740852c6" target="_top" xlink:title="Handles tab change events.">
<polygon fill="white" stroke="#666666" points="477.38,-20 343.62,-20 343.62,0 477.38,0 477.38,-20"/>
<text text-anchor="middle" x="410.5" y="-6.5" font-family="Helvetica,sans-Serif" font-size="10.00">DataBaseGUI::tab_change</text>
</a>
</g>
</g>
<!-- Node9&#45;&gt;Node13 -->
<g id="edge17_Node000009_Node000013" class="edge">
<title>Node9&#45;&gt;Node13</title>
<g id="a_edge17_Node000009_Node000013"><a xlink:title=" ">
<path fill="none" stroke="#63b8ff" d="M554.09,-74.6C535.35,-59.66 509.36,-40.93 483.75,-29 476.58,-25.66 468.72,-22.83 460.91,-20.46"/>
<polygon fill="#63b8ff" stroke="#63b8ff" points="551.79,-77.24 561.75,-80.84 556.21,-71.81 551.79,-77.24"/>
</a>
</g>
</g>
<!-- Node10&#45;&gt;Node6 -->
<g id="edge10_Node000010_Node000006" class="edge">
<title>Node10&#45;&gt;Node6</title>
<g id="a_edge10_Node000010_Node000006"><a xlink:title=" ">
<path fill="none" stroke="#63b8ff" d="M325.81,-92.5C315.41,-91.82 305.01,-91.13 295.25,-90.49"/>
<polygon fill="#63b8ff" stroke="#63b8ff" points="325.34,-95.98 335.55,-93.14 325.8,-88.99 325.34,-95.98"/>
</a>
</g>
</g>
<!-- Node11&#45;&gt;Node2 -->
<g id="edge13_Node000011_Node000002" class="edge">
<title>Node11&#45;&gt;Node2</title>
<g id="a_edge13_Node000011_Node000002"><a xlink:title=" ">
<path fill="none" stroke="#63b8ff" d="M336.18,-146.82C324.58,-147.58 312.72,-148.36 301.49,-149.1"/>
<polygon fill="#63b8ff" stroke="#63b8ff" points="336.39,-150.31 346.14,-146.16 335.93,-143.33 336.39,-150.31"/>
</a>
</g>
</g>
<!-- Node11&#45;&gt;Node3 -->
<g id="edge14_Node000011_Node000003" class="edge">
<title>Node11&#45;&gt;Node3</title>
<g id="a_edge14_Node000011_Node000003"><a xlink:title=" ">
<path fill="none" stroke="#63b8ff" d="M485.17,-142C544.18,-142 625.89,-142 680.82,-142"/>
<polygon fill="#63b8ff" stroke="#63b8ff" points="485.2,-138.5 475.2,-142 485.2,-145.5 485.2,-138.5"/>
</a>
</g>
</g>
<!-- Node12&#45;&gt;Node6 -->
<g id="edge16_Node000012_Node000006" class="edge">
<title>Node12&#45;&gt;Node6</title>
<g id="a_edge16_Node000012_Node000006"><a xlink:title=" ">
<path fill="none" stroke="#63b8ff" d="M336.6,-68.37C322.68,-71.12 308.35,-73.94 295.19,-76.54"/>
<polygon fill="#63b8ff" stroke="#63b8ff" points="337.03,-71.86 346.17,-66.49 335.68,-64.99 337.03,-71.86"/>
</a>
</g>
</g>
<!-- Node13&#45;&gt;Node6 -->
<g id="edge18_Node000013_Node000006" class="edge">
<title>Node13&#45;&gt;Node6</title>
<g id="a_edge18_Node000013_Node000006"><a xlink:title=" ">
<path fill="none" stroke="#63b8ff" d="M350.87,-23.85C346.2,-25.43 341.61,-27.14 337.25,-29 306.64,-42.03 274.22,-63.73 256.24,-76.57"/>
<polygon fill="#63b8ff" stroke="#63b8ff" points="351.87,-27.21 360.37,-20.89 349.78,-20.53 351.87,-27.21"/>
</a>
</g>
</g>
</g>
</svg>
