<?xml version="1.0" encoding="UTF-8" standalone="no"?>
<!DOCTYPE svg PUBLIC "-//W3C//DTD SVG 1.1//EN"
 "http://www.w3.org/Graphics/SVG/1.1/DTD/svg11.dtd">
<!-- Generated by graphviz version 12.2.1 (20241206.2353)
 -->
<!-- Title: DateTime::operator= Pages: 1 -->
<svg width="359pt" height="66pt"
 viewBox="0.00 0.00 359.00 66.00" xmlns="http://www.w3.org/2000/svg" xmlns:xlink="http://www.w3.org/1999/xlink">

<svg id="main" version="1.1" xmlns="http://www.w3.org/2000/svg" xmlns:xlink="http://www.w3.org/1999/xlink" xml:space="preserve">

<style type="text/css"><![CDATA[
.node, .edge {opacity: 0.7;}
.node.selected, .edge.selected {opacity: 1;}
.edge:hover path { stroke: red; }
.edge:hover polygon { stroke: red; fill: red; }
]]></style>
<script type="application/ecmascript" xlink:href="svg.min.js"/>
<svg id="graph" class="graph">
<g id="graph0" class="graph" transform="scale(1 1) rotate(0) translate(4 62)">
<title>DateTime::operator=</title>
<!-- Node1 -->
<g id="Node000001" class="node">
<title>Node1</title>
<g id="a_Node000001"><a xlink:title=" ">
<polygon fill="#999999" stroke="#666666" points="106,-39 0,-39 0,-19 106,-19 106,-39"/>
<text text-anchor="middle" x="53" y="-25.5" font-family="Helvetica,sans-Serif" font-size="10.00">DateTime::operator=</text>
</a>
</g>
</g>
<!-- Node2 -->
<g id="Node000002" class="node">
<title>Node2</title>
<g id="a_Node000002"><a xlink:href="class_date.html#a19cb325d7fc9e143f9095e7eadc8a1a4" target="_top" xlink:title="Default constructor.">
<polygon fill="white" stroke="#666666" points="350.25,-58 286.25,-58 286.25,-38 350.25,-38 350.25,-58"/>
<text text-anchor="middle" x="318.25" y="-44.5" font-family="Helvetica,sans-Serif" font-size="10.00">Date::Date</text>
</a>
</g>
</g>
<!-- Node1&#45;&gt;Node2 -->
<g id="edge1_Node000001_Node000002" class="edge">
<title>Node1&#45;&gt;Node2</title>
<g id="a_edge1_Node000001_Node000002"><a xlink:title=" ">
<path fill="none" stroke="#63b8ff" d="M106.32,-32.78C155.71,-36.34 228.83,-41.62 274.72,-44.93"/>
<polygon fill="#63b8ff" stroke="#63b8ff" points="274.32,-48.41 284.54,-45.64 274.82,-41.43 274.32,-48.41"/>
</a>
</g>
</g>
<!-- Node3 -->
<g id="Node000003" class="node">
<title>Node3</title>
<g id="a_Node000003"><a xlink:href="class_date_time.html#afa7d2eb61840fe713cb4f98795c23a53" target="_top" xlink:title="Default constructor.">
<polygon fill="white" stroke="#666666" points="249.5,-20 142,-20 142,0 249.5,0 249.5,-20"/>
<text text-anchor="middle" x="195.75" y="-6.5" font-family="Helvetica,sans-Serif" font-size="10.00">DateTime::DateTime</text>
</a>
</g>
</g>
<!-- Node1&#45;&gt;Node3 -->
<g id="edge2_Node000001_Node000003" class="edge">
<title>Node1&#45;&gt;Node3</title>
<g id="a_edge2_Node000001_Node000003"><a xlink:title=" ">
<path fill="none" stroke="#63b8ff" d="M106.41,-21.93C114.27,-20.86 122.46,-19.76 130.53,-18.67"/>
<polygon fill="#63b8ff" stroke="#63b8ff" points="130.88,-22.15 140.33,-17.35 129.95,-15.22 130.88,-22.15"/>
</a>
</g>
</g>
<!-- Node3&#45;&gt;Node2 -->
<g id="edge3_Node000003_Node000002" class="edge">
<title>Node3&#45;&gt;Node2</title>
<g id="a_edge3_Node000003_Node000002"><a xlink:title=" ">
<path fill="none" stroke="#63b8ff" d="M230,-20.48C243.87,-24.86 260.16,-30 274.88,-34.64"/>
<polygon fill="#63b8ff" stroke="#63b8ff" points="273.74,-37.95 284.33,-37.62 275.84,-31.27 273.74,-37.95"/>
</a>
</g>
</g>
<!-- Node4 -->
<g id="Node000004" class="node">
<title>Node4</title>
<g id="a_Node000004"><a xlink:href="class_time.html#a0eedb4e626b8e3fdcaf63519b86ea778" target="_top" xlink:title="Default constructor.">
<polygon fill="white" stroke="#666666" points="351,-20 285.5,-20 285.5,0 351,0 351,-20"/>
<text text-anchor="middle" x="318.25" y="-6.5" font-family="Helvetica,sans-Serif" font-size="10.00">Time::Time</text>
</a>
</g>
</g>
<!-- Node3&#45;&gt;Node4 -->
<g id="edge4_Node000003_Node000004" class="edge">
<title>Node3&#45;&gt;Node4</title>
<g id="a_edge4_Node000003_Node000004"><a xlink:title=" ">
<path fill="none" stroke="#63b8ff" d="M249.95,-10C257.91,-10 266.03,-10 273.75,-10"/>
<polygon fill="#63b8ff" stroke="#63b8ff" points="273.58,-13.5 283.58,-10 273.58,-6.5 273.58,-13.5"/>
</a>
</g>
</g>
</g>
</svg>
</svg>

<style type='text/css'>
<![CDATA[
[data-mouse-over-selected='false'] { opacity: 0.7; }
[data-mouse-over-selected='true']  { opacity: 1.0; }
]]>
</style>
<script type="application/ecmascript"><![CDATA[
document.addEventListener('DOMContentLoaded', (event) => {
  highlightEdges();
  highlightAdjacentNodes();
});
]]></script>
</svg>
