<?xml version="1.0" encoding="UTF-8" standalone="no"?>
<!DOCTYPE svg PUBLIC "-//W3C//DTD SVG 1.1//EN"
 "http://www.w3.org/Graphics/SVG/1.1/DTD/svg11.dtd">
<!-- Generated by graphviz version 12.2.1 (20241206.2353)
 -->
<!-- Title: DateTimeError::DateTimeError Pages: 1 -->
<svg width="343pt" height="154pt"
 viewBox="0.00 0.00 343.00 154.00" xmlns="http://www.w3.org/2000/svg" xmlns:xlink="http://www.w3.org/1999/xlink">
<g id="graph0" class="graph" transform="scale(1 1) rotate(0) translate(4 150)">
<title>DateTimeError::DateTimeError</title>
<!-- Node1 -->
<g id="Node000001" class="node">
<title>Node1</title>
<g id="a_Node000001"><a xlink:title="Constructs a DateTimeError with the given error message.">
<polygon fill="#999999" stroke="#666666" points="335,-89 185.5,-89 185.5,-69 335,-69 335,-89"/>
<text text-anchor="middle" x="260.25" y="-75.5" font-family="Helvetica,sans-Serif" font-size="10.00">DateTimeError::DateTimeError</text>
</a>
</g>
</g>
<!-- Node2 -->
<g id="Node000002" class="node">
<title>Node2</title>
<g id="a_Node000002"><a xlink:href="class_date_time_error.html#a43c8b4eb558362264e2967eef31de52d" target="_top" xlink:title="Default copy constructor.">
<polygon fill="white" stroke="#666666" points="149.5,-146 0,-146 0,-126 149.5,-126 149.5,-146"/>
<text text-anchor="middle" x="74.75" y="-132.5" font-family="Helvetica,sans-Serif" font-size="10.00">DateTimeError::DateTimeError</text>
</a>
</g>
</g>
<!-- Node1&#45;&gt;Node2 -->
<g id="edge1_Node000001_Node000002" class="edge">
<title>Node1&#45;&gt;Node2</title>
<g id="a_edge1_Node000001_Node000002"><a xlink:title=" ">
<path fill="none" stroke="#63b8ff" d="M220.34,-93.33C199.47,-100.8 173.23,-109.85 149.5,-117 139.63,-119.98 128.92,-122.9 118.81,-125.53"/>
<polygon fill="#63b8ff" stroke="#63b8ff" points="221.39,-96.68 229.61,-89.99 219.01,-90.09 221.39,-96.68"/>
</a>
</g>
</g>
<!-- Node3 -->
<g id="Node000003" class="node">
<title>Node3</title>
<g id="a_Node000003"><a xlink:href="class_date_time_error.html#aa3bf66fa072c7b506351c658b389b879" target="_top" xlink:title="Default move constructor.">
<polygon fill="white" stroke="#666666" points="149.5,-108 0,-108 0,-88 149.5,-88 149.5,-108"/>
<text text-anchor="middle" x="74.75" y="-94.5" font-family="Helvetica,sans-Serif" font-size="10.00">DateTimeError::DateTimeError</text>
</a>
</g>
</g>
<!-- Node1&#45;&gt;Node3 -->
<g id="edge2_Node000001_Node000003" class="edge">
<title>Node1&#45;&gt;Node3</title>
<g id="a_edge2_Node000001_Node000003"><a xlink:title=" ">
<path fill="none" stroke="#63b8ff" d="M173.86,-87.84C165.84,-88.67 157.75,-89.51 149.84,-90.33"/>
<polygon fill="#63b8ff" stroke="#63b8ff" points="174.05,-91.34 183.64,-86.83 173.33,-84.38 174.05,-91.34"/>
</a>
</g>
</g>
<!-- Node4 -->
<g id="Node000004" class="node">
<title>Node4</title>
<g id="a_Node000004"><a xlink:href="class_date_time_error.html#a0ffebfb6e4c37e706fbf76dbfdff9ea3" target="_top" xlink:title="Outputs the error message to a stream.">
<polygon fill="white" stroke="#666666" points="141.25,-70 8.25,-70 8.25,-50 141.25,-50 141.25,-70"/>
<text text-anchor="middle" x="74.75" y="-56.5" font-family="Helvetica,sans-Serif" font-size="10.00">DateTimeError::operator&lt;&lt;</text>
</a>
</g>
</g>
<!-- Node1&#45;&gt;Node4 -->
<g id="edge3_Node000001_Node000004" class="edge">
<title>Node1&#45;&gt;Node4</title>
<g id="a_edge3_Node000001_Node000004"><a xlink:title=" ">
<path fill="none" stroke="#63b8ff" d="M173.89,-70.16C163.03,-69.04 152.05,-67.9 141.56,-66.81"/>
<polygon fill="#63b8ff" stroke="#63b8ff" points="173.33,-73.62 183.64,-71.17 174.05,-66.66 173.33,-73.62"/>
</a>
</g>
</g>
<!-- Node5 -->
<g id="Node000005" class="node">
<title>Node5</title>
<g id="a_Node000005"><a xlink:href="class_date_time_error.html#ab6ef67af5d13cd101e5c28d46a322237" target="_top" xlink:title="Default destructor.">
<polygon fill="white" stroke="#666666" points="142,-32 7.5,-32 7.5,0 142,0 142,-32"/>
<text text-anchor="start" x="15.5" y="-18.5" font-family="Helvetica,sans-Serif" font-size="10.00">DateTimeError::~DateTime</text>
<text text-anchor="middle" x="74.75" y="-6.5" font-family="Helvetica,sans-Serif" font-size="10.00">Error</text>
</a>
</g>
</g>
<!-- Node1&#45;&gt;Node5 -->
<g id="edge4_Node000001_Node000005" class="edge">
<title>Node1&#45;&gt;Node5</title>
<g id="a_edge4_Node000001_Node000005"><a xlink:title=" ">
<path fill="none" stroke="#63b8ff" d="M218.81,-64.93C198.09,-57.74 172.46,-48.87 149.5,-41 141.44,-38.24 132.88,-35.32 124.56,-32.5"/>
<polygon fill="#63b8ff" stroke="#63b8ff" points="217.43,-68.15 228.03,-68.13 219.73,-61.54 217.43,-68.15"/>
</a>
</g>
</g>
</g>
</svg>
