<?xml version="1.0" encoding="UTF-8" standalone="no"?>
<!DOCTYPE svg PUBLIC "-//W3C//DTD SVG 1.1//EN"
 "http://www.w3.org/Graphics/SVG/1.1/DTD/svg11.dtd">
<!-- Generated by graphviz version 12.2.1 (20241206.2353)
 -->
<!-- Title: Database::search_lavenstein_name_surname Pages: 1 -->
<svg width="501pt" height="110pt"
 viewBox="0.00 0.00 500.75 110.00" xmlns="http://www.w3.org/2000/svg" xmlns:xlink="http://www.w3.org/1999/xlink">
<g id="graph0" class="graph" transform="scale(1 1) rotate(0) translate(4 106)">
<title>Database::search_lavenstein_name_surname</title>
<!-- Node1 -->
<g id="Node000001" class="node">
<title>Node1</title>
<g id="a_Node000001"><a xlink:title="Searches for closest match of name + surname to reference string in a vector of pointers.">
<polygon fill="#999999" stroke="#666666" points="492.75,-64 350,-64 350,-32 492.75,-32 492.75,-64"/>
<text text-anchor="start" x="358" y="-50.5" font-family="Helvetica,sans-Serif" font-size="10.00">Database::search_lavenstein</text>
<text text-anchor="middle" x="421.38" y="-38.5" font-family="Helvetica,sans-Serif" font-size="10.00">_name_surname</text>
</a>
</g>
</g>
<!-- Node2 -->
<g id="Node000002" class="node">
<title>Node2</title>
<g id="a_Node000002"><a xlink:href="class_database.html#aa028e0425b0ca6c86d2695d61a5140a9" target="_top" xlink:title="Searches for children by a reference string based on lavenstein distance from their name + surname.">
<polygon fill="white" stroke="#666666" points="307.25,-96 175,-96 175,-76 307.25,-76 307.25,-96"/>
<text text-anchor="middle" x="241.12" y="-82.5" font-family="Helvetica,sans-Serif" font-size="10.00">Database::search_children</text>
</a>
</g>
</g>
<!-- Node1&#45;&gt;Node2 -->
<g id="edge1_Node000001_Node000002" class="edge">
<title>Node1&#45;&gt;Node2</title>
<g id="a_edge1_Node000001_Node000002"><a xlink:title=" ">
<path fill="none" stroke="#63b8ff" d="M338.58,-65.44C322.44,-68.88 305.98,-72.39 291.33,-75.51"/>
<polygon fill="#63b8ff" stroke="#63b8ff" points="339.14,-68.9 348.19,-63.39 337.68,-62.05 339.14,-68.9"/>
</a>
</g>
</g>
<!-- Node4 -->
<g id="Node000004" class="node">
<title>Node4</title>
<g id="a_Node000004"><a xlink:href="class_database.html#a2a41f3674047305eacb6d227caa6172f" target="_top" xlink:title="Searches for employees by a reference string based on lavenstein distance from their name + surname.">
<polygon fill="white" stroke="#666666" points="314,-58 168.25,-58 168.25,-38 314,-38 314,-58"/>
<text text-anchor="middle" x="241.12" y="-44.5" font-family="Helvetica,sans-Serif" font-size="10.00">Database::search_employees</text>
</a>
</g>
</g>
<!-- Node1&#45;&gt;Node4 -->
<g id="edge3_Node000001_Node000004" class="edge">
<title>Node1&#45;&gt;Node4</title>
<g id="a_edge3_Node000001_Node000004"><a xlink:title=" ">
<path fill="none" stroke="#63b8ff" d="M338.17,-48C330.27,-48 322.3,-48 314.5,-48"/>
<polygon fill="#63b8ff" stroke="#63b8ff" points="338.16,-51.5 348.16,-48 338.16,-44.5 338.16,-51.5"/>
</a>
</g>
</g>
<!-- Node5 -->
<g id="Node000005" class="node">
<title>Node5</title>
<g id="a_Node000005"><a xlink:href="class_database.html#ac6c18f4f2fffe82e1c602b8a967cea1f" target="_top" xlink:title="Searches for parents by a reference string based on lavenstein distance from their name + surname.">
<polygon fill="white" stroke="#666666" points="306.5,-20 175.75,-20 175.75,0 306.5,0 306.5,-20"/>
<text text-anchor="middle" x="241.12" y="-6.5" font-family="Helvetica,sans-Serif" font-size="10.00">Database::search_parents</text>
</a>
</g>
</g>
<!-- Node1&#45;&gt;Node5 -->
<g id="edge4_Node000001_Node000005" class="edge">
<title>Node1&#45;&gt;Node5</title>
<g id="a_edge4_Node000001_Node000005"><a xlink:title=" ">
<path fill="none" stroke="#63b8ff" d="M338.58,-30.56C322.44,-27.12 305.98,-23.61 291.33,-20.49"/>
<polygon fill="#63b8ff" stroke="#63b8ff" points="337.68,-33.95 348.19,-32.61 339.14,-27.1 337.68,-33.95"/>
</a>
</g>
</g>
<!-- Node3 -->
<g id="Node000003" class="node">
<title>Node3</title>
<g id="a_Node000003"><a xlink:href="class_database.html#a2474f58dd1a17687fe4bc21afb26b830" target="_top" xlink:title="Imports data from a CSV file.">
<polygon fill="white" stroke="#666666" points="132.25,-102 0,-102 0,-70 132.25,-70 132.25,-102"/>
<text text-anchor="start" x="8" y="-88.5" font-family="Helvetica,sans-Serif" font-size="10.00">Database::search_lessons</text>
<text text-anchor="middle" x="66.12" y="-76.5" font-family="Helvetica,sans-Serif" font-size="10.00">_by_child_name_surname</text>
</a>
</g>
</g>
<!-- Node2&#45;&gt;Node3 -->
<g id="edge2_Node000002_Node000003" class="edge">
<title>Node2&#45;&gt;Node3</title>
<g id="a_edge2_Node000002_Node000003"><a xlink:title=" ">
<path fill="none" stroke="#63b8ff" d="M163.28,-86C153.05,-86 142.63,-86 132.62,-86"/>
<polygon fill="#63b8ff" stroke="#63b8ff" points="163.21,-89.5 173.21,-86 163.21,-82.5 163.21,-89.5"/>
</a>
</g>
</g>
</g>
</svg>
