<?xml version="1.0" encoding="UTF-8" standalone="no"?>
<!DOCTYPE svg PUBLIC "-//W3C//DTD SVG 1.1//EN"
 "http://www.w3.org/Graphics/SVG/1.1/DTD/svg11.dtd">
<!-- Generated by graphviz version 12.2.1 (20241206.2353)
 -->
<!-- Title: DataBaseGUI::child_remove Pages: 1 -->
<!--zoomable 584 -->

<svg id="main" version="1.1" xmlns="http://www.w3.org/2000/svg" xmlns:xlink="http://www.w3.org/1999/xlink" xml:space="preserve" onload="init(evt)">

<style type="text/css"><![CDATA[
.node, .edge {opacity: 0.7;}
.node.selected, .edge.selected {opacity: 1;}
.edge:hover path { stroke: red; }
.edge:hover polygon { stroke: red; fill: red; }
]]></style>

<defs>
  <circle id="rim" cx="0" cy="0" r="7"/>
  <circle id="rim2" cx="0" cy="0" r="3.5"/>
  <g id="zoomPlus">
    <use xlink:href="#rim" fill="#404040"><set attributeName="fill" to="#808080" begin="zoomplus.mouseover" end="zoomplus.mouseout"/></use>
    <path d="M-4,0h8M0,-4v8" fill="none" stroke="white" stroke-width="1.5" pointer-events="none"/>
  </g>
  <g id="zoomMin">
    <use xlink:href="#rim" fill="#404040"><set attributeName="fill" to="#808080" begin="zoomminus.mouseover" end="zoomminus.mouseout"/></use>
    <path d="M-4,0h8" fill="none" stroke="white" stroke-width="1.5" pointer-events="none"/>
  </g>
  <g id="arrowUp" transform="translate(30 24)">
    <use xlink:href="#rim"/>
    <path pointer-events="none" fill="none" stroke="white" stroke-width="1.5" d="M0,-3.0v7 M-2.5,-0.5L0,-3.0L2.5,-0.5"/>
  </g>
  <g id="arrowRight" transform="rotate(90) translate(36 -43)">
    <use xlink:href="#rim"/>
    <path pointer-events="none" fill="none" stroke="white" stroke-width="1.5" d="M0,-3.0v7 M-2.5,-0.5L0,-3.0L2.5,-0.5"/>
  </g>
  <g id="arrowDown" transform="rotate(180) translate(-30 -48)">
    <use xlink:href="#rim"/>
    <path pointer-events="none" fill="none" stroke="white" stroke-width="1.5" d="M0,-3.0v7 M-2.5,-0.5L0,-3.0L2.5,-0.5"/>
  </g>
  <g id="arrowLeft" transform="rotate(270) translate(-36 17)">
    <use xlink:href="#rim"/>
    <path pointer-events="none" fill="none" stroke="white" stroke-width="1.5" d="M0,-3.0v7 M-2.5,-0.5L0,-3.0L2.5,-0.5"/>
  </g>
  <g id="resetDef">
    <use xlink:href="#rim2" fill="#404040"><set attributeName="fill" to="#808080" begin="reset.mouseover" end="reset.mouseout"/></use>
  </g>
</defs>
<script type="application/ecmascript">
var viewWidth = 1363;
var viewHeight = 584;
var sectionId = 'dynsection-10';
</script>
<script type="application/ecmascript" xlink:href="svg.min.js"/>
<svg id="graph" class="graph">
<g id="viewport">
<title>DataBaseGUI::child_remove</title>
<!-- Node1 -->
<g id="Node000001" class="node">
<title>Node1</title>
<g id="a_Node000001"><a xlink:title="Removes a child from the database.">
<polygon fill="#999999" stroke="#666666" points="1354.5,-466.44 1250.75,-466.44 1250.75,-434.44 1354.5,-434.44 1354.5,-466.44"/>
<text text-anchor="start" x="1258.75" y="-452.94" font-family="Helvetica,sans-Serif" font-size="10.00">DataBaseGUI::child</text>
<text text-anchor="middle" x="1302.62" y="-440.94" font-family="Helvetica,sans-Serif" font-size="10.00">_remove</text>
</a>
</g>
</g>
<!-- Node2 -->
<g id="Node000002" class="node">
<title>Node2</title>
<g id="a_Node000002"><a xlink:href="class_data_base_g_u_i.html#a334c0011a9d3a71539b326a888feccd3" target="_top" xlink:title="Populates the children tab with a multimap of children.">
<polygon fill="white" stroke="#666666" points="301.25,-548.44 181,-548.44 181,-516.44 301.25,-516.44 301.25,-548.44"/>
<text text-anchor="start" x="189" y="-534.94" font-family="Helvetica,sans-Serif" font-size="10.00">DataBaseGUI::populate</text>
<text text-anchor="middle" x="241.12" y="-522.94" font-family="Helvetica,sans-Serif" font-size="10.00">_children_tab</text>
</a>
</g>
</g>
<!-- Node1&#45;&gt;Node2 -->
<g id="edge1_Node000001_Node000002" class="edge">
<title>Node1&#45;&gt;Node2</title>
<g id="a_edge1_Node000001_Node000002"><a xlink:title=" ">
<path fill="none" stroke="#63b8ff" d="M1270.88,-473.54C1219.33,-509.91 1110.92,-576.44 1007.62,-576.44 1007.62,-576.44 1007.62,-576.44 563.88,-576.44 462.8,-576.44 436.86,-574.57 337.25,-557.44 324.46,-555.24 310.88,-552.14 298.11,-548.87"/>
<polygon fill="#63b8ff" stroke="#63b8ff" points="1272.81,-476.46 1278.89,-467.79 1268.73,-470.78 1272.81,-476.46"/>
</a>
</g>
</g>
<!-- Node3 -->
<g id="Node000003" class="node">
<title>Node3</title>
<g id="a_Node000003"><a xlink:href="class_data_base_g_u_i.html#af346d08370d9e4574980707f61b9c8f7" target="_top" xlink:title="Populates the children tab with a list of children.">
<polygon fill="white" stroke="#666666" points="1214.75,-466.44 1094.5,-466.44 1094.5,-434.44 1214.75,-434.44 1214.75,-466.44"/>
<text text-anchor="start" x="1102.5" y="-452.94" font-family="Helvetica,sans-Serif" font-size="10.00">DataBaseGUI::populate</text>
<text text-anchor="middle" x="1154.62" y="-440.94" font-family="Helvetica,sans-Serif" font-size="10.00">_children_tab</text>
</a>
</g>
</g>
<!-- Node1&#45;&gt;Node3 -->
<g id="edge2_Node000001_Node000003" class="edge">
<title>Node1&#45;&gt;Node3</title>
<g id="a_edge2_Node000001_Node000003"><a xlink:title=" ">
<path fill="none" stroke="#63b8ff" d="M1239.1,-450.44C1231.16,-450.44 1223.06,-450.44 1215.17,-450.44"/>
<polygon fill="#63b8ff" stroke="#63b8ff" points="1239.05,-453.94 1249.05,-450.44 1239.05,-446.94 1239.05,-453.94"/>
</a>
</g>
</g>
<!-- Node4 -->
<g id="Node000004" class="node">
<title>Node4</title>
<g id="a_Node000004"><a xlink:href="class_data_base_g_u_i.html#a2d921da686e76ae195da018bb735a1ae" target="_top" xlink:title="Searches for children based on the provided name and surname.">
<polygon fill="white" stroke="#666666" points="1058.5,-422.44 954.75,-422.44 954.75,-390.44 1058.5,-390.44 1058.5,-422.44"/>
<text text-anchor="start" x="962.75" y="-408.94" font-family="Helvetica,sans-Serif" font-size="10.00">DataBaseGUI::child</text>
<text text-anchor="middle" x="1006.62" y="-396.94" font-family="Helvetica,sans-Serif" font-size="10.00">_search</text>
</a>
</g>
</g>
<!-- Node3&#45;&gt;Node4 -->
<g id="edge3_Node000003_Node000004" class="edge">
<title>Node3&#45;&gt;Node4</title>
<g id="a_edge3_Node000003_Node000004"><a xlink:title=" ">
<path fill="none" stroke="#63b8ff" d="M1088.51,-430.81C1078.5,-427.8 1068.3,-424.72 1058.65,-421.81"/>
<polygon fill="#63b8ff" stroke="#63b8ff" points="1087.23,-434.08 1097.81,-433.62 1089.25,-427.38 1087.23,-434.08"/>
</a>
</g>
</g>
<!-- Node10 -->
<g id="Node000010" class="node">
<title>Node10</title>
<g id="a_Node000010"><a xlink:href="class_data_base_g_u_i.html#a6c35e47ed05a80db144f240dee805a9d" target="_top" xlink:title="Sets up the GUI.">
<polygon fill="white" stroke="#666666" points="294.88,-296.44 187.38,-296.44 187.38,-276.44 294.88,-276.44 294.88,-296.44"/>
<text text-anchor="middle" x="241.12" y="-282.94" font-family="Helvetica,sans-Serif" font-size="10.00">DataBaseGUI::setup</text>
</a>
</g>
</g>
<!-- Node3&#45;&gt;Node10 -->
<g id="edge28_Node000003_Node000010" class="edge">
<title>Node3&#45;&gt;Node10</title>
<g id="a_edge28_Node000003_Node000010"><a xlink:title=" ">
<path fill="none" stroke="#63b8ff" d="M1083.04,-450.44C1025.21,-450.44 941.24,-450.44 867.88,-450.44 867.88,-450.44 867.88,-450.44 563.88,-450.44 461.6,-450.44 424.68,-463.51 337.25,-410.44 290.4,-382 258.26,-321.23 246.78,-296.86"/>
<polygon fill="#63b8ff" stroke="#63b8ff" points="1082.73,-453.94 1092.73,-450.44 1082.73,-446.94 1082.73,-453.94"/>
</a>
</g>
</g>
<!-- Node19 -->
<g id="Node000019" class="node">
<title>Node19</title>
<g id="a_Node000019"><a xlink:href="class_data_base_g_u_i.html#aa684465aa73b5b34bbadd24fc7f2f641" target="_top" xlink:title="Selects the appropriate sorting to use based on child sort index.">
<polygon fill="white" stroke="#666666" points="622.75,-334.44 507,-334.44 507,-302.44 622.75,-302.44 622.75,-334.44"/>
<text text-anchor="start" x="515" y="-320.94" font-family="Helvetica,sans-Serif" font-size="10.00">DataBaseGUI::sort_to</text>
<text text-anchor="middle" x="564.88" y="-308.94" font-family="Helvetica,sans-Serif" font-size="10.00">_populate_children_tab</text>
</a>
</g>
</g>
<!-- Node3&#45;&gt;Node19 -->
<g id="edge29_Node000003_Node000019" class="edge">
<title>Node3&#45;&gt;Node19</title>
<g id="a_edge29_Node000003_Node000019"><a xlink:title=" ">
<path fill="none" stroke="#63b8ff" d="M1128.82,-426.91C1110.77,-411.27 1084.96,-391.77 1058.5,-381.44 891.86,-316.36 835.79,-360.08 658.75,-334.44 647.09,-332.75 634.64,-330.74 622.77,-328.73"/>
<polygon fill="#63b8ff" stroke="#63b8ff" points="1126.1,-429.17 1135.89,-433.21 1130.75,-423.95 1126.1,-429.17"/>
</a>
</g>
</g>
<!-- Node5 -->
<g id="Node000005" class="node">
<title>Node5</title>
<g id="a_Node000005"><a xlink:href="class_data_base_g_u_i.html#aadb0e7d323a970603312695c0dd9b264" target="_top" xlink:title="Searches for children based on the provided child pointer.">
<polygon fill="white" stroke="#666666" points="918.75,-104.44 815,-104.44 815,-72.44 918.75,-72.44 918.75,-104.44"/>
<text text-anchor="start" x="823" y="-90.94" font-family="Helvetica,sans-Serif" font-size="10.00">DataBaseGUI::child</text>
<text text-anchor="middle" x="866.88" y="-78.94" font-family="Helvetica,sans-Serif" font-size="10.00">_search_by_pointer</text>
</a>
</g>
</g>
<!-- Node4&#45;&gt;Node5 -->
<g id="edge4_Node000004_Node000005" class="edge">
<title>Node4&#45;&gt;Node5</title>
<g id="a_edge4_Node000004_Node000005"><a xlink:title=" ">
<path fill="none" stroke="#63b8ff" d="M994.1,-379.83C966.48,-316.07 897.15,-156.03 874.88,-104.61"/>
<polygon fill="#63b8ff" stroke="#63b8ff" points="990.82,-381.06 998,-388.84 997.24,-378.27 990.82,-381.06"/>
</a>
</g>
</g>
<!-- Node4&#45;&gt;Node10 -->
<g id="edge27_Node000004_Node000010" class="edge">
<title>Node4&#45;&gt;Node10</title>
<g id="a_edge27_Node000004_Node000010"><a xlink:title=" ">
<path fill="none" stroke="#63b8ff" d="M943.11,-408.5C885.23,-410.24 796.75,-412.44 719.88,-412.44 719.88,-412.44 719.88,-412.44 563.88,-412.44 462.09,-412.44 428.48,-424.56 337.25,-379.44 297.09,-359.57 263.17,-316.41 249.09,-296.66"/>
<polygon fill="#63b8ff" stroke="#63b8ff" points="942.87,-412.01 952.76,-408.21 942.66,-405.02 942.87,-412.01"/>
</a>
</g>
</g>
<!-- Node6 -->
<g id="Node000006" class="node">
<title>Node6</title>
<g id="a_Node000006"><a xlink:href="class_data_base_g_u_i.html#a33f2f95926f7b4b05227dcf395e235d3" target="_top" xlink:title="Populates the parent tab with a multimap of parents.">
<polygon fill="white" stroke="#666666" points="301.25,-38.44 181,-38.44 181,-6.44 301.25,-6.44 301.25,-38.44"/>
<text text-anchor="start" x="189" y="-24.94" font-family="Helvetica,sans-Serif" font-size="10.00">DataBaseGUI::populate</text>
<text text-anchor="middle" x="241.12" y="-12.94" font-family="Helvetica,sans-Serif" font-size="10.00">_parent_tab</text>
</a>
</g>
</g>
<!-- Node5&#45;&gt;Node6 -->
<g id="edge5_Node000005_Node000006" class="edge">
<title>Node5&#45;&gt;Node6</title>
<g id="a_edge5_Node000005_Node000006"><a xlink:title=" ">
<path fill="none" stroke="#63b8ff" d="M806.12,-68.6C708.49,-38.5 508.49,13.5 337.25,-3.44 325.69,-4.58 313.45,-6.49 301.73,-8.66"/>
<polygon fill="#63b8ff" stroke="#63b8ff" points="804.91,-71.89 815.5,-71.53 806.99,-65.21 804.91,-71.89"/>
</a>
</g>
</g>
<!-- Node7 -->
<g id="Node000007" class="node">
<title>Node7</title>
<g id="a_Node000007"><a xlink:href="class_data_base_g_u_i.html#a739b2cf48c0cb6e3cab2da0a7bbd6d6d" target="_top" xlink:title="Populates the parent tab with a list of parents.">
<polygon fill="white" stroke="#666666" points="779,-104.44 658.75,-104.44 658.75,-72.44 779,-72.44 779,-104.44"/>
<text text-anchor="start" x="666.75" y="-90.94" font-family="Helvetica,sans-Serif" font-size="10.00">DataBaseGUI::populate</text>
<text text-anchor="middle" x="718.88" y="-78.94" font-family="Helvetica,sans-Serif" font-size="10.00">_parent_tab</text>
</a>
</g>
</g>
<!-- Node5&#45;&gt;Node7 -->
<g id="edge6_Node000005_Node000007" class="edge">
<title>Node5&#45;&gt;Node7</title>
<g id="a_edge6_Node000005_Node000007"><a xlink:title=" ">
<path fill="none" stroke="#63b8ff" d="M803.35,-88.44C795.41,-88.44 787.31,-88.44 779.42,-88.44"/>
<polygon fill="#63b8ff" stroke="#63b8ff" points="803.3,-91.94 813.3,-88.44 803.3,-84.94 803.3,-91.94"/>
</a>
</g>
</g>
<!-- Node8 -->
<g id="Node000008" class="node">
<title>Node8</title>
<g id="a_Node000008"><a xlink:href="class_data_base_g_u_i.html#a7c3d843eec449d8a4ec5ce6bf0375358" target="_top" xlink:title="Searches for parents based on the provided name and surname.">
<polygon fill="white" stroke="#666666" points="620.12,-384.44 509.62,-384.44 509.62,-352.44 620.12,-352.44 620.12,-384.44"/>
<text text-anchor="start" x="517.62" y="-370.94" font-family="Helvetica,sans-Serif" font-size="10.00">DataBaseGUI::parent</text>
<text text-anchor="middle" x="564.88" y="-358.94" font-family="Helvetica,sans-Serif" font-size="10.00">_search</text>
</a>
</g>
</g>
<!-- Node7&#45;&gt;Node8 -->
<g id="edge7_Node000007_Node000008" class="edge">
<title>Node7&#45;&gt;Node8</title>
<g id="a_edge7_Node000007_Node000008"><a xlink:title=" ">
<path fill="none" stroke="#63b8ff" d="M714.66,-116.16C707.33,-167.37 684.94,-277.59 622.75,-343.44 619.71,-346.65 616.19,-349.48 612.42,-351.96"/>
<polygon fill="#63b8ff" stroke="#63b8ff" points="718.13,-116.63 715.98,-106.25 711.19,-115.7 718.13,-116.63"/>
</a>
</g>
</g>
<!-- Node13 -->
<g id="Node000013" class="node">
<title>Node13</title>
<g id="a_Node000013"><a xlink:href="class_data_base_g_u_i.html#a625b5e2018395a458ff517bbf364e1bf" target="_top" xlink:title="Selects the appropriate sorting to use based on parent sort index.">
<polygon fill="white" stroke="#666666" points="621.62,-126.44 508.12,-126.44 508.12,-94.44 621.62,-94.44 621.62,-126.44"/>
<text text-anchor="start" x="516.12" y="-112.94" font-family="Helvetica,sans-Serif" font-size="10.00">DataBaseGUI::sort_to</text>
<text text-anchor="middle" x="564.88" y="-100.94" font-family="Helvetica,sans-Serif" font-size="10.00">_populate_parent_tab</text>
</a>
</g>
</g>
<!-- Node7&#45;&gt;Node13 -->
<g id="edge14_Node000007_Node000013" class="edge">
<title>Node7&#45;&gt;Node13</title>
<g id="a_edge14_Node000007_Node000013"><a xlink:title=" ">
<path fill="none" stroke="#63b8ff" d="M647.42,-98.63C638.79,-99.88 630.06,-101.15 621.68,-102.36"/>
<polygon fill="#63b8ff" stroke="#63b8ff" points="647.78,-102.12 657.17,-97.22 646.78,-95.19 647.78,-102.12"/>
</a>
</g>
</g>
<!-- Node9 -->
<g id="Node000009" class="node">
<title>Node9</title>
<g id="a_Node000009"><a xlink:href="class_data_base_g_u_i.html#a8e1fe573ef6a09e112989968ec1a2b43" target="_top" xlink:title="Searches for parents based on the provided parent pointer.">
<polygon fill="white" stroke="#666666" points="459.38,-548.44 348.88,-548.44 348.88,-516.44 459.38,-516.44 459.38,-548.44"/>
<text text-anchor="start" x="356.88" y="-534.94" font-family="Helvetica,sans-Serif" font-size="10.00">DataBaseGUI::parent</text>
<text text-anchor="middle" x="404.12" y="-522.94" font-family="Helvetica,sans-Serif" font-size="10.00">_search_by_pointer</text>
</a>
</g>
</g>
<!-- Node8&#45;&gt;Node9 -->
<g id="edge8_Node000008_Node000009" class="edge">
<title>Node8&#45;&gt;Node9</title>
<g id="a_edge8_Node000008_Node000009"><a xlink:title=" ">
<path fill="none" stroke="#63b8ff" d="M552.34,-394.98C537.63,-425.97 509.43,-476.85 471,-507.44 466.98,-510.64 462.51,-513.46 457.84,-515.94"/>
<polygon fill="#63b8ff" stroke="#63b8ff" points="555.51,-396.46 556.51,-385.92 549.15,-393.54 555.51,-396.46"/>
</a>
</g>
</g>
<!-- Node8&#45;&gt;Node10 -->
<g id="edge11_Node000008_Node000010" class="edge">
<title>Node8&#45;&gt;Node10</title>
<g id="a_edge11_Node000008_Node000010"><a xlink:title=" ">
<path fill="none" stroke="#63b8ff" d="M498.13,-374.27C451.82,-376.1 389.1,-373.92 337.25,-355.44 301.89,-342.83 268.22,-312.7 252.07,-296.75"/>
<polygon fill="#63b8ff" stroke="#63b8ff" points="498.2,-377.77 508.02,-373.8 497.86,-370.78 498.2,-377.77"/>
</a>
</g>
</g>
<!-- Node9&#45;&gt;Node2 -->
<g id="edge9_Node000009_Node000002" class="edge">
<title>Node9&#45;&gt;Node2</title>
<g id="a_edge9_Node000009_Node000002"><a xlink:title=" ">
<path fill="none" stroke="#63b8ff" d="M337.41,-532.44C325.54,-532.44 313.22,-532.44 301.55,-532.44"/>
<polygon fill="#63b8ff" stroke="#63b8ff" points="337.1,-535.94 347.1,-532.44 337.1,-528.94 337.1,-535.94"/>
</a>
</g>
</g>
<!-- Node9&#45;&gt;Node3 -->
<g id="edge10_Node000009_Node000003" class="edge">
<title>Node9&#45;&gt;Node3</title>
<g id="a_edge10_Node000009_Node000003"><a xlink:title=" ">
<path fill="none" stroke="#63b8ff" d="M471.04,-531.44C534.34,-530.56 632.64,-529.44 717.88,-529.44 867.88,-529.44 867.88,-529.44 867.88,-529.44 961.04,-529.44 1065.31,-489.94 1118.41,-466.81"/>
<polygon fill="#63b8ff" stroke="#63b8ff" points="471.11,-527.94 461.16,-531.58 471.21,-534.93 471.11,-527.94"/>
</a>
</g>
</g>
<!-- Node11 -->
<g id="Node000011" class="node">
<title>Node11</title>
<g id="a_Node000011"><a xlink:href="class_data_base_g_u_i.html#a2c83afe3a30fb5166d275d9a74d33196" target="_top" xlink:title="Default constructor.">
<polygon fill="white" stroke="#666666" points="145,-315.44 0,-315.44 0,-295.44 145,-295.44 145,-315.44"/>
<text text-anchor="middle" x="72.5" y="-301.94" font-family="Helvetica,sans-Serif" font-size="10.00">DataBaseGUI::DataBaseGUI</text>
</a>
</g>
</g>
<!-- Node10&#45;&gt;Node11 -->
<g id="edge12_Node000010_Node000011" class="edge">
<title>Node10&#45;&gt;Node11</title>
<g id="a_edge12_Node000010_Node000011"><a xlink:title=" ">
<path fill="none" stroke="#63b8ff" d="M175.53,-293.8C165.64,-294.93 155.37,-296.1 145.32,-297.25"/>
<polygon fill="#63b8ff" stroke="#63b8ff" points="175.9,-297.28 185.44,-292.67 175.11,-290.33 175.9,-297.28"/>
</a>
</g>
</g>
<!-- Node12 -->
<g id="Node000012" class="node">
<title>Node12</title>
<g id="a_Node000012"><a xlink:href="class_data_base_g_u_i.html#aba10d1d8e9fb151632ff34de418cee82" target="_top" xlink:title="Constructs a DataBaseGUI object.">
<polygon fill="white" stroke="#666666" points="145,-277.44 0,-277.44 0,-257.44 145,-257.44 145,-277.44"/>
<text text-anchor="middle" x="72.5" y="-263.94" font-family="Helvetica,sans-Serif" font-size="10.00">DataBaseGUI::DataBaseGUI</text>
</a>
</g>
</g>
<!-- Node10&#45;&gt;Node12 -->
<g id="edge13_Node000010_Node000012" class="edge">
<title>Node10&#45;&gt;Node12</title>
<g id="a_edge13_Node000010_Node000012"><a xlink:title=" ">
<path fill="none" stroke="#63b8ff" d="M175.53,-279.07C165.64,-277.94 155.37,-276.77 145.32,-275.63"/>
<polygon fill="#63b8ff" stroke="#63b8ff" points="175.11,-282.55 185.44,-280.2 175.9,-275.59 175.11,-282.55"/>
</a>
</g>
</g>
<!-- Node14 -->
<g id="Node000014" class="node">
<title>Node14</title>
<g id="a_Node000014"><a xlink:href="class_data_base_g_u_i.html#a336fa47d9a9e56d585d82f53d33e8593" target="_top" xlink:title="Adds a new parent to the database.">
<polygon fill="white" stroke="#666666" points="469.88,-120.44 338.38,-120.44 338.38,-100.44 469.88,-100.44 469.88,-120.44"/>
<text text-anchor="middle" x="404.12" y="-106.94" font-family="Helvetica,sans-Serif" font-size="10.00">DataBaseGUI::parent_add</text>
</a>
</g>
</g>
<!-- Node13&#45;&gt;Node14 -->
<g id="edge15_Node000013_Node000014" class="edge">
<title>Node13&#45;&gt;Node14</title>
<g id="a_edge15_Node000013_Node000014"><a xlink:title=" ">
<path fill="none" stroke="#63b8ff" d="M496.62,-110.44C487.92,-110.44 479.03,-110.44 470.36,-110.44"/>
<polygon fill="#63b8ff" stroke="#63b8ff" points="496.39,-113.94 506.39,-110.44 496.39,-106.94 496.39,-113.94"/>
</a>
</g>
</g>
<!-- Node15 -->
<g id="Node000015" class="node">
<title>Node15</title>
<g id="a_Node000015"><a xlink:href="class_data_base_g_u_i.html#a5b049fb9e0e5d78c4c2e81e569b471f9" target="_top" xlink:title="Edits an existing parent in the database.">
<polygon fill="white" stroke="#666666" points="469.88,-32.44 338.38,-32.44 338.38,-12.44 469.88,-12.44 469.88,-32.44"/>
<text text-anchor="middle" x="404.12" y="-18.94" font-family="Helvetica,sans-Serif" font-size="10.00">DataBaseGUI::parent_edit</text>
</a>
</g>
</g>
<!-- Node13&#45;&gt;Node15 -->
<g id="edge17_Node000013_Node000015" class="edge">
<title>Node13&#45;&gt;Node15</title>
<g id="a_edge17_Node000013_Node000015"><a xlink:title=" ">
<path fill="none" stroke="#63b8ff" d="M537.35,-86.68C519.63,-71.88 495.22,-53.43 471,-41.44 464.28,-38.11 456.88,-35.27 449.54,-32.88"/>
<polygon fill="#63b8ff" stroke="#63b8ff" points="534.94,-89.22 544.82,-93.05 539.48,-83.9 534.94,-89.22"/>
</a>
</g>
</g>
<!-- Node16 -->
<g id="Node000016" class="node">
<title>Node16</title>
<g id="a_Node000016"><a xlink:href="class_data_base_g_u_i.html#ad8a42f24cdb603ba85c1cdd4ea2e73a4" target="_top" xlink:title="Removes a parent from the database.">
<polygon fill="white" stroke="#666666" points="459.38,-82.44 348.88,-82.44 348.88,-50.44 459.38,-50.44 459.38,-82.44"/>
<text text-anchor="start" x="356.88" y="-68.94" font-family="Helvetica,sans-Serif" font-size="10.00">DataBaseGUI::parent</text>
<text text-anchor="middle" x="404.12" y="-56.94" font-family="Helvetica,sans-Serif" font-size="10.00">_remove</text>
</a>
</g>
</g>
<!-- Node13&#45;&gt;Node16 -->
<g id="edge20_Node000013_Node000016" class="edge">
<title>Node13&#45;&gt;Node16</title>
<g id="a_edge20_Node000013_Node000016"><a xlink:title=" ">
<path fill="none" stroke="#63b8ff" d="M497.11,-91.93C484.68,-88.48 471.81,-84.92 459.79,-81.59"/>
<polygon fill="#63b8ff" stroke="#63b8ff" points="495.88,-95.22 506.45,-94.52 497.75,-88.48 495.88,-95.22"/>
</a>
</g>
</g>
<!-- Node17 -->
<g id="Node000017" class="node">
<title>Node17</title>
<g id="a_Node000017"><a xlink:href="class_data_base_g_u_i.html#a783bdf1d65998f887dd6445741450480" target="_top" xlink:title="Changes the sorting method for parents.">
<polygon fill="white" stroke="#666666" points="459.38,-170.44 348.88,-170.44 348.88,-138.44 459.38,-138.44 459.38,-170.44"/>
<text text-anchor="start" x="356.88" y="-156.94" font-family="Helvetica,sans-Serif" font-size="10.00">DataBaseGUI::parent</text>
<text text-anchor="middle" x="404.12" y="-144.94" font-family="Helvetica,sans-Serif" font-size="10.00">_sort_change</text>
</a>
</g>
</g>
<!-- Node13&#45;&gt;Node17 -->
<g id="edge23_Node000013_Node000017" class="edge">
<title>Node13&#45;&gt;Node17</title>
<g id="a_edge23_Node000013_Node000017"><a xlink:title=" ">
<path fill="none" stroke="#63b8ff" d="M497.11,-128.94C484.68,-132.39 471.81,-135.95 459.79,-139.29"/>
<polygon fill="#63b8ff" stroke="#63b8ff" points="497.75,-132.4 506.45,-126.35 495.88,-125.65 497.75,-132.4"/>
</a>
</g>
</g>
<!-- Node18 -->
<g id="Node000018" class="node">
<title>Node18</title>
<g id="a_Node000018"><a xlink:href="class_data_base_g_u_i.html#a438b5070d6a58ffa5e884d18740852c6" target="_top" xlink:title="Handles tab change events.">
<polygon fill="white" stroke="#666666" points="471,-208.44 337.25,-208.44 337.25,-188.44 471,-188.44 471,-208.44"/>
<text text-anchor="middle" x="404.12" y="-194.94" font-family="Helvetica,sans-Serif" font-size="10.00">DataBaseGUI::tab_change</text>
</a>
</g>
</g>
<!-- Node13&#45;&gt;Node18 -->
<g id="edge25_Node000013_Node000018" class="edge">
<title>Node13&#45;&gt;Node18</title>
<g id="a_edge25_Node000013_Node000018"><a xlink:title=" ">
<path fill="none" stroke="#63b8ff" d="M537.35,-134.19C519.63,-148.99 495.22,-167.44 471,-179.44 464.28,-182.76 456.88,-185.61 449.54,-188"/>
<polygon fill="#63b8ff" stroke="#63b8ff" points="539.48,-136.97 544.82,-127.82 534.94,-131.65 539.48,-136.97"/>
</a>
</g>
</g>
<!-- Node14&#45;&gt;Node10 -->
<g id="edge16_Node000014_Node000010" class="edge">
<title>Node14&#45;&gt;Node10</title>
<g id="a_edge16_Node000014_Node000010"><a xlink:title=" ">
<path fill="none" stroke="#63b8ff" d="M342.13,-126.07C340.44,-127.12 338.81,-128.24 337.25,-129.44 284.62,-169.73 254.72,-248.19 245.35,-276.2"/>
<polygon fill="#63b8ff" stroke="#63b8ff" points="343.7,-129.2 350.97,-121.5 340.48,-122.99 343.7,-129.2"/>
</a>
</g>
</g>
<!-- Node15&#45;&gt;Node6 -->
<g id="edge18_Node000015_Node000006" class="edge">
<title>Node15&#45;&gt;Node6</title>
<g id="a_edge18_Node000015_Node000006"><a xlink:title=" ">
<path fill="none" stroke="#63b8ff" d="M326.71,-22.44C318.3,-22.44 309.83,-22.44 301.67,-22.44"/>
<polygon fill="#63b8ff" stroke="#63b8ff" points="326.59,-25.94 336.59,-22.44 326.59,-18.94 326.59,-25.94"/>
</a>
</g>
</g>
<!-- Node15&#45;&gt;Node7 -->
<g id="edge19_Node000015_Node000007" class="edge">
<title>Node15&#45;&gt;Node7</title>
<g id="a_edge19_Node000015_Node000007"><a xlink:title=" ">
<path fill="none" stroke="#63b8ff" d="M465.78,-35.24C521.34,-46.96 603.1,-64.22 658.31,-75.87"/>
<polygon fill="#63b8ff" stroke="#63b8ff" points="466.67,-31.85 456.17,-33.21 465.23,-38.7 466.67,-31.85"/>
</a>
</g>
</g>
<!-- Node16&#45;&gt;Node6 -->
<g id="edge21_Node000016_Node000006" class="edge">
<title>Node16&#45;&gt;Node6</title>
<g id="a_edge21_Node000016_Node000006"><a xlink:title=" ">
<path fill="none" stroke="#63b8ff" d="M337.78,-48.58C325.79,-45.3 313.34,-41.9 301.55,-38.68"/>
<polygon fill="#63b8ff" stroke="#63b8ff" points="336.59,-51.88 347.16,-51.14 338.43,-45.13 336.59,-51.88"/>
</a>
</g>
</g>
<!-- Node16&#45;&gt;Node7 -->
<g id="edge22_Node000016_Node000007" class="edge">
<title>Node16&#45;&gt;Node7</title>
<g id="a_edge22_Node000016_Node000007"><a xlink:title=" ">
<path fill="none" stroke="#63b8ff" d="M471.2,-71.08C526.55,-74.98 604.87,-80.49 658.31,-84.25"/>
<polygon fill="#63b8ff" stroke="#63b8ff" points="471.48,-67.6 461.26,-70.39 470.99,-74.58 471.48,-67.6"/>
</a>
</g>
</g>
<!-- Node17&#45;&gt;Node10 -->
<g id="edge24_Node000017_Node000010" class="edge">
<title>Node17&#45;&gt;Node10</title>
<g id="a_edge24_Node000017_Node000010"><a xlink:title=" ">
<path fill="none" stroke="#63b8ff" d="M342.18,-176.26C340.49,-177.28 338.84,-178.34 337.25,-179.44 297.14,-207.08 262.69,-255.12 248.74,-276.11"/>
<polygon fill="#63b8ff" stroke="#63b8ff" points="343.74,-179.4 350.89,-171.58 340.42,-173.23 343.74,-179.4"/>
</a>
</g>
</g>
<!-- Node18&#45;&gt;Node10 -->
<g id="edge26_Node000018_Node000010" class="edge">
<title>Node18&#45;&gt;Node10</title>
<g id="a_edge26_Node000018_Node000010"><a xlink:title=" ">
<path fill="none" stroke="#63b8ff" d="M348.29,-212.65C344.49,-214.12 340.78,-215.71 337.25,-217.44 304.25,-233.55 270.63,-261.11 253.57,-276.06"/>
<polygon fill="#63b8ff" stroke="#63b8ff" points="349.41,-215.96 357.67,-209.33 347.07,-209.36 349.41,-215.96"/>
</a>
</g>
</g>
<!-- Node19&#45;&gt;Node1 -->
<g id="edge35_Node000019_Node000001" class="edge">
<title>Node19&#45;&gt;Node1</title>
<g id="a_edge35_Node000019_Node000001"><a xlink:title=" ">
<path fill="none" stroke="#63b8ff" d="M634.47,-319.15C695.28,-319.73 786.48,-320.44 865.88,-320.44 1007.62,-320.44 1007.62,-320.44 1007.62,-320.44 1118.68,-320.44 1234.73,-398.99 1280.91,-433.97"/>
<polygon fill="#63b8ff" stroke="#63b8ff" points="634.65,-315.66 624.62,-319.06 634.59,-322.65 634.65,-315.66"/>
</a>
</g>
</g>
<!-- Node19&#45;&gt;Node18 -->
<g id="edge40_Node000019_Node000018" class="edge">
<title>Node19&#45;&gt;Node18</title>
<g id="a_edge40_Node000019_Node000018"><a xlink:title=" ">
<path fill="none" stroke="#63b8ff" d="M546.82,-293.08C530.09,-270.11 502.55,-236.96 471,-217.44 465.43,-213.99 459.22,-211.15 452.89,-208.81"/>
<polygon fill="#63b8ff" stroke="#63b8ff" points="543.79,-294.87 552.43,-301 549.5,-290.82 543.79,-294.87"/>
</a>
</g>
</g>
<!-- Node20 -->
<g id="Node000020" class="node">
<title>Node20</title>
<g id="a_Node000020"><a xlink:href="class_data_base_g_u_i.html#a00f9044d3b8dd9c5dada244dac1b0df6" target="_top" xlink:title="Adds a new child to the database.">
<polygon fill="white" stroke="#666666" points="466.5,-296.44 341.75,-296.44 341.75,-276.44 466.5,-276.44 466.5,-296.44"/>
<text text-anchor="middle" x="404.12" y="-282.94" font-family="Helvetica,sans-Serif" font-size="10.00">DataBaseGUI::child_add</text>
</a>
</g>
</g>
<!-- Node19&#45;&gt;Node20 -->
<g id="edge30_Node000019_Node000020" class="edge">
<title>Node19&#45;&gt;Node20</title>
<g id="a_edge30_Node000019_Node000020"><a xlink:title=" ">
<path fill="none" stroke="#63b8ff" d="M495.41,-304.63C482.56,-302.04 469.32,-299.38 457.08,-296.91"/>
<polygon fill="#63b8ff" stroke="#63b8ff" points="494.58,-308.04 505.08,-306.58 495.97,-301.18 494.58,-308.04"/>
</a>
</g>
</g>
<!-- Node21 -->
<g id="Node000021" class="node">
<title>Node21</title>
<g id="a_Node000021"><a xlink:href="class_data_base_g_u_i.html#acb6c6b292e58d0ead30682f7f5705244" target="_top" xlink:title="Edits an existing child in the database.">
<polygon fill="white" stroke="#666666" points="466.5,-498.44 341.75,-498.44 341.75,-478.44 466.5,-478.44 466.5,-498.44"/>
<text text-anchor="middle" x="404.12" y="-484.94" font-family="Helvetica,sans-Serif" font-size="10.00">DataBaseGUI::child_edit</text>
</a>
</g>
</g>
<!-- Node19&#45;&gt;Node21 -->
<g id="edge32_Node000019_Node000021" class="edge">
<title>Node19&#45;&gt;Node21</title>
<g id="a_edge32_Node000019_Node000021"><a xlink:title=" ">
<path fill="none" stroke="#63b8ff" d="M510.42,-340.81C509.24,-341.66 508.1,-342.53 507,-343.44 458.21,-383.4 422.23,-452.34 409.83,-478.22"/>
<polygon fill="#63b8ff" stroke="#63b8ff" points="512.04,-343.92 518.61,-335.61 508.29,-338.01 512.04,-343.92"/>
</a>
</g>
</g>
<!-- Node22 -->
<g id="Node000022" class="node">
<title>Node22</title>
<g id="a_Node000022"><a xlink:href="class_data_base_g_u_i.html#a2e6d3629f679c153cdd21b683ce794a1" target="_top" xlink:title="Changes the sorting method for children.">
<polygon fill="white" stroke="#666666" points="456,-258.44 352.25,-258.44 352.25,-226.44 456,-226.44 456,-258.44"/>
<text text-anchor="start" x="360.25" y="-244.94" font-family="Helvetica,sans-Serif" font-size="10.00">DataBaseGUI::child</text>
<text text-anchor="middle" x="404.12" y="-232.94" font-family="Helvetica,sans-Serif" font-size="10.00">_sort_change</text>
</a>
</g>
</g>
<!-- Node19&#45;&gt;Node22 -->
<g id="edge36_Node000019_Node000022" class="edge">
<title>Node19&#45;&gt;Node22</title>
<g id="a_edge36_Node000019_Node000022"><a xlink:title=" ">
<path fill="none" stroke="#63b8ff" d="M526.44,-296.32C509.75,-286.87 489.67,-276.05 471,-267.44 464.56,-264.46 457.65,-261.55 450.83,-258.83"/>
<polygon fill="#63b8ff" stroke="#63b8ff" points="524.62,-299.32 535.04,-301.25 528.1,-293.24 524.62,-299.32"/>
</a>
</g>
</g>
<!-- Node23 -->
<g id="Node000023" class="node">
<title>Node23</title>
<g id="a_Node000023"><a xlink:href="class_data_base_g_u_i.html#a20d1ece0affaa1f5b6876ee072dd2ab1" target="_top" xlink:title="Imports a database from a file.">
<polygon fill="white" stroke="#666666" points="459.38,-346.44 348.88,-346.44 348.88,-314.44 459.38,-314.44 459.38,-346.44"/>
<text text-anchor="start" x="356.88" y="-332.94" font-family="Helvetica,sans-Serif" font-size="10.00">DataBaseGUI::import</text>
<text text-anchor="middle" x="404.12" y="-320.94" font-family="Helvetica,sans-Serif" font-size="10.00">_database</text>
</a>
</g>
</g>
<!-- Node19&#45;&gt;Node23 -->
<g id="edge38_Node000019_Node000023" class="edge">
<title>Node19&#45;&gt;Node23</title>
<g id="a_edge38_Node000019_Node000023"><a xlink:title=" ">
<path fill="none" stroke="#63b8ff" d="M495.29,-323.62C483.39,-324.52 471.16,-325.44 459.7,-326.31"/>
<polygon fill="#63b8ff" stroke="#63b8ff" points="495.35,-327.13 505.05,-322.88 494.82,-320.15 495.35,-327.13"/>
</a>
</g>
</g>
<!-- Node20&#45;&gt;Node10 -->
<g id="edge31_Node000020_Node000010" class="edge">
<title>Node20&#45;&gt;Node10</title>
<g id="a_edge31_Node000020_Node000010"><a xlink:title=" ">
<path fill="none" stroke="#63b8ff" d="M329.83,-286.44C318.21,-286.44 306.39,-286.44 295.35,-286.44"/>
<polygon fill="#63b8ff" stroke="#63b8ff" points="329.83,-289.94 339.83,-286.44 329.83,-282.94 329.83,-289.94"/>
</a>
</g>
</g>
<!-- Node21&#45;&gt;Node2 -->
<g id="edge33_Node000021_Node000002" class="edge">
<title>Node21&#45;&gt;Node2</title>
<g id="a_edge33_Node000021_Node000002"><a xlink:title=" ">
<path fill="none" stroke="#63b8ff" d="M353.94,-501.88C337.46,-506.38 318.91,-511.45 301.72,-516.15"/>
<polygon fill="#63b8ff" stroke="#63b8ff" points="354.79,-505.28 363.51,-499.26 352.94,-498.52 354.79,-505.28"/>
</a>
</g>
</g>
<!-- Node21&#45;&gt;Node3 -->
<g id="edge34_Node000021_Node000003" class="edge">
<title>Node21&#45;&gt;Node3</title>
<g id="a_edge34_Node000021_Node000003"><a xlink:title=" ">
<path fill="none" stroke="#63b8ff" d="M478.31,-488.44C541.69,-488.44 635.83,-488.44 717.88,-488.44 867.88,-488.44 867.88,-488.44 867.88,-488.44 946.57,-488.44 1036.41,-474.1 1094,-463.04"/>
<polygon fill="#63b8ff" stroke="#63b8ff" points="478.35,-484.94 468.35,-488.44 478.35,-491.94 478.35,-484.94"/>
</a>
</g>
</g>
<!-- Node22&#45;&gt;Node10 -->
<g id="edge37_Node000022_Node000010" class="edge">
<title>Node22&#45;&gt;Node10</title>
<g id="a_edge37_Node000022_Node000010"><a xlink:title=" ">
<path fill="none" stroke="#63b8ff" d="M341.34,-259.32C320.86,-264.92 298.67,-270.98 280.48,-275.95"/>
<polygon fill="#63b8ff" stroke="#63b8ff" points="342,-262.77 350.72,-256.76 340.15,-256.02 342,-262.77"/>
</a>
</g>
</g>
<!-- Node23&#45;&gt;Node10 -->
<g id="edge39_Node000023_Node000010" class="edge">
<title>Node23&#45;&gt;Node10</title>
<g id="a_edge39_Node000023_Node000010"><a xlink:title=" ">
<path fill="none" stroke="#63b8ff" d="M337.64,-312.54C318.15,-307.21 297.45,-301.56 280.32,-296.87"/>
<polygon fill="#63b8ff" stroke="#63b8ff" points="336.59,-315.88 347.16,-315.14 338.43,-309.13 336.59,-315.88"/>
</a>
</g>
</g>
</g>
</svg>

<g id="navigator" transform="translate(0 0)" fill="#404254">
  <rect fill="#f2f5e9" fill-opacity="0.5" stroke="#606060" stroke-width=".5" x="0" y="0" width="60" height="60"/>
  <use id="zoomplus" xlink:href="#zoomPlus" x="17" y="9" onmousedown="handleZoom(evt,'in')"/>
  <use id="zoomminus" xlink:href="#zoomMin" x="42" y="9" onmousedown="handleZoom(evt,'out')"/>
  <use id="reset" xlink:href="#resetDef" x="30" y="36" onmousedown="handleReset()"/>
   <use id="arrowup" xlink:href="#arrowUp" x="0" y="0" onmousedown="handlePan(0,-1)"/>
  <use id="arrowright" xlink:href="#arrowRight" x="0" y="0" onmousedown="handlePan(1,0)"/>
  <use id="arrowdown" xlink:href="#arrowDown" x="0" y="0" onmousedown="handlePan(0,1)"/>
  <use id="arrowleft" xlink:href="#arrowLeft" x="0" y="0" onmousedown="handlePan(-1,0)"/>
</g>
<svg viewBox="0 0 15 15" width="100%" height="30px" preserveAspectRatio="xMaxYMin meet">
 <g id="arrow_out" transform="scale(0.3 0.3)">
  <a xlink:href="class_data_base_g_u_i_ae3a08843db874e51a7cea32fa8937ca5_icgraph_org.svg" target="_base">
   <rect id="button" ry="5" rx="5" y="6" x="6" height="38" width="38"
        fill="#f2f5e9" fill-opacity="0.5" stroke="#606060" stroke-width="1.0"/>
   <path id="arrow"
     d="M 11.500037,31.436501 C 11.940474,20.09759 22.043105,11.32322 32.158766,21.979434 L 37.068811,17.246167 C 37.068811,17.246167 37.088388,32 37.088388,32 L 22.160133,31.978069 C 22.160133,31.978069 26.997745,27.140456 26.997745,27.140456 C 18.528582,18.264221 13.291696,25.230495 11.500037,31.436501 z"
     style="fill:#404040;"/>
  </a>
 </g>
</svg>

<style type='text/css'>
<![CDATA[
[data-mouse-over-selected='false'] { opacity: 0.7; }
[data-mouse-over-selected='true']  { opacity: 1.0; }
]]>
</style>
<script type="application/ecmascript"><![CDATA[
document.addEventListener('DOMContentLoaded', (event) => {
  highlightEdges();
  highlightAdjacentNodes();
});
]]></script>
</svg>
