<?xml version="1.0" encoding="UTF-8" standalone="no"?>
<!DOCTYPE svg PUBLIC "-//W3C//DTD SVG 1.1//EN"
 "http://www.w3.org/Graphics/SVG/1.1/DTD/svg11.dtd">
<!-- Generated by graphviz version 12.2.1 (20241206.2353)
 -->
<!-- Title: ParentDialog Pages: 1 -->
<!--zoomable 1253 -->

<svg id="main" version="1.1" xmlns="http://www.w3.org/2000/svg" xmlns:xlink="http://www.w3.org/1999/xlink" xml:space="preserve" onload="init(evt)">

<style type="text/css"><![CDATA[
.node, .edge {opacity: 0.7;}
.node.selected, .edge.selected {opacity: 1;}
.edge:hover path { stroke: red; }
.edge:hover polygon { stroke: red; fill: red; }
]]></style>

<defs>
  <circle id="rim" cx="0" cy="0" r="7"/>
  <circle id="rim2" cx="0" cy="0" r="3.5"/>
  <g id="zoomPlus">
    <use xlink:href="#rim" fill="#404040"><set attributeName="fill" to="#808080" begin="zoomplus.mouseover" end="zoomplus.mouseout"/></use>
    <path d="M-4,0h8M0,-4v8" fill="none" stroke="white" stroke-width="1.5" pointer-events="none"/>
  </g>
  <g id="zoomMin">
    <use xlink:href="#rim" fill="#404040"><set attributeName="fill" to="#808080" begin="zoomminus.mouseover" end="zoomminus.mouseout"/></use>
    <path d="M-4,0h8" fill="none" stroke="white" stroke-width="1.5" pointer-events="none"/>
  </g>
  <g id="arrowUp" transform="translate(30 24)">
    <use xlink:href="#rim"/>
    <path pointer-events="none" fill="none" stroke="white" stroke-width="1.5" d="M0,-3.0v7 M-2.5,-0.5L0,-3.0L2.5,-0.5"/>
  </g>
  <g id="arrowRight" transform="rotate(90) translate(36 -43)">
    <use xlink:href="#rim"/>
    <path pointer-events="none" fill="none" stroke="white" stroke-width="1.5" d="M0,-3.0v7 M-2.5,-0.5L0,-3.0L2.5,-0.5"/>
  </g>
  <g id="arrowDown" transform="rotate(180) translate(-30 -48)">
    <use xlink:href="#rim"/>
    <path pointer-events="none" fill="none" stroke="white" stroke-width="1.5" d="M0,-3.0v7 M-2.5,-0.5L0,-3.0L2.5,-0.5"/>
  </g>
  <g id="arrowLeft" transform="rotate(270) translate(-36 17)">
    <use xlink:href="#rim"/>
    <path pointer-events="none" fill="none" stroke="white" stroke-width="1.5" d="M0,-3.0v7 M-2.5,-0.5L0,-3.0L2.5,-0.5"/>
  </g>
  <g id="resetDef">
    <use xlink:href="#rim2" fill="#404040"><set attributeName="fill" to="#808080" begin="reset.mouseover" end="reset.mouseout"/></use>
  </g>
</defs>
<script type="application/ecmascript">
var viewWidth = 490;
var viewHeight = 1253;
var sectionId = 'dynsection-1';
</script>
<script type="application/ecmascript" xlink:href="svg.min.js"/>
<svg id="graph" class="graph">
<g id="viewport">
<title>ParentDialog</title>
<!-- Node1 -->
<g id="Node000001" class="node">
<title>Node1</title>
<g id="a_Node000001"><a xlink:title="Dialog for managing parent&#45;related information.">
<polygon fill="#999999" stroke="none" points="264.5,-100 164.75,-100 164.75,0 264.5,0 264.5,-100"/>
<text text-anchor="start" x="186.5" y="-86.5" font-family="Helvetica,sans-Serif" font-size="10.00">ParentDialog</text>
<text text-anchor="start" x="213.12" y="-70.5" font-family="Helvetica,sans-Serif" font-size="10.00"> </text>
<text text-anchor="start" x="168.75" y="-54.5" font-family="Helvetica,sans-Serif" font-size="10.00">+</text>
<text text-anchor="start" x="178.75" y="-54.5" font-family="Helvetica,sans-Serif" font-size="10.00">ParentDialog()</text>
<text text-anchor="start" x="168.75" y="-38.5" font-family="Helvetica,sans-Serif" font-size="10.00">+</text>
<text text-anchor="start" x="178.75" y="-38.5" font-family="Helvetica,sans-Serif" font-size="10.00">populate_children()</text>
<text text-anchor="start" x="168.75" y="-22.5" font-family="Helvetica,sans-Serif" font-size="10.00">+</text>
<text text-anchor="start" x="178.75" y="-22.5" font-family="Helvetica,sans-Serif" font-size="10.00">accept()</text>
<text text-anchor="start" x="168.75" y="-6.5" font-family="Helvetica,sans-Serif" font-size="10.00">+</text>
<text text-anchor="start" x="178.75" y="-6.5" font-family="Helvetica,sans-Serif" font-size="10.00">~ParentDialog()</text>
<polygon fill="#666666" stroke="#666666" points="164.75,-82 164.75,-82 264.5,-82 264.5,-82 164.75,-82"/>
<polygon fill="#666666" stroke="#666666" points="164.75,-66 164.75,-66 264.5,-66 264.5,-66 164.75,-66"/>
<polygon fill="none" stroke="#666666" points="164.75,0 164.75,-100 264.5,-100 264.5,0 164.75,0"/>
</a>
</g>
</g>
<!-- Node2 -->
<g id="Node000002" class="node">
<title>Node2</title>
<g id="a_Node000002"><a xlink:title=" ">
<polygon fill="white" stroke="none" points="43.25,-516 0,-516 0,-464 43.25,-464 43.25,-516"/>
<text text-anchor="start" x="4" y="-502.5" font-family="Helvetica,sans-Serif" font-size="10.00">QDialog</text>
<text text-anchor="start" x="20.12" y="-486.5" font-family="Helvetica,sans-Serif" font-size="10.00"> </text>
<text text-anchor="start" x="20.12" y="-470.5" font-family="Helvetica,sans-Serif" font-size="10.00"> </text>
<polygon fill="#666666" stroke="#666666" points="0,-498 0,-498 43.25,-498 43.25,-498 0,-498"/>
<polygon fill="#666666" stroke="#666666" points="0,-482 0,-482 43.25,-482 43.25,-482 0,-482"/>
<polygon fill="none" stroke="#666666" points="0,-464 0,-516 43.25,-516 43.25,-464 0,-464"/>
</a>
</g>
</g>
<!-- Node2&#45;&gt;Node1 -->
<g id="edge1_Node000001_Node000002" class="edge">
<title>Node2&#45;&gt;Node1</title>
<g id="a_edge1_Node000001_Node000002"><a xlink:title=" ">
<path fill="none" stroke="#63b8ff" d="M14.85,-453.32C4.33,-387.38 -8.91,-244.37 51.62,-148 77.29,-107.15 126.96,-81.29 164.76,-66.64"/>
<polygon fill="none" stroke="#63b8ff" points="11.34,-453.56 16.45,-462.85 18.25,-452.41 11.34,-453.56"/>
</a>
</g>
</g>
<!-- Node3 -->
<g id="Node000003" class="node">
<title>Node3</title>
<g id="a_Node000003"><a xlink:href="class_ui_1_1_parent_dialog_class.html" target="_top" xlink:title=" ">
<polygon fill="white" stroke="none" points="166.38,-516 60.88,-516 60.88,-464 166.38,-464 166.38,-516"/>
<text text-anchor="start" x="64.88" y="-502.5" font-family="Helvetica,sans-Serif" font-size="10.00">Ui::ParentDialogClass</text>
<text text-anchor="start" x="112.12" y="-486.5" font-family="Helvetica,sans-Serif" font-size="10.00"> </text>
<text text-anchor="start" x="112.12" y="-470.5" font-family="Helvetica,sans-Serif" font-size="10.00"> </text>
<polygon fill="#666666" stroke="#666666" points="60.88,-498 60.88,-498 166.38,-498 166.38,-498 60.88,-498"/>
<polygon fill="#666666" stroke="#666666" points="60.88,-482 60.88,-482 166.38,-482 166.38,-482 60.88,-482"/>
<polygon fill="none" stroke="#666666" points="60.88,-464 60.88,-516 166.38,-516 166.38,-464 60.88,-464"/>
</a>
</g>
</g>
<!-- Node3&#45;&gt;Node1 -->
<g id="edge2_Node000001_Node000003" class="edge">
<title>Node3&#45;&gt;Node1</title>
<g id="a_edge2_Node000001_Node000003"><a xlink:title=" ">
<path fill="none" stroke="#63b8ff" d="M116.39,-464.21C123.08,-407.43 142.16,-263.91 175.62,-148 179.06,-136.09 183.44,-123.64 188.01,-111.77"/>
<polygon fill="none" stroke="#63b8ff" points="188.06,-111.66 186.55,-104.61 192.49,-100.51 193.99,-107.56 188.06,-111.66"/>
</a>
</g>
<text text-anchor="middle" x="192.38" y="-120.5" font-family="Helvetica,sans-Serif" font-size="10.00" fill="grey"> &#45;ui</text>
</g>
<!-- Node4 -->
<g id="Node000004" class="node">
<title>Node4</title>
<g id="a_Node000004"><a xlink:href="class_ui___parent_dialog_class.html" target="_top" xlink:title=" ">
<polygon fill="white" stroke="none" points="166,-1132 61.25,-1132 61.25,-904 166,-904 166,-1132"/>
<text text-anchor="start" x="65.25" y="-1118.5" font-family="Helvetica,sans-Serif" font-size="10.00">Ui_ParentDialogClass</text>
<text text-anchor="start" x="71.19" y="-1102.5" font-family="Helvetica,sans-Serif" font-size="10.00">+</text>
<text text-anchor="start" x="87.12" y="-1102.5" font-family="Helvetica,sans-Serif" font-size="10.00">gridLayout</text>
<text text-anchor="start" x="71.19" y="-1086.5" font-family="Helvetica,sans-Serif" font-size="10.00">+</text>
<text text-anchor="start" x="87.12" y="-1086.5" font-family="Helvetica,sans-Serif" font-size="10.00">email_edit</text>
<text text-anchor="start" x="71.19" y="-1070.5" font-family="Helvetica,sans-Serif" font-size="10.00">+</text>
<text text-anchor="start" x="87.12" y="-1070.5" font-family="Helvetica,sans-Serif" font-size="10.00">line</text>
<text text-anchor="start" x="71.19" y="-1054.5" font-family="Helvetica,sans-Serif" font-size="10.00">+</text>
<text text-anchor="start" x="87.12" y="-1054.5" font-family="Helvetica,sans-Serif" font-size="10.00">line_2</text>
<text text-anchor="start" x="71.19" y="-1038.5" font-family="Helvetica,sans-Serif" font-size="10.00">+</text>
<text text-anchor="start" x="87.12" y="-1038.5" font-family="Helvetica,sans-Serif" font-size="10.00">gender_label</text>
<text text-anchor="start" x="71.19" y="-1022.5" font-family="Helvetica,sans-Serif" font-size="10.00">+</text>
<text text-anchor="start" x="87.12" y="-1022.5" font-family="Helvetica,sans-Serif" font-size="10.00">okButton</text>
<text text-anchor="start" x="71.19" y="-1006.5" font-family="Helvetica,sans-Serif" font-size="10.00">+</text>
<text text-anchor="start" x="87.12" y="-1006.5" font-family="Helvetica,sans-Serif" font-size="10.00">children_label</text>
<text text-anchor="start" x="71.19" y="-990.5" font-family="Helvetica,sans-Serif" font-size="10.00">+</text>
<text text-anchor="start" x="87.12" y="-990.5" font-family="Helvetica,sans-Serif" font-size="10.00">name_edit</text>
<text text-anchor="start" x="71.19" y="-974.5" font-family="Helvetica,sans-Serif" font-size="10.00">+</text>
<text text-anchor="start" x="87.12" y="-974.5" font-family="Helvetica,sans-Serif" font-size="10.00">cancelButton</text>
<text text-anchor="start" x="71.19" y="-958.5" font-family="Helvetica,sans-Serif" font-size="10.00">+</text>
<text text-anchor="start" x="87.12" y="-958.5" font-family="Helvetica,sans-Serif" font-size="10.00">surname_label</text>
<text text-anchor="start" x="87.12" y="-942.5" font-family="Helvetica,sans-Serif" font-size="10.00">and 10 more...</text>
<text text-anchor="start" x="71.19" y="-926.5" font-family="Helvetica,sans-Serif" font-size="10.00">+</text>
<text text-anchor="start" x="87.12" y="-926.5" font-family="Helvetica,sans-Serif" font-size="10.00">setupUi()</text>
<text text-anchor="start" x="71.19" y="-910.5" font-family="Helvetica,sans-Serif" font-size="10.00">+</text>
<text text-anchor="start" x="87.12" y="-910.5" font-family="Helvetica,sans-Serif" font-size="10.00">retranslateUi()</text>
<polygon fill="#666666" stroke="#666666" points="61.25,-1114 61.25,-1114 166,-1114 166,-1114 61.25,-1114"/>
<polygon fill="#666666" stroke="#666666" points="61.25,-938 61.25,-938 85.12,-938 85.12,-938 61.25,-938"/>
<polygon fill="#666666" stroke="#666666" points="85.12,-938 85.12,-938 166,-938 166,-938 85.12,-938"/>
<polygon fill="none" stroke="#666666" points="61.25,-904 61.25,-1132 166,-1132 166,-904 61.25,-904"/>
</a>
</g>
</g>
<!-- Node4&#45;&gt;Node3 -->
<g id="edge3_Node000003_Node000004" class="edge">
<title>Node4&#45;&gt;Node3</title>
<g id="a_edge3_Node000003_Node000004"><a xlink:title=" ">
<path fill="none" stroke="#63b8ff" d="M113.62,-892.95C113.62,-767.31 113.62,-582.31 113.62,-515.88"/>
<polygon fill="none" stroke="#63b8ff" points="110.13,-892.65 113.63,-902.65 117.13,-892.65 110.13,-892.65"/>
</a>
</g>
</g>
<!-- Node5 -->
<g id="Node000005" class="node">
<title>Node5</title>
<g id="a_Node000005"><a xlink:href="class_database.html" target="_top" xlink:title="Manages data related to lessons, parents, children, and employees.">
<polygon fill="white" stroke="none" points="312.38,-832 184.88,-832 184.88,-148 312.38,-148 312.38,-832"/>
<text text-anchor="start" x="227.62" y="-818.5" font-family="Helvetica,sans-Serif" font-size="10.00">Database</text>
<text text-anchor="start" x="190.38" y="-802.5" font-family="Helvetica,sans-Serif" font-size="10.00">&#45;</text>
<text text-anchor="start" x="198.88" y="-802.5" font-family="Helvetica,sans-Serif" font-size="10.00">lessons_</text>
<text text-anchor="start" x="190.38" y="-786.5" font-family="Helvetica,sans-Serif" font-size="10.00">&#45;</text>
<text text-anchor="start" x="198.88" y="-786.5" font-family="Helvetica,sans-Serif" font-size="10.00">parents_</text>
<text text-anchor="start" x="190.38" y="-770.5" font-family="Helvetica,sans-Serif" font-size="10.00">&#45;</text>
<text text-anchor="start" x="198.88" y="-770.5" font-family="Helvetica,sans-Serif" font-size="10.00">children_</text>
<text text-anchor="start" x="190.38" y="-754.5" font-family="Helvetica,sans-Serif" font-size="10.00">&#45;</text>
<text text-anchor="start" x="198.88" y="-754.5" font-family="Helvetica,sans-Serif" font-size="10.00">employees_</text>
<text text-anchor="start" x="190.38" y="-738.5" font-family="Helvetica,sans-Serif" font-size="10.00">&#45;</text>
<text text-anchor="start" x="198.88" y="-738.5" font-family="Helvetica,sans-Serif" font-size="10.00">child_by_name</text>
<text text-anchor="start" x="190.38" y="-722.5" font-family="Helvetica,sans-Serif" font-size="10.00">&#45;</text>
<text text-anchor="start" x="198.88" y="-722.5" font-family="Helvetica,sans-Serif" font-size="10.00">child_by_surname</text>
<text text-anchor="start" x="190.38" y="-706.5" font-family="Helvetica,sans-Serif" font-size="10.00">&#45;</text>
<text text-anchor="start" x="198.88" y="-706.5" font-family="Helvetica,sans-Serif" font-size="10.00">child_by_birth_date</text>
<text text-anchor="start" x="190.38" y="-690.5" font-family="Helvetica,sans-Serif" font-size="10.00">&#45;</text>
<text text-anchor="start" x="198.88" y="-690.5" font-family="Helvetica,sans-Serif" font-size="10.00">parent_by_name</text>
<text text-anchor="start" x="190.38" y="-674.5" font-family="Helvetica,sans-Serif" font-size="10.00">&#45;</text>
<text text-anchor="start" x="198.88" y="-674.5" font-family="Helvetica,sans-Serif" font-size="10.00">parent_by_surname</text>
<text text-anchor="start" x="190.38" y="-658.5" font-family="Helvetica,sans-Serif" font-size="10.00">&#45;</text>
<text text-anchor="start" x="198.88" y="-658.5" font-family="Helvetica,sans-Serif" font-size="10.00">parent_by_email</text>
<text text-anchor="start" x="190.38" y="-642.5" font-family="Helvetica,sans-Serif" font-size="10.00">&#45;</text>
<text text-anchor="start" x="198.88" y="-642.5" font-family="Helvetica,sans-Serif" font-size="10.00">employee_by_name</text>
<text text-anchor="start" x="190.38" y="-626.5" font-family="Helvetica,sans-Serif" font-size="10.00">&#45;</text>
<text text-anchor="start" x="198.88" y="-626.5" font-family="Helvetica,sans-Serif" font-size="10.00">employee_by_surname</text>
<text text-anchor="start" x="190.38" y="-610.5" font-family="Helvetica,sans-Serif" font-size="10.00">&#45;</text>
<text text-anchor="start" x="198.88" y="-610.5" font-family="Helvetica,sans-Serif" font-size="10.00">lesson_by_schedule</text>
<text text-anchor="start" x="188.88" y="-594.5" font-family="Helvetica,sans-Serif" font-size="10.00">+</text>
<text text-anchor="start" x="198.88" y="-594.5" font-family="Helvetica,sans-Serif" font-size="10.00">Database()</text>
<text text-anchor="start" x="188.88" y="-578.5" font-family="Helvetica,sans-Serif" font-size="10.00">+</text>
<text text-anchor="start" x="198.88" y="-578.5" font-family="Helvetica,sans-Serif" font-size="10.00">Database()</text>
<text text-anchor="start" x="188.88" y="-562.5" font-family="Helvetica,sans-Serif" font-size="10.00">+</text>
<text text-anchor="start" x="198.88" y="-562.5" font-family="Helvetica,sans-Serif" font-size="10.00">Database()</text>
<text text-anchor="start" x="188.88" y="-546.5" font-family="Helvetica,sans-Serif" font-size="10.00">+</text>
<text text-anchor="start" x="198.88" y="-546.5" font-family="Helvetica,sans-Serif" font-size="10.00">operator=()</text>
<text text-anchor="start" x="188.88" y="-530.5" font-family="Helvetica,sans-Serif" font-size="10.00">+</text>
<text text-anchor="start" x="198.88" y="-530.5" font-family="Helvetica,sans-Serif" font-size="10.00">operator=()</text>
<text text-anchor="start" x="188.88" y="-514.5" font-family="Helvetica,sans-Serif" font-size="10.00">+</text>
<text text-anchor="start" x="198.88" y="-514.5" font-family="Helvetica,sans-Serif" font-size="10.00">add_lesson()</text>
<text text-anchor="start" x="188.88" y="-498.5" font-family="Helvetica,sans-Serif" font-size="10.00">+</text>
<text text-anchor="start" x="198.88" y="-498.5" font-family="Helvetica,sans-Serif" font-size="10.00">remove_lesson()</text>
<text text-anchor="start" x="188.88" y="-482.5" font-family="Helvetica,sans-Serif" font-size="10.00">+</text>
<text text-anchor="start" x="198.88" y="-482.5" font-family="Helvetica,sans-Serif" font-size="10.00">search_lessons_by_child</text>
<text text-anchor="start" x="198.88" y="-470.5" font-family="Helvetica,sans-Serif" font-size="10.00">_name_surname()</text>
<text text-anchor="start" x="188.88" y="-454.5" font-family="Helvetica,sans-Serif" font-size="10.00">+</text>
<text text-anchor="start" x="198.88" y="-454.5" font-family="Helvetica,sans-Serif" font-size="10.00">sort_lessons_by_time()</text>
<text text-anchor="start" x="188.88" y="-438.5" font-family="Helvetica,sans-Serif" font-size="10.00">+</text>
<text text-anchor="start" x="198.88" y="-438.5" font-family="Helvetica,sans-Serif" font-size="10.00">sort_lessons_by_day()</text>
<text text-anchor="start" x="198.88" y="-422.5" font-family="Helvetica,sans-Serif" font-size="10.00">and 47 more...</text>
<text text-anchor="start" x="190.38" y="-406.5" font-family="Helvetica,sans-Serif" font-size="10.00">&#45;</text>
<text text-anchor="start" x="198.88" y="-406.5" font-family="Helvetica,sans-Serif" font-size="10.00">import_Lessons_from</text>
<text text-anchor="start" x="198.88" y="-394.5" font-family="Helvetica,sans-Serif" font-size="10.00">_csv_file()</text>
<text text-anchor="start" x="190.38" y="-378.5" font-family="Helvetica,sans-Serif" font-size="10.00">&#45;</text>
<text text-anchor="start" x="198.88" y="-378.5" font-family="Helvetica,sans-Serif" font-size="10.00">import_Parents_from</text>
<text text-anchor="start" x="198.88" y="-366.5" font-family="Helvetica,sans-Serif" font-size="10.00">_csv_file()</text>
<text text-anchor="start" x="190.38" y="-350.5" font-family="Helvetica,sans-Serif" font-size="10.00">&#45;</text>
<text text-anchor="start" x="198.88" y="-350.5" font-family="Helvetica,sans-Serif" font-size="10.00">import_Children_from</text>
<text text-anchor="start" x="198.88" y="-338.5" font-family="Helvetica,sans-Serif" font-size="10.00">_csv_file()</text>
<text text-anchor="start" x="190.38" y="-322.5" font-family="Helvetica,sans-Serif" font-size="10.00">&#45;</text>
<text text-anchor="start" x="198.88" y="-322.5" font-family="Helvetica,sans-Serif" font-size="10.00">import_Employees_from</text>
<text text-anchor="start" x="198.88" y="-310.5" font-family="Helvetica,sans-Serif" font-size="10.00">_csv_file()</text>
<text text-anchor="start" x="190.38" y="-294.5" font-family="Helvetica,sans-Serif" font-size="10.00">&#45;</text>
<text text-anchor="start" x="198.88" y="-294.5" font-family="Helvetica,sans-Serif" font-size="10.00">export_Lessons_to_csv</text>
<text text-anchor="start" x="198.88" y="-282.5" font-family="Helvetica,sans-Serif" font-size="10.00">_file()</text>
<text text-anchor="start" x="190.38" y="-266.5" font-family="Helvetica,sans-Serif" font-size="10.00">&#45;</text>
<text text-anchor="start" x="198.88" y="-266.5" font-family="Helvetica,sans-Serif" font-size="10.00">export_Parents_to_csv</text>
<text text-anchor="start" x="198.88" y="-254.5" font-family="Helvetica,sans-Serif" font-size="10.00">_file()</text>
<text text-anchor="start" x="190.38" y="-238.5" font-family="Helvetica,sans-Serif" font-size="10.00">&#45;</text>
<text text-anchor="start" x="198.88" y="-238.5" font-family="Helvetica,sans-Serif" font-size="10.00">export_Children_to</text>
<text text-anchor="start" x="198.88" y="-226.5" font-family="Helvetica,sans-Serif" font-size="10.00">_csv_file()</text>
<text text-anchor="start" x="190.38" y="-210.5" font-family="Helvetica,sans-Serif" font-size="10.00">&#45;</text>
<text text-anchor="start" x="198.88" y="-210.5" font-family="Helvetica,sans-Serif" font-size="10.00">export_Employees_to</text>
<text text-anchor="start" x="198.88" y="-198.5" font-family="Helvetica,sans-Serif" font-size="10.00">_csv_file()</text>
<text text-anchor="start" x="190.38" y="-182.5" font-family="Helvetica,sans-Serif" font-size="10.00">&#45;</text>
<text text-anchor="start" x="198.88" y="-182.5" font-family="Helvetica,sans-Serif" font-size="10.00">remove_from_map()</text>
<text text-anchor="start" x="190.38" y="-166.5" font-family="Helvetica,sans-Serif" font-size="10.00">&#45;</text>
<text text-anchor="start" x="198.88" y="-166.5" font-family="Helvetica,sans-Serif" font-size="10.00">search_lavenstein_name</text>
<text text-anchor="start" x="198.88" y="-154.5" font-family="Helvetica,sans-Serif" font-size="10.00">_surname()</text>
<polygon fill="#666666" stroke="#666666" points="184.88,-814 184.88,-814 312.38,-814 312.38,-814 184.88,-814"/>
<polygon fill="#666666" stroke="#666666" points="184.88,-606 184.88,-606 196.88,-606 196.88,-606 184.88,-606"/>
<polygon fill="#666666" stroke="#666666" points="196.88,-606 196.88,-606 312.38,-606 312.38,-606 196.88,-606"/>
<polygon fill="none" stroke="#666666" points="184.88,-148 184.88,-832 312.38,-832 312.38,-148 184.88,-148"/>
</a>
</g>
</g>
<!-- Node5&#45;&gt;Node1 -->
<g id="edge4_Node000001_Node000005" class="edge">
<title>Node5&#45;&gt;Node1</title>
<g id="a_edge4_Node000001_Node000005"><a xlink:title=" ">
<path fill="none" stroke="#63b8ff" d="M222.17,-148.21C221.18,-135.41 220.25,-123.42 219.4,-112.54"/>
<polygon fill="none" stroke="#63b8ff" points="219.41,-112.69 214.96,-107.02 218.49,-100.73 222.94,-106.4 219.41,-112.69"/>
</a>
</g>
<text text-anchor="middle" x="245.83" y="-120.5" font-family="Helvetica,sans-Serif" font-size="10.00" fill="grey"> &#45;database_</text>
</g>
<!-- Node6 -->
<g id="Node000006" class="node">
<title>Node6</title>
<g id="a_Node000006"><a xlink:href="class_parent.html" target="_top" xlink:title="Represents a parent.">
<polygon fill="white" stroke="none" points="406.5,-604 330.75,-604 330.75,-376 406.5,-376 406.5,-604"/>
<text text-anchor="start" x="354.38" y="-590.5" font-family="Helvetica,sans-Serif" font-size="10.00">Parent</text>
<text text-anchor="start" x="335.12" y="-574.5" font-family="Helvetica,sans-Serif" font-size="10.00">#</text>
<text text-anchor="start" x="344.75" y="-574.5" font-family="Helvetica,sans-Serif" font-size="10.00">is_mother_</text>
<text text-anchor="start" x="335.12" y="-558.5" font-family="Helvetica,sans-Serif" font-size="10.00">#</text>
<text text-anchor="start" x="344.75" y="-558.5" font-family="Helvetica,sans-Serif" font-size="10.00">children_</text>
<text text-anchor="start" x="334.75" y="-542.5" font-family="Helvetica,sans-Serif" font-size="10.00">+</text>
<text text-anchor="start" x="344.75" y="-542.5" font-family="Helvetica,sans-Serif" font-size="10.00">Parent()</text>
<text text-anchor="start" x="334.75" y="-526.5" font-family="Helvetica,sans-Serif" font-size="10.00">+</text>
<text text-anchor="start" x="344.75" y="-526.5" font-family="Helvetica,sans-Serif" font-size="10.00">Parent()</text>
<text text-anchor="start" x="334.75" y="-510.5" font-family="Helvetica,sans-Serif" font-size="10.00">+</text>
<text text-anchor="start" x="344.75" y="-510.5" font-family="Helvetica,sans-Serif" font-size="10.00">Parent()</text>
<text text-anchor="start" x="334.75" y="-494.5" font-family="Helvetica,sans-Serif" font-size="10.00">+</text>
<text text-anchor="start" x="344.75" y="-494.5" font-family="Helvetica,sans-Serif" font-size="10.00">Parent()</text>
<text text-anchor="start" x="334.75" y="-478.5" font-family="Helvetica,sans-Serif" font-size="10.00">+</text>
<text text-anchor="start" x="344.75" y="-478.5" font-family="Helvetica,sans-Serif" font-size="10.00">Parent()</text>
<text text-anchor="start" x="334.75" y="-462.5" font-family="Helvetica,sans-Serif" font-size="10.00">+</text>
<text text-anchor="start" x="344.75" y="-462.5" font-family="Helvetica,sans-Serif" font-size="10.00">operator=()</text>
<text text-anchor="start" x="334.75" y="-446.5" font-family="Helvetica,sans-Serif" font-size="10.00">+</text>
<text text-anchor="start" x="344.75" y="-446.5" font-family="Helvetica,sans-Serif" font-size="10.00">operator=()</text>
<text text-anchor="start" x="334.75" y="-430.5" font-family="Helvetica,sans-Serif" font-size="10.00">+</text>
<text text-anchor="start" x="344.75" y="-430.5" font-family="Helvetica,sans-Serif" font-size="10.00">operator==()</text>
<text text-anchor="start" x="334.75" y="-414.5" font-family="Helvetica,sans-Serif" font-size="10.00">+</text>
<text text-anchor="start" x="344.75" y="-414.5" font-family="Helvetica,sans-Serif" font-size="10.00">operator!=()</text>
<text text-anchor="start" x="334.75" y="-398.5" font-family="Helvetica,sans-Serif" font-size="10.00">+</text>
<text text-anchor="start" x="344.75" y="-398.5" font-family="Helvetica,sans-Serif" font-size="10.00">get_email()</text>
<text text-anchor="start" x="344.75" y="-382.5" font-family="Helvetica,sans-Serif" font-size="10.00">and 9 more...</text>
<polygon fill="#666666" stroke="#666666" points="330.75,-586 330.75,-586 406.5,-586 406.5,-586 330.75,-586"/>
<polygon fill="#666666" stroke="#666666" points="330.75,-554 330.75,-554 342.75,-554 342.75,-554 330.75,-554"/>
<polygon fill="#666666" stroke="#666666" points="342.75,-554 342.75,-554 406.5,-554 406.5,-554 342.75,-554"/>
<polygon fill="none" stroke="#666666" points="330.75,-376 330.75,-604 406.5,-604 406.5,-376 330.75,-376"/>
</a>
</g>
</g>
<!-- Node6&#45;&gt;Node1 -->
<g id="edge5_Node000001_Node000006" class="edge">
<title>Node6&#45;&gt;Node1</title>
<g id="a_edge5_Node000001_Node000006"><a xlink:title=" ">
<path fill="none" stroke="#63b8ff" d="M372.17,-376.38C369.88,-306.91 358.59,-218.03 321.62,-148 310.32,-126.58 292.31,-107.51 274.26,-92.07"/>
<polygon fill="none" stroke="#63b8ff" points="274.25,-92.06 267.07,-91.34 264.97,-84.45 272.15,-85.16 274.25,-92.06"/>
</a>
</g>
<text text-anchor="middle" x="350.64" y="-120.5" font-family="Helvetica,sans-Serif" font-size="10.00" fill="grey"> &#45;database_parent_</text>
</g>
<!-- Node7 -->
<g id="Node000007" class="node">
<title>Node7</title>
<g id="a_Node000007"><a xlink:href="class_person.html" target="_top" xlink:title="Represents a generic person.">
<polygon fill="white" stroke="none" points="376.75,-1156 296.5,-1156 296.5,-880 376.75,-880 376.75,-1156"/>
<text text-anchor="start" x="321.25" y="-1142.5" font-family="Helvetica,sans-Serif" font-size="10.00">Person</text>
<text text-anchor="start" x="300.88" y="-1126.5" font-family="Helvetica,sans-Serif" font-size="10.00">#</text>
<text text-anchor="start" x="310.5" y="-1126.5" font-family="Helvetica,sans-Serif" font-size="10.00">name_</text>
<text text-anchor="start" x="300.88" y="-1110.5" font-family="Helvetica,sans-Serif" font-size="10.00">#</text>
<text text-anchor="start" x="310.5" y="-1110.5" font-family="Helvetica,sans-Serif" font-size="10.00">surname_</text>
<text text-anchor="start" x="300.5" y="-1094.5" font-family="Helvetica,sans-Serif" font-size="10.00">+</text>
<text text-anchor="start" x="310.5" y="-1094.5" font-family="Helvetica,sans-Serif" font-size="10.00">Person()</text>
<text text-anchor="start" x="300.5" y="-1078.5" font-family="Helvetica,sans-Serif" font-size="10.00">+</text>
<text text-anchor="start" x="310.5" y="-1078.5" font-family="Helvetica,sans-Serif" font-size="10.00">Person()</text>
<text text-anchor="start" x="300.5" y="-1062.5" font-family="Helvetica,sans-Serif" font-size="10.00">+</text>
<text text-anchor="start" x="310.5" y="-1062.5" font-family="Helvetica,sans-Serif" font-size="10.00">Person()</text>
<text text-anchor="start" x="300.5" y="-1046.5" font-family="Helvetica,sans-Serif" font-size="10.00">+</text>
<text text-anchor="start" x="310.5" y="-1046.5" font-family="Helvetica,sans-Serif" font-size="10.00">Person()</text>
<text text-anchor="start" x="300.5" y="-1030.5" font-family="Helvetica,sans-Serif" font-size="10.00">+</text>
<text text-anchor="start" x="310.5" y="-1030.5" font-family="Helvetica,sans-Serif" font-size="10.00">Person()</text>
<text text-anchor="start" x="300.5" y="-1014.5" font-family="Helvetica,sans-Serif" font-size="10.00">+</text>
<text text-anchor="start" x="310.5" y="-1014.5" font-family="Helvetica,sans-Serif" font-size="10.00">operator=()</text>
<text text-anchor="start" x="300.5" y="-998.5" font-family="Helvetica,sans-Serif" font-size="10.00">+</text>
<text text-anchor="start" x="310.5" y="-998.5" font-family="Helvetica,sans-Serif" font-size="10.00">operator=()</text>
<text text-anchor="start" x="300.5" y="-982.5" font-family="Helvetica,sans-Serif" font-size="10.00">+</text>
<text text-anchor="start" x="310.5" y="-982.5" font-family="Helvetica,sans-Serif" font-size="10.00">operator==()</text>
<text text-anchor="start" x="300.5" y="-966.5" font-family="Helvetica,sans-Serif" font-size="10.00">+</text>
<text text-anchor="start" x="310.5" y="-966.5" font-family="Helvetica,sans-Serif" font-size="10.00">operator!=()</text>
<text text-anchor="start" x="300.5" y="-950.5" font-family="Helvetica,sans-Serif" font-size="10.00">+</text>
<text text-anchor="start" x="310.5" y="-950.5" font-family="Helvetica,sans-Serif" font-size="10.00">get_name()</text>
<text text-anchor="start" x="300.5" y="-934.5" font-family="Helvetica,sans-Serif" font-size="10.00">+</text>
<text text-anchor="start" x="310.5" y="-934.5" font-family="Helvetica,sans-Serif" font-size="10.00">set_name()</text>
<text text-anchor="start" x="300.5" y="-918.5" font-family="Helvetica,sans-Serif" font-size="10.00">+</text>
<text text-anchor="start" x="310.5" y="-918.5" font-family="Helvetica,sans-Serif" font-size="10.00">get_surname()</text>
<text text-anchor="start" x="300.5" y="-902.5" font-family="Helvetica,sans-Serif" font-size="10.00">+</text>
<text text-anchor="start" x="310.5" y="-902.5" font-family="Helvetica,sans-Serif" font-size="10.00">set_surname()</text>
<text text-anchor="start" x="300.5" y="-886.5" font-family="Helvetica,sans-Serif" font-size="10.00">+</text>
<text text-anchor="start" x="310.5" y="-886.5" font-family="Helvetica,sans-Serif" font-size="10.00">~Person()</text>
<polygon fill="#666666" stroke="#666666" points="296.5,-1138 296.5,-1138 376.75,-1138 376.75,-1138 296.5,-1138"/>
<polygon fill="#666666" stroke="#666666" points="296.5,-1106 296.5,-1106 308.5,-1106 308.5,-1106 296.5,-1106"/>
<polygon fill="#666666" stroke="#666666" points="308.5,-1106 308.5,-1106 376.75,-1106 376.75,-1106 308.5,-1106"/>
<polygon fill="none" stroke="#666666" points="296.5,-880 296.5,-1156 376.75,-1156 376.75,-880 296.5,-880"/>
</a>
</g>
</g>
<!-- Node7&#45;&gt;Node6 -->
<g id="edge6_Node000006_Node000007" class="edge">
<title>Node7&#45;&gt;Node6</title>
<g id="a_edge6_Node000006_Node000007"><a xlink:title=" ">
<path fill="none" stroke="#63b8ff" d="M345.65,-868.7C350.76,-784.61 357.06,-681.05 361.77,-603.65"/>
<polygon fill="none" stroke="#63b8ff" points="342.15,-868.47 345.04,-878.66 349.14,-868.89 342.15,-868.47"/>
</a>
</g>
</g>
<!-- Node8 -->
<g id="Node000008" class="node">
<title>Node8</title>
<g id="a_Node000008"><a xlink:href="class_email.html" target="_top" xlink:title="Represents an email address.">
<polygon fill="white" stroke="none" points="466.25,-1132 395,-1132 395,-904 466.25,-904 466.25,-1132"/>
<text text-anchor="start" x="418.25" y="-1118.5" font-family="Helvetica,sans-Serif" font-size="10.00">Email</text>
<text text-anchor="start" x="400.5" y="-1102.5" font-family="Helvetica,sans-Serif" font-size="10.00">&#45;</text>
<text text-anchor="start" x="409" y="-1102.5" font-family="Helvetica,sans-Serif" font-size="10.00">email_</text>
<text text-anchor="start" x="399" y="-1086.5" font-family="Helvetica,sans-Serif" font-size="10.00">+</text>
<text text-anchor="start" x="409" y="-1086.5" font-family="Helvetica,sans-Serif" font-size="10.00">Email()</text>
<text text-anchor="start" x="399" y="-1070.5" font-family="Helvetica,sans-Serif" font-size="10.00">+</text>
<text text-anchor="start" x="409" y="-1070.5" font-family="Helvetica,sans-Serif" font-size="10.00">Email()</text>
<text text-anchor="start" x="399" y="-1054.5" font-family="Helvetica,sans-Serif" font-size="10.00">+</text>
<text text-anchor="start" x="409" y="-1054.5" font-family="Helvetica,sans-Serif" font-size="10.00">Email()</text>
<text text-anchor="start" x="399" y="-1038.5" font-family="Helvetica,sans-Serif" font-size="10.00">+</text>
<text text-anchor="start" x="409" y="-1038.5" font-family="Helvetica,sans-Serif" font-size="10.00">Email()</text>
<text text-anchor="start" x="399" y="-1022.5" font-family="Helvetica,sans-Serif" font-size="10.00">+</text>
<text text-anchor="start" x="409" y="-1022.5" font-family="Helvetica,sans-Serif" font-size="10.00">Email()</text>
<text text-anchor="start" x="399" y="-1006.5" font-family="Helvetica,sans-Serif" font-size="10.00">+</text>
<text text-anchor="start" x="409" y="-1006.5" font-family="Helvetica,sans-Serif" font-size="10.00">operator=()</text>
<text text-anchor="start" x="399" y="-990.5" font-family="Helvetica,sans-Serif" font-size="10.00">+</text>
<text text-anchor="start" x="409" y="-990.5" font-family="Helvetica,sans-Serif" font-size="10.00">operator=()</text>
<text text-anchor="start" x="399" y="-974.5" font-family="Helvetica,sans-Serif" font-size="10.00">+</text>
<text text-anchor="start" x="409" y="-974.5" font-family="Helvetica,sans-Serif" font-size="10.00">operator==()</text>
<text text-anchor="start" x="399" y="-958.5" font-family="Helvetica,sans-Serif" font-size="10.00">+</text>
<text text-anchor="start" x="409" y="-958.5" font-family="Helvetica,sans-Serif" font-size="10.00">get_email()</text>
<text text-anchor="start" x="399" y="-942.5" font-family="Helvetica,sans-Serif" font-size="10.00">+</text>
<text text-anchor="start" x="409" y="-942.5" font-family="Helvetica,sans-Serif" font-size="10.00">set_email()</text>
<text text-anchor="start" x="399" y="-926.5" font-family="Helvetica,sans-Serif" font-size="10.00">+</text>
<text text-anchor="start" x="409" y="-926.5" font-family="Helvetica,sans-Serif" font-size="10.00">copy()</text>
<text text-anchor="start" x="399" y="-910.5" font-family="Helvetica,sans-Serif" font-size="10.00">+</text>
<text text-anchor="start" x="409" y="-910.5" font-family="Helvetica,sans-Serif" font-size="10.00">~Email()</text>
<polygon fill="#666666" stroke="#666666" points="395,-1114 395,-1114 466.25,-1114 466.25,-1114 395,-1114"/>
<polygon fill="#666666" stroke="#666666" points="395,-1098 395,-1098 407,-1098 407,-1098 395,-1098"/>
<polygon fill="#666666" stroke="#666666" points="407,-1098 407,-1098 466.25,-1098 466.25,-1098 407,-1098"/>
<polygon fill="none" stroke="#666666" points="395,-904 395,-1132 466.25,-1132 466.25,-904 395,-904"/>
</a>
</g>
</g>
<!-- Node8&#45;&gt;Node6 -->
<g id="edge7_Node000006_Node000008" class="edge">
<title>Node8&#45;&gt;Node6</title>
<g id="a_edge7_Node000006_Node000008"><a xlink:title=" ">
<path fill="none" stroke="#63b8ff" d="M417.32,-904.16C407.36,-819.66 393.74,-704.05 383.43,-616.62"/>
<polygon fill="none" stroke="#63b8ff" points="383.41,-616.47 378.74,-610.98 382.01,-604.55 386.68,-610.04 383.41,-616.47"/>
</a>
</g>
<text text-anchor="middle" x="430.68" y="-852.5" font-family="Helvetica,sans-Serif" font-size="10.00" fill="grey"> #email_</text>
</g>
<!-- Node9 -->
<g id="Node000009" class="node">
<title>Node9</title>
<g id="a_Node000009"><a xlink:href="class_contacts.html" target="_top" xlink:title="Base class for contact&#45;related utilities.">
<polygon fill="white" stroke="none" points="481.62,-1245 379.62,-1245 379.62,-1193 481.62,-1193 481.62,-1245"/>
<text text-anchor="start" x="410.75" y="-1231.5" font-family="Helvetica,sans-Serif" font-size="10.00">Contacts</text>
<text text-anchor="start" x="429.12" y="-1215.5" font-family="Helvetica,sans-Serif" font-size="10.00"> </text>
<text text-anchor="start" x="383.62" y="-1199.5" font-family="Helvetica,sans-Serif" font-size="10.00">#</text>
<text text-anchor="start" x="392.88" y="-1199.5" font-family="Helvetica,sans-Serif" font-size="10.00">copy_to_clipboard()</text>
<polygon fill="#666666" stroke="#666666" points="379.62,-1227 379.62,-1227 481.62,-1227 481.62,-1227 379.62,-1227"/>
<polygon fill="#666666" stroke="#666666" points="379.62,-1211 379.62,-1211 481.62,-1211 481.62,-1211 379.62,-1211"/>
<polygon fill="none" stroke="#666666" points="379.62,-1193 379.62,-1245 481.62,-1245 481.62,-1193 379.62,-1193"/>
</a>
</g>
</g>
<!-- Node9&#45;&gt;Node8 -->
<g id="edge8_Node000008_Node000009" class="edge">
<title>Node9&#45;&gt;Node8</title>
<g id="a_edge8_Node000008_Node000009"><a xlink:title=" ">
<path fill="none" stroke="#63b8ff" d="M430.62,-1181.85C430.62,-1167.41 430.62,-1149.94 430.62,-1131.87"/>
<polygon fill="none" stroke="#63b8ff" points="427.13,-1181.69 430.63,-1191.69 434.13,-1181.69 427.13,-1181.69"/>
</a>
</g>
</g>
</g>
</svg>

<g id="navigator" transform="translate(0 0)" fill="#404254">
  <rect fill="#f2f5e9" fill-opacity="0.5" stroke="#606060" stroke-width=".5" x="0" y="0" width="60" height="60"/>
  <use id="zoomplus" xlink:href="#zoomPlus" x="17" y="9" onmousedown="handleZoom(evt,'in')"/>
  <use id="zoomminus" xlink:href="#zoomMin" x="42" y="9" onmousedown="handleZoom(evt,'out')"/>
  <use id="reset" xlink:href="#resetDef" x="30" y="36" onmousedown="handleReset()"/>
   <use id="arrowup" xlink:href="#arrowUp" x="0" y="0" onmousedown="handlePan(0,-1)"/>
  <use id="arrowright" xlink:href="#arrowRight" x="0" y="0" onmousedown="handlePan(1,0)"/>
  <use id="arrowdown" xlink:href="#arrowDown" x="0" y="0" onmousedown="handlePan(0,1)"/>
  <use id="arrowleft" xlink:href="#arrowLeft" x="0" y="0" onmousedown="handlePan(-1,0)"/>
</g>
<svg viewBox="0 0 15 15" width="100%" height="30px" preserveAspectRatio="xMaxYMin meet">
 <g id="arrow_out" transform="scale(0.3 0.3)">
  <a xlink:href="class_parent_dialog__coll__graph_org.svg" target="_base">
   <rect id="button" ry="5" rx="5" y="6" x="6" height="38" width="38"
        fill="#f2f5e9" fill-opacity="0.5" stroke="#606060" stroke-width="1.0"/>
   <path id="arrow"
     d="M 11.500037,31.436501 C 11.940474,20.09759 22.043105,11.32322 32.158766,21.979434 L 37.068811,17.246167 C 37.068811,17.246167 37.088388,32 37.088388,32 L 22.160133,31.978069 C 22.160133,31.978069 26.997745,27.140456 26.997745,27.140456 C 18.528582,18.264221 13.291696,25.230495 11.500037,31.436501 z"
     style="fill:#404040;"/>
  </a>
 </g>
</svg>

<style type='text/css'>
<![CDATA[
[data-mouse-over-selected='false'] { opacity: 0.7; }
[data-mouse-over-selected='true']  { opacity: 1.0; }
]]>
</style>
<script type="application/ecmascript"><![CDATA[
document.addEventListener('DOMContentLoaded', (event) => {
  highlightEdges();
  highlightAdjacentNodes();
});
]]></script>
</svg>
