<?xml version="1.0" encoding="UTF-8" standalone="no"?>
<!DOCTYPE svg PUBLIC "-//W3C//DTD SVG 1.1//EN"
 "http://www.w3.org/Graphics/SVG/1.1/DTD/svg11.dtd">
<!-- Generated by graphviz version 12.2.1 (20241206.2353)
 -->
<!-- Title: ParentEntry::setup_parent Pages: 1 -->
<svg width="271pt" height="166pt"
 viewBox="0.00 0.00 271.00 166.00" xmlns="http://www.w3.org/2000/svg" xmlns:xlink="http://www.w3.org/1999/xlink">
<g id="graph0" class="graph" transform="scale(1 1) rotate(0) translate(4 162)">
<title>ParentEntry::setup_parent</title>
<!-- Node1 -->
<g id="Node000001" class="node">
<title>Node1</title>
<g id="a_Node000001"><a xlink:title="Sets up the parent entry widget.">
<polygon fill="#999999" stroke="#666666" points="97.75,-98 0,-98 0,-66 97.75,-66 97.75,-98"/>
<text text-anchor="start" x="8" y="-84.5" font-family="Helvetica,sans-Serif" font-size="10.00">ParentEntry::setup</text>
<text text-anchor="middle" x="48.88" y="-72.5" font-family="Helvetica,sans-Serif" font-size="10.00">_parent</text>
</a>
</g>
</g>
<!-- Node2 -->
<g id="Node000002" class="node">
<title>Node2</title>
<g id="a_Node000002"><a xlink:href="class_person_label.html#aa2a831964f915778bba70329d5e8c7c9" target="_top" xlink:title="Signal emitted when the person label is clicked.">
<polygon fill="white" stroke="#666666" points="263,-158 133.75,-158 133.75,-138 263,-138 263,-158"/>
<text text-anchor="middle" x="198.38" y="-144.5" font-family="Helvetica,sans-Serif" font-size="10.00">PersonLabel::childClicked</text>
</a>
</g>
</g>
<!-- Node1&#45;&gt;Node2 -->
<g id="edge1_Node000001_Node000002" class="edge">
<title>Node1&#45;&gt;Node2</title>
<g id="a_edge1_Node000001_Node000002"><a xlink:title=" ">
<path fill="none" stroke="#63b8ff" d="M75.57,-98.35C91.79,-108.18 113.46,-120.41 133.75,-129 137.99,-130.79 142.46,-132.49 146.97,-134.08"/>
<polygon fill="#63b8ff" stroke="#63b8ff" points="145.5,-137.28 156.09,-137.1 147.7,-130.63 145.5,-137.28"/>
</a>
</g>
</g>
<!-- Node3 -->
<g id="Node000003" class="node">
<title>Node3</title>
<g id="a_Node000003"><a xlink:href="class_parent_entry.html#a45e22d202e52c9dbc7e7e72575dc0e91" target="_top" xlink:title="Signal emitted when a child search is requested.">
<polygon fill="white" stroke="#666666" points="260.75,-120 136,-120 136,-88 260.75,-88 260.75,-120"/>
<text text-anchor="start" x="144" y="-106.5" font-family="Helvetica,sans-Serif" font-size="10.00">ParentEntry::childSearch</text>
<text text-anchor="middle" x="198.38" y="-94.5" font-family="Helvetica,sans-Serif" font-size="10.00">Requested</text>
</a>
</g>
</g>
<!-- Node1&#45;&gt;Node3 -->
<g id="edge2_Node000001_Node000003" class="edge">
<title>Node1&#45;&gt;Node3</title>
<g id="a_edge2_Node000001_Node000003"><a xlink:title=" ">
<path fill="none" stroke="#63b8ff" d="M98.17,-89.2C106.56,-90.45 115.45,-91.78 124.33,-93.1"/>
<polygon fill="#63b8ff" stroke="#63b8ff" points="123.62,-96.54 134.03,-94.55 124.65,-89.61 123.62,-96.54"/>
</a>
</g>
</g>
<!-- Node4 -->
<g id="Node000004" class="node">
<title>Node4</title>
<g id="a_Node000004"><a xlink:href="class_clickable_label.html#aba68cb811a595c6d90f5c994f2b31f4b" target="_top" xlink:title="Signal emitted when the label is clicked.">
<polygon fill="white" stroke="#666666" points="256.62,-70 140.12,-70 140.12,-50 256.62,-50 256.62,-70"/>
<text text-anchor="middle" x="198.38" y="-56.5" font-family="Helvetica,sans-Serif" font-size="10.00">ClickableLabel::clicked</text>
</a>
</g>
</g>
<!-- Node1&#45;&gt;Node4 -->
<g id="edge3_Node000001_Node000004" class="edge">
<title>Node1&#45;&gt;Node4</title>
<g id="a_edge3_Node000001_Node000004"><a xlink:title=" ">
<path fill="none" stroke="#63b8ff" d="M98.17,-74.8C107.92,-73.34 118.35,-71.79 128.64,-70.25"/>
<polygon fill="#63b8ff" stroke="#63b8ff" points="128.85,-73.76 138.22,-68.82 127.82,-66.84 128.85,-73.76"/>
</a>
</g>
</g>
<!-- Node5 -->
<g id="Node000005" class="node">
<title>Node5</title>
<g id="a_Node000005"><a xlink:href="class_parent_entry.html#a2c318ff837a37003040fdbd43838a573" target="_top" xlink:title="Handles the email label click event.">
<polygon fill="white" stroke="#666666" points="246.88,-32 149.88,-32 149.88,0 246.88,0 246.88,-32"/>
<text text-anchor="start" x="157.88" y="-18.5" font-family="Helvetica,sans-Serif" font-size="10.00">ParentEntry::email</text>
<text text-anchor="middle" x="198.38" y="-6.5" font-family="Helvetica,sans-Serif" font-size="10.00">_clicked</text>
</a>
</g>
</g>
<!-- Node1&#45;&gt;Node5 -->
<g id="edge4_Node000001_Node000005" class="edge">
<title>Node1&#45;&gt;Node5</title>
<g id="a_edge4_Node000001_Node000005"><a xlink:title=" ">
<path fill="none" stroke="#63b8ff" d="M81.85,-65.62C97.38,-57.86 116.39,-48.64 133.75,-41 136.91,-39.61 140.17,-38.21 143.47,-36.83"/>
<polygon fill="#63b8ff" stroke="#63b8ff" points="144.74,-40.09 152.66,-33.06 142.08,-33.62 144.74,-40.09"/>
</a>
</g>
</g>
</g>
</svg>
