<?xml version="1.0" encoding="UTF-8" standalone="no"?>
<!DOCTYPE svg PUBLIC "-//W3C//DTD SVG 1.1//EN"
 "http://www.w3.org/Graphics/SVG/1.1/DTD/svg11.dtd">
<!-- Generated by graphviz version 12.2.1 (20241206.2353)
 -->
<!-- Title: Time::update_time Pages: 1 -->
<svg width="367pt" height="218pt"
 viewBox="0.00 0.00 367.25 218.00" xmlns="http://www.w3.org/2000/svg" xmlns:xlink="http://www.w3.org/1999/xlink">

<svg id="main" version="1.1" xmlns="http://www.w3.org/2000/svg" xmlns:xlink="http://www.w3.org/1999/xlink" xml:space="preserve">

<style type="text/css"><![CDATA[
.node, .edge {opacity: 0.7;}
.node.selected, .edge.selected {opacity: 1;}
.edge:hover path { stroke: red; }
.edge:hover polygon { stroke: red; fill: red; }
]]></style>
<script type="application/ecmascript" xlink:href="svg.min.js"/>
<svg id="graph" class="graph">
<g id="graph0" class="graph" transform="scale(1 1) rotate(0) translate(4 214)">
<title>Time::update_time</title>
<!-- Node1 -->
<g id="Node000001" class="node">
<title>Node1</title>
<g id="a_Node000001"><a xlink:title="Updates the time based on intervals of 15 minutes.">
<polygon fill="#999999" stroke="#666666" points="359.25,-115 262.25,-115 262.25,-95 359.25,-95 359.25,-115"/>
<text text-anchor="middle" x="310.75" y="-101.5" font-family="Helvetica,sans-Serif" font-size="10.00">Time::update_time</text>
</a>
</g>
</g>
<!-- Node2 -->
<g id="Node000002" class="node">
<title>Node2</title>
<g id="a_Node000002"><a xlink:href="class_time.html#a9ef9536d0f26494fbaf22d9c15972c4e" target="_top" xlink:title="Updates the time zone.">
<polygon fill="white" stroke="#666666" points="226.25,-115 127,-115 127,-95 226.25,-95 226.25,-115"/>
<text text-anchor="middle" x="176.62" y="-101.5" font-family="Helvetica,sans-Serif" font-size="10.00">Time::update_zone</text>
</a>
</g>
</g>
<!-- Node1&#45;&gt;Node2 -->
<g id="edge1_Node000001_Node000002" class="edge">
<title>Node1&#45;&gt;Node2</title>
<g id="a_edge1_Node000001_Node000002"><a xlink:title=" ">
<path fill="none" stroke="#63b8ff" d="M250.77,-105C242.69,-105 234.47,-105 226.59,-105"/>
<polygon fill="#63b8ff" stroke="#63b8ff" points="250.54,-108.5 260.54,-105 250.54,-101.5 250.54,-108.5"/>
</a>
</g>
</g>
<!-- Node3 -->
<g id="Node000003" class="node">
<title>Node3</title>
<g id="a_Node000003"><a xlink:href="class_time.html#a3dee842a041ca4e8d9c1e9eb267b3801" target="_top" xlink:title=" ">
<polygon fill="white" stroke="#666666" points="88,-210 3,-210 3,-190 88,-190 88,-210"/>
<text text-anchor="middle" x="45.5" y="-196.5" font-family="Helvetica,sans-Serif" font-size="10.00">Time::operator&lt;</text>
</a>
</g>
</g>
<!-- Node2&#45;&gt;Node3 -->
<g id="edge2_Node000002_Node000003" class="edge">
<title>Node2&#45;&gt;Node3</title>
<g id="a_edge2_Node000002_Node000003"><a xlink:title=" ">
<path fill="none" stroke="#63b8ff" d="M158.81,-123.2C142.66,-139.89 116.95,-164.46 91,-181 85.9,-184.25 80.15,-187.18 74.52,-189.7"/>
<polygon fill="#63b8ff" stroke="#63b8ff" points="160.95,-126.04 165.3,-116.37 155.87,-121.22 160.95,-126.04"/>
</a>
</g>
</g>
<!-- Node4 -->
<g id="Node000004" class="node">
<title>Node4</title>
<g id="a_Node000004"><a xlink:href="class_time.html#ad4f6e1d73590a2c89aa5d80813f74ab1" target="_top" xlink:title=" ">
<polygon fill="white" stroke="#666666" points="91,-172 0,-172 0,-152 91,-152 91,-172"/>
<text text-anchor="middle" x="45.5" y="-158.5" font-family="Helvetica,sans-Serif" font-size="10.00">Time::operator&lt;=</text>
</a>
</g>
</g>
<!-- Node2&#45;&gt;Node4 -->
<g id="edge3_Node000002_Node000004" class="edge">
<title>Node2&#45;&gt;Node4</title>
<g id="a_edge3_Node000002_Node000004"><a xlink:title=" ">
<path fill="none" stroke="#63b8ff" d="M142.48,-120.05C126.89,-127.09 108.02,-135.55 91,-143 84.54,-145.83 77.52,-148.85 71.02,-151.63"/>
<polygon fill="#63b8ff" stroke="#63b8ff" points="143.64,-123.37 151.31,-116.06 140.76,-116.99 143.64,-123.37"/>
</a>
</g>
</g>
<!-- Node5 -->
<g id="Node000005" class="node">
<title>Node5</title>
<g id="a_Node000005"><a xlink:href="class_time.html#a358022173825bc5eb75e2101df0f78e4" target="_top" xlink:title=" ">
<polygon fill="white" stroke="#666666" points="91,-134 0,-134 0,-114 91,-114 91,-134"/>
<text text-anchor="middle" x="45.5" y="-120.5" font-family="Helvetica,sans-Serif" font-size="10.00">Time::operator==</text>
</a>
</g>
</g>
<!-- Node2&#45;&gt;Node5 -->
<g id="edge4_Node000002_Node000005" class="edge">
<title>Node2&#45;&gt;Node5</title>
<g id="a_edge4_Node000002_Node000005"><a xlink:title=" ">
<path fill="none" stroke="#63b8ff" d="M115.66,-113.82C107.41,-115.04 99.05,-116.27 91.14,-117.43"/>
<polygon fill="#63b8ff" stroke="#63b8ff" points="115.93,-117.32 125.31,-112.4 114.91,-110.4 115.93,-117.32"/>
</a>
</g>
</g>
<!-- Node6 -->
<g id="Node000006" class="node">
<title>Node6</title>
<g id="a_Node000006"><a xlink:href="class_time.html#aca20d7c5d322ab8e950cddf64572a7d3" target="_top" xlink:title=" ">
<polygon fill="white" stroke="#666666" points="88,-96 3,-96 3,-76 88,-76 88,-96"/>
<text text-anchor="middle" x="45.5" y="-82.5" font-family="Helvetica,sans-Serif" font-size="10.00">Time::operator&gt;</text>
</a>
</g>
</g>
<!-- Node2&#45;&gt;Node6 -->
<g id="edge5_Node000002_Node000006" class="edge">
<title>Node2&#45;&gt;Node6</title>
<g id="a_edge5_Node000002_Node000006"><a xlink:title=" ">
<path fill="none" stroke="#63b8ff" d="M115.62,-96.17C106.35,-94.81 96.96,-93.42 88.21,-92.14"/>
<polygon fill="#63b8ff" stroke="#63b8ff" points="114.91,-99.6 125.31,-97.6 115.93,-92.68 114.91,-99.6"/>
</a>
</g>
</g>
<!-- Node7 -->
<g id="Node000007" class="node">
<title>Node7</title>
<g id="a_Node000007"><a xlink:href="class_time.html#ab8785e557e3d70b465f0487ede95b996" target="_top" xlink:title=" ">
<polygon fill="white" stroke="#666666" points="91,-58 0,-58 0,-38 91,-38 91,-58"/>
<text text-anchor="middle" x="45.5" y="-44.5" font-family="Helvetica,sans-Serif" font-size="10.00">Time::operator&gt;=</text>
</a>
</g>
</g>
<!-- Node2&#45;&gt;Node7 -->
<g id="edge6_Node000002_Node000007" class="edge">
<title>Node2&#45;&gt;Node7</title>
<g id="a_edge6_Node000002_Node000007"><a xlink:title=" ">
<path fill="none" stroke="#63b8ff" d="M142.48,-89.95C126.89,-82.91 108.02,-74.45 91,-67 84.54,-64.17 77.52,-61.15 71.02,-58.37"/>
<polygon fill="#63b8ff" stroke="#63b8ff" points="140.76,-93.01 151.31,-93.94 143.64,-86.63 140.76,-93.01"/>
</a>
</g>
</g>
<!-- Node8 -->
<g id="Node000008" class="node">
<title>Node8</title>
<g id="a_Node000008"><a xlink:href="class_time.html#af188ac5c1b6cb0bd774b761f0bfdc3bd" target="_top" xlink:title="Constructs a Time from hours, minutes, and seconds.">
<polygon fill="white" stroke="#666666" points="78.25,-20 12.75,-20 12.75,0 78.25,0 78.25,-20"/>
<text text-anchor="middle" x="45.5" y="-6.5" font-family="Helvetica,sans-Serif" font-size="10.00">Time::Time</text>
</a>
</g>
</g>
<!-- Node2&#45;&gt;Node8 -->
<g id="edge7_Node000002_Node000008" class="edge">
<title>Node2&#45;&gt;Node8</title>
<g id="a_edge7_Node000002_Node000008"><a xlink:title=" ">
<path fill="none" stroke="#63b8ff" d="M158.81,-86.8C142.66,-70.11 116.95,-45.54 91,-29 85.9,-25.75 80.15,-22.82 74.52,-20.3"/>
<polygon fill="#63b8ff" stroke="#63b8ff" points="155.87,-88.78 165.3,-93.63 160.95,-83.96 155.87,-88.78"/>
</a>
</g>
</g>
</g>
</svg>
</svg>

<style type='text/css'>
<![CDATA[
[data-mouse-over-selected='false'] { opacity: 0.7; }
[data-mouse-over-selected='true']  { opacity: 1.0; }
]]>
</style>
<script type="application/ecmascript"><![CDATA[
document.addEventListener('DOMContentLoaded', (event) => {
  highlightEdges();
  highlightAdjacentNodes();
});
]]></script>
</svg>
