<?xml version="1.0" encoding="UTF-8" standalone="no"?>
<!DOCTYPE svg PUBLIC "-//W3C//DTD SVG 1.1//EN"
 "http://www.w3.org/Graphics/SVG/1.1/DTD/svg11.dtd">
<!-- Generated by graphviz version 12.2.1 (20241206.2353)
 -->
<!-- Title: ParentEntry::ParentEntry Pages: 1 -->
<svg width="428pt" height="166pt"
 viewBox="0.00 0.00 428.00 166.00" xmlns="http://www.w3.org/2000/svg" xmlns:xlink="http://www.w3.org/1999/xlink">

<svg id="main" version="1.1" xmlns="http://www.w3.org/2000/svg" xmlns:xlink="http://www.w3.org/1999/xlink" xml:space="preserve">

<style type="text/css"><![CDATA[
.node, .edge {opacity: 0.7;}
.node.selected, .edge.selected {opacity: 1;}
.edge:hover path { stroke: red; }
.edge:hover polygon { stroke: red; fill: red; }
]]></style>
<script type="application/ecmascript" xlink:href="svg.min.js"/>
<svg id="graph" class="graph">
<g id="graph0" class="graph" transform="scale(1 1) rotate(0) translate(4 162)">
<title>ParentEntry::ParentEntry</title>
<!-- Node1 -->
<g id="Node000001" class="node">
<title>Node1</title>
<g id="a_Node000001"><a xlink:title="Constructs a ParentEntry widget.">
<polygon fill="#999999" stroke="#666666" points="125.5,-92 0,-92 0,-72 125.5,-72 125.5,-92"/>
<text text-anchor="middle" x="62.75" y="-78.5" font-family="Helvetica,sans-Serif" font-size="10.00">ParentEntry::ParentEntry</text>
</a>
</g>
</g>
<!-- Node2 -->
<g id="Node000002" class="node">
<title>Node2</title>
<g id="a_Node000002"><a xlink:href="class_parent_entry.html#afbc19a7aa219add3dd8efa219c1b713d" target="_top" xlink:title="Sets up the parent entry widget.">
<polygon fill="white" stroke="#666666" points="259.25,-98 161.5,-98 161.5,-66 259.25,-66 259.25,-98"/>
<text text-anchor="start" x="169.5" y="-84.5" font-family="Helvetica,sans-Serif" font-size="10.00">ParentEntry::setup</text>
<text text-anchor="middle" x="210.38" y="-72.5" font-family="Helvetica,sans-Serif" font-size="10.00">_parent</text>
</a>
</g>
</g>
<!-- Node1&#45;&gt;Node2 -->
<g id="edge1_Node000001_Node000002" class="edge">
<title>Node1&#45;&gt;Node2</title>
<g id="a_edge1_Node000001_Node000002"><a xlink:title=" ">
<path fill="none" stroke="#63b8ff" d="M125.93,-82C133.83,-82 141.89,-82 149.74,-82"/>
<polygon fill="#63b8ff" stroke="#63b8ff" points="149.54,-85.5 159.54,-82 149.54,-78.5 149.54,-85.5"/>
</a>
</g>
</g>
<!-- Node3 -->
<g id="Node000003" class="node">
<title>Node3</title>
<g id="a_Node000003"><a xlink:href="class_child_label.html#a5ca1704a24e5c456ac1f5b72bf25d05d" target="_top" xlink:title="Signal emitted when the child label is clicked.">
<polygon fill="white" stroke="#666666" points="418.12,-158 297.12,-158 297.12,-138 418.12,-138 418.12,-158"/>
<text text-anchor="middle" x="357.62" y="-144.5" font-family="Helvetica,sans-Serif" font-size="10.00">ChildLabel::childClicked</text>
</a>
</g>
</g>
<!-- Node2&#45;&gt;Node3 -->
<g id="edge2_Node000002_Node000003" class="edge">
<title>Node2&#45;&gt;Node3</title>
<g id="a_edge2_Node000002_Node000003"><a xlink:title=" ">
<path fill="none" stroke="#63b8ff" d="M237.1,-98.28C253.34,-108.08 275,-120.31 295.25,-129 299.29,-130.73 303.53,-132.38 307.83,-133.93"/>
<polygon fill="#63b8ff" stroke="#63b8ff" points="306.49,-137.17 317.09,-137.09 308.75,-130.55 306.49,-137.17"/>
</a>
</g>
</g>
<!-- Node4 -->
<g id="Node000004" class="node">
<title>Node4</title>
<g id="a_Node000004"><a xlink:href="class_parent_entry.html#a45e22d202e52c9dbc7e7e72575dc0e91" target="_top" xlink:title="Signal emitted when a child search is requested.">
<polygon fill="white" stroke="#666666" points="420,-120 295.25,-120 295.25,-88 420,-88 420,-120"/>
<text text-anchor="start" x="303.25" y="-106.5" font-family="Helvetica,sans-Serif" font-size="10.00">ParentEntry::childSearch</text>
<text text-anchor="middle" x="357.62" y="-94.5" font-family="Helvetica,sans-Serif" font-size="10.00">Requested</text>
</a>
</g>
</g>
<!-- Node2&#45;&gt;Node4 -->
<g id="edge3_Node000002_Node000004" class="edge">
<title>Node2&#45;&gt;Node4</title>
<g id="a_edge3_Node000002_Node000004"><a xlink:title=" ">
<path fill="none" stroke="#63b8ff" d="M259.74,-89.33C267.37,-90.48 275.4,-91.7 283.44,-92.92"/>
<polygon fill="#63b8ff" stroke="#63b8ff" points="282.87,-96.37 293.28,-94.41 283.92,-89.45 282.87,-96.37"/>
</a>
</g>
</g>
<!-- Node5 -->
<g id="Node000005" class="node">
<title>Node5</title>
<g id="a_Node000005"><a xlink:href="class_clickable_label.html#aba68cb811a595c6d90f5c994f2b31f4b" target="_top" xlink:title="Signal emitted when the label is clicked.">
<polygon fill="white" stroke="#666666" points="415.88,-70 299.38,-70 299.38,-50 415.88,-50 415.88,-70"/>
<text text-anchor="middle" x="357.62" y="-56.5" font-family="Helvetica,sans-Serif" font-size="10.00">ClickableLabel::clicked</text>
</a>
</g>
</g>
<!-- Node2&#45;&gt;Node5 -->
<g id="edge4_Node000002_Node000005" class="edge">
<title>Node2&#45;&gt;Node5</title>
<g id="a_edge4_Node000002_Node000005"><a xlink:title=" ">
<path fill="none" stroke="#63b8ff" d="M259.74,-74.67C268.66,-73.32 278.13,-71.89 287.52,-70.47"/>
<polygon fill="#63b8ff" stroke="#63b8ff" points="288.03,-73.93 297.4,-68.97 286.98,-67.01 288.03,-73.93"/>
</a>
</g>
</g>
<!-- Node6 -->
<g id="Node000006" class="node">
<title>Node6</title>
<g id="a_Node000006"><a xlink:href="class_parent_entry.html#a2c318ff837a37003040fdbd43838a573" target="_top" xlink:title="Handles the email label click event.">
<polygon fill="white" stroke="#666666" points="406.12,-32 309.12,-32 309.12,0 406.12,0 406.12,-32"/>
<text text-anchor="start" x="317.12" y="-18.5" font-family="Helvetica,sans-Serif" font-size="10.00">ParentEntry::email</text>
<text text-anchor="middle" x="357.62" y="-6.5" font-family="Helvetica,sans-Serif" font-size="10.00">_clicked</text>
</a>
</g>
</g>
<!-- Node2&#45;&gt;Node6 -->
<g id="edge5_Node000002_Node000006" class="edge">
<title>Node2&#45;&gt;Node6</title>
<g id="a_edge5_Node000002_Node000006"><a xlink:title=" ">
<path fill="none" stroke="#63b8ff" d="M243.79,-65.52C259.26,-57.82 278.09,-48.68 295.25,-41 298.35,-39.61 301.56,-38.21 304.8,-36.82"/>
<polygon fill="#63b8ff" stroke="#63b8ff" points="305.95,-40.13 313.8,-33.02 303.23,-33.68 305.95,-40.13"/>
</a>
</g>
</g>
</g>
</svg>
</svg>

<style type='text/css'>
<![CDATA[
[data-mouse-over-selected='false'] { opacity: 0.7; }
[data-mouse-over-selected='true']  { opacity: 1.0; }
]]>
</style>
<script type="application/ecmascript"><![CDATA[
document.addEventListener('DOMContentLoaded', (event) => {
  highlightEdges();
  highlightAdjacentNodes();
});
]]></script>
</svg>
