<?xml version="1.0" encoding="UTF-8" standalone="no"?>
<!DOCTYPE svg PUBLIC "-//W3C//DTD SVG 1.1//EN"
 "http://www.w3.org/Graphics/SVG/1.1/DTD/svg11.dtd">
<!-- Generated by graphviz version 12.2.1 (20241206.2353)
 -->
<!-- Title: DateTime::print_short Pages: 1 -->
<!--zoomable 218 -->

<svg id="main" version="1.1" xmlns="http://www.w3.org/2000/svg" xmlns:xlink="http://www.w3.org/1999/xlink" xml:space="preserve" onload="init(evt)">

<style type="text/css"><![CDATA[
.node, .edge {opacity: 0.7;}
.node.selected, .edge.selected {opacity: 1;}
.edge:hover path { stroke: red; }
.edge:hover polygon { stroke: red; fill: red; }
]]></style>

<defs>
  <circle id="rim" cx="0" cy="0" r="7"/>
  <circle id="rim2" cx="0" cy="0" r="3.5"/>
  <g id="zoomPlus">
    <use xlink:href="#rim" fill="#404040"><set attributeName="fill" to="#808080" begin="zoomplus.mouseover" end="zoomplus.mouseout"/></use>
    <path d="M-4,0h8M0,-4v8" fill="none" stroke="white" stroke-width="1.5" pointer-events="none"/>
  </g>
  <g id="zoomMin">
    <use xlink:href="#rim" fill="#404040"><set attributeName="fill" to="#808080" begin="zoomminus.mouseover" end="zoomminus.mouseout"/></use>
    <path d="M-4,0h8" fill="none" stroke="white" stroke-width="1.5" pointer-events="none"/>
  </g>
  <g id="arrowUp" transform="translate(30 24)">
    <use xlink:href="#rim"/>
    <path pointer-events="none" fill="none" stroke="white" stroke-width="1.5" d="M0,-3.0v7 M-2.5,-0.5L0,-3.0L2.5,-0.5"/>
  </g>
  <g id="arrowRight" transform="rotate(90) translate(36 -43)">
    <use xlink:href="#rim"/>
    <path pointer-events="none" fill="none" stroke="white" stroke-width="1.5" d="M0,-3.0v7 M-2.5,-0.5L0,-3.0L2.5,-0.5"/>
  </g>
  <g id="arrowDown" transform="rotate(180) translate(-30 -48)">
    <use xlink:href="#rim"/>
    <path pointer-events="none" fill="none" stroke="white" stroke-width="1.5" d="M0,-3.0v7 M-2.5,-0.5L0,-3.0L2.5,-0.5"/>
  </g>
  <g id="arrowLeft" transform="rotate(270) translate(-36 17)">
    <use xlink:href="#rim"/>
    <path pointer-events="none" fill="none" stroke="white" stroke-width="1.5" d="M0,-3.0v7 M-2.5,-0.5L0,-3.0L2.5,-0.5"/>
  </g>
  <g id="resetDef">
    <use xlink:href="#rim2" fill="#404040"><set attributeName="fill" to="#808080" begin="reset.mouseover" end="reset.mouseout"/></use>
  </g>
</defs>
<script type="application/ecmascript">
var viewWidth = 526;
var viewHeight = 218;
var sectionId = 'dynsection-22';
</script>
<script type="application/ecmascript" xlink:href="svg.min.js"/>
<svg id="graph" class="graph">
<g id="viewport">
<title>DateTime::print_short</title>
<!-- Node1 -->
<g id="Node000001" class="node">
<title>Node1</title>
<g id="a_Node000001"><a xlink:title="Prints the date and time in a short format.">
<polygon fill="#999999" stroke="#666666" points="110.5,-106 0,-106 0,-86 110.5,-86 110.5,-106"/>
<text text-anchor="middle" x="55.25" y="-92.5" font-family="Helvetica,sans-Serif" font-size="10.00">DateTime::print_short</text>
</a>
</g>
</g>
<!-- Node2 -->
<g id="Node000002" class="node">
<title>Node2</title>
<g id="a_Node000002"><a xlink:href="class_date.html#a55db960044bdecc41d808e0185b1ed8f" target="_top" xlink:title="Prints the date in a short format.">
<polygon fill="white" stroke="#666666" points="235.62,-144 146.88,-144 146.88,-124 235.62,-124 235.62,-144"/>
<text text-anchor="middle" x="191.25" y="-130.5" font-family="Helvetica,sans-Serif" font-size="10.00">Date::print_short</text>
</a>
</g>
</g>
<!-- Node1&#45;&gt;Node2 -->
<g id="edge1_Node000001_Node000002" class="edge">
<title>Node1&#45;&gt;Node2</title>
<g id="a_edge1_Node000001_Node000002"><a xlink:title=" ">
<path fill="none" stroke="#63b8ff" d="M93.22,-106.48C108.45,-110.8 126.3,-115.86 142.5,-120.46"/>
<polygon fill="#63b8ff" stroke="#63b8ff" points="141.37,-123.78 151.94,-123.14 143.28,-117.04 141.37,-123.78"/>
</a>
</g>
</g>
<!-- Node7 -->
<g id="Node000007" class="node">
<title>Node7</title>
<g id="a_Node000007"><a xlink:href="class_time.html#a65e4f673e7176b2abc162aab4ae267dc" target="_top" xlink:title="Prints the time in a short format.">
<polygon fill="white" stroke="#666666" points="236,-87 146.5,-87 146.5,-67 236,-67 236,-87"/>
<text text-anchor="middle" x="191.25" y="-73.5" font-family="Helvetica,sans-Serif" font-size="10.00">Time::print_short</text>
</a>
</g>
</g>
<!-- Node1&#45;&gt;Node7 -->
<g id="edge6_Node000001_Node000007" class="edge">
<title>Node1&#45;&gt;Node7</title>
<g id="a_edge6_Node000001_Node000007"><a xlink:title=" ">
<path fill="none" stroke="#63b8ff" d="M110.75,-88.27C118.64,-87.15 126.77,-86 134.67,-84.88"/>
<polygon fill="#63b8ff" stroke="#63b8ff" points="135.14,-88.35 144.55,-83.48 134.16,-81.42 135.14,-88.35"/>
</a>
</g>
</g>
<!-- Node3 -->
<g id="Node000003" class="node">
<title>Node3</title>
<g id="a_Node000003"><a xlink:href="class_date.html#a4a50a2f4e115c9368603a7226c45872b" target="_top" xlink:title="Gets the date as a string.">
<polygon fill="white" stroke="#666666" points="382.12,-153 272.38,-153 272.38,-133 382.12,-133 382.12,-153"/>
<text text-anchor="middle" x="327.25" y="-139.5" font-family="Helvetica,sans-Serif" font-size="10.00">Date::get_date_string</text>
</a>
</g>
</g>
<!-- Node2&#45;&gt;Node3 -->
<g id="edge2_Node000002_Node000003" class="edge">
<title>Node2&#45;&gt;Node3</title>
<g id="a_edge2_Node000002_Node000003"><a xlink:title=" ">
<path fill="none" stroke="#63b8ff" d="M235.76,-136.92C243.74,-137.46 252.24,-138.03 260.7,-138.6"/>
<polygon fill="#63b8ff" stroke="#63b8ff" points="260.45,-142.09 270.67,-139.27 260.92,-135.1 260.45,-142.09"/>
</a>
</g>
</g>
<!-- Node4 -->
<g id="Node000004" class="node">
<title>Node4</title>
<g id="a_Node000004"><a xlink:href="class_date.html#a2e4dc4249f8cccd40acc5950b42e1339" target="_top" xlink:title="Gets the day of the date.">
<polygon fill="white" stroke="#666666" points="506.88,-210 429.38,-210 429.38,-190 506.88,-190 506.88,-210"/>
<text text-anchor="middle" x="468.12" y="-196.5" font-family="Helvetica,sans-Serif" font-size="10.00">Date::get_day</text>
</a>
</g>
</g>
<!-- Node3&#45;&gt;Node4 -->
<g id="edge3_Node000003_Node000004" class="edge">
<title>Node3&#45;&gt;Node4</title>
<g id="a_edge3_Node000003_Node000004"><a xlink:title=" ">
<path fill="none" stroke="#63b8ff" d="M352.69,-153.49C370.81,-161.22 396.13,-171.92 418.5,-181 422.09,-182.46 425.85,-183.96 429.6,-185.45"/>
<polygon fill="#63b8ff" stroke="#63b8ff" points="428.07,-188.61 438.66,-189.02 430.64,-182.1 428.07,-188.61"/>
</a>
</g>
</g>
<!-- Node5 -->
<g id="Node000005" class="node">
<title>Node5</title>
<g id="a_Node000005"><a xlink:href="class_date.html#a81b10f48eadbf944836618d27e8f427a" target="_top" xlink:title="Gets the month of the date.">
<polygon fill="white" stroke="#666666" points="512.5,-172 423.75,-172 423.75,-152 512.5,-152 512.5,-172"/>
<text text-anchor="middle" x="468.12" y="-158.5" font-family="Helvetica,sans-Serif" font-size="10.00">Date::get_month</text>
</a>
</g>
</g>
<!-- Node3&#45;&gt;Node5 -->
<g id="edge4_Node000003_Node000005" class="edge">
<title>Node3&#45;&gt;Node5</title>
<g id="a_edge4_Node000003_Node000005"><a xlink:title=" ">
<path fill="none" stroke="#63b8ff" d="M382.34,-150.4C392.08,-151.73 402.25,-153.12 412.02,-154.46"/>
<polygon fill="#63b8ff" stroke="#63b8ff" points="411.38,-157.91 421.76,-155.79 412.33,-150.97 411.38,-157.91"/>
</a>
</g>
</g>
<!-- Node6 -->
<g id="Node000006" class="node">
<title>Node6</title>
<g id="a_Node000006"><a xlink:href="class_date.html#acda1623a6e13fdbeead7f62d0968d8da" target="_top" xlink:title="Gets the year of the date.">
<polygon fill="white" stroke="#666666" points="508.38,-134 427.88,-134 427.88,-114 508.38,-114 508.38,-134"/>
<text text-anchor="middle" x="468.12" y="-120.5" font-family="Helvetica,sans-Serif" font-size="10.00">Date::get_year</text>
</a>
</g>
</g>
<!-- Node3&#45;&gt;Node6 -->
<g id="edge5_Node000003_Node000006" class="edge">
<title>Node3&#45;&gt;Node6</title>
<g id="a_edge5_Node000003_Node000006"><a xlink:title=" ">
<path fill="none" stroke="#63b8ff" d="M382.34,-135.6C393.53,-134.07 405.28,-132.46 416.35,-130.95"/>
<polygon fill="#63b8ff" stroke="#63b8ff" points="416.65,-134.44 426.09,-129.61 415.71,-127.5 416.65,-134.44"/>
</a>
</g>
</g>
<!-- Node8 -->
<g id="Node000008" class="node">
<title>Node8</title>
<g id="a_Node000008"><a xlink:href="class_time.html#a2c3329584afd2d3f9aeeeeaf7a1298af" target="_top" xlink:title="Gets the time as a string.">
<polygon fill="white" stroke="#666666" points="382.5,-72 272,-72 272,-52 382.5,-52 382.5,-72"/>
<text text-anchor="middle" x="327.25" y="-58.5" font-family="Helvetica,sans-Serif" font-size="10.00">Time::get_time_string</text>
</a>
</g>
</g>
<!-- Node7&#45;&gt;Node8 -->
<g id="edge7_Node000007_Node000008" class="edge">
<title>Node7&#45;&gt;Node8</title>
<g id="a_edge7_Node000007_Node000008"><a xlink:title=" ">
<path fill="none" stroke="#63b8ff" d="M236.5,-72.05C244.17,-71.19 252.29,-70.28 260.38,-69.37"/>
<polygon fill="#63b8ff" stroke="#63b8ff" points="260.72,-72.86 270.26,-68.27 259.94,-65.9 260.72,-72.86"/>
</a>
</g>
</g>
<!-- Node9 -->
<g id="Node000009" class="node">
<title>Node9</title>
<g id="a_Node000009"><a xlink:href="class_time.html#adf39a26857eb05cb2cdb7fc716b37446" target="_top" xlink:title="Gets the hours of the time.">
<polygon fill="white" stroke="#666666" points="511.38,-96 424.88,-96 424.88,-76 511.38,-76 511.38,-96"/>
<text text-anchor="middle" x="468.12" y="-82.5" font-family="Helvetica,sans-Serif" font-size="10.00">Time::get_hours</text>
</a>
</g>
</g>
<!-- Node8&#45;&gt;Node9 -->
<g id="edge8_Node000008_Node000009" class="edge">
<title>Node8&#45;&gt;Node9</title>
<g id="a_edge8_Node000008_Node000009"><a xlink:title=" ">
<path fill="none" stroke="#63b8ff" d="M382.74,-71.42C392.79,-73.15 403.27,-74.97 413.3,-76.7"/>
<polygon fill="#63b8ff" stroke="#63b8ff" points="412.44,-80.1 422.89,-78.36 413.63,-73.2 412.44,-80.1"/>
</a>
</g>
</g>
<!-- Node10 -->
<g id="Node000010" class="node">
<title>Node10</title>
<g id="a_Node000010"><a xlink:href="class_time.html#ad6e9f40abd0fc0dd6a7fc5bf8c624585" target="_top" xlink:title="Gets the minutes of the time.">
<polygon fill="white" stroke="#666666" points="516.62,-58 419.62,-58 419.62,-38 516.62,-38 516.62,-58"/>
<text text-anchor="middle" x="468.12" y="-44.5" font-family="Helvetica,sans-Serif" font-size="10.00">Time::get_minutes</text>
</a>
</g>
</g>
<!-- Node8&#45;&gt;Node10 -->
<g id="edge9_Node000008_Node000010" class="edge">
<title>Node8&#45;&gt;Node10</title>
<g id="a_edge9_Node000008_Node000010"><a xlink:title=" ">
<path fill="none" stroke="#63b8ff" d="M382.74,-56.51C391.1,-55.66 399.76,-54.79 408.21,-53.94"/>
<polygon fill="#63b8ff" stroke="#63b8ff" points="408.45,-57.43 418.04,-52.95 407.74,-50.47 408.45,-57.43"/>
</a>
</g>
</g>
<!-- Node11 -->
<g id="Node000011" class="node">
<title>Node11</title>
<g id="a_Node000011"><a xlink:href="class_time.html#addc7f4c98a8bc263bd05d70710b37a4b" target="_top" xlink:title="Gets the seconds of the time.">
<polygon fill="white" stroke="#666666" points="517.75,-20 418.5,-20 418.5,0 517.75,0 517.75,-20"/>
<text text-anchor="middle" x="468.12" y="-6.5" font-family="Helvetica,sans-Serif" font-size="10.00">Time::get_seconds</text>
</a>
</g>
</g>
<!-- Node8&#45;&gt;Node11 -->
<g id="edge10_Node000008_Node000011" class="edge">
<title>Node8&#45;&gt;Node11</title>
<g id="a_edge10_Node000008_Node000011"><a xlink:title=" ">
<path fill="none" stroke="#63b8ff" d="M356.02,-51.6C376.93,-43.77 405.84,-32.95 428.93,-24.3"/>
<polygon fill="#63b8ff" stroke="#63b8ff" points="429.85,-27.7 437.99,-20.91 427.39,-21.14 429.85,-27.7"/>
</a>
</g>
</g>
</g>
</svg>

<g id="navigator" transform="translate(0 0)" fill="#404254">
  <rect fill="#f2f5e9" fill-opacity="0.5" stroke="#606060" stroke-width=".5" x="0" y="0" width="60" height="60"/>
  <use id="zoomplus" xlink:href="#zoomPlus" x="17" y="9" onmousedown="handleZoom(evt,'in')"/>
  <use id="zoomminus" xlink:href="#zoomMin" x="42" y="9" onmousedown="handleZoom(evt,'out')"/>
  <use id="reset" xlink:href="#resetDef" x="30" y="36" onmousedown="handleReset()"/>
   <use id="arrowup" xlink:href="#arrowUp" x="0" y="0" onmousedown="handlePan(0,-1)"/>
  <use id="arrowright" xlink:href="#arrowRight" x="0" y="0" onmousedown="handlePan(1,0)"/>
  <use id="arrowdown" xlink:href="#arrowDown" x="0" y="0" onmousedown="handlePan(0,1)"/>
  <use id="arrowleft" xlink:href="#arrowLeft" x="0" y="0" onmousedown="handlePan(-1,0)"/>
</g>
<svg viewBox="0 0 15 15" width="100%" height="30px" preserveAspectRatio="xMaxYMin meet">
 <g id="arrow_out" transform="scale(0.3 0.3)">
  <a xlink:href="class_date_time_a6f14b6b8aff8237f5768a8c1f53c026a_cgraph_org.svg" target="_base">
   <rect id="button" ry="5" rx="5" y="6" x="6" height="38" width="38"
        fill="#f2f5e9" fill-opacity="0.5" stroke="#606060" stroke-width="1.0"/>
   <path id="arrow"
     d="M 11.500037,31.436501 C 11.940474,20.09759 22.043105,11.32322 32.158766,21.979434 L 37.068811,17.246167 C 37.068811,17.246167 37.088388,32 37.088388,32 L 22.160133,31.978069 C 22.160133,31.978069 26.997745,27.140456 26.997745,27.140456 C 18.528582,18.264221 13.291696,25.230495 11.500037,31.436501 z"
     style="fill:#404040;"/>
  </a>
 </g>
</svg>

<style type='text/css'>
<![CDATA[
[data-mouse-over-selected='false'] { opacity: 0.7; }
[data-mouse-over-selected='true']  { opacity: 1.0; }
]]>
</style>
<script type="application/ecmascript"><![CDATA[
document.addEventListener('DOMContentLoaded', (event) => {
  highlightEdges();
  highlightAdjacentNodes();
});
]]></script>
</svg>
