<?xml version="1.0" encoding="UTF-8" standalone="no"?>
<!DOCTYPE svg PUBLIC "-//W3C//DTD SVG 1.1//EN"
 "http://www.w3.org/Graphics/SVG/1.1/DTD/svg11.dtd">
<!-- Generated by graphviz version 12.2.1 (20241206.2353)
 -->
<!-- Title: DataBaseGUI::child_remove Pages: 1 -->
<svg width="603pt" height="160pt"
 viewBox="0.00 0.00 603.00 160.00" xmlns="http://www.w3.org/2000/svg" xmlns:xlink="http://www.w3.org/1999/xlink">
<g id="graph0" class="graph" transform="scale(1 1) rotate(0) translate(4 156)">
<title>DataBaseGUI::child_remove</title>
<!-- Node1 -->
<g id="Node000001" class="node">
<title>Node1</title>
<g id="a_Node000001"><a xlink:title="Removes a child from the database.">
<polygon fill="#999999" stroke="#666666" points="103.75,-130 0,-130 0,-98 103.75,-98 103.75,-130"/>
<text text-anchor="start" x="8" y="-116.5" font-family="Helvetica,sans-Serif" font-size="10.00">DataBaseGUI::child</text>
<text text-anchor="middle" x="51.88" y="-104.5" font-family="Helvetica,sans-Serif" font-size="10.00">_remove</text>
</a>
</g>
</g>
<!-- Node2 -->
<g id="Node000002" class="node">
<title>Node2</title>
<g id="a_Node000002"><a xlink:href="$class_data_base_g_u_i.html#aa684465aa73b5b34bbadd24fc7f2f641" xlink:title=" ">
<polygon fill="white" stroke="#666666" points="255.5,-152 139.75,-152 139.75,-120 255.5,-120 255.5,-152"/>
<text text-anchor="start" x="147.75" y="-138.5" font-family="Helvetica,sans-Serif" font-size="10.00">DataBaseGUI::sort_to</text>
<text text-anchor="middle" x="197.62" y="-126.5" font-family="Helvetica,sans-Serif" font-size="10.00">_populate_children_tab</text>
</a>
</g>
</g>
<!-- Node1&#45;&gt;Node2 -->
<g id="edge1_Node000001_Node000002" class="edge">
<title>Node1&#45;&gt;Node2</title>
<g id="a_edge1_Node000001_Node000002"><a xlink:title=" ">
<path fill="none" stroke="#63b8ff" d="M103.96,-121.82C111.75,-123.01 119.89,-124.26 127.98,-125.5"/>
<polygon fill="#63b8ff" stroke="#63b8ff" points="127.43,-128.95 137.85,-127 128.49,-122.03 127.43,-128.95"/>
</a>
</g>
</g>
<!-- Node3 -->
<g id="Node000003" class="node">
<title>Node3</title>
<g id="a_Node000003"><a xlink:href="$class_data_base_g_u_i.html#af346d08370d9e4574980707f61b9c8f7" xlink:title="Populates the children tab with a list of children.">
<polygon fill="white" stroke="#666666" points="411.75,-108 291.5,-108 291.5,-76 411.75,-76 411.75,-108"/>
<text text-anchor="start" x="299.5" y="-94.5" font-family="Helvetica,sans-Serif" font-size="10.00">DataBaseGUI::populate</text>
<text text-anchor="middle" x="351.62" y="-82.5" font-family="Helvetica,sans-Serif" font-size="10.00">_children_tab</text>
</a>
</g>
</g>
<!-- Node2&#45;&gt;Node3 -->
<g id="edge2_Node000002_Node000003" class="edge">
<title>Node2&#45;&gt;Node3</title>
<g id="a_edge2_Node000002_Node000003"><a xlink:title=" ">
<path fill="none" stroke="#63b8ff" d="M255.22,-119.62C264.26,-117 273.7,-114.27 282.96,-111.59"/>
<polygon fill="#63b8ff" stroke="#63b8ff" points="283.64,-115.03 292.27,-108.89 281.69,-108.31 283.64,-115.03"/>
</a>
</g>
</g>
<!-- Node3&#45;&gt;Node1 -->
<g id="edge5_Node000003_Node000001" class="edge">
<title>Node3&#45;&gt;Node1</title>
<g id="a_edge5_Node000003_Node000001"><a xlink:title=" ">
<path fill="none" stroke="#63b8ff" d="M291.16,-96.39C240.25,-100.15 167.2,-105.55 115.42,-109.38"/>
<polygon fill="#63b8ff" stroke="#63b8ff" points="115.28,-105.88 105.57,-110.11 115.8,-112.86 115.28,-105.88"/>
</a>
</g>
</g>
<!-- Node4 -->
<g id="Node000004" class="node">
<title>Node4</title>
<g id="a_Node000004"><a xlink:href="$class_data_base_g_u_i.html#acb6c6b292e58d0ead30682f7f5705244" xlink:title="Edits an existing child in the database.">
<polygon fill="white" stroke="#666666" points="583.75,-146 459,-146 459,-126 583.75,-126 583.75,-146"/>
<text text-anchor="middle" x="521.38" y="-132.5" font-family="Helvetica,sans-Serif" font-size="10.00">DataBaseGUI::child_edit</text>
</a>
</g>
</g>
<!-- Node3&#45;&gt;Node4 -->
<g id="edge3_Node000003_Node000004" class="edge">
<title>Node3&#45;&gt;Node4</title>
<g id="a_edge3_Node000003_Node000004"><a xlink:title=" ">
<path fill="none" stroke="#63b8ff" d="M412.25,-107.68C424.01,-110.77 436.27,-113.99 447.75,-117 454.78,-118.84 462.2,-120.79 469.5,-122.7"/>
<polygon fill="#63b8ff" stroke="#63b8ff" points="468.39,-126.03 478.95,-125.17 470.16,-119.25 468.39,-126.03"/>
</a>
</g>
</g>
<!-- Node5 -->
<g id="Node000005" class="node">
<title>Node5</title>
<g id="a_Node000005"><a xlink:href="$class_data_base_g_u_i.html#afbc53e28ad83200fe77e0fa5a6eb970f" xlink:title="Clears the children tab.">
<polygon fill="white" stroke="#666666" points="580,-108 462.75,-108 462.75,-76 580,-76 580,-108"/>
<text text-anchor="start" x="470.75" y="-94.5" font-family="Helvetica,sans-Serif" font-size="10.00">DataBaseGUI::children</text>
<text text-anchor="middle" x="521.38" y="-82.5" font-family="Helvetica,sans-Serif" font-size="10.00">_tab_clear</text>
</a>
</g>
</g>
<!-- Node3&#45;&gt;Node5 -->
<g id="edge6_Node000003_Node000005" class="edge">
<title>Node3&#45;&gt;Node5</title>
<g id="a_edge6_Node000003_Node000005"><a xlink:title=" ">
<path fill="none" stroke="#63b8ff" d="M412.24,-92C424.84,-92 438.24,-92 451.16,-92"/>
<polygon fill="#63b8ff" stroke="#63b8ff" points="450.85,-95.5 460.85,-92 450.85,-88.5 450.85,-95.5"/>
</a>
</g>
</g>
<!-- Node6 -->
<g id="Node000006" class="node">
<title>Node6</title>
<g id="a_Node000006"><a xlink:href="$class_child_entry.html#abda9dea89937d77c4def3fb81d964ff9" xlink:title=" ">
<polygon fill="white" stroke="#666666" points="586.75,-58 456,-58 456,-38 586.75,-38 586.75,-58"/>
<text text-anchor="middle" x="521.38" y="-44.5" font-family="Helvetica,sans-Serif" font-size="10.00">ChildEntry::editRequested</text>
</a>
</g>
</g>
<!-- Node3&#45;&gt;Node6 -->
<g id="edge7_Node000003_Node000006" class="edge">
<title>Node3&#45;&gt;Node6</title>
<g id="a_edge7_Node000003_Node000006"><a xlink:title=" ">
<path fill="none" stroke="#63b8ff" d="M412.25,-76.32C424.01,-73.23 436.27,-70.01 447.75,-67 454.78,-65.16 462.2,-63.21 469.5,-61.3"/>
<polygon fill="#63b8ff" stroke="#63b8ff" points="470.16,-64.75 478.95,-58.83 468.39,-57.97 470.16,-64.75"/>
</a>
</g>
</g>
<!-- Node7 -->
<g id="Node000007" class="node">
<title>Node7</title>
<g id="a_Node000007"><a xlink:href="$class_child_entry.html#a69e495a83c20ea922198adea9ae47ddb" xlink:title=" ">
<polygon fill="white" stroke="#666666" points="595,-20 447.75,-20 447.75,0 595,0 595,-20"/>
<text text-anchor="middle" x="521.38" y="-6.5" font-family="Helvetica,sans-Serif" font-size="10.00">ChildEntry::removeRequested</text>
</a>
</g>
</g>
<!-- Node3&#45;&gt;Node7 -->
<g id="edge8_Node000003_Node000007" class="edge">
<title>Node3&#45;&gt;Node7</title>
<g id="a_edge8_Node000003_Node000007"><a xlink:title=" ">
<path fill="none" stroke="#63b8ff" d="M372.99,-75.62C391.51,-61.46 420.08,-41.37 447.75,-29 451.97,-27.11 456.41,-25.39 460.93,-23.81"/>
<polygon fill="#63b8ff" stroke="#63b8ff" points="461.67,-27.25 470.12,-20.86 459.53,-20.58 461.67,-27.25"/>
</a>
</g>
</g>
<!-- Node4&#45;&gt;Node2 -->
<g id="edge4_Node000004_Node000002" class="edge">
<title>Node4&#45;&gt;Node2</title>
<g id="a_edge4_Node000004_Node000002"><a xlink:title=" ">
<path fill="none" stroke="#63b8ff" d="M458.54,-136C403.76,-136 323.88,-136 267.15,-136"/>
<polygon fill="#63b8ff" stroke="#63b8ff" points="267.29,-132.5 257.29,-136 267.29,-139.5 267.29,-132.5"/>
</a>
</g>
</g>
</g>
</svg>
