<?xml version="1.0" encoding="UTF-8" standalone="no"?>
<!DOCTYPE svg PUBLIC "-//W3C//DTD SVG 1.1//EN"
 "http://www.w3.org/Graphics/SVG/1.1/DTD/svg11.dtd">
<!-- Generated by graphviz version 12.2.1 (20241206.2353)
 -->
<!-- Title: CSV_Parser::parse_lesson_attendance Pages: 1 -->
<svg width="604pt" height="128pt"
 viewBox="0.00 0.00 603.75 128.00" xmlns="http://www.w3.org/2000/svg" xmlns:xlink="http://www.w3.org/1999/xlink">
<g id="graph0" class="graph" transform="scale(1 1) rotate(0) translate(4 124)">
<title>CSV_Parser::parse_lesson_attendance</title>
<!-- Node1 -->
<g id="Node000001" class="node">
<title>Node1</title>
<g id="a_Node000001"><a xlink:title="Parses lesson&#39;s attendance from a CSV line.">
<polygon fill="#999999" stroke="#666666" points="134.5,-82 0,-82 0,-50 134.5,-50 134.5,-82"/>
<text text-anchor="start" x="8" y="-68.5" font-family="Helvetica,sans-Serif" font-size="10.00">CSV_Parser::parse_lesson</text>
<text text-anchor="middle" x="67.25" y="-56.5" font-family="Helvetica,sans-Serif" font-size="10.00">_attendance</text>
</a>
</g>
</g>
<!-- Node2 -->
<g id="Node000002" class="node">
<title>Node2</title>
<g id="a_Node000002"><a xlink:href="class_database.html#a12af120f4bd82e7c70ffd191f13f0011" target="_top" xlink:title="Adds a lesson to the database.">
<polygon fill="white" stroke="#666666" points="287.38,-120 173.88,-120 173.88,-100 287.38,-100 287.38,-120"/>
<text text-anchor="middle" x="230.62" y="-106.5" font-family="Helvetica,sans-Serif" font-size="10.00">Database::add_lesson</text>
</a>
</g>
</g>
<!-- Node1&#45;&gt;Node2 -->
<g id="edge1_Node000001_Node000002" class="edge">
<title>Node1&#45;&gt;Node2</title>
<g id="a_edge1_Node000001_Node000002"><a xlink:title=" ">
<path fill="none" stroke="#63b8ff" d="M128.34,-82.38C145.52,-87.07 164.04,-92.12 180.49,-96.6"/>
<polygon fill="#63b8ff" stroke="#63b8ff" points="179.47,-99.95 190.04,-99.21 181.31,-93.2 179.47,-99.95"/>
</a>
</g>
</g>
<!-- Node4 -->
<g id="Node000004" class="node">
<title>Node4</title>
<g id="a_Node000004"><a xlink:href="class_database.html#a60ef6f17c1f6e1da26cf7fafd568164f" target="_top" xlink:title="Gets a child by name and surname.">
<polygon fill="white" stroke="#666666" points="282.5,-82 178.75,-82 178.75,-50 282.5,-50 282.5,-82"/>
<text text-anchor="start" x="186.75" y="-68.5" font-family="Helvetica,sans-Serif" font-size="10.00">Database::get_child</text>
<text text-anchor="middle" x="230.62" y="-56.5" font-family="Helvetica,sans-Serif" font-size="10.00">_by_name_surname</text>
</a>
</g>
</g>
<!-- Node1&#45;&gt;Node4 -->
<g id="edge3_Node000001_Node000004" class="edge">
<title>Node1&#45;&gt;Node4</title>
<g id="a_edge3_Node000001_Node000004"><a xlink:title=" ">
<path fill="none" stroke="#63b8ff" d="M134.82,-66C145.53,-66 156.58,-66 167.19,-66"/>
<polygon fill="#63b8ff" stroke="#63b8ff" points="166.98,-69.5 176.98,-66 166.98,-62.5 166.98,-69.5"/>
</a>
</g>
</g>
<!-- Node9 -->
<g id="Node000009" class="node">
<title>Node9</title>
<g id="a_Node000009"><a xlink:href="class_lesson.html#ac4b68f1c8fbcbc5ec3404207578d399c" target="_top" xlink:title="Sets the attendance of children for a specific date.">
<polygon fill="white" stroke="#666666" points="290.75,-32 170.5,-32 170.5,-12 290.75,-12 290.75,-32"/>
<text text-anchor="middle" x="230.62" y="-18.5" font-family="Helvetica,sans-Serif" font-size="10.00">Lesson::set_attendance</text>
</a>
</g>
</g>
<!-- Node1&#45;&gt;Node9 -->
<g id="edge10_Node000001_Node000009" class="edge">
<title>Node1&#45;&gt;Node9</title>
<g id="a_edge10_Node000001_Node000009"><a xlink:title=" ">
<path fill="none" stroke="#63b8ff" d="M128.34,-49.62C145.52,-44.93 164.04,-39.88 180.49,-35.4"/>
<polygon fill="#63b8ff" stroke="#63b8ff" points="181.31,-38.8 190.04,-32.79 179.47,-32.05 181.31,-38.8"/>
</a>
</g>
</g>
<!-- Node3 -->
<g id="Node000003" class="node">
<title>Node3</title>
<g id="a_Node000003"><a xlink:href="class_lesson.html#a25d5ac20ba2894748d604e75a00d756a" target="_top" xlink:title="Gets the schedule of the lesson.">
<polygon fill="white" stroke="#666666" points="438,-120 326.75,-120 326.75,-100 438,-100 438,-120"/>
<text text-anchor="middle" x="382.38" y="-106.5" font-family="Helvetica,sans-Serif" font-size="10.00">Lesson::get_schedule</text>
</a>
</g>
</g>
<!-- Node2&#45;&gt;Node3 -->
<g id="edge2_Node000002_Node000003" class="edge">
<title>Node2&#45;&gt;Node3</title>
<g id="a_edge2_Node000002_Node000003"><a xlink:title=" ">
<path fill="none" stroke="#63b8ff" d="M287.81,-110C296.68,-110 305.93,-110 315,-110"/>
<polygon fill="#63b8ff" stroke="#63b8ff" points="314.85,-113.5 324.85,-110 314.85,-106.5 314.85,-113.5"/>
</a>
</g>
</g>
<!-- Node5 -->
<g id="Node000005" class="node">
<title>Node5</title>
<g id="a_Node000005"><a xlink:href="class_database.html#a448f32cb2e58118d83634666431562c2" target="_top" xlink:title="Filters children by name.">
<polygon fill="white" stroke="#666666" points="436.5,-82 328.25,-82 328.25,-50 436.5,-50 436.5,-82"/>
<text text-anchor="start" x="336.25" y="-68.5" font-family="Helvetica,sans-Serif" font-size="10.00">Database::filter_child</text>
<text text-anchor="middle" x="382.38" y="-56.5" font-family="Helvetica,sans-Serif" font-size="10.00">_by_name</text>
</a>
</g>
</g>
<!-- Node4&#45;&gt;Node5 -->
<g id="edge4_Node000004_Node000005" class="edge">
<title>Node4&#45;&gt;Node5</title>
<g id="a_edge4_Node000004_Node000005"><a xlink:title=" ">
<path fill="none" stroke="#63b8ff" d="M282.74,-66C293.67,-66 305.36,-66 316.72,-66"/>
<polygon fill="#63b8ff" stroke="#63b8ff" points="316.42,-69.5 326.42,-66 316.42,-62.5 316.42,-69.5"/>
</a>
</g>
</g>
<!-- Node8 -->
<g id="Node000008" class="node">
<title>Node8</title>
<g id="a_Node000008"><a xlink:href="class_database.html#a48cdf44f55b29d6141c5e00b88fa4d22" target="_top" xlink:title="Filters children by surname.">
<polygon fill="white" stroke="#666666" points="436.5,-32 328.25,-32 328.25,0 436.5,0 436.5,-32"/>
<text text-anchor="start" x="336.25" y="-18.5" font-family="Helvetica,sans-Serif" font-size="10.00">Database::filter_child</text>
<text text-anchor="middle" x="382.38" y="-6.5" font-family="Helvetica,sans-Serif" font-size="10.00">_by_surname</text>
</a>
</g>
</g>
<!-- Node4&#45;&gt;Node8 -->
<g id="edge7_Node000004_Node000008" class="edge">
<title>Node4&#45;&gt;Node8</title>
<g id="a_edge7_Node000004_Node000008"><a xlink:title=" ">
<path fill="none" stroke="#63b8ff" d="M280.66,-49.63C293.65,-45.29 307.82,-40.56 321.32,-36.05"/>
<polygon fill="#63b8ff" stroke="#63b8ff" points="322.16,-39.46 330.54,-32.97 319.95,-32.82 322.16,-39.46"/>
</a>
</g>
</g>
<!-- Node6 -->
<g id="Node000006" class="node">
<title>Node6</title>
<g id="a_Node000006"><a xlink:href="_helper___functions_8h.html#a0d3fbaad2936b89eb0d594cba2929800" target="_top" xlink:title="Filters a vector of pointers based on a predicate.">
<polygon fill="white" stroke="#666666" points="552.25,-73 517.5,-73 517.5,-53 552.25,-53 552.25,-73"/>
<text text-anchor="middle" x="534.88" y="-59.5" font-family="Helvetica,sans-Serif" font-size="10.00">filter</text>
</a>
</g>
</g>
<!-- Node5&#45;&gt;Node6 -->
<g id="edge5_Node000005_Node000006" class="edge">
<title>Node5&#45;&gt;Node6</title>
<g id="a_edge5_Node000005_Node000006"><a xlink:title=" ">
<path fill="none" stroke="#63b8ff" d="M436.86,-64.93C460.12,-64.47 486.41,-63.95 505.75,-63.56"/>
<polygon fill="#63b8ff" stroke="#63b8ff" points="505.64,-67.06 515.57,-63.36 505.5,-60.06 505.64,-67.06"/>
</a>
</g>
</g>
<!-- Node7 -->
<g id="Node000007" class="node">
<title>Node7</title>
<g id="a_Node000007"><a xlink:href="_helper___functions_8h.html#ab487a2e8523090e129c7f67ed349c9a1" target="_top" xlink:title="Filters a multimap by its keys based on a predicate.">
<polygon fill="white" stroke="#666666" points="595.75,-32 474,-32 474,-12 595.75,-12 595.75,-32"/>
<text text-anchor="middle" x="534.88" y="-18.5" font-family="Helvetica,sans-Serif" font-size="10.00">filter_multimap_by_keys</text>
</a>
</g>
</g>
<!-- Node5&#45;&gt;Node7 -->
<g id="edge6_Node000005_Node000007" class="edge">
<title>Node5&#45;&gt;Node7</title>
<g id="a_edge6_Node000005_Node000007"><a xlink:title=" ">
<path fill="none" stroke="#63b8ff" d="M436.86,-50.36C453.33,-45.55 471.33,-40.28 487.3,-35.62"/>
<polygon fill="#63b8ff" stroke="#63b8ff" points="487.93,-39.08 496.54,-32.91 485.96,-32.36 487.93,-39.08"/>
</a>
</g>
</g>
<!-- Node8&#45;&gt;Node6 -->
<g id="edge8_Node000008_Node000006" class="edge">
<title>Node8&#45;&gt;Node6</title>
<g id="a_edge8_Node000008_Node000006"><a xlink:title=" ">
<path fill="none" stroke="#63b8ff" d="M436.01,-32.44C459.71,-39.84 486.71,-48.27 506.33,-54.4"/>
<polygon fill="#63b8ff" stroke="#63b8ff" points="505.2,-57.71 515.79,-57.35 507.28,-51.03 505.2,-57.71"/>
</a>
</g>
</g>
<!-- Node8&#45;&gt;Node7 -->
<g id="edge9_Node000008_Node000007" class="edge">
<title>Node8&#45;&gt;Node7</title>
<g id="a_edge9_Node000008_Node000007"><a xlink:title=" ">
<path fill="none" stroke="#63b8ff" d="M436.86,-18.13C445.14,-18.46 453.81,-18.81 462.41,-19.15"/>
<polygon fill="#63b8ff" stroke="#63b8ff" points="462,-22.64 472.13,-19.54 462.28,-15.64 462,-22.64"/>
</a>
</g>
</g>
</g>
</svg>
