<?xml version="1.0" encoding="UTF-8" standalone="no"?>
<!DOCTYPE svg PUBLIC "-//W3C//DTD SVG 1.1//EN"
 "http://www.w3.org/Graphics/SVG/1.1/DTD/svg11.dtd">
<!-- Generated by graphviz version 12.2.1 (20241206.2353)
 -->
<!-- Title: Date::get_current_date Pages: 1 -->
<svg width="273pt" height="228pt"
 viewBox="0.00 0.00 273.25 228.00" xmlns="http://www.w3.org/2000/svg" xmlns:xlink="http://www.w3.org/1999/xlink">

<svg id="main" version="1.1" xmlns="http://www.w3.org/2000/svg" xmlns:xlink="http://www.w3.org/1999/xlink" xml:space="preserve">

<style type="text/css"><![CDATA[
.node, .edge {opacity: 0.7;}
.node.selected, .edge.selected {opacity: 1;}
.edge:hover path { stroke: red; }
.edge:hover polygon { stroke: red; fill: red; }
]]></style>
<script type="application/ecmascript" xlink:href="svg.min.js"/>
<svg id="graph" class="graph">
<g id="graph0" class="graph" transform="scale(1 1) rotate(0) translate(4 224)">
<title>Date::get_current_date</title>
<!-- Node1 -->
<g id="Node000001" class="node">
<title>Node1</title>
<g id="a_Node000001"><a xlink:title="Gets the current date.">
<polygon fill="#999999" stroke="#666666" points="265.25,-126 149.5,-126 149.5,-106 265.25,-106 265.25,-126"/>
<text text-anchor="middle" x="207.38" y="-112.5" font-family="Helvetica,sans-Serif" font-size="10.00">Date::get_current_date</text>
</a>
</g>
</g>
<!-- Node2 -->
<g id="Node000002" class="node">
<title>Node2</title>
<g id="a_Node000002"><a xlink:href="class_database.html#a14779910c7ac1a1265fce5a1ea3a4ef3" target="_top" xlink:title="Filters children by age.">
<polygon fill="white" stroke="#666666" points="110.88,-220 2.62,-220 2.62,-188 110.88,-188 110.88,-220"/>
<text text-anchor="start" x="10.62" y="-206.5" font-family="Helvetica,sans-Serif" font-size="10.00">Database::filter_child</text>
<text text-anchor="middle" x="56.75" y="-194.5" font-family="Helvetica,sans-Serif" font-size="10.00">_by_age</text>
</a>
</g>
</g>
<!-- Node1&#45;&gt;Node2 -->
<g id="edge1_Node000001_Node000002" class="edge">
<title>Node1&#45;&gt;Node2</title>
<g id="a_edge1_Node000001_Node000002"><a xlink:title=" ">
<path fill="none" stroke="#63b8ff" d="M183.67,-133.05C165.29,-146.44 138.45,-165.08 113.5,-179 108.22,-181.95 102.53,-184.82 96.87,-187.51"/>
<polygon fill="#63b8ff" stroke="#63b8ff" points="185.51,-136.04 191.48,-127.29 181.35,-130.41 185.51,-136.04"/>
</a>
</g>
</g>
<!-- Node3 -->
<g id="Node000003" class="node">
<title>Node3</title>
<g id="a_Node000003"><a xlink:href="class_child.html#a3fd2bc6c1cf2fec625e50a5ea1110309" target="_top" xlink:title="Gets the age of the child.">
<polygon fill="white" stroke="#666666" points="96.25,-170 17.25,-170 17.25,-150 96.25,-150 96.25,-170"/>
<text text-anchor="middle" x="56.75" y="-156.5" font-family="Helvetica,sans-Serif" font-size="10.00">Child::get_age</text>
</a>
</g>
</g>
<!-- Node1&#45;&gt;Node3 -->
<g id="edge2_Node000001_Node000003" class="edge">
<title>Node1&#45;&gt;Node3</title>
<g id="a_edge2_Node000001_Node000003"><a xlink:title=" ">
<path fill="none" stroke="#63b8ff" d="M160.2,-129.67C138.52,-136.09 113.08,-143.62 92.98,-149.57"/>
<polygon fill="#63b8ff" stroke="#63b8ff" points="161.11,-133.05 169.7,-126.86 159.12,-126.34 161.11,-133.05"/>
</a>
</g>
</g>
<!-- Node4 -->
<g id="Node000004" class="node">
<title>Node4</title>
<g id="a_Node000004"><a xlink:href="class_lesson.html#a427324e7b5f927653e6c1aba13734e62" target="_top" xlink:title="Gets the list of children based on their payment status.">
<polygon fill="white" stroke="#666666" points="109.75,-132 3.75,-132 3.75,-100 109.75,-100 109.75,-132"/>
<text text-anchor="start" x="11.75" y="-118.5" font-family="Helvetica,sans-Serif" font-size="10.00">Lesson::get_children</text>
<text text-anchor="middle" x="56.75" y="-106.5" font-family="Helvetica,sans-Serif" font-size="10.00">_payment</text>
</a>
</g>
</g>
<!-- Node1&#45;&gt;Node4 -->
<g id="edge3_Node000001_Node000004" class="edge">
<title>Node1&#45;&gt;Node4</title>
<g id="a_edge3_Node000001_Node000004"><a xlink:title=" ">
<path fill="none" stroke="#63b8ff" d="M137.98,-116C128.58,-116 119.05,-116 110.01,-116"/>
<polygon fill="#63b8ff" stroke="#63b8ff" points="137.82,-119.5 147.82,-116 137.82,-112.5 137.82,-119.5"/>
</a>
</g>
</g>
<!-- Node5 -->
<g id="Node000005" class="node">
<title>Node5</title>
<g id="a_Node000005"><a xlink:href="class_date_time.html#a4456e1a9119ecd64441d20d541dc8568" target="_top" xlink:title="Gets the current date and time.">
<polygon fill="white" stroke="#666666" points="113.5,-82 0,-82 0,-50 113.5,-50 113.5,-82"/>
<text text-anchor="start" x="8" y="-68.5" font-family="Helvetica,sans-Serif" font-size="10.00">DateTime::get_current</text>
<text text-anchor="middle" x="56.75" y="-56.5" font-family="Helvetica,sans-Serif" font-size="10.00">_datetime</text>
</a>
</g>
</g>
<!-- Node1&#45;&gt;Node5 -->
<g id="edge4_Node000001_Node000005" class="edge">
<title>Node1&#45;&gt;Node5</title>
<g id="a_edge4_Node000001_Node000005"><a xlink:title=" ">
<path fill="none" stroke="#63b8ff" d="M164.49,-101.91C146.51,-95.86 125.4,-88.76 106.71,-82.47"/>
<polygon fill="#63b8ff" stroke="#63b8ff" points="163.19,-105.16 173.78,-105.04 165.42,-98.53 163.19,-105.16"/>
</a>
</g>
</g>
<!-- Node6 -->
<g id="Node000006" class="node">
<title>Node6</title>
<g id="a_Node000006"><a xlink:href="class_lesson.html#a3a5c07996258d819acd54d057d650b47" target="_top" xlink:title="Marks a child as having paid for the lesson.">
<polygon fill="white" stroke="#666666" points="109.75,-32 3.75,-32 3.75,0 109.75,0 109.75,-32"/>
<text text-anchor="start" x="11.75" y="-18.5" font-family="Helvetica,sans-Serif" font-size="10.00">Lesson::set_child_to</text>
<text text-anchor="middle" x="56.75" y="-6.5" font-family="Helvetica,sans-Serif" font-size="10.00">_payed</text>
</a>
</g>
</g>
<!-- Node1&#45;&gt;Node6 -->
<g id="edge5_Node000001_Node000006" class="edge">
<title>Node1&#45;&gt;Node6</title>
<g id="a_edge5_Node000001_Node000006"><a xlink:title=" ">
<path fill="none" stroke="#63b8ff" d="M186.89,-97.76C168.83,-81.48 140.73,-57.71 113.5,-41 108.53,-37.95 103.12,-35.05 97.69,-32.39"/>
<polygon fill="#63b8ff" stroke="#63b8ff" points="184.51,-100.32 194.25,-104.49 189.23,-95.16 184.51,-100.32"/>
</a>
</g>
</g>
</g>
</svg>
</svg>

<style type='text/css'>
<![CDATA[
[data-mouse-over-selected='false'] { opacity: 0.7; }
[data-mouse-over-selected='true']  { opacity: 1.0; }
]]>
</style>
<script type="application/ecmascript"><![CDATA[
document.addEventListener('DOMContentLoaded', (event) => {
  highlightEdges();
  highlightAdjacentNodes();
});
]]></script>
</svg>
