<?xml version="1.0" encoding="UTF-8" standalone="no"?>
<!DOCTYPE svg PUBLIC "-//W3C//DTD SVG 1.1//EN"
 "http://www.w3.org/Graphics/SVG/1.1/DTD/svg11.dtd">
<!-- Generated by graphviz version 12.2.1 (20241206.2353)
 -->
<!-- Title: Date::Date Pages: 1 -->
<!--zoomable 788 -->

<svg id="main" version="1.1" xmlns="http://www.w3.org/2000/svg" xmlns:xlink="http://www.w3.org/1999/xlink" xml:space="preserve" onload="init(evt)">

<style type="text/css"><![CDATA[
.node, .edge {opacity: 0.7;}
.node.selected, .edge.selected {opacity: 1;}
.edge:hover path { stroke: red; }
.edge:hover polygon { stroke: red; fill: red; }
]]></style>

<defs>
  <circle id="rim" cx="0" cy="0" r="7"/>
  <circle id="rim2" cx="0" cy="0" r="3.5"/>
  <g id="zoomPlus">
    <use xlink:href="#rim" fill="#404040"><set attributeName="fill" to="#808080" begin="zoomplus.mouseover" end="zoomplus.mouseout"/></use>
    <path d="M-4,0h8M0,-4v8" fill="none" stroke="white" stroke-width="1.5" pointer-events="none"/>
  </g>
  <g id="zoomMin">
    <use xlink:href="#rim" fill="#404040"><set attributeName="fill" to="#808080" begin="zoomminus.mouseover" end="zoomminus.mouseout"/></use>
    <path d="M-4,0h8" fill="none" stroke="white" stroke-width="1.5" pointer-events="none"/>
  </g>
  <g id="arrowUp" transform="translate(30 24)">
    <use xlink:href="#rim"/>
    <path pointer-events="none" fill="none" stroke="white" stroke-width="1.5" d="M0,-3.0v7 M-2.5,-0.5L0,-3.0L2.5,-0.5"/>
  </g>
  <g id="arrowRight" transform="rotate(90) translate(36 -43)">
    <use xlink:href="#rim"/>
    <path pointer-events="none" fill="none" stroke="white" stroke-width="1.5" d="M0,-3.0v7 M-2.5,-0.5L0,-3.0L2.5,-0.5"/>
  </g>
  <g id="arrowDown" transform="rotate(180) translate(-30 -48)">
    <use xlink:href="#rim"/>
    <path pointer-events="none" fill="none" stroke="white" stroke-width="1.5" d="M0,-3.0v7 M-2.5,-0.5L0,-3.0L2.5,-0.5"/>
  </g>
  <g id="arrowLeft" transform="rotate(270) translate(-36 17)">
    <use xlink:href="#rim"/>
    <path pointer-events="none" fill="none" stroke="white" stroke-width="1.5" d="M0,-3.0v7 M-2.5,-0.5L0,-3.0L2.5,-0.5"/>
  </g>
  <g id="resetDef">
    <use xlink:href="#rim2" fill="#404040"><set attributeName="fill" to="#808080" begin="reset.mouseover" end="reset.mouseout"/></use>
  </g>
</defs>
<script type="application/ecmascript">
var viewWidth = 410;
var viewHeight = 788;
var sectionId = 'dynsection-2';
</script>
<script type="application/ecmascript" xlink:href="svg.min.js"/>
<svg id="graph" class="graph">
<g id="viewport">
<title>Date::Date</title>
<!-- Node1 -->
<g id="Node000001" class="node">
<title>Node1</title>
<g id="a_Node000001"><a xlink:title="Default constructor.">
<polygon fill="#999999" stroke="#666666" points="402,-400 338,-400 338,-380 402,-380 402,-400"/>
<text text-anchor="middle" x="370" y="-386.5" font-family="Helvetica,sans-Serif" font-size="10.00">Date::Date</text>
</a>
</g>
</g>
<!-- Node2 -->
<g id="Node000002" class="node">
<title>Node2</title>
<g id="a_Node000002"><a xlink:href="class_date.html#a80017d44ffbbc4d4c058f3bb94467241" target="_top" xlink:title=" ">
<polygon fill="white" stroke="#666666" points="259.25,-780 195.25,-780 195.25,-760 259.25,-760 259.25,-780"/>
<text text-anchor="middle" x="227.25" y="-766.5" font-family="Helvetica,sans-Serif" font-size="10.00">Date::Date</text>
</a>
</g>
</g>
<!-- Node1&#45;&gt;Node2 -->
<g id="edge1_Node000001_Node000002" class="edge">
<title>Node1&#45;&gt;Node2</title>
<g id="a_edge1_Node000001_Node000002"><a xlink:title=" ">
<path fill="none" stroke="#63b8ff" d="M367.95,-411.77C364.12,-482.03 348.58,-701.11 302,-751 291.17,-762.6 274.29,-767.5 259.41,-769.43"/>
<polygon fill="#63b8ff" stroke="#63b8ff" points="371.43,-412.13 368.46,-401.97 364.44,-411.77 371.43,-412.13"/>
</a>
</g>
</g>
<!-- Node3 -->
<g id="Node000003" class="node">
<title>Node3</title>
<g id="a_Node000003"><a xlink:href="class_date.html#a53934e022baea9ff101e675c227baa4f" target="_top" xlink:title=" ">
<polygon fill="white" stroke="#666666" points="259.25,-742 195.25,-742 195.25,-722 259.25,-722 259.25,-742"/>
<text text-anchor="middle" x="227.25" y="-728.5" font-family="Helvetica,sans-Serif" font-size="10.00">Date::Date</text>
</a>
</g>
</g>
<!-- Node1&#45;&gt;Node3 -->
<g id="edge2_Node000001_Node000003" class="edge">
<title>Node1&#45;&gt;Node3</title>
<g id="a_edge2_Node000001_Node000003"><a xlink:title=" ">
<path fill="none" stroke="#63b8ff" d="M367.45,-411.57C362.33,-476.61 343.87,-669.09 302,-713 291.14,-724.39 274.44,-729.29 259.68,-731.28"/>
<polygon fill="#63b8ff" stroke="#63b8ff" points="370.92,-412.08 368.18,-401.85 363.94,-411.55 370.92,-412.08"/>
</a>
</g>
</g>
<!-- Node4 -->
<g id="Node000004" class="node">
<title>Node4</title>
<g id="a_Node000004"><a xlink:href="class_date_time.html#a441be26f8869a84a597ab5a86567c5fd" target="_top" xlink:title=" ">
<polygon fill="white" stroke="#666666" points="281,-704 173.5,-704 173.5,-684 281,-684 281,-704"/>
<text text-anchor="middle" x="227.25" y="-690.5" font-family="Helvetica,sans-Serif" font-size="10.00">DateTime::DateTime</text>
</a>
</g>
</g>
<!-- Node1&#45;&gt;Node4 -->
<g id="edge3_Node000001_Node000004" class="edge">
<title>Node1&#45;&gt;Node4</title>
<g id="a_edge3_Node000001_Node000004"><a xlink:title=" ">
<path fill="none" stroke="#63b8ff" d="M366.78,-411.72C360.24,-471.6 339.1,-637.1 302,-675 296.27,-680.86 288.98,-684.99 281.24,-687.9"/>
<polygon fill="#63b8ff" stroke="#63b8ff" points="370.26,-412.16 367.83,-401.84 363.29,-411.42 370.26,-412.16"/>
</a>
</g>
</g>
<!-- Node5 -->
<g id="Node000005" class="node">
<title>Node5</title>
<g id="a_Node000005"><a xlink:href="class_date_time.html#a4543e8fa355d1f18d63d1b3c62008643" target="_top" xlink:title=" ">
<polygon fill="white" stroke="#666666" points="281,-666 173.5,-666 173.5,-646 281,-646 281,-666"/>
<text text-anchor="middle" x="227.25" y="-652.5" font-family="Helvetica,sans-Serif" font-size="10.00">DateTime::DateTime</text>
</a>
</g>
</g>
<!-- Node1&#45;&gt;Node5 -->
<g id="edge4_Node000001_Node000005" class="edge">
<title>Node1&#45;&gt;Node5</title>
<g id="a_edge4_Node000001_Node000005"><a xlink:title=" ">
<path fill="none" stroke="#63b8ff" d="M369.87,-411.87C370.52,-459.81 364.99,-574.81 302,-637 296.26,-642.67 289.07,-646.71 281.44,-649.59"/>
<polygon fill="#63b8ff" stroke="#63b8ff" points="373.37,-411.89 369.61,-401.99 366.37,-412.07 373.37,-411.89"/>
</a>
</g>
</g>
<!-- Node6 -->
<g id="Node000006" class="node">
<title>Node6</title>
<g id="a_Node000006"><a xlink:href="class_date_time.html#ac463d3a3129c42752cada995b102df8b" target="_top" xlink:title="Constructs a DateTime from day, month, year, hours, minutes, and seconds.">
<polygon fill="white" stroke="#666666" points="281,-628 173.5,-628 173.5,-608 281,-608 281,-628"/>
<text text-anchor="middle" x="227.25" y="-614.5" font-family="Helvetica,sans-Serif" font-size="10.00">DateTime::DateTime</text>
</a>
</g>
</g>
<!-- Node1&#45;&gt;Node6 -->
<g id="edge5_Node000001_Node000006" class="edge">
<title>Node1&#45;&gt;Node6</title>
<g id="a_edge5_Node000001_Node000006"><a xlink:title=" ">
<path fill="none" stroke="#63b8ff" d="M368.6,-411.36C366.61,-453.59 356,-548.05 302,-599 296.13,-604.54 288.88,-608.51 281.22,-611.36"/>
<polygon fill="#63b8ff" stroke="#63b8ff" points="372.09,-411.66 368.93,-401.55 365.1,-411.43 372.09,-411.66"/>
</a>
</g>
</g>
<!-- Node7 -->
<g id="Node000007" class="node">
<title>Node7</title>
<g id="a_Node000007"><a xlink:href="class_date.html#af6f6b8a65ffabad43ac3994bc58634e0" target="_top" xlink:title="Gets the current date.">
<polygon fill="white" stroke="#666666" points="285.12,-590 169.38,-590 169.38,-570 285.12,-570 285.12,-590"/>
<text text-anchor="middle" x="227.25" y="-576.5" font-family="Helvetica,sans-Serif" font-size="10.00">Date::get_current_date</text>
</a>
</g>
</g>
<!-- Node1&#45;&gt;Node7 -->
<g id="edge6_Node000001_Node000007" class="edge">
<title>Node1&#45;&gt;Node7</title>
<g id="a_edge6_Node000001_Node000007"><a xlink:title=" ">
<path fill="none" stroke="#63b8ff" d="M366.2,-411.52C360.5,-446.7 344.29,-516.53 302,-556 295.8,-561.79 288.18,-566.18 280.22,-569.51"/>
<polygon fill="#63b8ff" stroke="#63b8ff" points="369.65,-412.15 367.64,-401.75 362.72,-411.13 369.65,-412.15"/>
</a>
</g>
</g>
<!-- Node11 -->
<g id="Node000011" class="node">
<title>Node11</title>
<g id="a_Node000011"><a xlink:href="class_date_time.html#a4456e1a9119ecd64441d20d541dc8568" target="_top" xlink:title="Gets the current date and time.">
<polygon fill="white" stroke="#666666" points="115,-552 1.5,-552 1.5,-520 115,-520 115,-552"/>
<text text-anchor="start" x="9.5" y="-538.5" font-family="Helvetica,sans-Serif" font-size="10.00">DateTime::get_current</text>
<text text-anchor="middle" x="58.25" y="-526.5" font-family="Helvetica,sans-Serif" font-size="10.00">_datetime</text>
</a>
</g>
</g>
<!-- Node1&#45;&gt;Node11 -->
<g id="edge12_Node000001_Node000011" class="edge">
<title>Node1&#45;&gt;Node11</title>
<g id="a_edge12_Node000001_Node000011"><a xlink:title=" ">
<path fill="none" stroke="#63b8ff" d="M365.11,-411.38C358.29,-442.02 341,-497.52 302,-523 246.62,-559.19 168.05,-555.94 115.45,-547.97"/>
<polygon fill="#63b8ff" stroke="#63b8ff" points="368.51,-412.26 367.06,-401.76 361.65,-410.87 368.51,-412.26"/>
</a>
</g>
</g>
<!-- Node13 -->
<g id="Node000013" class="node">
<title>Node13</title>
<g id="a_Node000013"><a xlink:href="class_date_time.html#a43209e7423046122f31a5ea4d06dfcf9" target="_top" xlink:title="Gets the date component of the DateTime.">
<polygon fill="white" stroke="#666666" points="278.38,-514 176.12,-514 176.12,-494 278.38,-494 278.38,-514"/>
<text text-anchor="middle" x="227.25" y="-500.5" font-family="Helvetica,sans-Serif" font-size="10.00">DateTime::get_date</text>
</a>
</g>
</g>
<!-- Node1&#45;&gt;Node13 -->
<g id="edge13_Node000001_Node000013" class="edge">
<title>Node1&#45;&gt;Node13</title>
<g id="a_edge13_Node000001_Node000013"><a xlink:title=" ">
<path fill="none" stroke="#63b8ff" d="M359.88,-410.56C349.16,-432.35 329.29,-466.15 302,-485 295.04,-489.81 286.95,-493.4 278.73,-496.08"/>
<polygon fill="#63b8ff" stroke="#63b8ff" points="362.92,-412.32 364,-401.78 356.59,-409.34 362.92,-412.32"/>
</a>
</g>
</g>
<!-- Node15 -->
<g id="Node000015" class="node">
<title>Node15</title>
<g id="a_Node000015"><a xlink:href="class_date.html#a05d75f0746a6fa8796c17666b900641e" target="_top" xlink:title="Gets the weekday for a given date.">
<polygon fill="white" stroke="#666666" points="302,-476 152.5,-476 152.5,-456 302,-456 302,-476"/>
<text text-anchor="middle" x="227.25" y="-462.5" font-family="Helvetica,sans-Serif" font-size="10.00">Date::get_weekday_from_date</text>
</a>
</g>
</g>
<!-- Node1&#45;&gt;Node15 -->
<g id="edge15_Node000001_Node000015" class="edge">
<title>Node1&#45;&gt;Node15</title>
<g id="a_edge15_Node000001_Node000015"><a xlink:title=" ">
<path fill="none" stroke="#63b8ff" d="M351.82,-408.51C339.17,-421.09 320.95,-437.17 302,-447 295.43,-450.41 288.2,-453.24 280.92,-455.57"/>
<polygon fill="#63b8ff" stroke="#63b8ff" points="354.11,-411.17 358.57,-401.56 349.09,-406.29 354.11,-411.17"/>
</a>
</g>
</g>
<!-- Node17 -->
<g id="Node000017" class="node">
<title>Node17</title>
<g id="a_Node000017"><a xlink:href="class_date.html#aa50f7ad426d9b78c9c7fafb4c1a40aa7" target="_top" xlink:title=" ">
<polygon fill="white" stroke="#666666" points="270.88,-438 183.62,-438 183.62,-418 270.88,-418 270.88,-438"/>
<text text-anchor="middle" x="227.25" y="-424.5" font-family="Helvetica,sans-Serif" font-size="10.00">Date::operator!=</text>
</a>
</g>
</g>
<!-- Node1&#45;&gt;Node17 -->
<g id="edge17_Node000001_Node000017" class="edge">
<title>Node1&#45;&gt;Node17</title>
<g id="a_edge17_Node000001_Node000017"><a xlink:title=" ">
<path fill="none" stroke="#63b8ff" d="M326.78,-402.14C318.57,-404.45 310.02,-406.83 302,-409 291.53,-411.83 280.21,-414.8 269.64,-417.52"/>
<polygon fill="#63b8ff" stroke="#63b8ff" points="327.56,-405.56 336.23,-399.46 325.65,-398.82 327.56,-405.56"/>
</a>
</g>
</g>
<!-- Node18 -->
<g id="Node000018" class="node">
<title>Node18</title>
<g id="a_Node000018"><a xlink:href="class_date.html#a9a4a7926b907077ca11c91e0d114593f" target="_top" xlink:title="Subtracts two dates.">
<polygon fill="white" stroke="#666666" points="267.88,-400 186.62,-400 186.62,-380 267.88,-380 267.88,-400"/>
<text text-anchor="middle" x="227.25" y="-386.5" font-family="Helvetica,sans-Serif" font-size="10.00">Date::operator&#45;</text>
</a>
</g>
</g>
<!-- Node1&#45;&gt;Node18 -->
<g id="edge18_Node000001_Node000018" class="edge">
<title>Node1&#45;&gt;Node18</title>
<g id="a_edge18_Node000001_Node000018"><a xlink:title=" ">
<path fill="none" stroke="#63b8ff" d="M326.42,-390C307.94,-390 286.42,-390 268.24,-390"/>
<polygon fill="#63b8ff" stroke="#63b8ff" points="326.25,-393.5 336.25,-390 326.25,-386.5 326.25,-393.5"/>
</a>
</g>
</g>
<!-- Node19 -->
<g id="Node000019" class="node">
<title>Node19</title>
<g id="a_Node000019"><a xlink:href="class_date.html#accffb10f21653cea13ff0eac78852d3d" target="_top" xlink:title=" ">
<polygon fill="white" stroke="#666666" points="269.38,-362 185.12,-362 185.12,-342 269.38,-342 269.38,-362"/>
<text text-anchor="middle" x="227.25" y="-348.5" font-family="Helvetica,sans-Serif" font-size="10.00">Date::operator&lt;</text>
</a>
</g>
</g>
<!-- Node1&#45;&gt;Node19 -->
<g id="edge19_Node000001_Node000019" class="edge">
<title>Node1&#45;&gt;Node19</title>
<g id="a_edge19_Node000001_Node000019"><a xlink:title=" ">
<path fill="none" stroke="#63b8ff" d="M326.78,-377.86C318.57,-375.55 310.02,-373.17 302,-371 291.53,-368.17 280.21,-365.2 269.64,-362.48"/>
<polygon fill="#63b8ff" stroke="#63b8ff" points="325.65,-381.18 336.23,-380.54 327.56,-374.44 325.65,-381.18"/>
</a>
</g>
</g>
<!-- Node20 -->
<g id="Node000020" class="node">
<title>Node20</title>
<g id="a_Node000020"><a xlink:href="class_date.html#a4c4ff6ff6215424fcec7bea646913a2d" target="_top" xlink:title="Outputs the date to a stream.">
<polygon fill="white" stroke="#666666" points="272.38,-324 182.12,-324 182.12,-304 272.38,-304 272.38,-324"/>
<text text-anchor="middle" x="227.25" y="-310.5" font-family="Helvetica,sans-Serif" font-size="10.00">Date::operator&lt;&lt;</text>
</a>
</g>
</g>
<!-- Node1&#45;&gt;Node20 -->
<g id="edge20_Node000001_Node000020" class="edge">
<title>Node1&#45;&gt;Node20</title>
<g id="a_edge20_Node000001_Node000020"><a xlink:title=" ">
<path fill="none" stroke="#63b8ff" d="M351.82,-371.49C339.17,-358.91 320.95,-342.83 302,-333 292.96,-328.31 282.69,-324.73 272.74,-322"/>
<polygon fill="#63b8ff" stroke="#63b8ff" points="349.09,-373.71 358.57,-378.44 354.11,-368.83 349.09,-373.71"/>
</a>
</g>
</g>
<!-- Node21 -->
<g id="Node000021" class="node">
<title>Node21</title>
<g id="a_Node000021"><a xlink:href="class_date.html#a56326220c79a04d4da216d6be3f14f57" target="_top" xlink:title=" ">
<polygon fill="white" stroke="#666666" points="272.38,-286 182.12,-286 182.12,-266 272.38,-266 272.38,-286"/>
<text text-anchor="middle" x="227.25" y="-272.5" font-family="Helvetica,sans-Serif" font-size="10.00">Date::operator&lt;=</text>
</a>
</g>
</g>
<!-- Node1&#45;&gt;Node21 -->
<g id="edge21_Node000001_Node000021" class="edge">
<title>Node1&#45;&gt;Node21</title>
<g id="a_edge21_Node000001_Node000021"><a xlink:title=" ">
<path fill="none" stroke="#63b8ff" d="M359.88,-369.44C349.16,-347.65 329.29,-313.85 302,-295 293.3,-288.99 282.83,-284.88 272.55,-282.07"/>
<polygon fill="#63b8ff" stroke="#63b8ff" points="356.59,-370.66 364,-378.22 362.92,-367.68 356.59,-370.66"/>
</a>
</g>
</g>
<!-- Node22 -->
<g id="Node000022" class="node">
<title>Node22</title>
<g id="a_Node000022"><a xlink:href="class_date.html#ae78bfd03f0f7a6cc6aca180dee0ba33a" target="_top" xlink:title=" ">
<polygon fill="white" stroke="#666666" points="269.38,-248 185.12,-248 185.12,-228 269.38,-228 269.38,-248"/>
<text text-anchor="middle" x="227.25" y="-234.5" font-family="Helvetica,sans-Serif" font-size="10.00">Date::operator=</text>
</a>
</g>
</g>
<!-- Node1&#45;&gt;Node22 -->
<g id="edge22_Node000001_Node000022" class="edge">
<title>Node1&#45;&gt;Node22</title>
<g id="a_edge22_Node000001_Node000022"><a xlink:title=" ">
<path fill="none" stroke="#63b8ff" d="M364.18,-368.77C356.33,-339.19 337.94,-285.95 302,-257 292.84,-249.62 281.13,-245.07 269.76,-242.28"/>
<polygon fill="#63b8ff" stroke="#63b8ff" points="360.76,-369.52 366.55,-378.39 367.55,-367.85 360.76,-369.52"/>
</a>
</g>
</g>
<!-- Node23 -->
<g id="Node000023" class="node">
<title>Node23</title>
<g id="a_Node000023"><a xlink:href="class_date.html#ae53c268b4c21d9beabb9d71a3ec5932d" target="_top" xlink:title=" ">
<polygon fill="white" stroke="#666666" points="269.38,-210 185.12,-210 185.12,-190 269.38,-190 269.38,-210"/>
<text text-anchor="middle" x="227.25" y="-196.5" font-family="Helvetica,sans-Serif" font-size="10.00">Date::operator=</text>
</a>
</g>
</g>
<!-- Node1&#45;&gt;Node23 -->
<g id="edge23_Node000001_Node000023" class="edge">
<title>Node1&#45;&gt;Node23</title>
<g id="a_edge23_Node000001_Node000023"><a xlink:title=" ">
<path fill="none" stroke="#63b8ff" d="M366.82,-368.54C361.95,-332.22 346.84,-258.71 302,-219 293.09,-211.11 281.33,-206.42 269.83,-203.65"/>
<polygon fill="#63b8ff" stroke="#63b8ff" points="363.31,-368.7 367.96,-378.22 370.26,-367.87 363.31,-368.7"/>
</a>
</g>
</g>
<!-- Node24 -->
<g id="Node000024" class="node">
<title>Node24</title>
<g id="a_Node000024"><a xlink:href="class_date_time.html#a51a9e93edb967f826947f48ba70fdd26" target="_top" xlink:title=" ">
<polygon fill="white" stroke="#666666" points="280.25,-172 174.25,-172 174.25,-152 280.25,-152 280.25,-172"/>
<text text-anchor="middle" x="227.25" y="-158.5" font-family="Helvetica,sans-Serif" font-size="10.00">DateTime::operator=</text>
</a>
</g>
</g>
<!-- Node1&#45;&gt;Node24 -->
<g id="edge24_Node000001_Node000024" class="edge">
<title>Node1&#45;&gt;Node24</title>
<g id="a_edge24_Node000001_Node000024"><a xlink:title=" ">
<path fill="none" stroke="#63b8ff" d="M368.6,-368.64C366.61,-326.41 356,-231.95 302,-181 295.94,-175.28 288.4,-171.23 280.47,-168.37"/>
<polygon fill="#63b8ff" stroke="#63b8ff" points="365.1,-368.57 368.93,-378.45 372.09,-368.34 365.1,-368.57"/>
</a>
</g>
</g>
<!-- Node25 -->
<g id="Node000025" class="node">
<title>Node25</title>
<g id="a_Node000025"><a xlink:href="class_date.html#a673f3c9086fb0643c907565df3463acc" target="_top" xlink:title=" ">
<polygon fill="white" stroke="#666666" points="272.38,-134 182.12,-134 182.12,-114 272.38,-114 272.38,-134"/>
<text text-anchor="middle" x="227.25" y="-120.5" font-family="Helvetica,sans-Serif" font-size="10.00">Date::operator==</text>
</a>
</g>
</g>
<!-- Node1&#45;&gt;Node25 -->
<g id="edge25_Node000001_Node000025" class="edge">
<title>Node1&#45;&gt;Node25</title>
<g id="a_edge25_Node000001_Node000025"><a xlink:title=" ">
<path fill="none" stroke="#63b8ff" d="M369.87,-368.13C370.52,-320.19 364.99,-205.19 302,-143 294.1,-135.2 283.44,-130.47 272.69,-127.64"/>
<polygon fill="#63b8ff" stroke="#63b8ff" points="366.37,-367.93 369.61,-378.01 373.37,-368.11 366.37,-367.93"/>
</a>
</g>
</g>
<!-- Node26 -->
<g id="Node000026" class="node">
<title>Node26</title>
<g id="a_Node000026"><a xlink:href="class_date.html#a7b73a2b2a5c2cf8434561332e83d7f95" target="_top" xlink:title=" ">
<polygon fill="white" stroke="#666666" points="269.38,-96 185.12,-96 185.12,-76 269.38,-76 269.38,-96"/>
<text text-anchor="middle" x="227.25" y="-82.5" font-family="Helvetica,sans-Serif" font-size="10.00">Date::operator&gt;</text>
</a>
</g>
</g>
<!-- Node1&#45;&gt;Node26 -->
<g id="edge26_Node000001_Node000026" class="edge">
<title>Node1&#45;&gt;Node26</title>
<g id="a_edge26_Node000001_Node000026"><a xlink:title=" ">
<path fill="none" stroke="#63b8ff" d="M366.78,-368.28C360.24,-308.4 339.1,-142.9 302,-105 293.49,-96.31 281.57,-91.41 269.79,-88.7"/>
<polygon fill="#63b8ff" stroke="#63b8ff" points="363.29,-368.58 367.83,-378.16 370.26,-367.84 363.29,-368.58"/>
</a>
</g>
</g>
<!-- Node27 -->
<g id="Node000027" class="node">
<title>Node27</title>
<g id="a_Node000027"><a xlink:href="class_date.html#aa3cbe8bfdc0bfd9e95bc33f500f502d7" target="_top" xlink:title=" ">
<polygon fill="white" stroke="#666666" points="272.38,-58 182.12,-58 182.12,-38 272.38,-38 272.38,-58"/>
<text text-anchor="middle" x="227.25" y="-44.5" font-family="Helvetica,sans-Serif" font-size="10.00">Date::operator&gt;=</text>
</a>
</g>
</g>
<!-- Node1&#45;&gt;Node27 -->
<g id="edge27_Node000001_Node000027" class="edge">
<title>Node1&#45;&gt;Node27</title>
<g id="a_edge27_Node000001_Node000027"><a xlink:title=" ">
<path fill="none" stroke="#63b8ff" d="M367.45,-368.43C362.33,-303.39 343.87,-110.91 302,-67 294.24,-58.87 283.51,-54.04 272.63,-51.22"/>
<polygon fill="#63b8ff" stroke="#63b8ff" points="363.94,-368.45 368.18,-378.15 370.92,-367.92 363.94,-368.45"/>
</a>
</g>
</g>
<!-- Node28 -->
<g id="Node000028" class="node">
<title>Node28</title>
<g id="a_Node000028"><a xlink:href="class_date_time.html#a55aeb70b786c22cd521ce0f1ce89489f" target="_top" xlink:title="Sets the date component of the DateTime.">
<polygon fill="white" stroke="#666666" points="278.38,-20 176.12,-20 176.12,0 278.38,0 278.38,-20"/>
<text text-anchor="middle" x="227.25" y="-6.5" font-family="Helvetica,sans-Serif" font-size="10.00">DateTime::set_date</text>
</a>
</g>
</g>
<!-- Node1&#45;&gt;Node28 -->
<g id="edge28_Node000001_Node000028" class="edge">
<title>Node1&#45;&gt;Node28</title>
<g id="a_edge28_Node000001_Node000028"><a xlink:title=" ">
<path fill="none" stroke="#63b8ff" d="M367.95,-368.23C364.12,-297.97 348.58,-78.89 302,-29 295.77,-22.33 287.55,-17.88 278.85,-14.93"/>
<polygon fill="#63b8ff" stroke="#63b8ff" points="364.44,-368.23 368.46,-378.03 371.43,-367.87 364.44,-368.23"/>
</a>
</g>
</g>
<!-- Node8 -->
<g id="Node000008" class="node">
<title>Node8</title>
<g id="a_Node000008"><a xlink:href="class_database.html#a14779910c7ac1a1265fce5a1ea3a4ef3" target="_top" xlink:title="Filters children by age.">
<polygon fill="white" stroke="#666666" points="112.38,-740 4.12,-740 4.12,-708 112.38,-708 112.38,-740"/>
<text text-anchor="start" x="12.12" y="-726.5" font-family="Helvetica,sans-Serif" font-size="10.00">Database::filter_child</text>
<text text-anchor="middle" x="58.25" y="-714.5" font-family="Helvetica,sans-Serif" font-size="10.00">_by_age</text>
</a>
</g>
</g>
<!-- Node7&#45;&gt;Node8 -->
<g id="edge7_Node000007_Node000008" class="edge">
<title>Node7&#45;&gt;Node8</title>
<g id="a_edge7_Node000007_Node000008"><a xlink:title=" ">
<path fill="none" stroke="#63b8ff" d="M158.99,-593.98C156.7,-595.49 154.52,-597.16 152.5,-599 117.58,-630.81 148.78,-664.51 116.5,-699 113.46,-702.25 109.93,-705.09 106.14,-707.59"/>
<polygon fill="#63b8ff" stroke="#63b8ff" points="160.48,-597.15 167.63,-589.34 157.17,-590.99 160.48,-597.15"/>
</a>
</g>
</g>
<!-- Node9 -->
<g id="Node000009" class="node">
<title>Node9</title>
<g id="a_Node000009"><a xlink:href="class_child.html#a3fd2bc6c1cf2fec625e50a5ea1110309" target="_top" xlink:title="Gets the age of the child.">
<polygon fill="white" stroke="#666666" points="97.75,-690 18.75,-690 18.75,-670 97.75,-670 97.75,-690"/>
<text text-anchor="middle" x="58.25" y="-676.5" font-family="Helvetica,sans-Serif" font-size="10.00">Child::get_age</text>
</a>
</g>
</g>
<!-- Node7&#45;&gt;Node9 -->
<g id="edge8_Node000007_Node000009" class="edge">
<title>Node7&#45;&gt;Node9</title>
<g id="a_edge8_Node000007_Node000009"><a xlink:title=" ">
<path fill="none" stroke="#63b8ff" d="M158.84,-594.78C156.63,-596.07 154.51,-597.48 152.5,-599 127.1,-618.24 141.22,-640.9 116.5,-661 111.14,-665.36 104.73,-668.73 98.18,-671.34"/>
<polygon fill="#63b8ff" stroke="#63b8ff" points="160.16,-598.03 167.59,-590.48 157.07,-591.75 160.16,-598.03"/>
</a>
</g>
</g>
<!-- Node10 -->
<g id="Node000010" class="node">
<title>Node10</title>
<g id="a_Node000010"><a xlink:href="class_lesson.html#a427324e7b5f927653e6c1aba13734e62" target="_top" xlink:title="Gets the list of children based on their payment status.">
<polygon fill="white" stroke="#666666" points="111.25,-652 5.25,-652 5.25,-620 111.25,-620 111.25,-652"/>
<text text-anchor="start" x="13.25" y="-638.5" font-family="Helvetica,sans-Serif" font-size="10.00">Lesson::get_children</text>
<text text-anchor="middle" x="58.25" y="-626.5" font-family="Helvetica,sans-Serif" font-size="10.00">_payment</text>
</a>
</g>
</g>
<!-- Node7&#45;&gt;Node10 -->
<g id="edge9_Node000007_Node000010" class="edge">
<title>Node7&#45;&gt;Node10</title>
<g id="a_edge9_Node000007_Node000010"><a xlink:title=" ">
<path fill="none" stroke="#63b8ff" d="M171.28,-593.35C164.91,-595.13 158.54,-597.03 152.5,-599 134.12,-604.99 114.15,-612.74 97.42,-619.6"/>
<polygon fill="#63b8ff" stroke="#63b8ff" points="171.73,-596.85 180.46,-590.85 169.89,-590.1 171.73,-596.85"/>
</a>
</g>
</g>
<!-- Node7&#45;&gt;Node11 -->
<g id="edge10_Node000007_Node000011" class="edge">
<title>Node7&#45;&gt;Node11</title>
<g id="a_edge10_Node000007_Node000011"><a xlink:title=" ">
<path fill="none" stroke="#63b8ff" d="M175.79,-566.7C156.7,-561.67 134.86,-555.92 115.29,-550.76"/>
<polygon fill="#63b8ff" stroke="#63b8ff" points="174.65,-570.02 185.21,-569.19 176.43,-563.25 174.65,-570.02"/>
</a>
</g>
</g>
<!-- Node12 -->
<g id="Node000012" class="node">
<title>Node12</title>
<g id="a_Node000012"><a xlink:href="class_lesson.html#a3a5c07996258d819acd54d057d650b47" target="_top" xlink:title="Marks a child as having paid for the lesson.">
<polygon fill="white" stroke="#666666" points="111.25,-602 5.25,-602 5.25,-570 111.25,-570 111.25,-602"/>
<text text-anchor="start" x="13.25" y="-588.5" font-family="Helvetica,sans-Serif" font-size="10.00">Lesson::set_child_to</text>
<text text-anchor="middle" x="58.25" y="-576.5" font-family="Helvetica,sans-Serif" font-size="10.00">_payed</text>
</a>
</g>
</g>
<!-- Node7&#45;&gt;Node12 -->
<g id="edge11_Node000007_Node000012" class="edge">
<title>Node7&#45;&gt;Node12</title>
<g id="a_edge11_Node000007_Node000012"><a xlink:title=" ">
<path fill="none" stroke="#63b8ff" d="M158.09,-582.45C142.54,-583.01 126.27,-583.59 111.51,-584.12"/>
<polygon fill="#63b8ff" stroke="#63b8ff" points="157.86,-585.96 167.73,-582.1 157.61,-578.96 157.86,-585.96"/>
</a>
</g>
</g>
<!-- Node14 -->
<g id="Node000014" class="node">
<title>Node14</title>
<g id="a_Node000014"><a xlink:href="class_date_time.html#ac5e36db3765af3de5d7f33623dbd1ab1" target="_top" xlink:title="Sets the time component of the DateTime.">
<polygon fill="white" stroke="#666666" points="109.38,-502 7.12,-502 7.12,-482 109.38,-482 109.38,-502"/>
<text text-anchor="middle" x="58.25" y="-488.5" font-family="Helvetica,sans-Serif" font-size="10.00">DateTime::set_time</text>
</a>
</g>
</g>
<!-- Node13&#45;&gt;Node14 -->
<g id="edge14_Node000013_Node000014" class="edge">
<title>Node13&#45;&gt;Node14</title>
<g id="a_edge14_Node000013_Node000014"><a xlink:title=" ">
<path fill="none" stroke="#63b8ff" d="M164.39,-499.55C146.35,-498.26 126.87,-496.86 109.64,-495.62"/>
<polygon fill="#63b8ff" stroke="#63b8ff" points="163.96,-503.03 174.18,-500.26 164.46,-496.05 163.96,-503.03"/>
</a>
</g>
</g>
<!-- Node16 -->
<g id="Node000016" class="node">
<title>Node16</title>
<g id="a_Node000016"><a xlink:href="class_database.html#a3ab08425557dc0b07c6452f30c5a2710" target="_top" xlink:title="Filters lessons by day.">
<polygon fill="white" stroke="#666666" points="116.5,-464 0,-464 0,-432 116.5,-432 116.5,-464"/>
<text text-anchor="start" x="8" y="-450.5" font-family="Helvetica,sans-Serif" font-size="10.00">Database::filter_lesson</text>
<text text-anchor="middle" x="58.25" y="-438.5" font-family="Helvetica,sans-Serif" font-size="10.00">_by_day</text>
</a>
</g>
</g>
<!-- Node15&#45;&gt;Node16 -->
<g id="edge16_Node000015_Node000016" class="edge">
<title>Node15&#45;&gt;Node16</title>
<g id="a_edge16_Node000015_Node000016"><a xlink:title=" ">
<path fill="none" stroke="#63b8ff" d="M140.68,-456.78C132.65,-455.91 124.64,-455.05 116.95,-454.22"/>
<polygon fill="#63b8ff" stroke="#63b8ff" points="140.21,-460.25 150.52,-457.84 140.96,-453.29 140.21,-460.25"/>
</a>
</g>
</g>
</g>
</svg>

<g id="navigator" transform="translate(0 0)" fill="#404254">
  <rect fill="#f2f5e9" fill-opacity="0.5" stroke="#606060" stroke-width=".5" x="0" y="0" width="60" height="60"/>
  <use id="zoomplus" xlink:href="#zoomPlus" x="17" y="9" onmousedown="handleZoom(evt,'in')"/>
  <use id="zoomminus" xlink:href="#zoomMin" x="42" y="9" onmousedown="handleZoom(evt,'out')"/>
  <use id="reset" xlink:href="#resetDef" x="30" y="36" onmousedown="handleReset()"/>
   <use id="arrowup" xlink:href="#arrowUp" x="0" y="0" onmousedown="handlePan(0,-1)"/>
  <use id="arrowright" xlink:href="#arrowRight" x="0" y="0" onmousedown="handlePan(1,0)"/>
  <use id="arrowdown" xlink:href="#arrowDown" x="0" y="0" onmousedown="handlePan(0,1)"/>
  <use id="arrowleft" xlink:href="#arrowLeft" x="0" y="0" onmousedown="handlePan(-1,0)"/>
</g>
<svg viewBox="0 0 15 15" width="100%" height="30px" preserveAspectRatio="xMaxYMin meet">
 <g id="arrow_out" transform="scale(0.3 0.3)">
  <a xlink:href="class_date_a19cb325d7fc9e143f9095e7eadc8a1a4_icgraph_org.svg" target="_base">
   <rect id="button" ry="5" rx="5" y="6" x="6" height="38" width="38"
        fill="#f2f5e9" fill-opacity="0.5" stroke="#606060" stroke-width="1.0"/>
   <path id="arrow"
     d="M 11.500037,31.436501 C 11.940474,20.09759 22.043105,11.32322 32.158766,21.979434 L 37.068811,17.246167 C 37.068811,17.246167 37.088388,32 37.088388,32 L 22.160133,31.978069 C 22.160133,31.978069 26.997745,27.140456 26.997745,27.140456 C 18.528582,18.264221 13.291696,25.230495 11.500037,31.436501 z"
     style="fill:#404040;"/>
  </a>
 </g>
</svg>

<style type='text/css'>
<![CDATA[
[data-mouse-over-selected='false'] { opacity: 0.7; }
[data-mouse-over-selected='true']  { opacity: 1.0; }
]]>
</style>
<script type="application/ecmascript"><![CDATA[
document.addEventListener('DOMContentLoaded', (event) => {
  highlightEdges();
  highlightAdjacentNodes();
});
]]></script>
</svg>
