<?xml version="1.0" encoding="UTF-8" standalone="no"?>
<!DOCTYPE svg PUBLIC "-//W3C//DTD SVG 1.1//EN"
 "http://www.w3.org/Graphics/SVG/1.1/DTD/svg11.dtd">
<!-- Generated by graphviz version 12.2.1 (20241206.2353)
 -->
<!-- Title: LessonDialog::accept Pages: 1 -->
<svg width="352pt" height="90pt"
 viewBox="0.00 0.00 351.50 90.00" xmlns="http://www.w3.org/2000/svg" xmlns:xlink="http://www.w3.org/1999/xlink">
<g id="graph0" class="graph" transform="scale(1 1) rotate(0) translate(4 86)">
<title>LessonDialog::accept</title>
<!-- Node1 -->
<g id="Node000001" class="node">
<title>Node1</title>
<g id="a_Node000001"><a xlink:title="Accepts the dialog and updates the lesson information.">
<polygon fill="#999999" stroke="#666666" points="110.5,-51 0,-51 0,-31 110.5,-31 110.5,-51"/>
<text text-anchor="middle" x="55.25" y="-37.5" font-family="Helvetica,sans-Serif" font-size="10.00">LessonDialog::accept</text>
</a>
</g>
</g>
<!-- Node2 -->
<g id="Node000002" class="node">
<title>Node2</title>
<g id="a_Node000002"><a xlink:href="class_lesson_dialog.html#a75d8601e6e4ee2e1e69eb9e59b1d9211" target="_top" xlink:title="Updates the lesson with selected children.">
<polygon fill="white" stroke="#666666" points="254.75,-82 146.5,-82 146.5,-50 254.75,-50 254.75,-82"/>
<text text-anchor="start" x="154.5" y="-68.5" font-family="Helvetica,sans-Serif" font-size="10.00">LessonDialog::gather</text>
<text text-anchor="middle" x="200.62" y="-56.5" font-family="Helvetica,sans-Serif" font-size="10.00">_children</text>
</a>
</g>
</g>
<!-- Node1&#45;&gt;Node2 -->
<g id="edge1_Node000001_Node000002" class="edge">
<title>Node1&#45;&gt;Node2</title>
<g id="a_edge1_Node000001_Node000002"><a xlink:title=" ">
<path fill="none" stroke="#63b8ff" d="M110.86,-50.52C118.72,-51.89 126.86,-53.31 134.89,-54.71"/>
<polygon fill="#63b8ff" stroke="#63b8ff" points="134.17,-58.14 144.62,-56.41 135.37,-51.24 134.17,-58.14"/>
</a>
</g>
</g>
<!-- Node4 -->
<g id="Node000004" class="node">
<title>Node4</title>
<g id="a_Node000004"><a xlink:href="class_lesson_dialog.html#a0a5f83405dfdf8a35b25425535ac7887" target="_top" xlink:title="Updates the lesson with selected employees.">
<polygon fill="white" stroke="#666666" points="254.75,-32 146.5,-32 146.5,0 254.75,0 254.75,-32"/>
<text text-anchor="start" x="154.5" y="-18.5" font-family="Helvetica,sans-Serif" font-size="10.00">LessonDialog::gather</text>
<text text-anchor="middle" x="200.62" y="-6.5" font-family="Helvetica,sans-Serif" font-size="10.00">_employees</text>
</a>
</g>
</g>
<!-- Node1&#45;&gt;Node4 -->
<g id="edge3_Node000001_Node000004" class="edge">
<title>Node1&#45;&gt;Node4</title>
<g id="a_edge3_Node000001_Node000004"><a xlink:title=" ">
<path fill="none" stroke="#63b8ff" d="M110.86,-31.48C118.72,-30.11 126.86,-28.69 134.89,-27.29"/>
<polygon fill="#63b8ff" stroke="#63b8ff" points="135.37,-30.76 144.62,-25.59 134.17,-23.86 135.37,-30.76"/>
</a>
</g>
</g>
<!-- Node3 -->
<g id="Node000003" class="node">
<title>Node3</title>
<g id="a_Node000003"><a xlink:href="_helper___functions_8h.html#abbf2bcc86eb4c36312bcad1565f4663e" target="_top" xlink:title="Checks if a vector contains a specific value.">
<polygon fill="white" stroke="#666666" points="343.5,-51 290.75,-51 290.75,-31 343.5,-31 343.5,-51"/>
<text text-anchor="middle" x="317.12" y="-37.5" font-family="Helvetica,sans-Serif" font-size="10.00">contains</text>
</a>
</g>
</g>
<!-- Node2&#45;&gt;Node3 -->
<g id="edge2_Node000002_Node000003" class="edge">
<title>Node2&#45;&gt;Node3</title>
<g id="a_edge2_Node000002_Node000003"><a xlink:title=" ">
<path fill="none" stroke="#63b8ff" d="M255.19,-54.31C263.3,-52.53 271.52,-50.74 279.18,-49.07"/>
<polygon fill="#63b8ff" stroke="#63b8ff" points="279.79,-52.52 288.81,-46.96 278.29,-45.68 279.79,-52.52"/>
</a>
</g>
</g>
<!-- Node4&#45;&gt;Node3 -->
<g id="edge4_Node000004_Node000003" class="edge">
<title>Node4&#45;&gt;Node3</title>
<g id="a_edge4_Node000004_Node000003"><a xlink:title=" ">
<path fill="none" stroke="#63b8ff" d="M255.19,-27.69C263.3,-29.47 271.52,-31.26 279.18,-32.93"/>
<polygon fill="#63b8ff" stroke="#63b8ff" points="278.29,-36.32 288.81,-35.04 279.79,-29.48 278.29,-36.32"/>
</a>
</g>
</g>
</g>
</svg>
