<?xml version="1.0" encoding="UTF-8" standalone="no"?>
<!DOCTYPE svg PUBLIC "-//W3C//DTD SVG 1.1//EN"
 "http://www.w3.org/Graphics/SVG/1.1/DTD/svg11.dtd">
<!-- Generated by graphviz version 12.2.1 (20241206.2353)
 -->
<!-- Title: ParentEntry::setup_parent Pages: 1 -->
<svg width="267pt" height="166pt"
 viewBox="0.00 0.00 266.50 166.00" xmlns="http://www.w3.org/2000/svg" xmlns:xlink="http://www.w3.org/1999/xlink">

<svg id="main" version="1.1" xmlns="http://www.w3.org/2000/svg" xmlns:xlink="http://www.w3.org/1999/xlink" xml:space="preserve">

<style type="text/css"><![CDATA[
.node, .edge {opacity: 0.7;}
.node.selected, .edge.selected {opacity: 1;}
.edge:hover path { stroke: red; }
.edge:hover polygon { stroke: red; fill: red; }
]]></style>
<script type="application/ecmascript" xlink:href="svg.min.js"/>
<svg id="graph" class="graph">
<g id="graph0" class="graph" transform="scale(1 1) rotate(0) translate(4 162)">
<title>ParentEntry::setup_parent</title>
<!-- Node1 -->
<g id="Node000001" class="node">
<title>Node1</title>
<g id="a_Node000001"><a xlink:title="Sets up the parent entry widget.">
<polygon fill="#999999" stroke="#666666" points="97.75,-98 0,-98 0,-66 97.75,-66 97.75,-98"/>
<text text-anchor="start" x="8" y="-84.5" font-family="Helvetica,sans-Serif" font-size="10.00">ParentEntry::setup</text>
<text text-anchor="middle" x="48.88" y="-72.5" font-family="Helvetica,sans-Serif" font-size="10.00">_parent</text>
</a>
</g>
</g>
<!-- Node2 -->
<g id="Node000002" class="node">
<title>Node2</title>
<g id="a_Node000002"><a xlink:href="class_child_label.html#a5ca1704a24e5c456ac1f5b72bf25d05d" target="_top" xlink:title="Signal emitted when the child label is clicked.">
<polygon fill="white" stroke="#666666" points="256.62,-158 135.62,-158 135.62,-138 256.62,-138 256.62,-158"/>
<text text-anchor="middle" x="196.12" y="-144.5" font-family="Helvetica,sans-Serif" font-size="10.00">ChildLabel::childClicked</text>
</a>
</g>
</g>
<!-- Node1&#45;&gt;Node2 -->
<g id="edge1_Node000001_Node000002" class="edge">
<title>Node1&#45;&gt;Node2</title>
<g id="a_edge1_Node000001_Node000002"><a xlink:title=" ">
<path fill="none" stroke="#63b8ff" d="M75.6,-98.28C91.84,-108.08 113.5,-120.31 133.75,-129 137.79,-130.73 142.03,-132.38 146.33,-133.93"/>
<polygon fill="#63b8ff" stroke="#63b8ff" points="144.99,-137.17 155.59,-137.09 147.25,-130.55 144.99,-137.17"/>
</a>
</g>
</g>
<!-- Node3 -->
<g id="Node000003" class="node">
<title>Node3</title>
<g id="a_Node000003"><a xlink:href="class_parent_entry.html#a45e22d202e52c9dbc7e7e72575dc0e91" target="_top" xlink:title="Signal emitted when a child search is requested.">
<polygon fill="white" stroke="#666666" points="258.5,-120 133.75,-120 133.75,-88 258.5,-88 258.5,-120"/>
<text text-anchor="start" x="141.75" y="-106.5" font-family="Helvetica,sans-Serif" font-size="10.00">ParentEntry::childSearch</text>
<text text-anchor="middle" x="196.12" y="-94.5" font-family="Helvetica,sans-Serif" font-size="10.00">Requested</text>
</a>
</g>
</g>
<!-- Node1&#45;&gt;Node3 -->
<g id="edge2_Node000001_Node000003" class="edge">
<title>Node1&#45;&gt;Node3</title>
<g id="a_edge2_Node000001_Node000003"><a xlink:title=" ">
<path fill="none" stroke="#63b8ff" d="M98.24,-89.33C105.87,-90.48 113.9,-91.7 121.94,-92.92"/>
<polygon fill="#63b8ff" stroke="#63b8ff" points="121.37,-96.37 131.78,-94.41 122.42,-89.45 121.37,-96.37"/>
</a>
</g>
</g>
<!-- Node4 -->
<g id="Node000004" class="node">
<title>Node4</title>
<g id="a_Node000004"><a xlink:href="class_clickable_label.html#aba68cb811a595c6d90f5c994f2b31f4b" target="_top" xlink:title="Signal emitted when the label is clicked.">
<polygon fill="white" stroke="#666666" points="254.38,-70 137.88,-70 137.88,-50 254.38,-50 254.38,-70"/>
<text text-anchor="middle" x="196.12" y="-56.5" font-family="Helvetica,sans-Serif" font-size="10.00">ClickableLabel::clicked</text>
</a>
</g>
</g>
<!-- Node1&#45;&gt;Node4 -->
<g id="edge3_Node000001_Node000004" class="edge">
<title>Node1&#45;&gt;Node4</title>
<g id="a_edge3_Node000001_Node000004"><a xlink:title=" ">
<path fill="none" stroke="#63b8ff" d="M98.24,-74.67C107.16,-73.32 116.63,-71.89 126.02,-70.47"/>
<polygon fill="#63b8ff" stroke="#63b8ff" points="126.53,-73.93 135.9,-68.97 125.48,-67.01 126.53,-73.93"/>
</a>
</g>
</g>
<!-- Node5 -->
<g id="Node000005" class="node">
<title>Node5</title>
<g id="a_Node000005"><a xlink:href="class_parent_entry.html#a2c318ff837a37003040fdbd43838a573" target="_top" xlink:title="Handles the email label click event.">
<polygon fill="white" stroke="#666666" points="244.62,-32 147.62,-32 147.62,0 244.62,0 244.62,-32"/>
<text text-anchor="start" x="155.62" y="-18.5" font-family="Helvetica,sans-Serif" font-size="10.00">ParentEntry::email</text>
<text text-anchor="middle" x="196.12" y="-6.5" font-family="Helvetica,sans-Serif" font-size="10.00">_clicked</text>
</a>
</g>
</g>
<!-- Node1&#45;&gt;Node5 -->
<g id="edge4_Node000001_Node000005" class="edge">
<title>Node1&#45;&gt;Node5</title>
<g id="a_edge4_Node000001_Node000005"><a xlink:title=" ">
<path fill="none" stroke="#63b8ff" d="M82.29,-65.52C97.76,-57.82 116.59,-48.68 133.75,-41 136.85,-39.61 140.06,-38.21 143.3,-36.82"/>
<polygon fill="#63b8ff" stroke="#63b8ff" points="144.45,-40.13 152.3,-33.02 141.73,-33.68 144.45,-40.13"/>
</a>
</g>
</g>
</g>
</svg>
</svg>

<style type='text/css'>
<![CDATA[
[data-mouse-over-selected='false'] { opacity: 0.7; }
[data-mouse-over-selected='true']  { opacity: 1.0; }
]]>
</style>
<script type="application/ecmascript"><![CDATA[
document.addEventListener('DOMContentLoaded', (event) => {
  highlightEdges();
  highlightAdjacentNodes();
});
]]></script>
</svg>
