<?xml version="1.0" encoding="UTF-8" standalone="no"?>
<!DOCTYPE svg PUBLIC "-//W3C//DTD SVG 1.1//EN"
 "http://www.w3.org/Graphics/SVG/1.1/DTD/svg11.dtd">
<!-- Generated by graphviz version 12.2.1 (20241206.2353)
 -->
<!-- Title: ParentDialog::clear_children Pages: 1 -->
<!--zoomable 150 -->

<svg id="main" version="1.1" xmlns="http://www.w3.org/2000/svg" xmlns:xlink="http://www.w3.org/1999/xlink" xml:space="preserve" onload="init(evt)">

<style type="text/css"><![CDATA[
.node, .edge {opacity: 0.7;}
.node.selected, .edge.selected {opacity: 1;}
.edge:hover path { stroke: red; }
.edge:hover polygon { stroke: red; fill: red; }
]]></style>

<defs>
  <circle id="rim" cx="0" cy="0" r="7"/>
  <circle id="rim2" cx="0" cy="0" r="3.5"/>
  <g id="zoomPlus">
    <use xlink:href="#rim" fill="#404040"><set attributeName="fill" to="#808080" begin="zoomplus.mouseover" end="zoomplus.mouseout"/></use>
    <path d="M-4,0h8M0,-4v8" fill="none" stroke="white" stroke-width="1.5" pointer-events="none"/>
  </g>
  <g id="zoomMin">
    <use xlink:href="#rim" fill="#404040"><set attributeName="fill" to="#808080" begin="zoomminus.mouseover" end="zoomminus.mouseout"/></use>
    <path d="M-4,0h8" fill="none" stroke="white" stroke-width="1.5" pointer-events="none"/>
  </g>
  <g id="arrowUp" transform="translate(30 24)">
    <use xlink:href="#rim"/>
    <path pointer-events="none" fill="none" stroke="white" stroke-width="1.5" d="M0,-3.0v7 M-2.5,-0.5L0,-3.0L2.5,-0.5"/>
  </g>
  <g id="arrowRight" transform="rotate(90) translate(36 -43)">
    <use xlink:href="#rim"/>
    <path pointer-events="none" fill="none" stroke="white" stroke-width="1.5" d="M0,-3.0v7 M-2.5,-0.5L0,-3.0L2.5,-0.5"/>
  </g>
  <g id="arrowDown" transform="rotate(180) translate(-30 -48)">
    <use xlink:href="#rim"/>
    <path pointer-events="none" fill="none" stroke="white" stroke-width="1.5" d="M0,-3.0v7 M-2.5,-0.5L0,-3.0L2.5,-0.5"/>
  </g>
  <g id="arrowLeft" transform="rotate(270) translate(-36 17)">
    <use xlink:href="#rim"/>
    <path pointer-events="none" fill="none" stroke="white" stroke-width="1.5" d="M0,-3.0v7 M-2.5,-0.5L0,-3.0L2.5,-0.5"/>
  </g>
  <g id="resetDef">
    <use xlink:href="#rim2" fill="#404040"><set attributeName="fill" to="#808080" begin="reset.mouseover" end="reset.mouseout"/></use>
  </g>
</defs>
<script type="application/ecmascript">
var viewWidth = 602;
var viewHeight = 150;
var sectionId = 'dynsection-7';
</script>
<script type="application/ecmascript" xlink:href="svg.min.js"/>
<svg id="graph" class="graph">
<g id="viewport">
<title>ParentDialog::clear_children</title>
<!-- Node1 -->
<g id="Node000001" class="node">
<title>Node1</title>
<g id="a_Node000001"><a xlink:title="Clears the child checkboxes from the dialog.">
<polygon fill="#999999" stroke="#666666" points="594.25,-70 495,-70 495,-38 594.25,-38 594.25,-70"/>
<text text-anchor="start" x="503" y="-56.5" font-family="Helvetica,sans-Serif" font-size="10.00">ParentDialog::clear</text>
<text text-anchor="middle" x="544.62" y="-44.5" font-family="Helvetica,sans-Serif" font-size="10.00">_children</text>
</a>
</g>
</g>
<!-- Node2 -->
<g id="Node000002" class="node">
<title>Node2</title>
<g id="a_Node000002"><a xlink:href="class_parent_dialog.html#a75bd70150c2208775a5a7996c2a13b03" target="_top" xlink:title="Populates the dialog with child checkboxes.">
<polygon fill="white" stroke="#666666" points="446.25,-120 331.25,-120 331.25,-88 446.25,-88 446.25,-120"/>
<text text-anchor="start" x="339.25" y="-106.5" font-family="Helvetica,sans-Serif" font-size="10.00">ParentDialog::populate</text>
<text text-anchor="middle" x="388.75" y="-94.5" font-family="Helvetica,sans-Serif" font-size="10.00">_children</text>
</a>
</g>
</g>
<!-- Node1&#45;&gt;Node2 -->
<g id="edge1_Node000001_Node000002" class="edge">
<title>Node1&#45;&gt;Node2</title>
<g id="a_edge1_Node000001_Node000002"><a xlink:title=" ">
<path fill="none" stroke="#63b8ff" d="M483.78,-73.45C469.48,-78.09 454.35,-83.01 440.51,-87.51"/>
<polygon fill="#63b8ff" stroke="#63b8ff" points="484.65,-76.84 493.08,-70.43 482.48,-70.19 484.65,-76.84"/>
</a>
</g>
</g>
<!-- Node5 -->
<g id="Node000005" class="node">
<title>Node5</title>
<g id="a_Node000005"><a xlink:href="class_parent_dialog.html#a34519fed2a2112efcc451d36b85cebea" target="_top" xlink:title="Populates the dialog with child checkboxes.">
<polygon fill="white" stroke="#666666" points="446.25,-70 331.25,-70 331.25,-38 446.25,-38 446.25,-70"/>
<text text-anchor="start" x="339.25" y="-56.5" font-family="Helvetica,sans-Serif" font-size="10.00">ParentDialog::populate</text>
<text text-anchor="middle" x="388.75" y="-44.5" font-family="Helvetica,sans-Serif" font-size="10.00">_children</text>
</a>
</g>
</g>
<!-- Node1&#45;&gt;Node5 -->
<g id="edge5_Node000001_Node000005" class="edge">
<title>Node1&#45;&gt;Node5</title>
<g id="a_edge5_Node000001_Node000005"><a xlink:title=" ">
<path fill="none" stroke="#63b8ff" d="M483.2,-54C471.19,-54 458.6,-54 446.7,-54"/>
<polygon fill="#63b8ff" stroke="#63b8ff" points="483,-57.5 493,-54 483,-50.5 483,-57.5"/>
</a>
</g>
</g>
<!-- Node6 -->
<g id="Node000006" class="node">
<title>Node6</title>
<g id="a_Node000006"><a xlink:href="class_parent_dialog.html#ae86872a8640cc15bb3f9013a212f60f2" target="_top" xlink:title="Destructor for ParentDialog.">
<polygon fill="white" stroke="#666666" points="459,-20 318.5,-20 318.5,0 459,0 459,-20"/>
<text text-anchor="middle" x="388.75" y="-6.5" font-family="Helvetica,sans-Serif" font-size="10.00">ParentDialog::~ParentDialog</text>
</a>
</g>
</g>
<!-- Node1&#45;&gt;Node6 -->
<g id="edge6_Node000001_Node000006" class="edge">
<title>Node1&#45;&gt;Node6</title>
<g id="a_edge6_Node000001_Node000006"><a xlink:title=" ">
<path fill="none" stroke="#63b8ff" d="M483.99,-36.23C475.61,-33.77 467.09,-31.31 459,-29 449.05,-26.17 438.27,-23.17 428.25,-20.42"/>
<polygon fill="#63b8ff" stroke="#63b8ff" points="482.86,-39.54 493.44,-39 484.83,-32.82 482.86,-39.54"/>
</a>
</g>
</g>
<!-- Node3 -->
<g id="Node000003" class="node">
<title>Node3</title>
<g id="a_Node000003"><a xlink:href="class_parent_dialog.html#a35f4bfbef301aee353217e5a0d1224fb" target="_top" xlink:title="Searches for children based on the input in the name and surname fields.">
<polygon fill="white" stroke="#666666" points="282.5,-142 170.5,-142 170.5,-110 282.5,-110 282.5,-142"/>
<text text-anchor="start" x="178.5" y="-128.5" font-family="Helvetica,sans-Serif" font-size="10.00">ParentDialog::children</text>
<text text-anchor="middle" x="226.5" y="-116.5" font-family="Helvetica,sans-Serif" font-size="10.00">_search</text>
</a>
</g>
</g>
<!-- Node2&#45;&gt;Node3 -->
<g id="edge2_Node000002_Node000003" class="edge">
<title>Node2&#45;&gt;Node3</title>
<g id="a_edge2_Node000002_Node000003"><a xlink:title=" ">
<path fill="none" stroke="#63b8ff" d="M319.68,-113.34C307.42,-115.03 294.77,-116.76 282.92,-118.39"/>
<polygon fill="#63b8ff" stroke="#63b8ff" points="319.87,-116.85 329.3,-112.02 318.92,-109.92 319.87,-116.85"/>
</a>
</g>
</g>
<!-- Node4 -->
<g id="Node000004" class="node">
<title>Node4</title>
<g id="a_Node000004"><a xlink:href="class_parent_dialog.html#a2479d341c86307fbb81dba6af772e976" target="_top" xlink:title="Constructs a ParentDialog object.">
<polygon fill="white" stroke="#666666" points="134.5,-114 0,-114 0,-94 134.5,-94 134.5,-114"/>
<text text-anchor="middle" x="67.25" y="-100.5" font-family="Helvetica,sans-Serif" font-size="10.00">ParentDialog::ParentDialog</text>
</a>
</g>
</g>
<!-- Node2&#45;&gt;Node4 -->
<g id="edge4_Node000002_Node000004" class="edge">
<title>Node2&#45;&gt;Node4</title>
<g id="a_edge4_Node000002_Node000004"><a xlink:title=" ">
<path fill="none" stroke="#63b8ff" d="M319.73,-101.78C307.34,-101.45 294.54,-101.17 282.5,-101 232.73,-100.29 220.27,-100.27 170.5,-101 158.96,-101.17 146.68,-101.45 134.8,-101.76"/>
<polygon fill="#63b8ff" stroke="#63b8ff" points="319.34,-105.27 329.44,-102.04 319.54,-98.27 319.34,-105.27"/>
</a>
</g>
</g>
<!-- Node3&#45;&gt;Node4 -->
<g id="edge3_Node000003_Node000004" class="edge">
<title>Node3&#45;&gt;Node4</title>
<g id="a_edge3_Node000003_Node000004"><a xlink:title=" ">
<path fill="none" stroke="#63b8ff" d="M158.91,-116.68C150.93,-115.57 142.77,-114.43 134.78,-113.31"/>
<polygon fill="#63b8ff" stroke="#63b8ff" points="158.17,-120.11 168.56,-118.03 159.14,-113.18 158.17,-120.11"/>
</a>
</g>
</g>
</g>
</svg>

<g id="navigator" transform="translate(0 0)" fill="#404254">
  <rect fill="#f2f5e9" fill-opacity="0.5" stroke="#606060" stroke-width=".5" x="0" y="0" width="60" height="60"/>
  <use id="zoomplus" xlink:href="#zoomPlus" x="17" y="9" onmousedown="handleZoom(evt,'in')"/>
  <use id="zoomminus" xlink:href="#zoomMin" x="42" y="9" onmousedown="handleZoom(evt,'out')"/>
  <use id="reset" xlink:href="#resetDef" x="30" y="36" onmousedown="handleReset()"/>
   <use id="arrowup" xlink:href="#arrowUp" x="0" y="0" onmousedown="handlePan(0,-1)"/>
  <use id="arrowright" xlink:href="#arrowRight" x="0" y="0" onmousedown="handlePan(1,0)"/>
  <use id="arrowdown" xlink:href="#arrowDown" x="0" y="0" onmousedown="handlePan(0,1)"/>
  <use id="arrowleft" xlink:href="#arrowLeft" x="0" y="0" onmousedown="handlePan(-1,0)"/>
</g>
<svg viewBox="0 0 15 15" width="100%" height="30px" preserveAspectRatio="xMaxYMin meet">
 <g id="arrow_out" transform="scale(0.3 0.3)">
  <a xlink:href="class_parent_dialog_a0d21a80476d3434803df1bd450c3fe68_icgraph_org.svg" target="_base">
   <rect id="button" ry="5" rx="5" y="6" x="6" height="38" width="38"
        fill="#f2f5e9" fill-opacity="0.5" stroke="#606060" stroke-width="1.0"/>
   <path id="arrow"
     d="M 11.500037,31.436501 C 11.940474,20.09759 22.043105,11.32322 32.158766,21.979434 L 37.068811,17.246167 C 37.068811,17.246167 37.088388,32 37.088388,32 L 22.160133,31.978069 C 22.160133,31.978069 26.997745,27.140456 26.997745,27.140456 C 18.528582,18.264221 13.291696,25.230495 11.500037,31.436501 z"
     style="fill:#404040;"/>
  </a>
 </g>
</svg>

<style type='text/css'>
<![CDATA[
[data-mouse-over-selected='false'] { opacity: 0.7; }
[data-mouse-over-selected='true']  { opacity: 1.0; }
]]>
</style>
<script type="application/ecmascript"><![CDATA[
document.addEventListener('DOMContentLoaded', (event) => {
  highlightEdges();
  highlightAdjacentNodes();
});
]]></script>
</svg>
