<?xml version="1.0" encoding="UTF-8" standalone="no"?>
<!DOCTYPE svg PUBLIC "-//W3C//DTD SVG 1.1//EN"
 "http://www.w3.org/Graphics/SVG/1.1/DTD/svg11.dtd">
<!-- Generated by graphviz version 12.2.1 (20241206.2353)
 -->
<!-- Title: DataBaseGUI Pages: 1 -->
<svg width="354pt" height="1393pt"
 viewBox="0.00 0.00 353.62 1393.00" xmlns="http://www.w3.org/2000/svg" xmlns:xlink="http://www.w3.org/1999/xlink">
<g id="graph0" class="graph" transform="scale(1 1) rotate(0) translate(4 1389)">
<title>DataBaseGUI</title>
<!-- Node1 -->
<g id="Node000001" class="node">
<title>Node1</title>
<g id="a_Node000001"><a xlink:title="Represents the graphical user interface for the database.">
<polygon fill="#999999" stroke="none" points="213.5,-388 76.25,-388 76.25,0 213.5,0 213.5,-388"/>
<text text-anchor="start" x="114.12" y="-374.5" font-family="Helvetica,sans-Serif" font-size="10.00">DataBaseGUI</text>
<text text-anchor="start" x="81.75" y="-358.5" font-family="Helvetica,sans-Serif" font-size="10.00">&#45;</text>
<text text-anchor="start" x="90.25" y="-358.5" font-family="Helvetica,sans-Serif" font-size="10.00">child_sort_index_</text>
<text text-anchor="start" x="81.75" y="-342.5" font-family="Helvetica,sans-Serif" font-size="10.00">&#45;</text>
<text text-anchor="start" x="90.25" y="-342.5" font-family="Helvetica,sans-Serif" font-size="10.00">parent_sort_index_</text>
<text text-anchor="start" x="81.75" y="-326.5" font-family="Helvetica,sans-Serif" font-size="10.00">&#45;</text>
<text text-anchor="start" x="90.25" y="-326.5" font-family="Helvetica,sans-Serif" font-size="10.00">employee_sort_index_</text>
<text text-anchor="start" x="81.75" y="-310.5" font-family="Helvetica,sans-Serif" font-size="10.00">&#45;</text>
<text text-anchor="start" x="90.25" y="-310.5" font-family="Helvetica,sans-Serif" font-size="10.00">lesson_sort_index_</text>
<text text-anchor="start" x="81.75" y="-294.5" font-family="Helvetica,sans-Serif" font-size="10.00">&#45;</text>
<text text-anchor="start" x="90.25" y="-294.5" font-family="Helvetica,sans-Serif" font-size="10.00">save_path_</text>
<text text-anchor="start" x="81.75" y="-278.5" font-family="Helvetica,sans-Serif" font-size="10.00">&#45;</text>
<text text-anchor="start" x="90.25" y="-278.5" font-family="Helvetica,sans-Serif" font-size="10.00">connections_</text>
<text text-anchor="start" x="80.25" y="-262.5" font-family="Helvetica,sans-Serif" font-size="10.00">+</text>
<text text-anchor="start" x="90.25" y="-262.5" font-family="Helvetica,sans-Serif" font-size="10.00">DataBaseGUI()</text>
<text text-anchor="start" x="80.25" y="-246.5" font-family="Helvetica,sans-Serif" font-size="10.00">+</text>
<text text-anchor="start" x="90.25" y="-246.5" font-family="Helvetica,sans-Serif" font-size="10.00">DataBaseGUI()</text>
<text text-anchor="start" x="80.25" y="-230.5" font-family="Helvetica,sans-Serif" font-size="10.00">+</text>
<text text-anchor="start" x="90.25" y="-230.5" font-family="Helvetica,sans-Serif" font-size="10.00">~DataBaseGUI()</text>
<text text-anchor="start" x="81.75" y="-214.5" font-family="Helvetica,sans-Serif" font-size="10.00">&#45;</text>
<text text-anchor="start" x="90.25" y="-214.5" font-family="Helvetica,sans-Serif" font-size="10.00">setup()</text>
<text text-anchor="start" x="81.75" y="-198.5" font-family="Helvetica,sans-Serif" font-size="10.00">&#45;</text>
<text text-anchor="start" x="90.25" y="-198.5" font-family="Helvetica,sans-Serif" font-size="10.00">save_database()</text>
<text text-anchor="start" x="81.75" y="-182.5" font-family="Helvetica,sans-Serif" font-size="10.00">&#45;</text>
<text text-anchor="start" x="90.25" y="-182.5" font-family="Helvetica,sans-Serif" font-size="10.00">import_database()</text>
<text text-anchor="start" x="81.75" y="-166.5" font-family="Helvetica,sans-Serif" font-size="10.00">&#45;</text>
<text text-anchor="start" x="90.25" y="-166.5" font-family="Helvetica,sans-Serif" font-size="10.00">export_database()</text>
<text text-anchor="start" x="81.75" y="-150.5" font-family="Helvetica,sans-Serif" font-size="10.00">&#45;</text>
<text text-anchor="start" x="90.25" y="-150.5" font-family="Helvetica,sans-Serif" font-size="10.00">tab_change()</text>
<text text-anchor="start" x="81.75" y="-134.5" font-family="Helvetica,sans-Serif" font-size="10.00">&#45;</text>
<text text-anchor="start" x="90.25" y="-134.5" font-family="Helvetica,sans-Serif" font-size="10.00">sort_to_populate_children</text>
<text text-anchor="start" x="90.25" y="-122.5" font-family="Helvetica,sans-Serif" font-size="10.00">_tab()</text>
<text text-anchor="start" x="81.75" y="-106.5" font-family="Helvetica,sans-Serif" font-size="10.00">&#45;</text>
<text text-anchor="start" x="90.25" y="-106.5" font-family="Helvetica,sans-Serif" font-size="10.00">sort_to_populate_parent</text>
<text text-anchor="start" x="90.25" y="-94.5" font-family="Helvetica,sans-Serif" font-size="10.00">_tab()</text>
<text text-anchor="start" x="81.75" y="-78.5" font-family="Helvetica,sans-Serif" font-size="10.00">&#45;</text>
<text text-anchor="start" x="90.25" y="-78.5" font-family="Helvetica,sans-Serif" font-size="10.00">sort_to_populate_employee</text>
<text text-anchor="start" x="90.25" y="-66.5" font-family="Helvetica,sans-Serif" font-size="10.00">_tab()</text>
<text text-anchor="start" x="81.75" y="-50.5" font-family="Helvetica,sans-Serif" font-size="10.00">&#45;</text>
<text text-anchor="start" x="90.25" y="-50.5" font-family="Helvetica,sans-Serif" font-size="10.00">sort_to_populate_lesson</text>
<text text-anchor="start" x="90.25" y="-38.5" font-family="Helvetica,sans-Serif" font-size="10.00">_tab()</text>
<text text-anchor="start" x="81.75" y="-22.5" font-family="Helvetica,sans-Serif" font-size="10.00">&#45;</text>
<text text-anchor="start" x="90.25" y="-22.5" font-family="Helvetica,sans-Serif" font-size="10.00">populate_children_tab()</text>
<text text-anchor="start" x="90.25" y="-6.5" font-family="Helvetica,sans-Serif" font-size="10.00">and 34 more...</text>
<polygon fill="#666666" stroke="#666666" points="76.25,-370 76.25,-370 213.5,-370 213.5,-370 76.25,-370"/>
<polygon fill="#666666" stroke="#666666" points="76.25,-274 76.25,-274 88.25,-274 88.25,-274 76.25,-274"/>
<polygon fill="#666666" stroke="#666666" points="88.25,-274 88.25,-274 213.5,-274 213.5,-274 88.25,-274"/>
<polygon fill="none" stroke="#666666" points="76.25,0 76.25,-388 213.5,-388 213.5,0 76.25,0"/>
</a>
</g>
</g>
<!-- Node2 -->
<g id="Node000002" class="node">
<title>Node2</title>
<g id="a_Node000002"><a xlink:title=" ">
<polygon fill="white" stroke="none" points="71.75,-804 0,-804 0,-752 71.75,-752 71.75,-804"/>
<text text-anchor="start" x="4" y="-790.5" font-family="Helvetica,sans-Serif" font-size="10.00">QMainWindow</text>
<text text-anchor="start" x="34.38" y="-774.5" font-family="Helvetica,sans-Serif" font-size="10.00"> </text>
<text text-anchor="start" x="34.38" y="-758.5" font-family="Helvetica,sans-Serif" font-size="10.00"> </text>
<polygon fill="#666666" stroke="#666666" points="0,-786 0,-786 71.75,-786 71.75,-786 0,-786"/>
<polygon fill="#666666" stroke="#666666" points="0,-770 0,-770 71.75,-770 71.75,-770 0,-770"/>
<polygon fill="none" stroke="#666666" points="0,-752 0,-804 71.75,-804 71.75,-752 0,-752"/>
</a>
</g>
</g>
<!-- Node2&#45;&gt;Node1 -->
<g id="edge1_Node000001_Node000002" class="edge">
<title>Node2&#45;&gt;Node1</title>
<g id="a_edge1_Node000001_Node000002"><a xlink:title=" ">
<path fill="none" stroke="#63b8ff" d="M39.11,-740.8C45.04,-678.25 59.09,-546.06 80.88,-436 83.98,-420.29 87.53,-404.08 91.33,-387.86"/>
<polygon fill="none" stroke="#63b8ff" points="35.65,-740.22 38.21,-750.5 42.62,-740.87 35.65,-740.22"/>
</a>
</g>
</g>
<!-- Node3 -->
<g id="Node000003" class="node">
<title>Node3</title>
<g id="a_Node000003"><a xlink:href="class_ui_1_1_data_base_g_u_i_class.html" target="_top" xlink:title=" ">
<polygon fill="white" stroke="none" points="200.25,-804 89.5,-804 89.5,-752 200.25,-752 200.25,-804"/>
<text text-anchor="start" x="93.5" y="-790.5" font-family="Helvetica,sans-Serif" font-size="10.00">Ui::DataBaseGUIClass</text>
<text text-anchor="start" x="143.38" y="-774.5" font-family="Helvetica,sans-Serif" font-size="10.00"> </text>
<text text-anchor="start" x="143.38" y="-758.5" font-family="Helvetica,sans-Serif" font-size="10.00"> </text>
<polygon fill="#666666" stroke="#666666" points="89.5,-786 89.5,-786 200.25,-786 200.25,-786 89.5,-786"/>
<polygon fill="#666666" stroke="#666666" points="89.5,-770 89.5,-770 200.25,-770 200.25,-770 89.5,-770"/>
<polygon fill="none" stroke="#666666" points="89.5,-752 89.5,-804 200.25,-804 200.25,-752 89.5,-752"/>
</a>
</g>
</g>
<!-- Node3&#45;&gt;Node1 -->
<g id="edge2_Node000001_Node000003" class="edge">
<title>Node3&#45;&gt;Node1</title>
<g id="a_edge2_Node000001_Node000003"><a xlink:title=" ">
<path fill="none" stroke="#63b8ff" d="M144.88,-752.36C144.88,-692.26 144.88,-533.31 144.88,-400.46"/>
<polygon fill="none" stroke="#63b8ff" points="144.88,-400.59 140.88,-394.59 144.88,-388.59 148.88,-394.59 144.88,-400.59"/>
</a>
</g>
<text text-anchor="middle" x="151.62" y="-408.5" font-family="Helvetica,sans-Serif" font-size="10.00" fill="grey"> &#45;ui</text>
</g>
<!-- Node4 -->
<g id="Node000004" class="node">
<title>Node4</title>
<g id="a_Node000004"><a xlink:href="class_ui___data_base_g_u_i_class.html" target="_top" xlink:title=" ">
<polygon fill="white" stroke="none" points="201.5,-1385 88.25,-1385 88.25,-1157 201.5,-1157 201.5,-1385"/>
<text text-anchor="start" x="93.88" y="-1371.5" font-family="Helvetica,sans-Serif" font-size="10.00">Ui_DataBaseGUIClass</text>
<text text-anchor="start" x="92.25" y="-1355.5" font-family="Helvetica,sans-Serif" font-size="10.00">+</text>
<text text-anchor="start" x="102.25" y="-1355.5" font-family="Helvetica,sans-Serif" font-size="10.00">import_from</text>
<text text-anchor="start" x="92.25" y="-1339.5" font-family="Helvetica,sans-Serif" font-size="10.00">+</text>
<text text-anchor="start" x="102.25" y="-1339.5" font-family="Helvetica,sans-Serif" font-size="10.00">export_to</text>
<text text-anchor="start" x="92.25" y="-1323.5" font-family="Helvetica,sans-Serif" font-size="10.00">+</text>
<text text-anchor="start" x="102.25" y="-1323.5" font-family="Helvetica,sans-Serif" font-size="10.00">save_to</text>
<text text-anchor="start" x="92.25" y="-1307.5" font-family="Helvetica,sans-Serif" font-size="10.00">+</text>
<text text-anchor="start" x="102.25" y="-1307.5" font-family="Helvetica,sans-Serif" font-size="10.00">main_window</text>
<text text-anchor="start" x="92.25" y="-1291.5" font-family="Helvetica,sans-Serif" font-size="10.00">+</text>
<text text-anchor="start" x="102.25" y="-1291.5" font-family="Helvetica,sans-Serif" font-size="10.00">verticalLayout</text>
<text text-anchor="start" x="92.25" y="-1275.5" font-family="Helvetica,sans-Serif" font-size="10.00">+</text>
<text text-anchor="start" x="102.25" y="-1275.5" font-family="Helvetica,sans-Serif" font-size="10.00">tabs</text>
<text text-anchor="start" x="92.25" y="-1259.5" font-family="Helvetica,sans-Serif" font-size="10.00">+</text>
<text text-anchor="start" x="102.25" y="-1259.5" font-family="Helvetica,sans-Serif" font-size="10.00">children_tab</text>
<text text-anchor="start" x="92.25" y="-1243.5" font-family="Helvetica,sans-Serif" font-size="10.00">+</text>
<text text-anchor="start" x="102.25" y="-1243.5" font-family="Helvetica,sans-Serif" font-size="10.00">gridLayout</text>
<text text-anchor="start" x="92.25" y="-1227.5" font-family="Helvetica,sans-Serif" font-size="10.00">+</text>
<text text-anchor="start" x="102.25" y="-1227.5" font-family="Helvetica,sans-Serif" font-size="10.00">children_add_button</text>
<text text-anchor="start" x="92.25" y="-1211.5" font-family="Helvetica,sans-Serif" font-size="10.00">+</text>
<text text-anchor="start" x="102.25" y="-1211.5" font-family="Helvetica,sans-Serif" font-size="10.00">children_sort_selector</text>
<text text-anchor="start" x="102.25" y="-1195.5" font-family="Helvetica,sans-Serif" font-size="10.00">and 39 more...</text>
<text text-anchor="start" x="92.25" y="-1179.5" font-family="Helvetica,sans-Serif" font-size="10.00">+</text>
<text text-anchor="start" x="102.25" y="-1179.5" font-family="Helvetica,sans-Serif" font-size="10.00">setupUi()</text>
<text text-anchor="start" x="92.25" y="-1163.5" font-family="Helvetica,sans-Serif" font-size="10.00">+</text>
<text text-anchor="start" x="102.25" y="-1163.5" font-family="Helvetica,sans-Serif" font-size="10.00">retranslateUi()</text>
<polygon fill="#666666" stroke="#666666" points="88.25,-1367 88.25,-1367 201.5,-1367 201.5,-1367 88.25,-1367"/>
<polygon fill="#666666" stroke="#666666" points="88.25,-1191 88.25,-1191 100.25,-1191 100.25,-1191 88.25,-1191"/>
<polygon fill="#666666" stroke="#666666" points="100.25,-1191 100.25,-1191 201.5,-1191 201.5,-1191 100.25,-1191"/>
<polygon fill="none" stroke="#666666" points="88.25,-1157 88.25,-1385 201.5,-1385 201.5,-1157 88.25,-1157"/>
</a>
</g>
</g>
<!-- Node4&#45;&gt;Node3 -->
<g id="edge3_Node000003_Node000004" class="edge">
<title>Node4&#45;&gt;Node3</title>
<g id="a_edge3_Node000003_Node000004"><a xlink:title=" ">
<path fill="none" stroke="#63b8ff" d="M144.88,-1145.62C144.88,-1029.62 144.88,-865.47 144.88,-803.74"/>
<polygon fill="none" stroke="#63b8ff" points="141.38,-1145.53 144.88,-1155.53 148.38,-1145.53 141.38,-1145.53"/>
</a>
</g>
</g>
<!-- Node5 -->
<g id="Node000005" class="node">
<title>Node5</title>
<g id="a_Node000005"><a xlink:href="class_database.html" target="_top" xlink:title="Manages data related to lessons, parents, children, and employees.">
<polygon fill="white" stroke="none" points="345.62,-1120 218.12,-1120 218.12,-436 345.62,-436 345.62,-1120"/>
<text text-anchor="start" x="260.88" y="-1106.5" font-family="Helvetica,sans-Serif" font-size="10.00">Database</text>
<text text-anchor="start" x="223.62" y="-1090.5" font-family="Helvetica,sans-Serif" font-size="10.00">&#45;</text>
<text text-anchor="start" x="232.12" y="-1090.5" font-family="Helvetica,sans-Serif" font-size="10.00">lessons_</text>
<text text-anchor="start" x="223.62" y="-1074.5" font-family="Helvetica,sans-Serif" font-size="10.00">&#45;</text>
<text text-anchor="start" x="232.12" y="-1074.5" font-family="Helvetica,sans-Serif" font-size="10.00">parents_</text>
<text text-anchor="start" x="223.62" y="-1058.5" font-family="Helvetica,sans-Serif" font-size="10.00">&#45;</text>
<text text-anchor="start" x="232.12" y="-1058.5" font-family="Helvetica,sans-Serif" font-size="10.00">children_</text>
<text text-anchor="start" x="223.62" y="-1042.5" font-family="Helvetica,sans-Serif" font-size="10.00">&#45;</text>
<text text-anchor="start" x="232.12" y="-1042.5" font-family="Helvetica,sans-Serif" font-size="10.00">employees_</text>
<text text-anchor="start" x="223.62" y="-1026.5" font-family="Helvetica,sans-Serif" font-size="10.00">&#45;</text>
<text text-anchor="start" x="232.12" y="-1026.5" font-family="Helvetica,sans-Serif" font-size="10.00">child_by_name</text>
<text text-anchor="start" x="223.62" y="-1010.5" font-family="Helvetica,sans-Serif" font-size="10.00">&#45;</text>
<text text-anchor="start" x="232.12" y="-1010.5" font-family="Helvetica,sans-Serif" font-size="10.00">child_by_surname</text>
<text text-anchor="start" x="223.62" y="-994.5" font-family="Helvetica,sans-Serif" font-size="10.00">&#45;</text>
<text text-anchor="start" x="232.12" y="-994.5" font-family="Helvetica,sans-Serif" font-size="10.00">child_by_birth_date</text>
<text text-anchor="start" x="223.62" y="-978.5" font-family="Helvetica,sans-Serif" font-size="10.00">&#45;</text>
<text text-anchor="start" x="232.12" y="-978.5" font-family="Helvetica,sans-Serif" font-size="10.00">parent_by_name</text>
<text text-anchor="start" x="223.62" y="-962.5" font-family="Helvetica,sans-Serif" font-size="10.00">&#45;</text>
<text text-anchor="start" x="232.12" y="-962.5" font-family="Helvetica,sans-Serif" font-size="10.00">parent_by_surname</text>
<text text-anchor="start" x="223.62" y="-946.5" font-family="Helvetica,sans-Serif" font-size="10.00">&#45;</text>
<text text-anchor="start" x="232.12" y="-946.5" font-family="Helvetica,sans-Serif" font-size="10.00">parent_by_email</text>
<text text-anchor="start" x="223.62" y="-930.5" font-family="Helvetica,sans-Serif" font-size="10.00">&#45;</text>
<text text-anchor="start" x="232.12" y="-930.5" font-family="Helvetica,sans-Serif" font-size="10.00">employee_by_name</text>
<text text-anchor="start" x="223.62" y="-914.5" font-family="Helvetica,sans-Serif" font-size="10.00">&#45;</text>
<text text-anchor="start" x="232.12" y="-914.5" font-family="Helvetica,sans-Serif" font-size="10.00">employee_by_surname</text>
<text text-anchor="start" x="223.62" y="-898.5" font-family="Helvetica,sans-Serif" font-size="10.00">&#45;</text>
<text text-anchor="start" x="232.12" y="-898.5" font-family="Helvetica,sans-Serif" font-size="10.00">lesson_by_schedule</text>
<text text-anchor="start" x="222.12" y="-882.5" font-family="Helvetica,sans-Serif" font-size="10.00">+</text>
<text text-anchor="start" x="232.12" y="-882.5" font-family="Helvetica,sans-Serif" font-size="10.00">Database()</text>
<text text-anchor="start" x="222.12" y="-866.5" font-family="Helvetica,sans-Serif" font-size="10.00">+</text>
<text text-anchor="start" x="232.12" y="-866.5" font-family="Helvetica,sans-Serif" font-size="10.00">Database()</text>
<text text-anchor="start" x="222.12" y="-850.5" font-family="Helvetica,sans-Serif" font-size="10.00">+</text>
<text text-anchor="start" x="232.12" y="-850.5" font-family="Helvetica,sans-Serif" font-size="10.00">Database()</text>
<text text-anchor="start" x="222.12" y="-834.5" font-family="Helvetica,sans-Serif" font-size="10.00">+</text>
<text text-anchor="start" x="232.12" y="-834.5" font-family="Helvetica,sans-Serif" font-size="10.00">operator=()</text>
<text text-anchor="start" x="222.12" y="-818.5" font-family="Helvetica,sans-Serif" font-size="10.00">+</text>
<text text-anchor="start" x="232.12" y="-818.5" font-family="Helvetica,sans-Serif" font-size="10.00">operator=()</text>
<text text-anchor="start" x="222.12" y="-802.5" font-family="Helvetica,sans-Serif" font-size="10.00">+</text>
<text text-anchor="start" x="232.12" y="-802.5" font-family="Helvetica,sans-Serif" font-size="10.00">add_lesson()</text>
<text text-anchor="start" x="222.12" y="-786.5" font-family="Helvetica,sans-Serif" font-size="10.00">+</text>
<text text-anchor="start" x="232.12" y="-786.5" font-family="Helvetica,sans-Serif" font-size="10.00">update_lesson_start()</text>
<text text-anchor="start" x="222.12" y="-770.5" font-family="Helvetica,sans-Serif" font-size="10.00">+</text>
<text text-anchor="start" x="232.12" y="-770.5" font-family="Helvetica,sans-Serif" font-size="10.00">update_lesson_end()</text>
<text text-anchor="start" x="222.12" y="-754.5" font-family="Helvetica,sans-Serif" font-size="10.00">+</text>
<text text-anchor="start" x="232.12" y="-754.5" font-family="Helvetica,sans-Serif" font-size="10.00">remove_lesson()</text>
<text text-anchor="start" x="222.12" y="-738.5" font-family="Helvetica,sans-Serif" font-size="10.00">+</text>
<text text-anchor="start" x="232.12" y="-738.5" font-family="Helvetica,sans-Serif" font-size="10.00">search_lessons_by_child</text>
<text text-anchor="start" x="232.12" y="-726.5" font-family="Helvetica,sans-Serif" font-size="10.00">_name_surname()</text>
<text text-anchor="start" x="232.12" y="-710.5" font-family="Helvetica,sans-Serif" font-size="10.00">and 49 more...</text>
<text text-anchor="start" x="223.62" y="-694.5" font-family="Helvetica,sans-Serif" font-size="10.00">&#45;</text>
<text text-anchor="start" x="232.12" y="-694.5" font-family="Helvetica,sans-Serif" font-size="10.00">import_Lessons_from</text>
<text text-anchor="start" x="232.12" y="-682.5" font-family="Helvetica,sans-Serif" font-size="10.00">_csv_file()</text>
<text text-anchor="start" x="223.62" y="-666.5" font-family="Helvetica,sans-Serif" font-size="10.00">&#45;</text>
<text text-anchor="start" x="232.12" y="-666.5" font-family="Helvetica,sans-Serif" font-size="10.00">import_Parents_from</text>
<text text-anchor="start" x="232.12" y="-654.5" font-family="Helvetica,sans-Serif" font-size="10.00">_csv_file()</text>
<text text-anchor="start" x="223.62" y="-638.5" font-family="Helvetica,sans-Serif" font-size="10.00">&#45;</text>
<text text-anchor="start" x="232.12" y="-638.5" font-family="Helvetica,sans-Serif" font-size="10.00">import_Children_from</text>
<text text-anchor="start" x="232.12" y="-626.5" font-family="Helvetica,sans-Serif" font-size="10.00">_csv_file()</text>
<text text-anchor="start" x="223.62" y="-610.5" font-family="Helvetica,sans-Serif" font-size="10.00">&#45;</text>
<text text-anchor="start" x="232.12" y="-610.5" font-family="Helvetica,sans-Serif" font-size="10.00">import_Employees_from</text>
<text text-anchor="start" x="232.12" y="-598.5" font-family="Helvetica,sans-Serif" font-size="10.00">_csv_file()</text>
<text text-anchor="start" x="223.62" y="-582.5" font-family="Helvetica,sans-Serif" font-size="10.00">&#45;</text>
<text text-anchor="start" x="232.12" y="-582.5" font-family="Helvetica,sans-Serif" font-size="10.00">export_Lessons_to_csv</text>
<text text-anchor="start" x="232.12" y="-570.5" font-family="Helvetica,sans-Serif" font-size="10.00">_file()</text>
<text text-anchor="start" x="223.62" y="-554.5" font-family="Helvetica,sans-Serif" font-size="10.00">&#45;</text>
<text text-anchor="start" x="232.12" y="-554.5" font-family="Helvetica,sans-Serif" font-size="10.00">export_Parents_to_csv</text>
<text text-anchor="start" x="232.12" y="-542.5" font-family="Helvetica,sans-Serif" font-size="10.00">_file()</text>
<text text-anchor="start" x="223.62" y="-526.5" font-family="Helvetica,sans-Serif" font-size="10.00">&#45;</text>
<text text-anchor="start" x="232.12" y="-526.5" font-family="Helvetica,sans-Serif" font-size="10.00">export_Children_to</text>
<text text-anchor="start" x="232.12" y="-514.5" font-family="Helvetica,sans-Serif" font-size="10.00">_csv_file()</text>
<text text-anchor="start" x="223.62" y="-498.5" font-family="Helvetica,sans-Serif" font-size="10.00">&#45;</text>
<text text-anchor="start" x="232.12" y="-498.5" font-family="Helvetica,sans-Serif" font-size="10.00">export_Employees_to</text>
<text text-anchor="start" x="232.12" y="-486.5" font-family="Helvetica,sans-Serif" font-size="10.00">_csv_file()</text>
<text text-anchor="start" x="223.62" y="-470.5" font-family="Helvetica,sans-Serif" font-size="10.00">&#45;</text>
<text text-anchor="start" x="232.12" y="-470.5" font-family="Helvetica,sans-Serif" font-size="10.00">remove_from_map()</text>
<text text-anchor="start" x="223.62" y="-454.5" font-family="Helvetica,sans-Serif" font-size="10.00">&#45;</text>
<text text-anchor="start" x="232.12" y="-454.5" font-family="Helvetica,sans-Serif" font-size="10.00">search_lavenstein_name</text>
<text text-anchor="start" x="232.12" y="-442.5" font-family="Helvetica,sans-Serif" font-size="10.00">_surname()</text>
<polygon fill="#666666" stroke="#666666" points="218.12,-1102 218.12,-1102 345.62,-1102 345.62,-1102 218.12,-1102"/>
<polygon fill="#666666" stroke="#666666" points="218.12,-894 218.12,-894 230.12,-894 230.12,-894 218.12,-894"/>
<polygon fill="#666666" stroke="#666666" points="230.12,-894 230.12,-894 345.62,-894 345.62,-894 230.12,-894"/>
<polygon fill="none" stroke="#666666" points="218.12,-436 218.12,-1120 345.62,-1120 345.62,-436 218.12,-436"/>
</a>
</g>
</g>
<!-- Node5&#45;&gt;Node1 -->
<g id="edge4_Node000001_Node000005" class="edge">
<title>Node5&#45;&gt;Node1</title>
<g id="a_edge4_Node000001_Node000005"><a xlink:title=" ">
<path fill="none" stroke="#63b8ff" d="M218.18,-475.59C215.09,-462.2 211.98,-448.95 208.88,-436 206.09,-424.36 203.15,-412.43 200.14,-400.39"/>
<polygon fill="none" stroke="#63b8ff" points="200.12,-400.34 194.78,-395.5 197.19,-388.7 202.54,-393.54 200.12,-400.34"/>
</a>
</g>
<text text-anchor="middle" x="229.6" y="-408.5" font-family="Helvetica,sans-Serif" font-size="10.00" fill="grey"> &#45;database_</text>
</g>
</g>
</svg>
