<?xml version="1.0" encoding="UTF-8" standalone="no"?>
<!DOCTYPE svg PUBLIC "-//W3C//DTD SVG 1.1//EN"
 "http://www.w3.org/Graphics/SVG/1.1/DTD/svg11.dtd">
<!-- Generated by graphviz version 12.2.1 (20241206.2353)
 -->
<!-- Title: DataBaseGUI::sort_to_populate_employee_tab Pages: 1 -->
<!--zoomable 222 -->

<svg id="main" version="1.1" xmlns="http://www.w3.org/2000/svg" xmlns:xlink="http://www.w3.org/1999/xlink" xml:space="preserve" onload="init(evt)">

<style type="text/css"><![CDATA[
.node, .edge {opacity: 0.7;}
.node.selected, .edge.selected {opacity: 1;}
.edge:hover path { stroke: red; }
.edge:hover polygon { stroke: red; fill: red; }
]]></style>

<defs>
  <circle id="rim" cx="0" cy="0" r="7"/>
  <circle id="rim2" cx="0" cy="0" r="3.5"/>
  <g id="zoomPlus">
    <use xlink:href="#rim" fill="#404040"><set attributeName="fill" to="#808080" begin="zoomplus.mouseover" end="zoomplus.mouseout"/></use>
    <path d="M-4,0h8M0,-4v8" fill="none" stroke="white" stroke-width="1.5" pointer-events="none"/>
  </g>
  <g id="zoomMin">
    <use xlink:href="#rim" fill="#404040"><set attributeName="fill" to="#808080" begin="zoomminus.mouseover" end="zoomminus.mouseout"/></use>
    <path d="M-4,0h8" fill="none" stroke="white" stroke-width="1.5" pointer-events="none"/>
  </g>
  <g id="arrowUp" transform="translate(30 24)">
    <use xlink:href="#rim"/>
    <path pointer-events="none" fill="none" stroke="white" stroke-width="1.5" d="M0,-3.0v7 M-2.5,-0.5L0,-3.0L2.5,-0.5"/>
  </g>
  <g id="arrowRight" transform="rotate(90) translate(36 -43)">
    <use xlink:href="#rim"/>
    <path pointer-events="none" fill="none" stroke="white" stroke-width="1.5" d="M0,-3.0v7 M-2.5,-0.5L0,-3.0L2.5,-0.5"/>
  </g>
  <g id="arrowDown" transform="rotate(180) translate(-30 -48)">
    <use xlink:href="#rim"/>
    <path pointer-events="none" fill="none" stroke="white" stroke-width="1.5" d="M0,-3.0v7 M-2.5,-0.5L0,-3.0L2.5,-0.5"/>
  </g>
  <g id="arrowLeft" transform="rotate(270) translate(-36 17)">
    <use xlink:href="#rim"/>
    <path pointer-events="none" fill="none" stroke="white" stroke-width="1.5" d="M0,-3.0v7 M-2.5,-0.5L0,-3.0L2.5,-0.5"/>
  </g>
  <g id="resetDef">
    <use xlink:href="#rim2" fill="#404040"><set attributeName="fill" to="#808080" begin="reset.mouseover" end="reset.mouseout"/></use>
  </g>
</defs>
<script type="application/ecmascript">
var viewWidth = 1001;
var viewHeight = 222;
var sectionId = 'dynsection-69';
</script>
<script type="application/ecmascript" xlink:href="svg.min.js"/>
<svg id="graph" class="graph">
<g id="viewport">
<title>DataBaseGUI::sort_to_populate_employee_tab</title>
<!-- Node1 -->
<g id="Node000001" class="node">
<title>Node1</title>
<g id="a_Node000001"><a xlink:title="Selects the appropriate sorting to use based on employee sort index.">
<polygon fill="#999999" stroke="#666666" points="993,-127 869,-127 869,-95 993,-95 993,-127"/>
<text text-anchor="start" x="877" y="-113.5" font-family="Helvetica,sans-Serif" font-size="10.00">DataBaseGUI::sort_to</text>
<text text-anchor="middle" x="931" y="-101.5" font-family="Helvetica,sans-Serif" font-size="10.00">_populate_employee_tab</text>
</a>
</g>
</g>
<!-- Node2 -->
<g id="Node000002" class="node">
<title>Node2</title>
<g id="a_Node000002"><a xlink:href="class_data_base_g_u_i.html#a0f194ae2af0655dbec77fea4c37a0388" target="_top" xlink:title="Adds a new employee to the database.">
<polygon fill="white" stroke="#666666" points="489,-20 342.5,-20 342.5,0 489,0 489,-20"/>
<text text-anchor="middle" x="415.75" y="-6.5" font-family="Helvetica,sans-Serif" font-size="10.00">DataBaseGUI::employee_add</text>
</a>
</g>
</g>
<!-- Node1&#45;&gt;Node2 -->
<g id="edge1_Node000001_Node000002" class="edge">
<title>Node1&#45;&gt;Node2</title>
<g id="a_edge1_Node000001_Node000002"><a xlink:title=" ">
<path fill="none" stroke="#63b8ff" d="M899.26,-88.02C880.93,-75.45 856.68,-60.7 833,-52 718.12,-9.8 574.14,-4.96 489.13,-6.58"/>
<polygon fill="#63b8ff" stroke="#63b8ff" points="897.1,-90.78 907.29,-93.67 901.13,-85.06 897.1,-90.78"/>
</a>
</g>
</g>
<!-- Node6 -->
<g id="Node000006" class="node">
<title>Node6</title>
<g id="a_Node000006"><a xlink:href="class_data_base_g_u_i.html#ae9c0b91905f7d70563c285cd9b5dace3" target="_top" xlink:title="Edits an existing employee in the database.">
<polygon fill="white" stroke="#666666" points="833,-140 686.5,-140 686.5,-120 833,-120 833,-140"/>
<text text-anchor="middle" x="759.75" y="-126.5" font-family="Helvetica,sans-Serif" font-size="10.00">DataBaseGUI::employee_edit</text>
</a>
</g>
</g>
<!-- Node1&#45;&gt;Node6 -->
<g id="edge5_Node000001_Node000006" class="edge">
<title>Node1&#45;&gt;Node6</title>
<g id="a_edge5_Node000001_Node000006"><a xlink:title=" ">
<path fill="none" stroke="#63b8ff" d="M857.63,-119.12C849.57,-120.03 841.36,-120.95 833.29,-121.86"/>
<polygon fill="#63b8ff" stroke="#63b8ff" points="857.85,-122.62 867.39,-118.03 857.06,-115.67 857.85,-122.62"/>
</a>
</g>
</g>
<!-- Node11 -->
<g id="Node000011" class="node">
<title>Node11</title>
<g id="a_Node000011"><a xlink:href="class_data_base_g_u_i.html#a4b70294327e9c316224af10d7a369749" target="_top" xlink:title="Removes an employee from the database.">
<polygon fill="white" stroke="#666666" points="822.5,-190 697,-190 697,-158 822.5,-158 822.5,-190"/>
<text text-anchor="start" x="705" y="-176.5" font-family="Helvetica,sans-Serif" font-size="10.00">DataBaseGUI::employee</text>
<text text-anchor="middle" x="759.75" y="-164.5" font-family="Helvetica,sans-Serif" font-size="10.00">_remove</text>
</a>
</g>
</g>
<!-- Node1&#45;&gt;Node11 -->
<g id="edge12_Node000001_Node000011" class="edge">
<title>Node1&#45;&gt;Node11</title>
<g id="a_edge12_Node000001_Node000011"><a xlink:title=" ">
<path fill="none" stroke="#63b8ff" d="M878.65,-131.56C863.96,-137.32 847.88,-143.51 833,-149 825.28,-151.85 817.06,-154.78 809.04,-157.59"/>
<polygon fill="#63b8ff" stroke="#63b8ff" points="879.65,-134.93 887.67,-128.01 877.08,-128.42 879.65,-134.93"/>
</a>
</g>
</g>
<!-- Node12 -->
<g id="Node000012" class="node">
<title>Node12</title>
<g id="a_Node000012"><a xlink:href="class_data_base_g_u_i.html#a7db832ef3939cc57a78a16f4c09994a6" target="_top" xlink:title="Changes the sorting method for employees.">
<polygon fill="white" stroke="#666666" points="650.5,-64 525,-64 525,-32 650.5,-32 650.5,-64"/>
<text text-anchor="start" x="533" y="-50.5" font-family="Helvetica,sans-Serif" font-size="10.00">DataBaseGUI::employee</text>
<text text-anchor="middle" x="587.75" y="-38.5" font-family="Helvetica,sans-Serif" font-size="10.00">_sort_change</text>
</a>
</g>
</g>
<!-- Node1&#45;&gt;Node12 -->
<g id="edge15_Node000001_Node000012" class="edge">
<title>Node1&#45;&gt;Node12</title>
<g id="a_edge15_Node000001_Node000012"><a xlink:title=" ">
<path fill="none" stroke="#63b8ff" d="M877.44,-90.92C863.19,-86.09 847.65,-81.35 833,-78 771.89,-64.01 700.58,-56.2 650.84,-52.08"/>
<polygon fill="#63b8ff" stroke="#63b8ff" points="876.03,-94.14 886.62,-94.12 878.33,-87.53 876.03,-94.14"/>
</a>
</g>
</g>
<!-- Node13 -->
<g id="Node000013" class="node">
<title>Node13</title>
<g id="a_Node000013"><a xlink:href="class_data_base_g_u_i.html#a438b5070d6a58ffa5e884d18740852c6" target="_top" xlink:title="Handles tab change events.">
<polygon fill="white" stroke="#666666" points="482.62,-100 348.88,-100 348.88,-80 482.62,-80 482.62,-100"/>
<text text-anchor="middle" x="415.75" y="-86.5" font-family="Helvetica,sans-Serif" font-size="10.00">DataBaseGUI::tab_change</text>
</a>
</g>
</g>
<!-- Node1&#45;&gt;Node13 -->
<g id="edge17_Node000001_Node000013" class="edge">
<title>Node1&#45;&gt;Node13</title>
<g id="a_edge17_Node000001_Node000013"><a xlink:title=" ">
<path fill="none" stroke="#63b8ff" d="M857.12,-108.02C757.27,-103.93 579.38,-96.65 483.09,-92.71"/>
<polygon fill="#63b8ff" stroke="#63b8ff" points="856.95,-111.51 867.09,-108.43 857.24,-104.52 856.95,-111.51"/>
</a>
</g>
</g>
<!-- Node3 -->
<g id="Node000003" class="node">
<title>Node3</title>
<g id="a_Node000003"><a xlink:href="class_data_base_g_u_i.html#a6c35e47ed05a80db144f240dee805a9d" target="_top" xlink:title="Sets up the GUI.">
<polygon fill="white" stroke="#666666" points="297.5,-90 190,-90 190,-70 297.5,-70 297.5,-90"/>
<text text-anchor="middle" x="243.75" y="-76.5" font-family="Helvetica,sans-Serif" font-size="10.00">DataBaseGUI::setup</text>
</a>
</g>
</g>
<!-- Node2&#45;&gt;Node3 -->
<g id="edge2_Node000002_Node000003" class="edge">
<title>Node2&#45;&gt;Node3</title>
<g id="a_edge2_Node000002_Node000003"><a xlink:title=" ">
<path fill="none" stroke="#63b8ff" d="M375.07,-24.37C364.45,-28.34 353,-32.73 342.5,-37 316.56,-47.54 287.22,-60.61 267.5,-69.55"/>
<polygon fill="#63b8ff" stroke="#63b8ff" points="376.19,-27.68 384.36,-20.93 373.76,-21.12 376.19,-27.68"/>
</a>
</g>
</g>
<!-- Node4 -->
<g id="Node000004" class="node">
<title>Node4</title>
<g id="a_Node000004"><a xlink:href="class_data_base_g_u_i.html#a2c83afe3a30fb5166d275d9a74d33196" target="_top" xlink:title="Default constructor.">
<polygon fill="white" stroke="#666666" points="145,-109 0,-109 0,-89 145,-89 145,-109"/>
<text text-anchor="middle" x="72.5" y="-95.5" font-family="Helvetica,sans-Serif" font-size="10.00">DataBaseGUI::DataBaseGUI</text>
</a>
</g>
</g>
<!-- Node3&#45;&gt;Node4 -->
<g id="edge3_Node000003_Node000004" class="edge">
<title>Node3&#45;&gt;Node4</title>
<g id="a_edge3_Node000003_Node000004"><a xlink:title=" ">
<path fill="none" stroke="#63b8ff" d="M178.55,-87.21C167.69,-88.43 156.36,-89.7 145.32,-90.94"/>
<polygon fill="#63b8ff" stroke="#63b8ff" points="178.61,-90.72 188.16,-86.13 177.83,-83.77 178.61,-90.72"/>
</a>
</g>
</g>
<!-- Node5 -->
<g id="Node000005" class="node">
<title>Node5</title>
<g id="a_Node000005"><a xlink:href="class_data_base_g_u_i.html#aba10d1d8e9fb151632ff34de418cee82" target="_top" xlink:title="Constructs a DataBaseGUI object.">
<polygon fill="white" stroke="#666666" points="145,-71 0,-71 0,-51 145,-51 145,-71"/>
<text text-anchor="middle" x="72.5" y="-57.5" font-family="Helvetica,sans-Serif" font-size="10.00">DataBaseGUI::DataBaseGUI</text>
</a>
</g>
</g>
<!-- Node3&#45;&gt;Node5 -->
<g id="edge4_Node000003_Node000005" class="edge">
<title>Node3&#45;&gt;Node5</title>
<g id="a_edge4_Node000003_Node000005"><a xlink:title=" ">
<path fill="none" stroke="#63b8ff" d="M178.55,-72.79C167.69,-71.57 156.36,-70.3 145.32,-69.06"/>
<polygon fill="#63b8ff" stroke="#63b8ff" points="177.83,-76.23 188.16,-73.87 178.61,-69.28 177.83,-76.23"/>
</a>
</g>
</g>
<!-- Node7 -->
<g id="Node000007" class="node">
<title>Node7</title>
<g id="a_Node000007"><a xlink:href="class_data_base_g_u_i.html#a2232520db239e60a4c37ee49868e6652" target="_top" xlink:title="Populates the parent tab with a multimap of parents.">
<polygon fill="white" stroke="#666666" points="647.88,-152 527.62,-152 527.62,-120 647.88,-120 647.88,-152"/>
<text text-anchor="start" x="535.62" y="-138.5" font-family="Helvetica,sans-Serif" font-size="10.00">DataBaseGUI::populate</text>
<text text-anchor="middle" x="587.75" y="-126.5" font-family="Helvetica,sans-Serif" font-size="10.00">_employee_tab</text>
</a>
</g>
</g>
<!-- Node6&#45;&gt;Node7 -->
<g id="edge6_Node000006_Node000007" class="edge">
<title>Node6&#45;&gt;Node7</title>
<g id="a_edge6_Node000006_Node000007"><a xlink:title=" ">
<path fill="none" stroke="#63b8ff" d="M674.84,-132.96C665.87,-133.28 656.89,-133.6 648.29,-133.9"/>
<polygon fill="#63b8ff" stroke="#63b8ff" points="674.78,-136.47 684.65,-132.62 674.53,-129.47 674.78,-136.47"/>
</a>
</g>
</g>
<!-- Node8 -->
<g id="Node000008" class="node">
<title>Node8</title>
<g id="a_Node000008"><a xlink:href="class_data_base_g_u_i.html#abab0899c6a55e240687bf21734273428" target="_top" xlink:title="Populates the parent tab with a list of parents.">
<polygon fill="white" stroke="#666666" points="647.88,-202 527.62,-202 527.62,-170 647.88,-170 647.88,-202"/>
<text text-anchor="start" x="535.62" y="-188.5" font-family="Helvetica,sans-Serif" font-size="10.00">DataBaseGUI::populate</text>
<text text-anchor="middle" x="587.75" y="-176.5" font-family="Helvetica,sans-Serif" font-size="10.00">_employee_tab</text>
</a>
</g>
</g>
<!-- Node6&#45;&gt;Node8 -->
<g id="edge7_Node000006_Node000008" class="edge">
<title>Node6&#45;&gt;Node8</title>
<g id="a_edge7_Node000006_Node000008"><a xlink:title=" ">
<path fill="none" stroke="#63b8ff" d="M705.43,-143.35C699.02,-145.15 692.59,-147.05 686.5,-149 667.49,-155.08 646.77,-162.77 629.32,-169.56"/>
<polygon fill="#63b8ff" stroke="#63b8ff" points="705.95,-146.83 714.67,-140.82 704.1,-140.08 705.95,-146.83"/>
</a>
</g>
</g>
<!-- Node8&#45;&gt;Node1 -->
<g id="edge11_Node000008_Node000001" class="edge">
<title>Node8&#45;&gt;Node1</title>
<g id="a_edge11_Node000008_Node000001"><a xlink:title=" ">
<path fill="none" stroke="#63b8ff" d="M659.18,-204.7C709.32,-214.48 777.39,-220.47 833,-199 870.33,-184.59 902.18,-148.4 918.44,-127.19"/>
<polygon fill="#63b8ff" stroke="#63b8ff" points="660.11,-201.31 649.61,-202.73 658.69,-208.17 660.11,-201.31"/>
</a>
</g>
</g>
<!-- Node9 -->
<g id="Node000009" class="node">
<title>Node9</title>
<g id="a_Node000009"><a xlink:href="class_data_base_g_u_i.html#a54b1ac54d775ea37ae05fd54c756aebe" target="_top" xlink:title="Searches for employees based on the provided name and surname.">
<polygon fill="white" stroke="#666666" points="478.5,-159 353,-159 353,-127 478.5,-127 478.5,-159"/>
<text text-anchor="start" x="361" y="-145.5" font-family="Helvetica,sans-Serif" font-size="10.00">DataBaseGUI::employee</text>
<text text-anchor="middle" x="415.75" y="-133.5" font-family="Helvetica,sans-Serif" font-size="10.00">_search</text>
</a>
</g>
</g>
<!-- Node8&#45;&gt;Node9 -->
<g id="edge8_Node000008_Node000009" class="edge">
<title>Node8&#45;&gt;Node9</title>
<g id="a_edge8_Node000008_Node000009"><a xlink:title=" ">
<path fill="none" stroke="#63b8ff" d="M516.45,-168.22C503.95,-165.06 491.02,-161.79 478.77,-158.69"/>
<polygon fill="#63b8ff" stroke="#63b8ff" points="515.27,-171.53 525.82,-170.59 516.99,-164.74 515.27,-171.53"/>
</a>
</g>
</g>
<!-- Node9&#45;&gt;Node3 -->
<g id="edge10_Node000009_Node000003" class="edge">
<title>Node9&#45;&gt;Node3</title>
<g id="a_edge10_Node000009_Node000003"><a xlink:title=" ">
<path fill="none" stroke="#63b8ff" d="M359.74,-122.61C330.81,-111.89 296.58,-99.21 273.03,-90.48"/>
<polygon fill="#63b8ff" stroke="#63b8ff" points="358.52,-125.89 369.11,-126.09 360.95,-119.33 358.52,-125.89"/>
</a>
</g>
</g>
<!-- Node10 -->
<g id="Node000010" class="node">
<title>Node10</title>
<g id="a_Node000010"><a xlink:href="class_data_base_g_u_i.html#a3a2267784d541d4c74b143458aa7eedb" target="_top" xlink:title="Searches for employees based on the provided employee pointer.">
<polygon fill="white" stroke="#666666" points="306.5,-159 181,-159 181,-127 306.5,-127 306.5,-159"/>
<text text-anchor="start" x="189" y="-145.5" font-family="Helvetica,sans-Serif" font-size="10.00">DataBaseGUI::employee</text>
<text text-anchor="middle" x="243.75" y="-133.5" font-family="Helvetica,sans-Serif" font-size="10.00">_search_by_pointer</text>
</a>
</g>
</g>
<!-- Node9&#45;&gt;Node10 -->
<g id="edge9_Node000009_Node000010" class="edge">
<title>Node9&#45;&gt;Node10</title>
<g id="a_edge9_Node000009_Node000010"><a xlink:title=" ">
<path fill="none" stroke="#63b8ff" d="M341.48,-143C329.94,-143 318.1,-143 306.84,-143"/>
<polygon fill="#63b8ff" stroke="#63b8ff" points="341.38,-146.5 351.38,-143 341.38,-139.5 341.38,-146.5"/>
</a>
</g>
</g>
<!-- Node11&#45;&gt;Node7 -->
<g id="edge13_Node000011_Node000007" class="edge">
<title>Node11&#45;&gt;Node7</title>
<g id="a_edge13_Node000011_Node000007"><a xlink:title=" ">
<path fill="none" stroke="#63b8ff" d="M685.97,-157.73C673.4,-154.92 660.46,-152.03 648.29,-149.31"/>
<polygon fill="#63b8ff" stroke="#63b8ff" points="684.9,-161.08 695.42,-159.84 686.42,-154.25 684.9,-161.08"/>
</a>
</g>
</g>
<!-- Node11&#45;&gt;Node8 -->
<g id="edge14_Node000011_Node000008" class="edge">
<title>Node11&#45;&gt;Node8</title>
<g id="a_edge14_Node000011_Node000008"><a xlink:title=" ">
<path fill="none" stroke="#63b8ff" d="M685.59,-179.16C673.13,-180.04 660.34,-180.95 648.29,-181.8"/>
<polygon fill="#63b8ff" stroke="#63b8ff" points="685.66,-182.67 695.39,-178.47 685.16,-175.69 685.66,-182.67"/>
</a>
</g>
</g>
<!-- Node12&#45;&gt;Node3 -->
<g id="edge16_Node000012_Node000003" class="edge">
<title>Node12&#45;&gt;Node3</title>
<g id="a_edge16_Node000012_Node000003"><a xlink:title=" ">
<path fill="none" stroke="#63b8ff" d="M513.46,-54.86C448.65,-60.92 355.66,-69.62 297.8,-75.04"/>
<polygon fill="#63b8ff" stroke="#63b8ff" points="513.68,-58.35 523.31,-53.94 513.03,-51.38 513.68,-58.35"/>
</a>
</g>
</g>
<!-- Node13&#45;&gt;Node3 -->
<g id="edge18_Node000013_Node000003" class="edge">
<title>Node13&#45;&gt;Node3</title>
<g id="a_edge18_Node000013_Node000003"><a xlink:title=" ">
<path fill="none" stroke="#63b8ff" d="M337.41,-85.45C324.05,-84.66 310.44,-83.86 297.91,-83.13"/>
<polygon fill="#63b8ff" stroke="#63b8ff" points="336.84,-88.92 347.03,-86.02 337.25,-81.93 336.84,-88.92"/>
</a>
</g>
</g>
</g>
</svg>

<g id="navigator" transform="translate(0 0)" fill="#404254">
  <rect fill="#f2f5e9" fill-opacity="0.5" stroke="#606060" stroke-width=".5" x="0" y="0" width="60" height="60"/>
  <use id="zoomplus" xlink:href="#zoomPlus" x="17" y="9" onmousedown="handleZoom(evt,'in')"/>
  <use id="zoomminus" xlink:href="#zoomMin" x="42" y="9" onmousedown="handleZoom(evt,'out')"/>
  <use id="reset" xlink:href="#resetDef" x="30" y="36" onmousedown="handleReset()"/>
   <use id="arrowup" xlink:href="#arrowUp" x="0" y="0" onmousedown="handlePan(0,-1)"/>
  <use id="arrowright" xlink:href="#arrowRight" x="0" y="0" onmousedown="handlePan(1,0)"/>
  <use id="arrowdown" xlink:href="#arrowDown" x="0" y="0" onmousedown="handlePan(0,1)"/>
  <use id="arrowleft" xlink:href="#arrowLeft" x="0" y="0" onmousedown="handlePan(-1,0)"/>
</g>
<svg viewBox="0 0 15 15" width="100%" height="30px" preserveAspectRatio="xMaxYMin meet">
 <g id="arrow_out" transform="scale(0.3 0.3)">
  <a xlink:href="class_data_base_g_u_i_a0298d31c219c66a65a01eb01372e254d_icgraph_org.svg" target="_base">
   <rect id="button" ry="5" rx="5" y="6" x="6" height="38" width="38"
        fill="#f2f5e9" fill-opacity="0.5" stroke="#606060" stroke-width="1.0"/>
   <path id="arrow"
     d="M 11.500037,31.436501 C 11.940474,20.09759 22.043105,11.32322 32.158766,21.979434 L 37.068811,17.246167 C 37.068811,17.246167 37.088388,32 37.088388,32 L 22.160133,31.978069 C 22.160133,31.978069 26.997745,27.140456 26.997745,27.140456 C 18.528582,18.264221 13.291696,25.230495 11.500037,31.436501 z"
     style="fill:#404040;"/>
  </a>
 </g>
</svg>

<style type='text/css'>
<![CDATA[
[data-mouse-over-selected='false'] { opacity: 0.7; }
[data-mouse-over-selected='true']  { opacity: 1.0; }
]]>
</style>
<script type="application/ecmascript"><![CDATA[
document.addEventListener('DOMContentLoaded', (event) => {
  highlightEdges();
  highlightAdjacentNodes();
});
]]></script>
</svg>
