<?xml version="1.0" encoding="UTF-8" standalone="no"?>
<!DOCTYPE svg PUBLIC "-//W3C//DTD SVG 1.1//EN"
 "http://www.w3.org/Graphics/SVG/1.1/DTD/svg11.dtd">
<!-- Generated by graphviz version 12.2.1 (20241206.2353)
 -->
<!-- Title: Contacts::copy_to_clipboard Pages: 1 -->
<svg width="264pt" height="104pt"
 viewBox="0.00 0.00 263.50 104.00" xmlns="http://www.w3.org/2000/svg" xmlns:xlink="http://www.w3.org/1999/xlink">
<g id="graph0" class="graph" transform="scale(1 1) rotate(0) translate(4 100)">
<title>Contacts::copy_to_clipboard</title>
<!-- Node1 -->
<g id="Node000001" class="node">
<title>Node1</title>
<g id="a_Node000001"><a xlink:title="Copies the given text to the clipboard.">
<polygon fill="#999999" stroke="#666666" points="255.5,-58 115,-58 115,-38 255.5,-38 255.5,-58"/>
<text text-anchor="middle" x="185.25" y="-44.5" font-family="Helvetica,sans-Serif" font-size="10.00">Contacts::copy_to_clipboard</text>
</a>
</g>
</g>
<!-- Node2 -->
<g id="Node000002" class="node">
<title>Node2</title>
<g id="a_Node000002"><a xlink:href="$class_address.html#a3ee879b3abd9f3005158143614b0830e" xlink:title="Copies the address to the clipboard.">
<polygon fill="white" stroke="#666666" points="79,-96 0,-96 0,-76 79,-76 79,-96"/>
<text text-anchor="middle" x="39.5" y="-82.5" font-family="Helvetica,sans-Serif" font-size="10.00">Address::copy</text>
</a>
</g>
</g>
<!-- Node1&#45;&gt;Node2 -->
<g id="edge1_Node000001_Node000002" class="edge">
<title>Node1&#45;&gt;Node2</title>
<g id="a_edge1_Node000001_Node000002"><a xlink:title=" ">
<path fill="none" stroke="#63b8ff" d="M133.7,-61.36C115.75,-66.11 95.83,-71.37 79.04,-75.81"/>
<polygon fill="#63b8ff" stroke="#63b8ff" points="134.35,-64.81 143.13,-58.87 132.56,-58.04 134.35,-64.81"/>
</a>
</g>
</g>
<!-- Node3 -->
<g id="Node000003" class="node">
<title>Node3</title>
<g id="a_Node000003"><a xlink:href="$class_email.html#ae980d27651e3e00db41d7634a9035fa1" xlink:title="Copies the email address to the clipboard.">
<polygon fill="white" stroke="#666666" points="73.38,-58 5.62,-58 5.62,-38 73.38,-38 73.38,-58"/>
<text text-anchor="middle" x="39.5" y="-44.5" font-family="Helvetica,sans-Serif" font-size="10.00">Email::copy</text>
</a>
</g>
</g>
<!-- Node1&#45;&gt;Node3 -->
<g id="edge2_Node000001_Node000003" class="edge">
<title>Node1&#45;&gt;Node3</title>
<g id="a_edge2_Node000001_Node000003"><a xlink:title=" ">
<path fill="none" stroke="#63b8ff" d="M103.47,-48C92.99,-48 82.77,-48 73.72,-48"/>
<polygon fill="#63b8ff" stroke="#63b8ff" points="103.39,-51.5 113.39,-48 103.39,-44.5 103.39,-51.5"/>
</a>
</g>
</g>
<!-- Node4 -->
<g id="Node000004" class="node">
<title>Node4</title>
<g id="a_Node000004"><a xlink:href="$class_phone.html#a3734838897a75a8ae63be7d1f9d4f6a0" xlink:title="Copies the phone number to the clipboard.">
<polygon fill="white" stroke="#666666" points="74.88,-20 4.12,-20 4.12,0 74.88,0 74.88,-20"/>
<text text-anchor="middle" x="39.5" y="-6.5" font-family="Helvetica,sans-Serif" font-size="10.00">Phone::copy</text>
</a>
</g>
</g>
<!-- Node1&#45;&gt;Node4 -->
<g id="edge3_Node000001_Node000004" class="edge">
<title>Node1&#45;&gt;Node4</title>
<g id="a_edge3_Node000001_Node000004"><a xlink:title=" ">
<path fill="none" stroke="#63b8ff" d="M133.52,-34.59C114.2,-29.48 92.64,-23.78 75.14,-19.16"/>
<polygon fill="#63b8ff" stroke="#63b8ff" points="132.56,-37.96 143.13,-37.13 134.35,-31.19 132.56,-37.96"/>
</a>
</g>
</g>
</g>
</svg>
