<?xml version="1.0" encoding="UTF-8" standalone="no"?>
<!DOCTYPE svg PUBLIC "-//W3C//DTD SVG 1.1//EN"
 "http://www.w3.org/Graphics/SVG/1.1/DTD/svg11.dtd">
<!-- Generated by graphviz version 12.2.1 (20241206.2353)
 -->
<!-- Title: Database::import_from_stream Pages: 1 -->
<svg width="305pt" height="190pt"
 viewBox="0.00 0.00 304.75 190.00" xmlns="http://www.w3.org/2000/svg" xmlns:xlink="http://www.w3.org/1999/xlink">
<g id="graph0" class="graph" transform="scale(1 1) rotate(0) translate(4 186)">
<title>Database::import_from_stream</title>
<!-- Node1 -->
<g id="Node000001" class="node">
<title>Node1</title>
<g id="a_Node000001"><a xlink:title="Imports data from a stream.">
<polygon fill="#999999" stroke="#666666" points="115.75,-107 0,-107 0,-75 115.75,-75 115.75,-107"/>
<text text-anchor="start" x="8" y="-93.5" font-family="Helvetica,sans-Serif" font-size="10.00">Database::import_from</text>
<text text-anchor="middle" x="57.88" y="-81.5" font-family="Helvetica,sans-Serif" font-size="10.00">_stream</text>
</a>
</g>
</g>
<!-- Node2 -->
<g id="Node000002" class="node">
<title>Node2</title>
<g id="a_Node000002"><a xlink:href="class_database.html#a5010b6ed864bd832f96c86e33097e95f" target="_top" xlink:title="Imports children from a CSV file.">
<polygon fill="white" stroke="#666666" points="290.38,-182 158.12,-182 158.12,-150 290.38,-150 290.38,-182"/>
<text text-anchor="start" x="166.12" y="-168.5" font-family="Helvetica,sans-Serif" font-size="10.00">Database::import_Children</text>
<text text-anchor="middle" x="224.25" y="-156.5" font-family="Helvetica,sans-Serif" font-size="10.00">_from_csv_file</text>
</a>
</g>
</g>
<!-- Node1&#45;&gt;Node2 -->
<g id="edge1_Node000001_Node000002" class="edge">
<title>Node1&#45;&gt;Node2</title>
<g id="a_edge1_Node000001_Node000002"><a xlink:title=" ">
<path fill="none" stroke="#63b8ff" d="M86.35,-107.27C104.54,-117.67 129.13,-131.03 151.75,-141 155.12,-142.48 158.61,-143.94 162.15,-145.37"/>
<polygon fill="#63b8ff" stroke="#63b8ff" points="160.85,-148.62 171.44,-148.96 163.38,-142.09 160.85,-148.62"/>
</a>
</g>
</g>
<!-- Node3 -->
<g id="Node000003" class="node">
<title>Node3</title>
<g id="a_Node000003"><a xlink:href="class_database.html#a8ba6656ed991b406bb7b3ecb716726af" target="_top" xlink:title="Imports employees from a CSV file.">
<polygon fill="white" stroke="#666666" points="296.75,-132 151.75,-132 151.75,-100 296.75,-100 296.75,-132"/>
<text text-anchor="start" x="159.75" y="-118.5" font-family="Helvetica,sans-Serif" font-size="10.00">Database::import_Employees</text>
<text text-anchor="middle" x="224.25" y="-106.5" font-family="Helvetica,sans-Serif" font-size="10.00">_from_csv_file</text>
</a>
</g>
</g>
<!-- Node1&#45;&gt;Node3 -->
<g id="edge2_Node000001_Node000003" class="edge">
<title>Node1&#45;&gt;Node3</title>
<g id="a_edge2_Node000001_Node000003"><a xlink:title=" ">
<path fill="none" stroke="#63b8ff" d="M115.9,-99.67C123.75,-100.87 131.92,-102.11 140.12,-103.36"/>
<polygon fill="#63b8ff" stroke="#63b8ff" points="139.35,-106.78 149.77,-104.82 140.41,-99.86 139.35,-106.78"/>
</a>
</g>
</g>
<!-- Node4 -->
<g id="Node000004" class="node">
<title>Node4</title>
<g id="a_Node000004"><a xlink:href="class_database.html#a5234a41c55542e88486c147ca399f386" target="_top" xlink:title="Imports lessons from a CSV file.">
<polygon fill="white" stroke="#666666" points="290.75,-82 157.75,-82 157.75,-50 290.75,-50 290.75,-82"/>
<text text-anchor="start" x="165.75" y="-68.5" font-family="Helvetica,sans-Serif" font-size="10.00">Database::import_Lessons</text>
<text text-anchor="middle" x="224.25" y="-56.5" font-family="Helvetica,sans-Serif" font-size="10.00">_from_csv_file</text>
</a>
</g>
</g>
<!-- Node1&#45;&gt;Node4 -->
<g id="edge3_Node000001_Node000004" class="edge">
<title>Node1&#45;&gt;Node4</title>
<g id="a_edge3_Node000001_Node000004"><a xlink:title=" ">
<path fill="none" stroke="#63b8ff" d="M115.9,-82.33C125.61,-80.85 135.82,-79.3 145.94,-77.76"/>
<polygon fill="#63b8ff" stroke="#63b8ff" points="146.44,-81.22 155.8,-76.26 145.39,-74.3 146.44,-81.22"/>
</a>
</g>
</g>
<!-- Node5 -->
<g id="Node000005" class="node">
<title>Node5</title>
<g id="a_Node000005"><a xlink:href="class_database.html#a0036708a325b181645735f8fc0c2beaa" target="_top" xlink:title="Imports parents from a CSV file.">
<polygon fill="white" stroke="#666666" points="289.25,-32 159.25,-32 159.25,0 289.25,0 289.25,-32"/>
<text text-anchor="start" x="167.25" y="-18.5" font-family="Helvetica,sans-Serif" font-size="10.00">Database::import_Parents</text>
<text text-anchor="middle" x="224.25" y="-6.5" font-family="Helvetica,sans-Serif" font-size="10.00">_from_csv_file</text>
</a>
</g>
</g>
<!-- Node1&#45;&gt;Node5 -->
<g id="edge4_Node000001_Node000005" class="edge">
<title>Node1&#45;&gt;Node5</title>
<g id="a_edge4_Node000001_Node000005"><a xlink:title=" ">
<path fill="none" stroke="#63b8ff" d="M86.35,-74.73C104.54,-64.33 129.13,-50.97 151.75,-41 155.12,-39.52 158.61,-38.06 162.15,-36.63"/>
<polygon fill="#63b8ff" stroke="#63b8ff" points="163.38,-39.91 171.44,-33.04 160.85,-33.38 163.38,-39.91"/>
</a>
</g>
</g>
</g>
</svg>
