<?xml version="1.0" encoding="UTF-8" standalone="no"?>
<!DOCTYPE svg PUBLIC "-//W3C//DTD SVG 1.1//EN"
 "http://www.w3.org/Graphics/SVG/1.1/DTD/svg11.dtd">
<!-- Generated by graphviz version 12.2.1 (20241206.2353)
 -->
<!-- Title: Database::filter_parent_by_surname Pages: 1 -->
<svg width="281pt" height="66pt"
 viewBox="0.00 0.00 280.75 66.00" xmlns="http://www.w3.org/2000/svg" xmlns:xlink="http://www.w3.org/1999/xlink">
<g id="graph0" class="graph" transform="scale(1 1) rotate(0) translate(4 62)">
<title>Database::filter_parent_by_surname</title>
<!-- Node1 -->
<g id="Node000001" class="node">
<title>Node1</title>
<g id="a_Node000001"><a xlink:title="Filters parents by surname.">
<polygon fill="#999999" stroke="#666666" points="115,-45 0,-45 0,-13 115,-13 115,-45"/>
<text text-anchor="start" x="8" y="-31.5" font-family="Helvetica,sans-Serif" font-size="10.00">Database::filter_parent</text>
<text text-anchor="middle" x="57.5" y="-19.5" font-family="Helvetica,sans-Serif" font-size="10.00">_by_surname</text>
</a>
</g>
</g>
<!-- Node2 -->
<g id="Node000002" class="node">
<title>Node2</title>
<g id="a_Node000002"><a xlink:href="$_helper___functions_8h.html#a0d3fbaad2936b89eb0d594cba2929800" xlink:title="Filters a vector of pointers based on a predicate.">
<polygon fill="white" stroke="#666666" points="229.25,-58 194.5,-58 194.5,-38 229.25,-38 229.25,-58"/>
<text text-anchor="middle" x="211.88" y="-44.5" font-family="Helvetica,sans-Serif" font-size="10.00">filter</text>
</a>
</g>
</g>
<!-- Node1&#45;&gt;Node2 -->
<g id="edge1_Node000001_Node000002" class="edge">
<title>Node1&#45;&gt;Node2</title>
<g id="a_edge1_Node000001_Node000002"><a xlink:title=" ">
<path fill="none" stroke="#63b8ff" d="M115.24,-36.07C138.28,-38.95 163.87,-42.14 182.78,-44.5"/>
<polygon fill="#63b8ff" stroke="#63b8ff" points="182.28,-47.96 192.64,-45.73 183.15,-41.02 182.28,-47.96"/>
</a>
</g>
</g>
<!-- Node3 -->
<g id="Node000003" class="node">
<title>Node3</title>
<g id="a_Node000003"><a xlink:href="$_helper___functions_8h.html#ab487a2e8523090e129c7f67ed349c9a1" xlink:title="Filters a multimap by its keys based on a predicate.">
<polygon fill="white" stroke="#666666" points="272.75,-20 151,-20 151,0 272.75,0 272.75,-20"/>
<text text-anchor="middle" x="211.88" y="-6.5" font-family="Helvetica,sans-Serif" font-size="10.00">filter_multimap_by_keys</text>
</a>
</g>
</g>
<!-- Node1&#45;&gt;Node3 -->
<g id="edge2_Node000001_Node000003" class="edge">
<title>Node1&#45;&gt;Node3</title>
<g id="a_edge2_Node000001_Node000003"><a xlink:title=" ">
<path fill="none" stroke="#63b8ff" d="M115.24,-21.93C123.06,-20.95 131.17,-19.94 139.22,-18.93"/>
<polygon fill="#63b8ff" stroke="#63b8ff" points="139.52,-22.42 149.01,-17.71 138.66,-15.48 139.52,-22.42"/>
</a>
</g>
</g>
</g>
</svg>
