<?xml version="1.0" encoding="UTF-8" standalone="no"?>
<!DOCTYPE svg PUBLIC "-//W3C//DTD SVG 1.1//EN"
 "http://www.w3.org/Graphics/SVG/1.1/DTD/svg11.dtd">
<!-- Generated by graphviz version 12.2.1 (20241206.2353)
 -->
<!-- Title: Ui::EmployeeEntryClass Pages: 1 -->
<svg width="124pt" height="494pt"
 viewBox="0.00 0.00 124.00 494.00" xmlns="http://www.w3.org/2000/svg" xmlns:xlink="http://www.w3.org/1999/xlink">
<g id="graph0" class="graph" transform="scale(1 1) rotate(0) translate(4 490)">
<title>Ui::EmployeeEntryClass</title>
<!-- Node1 -->
<g id="Node000001" class="node">
<title>Node1</title>
<g id="a_Node000001"><a xlink:title=" ">
<polygon fill="#999999" stroke="none" points="116,-52 0,-52 0,0 116,0 116,-52"/>
<text text-anchor="start" x="4" y="-38.5" font-family="Helvetica,sans-Serif" font-size="10.00">Ui::EmployeeEntryClass</text>
<text text-anchor="start" x="56.5" y="-22.5" font-family="Helvetica,sans-Serif" font-size="10.00"> </text>
<text text-anchor="start" x="56.5" y="-6.5" font-family="Helvetica,sans-Serif" font-size="10.00"> </text>
<polygon fill="#666666" stroke="#666666" points="0,-34 0,-34 116,-34 116,-34 0,-34"/>
<polygon fill="#666666" stroke="#666666" points="0,-18 0,-18 116,-18 116,-18 0,-18"/>
<polygon fill="none" stroke="#666666" points="0,0 0,-52 116,-52 116,0 0,0"/>
</a>
</g>
</g>
<!-- Node2 -->
<g id="Node000002" class="node">
<title>Node2</title>
<g id="a_Node000002"><a xlink:href="class_ui___employee_entry_class.html" target="_top" xlink:title=" ">
<polygon fill="white" stroke="none" points="115.62,-269 0.38,-269 0.38,-89 115.62,-89 115.62,-269"/>
<text text-anchor="start" x="4.38" y="-255.5" font-family="Helvetica,sans-Serif" font-size="10.00">Ui_EmployeeEntryClass</text>
<text text-anchor="start" x="12.56" y="-239.5" font-family="Helvetica,sans-Serif" font-size="10.00">+</text>
<text text-anchor="start" x="30.75" y="-239.5" font-family="Helvetica,sans-Serif" font-size="10.00">gridLayout</text>
<text text-anchor="start" x="12.56" y="-223.5" font-family="Helvetica,sans-Serif" font-size="10.00">+</text>
<text text-anchor="start" x="30.75" y="-223.5" font-family="Helvetica,sans-Serif" font-size="10.00">frame</text>
<text text-anchor="start" x="12.56" y="-207.5" font-family="Helvetica,sans-Serif" font-size="10.00">+</text>
<text text-anchor="start" x="30.75" y="-207.5" font-family="Helvetica,sans-Serif" font-size="10.00">gridLayout_2</text>
<text text-anchor="start" x="12.56" y="-191.5" font-family="Helvetica,sans-Serif" font-size="10.00">+</text>
<text text-anchor="start" x="30.75" y="-191.5" font-family="Helvetica,sans-Serif" font-size="10.00">edit_button</text>
<text text-anchor="start" x="12.56" y="-175.5" font-family="Helvetica,sans-Serif" font-size="10.00">+</text>
<text text-anchor="start" x="30.75" y="-175.5" font-family="Helvetica,sans-Serif" font-size="10.00">remove_button</text>
<text text-anchor="start" x="12.56" y="-159.5" font-family="Helvetica,sans-Serif" font-size="10.00">+</text>
<text text-anchor="start" x="30.75" y="-159.5" font-family="Helvetica,sans-Serif" font-size="10.00">surname</text>
<text text-anchor="start" x="12.56" y="-143.5" font-family="Helvetica,sans-Serif" font-size="10.00">+</text>
<text text-anchor="start" x="30.75" y="-143.5" font-family="Helvetica,sans-Serif" font-size="10.00">name</text>
<text text-anchor="start" x="12.56" y="-127.5" font-family="Helvetica,sans-Serif" font-size="10.00">+</text>
<text text-anchor="start" x="30.75" y="-127.5" font-family="Helvetica,sans-Serif" font-size="10.00">hours_worked</text>
<text text-anchor="start" x="12.56" y="-111.5" font-family="Helvetica,sans-Serif" font-size="10.00">+</text>
<text text-anchor="start" x="30.75" y="-111.5" font-family="Helvetica,sans-Serif" font-size="10.00">setupUi()</text>
<text text-anchor="start" x="12.56" y="-95.5" font-family="Helvetica,sans-Serif" font-size="10.00">+</text>
<text text-anchor="start" x="30.75" y="-95.5" font-family="Helvetica,sans-Serif" font-size="10.00">retranslateUi()</text>
<polygon fill="#666666" stroke="#666666" points="0.38,-251 0.38,-251 115.62,-251 115.62,-251 0.38,-251"/>
<polygon fill="#666666" stroke="#666666" points="0.38,-123 0.38,-123 28.75,-123 28.75,-123 0.38,-123"/>
<polygon fill="#666666" stroke="#666666" points="28.75,-123 28.75,-123 115.62,-123 115.62,-123 28.75,-123"/>
<polygon fill="none" stroke="#666666" points="0.38,-89 0.38,-269 115.62,-269 115.62,-89 0.38,-89"/>
</a>
</g>
</g>
<!-- Node2&#45;&gt;Node1 -->
<g id="edge1_Node000001_Node000002" class="edge">
<title>Node2&#45;&gt;Node1</title>
<g id="a_edge1_Node000001_Node000002"><a xlink:title=" ">
<path fill="none" stroke="#63b8ff" d="M58,-77.88C58,-68.36 58,-59.42 58,-51.78"/>
<polygon fill="none" stroke="#63b8ff" points="54.5,-77.78 58,-87.78 61.5,-77.78 54.5,-77.78"/>
</a>
</g>
</g>
<!-- Node3 -->
<g id="Node000003" class="node">
<title>Node3</title>
<g id="a_Node000003"><a xlink:href="class_clickable_label.html" target="_top" xlink:title="A QLabel subclass that emits a clicked signal when the label is clicked.">
<polygon fill="white" stroke="none" points="115.38,-397 0.62,-397 0.62,-329 115.38,-329 115.38,-397"/>
<text text-anchor="start" x="26.12" y="-383.5" font-family="Helvetica,sans-Serif" font-size="10.00">ClickableLabel</text>
<text text-anchor="start" x="56.5" y="-367.5" font-family="Helvetica,sans-Serif" font-size="10.00"> </text>
<text text-anchor="start" x="4.62" y="-351.5" font-family="Helvetica,sans-Serif" font-size="10.00">+</text>
<text text-anchor="start" x="14.62" y="-351.5" font-family="Helvetica,sans-Serif" font-size="10.00">ClickableLabel()</text>
<text text-anchor="start" x="5" y="-335.5" font-family="Helvetica,sans-Serif" font-size="10.00">#</text>
<text text-anchor="start" x="14.62" y="-335.5" font-family="Helvetica,sans-Serif" font-size="10.00">mouseReleaseEvent()</text>
<polygon fill="#666666" stroke="#666666" points="0.62,-379 0.62,-379 115.38,-379 115.38,-379 0.62,-379"/>
<polygon fill="#666666" stroke="#666666" points="0.62,-363 0.62,-363 115.38,-363 115.38,-363 0.62,-363"/>
<polygon fill="none" stroke="#666666" points="0.62,-329 0.62,-397 115.38,-397 115.38,-329 0.62,-329"/>
</a>
</g>
</g>
<!-- Node3&#45;&gt;Node2 -->
<g id="edge2_Node000002_Node000003" class="edge">
<title>Node3&#45;&gt;Node2</title>
<g id="a_edge2_Node000002_Node000003"><a xlink:title=" ">
<path fill="none" stroke="#63b8ff" d="M58,-329.04C58,-315.42 58,-298.83 58,-281.73"/>
<polygon fill="none" stroke="#63b8ff" points="58,-281.8 54,-275.8 58,-269.8 62,-275.8 58,-281.8"/>
</a>
</g>
<text text-anchor="middle" x="74.12" y="-301.5" font-family="Helvetica,sans-Serif" font-size="10.00" fill="grey"> +email</text>
<text text-anchor="middle" x="74.12" y="-289.5" font-family="Helvetica,sans-Serif" font-size="10.00" fill="grey">+phone</text>
</g>
<!-- Node4 -->
<g id="Node000004" class="node">
<title>Node4</title>
<g id="a_Node000004"><a xlink:title=" ">
<polygon fill="white" stroke="none" points="77.38,-486 38.62,-486 38.62,-434 77.38,-434 77.38,-486"/>
<text text-anchor="start" x="42.62" y="-472.5" font-family="Helvetica,sans-Serif" font-size="10.00">QLabel</text>
<text text-anchor="start" x="56.5" y="-456.5" font-family="Helvetica,sans-Serif" font-size="10.00"> </text>
<text text-anchor="start" x="56.5" y="-440.5" font-family="Helvetica,sans-Serif" font-size="10.00"> </text>
<polygon fill="#666666" stroke="#666666" points="38.62,-468 38.62,-468 77.38,-468 77.38,-468 38.62,-468"/>
<polygon fill="#666666" stroke="#666666" points="38.62,-452 38.62,-452 77.38,-452 77.38,-452 38.62,-452"/>
<polygon fill="none" stroke="#666666" points="38.62,-434 38.62,-486 77.38,-486 77.38,-434 38.62,-434"/>
</a>
</g>
</g>
<!-- Node4&#45;&gt;Node3 -->
<g id="edge3_Node000003_Node000004" class="edge">
<title>Node4&#45;&gt;Node3</title>
<g id="a_edge3_Node000003_Node000004"><a xlink:title=" ">
<path fill="none" stroke="#63b8ff" d="M58,-422.77C58,-414.18 58,-405.08 58,-396.66"/>
<polygon fill="none" stroke="#63b8ff" points="54.5,-422.53 58,-432.53 61.5,-422.53 54.5,-422.53"/>
</a>
</g>
</g>
</g>
</svg>
