<?xml version="1.0" encoding="UTF-8" standalone="no"?>
<!DOCTYPE svg PUBLIC "-//W3C//DTD SVG 1.1//EN"
 "http://www.w3.org/Graphics/SVG/1.1/DTD/svg11.dtd">
<!-- Generated by graphviz version 12.2.1 (20241206.2353)
 -->
<!-- Title: Ui_PersonLabelClass Pages: 1 -->
<svg width="141pt" height="281pt"
 viewBox="0.00 0.00 141.12 281.00" xmlns="http://www.w3.org/2000/svg" xmlns:xlink="http://www.w3.org/1999/xlink">

<svg id="main" version="1.1" xmlns="http://www.w3.org/2000/svg" xmlns:xlink="http://www.w3.org/1999/xlink" xml:space="preserve">

<style type="text/css"><![CDATA[
.node, .edge {opacity: 0.7;}
.node.selected, .edge.selected {opacity: 1;}
.edge:hover path { stroke: red; }
.edge:hover polygon { stroke: red; fill: red; }
]]></style>
<script type="application/ecmascript" xlink:href="svg.min.js"/>
<svg id="graph" class="graph">
<g id="graph0" class="graph" transform="scale(1 1) rotate(0) translate(4 277)">
<title>Ui_PersonLabelClass</title>
<!-- Node1 -->
<g id="Node000001" class="node">
<title>Node1</title>
<g id="a_Node000001"><a xlink:title=" ">
<polygon fill="#999999" stroke="none" points="108.62,-68 6.12,-68 6.12,0 108.62,0 108.62,-68"/>
<text text-anchor="start" x="10.12" y="-54.5" font-family="Helvetica,sans-Serif" font-size="10.00">Ui_PersonLabelClass</text>
<text text-anchor="start" x="15.88" y="-38.5" font-family="Helvetica,sans-Serif" font-size="10.00">+</text>
<text text-anchor="start" x="31.62" y="-38.5" font-family="Helvetica,sans-Serif" font-size="10.00">gridLayout</text>
<text text-anchor="start" x="15.88" y="-22.5" font-family="Helvetica,sans-Serif" font-size="10.00">+</text>
<text text-anchor="start" x="31.62" y="-22.5" font-family="Helvetica,sans-Serif" font-size="10.00">setupUi()</text>
<text text-anchor="start" x="15.88" y="-6.5" font-family="Helvetica,sans-Serif" font-size="10.00">+</text>
<text text-anchor="start" x="31.62" y="-6.5" font-family="Helvetica,sans-Serif" font-size="10.00">retranslateUi()</text>
<polygon fill="#666666" stroke="#666666" points="6.12,-50 6.12,-50 108.62,-50 108.62,-50 6.12,-50"/>
<polygon fill="#666666" stroke="#666666" points="6.12,-34 6.12,-34 29.62,-34 29.62,-34 6.12,-34"/>
<polygon fill="#666666" stroke="#666666" points="29.62,-34 29.62,-34 108.62,-34 108.62,-34 29.62,-34"/>
<polygon fill="none" stroke="#666666" points="6.12,0 6.12,-68 108.62,-68 108.62,0 6.12,0"/>
</a>
</g>
</g>
<!-- Node2 -->
<g id="Node000002" class="node">
<title>Node2</title>
<g id="a_Node000002"><a xlink:href="class_clickable_label.html" target="_top" xlink:title="A QLabel subclass that emits a clicked signal when the label is clicked.">
<polygon fill="white" stroke="none" points="114.75,-184 0,-184 0,-116 114.75,-116 114.75,-184"/>
<text text-anchor="start" x="25.5" y="-170.5" font-family="Helvetica,sans-Serif" font-size="10.00">ClickableLabel</text>
<text text-anchor="start" x="55.88" y="-154.5" font-family="Helvetica,sans-Serif" font-size="10.00"> </text>
<text text-anchor="start" x="4" y="-138.5" font-family="Helvetica,sans-Serif" font-size="10.00">+</text>
<text text-anchor="start" x="14" y="-138.5" font-family="Helvetica,sans-Serif" font-size="10.00">ClickableLabel()</text>
<text text-anchor="start" x="4.38" y="-122.5" font-family="Helvetica,sans-Serif" font-size="10.00">#</text>
<text text-anchor="start" x="14" y="-122.5" font-family="Helvetica,sans-Serif" font-size="10.00">mouseReleaseEvent()</text>
<polygon fill="#666666" stroke="#666666" points="0,-166 0,-166 114.75,-166 114.75,-166 0,-166"/>
<polygon fill="#666666" stroke="#666666" points="0,-150 0,-150 114.75,-150 114.75,-150 0,-150"/>
<polygon fill="none" stroke="#666666" points="0,-116 0,-184 114.75,-184 114.75,-116 0,-116"/>
</a>
</g>
</g>
<!-- Node2&#45;&gt;Node1 -->
<g id="edge1_Node000001_Node000002" class="edge">
<title>Node2&#45;&gt;Node1</title>
<g id="a_edge1_Node000001_Node000002"><a xlink:title=" ">
<path fill="none" stroke="#63b8ff" d="M57.38,-116.03C57.38,-105.04 57.38,-92.59 57.38,-80.81"/>
<polygon fill="none" stroke="#63b8ff" points="57.38,-80.8 53.38,-74.8 57.38,-68.8 61.38,-74.8 57.38,-80.8"/>
</a>
</g>
<text text-anchor="middle" x="95.25" y="-88.5" font-family="Helvetica,sans-Serif" font-size="10.00" fill="grey"> +name_surname</text>
</g>
<!-- Node3 -->
<g id="Node000003" class="node">
<title>Node3</title>
<g id="a_Node000003"><a xlink:title=" ">
<polygon fill="white" stroke="none" points="76.75,-273 38,-273 38,-221 76.75,-221 76.75,-273"/>
<text text-anchor="start" x="42" y="-259.5" font-family="Helvetica,sans-Serif" font-size="10.00">QLabel</text>
<text text-anchor="start" x="55.88" y="-243.5" font-family="Helvetica,sans-Serif" font-size="10.00"> </text>
<text text-anchor="start" x="55.88" y="-227.5" font-family="Helvetica,sans-Serif" font-size="10.00"> </text>
<polygon fill="#666666" stroke="#666666" points="38,-255 38,-255 76.75,-255 76.75,-255 38,-255"/>
<polygon fill="#666666" stroke="#666666" points="38,-239 38,-239 76.75,-239 76.75,-239 38,-239"/>
<polygon fill="none" stroke="#666666" points="38,-221 38,-273 76.75,-273 76.75,-221 38,-221"/>
</a>
</g>
</g>
<!-- Node3&#45;&gt;Node2 -->
<g id="edge2_Node000002_Node000003" class="edge">
<title>Node3&#45;&gt;Node2</title>
<g id="a_edge2_Node000002_Node000003"><a xlink:title=" ">
<path fill="none" stroke="#63b8ff" d="M57.38,-209.77C57.38,-201.18 57.38,-192.08 57.38,-183.66"/>
<polygon fill="none" stroke="#63b8ff" points="53.88,-209.53 57.38,-219.53 60.88,-209.53 53.88,-209.53"/>
</a>
</g>
</g>
</g>
</svg>
</svg>

<style type='text/css'>
<![CDATA[
[data-mouse-over-selected='false'] { opacity: 0.7; }
[data-mouse-over-selected='true']  { opacity: 1.0; }
]]>
</style>
<script type="application/ecmascript"><![CDATA[
document.addEventListener('DOMContentLoaded', (event) => {
  highlightEdges();
  highlightAdjacentNodes();
});
]]></script>
</svg>
