<?xml version="1.0" encoding="UTF-8" standalone="no"?>
<!DOCTYPE svg PUBLIC "-//W3C//DTD SVG 1.1//EN"
 "http://www.w3.org/Graphics/SVG/1.1/DTD/svg11.dtd">
<!-- Generated by graphviz version 12.2.1 (20241206.2353)
 -->
<!-- Title: DateTime::get_current_datetime Pages: 1 -->
<svg width="376pt" height="158pt"
 viewBox="0.00 0.00 375.50 158.05" xmlns="http://www.w3.org/2000/svg" xmlns:xlink="http://www.w3.org/1999/xlink">
<g id="graph0" class="graph" transform="scale(1 1) rotate(0) translate(4 154.05)">
<title>DateTime::get_current_datetime</title>
<!-- Node1 -->
<g id="Node000001" class="node">
<title>Node1</title>
<g id="a_Node000001"><a xlink:title="Gets the current date and time.">
<polygon fill="#999999" stroke="#666666" points="113.5,-102 0,-102 0,-70 113.5,-70 113.5,-102"/>
<text text-anchor="start" x="8" y="-88.5" font-family="Helvetica,sans-Serif" font-size="10.00">DateTime::get_current</text>
<text text-anchor="middle" x="56.75" y="-76.5" font-family="Helvetica,sans-Serif" font-size="10.00">_datetime</text>
</a>
</g>
</g>
<!-- Node2 -->
<g id="Node000002" class="node">
<title>Node2</title>
<g id="a_Node000002"><a xlink:href="class_date.html#a19cb325d7fc9e143f9095e7eadc8a1a4" target="_top" xlink:title="Default constructor.">
<polygon fill="white" stroke="#666666" points="366.75,-134 302.75,-134 302.75,-114 366.75,-114 366.75,-134"/>
<text text-anchor="middle" x="334.75" y="-120.5" font-family="Helvetica,sans-Serif" font-size="10.00">Date::Date</text>
</a>
</g>
</g>
<!-- Node1&#45;&gt;Node2 -->
<g id="edge1_Node000001_Node000002" class="edge">
<title>Node1&#45;&gt;Node2</title>
<g id="a_edge1_Node000001_Node000002"><a xlink:title=" ">
<path fill="none" stroke="#63b8ff" d="M76.96,-102.43C94.53,-116.31 121.91,-135.13 149.5,-143 197.07,-156.57 253.99,-146.98 291.85,-137.15"/>
<polygon fill="#63b8ff" stroke="#63b8ff" points="292.29,-140.66 301.02,-134.66 290.45,-133.91 292.29,-140.66"/>
</a>
</g>
</g>
<!-- Node3 -->
<g id="Node000003" class="node">
<title>Node3</title>
<g id="a_Node000003"><a xlink:href="class_date_time.html#afa7d2eb61840fe713cb4f98795c23a53" target="_top" xlink:title="Default constructor.">
<polygon fill="white" stroke="#666666" points="261.5,-96 154,-96 154,-76 261.5,-76 261.5,-96"/>
<text text-anchor="middle" x="207.75" y="-82.5" font-family="Helvetica,sans-Serif" font-size="10.00">DateTime::DateTime</text>
</a>
</g>
</g>
<!-- Node1&#45;&gt;Node3 -->
<g id="edge2_Node000001_Node000003" class="edge">
<title>Node1&#45;&gt;Node3</title>
<g id="a_edge2_Node000001_Node000003"><a xlink:title=" ">
<path fill="none" stroke="#63b8ff" d="M113.66,-86C123.15,-86 133.08,-86 142.76,-86"/>
<polygon fill="#63b8ff" stroke="#63b8ff" points="142.47,-89.5 152.47,-86 142.47,-82.5 142.47,-89.5"/>
</a>
</g>
</g>
<!-- Node4 -->
<g id="Node000004" class="node">
<title>Node4</title>
<g id="a_Node000004"><a xlink:href="class_time.html#a0eedb4e626b8e3fdcaf63519b86ea778" target="_top" xlink:title="Default constructor.">
<polygon fill="white" stroke="#666666" points="367.5,-58 302,-58 302,-38 367.5,-38 367.5,-58"/>
<text text-anchor="middle" x="334.75" y="-44.5" font-family="Helvetica,sans-Serif" font-size="10.00">Time::Time</text>
</a>
</g>
</g>
<!-- Node1&#45;&gt;Node4 -->
<g id="edge9_Node000001_Node000004" class="edge">
<title>Node1&#45;&gt;Node4</title>
<g id="a_edge9_Node000001_Node000004"><a xlink:title=" ">
<path fill="none" stroke="#63b8ff" d="M113.87,-73.44C125.6,-71.08 137.93,-68.79 149.5,-67 197.6,-59.56 253.22,-54.28 290.66,-51.2"/>
<polygon fill="#63b8ff" stroke="#63b8ff" points="290.47,-54.73 300.16,-50.44 289.91,-47.75 290.47,-54.73"/>
</a>
</g>
</g>
<!-- Node5 -->
<g id="Node000005" class="node">
<title>Node5</title>
<g id="a_Node000005"><a xlink:href="class_date.html#af6f6b8a65ffabad43ac3994bc58634e0" target="_top" xlink:title="Gets the current date.">
<polygon fill="white" stroke="#666666" points="265.62,-134 149.88,-134 149.88,-114 265.62,-114 265.62,-134"/>
<text text-anchor="middle" x="207.75" y="-120.5" font-family="Helvetica,sans-Serif" font-size="10.00">Date::get_current_date</text>
</a>
</g>
</g>
<!-- Node1&#45;&gt;Node5 -->
<g id="edge5_Node000001_Node000005" class="edge">
<title>Node1&#45;&gt;Node5</title>
<g id="a_edge5_Node000001_Node000005"><a xlink:title=" ">
<path fill="none" stroke="#63b8ff" d="M113.66,-100.26C127.2,-103.71 141.63,-107.39 154.98,-110.8"/>
<polygon fill="#63b8ff" stroke="#63b8ff" points="153.87,-114.13 164.43,-113.21 155.6,-107.34 153.87,-114.13"/>
</a>
</g>
</g>
<!-- Node6 -->
<g id="Node000006" class="node">
<title>Node6</title>
<g id="a_Node000006"><a xlink:href="class_time.html#ae9b71bc06b2c5a28a96e46e7f1d0a239" target="_top" xlink:title="Gets the current time.">
<polygon fill="white" stroke="#666666" points="266,-20 149.5,-20 149.5,0 266,0 266,-20"/>
<text text-anchor="middle" x="207.75" y="-6.5" font-family="Helvetica,sans-Serif" font-size="10.00">Time::get_current_time</text>
</a>
</g>
</g>
<!-- Node1&#45;&gt;Node6 -->
<g id="edge7_Node000001_Node000006" class="edge">
<title>Node1&#45;&gt;Node6</title>
<g id="a_edge7_Node000001_Node000006"><a xlink:title=" ">
<path fill="none" stroke="#63b8ff" d="M84.6,-69.67C102.65,-58.96 127.15,-44.97 149.5,-34 155.91,-30.85 162.84,-27.73 169.59,-24.82"/>
<polygon fill="#63b8ff" stroke="#63b8ff" points="170.69,-28.15 178.55,-21.05 167.98,-21.7 170.69,-28.15"/>
</a>
</g>
</g>
<!-- Node3&#45;&gt;Node2 -->
<g id="edge3_Node000003_Node000002" class="edge">
<title>Node3&#45;&gt;Node2</title>
<g id="a_edge3_Node000003_Node000002"><a xlink:title=" ">
<path fill="none" stroke="#63b8ff" d="M243.24,-96.48C258.12,-101.01 275.68,-106.35 291.36,-111.11"/>
<polygon fill="#63b8ff" stroke="#63b8ff" points="290.33,-114.46 300.92,-114.02 292.37,-107.76 290.33,-114.46"/>
</a>
</g>
</g>
<!-- Node3&#45;&gt;Node4 -->
<g id="edge4_Node000003_Node000004" class="edge">
<title>Node3&#45;&gt;Node4</title>
<g id="a_edge4_Node000003_Node000004"><a xlink:title=" ">
<path fill="none" stroke="#63b8ff" d="M243.24,-75.52C257.89,-71.06 275.14,-65.82 290.62,-61.11"/>
<polygon fill="#63b8ff" stroke="#63b8ff" points="291.52,-64.5 300.07,-58.24 289.49,-57.8 291.52,-64.5"/>
</a>
</g>
</g>
<!-- Node5&#45;&gt;Node2 -->
<g id="edge6_Node000005_Node000002" class="edge">
<title>Node5&#45;&gt;Node2</title>
<g id="a_edge6_Node000005_Node000002"><a xlink:title=" ">
<path fill="none" stroke="#63b8ff" d="M265.76,-124C274.24,-124 282.86,-124 290.98,-124"/>
<polygon fill="#63b8ff" stroke="#63b8ff" points="290.93,-127.5 300.93,-124 290.93,-120.5 290.93,-127.5"/>
</a>
</g>
</g>
<!-- Node6&#45;&gt;Node4 -->
<g id="edge8_Node000006_Node000004" class="edge">
<title>Node6&#45;&gt;Node4</title>
<g id="a_edge8_Node000006_Node000004"><a xlink:title=" ">
<path fill="none" stroke="#63b8ff" d="M243.24,-20.48C257.89,-24.94 275.14,-30.18 290.62,-34.89"/>
<polygon fill="#63b8ff" stroke="#63b8ff" points="289.49,-38.2 300.07,-37.76 291.52,-31.5 289.49,-38.2"/>
</a>
</g>
</g>
</g>
</svg>
