<?xml version="1.0" encoding="UTF-8" standalone="no"?>
<!DOCTYPE svg PUBLIC "-//W3C//DTD SVG 1.1//EN"
 "http://www.w3.org/Graphics/SVG/1.1/DTD/svg11.dtd">
<!-- Generated by graphviz version 12.2.1 (20241206.2353)
 -->
<!-- Title: Child::get_birth_date Pages: 1 -->
<svg width="363pt" height="154pt"
 viewBox="0.00 0.00 362.75 154.00" xmlns="http://www.w3.org/2000/svg" xmlns:xlink="http://www.w3.org/1999/xlink">
<g id="graph0" class="graph" transform="scale(1 1) rotate(0) translate(4 150)">
<title>Child::get_birth_date</title>
<!-- Node1 -->
<g id="Node000001" class="node">
<title>Node1</title>
<g id="a_Node000001"><a xlink:title="Gets the birth date of the child.">
<polygon fill="#999999" stroke="#666666" points="354.75,-89 248.75,-89 248.75,-69 354.75,-69 354.75,-89"/>
<text text-anchor="middle" x="301.75" y="-75.5" font-family="Helvetica,sans-Serif" font-size="10.00">Child::get_birth_date</text>
</a>
</g>
</g>
<!-- Node2 -->
<g id="Node000002" class="node">
<title>Node2</title>
<g id="a_Node000002"><a xlink:href="$class_database.html#a3e9cba5ac0e9f1eafeea156892eb2e35" xlink:title="Adds a child to the database.">
<polygon fill="white" stroke="#666666" points="195.5,-146 90.25,-146 90.25,-126 195.5,-126 195.5,-146"/>
<text text-anchor="middle" x="142.88" y="-132.5" font-family="Helvetica,sans-Serif" font-size="10.00">Database::add_child</text>
</a>
</g>
</g>
<!-- Node1&#45;&gt;Node2 -->
<g id="edge1_Node000001_Node000002" class="edge">
<title>Node1&#45;&gt;Node2</title>
<g id="a_edge1_Node000001_Node000002"><a xlink:title=" ">
<path fill="none" stroke="#63b8ff" d="M268.82,-94.06C252.3,-101.52 231.68,-110.34 212.75,-117 203.97,-120.09 194.43,-123 185.32,-125.57"/>
<polygon fill="#63b8ff" stroke="#63b8ff" points="270.01,-97.36 277.65,-90.01 267.1,-91 270.01,-97.36"/>
</a>
</g>
</g>
<!-- Node4 -->
<g id="Node000004" class="node">
<title>Node4</title>
<g id="a_Node000004"><a xlink:href="$class_database.html#a666ab0d4f96402ecae70425b2c6863fb" xlink:title="Removes a child from the database.">
<polygon fill="white" stroke="#666666" points="203.75,-108 82,-108 82,-88 203.75,-88 203.75,-108"/>
<text text-anchor="middle" x="142.88" y="-94.5" font-family="Helvetica,sans-Serif" font-size="10.00">Database::remove_child</text>
</a>
</g>
</g>
<!-- Node1&#45;&gt;Node4 -->
<g id="edge3_Node000001_Node000004" class="edge">
<title>Node1&#45;&gt;Node4</title>
<g id="a_edge3_Node000001_Node000004"><a xlink:title=" ">
<path fill="none" stroke="#63b8ff" d="M237.26,-86.69C226.29,-88.02 214.91,-89.4 204.02,-90.72"/>
<polygon fill="#63b8ff" stroke="#63b8ff" points="237.5,-90.19 247.01,-85.51 236.66,-83.24 237.5,-90.19"/>
</a>
</g>
</g>
<!-- Node5 -->
<g id="Node000005" class="node">
<title>Node5</title>
<g id="a_Node000005"><a xlink:href="$class_database.html#ad1c53a90babe25c1148cca426c7579e6" xlink:title="Adds a child&#39;s information to the maps.">
<polygon fill="white" stroke="#666666" points="212.75,-70 73,-70 73,-50 212.75,-50 212.75,-70"/>
<text text-anchor="middle" x="142.88" y="-56.5" font-family="Helvetica,sans-Serif" font-size="10.00">Database::update_child_end</text>
</a>
</g>
</g>
<!-- Node1&#45;&gt;Node5 -->
<g id="edge4_Node000001_Node000005" class="edge">
<title>Node1&#45;&gt;Node5</title>
<g id="a_edge4_Node000001_Node000005"><a xlink:title=" ">
<path fill="none" stroke="#63b8ff" d="M237.14,-71.3C229.26,-70.34 221.16,-69.36 213.19,-68.4"/>
<polygon fill="#63b8ff" stroke="#63b8ff" points="236.66,-74.76 247.01,-72.49 237.5,-67.81 236.66,-74.76"/>
</a>
</g>
</g>
<!-- Node6 -->
<g id="Node000006" class="node">
<title>Node6</title>
<g id="a_Node000006"><a xlink:href="$class_database.html#a283eb646c12fff3f96e217bf5c3a7dc3" xlink:title="Removes a child&#39;s information from the maps.">
<polygon fill="white" stroke="#666666" points="202.25,-32 83.5,-32 83.5,0 202.25,0 202.25,-32"/>
<text text-anchor="start" x="91.5" y="-18.5" font-family="Helvetica,sans-Serif" font-size="10.00">Database::update_child</text>
<text text-anchor="middle" x="142.88" y="-6.5" font-family="Helvetica,sans-Serif" font-size="10.00">_start</text>
</a>
</g>
</g>
<!-- Node1&#45;&gt;Node6 -->
<g id="edge5_Node000001_Node000006" class="edge">
<title>Node1&#45;&gt;Node6</title>
<g id="a_edge5_Node000001_Node000006"><a xlink:title=" ">
<path fill="none" stroke="#63b8ff" d="M267.57,-64.12C251.17,-56.9 231.02,-48.25 212.75,-41 205.54,-38.14 197.85,-35.22 190.33,-32.43"/>
<polygon fill="#63b8ff" stroke="#63b8ff" points="265.8,-67.16 276.36,-68.01 268.63,-60.76 265.8,-67.16"/>
</a>
</g>
</g>
<!-- Node3 -->
<g id="Node000003" class="node">
<title>Node3</title>
<g id="a_Node000003"><a xlink:href="$_main_8cpp.html#a0ddf1224851353fc92bfbff6f499fa97" xlink:title=" ">
<polygon fill="white" stroke="#666666" points="37,-146 0,-146 0,-126 37,-126 37,-146"/>
<text text-anchor="middle" x="18.5" y="-132.5" font-family="Helvetica,sans-Serif" font-size="10.00">main</text>
</a>
</g>
</g>
<!-- Node2&#45;&gt;Node3 -->
<g id="edge2_Node000002_Node000003" class="edge">
<title>Node2&#45;&gt;Node3</title>
<g id="a_edge2_Node000002_Node000003"><a xlink:title=" ">
<path fill="none" stroke="#63b8ff" d="M78.9,-136C63.65,-136 48.55,-136 37.39,-136"/>
<polygon fill="#63b8ff" stroke="#63b8ff" points="78.46,-139.5 88.46,-136 78.46,-132.5 78.46,-139.5"/>
</a>
</g>
</g>
</g>
</svg>
