<?xml version="1.0" encoding="UTF-8" standalone="no"?>
<!DOCTYPE svg PUBLIC "-//W3C//DTD SVG 1.1//EN"
 "http://www.w3.org/Graphics/SVG/1.1/DTD/svg11.dtd">
<!-- Generated by graphviz version 12.2.1 (20241206.2353)
 -->
<!-- Title: DataBaseGUI::child_search_by_pointer Pages: 1 -->
<svg width="1238pt" height="434pt"
 viewBox="0.00 0.00 1237.75 434.00" xmlns="http://www.w3.org/2000/svg" xmlns:xlink="http://www.w3.org/1999/xlink">
<g id="graph0" class="graph" transform="scale(1 1) rotate(0) translate(4 430)">
<title>DataBaseGUI::child_search_by_pointer</title>
<!-- Node1 -->
<g id="Node000001" class="node">
<title>Node1</title>
<g id="a_Node000001"><a xlink:title="Searches for children based on the provided child pointer.">
<polygon fill="#999999" stroke="#666666" points="103.75,-130 0,-130 0,-98 103.75,-98 103.75,-130"/>
<text text-anchor="start" x="8" y="-116.5" font-family="Helvetica,sans-Serif" font-size="10.00">DataBaseGUI::child</text>
<text text-anchor="middle" x="51.88" y="-104.5" font-family="Helvetica,sans-Serif" font-size="10.00">_search_by_pointer</text>
</a>
</g>
</g>
<!-- Node2 -->
<g id="Node000002" class="node">
<title>Node2</title>
<g id="a_Node000002"><a xlink:href="class_data_base_g_u_i.html#a2d921da686e76ae195da018bb735a1ae" target="_top" xlink:title="Searches for children based on the provided name and surname.">
<polygon fill="white" stroke="#666666" points="243.5,-174 139.75,-174 139.75,-142 243.5,-142 243.5,-174"/>
<text text-anchor="start" x="147.75" y="-160.5" font-family="Helvetica,sans-Serif" font-size="10.00">DataBaseGUI::child</text>
<text text-anchor="middle" x="191.62" y="-148.5" font-family="Helvetica,sans-Serif" font-size="10.00">_search</text>
</a>
</g>
</g>
<!-- Node1&#45;&gt;Node2 -->
<g id="edge1_Node000001_Node000002" class="edge">
<title>Node1&#45;&gt;Node2</title>
<g id="a_edge1_Node000001_Node000002"><a xlink:title=" ">
<path fill="none" stroke="#63b8ff" d="M104.17,-130.38C112.06,-132.9 120.27,-135.53 128.37,-138.11"/>
<polygon fill="#63b8ff" stroke="#63b8ff" points="127.26,-141.43 137.85,-141.14 129.39,-134.76 127.26,-141.43"/>
</a>
</g>
</g>
<!-- Node10 -->
<g id="Node000010" class="node">
<title>Node10</title>
<g id="a_Node000010"><a xlink:href="class_person.html#a6b1fec00d8d1f5af1a2977dc3f5f9eb8" target="_top" xlink:title="Gets the first name of the person.">
<polygon fill="white" stroke="#666666" points="724.62,-58 629.12,-58 629.12,-38 724.62,-38 724.62,-58"/>
<text text-anchor="middle" x="676.88" y="-44.5" font-family="Helvetica,sans-Serif" font-size="10.00">Person::get_name</text>
</a>
</g>
</g>
<!-- Node1&#45;&gt;Node10 -->
<g id="edge27_Node000001_Node000010" class="edge">
<title>Node1&#45;&gt;Node10</title>
<g id="a_edge27_Node000001_Node000010"><a xlink:title=" ">
<path fill="none" stroke="#63b8ff" d="M104.19,-101.74C177.29,-84.96 315.83,-55.72 435.75,-45 500.93,-39.17 517.56,-43.94 583,-45 594.13,-45.18 606.01,-45.48 617.42,-45.82"/>
<polygon fill="#63b8ff" stroke="#63b8ff" points="617.02,-49.31 627.12,-46.13 617.24,-42.32 617.02,-49.31"/>
</a>
</g>
</g>
<!-- Node11 -->
<g id="Node000011" class="node">
<title>Node11</title>
<g id="a_Node000011"><a xlink:href="class_person.html#a7b3c8db44a49c4ba8c4838e19a235613" target="_top" xlink:title="Gets the last name of the person.">
<polygon fill="white" stroke="#666666" points="731.38,-20 622.38,-20 622.38,0 731.38,0 731.38,-20"/>
<text text-anchor="middle" x="676.88" y="-6.5" font-family="Helvetica,sans-Serif" font-size="10.00">Person::get_surname</text>
</a>
</g>
</g>
<!-- Node1&#45;&gt;Node11 -->
<g id="edge28_Node000001_Node000011" class="edge">
<title>Node1&#45;&gt;Node11</title>
<g id="a_edge28_Node000001_Node000011"><a xlink:title=" ">
<path fill="none" stroke="#63b8ff" d="M79.32,-97.58C96.06,-87.88 118.5,-76.14 139.75,-69 302.79,-14.24 507.85,-7.69 610.71,-8.36"/>
<polygon fill="#63b8ff" stroke="#63b8ff" points="610.6,-11.85 620.63,-8.45 610.66,-4.85 610.6,-11.85"/>
</a>
</g>
</g>
<!-- Node3 -->
<g id="Node000003" class="node">
<title>Node3</title>
<g id="a_Node000003"><a xlink:href="class_data_base_g_u_i.html#af346d08370d9e4574980707f61b9c8f7" target="_top" xlink:title="Populates the children tab with a list of children.">
<polygon fill="white" stroke="#666666" points="399.75,-218 279.5,-218 279.5,-186 399.75,-186 399.75,-218"/>
<text text-anchor="start" x="287.5" y="-204.5" font-family="Helvetica,sans-Serif" font-size="10.00">DataBaseGUI::populate</text>
<text text-anchor="middle" x="339.62" y="-192.5" font-family="Helvetica,sans-Serif" font-size="10.00">_children_tab</text>
</a>
</g>
</g>
<!-- Node2&#45;&gt;Node3 -->
<g id="edge2_Node000002_Node000003" class="edge">
<title>Node2&#45;&gt;Node3</title>
<g id="a_edge2_Node000002_Node000003"><a xlink:title=" ">
<path fill="none" stroke="#63b8ff" d="M243.69,-173.39C253.19,-176.25 263.23,-179.28 273.1,-182.25"/>
<polygon fill="#63b8ff" stroke="#63b8ff" points="272.08,-185.6 282.66,-185.14 274.1,-178.9 272.08,-185.6"/>
</a>
</g>
</g>
<!-- Node4 -->
<g id="Node000004" class="node">
<title>Node4</title>
<g id="a_Node000004"><a xlink:href="class_data_base_g_u_i.html#acb6c6b292e58d0ead30682f7f5705244" target="_top" xlink:title="Edits an existing child in the database.">
<polygon fill="white" stroke="#666666" points="571.75,-250 447,-250 447,-230 571.75,-230 571.75,-250"/>
<text text-anchor="middle" x="509.38" y="-236.5" font-family="Helvetica,sans-Serif" font-size="10.00">DataBaseGUI::child_edit</text>
</a>
</g>
</g>
<!-- Node3&#45;&gt;Node4 -->
<g id="edge3_Node000003_Node000004" class="edge">
<title>Node3&#45;&gt;Node4</title>
<g id="a_edge3_Node000003_Node000004"><a xlink:title=" ">
<path fill="none" stroke="#63b8ff" d="M400.24,-215.5C416.77,-219.25 434.67,-223.3 451.06,-227.02"/>
<polygon fill="#63b8ff" stroke="#63b8ff" points="450.13,-230.39 460.66,-229.19 451.68,-223.57 450.13,-230.39"/>
</a>
</g>
</g>
<!-- Node6 -->
<g id="Node000006" class="node">
<title>Node6</title>
<g id="a_Node000006"><a xlink:href="class_data_base_g_u_i.html#ae3a08843db874e51a7cea32fa8937ca5" target="_top" xlink:title="Removes a child from the database.">
<polygon fill="white" stroke="#666666" points="561.25,-300 457.5,-300 457.5,-268 561.25,-268 561.25,-300"/>
<text text-anchor="start" x="465.5" y="-286.5" font-family="Helvetica,sans-Serif" font-size="10.00">DataBaseGUI::child</text>
<text text-anchor="middle" x="509.38" y="-274.5" font-family="Helvetica,sans-Serif" font-size="10.00">_remove</text>
</a>
</g>
</g>
<!-- Node3&#45;&gt;Node6 -->
<g id="edge6_Node000003_Node000006" class="edge">
<title>Node3&#45;&gt;Node6</title>
<g id="a_edge6_Node000003_Node000006"><a xlink:title=" ">
<path fill="none" stroke="#63b8ff" d="M364.88,-218.47C383.66,-230.73 410.62,-247.3 435.75,-259 439.24,-260.62 442.87,-262.2 446.56,-263.72"/>
<polygon fill="#63b8ff" stroke="#63b8ff" points="445.05,-266.89 455.64,-267.28 447.61,-260.37 445.05,-266.89"/>
</a>
</g>
</g>
<!-- Node7 -->
<g id="Node000007" class="node">
<title>Node7</title>
<g id="a_Node000007"><a xlink:href="class_data_base_g_u_i.html#afbc53e28ad83200fe77e0fa5a6eb970f" target="_top" xlink:title="Clears the children tab.">
<polygon fill="white" stroke="#666666" points="568,-174 450.75,-174 450.75,-142 568,-142 568,-174"/>
<text text-anchor="start" x="458.75" y="-160.5" font-family="Helvetica,sans-Serif" font-size="10.00">DataBaseGUI::children</text>
<text text-anchor="middle" x="509.38" y="-148.5" font-family="Helvetica,sans-Serif" font-size="10.00">_tab_clear</text>
</a>
</g>
</g>
<!-- Node3&#45;&gt;Node7 -->
<g id="edge8_Node000003_Node000007" class="edge">
<title>Node3&#45;&gt;Node7</title>
<g id="a_edge8_Node000003_Node000007"><a xlink:title=" ">
<path fill="none" stroke="#63b8ff" d="M400.24,-186.36C412.97,-183.02 426.51,-179.47 439.55,-176.05"/>
<polygon fill="#63b8ff" stroke="#63b8ff" points="440.11,-179.52 448.9,-173.6 438.34,-172.75 440.11,-179.52"/>
</a>
</g>
</g>
<!-- Node8 -->
<g id="Node000008" class="node">
<title>Node8</title>
<g id="a_Node000008"><a xlink:href="class_child_entry.html#abda9dea89937d77c4def3fb81d964ff9" target="_top" xlink:title="Signal emitted when a child edit is requested.">
<polygon fill="white" stroke="#666666" points="574.75,-124 444,-124 444,-104 574.75,-104 574.75,-124"/>
<text text-anchor="middle" x="509.38" y="-110.5" font-family="Helvetica,sans-Serif" font-size="10.00">ChildEntry::editRequested</text>
</a>
</g>
</g>
<!-- Node3&#45;&gt;Node8 -->
<g id="edge9_Node000003_Node000008" class="edge">
<title>Node3&#45;&gt;Node8</title>
<g id="a_edge9_Node000003_Node000008"><a xlink:title=" ">
<path fill="none" stroke="#63b8ff" d="M358.62,-185.76C376.83,-170.13 406.42,-146.87 435.75,-133 439.51,-131.22 443.45,-129.6 447.48,-128.11"/>
<polygon fill="#63b8ff" stroke="#63b8ff" points="448.48,-131.46 456.84,-124.96 446.25,-124.83 448.48,-131.46"/>
</a>
</g>
</g>
<!-- Node9 -->
<g id="Node000009" class="node">
<title>Node9</title>
<g id="a_Node000009"><a xlink:href="class_data_base_g_u_i.html#a8e1fe573ef6a09e112989968ec1a2b43" target="_top" xlink:title="Searches for parents based on the provided parent pointer.">
<polygon fill="white" stroke="#666666" points="564.62,-86 454.12,-86 454.12,-54 564.62,-54 564.62,-86"/>
<text text-anchor="start" x="462.12" y="-72.5" font-family="Helvetica,sans-Serif" font-size="10.00">DataBaseGUI::parent</text>
<text text-anchor="middle" x="509.38" y="-60.5" font-family="Helvetica,sans-Serif" font-size="10.00">_search_by_pointer</text>
</a>
</g>
</g>
<!-- Node3&#45;&gt;Node9 -->
<g id="edge10_Node000003_Node000009" class="edge">
<title>Node3&#45;&gt;Node9</title>
<g id="a_edge10_Node000003_Node000009"><a xlink:title=" ">
<path fill="none" stroke="#63b8ff" d="M350.95,-185.87C366.62,-162.63 398.52,-119.81 435.75,-95 438.26,-93.32 440.9,-91.75 443.62,-90.27"/>
<polygon fill="#63b8ff" stroke="#63b8ff" points="444.94,-93.52 452.4,-85.99 441.87,-87.23 444.94,-93.52"/>
</a>
</g>
</g>
<!-- Node21 -->
<g id="Node000021" class="node">
<title>Node21</title>
<g id="a_Node000021"><a xlink:href="class_child_entry.html#a11d827331ad040002cce25952c27e47a" target="_top" xlink:title="Signal emitted when a parent search is requested.">
<polygon fill="white" stroke="#666666" points="573.62,-388 445.12,-388 445.12,-356 573.62,-356 573.62,-388"/>
<text text-anchor="start" x="453.12" y="-374.5" font-family="Helvetica,sans-Serif" font-size="10.00">ChildEntry::parrentSearch</text>
<text text-anchor="middle" x="509.38" y="-362.5" font-family="Helvetica,sans-Serif" font-size="10.00">Requested</text>
</a>
</g>
</g>
<!-- Node3&#45;&gt;Node21 -->
<g id="edge25_Node000003_Node000021" class="edge">
<title>Node3&#45;&gt;Node21</title>
<g id="a_edge25_Node000003_Node000021"><a xlink:title=" ">
<path fill="none" stroke="#63b8ff" d="M347.13,-218.47C359.74,-248.36 390.35,-311.7 435.75,-347 437.07,-348.02 438.43,-349.01 439.82,-349.95"/>
<polygon fill="#63b8ff" stroke="#63b8ff" points="437.81,-352.82 448.2,-354.87 441.35,-346.79 437.81,-352.82"/>
</a>
</g>
</g>
<!-- Node22 -->
<g id="Node000022" class="node">
<title>Node22</title>
<g id="a_Node000022"><a xlink:href="class_child_entry.html#a69e495a83c20ea922198adea9ae47ddb" target="_top" xlink:title="Signal emitted when a child removal is requested.">
<polygon fill="white" stroke="#666666" points="583,-338 435.75,-338 435.75,-318 583,-318 583,-338"/>
<text text-anchor="middle" x="509.38" y="-324.5" font-family="Helvetica,sans-Serif" font-size="10.00">ChildEntry::removeRequested</text>
</a>
</g>
</g>
<!-- Node3&#45;&gt;Node22 -->
<g id="edge26_Node000003_Node000022" class="edge">
<title>Node3&#45;&gt;Node22</title>
<g id="a_edge26_Node000003_Node000022"><a xlink:title=" ">
<path fill="none" stroke="#63b8ff" d="M350.46,-218.12C365.72,-241.73 397.4,-285.49 435.75,-309 438.18,-310.49 440.73,-311.86 443.35,-313.13"/>
<polygon fill="#63b8ff" stroke="#63b8ff" points="441.8,-316.28 452.38,-316.92 444.51,-309.82 441.8,-316.28"/>
</a>
</g>
</g>
<!-- Node5 -->
<g id="Node000005" class="node">
<title>Node5</title>
<g id="a_Node000005"><a xlink:href="class_data_base_g_u_i.html#aa684465aa73b5b34bbadd24fc7f2f641" target="_top" xlink:title="Selects the appropriate sorting to use based on child sort index.">
<polygon fill="white" stroke="#666666" points="734.75,-256 619,-256 619,-224 734.75,-224 734.75,-256"/>
<text text-anchor="start" x="627" y="-242.5" font-family="Helvetica,sans-Serif" font-size="10.00">DataBaseGUI::sort_to</text>
<text text-anchor="middle" x="676.88" y="-230.5" font-family="Helvetica,sans-Serif" font-size="10.00">_populate_children_tab</text>
</a>
</g>
</g>
<!-- Node4&#45;&gt;Node5 -->
<g id="edge4_Node000004_Node000005" class="edge">
<title>Node4&#45;&gt;Node5</title>
<g id="a_edge4_Node000004_Node000005"><a xlink:title=" ">
<path fill="none" stroke="#63b8ff" d="M572,-240C583.44,-240 595.46,-240 607.1,-240"/>
<polygon fill="#63b8ff" stroke="#63b8ff" points="607.07,-243.5 617.07,-240 607.07,-236.5 607.07,-243.5"/>
</a>
</g>
</g>
<!-- Node5&#45;&gt;Node3 -->
<g id="edge5_Node000005_Node000003" class="edge">
<title>Node5&#45;&gt;Node3</title>
<g id="a_edge5_Node000005_Node000003"><a xlink:title=" ">
<path fill="none" stroke="#63b8ff" d="M618.6,-227.13C606.87,-224.82 594.57,-222.63 583,-221 525.54,-212.9 459.9,-208.02 411.43,-205.24"/>
<polygon fill="#63b8ff" stroke="#63b8ff" points="411.81,-201.76 401.63,-204.69 411.42,-208.74 411.81,-201.76"/>
</a>
</g>
</g>
<!-- Node6&#45;&gt;Node5 -->
<g id="edge7_Node000006_Node000005" class="edge">
<title>Node6&#45;&gt;Node5</title>
<g id="a_edge7_Node000006_Node000005"><a xlink:title=" ">
<path fill="none" stroke="#63b8ff" d="M561.38,-270.44C575.98,-266.56 592.13,-262.26 607.59,-258.16"/>
<polygon fill="#63b8ff" stroke="#63b8ff" points="608.46,-261.55 617.22,-255.59 606.66,-254.78 608.46,-261.55"/>
</a>
</g>
</g>
<!-- Node9&#45;&gt;Node10 -->
<g id="edge11_Node000009_Node000010" class="edge">
<title>Node9&#45;&gt;Node10</title>
<g id="a_edge11_Node000009_Node000010"><a xlink:title=" ">
<path fill="none" stroke="#63b8ff" d="M565.02,-62.74C581.94,-60.49 600.63,-58 617.77,-55.72"/>
<polygon fill="#63b8ff" stroke="#63b8ff" points="617.82,-59.25 627.28,-54.46 616.9,-52.31 617.82,-59.25"/>
</a>
</g>
</g>
<!-- Node9&#45;&gt;Node11 -->
<g id="edge12_Node000009_Node000011" class="edge">
<title>Node9&#45;&gt;Node11</title>
<g id="a_edge12_Node000009_Node000011"><a xlink:title=" ">
<path fill="none" stroke="#63b8ff" d="M552.8,-53.56C572.81,-45.91 597.06,-36.8 619,-29 623.65,-27.35 628.53,-25.65 633.39,-23.99"/>
<polygon fill="#63b8ff" stroke="#63b8ff" points="634.13,-27.44 642.48,-20.92 631.89,-20.81 634.13,-27.44"/>
</a>
</g>
</g>
<!-- Node12 -->
<g id="Node000012" class="node">
<title>Node12</title>
<g id="a_Node000012"><a xlink:href="class_data_base_g_u_i.html#a7c3d843eec449d8a4ec5ce6bf0375358" target="_top" xlink:title="Searches for parents based on the provided name and surname.">
<polygon fill="white" stroke="#666666" points="732.12,-157 621.62,-157 621.62,-125 732.12,-125 732.12,-157"/>
<text text-anchor="start" x="629.62" y="-143.5" font-family="Helvetica,sans-Serif" font-size="10.00">DataBaseGUI::parent</text>
<text text-anchor="middle" x="676.88" y="-131.5" font-family="Helvetica,sans-Serif" font-size="10.00">_search</text>
</a>
</g>
</g>
<!-- Node9&#45;&gt;Node12 -->
<g id="edge13_Node000009_Node000012" class="edge">
<title>Node9&#45;&gt;Node12</title>
<g id="a_edge13_Node000009_Node000012"><a xlink:title=" ">
<path fill="none" stroke="#63b8ff" d="M560.7,-86.38C568.23,-89.11 575.86,-92.02 583,-95 600.43,-102.28 619.19,-111.33 635.25,-119.47"/>
<polygon fill="#63b8ff" stroke="#63b8ff" points="633.53,-122.52 644.03,-123.97 636.73,-116.29 633.53,-122.52"/>
</a>
</g>
</g>
<!-- Node13 -->
<g id="Node000013" class="node">
<title>Node13</title>
<g id="a_Node000013"><a xlink:href="class_data_base_g_u_i.html#a739b2cf48c0cb6e3cab2da0a7bbd6d6d" target="_top" xlink:title="Populates the parent tab with a list of parents.">
<polygon fill="white" stroke="#666666" points="891,-294 770.75,-294 770.75,-262 891,-262 891,-294"/>
<text text-anchor="start" x="778.75" y="-280.5" font-family="Helvetica,sans-Serif" font-size="10.00">DataBaseGUI::populate</text>
<text text-anchor="middle" x="830.88" y="-268.5" font-family="Helvetica,sans-Serif" font-size="10.00">_parent_tab</text>
</a>
</g>
</g>
<!-- Node12&#45;&gt;Node13 -->
<g id="edge14_Node000012_Node000013" class="edge">
<title>Node12&#45;&gt;Node13</title>
<g id="a_edge14_Node000012_Node000013"><a xlink:title=" ">
<path fill="none" stroke="#63b8ff" d="M695.91,-157.25C722.53,-181.25 772.53,-226.31 803.34,-254.09"/>
<polygon fill="#63b8ff" stroke="#63b8ff" points="800.97,-256.66 810.74,-260.75 805.66,-251.46 800.97,-256.66"/>
</a>
</g>
</g>
<!-- Node13&#45;&gt;Node1 -->
<g id="edge15_Node000013_Node000001" class="edge">
<title>Node13&#45;&gt;Node1</title>
<g id="a_edge15_Node000013_Node000001"><a xlink:title=" ">
<path fill="none" stroke="#63b8ff" d="M808.79,-294.37C759.52,-330.93 631.82,-416 510.38,-416 338.62,-416 338.62,-416 338.62,-416 187.58,-416 92.54,-214.21 62.87,-140.53"/>
<polygon fill="#63b8ff" stroke="#63b8ff" points="66.29,-139.67 59.37,-131.65 59.78,-142.23 66.29,-139.67"/>
</a>
</g>
</g>
<!-- Node14 -->
<g id="Node000014" class="node">
<title>Node14</title>
<g id="a_Node000014"><a xlink:href="class_parent_entry.html#a45e22d202e52c9dbc7e7e72575dc0e91" target="_top" xlink:title="Signal emitted when a child search is requested.">
<polygon fill="white" stroke="#666666" points="1066,-426 941.25,-426 941.25,-394 1066,-394 1066,-426"/>
<text text-anchor="start" x="949.25" y="-412.5" font-family="Helvetica,sans-Serif" font-size="10.00">ParentEntry::childSearch</text>
<text text-anchor="middle" x="1003.62" y="-400.5" font-family="Helvetica,sans-Serif" font-size="10.00">Requested</text>
</a>
</g>
</g>
<!-- Node13&#45;&gt;Node14 -->
<g id="edge16_Node000013_Node000014" class="edge">
<title>Node13&#45;&gt;Node14</title>
<g id="a_edge16_Node000013_Node000014"><a xlink:title=" ">
<path fill="none" stroke="#63b8ff" d="M842.16,-294.19C857.78,-317.51 889.62,-360.42 927,-385 928.86,-386.23 930.79,-387.4 932.77,-388.51"/>
<polygon fill="#63b8ff" stroke="#63b8ff" points="931.14,-391.61 941.65,-392.98 934.29,-385.36 931.14,-391.61"/>
</a>
</g>
</g>
<!-- Node15 -->
<g id="Node000015" class="node">
<title>Node15</title>
<g id="a_Node000015"><a xlink:href="class_parent_entry.html#ab0a6b9993e8f1dc2f58ceedfee0f7d0b" target="_top" xlink:title="Signal emitted when a parent edit is requested.">
<polygon fill="white" stroke="#666666" points="1072,-376 935.25,-376 935.25,-356 1072,-356 1072,-376"/>
<text text-anchor="middle" x="1003.62" y="-362.5" font-family="Helvetica,sans-Serif" font-size="10.00">ParentEntry::editRequested</text>
</a>
</g>
</g>
<!-- Node13&#45;&gt;Node15 -->
<g id="edge17_Node000013_Node000015" class="edge">
<title>Node13&#45;&gt;Node15</title>
<g id="a_edge17_Node000013_Node000015"><a xlink:title=" ">
<path fill="none" stroke="#63b8ff" d="M849.84,-294.3C868.03,-309.98 897.61,-333.28 927,-347 930.96,-348.85 935.12,-350.53 939.37,-352.06"/>
<polygon fill="#63b8ff" stroke="#63b8ff" points="938.02,-355.31 948.62,-355.09 940.2,-348.65 938.02,-355.31"/>
</a>
</g>
</g>
<!-- Node16 -->
<g id="Node000016" class="node">
<title>Node16</title>
<g id="a_Node000016"><a xlink:href="class_data_base_g_u_i.html#a5b049fb9e0e5d78c4c2e81e569b471f9" target="_top" xlink:title="Edits an existing parent in the database.">
<polygon fill="white" stroke="#666666" points="1069.38,-288 937.88,-288 937.88,-268 1069.38,-268 1069.38,-288"/>
<text text-anchor="middle" x="1003.62" y="-274.5" font-family="Helvetica,sans-Serif" font-size="10.00">DataBaseGUI::parent_edit</text>
</a>
</g>
</g>
<!-- Node13&#45;&gt;Node16 -->
<g id="edge18_Node000013_Node000016" class="edge">
<title>Node13&#45;&gt;Node16</title>
<g id="a_edge18_Node000013_Node000016"><a xlink:title=" ">
<path fill="none" stroke="#63b8ff" d="M891.12,-278C902.5,-278 914.58,-278 926.41,-278"/>
<polygon fill="#63b8ff" stroke="#63b8ff" points="926.14,-281.5 936.14,-278 926.14,-274.5 926.14,-281.5"/>
</a>
</g>
</g>
<!-- Node18 -->
<g id="Node000018" class="node">
<title>Node18</title>
<g id="a_Node000018"><a xlink:href="class_data_base_g_u_i.html#ad8a42f24cdb603ba85c1cdd4ea2e73a4" target="_top" xlink:title="Removes a parent from the database.">
<polygon fill="white" stroke="#666666" points="1058.88,-338 948.38,-338 948.38,-306 1058.88,-306 1058.88,-338"/>
<text text-anchor="start" x="956.38" y="-324.5" font-family="Helvetica,sans-Serif" font-size="10.00">DataBaseGUI::parent</text>
<text text-anchor="middle" x="1003.62" y="-312.5" font-family="Helvetica,sans-Serif" font-size="10.00">_remove</text>
</a>
</g>
</g>
<!-- Node13&#45;&gt;Node18 -->
<g id="edge21_Node000013_Node000018" class="edge">
<title>Node13&#45;&gt;Node18</title>
<g id="a_edge21_Node000013_Node000018"><a xlink:title=" ">
<path fill="none" stroke="#63b8ff" d="M891.12,-293.27C906,-297.1 922.05,-301.24 937.22,-305.14"/>
<polygon fill="#63b8ff" stroke="#63b8ff" points="936.05,-308.46 946.6,-307.56 937.79,-301.68 936.05,-308.46"/>
</a>
</g>
</g>
<!-- Node19 -->
<g id="Node000019" class="node">
<title>Node19</title>
<g id="a_Node000019"><a xlink:href="class_data_base_g_u_i.html#a3d4aa66da32413ddd29330e008b1865a" target="_top" xlink:title="Clears the parent tab.">
<polygon fill="white" stroke="#666666" points="1058.88,-212 948.38,-212 948.38,-180 1058.88,-180 1058.88,-212"/>
<text text-anchor="start" x="956.38" y="-198.5" font-family="Helvetica,sans-Serif" font-size="10.00">DataBaseGUI::parent</text>
<text text-anchor="middle" x="1003.62" y="-186.5" font-family="Helvetica,sans-Serif" font-size="10.00">_tab_clear</text>
</a>
</g>
</g>
<!-- Node13&#45;&gt;Node19 -->
<g id="edge23_Node000013_Node000019" class="edge">
<title>Node13&#45;&gt;Node19</title>
<g id="a_edge23_Node000013_Node000019"><a xlink:title=" ">
<path fill="none" stroke="#63b8ff" d="M859.71,-261.61C878.43,-250.87 903.83,-236.88 927,-226 933.79,-222.81 941.01,-219.66 948.2,-216.66"/>
<polygon fill="#63b8ff" stroke="#63b8ff" points="949.31,-219.99 957.24,-212.96 946.66,-213.51 949.31,-219.99"/>
</a>
</g>
</g>
<!-- Node20 -->
<g id="Node000020" class="node">
<title>Node20</title>
<g id="a_Node000020"><a xlink:href="class_parent_entry.html#ada9ff642ea28fbec8f40767df83cc5f1" target="_top" xlink:title="Signal emitted when a parent removal is requested.">
<polygon fill="white" stroke="#666666" points="1080.25,-162 927,-162 927,-142 1080.25,-142 1080.25,-162"/>
<text text-anchor="middle" x="1003.62" y="-148.5" font-family="Helvetica,sans-Serif" font-size="10.00">ParentEntry::removeRequested</text>
</a>
</g>
</g>
<!-- Node13&#45;&gt;Node20 -->
<g id="edge24_Node000013_Node000020" class="edge">
<title>Node13&#45;&gt;Node20</title>
<g id="a_edge24_Node000013_Node000020"><a xlink:title=" ">
<path fill="none" stroke="#63b8ff" d="M841.68,-261.84C856.91,-238.16 888.53,-194.33 927,-171 929.48,-169.5 932.08,-168.11 934.75,-166.83"/>
<polygon fill="#63b8ff" stroke="#63b8ff" points="936.08,-170.07 943.98,-163.01 933.4,-163.6 936.08,-170.07"/>
</a>
</g>
</g>
<!-- Node17 -->
<g id="Node000017" class="node">
<title>Node17</title>
<g id="a_Node000017"><a xlink:href="class_data_base_g_u_i.html#a625b5e2018395a458ff517bbf364e1bf" target="_top" xlink:title="Selects the appropriate sorting to use based on parent sort index.">
<polygon fill="white" stroke="#666666" points="1229.75,-294 1116.25,-294 1116.25,-262 1229.75,-262 1229.75,-294"/>
<text text-anchor="start" x="1124.25" y="-280.5" font-family="Helvetica,sans-Serif" font-size="10.00">DataBaseGUI::sort_to</text>
<text text-anchor="middle" x="1173" y="-268.5" font-family="Helvetica,sans-Serif" font-size="10.00">_populate_parent_tab</text>
</a>
</g>
</g>
<!-- Node16&#45;&gt;Node17 -->
<g id="edge19_Node000016_Node000017" class="edge">
<title>Node16&#45;&gt;Node17</title>
<g id="a_edge19_Node000016_Node000017"><a xlink:title=" ">
<path fill="none" stroke="#63b8ff" d="M1069.82,-278C1081.24,-278 1093.16,-278 1104.64,-278"/>
<polygon fill="#63b8ff" stroke="#63b8ff" points="1104.44,-281.5 1114.44,-278 1104.44,-274.5 1104.44,-281.5"/>
</a>
</g>
</g>
<!-- Node17&#45;&gt;Node13 -->
<g id="edge20_Node000017_Node000013" class="edge">
<title>Node17&#45;&gt;Node13</title>
<g id="a_edge20_Node000017_Node000013"><a xlink:title=" ">
<path fill="none" stroke="#63b8ff" d="M1116,-264.51C1104.26,-262.22 1091.9,-260.19 1080.25,-259 1012.49,-252.06 994.78,-252.3 927,-259 919.05,-259.79 910.78,-260.93 902.58,-262.28"/>
<polygon fill="#63b8ff" stroke="#63b8ff" points="902.22,-258.79 892.97,-263.97 903.43,-265.69 902.22,-258.79"/>
</a>
</g>
</g>
<!-- Node18&#45;&gt;Node17 -->
<g id="edge22_Node000018_Node000017" class="edge">
<title>Node18&#45;&gt;Node17</title>
<g id="a_edge22_Node000018_Node000017"><a xlink:title=" ">
<path fill="none" stroke="#63b8ff" d="M1058.97,-307.71C1073.64,-303.86 1089.69,-299.64 1104.96,-295.62"/>
<polygon fill="#63b8ff" stroke="#63b8ff" points="1105.67,-299.05 1114.46,-293.13 1103.9,-292.28 1105.67,-299.05"/>
</a>
</g>
</g>
</g>
</svg>
