<?xml version="1.0" encoding="UTF-8" standalone="no"?>
<!DOCTYPE svg PUBLIC "-//W3C//DTD SVG 1.1//EN"
 "http://www.w3.org/Graphics/SVG/1.1/DTD/svg11.dtd">
<!-- Generated by graphviz version 12.2.1 (20241206.2353)
 -->
<!-- Title: LessonView::childClicked Pages: 1 -->
<!--zoomable 226 -->

<svg id="main" version="1.1" xmlns="http://www.w3.org/2000/svg" xmlns:xlink="http://www.w3.org/1999/xlink" xml:space="preserve" onload="init(evt)">

<style type="text/css"><![CDATA[
.node, .edge {opacity: 0.7;}
.node.selected, .edge.selected {opacity: 1;}
.edge:hover path { stroke: red; }
.edge:hover polygon { stroke: red; fill: red; }
]]></style>

<defs>
  <circle id="rim" cx="0" cy="0" r="7"/>
  <circle id="rim2" cx="0" cy="0" r="3.5"/>
  <g id="zoomPlus">
    <use xlink:href="#rim" fill="#404040"><set attributeName="fill" to="#808080" begin="zoomplus.mouseover" end="zoomplus.mouseout"/></use>
    <path d="M-4,0h8M0,-4v8" fill="none" stroke="white" stroke-width="1.5" pointer-events="none"/>
  </g>
  <g id="zoomMin">
    <use xlink:href="#rim" fill="#404040"><set attributeName="fill" to="#808080" begin="zoomminus.mouseover" end="zoomminus.mouseout"/></use>
    <path d="M-4,0h8" fill="none" stroke="white" stroke-width="1.5" pointer-events="none"/>
  </g>
  <g id="arrowUp" transform="translate(30 24)">
    <use xlink:href="#rim"/>
    <path pointer-events="none" fill="none" stroke="white" stroke-width="1.5" d="M0,-3.0v7 M-2.5,-0.5L0,-3.0L2.5,-0.5"/>
  </g>
  <g id="arrowRight" transform="rotate(90) translate(36 -43)">
    <use xlink:href="#rim"/>
    <path pointer-events="none" fill="none" stroke="white" stroke-width="1.5" d="M0,-3.0v7 M-2.5,-0.5L0,-3.0L2.5,-0.5"/>
  </g>
  <g id="arrowDown" transform="rotate(180) translate(-30 -48)">
    <use xlink:href="#rim"/>
    <path pointer-events="none" fill="none" stroke="white" stroke-width="1.5" d="M0,-3.0v7 M-2.5,-0.5L0,-3.0L2.5,-0.5"/>
  </g>
  <g id="arrowLeft" transform="rotate(270) translate(-36 17)">
    <use xlink:href="#rim"/>
    <path pointer-events="none" fill="none" stroke="white" stroke-width="1.5" d="M0,-3.0v7 M-2.5,-0.5L0,-3.0L2.5,-0.5"/>
  </g>
  <g id="resetDef">
    <use xlink:href="#rim2" fill="#404040"><set attributeName="fill" to="#808080" begin="reset.mouseover" end="reset.mouseout"/></use>
  </g>
</defs>
<script type="application/ecmascript">
var viewWidth = 1142;
var viewHeight = 226;
var sectionId = 'dynsection-6';
</script>
<script type="application/ecmascript" xlink:href="svg.min.js"/>
<svg id="graph" class="graph">
<g id="viewport">
<title>LessonView::childClicked</title>
<!-- Node1 -->
<g id="Node000001" class="node">
<title>Node1</title>
<g id="a_Node000001"><a xlink:title="Signal emitted when a child is clicked.">
<polygon fill="#999999" stroke="#666666" points="1134.25,-86 1005.75,-86 1005.75,-66 1134.25,-66 1134.25,-86"/>
<text text-anchor="middle" x="1070" y="-72.5" font-family="Helvetica,sans-Serif" font-size="10.00">LessonView::childClicked</text>
</a>
</g>
</g>
<!-- Node2 -->
<g id="Node000002" class="node">
<title>Node2</title>
<g id="a_Node000002"><a xlink:href="class_data_base_g_u_i.html#aadcf1044a300a89dadd104cfadb9a1b1" target="_top" xlink:title="Views a lesson in the GUI.">
<polygon fill="white" stroke="#666666" points="969.75,-127 832.25,-127 832.25,-107 969.75,-107 969.75,-127"/>
<text text-anchor="middle" x="901" y="-113.5" font-family="Helvetica,sans-Serif" font-size="10.00">DataBaseGUI::lesson_view</text>
</a>
</g>
</g>
<!-- Node1&#45;&gt;Node2 -->
<g id="edge1_Node000001_Node000002" class="edge">
<title>Node1&#45;&gt;Node2</title>
<g id="a_edge1_Node000001_Node000002"><a xlink:title=" ">
<path fill="none" stroke="#63b8ff" d="M1015.47,-89.14C992.52,-94.78 966.08,-101.27 944.5,-106.57"/>
<polygon fill="#63b8ff" stroke="#63b8ff" points="1016.08,-92.6 1024.96,-86.81 1014.41,-85.8 1016.08,-92.6"/>
</a>
</g>
</g>
<!-- Node14 -->
<g id="Node000014" class="node">
<title>Node14</title>
<g id="a_Node000014"><a xlink:href="class_lesson_view.html#ab176e4c21a912197c8400af154e31f4c" target="_top" xlink:title="Populates the children sections of the lesson view.">
<polygon fill="white" stroke="#666666" points="957,-70 845,-70 845,-38 957,-38 957,-70"/>
<text text-anchor="start" x="853" y="-56.5" font-family="Helvetica,sans-Serif" font-size="10.00">LessonView::populate</text>
<text text-anchor="middle" x="901" y="-44.5" font-family="Helvetica,sans-Serif" font-size="10.00">_children</text>
</a>
</g>
</g>
<!-- Node1&#45;&gt;Node14 -->
<g id="edge20_Node000001_Node000014" class="edge">
<title>Node1&#45;&gt;Node14</title>
<g id="a_edge20_Node000001_Node000014"><a xlink:title=" ">
<path fill="none" stroke="#63b8ff" d="M994.1,-66.13C981.71,-64.5 969.05,-62.83 957.25,-61.28"/>
<polygon fill="#63b8ff" stroke="#63b8ff" points="993.52,-69.59 1003.89,-67.42 994.43,-62.65 993.52,-69.59"/>
</a>
</g>
</g>
<!-- Node2&#45;&gt;Node2 -->
<g id="edge2_Node000002_Node000002" class="edge">
<title>Node2&#45;&gt;Node2</title>
<g id="a_edge2_Node000002_Node000002"><a xlink:title=" ">
<path fill="none" stroke="#63b8ff" d="M930.54,-138.44C926.73,-142.3 916.89,-145 901,-145 871.95,-145 863.1,-135.98 874.45,-127.34"/>
<polygon fill="#63b8ff" stroke="#63b8ff" points="933.92,-137.55 927.95,-128.8 927.16,-139.37 933.92,-137.55"/>
</a>
</g>
</g>
<!-- Node3 -->
<g id="Node000003" class="node">
<title>Node3</title>
<g id="a_Node000003"><a xlink:href="class_data_base_g_u_i.html#a74e047889e913eae69ec40ec17f53c9d" target="_top" xlink:title="Populates the lessons tab with a multimap of lessons.">
<polygon fill="white" stroke="#666666" points="301.25,-218 181,-218 181,-186 301.25,-186 301.25,-218"/>
<text text-anchor="start" x="189" y="-204.5" font-family="Helvetica,sans-Serif" font-size="10.00">DataBaseGUI::populate</text>
<text text-anchor="middle" x="241.12" y="-192.5" font-family="Helvetica,sans-Serif" font-size="10.00">_lesson_tab</text>
</a>
</g>
</g>
<!-- Node2&#45;&gt;Node3 -->
<g id="edge3_Node000002_Node000003" class="edge">
<title>Node2&#45;&gt;Node3</title>
<g id="a_edge3_Node000002_Node000003"><a xlink:title=" ">
<path fill="none" stroke="#63b8ff" d="M869.73,-132.38C849.43,-142.05 821.84,-153.98 796.25,-161 598.62,-215.22 542.16,-208.23 337.25,-205 325.77,-204.82 313.51,-204.52 301.74,-204.17"/>
<polygon fill="#63b8ff" stroke="#63b8ff" points="871.09,-135.61 878.55,-128.09 868.02,-129.32 871.09,-135.61"/>
</a>
</g>
</g>
<!-- Node4 -->
<g id="Node000004" class="node">
<title>Node4</title>
<g id="a_Node000004"><a xlink:href="class_data_base_g_u_i.html#aa6b02e4e81b0113fb1c75d7d5ef0be59" target="_top" xlink:title="Populates the lessons tab with a list of lessons.">
<polygon fill="white" stroke="#666666" points="794,-152 673.75,-152 673.75,-120 794,-120 794,-152"/>
<text text-anchor="start" x="681.75" y="-138.5" font-family="Helvetica,sans-Serif" font-size="10.00">DataBaseGUI::populate</text>
<text text-anchor="middle" x="733.88" y="-126.5" font-family="Helvetica,sans-Serif" font-size="10.00">_lesson_tab</text>
</a>
</g>
</g>
<!-- Node2&#45;&gt;Node4 -->
<g id="edge4_Node000002_Node000004" class="edge">
<title>Node2&#45;&gt;Node4</title>
<g id="a_edge4_Node000002_Node000004"><a xlink:title=" ">
<path fill="none" stroke="#63b8ff" d="M820.72,-126.12C811.86,-127.14 802.95,-128.17 794.39,-129.15"/>
<polygon fill="#63b8ff" stroke="#63b8ff" points="820.85,-129.63 830.38,-125.01 820.05,-122.68 820.85,-129.63"/>
</a>
</g>
</g>
<!-- Node5 -->
<g id="Node000005" class="node">
<title>Node5</title>
<g id="a_Node000005"><a xlink:href="class_data_base_g_u_i.html#a55b3c6d3607f17f55d4c321e97fdce7f" target="_top" xlink:title="Searches for lessons based on the provided child name and surname.">
<polygon fill="white" stroke="#666666" points="627.25,-152 515.25,-152 515.25,-120 627.25,-120 627.25,-152"/>
<text text-anchor="start" x="523.25" y="-138.5" font-family="Helvetica,sans-Serif" font-size="10.00">DataBaseGUI::lesson</text>
<text text-anchor="middle" x="571.25" y="-126.5" font-family="Helvetica,sans-Serif" font-size="10.00">_search</text>
</a>
</g>
</g>
<!-- Node4&#45;&gt;Node5 -->
<g id="edge5_Node000004_Node000005" class="edge">
<title>Node4&#45;&gt;Node5</title>
<g id="a_edge5_Node000004_Node000005"><a xlink:title=" ">
<path fill="none" stroke="#63b8ff" d="M662.1,-136C650.55,-136 638.74,-136 627.63,-136"/>
<polygon fill="#63b8ff" stroke="#63b8ff" points="662.01,-139.5 672.01,-136 662.01,-132.5 662.01,-139.5"/>
</a>
</g>
</g>
<!-- Node9 -->
<g id="Node000009" class="node">
<title>Node9</title>
<g id="a_Node000009"><a xlink:href="class_data_base_g_u_i.html#a1ad152b7becf3e0051cdd5dbae6d4abc" target="_top" xlink:title="Selects the appropriate sorting to use based on lesson sort index.">
<polygon fill="white" stroke="#666666" points="628,-102 514.5,-102 514.5,-70 628,-70 628,-102"/>
<text text-anchor="start" x="522.5" y="-88.5" font-family="Helvetica,sans-Serif" font-size="10.00">DataBaseGUI::sort_to</text>
<text text-anchor="middle" x="571.25" y="-76.5" font-family="Helvetica,sans-Serif" font-size="10.00">_populate_lesson_tab</text>
</a>
</g>
</g>
<!-- Node4&#45;&gt;Node9 -->
<g id="edge9_Node000004_Node000009" class="edge">
<title>Node4&#45;&gt;Node9</title>
<g id="a_edge9_Node000004_Node000009"><a xlink:title=" ">
<path fill="none" stroke="#63b8ff" d="M669.3,-116.21C654.7,-111.67 639.33,-106.88 625.24,-102.49"/>
<polygon fill="#63b8ff" stroke="#63b8ff" points="668.25,-119.55 678.84,-119.18 670.33,-112.86 668.25,-119.55"/>
</a>
</g>
</g>
<!-- Node6 -->
<g id="Node000006" class="node">
<title>Node6</title>
<g id="a_Node000006"><a xlink:href="class_data_base_g_u_i.html#a6c35e47ed05a80db144f240dee805a9d" target="_top" xlink:title="Sets up the GUI.">
<polygon fill="white" stroke="#666666" points="294.88,-89 187.38,-89 187.38,-69 294.88,-69 294.88,-89"/>
<text text-anchor="middle" x="241.12" y="-75.5" font-family="Helvetica,sans-Serif" font-size="10.00">DataBaseGUI::setup</text>
</a>
</g>
</g>
<!-- Node5&#45;&gt;Node6 -->
<g id="edge6_Node000005_Node000006" class="edge">
<title>Node5&#45;&gt;Node6</title>
<g id="a_edge6_Node000005_Node000006"><a xlink:title=" ">
<path fill="none" stroke="#63b8ff" d="M503.65,-135.82C456.6,-134.43 392.37,-129.95 337.25,-117 310.76,-110.78 281.96,-98.42 263.07,-89.48"/>
<polygon fill="#63b8ff" stroke="#63b8ff" points="503.32,-139.31 513.41,-136.07 503.5,-132.32 503.32,-139.31"/>
</a>
</g>
</g>
<!-- Node7 -->
<g id="Node000007" class="node">
<title>Node7</title>
<g id="a_Node000007"><a xlink:href="class_data_base_g_u_i.html#a2c83afe3a30fb5166d275d9a74d33196" target="_top" xlink:title="Default constructor.">
<polygon fill="white" stroke="#666666" points="145,-108 0,-108 0,-88 145,-88 145,-108"/>
<text text-anchor="middle" x="72.5" y="-94.5" font-family="Helvetica,sans-Serif" font-size="10.00">DataBaseGUI::DataBaseGUI</text>
</a>
</g>
</g>
<!-- Node6&#45;&gt;Node7 -->
<g id="edge7_Node000006_Node000007" class="edge">
<title>Node6&#45;&gt;Node7</title>
<g id="a_edge7_Node000006_Node000007"><a xlink:title=" ">
<path fill="none" stroke="#63b8ff" d="M175.53,-86.37C165.64,-87.49 155.37,-88.67 145.32,-89.81"/>
<polygon fill="#63b8ff" stroke="#63b8ff" points="175.9,-89.85 185.44,-85.24 175.11,-82.89 175.9,-89.85"/>
</a>
</g>
</g>
<!-- Node8 -->
<g id="Node000008" class="node">
<title>Node8</title>
<g id="a_Node000008"><a xlink:href="class_data_base_g_u_i.html#aba10d1d8e9fb151632ff34de418cee82" target="_top" xlink:title="Constructs a DataBaseGUI object.">
<polygon fill="white" stroke="#666666" points="145,-70 0,-70 0,-50 145,-50 145,-70"/>
<text text-anchor="middle" x="72.5" y="-56.5" font-family="Helvetica,sans-Serif" font-size="10.00">DataBaseGUI::DataBaseGUI</text>
</a>
</g>
</g>
<!-- Node6&#45;&gt;Node8 -->
<g id="edge8_Node000006_Node000008" class="edge">
<title>Node6&#45;&gt;Node8</title>
<g id="a_edge8_Node000006_Node000008"><a xlink:title=" ">
<path fill="none" stroke="#63b8ff" d="M175.53,-71.63C165.64,-70.51 155.37,-69.33 145.32,-68.19"/>
<polygon fill="#63b8ff" stroke="#63b8ff" points="175.11,-75.11 185.44,-72.76 175.9,-68.15 175.11,-75.11"/>
</a>
</g>
</g>
<!-- Node9&#45;&gt;Node2 -->
<g id="edge17_Node000009_Node000002" class="edge">
<title>Node9&#45;&gt;Node2</title>
<g id="a_edge17_Node000009_Node000002"><a xlink:title=" ">
<path fill="none" stroke="#63b8ff" d="M639.64,-92.37C695.89,-97.69 775.69,-105.24 832.09,-110.58"/>
<polygon fill="#63b8ff" stroke="#63b8ff" points="640.15,-88.91 629.87,-91.45 639.49,-95.88 640.15,-88.91"/>
</a>
</g>
</g>
<!-- Node10 -->
<g id="Node000010" class="node">
<title>Node10</title>
<g id="a_Node000010"><a xlink:href="class_data_base_g_u_i.html#a778bdaec7f9281df4c0ead66c9dcffd2" target="_top" xlink:title="Adds a new lesson to the database.">
<polygon fill="white" stroke="#666666" points="470.62,-70 337.62,-70 337.62,-50 470.62,-50 470.62,-70"/>
<text text-anchor="middle" x="404.12" y="-56.5" font-family="Helvetica,sans-Serif" font-size="10.00">DataBaseGUI::lesson_add</text>
</a>
</g>
</g>
<!-- Node9&#45;&gt;Node10 -->
<g id="edge10_Node000009_Node000010" class="edge">
<title>Node9&#45;&gt;Node10</title>
<g id="a_edge10_Node000009_Node000010"><a xlink:title=" ">
<path fill="none" stroke="#63b8ff" d="M503.03,-75.42C492.45,-73.75 481.51,-72.03 470.96,-70.37"/>
<polygon fill="#63b8ff" stroke="#63b8ff" points="502.43,-78.86 512.85,-76.96 503.52,-71.95 502.43,-78.86"/>
</a>
</g>
</g>
<!-- Node11 -->
<g id="Node000011" class="node">
<title>Node11</title>
<g id="a_Node000011"><a xlink:href="class_data_base_g_u_i.html#a66a3e89a9852de3522d98f2c1f8cdeed" target="_top" xlink:title="Removes a lesson from the database.">
<polygon fill="white" stroke="#666666" points="460.12,-196 348.12,-196 348.12,-164 460.12,-164 460.12,-196"/>
<text text-anchor="start" x="356.12" y="-182.5" font-family="Helvetica,sans-Serif" font-size="10.00">DataBaseGUI::lesson</text>
<text text-anchor="middle" x="404.12" y="-170.5" font-family="Helvetica,sans-Serif" font-size="10.00">_remove</text>
</a>
</g>
</g>
<!-- Node9&#45;&gt;Node11 -->
<g id="edge12_Node000009_Node000011" class="edge">
<title>Node9&#45;&gt;Node11</title>
<g id="a_edge12_Node000009_Node000011"><a xlink:title=" ">
<path fill="none" stroke="#63b8ff" d="M514.76,-107.11C512.11,-108.37 509.51,-109.67 507,-111 477.53,-126.56 446.15,-148.78 426.13,-163.76"/>
<polygon fill="#63b8ff" stroke="#63b8ff" points="516.07,-110.36 523.75,-103.05 513.19,-103.98 516.07,-110.36"/>
</a>
</g>
</g>
<!-- Node12 -->
<g id="Node000012" class="node">
<title>Node12</title>
<g id="a_Node000012"><a xlink:href="class_data_base_g_u_i.html#a0478b87f545d97b9e3ef55858242878b" target="_top" xlink:title="Changes the sorting method for lessons.">
<polygon fill="white" stroke="#666666" points="460.12,-32 348.12,-32 348.12,0 460.12,0 460.12,-32"/>
<text text-anchor="start" x="356.12" y="-18.5" font-family="Helvetica,sans-Serif" font-size="10.00">DataBaseGUI::lesson</text>
<text text-anchor="middle" x="404.12" y="-6.5" font-family="Helvetica,sans-Serif" font-size="10.00">_sort_change</text>
</a>
</g>
</g>
<!-- Node9&#45;&gt;Node12 -->
<g id="edge15_Node000009_Node000012" class="edge">
<title>Node9&#45;&gt;Node12</title>
<g id="a_edge15_Node000009_Node000012"><a xlink:title=" ">
<path fill="none" stroke="#63b8ff" d="M525.4,-64.94C508.45,-57.18 488.94,-48.46 471,-41 464.11,-38.13 456.76,-35.21 449.57,-32.43"/>
<polygon fill="#63b8ff" stroke="#63b8ff" points="523.65,-67.99 534.2,-69 526.58,-61.63 523.65,-67.99"/>
</a>
</g>
</g>
<!-- Node13 -->
<g id="Node000013" class="node">
<title>Node13</title>
<g id="a_Node000013"><a xlink:href="class_data_base_g_u_i.html#a438b5070d6a58ffa5e884d18740852c6" target="_top" xlink:title="Handles tab change events.">
<polygon fill="white" stroke="#666666" points="471,-108 337.25,-108 337.25,-88 471,-88 471,-108"/>
<text text-anchor="middle" x="404.12" y="-94.5" font-family="Helvetica,sans-Serif" font-size="10.00">DataBaseGUI::tab_change</text>
</a>
</g>
</g>
<!-- Node9&#45;&gt;Node13 -->
<g id="edge18_Node000009_Node000013" class="edge">
<title>Node9&#45;&gt;Node13</title>
<g id="a_edge18_Node000009_Node000013"><a xlink:title=" ">
<path fill="none" stroke="#63b8ff" d="M503.11,-90.88C492.6,-91.64 481.74,-92.43 471.25,-93.19"/>
<polygon fill="#63b8ff" stroke="#63b8ff" points="503.12,-94.39 512.84,-90.17 502.61,-87.41 503.12,-94.39"/>
</a>
</g>
</g>
<!-- Node10&#45;&gt;Node6 -->
<g id="edge11_Node000010_Node000006" class="edge">
<title>Node10&#45;&gt;Node6</title>
<g id="a_edge11_Node000010_Node000006"><a xlink:title=" ">
<path fill="none" stroke="#63b8ff" d="M325.87,-69.12C315.39,-70.35 304.84,-71.6 294.93,-72.77"/>
<polygon fill="#63b8ff" stroke="#63b8ff" points="326.15,-72.61 335.67,-67.96 325.33,-65.66 326.15,-72.61"/>
</a>
</g>
</g>
<!-- Node11&#45;&gt;Node3 -->
<g id="edge13_Node000011_Node000003" class="edge">
<title>Node11&#45;&gt;Node3</title>
<g id="a_edge13_Node000011_Node000003"><a xlink:title=" ">
<path fill="none" stroke="#63b8ff" d="M336.33,-189.13C324.77,-190.71 312.82,-192.34 301.48,-193.89"/>
<polygon fill="#63b8ff" stroke="#63b8ff" points="336.78,-192.6 346.22,-187.78 335.84,-185.66 336.78,-192.6"/>
</a>
</g>
</g>
<!-- Node11&#45;&gt;Node4 -->
<g id="edge14_Node000011_Node000004" class="edge">
<title>Node11&#45;&gt;Node4</title>
<g id="a_edge14_Node000011_Node000004"><a xlink:title=" ">
<path fill="none" stroke="#63b8ff" d="M471.75,-177.49C517.95,-175.02 580.78,-170.21 635.5,-161 648.49,-158.81 662.29,-155.74 675.29,-152.5"/>
<polygon fill="#63b8ff" stroke="#63b8ff" points="471.7,-173.98 461.89,-177.99 472.05,-180.98 471.7,-173.98"/>
</a>
</g>
</g>
<!-- Node12&#45;&gt;Node6 -->
<g id="edge16_Node000012_Node000006" class="edge">
<title>Node12&#45;&gt;Node6</title>
<g id="a_edge16_Node000012_Node000006"><a xlink:title=" ">
<path fill="none" stroke="#63b8ff" d="M348.98,-36.46C345.01,-37.99 341.06,-39.51 337.25,-41 313.72,-50.16 287.02,-60.85 267.92,-68.56"/>
<polygon fill="#63b8ff" stroke="#63b8ff" points="350,-39.82 358.09,-32.98 347.5,-33.28 350,-39.82"/>
</a>
</g>
</g>
<!-- Node13&#45;&gt;Node6 -->
<g id="edge19_Node000013_Node000006" class="edge">
<title>Node13&#45;&gt;Node6</title>
<g id="a_edge19_Node000013_Node000006"><a xlink:title=" ">
<path fill="none" stroke="#63b8ff" d="M325.87,-88.88C315.39,-87.65 304.84,-86.4 294.93,-85.23"/>
<polygon fill="#63b8ff" stroke="#63b8ff" points="325.33,-92.34 335.67,-90.04 326.15,-85.39 325.33,-92.34"/>
</a>
</g>
</g>
<!-- Node15 -->
<g id="Node000015" class="node">
<title>Node15</title>
<g id="a_Node000015"><a xlink:href="class_lesson_view.html#a01642f9f2ac50e57169729fd7bfdd4e2" target="_top" xlink:title="Function called when the edit button is clicked.">
<polygon fill="white" stroke="#666666" points="796.25,-26 671.5,-26 671.5,-6 796.25,-6 796.25,-26"/>
<text text-anchor="middle" x="733.88" y="-12.5" font-family="Helvetica,sans-Serif" font-size="10.00">LessonView::edit_lesson</text>
</a>
</g>
</g>
<!-- Node14&#45;&gt;Node15 -->
<g id="edge21_Node000014_Node000015" class="edge">
<title>Node14&#45;&gt;Node15</title>
<g id="a_edge21_Node000014_Node000015"><a xlink:title=" ">
<path fill="none" stroke="#63b8ff" d="M833.58,-38.72C815.69,-34.6 796.75,-30.24 780.29,-26.45"/>
<polygon fill="#63b8ff" stroke="#63b8ff" points="832.55,-42.07 843.08,-40.9 834.12,-35.25 832.55,-42.07"/>
</a>
</g>
</g>
<!-- Node16 -->
<g id="Node000016" class="node">
<title>Node16</title>
<g id="a_Node000016"><a xlink:href="class_lesson_view.html#a5652733016a72ccf85b1df6e88a3513e" target="_top" xlink:title="Constructs a LessonView widget.">
<polygon fill="white" stroke="#666666" points="635.5,-39 507,-39 507,-19 635.5,-19 635.5,-39"/>
<text text-anchor="middle" x="571.25" y="-25.5" font-family="Helvetica,sans-Serif" font-size="10.00">LessonView::LessonView</text>
</a>
</g>
</g>
<!-- Node14&#45;&gt;Node16 -->
<g id="edge23_Node000014_Node000016" class="edge">
<title>Node14&#45;&gt;Node16</title>
<g id="a_edge23_Node000014_Node000016"><a xlink:title=" ">
<path fill="none" stroke="#63b8ff" d="M833.58,-48.93C775.84,-44.53 692.75,-38.19 635.85,-33.85"/>
<polygon fill="#63b8ff" stroke="#63b8ff" points="833.03,-52.4 843.26,-49.67 833.56,-45.42 833.03,-52.4"/>
</a>
</g>
</g>
<!-- Node15&#45;&gt;Node16 -->
<g id="edge22_Node000015_Node000016" class="edge">
<title>Node15&#45;&gt;Node16</title>
<g id="a_edge22_Node000015_Node000016"><a xlink:title=" ">
<path fill="none" stroke="#63b8ff" d="M659.96,-21.9C651.92,-22.55 643.77,-23.21 635.86,-23.85"/>
<polygon fill="#63b8ff" stroke="#63b8ff" points="660.04,-25.41 669.72,-21.11 659.47,-18.43 660.04,-25.41"/>
</a>
</g>
</g>
</g>
</svg>

<g id="navigator" transform="translate(0 0)" fill="#404254">
  <rect fill="#f2f5e9" fill-opacity="0.5" stroke="#606060" stroke-width=".5" x="0" y="0" width="60" height="60"/>
  <use id="zoomplus" xlink:href="#zoomPlus" x="17" y="9" onmousedown="handleZoom(evt,'in')"/>
  <use id="zoomminus" xlink:href="#zoomMin" x="42" y="9" onmousedown="handleZoom(evt,'out')"/>
  <use id="reset" xlink:href="#resetDef" x="30" y="36" onmousedown="handleReset()"/>
   <use id="arrowup" xlink:href="#arrowUp" x="0" y="0" onmousedown="handlePan(0,-1)"/>
  <use id="arrowright" xlink:href="#arrowRight" x="0" y="0" onmousedown="handlePan(1,0)"/>
  <use id="arrowdown" xlink:href="#arrowDown" x="0" y="0" onmousedown="handlePan(0,1)"/>
  <use id="arrowleft" xlink:href="#arrowLeft" x="0" y="0" onmousedown="handlePan(-1,0)"/>
</g>
<svg viewBox="0 0 15 15" width="100%" height="30px" preserveAspectRatio="xMaxYMin meet">
 <g id="arrow_out" transform="scale(0.3 0.3)">
  <a xlink:href="class_lesson_view_aa227f774e8716f77d11ee4485f14b94b_icgraph_org.svg" target="_base">
   <rect id="button" ry="5" rx="5" y="6" x="6" height="38" width="38"
        fill="#f2f5e9" fill-opacity="0.5" stroke="#606060" stroke-width="1.0"/>
   <path id="arrow"
     d="M 11.500037,31.436501 C 11.940474,20.09759 22.043105,11.32322 32.158766,21.979434 L 37.068811,17.246167 C 37.068811,17.246167 37.088388,32 37.088388,32 L 22.160133,31.978069 C 22.160133,31.978069 26.997745,27.140456 26.997745,27.140456 C 18.528582,18.264221 13.291696,25.230495 11.500037,31.436501 z"
     style="fill:#404040;"/>
  </a>
 </g>
</svg>

<style type='text/css'>
<![CDATA[
[data-mouse-over-selected='false'] { opacity: 0.7; }
[data-mouse-over-selected='true']  { opacity: 1.0; }
]]>
</style>
<script type="application/ecmascript"><![CDATA[
document.addEventListener('DOMContentLoaded', (event) => {
  highlightEdges();
  highlightAdjacentNodes();
});
]]></script>
</svg>
