<?xml version="1.0" encoding="UTF-8" standalone="no"?>
<!DOCTYPE svg PUBLIC "-//W3C//DTD SVG 1.1//EN"
 "http://www.w3.org/Graphics/SVG/1.1/DTD/svg11.dtd">
<!-- Generated by graphviz version 12.2.1 (20241206.2353)
 -->
<!-- Title: DateTime::get_current_datetime Pages: 1 -->
<svg width="376pt" height="142pt"
 viewBox="0.00 0.00 375.50 141.61" xmlns="http://www.w3.org/2000/svg" xmlns:xlink="http://www.w3.org/1999/xlink">

<svg id="main" version="1.1" xmlns="http://www.w3.org/2000/svg" xmlns:xlink="http://www.w3.org/1999/xlink" xml:space="preserve">

<style type="text/css"><![CDATA[
.node, .edge {opacity: 0.7;}
.node.selected, .edge.selected {opacity: 1;}
.edge:hover path { stroke: red; }
.edge:hover polygon { stroke: red; fill: red; }
]]></style>
<script type="application/ecmascript" xlink:href="svg.min.js"/>
<svg id="graph" class="graph">
<g id="graph0" class="graph" transform="scale(1 1) rotate(0) translate(4 137.61)">
<title>DateTime::get_current_datetime</title>
<!-- Node1 -->
<g id="Node000001" class="node">
<title>Node1</title>
<g id="a_Node000001"><a xlink:title="Gets the current date and time.">
<polygon fill="#999999" stroke="#666666" points="113.5,-81.3 0,-81.3 0,-49.3 113.5,-49.3 113.5,-81.3"/>
<text text-anchor="start" x="8" y="-67.8" font-family="Helvetica,sans-Serif" font-size="10.00">DateTime::get_current</text>
<text text-anchor="middle" x="56.75" y="-55.8" font-family="Helvetica,sans-Serif" font-size="10.00">_datetime</text>
</a>
</g>
</g>
<!-- Node2 -->
<g id="Node000002" class="node">
<title>Node2</title>
<g id="a_Node000002"><a xlink:href="class_date.html#a19cb325d7fc9e143f9095e7eadc8a1a4" target="_top" xlink:title="Default constructor.">
<polygon fill="white" stroke="#666666" points="366.75,-84.3 302.75,-84.3 302.75,-64.3 366.75,-64.3 366.75,-84.3"/>
<text text-anchor="middle" x="334.75" y="-70.8" font-family="Helvetica,sans-Serif" font-size="10.00">Date::Date</text>
</a>
</g>
</g>
<!-- Node1&#45;&gt;Node2 -->
<g id="edge1_Node000001_Node000002" class="edge">
<title>Node1&#45;&gt;Node2</title>
<g id="a_edge1_Node000001_Node000002"><a xlink:title=" ">
<path fill="none" stroke="#63b8ff" d="M76.96,-81.73C94.53,-95.6 121.91,-114.43 149.5,-122.3 199.29,-136.51 216.66,-138.01 266,-122.3 284.79,-116.32 302.84,-103.02 315.58,-91.94"/>
<polygon fill="#63b8ff" stroke="#63b8ff" points="317.71,-94.74 322.74,-85.41 312.99,-89.57 317.71,-94.74"/>
</a>
</g>
</g>
<!-- Node3 -->
<g id="Node000003" class="node">
<title>Node3</title>
<g id="a_Node000003"><a xlink:href="class_date_time.html#afa7d2eb61840fe713cb4f98795c23a53" target="_top" xlink:title="Default constructor.">
<polygon fill="white" stroke="#666666" points="261.5,-113.3 154,-113.3 154,-93.3 261.5,-93.3 261.5,-113.3"/>
<text text-anchor="middle" x="207.75" y="-99.8" font-family="Helvetica,sans-Serif" font-size="10.00">DateTime::DateTime</text>
</a>
</g>
</g>
<!-- Node1&#45;&gt;Node3 -->
<g id="edge2_Node000001_Node000003" class="edge">
<title>Node1&#45;&gt;Node3</title>
<g id="a_edge2_Node000001_Node000003"><a xlink:title=" ">
<path fill="none" stroke="#63b8ff" d="M113.66,-79.56C127.2,-83.01 141.63,-86.69 154.98,-90.09"/>
<polygon fill="#63b8ff" stroke="#63b8ff" points="153.87,-93.43 164.43,-92.5 155.6,-86.64 153.87,-93.43"/>
</a>
</g>
</g>
<!-- Node4 -->
<g id="Node000004" class="node">
<title>Node4</title>
<g id="a_Node000004"><a xlink:href="class_date.html#af6f6b8a65ffabad43ac3994bc58634e0" target="_top" xlink:title="Gets the current date.">
<polygon fill="white" stroke="#666666" points="265.62,-75.3 149.88,-75.3 149.88,-55.3 265.62,-55.3 265.62,-75.3"/>
<text text-anchor="middle" x="207.75" y="-61.8" font-family="Helvetica,sans-Serif" font-size="10.00">Date::get_current_date</text>
</a>
</g>
</g>
<!-- Node1&#45;&gt;Node4 -->
<g id="edge3_Node000001_Node000004" class="edge">
<title>Node1&#45;&gt;Node4</title>
<g id="a_edge3_Node000001_Node000004"><a xlink:title=" ">
<path fill="none" stroke="#63b8ff" d="M113.66,-65.3C121.63,-65.3 129.9,-65.3 138.08,-65.3"/>
<polygon fill="#63b8ff" stroke="#63b8ff" points="138.02,-68.8 148.02,-65.3 138.02,-61.8 138.02,-68.8"/>
</a>
</g>
</g>
<!-- Node5 -->
<g id="Node000005" class="node">
<title>Node5</title>
<g id="a_Node000005"><a xlink:href="class_time.html#ae9b71bc06b2c5a28a96e46e7f1d0a239" target="_top" xlink:title="Gets the current time.">
<polygon fill="white" stroke="#666666" points="266,-37.3 149.5,-37.3 149.5,-17.3 266,-17.3 266,-37.3"/>
<text text-anchor="middle" x="207.75" y="-23.8" font-family="Helvetica,sans-Serif" font-size="10.00">Time::get_current_time</text>
</a>
</g>
</g>
<!-- Node1&#45;&gt;Node5 -->
<g id="edge5_Node000001_Node000005" class="edge">
<title>Node1&#45;&gt;Node5</title>
<g id="a_edge5_Node000001_Node000005"><a xlink:title=" ">
<path fill="none" stroke="#63b8ff" d="M113.66,-51.04C127.2,-47.59 141.63,-43.91 154.98,-40.5"/>
<polygon fill="#63b8ff" stroke="#63b8ff" points="155.6,-43.96 164.43,-38.09 153.87,-37.17 155.6,-43.96"/>
</a>
</g>
</g>
<!-- Node6 -->
<g id="Node000006" class="node">
<title>Node6</title>
<g id="a_Node000006"><a xlink:href="class_time.html#a0eedb4e626b8e3fdcaf63519b86ea778" target="_top" xlink:title="Default constructor.">
<polygon fill="white" stroke="#666666" points="367.5,-27.3 302,-27.3 302,-7.3 367.5,-7.3 367.5,-27.3"/>
<text text-anchor="middle" x="334.75" y="-13.8" font-family="Helvetica,sans-Serif" font-size="10.00">Time::Time</text>
</a>
</g>
</g>
<!-- Node1&#45;&gt;Node6 -->
<g id="edge7_Node000001_Node000006" class="edge">
<title>Node1&#45;&gt;Node6</title>
<g id="a_edge7_Node000001_Node000006"><a xlink:title=" ">
<path fill="none" stroke="#63b8ff" d="M76.96,-48.87C94.53,-34.99 121.91,-16.17 149.5,-8.3 196.39,5.08 252.67,-0.64 290.6,-7.47"/>
<polygon fill="#63b8ff" stroke="#63b8ff" points="289.78,-10.88 300.26,-9.32 291.09,-4 289.78,-10.88"/>
</a>
</g>
</g>
<!-- Node4&#45;&gt;Node2 -->
<g id="edge4_Node000004_Node000002" class="edge">
<title>Node4&#45;&gt;Node2</title>
<g id="a_edge4_Node000004_Node000002"><a xlink:title=" ">
<path fill="none" stroke="#63b8ff" d="M265.76,-69.4C274.24,-70.01 282.86,-70.63 290.98,-71.22"/>
<polygon fill="#63b8ff" stroke="#63b8ff" points="290.71,-74.71 300.94,-71.94 291.21,-67.73 290.71,-74.71"/>
</a>
</g>
</g>
<!-- Node5&#45;&gt;Node6 -->
<g id="edge6_Node000005_Node000006" class="edge">
<title>Node5&#45;&gt;Node6</title>
<g id="a_edge6_Node000005_Node000006"><a xlink:title=" ">
<path fill="none" stroke="#63b8ff" d="M266.49,-22.68C274.56,-22.03 282.74,-21.38 290.48,-20.76"/>
<polygon fill="#63b8ff" stroke="#63b8ff" points="290.63,-24.26 300.32,-19.97 290.07,-17.28 290.63,-24.26"/>
</a>
</g>
</g>
</g>
</svg>
</svg>

<style type='text/css'>
<![CDATA[
[data-mouse-over-selected='false'] { opacity: 0.7; }
[data-mouse-over-selected='true']  { opacity: 1.0; }
]]>
</style>
<script type="application/ecmascript"><![CDATA[
document.addEventListener('DOMContentLoaded', (event) => {
  highlightEdges();
  highlightAdjacentNodes();
});
]]></script>
</svg>
