<?xml version="1.0" encoding="UTF-8" standalone="no"?>
<!DOCTYPE svg PUBLIC "-//W3C//DTD SVG 1.1//EN"
 "http://www.w3.org/Graphics/SVG/1.1/DTD/svg11.dtd">
<!-- Generated by graphviz version 12.2.1 (20241206.2353)
 -->
<!-- Title: Database::import_from_stream Pages: 1 -->
<svg width="1178pt" height="520pt"
 viewBox="0.00 0.00 1178.25 520.00" xmlns="http://www.w3.org/2000/svg" xmlns:xlink="http://www.w3.org/1999/xlink">
<g id="graph0" class="graph" transform="scale(1 1) rotate(0) translate(4 516)">
<title>Database::import_from_stream</title>
<!-- Node1 -->
<g id="Node000001" class="node">
<title>Node1</title>
<g id="a_Node000001"><a xlink:title="Imports data from a stream.">
<polygon fill="#999999" stroke="#666666" points="115.75,-370 0,-370 0,-338 115.75,-338 115.75,-370"/>
<text text-anchor="start" x="8" y="-356.5" font-family="Helvetica,sans-Serif" font-size="10.00">Database::import_from</text>
<text text-anchor="middle" x="57.88" y="-344.5" font-family="Helvetica,sans-Serif" font-size="10.00">_stream</text>
</a>
</g>
</g>
<!-- Node2 -->
<g id="Node000002" class="node">
<title>Node2</title>
<g id="a_Node000002"><a xlink:href="class_database.html#a5010b6ed864bd832f96c86e33097e95f" target="_top" xlink:title="Imports children from a CSV file.">
<polygon fill="white" stroke="#666666" points="290.38,-445 158.12,-445 158.12,-413 290.38,-413 290.38,-445"/>
<text text-anchor="start" x="166.12" y="-431.5" font-family="Helvetica,sans-Serif" font-size="10.00">Database::import_Children</text>
<text text-anchor="middle" x="224.25" y="-419.5" font-family="Helvetica,sans-Serif" font-size="10.00">_from_csv_file</text>
</a>
</g>
</g>
<!-- Node1&#45;&gt;Node2 -->
<g id="edge1_Node000001_Node000002" class="edge">
<title>Node1&#45;&gt;Node2</title>
<g id="a_edge1_Node000001_Node000002"><a xlink:title=" ">
<path fill="none" stroke="#63b8ff" d="M86.35,-370.27C104.54,-380.67 129.13,-394.03 151.75,-404 155.12,-405.48 158.61,-406.94 162.15,-408.37"/>
<polygon fill="#63b8ff" stroke="#63b8ff" points="160.85,-411.62 171.44,-411.96 163.38,-405.09 160.85,-411.62"/>
</a>
</g>
</g>
<!-- Node13 -->
<g id="Node000013" class="node">
<title>Node13</title>
<g id="a_Node000013"><a xlink:href="class_database.html#a8ba6656ed991b406bb7b3ecb716726af" target="_top" xlink:title="Imports employees from a CSV file.">
<polygon fill="white" stroke="#666666" points="296.75,-395 151.75,-395 151.75,-363 296.75,-363 296.75,-395"/>
<text text-anchor="start" x="159.75" y="-381.5" font-family="Helvetica,sans-Serif" font-size="10.00">Database::import_Employees</text>
<text text-anchor="middle" x="224.25" y="-369.5" font-family="Helvetica,sans-Serif" font-size="10.00">_from_csv_file</text>
</a>
</g>
</g>
<!-- Node1&#45;&gt;Node13 -->
<g id="edge14_Node000001_Node000013" class="edge">
<title>Node1&#45;&gt;Node13</title>
<g id="a_edge14_Node000001_Node000013"><a xlink:title=" ">
<path fill="none" stroke="#63b8ff" d="M115.9,-362.67C123.75,-363.87 131.92,-365.11 140.12,-366.36"/>
<polygon fill="#63b8ff" stroke="#63b8ff" points="139.35,-369.78 149.77,-367.82 140.41,-362.86 139.35,-369.78"/>
</a>
</g>
</g>
<!-- Node16 -->
<g id="Node000016" class="node">
<title>Node16</title>
<g id="a_Node000016"><a xlink:href="class_database.html#a5234a41c55542e88486c147ca399f386" target="_top" xlink:title="Imports lessons from a CSV file.">
<polygon fill="white" stroke="#666666" points="290.75,-244 157.75,-244 157.75,-212 290.75,-212 290.75,-244"/>
<text text-anchor="start" x="165.75" y="-230.5" font-family="Helvetica,sans-Serif" font-size="10.00">Database::import_Lessons</text>
<text text-anchor="middle" x="224.25" y="-218.5" font-family="Helvetica,sans-Serif" font-size="10.00">_from_csv_file</text>
</a>
</g>
</g>
<!-- Node1&#45;&gt;Node16 -->
<g id="edge19_Node000001_Node000016" class="edge">
<title>Node1&#45;&gt;Node16</title>
<g id="a_edge19_Node000001_Node000016"><a xlink:title=" ">
<path fill="none" stroke="#63b8ff" d="M80.36,-337.53C109.04,-315.55 159.98,-276.5 192.65,-251.45"/>
<polygon fill="#63b8ff" stroke="#63b8ff" points="194.75,-254.26 200.55,-245.4 190.49,-248.7 194.75,-254.26"/>
</a>
</g>
</g>
<!-- Node33 -->
<g id="Node000033" class="node">
<title>Node33</title>
<g id="a_Node000033"><a xlink:href="class_database.html#a0036708a325b181645735f8fc0c2beaa" target="_top" xlink:title="Imports parents from a CSV file.">
<polygon fill="white" stroke="#666666" points="289.25,-345 159.25,-345 159.25,-313 289.25,-313 289.25,-345"/>
<text text-anchor="start" x="167.25" y="-331.5" font-family="Helvetica,sans-Serif" font-size="10.00">Database::import_Parents</text>
<text text-anchor="middle" x="224.25" y="-319.5" font-family="Helvetica,sans-Serif" font-size="10.00">_from_csv_file</text>
</a>
</g>
</g>
<!-- Node1&#45;&gt;Node33 -->
<g id="edge45_Node000001_Node000033" class="edge">
<title>Node1&#45;&gt;Node33</title>
<g id="a_edge45_Node000001_Node000033"><a xlink:title=" ">
<path fill="none" stroke="#63b8ff" d="M115.9,-345.33C126.23,-343.76 137.14,-342.1 147.89,-340.46"/>
<polygon fill="#63b8ff" stroke="#63b8ff" points="148.15,-343.96 157.51,-339 147.1,-337.04 148.15,-343.96"/>
</a>
</g>
</g>
<!-- Node3 -->
<g id="Node000003" class="node">
<title>Node3</title>
<g id="a_Node000003"><a xlink:href="class_c_s_v___parser.html#ac72a5ce5b687b3d05f2d7e73d3ba42e4" target="_top" xlink:title="Parses a child from a CSV line.">
<polygon fill="white" stroke="#666666" points="469.88,-439 343.62,-439 343.62,-419 469.88,-419 469.88,-439"/>
<text text-anchor="middle" x="406.75" y="-425.5" font-family="Helvetica,sans-Serif" font-size="10.00">CSV_Parser::parse_child</text>
</a>
</g>
</g>
<!-- Node2&#45;&gt;Node3 -->
<g id="edge2_Node000002_Node000003" class="edge">
<title>Node2&#45;&gt;Node3</title>
<g id="a_edge2_Node000002_Node000003"><a xlink:title=" ">
<path fill="none" stroke="#63b8ff" d="M290.67,-429C304.07,-429 318.26,-429 331.93,-429"/>
<polygon fill="#63b8ff" stroke="#63b8ff" points="331.75,-432.5 341.75,-429 331.75,-425.5 331.75,-432.5"/>
</a>
</g>
</g>
<!-- Node4 -->
<g id="Node000004" class="node">
<title>Node4</title>
<g id="a_Node000004"><a xlink:href="class_database.html#a19e6fd7e9b36ab995675732c6ef67c8c" target="_top" xlink:title="Adds a child to the database.">
<polygon fill="white" stroke="#666666" points="636.62,-433 531.38,-433 531.38,-413 636.62,-413 636.62,-433"/>
<text text-anchor="middle" x="584" y="-419.5" font-family="Helvetica,sans-Serif" font-size="10.00">Database::add_child</text>
</a>
</g>
</g>
<!-- Node3&#45;&gt;Node4 -->
<g id="edge3_Node000003_Node000004" class="edge">
<title>Node3&#45;&gt;Node4</title>
<g id="a_edge3_Node000003_Node000004"><a xlink:title=" ">
<path fill="none" stroke="#63b8ff" d="M470.03,-426.87C486.1,-426.32 503.42,-425.72 519.55,-425.17"/>
<polygon fill="#63b8ff" stroke="#63b8ff" points="519.66,-428.67 529.53,-424.83 519.42,-421.67 519.66,-428.67"/>
</a>
</g>
</g>
<!-- Node8 -->
<g id="Node000008" class="node">
<title>Node8</title>
<g id="a_Node000008"><a xlink:href="class_database.html#ad82c8f66e655d641f118c6162139a30b" target="_top" xlink:title="Gets a parent by name and surname.">
<polygon fill="white" stroke="#666666" points="821.75,-512 712,-512 712,-480 821.75,-480 821.75,-512"/>
<text text-anchor="start" x="720" y="-498.5" font-family="Helvetica,sans-Serif" font-size="10.00">Database::get_parent</text>
<text text-anchor="middle" x="766.88" y="-486.5" font-family="Helvetica,sans-Serif" font-size="10.00">_by_name_surname</text>
</a>
</g>
</g>
<!-- Node3&#45;&gt;Node8 -->
<g id="edge7_Node000003_Node000008" class="edge">
<title>Node3&#45;&gt;Node8</title>
<g id="a_edge7_Node000003_Node000008"><a xlink:title=" ">
<path fill="none" stroke="#63b8ff" d="M463.71,-439.47C527.9,-451.48 633.02,-471.14 700.81,-483.83"/>
<polygon fill="#63b8ff" stroke="#63b8ff" points="699.81,-487.2 710.29,-485.6 701.1,-480.32 699.81,-487.2"/>
</a>
</g>
</g>
<!-- Node5 -->
<g id="Node000005" class="node">
<title>Node5</title>
<g id="a_Node000005"><a xlink:href="class_child.html#a54d980b94b52ef8ad5c52eb4dfc265c5" target="_top" xlink:title="Gets the birth date of the child.">
<polygon fill="white" stroke="#666666" points="819.88,-462 713.88,-462 713.88,-442 819.88,-442 819.88,-462"/>
<text text-anchor="middle" x="766.88" y="-448.5" font-family="Helvetica,sans-Serif" font-size="10.00">Child::get_birth_date</text>
</a>
</g>
</g>
<!-- Node4&#45;&gt;Node5 -->
<g id="edge4_Node000004_Node000005" class="edge">
<title>Node4&#45;&gt;Node5</title>
<g id="a_edge4_Node000004_Node000005"><a xlink:title=" ">
<path fill="none" stroke="#63b8ff" d="M636.83,-431.31C657.18,-434.57 680.75,-438.35 702.13,-441.78"/>
<polygon fill="#63b8ff" stroke="#63b8ff" points="701.49,-445.22 711.91,-443.35 702.59,-438.31 701.49,-445.22"/>
</a>
</g>
</g>
<!-- Node6 -->
<g id="Node000006" class="node">
<title>Node6</title>
<g id="a_Node000006"><a xlink:href="class_person.html#a6b1fec00d8d1f5af1a2977dc3f5f9eb8" target="_top" xlink:title="Gets the first name of the person.">
<polygon fill="white" stroke="#666666" points="814.62,-424 719.12,-424 719.12,-404 814.62,-404 814.62,-424"/>
<text text-anchor="middle" x="766.88" y="-410.5" font-family="Helvetica,sans-Serif" font-size="10.00">Person::get_name</text>
</a>
</g>
</g>
<!-- Node4&#45;&gt;Node6 -->
<g id="edge5_Node000004_Node000006" class="edge">
<title>Node4&#45;&gt;Node6</title>
<g id="a_edge5_Node000004_Node000006"><a xlink:title=" ">
<path fill="none" stroke="#63b8ff" d="M636.83,-420.42C658.89,-419.32 684.72,-418.04 707.45,-416.91"/>
<polygon fill="#63b8ff" stroke="#63b8ff" points="707.35,-420.42 717.16,-416.42 707,-413.43 707.35,-420.42"/>
</a>
</g>
</g>
<!-- Node7 -->
<g id="Node000007" class="node">
<title>Node7</title>
<g id="a_Node000007"><a xlink:href="class_person.html#a7b3c8db44a49c4ba8c4838e19a235613" target="_top" xlink:title="Gets the last name of the person.">
<polygon fill="white" stroke="#666666" points="821.38,-386 712.38,-386 712.38,-366 821.38,-366 821.38,-386"/>
<text text-anchor="middle" x="766.88" y="-372.5" font-family="Helvetica,sans-Serif" font-size="10.00">Person::get_surname</text>
</a>
</g>
</g>
<!-- Node4&#45;&gt;Node7 -->
<g id="edge6_Node000004_Node000007" class="edge">
<title>Node4&#45;&gt;Node7</title>
<g id="a_edge6_Node000004_Node000007"><a xlink:title=" ">
<path fill="none" stroke="#63b8ff" d="M621.84,-412.62C641.26,-407.22 665.51,-400.6 687.25,-395 694.83,-393.05 702.84,-391.04 710.72,-389.1"/>
<polygon fill="#63b8ff" stroke="#63b8ff" points="711.38,-392.55 720.27,-386.78 709.72,-385.75 711.38,-392.55"/>
</a>
</g>
</g>
<!-- Node9 -->
<g id="Node000009" class="node">
<title>Node9</title>
<g id="a_Node000009"><a xlink:href="class_database.html#a427341d23d0431b1e75b2c82c412f00a" target="_top" xlink:title="Filters parents by name.">
<polygon fill="white" stroke="#666666" points="1005,-322 890,-322 890,-290 1005,-290 1005,-322"/>
<text text-anchor="start" x="898" y="-308.5" font-family="Helvetica,sans-Serif" font-size="10.00">Database::filter_parent</text>
<text text-anchor="middle" x="947.5" y="-296.5" font-family="Helvetica,sans-Serif" font-size="10.00">_by_name</text>
</a>
</g>
</g>
<!-- Node8&#45;&gt;Node9 -->
<g id="edge8_Node000008_Node000009" class="edge">
<title>Node8&#45;&gt;Node9</title>
<g id="a_edge8_Node000008_Node000009"><a xlink:title=" ">
<path fill="none" stroke="#63b8ff" d="M821.98,-486.81C831.12,-483.16 839.81,-478.08 846.5,-471 890.64,-424.31 839.89,-379.09 882.5,-331 882.96,-330.48 883.43,-329.98 883.91,-329.48"/>
<polygon fill="#63b8ff" stroke="#63b8ff" points="885.91,-332.37 891.38,-323.3 881.45,-326.97 885.91,-332.37"/>
</a>
</g>
</g>
<!-- Node12 -->
<g id="Node000012" class="node">
<title>Node12</title>
<g id="a_Node000012"><a xlink:href="class_database.html#a09a0e8fe44e256daff05eeba15c22153" target="_top" xlink:title="Filters parents by surname.">
<polygon fill="white" stroke="#666666" points="1005,-372 890,-372 890,-340 1005,-340 1005,-372"/>
<text text-anchor="start" x="898" y="-358.5" font-family="Helvetica,sans-Serif" font-size="10.00">Database::filter_parent</text>
<text text-anchor="middle" x="947.5" y="-346.5" font-family="Helvetica,sans-Serif" font-size="10.00">_by_surname</text>
</a>
</g>
</g>
<!-- Node8&#45;&gt;Node12 -->
<g id="edge11_Node000008_Node000012" class="edge">
<title>Node8&#45;&gt;Node12</title>
<g id="a_edge11_Node000008_Node000012"><a xlink:title=" ">
<path fill="none" stroke="#63b8ff" d="M822.11,-483.09C830.64,-479.86 839.08,-475.88 846.5,-471 882.22,-447.52 912.68,-407.88 930.3,-381.82"/>
<polygon fill="#63b8ff" stroke="#63b8ff" points="933.2,-383.77 935.78,-373.5 927.36,-379.92 933.2,-383.77"/>
</a>
</g>
</g>
<!-- Node10 -->
<g id="Node000010" class="node">
<title>Node10</title>
<g id="a_Node000010"><a xlink:href="_helper___functions_8h.html#a0d3fbaad2936b89eb0d594cba2929800" target="_top" xlink:title="Filters a vector of pointers based on a predicate.">
<polygon fill="white" stroke="#666666" points="1126.75,-225 1092,-225 1092,-205 1126.75,-205 1126.75,-225"/>
<text text-anchor="middle" x="1109.38" y="-211.5" font-family="Helvetica,sans-Serif" font-size="10.00">filter</text>
</a>
</g>
</g>
<!-- Node9&#45;&gt;Node10 -->
<g id="edge9_Node000009_Node000010" class="edge">
<title>Node9&#45;&gt;Node10</title>
<g id="a_edge9_Node000009_Node000010"><a xlink:title=" ">
<path fill="none" stroke="#63b8ff" d="M994.53,-289.51C1000.67,-286.88 1006.81,-284.02 1012.5,-281 1039.26,-266.81 1067.54,-246.61 1086.4,-232.31"/>
<polygon fill="#63b8ff" stroke="#63b8ff" points="1088.35,-235.22 1094.14,-226.35 1084.08,-229.67 1088.35,-235.22"/>
</a>
</g>
</g>
<!-- Node11 -->
<g id="Node000011" class="node">
<title>Node11</title>
<g id="a_Node000011"><a xlink:href="_helper___functions_8h.html#ab487a2e8523090e129c7f67ed349c9a1" target="_top" xlink:title="Filters a multimap by its keys based on a predicate.">
<polygon fill="white" stroke="#666666" points="1170.25,-184 1048.5,-184 1048.5,-164 1170.25,-164 1170.25,-184"/>
<text text-anchor="middle" x="1109.38" y="-170.5" font-family="Helvetica,sans-Serif" font-size="10.00">filter_multimap_by_keys</text>
</a>
</g>
</g>
<!-- Node9&#45;&gt;Node11 -->
<g id="edge10_Node000009_Node000011" class="edge">
<title>Node9&#45;&gt;Node11</title>
<g id="a_edge10_Node000009_Node000011"><a xlink:title=" ">
<path fill="none" stroke="#63b8ff" d="M1001.31,-289.55C1005.36,-287.08 1009.16,-284.24 1012.5,-281 1041.92,-252.4 1018.8,-224.3 1048.5,-196 1050.87,-193.74 1053.49,-191.72 1056.27,-189.89"/>
<polygon fill="#63b8ff" stroke="#63b8ff" points="1057.79,-193.05 1064.88,-185.18 1054.43,-186.91 1057.79,-193.05"/>
</a>
</g>
</g>
<!-- Node12&#45;&gt;Node10 -->
<g id="edge12_Node000012_Node000010" class="edge">
<title>Node12&#45;&gt;Node10</title>
<g id="a_edge12_Node000012_Node000010"><a xlink:title=" ">
<path fill="none" stroke="#63b8ff" d="M998.07,-339.62C1003.14,-337.08 1008.05,-334.22 1012.5,-331 1049.18,-304.47 1080.12,-260.72 1096.29,-235.21"/>
<polygon fill="#63b8ff" stroke="#63b8ff" points="1099.22,-237.13 1101.5,-226.78 1093.27,-233.45 1099.22,-237.13"/>
</a>
</g>
</g>
<!-- Node12&#45;&gt;Node11 -->
<g id="edge13_Node000012_Node000011" class="edge">
<title>Node12&#45;&gt;Node11</title>
<g id="a_edge13_Node000012_Node000011"><a xlink:title=" ">
<path fill="none" stroke="#63b8ff" d="M1002.42,-339.64C1006.13,-337.15 1009.56,-334.29 1012.5,-331 1053.89,-284.71 1006.65,-241.87 1048.5,-196 1050.43,-193.89 1052.57,-191.98 1054.88,-190.25"/>
<polygon fill="#63b8ff" stroke="#63b8ff" points="1056.38,-193.43 1063.11,-185.24 1052.74,-187.45 1056.38,-193.43"/>
</a>
</g>
</g>
<!-- Node14 -->
<g id="Node000014" class="node">
<title>Node14</title>
<g id="a_Node000014"><a xlink:href="class_c_s_v___parser.html#aec118453b336d4c0cae88b0be94afa70" target="_top" xlink:title="Parses an employee from a CSV line.">
<polygon fill="white" stroke="#666666" points="480.75,-389 332.75,-389 332.75,-369 480.75,-369 480.75,-389"/>
<text text-anchor="middle" x="406.75" y="-375.5" font-family="Helvetica,sans-Serif" font-size="10.00">CSV_Parser::parse_employee</text>
</a>
</g>
</g>
<!-- Node13&#45;&gt;Node14 -->
<g id="edge15_Node000013_Node000014" class="edge">
<title>Node13&#45;&gt;Node14</title>
<g id="a_edge15_Node000013_Node000014"><a xlink:title=" ">
<path fill="none" stroke="#63b8ff" d="M297.11,-379C304.99,-379 313.07,-379 321.09,-379"/>
<polygon fill="#63b8ff" stroke="#63b8ff" points="320.85,-382.5 330.85,-379 320.85,-375.5 320.85,-382.5"/>
</a>
</g>
</g>
<!-- Node15 -->
<g id="Node000015" class="node">
<title>Node15</title>
<g id="a_Node000015"><a xlink:href="class_database.html#a7694df2f0f4e7d75e75ef409dcc40898" target="_top" xlink:title="Adds an employee to the database.">
<polygon fill="white" stroke="#666666" points="647.5,-389 520.5,-389 520.5,-369 647.5,-369 647.5,-389"/>
<text text-anchor="middle" x="584" y="-375.5" font-family="Helvetica,sans-Serif" font-size="10.00">Database::add_employee</text>
</a>
</g>
</g>
<!-- Node14&#45;&gt;Node15 -->
<g id="edge16_Node000014_Node000015" class="edge">
<title>Node14&#45;&gt;Node15</title>
<g id="a_edge16_Node000014_Node000015"><a xlink:title=" ">
<path fill="none" stroke="#63b8ff" d="M481.06,-379C490.16,-379 499.47,-379 508.59,-379"/>
<polygon fill="#63b8ff" stroke="#63b8ff" points="508.49,-382.5 518.49,-379 508.49,-375.5 508.49,-382.5"/>
</a>
</g>
</g>
<!-- Node15&#45;&gt;Node6 -->
<g id="edge17_Node000015_Node000006" class="edge">
<title>Node15&#45;&gt;Node6</title>
<g id="a_edge17_Node000015_Node000006"><a xlink:title=" ">
<path fill="none" stroke="#63b8ff" d="M638.78,-389.41C660.42,-393.59 685.42,-398.43 707.5,-402.7"/>
<polygon fill="#63b8ff" stroke="#63b8ff" points="706.78,-406.13 717.26,-404.59 708.11,-399.26 706.78,-406.13"/>
</a>
</g>
</g>
<!-- Node15&#45;&gt;Node7 -->
<g id="edge18_Node000015_Node000007" class="edge">
<title>Node15&#45;&gt;Node7</title>
<g id="a_edge18_Node000015_Node000007"><a xlink:title=" ">
<path fill="none" stroke="#63b8ff" d="M647.75,-377.96C664.91,-377.67 683.54,-377.37 700.83,-377.08"/>
<polygon fill="#63b8ff" stroke="#63b8ff" points="700.51,-380.58 710.45,-376.92 700.39,-373.59 700.51,-380.58"/>
</a>
</g>
</g>
<!-- Node17 -->
<g id="Node000017" class="node">
<title>Node17</title>
<g id="a_Node000017"><a xlink:href="class_c_s_v___parser.html#abf9be7d0476752028afd45de9be64877" target="_top" xlink:title="Parses a lesson from a CSV line.">
<polygon fill="white" stroke="#666666" points="474,-181 339.5,-181 339.5,-161 474,-161 474,-181"/>
<text text-anchor="middle" x="406.75" y="-167.5" font-family="Helvetica,sans-Serif" font-size="10.00">CSV_Parser::parse_lesson</text>
</a>
</g>
</g>
<!-- Node16&#45;&gt;Node17 -->
<g id="edge20_Node000016_Node000017" class="edge">
<title>Node16&#45;&gt;Node17</title>
<g id="a_edge20_Node000016_Node000017"><a xlink:title=" ">
<path fill="none" stroke="#63b8ff" d="M277.46,-211.51C304.21,-203.06 336.43,-192.89 361.88,-184.85"/>
<polygon fill="#63b8ff" stroke="#63b8ff" points="362.78,-188.24 371.26,-181.89 360.67,-181.57 362.78,-188.24"/>
</a>
</g>
</g>
<!-- Node18 -->
<g id="Node000018" class="node">
<title>Node18</title>
<g id="a_Node000018"><a xlink:href="class_c_s_v___parser.html#a2645253cdd45f0fe2df1f4883ab64b36" target="_top" xlink:title="Parses lesson&#39;s attendance from a CSV line.">
<polygon fill="white" stroke="#666666" points="651.25,-221 516.75,-221 516.75,-189 651.25,-189 651.25,-221"/>
<text text-anchor="start" x="524.75" y="-207.5" font-family="Helvetica,sans-Serif" font-size="10.00">CSV_Parser::parse_lesson</text>
<text text-anchor="middle" x="584" y="-195.5" font-family="Helvetica,sans-Serif" font-size="10.00">_attendance</text>
</a>
</g>
</g>
<!-- Node17&#45;&gt;Node18 -->
<g id="edge21_Node000017_Node000018" class="edge">
<title>Node17&#45;&gt;Node18</title>
<g id="a_edge21_Node000017_Node000018"><a xlink:title=" ">
<path fill="none" stroke="#63b8ff" d="M461.76,-181.48C475.55,-184.15 490.64,-187.08 505.35,-189.94"/>
<polygon fill="#63b8ff" stroke="#63b8ff" points="504.53,-193.34 515.01,-191.81 505.86,-186.47 504.53,-193.34"/>
</a>
</g>
</g>
<!-- Node25 -->
<g id="Node000025" class="node">
<title>Node25</title>
<g id="a_Node000025"><a xlink:href="class_c_s_v___parser.html#acc479fe8705c80c065e4d725a02c852d" target="_top" xlink:title="Parses lesson&#39;s children from a CSV line.">
<polygon fill="white" stroke="#666666" points="651.25,-162 516.75,-162 516.75,-130 651.25,-130 651.25,-162"/>
<text text-anchor="start" x="524.75" y="-148.5" font-family="Helvetica,sans-Serif" font-size="10.00">CSV_Parser::parse_lesson</text>
<text text-anchor="middle" x="584" y="-136.5" font-family="Helvetica,sans-Serif" font-size="10.00">_children</text>
</a>
</g>
</g>
<!-- Node17&#45;&gt;Node25 -->
<g id="edge32_Node000017_Node000025" class="edge">
<title>Node17&#45;&gt;Node25</title>
<g id="a_edge32_Node000017_Node000025"><a xlink:title=" ">
<path fill="none" stroke="#63b8ff" d="M474,-161.55C484.18,-160.1 494.77,-158.59 505.17,-157.1"/>
<polygon fill="#63b8ff" stroke="#63b8ff" points="505.46,-160.6 514.86,-155.72 504.47,-153.67 505.46,-160.6"/>
</a>
</g>
</g>
<!-- Node28 -->
<g id="Node000028" class="node">
<title>Node28</title>
<g id="a_Node000028"><a xlink:href="class_c_s_v___parser.html#a4732941a7b14e0908b4c94286d957ede" target="_top" xlink:title="Parses lesson&#39;s employees from a CSV line.">
<polygon fill="white" stroke="#666666" points="651.25,-76 516.75,-76 516.75,-44 651.25,-44 651.25,-76"/>
<text text-anchor="start" x="524.75" y="-62.5" font-family="Helvetica,sans-Serif" font-size="10.00">CSV_Parser::parse_lesson</text>
<text text-anchor="middle" x="584" y="-50.5" font-family="Helvetica,sans-Serif" font-size="10.00">_employees</text>
</a>
</g>
</g>
<!-- Node17&#45;&gt;Node28 -->
<g id="edge36_Node000017_Node000028" class="edge">
<title>Node17&#45;&gt;Node28</title>
<g id="a_edge36_Node000017_Node000028"><a xlink:title=" ">
<path fill="none" stroke="#63b8ff" d="M424.24,-160.56C452.32,-142.77 510.02,-106.22 547.58,-82.43"/>
<polygon fill="#63b8ff" stroke="#63b8ff" points="549.28,-85.5 555.86,-77.19 545.54,-79.59 549.28,-85.5"/>
</a>
</g>
</g>
<!-- Node19 -->
<g id="Node000019" class="node">
<title>Node19</title>
<g id="a_Node000019"><a xlink:href="class_database.html#a12af120f4bd82e7c70ffd191f13f0011" target="_top" xlink:title="Adds a lesson to the database.">
<polygon fill="white" stroke="#666666" points="823.62,-272 710.12,-272 710.12,-252 823.62,-252 823.62,-272"/>
<text text-anchor="middle" x="766.88" y="-258.5" font-family="Helvetica,sans-Serif" font-size="10.00">Database::add_lesson</text>
</a>
</g>
</g>
<!-- Node18&#45;&gt;Node19 -->
<g id="edge22_Node000018_Node000019" class="edge">
<title>Node18&#45;&gt;Node19</title>
<g id="a_edge22_Node000018_Node000019"><a xlink:title=" ">
<path fill="none" stroke="#63b8ff" d="M625.91,-221.47C644.46,-228.61 666.78,-236.75 687.25,-243 693.86,-245.02 700.84,-246.96 707.79,-248.79"/>
<polygon fill="#63b8ff" stroke="#63b8ff" points="706.63,-252.1 717.18,-251.18 708.35,-245.32 706.63,-252.1"/>
</a>
</g>
</g>
<!-- Node21 -->
<g id="Node000021" class="node">
<title>Node21</title>
<g id="a_Node000021"><a xlink:href="class_database.html#a60ef6f17c1f6e1da26cf7fafd568164f" target="_top" xlink:title="Gets a child by name and surname.">
<polygon fill="white" stroke="#666666" points="818.75,-196 715,-196 715,-164 818.75,-164 818.75,-196"/>
<text text-anchor="start" x="723" y="-182.5" font-family="Helvetica,sans-Serif" font-size="10.00">Database::get_child</text>
<text text-anchor="middle" x="766.88" y="-170.5" font-family="Helvetica,sans-Serif" font-size="10.00">_by_name_surname</text>
</a>
</g>
</g>
<!-- Node18&#45;&gt;Node21 -->
<g id="edge24_Node000018_Node000021" class="edge">
<title>Node18&#45;&gt;Node21</title>
<g id="a_edge24_Node000018_Node000021"><a xlink:title=" ">
<path fill="none" stroke="#63b8ff" d="M651.58,-195.8C668.52,-193.46 686.67,-190.95 703.4,-188.64"/>
<polygon fill="#63b8ff" stroke="#63b8ff" points="703.79,-192.11 713.22,-187.28 702.83,-185.18 703.79,-192.11"/>
</a>
</g>
</g>
<!-- Node24 -->
<g id="Node000024" class="node">
<title>Node24</title>
<g id="a_Node000024"><a xlink:href="class_lesson.html#ac4b68f1c8fbcbc5ec3404207578d399c" target="_top" xlink:title="Sets the attendance of children for a specific date.">
<polygon fill="white" stroke="#666666" points="827,-234 706.75,-234 706.75,-214 827,-214 827,-234"/>
<text text-anchor="middle" x="766.88" y="-220.5" font-family="Helvetica,sans-Serif" font-size="10.00">Lesson::set_attendance</text>
</a>
</g>
</g>
<!-- Node18&#45;&gt;Node24 -->
<g id="edge31_Node000018_Node000024" class="edge">
<title>Node18&#45;&gt;Node24</title>
<g id="a_edge31_Node000018_Node000024"><a xlink:title=" ">
<path fill="none" stroke="#63b8ff" d="M651.58,-211.99C665.73,-213.48 680.71,-215.05 695.02,-216.56"/>
<polygon fill="#63b8ff" stroke="#63b8ff" points="694.49,-220.02 704.8,-217.58 695.22,-213.06 694.49,-220.02"/>
</a>
</g>
</g>
<!-- Node20 -->
<g id="Node000020" class="node">
<title>Node20</title>
<g id="a_Node000020"><a xlink:href="class_lesson.html#a25d5ac20ba2894748d604e75a00d756a" target="_top" xlink:title="Gets the schedule of the lesson.">
<polygon fill="white" stroke="#666666" points="1003.12,-272 891.88,-272 891.88,-252 1003.12,-252 1003.12,-272"/>
<text text-anchor="middle" x="947.5" y="-258.5" font-family="Helvetica,sans-Serif" font-size="10.00">Lesson::get_schedule</text>
</a>
</g>
</g>
<!-- Node19&#45;&gt;Node20 -->
<g id="edge23_Node000019_Node000020" class="edge">
<title>Node19&#45;&gt;Node20</title>
<g id="a_edge23_Node000019_Node000020"><a xlink:title=" ">
<path fill="none" stroke="#63b8ff" d="M823.9,-262C841.78,-262 861.73,-262 880.27,-262"/>
<polygon fill="#63b8ff" stroke="#63b8ff" points="880.08,-265.5 890.08,-262 880.08,-258.5 880.08,-265.5"/>
</a>
</g>
</g>
<!-- Node22 -->
<g id="Node000022" class="node">
<title>Node22</title>
<g id="a_Node000022"><a xlink:href="class_database.html#a448f32cb2e58118d83634666431562c2" target="_top" xlink:title="Filters children by name.">
<polygon fill="white" stroke="#666666" points="1001.62,-184 893.38,-184 893.38,-152 1001.62,-152 1001.62,-184"/>
<text text-anchor="start" x="901.38" y="-170.5" font-family="Helvetica,sans-Serif" font-size="10.00">Database::filter_child</text>
<text text-anchor="middle" x="947.5" y="-158.5" font-family="Helvetica,sans-Serif" font-size="10.00">_by_name</text>
</a>
</g>
</g>
<!-- Node21&#45;&gt;Node22 -->
<g id="edge25_Node000021_Node000022" class="edge">
<title>Node21&#45;&gt;Node22</title>
<g id="a_edge25_Node000021_Node000022"><a xlink:title=" ">
<path fill="none" stroke="#63b8ff" d="M819.06,-176.56C838.63,-175.25 861.21,-173.73 881.88,-172.34"/>
<polygon fill="#63b8ff" stroke="#63b8ff" points="881.88,-175.85 891.62,-171.69 881.41,-168.87 881.88,-175.85"/>
</a>
</g>
</g>
<!-- Node23 -->
<g id="Node000023" class="node">
<title>Node23</title>
<g id="a_Node000023"><a xlink:href="class_database.html#a48cdf44f55b29d6141c5e00b88fa4d22" target="_top" xlink:title="Filters children by surname.">
<polygon fill="white" stroke="#666666" points="1001.62,-234 893.38,-234 893.38,-202 1001.62,-202 1001.62,-234"/>
<text text-anchor="start" x="901.38" y="-220.5" font-family="Helvetica,sans-Serif" font-size="10.00">Database::filter_child</text>
<text text-anchor="middle" x="947.5" y="-208.5" font-family="Helvetica,sans-Serif" font-size="10.00">_by_surname</text>
</a>
</g>
</g>
<!-- Node21&#45;&gt;Node23 -->
<g id="edge28_Node000021_Node000023" class="edge">
<title>Node21&#45;&gt;Node23</title>
<g id="a_edge28_Node000021_Node000023"><a xlink:title=" ">
<path fill="none" stroke="#63b8ff" d="M819.06,-190.89C838.63,-195.05 861.21,-199.86 881.88,-204.25"/>
<polygon fill="#63b8ff" stroke="#63b8ff" points="881.14,-207.67 891.65,-206.33 882.6,-200.83 881.14,-207.67"/>
</a>
</g>
</g>
<!-- Node22&#45;&gt;Node10 -->
<g id="edge26_Node000022_Node000010" class="edge">
<title>Node22&#45;&gt;Node10</title>
<g id="a_edge26_Node000022_Node000010"><a xlink:title=" ">
<path fill="none" stroke="#63b8ff" d="M1001.74,-183.65C1028.1,-191.4 1058.84,-200.44 1080.53,-206.81"/>
<polygon fill="#63b8ff" stroke="#63b8ff" points="1079.53,-210.17 1090.11,-209.63 1081.5,-203.45 1079.53,-210.17"/>
</a>
</g>
</g>
<!-- Node22&#45;&gt;Node11 -->
<g id="edge27_Node000022_Node000011" class="edge">
<title>Node22&#45;&gt;Node11</title>
<g id="a_edge27_Node000022_Node000011"><a xlink:title=" ">
<path fill="none" stroke="#63b8ff" d="M1001.74,-170C1013.03,-170.42 1025.12,-170.88 1036.96,-171.32"/>
<polygon fill="#63b8ff" stroke="#63b8ff" points="1036.56,-174.81 1046.68,-171.68 1036.82,-167.81 1036.56,-174.81"/>
</a>
</g>
</g>
<!-- Node23&#45;&gt;Node10 -->
<g id="edge29_Node000023_Node000010" class="edge">
<title>Node23&#45;&gt;Node10</title>
<g id="a_edge29_Node000023_Node000010"><a xlink:title=" ">
<path fill="none" stroke="#63b8ff" d="M1001.74,-217C1027.98,-216.51 1058.56,-215.93 1080.23,-215.53"/>
<polygon fill="#63b8ff" stroke="#63b8ff" points="1080.11,-219.03 1090.05,-215.34 1079.98,-212.03 1080.11,-219.03"/>
</a>
</g>
</g>
<!-- Node23&#45;&gt;Node11 -->
<g id="edge30_Node000023_Node000011" class="edge">
<title>Node23&#45;&gt;Node11</title>
<g id="a_edge30_Node000023_Node000011"><a xlink:title=" ">
<path fill="none" stroke="#63b8ff" d="M1001.74,-203.35C1020.39,-198.21 1041.24,-192.48 1059.52,-187.45"/>
<polygon fill="#63b8ff" stroke="#63b8ff" points="1060.35,-190.85 1069.07,-184.82 1058.5,-184.1 1060.35,-190.85"/>
</a>
</g>
</g>
<!-- Node25&#45;&gt;Node21 -->
<g id="edge34_Node000025_Node000021" class="edge">
<title>Node25&#45;&gt;Node21</title>
<g id="a_edge34_Node000025_Node000021"><a xlink:title=" ">
<path fill="none" stroke="#63b8ff" d="M651.58,-158.52C668.68,-161.73 687.02,-165.18 703.88,-168.35"/>
<polygon fill="#63b8ff" stroke="#63b8ff" points="702.76,-171.7 713.23,-170.1 704.05,-164.82 702.76,-171.7"/>
</a>
</g>
</g>
<!-- Node26 -->
<g id="Node000026" class="node">
<title>Node26</title>
<g id="a_Node000026"><a xlink:href="class_lesson.html#aaaaf02b40b853b755bb1d5ff28954d0e" target="_top" xlink:title="Adds a child to the lesson.">
<polygon fill="white" stroke="#666666" points="814.25,-108 719.5,-108 719.5,-88 814.25,-88 814.25,-108"/>
<text text-anchor="middle" x="766.88" y="-94.5" font-family="Helvetica,sans-Serif" font-size="10.00">Lesson::add_child</text>
</a>
</g>
</g>
<!-- Node25&#45;&gt;Node26 -->
<g id="edge33_Node000025_Node000026" class="edge">
<title>Node25&#45;&gt;Node26</title>
<g id="a_edge33_Node000025_Node000026"><a xlink:title=" ">
<path fill="none" stroke="#63b8ff" d="M641.41,-129.57C656.29,-125.36 672.35,-120.91 687.25,-117 694.64,-115.06 702.44,-113.09 710.15,-111.18"/>
<polygon fill="#63b8ff" stroke="#63b8ff" points="710.96,-114.59 719.84,-108.81 709.29,-107.79 710.96,-114.59"/>
</a>
</g>
</g>
<!-- Node27 -->
<g id="Node000027" class="node">
<title>Node27</title>
<g id="a_Node000027"><a xlink:href="class_lesson.html#a50940a91b16eb52c2c3127b4100b026a" target="_top" xlink:title="Sets the payment date of a child.">
<polygon fill="white" stroke="#666666" points="846.5,-146 687.25,-146 687.25,-126 846.5,-126 846.5,-146"/>
<text text-anchor="middle" x="766.88" y="-132.5" font-family="Helvetica,sans-Serif" font-size="10.00">Lesson::set_child_payment_date</text>
</a>
</g>
</g>
<!-- Node25&#45;&gt;Node27 -->
<g id="edge35_Node000025_Node000027" class="edge">
<title>Node25&#45;&gt;Node27</title>
<g id="a_edge35_Node000025_Node000027"><a xlink:title=" ">
<path fill="none" stroke="#63b8ff" d="M651.58,-142.32C659.39,-141.89 667.45,-141.44 675.51,-141"/>
<polygon fill="#63b8ff" stroke="#63b8ff" points="675.57,-144.5 685.36,-140.45 675.18,-137.51 675.57,-144.5"/>
</a>
</g>
</g>
<!-- Node29 -->
<g id="Node000029" class="node">
<title>Node29</title>
<g id="a_Node000029"><a xlink:href="class_lesson.html#afc2b347e65cd703a676749de028cf824" target="_top" xlink:title="Adds an employee to the lesson.">
<polygon fill="white" stroke="#666666" points="825.12,-70 708.62,-70 708.62,-50 825.12,-50 825.12,-70"/>
<text text-anchor="middle" x="766.88" y="-56.5" font-family="Helvetica,sans-Serif" font-size="10.00">Lesson::add_employee</text>
</a>
</g>
</g>
<!-- Node28&#45;&gt;Node29 -->
<g id="edge37_Node000028_Node000029" class="edge">
<title>Node28&#45;&gt;Node29</title>
<g id="a_edge37_Node000028_Node000029"><a xlink:title=" ">
<path fill="none" stroke="#63b8ff" d="M651.58,-60C666.43,-60 682.2,-60 697.14,-60"/>
<polygon fill="#63b8ff" stroke="#63b8ff" points="696.85,-63.5 706.85,-60 696.85,-56.5 696.85,-63.5"/>
</a>
</g>
</g>
<!-- Node30 -->
<g id="Node000030" class="node">
<title>Node30</title>
<g id="a_Node000030"><a xlink:href="class_database.html#ad50041d3d5067356b4581bed63a51449" target="_top" xlink:title="Gets an employee by name and surname.">
<polygon fill="white" stroke="#666666" points="829.25,-32 704.5,-32 704.5,0 829.25,0 829.25,-32"/>
<text text-anchor="start" x="712.5" y="-18.5" font-family="Helvetica,sans-Serif" font-size="10.00">Database::get_employee</text>
<text text-anchor="middle" x="766.88" y="-6.5" font-family="Helvetica,sans-Serif" font-size="10.00">_by_name_surname</text>
</a>
</g>
</g>
<!-- Node28&#45;&gt;Node30 -->
<g id="edge38_Node000028_Node000030" class="edge">
<title>Node28&#45;&gt;Node30</title>
<g id="a_edge38_Node000028_Node000030"><a xlink:title=" ">
<path fill="none" stroke="#63b8ff" d="M651.58,-43.8C665.17,-40.5 679.54,-37 693.33,-33.65"/>
<polygon fill="#63b8ff" stroke="#63b8ff" points="693.87,-37.12 702.76,-31.35 692.22,-30.32 693.87,-37.12"/>
</a>
</g>
</g>
<!-- Node31 -->
<g id="Node000031" class="node">
<title>Node31</title>
<g id="a_Node000031"><a xlink:href="class_database.html#ab4078647d304eaebd16c83baf22a2b18" target="_top" xlink:title="Filters employees by name.">
<polygon fill="white" stroke="#666666" points="1012.5,-134 882.5,-134 882.5,-102 1012.5,-102 1012.5,-134"/>
<text text-anchor="start" x="890.5" y="-120.5" font-family="Helvetica,sans-Serif" font-size="10.00">Database::filter_employee</text>
<text text-anchor="middle" x="947.5" y="-108.5" font-family="Helvetica,sans-Serif" font-size="10.00">_by_name</text>
</a>
</g>
</g>
<!-- Node30&#45;&gt;Node31 -->
<g id="edge39_Node000030_Node000031" class="edge">
<title>Node30&#45;&gt;Node31</title>
<g id="a_edge39_Node000030_Node000031"><a xlink:title=" ">
<path fill="none" stroke="#63b8ff" d="M829.5,-31.15C835.53,-33.91 841.32,-37.17 846.5,-41 869.1,-57.71 860.45,-75.57 882.5,-93 883.79,-94.02 885.12,-95 886.49,-95.94"/>
<polygon fill="#63b8ff" stroke="#63b8ff" points="884.32,-98.72 894.7,-100.88 887.93,-92.72 884.32,-98.72"/>
</a>
</g>
</g>
<!-- Node32 -->
<g id="Node000032" class="node">
<title>Node32</title>
<g id="a_Node000032"><a xlink:href="class_database.html#af7863b68cb40f5715660eeccaaf56f52" target="_top" xlink:title="Filters employees by surname.">
<polygon fill="white" stroke="#666666" points="1012.5,-84 882.5,-84 882.5,-52 1012.5,-52 1012.5,-84"/>
<text text-anchor="start" x="890.5" y="-70.5" font-family="Helvetica,sans-Serif" font-size="10.00">Database::filter_employee</text>
<text text-anchor="middle" x="947.5" y="-58.5" font-family="Helvetica,sans-Serif" font-size="10.00">_by_surname</text>
</a>
</g>
</g>
<!-- Node30&#45;&gt;Node32 -->
<g id="edge42_Node000030_Node000032" class="edge">
<title>Node30&#45;&gt;Node32</title>
<g id="a_edge42_Node000030_Node000032"><a xlink:title=" ">
<path fill="none" stroke="#63b8ff" d="M824.39,-32.45C841.74,-37.5 861.01,-43.11 879.02,-48.36"/>
<polygon fill="#63b8ff" stroke="#63b8ff" points="878.01,-51.71 888.59,-51.14 879.97,-44.99 878.01,-51.71"/>
</a>
</g>
</g>
<!-- Node31&#45;&gt;Node10 -->
<g id="edge40_Node000031_Node000010" class="edge">
<title>Node31&#45;&gt;Node10</title>
<g id="a_edge40_Node000031_Node000010"><a xlink:title=" ">
<path fill="none" stroke="#63b8ff" d="M998.94,-134.42C1003.74,-136.93 1008.35,-139.78 1012.5,-143 1034.14,-159.78 1026.69,-176.44 1048.5,-193 1057.89,-200.13 1069.83,-205.14 1080.57,-208.55"/>
<polygon fill="#63b8ff" stroke="#63b8ff" points="1079.55,-211.9 1090.12,-211.24 1081.45,-205.16 1079.55,-211.9"/>
</a>
</g>
</g>
<!-- Node31&#45;&gt;Node11 -->
<g id="edge41_Node000031_Node000011" class="edge">
<title>Node31&#45;&gt;Node11</title>
<g id="a_edge41_Node000031_Node000011"><a xlink:title=" ">
<path fill="none" stroke="#63b8ff" d="M995.6,-134.5C1018.61,-142.56 1046.01,-152.16 1068.04,-159.87"/>
<polygon fill="#63b8ff" stroke="#63b8ff" points="1066.68,-163.1 1077.27,-163.11 1068.99,-156.5 1066.68,-163.1"/>
</a>
</g>
</g>
<!-- Node32&#45;&gt;Node10 -->
<g id="edge43_Node000032_Node000010" class="edge">
<title>Node32&#45;&gt;Node10</title>
<g id="a_edge43_Node000032_Node000010"><a xlink:title=" ">
<path fill="none" stroke="#63b8ff" d="M1001.81,-84.45C1005.7,-86.92 1009.34,-89.75 1012.5,-93 1045.45,-126.85 1015.21,-159.49 1048.5,-193 1057.07,-201.63 1069.31,-206.9 1080.49,-210.11"/>
<polygon fill="#63b8ff" stroke="#63b8ff" points="1079.55,-213.49 1090.09,-212.41 1081.18,-206.68 1079.55,-213.49"/>
</a>
</g>
</g>
<!-- Node32&#45;&gt;Node11 -->
<g id="edge44_Node000032_Node000011" class="edge">
<title>Node32&#45;&gt;Node11</title>
<g id="a_edge44_Node000032_Node000011"><a xlink:title=" ">
<path fill="none" stroke="#63b8ff" d="M995.84,-84.43C1001.59,-87.02 1007.27,-89.89 1012.5,-93 1042.27,-110.72 1072.04,-137.67 1090.33,-155.55"/>
<polygon fill="#63b8ff" stroke="#63b8ff" points="1087.71,-157.88 1097.26,-162.45 1092.64,-152.92 1087.71,-157.88"/>
</a>
</g>
</g>
<!-- Node34 -->
<g id="Node000034" class="node">
<title>Node34</title>
<g id="a_Node000034"><a xlink:href="class_c_s_v___parser.html#a43700e2ac18a5503278f29a57ed734a3" target="_top" xlink:title="Parses a parent from a CSV line.">
<polygon fill="white" stroke="#666666" points="473.25,-342 340.25,-342 340.25,-322 473.25,-322 473.25,-342"/>
<text text-anchor="middle" x="406.75" y="-328.5" font-family="Helvetica,sans-Serif" font-size="10.00">CSV_Parser::parse_parent</text>
</a>
</g>
</g>
<!-- Node33&#45;&gt;Node34 -->
<g id="edge46_Node000033_Node000034" class="edge">
<title>Node33&#45;&gt;Node34</title>
<g id="a_edge46_Node000033_Node000034"><a xlink:title=" ">
<path fill="none" stroke="#63b8ff" d="M289.65,-330.07C302.26,-330.28 315.6,-330.5 328.57,-330.72"/>
<polygon fill="#63b8ff" stroke="#63b8ff" points="328.28,-334.21 338.34,-330.88 328.4,-327.21 328.28,-334.21"/>
</a>
</g>
</g>
<!-- Node35 -->
<g id="Node000035" class="node">
<title>Node35</title>
<g id="a_Node000035"><a xlink:href="class_database.html#ab9f567b93fb0e0be48d59cb6b6d3b7b7" target="_top" xlink:title="Adds a parent to the database.">
<polygon fill="white" stroke="#666666" points="640,-348 528,-348 528,-328 640,-328 640,-348"/>
<text text-anchor="middle" x="584" y="-334.5" font-family="Helvetica,sans-Serif" font-size="10.00">Database::add_parent</text>
</a>
</g>
</g>
<!-- Node34&#45;&gt;Node35 -->
<g id="edge47_Node000034_Node000035" class="edge">
<title>Node34&#45;&gt;Node35</title>
<g id="a_edge47_Node000034_Node000035"><a xlink:title=" ">
<path fill="none" stroke="#63b8ff" d="M473.51,-334.25C487.61,-334.73 502.52,-335.24 516.64,-335.73"/>
<polygon fill="#63b8ff" stroke="#63b8ff" points="516.14,-339.21 526.26,-336.06 516.38,-332.22 516.14,-339.21"/>
</a>
</g>
</g>
<!-- Node35&#45;&gt;Node6 -->
<g id="edge50_Node000035_Node000006" class="edge">
<title>Node35&#45;&gt;Node6</title>
<g id="a_edge50_Node000035_Node000006"><a xlink:title=" ">
<path fill="none" stroke="#63b8ff" d="M626.22,-348.49C634.82,-351.54 643.59,-355.34 651.25,-360 670.32,-371.59 667.71,-384.22 687.25,-395 693.7,-398.56 700.81,-401.46 708.03,-403.82"/>
<polygon fill="#63b8ff" stroke="#63b8ff" points="706.99,-407.16 717.57,-406.58 708.94,-400.43 706.99,-407.16"/>
</a>
</g>
</g>
<!-- Node35&#45;&gt;Node7 -->
<g id="edge51_Node000035_Node000007" class="edge">
<title>Node35&#45;&gt;Node7</title>
<g id="a_edge51_Node000035_Node000007"><a xlink:title=" ">
<path fill="none" stroke="#63b8ff" d="M634.9,-348.48C656.55,-353.03 682.11,-358.4 704.87,-363.18"/>
<polygon fill="#63b8ff" stroke="#63b8ff" points="704.15,-366.61 714.65,-365.24 705.59,-359.76 704.15,-366.61"/>
</a>
</g>
</g>
<!-- Node36 -->
<g id="Node000036" class="node">
<title>Node36</title>
<g id="a_Node000036"><a xlink:href="class_email.html#a9402dc77167245cc5943d04850b92414" target="_top" xlink:title="Gets the email address.">
<polygon fill="white" stroke="#666666" points="811.25,-348 722.5,-348 722.5,-328 811.25,-328 811.25,-348"/>
<text text-anchor="middle" x="766.88" y="-334.5" font-family="Helvetica,sans-Serif" font-size="10.00">Email::get_email</text>
</a>
</g>
</g>
<!-- Node35&#45;&gt;Node36 -->
<g id="edge48_Node000035_Node000036" class="edge">
<title>Node35&#45;&gt;Node36</title>
<g id="a_edge48_Node000035_Node000036"><a xlink:title=" ">
<path fill="none" stroke="#63b8ff" d="M640.25,-338C662.63,-338 688.42,-338 710.79,-338"/>
<polygon fill="#63b8ff" stroke="#63b8ff" points="710.62,-341.5 720.62,-338 710.62,-334.5 710.62,-341.5"/>
</a>
</g>
</g>
<!-- Node37 -->
<g id="Node000037" class="node">
<title>Node37</title>
<g id="a_Node000037"><a xlink:href="class_parent.html#aa82a75e6096795dcf5d608169ae4de5d" target="_top" xlink:title="Gets the email address of the parent.">
<polygon fill="white" stroke="#666666" points="813.12,-310 720.62,-310 720.62,-290 813.12,-290 813.12,-310"/>
<text text-anchor="middle" x="766.88" y="-296.5" font-family="Helvetica,sans-Serif" font-size="10.00">Parent::get_email</text>
</a>
</g>
</g>
<!-- Node35&#45;&gt;Node37 -->
<g id="edge49_Node000035_Node000037" class="edge">
<title>Node35&#45;&gt;Node37</title>
<g id="a_edge49_Node000035_Node000037"><a xlink:title=" ">
<path fill="none" stroke="#63b8ff" d="M634.9,-327.52C657.92,-322.68 685.36,-316.92 709.16,-311.92"/>
<polygon fill="#63b8ff" stroke="#63b8ff" points="709.61,-315.4 718.68,-309.92 708.17,-308.55 709.61,-315.4"/>
</a>
</g>
</g>
</g>
</svg>
