<?xml version="1.0" encoding="UTF-8" standalone="no"?>
<!DOCTYPE svg PUBLIC "-//W3C//DTD SVG 1.1//EN"
 "http://www.w3.org/Graphics/SVG/1.1/DTD/svg11.dtd">
<!-- Generated by graphviz version 12.2.1 (20241206.2353)
 -->
<!-- Title: DataBaseGUI::populate_children_tab Pages: 1 -->
<!--zoomable 606 -->

<svg id="main" version="1.1" xmlns="http://www.w3.org/2000/svg" xmlns:xlink="http://www.w3.org/1999/xlink" xml:space="preserve" onload="init(evt)">

<style type="text/css"><![CDATA[
.node, .edge {opacity: 0.7;}
.node.selected, .edge.selected {opacity: 1;}
.edge:hover path { stroke: red; }
.edge:hover polygon { stroke: red; fill: red; }
]]></style>

<defs>
  <circle id="rim" cx="0" cy="0" r="7"/>
  <circle id="rim2" cx="0" cy="0" r="3.5"/>
  <g id="zoomPlus">
    <use xlink:href="#rim" fill="#404040"><set attributeName="fill" to="#808080" begin="zoomplus.mouseover" end="zoomplus.mouseout"/></use>
    <path d="M-4,0h8M0,-4v8" fill="none" stroke="white" stroke-width="1.5" pointer-events="none"/>
  </g>
  <g id="zoomMin">
    <use xlink:href="#rim" fill="#404040"><set attributeName="fill" to="#808080" begin="zoomminus.mouseover" end="zoomminus.mouseout"/></use>
    <path d="M-4,0h8" fill="none" stroke="white" stroke-width="1.5" pointer-events="none"/>
  </g>
  <g id="arrowUp" transform="translate(30 24)">
    <use xlink:href="#rim"/>
    <path pointer-events="none" fill="none" stroke="white" stroke-width="1.5" d="M0,-3.0v7 M-2.5,-0.5L0,-3.0L2.5,-0.5"/>
  </g>
  <g id="arrowRight" transform="rotate(90) translate(36 -43)">
    <use xlink:href="#rim"/>
    <path pointer-events="none" fill="none" stroke="white" stroke-width="1.5" d="M0,-3.0v7 M-2.5,-0.5L0,-3.0L2.5,-0.5"/>
  </g>
  <g id="arrowDown" transform="rotate(180) translate(-30 -48)">
    <use xlink:href="#rim"/>
    <path pointer-events="none" fill="none" stroke="white" stroke-width="1.5" d="M0,-3.0v7 M-2.5,-0.5L0,-3.0L2.5,-0.5"/>
  </g>
  <g id="arrowLeft" transform="rotate(270) translate(-36 17)">
    <use xlink:href="#rim"/>
    <path pointer-events="none" fill="none" stroke="white" stroke-width="1.5" d="M0,-3.0v7 M-2.5,-0.5L0,-3.0L2.5,-0.5"/>
  </g>
  <g id="resetDef">
    <use xlink:href="#rim2" fill="#404040"><set attributeName="fill" to="#808080" begin="reset.mouseover" end="reset.mouseout"/></use>
  </g>
</defs>
<script type="application/ecmascript">
var viewWidth = 1223;
var viewHeight = 606;
var sectionId = 'dynsection-53';
</script>
<script type="application/ecmascript" xlink:href="svg.min.js"/>
<svg id="graph" class="graph">
<g id="viewport">
<title>DataBaseGUI::populate_children_tab</title>
<!-- Node1 -->
<g id="Node000001" class="node">
<title>Node1</title>
<g id="a_Node000001"><a xlink:title="Populates the children tab with a list of children.">
<polygon fill="#999999" stroke="#666666" points="1214.75,-230 1094.5,-230 1094.5,-198 1214.75,-198 1214.75,-230"/>
<text text-anchor="start" x="1102.5" y="-216.5" font-family="Helvetica,sans-Serif" font-size="10.00">DataBaseGUI::populate</text>
<text text-anchor="middle" x="1154.62" y="-204.5" font-family="Helvetica,sans-Serif" font-size="10.00">_children_tab</text>
</a>
</g>
</g>
<!-- Node2 -->
<g id="Node000002" class="node">
<title>Node2</title>
<g id="a_Node000002"><a xlink:href="class_data_base_g_u_i.html#a2d921da686e76ae195da018bb735a1ae" target="_top" xlink:title="Searches for children based on the provided name and surname.">
<polygon fill="white" stroke="#666666" points="1058.5,-340 954.75,-340 954.75,-308 1058.5,-308 1058.5,-340"/>
<text text-anchor="start" x="962.75" y="-326.5" font-family="Helvetica,sans-Serif" font-size="10.00">DataBaseGUI::child</text>
<text text-anchor="middle" x="1006.62" y="-314.5" font-family="Helvetica,sans-Serif" font-size="10.00">_search</text>
</a>
</g>
</g>
<!-- Node1&#45;&gt;Node2 -->
<g id="edge1_Node000001_Node000002" class="edge">
<title>Node1&#45;&gt;Node2</title>
<g id="a_edge1_Node000001_Node000002"><a xlink:title=" ">
<path fill="none" stroke="#63b8ff" d="M1126.19,-237.48C1107.51,-253.16 1081.99,-273.94 1058.5,-291 1050.75,-296.63 1042.08,-302.43 1034.12,-307.56"/>
<polygon fill="#63b8ff" stroke="#63b8ff" points="1128.24,-240.34 1133.62,-231.21 1123.72,-234.99 1128.24,-240.34"/>
</a>
</g>
</g>
<!-- Node9 -->
<g id="Node000009" class="node">
<title>Node9</title>
<g id="a_Node000009"><a xlink:href="class_data_base_g_u_i.html#a6c35e47ed05a80db144f240dee805a9d" target="_top" xlink:title="Sets up the GUI.">
<polygon fill="white" stroke="#666666" points="294.88,-334 187.38,-334 187.38,-314 294.88,-314 294.88,-334"/>
<text text-anchor="middle" x="241.12" y="-320.5" font-family="Helvetica,sans-Serif" font-size="10.00">DataBaseGUI::setup</text>
</a>
</g>
</g>
<!-- Node1&#45;&gt;Node9 -->
<g id="edge26_Node000001_Node000009" class="edge">
<title>Node1&#45;&gt;Node9</title>
<g id="a_edge26_Node000001_Node000009"><a xlink:title=" ">
<path fill="none" stroke="#63b8ff" d="M1082.88,-222.49C1025.12,-228.68 941.34,-236 867.88,-236 867.88,-236 867.88,-236 563.88,-236 462.8,-236 432,-219.81 337.25,-255 302.25,-268 268.68,-297.67 252.38,-313.54"/>
<polygon fill="#63b8ff" stroke="#63b8ff" points="1083.01,-225.99 1092.57,-221.43 1082.25,-219.03 1083.01,-225.99"/>
</a>
</g>
</g>
<!-- Node18 -->
<g id="Node000018" class="node">
<title>Node18</title>
<g id="a_Node000018"><a xlink:href="class_data_base_g_u_i.html#aa684465aa73b5b34bbadd24fc7f2f641" target="_top" xlink:title="Selects the appropriate sorting to use based on child sort index.">
<polygon fill="white" stroke="#666666" points="622.75,-164 507,-164 507,-132 622.75,-132 622.75,-164"/>
<text text-anchor="start" x="515" y="-150.5" font-family="Helvetica,sans-Serif" font-size="10.00">DataBaseGUI::sort_to</text>
<text text-anchor="middle" x="564.88" y="-138.5" font-family="Helvetica,sans-Serif" font-size="10.00">_populate_children_tab</text>
</a>
</g>
</g>
<!-- Node1&#45;&gt;Node18 -->
<g id="edge27_Node000001_Node000018" class="edge">
<title>Node1&#45;&gt;Node18</title>
<g id="a_edge27_Node000001_Node000018"><a xlink:title=" ">
<path fill="none" stroke="#63b8ff" d="M1082.65,-206.03C964.8,-192.8 731.02,-166.54 623.02,-154.42"/>
<polygon fill="#63b8ff" stroke="#63b8ff" points="1082.2,-209.5 1092.53,-207.14 1082.98,-202.55 1082.2,-209.5"/>
</a>
</g>
</g>
<!-- Node3 -->
<g id="Node000003" class="node">
<title>Node3</title>
<g id="a_Node000003"><a xlink:href="class_data_base_g_u_i.html#aadb0e7d323a970603312695c0dd9b264" target="_top" xlink:title="Searches for children based on the provided child pointer.">
<polygon fill="white" stroke="#666666" points="918.75,-526 815,-526 815,-494 918.75,-494 918.75,-526"/>
<text text-anchor="start" x="823" y="-512.5" font-family="Helvetica,sans-Serif" font-size="10.00">DataBaseGUI::child</text>
<text text-anchor="middle" x="866.88" y="-500.5" font-family="Helvetica,sans-Serif" font-size="10.00">_search_by_pointer</text>
</a>
</g>
</g>
<!-- Node2&#45;&gt;Node3 -->
<g id="edge2_Node000002_Node000003" class="edge">
<title>Node2&#45;&gt;Node3</title>
<g id="a_edge2_Node000002_Node000003"><a xlink:title=" ">
<path fill="none" stroke="#63b8ff" d="M986.92,-349.26C958.19,-388.05 904,-461.22 879.93,-493.72"/>
<polygon fill="#63b8ff" stroke="#63b8ff" points="989.6,-351.52 992.74,-341.4 983.98,-347.35 989.6,-351.52"/>
</a>
</g>
</g>
<!-- Node2&#45;&gt;Node9 -->
<g id="edge25_Node000002_Node000009" class="edge">
<title>Node2&#45;&gt;Node9</title>
<g id="a_edge25_Node000002_Node000009"><a xlink:title=" ">
<path fill="none" stroke="#63b8ff" d="M943.11,-324C885.21,-324 796.73,-324 719.88,-324 719.88,-324 719.88,-324 563.88,-324 469.33,-324 359.16,-324 295.36,-324"/>
<polygon fill="#63b8ff" stroke="#63b8ff" points="942.75,-327.5 952.75,-324 942.75,-320.5 942.75,-327.5"/>
</a>
</g>
</g>
<!-- Node4 -->
<g id="Node000004" class="node">
<title>Node4</title>
<g id="a_Node000004"><a xlink:href="class_data_base_g_u_i.html#a33f2f95926f7b4b05227dcf395e235d3" target="_top" xlink:title="Populates the parent tab with a multimap of parents.">
<polygon fill="white" stroke="#666666" points="301.25,-592 181,-592 181,-560 301.25,-560 301.25,-592"/>
<text text-anchor="start" x="189" y="-578.5" font-family="Helvetica,sans-Serif" font-size="10.00">DataBaseGUI::populate</text>
<text text-anchor="middle" x="241.12" y="-566.5" font-family="Helvetica,sans-Serif" font-size="10.00">_parent_tab</text>
</a>
</g>
</g>
<!-- Node3&#45;&gt;Node4 -->
<g id="edge3_Node000003_Node000004" class="edge">
<title>Node3&#45;&gt;Node4</title>
<g id="a_edge3_Node000003_Node000004"><a xlink:title=" ">
<path fill="none" stroke="#63b8ff" d="M806.12,-529.84C708.49,-559.93 508.49,-611.93 337.25,-595 325.69,-593.86 313.45,-591.95 301.73,-589.77"/>
<polygon fill="#63b8ff" stroke="#63b8ff" points="806.99,-533.23 815.5,-526.91 804.91,-526.55 806.99,-533.23"/>
</a>
</g>
</g>
<!-- Node5 -->
<g id="Node000005" class="node">
<title>Node5</title>
<g id="a_Node000005"><a xlink:href="class_data_base_g_u_i.html#a739b2cf48c0cb6e3cab2da0a7bbd6d6d" target="_top" xlink:title="Populates the parent tab with a list of parents.">
<polygon fill="white" stroke="#666666" points="779,-526 658.75,-526 658.75,-494 779,-494 779,-526"/>
<text text-anchor="start" x="666.75" y="-512.5" font-family="Helvetica,sans-Serif" font-size="10.00">DataBaseGUI::populate</text>
<text text-anchor="middle" x="718.88" y="-500.5" font-family="Helvetica,sans-Serif" font-size="10.00">_parent_tab</text>
</a>
</g>
</g>
<!-- Node3&#45;&gt;Node5 -->
<g id="edge4_Node000003_Node000005" class="edge">
<title>Node3&#45;&gt;Node5</title>
<g id="a_edge4_Node000003_Node000005"><a xlink:title=" ">
<path fill="none" stroke="#63b8ff" d="M803.35,-510C795.41,-510 787.31,-510 779.42,-510"/>
<polygon fill="#63b8ff" stroke="#63b8ff" points="803.3,-513.5 813.3,-510 803.3,-506.5 803.3,-513.5"/>
</a>
</g>
</g>
<!-- Node6 -->
<g id="Node000006" class="node">
<title>Node6</title>
<g id="a_Node000006"><a xlink:href="class_data_base_g_u_i.html#a7c3d843eec449d8a4ec5ce6bf0375358" target="_top" xlink:title="Searches for parents based on the provided name and surname.">
<polygon fill="white" stroke="#666666" points="620.12,-384 509.62,-384 509.62,-352 620.12,-352 620.12,-384"/>
<text text-anchor="start" x="517.62" y="-370.5" font-family="Helvetica,sans-Serif" font-size="10.00">DataBaseGUI::parent</text>
<text text-anchor="middle" x="564.88" y="-358.5" font-family="Helvetica,sans-Serif" font-size="10.00">_search</text>
</a>
</g>
</g>
<!-- Node5&#45;&gt;Node6 -->
<g id="edge5_Node000005_Node000006" class="edge">
<title>Node5&#45;&gt;Node6</title>
<g id="a_edge5_Node000005_Node000006"><a xlink:title=" ">
<path fill="none" stroke="#63b8ff" d="M692.26,-486.07C661.23,-457.08 609.78,-409.02 583.11,-384.1"/>
<polygon fill="#63b8ff" stroke="#63b8ff" points="689.64,-488.41 699.33,-492.68 694.41,-483.29 689.64,-488.41"/>
</a>
</g>
</g>
<!-- Node12 -->
<g id="Node000012" class="node">
<title>Node12</title>
<g id="a_Node000012"><a xlink:href="class_data_base_g_u_i.html#a625b5e2018395a458ff517bbf364e1bf" target="_top" xlink:title="Selects the appropriate sorting to use based on parent sort index.">
<polygon fill="white" stroke="#666666" points="621.62,-504 508.12,-504 508.12,-472 621.62,-472 621.62,-504"/>
<text text-anchor="start" x="516.12" y="-490.5" font-family="Helvetica,sans-Serif" font-size="10.00">DataBaseGUI::sort_to</text>
<text text-anchor="middle" x="564.88" y="-478.5" font-family="Helvetica,sans-Serif" font-size="10.00">_populate_parent_tab</text>
</a>
</g>
</g>
<!-- Node5&#45;&gt;Node12 -->
<g id="edge12_Node000005_Node000012" class="edge">
<title>Node5&#45;&gt;Node12</title>
<g id="a_edge12_Node000005_Node000012"><a xlink:title=" ">
<path fill="none" stroke="#63b8ff" d="M647.42,-499.8C638.79,-498.55 630.06,-497.29 621.68,-496.08"/>
<polygon fill="#63b8ff" stroke="#63b8ff" points="646.78,-503.25 657.17,-501.21 647.78,-496.32 646.78,-503.25"/>
</a>
</g>
</g>
<!-- Node7 -->
<g id="Node000007" class="node">
<title>Node7</title>
<g id="a_Node000007"><a xlink:href="class_data_base_g_u_i.html#a8e1fe573ef6a09e112989968ec1a2b43" target="_top" xlink:title="Searches for parents based on the provided parent pointer.">
<polygon fill="white" stroke="#666666" points="459.38,-296 348.88,-296 348.88,-264 459.38,-264 459.38,-296"/>
<text text-anchor="start" x="356.88" y="-282.5" font-family="Helvetica,sans-Serif" font-size="10.00">DataBaseGUI::parent</text>
<text text-anchor="middle" x="404.12" y="-270.5" font-family="Helvetica,sans-Serif" font-size="10.00">_search_by_pointer</text>
</a>
</g>
</g>
<!-- Node6&#45;&gt;Node7 -->
<g id="edge6_Node000006_Node000007" class="edge">
<title>Node6&#45;&gt;Node7</title>
<g id="a_edge6_Node000006_Node000007"><a xlink:title=" ">
<path fill="none" stroke="#63b8ff" d="M524.58,-346.22C496.78,-330.81 460.07,-310.46 434.72,-296.41"/>
<polygon fill="#63b8ff" stroke="#63b8ff" points="522.62,-349.13 533.06,-350.92 526.01,-343.01 522.62,-349.13"/>
</a>
</g>
</g>
<!-- Node6&#45;&gt;Node9 -->
<g id="edge9_Node000006_Node000009" class="edge">
<title>Node6&#45;&gt;Node9</title>
<g id="a_edge9_Node000006_Node000009"><a xlink:title=" ">
<path fill="none" stroke="#63b8ff" d="M498.21,-359.56C452.95,-353.69 391.42,-345.57 337.25,-338 323.53,-336.08 308.71,-333.94 294.94,-331.91"/>
<polygon fill="#63b8ff" stroke="#63b8ff" points="497.49,-363 507.85,-360.81 498.39,-356.06 497.49,-363"/>
</a>
</g>
</g>
<!-- Node7&#45;&gt;Node1 -->
<g id="edge8_Node000007_Node000001" class="edge">
<title>Node7&#45;&gt;Node1</title>
<g id="a_edge8_Node000007_Node000001"><a xlink:title=" ">
<path fill="none" stroke="#63b8ff" d="M471.04,-279C534.34,-278.13 632.64,-277 717.88,-277 867.88,-277 867.88,-277 867.88,-277 953.44,-277 975.62,-271.27 1058.5,-250 1078,-245 1098.99,-237.31 1116.29,-230.32"/>
<polygon fill="#63b8ff" stroke="#63b8ff" points="471.11,-275.5 461.16,-279.14 471.21,-282.5 471.11,-275.5"/>
</a>
</g>
</g>
<!-- Node8 -->
<g id="Node000008" class="node">
<title>Node8</title>
<g id="a_Node000008"><a xlink:href="class_data_base_g_u_i.html#a334c0011a9d3a71539b326a888feccd3" target="_top" xlink:title="Populates the children tab with a multimap of children.">
<polygon fill="white" stroke="#666666" points="301.25,-76 181,-76 181,-44 301.25,-44 301.25,-76"/>
<text text-anchor="start" x="189" y="-62.5" font-family="Helvetica,sans-Serif" font-size="10.00">DataBaseGUI::populate</text>
<text text-anchor="middle" x="241.12" y="-50.5" font-family="Helvetica,sans-Serif" font-size="10.00">_children_tab</text>
</a>
</g>
</g>
<!-- Node7&#45;&gt;Node8 -->
<g id="edge7_Node000007_Node000008" class="edge">
<title>Node7&#45;&gt;Node8</title>
<g id="a_edge7_Node000007_Node000008"><a xlink:title=" ">
<path fill="none" stroke="#63b8ff" d="M374.79,-255.94C362.5,-244.77 348.41,-230.9 337.25,-217 299.15,-169.52 264.95,-105.5 250.04,-76.04"/>
<polygon fill="#63b8ff" stroke="#63b8ff" points="372.42,-258.52 382.22,-262.55 377.07,-253.29 372.42,-258.52"/>
</a>
</g>
</g>
<!-- Node10 -->
<g id="Node000010" class="node">
<title>Node10</title>
<g id="a_Node000010"><a xlink:href="class_data_base_g_u_i.html#a2c83afe3a30fb5166d275d9a74d33196" target="_top" xlink:title="Default constructor.">
<polygon fill="white" stroke="#666666" points="145,-353 0,-353 0,-333 145,-333 145,-353"/>
<text text-anchor="middle" x="72.5" y="-339.5" font-family="Helvetica,sans-Serif" font-size="10.00">DataBaseGUI::DataBaseGUI</text>
</a>
</g>
</g>
<!-- Node9&#45;&gt;Node10 -->
<g id="edge10_Node000009_Node000010" class="edge">
<title>Node9&#45;&gt;Node10</title>
<g id="a_edge10_Node000009_Node000010"><a xlink:title=" ">
<path fill="none" stroke="#63b8ff" d="M175.53,-331.37C165.64,-332.49 155.37,-333.67 145.32,-334.81"/>
<polygon fill="#63b8ff" stroke="#63b8ff" points="175.9,-334.85 185.44,-330.24 175.11,-327.89 175.9,-334.85"/>
</a>
</g>
</g>
<!-- Node11 -->
<g id="Node000011" class="node">
<title>Node11</title>
<g id="a_Node000011"><a xlink:href="class_data_base_g_u_i.html#aba10d1d8e9fb151632ff34de418cee82" target="_top" xlink:title="Constructs a DataBaseGUI object.">
<polygon fill="white" stroke="#666666" points="145,-315 0,-315 0,-295 145,-295 145,-315"/>
<text text-anchor="middle" x="72.5" y="-301.5" font-family="Helvetica,sans-Serif" font-size="10.00">DataBaseGUI::DataBaseGUI</text>
</a>
</g>
</g>
<!-- Node9&#45;&gt;Node11 -->
<g id="edge11_Node000009_Node000011" class="edge">
<title>Node9&#45;&gt;Node11</title>
<g id="a_edge11_Node000009_Node000011"><a xlink:title=" ">
<path fill="none" stroke="#63b8ff" d="M175.53,-316.63C165.64,-315.51 155.37,-314.33 145.32,-313.19"/>
<polygon fill="#63b8ff" stroke="#63b8ff" points="175.11,-320.11 185.44,-317.76 175.9,-313.15 175.11,-320.11"/>
</a>
</g>
</g>
<!-- Node13 -->
<g id="Node000013" class="node">
<title>Node13</title>
<g id="a_Node000013"><a xlink:href="class_data_base_g_u_i.html#a336fa47d9a9e56d585d82f53d33e8593" target="_top" xlink:title="Adds a new parent to the database.">
<polygon fill="white" stroke="#666666" points="469.88,-498 338.38,-498 338.38,-478 469.88,-478 469.88,-498"/>
<text text-anchor="middle" x="404.12" y="-484.5" font-family="Helvetica,sans-Serif" font-size="10.00">DataBaseGUI::parent_add</text>
</a>
</g>
</g>
<!-- Node12&#45;&gt;Node13 -->
<g id="edge13_Node000012_Node000013" class="edge">
<title>Node12&#45;&gt;Node13</title>
<g id="a_edge13_Node000012_Node000013"><a xlink:title=" ">
<path fill="none" stroke="#63b8ff" d="M496.62,-488C487.92,-488 479.03,-488 470.36,-488"/>
<polygon fill="#63b8ff" stroke="#63b8ff" points="496.39,-491.5 506.39,-488 496.39,-484.5 496.39,-491.5"/>
</a>
</g>
</g>
<!-- Node14 -->
<g id="Node000014" class="node">
<title>Node14</title>
<g id="a_Node000014"><a xlink:href="class_data_base_g_u_i.html#a5b049fb9e0e5d78c4c2e81e569b471f9" target="_top" xlink:title="Edits an existing parent in the database.">
<polygon fill="white" stroke="#666666" points="469.88,-586 338.38,-586 338.38,-566 469.88,-566 469.88,-586"/>
<text text-anchor="middle" x="404.12" y="-572.5" font-family="Helvetica,sans-Serif" font-size="10.00">DataBaseGUI::parent_edit</text>
</a>
</g>
</g>
<!-- Node12&#45;&gt;Node14 -->
<g id="edge15_Node000012_Node000014" class="edge">
<title>Node12&#45;&gt;Node14</title>
<g id="a_edge15_Node000012_Node000014"><a xlink:title=" ">
<path fill="none" stroke="#63b8ff" d="M537.35,-511.76C519.63,-526.56 495.22,-545 471,-557 464.28,-560.33 456.88,-563.17 449.54,-565.56"/>
<polygon fill="#63b8ff" stroke="#63b8ff" points="539.48,-514.54 544.82,-505.38 534.94,-509.21 539.48,-514.54"/>
</a>
</g>
</g>
<!-- Node15 -->
<g id="Node000015" class="node">
<title>Node15</title>
<g id="a_Node000015"><a xlink:href="class_data_base_g_u_i.html#ad8a42f24cdb603ba85c1cdd4ea2e73a4" target="_top" xlink:title="Removes a parent from the database.">
<polygon fill="white" stroke="#666666" points="459.38,-548 348.88,-548 348.88,-516 459.38,-516 459.38,-548"/>
<text text-anchor="start" x="356.88" y="-534.5" font-family="Helvetica,sans-Serif" font-size="10.00">DataBaseGUI::parent</text>
<text text-anchor="middle" x="404.12" y="-522.5" font-family="Helvetica,sans-Serif" font-size="10.00">_remove</text>
</a>
</g>
</g>
<!-- Node12&#45;&gt;Node15 -->
<g id="edge18_Node000012_Node000015" class="edge">
<title>Node12&#45;&gt;Node15</title>
<g id="a_edge18_Node000012_Node000015"><a xlink:title=" ">
<path fill="none" stroke="#63b8ff" d="M497.11,-506.5C484.68,-509.95 471.81,-513.52 459.79,-516.85"/>
<polygon fill="#63b8ff" stroke="#63b8ff" points="497.75,-509.96 506.45,-503.92 495.88,-503.22 497.75,-509.96"/>
</a>
</g>
</g>
<!-- Node16 -->
<g id="Node000016" class="node">
<title>Node16</title>
<g id="a_Node000016"><a xlink:href="class_data_base_g_u_i.html#a783bdf1d65998f887dd6445741450480" target="_top" xlink:title="Changes the sorting method for parents.">
<polygon fill="white" stroke="#666666" points="459.38,-460 348.88,-460 348.88,-428 459.38,-428 459.38,-460"/>
<text text-anchor="start" x="356.88" y="-446.5" font-family="Helvetica,sans-Serif" font-size="10.00">DataBaseGUI::parent</text>
<text text-anchor="middle" x="404.12" y="-434.5" font-family="Helvetica,sans-Serif" font-size="10.00">_sort_change</text>
</a>
</g>
</g>
<!-- Node12&#45;&gt;Node16 -->
<g id="edge21_Node000012_Node000016" class="edge">
<title>Node12&#45;&gt;Node16</title>
<g id="a_edge21_Node000012_Node000016"><a xlink:title=" ">
<path fill="none" stroke="#63b8ff" d="M497.11,-469.5C484.68,-466.05 471.81,-462.48 459.79,-459.15"/>
<polygon fill="#63b8ff" stroke="#63b8ff" points="495.88,-472.78 506.45,-472.08 497.75,-466.04 495.88,-472.78"/>
</a>
</g>
</g>
<!-- Node17 -->
<g id="Node000017" class="node">
<title>Node17</title>
<g id="a_Node000017"><a xlink:href="class_data_base_g_u_i.html#a438b5070d6a58ffa5e884d18740852c6" target="_top" xlink:title="Handles tab change events.">
<polygon fill="white" stroke="#666666" points="471,-410 337.25,-410 337.25,-390 471,-390 471,-410"/>
<text text-anchor="middle" x="404.12" y="-396.5" font-family="Helvetica,sans-Serif" font-size="10.00">DataBaseGUI::tab_change</text>
</a>
</g>
</g>
<!-- Node12&#45;&gt;Node17 -->
<g id="edge23_Node000012_Node000017" class="edge">
<title>Node12&#45;&gt;Node17</title>
<g id="a_edge23_Node000012_Node000017"><a xlink:title=" ">
<path fill="none" stroke="#63b8ff" d="M537.35,-464.24C519.63,-449.44 495.22,-431 471,-419 464.28,-415.67 456.88,-412.83 449.54,-410.44"/>
<polygon fill="#63b8ff" stroke="#63b8ff" points="534.94,-466.79 544.82,-470.62 539.48,-461.46 534.94,-466.79"/>
</a>
</g>
</g>
<!-- Node13&#45;&gt;Node9 -->
<g id="edge14_Node000013_Node000009" class="edge">
<title>Node13&#45;&gt;Node9</title>
<g id="a_edge14_Node000013_Node000009"><a xlink:title=" ">
<path fill="none" stroke="#63b8ff" d="M342.77,-472.64C340.86,-471.51 339.01,-470.3 337.25,-469 287.34,-432.19 256.16,-360.73 245.88,-334.22"/>
<polygon fill="#63b8ff" stroke="#63b8ff" points="340.91,-475.62 351.42,-476.94 344.02,-469.35 340.91,-475.62"/>
</a>
</g>
</g>
<!-- Node14&#45;&gt;Node4 -->
<g id="edge16_Node000014_Node000004" class="edge">
<title>Node14&#45;&gt;Node4</title>
<g id="a_edge16_Node000014_Node000004"><a xlink:title=" ">
<path fill="none" stroke="#63b8ff" d="M326.71,-576C318.3,-576 309.83,-576 301.67,-576"/>
<polygon fill="#63b8ff" stroke="#63b8ff" points="326.59,-579.5 336.59,-576 326.59,-572.5 326.59,-579.5"/>
</a>
</g>
</g>
<!-- Node14&#45;&gt;Node5 -->
<g id="edge17_Node000014_Node000005" class="edge">
<title>Node14&#45;&gt;Node5</title>
<g id="a_edge17_Node000014_Node000005"><a xlink:title=" ">
<path fill="none" stroke="#63b8ff" d="M477.87,-563.62C520.29,-556.08 574.72,-545.82 622.75,-535 634.33,-532.39 646.63,-529.36 658.41,-526.32"/>
<polygon fill="#63b8ff" stroke="#63b8ff" points="477.53,-560.13 468.3,-565.32 478.75,-567.02 477.53,-560.13"/>
</a>
</g>
</g>
<!-- Node15&#45;&gt;Node4 -->
<g id="edge19_Node000015_Node000004" class="edge">
<title>Node15&#45;&gt;Node4</title>
<g id="a_edge19_Node000015_Node000004"><a xlink:title=" ">
<path fill="none" stroke="#63b8ff" d="M337.78,-549.86C325.79,-553.13 313.34,-556.54 301.55,-559.76"/>
<polygon fill="#63b8ff" stroke="#63b8ff" points="338.43,-553.31 347.16,-547.3 336.59,-546.56 338.43,-553.31"/>
</a>
</g>
</g>
<!-- Node15&#45;&gt;Node5 -->
<g id="edge20_Node000015_Node000005" class="edge">
<title>Node15&#45;&gt;Node5</title>
<g id="a_edge20_Node000015_Node000005"><a xlink:title=" ">
<path fill="none" stroke="#63b8ff" d="M471.2,-527.35C526.55,-523.46 604.87,-517.95 658.31,-514.19"/>
<polygon fill="#63b8ff" stroke="#63b8ff" points="470.99,-523.86 461.26,-528.05 471.48,-530.84 470.99,-523.86"/>
</a>
</g>
</g>
<!-- Node16&#45;&gt;Node9 -->
<g id="edge22_Node000016_Node000009" class="edge">
<title>Node16&#45;&gt;Node9</title>
<g id="a_edge22_Node000016_Node000009"><a xlink:title=" ">
<path fill="none" stroke="#63b8ff" d="M342.98,-422.45C341.01,-421.35 339.1,-420.2 337.25,-419 299.61,-394.68 264.92,-353.4 249.93,-334.28"/>
<polygon fill="#63b8ff" stroke="#63b8ff" points="341.25,-425.5 351.75,-426.93 344.43,-419.27 341.25,-425.5"/>
</a>
</g>
</g>
<!-- Node17&#45;&gt;Node9 -->
<g id="edge24_Node000017_Node000009" class="edge">
<title>Node17&#45;&gt;Node9</title>
<g id="a_edge24_Node000017_Node000009"><a xlink:title=" ">
<path fill="none" stroke="#63b8ff" d="M360.95,-385.71C352.99,-382.71 344.8,-379.41 337.25,-376 309.13,-363.28 278,-345.52 259.25,-334.39"/>
<polygon fill="#63b8ff" stroke="#63b8ff" points="359.56,-388.93 370.15,-389.08 361.96,-382.35 359.56,-388.93"/>
</a>
</g>
</g>
<!-- Node18&#45;&gt;Node17 -->
<g id="edge40_Node000018_Node000017" class="edge">
<title>Node18&#45;&gt;Node17</title>
<g id="a_edge40_Node000018_Node000017"><a xlink:title=" ">
<path fill="none" stroke="#63b8ff" d="M549.25,-174.02C531.41,-205.44 500.03,-259.73 471,-305 450.85,-336.42 425.2,-372.33 412.69,-389.62"/>
<polygon fill="#63b8ff" stroke="#63b8ff" points="552.14,-176.02 554.01,-165.6 546.04,-172.58 552.14,-176.02"/>
</a>
</g>
</g>
<!-- Node19 -->
<g id="Node000019" class="node">
<title>Node19</title>
<g id="a_Node000019"><a xlink:href="class_data_base_g_u_i.html#a00f9044d3b8dd9c5dada244dac1b0df6" target="_top" xlink:title="Adds a new child to the database.">
<polygon fill="white" stroke="#666666" points="466.5,-158 341.75,-158 341.75,-138 466.5,-138 466.5,-158"/>
<text text-anchor="middle" x="404.12" y="-144.5" font-family="Helvetica,sans-Serif" font-size="10.00">DataBaseGUI::child_add</text>
</a>
</g>
</g>
<!-- Node18&#45;&gt;Node19 -->
<g id="edge28_Node000018_Node000019" class="edge">
<title>Node18&#45;&gt;Node19</title>
<g id="a_edge28_Node000018_Node000019"><a xlink:title=" ">
<path fill="none" stroke="#63b8ff" d="M495.22,-148C485.81,-148 476.19,-148 466.91,-148"/>
<polygon fill="#63b8ff" stroke="#63b8ff" points="495.05,-151.5 505.05,-148 495.05,-144.5 495.05,-151.5"/>
</a>
</g>
</g>
<!-- Node20 -->
<g id="Node000020" class="node">
<title>Node20</title>
<g id="a_Node000020"><a xlink:href="class_data_base_g_u_i.html#acb6c6b292e58d0ead30682f7f5705244" target="_top" xlink:title="Edits an existing child in the database.">
<polygon fill="white" stroke="#666666" points="466.5,-70 341.75,-70 341.75,-50 466.5,-50 466.5,-70"/>
<text text-anchor="middle" x="404.12" y="-56.5" font-family="Helvetica,sans-Serif" font-size="10.00">DataBaseGUI::child_edit</text>
</a>
</g>
</g>
<!-- Node18&#45;&gt;Node20 -->
<g id="edge30_Node000018_Node000020" class="edge">
<title>Node18&#45;&gt;Node20</title>
<g id="a_edge30_Node000018_Node000020"><a xlink:title=" ">
<path fill="none" stroke="#63b8ff" d="M532.64,-125C524.3,-118.84 515.3,-112.18 507,-106 490.96,-94.06 488.9,-87.92 471,-79 464.29,-75.66 456.89,-72.81 449.55,-70.41"/>
<polygon fill="#63b8ff" stroke="#63b8ff" points="530.36,-127.66 540.48,-130.78 534.51,-122.03 530.36,-127.66"/>
</a>
</g>
</g>
<!-- Node21 -->
<g id="Node000021" class="node">
<title>Node21</title>
<g id="a_Node000021"><a xlink:href="class_data_base_g_u_i.html#ae3a08843db874e51a7cea32fa8937ca5" target="_top" xlink:title="Removes a child from the database.">
<polygon fill="white" stroke="#666666" points="456,-32 352.25,-32 352.25,0 456,0 456,-32"/>
<text text-anchor="start" x="360.25" y="-18.5" font-family="Helvetica,sans-Serif" font-size="10.00">DataBaseGUI::child</text>
<text text-anchor="middle" x="404.12" y="-6.5" font-family="Helvetica,sans-Serif" font-size="10.00">_remove</text>
</a>
</g>
</g>
<!-- Node18&#45;&gt;Node21 -->
<g id="edge33_Node000018_Node000021" class="edge">
<title>Node18&#45;&gt;Node21</title>
<g id="a_edge33_Node000018_Node000021"><a xlink:title=" ">
<path fill="none" stroke="#63b8ff" d="M547.04,-122.12C530.29,-98.17 502.59,-63.05 471,-41 466.39,-37.78 461.3,-34.91 456.07,-32.37"/>
<polygon fill="#63b8ff" stroke="#63b8ff" points="544.14,-124.08 552.67,-130.37 549.93,-120.14 544.14,-124.08"/>
</a>
</g>
</g>
<!-- Node22 -->
<g id="Node000022" class="node">
<title>Node22</title>
<g id="a_Node000022"><a xlink:href="class_data_base_g_u_i.html#a2e6d3629f679c153cdd21b683ce794a1" target="_top" xlink:title="Changes the sorting method for children.">
<polygon fill="white" stroke="#666666" points="456,-120 352.25,-120 352.25,-88 456,-88 456,-120"/>
<text text-anchor="start" x="360.25" y="-106.5" font-family="Helvetica,sans-Serif" font-size="10.00">DataBaseGUI::child</text>
<text text-anchor="middle" x="404.12" y="-94.5" font-family="Helvetica,sans-Serif" font-size="10.00">_sort_change</text>
</a>
</g>
</g>
<!-- Node18&#45;&gt;Node22 -->
<g id="edge36_Node000018_Node000022" class="edge">
<title>Node18&#45;&gt;Node22</title>
<g id="a_edge36_Node000018_Node000022"><a xlink:title=" ">
<path fill="none" stroke="#63b8ff" d="M495.62,-129.08C482.43,-125.43 468.82,-121.66 456.3,-118.18"/>
<polygon fill="#63b8ff" stroke="#63b8ff" points="494.53,-132.41 505.1,-131.71 496.4,-125.67 494.53,-132.41"/>
</a>
</g>
</g>
<!-- Node23 -->
<g id="Node000023" class="node">
<title>Node23</title>
<g id="a_Node000023"><a xlink:href="class_data_base_g_u_i.html#a20d1ece0affaa1f5b6876ee072dd2ab1" target="_top" xlink:title="Imports a database from a file.">
<polygon fill="white" stroke="#666666" points="459.38,-208 348.88,-208 348.88,-176 459.38,-176 459.38,-208"/>
<text text-anchor="start" x="356.88" y="-194.5" font-family="Helvetica,sans-Serif" font-size="10.00">DataBaseGUI::import</text>
<text text-anchor="middle" x="404.12" y="-182.5" font-family="Helvetica,sans-Serif" font-size="10.00">_database</text>
</a>
</g>
</g>
<!-- Node18&#45;&gt;Node23 -->
<g id="edge38_Node000018_Node000023" class="edge">
<title>Node18&#45;&gt;Node23</title>
<g id="a_edge38_Node000018_Node000023"><a xlink:title=" ">
<path fill="none" stroke="#63b8ff" d="M495.66,-166.91C483.64,-170.24 471.28,-173.66 459.7,-176.87"/>
<polygon fill="#63b8ff" stroke="#63b8ff" points="496.4,-170.33 505.1,-164.29 494.53,-163.59 496.4,-170.33"/>
</a>
</g>
</g>
<!-- Node19&#45;&gt;Node9 -->
<g id="edge29_Node000019_Node000009" class="edge">
<title>Node19&#45;&gt;Node9</title>
<g id="a_edge29_Node000019_Node000009"><a xlink:title=" ">
<path fill="none" stroke="#63b8ff" d="M342.13,-163.64C340.44,-164.69 338.81,-165.81 337.25,-167 284.62,-207.3 254.72,-285.76 245.35,-313.76"/>
<polygon fill="#63b8ff" stroke="#63b8ff" points="343.7,-166.77 350.97,-159.06 340.48,-160.55 343.7,-166.77"/>
</a>
</g>
</g>
<!-- Node20&#45;&gt;Node1 -->
<g id="edge32_Node000020_Node000001" class="edge">
<title>Node20&#45;&gt;Node1</title>
<g id="a_edge32_Node000020_Node000001"><a xlink:title=" ">
<path fill="none" stroke="#63b8ff" d="M477.99,-71.7C541.24,-80.84 635.36,-92 717.88,-92 867.88,-92 867.88,-92 867.88,-92 974.14,-92 1086.07,-164.25 1132.02,-197.55"/>
<polygon fill="#63b8ff" stroke="#63b8ff" points="478.84,-68.29 468.44,-70.3 477.83,-75.22 478.84,-68.29"/>
</a>
</g>
</g>
<!-- Node20&#45;&gt;Node8 -->
<g id="edge31_Node000020_Node000008" class="edge">
<title>Node20&#45;&gt;Node8</title>
<g id="a_edge31_Node000020_Node000008"><a xlink:title=" ">
<path fill="none" stroke="#63b8ff" d="M329.9,-60C320.43,-60 310.83,-60 301.63,-60"/>
<polygon fill="#63b8ff" stroke="#63b8ff" points="329.83,-63.5 339.83,-60 329.83,-56.5 329.83,-63.5"/>
</a>
</g>
</g>
<!-- Node21&#45;&gt;Node1 -->
<g id="edge35_Node000021_Node000001" class="edge">
<title>Node21&#45;&gt;Node1</title>
<g id="a_edge35_Node000021_Node000001"><a xlink:title=" ">
<path fill="none" stroke="#63b8ff" d="M467.63,-20.13C530.74,-23.93 631.03,-29 717.88,-29 867.88,-29 867.88,-29 867.88,-29 958.76,-29 984.34,-50.47 1058.5,-103 1095.99,-129.55 1128.02,-174.05 1143.57,-197.84"/>
<polygon fill="#63b8ff" stroke="#63b8ff" points="468,-16.64 457.8,-19.53 467.57,-23.63 468,-16.64"/>
</a>
</g>
</g>
<!-- Node21&#45;&gt;Node8 -->
<g id="edge34_Node000021_Node000008" class="edge">
<title>Node21&#45;&gt;Node8</title>
<g id="a_edge34_Node000021_Node000008"><a xlink:title=" ">
<path fill="none" stroke="#63b8ff" d="M341.44,-32.86C328.41,-36.42 314.68,-40.17 301.73,-43.71"/>
<polygon fill="#63b8ff" stroke="#63b8ff" points="342,-36.33 350.72,-30.32 340.15,-29.58 342,-36.33"/>
</a>
</g>
</g>
<!-- Node22&#45;&gt;Node9 -->
<g id="edge37_Node000022_Node000009" class="edge">
<title>Node22&#45;&gt;Node9</title>
<g id="a_edge37_Node000022_Node000009"><a xlink:title=" ">
<path fill="none" stroke="#63b8ff" d="M342.4,-124.8C340.6,-126.12 338.88,-127.52 337.25,-129 277.99,-183.09 251.49,-282.16 244.26,-313.92"/>
<polygon fill="#63b8ff" stroke="#63b8ff" points="344.01,-127.92 350.63,-119.65 340.3,-121.98 344.01,-127.92"/>
</a>
</g>
</g>
<!-- Node23&#45;&gt;Node9 -->
<g id="edge39_Node000023_Node000009" class="edge">
<title>Node23&#45;&gt;Node9</title>
<g id="a_edge39_Node000023_Node000009"><a xlink:title=" ">
<path fill="none" stroke="#63b8ff" d="M350.45,-213.67C345.85,-216.25 341.38,-219.03 337.25,-222 299.12,-249.44 264.15,-293.87 249.45,-313.78"/>
<polygon fill="#63b8ff" stroke="#63b8ff" points="352.05,-216.78 359.3,-209.06 348.81,-210.58 352.05,-216.78"/>
</a>
</g>
</g>
</g>
</svg>

<g id="navigator" transform="translate(0 0)" fill="#404254">
  <rect fill="#f2f5e9" fill-opacity="0.5" stroke="#606060" stroke-width=".5" x="0" y="0" width="60" height="60"/>
  <use id="zoomplus" xlink:href="#zoomPlus" x="17" y="9" onmousedown="handleZoom(evt,'in')"/>
  <use id="zoomminus" xlink:href="#zoomMin" x="42" y="9" onmousedown="handleZoom(evt,'out')"/>
  <use id="reset" xlink:href="#resetDef" x="30" y="36" onmousedown="handleReset()"/>
   <use id="arrowup" xlink:href="#arrowUp" x="0" y="0" onmousedown="handlePan(0,-1)"/>
  <use id="arrowright" xlink:href="#arrowRight" x="0" y="0" onmousedown="handlePan(1,0)"/>
  <use id="arrowdown" xlink:href="#arrowDown" x="0" y="0" onmousedown="handlePan(0,1)"/>
  <use id="arrowleft" xlink:href="#arrowLeft" x="0" y="0" onmousedown="handlePan(-1,0)"/>
</g>
<svg viewBox="0 0 15 15" width="100%" height="30px" preserveAspectRatio="xMaxYMin meet">
 <g id="arrow_out" transform="scale(0.3 0.3)">
  <a xlink:href="class_data_base_g_u_i_af346d08370d9e4574980707f61b9c8f7_icgraph_org.svg" target="_base">
   <rect id="button" ry="5" rx="5" y="6" x="6" height="38" width="38"
        fill="#f2f5e9" fill-opacity="0.5" stroke="#606060" stroke-width="1.0"/>
   <path id="arrow"
     d="M 11.500037,31.436501 C 11.940474,20.09759 22.043105,11.32322 32.158766,21.979434 L 37.068811,17.246167 C 37.068811,17.246167 37.088388,32 37.088388,32 L 22.160133,31.978069 C 22.160133,31.978069 26.997745,27.140456 26.997745,27.140456 C 18.528582,18.264221 13.291696,25.230495 11.500037,31.436501 z"
     style="fill:#404040;"/>
  </a>
 </g>
</svg>

<style type='text/css'>
<![CDATA[
[data-mouse-over-selected='false'] { opacity: 0.7; }
[data-mouse-over-selected='true']  { opacity: 1.0; }
]]>
</style>
<script type="application/ecmascript"><![CDATA[
document.addEventListener('DOMContentLoaded', (event) => {
  highlightEdges();
  highlightAdjacentNodes();
});
]]></script>
</svg>
