<?xml version="1.0" encoding="UTF-8" standalone="no"?>
<!DOCTYPE svg PUBLIC "-//W3C//DTD SVG 1.1//EN"
 "http://www.w3.org/Graphics/SVG/1.1/DTD/svg11.dtd">
<!-- Generated by graphviz version 12.2.1 (20241206.2353)
 -->
<!-- Title: ChildEntry Pages: 1 -->
<svg width="448pt" height="1133pt"
 viewBox="0.00 0.00 448.38 1133.00" xmlns="http://www.w3.org/2000/svg" xmlns:xlink="http://www.w3.org/1999/xlink">
<g id="graph0" class="graph" transform="scale(1 1) rotate(0) translate(4 1129)">
<title>ChildEntry</title>
<!-- Node1 -->
<g id="Node000001" class="node">
<title>Node1</title>
<g id="a_Node000001"><a xlink:title="Represents a GUI widget for a child entry.">
<polygon fill="#999999" stroke="none" points="182.25,-116 42,-116 42,0 182.25,0 182.25,-116"/>
<text text-anchor="start" x="89.25" y="-102.5" font-family="Helvetica,sans-Serif" font-size="10.00">ChildEntry</text>
<text text-anchor="start" x="110.62" y="-86.5" font-family="Helvetica,sans-Serif" font-size="10.00"> </text>
<text text-anchor="start" x="46" y="-70.5" font-family="Helvetica,sans-Serif" font-size="10.00">+</text>
<text text-anchor="start" x="56" y="-70.5" font-family="Helvetica,sans-Serif" font-size="10.00">ChildEntry()</text>
<text text-anchor="start" x="46" y="-54.5" font-family="Helvetica,sans-Serif" font-size="10.00">+</text>
<text text-anchor="start" x="56" y="-54.5" font-family="Helvetica,sans-Serif" font-size="10.00">on_edit_button_clicked()</text>
<text text-anchor="start" x="46" y="-38.5" font-family="Helvetica,sans-Serif" font-size="10.00">+</text>
<text text-anchor="start" x="56" y="-38.5" font-family="Helvetica,sans-Serif" font-size="10.00">on_remove_button_clicked()</text>
<text text-anchor="start" x="46" y="-22.5" font-family="Helvetica,sans-Serif" font-size="10.00">+</text>
<text text-anchor="start" x="56" y="-22.5" font-family="Helvetica,sans-Serif" font-size="10.00">~ChildEntry()</text>
<text text-anchor="start" x="47.5" y="-6.5" font-family="Helvetica,sans-Serif" font-size="10.00">&#45;</text>
<text text-anchor="start" x="56" y="-6.5" font-family="Helvetica,sans-Serif" font-size="10.00">setup_childentry()</text>
<polygon fill="#666666" stroke="#666666" points="42,-98 42,-98 182.25,-98 182.25,-98 42,-98"/>
<polygon fill="#666666" stroke="#666666" points="42,-82 42,-82 182.25,-82 182.25,-82 42,-82"/>
<polygon fill="none" stroke="#666666" points="42,0 42,-116 182.25,-116 182.25,0 42,0"/>
</a>
</g>
</g>
<!-- Node2 -->
<g id="Node000002" class="node">
<title>Node2</title>
<g id="a_Node000002"><a xlink:title=" ">
<polygon fill="white" stroke="none" points="46.25,-296 0,-296 0,-244 46.25,-244 46.25,-296"/>
<text text-anchor="start" x="4" y="-282.5" font-family="Helvetica,sans-Serif" font-size="10.00">QWidget</text>
<text text-anchor="start" x="21.62" y="-266.5" font-family="Helvetica,sans-Serif" font-size="10.00"> </text>
<text text-anchor="start" x="21.62" y="-250.5" font-family="Helvetica,sans-Serif" font-size="10.00"> </text>
<polygon fill="#666666" stroke="#666666" points="0,-278 0,-278 46.25,-278 46.25,-278 0,-278"/>
<polygon fill="#666666" stroke="#666666" points="0,-262 0,-262 46.25,-262 46.25,-262 0,-262"/>
<polygon fill="none" stroke="#666666" points="0,-244 0,-296 46.25,-296 46.25,-244 0,-244"/>
</a>
</g>
</g>
<!-- Node2&#45;&gt;Node1 -->
<g id="edge1_Node000001_Node000002" class="edge">
<title>Node2&#45;&gt;Node1</title>
<g id="a_edge1_Node000001_Node000002"><a xlink:title=" ">
<path fill="none" stroke="#63b8ff" d="M32.1,-233.21C37.75,-212.61 45.73,-186.44 55.12,-164 61.86,-147.93 70.31,-131.1 78.62,-115.74"/>
<polygon fill="none" stroke="#63b8ff" points="28.73,-232.29 29.53,-242.86 35.49,-234.1 28.73,-232.29"/>
</a>
</g>
</g>
<!-- Node3 -->
<g id="Node000003" class="node">
<title>Node3</title>
<g id="a_Node000003"><a xlink:href="$class_ui_1_1_child_entry_class.html" xlink:title=" ">
<polygon fill="white" stroke="none" points="159.62,-296 64.62,-296 64.62,-244 159.62,-244 159.62,-296"/>
<text text-anchor="start" x="68.62" y="-282.5" font-family="Helvetica,sans-Serif" font-size="10.00">Ui::ChildEntryClass</text>
<text text-anchor="start" x="110.62" y="-266.5" font-family="Helvetica,sans-Serif" font-size="10.00"> </text>
<text text-anchor="start" x="110.62" y="-250.5" font-family="Helvetica,sans-Serif" font-size="10.00"> </text>
<polygon fill="#666666" stroke="#666666" points="64.62,-278 64.62,-278 159.62,-278 159.62,-278 64.62,-278"/>
<polygon fill="#666666" stroke="#666666" points="64.62,-262 64.62,-262 159.62,-262 159.62,-262 64.62,-262"/>
<polygon fill="none" stroke="#666666" points="64.62,-244 64.62,-296 159.62,-296 159.62,-244 64.62,-244"/>
</a>
</g>
</g>
<!-- Node3&#45;&gt;Node1 -->
<g id="edge2_Node000001_Node000003" class="edge">
<title>Node3&#45;&gt;Node1</title>
<g id="a_edge2_Node000001_Node000003"><a xlink:title=" ">
<path fill="none" stroke="#63b8ff" d="M112.12,-244.09C112.12,-215.81 112.12,-168.47 112.12,-128.75"/>
<polygon fill="none" stroke="#63b8ff" points="112.13,-128.78 108.13,-122.78 112.13,-116.78 116.13,-122.78 112.13,-128.78"/>
</a>
</g>
<text text-anchor="middle" x="118.88" y="-136.5" font-family="Helvetica,sans-Serif" font-size="10.00" fill="grey"> &#45;ui</text>
</g>
<!-- Node4 -->
<g id="Node000004" class="node">
<title>Node4</title>
<g id="a_Node000004"><a xlink:href="$class_ui___child_entry_class.html" xlink:title=" ">
<polygon fill="white" stroke="none" points="153.75,-688 58.5,-688 58.5,-460 153.75,-460 153.75,-688"/>
<text text-anchor="start" x="63" y="-674.5" font-family="Helvetica,sans-Serif" font-size="10.00">Ui_ChildEntryClass</text>
<text text-anchor="start" x="62.5" y="-658.5" font-family="Helvetica,sans-Serif" font-size="10.00">+</text>
<text text-anchor="start" x="72.5" y="-658.5" font-family="Helvetica,sans-Serif" font-size="10.00">gridLayout</text>
<text text-anchor="start" x="62.5" y="-642.5" font-family="Helvetica,sans-Serif" font-size="10.00">+</text>
<text text-anchor="start" x="72.5" y="-642.5" font-family="Helvetica,sans-Serif" font-size="10.00">frame</text>
<text text-anchor="start" x="62.5" y="-626.5" font-family="Helvetica,sans-Serif" font-size="10.00">+</text>
<text text-anchor="start" x="72.5" y="-626.5" font-family="Helvetica,sans-Serif" font-size="10.00">gridLayout_2</text>
<text text-anchor="start" x="62.5" y="-610.5" font-family="Helvetica,sans-Serif" font-size="10.00">+</text>
<text text-anchor="start" x="72.5" y="-610.5" font-family="Helvetica,sans-Serif" font-size="10.00">date_of_birth</text>
<text text-anchor="start" x="62.5" y="-594.5" font-family="Helvetica,sans-Serif" font-size="10.00">+</text>
<text text-anchor="start" x="72.5" y="-594.5" font-family="Helvetica,sans-Serif" font-size="10.00">edit_button</text>
<text text-anchor="start" x="62.5" y="-578.5" font-family="Helvetica,sans-Serif" font-size="10.00">+</text>
<text text-anchor="start" x="72.5" y="-578.5" font-family="Helvetica,sans-Serif" font-size="10.00">remove_button</text>
<text text-anchor="start" x="62.5" y="-562.5" font-family="Helvetica,sans-Serif" font-size="10.00">+</text>
<text text-anchor="start" x="72.5" y="-562.5" font-family="Helvetica,sans-Serif" font-size="10.00">mother_full_name</text>
<text text-anchor="start" x="62.5" y="-546.5" font-family="Helvetica,sans-Serif" font-size="10.00">+</text>
<text text-anchor="start" x="72.5" y="-546.5" font-family="Helvetica,sans-Serif" font-size="10.00">surname</text>
<text text-anchor="start" x="62.5" y="-530.5" font-family="Helvetica,sans-Serif" font-size="10.00">+</text>
<text text-anchor="start" x="72.5" y="-530.5" font-family="Helvetica,sans-Serif" font-size="10.00">father_full_name</text>
<text text-anchor="start" x="62.5" y="-514.5" font-family="Helvetica,sans-Serif" font-size="10.00">+</text>
<text text-anchor="start" x="72.5" y="-514.5" font-family="Helvetica,sans-Serif" font-size="10.00">name</text>
<text text-anchor="start" x="62.5" y="-498.5" font-family="Helvetica,sans-Serif" font-size="10.00">+</text>
<text text-anchor="start" x="72.5" y="-498.5" font-family="Helvetica,sans-Serif" font-size="10.00">age</text>
<text text-anchor="start" x="62.5" y="-482.5" font-family="Helvetica,sans-Serif" font-size="10.00">+</text>
<text text-anchor="start" x="72.5" y="-482.5" font-family="Helvetica,sans-Serif" font-size="10.00">setupUi()</text>
<text text-anchor="start" x="62.5" y="-466.5" font-family="Helvetica,sans-Serif" font-size="10.00">+</text>
<text text-anchor="start" x="72.5" y="-466.5" font-family="Helvetica,sans-Serif" font-size="10.00">retranslateUi()</text>
<polygon fill="#666666" stroke="#666666" points="58.5,-670 58.5,-670 153.75,-670 153.75,-670 58.5,-670"/>
<polygon fill="#666666" stroke="#666666" points="58.5,-494 58.5,-494 70.5,-494 70.5,-494 58.5,-494"/>
<polygon fill="#666666" stroke="#666666" points="70.5,-494 70.5,-494 153.75,-494 153.75,-494 70.5,-494"/>
<polygon fill="none" stroke="#666666" points="58.5,-460 58.5,-688 153.75,-688 153.75,-460 58.5,-460"/>
</a>
</g>
</g>
<!-- Node4&#45;&gt;Node3 -->
<g id="edge3_Node000003_Node000004" class="edge">
<title>Node4&#45;&gt;Node3</title>
<g id="a_edge3_Node000003_Node000004"><a xlink:title=" ">
<path fill="none" stroke="#63b8ff" d="M108.59,-448.78C109.73,-391.7 110.97,-329.34 111.63,-295.76"/>
<polygon fill="none" stroke="#63b8ff" points="105.1,-448.54 108.4,-458.6 112.1,-448.68 105.1,-448.54"/>
</a>
</g>
</g>
<!-- Node5 -->
<g id="Node000005" class="node">
<title>Node5</title>
<g id="a_Node000005"><a xlink:href="$class_child.html" xlink:title="Represents a child.">
<polygon fill="white" stroke="none" points="274,-376 198.25,-376 198.25,-164 274,-164 274,-376"/>
<text text-anchor="start" x="224.88" y="-362.5" font-family="Helvetica,sans-Serif" font-size="10.00">Child</text>
<text text-anchor="start" x="234.62" y="-346.5" font-family="Helvetica,sans-Serif" font-size="10.00"> </text>
<text text-anchor="start" x="202.25" y="-330.5" font-family="Helvetica,sans-Serif" font-size="10.00">+</text>
<text text-anchor="start" x="212.25" y="-330.5" font-family="Helvetica,sans-Serif" font-size="10.00">Child()</text>
<text text-anchor="start" x="202.25" y="-314.5" font-family="Helvetica,sans-Serif" font-size="10.00">+</text>
<text text-anchor="start" x="212.25" y="-314.5" font-family="Helvetica,sans-Serif" font-size="10.00">Child()</text>
<text text-anchor="start" x="202.25" y="-298.5" font-family="Helvetica,sans-Serif" font-size="10.00">+</text>
<text text-anchor="start" x="212.25" y="-298.5" font-family="Helvetica,sans-Serif" font-size="10.00">Child()</text>
<text text-anchor="start" x="202.25" y="-282.5" font-family="Helvetica,sans-Serif" font-size="10.00">+</text>
<text text-anchor="start" x="212.25" y="-282.5" font-family="Helvetica,sans-Serif" font-size="10.00">Child()</text>
<text text-anchor="start" x="202.25" y="-266.5" font-family="Helvetica,sans-Serif" font-size="10.00">+</text>
<text text-anchor="start" x="212.25" y="-266.5" font-family="Helvetica,sans-Serif" font-size="10.00">Child()</text>
<text text-anchor="start" x="202.25" y="-250.5" font-family="Helvetica,sans-Serif" font-size="10.00">+</text>
<text text-anchor="start" x="212.25" y="-250.5" font-family="Helvetica,sans-Serif" font-size="10.00">operator=()</text>
<text text-anchor="start" x="202.25" y="-234.5" font-family="Helvetica,sans-Serif" font-size="10.00">+</text>
<text text-anchor="start" x="212.25" y="-234.5" font-family="Helvetica,sans-Serif" font-size="10.00">operator=()</text>
<text text-anchor="start" x="202.25" y="-218.5" font-family="Helvetica,sans-Serif" font-size="10.00">+</text>
<text text-anchor="start" x="212.25" y="-218.5" font-family="Helvetica,sans-Serif" font-size="10.00">operator==()</text>
<text text-anchor="start" x="202.25" y="-202.5" font-family="Helvetica,sans-Serif" font-size="10.00">+</text>
<text text-anchor="start" x="212.25" y="-202.5" font-family="Helvetica,sans-Serif" font-size="10.00">operator!=()</text>
<text text-anchor="start" x="202.25" y="-186.5" font-family="Helvetica,sans-Serif" font-size="10.00">+</text>
<text text-anchor="start" x="212.25" y="-186.5" font-family="Helvetica,sans-Serif" font-size="10.00">get_age()</text>
<text text-anchor="start" x="212.25" y="-170.5" font-family="Helvetica,sans-Serif" font-size="10.00">and 7 more...</text>
<polygon fill="#666666" stroke="#666666" points="198.25,-358 198.25,-358 274,-358 274,-358 198.25,-358"/>
<polygon fill="#666666" stroke="#666666" points="198.25,-342 198.25,-342 274,-342 274,-342 198.25,-342"/>
<polygon fill="none" stroke="#666666" points="198.25,-164 198.25,-376 274,-376 274,-164 198.25,-164"/>
</a>
</g>
</g>
<!-- Node5&#45;&gt;Node1 -->
<g id="edge4_Node000001_Node000005" class="edge">
<title>Node5&#45;&gt;Node1</title>
<g id="a_edge4_Node000001_Node000005"><a xlink:title=" ">
<path fill="none" stroke="#63b8ff" d="M198.42,-205.14C183.77,-180.33 166.97,-151.88 152.11,-126.72"/>
<polygon fill="none" stroke="#63b8ff" points="152.22,-126.9 145.72,-123.76 146.12,-116.56 152.61,-119.7 152.22,-126.9"/>
</a>
</g>
<text text-anchor="middle" x="178.77" y="-136.5" font-family="Helvetica,sans-Serif" font-size="10.00" fill="grey"> &#45;child_</text>
</g>
<!-- Node6 -->
<g id="Node000006" class="node">
<title>Node6</title>
<g id="a_Node000006"><a xlink:href="$class_person.html" xlink:title="Represents a generic person.">
<polygon fill="white" stroke="none" points="222.25,-1036 142,-1036 142,-760 222.25,-760 222.25,-1036"/>
<text text-anchor="start" x="166.75" y="-1022.5" font-family="Helvetica,sans-Serif" font-size="10.00">Person</text>
<text text-anchor="start" x="146.38" y="-1006.5" font-family="Helvetica,sans-Serif" font-size="10.00">#</text>
<text text-anchor="start" x="156" y="-1006.5" font-family="Helvetica,sans-Serif" font-size="10.00">name_</text>
<text text-anchor="start" x="146.38" y="-990.5" font-family="Helvetica,sans-Serif" font-size="10.00">#</text>
<text text-anchor="start" x="156" y="-990.5" font-family="Helvetica,sans-Serif" font-size="10.00">surname_</text>
<text text-anchor="start" x="146" y="-974.5" font-family="Helvetica,sans-Serif" font-size="10.00">+</text>
<text text-anchor="start" x="156" y="-974.5" font-family="Helvetica,sans-Serif" font-size="10.00">Person()</text>
<text text-anchor="start" x="146" y="-958.5" font-family="Helvetica,sans-Serif" font-size="10.00">+</text>
<text text-anchor="start" x="156" y="-958.5" font-family="Helvetica,sans-Serif" font-size="10.00">Person()</text>
<text text-anchor="start" x="146" y="-942.5" font-family="Helvetica,sans-Serif" font-size="10.00">+</text>
<text text-anchor="start" x="156" y="-942.5" font-family="Helvetica,sans-Serif" font-size="10.00">Person()</text>
<text text-anchor="start" x="146" y="-926.5" font-family="Helvetica,sans-Serif" font-size="10.00">+</text>
<text text-anchor="start" x="156" y="-926.5" font-family="Helvetica,sans-Serif" font-size="10.00">Person()</text>
<text text-anchor="start" x="146" y="-910.5" font-family="Helvetica,sans-Serif" font-size="10.00">+</text>
<text text-anchor="start" x="156" y="-910.5" font-family="Helvetica,sans-Serif" font-size="10.00">Person()</text>
<text text-anchor="start" x="146" y="-894.5" font-family="Helvetica,sans-Serif" font-size="10.00">+</text>
<text text-anchor="start" x="156" y="-894.5" font-family="Helvetica,sans-Serif" font-size="10.00">operator=()</text>
<text text-anchor="start" x="146" y="-878.5" font-family="Helvetica,sans-Serif" font-size="10.00">+</text>
<text text-anchor="start" x="156" y="-878.5" font-family="Helvetica,sans-Serif" font-size="10.00">operator=()</text>
<text text-anchor="start" x="146" y="-862.5" font-family="Helvetica,sans-Serif" font-size="10.00">+</text>
<text text-anchor="start" x="156" y="-862.5" font-family="Helvetica,sans-Serif" font-size="10.00">operator==()</text>
<text text-anchor="start" x="146" y="-846.5" font-family="Helvetica,sans-Serif" font-size="10.00">+</text>
<text text-anchor="start" x="156" y="-846.5" font-family="Helvetica,sans-Serif" font-size="10.00">operator!=()</text>
<text text-anchor="start" x="146" y="-830.5" font-family="Helvetica,sans-Serif" font-size="10.00">+</text>
<text text-anchor="start" x="156" y="-830.5" font-family="Helvetica,sans-Serif" font-size="10.00">get_name()</text>
<text text-anchor="start" x="146" y="-814.5" font-family="Helvetica,sans-Serif" font-size="10.00">+</text>
<text text-anchor="start" x="156" y="-814.5" font-family="Helvetica,sans-Serif" font-size="10.00">set_name()</text>
<text text-anchor="start" x="146" y="-798.5" font-family="Helvetica,sans-Serif" font-size="10.00">+</text>
<text text-anchor="start" x="156" y="-798.5" font-family="Helvetica,sans-Serif" font-size="10.00">get_surname()</text>
<text text-anchor="start" x="146" y="-782.5" font-family="Helvetica,sans-Serif" font-size="10.00">+</text>
<text text-anchor="start" x="156" y="-782.5" font-family="Helvetica,sans-Serif" font-size="10.00">set_surname()</text>
<text text-anchor="start" x="146" y="-766.5" font-family="Helvetica,sans-Serif" font-size="10.00">+</text>
<text text-anchor="start" x="156" y="-766.5" font-family="Helvetica,sans-Serif" font-size="10.00">~Person()</text>
<polygon fill="#666666" stroke="#666666" points="142,-1018 142,-1018 222.25,-1018 222.25,-1018 142,-1018"/>
<polygon fill="#666666" stroke="#666666" points="142,-986 142,-986 154,-986 154,-986 142,-986"/>
<polygon fill="#666666" stroke="#666666" points="154,-986 154,-986 222.25,-986 222.25,-986 154,-986"/>
<polygon fill="none" stroke="#666666" points="142,-760 142,-1036 222.25,-1036 222.25,-760 142,-760"/>
</a>
</g>
</g>
<!-- Node6&#45;&gt;Node5 -->
<g id="edge5_Node000005_Node000006" class="edge">
<title>Node6&#45;&gt;Node5</title>
<g id="a_edge5_Node000005_Node000006"><a xlink:title=" ">
<path fill="none" stroke="#63b8ff" d="M181.93,-748.62C183.38,-658 188.05,-539.94 201.12,-436 203.59,-416.39 207.19,-395.65 211.15,-375.74"/>
<polygon fill="none" stroke="#63b8ff" points="178.43,-748.53 181.79,-758.58 185.43,-748.63 178.43,-748.53"/>
</a>
</g>
</g>
<!-- Node8 -->
<g id="Node000008" class="node">
<title>Node8</title>
<g id="a_Node000008"><a xlink:href="$class_parent.html" xlink:title="Represents a parent.">
<polygon fill="white" stroke="none" points="292,-712 210.25,-712 210.25,-436 292,-436 292,-712"/>
<text text-anchor="start" x="236.88" y="-698.5" font-family="Helvetica,sans-Serif" font-size="10.00">Parent</text>
<text text-anchor="start" x="214.62" y="-682.5" font-family="Helvetica,sans-Serif" font-size="10.00">#</text>
<text text-anchor="start" x="224.25" y="-682.5" font-family="Helvetica,sans-Serif" font-size="10.00">children_</text>
<text text-anchor="start" x="214.25" y="-666.5" font-family="Helvetica,sans-Serif" font-size="10.00">+</text>
<text text-anchor="start" x="224.25" y="-666.5" font-family="Helvetica,sans-Serif" font-size="10.00">Parent()</text>
<text text-anchor="start" x="214.25" y="-650.5" font-family="Helvetica,sans-Serif" font-size="10.00">+</text>
<text text-anchor="start" x="224.25" y="-650.5" font-family="Helvetica,sans-Serif" font-size="10.00">Parent()</text>
<text text-anchor="start" x="214.25" y="-634.5" font-family="Helvetica,sans-Serif" font-size="10.00">+</text>
<text text-anchor="start" x="224.25" y="-634.5" font-family="Helvetica,sans-Serif" font-size="10.00">Parent()</text>
<text text-anchor="start" x="214.25" y="-618.5" font-family="Helvetica,sans-Serif" font-size="10.00">+</text>
<text text-anchor="start" x="224.25" y="-618.5" font-family="Helvetica,sans-Serif" font-size="10.00">Parent()</text>
<text text-anchor="start" x="214.25" y="-602.5" font-family="Helvetica,sans-Serif" font-size="10.00">+</text>
<text text-anchor="start" x="224.25" y="-602.5" font-family="Helvetica,sans-Serif" font-size="10.00">Parent()</text>
<text text-anchor="start" x="214.25" y="-586.5" font-family="Helvetica,sans-Serif" font-size="10.00">+</text>
<text text-anchor="start" x="224.25" y="-586.5" font-family="Helvetica,sans-Serif" font-size="10.00">operator=()</text>
<text text-anchor="start" x="214.25" y="-570.5" font-family="Helvetica,sans-Serif" font-size="10.00">+</text>
<text text-anchor="start" x="224.25" y="-570.5" font-family="Helvetica,sans-Serif" font-size="10.00">operator=()</text>
<text text-anchor="start" x="214.25" y="-554.5" font-family="Helvetica,sans-Serif" font-size="10.00">+</text>
<text text-anchor="start" x="224.25" y="-554.5" font-family="Helvetica,sans-Serif" font-size="10.00">operator==()</text>
<text text-anchor="start" x="214.25" y="-538.5" font-family="Helvetica,sans-Serif" font-size="10.00">+</text>
<text text-anchor="start" x="224.25" y="-538.5" font-family="Helvetica,sans-Serif" font-size="10.00">operator!=()</text>
<text text-anchor="start" x="214.25" y="-522.5" font-family="Helvetica,sans-Serif" font-size="10.00">+</text>
<text text-anchor="start" x="224.25" y="-522.5" font-family="Helvetica,sans-Serif" font-size="10.00">get_email()</text>
<text text-anchor="start" x="214.25" y="-506.5" font-family="Helvetica,sans-Serif" font-size="10.00">+</text>
<text text-anchor="start" x="224.25" y="-506.5" font-family="Helvetica,sans-Serif" font-size="10.00">set_email()</text>
<text text-anchor="start" x="214.25" y="-490.5" font-family="Helvetica,sans-Serif" font-size="10.00">+</text>
<text text-anchor="start" x="224.25" y="-490.5" font-family="Helvetica,sans-Serif" font-size="10.00">get_children()</text>
<text text-anchor="start" x="214.25" y="-474.5" font-family="Helvetica,sans-Serif" font-size="10.00">+</text>
<text text-anchor="start" x="224.25" y="-474.5" font-family="Helvetica,sans-Serif" font-size="10.00">add_child()</text>
<text text-anchor="start" x="214.25" y="-458.5" font-family="Helvetica,sans-Serif" font-size="10.00">+</text>
<text text-anchor="start" x="224.25" y="-458.5" font-family="Helvetica,sans-Serif" font-size="10.00">remove_child()</text>
<text text-anchor="start" x="214.25" y="-442.5" font-family="Helvetica,sans-Serif" font-size="10.00">+</text>
<text text-anchor="start" x="224.25" y="-442.5" font-family="Helvetica,sans-Serif" font-size="10.00">~Parent()</text>
<polygon fill="#666666" stroke="#666666" points="210.25,-694 210.25,-694 292,-694 292,-694 210.25,-694"/>
<polygon fill="#666666" stroke="#666666" points="210.25,-678 210.25,-678 222.25,-678 222.25,-678 210.25,-678"/>
<polygon fill="#666666" stroke="#666666" points="222.25,-678 222.25,-678 292,-678 292,-678 222.25,-678"/>
<polygon fill="none" stroke="#666666" points="210.25,-436 210.25,-712 292,-712 292,-436 210.25,-436"/>
</a>
</g>
</g>
<!-- Node6&#45;&gt;Node8 -->
<g id="edge8_Node000008_Node000006" class="edge">
<title>Node6&#45;&gt;Node8</title>
<g id="a_edge8_Node000008_Node000006"><a xlink:title=" ">
<path fill="none" stroke="#63b8ff" d="M213.74,-749.45C216.43,-736.9 219.15,-724.23 221.82,-711.77"/>
<polygon fill="none" stroke="#63b8ff" points="210.38,-748.45 211.7,-758.96 217.22,-749.92 210.38,-748.45"/>
</a>
</g>
</g>
<!-- Node7 -->
<g id="Node000007" class="node">
<title>Node7</title>
<g id="a_Node000007"><a xlink:href="$class_date.html" xlink:title="Represents a date (day, month, year).">
<polygon fill="white" stroke="none" points="440.38,-696 309.88,-696 309.88,-452 440.38,-452 440.38,-696"/>
<text text-anchor="start" x="364.62" y="-682.5" font-family="Helvetica,sans-Serif" font-size="10.00">Date</text>
<text text-anchor="start" x="314.25" y="-666.5" font-family="Helvetica,sans-Serif" font-size="10.00">#</text>
<text text-anchor="start" x="323.88" y="-666.5" font-family="Helvetica,sans-Serif" font-size="10.00">date_</text>
<text text-anchor="start" x="313.88" y="-650.5" font-family="Helvetica,sans-Serif" font-size="10.00">+</text>
<text text-anchor="start" x="323.88" y="-650.5" font-family="Helvetica,sans-Serif" font-size="10.00">Date()</text>
<text text-anchor="start" x="313.88" y="-634.5" font-family="Helvetica,sans-Serif" font-size="10.00">+</text>
<text text-anchor="start" x="323.88" y="-634.5" font-family="Helvetica,sans-Serif" font-size="10.00">Date()</text>
<text text-anchor="start" x="313.88" y="-618.5" font-family="Helvetica,sans-Serif" font-size="10.00">+</text>
<text text-anchor="start" x="323.88" y="-618.5" font-family="Helvetica,sans-Serif" font-size="10.00">Date()</text>
<text text-anchor="start" x="313.88" y="-602.5" font-family="Helvetica,sans-Serif" font-size="10.00">+</text>
<text text-anchor="start" x="323.88" y="-602.5" font-family="Helvetica,sans-Serif" font-size="10.00">Date()</text>
<text text-anchor="start" x="313.88" y="-586.5" font-family="Helvetica,sans-Serif" font-size="10.00">+</text>
<text text-anchor="start" x="323.88" y="-586.5" font-family="Helvetica,sans-Serif" font-size="10.00">Date()</text>
<text text-anchor="start" x="313.88" y="-570.5" font-family="Helvetica,sans-Serif" font-size="10.00">+</text>
<text text-anchor="start" x="323.88" y="-570.5" font-family="Helvetica,sans-Serif" font-size="10.00">Date()</text>
<text text-anchor="start" x="313.88" y="-554.5" font-family="Helvetica,sans-Serif" font-size="10.00">+</text>
<text text-anchor="start" x="323.88" y="-554.5" font-family="Helvetica,sans-Serif" font-size="10.00">operator=()</text>
<text text-anchor="start" x="313.88" y="-538.5" font-family="Helvetica,sans-Serif" font-size="10.00">+</text>
<text text-anchor="start" x="323.88" y="-538.5" font-family="Helvetica,sans-Serif" font-size="10.00">operator=()</text>
<text text-anchor="start" x="313.88" y="-522.5" font-family="Helvetica,sans-Serif" font-size="10.00">+</text>
<text text-anchor="start" x="323.88" y="-522.5" font-family="Helvetica,sans-Serif" font-size="10.00">set_day()</text>
<text text-anchor="start" x="313.88" y="-506.5" font-family="Helvetica,sans-Serif" font-size="10.00">+</text>
<text text-anchor="start" x="323.88" y="-506.5" font-family="Helvetica,sans-Serif" font-size="10.00">get_day()</text>
<text text-anchor="start" x="323.88" y="-490.5" font-family="Helvetica,sans-Serif" font-size="10.00">and 15 more...</text>
<text text-anchor="start" x="313.88" y="-474.5" font-family="Helvetica,sans-Serif" font-size="10.00">+</text>
<text text-anchor="start" x="323.88" y="-474.5" font-family="Helvetica,sans-Serif" font-size="10.00">get_weekday_from_date()</text>
<text text-anchor="start" x="313.88" y="-458.5" font-family="Helvetica,sans-Serif" font-size="10.00">+</text>
<text text-anchor="start" x="323.88" y="-458.5" font-family="Helvetica,sans-Serif" font-size="10.00">get_current_date()</text>
<polygon fill="#666666" stroke="#666666" points="309.88,-678 309.88,-678 440.38,-678 440.38,-678 309.88,-678"/>
<polygon fill="#666666" stroke="#666666" points="309.88,-662 309.88,-662 321.88,-662 321.88,-662 309.88,-662"/>
<polygon fill="#666666" stroke="#666666" points="321.88,-662 321.88,-662 440.38,-662 440.38,-662 321.88,-662"/>
<polygon fill="none" stroke="#666666" points="309.88,-452 309.88,-696 440.38,-696 440.38,-452 309.88,-452"/>
</a>
</g>
</g>
<!-- Node7&#45;&gt;Node5 -->
<g id="edge6_Node000005_Node000007" class="edge">
<title>Node7&#45;&gt;Node5</title>
<g id="a_edge6_Node000005_Node000007"><a xlink:title=" ">
<path fill="none" stroke="#63b8ff" d="M319.59,-452.34C306.16,-423.16 292,-392.4 279.24,-364.67"/>
<polygon fill="none" stroke="#63b8ff" points="279.25,-364.7 273.11,-360.92 274.24,-353.8 280.38,-357.58 279.25,-364.7"/>
</a>
</g>
<text text-anchor="middle" x="329.58" y="-402.5" font-family="Helvetica,sans-Serif" font-size="10.00" fill="grey"> #birth_date_</text>
</g>
<!-- Node8&#45;&gt;Node5 -->
<g id="edge7_Node000005_Node000008" class="edge">
<title>Node8&#45;&gt;Node5</title>
<g id="a_edge7_Node000005_Node000008"><a xlink:title=" ">
<path fill="none" stroke="#63b8ff" d="M244.33,-436.14C243.54,-420.29 242.74,-404.23 241.97,-388.66"/>
<polygon fill="none" stroke="#63b8ff" points="241.97,-388.61 237.67,-382.82 241.37,-376.62 245.66,-382.42 241.97,-388.61"/>
</a>
</g>
<text text-anchor="middle" x="259.3" y="-408.5" font-family="Helvetica,sans-Serif" font-size="10.00" fill="grey"> #dad_</text>
<text text-anchor="middle" x="259.3" y="-396.5" font-family="Helvetica,sans-Serif" font-size="10.00" fill="grey">#mom_</text>
</g>
<!-- Node9 -->
<g id="Node000009" class="node">
<title>Node9</title>
<g id="a_Node000009"><a xlink:href="$class_email.html" xlink:title="Represents an email address.">
<polygon fill="white" stroke="none" points="311.75,-1012 240.5,-1012 240.5,-784 311.75,-784 311.75,-1012"/>
<text text-anchor="start" x="263.75" y="-998.5" font-family="Helvetica,sans-Serif" font-size="10.00">Email</text>
<text text-anchor="start" x="246" y="-982.5" font-family="Helvetica,sans-Serif" font-size="10.00">&#45;</text>
<text text-anchor="start" x="254.5" y="-982.5" font-family="Helvetica,sans-Serif" font-size="10.00">email_</text>
<text text-anchor="start" x="244.5" y="-966.5" font-family="Helvetica,sans-Serif" font-size="10.00">+</text>
<text text-anchor="start" x="254.5" y="-966.5" font-family="Helvetica,sans-Serif" font-size="10.00">Email()</text>
<text text-anchor="start" x="244.5" y="-950.5" font-family="Helvetica,sans-Serif" font-size="10.00">+</text>
<text text-anchor="start" x="254.5" y="-950.5" font-family="Helvetica,sans-Serif" font-size="10.00">Email()</text>
<text text-anchor="start" x="244.5" y="-934.5" font-family="Helvetica,sans-Serif" font-size="10.00">+</text>
<text text-anchor="start" x="254.5" y="-934.5" font-family="Helvetica,sans-Serif" font-size="10.00">Email()</text>
<text text-anchor="start" x="244.5" y="-918.5" font-family="Helvetica,sans-Serif" font-size="10.00">+</text>
<text text-anchor="start" x="254.5" y="-918.5" font-family="Helvetica,sans-Serif" font-size="10.00">Email()</text>
<text text-anchor="start" x="244.5" y="-902.5" font-family="Helvetica,sans-Serif" font-size="10.00">+</text>
<text text-anchor="start" x="254.5" y="-902.5" font-family="Helvetica,sans-Serif" font-size="10.00">Email()</text>
<text text-anchor="start" x="244.5" y="-886.5" font-family="Helvetica,sans-Serif" font-size="10.00">+</text>
<text text-anchor="start" x="254.5" y="-886.5" font-family="Helvetica,sans-Serif" font-size="10.00">operator=()</text>
<text text-anchor="start" x="244.5" y="-870.5" font-family="Helvetica,sans-Serif" font-size="10.00">+</text>
<text text-anchor="start" x="254.5" y="-870.5" font-family="Helvetica,sans-Serif" font-size="10.00">operator=()</text>
<text text-anchor="start" x="244.5" y="-854.5" font-family="Helvetica,sans-Serif" font-size="10.00">+</text>
<text text-anchor="start" x="254.5" y="-854.5" font-family="Helvetica,sans-Serif" font-size="10.00">operator==()</text>
<text text-anchor="start" x="244.5" y="-838.5" font-family="Helvetica,sans-Serif" font-size="10.00">+</text>
<text text-anchor="start" x="254.5" y="-838.5" font-family="Helvetica,sans-Serif" font-size="10.00">get_email()</text>
<text text-anchor="start" x="244.5" y="-822.5" font-family="Helvetica,sans-Serif" font-size="10.00">+</text>
<text text-anchor="start" x="254.5" y="-822.5" font-family="Helvetica,sans-Serif" font-size="10.00">set_email()</text>
<text text-anchor="start" x="244.5" y="-806.5" font-family="Helvetica,sans-Serif" font-size="10.00">+</text>
<text text-anchor="start" x="254.5" y="-806.5" font-family="Helvetica,sans-Serif" font-size="10.00">copy()</text>
<text text-anchor="start" x="244.5" y="-790.5" font-family="Helvetica,sans-Serif" font-size="10.00">+</text>
<text text-anchor="start" x="254.5" y="-790.5" font-family="Helvetica,sans-Serif" font-size="10.00">~Email()</text>
<polygon fill="#666666" stroke="#666666" points="240.5,-994 240.5,-994 311.75,-994 311.75,-994 240.5,-994"/>
<polygon fill="#666666" stroke="#666666" points="240.5,-978 240.5,-978 252.5,-978 252.5,-978 240.5,-978"/>
<polygon fill="#666666" stroke="#666666" points="252.5,-978 252.5,-978 311.75,-978 311.75,-978 252.5,-978"/>
<polygon fill="none" stroke="#666666" points="240.5,-784 240.5,-1012 311.75,-1012 311.75,-784 240.5,-784"/>
</a>
</g>
</g>
<!-- Node9&#45;&gt;Node8 -->
<g id="edge9_Node000008_Node000009" class="edge">
<title>Node9&#45;&gt;Node8</title>
<g id="a_edge9_Node000008_Node000009"><a xlink:title=" ">
<path fill="none" stroke="#63b8ff" d="M267.38,-784.38C265.88,-765.1 264.31,-744.79 262.75,-724.73"/>
<polygon fill="none" stroke="#63b8ff" points="262.75,-724.79 258.3,-719.12 261.83,-712.83 266.28,-718.5 262.75,-724.79"/>
</a>
</g>
<text text-anchor="middle" x="282" y="-732.5" font-family="Helvetica,sans-Serif" font-size="10.00" fill="grey"> #email_</text>
</g>
<!-- Node10 -->
<g id="Node000010" class="node">
<title>Node10</title>
<g id="a_Node000010"><a xlink:href="$class_contacts.html" xlink:title="Base class for contact&#45;related utilities.">
<polygon fill="white" stroke="none" points="327.12,-1125 225.12,-1125 225.12,-1073 327.12,-1073 327.12,-1125"/>
<text text-anchor="start" x="256.25" y="-1111.5" font-family="Helvetica,sans-Serif" font-size="10.00">Contacts</text>
<text text-anchor="start" x="274.62" y="-1095.5" font-family="Helvetica,sans-Serif" font-size="10.00"> </text>
<text text-anchor="start" x="229.12" y="-1079.5" font-family="Helvetica,sans-Serif" font-size="10.00">#</text>
<text text-anchor="start" x="238.38" y="-1079.5" font-family="Helvetica,sans-Serif" font-size="10.00">copy_to_clipboard()</text>
<polygon fill="#666666" stroke="#666666" points="225.12,-1107 225.12,-1107 327.12,-1107 327.12,-1107 225.12,-1107"/>
<polygon fill="#666666" stroke="#666666" points="225.12,-1091 225.12,-1091 327.12,-1091 327.12,-1091 225.12,-1091"/>
<polygon fill="none" stroke="#666666" points="225.12,-1073 225.12,-1125 327.12,-1125 327.12,-1073 225.12,-1073"/>
</a>
</g>
</g>
<!-- Node10&#45;&gt;Node9 -->
<g id="edge10_Node000009_Node000010" class="edge">
<title>Node10&#45;&gt;Node9</title>
<g id="a_edge10_Node000009_Node000010"><a xlink:title=" ">
<path fill="none" stroke="#63b8ff" d="M276.12,-1061.85C276.12,-1047.41 276.12,-1029.94 276.12,-1011.87"/>
<polygon fill="none" stroke="#63b8ff" points="272.63,-1061.69 276.13,-1071.69 279.63,-1061.69 272.63,-1061.69"/>
</a>
</g>
</g>
</g>
</svg>
