<?xml version="1.0" encoding="UTF-8" standalone="no"?>
<!DOCTYPE svg PUBLIC "-//W3C//DTD SVG 1.1//EN"
 "http://www.w3.org/Graphics/SVG/1.1/DTD/svg11.dtd">
<!-- Generated by graphviz version 12.2.1 (20241206.2353)
 -->
<!-- Title: Child::Child Pages: 1 -->
<svg width="203pt" height="218pt"
 viewBox="0.00 0.00 202.75 218.00" xmlns="http://www.w3.org/2000/svg" xmlns:xlink="http://www.w3.org/1999/xlink">
<g id="graph0" class="graph" transform="scale(1 1) rotate(0) translate(4 214)">
<title>Child::Child</title>
<!-- Node1 -->
<g id="Node000001" class="node">
<title>Node1</title>
<g id="a_Node000001"><a xlink:title="Default constructor.">
<polygon fill="#999999" stroke="#666666" points="194.75,-115 127.75,-115 127.75,-95 194.75,-95 194.75,-115"/>
<text text-anchor="middle" x="161.25" y="-101.5" font-family="Helvetica,sans-Serif" font-size="10.00">Child::Child</text>
</a>
</g>
</g>
<!-- Node2 -->
<g id="Node000002" class="node">
<title>Node2</title>
<g id="a_Node000002"><a xlink:href="$class_child.html#ae5f51034d434da38a051c80247fce16b" xlink:title=" ">
<polygon fill="white" stroke="#666666" points="79.38,-210 12.38,-210 12.38,-190 79.38,-190 79.38,-210"/>
<text text-anchor="middle" x="45.88" y="-196.5" font-family="Helvetica,sans-Serif" font-size="10.00">Child::Child</text>
</a>
</g>
</g>
<!-- Node1&#45;&gt;Node2 -->
<g id="edge1_Node000001_Node000002" class="edge">
<title>Node1&#45;&gt;Node2</title>
<g id="a_edge1_Node000001_Node000002"><a xlink:title=" ">
<path fill="none" stroke="#63b8ff" d="M146.65,-124.36C134.02,-141.17 113.88,-165.24 91.75,-181 87.06,-184.34 81.7,-187.24 76.35,-189.71"/>
<polygon fill="#63b8ff" stroke="#63b8ff" points="149.22,-126.78 152.28,-116.64 143.56,-122.65 149.22,-126.78"/>
</a>
</g>
</g>
<!-- Node3 -->
<g id="Node000003" class="node">
<title>Node3</title>
<g id="a_Node000003"><a xlink:href="$class_child.html#aedd73cc20469fa67c076540b4414a45a" xlink:title=" ">
<polygon fill="white" stroke="#666666" points="79.38,-172 12.38,-172 12.38,-152 79.38,-152 79.38,-172"/>
<text text-anchor="middle" x="45.88" y="-158.5" font-family="Helvetica,sans-Serif" font-size="10.00">Child::Child</text>
</a>
</g>
</g>
<!-- Node1&#45;&gt;Node3 -->
<g id="edge2_Node000001_Node000003" class="edge">
<title>Node1&#45;&gt;Node3</title>
<g id="a_edge2_Node000001_Node000003"><a xlink:title=" ">
<path fill="none" stroke="#63b8ff" d="M133.03,-120.97C120.6,-128.03 105.6,-136.25 91.75,-143 85.67,-145.97 79,-148.93 72.71,-151.61"/>
<polygon fill="#63b8ff" stroke="#63b8ff" points="134.54,-124.14 141.47,-116.12 131.05,-118.07 134.54,-124.14"/>
</a>
</g>
</g>
<!-- Node4 -->
<g id="Node000004" class="node">
<title>Node4</title>
<g id="a_Node000004"><a xlink:href="$class_child.html#a79ddbee81879491006d94d2b631fd608" xlink:title="Inequality operator.">
<polygon fill="white" stroke="#666666" points="90.25,-134 1.5,-134 1.5,-114 90.25,-114 90.25,-134"/>
<text text-anchor="middle" x="45.88" y="-120.5" font-family="Helvetica,sans-Serif" font-size="10.00">Child::operator!=</text>
</a>
</g>
</g>
<!-- Node1&#45;&gt;Node4 -->
<g id="edge3_Node000001_Node000004" class="edge">
<title>Node1&#45;&gt;Node4</title>
<g id="a_edge3_Node000001_Node000004"><a xlink:title=" ">
<path fill="none" stroke="#63b8ff" d="M116.27,-112.37C107.83,-113.78 99,-115.27 90.57,-116.68"/>
<polygon fill="#63b8ff" stroke="#63b8ff" points="116.68,-115.85 125.96,-110.75 115.52,-108.95 116.68,-115.85"/>
</a>
</g>
</g>
<!-- Node5 -->
<g id="Node000005" class="node">
<title>Node5</title>
<g id="a_Node000005"><a xlink:href="$class_child.html#a68cd91cff9cb5561f344897c1e71d4e2" xlink:title=" ">
<polygon fill="white" stroke="#666666" points="88.75,-96 3,-96 3,-76 88.75,-76 88.75,-96"/>
<text text-anchor="middle" x="45.88" y="-82.5" font-family="Helvetica,sans-Serif" font-size="10.00">Child::operator=</text>
</a>
</g>
</g>
<!-- Node1&#45;&gt;Node5 -->
<g id="edge4_Node000001_Node000005" class="edge">
<title>Node1&#45;&gt;Node5</title>
<g id="a_edge4_Node000001_Node000005"><a xlink:title=" ">
<path fill="none" stroke="#63b8ff" d="M116.35,-97.64C107.33,-96.13 97.85,-94.54 88.9,-93.04"/>
<polygon fill="#63b8ff" stroke="#63b8ff" points="115.52,-101.05 125.96,-99.25 116.68,-94.15 115.52,-101.05"/>
</a>
</g>
</g>
<!-- Node6 -->
<g id="Node000006" class="node">
<title>Node6</title>
<g id="a_Node000006"><a xlink:href="$class_child.html#a5c4d001a24486e4027b6a5f6e59b2438" xlink:title=" ">
<polygon fill="white" stroke="#666666" points="88.75,-58 3,-58 3,-38 88.75,-38 88.75,-58"/>
<text text-anchor="middle" x="45.88" y="-44.5" font-family="Helvetica,sans-Serif" font-size="10.00">Child::operator=</text>
</a>
</g>
</g>
<!-- Node1&#45;&gt;Node6 -->
<g id="edge5_Node000001_Node000006" class="edge">
<title>Node1&#45;&gt;Node6</title>
<g id="a_edge5_Node000001_Node000006"><a xlink:title=" ">
<path fill="none" stroke="#63b8ff" d="M133.03,-89.03C120.6,-81.97 105.6,-73.75 91.75,-67 85.67,-64.03 79,-61.07 72.71,-58.39"/>
<polygon fill="#63b8ff" stroke="#63b8ff" points="131.05,-91.93 141.47,-93.88 134.54,-85.86 131.05,-91.93"/>
</a>
</g>
</g>
<!-- Node7 -->
<g id="Node000007" class="node">
<title>Node7</title>
<g id="a_Node000007"><a xlink:href="$class_child.html#a6a525ff7510e4eab1314b1fe5e125421" xlink:title="Equality operator.">
<polygon fill="white" stroke="#666666" points="91.75,-20 0,-20 0,0 91.75,0 91.75,-20"/>
<text text-anchor="middle" x="45.88" y="-6.5" font-family="Helvetica,sans-Serif" font-size="10.00">Child::operator==</text>
</a>
</g>
</g>
<!-- Node1&#45;&gt;Node7 -->
<g id="edge6_Node000001_Node000007" class="edge">
<title>Node1&#45;&gt;Node7</title>
<g id="a_edge6_Node000001_Node000007"><a xlink:title=" ">
<path fill="none" stroke="#63b8ff" d="M146.65,-85.64C134.02,-68.83 113.88,-44.76 91.75,-29 87.06,-25.66 81.7,-22.76 76.35,-20.29"/>
<polygon fill="#63b8ff" stroke="#63b8ff" points="143.56,-87.35 152.28,-93.36 149.22,-83.22 143.56,-87.35"/>
</a>
</g>
</g>
</g>
</svg>
