<?xml version="1.0" encoding="UTF-8" standalone="no"?>
<!DOCTYPE svg PUBLIC "-//W3C//DTD SVG 1.1//EN"
 "http://www.w3.org/Graphics/SVG/1.1/DTD/svg11.dtd">
<!-- Generated by graphviz version 12.2.1 (20241206.2353)
 -->
<!-- Title: PersonLabel Pages: 1 -->
<svg width="104pt" height="196pt"
 viewBox="0.00 0.00 104.00 196.00" xmlns="http://www.w3.org/2000/svg" xmlns:xlink="http://www.w3.org/1999/xlink">
<g id="graph0" class="graph" transform="scale(1 1) rotate(0) translate(4 192)">
<title>PersonLabel</title>
<!-- Node1 -->
<g id="Node000001" class="node">
<title>Node1</title>
<g id="a_Node000001"><a xlink:title="Represents a label for displaying person name.">
<polygon fill="#999999" stroke="none" points="96,-100 0,-100 0,0 96,0 96,-100"/>
<text text-anchor="start" x="21" y="-86.5" font-family="Helvetica,sans-Serif" font-size="10.00">PersonLabel</text>
<text text-anchor="start" x="5.5" y="-70.5" font-family="Helvetica,sans-Serif" font-size="10.00">&#45;</text>
<text text-anchor="start" x="14" y="-70.5" font-family="Helvetica,sans-Serif" font-size="10.00">ui</text>
<text text-anchor="start" x="5.5" y="-54.5" font-family="Helvetica,sans-Serif" font-size="10.00">&#45;</text>
<text text-anchor="start" x="14" y="-54.5" font-family="Helvetica,sans-Serif" font-size="10.00">person_</text>
<text text-anchor="start" x="4" y="-38.5" font-family="Helvetica,sans-Serif" font-size="10.00">+</text>
<text text-anchor="start" x="14" y="-38.5" font-family="Helvetica,sans-Serif" font-size="10.00">PersonLabel()</text>
<text text-anchor="start" x="4" y="-22.5" font-family="Helvetica,sans-Serif" font-size="10.00">+</text>
<text text-anchor="start" x="14" y="-22.5" font-family="Helvetica,sans-Serif" font-size="10.00">~PersonLabel()</text>
<text text-anchor="start" x="5.5" y="-6.5" font-family="Helvetica,sans-Serif" font-size="10.00">&#45;</text>
<text text-anchor="start" x="14" y="-6.5" font-family="Helvetica,sans-Serif" font-size="10.00">on_label_clicked()</text>
<polygon fill="#666666" stroke="#666666" points="0,-82 0,-82 96,-82 96,-82 0,-82"/>
<polygon fill="#666666" stroke="#666666" points="0,-50 0,-50 12,-50 12,-50 0,-50"/>
<polygon fill="#666666" stroke="#666666" points="12,-50 12,-50 96,-50 96,-50 12,-50"/>
<polygon fill="none" stroke="#666666" points="0,0 0,-100 96,-100 96,0 0,0"/>
</a>
</g>
</g>
<!-- Node2 -->
<g id="Node000002" class="node">
<title>Node2</title>
<g id="a_Node000002"><a xlink:title=" ">
<polygon fill="white" stroke="none" points="71.12,-188 24.88,-188 24.88,-136 71.12,-136 71.12,-188"/>
<text text-anchor="start" x="28.88" y="-174.5" font-family="Helvetica,sans-Serif" font-size="10.00">QWidget</text>
<text text-anchor="start" x="46.5" y="-158.5" font-family="Helvetica,sans-Serif" font-size="10.00"> </text>
<text text-anchor="start" x="46.5" y="-142.5" font-family="Helvetica,sans-Serif" font-size="10.00"> </text>
<polygon fill="#666666" stroke="#666666" points="24.88,-170 24.88,-170 71.12,-170 71.12,-170 24.88,-170"/>
<polygon fill="#666666" stroke="#666666" points="24.88,-154 24.88,-154 71.12,-154 71.12,-154 24.88,-154"/>
<polygon fill="none" stroke="#666666" points="24.88,-136 24.88,-188 71.12,-188 71.12,-136 24.88,-136"/>
</a>
</g>
</g>
<!-- Node2&#45;&gt;Node1 -->
<g id="edge1_Node000001_Node000002" class="edge">
<title>Node2&#45;&gt;Node1</title>
<g id="a_edge1_Node000001_Node000002"><a xlink:title=" ">
<path fill="none" stroke="#63b8ff" d="M48,-124.53C48,-116.58 48,-108.05 48,-99.72"/>
<polygon fill="none" stroke="#63b8ff" points="44.5,-124.53 48,-134.53 51.5,-124.53 44.5,-124.53"/>
</a>
</g>
</g>
</g>
</svg>
