<?xml version="1.0" encoding="UTF-8" standalone="no"?>
<!DOCTYPE svg PUBLIC "-//W3C//DTD SVG 1.1//EN"
 "http://www.w3.org/Graphics/SVG/1.1/DTD/svg11.dtd">
<!-- Generated by graphviz version 12.2.1 (20241206.2353)
 -->
<!-- Title: Lesson Pages: 1 -->
<svg width="373pt" height="809pt"
 viewBox="0.00 0.00 373.25 809.00" xmlns="http://www.w3.org/2000/svg" xmlns:xlink="http://www.w3.org/1999/xlink">
<g id="graph0" class="graph" transform="scale(1 1) rotate(0) translate(4 805)">
<title>Lesson</title>
<!-- Node1 -->
<g id="Node000001" class="node">
<title>Node1</title>
<g id="a_Node000001"><a xlink:title="Represents a lesson.">
<polygon fill="#999999" stroke="none" points="295.75,-244 214.75,-244 214.75,0 295.75,0 295.75,-244"/>
<text text-anchor="start" x="239.5" y="-230.5" font-family="Helvetica,sans-Serif" font-size="10.00">Lesson</text>
<text text-anchor="start" x="220.25" y="-214.5" font-family="Helvetica,sans-Serif" font-size="10.00">&#45;</text>
<text text-anchor="start" x="228.75" y="-214.5" font-family="Helvetica,sans-Serif" font-size="10.00">children_</text>
<text text-anchor="start" x="220.25" y="-198.5" font-family="Helvetica,sans-Serif" font-size="10.00">&#45;</text>
<text text-anchor="start" x="228.75" y="-198.5" font-family="Helvetica,sans-Serif" font-size="10.00">employees_</text>
<text text-anchor="start" x="220.25" y="-182.5" font-family="Helvetica,sans-Serif" font-size="10.00">&#45;</text>
<text text-anchor="start" x="228.75" y="-182.5" font-family="Helvetica,sans-Serif" font-size="10.00">attendance_</text>
<text text-anchor="start" x="218.75" y="-166.5" font-family="Helvetica,sans-Serif" font-size="10.00">+</text>
<text text-anchor="start" x="228.75" y="-166.5" font-family="Helvetica,sans-Serif" font-size="10.00">Lesson()</text>
<text text-anchor="start" x="218.75" y="-150.5" font-family="Helvetica,sans-Serif" font-size="10.00">+</text>
<text text-anchor="start" x="228.75" y="-150.5" font-family="Helvetica,sans-Serif" font-size="10.00">Lesson()</text>
<text text-anchor="start" x="218.75" y="-134.5" font-family="Helvetica,sans-Serif" font-size="10.00">+</text>
<text text-anchor="start" x="228.75" y="-134.5" font-family="Helvetica,sans-Serif" font-size="10.00">Lesson()</text>
<text text-anchor="start" x="218.75" y="-118.5" font-family="Helvetica,sans-Serif" font-size="10.00">+</text>
<text text-anchor="start" x="228.75" y="-118.5" font-family="Helvetica,sans-Serif" font-size="10.00">Lesson()</text>
<text text-anchor="start" x="218.75" y="-102.5" font-family="Helvetica,sans-Serif" font-size="10.00">+</text>
<text text-anchor="start" x="228.75" y="-102.5" font-family="Helvetica,sans-Serif" font-size="10.00">Lesson()</text>
<text text-anchor="start" x="218.75" y="-86.5" font-family="Helvetica,sans-Serif" font-size="10.00">+</text>
<text text-anchor="start" x="228.75" y="-86.5" font-family="Helvetica,sans-Serif" font-size="10.00">operator=()</text>
<text text-anchor="start" x="218.75" y="-70.5" font-family="Helvetica,sans-Serif" font-size="10.00">+</text>
<text text-anchor="start" x="228.75" y="-70.5" font-family="Helvetica,sans-Serif" font-size="10.00">operator=()</text>
<text text-anchor="start" x="218.75" y="-54.5" font-family="Helvetica,sans-Serif" font-size="10.00">+</text>
<text text-anchor="start" x="228.75" y="-54.5" font-family="Helvetica,sans-Serif" font-size="10.00">operator==()</text>
<text text-anchor="start" x="218.75" y="-38.5" font-family="Helvetica,sans-Serif" font-size="10.00">+</text>
<text text-anchor="start" x="228.75" y="-38.5" font-family="Helvetica,sans-Serif" font-size="10.00">get_datetime()</text>
<text text-anchor="start" x="218.75" y="-22.5" font-family="Helvetica,sans-Serif" font-size="10.00">+</text>
<text text-anchor="start" x="228.75" y="-22.5" font-family="Helvetica,sans-Serif" font-size="10.00">set_datetime()</text>
<text text-anchor="start" x="228.75" y="-6.5" font-family="Helvetica,sans-Serif" font-size="10.00">and 15 more...</text>
<polygon fill="#666666" stroke="#666666" points="214.75,-226 214.75,-226 295.75,-226 295.75,-226 214.75,-226"/>
<polygon fill="#666666" stroke="#666666" points="214.75,-178 214.75,-178 226.75,-178 226.75,-178 214.75,-178"/>
<polygon fill="#666666" stroke="#666666" points="226.75,-178 226.75,-178 295.75,-178 295.75,-178 226.75,-178"/>
<polygon fill="none" stroke="#666666" points="214.75,0 214.75,-244 295.75,-244 295.75,0 214.75,0"/>
</a>
</g>
</g>
<!-- Node2 -->
<g id="Node000002" class="node">
<title>Node2</title>
<g id="a_Node000002"><a xlink:href="class_date_time.html" target="_top" xlink:title="Represents a combined date and time.">
<polygon fill="white" stroke="none" points="255,-520 139.5,-520 139.5,-292 255,-292 255,-520"/>
<text text-anchor="start" x="175.88" y="-506.5" font-family="Helvetica,sans-Serif" font-size="10.00">DateTime</text>
<text text-anchor="start" x="195.75" y="-490.5" font-family="Helvetica,sans-Serif" font-size="10.00"> </text>
<text text-anchor="start" x="143.5" y="-474.5" font-family="Helvetica,sans-Serif" font-size="10.00">+</text>
<text text-anchor="start" x="153.5" y="-474.5" font-family="Helvetica,sans-Serif" font-size="10.00">DateTime()</text>
<text text-anchor="start" x="143.5" y="-458.5" font-family="Helvetica,sans-Serif" font-size="10.00">+</text>
<text text-anchor="start" x="153.5" y="-458.5" font-family="Helvetica,sans-Serif" font-size="10.00">DateTime()</text>
<text text-anchor="start" x="143.5" y="-442.5" font-family="Helvetica,sans-Serif" font-size="10.00">+</text>
<text text-anchor="start" x="153.5" y="-442.5" font-family="Helvetica,sans-Serif" font-size="10.00">DateTime()</text>
<text text-anchor="start" x="143.5" y="-426.5" font-family="Helvetica,sans-Serif" font-size="10.00">+</text>
<text text-anchor="start" x="153.5" y="-426.5" font-family="Helvetica,sans-Serif" font-size="10.00">DateTime()</text>
<text text-anchor="start" x="143.5" y="-410.5" font-family="Helvetica,sans-Serif" font-size="10.00">+</text>
<text text-anchor="start" x="153.5" y="-410.5" font-family="Helvetica,sans-Serif" font-size="10.00">DateTime()</text>
<text text-anchor="start" x="143.5" y="-394.5" font-family="Helvetica,sans-Serif" font-size="10.00">+</text>
<text text-anchor="start" x="153.5" y="-394.5" font-family="Helvetica,sans-Serif" font-size="10.00">operator=()</text>
<text text-anchor="start" x="143.5" y="-378.5" font-family="Helvetica,sans-Serif" font-size="10.00">+</text>
<text text-anchor="start" x="153.5" y="-378.5" font-family="Helvetica,sans-Serif" font-size="10.00">operator=()</text>
<text text-anchor="start" x="143.5" y="-362.5" font-family="Helvetica,sans-Serif" font-size="10.00">+</text>
<text text-anchor="start" x="153.5" y="-362.5" font-family="Helvetica,sans-Serif" font-size="10.00">set_date()</text>
<text text-anchor="start" x="143.5" y="-346.5" font-family="Helvetica,sans-Serif" font-size="10.00">+</text>
<text text-anchor="start" x="153.5" y="-346.5" font-family="Helvetica,sans-Serif" font-size="10.00">get_date()</text>
<text text-anchor="start" x="143.5" y="-330.5" font-family="Helvetica,sans-Serif" font-size="10.00">+</text>
<text text-anchor="start" x="153.5" y="-330.5" font-family="Helvetica,sans-Serif" font-size="10.00">set_time()</text>
<text text-anchor="start" x="153.5" y="-314.5" font-family="Helvetica,sans-Serif" font-size="10.00">and 11 more...</text>
<text text-anchor="start" x="143.5" y="-298.5" font-family="Helvetica,sans-Serif" font-size="10.00">+</text>
<text text-anchor="start" x="153.5" y="-298.5" font-family="Helvetica,sans-Serif" font-size="10.00">get_current_datetime()</text>
<polygon fill="#666666" stroke="#666666" points="139.5,-502 139.5,-502 255,-502 255,-502 139.5,-502"/>
<polygon fill="#666666" stroke="#666666" points="139.5,-486 139.5,-486 255,-486 255,-486 139.5,-486"/>
<polygon fill="none" stroke="#666666" points="139.5,-292 139.5,-520 255,-520 255,-292 139.5,-292"/>
</a>
</g>
</g>
<!-- Node2&#45;&gt;Node1 -->
<g id="edge1_Node000001_Node000002" class="edge">
<title>Node2&#45;&gt;Node1</title>
<g id="a_edge1_Node000001_Node000002"><a xlink:title=" ">
<path fill="none" stroke="#63b8ff" d="M220.42,-292.33C222.86,-280.49 225.35,-268.37 227.83,-256.32"/>
<polygon fill="none" stroke="#63b8ff" points="227.8,-256.45 225.09,-249.77 230.22,-244.7 232.93,-251.38 227.8,-256.45"/>
</a>
</g>
<text text-anchor="middle" x="250.62" y="-264.5" font-family="Helvetica,sans-Serif" font-size="10.00" fill="grey"> &#45;datetime_</text>
</g>
<!-- Node3 -->
<g id="Node000003" class="node">
<title>Node3</title>
<g id="a_Node000003"><a xlink:href="class_date.html" target="_top" xlink:title="Represents a date (day, month, year).">
<polygon fill="white" stroke="none" points="130.5,-801 0,-801 0,-557 130.5,-557 130.5,-801"/>
<text text-anchor="start" x="54.75" y="-787.5" font-family="Helvetica,sans-Serif" font-size="10.00">Date</text>
<text text-anchor="start" x="4.38" y="-771.5" font-family="Helvetica,sans-Serif" font-size="10.00">#</text>
<text text-anchor="start" x="14" y="-771.5" font-family="Helvetica,sans-Serif" font-size="10.00">date_</text>
<text text-anchor="start" x="4" y="-755.5" font-family="Helvetica,sans-Serif" font-size="10.00">+</text>
<text text-anchor="start" x="14" y="-755.5" font-family="Helvetica,sans-Serif" font-size="10.00">Date()</text>
<text text-anchor="start" x="4" y="-739.5" font-family="Helvetica,sans-Serif" font-size="10.00">+</text>
<text text-anchor="start" x="14" y="-739.5" font-family="Helvetica,sans-Serif" font-size="10.00">Date()</text>
<text text-anchor="start" x="4" y="-723.5" font-family="Helvetica,sans-Serif" font-size="10.00">+</text>
<text text-anchor="start" x="14" y="-723.5" font-family="Helvetica,sans-Serif" font-size="10.00">Date()</text>
<text text-anchor="start" x="4" y="-707.5" font-family="Helvetica,sans-Serif" font-size="10.00">+</text>
<text text-anchor="start" x="14" y="-707.5" font-family="Helvetica,sans-Serif" font-size="10.00">Date()</text>
<text text-anchor="start" x="4" y="-691.5" font-family="Helvetica,sans-Serif" font-size="10.00">+</text>
<text text-anchor="start" x="14" y="-691.5" font-family="Helvetica,sans-Serif" font-size="10.00">Date()</text>
<text text-anchor="start" x="4" y="-675.5" font-family="Helvetica,sans-Serif" font-size="10.00">+</text>
<text text-anchor="start" x="14" y="-675.5" font-family="Helvetica,sans-Serif" font-size="10.00">Date()</text>
<text text-anchor="start" x="4" y="-659.5" font-family="Helvetica,sans-Serif" font-size="10.00">+</text>
<text text-anchor="start" x="14" y="-659.5" font-family="Helvetica,sans-Serif" font-size="10.00">operator=()</text>
<text text-anchor="start" x="4" y="-643.5" font-family="Helvetica,sans-Serif" font-size="10.00">+</text>
<text text-anchor="start" x="14" y="-643.5" font-family="Helvetica,sans-Serif" font-size="10.00">operator=()</text>
<text text-anchor="start" x="4" y="-627.5" font-family="Helvetica,sans-Serif" font-size="10.00">+</text>
<text text-anchor="start" x="14" y="-627.5" font-family="Helvetica,sans-Serif" font-size="10.00">set_day()</text>
<text text-anchor="start" x="4" y="-611.5" font-family="Helvetica,sans-Serif" font-size="10.00">+</text>
<text text-anchor="start" x="14" y="-611.5" font-family="Helvetica,sans-Serif" font-size="10.00">get_day()</text>
<text text-anchor="start" x="14" y="-595.5" font-family="Helvetica,sans-Serif" font-size="10.00">and 15 more...</text>
<text text-anchor="start" x="4" y="-579.5" font-family="Helvetica,sans-Serif" font-size="10.00">+</text>
<text text-anchor="start" x="14" y="-579.5" font-family="Helvetica,sans-Serif" font-size="10.00">get_weekday_from_date()</text>
<text text-anchor="start" x="4" y="-563.5" font-family="Helvetica,sans-Serif" font-size="10.00">+</text>
<text text-anchor="start" x="14" y="-563.5" font-family="Helvetica,sans-Serif" font-size="10.00">get_current_date()</text>
<polygon fill="#666666" stroke="#666666" points="0,-783 0,-783 130.5,-783 130.5,-783 0,-783"/>
<polygon fill="#666666" stroke="#666666" points="0,-767 0,-767 12,-767 12,-767 0,-767"/>
<polygon fill="#666666" stroke="#666666" points="12,-767 12,-767 130.5,-767 130.5,-767 12,-767"/>
<polygon fill="none" stroke="#666666" points="0,-557 0,-801 130.5,-801 130.5,-557 0,-557"/>
</a>
</g>
</g>
<!-- Node3&#45;&gt;Node2 -->
<g id="edge2_Node000002_Node000003" class="edge">
<title>Node3&#45;&gt;Node2</title>
<g id="a_edge2_Node000002_Node000003"><a xlink:title=" ">
<path fill="none" stroke="#63b8ff" d="M129.08,-546.94C133.5,-537.88 137.93,-528.78 142.29,-519.83"/>
<polygon fill="none" stroke="#63b8ff" points="126,-545.28 124.77,-555.8 132.3,-548.34 126,-545.28"/>
</a>
</g>
</g>
<!-- Node4 -->
<g id="Node000004" class="node">
<title>Node4</title>
<g id="a_Node000004"><a xlink:href="class_time.html" target="_top" xlink:title="Represents a time (hours, minutes, seconds, and time zone).">
<polygon fill="white" stroke="none" points="245.62,-801 148.88,-801 148.88,-557 245.62,-557 245.62,-801"/>
<text text-anchor="start" x="186.38" y="-787.5" font-family="Helvetica,sans-Serif" font-size="10.00">Time</text>
<text text-anchor="start" x="153.25" y="-771.5" font-family="Helvetica,sans-Serif" font-size="10.00">#</text>
<text text-anchor="start" x="162.88" y="-771.5" font-family="Helvetica,sans-Serif" font-size="10.00">time_</text>
<text text-anchor="start" x="152.88" y="-755.5" font-family="Helvetica,sans-Serif" font-size="10.00">+</text>
<text text-anchor="start" x="162.88" y="-755.5" font-family="Helvetica,sans-Serif" font-size="10.00">Time()</text>
<text text-anchor="start" x="152.88" y="-739.5" font-family="Helvetica,sans-Serif" font-size="10.00">+</text>
<text text-anchor="start" x="162.88" y="-739.5" font-family="Helvetica,sans-Serif" font-size="10.00">Time()</text>
<text text-anchor="start" x="152.88" y="-723.5" font-family="Helvetica,sans-Serif" font-size="10.00">+</text>
<text text-anchor="start" x="162.88" y="-723.5" font-family="Helvetica,sans-Serif" font-size="10.00">Time()</text>
<text text-anchor="start" x="152.88" y="-707.5" font-family="Helvetica,sans-Serif" font-size="10.00">+</text>
<text text-anchor="start" x="162.88" y="-707.5" font-family="Helvetica,sans-Serif" font-size="10.00">Time()</text>
<text text-anchor="start" x="152.88" y="-691.5" font-family="Helvetica,sans-Serif" font-size="10.00">+</text>
<text text-anchor="start" x="162.88" y="-691.5" font-family="Helvetica,sans-Serif" font-size="10.00">Time()</text>
<text text-anchor="start" x="152.88" y="-675.5" font-family="Helvetica,sans-Serif" font-size="10.00">+</text>
<text text-anchor="start" x="162.88" y="-675.5" font-family="Helvetica,sans-Serif" font-size="10.00">operator=()</text>
<text text-anchor="start" x="152.88" y="-659.5" font-family="Helvetica,sans-Serif" font-size="10.00">+</text>
<text text-anchor="start" x="162.88" y="-659.5" font-family="Helvetica,sans-Serif" font-size="10.00">operator=()</text>
<text text-anchor="start" x="152.88" y="-643.5" font-family="Helvetica,sans-Serif" font-size="10.00">+</text>
<text text-anchor="start" x="162.88" y="-643.5" font-family="Helvetica,sans-Serif" font-size="10.00">set_seconds()</text>
<text text-anchor="start" x="152.88" y="-627.5" font-family="Helvetica,sans-Serif" font-size="10.00">+</text>
<text text-anchor="start" x="162.88" y="-627.5" font-family="Helvetica,sans-Serif" font-size="10.00">get_seconds()</text>
<text text-anchor="start" x="152.88" y="-611.5" font-family="Helvetica,sans-Serif" font-size="10.00">+</text>
<text text-anchor="start" x="162.88" y="-611.5" font-family="Helvetica,sans-Serif" font-size="10.00">set_minutes()</text>
<text text-anchor="start" x="162.88" y="-595.5" font-family="Helvetica,sans-Serif" font-size="10.00">and 16 more...</text>
<text text-anchor="start" x="152.88" y="-579.5" font-family="Helvetica,sans-Serif" font-size="10.00">+</text>
<text text-anchor="start" x="162.88" y="-579.5" font-family="Helvetica,sans-Serif" font-size="10.00">get_current_time()</text>
<text text-anchor="start" x="153.25" y="-563.5" font-family="Helvetica,sans-Serif" font-size="10.00">#</text>
<text text-anchor="start" x="162.88" y="-563.5" font-family="Helvetica,sans-Serif" font-size="10.00">update_time()</text>
<polygon fill="#666666" stroke="#666666" points="148.88,-783 148.88,-783 245.62,-783 245.62,-783 148.88,-783"/>
<polygon fill="#666666" stroke="#666666" points="148.88,-767 148.88,-767 160.88,-767 160.88,-767 148.88,-767"/>
<polygon fill="#666666" stroke="#666666" points="160.88,-767 160.88,-767 245.62,-767 245.62,-767 160.88,-767"/>
<polygon fill="none" stroke="#666666" points="148.88,-557 148.88,-801 245.62,-801 245.62,-557 148.88,-557"/>
</a>
</g>
</g>
<!-- Node4&#45;&gt;Node2 -->
<g id="edge3_Node000002_Node000004" class="edge">
<title>Node4&#45;&gt;Node2</title>
<g id="a_edge3_Node000002_Node000004"><a xlink:title=" ">
<path fill="none" stroke="#63b8ff" d="M197.25,-545.77C197.25,-537.1 197.25,-528.4 197.25,-519.83"/>
<polygon fill="none" stroke="#63b8ff" points="193.75,-545.65 197.25,-555.65 200.75,-545.65 193.75,-545.65"/>
</a>
</g>
</g>
<!-- Node5 -->
<g id="Node000005" class="node">
<title>Node5</title>
<g id="a_Node000005"><a xlink:href="class_address.html" target="_top" xlink:title="Represents a physical address.">
<polygon fill="white" stroke="none" points="351.88,-520 274.62,-520 274.62,-292 351.88,-292 351.88,-520"/>
<text text-anchor="start" x="295.25" y="-506.5" font-family="Helvetica,sans-Serif" font-size="10.00">Address</text>
<text text-anchor="start" x="280.12" y="-490.5" font-family="Helvetica,sans-Serif" font-size="10.00">&#45;</text>
<text text-anchor="start" x="288.62" y="-490.5" font-family="Helvetica,sans-Serif" font-size="10.00">address_</text>
<text text-anchor="start" x="278.62" y="-474.5" font-family="Helvetica,sans-Serif" font-size="10.00">+</text>
<text text-anchor="start" x="288.62" y="-474.5" font-family="Helvetica,sans-Serif" font-size="10.00">Address()</text>
<text text-anchor="start" x="278.62" y="-458.5" font-family="Helvetica,sans-Serif" font-size="10.00">+</text>
<text text-anchor="start" x="288.62" y="-458.5" font-family="Helvetica,sans-Serif" font-size="10.00">Address()</text>
<text text-anchor="start" x="278.62" y="-442.5" font-family="Helvetica,sans-Serif" font-size="10.00">+</text>
<text text-anchor="start" x="288.62" y="-442.5" font-family="Helvetica,sans-Serif" font-size="10.00">Address()</text>
<text text-anchor="start" x="278.62" y="-426.5" font-family="Helvetica,sans-Serif" font-size="10.00">+</text>
<text text-anchor="start" x="288.62" y="-426.5" font-family="Helvetica,sans-Serif" font-size="10.00">Address()</text>
<text text-anchor="start" x="278.62" y="-410.5" font-family="Helvetica,sans-Serif" font-size="10.00">+</text>
<text text-anchor="start" x="288.62" y="-410.5" font-family="Helvetica,sans-Serif" font-size="10.00">Address()</text>
<text text-anchor="start" x="278.62" y="-394.5" font-family="Helvetica,sans-Serif" font-size="10.00">+</text>
<text text-anchor="start" x="288.62" y="-394.5" font-family="Helvetica,sans-Serif" font-size="10.00">operator=()</text>
<text text-anchor="start" x="278.62" y="-378.5" font-family="Helvetica,sans-Serif" font-size="10.00">+</text>
<text text-anchor="start" x="288.62" y="-378.5" font-family="Helvetica,sans-Serif" font-size="10.00">operator=()</text>
<text text-anchor="start" x="278.62" y="-362.5" font-family="Helvetica,sans-Serif" font-size="10.00">+</text>
<text text-anchor="start" x="288.62" y="-362.5" font-family="Helvetica,sans-Serif" font-size="10.00">operator==()</text>
<text text-anchor="start" x="278.62" y="-346.5" font-family="Helvetica,sans-Serif" font-size="10.00">+</text>
<text text-anchor="start" x="288.62" y="-346.5" font-family="Helvetica,sans-Serif" font-size="10.00">get_address()</text>
<text text-anchor="start" x="278.62" y="-330.5" font-family="Helvetica,sans-Serif" font-size="10.00">+</text>
<text text-anchor="start" x="288.62" y="-330.5" font-family="Helvetica,sans-Serif" font-size="10.00">set_address()</text>
<text text-anchor="start" x="278.62" y="-314.5" font-family="Helvetica,sans-Serif" font-size="10.00">+</text>
<text text-anchor="start" x="288.62" y="-314.5" font-family="Helvetica,sans-Serif" font-size="10.00">copy()</text>
<text text-anchor="start" x="278.62" y="-298.5" font-family="Helvetica,sans-Serif" font-size="10.00">+</text>
<text text-anchor="start" x="288.62" y="-298.5" font-family="Helvetica,sans-Serif" font-size="10.00">~Address()</text>
<polygon fill="#666666" stroke="#666666" points="274.62,-502 274.62,-502 351.88,-502 351.88,-502 274.62,-502"/>
<polygon fill="#666666" stroke="#666666" points="274.62,-486 274.62,-486 286.62,-486 286.62,-486 274.62,-486"/>
<polygon fill="#666666" stroke="#666666" points="286.62,-486 286.62,-486 351.88,-486 351.88,-486 286.62,-486"/>
<polygon fill="none" stroke="#666666" points="274.62,-292 274.62,-520 351.88,-520 351.88,-292 274.62,-292"/>
</a>
</g>
</g>
<!-- Node5&#45;&gt;Node1 -->
<g id="edge4_Node000001_Node000005" class="edge">
<title>Node5&#45;&gt;Node1</title>
<g id="a_edge4_Node000001_Node000005"><a xlink:title=" ">
<path fill="none" stroke="#63b8ff" d="M290.08,-292.33C287.64,-280.49 285.15,-268.37 282.67,-256.32"/>
<polygon fill="none" stroke="#63b8ff" points="282.7,-256.45 277.57,-251.38 280.28,-244.7 285.41,-249.77 282.7,-256.45"/>
</a>
</g>
<text text-anchor="middle" x="308.86" y="-264.5" font-family="Helvetica,sans-Serif" font-size="10.00" fill="grey"> &#45;address_</text>
</g>
<!-- Node6 -->
<g id="Node000006" class="node">
<title>Node6</title>
<g id="a_Node000006"><a xlink:href="class_contacts.html" target="_top" xlink:title="Base class for contact&#45;related utilities.">
<polygon fill="white" stroke="none" points="365.25,-705 263.25,-705 263.25,-653 365.25,-653 365.25,-705"/>
<text text-anchor="start" x="294.38" y="-691.5" font-family="Helvetica,sans-Serif" font-size="10.00">Contacts</text>
<text text-anchor="start" x="312.75" y="-675.5" font-family="Helvetica,sans-Serif" font-size="10.00"> </text>
<text text-anchor="start" x="267.25" y="-659.5" font-family="Helvetica,sans-Serif" font-size="10.00">#</text>
<text text-anchor="start" x="276.5" y="-659.5" font-family="Helvetica,sans-Serif" font-size="10.00">copy_to_clipboard()</text>
<polygon fill="#666666" stroke="#666666" points="263.25,-687 263.25,-687 365.25,-687 365.25,-687 263.25,-687"/>
<polygon fill="#666666" stroke="#666666" points="263.25,-671 263.25,-671 365.25,-671 365.25,-671 263.25,-671"/>
<polygon fill="none" stroke="#666666" points="263.25,-653 263.25,-705 365.25,-705 365.25,-653 263.25,-653"/>
</a>
</g>
</g>
<!-- Node6&#45;&gt;Node5 -->
<g id="edge5_Node000005_Node000006" class="edge">
<title>Node6&#45;&gt;Node5</title>
<g id="a_edge5_Node000005_Node000006"><a xlink:title=" ">
<path fill="none" stroke="#63b8ff" d="M314.12,-642.29C314,-610.99 313.83,-563.73 313.67,-519.76"/>
<polygon fill="none" stroke="#63b8ff" points="310.62,-641.97 314.15,-651.96 317.62,-641.95 310.62,-641.97"/>
</a>
</g>
</g>
</g>
</svg>
