<?xml version="1.0" encoding="UTF-8" standalone="no"?>
<!DOCTYPE svg PUBLIC "-//W3C//DTD SVG 1.1//EN"
 "http://www.w3.org/Graphics/SVG/1.1/DTD/svg11.dtd">
<!-- Generated by graphviz version 12.2.1 (20241206.2353)
 -->
<!-- Title: Parent Pages: 1 -->
<svg width="193pt" height="697pt"
 viewBox="0.00 0.00 193.12 697.00" xmlns="http://www.w3.org/2000/svg" xmlns:xlink="http://www.w3.org/1999/xlink">
<g id="graph0" class="graph" transform="scale(1 1) rotate(0) translate(4 693)">
<title>Parent</title>
<!-- Node1 -->
<g id="Node000001" class="node">
<title>Node1</title>
<g id="a_Node000001"><a xlink:title="Represents a parent.">
<polygon fill="#999999" stroke="none" points="97,-276 15.25,-276 15.25,0 97,0 97,-276"/>
<text text-anchor="start" x="41.88" y="-262.5" font-family="Helvetica,sans-Serif" font-size="10.00">Parent</text>
<text text-anchor="start" x="19.62" y="-246.5" font-family="Helvetica,sans-Serif" font-size="10.00">#</text>
<text text-anchor="start" x="29.25" y="-246.5" font-family="Helvetica,sans-Serif" font-size="10.00">children_</text>
<text text-anchor="start" x="19.25" y="-230.5" font-family="Helvetica,sans-Serif" font-size="10.00">+</text>
<text text-anchor="start" x="29.25" y="-230.5" font-family="Helvetica,sans-Serif" font-size="10.00">Parent()</text>
<text text-anchor="start" x="19.25" y="-214.5" font-family="Helvetica,sans-Serif" font-size="10.00">+</text>
<text text-anchor="start" x="29.25" y="-214.5" font-family="Helvetica,sans-Serif" font-size="10.00">Parent()</text>
<text text-anchor="start" x="19.25" y="-198.5" font-family="Helvetica,sans-Serif" font-size="10.00">+</text>
<text text-anchor="start" x="29.25" y="-198.5" font-family="Helvetica,sans-Serif" font-size="10.00">Parent()</text>
<text text-anchor="start" x="19.25" y="-182.5" font-family="Helvetica,sans-Serif" font-size="10.00">+</text>
<text text-anchor="start" x="29.25" y="-182.5" font-family="Helvetica,sans-Serif" font-size="10.00">Parent()</text>
<text text-anchor="start" x="19.25" y="-166.5" font-family="Helvetica,sans-Serif" font-size="10.00">+</text>
<text text-anchor="start" x="29.25" y="-166.5" font-family="Helvetica,sans-Serif" font-size="10.00">Parent()</text>
<text text-anchor="start" x="19.25" y="-150.5" font-family="Helvetica,sans-Serif" font-size="10.00">+</text>
<text text-anchor="start" x="29.25" y="-150.5" font-family="Helvetica,sans-Serif" font-size="10.00">operator=()</text>
<text text-anchor="start" x="19.25" y="-134.5" font-family="Helvetica,sans-Serif" font-size="10.00">+</text>
<text text-anchor="start" x="29.25" y="-134.5" font-family="Helvetica,sans-Serif" font-size="10.00">operator=()</text>
<text text-anchor="start" x="19.25" y="-118.5" font-family="Helvetica,sans-Serif" font-size="10.00">+</text>
<text text-anchor="start" x="29.25" y="-118.5" font-family="Helvetica,sans-Serif" font-size="10.00">operator==()</text>
<text text-anchor="start" x="19.25" y="-102.5" font-family="Helvetica,sans-Serif" font-size="10.00">+</text>
<text text-anchor="start" x="29.25" y="-102.5" font-family="Helvetica,sans-Serif" font-size="10.00">operator!=()</text>
<text text-anchor="start" x="19.25" y="-86.5" font-family="Helvetica,sans-Serif" font-size="10.00">+</text>
<text text-anchor="start" x="29.25" y="-86.5" font-family="Helvetica,sans-Serif" font-size="10.00">get_email()</text>
<text text-anchor="start" x="19.25" y="-70.5" font-family="Helvetica,sans-Serif" font-size="10.00">+</text>
<text text-anchor="start" x="29.25" y="-70.5" font-family="Helvetica,sans-Serif" font-size="10.00">set_email()</text>
<text text-anchor="start" x="19.25" y="-54.5" font-family="Helvetica,sans-Serif" font-size="10.00">+</text>
<text text-anchor="start" x="29.25" y="-54.5" font-family="Helvetica,sans-Serif" font-size="10.00">get_children()</text>
<text text-anchor="start" x="19.25" y="-38.5" font-family="Helvetica,sans-Serif" font-size="10.00">+</text>
<text text-anchor="start" x="29.25" y="-38.5" font-family="Helvetica,sans-Serif" font-size="10.00">add_child()</text>
<text text-anchor="start" x="19.25" y="-22.5" font-family="Helvetica,sans-Serif" font-size="10.00">+</text>
<text text-anchor="start" x="29.25" y="-22.5" font-family="Helvetica,sans-Serif" font-size="10.00">remove_child()</text>
<text text-anchor="start" x="19.25" y="-6.5" font-family="Helvetica,sans-Serif" font-size="10.00">+</text>
<text text-anchor="start" x="29.25" y="-6.5" font-family="Helvetica,sans-Serif" font-size="10.00">~Parent()</text>
<polygon fill="#666666" stroke="#666666" points="15.25,-258 15.25,-258 97,-258 97,-258 15.25,-258"/>
<polygon fill="#666666" stroke="#666666" points="15.25,-242 15.25,-242 27.25,-242 27.25,-242 15.25,-242"/>
<polygon fill="#666666" stroke="#666666" points="27.25,-242 27.25,-242 97,-242 97,-242 27.25,-242"/>
<polygon fill="none" stroke="#666666" points="15.25,0 15.25,-276 97,-276 97,0 15.25,0"/>
</a>
</g>
</g>
<!-- Node2 -->
<g id="Node000002" class="node">
<title>Node2</title>
<g id="a_Node000002"><a xlink:href="class_person.html" target="_top" xlink:title="Represents a generic person.">
<polygon fill="white" stroke="none" points="80.25,-600 0,-600 0,-324 80.25,-324 80.25,-600"/>
<text text-anchor="start" x="24.75" y="-586.5" font-family="Helvetica,sans-Serif" font-size="10.00">Person</text>
<text text-anchor="start" x="4.38" y="-570.5" font-family="Helvetica,sans-Serif" font-size="10.00">#</text>
<text text-anchor="start" x="14" y="-570.5" font-family="Helvetica,sans-Serif" font-size="10.00">name_</text>
<text text-anchor="start" x="4.38" y="-554.5" font-family="Helvetica,sans-Serif" font-size="10.00">#</text>
<text text-anchor="start" x="14" y="-554.5" font-family="Helvetica,sans-Serif" font-size="10.00">surname_</text>
<text text-anchor="start" x="4" y="-538.5" font-family="Helvetica,sans-Serif" font-size="10.00">+</text>
<text text-anchor="start" x="14" y="-538.5" font-family="Helvetica,sans-Serif" font-size="10.00">Person()</text>
<text text-anchor="start" x="4" y="-522.5" font-family="Helvetica,sans-Serif" font-size="10.00">+</text>
<text text-anchor="start" x="14" y="-522.5" font-family="Helvetica,sans-Serif" font-size="10.00">Person()</text>
<text text-anchor="start" x="4" y="-506.5" font-family="Helvetica,sans-Serif" font-size="10.00">+</text>
<text text-anchor="start" x="14" y="-506.5" font-family="Helvetica,sans-Serif" font-size="10.00">Person()</text>
<text text-anchor="start" x="4" y="-490.5" font-family="Helvetica,sans-Serif" font-size="10.00">+</text>
<text text-anchor="start" x="14" y="-490.5" font-family="Helvetica,sans-Serif" font-size="10.00">Person()</text>
<text text-anchor="start" x="4" y="-474.5" font-family="Helvetica,sans-Serif" font-size="10.00">+</text>
<text text-anchor="start" x="14" y="-474.5" font-family="Helvetica,sans-Serif" font-size="10.00">Person()</text>
<text text-anchor="start" x="4" y="-458.5" font-family="Helvetica,sans-Serif" font-size="10.00">+</text>
<text text-anchor="start" x="14" y="-458.5" font-family="Helvetica,sans-Serif" font-size="10.00">operator=()</text>
<text text-anchor="start" x="4" y="-442.5" font-family="Helvetica,sans-Serif" font-size="10.00">+</text>
<text text-anchor="start" x="14" y="-442.5" font-family="Helvetica,sans-Serif" font-size="10.00">operator=()</text>
<text text-anchor="start" x="4" y="-426.5" font-family="Helvetica,sans-Serif" font-size="10.00">+</text>
<text text-anchor="start" x="14" y="-426.5" font-family="Helvetica,sans-Serif" font-size="10.00">operator==()</text>
<text text-anchor="start" x="4" y="-410.5" font-family="Helvetica,sans-Serif" font-size="10.00">+</text>
<text text-anchor="start" x="14" y="-410.5" font-family="Helvetica,sans-Serif" font-size="10.00">operator!=()</text>
<text text-anchor="start" x="4" y="-394.5" font-family="Helvetica,sans-Serif" font-size="10.00">+</text>
<text text-anchor="start" x="14" y="-394.5" font-family="Helvetica,sans-Serif" font-size="10.00">get_name()</text>
<text text-anchor="start" x="4" y="-378.5" font-family="Helvetica,sans-Serif" font-size="10.00">+</text>
<text text-anchor="start" x="14" y="-378.5" font-family="Helvetica,sans-Serif" font-size="10.00">set_name()</text>
<text text-anchor="start" x="4" y="-362.5" font-family="Helvetica,sans-Serif" font-size="10.00">+</text>
<text text-anchor="start" x="14" y="-362.5" font-family="Helvetica,sans-Serif" font-size="10.00">get_surname()</text>
<text text-anchor="start" x="4" y="-346.5" font-family="Helvetica,sans-Serif" font-size="10.00">+</text>
<text text-anchor="start" x="14" y="-346.5" font-family="Helvetica,sans-Serif" font-size="10.00">set_surname()</text>
<text text-anchor="start" x="4" y="-330.5" font-family="Helvetica,sans-Serif" font-size="10.00">+</text>
<text text-anchor="start" x="14" y="-330.5" font-family="Helvetica,sans-Serif" font-size="10.00">~Person()</text>
<polygon fill="#666666" stroke="#666666" points="0,-582 0,-582 80.25,-582 80.25,-582 0,-582"/>
<polygon fill="#666666" stroke="#666666" points="0,-550 0,-550 12,-550 12,-550 0,-550"/>
<polygon fill="#666666" stroke="#666666" points="12,-550 12,-550 80.25,-550 80.25,-550 12,-550"/>
<polygon fill="none" stroke="#666666" points="0,-324 0,-600 80.25,-600 80.25,-324 0,-324"/>
</a>
</g>
</g>
<!-- Node2&#45;&gt;Node1 -->
<g id="edge1_Node000001_Node000002" class="edge">
<title>Node2&#45;&gt;Node1</title>
<g id="a_edge1_Node000001_Node000002"><a xlink:title=" ">
<path fill="none" stroke="#63b8ff" d="M47.48,-313.07C48.09,-300.64 48.72,-288.11 49.33,-275.77"/>
<polygon fill="none" stroke="#63b8ff" points="43.99,-312.77 46.99,-322.93 50.98,-313.12 43.99,-312.77"/>
</a>
</g>
</g>
<!-- Node3 -->
<g id="Node000003" class="node">
<title>Node3</title>
<g id="a_Node000003"><a xlink:href="class_email.html" target="_top" xlink:title="Represents an email address.">
<polygon fill="white" stroke="none" points="169.75,-576 98.5,-576 98.5,-348 169.75,-348 169.75,-576"/>
<text text-anchor="start" x="121.75" y="-562.5" font-family="Helvetica,sans-Serif" font-size="10.00">Email</text>
<text text-anchor="start" x="104" y="-546.5" font-family="Helvetica,sans-Serif" font-size="10.00">&#45;</text>
<text text-anchor="start" x="112.5" y="-546.5" font-family="Helvetica,sans-Serif" font-size="10.00">email_</text>
<text text-anchor="start" x="102.5" y="-530.5" font-family="Helvetica,sans-Serif" font-size="10.00">+</text>
<text text-anchor="start" x="112.5" y="-530.5" font-family="Helvetica,sans-Serif" font-size="10.00">Email()</text>
<text text-anchor="start" x="102.5" y="-514.5" font-family="Helvetica,sans-Serif" font-size="10.00">+</text>
<text text-anchor="start" x="112.5" y="-514.5" font-family="Helvetica,sans-Serif" font-size="10.00">Email()</text>
<text text-anchor="start" x="102.5" y="-498.5" font-family="Helvetica,sans-Serif" font-size="10.00">+</text>
<text text-anchor="start" x="112.5" y="-498.5" font-family="Helvetica,sans-Serif" font-size="10.00">Email()</text>
<text text-anchor="start" x="102.5" y="-482.5" font-family="Helvetica,sans-Serif" font-size="10.00">+</text>
<text text-anchor="start" x="112.5" y="-482.5" font-family="Helvetica,sans-Serif" font-size="10.00">Email()</text>
<text text-anchor="start" x="102.5" y="-466.5" font-family="Helvetica,sans-Serif" font-size="10.00">+</text>
<text text-anchor="start" x="112.5" y="-466.5" font-family="Helvetica,sans-Serif" font-size="10.00">Email()</text>
<text text-anchor="start" x="102.5" y="-450.5" font-family="Helvetica,sans-Serif" font-size="10.00">+</text>
<text text-anchor="start" x="112.5" y="-450.5" font-family="Helvetica,sans-Serif" font-size="10.00">operator=()</text>
<text text-anchor="start" x="102.5" y="-434.5" font-family="Helvetica,sans-Serif" font-size="10.00">+</text>
<text text-anchor="start" x="112.5" y="-434.5" font-family="Helvetica,sans-Serif" font-size="10.00">operator=()</text>
<text text-anchor="start" x="102.5" y="-418.5" font-family="Helvetica,sans-Serif" font-size="10.00">+</text>
<text text-anchor="start" x="112.5" y="-418.5" font-family="Helvetica,sans-Serif" font-size="10.00">operator==()</text>
<text text-anchor="start" x="102.5" y="-402.5" font-family="Helvetica,sans-Serif" font-size="10.00">+</text>
<text text-anchor="start" x="112.5" y="-402.5" font-family="Helvetica,sans-Serif" font-size="10.00">get_email()</text>
<text text-anchor="start" x="102.5" y="-386.5" font-family="Helvetica,sans-Serif" font-size="10.00">+</text>
<text text-anchor="start" x="112.5" y="-386.5" font-family="Helvetica,sans-Serif" font-size="10.00">set_email()</text>
<text text-anchor="start" x="102.5" y="-370.5" font-family="Helvetica,sans-Serif" font-size="10.00">+</text>
<text text-anchor="start" x="112.5" y="-370.5" font-family="Helvetica,sans-Serif" font-size="10.00">copy()</text>
<text text-anchor="start" x="102.5" y="-354.5" font-family="Helvetica,sans-Serif" font-size="10.00">+</text>
<text text-anchor="start" x="112.5" y="-354.5" font-family="Helvetica,sans-Serif" font-size="10.00">~Email()</text>
<polygon fill="#666666" stroke="#666666" points="98.5,-558 98.5,-558 169.75,-558 169.75,-558 98.5,-558"/>
<polygon fill="#666666" stroke="#666666" points="98.5,-542 98.5,-542 110.5,-542 110.5,-542 98.5,-542"/>
<polygon fill="#666666" stroke="#666666" points="110.5,-542 110.5,-542 169.75,-542 169.75,-542 110.5,-542"/>
<polygon fill="none" stroke="#666666" points="98.5,-348 98.5,-576 169.75,-576 169.75,-348 98.5,-348"/>
</a>
</g>
</g>
<!-- Node3&#45;&gt;Node1 -->
<g id="edge2_Node000001_Node000003" class="edge">
<title>Node3&#45;&gt;Node1</title>
<g id="a_edge2_Node000001_Node000003"><a xlink:title=" ">
<path fill="none" stroke="#63b8ff" d="M106.84,-348.38C102.15,-329.01 97.21,-308.6 92.32,-288.44"/>
<polygon fill="none" stroke="#63b8ff" points="92.33,-288.47 87.03,-283.58 89.51,-276.81 94.81,-281.69 92.33,-288.47"/>
</a>
</g>
<text text-anchor="middle" x="113.5" y="-296.5" font-family="Helvetica,sans-Serif" font-size="10.00" fill="grey"> #email_</text>
</g>
<!-- Node4 -->
<g id="Node000004" class="node">
<title>Node4</title>
<g id="a_Node000004"><a xlink:href="class_contacts.html" target="_top" xlink:title="Base class for contact&#45;related utilities.">
<polygon fill="white" stroke="none" points="185.12,-689 83.12,-689 83.12,-637 185.12,-637 185.12,-689"/>
<text text-anchor="start" x="114.25" y="-675.5" font-family="Helvetica,sans-Serif" font-size="10.00">Contacts</text>
<text text-anchor="start" x="132.62" y="-659.5" font-family="Helvetica,sans-Serif" font-size="10.00"> </text>
<text text-anchor="start" x="87.12" y="-643.5" font-family="Helvetica,sans-Serif" font-size="10.00">#</text>
<text text-anchor="start" x="96.38" y="-643.5" font-family="Helvetica,sans-Serif" font-size="10.00">copy_to_clipboard()</text>
<polygon fill="#666666" stroke="#666666" points="83.12,-671 83.12,-671 185.12,-671 185.12,-671 83.12,-671"/>
<polygon fill="#666666" stroke="#666666" points="83.12,-655 83.12,-655 185.12,-655 185.12,-655 83.12,-655"/>
<polygon fill="none" stroke="#666666" points="83.12,-637 83.12,-689 185.12,-689 185.12,-637 83.12,-637"/>
</a>
</g>
</g>
<!-- Node4&#45;&gt;Node3 -->
<g id="edge3_Node000003_Node000004" class="edge">
<title>Node4&#45;&gt;Node3</title>
<g id="a_edge3_Node000003_Node000004"><a xlink:title=" ">
<path fill="none" stroke="#63b8ff" d="M134.12,-625.85C134.12,-611.41 134.12,-593.94 134.12,-575.87"/>
<polygon fill="none" stroke="#63b8ff" points="130.63,-625.69 134.13,-635.69 137.63,-625.69 130.63,-625.69"/>
</a>
</g>
</g>
</g>
</svg>
