<?xml version="1.0" encoding="UTF-8" standalone="no"?>
<!DOCTYPE svg PUBLIC "-//W3C//DTD SVG 1.1//EN"
 "http://www.w3.org/Graphics/SVG/1.1/DTD/svg11.dtd">
<!-- Generated by graphviz version 12.2.1 (20241206.2353)
 -->
<!-- Title: Child::Child Pages: 1 -->
<svg width="203pt" height="294pt"
 viewBox="0.00 0.00 202.75 294.00" xmlns="http://www.w3.org/2000/svg" xmlns:xlink="http://www.w3.org/1999/xlink">
<g id="graph0" class="graph" transform="scale(1 1) rotate(0) translate(4 290)">
<title>Child::Child</title>
<!-- Node1 -->
<g id="Node000001" class="node">
<title>Node1</title>
<g id="a_Node000001"><a xlink:title="Default constructor.">
<polygon fill="#999999" stroke="#666666" points="194.75,-153 127.75,-153 127.75,-133 194.75,-133 194.75,-153"/>
<text text-anchor="middle" x="161.25" y="-139.5" font-family="Helvetica,sans-Serif" font-size="10.00">Child::Child</text>
</a>
</g>
</g>
<!-- Node2 -->
<g id="Node000002" class="node">
<title>Node2</title>
<g id="a_Node000002"><a xlink:href="class_child.html#ae5f51034d434da38a051c80247fce16b" target="_top" xlink:title=" ">
<polygon fill="white" stroke="#666666" points="79.38,-286 12.38,-286 12.38,-266 79.38,-266 79.38,-286"/>
<text text-anchor="middle" x="45.88" y="-272.5" font-family="Helvetica,sans-Serif" font-size="10.00">Child::Child</text>
</a>
</g>
</g>
<!-- Node1&#45;&gt;Node2 -->
<g id="edge1_Node000001_Node000002" class="edge">
<title>Node1&#45;&gt;Node2</title>
<g id="a_edge1_Node000001_Node000002"><a xlink:title=" ">
<path fill="none" stroke="#63b8ff" d="M152.46,-163.83C142.09,-188.98 121.55,-231.12 91.75,-257 87.79,-260.44 83.12,-263.33 78.31,-265.73"/>
<polygon fill="#63b8ff" stroke="#63b8ff" points="155.64,-165.28 156.06,-154.7 149.13,-162.72 155.64,-165.28"/>
</a>
</g>
</g>
<!-- Node3 -->
<g id="Node000003" class="node">
<title>Node3</title>
<g id="a_Node000003"><a xlink:href="class_child.html#aedd73cc20469fa67c076540b4414a45a" target="_top" xlink:title=" ">
<polygon fill="white" stroke="#666666" points="79.38,-248 12.38,-248 12.38,-228 79.38,-228 79.38,-248"/>
<text text-anchor="middle" x="45.88" y="-234.5" font-family="Helvetica,sans-Serif" font-size="10.00">Child::Child</text>
</a>
</g>
</g>
<!-- Node1&#45;&gt;Node3 -->
<g id="edge2_Node000001_Node000003" class="edge">
<title>Node1&#45;&gt;Node3</title>
<g id="a_edge2_Node000001_Node000003"><a xlink:title=" ">
<path fill="none" stroke="#63b8ff" d="M146.65,-162.36C134.02,-179.17 113.88,-203.24 91.75,-219 87.06,-222.34 81.7,-225.24 76.35,-227.71"/>
<polygon fill="#63b8ff" stroke="#63b8ff" points="149.22,-164.78 152.28,-154.64 143.56,-160.65 149.22,-164.78"/>
</a>
</g>
</g>
<!-- Node4 -->
<g id="Node000004" class="node">
<title>Node4</title>
<g id="a_Node000004"><a xlink:href="class_child.html#a79ddbee81879491006d94d2b631fd608" target="_top" xlink:title="Inequality operator.">
<polygon fill="white" stroke="#666666" points="90.25,-210 1.5,-210 1.5,-190 90.25,-190 90.25,-210"/>
<text text-anchor="middle" x="45.88" y="-196.5" font-family="Helvetica,sans-Serif" font-size="10.00">Child::operator!=</text>
</a>
</g>
</g>
<!-- Node1&#45;&gt;Node4 -->
<g id="edge3_Node000001_Node000004" class="edge">
<title>Node1&#45;&gt;Node4</title>
<g id="a_edge3_Node000001_Node000004"><a xlink:title=" ">
<path fill="none" stroke="#63b8ff" d="M133.03,-158.97C120.6,-166.03 105.6,-174.25 91.75,-181 85.67,-183.97 79,-186.93 72.71,-189.61"/>
<polygon fill="#63b8ff" stroke="#63b8ff" points="134.54,-162.14 141.47,-154.12 131.05,-156.07 134.54,-162.14"/>
</a>
</g>
</g>
<!-- Node5 -->
<g id="Node000005" class="node">
<title>Node5</title>
<g id="a_Node000005"><a xlink:href="class_child.html#a7e44a9fa1706cf6514aae81ad646eb02" target="_top" xlink:title="Outputs the Child object to a stream.">
<polygon fill="white" stroke="#666666" points="91.75,-172 0,-172 0,-152 91.75,-152 91.75,-172"/>
<text text-anchor="middle" x="45.88" y="-158.5" font-family="Helvetica,sans-Serif" font-size="10.00">Child::operator&lt;&lt;</text>
</a>
</g>
</g>
<!-- Node1&#45;&gt;Node5 -->
<g id="edge4_Node000001_Node000005" class="edge">
<title>Node1&#45;&gt;Node5</title>
<g id="a_edge4_Node000001_Node000005"><a xlink:title=" ">
<path fill="none" stroke="#63b8ff" d="M116.24,-150.37C108.37,-151.69 100.15,-153.07 92.24,-154.4"/>
<polygon fill="#63b8ff" stroke="#63b8ff" points="116.68,-153.85 125.96,-148.75 115.52,-146.95 116.68,-153.85"/>
</a>
</g>
</g>
<!-- Node6 -->
<g id="Node000006" class="node">
<title>Node6</title>
<g id="a_Node000006"><a xlink:href="class_child.html#a68cd91cff9cb5561f344897c1e71d4e2" target="_top" xlink:title=" ">
<polygon fill="white" stroke="#666666" points="88.75,-134 3,-134 3,-114 88.75,-114 88.75,-134"/>
<text text-anchor="middle" x="45.88" y="-120.5" font-family="Helvetica,sans-Serif" font-size="10.00">Child::operator=</text>
</a>
</g>
</g>
<!-- Node1&#45;&gt;Node6 -->
<g id="edge5_Node000001_Node000006" class="edge">
<title>Node1&#45;&gt;Node6</title>
<g id="a_edge5_Node000001_Node000006"><a xlink:title=" ">
<path fill="none" stroke="#63b8ff" d="M116.35,-135.64C107.33,-134.13 97.85,-132.54 88.9,-131.04"/>
<polygon fill="#63b8ff" stroke="#63b8ff" points="115.52,-139.05 125.96,-137.25 116.68,-132.15 115.52,-139.05"/>
</a>
</g>
</g>
<!-- Node7 -->
<g id="Node000007" class="node">
<title>Node7</title>
<g id="a_Node000007"><a xlink:href="class_child.html#a5c4d001a24486e4027b6a5f6e59b2438" target="_top" xlink:title=" ">
<polygon fill="white" stroke="#666666" points="88.75,-96 3,-96 3,-76 88.75,-76 88.75,-96"/>
<text text-anchor="middle" x="45.88" y="-82.5" font-family="Helvetica,sans-Serif" font-size="10.00">Child::operator=</text>
</a>
</g>
</g>
<!-- Node1&#45;&gt;Node7 -->
<g id="edge6_Node000001_Node000007" class="edge">
<title>Node1&#45;&gt;Node7</title>
<g id="a_edge6_Node000001_Node000007"><a xlink:title=" ">
<path fill="none" stroke="#63b8ff" d="M133.03,-127.03C120.6,-119.97 105.6,-111.75 91.75,-105 85.67,-102.03 79,-99.07 72.71,-96.39"/>
<polygon fill="#63b8ff" stroke="#63b8ff" points="131.05,-129.93 141.47,-131.88 134.54,-123.86 131.05,-129.93"/>
</a>
</g>
</g>
<!-- Node8 -->
<g id="Node000008" class="node">
<title>Node8</title>
<g id="a_Node000008"><a xlink:href="class_child.html#a6a525ff7510e4eab1314b1fe5e125421" target="_top" xlink:title="Equality operator.">
<polygon fill="white" stroke="#666666" points="91.75,-58 0,-58 0,-38 91.75,-38 91.75,-58"/>
<text text-anchor="middle" x="45.88" y="-44.5" font-family="Helvetica,sans-Serif" font-size="10.00">Child::operator==</text>
</a>
</g>
</g>
<!-- Node1&#45;&gt;Node8 -->
<g id="edge7_Node000001_Node000008" class="edge">
<title>Node1&#45;&gt;Node8</title>
<g id="a_edge7_Node000001_Node000008"><a xlink:title=" ">
<path fill="none" stroke="#63b8ff" d="M146.65,-123.64C134.02,-106.83 113.88,-82.76 91.75,-67 87.06,-63.66 81.7,-60.76 76.35,-58.29"/>
<polygon fill="#63b8ff" stroke="#63b8ff" points="143.56,-125.35 152.28,-131.36 149.22,-121.22 143.56,-125.35"/>
</a>
</g>
</g>
<!-- Node9 -->
<g id="Node000009" class="node">
<title>Node9</title>
<g id="a_Node000009"><a xlink:href="class_child.html#a264b4ab372882b4f32c20e094030debb" target="_top" xlink:title="Destructor.">
<polygon fill="white" stroke="#666666" points="82.38,-20 9.38,-20 9.38,0 82.38,0 82.38,-20"/>
<text text-anchor="middle" x="45.88" y="-6.5" font-family="Helvetica,sans-Serif" font-size="10.00">Child::~Child</text>
</a>
</g>
</g>
<!-- Node1&#45;&gt;Node9 -->
<g id="edge8_Node000001_Node000009" class="edge">
<title>Node1&#45;&gt;Node9</title>
<g id="a_edge8_Node000001_Node000009"><a xlink:title=" ">
<path fill="none" stroke="#63b8ff" d="M152.46,-122.17C142.09,-97.02 121.55,-54.88 91.75,-29 87.79,-25.56 83.12,-22.67 78.31,-20.27"/>
<polygon fill="#63b8ff" stroke="#63b8ff" points="149.13,-123.28 156.06,-131.3 155.64,-120.72 149.13,-123.28"/>
</a>
</g>
</g>
</g>
</svg>
