<?xml version="1.0" encoding="UTF-8" standalone="no"?>
<!DOCTYPE svg PUBLIC "-//W3C//DTD SVG 1.1//EN"
 "http://www.w3.org/Graphics/SVG/1.1/DTD/svg11.dtd">
<!-- Generated by graphviz version 12.2.1 (20241206.2353)
 -->
<!-- Title: DataBaseGUI::lesson_sort_change Pages: 1 -->
<svg width="618pt" height="128pt"
 viewBox="0.00 0.00 618.00 128.00" xmlns="http://www.w3.org/2000/svg" xmlns:xlink="http://www.w3.org/1999/xlink">
<g id="graph0" class="graph" transform="scale(1 1) rotate(0) translate(4 124)">
<title>DataBaseGUI::lesson_sort_change</title>
<!-- Node1 -->
<g id="Node000001" class="node">
<title>Node1</title>
<g id="a_Node000001"><a xlink:title="Changes the sorting method for lessons.">
<polygon fill="#999999" stroke="#666666" points="112,-94 0,-94 0,-62 112,-62 112,-94"/>
<text text-anchor="start" x="8" y="-80.5" font-family="Helvetica,sans-Serif" font-size="10.00">DataBaseGUI::lesson</text>
<text text-anchor="middle" x="56" y="-68.5" font-family="Helvetica,sans-Serif" font-size="10.00">_sort_change</text>
</a>
</g>
</g>
<!-- Node2 -->
<g id="Node000002" class="node">
<title>Node2</title>
<g id="a_Node000002"><a xlink:href="class_data_base_g_u_i.html#a1ad152b7becf3e0051cdd5dbae6d4abc" target="_top" xlink:title="Selects the appropriate sorting to use based on lesson sort index.">
<polygon fill="white" stroke="#666666" points="261.5,-94 148,-94 148,-62 261.5,-62 261.5,-94"/>
<text text-anchor="start" x="156" y="-80.5" font-family="Helvetica,sans-Serif" font-size="10.00">DataBaseGUI::sort_to</text>
<text text-anchor="middle" x="204.75" y="-68.5" font-family="Helvetica,sans-Serif" font-size="10.00">_populate_lesson_tab</text>
</a>
</g>
</g>
<!-- Node1&#45;&gt;Node2 -->
<g id="edge1_Node000001_Node000002" class="edge">
<title>Node1&#45;&gt;Node2</title>
<g id="a_edge1_Node000001_Node000002"><a xlink:title=" ">
<path fill="none" stroke="#63b8ff" d="M112.48,-78C120.31,-78 128.44,-78 136.46,-78"/>
<polygon fill="#63b8ff" stroke="#63b8ff" points="136.19,-81.5 146.19,-78 136.19,-74.5 136.19,-81.5"/>
</a>
</g>
</g>
<!-- Node3 -->
<g id="Node000003" class="node">
<title>Node3</title>
<g id="a_Node000003"><a xlink:href="class_data_base_g_u_i.html#aa6b02e4e81b0113fb1c75d7d5ef0be59" target="_top" xlink:title="Populates the lessons tab with a list of lessons.">
<polygon fill="white" stroke="#666666" points="417.75,-71 297.5,-71 297.5,-39 417.75,-39 417.75,-71"/>
<text text-anchor="start" x="305.5" y="-57.5" font-family="Helvetica,sans-Serif" font-size="10.00">DataBaseGUI::populate</text>
<text text-anchor="middle" x="357.62" y="-45.5" font-family="Helvetica,sans-Serif" font-size="10.00">_lesson_tab</text>
</a>
</g>
</g>
<!-- Node2&#45;&gt;Node3 -->
<g id="edge2_Node000002_Node000003" class="edge">
<title>Node2&#45;&gt;Node3</title>
<g id="a_edge2_Node000002_Node000003"><a xlink:title=" ">
<path fill="none" stroke="#63b8ff" d="M261.93,-69.44C269.73,-68.25 277.83,-67.01 285.85,-65.79"/>
<polygon fill="#63b8ff" stroke="#63b8ff" points="286.26,-69.27 295.62,-64.3 285.2,-62.35 286.26,-69.27"/>
</a>
</g>
</g>
<!-- Node4 -->
<g id="Node000004" class="node">
<title>Node4</title>
<g id="a_Node000004"><a xlink:href="class_data_base_g_u_i.html#a66a3e89a9852de3522d98f2c1f8cdeed" target="_top" xlink:title="Removes a lesson from the database.">
<polygon fill="white" stroke="#666666" points="587.88,-120 475.88,-120 475.88,-88 587.88,-88 587.88,-120"/>
<text text-anchor="start" x="483.88" y="-106.5" font-family="Helvetica,sans-Serif" font-size="10.00">DataBaseGUI::lesson</text>
<text text-anchor="middle" x="531.88" y="-94.5" font-family="Helvetica,sans-Serif" font-size="10.00">_remove</text>
</a>
</g>
</g>
<!-- Node3&#45;&gt;Node4 -->
<g id="edge3_Node000003_Node000004" class="edge">
<title>Node3&#45;&gt;Node4</title>
<g id="a_edge3_Node000003_Node000004"><a xlink:title=" ">
<path fill="none" stroke="#63b8ff" d="M416.46,-71.45C431.95,-75.86 448.8,-80.65 464.7,-85.18"/>
<polygon fill="#63b8ff" stroke="#63b8ff" points="463.49,-88.47 474.07,-87.84 465.41,-81.74 463.49,-88.47"/>
</a>
</g>
</g>
<!-- Node5 -->
<g id="Node000005" class="node">
<title>Node5</title>
<g id="a_Node000005"><a xlink:href="class_data_base_g_u_i.html#a2cb0d5bb3e2e1795dd1e9fd61d51544c" target="_top" xlink:title="Clears the lessons tab.">
<polygon fill="white" stroke="#666666" points="587.88,-70 475.88,-70 475.88,-38 587.88,-38 587.88,-70"/>
<text text-anchor="start" x="483.88" y="-56.5" font-family="Helvetica,sans-Serif" font-size="10.00">DataBaseGUI::lesson</text>
<text text-anchor="middle" x="531.88" y="-44.5" font-family="Helvetica,sans-Serif" font-size="10.00">_tab_clear</text>
</a>
</g>
</g>
<!-- Node3&#45;&gt;Node5 -->
<g id="edge5_Node000003_Node000005" class="edge">
<title>Node3&#45;&gt;Node5</title>
<g id="a_edge5_Node000003_Node000005"><a xlink:title=" ">
<path fill="none" stroke="#63b8ff" d="M417.9,-54.66C432.79,-54.57 448.87,-54.48 464.1,-54.39"/>
<polygon fill="#63b8ff" stroke="#63b8ff" points="464.05,-57.89 474.03,-54.33 464.01,-50.89 464.05,-57.89"/>
</a>
</g>
</g>
<!-- Node6 -->
<g id="Node000006" class="node">
<title>Node6</title>
<g id="a_Node000006"><a xlink:href="class_lesson_entry.html#ac407f16eaac263953c0c07079cac4064" target="_top" xlink:title="Signal emitted when a lesson removal is requested.">
<polygon fill="white" stroke="#666666" points="610,-20 453.75,-20 453.75,0 610,0 610,-20"/>
<text text-anchor="middle" x="531.88" y="-6.5" font-family="Helvetica,sans-Serif" font-size="10.00">LessonEntry::removeRequested</text>
</a>
</g>
</g>
<!-- Node3&#45;&gt;Node6 -->
<g id="edge6_Node000003_Node000006" class="edge">
<title>Node3&#45;&gt;Node6</title>
<g id="a_edge6_Node000003_Node000006"><a xlink:title=" ">
<path fill="none" stroke="#63b8ff" d="M417.93,-38.54C429.78,-35.32 442.15,-32.01 453.75,-29 461.1,-27.09 468.86,-25.12 476.52,-23.21"/>
<polygon fill="#63b8ff" stroke="#63b8ff" points="477.26,-26.63 486.12,-20.82 475.57,-19.84 477.26,-26.63"/>
</a>
</g>
</g>
<!-- Node4&#45;&gt;Node2 -->
<g id="edge4_Node000004_Node000002" class="edge">
<title>Node4&#45;&gt;Node2</title>
<g id="a_edge4_Node000004_Node000002"><a xlink:title=" ">
<path fill="none" stroke="#63b8ff" d="M475.44,-99.57C419.41,-95.09 332.76,-88.16 272.87,-83.37"/>
<polygon fill="#63b8ff" stroke="#63b8ff" points="273.4,-79.9 263.15,-82.59 272.84,-86.88 273.4,-79.9"/>
</a>
</g>
</g>
</g>
</svg>
