<?xml version="1.0" encoding="UTF-8" standalone="no"?>
<!DOCTYPE svg PUBLIC "-//W3C//DTD SVG 1.1//EN"
 "http://www.w3.org/Graphics/SVG/1.1/DTD/svg11.dtd">
<!-- Generated by graphviz version 12.2.1 (20241206.2353)
 -->
<!-- Title: Ui_ChildCheckBoxClass Pages: 1 -->
<svg width="125pt" height="92pt"
 viewBox="0.00 0.00 124.75 92.00" xmlns="http://www.w3.org/2000/svg" xmlns:xlink="http://www.w3.org/1999/xlink">
<g id="graph0" class="graph" transform="scale(1 1) rotate(0) translate(4 88)">
<title>Ui_ChildCheckBoxClass</title>
<!-- Node1 -->
<g id="Node000001" class="node">
<title>Node1</title>
<g id="a_Node000001"><a xlink:title=" ">
<polygon fill="#999999" stroke="none" points="116.75,-84 0,-84 0,0 116.75,0 116.75,-84"/>
<text text-anchor="start" x="4" y="-70.5" font-family="Helvetica,sans-Serif" font-size="10.00">Ui_ChildCheckBoxClass</text>
<text text-anchor="start" x="11.44" y="-54.5" font-family="Helvetica,sans-Serif" font-size="10.00">+</text>
<text text-anchor="start" x="28.88" y="-54.5" font-family="Helvetica,sans-Serif" font-size="10.00">verticalLayout</text>
<text text-anchor="start" x="11.44" y="-38.5" font-family="Helvetica,sans-Serif" font-size="10.00">+</text>
<text text-anchor="start" x="28.88" y="-38.5" font-family="Helvetica,sans-Serif" font-size="10.00">child_checkBox</text>
<text text-anchor="start" x="11.44" y="-22.5" font-family="Helvetica,sans-Serif" font-size="10.00">+</text>
<text text-anchor="start" x="28.88" y="-22.5" font-family="Helvetica,sans-Serif" font-size="10.00">setupUi()</text>
<text text-anchor="start" x="11.44" y="-6.5" font-family="Helvetica,sans-Serif" font-size="10.00">+</text>
<text text-anchor="start" x="28.88" y="-6.5" font-family="Helvetica,sans-Serif" font-size="10.00">retranslateUi()</text>
<polygon fill="#666666" stroke="#666666" points="0,-66 0,-66 116.75,-66 116.75,-66 0,-66"/>
<polygon fill="#666666" stroke="#666666" points="0,-34 0,-34 26.88,-34 26.88,-34 0,-34"/>
<polygon fill="#666666" stroke="#666666" points="26.88,-34 26.88,-34 116.75,-34 116.75,-34 26.88,-34"/>
<polygon fill="none" stroke="#666666" points="0,0 0,-84 116.75,-84 116.75,0 0,0"/>
</a>
</g>
</g>
</g>
</svg>
