<?xml version="1.0" encoding="UTF-8" standalone="no"?>
<!DOCTYPE svg PUBLIC "-//W3C//DTD SVG 1.1//EN"
 "http://www.w3.org/Graphics/SVG/1.1/DTD/svg11.dtd">
<!-- Generated by graphviz version 12.2.1 (20241206.2353)
 -->
<!-- Title: DataBaseGUI::sort_to_populate_parent_tab Pages: 1 -->
<svg width="1565pt" height="620pt"
 viewBox="0.00 0.00 1564.50 620.24" xmlns="http://www.w3.org/2000/svg" xmlns:xlink="http://www.w3.org/1999/xlink">
<g id="graph0" class="graph" transform="scale(1 1) rotate(0) translate(4 616.24)">
<title>DataBaseGUI::sort_to_populate_parent_tab</title>
<!-- Node1 -->
<g id="Node000001" class="node">
<title>Node1</title>
<g id="a_Node000001"><a xlink:title="Selects the appropriate sorting to use based on parent sort index.">
<polygon fill="#999999" stroke="#666666" points="1556.5,-215 1443,-215 1443,-183 1556.5,-183 1556.5,-215"/>
<text text-anchor="start" x="1451" y="-201.5" font-family="Helvetica,sans-Serif" font-size="10.00">DataBaseGUI::sort_to</text>
<text text-anchor="middle" x="1499.75" y="-189.5" font-family="Helvetica,sans-Serif" font-size="10.00">_populate_parent_tab</text>
</a>
</g>
</g>
<!-- Node2 -->
<g id="Node000002" class="node">
<title>Node2</title>
<g id="a_Node000002"><a xlink:href="class_data_base_g_u_i.html#a336fa47d9a9e56d585d82f53d33e8593" target="_top" xlink:title="Adds a new parent to the database.">
<polygon fill="white" stroke="#666666" points="1239.5,-97 1108,-97 1108,-77 1239.5,-77 1239.5,-97"/>
<text text-anchor="middle" x="1173.75" y="-83.5" font-family="Helvetica,sans-Serif" font-size="10.00">DataBaseGUI::parent_add</text>
</a>
</g>
</g>
<!-- Node1&#45;&gt;Node2 -->
<g id="edge1_Node000001_Node000002" class="edge">
<title>Node1&#45;&gt;Node2</title>
<g id="a_edge1_Node000001_Node000002"><a xlink:title=" ">
<path fill="none" stroke="#63b8ff" d="M1476.93,-174.58C1459.74,-156.99 1434.2,-134.28 1407,-122 1354.04,-98.1 1288.07,-89.96 1239.99,-87.45"/>
<polygon fill="#63b8ff" stroke="#63b8ff" points="1474.21,-176.79 1483.63,-181.63 1479.28,-171.97 1474.21,-176.79"/>
</a>
</g>
</g>
<!-- Node6 -->
<g id="Node000006" class="node">
<title>Node6</title>
<g id="a_Node000006"><a xlink:href="class_data_base_g_u_i.html#a5b049fb9e0e5d78c4c2e81e569b471f9" target="_top" xlink:title="Edits an existing parent in the database.">
<polygon fill="white" stroke="#666666" points="1407,-361 1275.5,-361 1275.5,-341 1407,-341 1407,-361"/>
<text text-anchor="middle" x="1341.25" y="-347.5" font-family="Helvetica,sans-Serif" font-size="10.00">DataBaseGUI::parent_edit</text>
</a>
</g>
</g>
<!-- Node1&#45;&gt;Node6 -->
<g id="edge5_Node000001_Node000006" class="edge">
<title>Node1&#45;&gt;Node6</title>
<g id="a_edge5_Node000001_Node000006"><a xlink:title=" ">
<path fill="none" stroke="#63b8ff" d="M1487.3,-225.38C1472.87,-255.54 1445.26,-304.33 1407,-332 1402.25,-335.43 1396.89,-338.25 1391.33,-340.56"/>
<polygon fill="#63b8ff" stroke="#63b8ff" points="1490.36,-227.1 1491.38,-216.55 1484.01,-224.16 1490.36,-227.1"/>
</a>
</g>
</g>
<!-- Node21 -->
<g id="Node000021" class="node">
<title>Node21</title>
<g id="a_Node000021"><a xlink:href="class_data_base_g_u_i.html#a438b5070d6a58ffa5e884d18740852c6" target="_top" xlink:title="Handles tab change events.">
<polygon fill="white" stroke="#666666" points="471,-146 337.25,-146 337.25,-126 471,-126 471,-146"/>
<text text-anchor="middle" x="404.12" y="-132.5" font-family="Helvetica,sans-Serif" font-size="10.00">DataBaseGUI::tab_change</text>
</a>
</g>
</g>
<!-- Node1&#45;&gt;Node21 -->
<g id="edge40_Node000001_Node000021" class="edge">
<title>Node1&#45;&gt;Node21</title>
<g id="a_edge40_Node000001_Node000021"><a xlink:title=" ">
<path fill="none" stroke="#63b8ff" d="M1436.05,-179.39C1371.29,-160.9 1266.97,-136 1174.75,-136 1174.75,-136 1174.75,-136 717.88,-136 632.76,-136 534.63,-136 471.32,-136"/>
<polygon fill="#63b8ff" stroke="#63b8ff" points="1434.85,-182.69 1445.43,-182.11 1436.8,-175.96 1434.85,-182.69"/>
</a>
</g>
</g>
<!-- Node22 -->
<g id="Node000022" class="node">
<title>Node22</title>
<g id="a_Node000022"><a xlink:href="class_data_base_g_u_i.html#ad8a42f24cdb603ba85c1cdd4ea2e73a4" target="_top" xlink:title="Removes a parent from the database.">
<polygon fill="white" stroke="#666666" points="1396.5,-323 1286,-323 1286,-291 1396.5,-291 1396.5,-323"/>
<text text-anchor="start" x="1294" y="-309.5" font-family="Helvetica,sans-Serif" font-size="10.00">DataBaseGUI::parent</text>
<text text-anchor="middle" x="1341.25" y="-297.5" font-family="Helvetica,sans-Serif" font-size="10.00">_remove</text>
</a>
</g>
</g>
<!-- Node1&#45;&gt;Node22 -->
<g id="edge35_Node000001_Node000022" class="edge">
<title>Node1&#45;&gt;Node22</title>
<g id="a_edge35_Node000001_Node000022"><a xlink:title=" ">
<path fill="none" stroke="#63b8ff" d="M1465.79,-221.75C1435.91,-242.37 1392.59,-272.26 1365.99,-290.62"/>
<polygon fill="#63b8ff" stroke="#63b8ff" points="1467.49,-224.82 1473.74,-216.26 1463.52,-219.06 1467.49,-224.82"/>
</a>
</g>
</g>
<!-- Node23 -->
<g id="Node000023" class="node">
<title>Node23</title>
<g id="a_Node000023"><a xlink:href="class_data_base_g_u_i.html#a783bdf1d65998f887dd6445741450480" target="_top" xlink:title="Changes the sorting method for parents.">
<polygon fill="white" stroke="#666666" points="1072,-32 961.5,-32 961.5,0 1072,0 1072,-32"/>
<text text-anchor="start" x="969.5" y="-18.5" font-family="Helvetica,sans-Serif" font-size="10.00">DataBaseGUI::parent</text>
<text text-anchor="middle" x="1016.75" y="-6.5" font-family="Helvetica,sans-Serif" font-size="10.00">_sort_change</text>
</a>
</g>
</g>
<!-- Node1&#45;&gt;Node23 -->
<g id="edge38_Node000001_Node000023" class="edge">
<title>Node1&#45;&gt;Node23</title>
<g id="a_edge38_Node000001_Node000023"><a xlink:title=" ">
<path fill="none" stroke="#63b8ff" d="M1485.11,-173.11C1469.78,-146.75 1442.35,-106.87 1407,-86 1300.72,-23.25 1151.79,-14.11 1072.49,-14.23"/>
<polygon fill="#63b8ff" stroke="#63b8ff" points="1481.87,-174.5 1489.82,-181.5 1487.97,-171.07 1481.87,-174.5"/>
</a>
</g>
</g>
<!-- Node3 -->
<g id="Node000003" class="node">
<title>Node3</title>
<g id="a_Node000003"><a xlink:href="class_data_base_g_u_i.html#a6c35e47ed05a80db144f240dee805a9d" target="_top" xlink:title="Sets up the GUI.">
<polygon fill="white" stroke="#666666" points="294.88,-190 187.38,-190 187.38,-170 294.88,-170 294.88,-190"/>
<text text-anchor="middle" x="241.12" y="-176.5" font-family="Helvetica,sans-Serif" font-size="10.00">DataBaseGUI::setup</text>
</a>
</g>
</g>
<!-- Node2&#45;&gt;Node3 -->
<g id="edge2_Node000002_Node000003" class="edge">
<title>Node2&#45;&gt;Node3</title>
<g id="a_edge2_Node000002_Node000003"><a xlink:title=" ">
<path fill="none" stroke="#63b8ff" d="M1096.57,-76.39C1035.72,-68.83 948.18,-60 871.25,-60 871.25,-60 871.25,-60 563.88,-60 461.44,-60 430.15,-58.83 337.25,-102 301.03,-118.83 266.97,-152.69 251.24,-169.72"/>
<polygon fill="#63b8ff" stroke="#63b8ff" points="1095.76,-79.81 1106.12,-77.59 1096.63,-72.87 1095.76,-79.81"/>
</a>
</g>
</g>
<!-- Node4 -->
<g id="Node000004" class="node">
<title>Node4</title>
<g id="a_Node000004"><a xlink:href="class_data_base_g_u_i.html#a2c83afe3a30fb5166d275d9a74d33196" target="_top" xlink:title="Default constructor.">
<polygon fill="white" stroke="#666666" points="145,-209 0,-209 0,-189 145,-189 145,-209"/>
<text text-anchor="middle" x="72.5" y="-195.5" font-family="Helvetica,sans-Serif" font-size="10.00">DataBaseGUI::DataBaseGUI</text>
</a>
</g>
</g>
<!-- Node3&#45;&gt;Node4 -->
<g id="edge3_Node000003_Node000004" class="edge">
<title>Node3&#45;&gt;Node4</title>
<g id="a_edge3_Node000003_Node000004"><a xlink:title=" ">
<path fill="none" stroke="#63b8ff" d="M175.53,-187.37C165.64,-188.49 155.37,-189.67 145.32,-190.81"/>
<polygon fill="#63b8ff" stroke="#63b8ff" points="175.9,-190.85 185.44,-186.24 175.11,-183.89 175.9,-190.85"/>
</a>
</g>
</g>
<!-- Node5 -->
<g id="Node000005" class="node">
<title>Node5</title>
<g id="a_Node000005"><a xlink:href="class_data_base_g_u_i.html#aba10d1d8e9fb151632ff34de418cee82" target="_top" xlink:title="Constructs a DataBaseGUI object.">
<polygon fill="white" stroke="#666666" points="145,-171 0,-171 0,-151 145,-151 145,-171"/>
<text text-anchor="middle" x="72.5" y="-157.5" font-family="Helvetica,sans-Serif" font-size="10.00">DataBaseGUI::DataBaseGUI</text>
</a>
</g>
</g>
<!-- Node3&#45;&gt;Node5 -->
<g id="edge4_Node000003_Node000005" class="edge">
<title>Node3&#45;&gt;Node5</title>
<g id="a_edge4_Node000003_Node000005"><a xlink:title=" ">
<path fill="none" stroke="#63b8ff" d="M175.53,-172.63C165.64,-171.51 155.37,-170.33 145.32,-169.19"/>
<polygon fill="#63b8ff" stroke="#63b8ff" points="175.11,-176.11 185.44,-173.76 175.9,-169.15 175.11,-176.11"/>
</a>
</g>
</g>
<!-- Node7 -->
<g id="Node000007" class="node">
<title>Node7</title>
<g id="a_Node000007"><a xlink:href="class_data_base_g_u_i.html#a33f2f95926f7b4b05227dcf395e235d3" target="_top" xlink:title="Populates the parent tab with a multimap of parents.">
<polygon fill="white" stroke="#666666" points="301.25,-580 181,-580 181,-548 301.25,-548 301.25,-580"/>
<text text-anchor="start" x="189" y="-566.5" font-family="Helvetica,sans-Serif" font-size="10.00">DataBaseGUI::populate</text>
<text text-anchor="middle" x="241.12" y="-554.5" font-family="Helvetica,sans-Serif" font-size="10.00">_parent_tab</text>
</a>
</g>
</g>
<!-- Node6&#45;&gt;Node7 -->
<g id="edge6_Node000006_Node000007" class="edge">
<title>Node6&#45;&gt;Node7</title>
<g id="a_edge6_Node000006_Node000007"><a xlink:title=" ">
<path fill="none" stroke="#63b8ff" d="M1337.73,-372.68C1331.1,-419.02 1308.58,-527.58 1239.5,-578 1159.43,-636.44 1116.88,-602 1017.75,-602 1017.75,-602 1017.75,-602 563.88,-602 471.77,-602 365.85,-586.45 301.47,-575.25"/>
<polygon fill="#63b8ff" stroke="#63b8ff" points="1341.19,-373.23 1339.01,-362.86 1334.25,-372.32 1341.19,-373.23"/>
</a>
</g>
</g>
<!-- Node8 -->
<g id="Node000008" class="node">
<title>Node8</title>
<g id="a_Node000008"><a xlink:href="class_data_base_g_u_i.html#a739b2cf48c0cb6e3cab2da0a7bbd6d6d" target="_top" xlink:title="Populates the parent tab with a list of parents.">
<polygon fill="white" stroke="#666666" points="1233.88,-345 1113.62,-345 1113.62,-313 1233.88,-313 1233.88,-345"/>
<text text-anchor="start" x="1121.62" y="-331.5" font-family="Helvetica,sans-Serif" font-size="10.00">DataBaseGUI::populate</text>
<text text-anchor="middle" x="1173.75" y="-319.5" font-family="Helvetica,sans-Serif" font-size="10.00">_parent_tab</text>
</a>
</g>
</g>
<!-- Node6&#45;&gt;Node8 -->
<g id="edge7_Node000006_Node000008" class="edge">
<title>Node6&#45;&gt;Node8</title>
<g id="a_edge7_Node000006_Node000008"><a xlink:title=" ">
<path fill="none" stroke="#63b8ff" d="M1264.13,-340.88C1254.14,-339.55 1244.03,-338.21 1234.37,-336.93"/>
<polygon fill="#63b8ff" stroke="#63b8ff" points="1263.44,-344.32 1273.81,-342.17 1264.36,-337.38 1263.44,-344.32"/>
</a>
</g>
</g>
<!-- Node8&#45;&gt;Node1 -->
<g id="edge34_Node000008_Node000001" class="edge">
<title>Node8&#45;&gt;Node1</title>
<g id="a_edge34_Node000008_Node000001"><a xlink:title=" ">
<path fill="none" stroke="#63b8ff" d="M1218.05,-307.87C1235.72,-299.49 1256.45,-289.97 1275.5,-282 1335.39,-256.95 1405.79,-231.4 1451.28,-215.4"/>
<polygon fill="#63b8ff" stroke="#63b8ff" points="1216.91,-304.53 1209.4,-312 1219.93,-310.85 1216.91,-304.53"/>
</a>
</g>
</g>
<!-- Node9 -->
<g id="Node000009" class="node">
<title>Node9</title>
<g id="a_Node000009"><a xlink:href="class_data_base_g_u_i.html#a7c3d843eec449d8a4ec5ce6bf0375358" target="_top" xlink:title="Searches for parents based on the provided name and surname.">
<polygon fill="white" stroke="#666666" points="1072,-345 961.5,-345 961.5,-313 1072,-313 1072,-345"/>
<text text-anchor="start" x="969.5" y="-331.5" font-family="Helvetica,sans-Serif" font-size="10.00">DataBaseGUI::parent</text>
<text text-anchor="middle" x="1016.75" y="-319.5" font-family="Helvetica,sans-Serif" font-size="10.00">_search</text>
</a>
</g>
</g>
<!-- Node8&#45;&gt;Node9 -->
<g id="edge8_Node000008_Node000009" class="edge">
<title>Node8&#45;&gt;Node9</title>
<g id="a_edge8_Node000008_Node000009"><a xlink:title=" ">
<path fill="none" stroke="#63b8ff" d="M1101.81,-329C1091.97,-329 1081.99,-329 1072.5,-329"/>
<polygon fill="#63b8ff" stroke="#63b8ff" points="1101.75,-332.5 1111.75,-329 1101.75,-325.5 1101.75,-332.5"/>
</a>
</g>
</g>
<!-- Node9&#45;&gt;Node3 -->
<g id="edge33_Node000009_Node000003" class="edge">
<title>Node9&#45;&gt;Node3</title>
<g id="a_edge33_Node000009_Node000003"><a xlink:title=" ">
<path fill="none" stroke="#63b8ff" d="M975.53,-307.3C887.31,-261.09 668.92,-154.16 471,-117 412.58,-106.03 394.17,-99.86 337.25,-117 302.92,-127.34 269.58,-154.55 253,-169.61"/>
<polygon fill="#63b8ff" stroke="#63b8ff" points="973.81,-310.35 984.29,-311.92 977.07,-304.16 973.81,-310.35"/>
</a>
</g>
</g>
<!-- Node10 -->
<g id="Node000010" class="node">
<title>Node10</title>
<g id="a_Node000010"><a xlink:href="class_data_base_g_u_i.html#a8e1fe573ef6a09e112989968ec1a2b43" target="_top" xlink:title="Searches for parents based on the provided parent pointer.">
<polygon fill="white" stroke="#666666" points="925.5,-366 815,-366 815,-334 925.5,-334 925.5,-366"/>
<text text-anchor="start" x="823" y="-352.5" font-family="Helvetica,sans-Serif" font-size="10.00">DataBaseGUI::parent</text>
<text text-anchor="middle" x="870.25" y="-340.5" font-family="Helvetica,sans-Serif" font-size="10.00">_search_by_pointer</text>
</a>
</g>
</g>
<!-- Node9&#45;&gt;Node10 -->
<g id="edge9_Node000009_Node000010" class="edge">
<title>Node9&#45;&gt;Node10</title>
<g id="a_edge9_Node000009_Node000010"><a xlink:title=" ">
<path fill="none" stroke="#63b8ff" d="M949.91,-338.57C941.9,-339.73 933.78,-340.91 925.96,-342.05"/>
<polygon fill="#63b8ff" stroke="#63b8ff" points="950.23,-342.06 959.62,-337.16 949.22,-335.13 950.23,-342.06"/>
</a>
</g>
</g>
<!-- Node11 -->
<g id="Node000011" class="node">
<title>Node11</title>
<g id="a_Node000011"><a xlink:href="class_data_base_g_u_i.html#a334c0011a9d3a71539b326a888feccd3" target="_top" xlink:title="Populates the children tab with a multimap of children.">
<polygon fill="white" stroke="#666666" points="301.25,-410 181,-410 181,-378 301.25,-378 301.25,-410"/>
<text text-anchor="start" x="189" y="-396.5" font-family="Helvetica,sans-Serif" font-size="10.00">DataBaseGUI::populate</text>
<text text-anchor="middle" x="241.12" y="-384.5" font-family="Helvetica,sans-Serif" font-size="10.00">_children_tab</text>
</a>
</g>
</g>
<!-- Node10&#45;&gt;Node11 -->
<g id="edge10_Node000010_Node000011" class="edge">
<title>Node10&#45;&gt;Node11</title>
<g id="a_edge10_Node000010_Node000011"><a xlink:title=" ">
<path fill="none" stroke="#63b8ff" d="M831.66,-372.16C784.67,-398.46 700.89,-440.77 622.75,-457 498.45,-482.81 459.09,-483.65 337.25,-448 310.09,-440.05 282.32,-423.06 263.85,-410.25"/>
<polygon fill="#63b8ff" stroke="#63b8ff" points="833.38,-375.21 840.35,-367.23 829.92,-369.12 833.38,-375.21"/>
</a>
</g>
</g>
<!-- Node12 -->
<g id="Node000012" class="node">
<title>Node12</title>
<g id="a_Node000012"><a xlink:href="class_data_base_g_u_i.html#af346d08370d9e4574980707f61b9c8f7" target="_top" xlink:title="Populates the children tab with a list of children.">
<polygon fill="white" stroke="#666666" points="779,-366 658.75,-366 658.75,-334 779,-334 779,-366"/>
<text text-anchor="start" x="666.75" y="-352.5" font-family="Helvetica,sans-Serif" font-size="10.00">DataBaseGUI::populate</text>
<text text-anchor="middle" x="718.88" y="-340.5" font-family="Helvetica,sans-Serif" font-size="10.00">_children_tab</text>
</a>
</g>
</g>
<!-- Node10&#45;&gt;Node12 -->
<g id="edge11_Node000010_Node000012" class="edge">
<title>Node10&#45;&gt;Node12</title>
<g id="a_edge11_Node000010_Node000012"><a xlink:title=" ">
<path fill="none" stroke="#63b8ff" d="M803.66,-350C795.62,-350 787.43,-350 779.48,-350"/>
<polygon fill="#63b8ff" stroke="#63b8ff" points="803.39,-353.5 813.39,-350 803.39,-346.5 803.39,-353.5"/>
</a>
</g>
</g>
<!-- Node12&#45;&gt;Node3 -->
<g id="edge17_Node000012_Node000003" class="edge">
<title>Node12&#45;&gt;Node3</title>
<g id="a_edge17_Node000012_Node000003"><a xlink:title=" ">
<path fill="none" stroke="#63b8ff" d="M647.11,-345.38C552.04,-338.16 389.02,-321.95 337.25,-293 292.49,-267.97 259.61,-213.08 247.36,-190.26"/>
<polygon fill="#63b8ff" stroke="#63b8ff" points="646.61,-348.85 656.84,-346.1 647.13,-341.87 646.61,-348.85"/>
</a>
</g>
</g>
<!-- Node13 -->
<g id="Node000013" class="node">
<title>Node13</title>
<g id="a_Node000013"><a xlink:href="class_data_base_g_u_i.html#a2d921da686e76ae195da018bb735a1ae" target="_top" xlink:title="Searches for children based on the provided name and surname.">
<polygon fill="white" stroke="#666666" points="616.75,-448 513,-448 513,-416 616.75,-416 616.75,-448"/>
<text text-anchor="start" x="521" y="-434.5" font-family="Helvetica,sans-Serif" font-size="10.00">DataBaseGUI::child</text>
<text text-anchor="middle" x="564.88" y="-422.5" font-family="Helvetica,sans-Serif" font-size="10.00">_search</text>
</a>
</g>
</g>
<!-- Node12&#45;&gt;Node13 -->
<g id="edge12_Node000012_Node000013" class="edge">
<title>Node12&#45;&gt;Node13</title>
<g id="a_edge12_Node000012_Node000013"><a xlink:title=" ">
<path fill="none" stroke="#63b8ff" d="M678.69,-371.59C661.55,-380.99 641.19,-392.1 622.75,-402 614.49,-406.44 605.53,-411.19 597.21,-415.58"/>
<polygon fill="#63b8ff" stroke="#63b8ff" points="679.96,-374.88 687.04,-367 676.59,-368.75 679.96,-374.88"/>
</a>
</g>
</g>
<!-- Node15 -->
<g id="Node000015" class="node">
<title>Node15</title>
<g id="a_Node000015"><a xlink:href="class_data_base_g_u_i.html#aa684465aa73b5b34bbadd24fc7f2f641" target="_top" xlink:title="Selects the appropriate sorting to use based on child sort index.">
<polygon fill="white" stroke="#666666" points="622.75,-284 507,-284 507,-252 622.75,-252 622.75,-284"/>
<text text-anchor="start" x="515" y="-270.5" font-family="Helvetica,sans-Serif" font-size="10.00">DataBaseGUI::sort_to</text>
<text text-anchor="middle" x="564.88" y="-258.5" font-family="Helvetica,sans-Serif" font-size="10.00">_populate_children_tab</text>
</a>
</g>
</g>
<!-- Node12&#45;&gt;Node15 -->
<g id="edge18_Node000012_Node000015" class="edge">
<title>Node12&#45;&gt;Node15</title>
<g id="a_edge18_Node000012_Node000015"><a xlink:title=" ">
<path fill="none" stroke="#63b8ff" d="M678.69,-328.41C661.55,-319.01 641.19,-307.9 622.75,-298 614.49,-293.56 605.53,-288.81 597.21,-284.42"/>
<polygon fill="#63b8ff" stroke="#63b8ff" points="676.59,-331.25 687.04,-333 679.96,-325.12 676.59,-331.25"/>
</a>
</g>
</g>
<!-- Node13&#45;&gt;Node3 -->
<g id="edge16_Node000013_Node000003" class="edge">
<title>Node13&#45;&gt;Node3</title>
<g id="a_edge16_Node000013_Node000003"><a xlink:title=" ">
<path fill="none" stroke="#63b8ff" d="M501.68,-445.29C452.46,-452.13 384.41,-453 337.25,-419 297.13,-390.08 255.22,-232.28 244.66,-190.28"/>
<polygon fill="#63b8ff" stroke="#63b8ff" points="501.96,-448.79 511.32,-443.83 500.91,-441.87 501.96,-448.79"/>
</a>
</g>
</g>
<!-- Node14 -->
<g id="Node000014" class="node">
<title>Node14</title>
<g id="a_Node000014"><a xlink:href="class_data_base_g_u_i.html#aadb0e7d323a970603312695c0dd9b264" target="_top" xlink:title="Searches for children based on the provided child pointer.">
<polygon fill="white" stroke="#666666" points="456,-536 352.25,-536 352.25,-504 456,-504 456,-536"/>
<text text-anchor="start" x="360.25" y="-522.5" font-family="Helvetica,sans-Serif" font-size="10.00">DataBaseGUI::child</text>
<text text-anchor="middle" x="404.12" y="-510.5" font-family="Helvetica,sans-Serif" font-size="10.00">_search_by_pointer</text>
</a>
</g>
</g>
<!-- Node13&#45;&gt;Node14 -->
<g id="edge13_Node000013_Node000014" class="edge">
<title>Node13&#45;&gt;Node14</title>
<g id="a_edge13_Node000013_Node000014"><a xlink:title=" ">
<path fill="none" stroke="#63b8ff" d="M524.58,-453.78C496.78,-469.19 460.07,-489.54 434.72,-503.59"/>
<polygon fill="#63b8ff" stroke="#63b8ff" points="526.01,-456.99 533.06,-449.08 522.62,-450.87 526.01,-456.99"/>
</a>
</g>
</g>
<!-- Node14&#45;&gt;Node7 -->
<g id="edge14_Node000014_Node000007" class="edge">
<title>Node14&#45;&gt;Node7</title>
<g id="a_edge14_Node000014_Node000007"><a xlink:title=" ">
<path fill="none" stroke="#63b8ff" d="M341.44,-536.86C328.41,-540.42 314.68,-544.17 301.73,-547.71"/>
<polygon fill="#63b8ff" stroke="#63b8ff" points="342,-540.33 350.72,-534.32 340.15,-533.58 342,-540.33"/>
</a>
</g>
</g>
<!-- Node14&#45;&gt;Node8 -->
<g id="edge15_Node000014_Node000008" class="edge">
<title>Node14&#45;&gt;Node8</title>
<g id="a_edge15_Node000014_Node000008"><a xlink:title=" ">
<path fill="none" stroke="#63b8ff" d="M467.66,-519.05C530.79,-518.17 631.1,-517 717.88,-517 871.25,-517 871.25,-517 871.25,-517 1000.48,-517 1120.12,-391.09 1159.31,-345.35"/>
<polygon fill="#63b8ff" stroke="#63b8ff" points="467.78,-515.55 457.83,-519.19 467.88,-522.54 467.78,-515.55"/>
</a>
</g>
</g>
<!-- Node16 -->
<g id="Node000016" class="node">
<title>Node16</title>
<g id="a_Node000016"><a xlink:href="class_data_base_g_u_i.html#a00f9044d3b8dd9c5dada244dac1b0df6" target="_top" xlink:title="Adds a new child to the database.">
<polygon fill="white" stroke="#666666" points="466.5,-284 341.75,-284 341.75,-264 466.5,-264 466.5,-284"/>
<text text-anchor="middle" x="404.12" y="-270.5" font-family="Helvetica,sans-Serif" font-size="10.00">DataBaseGUI::child_add</text>
</a>
</g>
</g>
<!-- Node15&#45;&gt;Node16 -->
<g id="edge19_Node000015_Node000016" class="edge">
<title>Node15&#45;&gt;Node16</title>
<g id="a_edge19_Node000015_Node000016"><a xlink:title=" ">
<path fill="none" stroke="#63b8ff" d="M495.22,-270.59C485.81,-270.95 476.19,-271.31 466.91,-271.66"/>
<polygon fill="#63b8ff" stroke="#63b8ff" points="495.19,-274.1 505.05,-270.22 494.93,-267.1 495.19,-274.1"/>
</a>
</g>
</g>
<!-- Node17 -->
<g id="Node000017" class="node">
<title>Node17</title>
<g id="a_Node000017"><a xlink:href="class_data_base_g_u_i.html#acb6c6b292e58d0ead30682f7f5705244" target="_top" xlink:title="Edits an existing child in the database.">
<polygon fill="white" stroke="#666666" points="466.5,-360 341.75,-360 341.75,-340 466.5,-340 466.5,-360"/>
<text text-anchor="middle" x="404.12" y="-346.5" font-family="Helvetica,sans-Serif" font-size="10.00">DataBaseGUI::child_edit</text>
</a>
</g>
</g>
<!-- Node15&#45;&gt;Node17 -->
<g id="edge21_Node000015_Node000017" class="edge">
<title>Node15&#45;&gt;Node17</title>
<g id="a_edge21_Node000015_Node000017"><a xlink:title=" ">
<path fill="none" stroke="#63b8ff" d="M521.96,-289.65C490.73,-305.78 449.46,-327.1 425.25,-339.6"/>
<polygon fill="#63b8ff" stroke="#63b8ff" points="523.51,-292.79 530.79,-285.09 520.3,-286.57 523.51,-292.79"/>
</a>
</g>
</g>
<!-- Node18 -->
<g id="Node000018" class="node">
<title>Node18</title>
<g id="a_Node000018"><a xlink:href="class_data_base_g_u_i.html#ae3a08843db874e51a7cea32fa8937ca5" target="_top" xlink:title="Removes a child from the database.">
<polygon fill="white" stroke="#666666" points="456,-410 352.25,-410 352.25,-378 456,-378 456,-410"/>
<text text-anchor="start" x="360.25" y="-396.5" font-family="Helvetica,sans-Serif" font-size="10.00">DataBaseGUI::child</text>
<text text-anchor="middle" x="404.12" y="-384.5" font-family="Helvetica,sans-Serif" font-size="10.00">_remove</text>
</a>
</g>
</g>
<!-- Node15&#45;&gt;Node18 -->
<g id="edge24_Node000015_Node000018" class="edge">
<title>Node15&#45;&gt;Node18</title>
<g id="a_edge24_Node000015_Node000018"><a xlink:title=" ">
<path fill="none" stroke="#63b8ff" d="M546.15,-293.15C529.13,-315.7 501.55,-348.32 471,-369 466.24,-372.22 461.01,-375.1 455.63,-377.66"/>
<polygon fill="#63b8ff" stroke="#63b8ff" points="548.76,-295.51 551.88,-285.38 543.12,-291.35 548.76,-295.51"/>
</a>
</g>
</g>
<!-- Node19 -->
<g id="Node000019" class="node">
<title>Node19</title>
<g id="a_Node000019"><a xlink:href="class_data_base_g_u_i.html#a2e6d3629f679c153cdd21b683ce794a1" target="_top" xlink:title="Changes the sorting method for children.">
<polygon fill="white" stroke="#666666" points="456,-246 352.25,-246 352.25,-214 456,-214 456,-246"/>
<text text-anchor="start" x="360.25" y="-232.5" font-family="Helvetica,sans-Serif" font-size="10.00">DataBaseGUI::child</text>
<text text-anchor="middle" x="404.12" y="-220.5" font-family="Helvetica,sans-Serif" font-size="10.00">_sort_change</text>
</a>
</g>
</g>
<!-- Node15&#45;&gt;Node19 -->
<g id="edge27_Node000015_Node000019" class="edge">
<title>Node15&#45;&gt;Node19</title>
<g id="a_edge27_Node000015_Node000019"><a xlink:title=" ">
<path fill="none" stroke="#63b8ff" d="M495.62,-251.66C482.43,-248.5 468.82,-245.25 456.3,-242.25"/>
<polygon fill="#63b8ff" stroke="#63b8ff" points="494.55,-255 505.09,-253.93 496.18,-248.2 494.55,-255"/>
</a>
</g>
</g>
<!-- Node20 -->
<g id="Node000020" class="node">
<title>Node20</title>
<g id="a_Node000020"><a xlink:href="class_data_base_g_u_i.html#a20d1ece0affaa1f5b6876ee072dd2ab1" target="_top" xlink:title="Imports a database from a file.">
<polygon fill="white" stroke="#666666" points="459.38,-196 348.88,-196 348.88,-164 459.38,-164 459.38,-196"/>
<text text-anchor="start" x="356.88" y="-182.5" font-family="Helvetica,sans-Serif" font-size="10.00">DataBaseGUI::import</text>
<text text-anchor="middle" x="404.12" y="-170.5" font-family="Helvetica,sans-Serif" font-size="10.00">_database</text>
</a>
</g>
</g>
<!-- Node15&#45;&gt;Node20 -->
<g id="edge29_Node000015_Node000020" class="edge">
<title>Node15&#45;&gt;Node20</title>
<g id="a_edge29_Node000015_Node000020"><a xlink:title=" ">
<path fill="none" stroke="#63b8ff" d="M533.79,-244.95C516.13,-232.11 493.03,-216.45 471,-205 465.14,-201.95 458.82,-199.08 452.5,-196.44"/>
<polygon fill="#63b8ff" stroke="#63b8ff" points="531.65,-247.72 541.78,-250.85 535.81,-242.09 531.65,-247.72"/>
</a>
</g>
</g>
<!-- Node15&#45;&gt;Node21 -->
<g id="edge31_Node000015_Node000021" class="edge">
<title>Node15&#45;&gt;Node21</title>
<g id="a_edge31_Node000015_Node000021"><a xlink:title=" ">
<path fill="none" stroke="#63b8ff" d="M549.06,-242.07C533.03,-216.29 505.12,-177.45 471,-155 465.83,-151.6 460.04,-148.8 454.1,-146.49"/>
<polygon fill="#63b8ff" stroke="#63b8ff" points="546.05,-243.86 554.21,-250.61 552.04,-240.24 546.05,-243.86"/>
</a>
</g>
</g>
<!-- Node16&#45;&gt;Node3 -->
<g id="edge20_Node000016_Node000003" class="edge">
<title>Node16&#45;&gt;Node3</title>
<g id="a_edge20_Node000016_Node000003"><a xlink:title=" ">
<path fill="none" stroke="#63b8ff" d="M347.52,-259.67C343.99,-258.24 340.53,-256.68 337.25,-255 302.82,-237.33 268.74,-206.32 252.3,-190.27"/>
<polygon fill="#63b8ff" stroke="#63b8ff" points="346.27,-262.94 356.86,-263.09 348.67,-256.37 346.27,-262.94"/>
</a>
</g>
</g>
<!-- Node17&#45;&gt;Node11 -->
<g id="edge22_Node000017_Node000011" class="edge">
<title>Node17&#45;&gt;Node11</title>
<g id="a_edge22_Node000017_Node000011"><a xlink:title=" ">
<path fill="none" stroke="#63b8ff" d="M353.94,-363.44C337.46,-367.95 318.91,-373.02 301.72,-377.71"/>
<polygon fill="#63b8ff" stroke="#63b8ff" points="354.79,-366.84 363.51,-360.83 352.94,-360.09 354.79,-366.84"/>
</a>
</g>
</g>
<!-- Node17&#45;&gt;Node12 -->
<g id="edge23_Node000017_Node000012" class="edge">
<title>Node17&#45;&gt;Node12</title>
<g id="a_edge23_Node000017_Node000012"><a xlink:title=" ">
<path fill="none" stroke="#63b8ff" d="M478.26,-350C533.06,-350 607.1,-350 658.31,-350"/>
<polygon fill="#63b8ff" stroke="#63b8ff" points="478.38,-346.5 468.38,-350 478.38,-353.5 478.38,-346.5"/>
</a>
</g>
</g>
<!-- Node18&#45;&gt;Node11 -->
<g id="edge25_Node000018_Node000011" class="edge">
<title>Node18&#45;&gt;Node11</title>
<g id="a_edge25_Node000018_Node000011"><a xlink:title=" ">
<path fill="none" stroke="#63b8ff" d="M341.04,-394C328.13,-394 314.55,-394 301.73,-394"/>
<polygon fill="#63b8ff" stroke="#63b8ff" points="340.67,-397.5 350.67,-394 340.67,-390.5 340.67,-397.5"/>
</a>
</g>
</g>
<!-- Node18&#45;&gt;Node12 -->
<g id="edge26_Node000018_Node000012" class="edge">
<title>Node18&#45;&gt;Node12</title>
<g id="a_edge26_Node000018_Node000012"><a xlink:title=" ">
<path fill="none" stroke="#63b8ff" d="M467.42,-385.57C510.95,-379.64 570.41,-371.46 622.75,-364 634.24,-362.36 646.5,-360.58 658.26,-358.86"/>
<polygon fill="#63b8ff" stroke="#63b8ff" points="467.09,-382.08 457.65,-386.9 468.03,-389.02 467.09,-382.08"/>
</a>
</g>
</g>
<!-- Node19&#45;&gt;Node3 -->
<g id="edge28_Node000019_Node000003" class="edge">
<title>Node19&#45;&gt;Node3</title>
<g id="a_edge28_Node000019_Node000003"><a xlink:title=" ">
<path fill="none" stroke="#63b8ff" d="M341.38,-210.83C318.98,-203.87 294.52,-196.27 275.48,-190.36"/>
<polygon fill="#63b8ff" stroke="#63b8ff" points="340.15,-214.11 350.74,-213.73 342.23,-207.42 340.15,-214.11"/>
</a>
</g>
</g>
<!-- Node20&#45;&gt;Node3 -->
<g id="edge30_Node000020_Node000003" class="edge">
<title>Node20&#45;&gt;Node3</title>
<g id="a_edge30_Node000020_Node000003"><a xlink:title=" ">
<path fill="none" stroke="#63b8ff" d="M337.5,-180C323.43,-180 308.74,-180 295.21,-180"/>
<polygon fill="#63b8ff" stroke="#63b8ff" points="337.1,-183.5 347.1,-180 337.1,-176.5 337.1,-183.5"/>
</a>
</g>
</g>
<!-- Node21&#45;&gt;Node3 -->
<g id="edge32_Node000021_Node000003" class="edge">
<title>Node21&#45;&gt;Node3</title>
<g id="a_edge32_Node000021_Node000003"><a xlink:title=" ">
<path fill="none" stroke="#63b8ff" d="M354.08,-149.4C330.38,-155.88 302.36,-163.54 280.28,-169.57"/>
<polygon fill="#63b8ff" stroke="#63b8ff" points="354.79,-152.84 363.51,-146.83 352.94,-146.09 354.79,-152.84"/>
</a>
</g>
</g>
<!-- Node22&#45;&gt;Node7 -->
<g id="edge36_Node000022_Node000007" class="edge">
<title>Node22&#45;&gt;Node7</title>
<g id="a_edge36_Node000022_Node000007"><a xlink:title=" ">
<path fill="none" stroke="#63b8ff" d="M1281.71,-328.43C1279.58,-329.58 1277.51,-330.77 1275.5,-332 1144.16,-412.65 1171.88,-564 1017.75,-564 1017.75,-564 1017.75,-564 563.88,-564 472.41,-564 366.31,-564 301.72,-564"/>
<polygon fill="#63b8ff" stroke="#63b8ff" points="1283.15,-331.63 1290.56,-324.06 1280.05,-325.35 1283.15,-331.63"/>
</a>
</g>
</g>
<!-- Node22&#45;&gt;Node8 -->
<g id="edge37_Node000022_Node000008" class="edge">
<title>Node22&#45;&gt;Node8</title>
<g id="a_edge37_Node000022_Node000008"><a xlink:title=" ">
<path fill="none" stroke="#63b8ff" d="M1274.58,-315.73C1261.24,-317.5 1247.29,-319.36 1234.19,-321.1"/>
<polygon fill="#63b8ff" stroke="#63b8ff" points="1274.65,-319.25 1284.1,-314.46 1273.73,-312.31 1274.65,-319.25"/>
</a>
</g>
</g>
<!-- Node23&#45;&gt;Node3 -->
<g id="edge39_Node000023_Node000003" class="edge">
<title>Node23&#45;&gt;Node3</title>
<g id="a_edge39_Node000023_Node000003"><a xlink:title=" ">
<path fill="none" stroke="#63b8ff" d="M950.03,-17.05C890.07,-17.91 799.02,-19 719.88,-19 719.88,-19 719.88,-19 563.88,-19 462.44,-19 424.46,5.8 337.25,-46 286.97,-75.87 256.22,-143.83 245.96,-169.72"/>
<polygon fill="#63b8ff" stroke="#63b8ff" points="949.76,-20.55 959.71,-16.91 949.66,-13.55 949.76,-20.55"/>
</a>
</g>
</g>
</g>
</svg>
