<?xml version="1.0" encoding="UTF-8" standalone="no"?>
<!DOCTYPE svg PUBLIC "-//W3C//DTD SVG 1.1//EN"
 "http://www.w3.org/Graphics/SVG/1.1/DTD/svg11.dtd">
<!-- Generated by graphviz version 12.2.1 (20241206.2353)
 -->
<!-- Title: ChildDialog Pages: 1 -->
<svg width="429pt" height="1581pt"
 viewBox="0.00 0.00 428.88 1581.00" xmlns="http://www.w3.org/2000/svg" xmlns:xlink="http://www.w3.org/1999/xlink">
<g id="graph0" class="graph" transform="scale(1 1) rotate(0) translate(4 1577)">
<title>ChildDialog</title>
<!-- Node1 -->
<g id="Node000001" class="node">
<title>Node1</title>
<g id="a_Node000001"><a xlink:title=" ">
<polygon fill="#999999" stroke="none" points="251.25,-116 153,-116 153,0 251.25,0 251.25,-116"/>
<text text-anchor="start" x="177" y="-102.5" font-family="Helvetica,sans-Serif" font-size="10.00">ChildDialog</text>
<text text-anchor="start" x="200.62" y="-86.5" font-family="Helvetica,sans-Serif" font-size="10.00"> </text>
<text text-anchor="start" x="157" y="-70.5" font-family="Helvetica,sans-Serif" font-size="10.00">+</text>
<text text-anchor="start" x="167" y="-70.5" font-family="Helvetica,sans-Serif" font-size="10.00">ChildDialog()</text>
<text text-anchor="start" x="157" y="-54.5" font-family="Helvetica,sans-Serif" font-size="10.00">+</text>
<text text-anchor="start" x="167" y="-54.5" font-family="Helvetica,sans-Serif" font-size="10.00">accept()</text>
<text text-anchor="start" x="157" y="-38.5" font-family="Helvetica,sans-Serif" font-size="10.00">+</text>
<text text-anchor="start" x="167" y="-38.5" font-family="Helvetica,sans-Serif" font-size="10.00">~ChildDialog()</text>
<text text-anchor="start" x="158.5" y="-22.5" font-family="Helvetica,sans-Serif" font-size="10.00">&#45;</text>
<text text-anchor="start" x="167" y="-22.5" font-family="Helvetica,sans-Serif" font-size="10.00">set_parents()</text>
<text text-anchor="start" x="158.5" y="-6.5" font-family="Helvetica,sans-Serif" font-size="10.00">&#45;</text>
<text text-anchor="start" x="167" y="-6.5" font-family="Helvetica,sans-Serif" font-size="10.00">populate_parents()</text>
<polygon fill="#666666" stroke="#666666" points="153,-98 153,-98 251.25,-98 251.25,-98 153,-98"/>
<polygon fill="#666666" stroke="#666666" points="153,-82 153,-82 251.25,-82 251.25,-82 153,-82"/>
<polygon fill="none" stroke="#666666" points="153,0 153,-116 251.25,-116 251.25,0 153,0"/>
</a>
</g>
</g>
<!-- Node2 -->
<g id="Node000002" class="node">
<title>Node2</title>
<g id="a_Node000002"><a xlink:title=" ">
<polygon fill="white" stroke="none" points="52.75,-520 9.5,-520 9.5,-468 52.75,-468 52.75,-520"/>
<text text-anchor="start" x="13.5" y="-506.5" font-family="Helvetica,sans-Serif" font-size="10.00">QDialog</text>
<text text-anchor="start" x="29.62" y="-490.5" font-family="Helvetica,sans-Serif" font-size="10.00"> </text>
<text text-anchor="start" x="29.62" y="-474.5" font-family="Helvetica,sans-Serif" font-size="10.00"> </text>
<polygon fill="#666666" stroke="#666666" points="9.5,-502 9.5,-502 52.75,-502 52.75,-502 9.5,-502"/>
<polygon fill="#666666" stroke="#666666" points="9.5,-486 9.5,-486 52.75,-486 52.75,-486 9.5,-486"/>
<polygon fill="none" stroke="#666666" points="9.5,-468 9.5,-520 52.75,-520 52.75,-468 9.5,-468"/>
</a>
</g>
</g>
<!-- Node2&#45;&gt;Node1 -->
<g id="edge1_Node000001_Node000002" class="edge">
<title>Node2&#45;&gt;Node1</title>
<g id="a_edge1_Node000001_Node000002"><a xlink:title=" ">
<path fill="none" stroke="#63b8ff" d="M25.53,-456.93C17.52,-393.27 9.05,-258.75 62.12,-164 82.54,-127.55 121.41,-99.97 153.03,-82.24"/>
<polygon fill="none" stroke="#63b8ff" points="22.06,-457.38 26.86,-466.83 29,-456.45 22.06,-457.38"/>
</a>
</g>
</g>
<!-- Node3 -->
<g id="Node000003" class="node">
<title>Node3</title>
<g id="a_Node000003"><a xlink:href="$class_child.html" xlink:title="Represents a child.">
<polygon fill="white" stroke="none" points="147,-600 71.25,-600 71.25,-388 147,-388 147,-600"/>
<text text-anchor="start" x="97.88" y="-586.5" font-family="Helvetica,sans-Serif" font-size="10.00">Child</text>
<text text-anchor="start" x="107.62" y="-570.5" font-family="Helvetica,sans-Serif" font-size="10.00"> </text>
<text text-anchor="start" x="75.25" y="-554.5" font-family="Helvetica,sans-Serif" font-size="10.00">+</text>
<text text-anchor="start" x="85.25" y="-554.5" font-family="Helvetica,sans-Serif" font-size="10.00">Child()</text>
<text text-anchor="start" x="75.25" y="-538.5" font-family="Helvetica,sans-Serif" font-size="10.00">+</text>
<text text-anchor="start" x="85.25" y="-538.5" font-family="Helvetica,sans-Serif" font-size="10.00">Child()</text>
<text text-anchor="start" x="75.25" y="-522.5" font-family="Helvetica,sans-Serif" font-size="10.00">+</text>
<text text-anchor="start" x="85.25" y="-522.5" font-family="Helvetica,sans-Serif" font-size="10.00">Child()</text>
<text text-anchor="start" x="75.25" y="-506.5" font-family="Helvetica,sans-Serif" font-size="10.00">+</text>
<text text-anchor="start" x="85.25" y="-506.5" font-family="Helvetica,sans-Serif" font-size="10.00">Child()</text>
<text text-anchor="start" x="75.25" y="-490.5" font-family="Helvetica,sans-Serif" font-size="10.00">+</text>
<text text-anchor="start" x="85.25" y="-490.5" font-family="Helvetica,sans-Serif" font-size="10.00">Child()</text>
<text text-anchor="start" x="75.25" y="-474.5" font-family="Helvetica,sans-Serif" font-size="10.00">+</text>
<text text-anchor="start" x="85.25" y="-474.5" font-family="Helvetica,sans-Serif" font-size="10.00">operator=()</text>
<text text-anchor="start" x="75.25" y="-458.5" font-family="Helvetica,sans-Serif" font-size="10.00">+</text>
<text text-anchor="start" x="85.25" y="-458.5" font-family="Helvetica,sans-Serif" font-size="10.00">operator=()</text>
<text text-anchor="start" x="75.25" y="-442.5" font-family="Helvetica,sans-Serif" font-size="10.00">+</text>
<text text-anchor="start" x="85.25" y="-442.5" font-family="Helvetica,sans-Serif" font-size="10.00">operator==()</text>
<text text-anchor="start" x="75.25" y="-426.5" font-family="Helvetica,sans-Serif" font-size="10.00">+</text>
<text text-anchor="start" x="85.25" y="-426.5" font-family="Helvetica,sans-Serif" font-size="10.00">operator!=()</text>
<text text-anchor="start" x="75.25" y="-410.5" font-family="Helvetica,sans-Serif" font-size="10.00">+</text>
<text text-anchor="start" x="85.25" y="-410.5" font-family="Helvetica,sans-Serif" font-size="10.00">get_age()</text>
<text text-anchor="start" x="85.25" y="-394.5" font-family="Helvetica,sans-Serif" font-size="10.00">and 7 more...</text>
<polygon fill="#666666" stroke="#666666" points="71.25,-582 71.25,-582 147,-582 147,-582 71.25,-582"/>
<polygon fill="#666666" stroke="#666666" points="71.25,-566 71.25,-566 147,-566 147,-566 71.25,-566"/>
<polygon fill="none" stroke="#666666" points="71.25,-388 71.25,-600 147,-600 147,-388 71.25,-388"/>
</a>
</g>
</g>
<!-- Node3&#45;&gt;Node1 -->
<g id="edge2_Node000001_Node000003" class="edge">
<title>Node3&#45;&gt;Node1</title>
<g id="a_edge2_Node000001_Node000003"><a xlink:title=" ">
<path fill="none" stroke="#63b8ff" d="M116.81,-388.14C123.38,-322.75 135.23,-237.39 156.12,-164 159.56,-151.94 164.09,-139.46 168.97,-127.49"/>
<polygon fill="none" stroke="#63b8ff" points="168.91,-127.62 167.56,-120.53 173.58,-116.56 174.93,-123.64 168.91,-127.62"/>
</a>
</g>
<text text-anchor="middle" x="182.02" y="-136.5" font-family="Helvetica,sans-Serif" font-size="10.00" fill="grey"> &#45;child_</text>
</g>
<!-- Node4 -->
<g id="Node000004" class="node">
<title>Node4</title>
<g id="a_Node000004"><a xlink:href="$class_person.html" xlink:title="Represents a generic person.">
<polygon fill="white" stroke="none" points="80.25,-1484 0,-1484 0,-1208 80.25,-1208 80.25,-1484"/>
<text text-anchor="start" x="24.75" y="-1470.5" font-family="Helvetica,sans-Serif" font-size="10.00">Person</text>
<text text-anchor="start" x="4.38" y="-1454.5" font-family="Helvetica,sans-Serif" font-size="10.00">#</text>
<text text-anchor="start" x="14" y="-1454.5" font-family="Helvetica,sans-Serif" font-size="10.00">name_</text>
<text text-anchor="start" x="4.38" y="-1438.5" font-family="Helvetica,sans-Serif" font-size="10.00">#</text>
<text text-anchor="start" x="14" y="-1438.5" font-family="Helvetica,sans-Serif" font-size="10.00">surname_</text>
<text text-anchor="start" x="4" y="-1422.5" font-family="Helvetica,sans-Serif" font-size="10.00">+</text>
<text text-anchor="start" x="14" y="-1422.5" font-family="Helvetica,sans-Serif" font-size="10.00">Person()</text>
<text text-anchor="start" x="4" y="-1406.5" font-family="Helvetica,sans-Serif" font-size="10.00">+</text>
<text text-anchor="start" x="14" y="-1406.5" font-family="Helvetica,sans-Serif" font-size="10.00">Person()</text>
<text text-anchor="start" x="4" y="-1390.5" font-family="Helvetica,sans-Serif" font-size="10.00">+</text>
<text text-anchor="start" x="14" y="-1390.5" font-family="Helvetica,sans-Serif" font-size="10.00">Person()</text>
<text text-anchor="start" x="4" y="-1374.5" font-family="Helvetica,sans-Serif" font-size="10.00">+</text>
<text text-anchor="start" x="14" y="-1374.5" font-family="Helvetica,sans-Serif" font-size="10.00">Person()</text>
<text text-anchor="start" x="4" y="-1358.5" font-family="Helvetica,sans-Serif" font-size="10.00">+</text>
<text text-anchor="start" x="14" y="-1358.5" font-family="Helvetica,sans-Serif" font-size="10.00">Person()</text>
<text text-anchor="start" x="4" y="-1342.5" font-family="Helvetica,sans-Serif" font-size="10.00">+</text>
<text text-anchor="start" x="14" y="-1342.5" font-family="Helvetica,sans-Serif" font-size="10.00">operator=()</text>
<text text-anchor="start" x="4" y="-1326.5" font-family="Helvetica,sans-Serif" font-size="10.00">+</text>
<text text-anchor="start" x="14" y="-1326.5" font-family="Helvetica,sans-Serif" font-size="10.00">operator=()</text>
<text text-anchor="start" x="4" y="-1310.5" font-family="Helvetica,sans-Serif" font-size="10.00">+</text>
<text text-anchor="start" x="14" y="-1310.5" font-family="Helvetica,sans-Serif" font-size="10.00">operator==()</text>
<text text-anchor="start" x="4" y="-1294.5" font-family="Helvetica,sans-Serif" font-size="10.00">+</text>
<text text-anchor="start" x="14" y="-1294.5" font-family="Helvetica,sans-Serif" font-size="10.00">operator!=()</text>
<text text-anchor="start" x="4" y="-1278.5" font-family="Helvetica,sans-Serif" font-size="10.00">+</text>
<text text-anchor="start" x="14" y="-1278.5" font-family="Helvetica,sans-Serif" font-size="10.00">get_name()</text>
<text text-anchor="start" x="4" y="-1262.5" font-family="Helvetica,sans-Serif" font-size="10.00">+</text>
<text text-anchor="start" x="14" y="-1262.5" font-family="Helvetica,sans-Serif" font-size="10.00">set_name()</text>
<text text-anchor="start" x="4" y="-1246.5" font-family="Helvetica,sans-Serif" font-size="10.00">+</text>
<text text-anchor="start" x="14" y="-1246.5" font-family="Helvetica,sans-Serif" font-size="10.00">get_surname()</text>
<text text-anchor="start" x="4" y="-1230.5" font-family="Helvetica,sans-Serif" font-size="10.00">+</text>
<text text-anchor="start" x="14" y="-1230.5" font-family="Helvetica,sans-Serif" font-size="10.00">set_surname()</text>
<text text-anchor="start" x="4" y="-1214.5" font-family="Helvetica,sans-Serif" font-size="10.00">+</text>
<text text-anchor="start" x="14" y="-1214.5" font-family="Helvetica,sans-Serif" font-size="10.00">~Person()</text>
<polygon fill="#666666" stroke="#666666" points="0,-1466 0,-1466 80.25,-1466 80.25,-1466 0,-1466"/>
<polygon fill="#666666" stroke="#666666" points="0,-1434 0,-1434 12,-1434 12,-1434 0,-1434"/>
<polygon fill="#666666" stroke="#666666" points="12,-1434 12,-1434 80.25,-1434 80.25,-1434 12,-1434"/>
<polygon fill="none" stroke="#666666" points="0,-1208 0,-1484 80.25,-1484 80.25,-1208 0,-1208"/>
</a>
</g>
</g>
<!-- Node4&#45;&gt;Node3 -->
<g id="edge3_Node000003_Node000004" class="edge">
<title>Node4&#45;&gt;Node3</title>
<g id="a_edge3_Node000003_Node000004"><a xlink:title=" ">
<path fill="none" stroke="#63b8ff" d="M42.98,-1196.69C45.52,-1106.21 50.29,-988.29 59.12,-884 67.3,-787.49 81.83,-678.12 93.13,-599.99"/>
<polygon fill="none" stroke="#63b8ff" points="39.48,-1196.54 42.7,-1206.63 46.48,-1196.73 39.48,-1196.54"/>
</a>
</g>
</g>
<!-- Node6 -->
<g id="Node000006" class="node">
<title>Node6</title>
<g id="a_Node000006"><a xlink:href="$class_parent.html" xlink:title="Represents a parent.">
<polygon fill="white" stroke="none" points="150,-1160 68.25,-1160 68.25,-884 150,-884 150,-1160"/>
<text text-anchor="start" x="94.88" y="-1146.5" font-family="Helvetica,sans-Serif" font-size="10.00">Parent</text>
<text text-anchor="start" x="72.62" y="-1130.5" font-family="Helvetica,sans-Serif" font-size="10.00">#</text>
<text text-anchor="start" x="82.25" y="-1130.5" font-family="Helvetica,sans-Serif" font-size="10.00">children_</text>
<text text-anchor="start" x="72.25" y="-1114.5" font-family="Helvetica,sans-Serif" font-size="10.00">+</text>
<text text-anchor="start" x="82.25" y="-1114.5" font-family="Helvetica,sans-Serif" font-size="10.00">Parent()</text>
<text text-anchor="start" x="72.25" y="-1098.5" font-family="Helvetica,sans-Serif" font-size="10.00">+</text>
<text text-anchor="start" x="82.25" y="-1098.5" font-family="Helvetica,sans-Serif" font-size="10.00">Parent()</text>
<text text-anchor="start" x="72.25" y="-1082.5" font-family="Helvetica,sans-Serif" font-size="10.00">+</text>
<text text-anchor="start" x="82.25" y="-1082.5" font-family="Helvetica,sans-Serif" font-size="10.00">Parent()</text>
<text text-anchor="start" x="72.25" y="-1066.5" font-family="Helvetica,sans-Serif" font-size="10.00">+</text>
<text text-anchor="start" x="82.25" y="-1066.5" font-family="Helvetica,sans-Serif" font-size="10.00">Parent()</text>
<text text-anchor="start" x="72.25" y="-1050.5" font-family="Helvetica,sans-Serif" font-size="10.00">+</text>
<text text-anchor="start" x="82.25" y="-1050.5" font-family="Helvetica,sans-Serif" font-size="10.00">Parent()</text>
<text text-anchor="start" x="72.25" y="-1034.5" font-family="Helvetica,sans-Serif" font-size="10.00">+</text>
<text text-anchor="start" x="82.25" y="-1034.5" font-family="Helvetica,sans-Serif" font-size="10.00">operator=()</text>
<text text-anchor="start" x="72.25" y="-1018.5" font-family="Helvetica,sans-Serif" font-size="10.00">+</text>
<text text-anchor="start" x="82.25" y="-1018.5" font-family="Helvetica,sans-Serif" font-size="10.00">operator=()</text>
<text text-anchor="start" x="72.25" y="-1002.5" font-family="Helvetica,sans-Serif" font-size="10.00">+</text>
<text text-anchor="start" x="82.25" y="-1002.5" font-family="Helvetica,sans-Serif" font-size="10.00">operator==()</text>
<text text-anchor="start" x="72.25" y="-986.5" font-family="Helvetica,sans-Serif" font-size="10.00">+</text>
<text text-anchor="start" x="82.25" y="-986.5" font-family="Helvetica,sans-Serif" font-size="10.00">operator!=()</text>
<text text-anchor="start" x="72.25" y="-970.5" font-family="Helvetica,sans-Serif" font-size="10.00">+</text>
<text text-anchor="start" x="82.25" y="-970.5" font-family="Helvetica,sans-Serif" font-size="10.00">get_email()</text>
<text text-anchor="start" x="72.25" y="-954.5" font-family="Helvetica,sans-Serif" font-size="10.00">+</text>
<text text-anchor="start" x="82.25" y="-954.5" font-family="Helvetica,sans-Serif" font-size="10.00">set_email()</text>
<text text-anchor="start" x="72.25" y="-938.5" font-family="Helvetica,sans-Serif" font-size="10.00">+</text>
<text text-anchor="start" x="82.25" y="-938.5" font-family="Helvetica,sans-Serif" font-size="10.00">get_children()</text>
<text text-anchor="start" x="72.25" y="-922.5" font-family="Helvetica,sans-Serif" font-size="10.00">+</text>
<text text-anchor="start" x="82.25" y="-922.5" font-family="Helvetica,sans-Serif" font-size="10.00">add_child()</text>
<text text-anchor="start" x="72.25" y="-906.5" font-family="Helvetica,sans-Serif" font-size="10.00">+</text>
<text text-anchor="start" x="82.25" y="-906.5" font-family="Helvetica,sans-Serif" font-size="10.00">remove_child()</text>
<text text-anchor="start" x="72.25" y="-890.5" font-family="Helvetica,sans-Serif" font-size="10.00">+</text>
<text text-anchor="start" x="82.25" y="-890.5" font-family="Helvetica,sans-Serif" font-size="10.00">~Parent()</text>
<polygon fill="#666666" stroke="#666666" points="68.25,-1142 68.25,-1142 150,-1142 150,-1142 68.25,-1142"/>
<polygon fill="#666666" stroke="#666666" points="68.25,-1126 68.25,-1126 80.25,-1126 80.25,-1126 68.25,-1126"/>
<polygon fill="#666666" stroke="#666666" points="80.25,-1126 80.25,-1126 150,-1126 150,-1126 80.25,-1126"/>
<polygon fill="none" stroke="#666666" points="68.25,-884 68.25,-1160 150,-1160 150,-884 68.25,-884"/>
</a>
</g>
</g>
<!-- Node4&#45;&gt;Node6 -->
<g id="edge6_Node000006_Node000004" class="edge">
<title>Node4&#45;&gt;Node6</title>
<g id="a_edge6_Node000006_Node000004"><a xlink:title=" ">
<path fill="none" stroke="#63b8ff" d="M71.74,-1197.45C74.43,-1184.9 77.15,-1172.23 79.82,-1159.77"/>
<polygon fill="none" stroke="#63b8ff" points="68.38,-1196.45 69.7,-1206.96 75.22,-1197.92 68.38,-1196.45"/>
</a>
</g>
</g>
<!-- Node5 -->
<g id="Node000005" class="node">
<title>Node5</title>
<g id="a_Node000005"><a xlink:href="$class_date.html" xlink:title="Represents a date (day, month, year).">
<polygon fill="white" stroke="none" points="298.38,-1144 167.88,-1144 167.88,-900 298.38,-900 298.38,-1144"/>
<text text-anchor="start" x="222.62" y="-1130.5" font-family="Helvetica,sans-Serif" font-size="10.00">Date</text>
<text text-anchor="start" x="172.25" y="-1114.5" font-family="Helvetica,sans-Serif" font-size="10.00">#</text>
<text text-anchor="start" x="181.88" y="-1114.5" font-family="Helvetica,sans-Serif" font-size="10.00">date_</text>
<text text-anchor="start" x="171.88" y="-1098.5" font-family="Helvetica,sans-Serif" font-size="10.00">+</text>
<text text-anchor="start" x="181.88" y="-1098.5" font-family="Helvetica,sans-Serif" font-size="10.00">Date()</text>
<text text-anchor="start" x="171.88" y="-1082.5" font-family="Helvetica,sans-Serif" font-size="10.00">+</text>
<text text-anchor="start" x="181.88" y="-1082.5" font-family="Helvetica,sans-Serif" font-size="10.00">Date()</text>
<text text-anchor="start" x="171.88" y="-1066.5" font-family="Helvetica,sans-Serif" font-size="10.00">+</text>
<text text-anchor="start" x="181.88" y="-1066.5" font-family="Helvetica,sans-Serif" font-size="10.00">Date()</text>
<text text-anchor="start" x="171.88" y="-1050.5" font-family="Helvetica,sans-Serif" font-size="10.00">+</text>
<text text-anchor="start" x="181.88" y="-1050.5" font-family="Helvetica,sans-Serif" font-size="10.00">Date()</text>
<text text-anchor="start" x="171.88" y="-1034.5" font-family="Helvetica,sans-Serif" font-size="10.00">+</text>
<text text-anchor="start" x="181.88" y="-1034.5" font-family="Helvetica,sans-Serif" font-size="10.00">Date()</text>
<text text-anchor="start" x="171.88" y="-1018.5" font-family="Helvetica,sans-Serif" font-size="10.00">+</text>
<text text-anchor="start" x="181.88" y="-1018.5" font-family="Helvetica,sans-Serif" font-size="10.00">Date()</text>
<text text-anchor="start" x="171.88" y="-1002.5" font-family="Helvetica,sans-Serif" font-size="10.00">+</text>
<text text-anchor="start" x="181.88" y="-1002.5" font-family="Helvetica,sans-Serif" font-size="10.00">operator=()</text>
<text text-anchor="start" x="171.88" y="-986.5" font-family="Helvetica,sans-Serif" font-size="10.00">+</text>
<text text-anchor="start" x="181.88" y="-986.5" font-family="Helvetica,sans-Serif" font-size="10.00">operator=()</text>
<text text-anchor="start" x="171.88" y="-970.5" font-family="Helvetica,sans-Serif" font-size="10.00">+</text>
<text text-anchor="start" x="181.88" y="-970.5" font-family="Helvetica,sans-Serif" font-size="10.00">set_day()</text>
<text text-anchor="start" x="171.88" y="-954.5" font-family="Helvetica,sans-Serif" font-size="10.00">+</text>
<text text-anchor="start" x="181.88" y="-954.5" font-family="Helvetica,sans-Serif" font-size="10.00">get_day()</text>
<text text-anchor="start" x="181.88" y="-938.5" font-family="Helvetica,sans-Serif" font-size="10.00">and 15 more...</text>
<text text-anchor="start" x="171.88" y="-922.5" font-family="Helvetica,sans-Serif" font-size="10.00">+</text>
<text text-anchor="start" x="181.88" y="-922.5" font-family="Helvetica,sans-Serif" font-size="10.00">get_weekday_from_date()</text>
<text text-anchor="start" x="171.88" y="-906.5" font-family="Helvetica,sans-Serif" font-size="10.00">+</text>
<text text-anchor="start" x="181.88" y="-906.5" font-family="Helvetica,sans-Serif" font-size="10.00">get_current_date()</text>
<polygon fill="#666666" stroke="#666666" points="167.88,-1126 167.88,-1126 298.38,-1126 298.38,-1126 167.88,-1126"/>
<polygon fill="#666666" stroke="#666666" points="167.88,-1110 167.88,-1110 179.88,-1110 179.88,-1110 167.88,-1110"/>
<polygon fill="#666666" stroke="#666666" points="179.88,-1110 179.88,-1110 298.38,-1110 298.38,-1110 179.88,-1110"/>
<polygon fill="none" stroke="#666666" points="167.88,-900 167.88,-1144 298.38,-1144 298.38,-900 167.88,-900"/>
</a>
</g>
</g>
<!-- Node5&#45;&gt;Node3 -->
<g id="edge4_Node000003_Node000005" class="edge">
<title>Node5&#45;&gt;Node3</title>
<g id="a_edge4_Node000003_Node000005"><a xlink:title=" ">
<path fill="none" stroke="#63b8ff" d="M180.8,-900.03C171.51,-875.22 162.71,-849.04 156.12,-824 138,-755.09 126.42,-676.11 119.3,-612.8"/>
<polygon fill="none" stroke="#63b8ff" points="119.29,-612.77 114.66,-607.25 117.98,-600.84 122.61,-606.37 119.29,-612.77"/>
</a>
</g>
<text text-anchor="middle" x="195.78" y="-850.5" font-family="Helvetica,sans-Serif" font-size="10.00" fill="grey"> #birth_date_</text>
</g>
<!-- Node6&#45;&gt;Node3 -->
<g id="edge5_Node000003_Node000006" class="edge">
<title>Node6&#45;&gt;Node3</title>
<g id="a_edge5_Node000003_Node000006"><a xlink:title=" ">
<path fill="none" stroke="#63b8ff" d="M109.12,-884.17C109.12,-799.95 109.12,-693.1 109.12,-612.67"/>
<polygon fill="none" stroke="#63b8ff" points="109.13,-612.9 105.13,-606.9 109.13,-600.9 113.13,-606.9 109.13,-612.9"/>
</a>
</g>
<text text-anchor="middle" x="125.25" y="-856.5" font-family="Helvetica,sans-Serif" font-size="10.00" fill="grey"> #dad_</text>
<text text-anchor="middle" x="125.25" y="-844.5" font-family="Helvetica,sans-Serif" font-size="10.00" fill="grey">#mom_</text>
</g>
<!-- Node7 -->
<g id="Node000007" class="node">
<title>Node7</title>
<g id="a_Node000007"><a xlink:href="$class_email.html" xlink:title="Represents an email address.">
<polygon fill="white" stroke="none" points="169.75,-1460 98.5,-1460 98.5,-1232 169.75,-1232 169.75,-1460"/>
<text text-anchor="start" x="121.75" y="-1446.5" font-family="Helvetica,sans-Serif" font-size="10.00">Email</text>
<text text-anchor="start" x="104" y="-1430.5" font-family="Helvetica,sans-Serif" font-size="10.00">&#45;</text>
<text text-anchor="start" x="112.5" y="-1430.5" font-family="Helvetica,sans-Serif" font-size="10.00">email_</text>
<text text-anchor="start" x="102.5" y="-1414.5" font-family="Helvetica,sans-Serif" font-size="10.00">+</text>
<text text-anchor="start" x="112.5" y="-1414.5" font-family="Helvetica,sans-Serif" font-size="10.00">Email()</text>
<text text-anchor="start" x="102.5" y="-1398.5" font-family="Helvetica,sans-Serif" font-size="10.00">+</text>
<text text-anchor="start" x="112.5" y="-1398.5" font-family="Helvetica,sans-Serif" font-size="10.00">Email()</text>
<text text-anchor="start" x="102.5" y="-1382.5" font-family="Helvetica,sans-Serif" font-size="10.00">+</text>
<text text-anchor="start" x="112.5" y="-1382.5" font-family="Helvetica,sans-Serif" font-size="10.00">Email()</text>
<text text-anchor="start" x="102.5" y="-1366.5" font-family="Helvetica,sans-Serif" font-size="10.00">+</text>
<text text-anchor="start" x="112.5" y="-1366.5" font-family="Helvetica,sans-Serif" font-size="10.00">Email()</text>
<text text-anchor="start" x="102.5" y="-1350.5" font-family="Helvetica,sans-Serif" font-size="10.00">+</text>
<text text-anchor="start" x="112.5" y="-1350.5" font-family="Helvetica,sans-Serif" font-size="10.00">Email()</text>
<text text-anchor="start" x="102.5" y="-1334.5" font-family="Helvetica,sans-Serif" font-size="10.00">+</text>
<text text-anchor="start" x="112.5" y="-1334.5" font-family="Helvetica,sans-Serif" font-size="10.00">operator=()</text>
<text text-anchor="start" x="102.5" y="-1318.5" font-family="Helvetica,sans-Serif" font-size="10.00">+</text>
<text text-anchor="start" x="112.5" y="-1318.5" font-family="Helvetica,sans-Serif" font-size="10.00">operator=()</text>
<text text-anchor="start" x="102.5" y="-1302.5" font-family="Helvetica,sans-Serif" font-size="10.00">+</text>
<text text-anchor="start" x="112.5" y="-1302.5" font-family="Helvetica,sans-Serif" font-size="10.00">operator==()</text>
<text text-anchor="start" x="102.5" y="-1286.5" font-family="Helvetica,sans-Serif" font-size="10.00">+</text>
<text text-anchor="start" x="112.5" y="-1286.5" font-family="Helvetica,sans-Serif" font-size="10.00">get_email()</text>
<text text-anchor="start" x="102.5" y="-1270.5" font-family="Helvetica,sans-Serif" font-size="10.00">+</text>
<text text-anchor="start" x="112.5" y="-1270.5" font-family="Helvetica,sans-Serif" font-size="10.00">set_email()</text>
<text text-anchor="start" x="102.5" y="-1254.5" font-family="Helvetica,sans-Serif" font-size="10.00">+</text>
<text text-anchor="start" x="112.5" y="-1254.5" font-family="Helvetica,sans-Serif" font-size="10.00">copy()</text>
<text text-anchor="start" x="102.5" y="-1238.5" font-family="Helvetica,sans-Serif" font-size="10.00">+</text>
<text text-anchor="start" x="112.5" y="-1238.5" font-family="Helvetica,sans-Serif" font-size="10.00">~Email()</text>
<polygon fill="#666666" stroke="#666666" points="98.5,-1442 98.5,-1442 169.75,-1442 169.75,-1442 98.5,-1442"/>
<polygon fill="#666666" stroke="#666666" points="98.5,-1426 98.5,-1426 110.5,-1426 110.5,-1426 98.5,-1426"/>
<polygon fill="#666666" stroke="#666666" points="110.5,-1426 110.5,-1426 169.75,-1426 169.75,-1426 110.5,-1426"/>
<polygon fill="none" stroke="#666666" points="98.5,-1232 98.5,-1460 169.75,-1460 169.75,-1232 98.5,-1232"/>
</a>
</g>
</g>
<!-- Node7&#45;&gt;Node6 -->
<g id="edge7_Node000006_Node000007" class="edge">
<title>Node7&#45;&gt;Node6</title>
<g id="a_edge7_Node000006_Node000007"><a xlink:title=" ">
<path fill="none" stroke="#63b8ff" d="M125.38,-1232.38C123.88,-1213.1 122.31,-1192.79 120.75,-1172.73"/>
<polygon fill="none" stroke="#63b8ff" points="120.75,-1172.79 116.3,-1167.12 119.83,-1160.83 124.28,-1166.5 120.75,-1172.79"/>
</a>
</g>
<text text-anchor="middle" x="140" y="-1180.5" font-family="Helvetica,sans-Serif" font-size="10.00" fill="grey"> #email_</text>
</g>
<!-- Node8 -->
<g id="Node000008" class="node">
<title>Node8</title>
<g id="a_Node000008"><a xlink:href="$class_contacts.html" xlink:title="Base class for contact&#45;related utilities.">
<polygon fill="white" stroke="none" points="185.12,-1573 83.12,-1573 83.12,-1521 185.12,-1521 185.12,-1573"/>
<text text-anchor="start" x="114.25" y="-1559.5" font-family="Helvetica,sans-Serif" font-size="10.00">Contacts</text>
<text text-anchor="start" x="132.62" y="-1543.5" font-family="Helvetica,sans-Serif" font-size="10.00"> </text>
<text text-anchor="start" x="87.12" y="-1527.5" font-family="Helvetica,sans-Serif" font-size="10.00">#</text>
<text text-anchor="start" x="96.38" y="-1527.5" font-family="Helvetica,sans-Serif" font-size="10.00">copy_to_clipboard()</text>
<polygon fill="#666666" stroke="#666666" points="83.12,-1555 83.12,-1555 185.12,-1555 185.12,-1555 83.12,-1555"/>
<polygon fill="#666666" stroke="#666666" points="83.12,-1539 83.12,-1539 185.12,-1539 185.12,-1539 83.12,-1539"/>
<polygon fill="none" stroke="#666666" points="83.12,-1521 83.12,-1573 185.12,-1573 185.12,-1521 83.12,-1521"/>
</a>
</g>
</g>
<!-- Node8&#45;&gt;Node7 -->
<g id="edge8_Node000007_Node000008" class="edge">
<title>Node8&#45;&gt;Node7</title>
<g id="a_edge8_Node000007_Node000008"><a xlink:title=" ">
<path fill="none" stroke="#63b8ff" d="M134.12,-1509.85C134.12,-1495.41 134.12,-1477.94 134.12,-1459.87"/>
<polygon fill="none" stroke="#63b8ff" points="130.63,-1509.69 134.13,-1519.69 137.63,-1509.69 130.63,-1509.69"/>
</a>
</g>
</g>
<!-- Node9 -->
<g id="Node000009" class="node">
<title>Node9</title>
<g id="a_Node000009"><a xlink:href="$class_database.html" xlink:title="Manages data related to lessons, parents, children, and employees.">
<polygon fill="white" stroke="none" points="303.12,-824 165.12,-824 165.12,-164 303.12,-164 303.12,-824"/>
<text text-anchor="start" x="213.12" y="-810.5" font-family="Helvetica,sans-Serif" font-size="10.00">Database</text>
<text text-anchor="start" x="170.62" y="-794.5" font-family="Helvetica,sans-Serif" font-size="10.00">&#45;</text>
<text text-anchor="start" x="179.12" y="-794.5" font-family="Helvetica,sans-Serif" font-size="10.00">lessons_</text>
<text text-anchor="start" x="170.62" y="-778.5" font-family="Helvetica,sans-Serif" font-size="10.00">&#45;</text>
<text text-anchor="start" x="179.12" y="-778.5" font-family="Helvetica,sans-Serif" font-size="10.00">parents_</text>
<text text-anchor="start" x="170.62" y="-762.5" font-family="Helvetica,sans-Serif" font-size="10.00">&#45;</text>
<text text-anchor="start" x="179.12" y="-762.5" font-family="Helvetica,sans-Serif" font-size="10.00">children_</text>
<text text-anchor="start" x="170.62" y="-746.5" font-family="Helvetica,sans-Serif" font-size="10.00">&#45;</text>
<text text-anchor="start" x="179.12" y="-746.5" font-family="Helvetica,sans-Serif" font-size="10.00">employees_</text>
<text text-anchor="start" x="170.62" y="-730.5" font-family="Helvetica,sans-Serif" font-size="10.00">&#45;</text>
<text text-anchor="start" x="179.12" y="-730.5" font-family="Helvetica,sans-Serif" font-size="10.00">child_by_name</text>
<text text-anchor="start" x="170.62" y="-714.5" font-family="Helvetica,sans-Serif" font-size="10.00">&#45;</text>
<text text-anchor="start" x="179.12" y="-714.5" font-family="Helvetica,sans-Serif" font-size="10.00">child_by_surname</text>
<text text-anchor="start" x="170.62" y="-698.5" font-family="Helvetica,sans-Serif" font-size="10.00">&#45;</text>
<text text-anchor="start" x="179.12" y="-698.5" font-family="Helvetica,sans-Serif" font-size="10.00">child_by_birth_date</text>
<text text-anchor="start" x="170.62" y="-682.5" font-family="Helvetica,sans-Serif" font-size="10.00">&#45;</text>
<text text-anchor="start" x="179.12" y="-682.5" font-family="Helvetica,sans-Serif" font-size="10.00">parent_by_name</text>
<text text-anchor="start" x="170.62" y="-666.5" font-family="Helvetica,sans-Serif" font-size="10.00">&#45;</text>
<text text-anchor="start" x="179.12" y="-666.5" font-family="Helvetica,sans-Serif" font-size="10.00">parent_by_surname</text>
<text text-anchor="start" x="170.62" y="-650.5" font-family="Helvetica,sans-Serif" font-size="10.00">&#45;</text>
<text text-anchor="start" x="179.12" y="-650.5" font-family="Helvetica,sans-Serif" font-size="10.00">parent_by_email</text>
<text text-anchor="start" x="170.62" y="-634.5" font-family="Helvetica,sans-Serif" font-size="10.00">&#45;</text>
<text text-anchor="start" x="179.12" y="-634.5" font-family="Helvetica,sans-Serif" font-size="10.00">employee_by_name</text>
<text text-anchor="start" x="170.62" y="-618.5" font-family="Helvetica,sans-Serif" font-size="10.00">&#45;</text>
<text text-anchor="start" x="179.12" y="-618.5" font-family="Helvetica,sans-Serif" font-size="10.00">employee_by_surname</text>
<text text-anchor="start" x="170.62" y="-602.5" font-family="Helvetica,sans-Serif" font-size="10.00">&#45;</text>
<text text-anchor="start" x="179.12" y="-602.5" font-family="Helvetica,sans-Serif" font-size="10.00">lesson_by_datetime</text>
<text text-anchor="start" x="169.12" y="-586.5" font-family="Helvetica,sans-Serif" font-size="10.00">+</text>
<text text-anchor="start" x="179.12" y="-586.5" font-family="Helvetica,sans-Serif" font-size="10.00">Database()</text>
<text text-anchor="start" x="169.12" y="-570.5" font-family="Helvetica,sans-Serif" font-size="10.00">+</text>
<text text-anchor="start" x="179.12" y="-570.5" font-family="Helvetica,sans-Serif" font-size="10.00">Database()</text>
<text text-anchor="start" x="169.12" y="-554.5" font-family="Helvetica,sans-Serif" font-size="10.00">+</text>
<text text-anchor="start" x="179.12" y="-554.5" font-family="Helvetica,sans-Serif" font-size="10.00">Database()</text>
<text text-anchor="start" x="169.12" y="-538.5" font-family="Helvetica,sans-Serif" font-size="10.00">+</text>
<text text-anchor="start" x="179.12" y="-538.5" font-family="Helvetica,sans-Serif" font-size="10.00">operator=()</text>
<text text-anchor="start" x="169.12" y="-522.5" font-family="Helvetica,sans-Serif" font-size="10.00">+</text>
<text text-anchor="start" x="179.12" y="-522.5" font-family="Helvetica,sans-Serif" font-size="10.00">operator=()</text>
<text text-anchor="start" x="169.12" y="-506.5" font-family="Helvetica,sans-Serif" font-size="10.00">+</text>
<text text-anchor="start" x="179.12" y="-506.5" font-family="Helvetica,sans-Serif" font-size="10.00">add_lesson()</text>
<text text-anchor="start" x="169.12" y="-490.5" font-family="Helvetica,sans-Serif" font-size="10.00">+</text>
<text text-anchor="start" x="179.12" y="-490.5" font-family="Helvetica,sans-Serif" font-size="10.00">remove_lesson()</text>
<text text-anchor="start" x="169.12" y="-474.5" font-family="Helvetica,sans-Serif" font-size="10.00">+</text>
<text text-anchor="start" x="179.12" y="-474.5" font-family="Helvetica,sans-Serif" font-size="10.00">sort_lessons_by_datetime()</text>
<text text-anchor="start" x="169.12" y="-458.5" font-family="Helvetica,sans-Serif" font-size="10.00">+</text>
<text text-anchor="start" x="179.12" y="-458.5" font-family="Helvetica,sans-Serif" font-size="10.00">filter_lesson_by_day()</text>
<text text-anchor="start" x="169.12" y="-442.5" font-family="Helvetica,sans-Serif" font-size="10.00">+</text>
<text text-anchor="start" x="179.12" y="-442.5" font-family="Helvetica,sans-Serif" font-size="10.00">filter_lesson_by_address()</text>
<text text-anchor="start" x="179.12" y="-426.5" font-family="Helvetica,sans-Serif" font-size="10.00">and 38 more...</text>
<text text-anchor="start" x="170.62" y="-410.5" font-family="Helvetica,sans-Serif" font-size="10.00">&#45;</text>
<text text-anchor="start" x="179.12" y="-410.5" font-family="Helvetica,sans-Serif" font-size="10.00">import_Lessons_from</text>
<text text-anchor="start" x="179.12" y="-398.5" font-family="Helvetica,sans-Serif" font-size="10.00">_csv_file()</text>
<text text-anchor="start" x="170.62" y="-382.5" font-family="Helvetica,sans-Serif" font-size="10.00">&#45;</text>
<text text-anchor="start" x="179.12" y="-382.5" font-family="Helvetica,sans-Serif" font-size="10.00">import_Parents_from</text>
<text text-anchor="start" x="179.12" y="-370.5" font-family="Helvetica,sans-Serif" font-size="10.00">_csv_file()</text>
<text text-anchor="start" x="170.62" y="-354.5" font-family="Helvetica,sans-Serif" font-size="10.00">&#45;</text>
<text text-anchor="start" x="179.12" y="-354.5" font-family="Helvetica,sans-Serif" font-size="10.00">import_Children_from</text>
<text text-anchor="start" x="179.12" y="-342.5" font-family="Helvetica,sans-Serif" font-size="10.00">_csv_file()</text>
<text text-anchor="start" x="170.62" y="-326.5" font-family="Helvetica,sans-Serif" font-size="10.00">&#45;</text>
<text text-anchor="start" x="179.12" y="-326.5" font-family="Helvetica,sans-Serif" font-size="10.00">import_Employees_from</text>
<text text-anchor="start" x="179.12" y="-314.5" font-family="Helvetica,sans-Serif" font-size="10.00">_csv_file()</text>
<text text-anchor="start" x="170.62" y="-298.5" font-family="Helvetica,sans-Serif" font-size="10.00">&#45;</text>
<text text-anchor="start" x="179.12" y="-298.5" font-family="Helvetica,sans-Serif" font-size="10.00">export_Lessons_to_csv</text>
<text text-anchor="start" x="179.12" y="-286.5" font-family="Helvetica,sans-Serif" font-size="10.00">_file()</text>
<text text-anchor="start" x="170.62" y="-270.5" font-family="Helvetica,sans-Serif" font-size="10.00">&#45;</text>
<text text-anchor="start" x="179.12" y="-270.5" font-family="Helvetica,sans-Serif" font-size="10.00">export_Parents_to_csv</text>
<text text-anchor="start" x="179.12" y="-258.5" font-family="Helvetica,sans-Serif" font-size="10.00">_file()</text>
<text text-anchor="start" x="170.62" y="-242.5" font-family="Helvetica,sans-Serif" font-size="10.00">&#45;</text>
<text text-anchor="start" x="179.12" y="-242.5" font-family="Helvetica,sans-Serif" font-size="10.00">export_Children_to</text>
<text text-anchor="start" x="179.12" y="-230.5" font-family="Helvetica,sans-Serif" font-size="10.00">_csv_file()</text>
<text text-anchor="start" x="170.62" y="-214.5" font-family="Helvetica,sans-Serif" font-size="10.00">&#45;</text>
<text text-anchor="start" x="179.12" y="-214.5" font-family="Helvetica,sans-Serif" font-size="10.00">export_Employees_to</text>
<text text-anchor="start" x="179.12" y="-202.5" font-family="Helvetica,sans-Serif" font-size="10.00">_csv_file()</text>
<text text-anchor="start" x="170.62" y="-186.5" font-family="Helvetica,sans-Serif" font-size="10.00">&#45;</text>
<text text-anchor="start" x="179.12" y="-186.5" font-family="Helvetica,sans-Serif" font-size="10.00">remove_from_map()</text>
<text text-anchor="start" x="170.62" y="-170.5" font-family="Helvetica,sans-Serif" font-size="10.00">&#45;</text>
<text text-anchor="start" x="179.12" y="-170.5" font-family="Helvetica,sans-Serif" font-size="10.00">search_lavenstein()</text>
<polygon fill="#666666" stroke="#666666" points="165.12,-806 165.12,-806 303.12,-806 303.12,-806 165.12,-806"/>
<polygon fill="#666666" stroke="#666666" points="165.12,-598 165.12,-598 177.12,-598 177.12,-598 165.12,-598"/>
<polygon fill="#666666" stroke="#666666" points="177.12,-598 177.12,-598 303.12,-598 303.12,-598 177.12,-598"/>
<polygon fill="none" stroke="#666666" points="165.12,-164 165.12,-824 303.12,-824 303.12,-164 165.12,-164"/>
</a>
</g>
</g>
<!-- Node9&#45;&gt;Node1 -->
<g id="edge9_Node000001_Node000009" class="edge">
<title>Node9&#45;&gt;Node1</title>
<g id="a_edge9_Node000001_Node000009"><a xlink:title=" ">
<path fill="none" stroke="#63b8ff" d="M209.87,-164.06C208.95,-151.54 208.08,-139.7 207.27,-128.8"/>
<polygon fill="none" stroke="#63b8ff" points="207.28,-128.85 202.84,-123.16 206.39,-116.88 210.82,-122.57 207.28,-128.85"/>
</a>
</g>
<text text-anchor="middle" x="233.75" y="-136.5" font-family="Helvetica,sans-Serif" font-size="10.00" fill="grey"> &#45;database_</text>
</g>
<!-- Node10 -->
<g id="Node000010" class="node">
<title>Node10</title>
<g id="a_Node000010"><a xlink:href="$class_ui_1_1_child_dialog_class.html" xlink:title=" ">
<polygon fill="white" stroke="none" points="420.88,-520 321.38,-520 321.38,-468 420.88,-468 420.88,-520"/>
<text text-anchor="start" x="325.38" y="-506.5" font-family="Helvetica,sans-Serif" font-size="10.00">Ui::ChildDialogClass</text>
<text text-anchor="start" x="369.62" y="-490.5" font-family="Helvetica,sans-Serif" font-size="10.00"> </text>
<text text-anchor="start" x="369.62" y="-474.5" font-family="Helvetica,sans-Serif" font-size="10.00"> </text>
<polygon fill="#666666" stroke="#666666" points="321.38,-502 321.38,-502 420.88,-502 420.88,-502 321.38,-502"/>
<polygon fill="#666666" stroke="#666666" points="321.38,-486 321.38,-486 420.88,-486 420.88,-486 321.38,-486"/>
<polygon fill="none" stroke="#666666" points="321.38,-468 321.38,-520 420.88,-520 420.88,-468 321.38,-468"/>
</a>
</g>
</g>
<!-- Node10&#45;&gt;Node1 -->
<g id="edge10_Node000001_Node000010" class="edge">
<title>Node10&#45;&gt;Node1</title>
<g id="a_edge10_Node000001_Node000010"><a xlink:title=" ">
<path fill="none" stroke="#63b8ff" d="M371.77,-468.2C372.22,-410.97 367.33,-266.75 312.12,-164 299.56,-140.62 279.91,-119.42 260.67,-102.28"/>
<polygon fill="none" stroke="#63b8ff" points="260.77,-102.36 253.61,-101.48 251.67,-94.54 258.83,-95.42 260.77,-102.36"/>
</a>
</g>
<text text-anchor="middle" x="305.59" y="-136.5" font-family="Helvetica,sans-Serif" font-size="10.00" fill="grey"> &#45;ui</text>
</g>
<!-- Node11 -->
<g id="Node000011" class="node">
<title>Node11</title>
<g id="a_Node000011"><a xlink:href="$class_ui___child_dialog_class.html" xlink:title=" ">
<polygon fill="white" stroke="none" points="420.5,-1136 321.75,-1136 321.75,-908 420.5,-908 420.5,-1136"/>
<text text-anchor="start" x="325.75" y="-1122.5" font-family="Helvetica,sans-Serif" font-size="10.00">Ui_ChildDialogClass</text>
<text text-anchor="start" x="330.19" y="-1106.5" font-family="Helvetica,sans-Serif" font-size="10.00">+</text>
<text text-anchor="start" x="344.62" y="-1106.5" font-family="Helvetica,sans-Serif" font-size="10.00">gridLayout</text>
<text text-anchor="start" x="330.19" y="-1090.5" font-family="Helvetica,sans-Serif" font-size="10.00">+</text>
<text text-anchor="start" x="344.62" y="-1090.5" font-family="Helvetica,sans-Serif" font-size="10.00">surname_label</text>
<text text-anchor="start" x="330.19" y="-1074.5" font-family="Helvetica,sans-Serif" font-size="10.00">+</text>
<text text-anchor="start" x="344.62" y="-1074.5" font-family="Helvetica,sans-Serif" font-size="10.00">line_4</text>
<text text-anchor="start" x="330.19" y="-1058.5" font-family="Helvetica,sans-Serif" font-size="10.00">+</text>
<text text-anchor="start" x="344.62" y="-1058.5" font-family="Helvetica,sans-Serif" font-size="10.00">okButton</text>
<text text-anchor="start" x="330.19" y="-1042.5" font-family="Helvetica,sans-Serif" font-size="10.00">+</text>
<text text-anchor="start" x="344.62" y="-1042.5" font-family="Helvetica,sans-Serif" font-size="10.00">mom_edit</text>
<text text-anchor="start" x="330.19" y="-1026.5" font-family="Helvetica,sans-Serif" font-size="10.00">+</text>
<text text-anchor="start" x="344.62" y="-1026.5" font-family="Helvetica,sans-Serif" font-size="10.00">name_edit</text>
<text text-anchor="start" x="330.19" y="-1010.5" font-family="Helvetica,sans-Serif" font-size="10.00">+</text>
<text text-anchor="start" x="344.62" y="-1010.5" font-family="Helvetica,sans-Serif" font-size="10.00">line_5</text>
<text text-anchor="start" x="330.19" y="-994.5" font-family="Helvetica,sans-Serif" font-size="10.00">+</text>
<text text-anchor="start" x="344.62" y="-994.5" font-family="Helvetica,sans-Serif" font-size="10.00">birthdate_edit</text>
<text text-anchor="start" x="330.19" y="-978.5" font-family="Helvetica,sans-Serif" font-size="10.00">+</text>
<text text-anchor="start" x="344.62" y="-978.5" font-family="Helvetica,sans-Serif" font-size="10.00">dad_label</text>
<text text-anchor="start" x="330.19" y="-962.5" font-family="Helvetica,sans-Serif" font-size="10.00">+</text>
<text text-anchor="start" x="344.62" y="-962.5" font-family="Helvetica,sans-Serif" font-size="10.00">mom_label</text>
<text text-anchor="start" x="344.62" y="-946.5" font-family="Helvetica,sans-Serif" font-size="10.00">and 8 more...</text>
<text text-anchor="start" x="330.19" y="-930.5" font-family="Helvetica,sans-Serif" font-size="10.00">+</text>
<text text-anchor="start" x="344.62" y="-930.5" font-family="Helvetica,sans-Serif" font-size="10.00">setupUi()</text>
<text text-anchor="start" x="330.19" y="-914.5" font-family="Helvetica,sans-Serif" font-size="10.00">+</text>
<text text-anchor="start" x="344.62" y="-914.5" font-family="Helvetica,sans-Serif" font-size="10.00">retranslateUi()</text>
<polygon fill="#666666" stroke="#666666" points="321.75,-1118 321.75,-1118 420.5,-1118 420.5,-1118 321.75,-1118"/>
<polygon fill="#666666" stroke="#666666" points="321.75,-942 321.75,-942 342.62,-942 342.62,-942 321.75,-942"/>
<polygon fill="#666666" stroke="#666666" points="342.62,-942 342.62,-942 420.5,-942 420.5,-942 342.62,-942"/>
<polygon fill="none" stroke="#666666" points="321.75,-908 321.75,-1136 420.5,-1136 420.5,-908 321.75,-908"/>
</a>
</g>
</g>
<!-- Node11&#45;&gt;Node10 -->
<g id="edge11_Node000010_Node000011" class="edge">
<title>Node11&#45;&gt;Node10</title>
<g id="a_edge11_Node000010_Node000011"><a xlink:title=" ">
<path fill="none" stroke="#63b8ff" d="M371.12,-896.95C371.12,-771.31 371.12,-586.31 371.12,-519.88"/>
<polygon fill="none" stroke="#63b8ff" points="367.63,-896.65 371.13,-906.65 374.63,-896.65 367.63,-896.65"/>
</a>
</g>
</g>
</g>
</svg>
