<?xml version="1.0" encoding="UTF-8" standalone="no"?>
<!DOCTYPE svg PUBLIC "-//W3C//DTD SVG 1.1//EN"
 "http://www.w3.org/Graphics/SVG/1.1/DTD/svg11.dtd">
<!-- Generated by graphviz version 12.2.1 (20241206.2353)
 -->
<!-- Title: Parent::operator== Pages: 1 -->
<svg width="371pt" height="66pt"
 viewBox="0.00 0.00 371.00 66.00" xmlns="http://www.w3.org/2000/svg" xmlns:xlink="http://www.w3.org/1999/xlink">

<svg id="main" version="1.1" xmlns="http://www.w3.org/2000/svg" xmlns:xlink="http://www.w3.org/1999/xlink" xml:space="preserve">

<style type="text/css"><![CDATA[
.node, .edge {opacity: 0.7;}
.node.selected, .edge.selected {opacity: 1;}
.edge:hover path { stroke: red; }
.edge:hover polygon { stroke: red; fill: red; }
]]></style>
<script type="application/ecmascript" xlink:href="svg.min.js"/>
<svg id="graph" class="graph">
<g id="graph0" class="graph" transform="scale(1 1) rotate(0) translate(4 62)">
<title>Parent::operator==</title>
<!-- Node1 -->
<g id="Node000001" class="node">
<title>Node1</title>
<g id="a_Node000001"><a xlink:title="Equality operator.">
<polygon fill="#999999" stroke="#666666" points="97.75,-39 0,-39 0,-19 97.75,-19 97.75,-39"/>
<text text-anchor="middle" x="48.88" y="-25.5" font-family="Helvetica,sans-Serif" font-size="10.00">Parent::operator==</text>
</a>
</g>
</g>
<!-- Node2 -->
<g id="Node000002" class="node">
<title>Node2</title>
<g id="a_Node000002"><a xlink:href="class_person.html#a3115c6aff8a8fb9047ea9ec7c901c491" target="_top" xlink:title="Equality operator.">
<polygon fill="white" stroke="#666666" points="233.75,-58 133.75,-58 133.75,-38 233.75,-38 233.75,-58"/>
<text text-anchor="middle" x="183.75" y="-44.5" font-family="Helvetica,sans-Serif" font-size="10.00">Person::operator==</text>
</a>
</g>
</g>
<!-- Node1&#45;&gt;Node2 -->
<g id="edge1_Node000001_Node000002" class="edge">
<title>Node1&#45;&gt;Node2</title>
<g id="a_edge1_Node000001_Node000002"><a xlink:title=" ">
<path fill="none" stroke="#63b8ff" d="M98.22,-35.91C105.99,-37.02 114.11,-38.19 122.12,-39.33"/>
<polygon fill="#63b8ff" stroke="#63b8ff" points="121.43,-42.77 131.83,-40.72 122.42,-35.84 121.43,-42.77"/>
</a>
</g>
</g>
<!-- Node4 -->
<g id="Node000004" class="node">
<title>Node4</title>
<g id="a_Node000004"><a xlink:href="class_parent.html#a079738966a5c9f87e7d234c43e235132" target="_top" xlink:title="Default constructor.">
<polygon fill="white" stroke="#666666" points="223.25,-20 144.25,-20 144.25,0 223.25,0 223.25,-20"/>
<text text-anchor="middle" x="183.75" y="-6.5" font-family="Helvetica,sans-Serif" font-size="10.00">Parent::Parent</text>
</a>
</g>
</g>
<!-- Node1&#45;&gt;Node4 -->
<g id="edge3_Node000001_Node000004" class="edge">
<title>Node1&#45;&gt;Node4</title>
<g id="a_edge3_Node000001_Node000004"><a xlink:title=" ">
<path fill="none" stroke="#63b8ff" d="M98.22,-22.09C109.35,-20.5 121.2,-18.8 132.41,-17.2"/>
<polygon fill="#63b8ff" stroke="#63b8ff" points="132.89,-20.66 142.3,-15.78 131.9,-13.74 132.89,-20.66"/>
</a>
</g>
</g>
<!-- Node3 -->
<g id="Node000003" class="node">
<title>Node3</title>
<g id="a_Node000003"><a xlink:href="class_person.html#a236d2bb0b0df0916a7d7affa5aac83c9" target="_top" xlink:title="Default constructor.">
<polygon fill="white" stroke="#666666" points="358.12,-58 274.62,-58 274.62,-38 358.12,-38 358.12,-58"/>
<text text-anchor="middle" x="316.38" y="-44.5" font-family="Helvetica,sans-Serif" font-size="10.00">Person::Person</text>
</a>
</g>
</g>
<!-- Node2&#45;&gt;Node3 -->
<g id="edge2_Node000002_Node000003" class="edge">
<title>Node2&#45;&gt;Node3</title>
<g id="a_edge2_Node000002_Node000003"><a xlink:title=" ">
<path fill="none" stroke="#63b8ff" d="M234.13,-48C243.58,-48 253.51,-48 263.05,-48"/>
<polygon fill="#63b8ff" stroke="#63b8ff" points="262.92,-51.5 272.92,-48 262.92,-44.5 262.92,-51.5"/>
</a>
</g>
</g>
<!-- Node5 -->
<g id="Node000005" class="node">
<title>Node5</title>
<g id="a_Node000005"><a xlink:href="class_parent.html#a3fa387494ad7c650bb24604970bf5957" target="_top" xlink:title="Checks if the parent is a mother.">
<polygon fill="white" stroke="#666666" points="363,-20 269.75,-20 269.75,0 363,0 363,-20"/>
<text text-anchor="middle" x="316.38" y="-6.5" font-family="Helvetica,sans-Serif" font-size="10.00">Parent::is_mother</text>
</a>
</g>
</g>
<!-- Node4&#45;&gt;Node5 -->
<g id="edge4_Node000004_Node000005" class="edge">
<title>Node4&#45;&gt;Node5</title>
<g id="a_edge4_Node000004_Node000005"><a xlink:title=" ">
<path fill="none" stroke="#63b8ff" d="M223.59,-10C234.42,-10 246.42,-10 258.07,-10"/>
<polygon fill="#63b8ff" stroke="#63b8ff" points="258.04,-13.5 268.04,-10 258.04,-6.5 258.04,-13.5"/>
</a>
</g>
</g>
</g>
</svg>
</svg>

<style type='text/css'>
<![CDATA[
[data-mouse-over-selected='false'] { opacity: 0.7; }
[data-mouse-over-selected='true']  { opacity: 1.0; }
]]>
</style>
<script type="application/ecmascript"><![CDATA[
document.addEventListener('DOMContentLoaded', (event) => {
  highlightEdges();
  highlightAdjacentNodes();
});
]]></script>
</svg>
