<?xml version="1.0" encoding="UTF-8" standalone="no"?>
<!DOCTYPE svg PUBLIC "-//W3C//DTD SVG 1.1//EN"
 "http://www.w3.org/Graphics/SVG/1.1/DTD/svg11.dtd">
<!-- Generated by graphviz version 12.2.1 (20241206.2353)
 -->
<!-- Title: Employee Pages: 1 -->
<svg width="267pt" height="633pt"
 viewBox="0.00 0.00 266.75 633.00" xmlns="http://www.w3.org/2000/svg" xmlns:xlink="http://www.w3.org/1999/xlink">
<g id="graph0" class="graph" transform="scale(1 1) rotate(0) translate(4 629)">
<title>Employee</title>
<!-- Node1 -->
<g id="Node000001" class="node">
<title>Node1</title>
<g id="a_Node000001"><a xlink:title="Represents an employee.">
<polygon fill="#999999" stroke="none" points="176.12,-212 92.12,-212 92.12,0 176.12,0 176.12,-212"/>
<text text-anchor="start" x="112.38" y="-198.5" font-family="Helvetica,sans-Serif" font-size="10.00">Employee</text>
<text text-anchor="start" x="96.5" y="-182.5" font-family="Helvetica,sans-Serif" font-size="10.00">#</text>
<text text-anchor="start" x="106.12" y="-182.5" font-family="Helvetica,sans-Serif" font-size="10.00">hours_worked_</text>
<text text-anchor="start" x="96.12" y="-166.5" font-family="Helvetica,sans-Serif" font-size="10.00">+</text>
<text text-anchor="start" x="106.12" y="-166.5" font-family="Helvetica,sans-Serif" font-size="10.00">Employee()</text>
<text text-anchor="start" x="96.12" y="-150.5" font-family="Helvetica,sans-Serif" font-size="10.00">+</text>
<text text-anchor="start" x="106.12" y="-150.5" font-family="Helvetica,sans-Serif" font-size="10.00">Employee()</text>
<text text-anchor="start" x="96.12" y="-134.5" font-family="Helvetica,sans-Serif" font-size="10.00">+</text>
<text text-anchor="start" x="106.12" y="-134.5" font-family="Helvetica,sans-Serif" font-size="10.00">Employee()</text>
<text text-anchor="start" x="96.12" y="-118.5" font-family="Helvetica,sans-Serif" font-size="10.00">+</text>
<text text-anchor="start" x="106.12" y="-118.5" font-family="Helvetica,sans-Serif" font-size="10.00">Employee()</text>
<text text-anchor="start" x="96.12" y="-102.5" font-family="Helvetica,sans-Serif" font-size="10.00">+</text>
<text text-anchor="start" x="106.12" y="-102.5" font-family="Helvetica,sans-Serif" font-size="10.00">Employee()</text>
<text text-anchor="start" x="96.12" y="-86.5" font-family="Helvetica,sans-Serif" font-size="10.00">+</text>
<text text-anchor="start" x="106.12" y="-86.5" font-family="Helvetica,sans-Serif" font-size="10.00">operator=()</text>
<text text-anchor="start" x="96.12" y="-70.5" font-family="Helvetica,sans-Serif" font-size="10.00">+</text>
<text text-anchor="start" x="106.12" y="-70.5" font-family="Helvetica,sans-Serif" font-size="10.00">operator=()</text>
<text text-anchor="start" x="96.12" y="-54.5" font-family="Helvetica,sans-Serif" font-size="10.00">+</text>
<text text-anchor="start" x="106.12" y="-54.5" font-family="Helvetica,sans-Serif" font-size="10.00">get_email()</text>
<text text-anchor="start" x="96.12" y="-38.5" font-family="Helvetica,sans-Serif" font-size="10.00">+</text>
<text text-anchor="start" x="106.12" y="-38.5" font-family="Helvetica,sans-Serif" font-size="10.00">set_email()</text>
<text text-anchor="start" x="96.12" y="-22.5" font-family="Helvetica,sans-Serif" font-size="10.00">+</text>
<text text-anchor="start" x="106.12" y="-22.5" font-family="Helvetica,sans-Serif" font-size="10.00">get_phone()</text>
<text text-anchor="start" x="106.12" y="-6.5" font-family="Helvetica,sans-Serif" font-size="10.00">and 6 more...</text>
<polygon fill="#666666" stroke="#666666" points="92.12,-194 92.12,-194 176.12,-194 176.12,-194 92.12,-194"/>
<polygon fill="#666666" stroke="#666666" points="92.12,-178 92.12,-178 104.12,-178 104.12,-178 92.12,-178"/>
<polygon fill="#666666" stroke="#666666" points="104.12,-178 104.12,-178 176.12,-178 176.12,-178 104.12,-178"/>
<polygon fill="none" stroke="#666666" points="92.12,0 92.12,-212 176.12,-212 176.12,0 92.12,0"/>
</a>
</g>
</g>
<!-- Node2 -->
<g id="Node000002" class="node">
<title>Node2</title>
<g id="a_Node000002"><a xlink:href="class_person.html" target="_top" xlink:title="Represents a generic person.">
<polygon fill="white" stroke="none" points="80.25,-536 0,-536 0,-260 80.25,-260 80.25,-536"/>
<text text-anchor="start" x="24.75" y="-522.5" font-family="Helvetica,sans-Serif" font-size="10.00">Person</text>
<text text-anchor="start" x="4.38" y="-506.5" font-family="Helvetica,sans-Serif" font-size="10.00">#</text>
<text text-anchor="start" x="14" y="-506.5" font-family="Helvetica,sans-Serif" font-size="10.00">name_</text>
<text text-anchor="start" x="4.38" y="-490.5" font-family="Helvetica,sans-Serif" font-size="10.00">#</text>
<text text-anchor="start" x="14" y="-490.5" font-family="Helvetica,sans-Serif" font-size="10.00">surname_</text>
<text text-anchor="start" x="4" y="-474.5" font-family="Helvetica,sans-Serif" font-size="10.00">+</text>
<text text-anchor="start" x="14" y="-474.5" font-family="Helvetica,sans-Serif" font-size="10.00">Person()</text>
<text text-anchor="start" x="4" y="-458.5" font-family="Helvetica,sans-Serif" font-size="10.00">+</text>
<text text-anchor="start" x="14" y="-458.5" font-family="Helvetica,sans-Serif" font-size="10.00">Person()</text>
<text text-anchor="start" x="4" y="-442.5" font-family="Helvetica,sans-Serif" font-size="10.00">+</text>
<text text-anchor="start" x="14" y="-442.5" font-family="Helvetica,sans-Serif" font-size="10.00">Person()</text>
<text text-anchor="start" x="4" y="-426.5" font-family="Helvetica,sans-Serif" font-size="10.00">+</text>
<text text-anchor="start" x="14" y="-426.5" font-family="Helvetica,sans-Serif" font-size="10.00">Person()</text>
<text text-anchor="start" x="4" y="-410.5" font-family="Helvetica,sans-Serif" font-size="10.00">+</text>
<text text-anchor="start" x="14" y="-410.5" font-family="Helvetica,sans-Serif" font-size="10.00">Person()</text>
<text text-anchor="start" x="4" y="-394.5" font-family="Helvetica,sans-Serif" font-size="10.00">+</text>
<text text-anchor="start" x="14" y="-394.5" font-family="Helvetica,sans-Serif" font-size="10.00">operator=()</text>
<text text-anchor="start" x="4" y="-378.5" font-family="Helvetica,sans-Serif" font-size="10.00">+</text>
<text text-anchor="start" x="14" y="-378.5" font-family="Helvetica,sans-Serif" font-size="10.00">operator=()</text>
<text text-anchor="start" x="4" y="-362.5" font-family="Helvetica,sans-Serif" font-size="10.00">+</text>
<text text-anchor="start" x="14" y="-362.5" font-family="Helvetica,sans-Serif" font-size="10.00">operator==()</text>
<text text-anchor="start" x="4" y="-346.5" font-family="Helvetica,sans-Serif" font-size="10.00">+</text>
<text text-anchor="start" x="14" y="-346.5" font-family="Helvetica,sans-Serif" font-size="10.00">operator!=()</text>
<text text-anchor="start" x="4" y="-330.5" font-family="Helvetica,sans-Serif" font-size="10.00">+</text>
<text text-anchor="start" x="14" y="-330.5" font-family="Helvetica,sans-Serif" font-size="10.00">get_name()</text>
<text text-anchor="start" x="4" y="-314.5" font-family="Helvetica,sans-Serif" font-size="10.00">+</text>
<text text-anchor="start" x="14" y="-314.5" font-family="Helvetica,sans-Serif" font-size="10.00">set_name()</text>
<text text-anchor="start" x="4" y="-298.5" font-family="Helvetica,sans-Serif" font-size="10.00">+</text>
<text text-anchor="start" x="14" y="-298.5" font-family="Helvetica,sans-Serif" font-size="10.00">get_surname()</text>
<text text-anchor="start" x="4" y="-282.5" font-family="Helvetica,sans-Serif" font-size="10.00">+</text>
<text text-anchor="start" x="14" y="-282.5" font-family="Helvetica,sans-Serif" font-size="10.00">set_surname()</text>
<text text-anchor="start" x="4" y="-266.5" font-family="Helvetica,sans-Serif" font-size="10.00">+</text>
<text text-anchor="start" x="14" y="-266.5" font-family="Helvetica,sans-Serif" font-size="10.00">~Person()</text>
<polygon fill="#666666" stroke="#666666" points="0,-518 0,-518 80.25,-518 80.25,-518 0,-518"/>
<polygon fill="#666666" stroke="#666666" points="0,-486 0,-486 12,-486 12,-486 0,-486"/>
<polygon fill="#666666" stroke="#666666" points="12,-486 12,-486 80.25,-486 80.25,-486 12,-486"/>
<polygon fill="none" stroke="#666666" points="0,-260 0,-536 80.25,-536 80.25,-260 0,-260"/>
</a>
</g>
</g>
<!-- Node2&#45;&gt;Node1 -->
<g id="edge1_Node000001_Node000002" class="edge">
<title>Node2&#45;&gt;Node1</title>
<g id="a_edge1_Node000001_Node000002"><a xlink:title=" ">
<path fill="none" stroke="#63b8ff" d="M83.59,-262.9C89.18,-245.66 94.83,-228.22 100.24,-211.55"/>
<polygon fill="none" stroke="#63b8ff" points="80.35,-261.56 80.59,-272.15 87.01,-263.72 80.35,-261.56"/>
</a>
</g>
</g>
<!-- Node3 -->
<g id="Node000003" class="node">
<title>Node3</title>
<g id="a_Node000003"><a xlink:href="class_email.html" target="_top" xlink:title="Represents an email address.">
<polygon fill="white" stroke="none" points="169.75,-512 98.5,-512 98.5,-284 169.75,-284 169.75,-512"/>
<text text-anchor="start" x="121.75" y="-498.5" font-family="Helvetica,sans-Serif" font-size="10.00">Email</text>
<text text-anchor="start" x="104" y="-482.5" font-family="Helvetica,sans-Serif" font-size="10.00">&#45;</text>
<text text-anchor="start" x="112.5" y="-482.5" font-family="Helvetica,sans-Serif" font-size="10.00">email_</text>
<text text-anchor="start" x="102.5" y="-466.5" font-family="Helvetica,sans-Serif" font-size="10.00">+</text>
<text text-anchor="start" x="112.5" y="-466.5" font-family="Helvetica,sans-Serif" font-size="10.00">Email()</text>
<text text-anchor="start" x="102.5" y="-450.5" font-family="Helvetica,sans-Serif" font-size="10.00">+</text>
<text text-anchor="start" x="112.5" y="-450.5" font-family="Helvetica,sans-Serif" font-size="10.00">Email()</text>
<text text-anchor="start" x="102.5" y="-434.5" font-family="Helvetica,sans-Serif" font-size="10.00">+</text>
<text text-anchor="start" x="112.5" y="-434.5" font-family="Helvetica,sans-Serif" font-size="10.00">Email()</text>
<text text-anchor="start" x="102.5" y="-418.5" font-family="Helvetica,sans-Serif" font-size="10.00">+</text>
<text text-anchor="start" x="112.5" y="-418.5" font-family="Helvetica,sans-Serif" font-size="10.00">Email()</text>
<text text-anchor="start" x="102.5" y="-402.5" font-family="Helvetica,sans-Serif" font-size="10.00">+</text>
<text text-anchor="start" x="112.5" y="-402.5" font-family="Helvetica,sans-Serif" font-size="10.00">Email()</text>
<text text-anchor="start" x="102.5" y="-386.5" font-family="Helvetica,sans-Serif" font-size="10.00">+</text>
<text text-anchor="start" x="112.5" y="-386.5" font-family="Helvetica,sans-Serif" font-size="10.00">operator=()</text>
<text text-anchor="start" x="102.5" y="-370.5" font-family="Helvetica,sans-Serif" font-size="10.00">+</text>
<text text-anchor="start" x="112.5" y="-370.5" font-family="Helvetica,sans-Serif" font-size="10.00">operator=()</text>
<text text-anchor="start" x="102.5" y="-354.5" font-family="Helvetica,sans-Serif" font-size="10.00">+</text>
<text text-anchor="start" x="112.5" y="-354.5" font-family="Helvetica,sans-Serif" font-size="10.00">operator==()</text>
<text text-anchor="start" x="102.5" y="-338.5" font-family="Helvetica,sans-Serif" font-size="10.00">+</text>
<text text-anchor="start" x="112.5" y="-338.5" font-family="Helvetica,sans-Serif" font-size="10.00">get_email()</text>
<text text-anchor="start" x="102.5" y="-322.5" font-family="Helvetica,sans-Serif" font-size="10.00">+</text>
<text text-anchor="start" x="112.5" y="-322.5" font-family="Helvetica,sans-Serif" font-size="10.00">set_email()</text>
<text text-anchor="start" x="102.5" y="-306.5" font-family="Helvetica,sans-Serif" font-size="10.00">+</text>
<text text-anchor="start" x="112.5" y="-306.5" font-family="Helvetica,sans-Serif" font-size="10.00">copy()</text>
<text text-anchor="start" x="102.5" y="-290.5" font-family="Helvetica,sans-Serif" font-size="10.00">+</text>
<text text-anchor="start" x="112.5" y="-290.5" font-family="Helvetica,sans-Serif" font-size="10.00">~Email()</text>
<polygon fill="#666666" stroke="#666666" points="98.5,-494 98.5,-494 169.75,-494 169.75,-494 98.5,-494"/>
<polygon fill="#666666" stroke="#666666" points="98.5,-478 98.5,-478 110.5,-478 110.5,-478 98.5,-478"/>
<polygon fill="#666666" stroke="#666666" points="110.5,-478 110.5,-478 169.75,-478 169.75,-478 110.5,-478"/>
<polygon fill="none" stroke="#666666" points="98.5,-284 98.5,-512 169.75,-512 169.75,-284 98.5,-284"/>
</a>
</g>
</g>
<!-- Node3&#45;&gt;Node1 -->
<g id="edge2_Node000001_Node000003" class="edge">
<title>Node3&#45;&gt;Node1</title>
<g id="a_edge2_Node000001_Node000003"><a xlink:title=" ">
<path fill="none" stroke="#63b8ff" d="M134.12,-284.05C134.12,-264.48 134.12,-244.09 134.12,-224.41"/>
<polygon fill="none" stroke="#63b8ff" points="134.13,-224.49 130.13,-218.49 134.13,-212.49 138.13,-218.49 134.13,-224.49"/>
</a>
</g>
<text text-anchor="middle" x="152.5" y="-232.5" font-family="Helvetica,sans-Serif" font-size="10.00" fill="grey"> #email_</text>
</g>
<!-- Node4 -->
<g id="Node000004" class="node">
<title>Node4</title>
<g id="a_Node000004"><a xlink:href="class_contacts.html" target="_top" xlink:title="Base class for contact&#45;related utilities.">
<polygon fill="white" stroke="none" points="229.12,-625 127.12,-625 127.12,-573 229.12,-573 229.12,-625"/>
<text text-anchor="start" x="158.25" y="-611.5" font-family="Helvetica,sans-Serif" font-size="10.00">Contacts</text>
<text text-anchor="start" x="176.62" y="-595.5" font-family="Helvetica,sans-Serif" font-size="10.00"> </text>
<text text-anchor="start" x="131.12" y="-579.5" font-family="Helvetica,sans-Serif" font-size="10.00">#</text>
<text text-anchor="start" x="140.38" y="-579.5" font-family="Helvetica,sans-Serif" font-size="10.00">copy_to_clipboard()</text>
<polygon fill="#666666" stroke="#666666" points="127.12,-607 127.12,-607 229.12,-607 229.12,-607 127.12,-607"/>
<polygon fill="#666666" stroke="#666666" points="127.12,-591 127.12,-591 229.12,-591 229.12,-591 127.12,-591"/>
<polygon fill="none" stroke="#666666" points="127.12,-573 127.12,-625 229.12,-625 229.12,-573 127.12,-573"/>
</a>
</g>
</g>
<!-- Node4&#45;&gt;Node3 -->
<g id="edge3_Node000003_Node000004" class="edge">
<title>Node4&#45;&gt;Node3</title>
<g id="a_edge3_Node000003_Node000004"><a xlink:title=" ">
<path fill="none" stroke="#63b8ff" d="M170.23,-562.28C167.02,-547.76 163.12,-530.12 159.08,-511.87"/>
<polygon fill="none" stroke="#63b8ff" points="166.74,-562.71 172.31,-571.72 173.57,-561.2 166.74,-562.71"/>
</a>
</g>
</g>
<!-- Node5 -->
<g id="Node000005" class="node">
<title>Node5</title>
<g id="a_Node000005"><a xlink:href="class_phone.html" target="_top" xlink:title="Represents a phone number.">
<polygon fill="white" stroke="none" points="258.75,-512 187.5,-512 187.5,-284 258.75,-284 258.75,-512"/>
<text text-anchor="start" x="209.25" y="-498.5" font-family="Helvetica,sans-Serif" font-size="10.00">Phone</text>
<text text-anchor="start" x="193" y="-482.5" font-family="Helvetica,sans-Serif" font-size="10.00">&#45;</text>
<text text-anchor="start" x="201.5" y="-482.5" font-family="Helvetica,sans-Serif" font-size="10.00">phone_</text>
<text text-anchor="start" x="191.5" y="-466.5" font-family="Helvetica,sans-Serif" font-size="10.00">+</text>
<text text-anchor="start" x="201.5" y="-466.5" font-family="Helvetica,sans-Serif" font-size="10.00">Phone()</text>
<text text-anchor="start" x="191.5" y="-450.5" font-family="Helvetica,sans-Serif" font-size="10.00">+</text>
<text text-anchor="start" x="201.5" y="-450.5" font-family="Helvetica,sans-Serif" font-size="10.00">Phone()</text>
<text text-anchor="start" x="191.5" y="-434.5" font-family="Helvetica,sans-Serif" font-size="10.00">+</text>
<text text-anchor="start" x="201.5" y="-434.5" font-family="Helvetica,sans-Serif" font-size="10.00">Phone()</text>
<text text-anchor="start" x="191.5" y="-418.5" font-family="Helvetica,sans-Serif" font-size="10.00">+</text>
<text text-anchor="start" x="201.5" y="-418.5" font-family="Helvetica,sans-Serif" font-size="10.00">Phone()</text>
<text text-anchor="start" x="191.5" y="-402.5" font-family="Helvetica,sans-Serif" font-size="10.00">+</text>
<text text-anchor="start" x="201.5" y="-402.5" font-family="Helvetica,sans-Serif" font-size="10.00">Phone()</text>
<text text-anchor="start" x="191.5" y="-386.5" font-family="Helvetica,sans-Serif" font-size="10.00">+</text>
<text text-anchor="start" x="201.5" y="-386.5" font-family="Helvetica,sans-Serif" font-size="10.00">operator=()</text>
<text text-anchor="start" x="191.5" y="-370.5" font-family="Helvetica,sans-Serif" font-size="10.00">+</text>
<text text-anchor="start" x="201.5" y="-370.5" font-family="Helvetica,sans-Serif" font-size="10.00">operator=()</text>
<text text-anchor="start" x="191.5" y="-354.5" font-family="Helvetica,sans-Serif" font-size="10.00">+</text>
<text text-anchor="start" x="201.5" y="-354.5" font-family="Helvetica,sans-Serif" font-size="10.00">operator==()</text>
<text text-anchor="start" x="191.5" y="-338.5" font-family="Helvetica,sans-Serif" font-size="10.00">+</text>
<text text-anchor="start" x="201.5" y="-338.5" font-family="Helvetica,sans-Serif" font-size="10.00">get_phone()</text>
<text text-anchor="start" x="191.5" y="-322.5" font-family="Helvetica,sans-Serif" font-size="10.00">+</text>
<text text-anchor="start" x="201.5" y="-322.5" font-family="Helvetica,sans-Serif" font-size="10.00">set_phone()</text>
<text text-anchor="start" x="191.5" y="-306.5" font-family="Helvetica,sans-Serif" font-size="10.00">+</text>
<text text-anchor="start" x="201.5" y="-306.5" font-family="Helvetica,sans-Serif" font-size="10.00">copy()</text>
<text text-anchor="start" x="191.5" y="-290.5" font-family="Helvetica,sans-Serif" font-size="10.00">+</text>
<text text-anchor="start" x="201.5" y="-290.5" font-family="Helvetica,sans-Serif" font-size="10.00">~Phone()</text>
<polygon fill="#666666" stroke="#666666" points="187.5,-494 187.5,-494 258.75,-494 258.75,-494 187.5,-494"/>
<polygon fill="#666666" stroke="#666666" points="187.5,-478 187.5,-478 199.5,-478 199.5,-478 187.5,-478"/>
<polygon fill="#666666" stroke="#666666" points="199.5,-478 199.5,-478 258.75,-478 258.75,-478 199.5,-478"/>
<polygon fill="none" stroke="#666666" points="187.5,-284 187.5,-512 258.75,-512 258.75,-284 187.5,-284"/>
</a>
</g>
</g>
<!-- Node4&#45;&gt;Node5 -->
<g id="edge5_Node000005_Node000004" class="edge">
<title>Node4&#45;&gt;Node5</title>
<g id="a_edge5_Node000005_Node000004"><a xlink:title=" ">
<path fill="none" stroke="#63b8ff" d="M186.2,-562.28C189.48,-547.76 193.47,-530.12 197.6,-511.87"/>
<polygon fill="none" stroke="#63b8ff" points="182.86,-561.2 184.07,-571.72 189.69,-562.74 182.86,-561.2"/>
</a>
</g>
</g>
<!-- Node5&#45;&gt;Node1 -->
<g id="edge4_Node000001_Node000005" class="edge">
<title>Node5&#45;&gt;Node1</title>
<g id="a_edge4_Node000001_Node000005"><a xlink:title=" ">
<path fill="none" stroke="#63b8ff" d="M191.36,-284.07C186.07,-265.95 180.53,-247.43 175.12,-230 174.52,-228.06 173.91,-226.1 173.3,-224.14"/>
<polygon fill="none" stroke="#63b8ff" points="173.32,-224.22 167.7,-219.7 169.7,-212.78 175.32,-217.29 173.32,-224.22"/>
</a>
</g>
<text text-anchor="middle" x="197.75" y="-232.5" font-family="Helvetica,sans-Serif" font-size="10.00" fill="grey"> #phone_</text>
</g>
</g>
</svg>
