<?xml version="1.0" encoding="UTF-8" standalone="no"?>
<!DOCTYPE svg PUBLIC "-//W3C//DTD SVG 1.1//EN"
 "http://www.w3.org/Graphics/SVG/1.1/DTD/svg11.dtd">
<!-- Generated by graphviz version 12.2.1 (20241206.2353)
 -->
<!-- Title: Ui::ChildEntryClass Pages: 1 -->
<svg width="149pt" height="510pt"
 viewBox="0.00 0.00 148.62 510.00" xmlns="http://www.w3.org/2000/svg" xmlns:xlink="http://www.w3.org/1999/xlink">
<g id="graph0" class="graph" transform="scale(1 1) rotate(0) translate(4 506)">
<title>Ui::ChildEntryClass</title>
<!-- Node1 -->
<g id="Node000001" class="node">
<title>Node1</title>
<g id="a_Node000001"><a xlink:title=" ">
<polygon fill="#999999" stroke="none" points="104.88,-52 9.88,-52 9.88,0 104.88,0 104.88,-52"/>
<text text-anchor="start" x="13.88" y="-38.5" font-family="Helvetica,sans-Serif" font-size="10.00">Ui::ChildEntryClass</text>
<text text-anchor="start" x="55.88" y="-22.5" font-family="Helvetica,sans-Serif" font-size="10.00"> </text>
<text text-anchor="start" x="55.88" y="-6.5" font-family="Helvetica,sans-Serif" font-size="10.00"> </text>
<polygon fill="#666666" stroke="#666666" points="9.88,-34 9.88,-34 104.88,-34 104.88,-34 9.88,-34"/>
<polygon fill="#666666" stroke="#666666" points="9.88,-18 9.88,-18 104.88,-18 104.88,-18 9.88,-18"/>
<polygon fill="none" stroke="#666666" points="9.88,0 9.88,-52 104.88,-52 104.88,0 9.88,0"/>
</a>
</g>
</g>
<!-- Node2 -->
<g id="Node000002" class="node">
<title>Node2</title>
<g id="a_Node000002"><a xlink:href="class_ui___child_entry_class.html" target="_top" xlink:title=" ">
<polygon fill="white" stroke="none" points="104.5,-285 10.25,-285 10.25,-89 104.5,-89 104.5,-285"/>
<text text-anchor="start" x="14.25" y="-271.5" font-family="Helvetica,sans-Serif" font-size="10.00">Ui_ChildEntryClass</text>
<text text-anchor="start" x="17.19" y="-255.5" font-family="Helvetica,sans-Serif" font-size="10.00">+</text>
<text text-anchor="start" x="30.12" y="-255.5" font-family="Helvetica,sans-Serif" font-size="10.00">gridLayout</text>
<text text-anchor="start" x="17.19" y="-239.5" font-family="Helvetica,sans-Serif" font-size="10.00">+</text>
<text text-anchor="start" x="30.12" y="-239.5" font-family="Helvetica,sans-Serif" font-size="10.00">frame</text>
<text text-anchor="start" x="17.19" y="-223.5" font-family="Helvetica,sans-Serif" font-size="10.00">+</text>
<text text-anchor="start" x="30.12" y="-223.5" font-family="Helvetica,sans-Serif" font-size="10.00">gridLayout_2</text>
<text text-anchor="start" x="17.19" y="-207.5" font-family="Helvetica,sans-Serif" font-size="10.00">+</text>
<text text-anchor="start" x="30.12" y="-207.5" font-family="Helvetica,sans-Serif" font-size="10.00">date_of_birth</text>
<text text-anchor="start" x="17.19" y="-191.5" font-family="Helvetica,sans-Serif" font-size="10.00">+</text>
<text text-anchor="start" x="30.12" y="-191.5" font-family="Helvetica,sans-Serif" font-size="10.00">edit_button</text>
<text text-anchor="start" x="17.19" y="-175.5" font-family="Helvetica,sans-Serif" font-size="10.00">+</text>
<text text-anchor="start" x="30.12" y="-175.5" font-family="Helvetica,sans-Serif" font-size="10.00">remove_button</text>
<text text-anchor="start" x="17.19" y="-159.5" font-family="Helvetica,sans-Serif" font-size="10.00">+</text>
<text text-anchor="start" x="30.12" y="-159.5" font-family="Helvetica,sans-Serif" font-size="10.00">surname</text>
<text text-anchor="start" x="17.19" y="-143.5" font-family="Helvetica,sans-Serif" font-size="10.00">+</text>
<text text-anchor="start" x="30.12" y="-143.5" font-family="Helvetica,sans-Serif" font-size="10.00">name</text>
<text text-anchor="start" x="17.19" y="-127.5" font-family="Helvetica,sans-Serif" font-size="10.00">+</text>
<text text-anchor="start" x="30.12" y="-127.5" font-family="Helvetica,sans-Serif" font-size="10.00">age</text>
<text text-anchor="start" x="17.19" y="-111.5" font-family="Helvetica,sans-Serif" font-size="10.00">+</text>
<text text-anchor="start" x="30.12" y="-111.5" font-family="Helvetica,sans-Serif" font-size="10.00">setupUi()</text>
<text text-anchor="start" x="17.19" y="-95.5" font-family="Helvetica,sans-Serif" font-size="10.00">+</text>
<text text-anchor="start" x="30.12" y="-95.5" font-family="Helvetica,sans-Serif" font-size="10.00">retranslateUi()</text>
<polygon fill="#666666" stroke="#666666" points="10.25,-267 10.25,-267 104.5,-267 104.5,-267 10.25,-267"/>
<polygon fill="#666666" stroke="#666666" points="10.25,-123 10.25,-123 28.12,-123 28.12,-123 10.25,-123"/>
<polygon fill="#666666" stroke="#666666" points="28.12,-123 28.12,-123 104.5,-123 104.5,-123 28.12,-123"/>
<polygon fill="none" stroke="#666666" points="10.25,-89 10.25,-285 104.5,-285 104.5,-89 10.25,-89"/>
</a>
</g>
</g>
<!-- Node2&#45;&gt;Node1 -->
<g id="edge1_Node000001_Node000002" class="edge">
<title>Node2&#45;&gt;Node1</title>
<g id="a_edge1_Node000001_Node000002"><a xlink:title=" ">
<path fill="none" stroke="#63b8ff" d="M57.38,-77.96C57.38,-68.45 57.38,-59.56 57.38,-51.96"/>
<polygon fill="none" stroke="#63b8ff" points="53.88,-77.87 57.38,-87.87 60.88,-77.87 53.88,-77.87"/>
</a>
</g>
</g>
<!-- Node3 -->
<g id="Node000003" class="node">
<title>Node3</title>
<g id="a_Node000003"><a xlink:href="class_clickable_label.html" target="_top" xlink:title="A QLabel subclass that emits a clicked signal when the label is clicked.">
<polygon fill="white" stroke="none" points="114.75,-413 0,-413 0,-345 114.75,-345 114.75,-413"/>
<text text-anchor="start" x="25.5" y="-399.5" font-family="Helvetica,sans-Serif" font-size="10.00">ClickableLabel</text>
<text text-anchor="start" x="55.88" y="-383.5" font-family="Helvetica,sans-Serif" font-size="10.00"> </text>
<text text-anchor="start" x="4" y="-367.5" font-family="Helvetica,sans-Serif" font-size="10.00">+</text>
<text text-anchor="start" x="14" y="-367.5" font-family="Helvetica,sans-Serif" font-size="10.00">ClickableLabel()</text>
<text text-anchor="start" x="4.38" y="-351.5" font-family="Helvetica,sans-Serif" font-size="10.00">#</text>
<text text-anchor="start" x="14" y="-351.5" font-family="Helvetica,sans-Serif" font-size="10.00">mouseReleaseEvent()</text>
<polygon fill="#666666" stroke="#666666" points="0,-395 0,-395 114.75,-395 114.75,-395 0,-395"/>
<polygon fill="#666666" stroke="#666666" points="0,-379 0,-379 114.75,-379 114.75,-379 0,-379"/>
<polygon fill="none" stroke="#666666" points="0,-345 0,-413 114.75,-413 114.75,-345 0,-345"/>
</a>
</g>
</g>
<!-- Node3&#45;&gt;Node2 -->
<g id="edge2_Node000002_Node000003" class="edge">
<title>Node3&#45;&gt;Node2</title>
<g id="a_edge2_Node000002_Node000003"><a xlink:title=" ">
<path fill="none" stroke="#63b8ff" d="M57.38,-345.34C57.38,-331.74 57.38,-315.1 57.38,-297.79"/>
<polygon fill="none" stroke="#63b8ff" points="57.38,-297.68 53.38,-291.68 57.38,-285.68 61.38,-291.68 57.38,-297.68"/>
</a>
</g>
<text text-anchor="middle" x="99" y="-317.5" font-family="Helvetica,sans-Serif" font-size="10.00" fill="grey"> +father_full_name</text>
<text text-anchor="middle" x="99" y="-305.5" font-family="Helvetica,sans-Serif" font-size="10.00" fill="grey">+mother_full_name</text>
</g>
<!-- Node4 -->
<g id="Node000004" class="node">
<title>Node4</title>
<g id="a_Node000004"><a xlink:title=" ">
<polygon fill="white" stroke="none" points="76.75,-502 38,-502 38,-450 76.75,-450 76.75,-502"/>
<text text-anchor="start" x="42" y="-488.5" font-family="Helvetica,sans-Serif" font-size="10.00">QLabel</text>
<text text-anchor="start" x="55.88" y="-472.5" font-family="Helvetica,sans-Serif" font-size="10.00"> </text>
<text text-anchor="start" x="55.88" y="-456.5" font-family="Helvetica,sans-Serif" font-size="10.00"> </text>
<polygon fill="#666666" stroke="#666666" points="38,-484 38,-484 76.75,-484 76.75,-484 38,-484"/>
<polygon fill="#666666" stroke="#666666" points="38,-468 38,-468 76.75,-468 76.75,-468 38,-468"/>
<polygon fill="none" stroke="#666666" points="38,-450 38,-502 76.75,-502 76.75,-450 38,-450"/>
</a>
</g>
</g>
<!-- Node4&#45;&gt;Node3 -->
<g id="edge3_Node000003_Node000004" class="edge">
<title>Node4&#45;&gt;Node3</title>
<g id="a_edge3_Node000003_Node000004"><a xlink:title=" ">
<path fill="none" stroke="#63b8ff" d="M57.38,-438.77C57.38,-430.18 57.38,-421.08 57.38,-412.66"/>
<polygon fill="none" stroke="#63b8ff" points="53.88,-438.53 57.38,-448.53 60.88,-438.53 53.88,-438.53"/>
</a>
</g>
</g>
</g>
</svg>
