<?xml version="1.0" encoding="UTF-8" standalone="no"?>
<!DOCTYPE svg PUBLIC "-//W3C//DTD SVG 1.1//EN"
 "http://www.w3.org/Graphics/SVG/1.1/DTD/svg11.dtd">
<!-- Generated by graphviz version 12.2.1 (20241206.2353)
 -->
<!-- Title: Time::set_minutes Pages: 1 -->
<svg width="500pt" height="256pt"
 viewBox="0.00 0.00 500.25 256.00" xmlns="http://www.w3.org/2000/svg" xmlns:xlink="http://www.w3.org/1999/xlink">
<g id="graph0" class="graph" transform="scale(1 1) rotate(0) translate(4 252)">
<title>Time::set_minutes</title>
<!-- Node1 -->
<g id="Node000001" class="node">
<title>Node1</title>
<g id="a_Node000001"><a xlink:title="Sets the minutes of the time.">
<polygon fill="#999999" stroke="#666666" points="492.25,-210 395.25,-210 395.25,-190 492.25,-190 492.25,-210"/>
<text text-anchor="middle" x="443.75" y="-196.5" font-family="Helvetica,sans-Serif" font-size="10.00">Time::set_minutes</text>
</a>
</g>
</g>
<!-- Node2 -->
<g id="Node000002" class="node">
<title>Node2</title>
<g id="a_Node000002"><a xlink:href="class_time.html#a1f3ef09473068d4fabab7194731522ff" target="_top" xlink:title="Constructs a Time from a string representation of the time.">
<polygon fill="white" stroke="#666666" points="78.25,-248 12.75,-248 12.75,-228 78.25,-228 78.25,-248"/>
<text text-anchor="middle" x="45.5" y="-234.5" font-family="Helvetica,sans-Serif" font-size="10.00">Time::Time</text>
</a>
</g>
</g>
<!-- Node1&#45;&gt;Node2 -->
<g id="edge1_Node000001_Node000002" class="edge">
<title>Node1&#45;&gt;Node2</title>
<g id="a_edge1_Node000001_Node000002"><a xlink:title=" ">
<path fill="none" stroke="#63b8ff" d="M384,-210.53C375.71,-211.82 367.27,-213.02 359.25,-214 257.08,-226.46 135.31,-233.6 78.56,-236.49"/>
<polygon fill="#63b8ff" stroke="#63b8ff" points="384.36,-214.02 393.67,-208.97 383.24,-207.11 384.36,-214.02"/>
</a>
</g>
</g>
<!-- Node3 -->
<g id="Node000003" class="node">
<title>Node3</title>
<g id="a_Node000003"><a xlink:href="class_time.html#af188ac5c1b6cb0bd774b761f0bfdc3bd" target="_top" xlink:title="Constructs a Time from hours, minutes, and seconds.">
<polygon fill="white" stroke="#666666" points="78.25,-210 12.75,-210 12.75,-190 78.25,-190 78.25,-210"/>
<text text-anchor="middle" x="45.5" y="-196.5" font-family="Helvetica,sans-Serif" font-size="10.00">Time::Time</text>
</a>
</g>
</g>
<!-- Node1&#45;&gt;Node3 -->
<g id="edge2_Node000001_Node000003" class="edge">
<title>Node1&#45;&gt;Node3</title>
<g id="a_edge2_Node000001_Node000003"><a xlink:title=" ">
<path fill="none" stroke="#63b8ff" d="M383.44,-200C298.52,-200 145.2,-200 78.71,-200"/>
<polygon fill="#63b8ff" stroke="#63b8ff" points="383.44,-203.5 393.44,-200 383.44,-196.5 383.44,-203.5"/>
</a>
</g>
</g>
<!-- Node4 -->
<g id="Node000004" class="node">
<title>Node4</title>
<g id="a_Node000004"><a xlink:href="class_time.html#a6a854d886badd1e186efeb6cbd757857" target="_top" xlink:title="Updates the time based on intervals of 15 minutes.">
<polygon fill="white" stroke="#666666" points="359.25,-153 262.25,-153 262.25,-133 359.25,-133 359.25,-153"/>
<text text-anchor="middle" x="310.75" y="-139.5" font-family="Helvetica,sans-Serif" font-size="10.00">Time::update_time</text>
</a>
</g>
</g>
<!-- Node1&#45;&gt;Node4 -->
<g id="edge3_Node000001_Node000004" class="edge">
<title>Node1&#45;&gt;Node4</title>
<g id="a_edge3_Node000001_Node000004"><a xlink:title=" ">
<path fill="none" stroke="#63b8ff" d="M408.4,-185.06C385.51,-175.09 355.98,-162.25 335.63,-153.39"/>
<polygon fill="#63b8ff" stroke="#63b8ff" points="406.77,-188.16 417.33,-188.94 409.56,-181.74 406.77,-188.16"/>
</a>
</g>
</g>
<!-- Node5 -->
<g id="Node000005" class="node">
<title>Node5</title>
<g id="a_Node000005"><a xlink:href="class_time.html#a9ef9536d0f26494fbaf22d9c15972c4e" target="_top" xlink:title="Updates the time zone.">
<polygon fill="white" stroke="#666666" points="226.25,-143 127,-143 127,-123 226.25,-123 226.25,-143"/>
<text text-anchor="middle" x="176.62" y="-129.5" font-family="Helvetica,sans-Serif" font-size="10.00">Time::update_zone</text>
</a>
</g>
</g>
<!-- Node4&#45;&gt;Node5 -->
<g id="edge4_Node000004_Node000005" class="edge">
<title>Node4&#45;&gt;Node5</title>
<g id="a_edge4_Node000004_Node000005"><a xlink:title=" ">
<path fill="none" stroke="#63b8ff" d="M250.77,-138.54C242.69,-137.92 234.47,-137.3 226.59,-136.71"/>
<polygon fill="#63b8ff" stroke="#63b8ff" points="250.3,-142.01 260.54,-139.28 250.83,-135.03 250.3,-142.01"/>
</a>
</g>
</g>
<!-- Node5&#45;&gt;Node2 -->
<g id="edge10_Node000005_Node000002" class="edge">
<title>Node5&#45;&gt;Node2</title>
<g id="a_edge10_Node000005_Node000002"><a xlink:title=" ">
<path fill="none" stroke="#63b8ff" d="M160.56,-152.21C144.85,-171.21 118.71,-200.11 91,-219 86.28,-222.22 80.93,-225.07 75.61,-227.52"/>
<polygon fill="#63b8ff" stroke="#63b8ff" points="163.26,-154.44 166.82,-144.46 157.81,-150.04 163.26,-154.44"/>
</a>
</g>
</g>
<!-- Node5&#45;&gt;Node3 -->
<g id="edge11_Node000005_Node000003" class="edge">
<title>Node5&#45;&gt;Node3</title>
<g id="a_edge11_Node000005_Node000003"><a xlink:title=" ">
<path fill="none" stroke="#63b8ff" d="M149.24,-148.98C132.75,-158.72 110.93,-171.13 91,-181 84.98,-183.98 78.37,-186.96 72.14,-189.64"/>
<polygon fill="#63b8ff" stroke="#63b8ff" points="150.65,-152.22 157.45,-144.09 147.07,-146.2 150.65,-152.22"/>
</a>
</g>
</g>
<!-- Node6 -->
<g id="Node000006" class="node">
<title>Node6</title>
<g id="a_Node000006"><a xlink:href="class_time.html#a3dee842a041ca4e8d9c1e9eb267b3801" target="_top" xlink:title="Compares two times for ordering.">
<polygon fill="white" stroke="#666666" points="88,-134 3,-134 3,-114 88,-114 88,-134"/>
<text text-anchor="middle" x="45.5" y="-120.5" font-family="Helvetica,sans-Serif" font-size="10.00">Time::operator&lt;</text>
</a>
</g>
</g>
<!-- Node5&#45;&gt;Node6 -->
<g id="edge5_Node000005_Node000006" class="edge">
<title>Node5&#45;&gt;Node6</title>
<g id="a_edge5_Node000005_Node000006"><a xlink:title=" ">
<path fill="none" stroke="#63b8ff" d="M115.62,-128.82C106.35,-128.17 96.96,-127.52 88.21,-126.91"/>
<polygon fill="#63b8ff" stroke="#63b8ff" points="115.08,-132.29 125.3,-129.49 115.57,-125.31 115.08,-132.29"/>
</a>
</g>
</g>
<!-- Node7 -->
<g id="Node000007" class="node">
<title>Node7</title>
<g id="a_Node000007"><a xlink:href="class_time.html#ad4f6e1d73590a2c89aa5d80813f74ab1" target="_top" xlink:title="Compares two times for ordering.">
<polygon fill="white" stroke="#666666" points="91,-96 0,-96 0,-76 91,-76 91,-96"/>
<text text-anchor="middle" x="45.5" y="-82.5" font-family="Helvetica,sans-Serif" font-size="10.00">Time::operator&lt;=</text>
</a>
</g>
</g>
<!-- Node5&#45;&gt;Node7 -->
<g id="edge6_Node000005_Node000007" class="edge">
<title>Node5&#45;&gt;Node7</title>
<g id="a_edge6_Node000005_Node000007"><a xlink:title=" ">
<path fill="none" stroke="#63b8ff" d="M136.16,-118.63C116.44,-111.46 93.03,-102.94 75.08,-96.4"/>
<polygon fill="#63b8ff" stroke="#63b8ff" points="134.95,-121.92 145.55,-122.05 137.35,-115.34 134.95,-121.92"/>
</a>
</g>
</g>
<!-- Node8 -->
<g id="Node000008" class="node">
<title>Node8</title>
<g id="a_Node000008"><a xlink:href="class_time.html#a358022173825bc5eb75e2101df0f78e4" target="_top" xlink:title="Compares two times for equality.">
<polygon fill="white" stroke="#666666" points="91,-58 0,-58 0,-38 91,-38 91,-58"/>
<text text-anchor="middle" x="45.5" y="-44.5" font-family="Helvetica,sans-Serif" font-size="10.00">Time::operator==</text>
</a>
</g>
</g>
<!-- Node5&#45;&gt;Node8 -->
<g id="edge7_Node000005_Node000008" class="edge">
<title>Node5&#45;&gt;Node8</title>
<g id="a_edge7_Node000005_Node000008"><a xlink:title=" ">
<path fill="none" stroke="#63b8ff" d="M156,-115.3C139.49,-101.01 114.83,-81.06 91,-67 85.65,-63.84 79.67,-60.92 73.88,-58.37"/>
<polygon fill="#63b8ff" stroke="#63b8ff" points="153.31,-117.6 163.14,-121.57 157.94,-112.34 153.31,-117.6"/>
</a>
</g>
</g>
<!-- Node9 -->
<g id="Node000009" class="node">
<title>Node9</title>
<g id="a_Node000009"><a xlink:href="class_time.html#aca20d7c5d322ab8e950cddf64572a7d3" target="_top" xlink:title="Compares two times for ordering.">
<polygon fill="white" stroke="#666666" points="88,-20 3,-20 3,0 88,0 88,-20"/>
<text text-anchor="middle" x="45.5" y="-6.5" font-family="Helvetica,sans-Serif" font-size="10.00">Time::operator&gt;</text>
</a>
</g>
</g>
<!-- Node5&#45;&gt;Node9 -->
<g id="edge8_Node000005_Node000009" class="edge">
<title>Node5&#45;&gt;Node9</title>
<g id="a_edge8_Node000005_Node000009"><a xlink:title=" ">
<path fill="none" stroke="#63b8ff" d="M163.66,-113.06C149.03,-90.12 122.3,-52.58 91,-29 86.57,-25.66 81.47,-22.79 76.33,-20.35"/>
<polygon fill="#63b8ff" stroke="#63b8ff" points="160.63,-114.81 168.88,-121.47 166.58,-111.12 160.63,-114.81"/>
</a>
</g>
</g>
<!-- Node10 -->
<g id="Node000010" class="node">
<title>Node10</title>
<g id="a_Node000010"><a xlink:href="class_time.html#ab8785e557e3d70b465f0487ede95b996" target="_top" xlink:title="Compares two times for ordering.">
<polygon fill="white" stroke="#666666" points="91,-172 0,-172 0,-152 91,-152 91,-172"/>
<text text-anchor="middle" x="45.5" y="-158.5" font-family="Helvetica,sans-Serif" font-size="10.00">Time::operator&gt;=</text>
</a>
</g>
</g>
<!-- Node5&#45;&gt;Node10 -->
<g id="edge9_Node000005_Node000010" class="edge">
<title>Node5&#45;&gt;Node10</title>
<g id="a_edge9_Node000005_Node000010"><a xlink:title=" ">
<path fill="none" stroke="#63b8ff" d="M117.87,-145.97C108.97,-147.97 99.89,-150.01 91.32,-151.93"/>
<polygon fill="#63b8ff" stroke="#63b8ff" points="118.54,-149.41 127.53,-143.8 117.01,-142.58 118.54,-149.41"/>
</a>
</g>
</g>
</g>
</svg>
