<?xml version="1.0" encoding="UTF-8" standalone="no"?>
<!DOCTYPE svg PUBLIC "-//W3C//DTD SVG 1.1//EN"
 "http://www.w3.org/Graphics/SVG/1.1/DTD/svg11.dtd">
<!-- Generated by graphviz version 12.2.1 (20241206.2353)
 -->
<!-- Title: DataBaseGUI::child_sort_change Pages: 1 -->
<svg width="603pt" height="204pt"
 viewBox="0.00 0.00 603.00 204.00" xmlns="http://www.w3.org/2000/svg" xmlns:xlink="http://www.w3.org/1999/xlink">
<g id="graph0" class="graph" transform="scale(1 1) rotate(0) translate(4 200)">
<title>DataBaseGUI::child_sort_change</title>
<!-- Node1 -->
<g id="Node000001" class="node">
<title>Node1</title>
<g id="a_Node000001"><a xlink:title=" ">
<polygon fill="#999999" stroke="#666666" points="103.75,-114 0,-114 0,-82 103.75,-82 103.75,-114"/>
<text text-anchor="start" x="8" y="-100.5" font-family="Helvetica,sans-Serif" font-size="10.00">DataBaseGUI::child</text>
<text text-anchor="middle" x="51.88" y="-88.5" font-family="Helvetica,sans-Serif" font-size="10.00">_sort_change</text>
</a>
</g>
</g>
<!-- Node2 -->
<g id="Node000002" class="node">
<title>Node2</title>
<g id="a_Node000002"><a xlink:href="$class_data_base_g_u_i.html#aa684465aa73b5b34bbadd24fc7f2f641" xlink:title=" ">
<polygon fill="white" stroke="#666666" points="255.5,-114 139.75,-114 139.75,-82 255.5,-82 255.5,-114"/>
<text text-anchor="start" x="147.75" y="-100.5" font-family="Helvetica,sans-Serif" font-size="10.00">DataBaseGUI::sort_to</text>
<text text-anchor="middle" x="197.62" y="-88.5" font-family="Helvetica,sans-Serif" font-size="10.00">_populate_children_tab</text>
</a>
</g>
</g>
<!-- Node1&#45;&gt;Node2 -->
<g id="edge1_Node000001_Node000002" class="edge">
<title>Node1&#45;&gt;Node2</title>
<g id="a_edge1_Node000001_Node000002"><a xlink:title=" ">
<path fill="none" stroke="#63b8ff" d="M103.96,-98C111.75,-98 119.89,-98 127.98,-98"/>
<polygon fill="#63b8ff" stroke="#63b8ff" points="127.83,-101.5 137.83,-98 127.83,-94.5 127.83,-101.5"/>
</a>
</g>
</g>
<!-- Node3 -->
<g id="Node000003" class="node">
<title>Node3</title>
<g id="a_Node000003"><a xlink:href="$class_data_base_g_u_i.html#af346d08370d9e4574980707f61b9c8f7" xlink:title="Populates the children tab with a list of children.">
<polygon fill="white" stroke="#666666" points="411.75,-114 291.5,-114 291.5,-82 411.75,-82 411.75,-114"/>
<text text-anchor="start" x="299.5" y="-100.5" font-family="Helvetica,sans-Serif" font-size="10.00">DataBaseGUI::populate</text>
<text text-anchor="middle" x="351.62" y="-88.5" font-family="Helvetica,sans-Serif" font-size="10.00">_children_tab</text>
</a>
</g>
</g>
<!-- Node2&#45;&gt;Node3 -->
<g id="edge2_Node000002_Node000003" class="edge">
<title>Node2&#45;&gt;Node3</title>
<g id="a_edge2_Node000002_Node000003"><a xlink:title=" ">
<path fill="none" stroke="#63b8ff" d="M255.66,-98C263.56,-98 271.75,-98 279.87,-98"/>
<polygon fill="#63b8ff" stroke="#63b8ff" points="279.73,-101.5 289.73,-98 279.73,-94.5 279.73,-101.5"/>
</a>
</g>
</g>
<!-- Node4 -->
<g id="Node000004" class="node">
<title>Node4</title>
<g id="a_Node000004"><a xlink:href="$class_data_base_g_u_i.html#acb6c6b292e58d0ead30682f7f5705244" xlink:title="Edits an existing child in the database.">
<polygon fill="white" stroke="#666666" points="583.75,-196 459,-196 459,-176 583.75,-176 583.75,-196"/>
<text text-anchor="middle" x="521.38" y="-182.5" font-family="Helvetica,sans-Serif" font-size="10.00">DataBaseGUI::child_edit</text>
</a>
</g>
</g>
<!-- Node3&#45;&gt;Node4 -->
<g id="edge3_Node000003_Node000004" class="edge">
<title>Node3&#45;&gt;Node4</title>
<g id="a_edge3_Node000003_Node000004"><a xlink:title=" ">
<path fill="none" stroke="#63b8ff" d="M370.62,-114.24C388.83,-129.87 418.42,-153.13 447.75,-167 451.51,-168.78 455.45,-170.4 459.48,-171.89"/>
<polygon fill="#63b8ff" stroke="#63b8ff" points="458.25,-175.17 468.84,-175.04 460.48,-168.54 458.25,-175.17"/>
</a>
</g>
</g>
<!-- Node5 -->
<g id="Node000005" class="node">
<title>Node5</title>
<g id="a_Node000005"><a xlink:href="$class_data_base_g_u_i.html#ae3a08843db874e51a7cea32fa8937ca5" xlink:title="Removes a child from the database.">
<polygon fill="white" stroke="#666666" points="573.25,-32 469.5,-32 469.5,0 573.25,0 573.25,-32"/>
<text text-anchor="start" x="477.5" y="-18.5" font-family="Helvetica,sans-Serif" font-size="10.00">DataBaseGUI::child</text>
<text text-anchor="middle" x="521.38" y="-6.5" font-family="Helvetica,sans-Serif" font-size="10.00">_remove</text>
</a>
</g>
</g>
<!-- Node3&#45;&gt;Node5 -->
<g id="edge5_Node000003_Node000005" class="edge">
<title>Node3&#45;&gt;Node5</title>
<g id="a_edge5_Node000003_Node000005"><a xlink:title=" ">
<path fill="none" stroke="#63b8ff" d="M376.88,-81.53C395.66,-69.27 422.62,-52.7 447.75,-41 451.24,-39.38 454.87,-37.8 458.56,-36.28"/>
<polygon fill="#63b8ff" stroke="#63b8ff" points="459.61,-39.63 467.64,-32.72 457.05,-33.11 459.61,-39.63"/>
</a>
</g>
</g>
<!-- Node6 -->
<g id="Node000006" class="node">
<title>Node6</title>
<g id="a_Node000006"><a xlink:href="$class_data_base_g_u_i.html#afbc53e28ad83200fe77e0fa5a6eb970f" xlink:title="Clears the children tab.">
<polygon fill="white" stroke="#666666" points="580,-158 462.75,-158 462.75,-126 580,-126 580,-158"/>
<text text-anchor="start" x="470.75" y="-144.5" font-family="Helvetica,sans-Serif" font-size="10.00">DataBaseGUI::children</text>
<text text-anchor="middle" x="521.38" y="-132.5" font-family="Helvetica,sans-Serif" font-size="10.00">_tab_clear</text>
</a>
</g>
</g>
<!-- Node3&#45;&gt;Node6 -->
<g id="edge7_Node000003_Node000006" class="edge">
<title>Node3&#45;&gt;Node6</title>
<g id="a_edge7_Node000003_Node000006"><a xlink:title=" ">
<path fill="none" stroke="#63b8ff" d="M412.24,-113.64C424.97,-116.98 438.51,-120.53 451.55,-123.95"/>
<polygon fill="#63b8ff" stroke="#63b8ff" points="450.34,-127.25 460.9,-126.4 452.11,-120.48 450.34,-127.25"/>
</a>
</g>
</g>
<!-- Node7 -->
<g id="Node000007" class="node">
<title>Node7</title>
<g id="a_Node000007"><a xlink:href="$class_child_entry.html#abda9dea89937d77c4def3fb81d964ff9" xlink:title=" ">
<polygon fill="white" stroke="#666666" points="586.75,-108 456,-108 456,-88 586.75,-88 586.75,-108"/>
<text text-anchor="middle" x="521.38" y="-94.5" font-family="Helvetica,sans-Serif" font-size="10.00">ChildEntry::editRequested</text>
</a>
</g>
</g>
<!-- Node3&#45;&gt;Node7 -->
<g id="edge8_Node000003_Node000007" class="edge">
<title>Node3&#45;&gt;Node7</title>
<g id="a_edge8_Node000003_Node000007"><a xlink:title=" ">
<path fill="none" stroke="#63b8ff" d="M412.24,-98C422.54,-98 433.38,-98 444.06,-98"/>
<polygon fill="#63b8ff" stroke="#63b8ff" points="444.03,-101.5 454.03,-98 444.03,-94.5 444.03,-101.5"/>
</a>
</g>
</g>
<!-- Node8 -->
<g id="Node000008" class="node">
<title>Node8</title>
<g id="a_Node000008"><a xlink:href="$class_child_entry.html#a69e495a83c20ea922198adea9ae47ddb" xlink:title=" ">
<polygon fill="white" stroke="#666666" points="595,-70 447.75,-70 447.75,-50 595,-50 595,-70"/>
<text text-anchor="middle" x="521.38" y="-56.5" font-family="Helvetica,sans-Serif" font-size="10.00">ChildEntry::removeRequested</text>
</a>
</g>
</g>
<!-- Node3&#45;&gt;Node8 -->
<g id="edge9_Node000003_Node000008" class="edge">
<title>Node3&#45;&gt;Node8</title>
<g id="a_edge9_Node000003_Node000008"><a xlink:title=" ">
<path fill="none" stroke="#63b8ff" d="M412.24,-84.5C428.77,-80.75 446.67,-76.7 463.06,-72.98"/>
<polygon fill="#63b8ff" stroke="#63b8ff" points="463.68,-76.43 472.66,-70.81 462.13,-69.61 463.68,-76.43"/>
</a>
</g>
</g>
<!-- Node4&#45;&gt;Node2 -->
<g id="edge4_Node000004_Node000002" class="edge">
<title>Node4&#45;&gt;Node2</title>
<g id="a_edge4_Node000004_Node000002"><a xlink:title=" ">
<path fill="none" stroke="#63b8ff" d="M480.01,-175.55C469.5,-172.8 458.2,-169.81 447.75,-167 386.51,-150.51 316.97,-131.2 266.95,-117.21"/>
<polygon fill="#63b8ff" stroke="#63b8ff" points="267.98,-113.86 257.41,-114.54 266.1,-120.6 267.98,-113.86"/>
</a>
</g>
</g>
<!-- Node5&#45;&gt;Node2 -->
<g id="edge6_Node000005_Node000002" class="edge">
<title>Node5&#45;&gt;Node2</title>
<g id="a_edge6_Node000005_Node000002"><a xlink:title=" ">
<path fill="none" stroke="#63b8ff" d="M469.4,-28.4C422.97,-39.77 352.55,-57.18 291.5,-73 283.41,-75.1 274.93,-77.33 266.52,-79.56"/>
<polygon fill="#63b8ff" stroke="#63b8ff" points="265.78,-76.14 257.02,-82.1 267.58,-82.9 265.78,-76.14"/>
</a>
</g>
</g>
</g>
</svg>
