<?xml version="1.0" encoding="UTF-8" standalone="no"?>
<!DOCTYPE svg PUBLIC "-//W3C//DTD SVG 1.1//EN"
 "http://www.w3.org/Graphics/SVG/1.1/DTD/svg11.dtd">
<!-- Generated by graphviz version 12.2.1 (20241206.2353)
 -->
<!-- Title: Person::get_surname Pages: 1 -->
<svg width="366pt" height="280pt"
 viewBox="0.00 0.00 365.75 280.00" xmlns="http://www.w3.org/2000/svg" xmlns:xlink="http://www.w3.org/1999/xlink">
<g id="graph0" class="graph" transform="scale(1 1) rotate(0) translate(4 276)">
<title>Person::get_surname</title>
<!-- Node1 -->
<g id="Node000001" class="node">
<title>Node1</title>
<g id="a_Node000001"><a xlink:title="Gets the last name of the person.">
<polygon fill="#999999" stroke="#666666" points="357.75,-152 248.75,-152 248.75,-132 357.75,-132 357.75,-152"/>
<text text-anchor="middle" x="303.25" y="-138.5" font-family="Helvetica,sans-Serif" font-size="10.00">Person::get_surname</text>
</a>
</g>
</g>
<!-- Node2 -->
<g id="Node000002" class="node">
<title>Node2</title>
<g id="a_Node000002"><a xlink:href="class_database.html#a3e9cba5ac0e9f1eafeea156892eb2e35" target="_top" xlink:title="Adds a child to the database.">
<polygon fill="white" stroke="#666666" points="195.5,-272 90.25,-272 90.25,-252 195.5,-252 195.5,-272"/>
<text text-anchor="middle" x="142.88" y="-258.5" font-family="Helvetica,sans-Serif" font-size="10.00">Database::add_child</text>
</a>
</g>
</g>
<!-- Node1&#45;&gt;Node2 -->
<g id="edge1_Node000001_Node000002" class="edge">
<title>Node1&#45;&gt;Node2</title>
<g id="a_edge1_Node000001_Node000002"><a xlink:title=" ">
<path fill="none" stroke="#63b8ff" d="M289.94,-161.77C274.63,-184.7 246.37,-222.04 212.75,-243 207.28,-246.41 201.18,-249.22 194.95,-251.53"/>
<polygon fill="#63b8ff" stroke="#63b8ff" points="292.71,-163.92 295.21,-153.62 286.83,-160.12 292.71,-163.92"/>
</a>
</g>
</g>
<!-- Node4 -->
<g id="Node000004" class="node">
<title>Node4</title>
<g id="a_Node000004"><a xlink:href="class_database.html#a38892c6b3b003ef20807e592d1a400e6" target="_top" xlink:title="Adds an employee to the database.">
<polygon fill="white" stroke="#666666" points="206.38,-234 79.38,-234 79.38,-214 206.38,-214 206.38,-234"/>
<text text-anchor="middle" x="142.88" y="-220.5" font-family="Helvetica,sans-Serif" font-size="10.00">Database::add_employee</text>
</a>
</g>
</g>
<!-- Node1&#45;&gt;Node4 -->
<g id="edge3_Node000001_Node000004" class="edge">
<title>Node1&#45;&gt;Node4</title>
<g id="a_edge3_Node000001_Node000004"><a xlink:title=" ">
<path fill="none" stroke="#63b8ff" d="M281.66,-159.62C264.29,-173.68 238.26,-192.95 212.75,-205 205.68,-208.34 197.92,-211.18 190.24,-213.58"/>
<polygon fill="#63b8ff" stroke="#63b8ff" points="283.71,-162.46 289.19,-153.39 279.25,-157.07 283.71,-162.46"/>
</a>
</g>
</g>
<!-- Node5 -->
<g id="Node000005" class="node">
<title>Node5</title>
<g id="a_Node000005"><a xlink:href="class_database.html#aa8085f0b12eb2082cd6f1ed313228132" target="_top" xlink:title="Adds a parent to the database.">
<polygon fill="white" stroke="#666666" points="198.88,-196 86.88,-196 86.88,-176 198.88,-176 198.88,-196"/>
<text text-anchor="middle" x="142.88" y="-182.5" font-family="Helvetica,sans-Serif" font-size="10.00">Database::add_parent</text>
</a>
</g>
</g>
<!-- Node1&#45;&gt;Node5 -->
<g id="edge4_Node000001_Node000005" class="edge">
<title>Node1&#45;&gt;Node5</title>
<g id="a_edge4_Node000001_Node000005"><a xlink:title=" ">
<path fill="none" stroke="#63b8ff" d="M253.92,-155.53C240.58,-159.26 226.11,-163.29 212.75,-167 202.71,-169.79 191.84,-172.79 181.77,-175.57"/>
<polygon fill="#63b8ff" stroke="#63b8ff" points="254.66,-158.96 263.35,-152.89 252.78,-152.22 254.66,-158.96"/>
</a>
</g>
</g>
<!-- Node6 -->
<g id="Node000006" class="node">
<title>Node6</title>
<g id="a_Node000006"><a xlink:href="class_database.html#a80f30da6596492aaea6a1049f0d07c4d" target="_top" xlink:title="Filters children by a parent&#39;s surname.">
<polygon fill="white" stroke="#666666" points="197,-158 88.75,-158 88.75,-126 197,-126 197,-158"/>
<text text-anchor="start" x="96.75" y="-144.5" font-family="Helvetica,sans-Serif" font-size="10.00">Database::filter_child</text>
<text text-anchor="middle" x="142.88" y="-132.5" font-family="Helvetica,sans-Serif" font-size="10.00">_by_parent_surname</text>
</a>
</g>
</g>
<!-- Node1&#45;&gt;Node6 -->
<g id="edge5_Node000001_Node000006" class="edge">
<title>Node1&#45;&gt;Node6</title>
<g id="a_edge5_Node000001_Node000006"><a xlink:title=" ">
<path fill="none" stroke="#63b8ff" d="M237.19,-142C223.97,-142 210.21,-142 197.44,-142"/>
<polygon fill="#63b8ff" stroke="#63b8ff" points="237.12,-145.5 247.12,-142 237.12,-138.5 237.12,-145.5"/>
</a>
</g>
</g>
<!-- Node7 -->
<g id="Node000007" class="node">
<title>Node7</title>
<g id="a_Node000007"><a xlink:href="class_database.html#a666ab0d4f96402ecae70425b2c6863fb" target="_top" xlink:title="Removes a child from the database.">
<polygon fill="white" stroke="#666666" points="203.75,-108 82,-108 82,-88 203.75,-88 203.75,-108"/>
<text text-anchor="middle" x="142.88" y="-94.5" font-family="Helvetica,sans-Serif" font-size="10.00">Database::remove_child</text>
</a>
</g>
</g>
<!-- Node1&#45;&gt;Node7 -->
<g id="edge6_Node000001_Node000007" class="edge">
<title>Node1&#45;&gt;Node7</title>
<g id="a_edge6_Node000001_Node000007"><a xlink:title=" ">
<path fill="none" stroke="#63b8ff" d="M253.92,-128.47C240.58,-124.74 226.11,-120.71 212.75,-117 202.71,-114.21 191.84,-111.21 181.77,-108.43"/>
<polygon fill="#63b8ff" stroke="#63b8ff" points="252.78,-131.78 263.35,-131.11 254.66,-125.04 252.78,-131.78"/>
</a>
</g>
</g>
<!-- Node8 -->
<g id="Node000008" class="node">
<title>Node8</title>
<g id="a_Node000008"><a xlink:href="class_database.html#ad1c53a90babe25c1148cca426c7579e6" target="_top" xlink:title="Adds a child&#39;s information to the maps.">
<polygon fill="white" stroke="#666666" points="212.75,-70 73,-70 73,-50 212.75,-50 212.75,-70"/>
<text text-anchor="middle" x="142.88" y="-56.5" font-family="Helvetica,sans-Serif" font-size="10.00">Database::update_child_end</text>
</a>
</g>
</g>
<!-- Node1&#45;&gt;Node8 -->
<g id="edge7_Node000001_Node000008" class="edge">
<title>Node1&#45;&gt;Node8</title>
<g id="a_edge7_Node000001_Node000008"><a xlink:title=" ">
<path fill="none" stroke="#63b8ff" d="M281.66,-124.38C264.29,-110.32 238.26,-91.05 212.75,-79 205.68,-75.66 197.92,-72.82 190.24,-70.42"/>
<polygon fill="#63b8ff" stroke="#63b8ff" points="279.25,-126.93 289.19,-130.61 283.71,-121.54 279.25,-126.93"/>
</a>
</g>
</g>
<!-- Node9 -->
<g id="Node000009" class="node">
<title>Node9</title>
<g id="a_Node000009"><a xlink:href="class_database.html#a283eb646c12fff3f96e217bf5c3a7dc3" target="_top" xlink:title="Removes a child&#39;s information from the maps.">
<polygon fill="white" stroke="#666666" points="202.25,-32 83.5,-32 83.5,0 202.25,0 202.25,-32"/>
<text text-anchor="start" x="91.5" y="-18.5" font-family="Helvetica,sans-Serif" font-size="10.00">Database::update_child</text>
<text text-anchor="middle" x="142.88" y="-6.5" font-family="Helvetica,sans-Serif" font-size="10.00">_start</text>
</a>
</g>
</g>
<!-- Node1&#45;&gt;Node9 -->
<g id="edge8_Node000001_Node000009" class="edge">
<title>Node1&#45;&gt;Node9</title>
<g id="a_edge8_Node000001_Node000009"><a xlink:title=" ">
<path fill="none" stroke="#63b8ff" d="M289.4,-122.34C273.75,-99.81 245.35,-63.16 212.75,-41 208.02,-37.78 202.82,-34.92 197.46,-32.4"/>
<polygon fill="#63b8ff" stroke="#63b8ff" points="286.31,-124.02 294.81,-130.34 292.11,-120.1 286.31,-124.02"/>
</a>
</g>
</g>
<!-- Node3 -->
<g id="Node000003" class="node">
<title>Node3</title>
<g id="a_Node000003"><a xlink:href="_main_8cpp.html#a0ddf1224851353fc92bfbff6f499fa97" target="_top" xlink:title=" ">
<polygon fill="white" stroke="#666666" points="37,-272 0,-272 0,-252 37,-252 37,-272"/>
<text text-anchor="middle" x="18.5" y="-258.5" font-family="Helvetica,sans-Serif" font-size="10.00">main</text>
</a>
</g>
</g>
<!-- Node2&#45;&gt;Node3 -->
<g id="edge2_Node000002_Node000003" class="edge">
<title>Node2&#45;&gt;Node3</title>
<g id="a_edge2_Node000002_Node000003"><a xlink:title=" ">
<path fill="none" stroke="#63b8ff" d="M78.9,-262C63.65,-262 48.55,-262 37.39,-262"/>
<polygon fill="#63b8ff" stroke="#63b8ff" points="78.46,-265.5 88.46,-262 78.46,-258.5 78.46,-265.5"/>
</a>
</g>
</g>
</g>
</svg>
