<?xml version="1.0" encoding="UTF-8" standalone="no"?>
<!DOCTYPE svg PUBLIC "-//W3C//DTD SVG 1.1//EN"
 "http://www.w3.org/Graphics/SVG/1.1/DTD/svg11.dtd">
<!-- Generated by graphviz version 12.2.1 (20241206.2353)
 -->
<!-- Title: Ui_LessonEntryClass Pages: 1 -->
<svg width="123pt" height="377pt"
 viewBox="0.00 0.00 122.75 377.00" xmlns="http://www.w3.org/2000/svg" xmlns:xlink="http://www.w3.org/1999/xlink">

<svg id="main" version="1.1" xmlns="http://www.w3.org/2000/svg" xmlns:xlink="http://www.w3.org/1999/xlink" xml:space="preserve">

<style type="text/css"><![CDATA[
.node, .edge {opacity: 0.7;}
.node.selected, .edge.selected {opacity: 1;}
.edge:hover path { stroke: red; }
.edge:hover polygon { stroke: red; fill: red; }
]]></style>
<script type="application/ecmascript" xlink:href="svg.min.js"/>
<svg id="graph" class="graph">
<g id="graph0" class="graph" transform="scale(1 1) rotate(0) translate(4 373)">
<title>Ui_LessonEntryClass</title>
<!-- Node1 -->
<g id="Node000001" class="node">
<title>Node1</title>
<g id="a_Node000001"><a xlink:title=" ">
<polygon fill="#999999" stroke="none" points="109,-164 5.75,-164 5.75,0 109,0 109,-164"/>
<text text-anchor="start" x="9.75" y="-150.5" font-family="Helvetica,sans-Serif" font-size="10.00">Ui_LessonEntryClass</text>
<text text-anchor="start" x="14.94" y="-134.5" font-family="Helvetica,sans-Serif" font-size="10.00">+</text>
<text text-anchor="start" x="30.12" y="-134.5" font-family="Helvetica,sans-Serif" font-size="10.00">gridLayout</text>
<text text-anchor="start" x="14.94" y="-118.5" font-family="Helvetica,sans-Serif" font-size="10.00">+</text>
<text text-anchor="start" x="30.12" y="-118.5" font-family="Helvetica,sans-Serif" font-size="10.00">frame</text>
<text text-anchor="start" x="14.94" y="-102.5" font-family="Helvetica,sans-Serif" font-size="10.00">+</text>
<text text-anchor="start" x="30.12" y="-102.5" font-family="Helvetica,sans-Serif" font-size="10.00">gridLayout_2</text>
<text text-anchor="start" x="14.94" y="-86.5" font-family="Helvetica,sans-Serif" font-size="10.00">+</text>
<text text-anchor="start" x="30.12" y="-86.5" font-family="Helvetica,sans-Serif" font-size="10.00">remove_button</text>
<text text-anchor="start" x="14.94" y="-70.5" font-family="Helvetica,sans-Serif" font-size="10.00">+</text>
<text text-anchor="start" x="30.12" y="-70.5" font-family="Helvetica,sans-Serif" font-size="10.00">time</text>
<text text-anchor="start" x="14.94" y="-54.5" font-family="Helvetica,sans-Serif" font-size="10.00">+</text>
<text text-anchor="start" x="30.12" y="-54.5" font-family="Helvetica,sans-Serif" font-size="10.00">view_button</text>
<text text-anchor="start" x="14.94" y="-38.5" font-family="Helvetica,sans-Serif" font-size="10.00">+</text>
<text text-anchor="start" x="30.12" y="-38.5" font-family="Helvetica,sans-Serif" font-size="10.00">day</text>
<text text-anchor="start" x="14.94" y="-22.5" font-family="Helvetica,sans-Serif" font-size="10.00">+</text>
<text text-anchor="start" x="30.12" y="-22.5" font-family="Helvetica,sans-Serif" font-size="10.00">setupUi()</text>
<text text-anchor="start" x="14.94" y="-6.5" font-family="Helvetica,sans-Serif" font-size="10.00">+</text>
<text text-anchor="start" x="30.12" y="-6.5" font-family="Helvetica,sans-Serif" font-size="10.00">retranslateUi()</text>
<polygon fill="#666666" stroke="#666666" points="5.75,-146 5.75,-146 109,-146 109,-146 5.75,-146"/>
<polygon fill="#666666" stroke="#666666" points="5.75,-34 5.75,-34 28.12,-34 28.12,-34 5.75,-34"/>
<polygon fill="#666666" stroke="#666666" points="28.12,-34 28.12,-34 109,-34 109,-34 28.12,-34"/>
<polygon fill="none" stroke="#666666" points="5.75,0 5.75,-164 109,-164 109,0 5.75,0"/>
</a>
</g>
</g>
<!-- Node2 -->
<g id="Node000002" class="node">
<title>Node2</title>
<g id="a_Node000002"><a xlink:href="class_clickable_label.html" target="_top" xlink:title="A QLabel subclass that emits a clicked signal when the label is clicked.">
<polygon fill="white" stroke="none" points="114.75,-280 0,-280 0,-212 114.75,-212 114.75,-280"/>
<text text-anchor="start" x="25.5" y="-266.5" font-family="Helvetica,sans-Serif" font-size="10.00">ClickableLabel</text>
<text text-anchor="start" x="55.88" y="-250.5" font-family="Helvetica,sans-Serif" font-size="10.00"> </text>
<text text-anchor="start" x="4" y="-234.5" font-family="Helvetica,sans-Serif" font-size="10.00">+</text>
<text text-anchor="start" x="14" y="-234.5" font-family="Helvetica,sans-Serif" font-size="10.00">ClickableLabel()</text>
<text text-anchor="start" x="4.38" y="-218.5" font-family="Helvetica,sans-Serif" font-size="10.00">#</text>
<text text-anchor="start" x="14" y="-218.5" font-family="Helvetica,sans-Serif" font-size="10.00">mouseReleaseEvent()</text>
<polygon fill="#666666" stroke="#666666" points="0,-262 0,-262 114.75,-262 114.75,-262 0,-262"/>
<polygon fill="#666666" stroke="#666666" points="0,-246 0,-246 114.75,-246 114.75,-246 0,-246"/>
<polygon fill="none" stroke="#666666" points="0,-212 0,-280 114.75,-280 114.75,-212 0,-212"/>
</a>
</g>
</g>
<!-- Node2&#45;&gt;Node1 -->
<g id="edge1_Node000001_Node000002" class="edge">
<title>Node2&#45;&gt;Node1</title>
<g id="a_edge1_Node000001_Node000002"><a xlink:title=" ">
<path fill="none" stroke="#63b8ff" d="M57.38,-212.22C57.38,-201.68 57.38,-189.42 57.38,-176.74"/>
<polygon fill="none" stroke="#63b8ff" points="57.38,-176.87 53.38,-170.87 57.38,-164.87 61.38,-170.87 57.38,-176.87"/>
</a>
</g>
<text text-anchor="middle" x="79.12" y="-184.5" font-family="Helvetica,sans-Serif" font-size="10.00" fill="grey"> +address</text>
</g>
<!-- Node3 -->
<g id="Node000003" class="node">
<title>Node3</title>
<g id="a_Node000003"><a xlink:title=" ">
<polygon fill="white" stroke="none" points="76.75,-369 38,-369 38,-317 76.75,-317 76.75,-369"/>
<text text-anchor="start" x="42" y="-355.5" font-family="Helvetica,sans-Serif" font-size="10.00">QLabel</text>
<text text-anchor="start" x="55.88" y="-339.5" font-family="Helvetica,sans-Serif" font-size="10.00"> </text>
<text text-anchor="start" x="55.88" y="-323.5" font-family="Helvetica,sans-Serif" font-size="10.00"> </text>
<polygon fill="#666666" stroke="#666666" points="38,-351 38,-351 76.75,-351 76.75,-351 38,-351"/>
<polygon fill="#666666" stroke="#666666" points="38,-335 38,-335 76.75,-335 76.75,-335 38,-335"/>
<polygon fill="none" stroke="#666666" points="38,-317 38,-369 76.75,-369 76.75,-317 38,-317"/>
</a>
</g>
</g>
<!-- Node3&#45;&gt;Node2 -->
<g id="edge2_Node000002_Node000003" class="edge">
<title>Node3&#45;&gt;Node2</title>
<g id="a_edge2_Node000002_Node000003"><a xlink:title=" ">
<path fill="none" stroke="#63b8ff" d="M57.38,-305.77C57.38,-297.18 57.38,-288.08 57.38,-279.66"/>
<polygon fill="none" stroke="#63b8ff" points="53.88,-305.53 57.38,-315.53 60.88,-305.53 53.88,-305.53"/>
</a>
</g>
</g>
</g>
</svg>
</svg>

<style type='text/css'>
<![CDATA[
[data-mouse-over-selected='false'] { opacity: 0.7; }
[data-mouse-over-selected='true']  { opacity: 1.0; }
]]>
</style>
<script type="application/ecmascript"><![CDATA[
document.addEventListener('DOMContentLoaded', (event) => {
  highlightEdges();
  highlightAdjacentNodes();
});
]]></script>
</svg>
