<?xml version="1.0" encoding="UTF-8" standalone="no"?>
<!DOCTYPE svg PUBLIC "-//W3C//DTD SVG 1.1//EN"
 "http://www.w3.org/Graphics/SVG/1.1/DTD/svg11.dtd">
<!-- Generated by graphviz version 12.2.1 (20241206.2353)
 -->
<!-- Title: Database::remove_employee Pages: 1 -->
<svg width="283pt" height="66pt"
 viewBox="0.00 0.00 283.00 66.00" xmlns="http://www.w3.org/2000/svg" xmlns:xlink="http://www.w3.org/1999/xlink">
<g id="graph0" class="graph" transform="scale(1 1) rotate(0) translate(4 62)">
<title>Database::remove_employee</title>
<!-- Node1 -->
<g id="Node000001" class="node">
<title>Node1</title>
<g id="a_Node000001"><a xlink:title="Removes an employee from the database.">
<polygon fill="#999999" stroke="#666666" points="143.5,-39 0,-39 0,-19 143.5,-19 143.5,-39"/>
<text text-anchor="middle" x="71.75" y="-25.5" font-family="Helvetica,sans-Serif" font-size="10.00">Database::remove_employee</text>
</a>
</g>
</g>
<!-- Node2 -->
<g id="Node000002" class="node">
<title>Node2</title>
<g id="a_Node000002"><a xlink:href="$class_person.html#a6b1fec00d8d1f5af1a2977dc3f5f9eb8" xlink:title="Gets the first name of the person.">
<polygon fill="white" stroke="#666666" points="275,-58 179.5,-58 179.5,-38 275,-38 275,-58"/>
<text text-anchor="middle" x="227.25" y="-44.5" font-family="Helvetica,sans-Serif" font-size="10.00">Person::get_name</text>
</a>
</g>
</g>
<!-- Node1&#45;&gt;Node2 -->
<g id="edge1_Node000001_Node000002" class="edge">
<title>Node1&#45;&gt;Node2</title>
<g id="a_edge1_Node000001_Node000002"><a xlink:title=" ">
<path fill="none" stroke="#63b8ff" d="M143.66,-37.78C151.79,-38.78 160,-39.8 167.94,-40.78"/>
<polygon fill="#63b8ff" stroke="#63b8ff" points="167.47,-44.25 177.82,-42.01 168.33,-37.3 167.47,-44.25"/>
</a>
</g>
</g>
<!-- Node3 -->
<g id="Node000003" class="node">
<title>Node3</title>
<g id="a_Node000003"><a xlink:href="$_helper___functions_8h.html#a781a4053c4ee41e8a6ed9daad0bbc4e0" xlink:title="Removes all occurrences of a specific element from a vector.">
<polygon fill="white" stroke="#666666" points="258.88,-20 195.62,-20 195.62,0 258.88,0 258.88,-20"/>
<text text-anchor="middle" x="227.25" y="-6.5" font-family="Helvetica,sans-Serif" font-size="10.00">remove_all</text>
</a>
</g>
</g>
<!-- Node1&#45;&gt;Node3 -->
<g id="edge2_Node000001_Node000003" class="edge">
<title>Node1&#45;&gt;Node3</title>
<g id="a_edge2_Node000001_Node000003"><a xlink:title=" ">
<path fill="none" stroke="#63b8ff" d="M143.66,-20.22C157.35,-18.53 171.29,-16.8 183.73,-15.26"/>
<polygon fill="#63b8ff" stroke="#63b8ff" points="184.13,-18.74 193.63,-14.04 183.27,-11.79 184.13,-18.74"/>
</a>
</g>
</g>
</g>
</svg>
