<?xml version="1.0" encoding="UTF-8" standalone="no"?>
<!DOCTYPE svg PUBLIC "-//W3C//DTD SVG 1.1//EN"
 "http://www.w3.org/Graphics/SVG/1.1/DTD/svg11.dtd">
<!-- Generated by graphviz version 12.2.1 (20241206.2353)
 -->
<!-- Title: EmployeeEntry::editRequested Pages: 1 -->
<!--zoomable 441 -->

<svg id="main" version="1.1" xmlns="http://www.w3.org/2000/svg" xmlns:xlink="http://www.w3.org/1999/xlink" xml:space="preserve" onload="init(evt)">

<style type="text/css"><![CDATA[
.node, .edge {opacity: 0.7;}
.node.selected, .edge.selected {opacity: 1;}
.edge:hover path { stroke: red; }
.edge:hover polygon { stroke: red; fill: red; }
]]></style>

<defs>
  <circle id="rim" cx="0" cy="0" r="7"/>
  <circle id="rim2" cx="0" cy="0" r="3.5"/>
  <g id="zoomPlus">
    <use xlink:href="#rim" fill="#404040"><set attributeName="fill" to="#808080" begin="zoomplus.mouseover" end="zoomplus.mouseout"/></use>
    <path d="M-4,0h8M0,-4v8" fill="none" stroke="white" stroke-width="1.5" pointer-events="none"/>
  </g>
  <g id="zoomMin">
    <use xlink:href="#rim" fill="#404040"><set attributeName="fill" to="#808080" begin="zoomminus.mouseover" end="zoomminus.mouseout"/></use>
    <path d="M-4,0h8" fill="none" stroke="white" stroke-width="1.5" pointer-events="none"/>
  </g>
  <g id="arrowUp" transform="translate(30 24)">
    <use xlink:href="#rim"/>
    <path pointer-events="none" fill="none" stroke="white" stroke-width="1.5" d="M0,-3.0v7 M-2.5,-0.5L0,-3.0L2.5,-0.5"/>
  </g>
  <g id="arrowRight" transform="rotate(90) translate(36 -43)">
    <use xlink:href="#rim"/>
    <path pointer-events="none" fill="none" stroke="white" stroke-width="1.5" d="M0,-3.0v7 M-2.5,-0.5L0,-3.0L2.5,-0.5"/>
  </g>
  <g id="arrowDown" transform="rotate(180) translate(-30 -48)">
    <use xlink:href="#rim"/>
    <path pointer-events="none" fill="none" stroke="white" stroke-width="1.5" d="M0,-3.0v7 M-2.5,-0.5L0,-3.0L2.5,-0.5"/>
  </g>
  <g id="arrowLeft" transform="rotate(270) translate(-36 17)">
    <use xlink:href="#rim"/>
    <path pointer-events="none" fill="none" stroke="white" stroke-width="1.5" d="M0,-3.0v7 M-2.5,-0.5L0,-3.0L2.5,-0.5"/>
  </g>
  <g id="resetDef">
    <use xlink:href="#rim2" fill="#404040"><set attributeName="fill" to="#808080" begin="reset.mouseover" end="reset.mouseout"/></use>
  </g>
</defs>
<script type="application/ecmascript">
var viewWidth = 1673;
var viewHeight = 441;
var sectionId = 'dynsection-3';
</script>
<script type="application/ecmascript" xlink:href="svg.min.js"/>
<svg id="graph" class="graph">
<g id="viewport">
<title>EmployeeEntry::editRequested</title>
<!-- Node1 -->
<g id="Node000001" class="node">
<title>Node1</title>
<g id="a_Node000001"><a xlink:title="Signal emitted when a employee edit is requested.">
<polygon fill="#999999" stroke="#666666" points="1664.5,-41.94 1512.75,-41.94 1512.75,-21.94 1664.5,-21.94 1664.5,-41.94"/>
<text text-anchor="middle" x="1588.62" y="-28.44" font-family="Helvetica,sans-Serif" font-size="10.00">EmployeeEntry::editRequested</text>
</a>
</g>
</g>
<!-- Node2 -->
<g id="Node000002" class="node">
<title>Node2</title>
<g id="a_Node000002"><a xlink:href="class_data_base_g_u_i.html#a2232520db239e60a4c37ee49868e6652" target="_top" xlink:title="Populates the parent tab with a multimap of parents.">
<polygon fill="white" stroke="#666666" points="967.88,-50.94 847.62,-50.94 847.62,-18.94 967.88,-18.94 967.88,-50.94"/>
<text text-anchor="start" x="855.62" y="-37.44" font-family="Helvetica,sans-Serif" font-size="10.00">DataBaseGUI::populate</text>
<text text-anchor="middle" x="907.75" y="-25.44" font-family="Helvetica,sans-Serif" font-size="10.00">_employee_tab</text>
</a>
</g>
</g>
<!-- Node1&#45;&gt;Node2 -->
<g id="edge1_Node000001_Node000002" class="edge">
<title>Node1&#45;&gt;Node2</title>
<g id="a_edge1_Node000001_Node000002"><a xlink:title=" ">
<path fill="none" stroke="#63b8ff" d="M1501.12,-20.25C1388.29,-6.92 1184.93,10.54 1012.5,-9.94 997.41,-11.73 981.35,-14.94 966.48,-18.47"/>
<polygon fill="#63b8ff" stroke="#63b8ff" points="1500.57,-23.71 1510.92,-21.43 1501.41,-16.76 1500.57,-23.71"/>
</a>
</g>
</g>
<!-- Node3 -->
<g id="Node000003" class="node">
<title>Node3</title>
<g id="a_Node000003"><a xlink:href="class_data_base_g_u_i.html#abab0899c6a55e240687bf21734273428" target="_top" xlink:title="Populates the parent tab with a list of parents.">
<polygon fill="white" stroke="#666666" points="1476.75,-88.94 1356.5,-88.94 1356.5,-56.94 1476.75,-56.94 1476.75,-88.94"/>
<text text-anchor="start" x="1364.5" y="-75.44" font-family="Helvetica,sans-Serif" font-size="10.00">DataBaseGUI::populate</text>
<text text-anchor="middle" x="1416.62" y="-63.44" font-family="Helvetica,sans-Serif" font-size="10.00">_employee_tab</text>
</a>
</g>
</g>
<!-- Node1&#45;&gt;Node3 -->
<g id="edge2_Node000001_Node000003" class="edge">
<title>Node1&#45;&gt;Node3</title>
<g id="a_edge2_Node000001_Node000003"><a xlink:title=" ">
<path fill="none" stroke="#63b8ff" d="M1533.19,-45.07C1515.35,-49.37 1495.44,-54.17 1477.24,-58.56"/>
<polygon fill="#63b8ff" stroke="#63b8ff" points="1533.91,-48.49 1542.82,-42.75 1532.27,-41.69 1533.91,-48.49"/>
</a>
</g>
</g>
<!-- Node4 -->
<g id="Node000004" class="node">
<title>Node4</title>
<g id="a_Node000004"><a xlink:href="class_data_base_g_u_i.html#a54b1ac54d775ea37ae05fd54c756aebe" target="_top" xlink:title="Searches for employees based on the provided name and surname.">
<polygon fill="white" stroke="#666666" points="1320.5,-246.94 1195,-246.94 1195,-214.94 1320.5,-214.94 1320.5,-246.94"/>
<text text-anchor="start" x="1203" y="-233.44" font-family="Helvetica,sans-Serif" font-size="10.00">DataBaseGUI::employee</text>
<text text-anchor="middle" x="1257.75" y="-221.44" font-family="Helvetica,sans-Serif" font-size="10.00">_search</text>
</a>
</g>
</g>
<!-- Node3&#45;&gt;Node4 -->
<g id="edge3_Node000003_Node000004" class="edge">
<title>Node3&#45;&gt;Node4</title>
<g id="a_edge3_Node000003_Node000004"><a xlink:title=" ">
<path fill="none" stroke="#63b8ff" d="M1391.38,-97.36C1359.08,-129.89 1302.79,-186.58 1275.09,-214.48"/>
<polygon fill="#63b8ff" stroke="#63b8ff" points="1393.8,-99.89 1398.36,-90.33 1388.83,-94.96 1393.8,-99.89"/>
</a>
</g>
</g>
<!-- Node18 -->
<g id="Node000018" class="node">
<title>Node18</title>
<g id="a_Node000018"><a xlink:href="class_data_base_g_u_i.html#a0298d31c219c66a65a01eb01372e254d" target="_top" xlink:title="Selects the appropriate sorting to use based on employee sort index.">
<polygon fill="white" stroke="#666666" points="1319.75,-132.94 1195.75,-132.94 1195.75,-100.94 1319.75,-100.94 1319.75,-132.94"/>
<text text-anchor="start" x="1203.75" y="-119.44" font-family="Helvetica,sans-Serif" font-size="10.00">DataBaseGUI::sort_to</text>
<text text-anchor="middle" x="1257.75" y="-107.44" font-family="Helvetica,sans-Serif" font-size="10.00">_populate_employee_tab</text>
</a>
</g>
</g>
<!-- Node3&#45;&gt;Node18 -->
<g id="edge25_Node000003_Node000018" class="edge">
<title>Node3&#45;&gt;Node18</title>
<g id="a_edge25_Node000003_Node000018"><a xlink:title=" ">
<path fill="none" stroke="#63b8ff" d="M1346.42,-92.35C1336.76,-95.06 1326.91,-97.82 1317.47,-100.47"/>
<polygon fill="#63b8ff" stroke="#63b8ff" points="1347.07,-95.8 1355.75,-89.73 1345.18,-89.06 1347.07,-95.8"/>
</a>
</g>
</g>
<!-- Node5 -->
<g id="Node000005" class="node">
<title>Node5</title>
<g id="a_Node000005"><a xlink:href="class_data_base_g_u_i.html#a3a2267784d541d4c74b143458aa7eedb" target="_top" xlink:title="Searches for employees based on the provided employee pointer.">
<polygon fill="white" stroke="#666666" points="1148.5,-301.94 1023,-301.94 1023,-269.94 1148.5,-269.94 1148.5,-301.94"/>
<text text-anchor="start" x="1031" y="-288.44" font-family="Helvetica,sans-Serif" font-size="10.00">DataBaseGUI::employee</text>
<text text-anchor="middle" x="1085.75" y="-276.44" font-family="Helvetica,sans-Serif" font-size="10.00">_search_by_pointer</text>
</a>
</g>
</g>
<!-- Node4&#45;&gt;Node5 -->
<g id="edge4_Node000004_Node000005" class="edge">
<title>Node4&#45;&gt;Node5</title>
<g id="a_edge4_Node000004_Node000005"><a xlink:title=" ">
<path fill="none" stroke="#63b8ff" d="M1195.3,-250.82C1176.4,-256.94 1155.81,-263.6 1137.69,-269.46"/>
<polygon fill="#63b8ff" stroke="#63b8ff" points="1196.33,-254.17 1204.76,-247.76 1194.17,-247.51 1196.33,-254.17"/>
</a>
</g>
</g>
<!-- Node10 -->
<g id="Node000010" class="node">
<title>Node10</title>
<g id="a_Node000010"><a xlink:href="class_data_base_g_u_i.html#a6c35e47ed05a80db144f240dee805a9d" target="_top" xlink:title="Sets up the GUI.">
<polygon fill="white" stroke="#666666" points="294.88,-234.94 187.38,-234.94 187.38,-214.94 294.88,-214.94 294.88,-234.94"/>
<text text-anchor="middle" x="241.12" y="-221.44" font-family="Helvetica,sans-Serif" font-size="10.00">DataBaseGUI::setup</text>
</a>
</g>
</g>
<!-- Node4&#45;&gt;Node10 -->
<g id="edge24_Node000004_Node000010" class="edge">
<title>Node4&#45;&gt;Node10</title>
<g id="a_edge24_Node000004_Node000010"><a xlink:title=" ">
<path fill="none" stroke="#63b8ff" d="M1183.32,-227.82C1044.32,-222.1 733.15,-210.11 471,-205.94 411.56,-204.99 396.41,-200.09 337.25,-205.94 319.99,-207.65 301.22,-211.06 284.95,-214.52"/>
<polygon fill="#63b8ff" stroke="#63b8ff" points="1182.98,-231.31 1193.12,-228.23 1183.27,-224.32 1182.98,-231.31"/>
</a>
</g>
</g>
<!-- Node6 -->
<g id="Node000006" class="node">
<title>Node6</title>
<g id="a_Node000006"><a xlink:href="class_data_base_g_u_i.html#aadcf1044a300a89dadd104cfadb9a1b1" target="_top" xlink:title="Views a lesson in the GUI.">
<polygon fill="white" stroke="#666666" points="976.5,-352.94 839,-352.94 839,-332.94 976.5,-332.94 976.5,-352.94"/>
<text text-anchor="middle" x="907.75" y="-339.44" font-family="Helvetica,sans-Serif" font-size="10.00">DataBaseGUI::lesson_view</text>
</a>
</g>
</g>
<!-- Node5&#45;&gt;Node6 -->
<g id="edge5_Node000005_Node000006" class="edge">
<title>Node5&#45;&gt;Node6</title>
<g id="a_edge5_Node000005_Node000006"><a xlink:title=" ">
<path fill="none" stroke="#63b8ff" d="M1023.05,-305.92C995.38,-314.88 963.89,-325.08 940.98,-332.5"/>
<polygon fill="#63b8ff" stroke="#63b8ff" points="1023.97,-309.3 1032.4,-302.89 1021.81,-302.64 1023.97,-309.3"/>
</a>
</g>
</g>
<!-- Node6&#45;&gt;Node6 -->
<g id="edge6_Node000006_Node000006" class="edge">
<title>Node6&#45;&gt;Node6</title>
<g id="a_edge6_Node000006_Node000006"><a xlink:title=" ">
<path fill="none" stroke="#63b8ff" d="M939.54,-364.05C935.75,-368.08 925.15,-370.94 907.75,-370.94 876.81,-370.94 867.38,-361.91 879.47,-353.28"/>
<polygon fill="#63b8ff" stroke="#63b8ff" points="942.93,-363.14 936.5,-354.72 936.27,-365.31 942.93,-363.14"/>
</a>
</g>
</g>
<!-- Node7 -->
<g id="Node000007" class="node">
<title>Node7</title>
<g id="a_Node000007"><a xlink:href="class_data_base_g_u_i.html#a74e047889e913eae69ec40ec17f53c9d" target="_top" xlink:title="Populates the lessons tab with a multimap of lessons.">
<polygon fill="white" stroke="#666666" points="301.25,-432.94 181,-432.94 181,-400.94 301.25,-400.94 301.25,-432.94"/>
<text text-anchor="start" x="189" y="-419.44" font-family="Helvetica,sans-Serif" font-size="10.00">DataBaseGUI::populate</text>
<text text-anchor="middle" x="241.12" y="-407.44" font-family="Helvetica,sans-Serif" font-size="10.00">_lesson_tab</text>
</a>
</g>
</g>
<!-- Node6&#45;&gt;Node7 -->
<g id="edge7_Node000006_Node000007" class="edge">
<title>Node6&#45;&gt;Node7</title>
<g id="a_edge7_Node000006_Node000007"><a xlink:title=" ">
<path fill="none" stroke="#63b8ff" d="M878.58,-358.83C858.23,-369.51 829.74,-382.89 803,-389.94 625.31,-436.78 405.2,-429.28 301.48,-422.07"/>
<polygon fill="#63b8ff" stroke="#63b8ff" points="880.22,-361.92 887.37,-354.1 876.9,-355.76 880.22,-361.92"/>
</a>
</g>
</g>
<!-- Node8 -->
<g id="Node000008" class="node">
<title>Node8</title>
<g id="a_Node000008"><a xlink:href="class_data_base_g_u_i.html#aa6b02e4e81b0113fb1c75d7d5ef0be59" target="_top" xlink:title="Populates the lessons tab with a list of lessons.">
<polygon fill="white" stroke="#666666" points="789.88,-380.94 669.62,-380.94 669.62,-348.94 789.88,-348.94 789.88,-380.94"/>
<text text-anchor="start" x="677.62" y="-367.44" font-family="Helvetica,sans-Serif" font-size="10.00">DataBaseGUI::populate</text>
<text text-anchor="middle" x="729.75" y="-355.44" font-family="Helvetica,sans-Serif" font-size="10.00">_lesson_tab</text>
</a>
</g>
</g>
<!-- Node6&#45;&gt;Node8 -->
<g id="edge8_Node000006_Node000008" class="edge">
<title>Node6&#45;&gt;Node8</title>
<g id="a_edge8_Node000006_Node000008"><a xlink:title=" ">
<path fill="none" stroke="#63b8ff" d="M827.36,-352.86C814.9,-354.42 802.21,-356.01 790.3,-357.49"/>
<polygon fill="#63b8ff" stroke="#63b8ff" points="827.71,-356.35 837.2,-351.63 826.85,-349.4 827.71,-356.35"/>
</a>
</g>
</g>
<!-- Node9 -->
<g id="Node000009" class="node">
<title>Node9</title>
<g id="a_Node000009"><a xlink:href="class_data_base_g_u_i.html#a55b3c6d3607f17f55d4c321e97fdce7f" target="_top" xlink:title="Searches for lessons based on the provided child name and surname.">
<polygon fill="white" stroke="#666666" points="619.75,-291.94 507.75,-291.94 507.75,-259.94 619.75,-259.94 619.75,-291.94"/>
<text text-anchor="start" x="515.75" y="-278.44" font-family="Helvetica,sans-Serif" font-size="10.00">DataBaseGUI::lesson</text>
<text text-anchor="middle" x="563.75" y="-266.44" font-family="Helvetica,sans-Serif" font-size="10.00">_search</text>
</a>
</g>
</g>
<!-- Node8&#45;&gt;Node9 -->
<g id="edge9_Node000008_Node000009" class="edge">
<title>Node8&#45;&gt;Node9</title>
<g id="a_edge9_Node000008_Node000009"><a xlink:title=" ">
<path fill="none" stroke="#63b8ff" d="M688.86,-343.29C659.91,-327.58 621.33,-306.64 594.92,-292.31"/>
<polygon fill="#63b8ff" stroke="#63b8ff" points="686.88,-346.2 697.34,-347.89 690.22,-340.05 686.88,-346.2"/>
</a>
</g>
</g>
<!-- Node13 -->
<g id="Node000013" class="node">
<title>Node13</title>
<g id="a_Node000013"><a xlink:href="class_data_base_g_u_i.html#a1ad152b7becf3e0051cdd5dbae6d4abc" target="_top" xlink:title="Selects the appropriate sorting to use based on lesson sort index.">
<polygon fill="white" stroke="#666666" points="620.5,-347.94 507,-347.94 507,-315.94 620.5,-315.94 620.5,-347.94"/>
<text text-anchor="start" x="515" y="-334.44" font-family="Helvetica,sans-Serif" font-size="10.00">DataBaseGUI::sort_to</text>
<text text-anchor="middle" x="563.75" y="-322.44" font-family="Helvetica,sans-Serif" font-size="10.00">_populate_lesson_tab</text>
</a>
</g>
</g>
<!-- Node8&#45;&gt;Node13 -->
<g id="edge13_Node000008_Node000013" class="edge">
<title>Node8&#45;&gt;Node13</title>
<g id="a_edge13_Node000008_Node000013"><a xlink:title=" ">
<path fill="none" stroke="#63b8ff" d="M658.59,-350.82C645.99,-348.29 633,-345.67 620.86,-343.23"/>
<polygon fill="#63b8ff" stroke="#63b8ff" points="657.56,-354.19 668.06,-352.73 658.95,-347.32 657.56,-354.19"/>
</a>
</g>
</g>
<!-- Node9&#45;&gt;Node10 -->
<g id="edge10_Node000009_Node000010" class="edge">
<title>Node9&#45;&gt;Node10</title>
<g id="a_edge10_Node000009_Node000010"><a xlink:title=" ">
<path fill="none" stroke="#63b8ff" d="M496.1,-267.48C451.13,-261.53 390.5,-253.03 337.25,-243.94 322.48,-241.42 306.48,-238.35 291.89,-235.43"/>
<polygon fill="#63b8ff" stroke="#63b8ff" points="495.6,-270.95 505.97,-268.78 496.52,-264.01 495.6,-270.95"/>
</a>
</g>
</g>
<!-- Node11 -->
<g id="Node000011" class="node">
<title>Node11</title>
<g id="a_Node000011"><a xlink:href="class_data_base_g_u_i.html#a2c83afe3a30fb5166d275d9a74d33196" target="_top" xlink:title="Default constructor.">
<polygon fill="white" stroke="#666666" points="145,-253.94 0,-253.94 0,-233.94 145,-233.94 145,-253.94"/>
<text text-anchor="middle" x="72.5" y="-240.44" font-family="Helvetica,sans-Serif" font-size="10.00">DataBaseGUI::DataBaseGUI</text>
</a>
</g>
</g>
<!-- Node10&#45;&gt;Node11 -->
<g id="edge11_Node000010_Node000011" class="edge">
<title>Node10&#45;&gt;Node11</title>
<g id="a_edge11_Node000010_Node000011"><a xlink:title=" ">
<path fill="none" stroke="#63b8ff" d="M175.53,-232.3C165.64,-233.43 155.37,-234.6 145.32,-235.75"/>
<polygon fill="#63b8ff" stroke="#63b8ff" points="175.9,-235.78 185.44,-231.17 175.11,-228.83 175.9,-235.78"/>
</a>
</g>
</g>
<!-- Node12 -->
<g id="Node000012" class="node">
<title>Node12</title>
<g id="a_Node000012"><a xlink:href="class_data_base_g_u_i.html#aba10d1d8e9fb151632ff34de418cee82" target="_top" xlink:title="Constructs a DataBaseGUI object.">
<polygon fill="white" stroke="#666666" points="145,-215.94 0,-215.94 0,-195.94 145,-195.94 145,-215.94"/>
<text text-anchor="middle" x="72.5" y="-202.44" font-family="Helvetica,sans-Serif" font-size="10.00">DataBaseGUI::DataBaseGUI</text>
</a>
</g>
</g>
<!-- Node10&#45;&gt;Node12 -->
<g id="edge12_Node000010_Node000012" class="edge">
<title>Node10&#45;&gt;Node12</title>
<g id="a_edge12_Node000010_Node000012"><a xlink:title=" ">
<path fill="none" stroke="#63b8ff" d="M175.53,-217.57C165.64,-216.44 155.37,-215.27 145.32,-214.13"/>
<polygon fill="#63b8ff" stroke="#63b8ff" points="175.11,-221.05 185.44,-218.7 175.9,-214.09 175.11,-221.05"/>
</a>
</g>
</g>
<!-- Node13&#45;&gt;Node6 -->
<g id="edge21_Node000013_Node000006" class="edge">
<title>Node13&#45;&gt;Node6</title>
<g id="a_edge21_Node000013_Node000006"><a xlink:title=" ">
<path fill="none" stroke="#63b8ff" d="M631.93,-334.1C691.72,-336.02 778.75,-338.82 838.77,-340.75"/>
<polygon fill="#63b8ff" stroke="#63b8ff" points="632.35,-330.61 622.24,-333.79 632.12,-337.61 632.35,-330.61"/>
</a>
</g>
</g>
<!-- Node14 -->
<g id="Node000014" class="node">
<title>Node14</title>
<g id="a_Node000014"><a xlink:href="class_data_base_g_u_i.html#a778bdaec7f9281df4c0ead66c9dcffd2" target="_top" xlink:title="Adds a new lesson to the database.">
<polygon fill="white" stroke="#666666" points="470.62,-310.94 337.62,-310.94 337.62,-290.94 470.62,-290.94 470.62,-310.94"/>
<text text-anchor="middle" x="404.12" y="-297.44" font-family="Helvetica,sans-Serif" font-size="10.00">DataBaseGUI::lesson_add</text>
</a>
</g>
</g>
<!-- Node13&#45;&gt;Node14 -->
<g id="edge14_Node000013_Node000014" class="edge">
<title>Node13&#45;&gt;Node14</title>
<g id="a_edge14_Node000013_Node000014"><a xlink:title=" ">
<path fill="none" stroke="#63b8ff" d="M495.48,-318.71C483.06,-316.27 470.25,-313.75 458.32,-311.4"/>
<polygon fill="#63b8ff" stroke="#63b8ff" points="494.76,-322.13 505.25,-320.63 496.11,-315.27 494.76,-322.13"/>
</a>
</g>
</g>
<!-- Node15 -->
<g id="Node000015" class="node">
<title>Node15</title>
<g id="a_Node000015"><a xlink:href="class_data_base_g_u_i.html#a66a3e89a9852de3522d98f2c1f8cdeed" target="_top" xlink:title="Removes a lesson from the database.">
<polygon fill="white" stroke="#666666" points="460.12,-410.94 348.12,-410.94 348.12,-378.94 460.12,-378.94 460.12,-410.94"/>
<text text-anchor="start" x="356.12" y="-397.44" font-family="Helvetica,sans-Serif" font-size="10.00">DataBaseGUI::lesson</text>
<text text-anchor="middle" x="404.12" y="-385.44" font-family="Helvetica,sans-Serif" font-size="10.00">_remove</text>
</a>
</g>
</g>
<!-- Node13&#45;&gt;Node15 -->
<g id="edge16_Node000013_Node000015" class="edge">
<title>Node13&#45;&gt;Node15</title>
<g id="a_edge16_Node000013_Node000015"><a xlink:title=" ">
<path fill="none" stroke="#63b8ff" d="M513.75,-352.55C499.96,-358.27 484.92,-364.42 471,-369.94 463.95,-372.74 456.45,-375.64 449.13,-378.45"/>
<polygon fill="#63b8ff" stroke="#63b8ff" points="514.73,-355.94 522.62,-348.86 512.04,-349.47 514.73,-355.94"/>
</a>
</g>
</g>
<!-- Node16 -->
<g id="Node000016" class="node">
<title>Node16</title>
<g id="a_Node000016"><a xlink:href="class_data_base_g_u_i.html#a0478b87f545d97b9e3ef55858242878b" target="_top" xlink:title="Changes the sorting method for lessons.">
<polygon fill="white" stroke="#666666" points="460.12,-360.94 348.12,-360.94 348.12,-328.94 460.12,-328.94 460.12,-360.94"/>
<text text-anchor="start" x="356.12" y="-347.44" font-family="Helvetica,sans-Serif" font-size="10.00">DataBaseGUI::lesson</text>
<text text-anchor="middle" x="404.12" y="-335.44" font-family="Helvetica,sans-Serif" font-size="10.00">_sort_change</text>
</a>
</g>
</g>
<!-- Node13&#45;&gt;Node16 -->
<g id="edge19_Node000013_Node000016" class="edge">
<title>Node13&#45;&gt;Node16</title>
<g id="a_edge19_Node000013_Node000016"><a xlink:title=" ">
<path fill="none" stroke="#63b8ff" d="M495.26,-337.5C483.64,-338.46 471.68,-339.45 460.43,-340.38"/>
<polygon fill="#63b8ff" stroke="#63b8ff" points="495.55,-340.99 505.23,-336.68 494.97,-334.02 495.55,-340.99"/>
</a>
</g>
</g>
<!-- Node17 -->
<g id="Node000017" class="node">
<title>Node17</title>
<g id="a_Node000017"><a xlink:href="class_data_base_g_u_i.html#a438b5070d6a58ffa5e884d18740852c6" target="_top" xlink:title="Handles tab change events.">
<polygon fill="white" stroke="#666666" points="471,-234.94 337.25,-234.94 337.25,-214.94 471,-214.94 471,-234.94"/>
<text text-anchor="middle" x="404.12" y="-221.44" font-family="Helvetica,sans-Serif" font-size="10.00">DataBaseGUI::tab_change</text>
</a>
</g>
</g>
<!-- Node13&#45;&gt;Node17 -->
<g id="edge22_Node000013_Node000017" class="edge">
<title>Node13&#45;&gt;Node17</title>
<g id="a_edge22_Node000013_Node000017"><a xlink:title=" ">
<path fill="none" stroke="#63b8ff" d="M521.37,-309.74C516.47,-306.88 511.58,-303.9 507,-300.94 473.65,-279.36 436.83,-250.56 417.91,-235.35"/>
<polygon fill="#63b8ff" stroke="#63b8ff" points="519.62,-312.78 530.04,-314.69 523.09,-306.7 519.62,-312.78"/>
</a>
</g>
</g>
<!-- Node14&#45;&gt;Node10 -->
<g id="edge15_Node000014_Node000010" class="edge">
<title>Node14&#45;&gt;Node10</title>
<g id="a_edge15_Node000014_Node000010"><a xlink:title=" ">
<path fill="none" stroke="#63b8ff" d="M360.95,-286.65C352.99,-283.65 344.8,-280.35 337.25,-276.94 309.13,-264.22 278,-246.45 259.25,-235.33"/>
<polygon fill="#63b8ff" stroke="#63b8ff" points="359.56,-289.87 370.15,-290.01 361.96,-283.29 359.56,-289.87"/>
</a>
</g>
</g>
<!-- Node15&#45;&gt;Node7 -->
<g id="edge17_Node000015_Node000007" class="edge">
<title>Node15&#45;&gt;Node7</title>
<g id="a_edge17_Node000015_Node000007"><a xlink:title=" ">
<path fill="none" stroke="#63b8ff" d="M336.33,-404.07C324.77,-405.65 312.82,-407.28 301.48,-408.83"/>
<polygon fill="#63b8ff" stroke="#63b8ff" points="336.78,-407.54 346.22,-402.71 335.84,-400.6 336.78,-407.54"/>
</a>
</g>
</g>
<!-- Node15&#45;&gt;Node8 -->
<g id="edge18_Node000015_Node000008" class="edge">
<title>Node15&#45;&gt;Node8</title>
<g id="a_edge18_Node000015_Node000008"><a xlink:title=" ">
<path fill="none" stroke="#63b8ff" d="M471.87,-388.75C530.01,-383.36 613.54,-375.62 669.39,-370.44"/>
<polygon fill="#63b8ff" stroke="#63b8ff" points="471.74,-385.25 462.1,-389.66 472.38,-392.22 471.74,-385.25"/>
</a>
</g>
</g>
<!-- Node16&#45;&gt;Node10 -->
<g id="edge20_Node000016_Node000010" class="edge">
<title>Node16&#45;&gt;Node10</title>
<g id="a_edge20_Node000016_Node000010"><a xlink:title=" ">
<path fill="none" stroke="#63b8ff" d="M342.98,-323.39C341.01,-322.28 339.1,-321.13 337.25,-319.94 299.61,-295.62 264.92,-254.34 249.93,-235.22"/>
<polygon fill="#63b8ff" stroke="#63b8ff" points="341.25,-326.44 351.75,-327.87 344.43,-320.2 341.25,-326.44"/>
</a>
</g>
</g>
<!-- Node17&#45;&gt;Node10 -->
<g id="edge23_Node000017_Node000010" class="edge">
<title>Node17&#45;&gt;Node10</title>
<g id="a_edge23_Node000017_Node000010"><a xlink:title=" ">
<path fill="none" stroke="#63b8ff" d="M325.87,-224.94C315.39,-224.94 304.84,-224.94 294.93,-224.94"/>
<polygon fill="#63b8ff" stroke="#63b8ff" points="325.66,-228.44 335.66,-224.94 325.66,-221.44 325.66,-228.44"/>
</a>
</g>
</g>
<!-- Node18&#45;&gt;Node17 -->
<g id="edge36_Node000018_Node000017" class="edge">
<title>Node18&#45;&gt;Node17</title>
<g id="a_edge36_Node000018_Node000017"><a xlink:title=" ">
<path fill="none" stroke="#63b8ff" d="M1199.23,-136.63C1186.13,-140.54 1172.18,-144.26 1159,-146.94 908.2,-197.89 603.33,-216.45 471.32,-222.42"/>
<polygon fill="#63b8ff" stroke="#63b8ff" points="1200.02,-140.04 1208.55,-133.76 1197.96,-133.35 1200.02,-140.04"/>
</a>
</g>
</g>
<!-- Node19 -->
<g id="Node000019" class="node">
<title>Node19</title>
<g id="a_Node000019"><a xlink:href="class_data_base_g_u_i.html#a0f194ae2af0655dbec77fea4c37a0388" target="_top" xlink:title="Adds a new employee to the database.">
<polygon fill="white" stroke="#666666" points="803,-161.94 656.5,-161.94 656.5,-141.94 803,-141.94 803,-161.94"/>
<text text-anchor="middle" x="729.75" y="-148.44" font-family="Helvetica,sans-Serif" font-size="10.00">DataBaseGUI::employee_add</text>
</a>
</g>
</g>
<!-- Node18&#45;&gt;Node19 -->
<g id="edge26_Node000018_Node000019" class="edge">
<title>Node18&#45;&gt;Node19</title>
<g id="a_edge26_Node000018_Node000019"><a xlink:title=" ">
<path fill="none" stroke="#63b8ff" d="M1183.9,-125.59C1175.51,-126.45 1167.07,-127.26 1159,-127.94 1034.15,-138.45 888.43,-145.51 803.2,-149.12"/>
<polygon fill="#63b8ff" stroke="#63b8ff" points="1184.19,-129.08 1193.77,-124.55 1183.45,-122.12 1184.19,-129.08"/>
</a>
</g>
</g>
<!-- Node20 -->
<g id="Node000020" class="node">
<title>Node20</title>
<g id="a_Node000020"><a xlink:href="class_data_base_g_u_i.html#ae9c0b91905f7d70563c285cd9b5dace3" target="_top" xlink:title="Edits an existing employee in the database.">
<polygon fill="white" stroke="#666666" points="1159,-88.94 1012.5,-88.94 1012.5,-68.94 1159,-68.94 1159,-88.94"/>
<text text-anchor="middle" x="1085.75" y="-75.44" font-family="Helvetica,sans-Serif" font-size="10.00">DataBaseGUI::employee_edit</text>
</a>
</g>
</g>
<!-- Node18&#45;&gt;Node20 -->
<g id="edge28_Node000018_Node000020" class="edge">
<title>Node18&#45;&gt;Node20</title>
<g id="a_edge28_Node000018_Node000020"><a xlink:title=" ">
<path fill="none" stroke="#63b8ff" d="M1184.24,-100.73C1167.11,-96.9 1149.28,-92.92 1133.63,-89.42"/>
<polygon fill="#63b8ff" stroke="#63b8ff" points="1183.38,-104.12 1193.9,-102.89 1184.9,-97.29 1183.38,-104.12"/>
</a>
</g>
</g>
<!-- Node21 -->
<g id="Node000021" class="node">
<title>Node21</title>
<g id="a_Node000021"><a xlink:href="class_data_base_g_u_i.html#a4b70294327e9c316224af10d7a369749" target="_top" xlink:title="Removes an employee from the database.">
<polygon fill="white" stroke="#666666" points="1148.5,-50.94 1023,-50.94 1023,-18.94 1148.5,-18.94 1148.5,-50.94"/>
<text text-anchor="start" x="1031" y="-37.44" font-family="Helvetica,sans-Serif" font-size="10.00">DataBaseGUI::employee</text>
<text text-anchor="middle" x="1085.75" y="-25.44" font-family="Helvetica,sans-Serif" font-size="10.00">_remove</text>
</a>
</g>
</g>
<!-- Node18&#45;&gt;Node21 -->
<g id="edge31_Node000018_Node000021" class="edge">
<title>Node18&#45;&gt;Node21</title>
<g id="a_edge31_Node000018_Node000021"><a xlink:title=" ">
<path fill="none" stroke="#63b8ff" d="M1222.12,-94.52C1203.81,-83.25 1180.69,-69.9 1159,-59.94 1152.37,-56.89 1145.25,-54 1138.16,-51.34"/>
<polygon fill="#63b8ff" stroke="#63b8ff" points="1220.13,-97.41 1230.47,-99.73 1223.84,-91.47 1220.13,-97.41"/>
</a>
</g>
</g>
<!-- Node22 -->
<g id="Node000022" class="node">
<title>Node22</title>
<g id="a_Node000022"><a xlink:href="class_data_base_g_u_i.html#a7db832ef3939cc57a78a16f4c09994a6" target="_top" xlink:title="Changes the sorting method for employees.">
<polygon fill="white" stroke="#666666" points="970.5,-126.94 845,-126.94 845,-94.94 970.5,-94.94 970.5,-126.94"/>
<text text-anchor="start" x="853" y="-113.44" font-family="Helvetica,sans-Serif" font-size="10.00">DataBaseGUI::employee</text>
<text text-anchor="middle" x="907.75" y="-101.44" font-family="Helvetica,sans-Serif" font-size="10.00">_sort_change</text>
</a>
</g>
</g>
<!-- Node18&#45;&gt;Node22 -->
<g id="edge34_Node000018_Node000022" class="edge">
<title>Node18&#45;&gt;Node22</title>
<g id="a_edge34_Node000018_Node000022"><a xlink:title=" ">
<path fill="none" stroke="#63b8ff" d="M1183.88,-115.68C1120.75,-114.59 1030.43,-113.04 970.72,-112.01"/>
<polygon fill="#63b8ff" stroke="#63b8ff" points="1183.76,-119.18 1193.82,-115.85 1183.88,-112.18 1183.76,-119.18"/>
</a>
</g>
</g>
<!-- Node19&#45;&gt;Node10 -->
<g id="edge27_Node000019_Node000010" class="edge">
<title>Node19&#45;&gt;Node10</title>
<g id="a_edge27_Node000019_Node000010"><a xlink:title=" ">
<path fill="none" stroke="#63b8ff" d="M645.04,-145.85C564.55,-142.44 440.27,-143.66 337.25,-172.94 306.29,-181.74 274.25,-201.98 256.38,-214.46"/>
<polygon fill="#63b8ff" stroke="#63b8ff" points="644.44,-149.32 654.59,-146.29 644.76,-142.33 644.44,-149.32"/>
</a>
</g>
</g>
<!-- Node20&#45;&gt;Node2 -->
<g id="edge29_Node000020_Node000002" class="edge">
<title>Node20&#45;&gt;Node2</title>
<g id="a_edge29_Node000020_Node000002"><a xlink:title=" ">
<path fill="none" stroke="#63b8ff" d="M1031.9,-65.73C1011.81,-60.7 988.8,-54.95 968.14,-49.79"/>
<polygon fill="#63b8ff" stroke="#63b8ff" points="1031.02,-69.11 1041.57,-68.14 1032.72,-62.32 1031.02,-69.11"/>
</a>
</g>
</g>
<!-- Node20&#45;&gt;Node3 -->
<g id="edge30_Node000020_Node000003" class="edge">
<title>Node20&#45;&gt;Node3</title>
<g id="a_edge30_Node000020_Node000003"><a xlink:title=" ">
<path fill="none" stroke="#63b8ff" d="M1170.7,-77.41C1228.64,-76.35 1304.27,-74.97 1356.07,-74.03"/>
<polygon fill="#63b8ff" stroke="#63b8ff" points="1170.81,-73.9 1160.87,-77.59 1170.94,-80.9 1170.81,-73.9"/>
</a>
</g>
</g>
<!-- Node21&#45;&gt;Node2 -->
<g id="edge32_Node000021_Node000002" class="edge">
<title>Node21&#45;&gt;Node2</title>
<g id="a_edge32_Node000021_Node000002"><a xlink:title=" ">
<path fill="none" stroke="#63b8ff" d="M1011.31,-34.94C996.94,-34.94 982.02,-34.94 968.17,-34.94"/>
<polygon fill="#63b8ff" stroke="#63b8ff" points="1011.19,-38.44 1021.19,-34.94 1011.19,-31.44 1011.19,-38.44"/>
</a>
</g>
</g>
<!-- Node21&#45;&gt;Node3 -->
<g id="edge33_Node000021_Node000003" class="edge">
<title>Node21&#45;&gt;Node3</title>
<g id="a_edge33_Node000021_Node000003"><a xlink:title=" ">
<path fill="none" stroke="#63b8ff" d="M1160.05,-43.41C1219.09,-50.23 1301.03,-59.7 1356.07,-66.06"/>
<polygon fill="#63b8ff" stroke="#63b8ff" points="1160.78,-39.97 1150.44,-42.3 1159.97,-46.92 1160.78,-39.97"/>
</a>
</g>
</g>
<!-- Node22&#45;&gt;Node10 -->
<g id="edge35_Node000022_Node000010" class="edge">
<title>Node22&#45;&gt;Node10</title>
<g id="a_edge35_Node000022_Node000010"><a xlink:title=" ">
<path fill="none" stroke="#63b8ff" d="M833.52,-101.38C721.99,-89.86 504.86,-79.53 337.25,-145.94 299.53,-160.88 265.66,-196.82 250.51,-214.61"/>
<polygon fill="#63b8ff" stroke="#63b8ff" points="832.81,-104.82 843.12,-102.4 833.55,-97.86 832.81,-104.82"/>
</a>
</g>
</g>
</g>
</svg>

<g id="navigator" transform="translate(0 0)" fill="#404254">
  <rect fill="#f2f5e9" fill-opacity="0.5" stroke="#606060" stroke-width=".5" x="0" y="0" width="60" height="60"/>
  <use id="zoomplus" xlink:href="#zoomPlus" x="17" y="9" onmousedown="handleZoom(evt,'in')"/>
  <use id="zoomminus" xlink:href="#zoomMin" x="42" y="9" onmousedown="handleZoom(evt,'out')"/>
  <use id="reset" xlink:href="#resetDef" x="30" y="36" onmousedown="handleReset()"/>
   <use id="arrowup" xlink:href="#arrowUp" x="0" y="0" onmousedown="handlePan(0,-1)"/>
  <use id="arrowright" xlink:href="#arrowRight" x="0" y="0" onmousedown="handlePan(1,0)"/>
  <use id="arrowdown" xlink:href="#arrowDown" x="0" y="0" onmousedown="handlePan(0,1)"/>
  <use id="arrowleft" xlink:href="#arrowLeft" x="0" y="0" onmousedown="handlePan(-1,0)"/>
</g>
<svg viewBox="0 0 15 15" width="100%" height="30px" preserveAspectRatio="xMaxYMin meet">
 <g id="arrow_out" transform="scale(0.3 0.3)">
  <a xlink:href="class_employee_entry_ada71cffbda6a2614d266a6cc85d6684a_icgraph_org.svg" target="_base">
   <rect id="button" ry="5" rx="5" y="6" x="6" height="38" width="38"
        fill="#f2f5e9" fill-opacity="0.5" stroke="#606060" stroke-width="1.0"/>
   <path id="arrow"
     d="M 11.500037,31.436501 C 11.940474,20.09759 22.043105,11.32322 32.158766,21.979434 L 37.068811,17.246167 C 37.068811,17.246167 37.088388,32 37.088388,32 L 22.160133,31.978069 C 22.160133,31.978069 26.997745,27.140456 26.997745,27.140456 C 18.528582,18.264221 13.291696,25.230495 11.500037,31.436501 z"
     style="fill:#404040;"/>
  </a>
 </g>
</svg>

<style type='text/css'>
<![CDATA[
[data-mouse-over-selected='false'] { opacity: 0.7; }
[data-mouse-over-selected='true']  { opacity: 1.0; }
]]>
</style>
<script type="application/ecmascript"><![CDATA[
document.addEventListener('DOMContentLoaded', (event) => {
  highlightEdges();
  highlightAdjacentNodes();
});
]]></script>
</svg>
