<?xml version="1.0" encoding="UTF-8" standalone="no"?>
<!DOCTYPE svg PUBLIC "-//W3C//DTD SVG 1.1//EN"
 "http://www.w3.org/Graphics/SVG/1.1/DTD/svg11.dtd">
<!-- Generated by graphviz version 12.2.1 (20241206.2353)
 -->
<!-- Title: DataBaseGUI::populate_parent_tab Pages: 1 -->
<svg width="958pt" height="758pt"
 viewBox="0.00 0.00 958.25 758.00" xmlns="http://www.w3.org/2000/svg" xmlns:xlink="http://www.w3.org/1999/xlink">
<g id="graph0" class="graph" transform="scale(1 1) rotate(0) translate(4 754)">
<title>DataBaseGUI::populate_parent_tab</title>
<!-- Node1 -->
<g id="Node000001" class="node">
<title>Node1</title>
<g id="a_Node000001"><a xlink:title="Populates the parent tab with a list of parents.">
<polygon fill="#999999" stroke="#666666" points="120.25,-202 0,-202 0,-170 120.25,-170 120.25,-202"/>
<text text-anchor="start" x="8" y="-188.5" font-family="Helvetica,sans-Serif" font-size="10.00">DataBaseGUI::populate</text>
<text text-anchor="middle" x="60.12" y="-176.5" font-family="Helvetica,sans-Serif" font-size="10.00">_parent_tab</text>
</a>
</g>
</g>
<!-- Node2 -->
<g id="Node000002" class="node">
<title>Node2</title>
<g id="a_Node000002"><a xlink:href="class_data_base_g_u_i.html#aadb0e7d323a970603312695c0dd9b264" target="_top" xlink:title="Searches for children based on the provided child pointer.">
<polygon fill="white" stroke="#666666" points="284.75,-413 181,-413 181,-381 284.75,-381 284.75,-413"/>
<text text-anchor="start" x="189" y="-399.5" font-family="Helvetica,sans-Serif" font-size="10.00">DataBaseGUI::child</text>
<text text-anchor="middle" x="232.88" y="-387.5" font-family="Helvetica,sans-Serif" font-size="10.00">_search_by_pointer</text>
</a>
</g>
</g>
<!-- Node1&#45;&gt;Node2 -->
<g id="edge1_Node000001_Node000002" class="edge">
<title>Node1&#45;&gt;Node2</title>
<g id="a_edge1_Node000001_Node000002"><a xlink:title=" ">
<path fill="none" stroke="#63b8ff" d="M70.61,-202.36C86.62,-229.37 120.75,-284.44 156.25,-326 170.72,-342.94 188.87,-360.09 203.76,-373.29"/>
<polygon fill="#63b8ff" stroke="#63b8ff" points="201.12,-375.64 210.96,-379.58 205.73,-370.36 201.12,-375.64"/>
</a>
</g>
</g>
<!-- Node16 -->
<g id="Node000016" class="node">
<title>Node16</title>
<g id="a_Node000016"><a xlink:href="class_parent_entry.html#a45e22d202e52c9dbc7e7e72575dc0e91" target="_top" xlink:title="Signal emitted when a child search is requested.">
<polygon fill="white" stroke="#666666" points="295.25,-284 170.5,-284 170.5,-252 295.25,-252 295.25,-284"/>
<text text-anchor="start" x="178.5" y="-270.5" font-family="Helvetica,sans-Serif" font-size="10.00">ParentEntry::childSearch</text>
<text text-anchor="middle" x="232.88" y="-258.5" font-family="Helvetica,sans-Serif" font-size="10.00">Requested</text>
</a>
</g>
</g>
<!-- Node1&#45;&gt;Node16 -->
<g id="edge20_Node000001_Node000016" class="edge">
<title>Node1&#45;&gt;Node16</title>
<g id="a_edge20_Node000001_Node000016"><a xlink:title=" ">
<path fill="none" stroke="#63b8ff" d="M84.95,-202.3C103.72,-214.63 130.87,-231.37 156.25,-243 159.58,-244.53 163.03,-246 166.55,-247.43"/>
<polygon fill="#63b8ff" stroke="#63b8ff" points="165.2,-250.66 175.79,-250.99 167.71,-244.13 165.2,-250.66"/>
</a>
</g>
</g>
<!-- Node17 -->
<g id="Node000017" class="node">
<title>Node17</title>
<g id="a_Node000017"><a xlink:href="class_parent_entry.html#ab0a6b9993e8f1dc2f58ceedfee0f7d0b" target="_top" xlink:title="Signal emitted when a parent edit is requested.">
<polygon fill="white" stroke="#666666" points="301.25,-234 164.5,-234 164.5,-214 301.25,-214 301.25,-234"/>
<text text-anchor="middle" x="232.88" y="-220.5" font-family="Helvetica,sans-Serif" font-size="10.00">ParentEntry::editRequested</text>
</a>
</g>
</g>
<!-- Node1&#45;&gt;Node17 -->
<g id="edge21_Node000001_Node000017" class="edge">
<title>Node1&#45;&gt;Node17</title>
<g id="a_edge21_Node000001_Node000017"><a xlink:title=" ">
<path fill="none" stroke="#63b8ff" d="M120.37,-199.18C137.67,-203.03 156.56,-207.24 173.79,-211.07"/>
<polygon fill="#63b8ff" stroke="#63b8ff" points="172.84,-214.45 183.36,-213.2 174.36,-207.62 172.84,-214.45"/>
</a>
</g>
</g>
<!-- Node18 -->
<g id="Node000018" class="node">
<title>Node18</title>
<g id="a_Node000018"><a xlink:href="class_data_base_g_u_i.html#a5b049fb9e0e5d78c4c2e81e569b471f9" target="_top" xlink:title="Edits an existing parent in the database.">
<polygon fill="white" stroke="#666666" points="298.62,-196 167.12,-196 167.12,-176 298.62,-176 298.62,-196"/>
<text text-anchor="middle" x="232.88" y="-182.5" font-family="Helvetica,sans-Serif" font-size="10.00">DataBaseGUI::parent_edit</text>
</a>
</g>
</g>
<!-- Node1&#45;&gt;Node18 -->
<g id="edge22_Node000001_Node000018" class="edge">
<title>Node1&#45;&gt;Node18</title>
<g id="a_edge22_Node000001_Node000018"><a xlink:title=" ">
<path fill="none" stroke="#63b8ff" d="M120.37,-186C131.75,-186 143.83,-186 155.66,-186"/>
<polygon fill="#63b8ff" stroke="#63b8ff" points="155.39,-189.5 165.39,-186 155.39,-182.5 155.39,-189.5"/>
</a>
</g>
</g>
<!-- Node20 -->
<g id="Node000020" class="node">
<title>Node20</title>
<g id="a_Node000020"><a xlink:href="class_data_base_g_u_i.html#ad8a42f24cdb603ba85c1cdd4ea2e73a4" target="_top" xlink:title="Removes a parent from the database.">
<polygon fill="white" stroke="#666666" points="288.12,-120 177.62,-120 177.62,-88 288.12,-88 288.12,-120"/>
<text text-anchor="start" x="185.62" y="-106.5" font-family="Helvetica,sans-Serif" font-size="10.00">DataBaseGUI::parent</text>
<text text-anchor="middle" x="232.88" y="-94.5" font-family="Helvetica,sans-Serif" font-size="10.00">_remove</text>
</a>
</g>
</g>
<!-- Node1&#45;&gt;Node20 -->
<g id="edge25_Node000001_Node000020" class="edge">
<title>Node1&#45;&gt;Node20</title>
<g id="a_edge25_Node000001_Node000020"><a xlink:title=" ">
<path fill="none" stroke="#63b8ff" d="M88.96,-169.61C107.68,-158.87 133.08,-144.88 156.25,-134 163.04,-130.81 170.26,-127.66 177.45,-124.66"/>
<polygon fill="#63b8ff" stroke="#63b8ff" points="178.56,-127.99 186.49,-120.96 175.91,-121.51 178.56,-127.99"/>
</a>
</g>
</g>
<!-- Node21 -->
<g id="Node000021" class="node">
<title>Node21</title>
<g id="a_Node000021"><a xlink:href="class_data_base_g_u_i.html#a3d4aa66da32413ddd29330e008b1865a" target="_top" xlink:title="Clears the parent tab.">
<polygon fill="white" stroke="#666666" points="288.12,-70 177.62,-70 177.62,-38 288.12,-38 288.12,-70"/>
<text text-anchor="start" x="185.62" y="-56.5" font-family="Helvetica,sans-Serif" font-size="10.00">DataBaseGUI::parent</text>
<text text-anchor="middle" x="232.88" y="-44.5" font-family="Helvetica,sans-Serif" font-size="10.00">_tab_clear</text>
</a>
</g>
</g>
<!-- Node1&#45;&gt;Node21 -->
<g id="edge27_Node000001_Node000021" class="edge">
<title>Node1&#45;&gt;Node21</title>
<g id="a_edge27_Node000001_Node000021"><a xlink:title=" ">
<path fill="none" stroke="#63b8ff" d="M71.41,-169.81C87.03,-146.49 118.87,-103.58 156.25,-79 159.69,-76.74 163.35,-74.67 167.13,-72.77"/>
<polygon fill="#63b8ff" stroke="#63b8ff" points="168.32,-76.07 175.99,-68.77 165.44,-69.69 168.32,-76.07"/>
</a>
</g>
</g>
<!-- Node22 -->
<g id="Node000022" class="node">
<title>Node22</title>
<g id="a_Node000022"><a xlink:href="class_parent_entry.html#ada9ff642ea28fbec8f40767df83cc5f1" target="_top" xlink:title="Signal emitted when a parent removal is requested.">
<polygon fill="white" stroke="#666666" points="309.5,-20 156.25,-20 156.25,0 309.5,0 309.5,-20"/>
<text text-anchor="middle" x="232.88" y="-6.5" font-family="Helvetica,sans-Serif" font-size="10.00">ParentEntry::removeRequested</text>
</a>
</g>
</g>
<!-- Node1&#45;&gt;Node22 -->
<g id="edge28_Node000001_Node000022" class="edge">
<title>Node1&#45;&gt;Node22</title>
<g id="a_edge28_Node000001_Node000022"><a xlink:title=" ">
<path fill="none" stroke="#63b8ff" d="M66.24,-169.79C77.23,-137.69 106.26,-65.92 156.25,-29 158.01,-27.7 159.84,-26.49 161.74,-25.37"/>
<polygon fill="#63b8ff" stroke="#63b8ff" points="162.94,-28.68 170.31,-21.07 159.8,-22.42 162.94,-28.68"/>
</a>
</g>
</g>
<!-- Node3 -->
<g id="Node000003" class="node">
<title>Node3</title>
<g id="a_Node000003"><a xlink:href="class_data_base_g_u_i.html#a2d921da686e76ae195da018bb735a1ae" target="_top" xlink:title="Searches for children based on the provided name and surname.">
<polygon fill="white" stroke="#666666" points="454.12,-545 350.38,-545 350.38,-513 454.12,-513 454.12,-545"/>
<text text-anchor="start" x="358.38" y="-531.5" font-family="Helvetica,sans-Serif" font-size="10.00">DataBaseGUI::child</text>
<text text-anchor="middle" x="402.25" y="-519.5" font-family="Helvetica,sans-Serif" font-size="10.00">_search</text>
</a>
</g>
</g>
<!-- Node2&#45;&gt;Node3 -->
<g id="edge2_Node000002_Node000003" class="edge">
<title>Node2&#45;&gt;Node3</title>
<g id="a_edge2_Node000002_Node000003"><a xlink:title=" ">
<path fill="none" stroke="#63b8ff" d="M254.73,-413.45C284.13,-436.64 337.9,-479.04 371.49,-505.53"/>
<polygon fill="#63b8ff" stroke="#63b8ff" points="369.18,-508.17 379.2,-511.61 373.52,-502.67 369.18,-508.17"/>
</a>
</g>
</g>
<!-- Node11 -->
<g id="Node000011" class="node">
<title>Node11</title>
<g id="a_Node000011"><a xlink:href="class_person.html#a6b1fec00d8d1f5af1a2977dc3f5f9eb8" target="_top" xlink:title="Gets the first name of the person.">
<polygon fill="white" stroke="#666666" points="940.12,-385 844.62,-385 844.62,-365 940.12,-365 940.12,-385"/>
<text text-anchor="middle" x="892.38" y="-371.5" font-family="Helvetica,sans-Serif" font-size="10.00">Person::get_name</text>
</a>
</g>
</g>
<!-- Node2&#45;&gt;Node11 -->
<g id="edge18_Node000002_Node000011" class="edge">
<title>Node2&#45;&gt;Node11</title>
<g id="a_edge18_Node000002_Node000011"><a xlink:title=" ">
<path fill="none" stroke="#63b8ff" d="M285.23,-391.64C384.4,-381.91 609.18,-362.89 798.5,-369 809.64,-369.36 821.53,-369.96 832.94,-370.65"/>
<polygon fill="#63b8ff" stroke="#63b8ff" points="832.44,-374.12 842.65,-371.26 832.89,-367.14 832.44,-374.12"/>
</a>
</g>
</g>
<!-- Node12 -->
<g id="Node000012" class="node">
<title>Node12</title>
<g id="a_Node000012"><a xlink:href="class_person.html#a7b3c8db44a49c4ba8c4838e19a235613" target="_top" xlink:title="Gets the last name of the person.">
<polygon fill="white" stroke="#666666" points="946.88,-436 837.88,-436 837.88,-416 946.88,-416 946.88,-436"/>
<text text-anchor="middle" x="892.38" y="-422.5" font-family="Helvetica,sans-Serif" font-size="10.00">Person::get_surname</text>
</a>
</g>
</g>
<!-- Node2&#45;&gt;Node12 -->
<g id="edge19_Node000002_Node000012" class="edge">
<title>Node2&#45;&gt;Node12</title>
<g id="a_edge19_Node000002_Node000012"><a xlink:title=" ">
<path fill="none" stroke="#63b8ff" d="M284.94,-400.08C363.58,-404.73 519.12,-413.59 651.25,-419 710.47,-421.42 777.93,-423.31 826.24,-424.52"/>
<polygon fill="#63b8ff" stroke="#63b8ff" points="825.88,-428.01 835.97,-424.75 826.06,-421.01 825.88,-428.01"/>
</a>
</g>
</g>
<!-- Node4 -->
<g id="Node000004" class="node">
<title>Node4</title>
<g id="a_Node000004"><a xlink:href="class_data_base_g_u_i.html#af346d08370d9e4574980707f61b9c8f7" target="_top" xlink:title="Populates the children tab with a list of children.">
<polygon fill="white" stroke="#666666" points="615.25,-592 495,-592 495,-560 615.25,-560 615.25,-592"/>
<text text-anchor="start" x="503" y="-578.5" font-family="Helvetica,sans-Serif" font-size="10.00">DataBaseGUI::populate</text>
<text text-anchor="middle" x="555.12" y="-566.5" font-family="Helvetica,sans-Serif" font-size="10.00">_children_tab</text>
</a>
</g>
</g>
<!-- Node3&#45;&gt;Node4 -->
<g id="edge3_Node000003_Node000004" class="edge">
<title>Node3&#45;&gt;Node4</title>
<g id="a_edge3_Node000003_Node000004"><a xlink:title=" ">
<path fill="none" stroke="#63b8ff" d="M454.33,-544.91C465.91,-548.52 478.36,-552.4 490.39,-556.15"/>
<polygon fill="#63b8ff" stroke="#63b8ff" points="489.26,-559.46 499.85,-559.09 491.35,-552.78 489.26,-559.46"/>
</a>
</g>
</g>
<!-- Node5 -->
<g id="Node000005" class="node">
<title>Node5</title>
<g id="a_Node000005"><a xlink:href="class_data_base_g_u_i.html#acb6c6b292e58d0ead30682f7f5705244" target="_top" xlink:title="Edits an existing child in the database.">
<polygon fill="white" stroke="#666666" points="787.25,-624 662.5,-624 662.5,-604 787.25,-604 787.25,-624"/>
<text text-anchor="middle" x="724.88" y="-610.5" font-family="Helvetica,sans-Serif" font-size="10.00">DataBaseGUI::child_edit</text>
</a>
</g>
</g>
<!-- Node4&#45;&gt;Node5 -->
<g id="edge4_Node000004_Node000005" class="edge">
<title>Node4&#45;&gt;Node5</title>
<g id="a_edge4_Node000004_Node000005"><a xlink:title=" ">
<path fill="none" stroke="#63b8ff" d="M615.74,-589.5C632.27,-593.25 650.17,-597.3 666.56,-601.02"/>
<polygon fill="#63b8ff" stroke="#63b8ff" points="665.63,-604.39 676.16,-603.19 667.18,-597.57 665.63,-604.39"/>
</a>
</g>
</g>
<!-- Node7 -->
<g id="Node000007" class="node">
<title>Node7</title>
<g id="a_Node000007"><a xlink:href="class_data_base_g_u_i.html#ae3a08843db874e51a7cea32fa8937ca5" target="_top" xlink:title="Removes a child from the database.">
<polygon fill="white" stroke="#666666" points="776.75,-674 673,-674 673,-642 776.75,-642 776.75,-674"/>
<text text-anchor="start" x="681" y="-660.5" font-family="Helvetica,sans-Serif" font-size="10.00">DataBaseGUI::child</text>
<text text-anchor="middle" x="724.88" y="-648.5" font-family="Helvetica,sans-Serif" font-size="10.00">_remove</text>
</a>
</g>
</g>
<!-- Node4&#45;&gt;Node7 -->
<g id="edge7_Node000004_Node000007" class="edge">
<title>Node4&#45;&gt;Node7</title>
<g id="a_edge7_Node000004_Node000007"><a xlink:title=" ">
<path fill="none" stroke="#63b8ff" d="M580.38,-592.47C599.16,-604.73 626.12,-621.3 651.25,-633 654.74,-634.62 658.37,-636.2 662.06,-637.72"/>
<polygon fill="#63b8ff" stroke="#63b8ff" points="660.55,-640.89 671.14,-641.28 663.11,-634.37 660.55,-640.89"/>
</a>
</g>
</g>
<!-- Node8 -->
<g id="Node000008" class="node">
<title>Node8</title>
<g id="a_Node000008"><a xlink:href="class_data_base_g_u_i.html#afbc53e28ad83200fe77e0fa5a6eb970f" target="_top" xlink:title="Clears the children tab.">
<polygon fill="white" stroke="#666666" points="783.5,-498 666.25,-498 666.25,-466 783.5,-466 783.5,-498"/>
<text text-anchor="start" x="674.25" y="-484.5" font-family="Helvetica,sans-Serif" font-size="10.00">DataBaseGUI::children</text>
<text text-anchor="middle" x="724.88" y="-472.5" font-family="Helvetica,sans-Serif" font-size="10.00">_tab_clear</text>
</a>
</g>
</g>
<!-- Node4&#45;&gt;Node8 -->
<g id="edge9_Node000004_Node000008" class="edge">
<title>Node4&#45;&gt;Node8</title>
<g id="a_edge9_Node000004_Node000008"><a xlink:title=" ">
<path fill="none" stroke="#63b8ff" d="M575.05,-559.65C593.49,-544.38 622.83,-521.78 651.25,-507 654.08,-505.53 657.01,-504.12 660.01,-502.76"/>
<polygon fill="#63b8ff" stroke="#63b8ff" points="661.11,-506.09 668.96,-498.97 658.39,-499.64 661.11,-506.09"/>
</a>
</g>
</g>
<!-- Node9 -->
<g id="Node000009" class="node">
<title>Node9</title>
<g id="a_Node000009"><a xlink:href="class_child_entry.html#abda9dea89937d77c4def3fb81d964ff9" target="_top" xlink:title="Signal emitted when a child edit is requested.">
<polygon fill="white" stroke="#666666" points="790.25,-750 659.5,-750 659.5,-730 790.25,-730 790.25,-750"/>
<text text-anchor="middle" x="724.88" y="-736.5" font-family="Helvetica,sans-Serif" font-size="10.00">ChildEntry::editRequested</text>
</a>
</g>
</g>
<!-- Node4&#45;&gt;Node9 -->
<g id="edge10_Node000004_Node000009" class="edge">
<title>Node4&#45;&gt;Node9</title>
<g id="a_edge10_Node000004_Node000009"><a xlink:title=" ">
<path fill="none" stroke="#63b8ff" d="M562.19,-592.33C574.27,-622.57 604.31,-687.27 651.25,-721 653.04,-722.28 654.9,-723.48 656.83,-724.6"/>
<polygon fill="#63b8ff" stroke="#63b8ff" points="655.02,-727.61 665.54,-728.86 658.1,-721.32 655.02,-727.61"/>
</a>
</g>
</g>
<!-- Node10 -->
<g id="Node000010" class="node">
<title>Node10</title>
<g id="a_Node000010"><a xlink:href="class_data_base_g_u_i.html#a8e1fe573ef6a09e112989968ec1a2b43" target="_top" xlink:title="Searches for parents based on the provided parent pointer.">
<polygon fill="white" stroke="#666666" points="780.12,-410 669.62,-410 669.62,-378 780.12,-378 780.12,-410"/>
<text text-anchor="start" x="677.62" y="-396.5" font-family="Helvetica,sans-Serif" font-size="10.00">DataBaseGUI::parent</text>
<text text-anchor="middle" x="724.88" y="-384.5" font-family="Helvetica,sans-Serif" font-size="10.00">_search_by_pointer</text>
</a>
</g>
</g>
<!-- Node4&#45;&gt;Node10 -->
<g id="edge11_Node000004_Node000010" class="edge">
<title>Node4&#45;&gt;Node10</title>
<g id="a_edge11_Node000004_Node000010"><a xlink:title=" ">
<path fill="none" stroke="#63b8ff" d="M567.58,-559.84C584.64,-536.22 618.27,-491.33 651.25,-457 664.62,-443.08 680.74,-428.87 694.39,-417.49"/>
<polygon fill="#63b8ff" stroke="#63b8ff" points="696.28,-420.46 701.78,-411.4 691.83,-415.06 696.28,-420.46"/>
</a>
</g>
</g>
<!-- Node14 -->
<g id="Node000014" class="node">
<title>Node14</title>
<g id="a_Node000014"><a xlink:href="class_child_entry.html#a11d827331ad040002cce25952c27e47a" target="_top" xlink:title="Signal emitted when a parent search is requested.">
<polygon fill="white" stroke="#666666" points="789.12,-548 660.62,-548 660.62,-516 789.12,-516 789.12,-548"/>
<text text-anchor="start" x="668.62" y="-534.5" font-family="Helvetica,sans-Serif" font-size="10.00">ChildEntry::parrentSearch</text>
<text text-anchor="middle" x="724.88" y="-522.5" font-family="Helvetica,sans-Serif" font-size="10.00">Requested</text>
</a>
</g>
</g>
<!-- Node4&#45;&gt;Node14 -->
<g id="edge16_Node000004_Node000014" class="edge">
<title>Node4&#45;&gt;Node14</title>
<g id="a_edge16_Node000004_Node000014"><a xlink:title=" ">
<path fill="none" stroke="#63b8ff" d="M615.74,-560.36C626.87,-557.44 638.63,-554.36 650.13,-551.34"/>
<polygon fill="#63b8ff" stroke="#63b8ff" points="650.8,-554.79 659.58,-548.86 649.02,-548.02 650.8,-554.79"/>
</a>
</g>
</g>
<!-- Node15 -->
<g id="Node000015" class="node">
<title>Node15</title>
<g id="a_Node000015"><a xlink:href="class_child_entry.html#a69e495a83c20ea922198adea9ae47ddb" target="_top" xlink:title="Signal emitted when a child removal is requested.">
<polygon fill="white" stroke="#666666" points="798.5,-712 651.25,-712 651.25,-692 798.5,-692 798.5,-712"/>
<text text-anchor="middle" x="724.88" y="-698.5" font-family="Helvetica,sans-Serif" font-size="10.00">ChildEntry::removeRequested</text>
</a>
</g>
</g>
<!-- Node4&#45;&gt;Node15 -->
<g id="edge17_Node000004_Node000015" class="edge">
<title>Node4&#45;&gt;Node15</title>
<g id="a_edge17_Node000004_Node000015"><a xlink:title=" ">
<path fill="none" stroke="#63b8ff" d="M565.96,-592.12C581.22,-615.73 612.9,-659.49 651.25,-683 653.68,-684.49 656.23,-685.86 658.85,-687.13"/>
<polygon fill="#63b8ff" stroke="#63b8ff" points="657.3,-690.28 667.88,-690.92 660.01,-683.82 657.3,-690.28"/>
</a>
</g>
</g>
<!-- Node6 -->
<g id="Node000006" class="node">
<title>Node6</title>
<g id="a_Node000006"><a xlink:href="class_data_base_g_u_i.html#aa684465aa73b5b34bbadd24fc7f2f641" target="_top" xlink:title="Selects the appropriate sorting to use based on child sort index.">
<polygon fill="white" stroke="#666666" points="950.25,-630 834.5,-630 834.5,-598 950.25,-598 950.25,-630"/>
<text text-anchor="start" x="842.5" y="-616.5" font-family="Helvetica,sans-Serif" font-size="10.00">DataBaseGUI::sort_to</text>
<text text-anchor="middle" x="892.38" y="-604.5" font-family="Helvetica,sans-Serif" font-size="10.00">_populate_children_tab</text>
</a>
</g>
</g>
<!-- Node5&#45;&gt;Node6 -->
<g id="edge5_Node000005_Node000006" class="edge">
<title>Node5&#45;&gt;Node6</title>
<g id="a_edge5_Node000005_Node000006"><a xlink:title=" ">
<path fill="none" stroke="#63b8ff" d="M787.5,-614C798.94,-614 810.96,-614 822.6,-614"/>
<polygon fill="#63b8ff" stroke="#63b8ff" points="822.57,-617.5 832.57,-614 822.57,-610.5 822.57,-617.5"/>
</a>
</g>
</g>
<!-- Node6&#45;&gt;Node4 -->
<g id="edge6_Node000006_Node000004" class="edge">
<title>Node6&#45;&gt;Node4</title>
<g id="a_edge6_Node000006_Node000004"><a xlink:title=" ">
<path fill="none" stroke="#63b8ff" d="M834.1,-601.13C822.37,-598.82 810.07,-596.63 798.5,-595 741.04,-586.9 675.4,-582.02 626.93,-579.24"/>
<polygon fill="#63b8ff" stroke="#63b8ff" points="627.31,-575.76 617.13,-578.69 626.92,-582.74 627.31,-575.76"/>
</a>
</g>
</g>
<!-- Node7&#45;&gt;Node6 -->
<g id="edge8_Node000007_Node000006" class="edge">
<title>Node7&#45;&gt;Node6</title>
<g id="a_edge8_Node000007_Node000006"><a xlink:title=" ">
<path fill="none" stroke="#63b8ff" d="M776.88,-644.44C791.48,-640.56 807.63,-636.26 823.09,-632.16"/>
<polygon fill="#63b8ff" stroke="#63b8ff" points="823.96,-635.55 832.72,-629.59 822.16,-628.78 823.96,-635.55"/>
</a>
</g>
</g>
<!-- Node10&#45;&gt;Node11 -->
<g id="edge12_Node000010_Node000011" class="edge">
<title>Node10&#45;&gt;Node11</title>
<g id="a_edge12_Node000010_Node000011"><a xlink:title=" ">
<path fill="none" stroke="#63b8ff" d="M780.52,-387.73C797.44,-385.78 816.13,-383.64 833.27,-381.67"/>
<polygon fill="#63b8ff" stroke="#63b8ff" points="833.24,-385.2 842.77,-380.58 832.44,-378.24 833.24,-385.2"/>
</a>
</g>
</g>
<!-- Node10&#45;&gt;Node12 -->
<g id="edge13_Node000010_Node000012" class="edge">
<title>Node10&#45;&gt;Node12</title>
<g id="a_edge13_Node000010_Node000012"><a xlink:title=" ">
<path fill="none" stroke="#63b8ff" d="M780.52,-404.57C795.3,-407.42 811.43,-410.54 826.7,-413.49"/>
<polygon fill="#63b8ff" stroke="#63b8ff" points="825.66,-416.86 836.14,-415.32 826.99,-409.99 825.66,-416.86"/>
</a>
</g>
</g>
<!-- Node13 -->
<g id="Node000013" class="node">
<title>Node13</title>
<g id="a_Node000013"><a xlink:href="class_data_base_g_u_i.html#a7c3d843eec449d8a4ec5ce6bf0375358" target="_top" xlink:title="Searches for parents based on the provided name and surname.">
<polygon fill="white" stroke="#666666" points="947.62,-338 837.12,-338 837.12,-306 947.62,-306 947.62,-338"/>
<text text-anchor="start" x="845.12" y="-324.5" font-family="Helvetica,sans-Serif" font-size="10.00">DataBaseGUI::parent</text>
<text text-anchor="middle" x="892.38" y="-312.5" font-family="Helvetica,sans-Serif" font-size="10.00">_search</text>
</a>
</g>
</g>
<!-- Node10&#45;&gt;Node13 -->
<g id="edge14_Node000010_Node000013" class="edge">
<title>Node10&#45;&gt;Node13</title>
<g id="a_edge14_Node000010_Node000013"><a xlink:title=" ">
<path fill="none" stroke="#63b8ff" d="M763.43,-377.66C787.05,-367.39 817.75,-354.03 843.15,-342.98"/>
<polygon fill="#63b8ff" stroke="#63b8ff" points="844.52,-346.2 852.3,-339 841.73,-339.78 844.52,-346.2"/>
</a>
</g>
</g>
<!-- Node13&#45;&gt;Node1 -->
<g id="edge15_Node000013_Node000001" class="edge">
<title>Node13&#45;&gt;Node1</title>
<g id="a_edge15_Node000013_Node000001"><a xlink:title=" ">
<path fill="none" stroke="#63b8ff" d="M836.81,-319.37C770.47,-316.41 655.11,-312 556.12,-312 401.25,-312 401.25,-312 401.25,-312 292.03,-312 254.08,-341.56 156.25,-293 120.44,-275.23 92.08,-237.55 75.94,-211.99"/>
<polygon fill="#63b8ff" stroke="#63b8ff" points="78.96,-210.22 70.77,-203.5 72.98,-213.86 78.96,-210.22"/>
</a>
</g>
</g>
<!-- Node19 -->
<g id="Node000019" class="node">
<title>Node19</title>
<g id="a_Node000019"><a xlink:href="class_data_base_g_u_i.html#a625b5e2018395a458ff517bbf364e1bf" target="_top" xlink:title="Selects the appropriate sorting to use based on parent sort index.">
<polygon fill="white" stroke="#666666" points="459,-164 345.5,-164 345.5,-132 459,-132 459,-164"/>
<text text-anchor="start" x="353.5" y="-150.5" font-family="Helvetica,sans-Serif" font-size="10.00">DataBaseGUI::sort_to</text>
<text text-anchor="middle" x="402.25" y="-138.5" font-family="Helvetica,sans-Serif" font-size="10.00">_populate_parent_tab</text>
</a>
</g>
</g>
<!-- Node18&#45;&gt;Node19 -->
<g id="edge23_Node000018_Node000019" class="edge">
<title>Node18&#45;&gt;Node19</title>
<g id="a_edge23_Node000018_Node000019"><a xlink:title=" ">
<path fill="none" stroke="#63b8ff" d="M280.05,-175.52C296.72,-171.73 315.89,-167.38 333.99,-163.27"/>
<polygon fill="#63b8ff" stroke="#63b8ff" points="334.64,-166.71 343.62,-161.08 333.09,-159.89 334.64,-166.71"/>
</a>
</g>
</g>
<!-- Node19&#45;&gt;Node1 -->
<g id="edge24_Node000019_Node000001" class="edge">
<title>Node19&#45;&gt;Node1</title>
<g id="a_edge24_Node000019_Node000001"><a xlink:title=" ">
<path fill="none" stroke="#63b8ff" d="M345.09,-150.44C295.3,-153.06 220.7,-158.1 156.25,-167 148.28,-168.1 139.97,-169.45 131.73,-170.92"/>
<polygon fill="#63b8ff" stroke="#63b8ff" points="131.25,-167.45 122.05,-172.72 132.52,-174.34 131.25,-167.45"/>
</a>
</g>
</g>
<!-- Node20&#45;&gt;Node19 -->
<g id="edge26_Node000020_Node000019" class="edge">
<title>Node20&#45;&gt;Node19</title>
<g id="a_edge26_Node000020_Node000019"><a xlink:title=" ">
<path fill="none" stroke="#63b8ff" d="M288.22,-118.29C302.89,-122.14 318.94,-126.36 334.21,-130.38"/>
<polygon fill="#63b8ff" stroke="#63b8ff" points="333.15,-133.72 343.71,-132.87 334.92,-126.95 333.15,-133.72"/>
</a>
</g>
</g>
</g>
</svg>
