<?xml version="1.0" encoding="UTF-8" standalone="no"?>
<!DOCTYPE svg PUBLIC "-//W3C//DTD SVG 1.1//EN"
 "http://www.w3.org/Graphics/SVG/1.1/DTD/svg11.dtd">
<!-- Generated by graphviz version 12.2.1 (20241206.2353)
 -->
<!-- Title: Person::Person Pages: 1 -->
<svg width="370pt" height="446pt"
 viewBox="0.00 0.00 370.25 446.00" xmlns="http://www.w3.org/2000/svg" xmlns:xlink="http://www.w3.org/1999/xlink">

<svg id="main" version="1.1" xmlns="http://www.w3.org/2000/svg" xmlns:xlink="http://www.w3.org/1999/xlink" xml:space="preserve">

<style type="text/css"><![CDATA[
.node, .edge {opacity: 0.7;}
.node.selected, .edge.selected {opacity: 1;}
.edge:hover path { stroke: red; }
.edge:hover polygon { stroke: red; fill: red; }
]]></style>
<script type="application/ecmascript" xlink:href="svg.min.js"/>
<svg id="graph" class="graph">
<g id="graph0" class="graph" transform="scale(1 1) rotate(0) translate(4 442)">
<title>Person::Person</title>
<!-- Node1 -->
<g id="Node000001" class="node">
<title>Node1</title>
<g id="a_Node000001"><a xlink:title="Default constructor.">
<polygon fill="#999999" stroke="#666666" points="362.25,-229 278.75,-229 278.75,-209 362.25,-209 362.25,-229"/>
<text text-anchor="middle" x="320.5" y="-215.5" font-family="Helvetica,sans-Serif" font-size="10.00">Person::Person</text>
</a>
</g>
</g>
<!-- Node2 -->
<g id="Node000002" class="node">
<title>Node2</title>
<g id="a_Node000002"><a xlink:href="class_child.html#a8498a7626f8a26450b5ee7467e57c1c7" target="_top" xlink:title="Constructs a Child with the given attributes.">
<polygon fill="white" stroke="#666666" points="221.75,-438 154.75,-438 154.75,-418 221.75,-418 221.75,-438"/>
<text text-anchor="middle" x="188.25" y="-424.5" font-family="Helvetica,sans-Serif" font-size="10.00">Child::Child</text>
</a>
</g>
</g>
<!-- Node1&#45;&gt;Node2 -->
<g id="edge1_Node000001_Node000002" class="edge">
<title>Node1&#45;&gt;Node2</title>
<g id="a_edge1_Node000001_Node000002"><a xlink:title=" ">
<path fill="none" stroke="#63b8ff" d="M316.65,-240.51C310.36,-279.46 291.78,-362.02 242.75,-409 236.99,-414.52 229.51,-418.45 221.99,-421.25"/>
<polygon fill="#63b8ff" stroke="#63b8ff" points="320.08,-241.19 318.08,-230.78 313.16,-240.16 320.08,-241.19"/>
</a>
</g>
</g>
<!-- Node3 -->
<g id="Node000003" class="node">
<title>Node3</title>
<g id="a_Node000003"><a xlink:href="class_child.html#a729370b66c662571902fc7de208d8750" target="_top" xlink:title="Constructs a Child with the given attributes (rvalue).">
<polygon fill="white" stroke="#666666" points="221.75,-400 154.75,-400 154.75,-380 221.75,-380 221.75,-400"/>
<text text-anchor="middle" x="188.25" y="-386.5" font-family="Helvetica,sans-Serif" font-size="10.00">Child::Child</text>
</a>
</g>
</g>
<!-- Node1&#45;&gt;Node3 -->
<g id="edge2_Node000001_Node000003" class="edge">
<title>Node1&#45;&gt;Node3</title>
<g id="a_edge2_Node000001_Node000003"><a xlink:title=" ">
<path fill="none" stroke="#63b8ff" d="M314.32,-240.01C305.25,-272.56 283.46,-335.13 242.75,-371 236.91,-376.15 229.58,-379.93 222.23,-382.69"/>
<polygon fill="#63b8ff" stroke="#63b8ff" points="317.64,-241.15 316.8,-230.59 310.87,-239.37 317.64,-241.15"/>
</a>
</g>
</g>
<!-- Node4 -->
<g id="Node000004" class="node">
<title>Node4</title>
<g id="a_Node000004"><a xlink:href="class_employee.html#a96197cd3cfc2b19d2af077f2e0934c21" target="_top" xlink:title="Constructs an Employee with the given attributes.">
<polygon fill="white" stroke="#666666" points="242.75,-362 133.75,-362 133.75,-342 242.75,-342 242.75,-362"/>
<text text-anchor="middle" x="188.25" y="-348.5" font-family="Helvetica,sans-Serif" font-size="10.00">Employee::Employee</text>
</a>
</g>
</g>
<!-- Node1&#45;&gt;Node4 -->
<g id="edge3_Node000001_Node000004" class="edge">
<title>Node1&#45;&gt;Node4</title>
<g id="a_edge3_Node000001_Node000004"><a xlink:title=" ">
<path fill="none" stroke="#63b8ff" d="M310.54,-239.77C298.59,-265.18 275.12,-307.89 242.75,-333 238.39,-336.38 233.38,-339.2 228.2,-341.52"/>
<polygon fill="#63b8ff" stroke="#63b8ff" points="313.66,-241.38 314.59,-230.82 307.28,-238.49 313.66,-241.38"/>
</a>
</g>
</g>
<!-- Node5 -->
<g id="Node000005" class="node">
<title>Node5</title>
<g id="a_Node000005"><a xlink:href="class_employee.html#acddb9a8f7c1e8f7901b3ebbb2e4321d5" target="_top" xlink:title="Constructs an Employee with the given attributes (rvalue).">
<polygon fill="white" stroke="#666666" points="242.75,-324 133.75,-324 133.75,-304 242.75,-304 242.75,-324"/>
<text text-anchor="middle" x="188.25" y="-310.5" font-family="Helvetica,sans-Serif" font-size="10.00">Employee::Employee</text>
</a>
</g>
</g>
<!-- Node1&#45;&gt;Node5 -->
<g id="edge4_Node000001_Node000005" class="edge">
<title>Node1&#45;&gt;Node5</title>
<g id="a_edge4_Node000001_Node000005"><a xlink:title=" ">
<path fill="none" stroke="#63b8ff" d="M304.65,-237.85C290.38,-254.86 267.4,-279.51 242.75,-295 237.49,-298.3 231.58,-301.13 225.66,-303.52"/>
<polygon fill="#63b8ff" stroke="#63b8ff" points="307.06,-240.43 310.68,-230.47 301.64,-236 307.06,-240.43"/>
</a>
</g>
</g>
<!-- Node6 -->
<g id="Node000006" class="node">
<title>Node6</title>
<g id="a_Node000006"><a xlink:href="class_person.html#acf2ed09eb4f7ad5d87a23699ca593a41" target="_top" xlink:title="Inequality operator.">
<polygon fill="white" stroke="#666666" points="236.75,-286 139.75,-286 139.75,-266 236.75,-266 236.75,-286"/>
<text text-anchor="middle" x="188.25" y="-272.5" font-family="Helvetica,sans-Serif" font-size="10.00">Person::operator!=</text>
</a>
</g>
</g>
<!-- Node1&#45;&gt;Node6 -->
<g id="edge5_Node000001_Node000006" class="edge">
<title>Node1&#45;&gt;Node6</title>
<g id="a_edge5_Node000001_Node000006"><a xlink:title=" ">
<path fill="none" stroke="#63b8ff" d="M289.83,-234.72C275.75,-241.91 258.57,-250.3 242.75,-257 235.67,-260 227.94,-262.93 220.61,-265.56"/>
<polygon fill="#63b8ff" stroke="#63b8ff" points="291.3,-237.89 298.58,-230.19 288.09,-231.68 291.3,-237.89"/>
</a>
</g>
</g>
<!-- Node7 -->
<g id="Node000007" class="node">
<title>Node7</title>
<g id="a_Node000007"><a xlink:href="class_person.html#af9ca08b3ca79cc7d932c662503d0839e" target="_top" xlink:title=" ">
<polygon fill="white" stroke="#666666" points="235.25,-248 141.25,-248 141.25,-228 235.25,-228 235.25,-248"/>
<text text-anchor="middle" x="188.25" y="-234.5" font-family="Helvetica,sans-Serif" font-size="10.00">Person::operator=</text>
</a>
</g>
</g>
<!-- Node1&#45;&gt;Node7 -->
<g id="edge6_Node000001_Node000007" class="edge">
<title>Node1&#45;&gt;Node7</title>
<g id="a_edge6_Node000001_Node000007"><a xlink:title=" ">
<path fill="none" stroke="#63b8ff" d="M267.19,-226.63C256.75,-228.15 245.85,-229.74 235.63,-231.23"/>
<polygon fill="#63b8ff" stroke="#63b8ff" points="267.4,-230.14 276.79,-225.23 266.39,-223.21 267.4,-230.14"/>
</a>
</g>
</g>
<!-- Node8 -->
<g id="Node000008" class="node">
<title>Node8</title>
<g id="a_Node000008"><a xlink:href="class_person.html#a033e414ad6d16b45932d2cb21a50ccd5" target="_top" xlink:title=" ">
<polygon fill="white" stroke="#666666" points="235.25,-210 141.25,-210 141.25,-190 235.25,-190 235.25,-210"/>
<text text-anchor="middle" x="188.25" y="-196.5" font-family="Helvetica,sans-Serif" font-size="10.00">Person::operator=</text>
</a>
</g>
</g>
<!-- Node1&#45;&gt;Node8 -->
<g id="edge7_Node000001_Node000008" class="edge">
<title>Node1&#45;&gt;Node8</title>
<g id="a_edge7_Node000001_Node000008"><a xlink:title=" ">
<path fill="none" stroke="#63b8ff" d="M267.19,-211.37C256.75,-209.85 245.85,-208.26 235.63,-206.77"/>
<polygon fill="#63b8ff" stroke="#63b8ff" points="266.39,-214.79 276.79,-212.77 267.4,-207.86 266.39,-214.79"/>
</a>
</g>
</g>
<!-- Node9 -->
<g id="Node000009" class="node">
<title>Node9</title>
<g id="a_Node000009"><a xlink:href="class_person.html#a3115c6aff8a8fb9047ea9ec7c901c491" target="_top" xlink:title="Equality operator.">
<polygon fill="white" stroke="#666666" points="238.25,-172 138.25,-172 138.25,-152 238.25,-152 238.25,-172"/>
<text text-anchor="middle" x="188.25" y="-158.5" font-family="Helvetica,sans-Serif" font-size="10.00">Person::operator==</text>
</a>
</g>
</g>
<!-- Node1&#45;&gt;Node9 -->
<g id="edge8_Node000001_Node000009" class="edge">
<title>Node1&#45;&gt;Node9</title>
<g id="a_edge8_Node000001_Node000009"><a xlink:title=" ">
<path fill="none" stroke="#63b8ff" d="M289.83,-203.28C275.75,-196.09 258.57,-187.7 242.75,-181 235.67,-178 227.94,-175.07 220.61,-172.44"/>
<polygon fill="#63b8ff" stroke="#63b8ff" points="288.09,-206.32 298.58,-207.81 291.3,-200.11 288.09,-206.32"/>
</a>
</g>
</g>
<!-- Node12 -->
<g id="Node000012" class="node">
<title>Node12</title>
<g id="a_Node000012"><a xlink:href="class_parent.html#aef4886d5a74b38ea17587e41042b91ae" target="_top" xlink:title="Constructs a Parent with the given attributes.">
<polygon fill="white" stroke="#666666" points="227.75,-134 148.75,-134 148.75,-114 227.75,-114 227.75,-134"/>
<text text-anchor="middle" x="188.25" y="-120.5" font-family="Helvetica,sans-Serif" font-size="10.00">Parent::Parent</text>
</a>
</g>
</g>
<!-- Node1&#45;&gt;Node12 -->
<g id="edge11_Node000001_Node000012" class="edge">
<title>Node1&#45;&gt;Node12</title>
<g id="a_edge11_Node000001_Node000012"><a xlink:title=" ">
<path fill="none" stroke="#63b8ff" d="M304.65,-200.15C290.38,-183.14 267.4,-158.49 242.75,-143 237.49,-139.7 231.58,-136.87 225.66,-134.48"/>
<polygon fill="#63b8ff" stroke="#63b8ff" points="301.64,-202 310.68,-207.53 307.06,-197.57 301.64,-202"/>
</a>
</g>
</g>
<!-- Node13 -->
<g id="Node000013" class="node">
<title>Node13</title>
<g id="a_Node000013"><a xlink:href="class_parent.html#a144445a3c5df655648a186c28161af81" target="_top" xlink:title="Constructs a Parent with the given attributes (rvalue).">
<polygon fill="white" stroke="#666666" points="227.75,-96 148.75,-96 148.75,-76 227.75,-76 227.75,-96"/>
<text text-anchor="middle" x="188.25" y="-82.5" font-family="Helvetica,sans-Serif" font-size="10.00">Parent::Parent</text>
</a>
</g>
</g>
<!-- Node1&#45;&gt;Node13 -->
<g id="edge12_Node000001_Node000013" class="edge">
<title>Node1&#45;&gt;Node13</title>
<g id="a_edge12_Node000001_Node000013"><a xlink:title=" ">
<path fill="none" stroke="#63b8ff" d="M310.54,-198.23C298.59,-172.82 275.12,-130.11 242.75,-105 238.39,-101.62 233.38,-98.8 228.2,-96.48"/>
<polygon fill="#63b8ff" stroke="#63b8ff" points="307.28,-199.51 314.59,-207.18 313.66,-196.62 307.28,-199.51"/>
</a>
</g>
</g>
<!-- Node14 -->
<g id="Node000014" class="node">
<title>Node14</title>
<g id="a_Node000014"><a xlink:href="class_person.html#a7383e9d5f5312f277282ebffda891c9a" target="_top" xlink:title=" ">
<polygon fill="white" stroke="#666666" points="230,-58 146.5,-58 146.5,-38 230,-38 230,-58"/>
<text text-anchor="middle" x="188.25" y="-44.5" font-family="Helvetica,sans-Serif" font-size="10.00">Person::Person</text>
</a>
</g>
</g>
<!-- Node1&#45;&gt;Node14 -->
<g id="edge13_Node000001_Node000014" class="edge">
<title>Node1&#45;&gt;Node14</title>
<g id="a_edge13_Node000001_Node000014"><a xlink:title=" ">
<path fill="none" stroke="#63b8ff" d="M314.32,-197.99C305.25,-165.44 283.46,-102.87 242.75,-67 238.83,-63.55 234.24,-60.71 229.43,-58.38"/>
<polygon fill="#63b8ff" stroke="#63b8ff" points="310.87,-198.63 316.8,-207.41 317.64,-196.85 310.87,-198.63"/>
</a>
</g>
</g>
<!-- Node15 -->
<g id="Node000015" class="node">
<title>Node15</title>
<g id="a_Node000015"><a xlink:href="class_person.html#ac1b1972ecae98641cc6ac35c1dd319ac" target="_top" xlink:title=" ">
<polygon fill="white" stroke="#666666" points="230,-20 146.5,-20 146.5,0 230,0 230,-20"/>
<text text-anchor="middle" x="188.25" y="-6.5" font-family="Helvetica,sans-Serif" font-size="10.00">Person::Person</text>
</a>
</g>
</g>
<!-- Node1&#45;&gt;Node15 -->
<g id="edge14_Node000001_Node000015" class="edge">
<title>Node1&#45;&gt;Node15</title>
<g id="a_edge14_Node000001_Node000015"><a xlink:title=" ">
<path fill="none" stroke="#63b8ff" d="M316.65,-197.49C310.36,-158.54 291.78,-75.98 242.75,-29 239.12,-25.52 234.81,-22.68 230.24,-20.35"/>
<polygon fill="#63b8ff" stroke="#63b8ff" points="313.16,-197.84 318.08,-207.22 320.08,-196.81 313.16,-197.84"/>
</a>
</g>
</g>
<!-- Node10 -->
<g id="Node000010" class="node">
<title>Node10</title>
<g id="a_Node000010"><a xlink:href="class_child.html#a6a525ff7510e4eab1314b1fe5e125421" target="_top" xlink:title="Equality operator.">
<polygon fill="white" stroke="#666666" points="94.75,-191 3,-191 3,-171 94.75,-171 94.75,-191"/>
<text text-anchor="middle" x="48.88" y="-177.5" font-family="Helvetica,sans-Serif" font-size="10.00">Child::operator==</text>
</a>
</g>
</g>
<!-- Node9&#45;&gt;Node10 -->
<g id="edge9_Node000009_Node000010" class="edge">
<title>Node9&#45;&gt;Node10</title>
<g id="a_edge9_Node000009_Node000010"><a xlink:title=" ">
<path fill="none" stroke="#63b8ff" d="M126.68,-170.38C116.06,-171.85 105.18,-173.35 95.08,-174.75"/>
<polygon fill="#63b8ff" stroke="#63b8ff" points="127.12,-173.85 136.54,-169.01 126.16,-166.92 127.12,-173.85"/>
</a>
</g>
</g>
<!-- Node11 -->
<g id="Node000011" class="node">
<title>Node11</title>
<g id="a_Node000011"><a xlink:href="class_parent.html#acd5c86f9bb6cee0ee5bab8b81ba5f032" target="_top" xlink:title="Equality operator.">
<polygon fill="white" stroke="#666666" points="97.75,-153 0,-153 0,-133 97.75,-133 97.75,-153"/>
<text text-anchor="middle" x="48.88" y="-139.5" font-family="Helvetica,sans-Serif" font-size="10.00">Parent::operator==</text>
</a>
</g>
</g>
<!-- Node9&#45;&gt;Node11 -->
<g id="edge10_Node000009_Node000011" class="edge">
<title>Node9&#45;&gt;Node11</title>
<g id="a_edge10_Node000009_Node000011"><a xlink:title=" ">
<path fill="none" stroke="#63b8ff" d="M126.8,-153.64C117.1,-152.3 107.18,-150.93 97.82,-149.63"/>
<polygon fill="#63b8ff" stroke="#63b8ff" points="126.16,-157.08 136.54,-154.99 127.12,-150.15 126.16,-157.08"/>
</a>
</g>
</g>
</g>
</svg>
</svg>

<style type='text/css'>
<![CDATA[
[data-mouse-over-selected='false'] { opacity: 0.7; }
[data-mouse-over-selected='true']  { opacity: 1.0; }
]]>
</style>
<script type="application/ecmascript"><![CDATA[
document.addEventListener('DOMContentLoaded', (event) => {
  highlightEdges();
  highlightAdjacentNodes();
});
]]></script>
</svg>
