<?xml version="1.0" encoding="UTF-8" standalone="no"?>
<!DOCTYPE svg PUBLIC "-//W3C//DTD SVG 1.1//EN"
 "http://www.w3.org/Graphics/SVG/1.1/DTD/svg11.dtd">
<!-- Generated by graphviz version 12.2.1 (20241206.2353)
 -->
<!-- Title: LessonDialog Pages: 1 -->
<!--zoomable 1597 -->

<svg id="main" version="1.1" xmlns="http://www.w3.org/2000/svg" xmlns:xlink="http://www.w3.org/1999/xlink" xml:space="preserve" onload="init(evt)">

<style type="text/css"><![CDATA[
.node, .edge {opacity: 0.7;}
.node.selected, .edge.selected {opacity: 1;}
.edge:hover path { stroke: red; }
.edge:hover polygon { stroke: red; fill: red; }
]]></style>

<defs>
  <circle id="rim" cx="0" cy="0" r="7"/>
  <circle id="rim2" cx="0" cy="0" r="3.5"/>
  <g id="zoomPlus">
    <use xlink:href="#rim" fill="#404040"><set attributeName="fill" to="#808080" begin="zoomplus.mouseover" end="zoomplus.mouseout"/></use>
    <path d="M-4,0h8M0,-4v8" fill="none" stroke="white" stroke-width="1.5" pointer-events="none"/>
  </g>
  <g id="zoomMin">
    <use xlink:href="#rim" fill="#404040"><set attributeName="fill" to="#808080" begin="zoomminus.mouseover" end="zoomminus.mouseout"/></use>
    <path d="M-4,0h8" fill="none" stroke="white" stroke-width="1.5" pointer-events="none"/>
  </g>
  <g id="arrowUp" transform="translate(30 24)">
    <use xlink:href="#rim"/>
    <path pointer-events="none" fill="none" stroke="white" stroke-width="1.5" d="M0,-3.0v7 M-2.5,-0.5L0,-3.0L2.5,-0.5"/>
  </g>
  <g id="arrowRight" transform="rotate(90) translate(36 -43)">
    <use xlink:href="#rim"/>
    <path pointer-events="none" fill="none" stroke="white" stroke-width="1.5" d="M0,-3.0v7 M-2.5,-0.5L0,-3.0L2.5,-0.5"/>
  </g>
  <g id="arrowDown" transform="rotate(180) translate(-30 -48)">
    <use xlink:href="#rim"/>
    <path pointer-events="none" fill="none" stroke="white" stroke-width="1.5" d="M0,-3.0v7 M-2.5,-0.5L0,-3.0L2.5,-0.5"/>
  </g>
  <g id="arrowLeft" transform="rotate(270) translate(-36 17)">
    <use xlink:href="#rim"/>
    <path pointer-events="none" fill="none" stroke="white" stroke-width="1.5" d="M0,-3.0v7 M-2.5,-0.5L0,-3.0L2.5,-0.5"/>
  </g>
  <g id="resetDef">
    <use xlink:href="#rim2" fill="#404040"><set attributeName="fill" to="#808080" begin="reset.mouseover" end="reset.mouseout"/></use>
  </g>
</defs>
<script type="application/ecmascript">
var viewWidth = 495;
var viewHeight = 1597;
var sectionId = 'dynsection-1';
</script>
<script type="application/ecmascript" xlink:href="svg.min.js"/>
<svg id="graph" class="graph">
<g id="viewport">
<title>LessonDialog</title>
<!-- Node1 -->
<g id="Node000001" class="node">
<title>Node1</title>
<g id="a_Node000001"><a xlink:title="Dialog for managing lesson&#45;related information.">
<polygon fill="#999999" stroke="none" points="279.5,-300 155.75,-300 155.75,0 279.5,0 279.5,-300"/>
<text text-anchor="start" x="188" y="-286.5" font-family="Helvetica,sans-Serif" font-size="10.00">LessonDialog</text>
<text text-anchor="start" x="216.12" y="-270.5" font-family="Helvetica,sans-Serif" font-size="10.00"> </text>
<text text-anchor="start" x="159.75" y="-254.5" font-family="Helvetica,sans-Serif" font-size="10.00">+</text>
<text text-anchor="start" x="169.75" y="-254.5" font-family="Helvetica,sans-Serif" font-size="10.00">LessonDialog()</text>
<text text-anchor="start" x="159.75" y="-238.5" font-family="Helvetica,sans-Serif" font-size="10.00">+</text>
<text text-anchor="start" x="169.75" y="-238.5" font-family="Helvetica,sans-Serif" font-size="10.00">accept()</text>
<text text-anchor="start" x="159.75" y="-222.5" font-family="Helvetica,sans-Serif" font-size="10.00">+</text>
<text text-anchor="start" x="169.75" y="-222.5" font-family="Helvetica,sans-Serif" font-size="10.00">~LessonDialog()</text>
<text text-anchor="start" x="161.25" y="-206.5" font-family="Helvetica,sans-Serif" font-size="10.00">&#45;</text>
<text text-anchor="start" x="169.75" y="-206.5" font-family="Helvetica,sans-Serif" font-size="10.00">populate_children()</text>
<text text-anchor="start" x="161.25" y="-190.5" font-family="Helvetica,sans-Serif" font-size="10.00">&#45;</text>
<text text-anchor="start" x="169.75" y="-190.5" font-family="Helvetica,sans-Serif" font-size="10.00">populate_children()</text>
<text text-anchor="start" x="161.25" y="-174.5" font-family="Helvetica,sans-Serif" font-size="10.00">&#45;</text>
<text text-anchor="start" x="169.75" y="-174.5" font-family="Helvetica,sans-Serif" font-size="10.00">create_child_check</text>
<text text-anchor="start" x="169.75" y="-162.5" font-family="Helvetica,sans-Serif" font-size="10.00">_box()</text>
<text text-anchor="start" x="161.25" y="-146.5" font-family="Helvetica,sans-Serif" font-size="10.00">&#45;</text>
<text text-anchor="start" x="169.75" y="-146.5" font-family="Helvetica,sans-Serif" font-size="10.00">populate_employees()</text>
<text text-anchor="start" x="161.25" y="-130.5" font-family="Helvetica,sans-Serif" font-size="10.00">&#45;</text>
<text text-anchor="start" x="169.75" y="-130.5" font-family="Helvetica,sans-Serif" font-size="10.00">populate_employees()</text>
<text text-anchor="start" x="161.25" y="-114.5" font-family="Helvetica,sans-Serif" font-size="10.00">&#45;</text>
<text text-anchor="start" x="169.75" y="-114.5" font-family="Helvetica,sans-Serif" font-size="10.00">clear_children()</text>
<text text-anchor="start" x="161.25" y="-98.5" font-family="Helvetica,sans-Serif" font-size="10.00">&#45;</text>
<text text-anchor="start" x="169.75" y="-98.5" font-family="Helvetica,sans-Serif" font-size="10.00">clear_employees()</text>
<text text-anchor="start" x="161.25" y="-82.5" font-family="Helvetica,sans-Serif" font-size="10.00">&#45;</text>
<text text-anchor="start" x="169.75" y="-82.5" font-family="Helvetica,sans-Serif" font-size="10.00">create_employee_check</text>
<text text-anchor="start" x="169.75" y="-70.5" font-family="Helvetica,sans-Serif" font-size="10.00">_box()</text>
<text text-anchor="start" x="161.25" y="-54.5" font-family="Helvetica,sans-Serif" font-size="10.00">&#45;</text>
<text text-anchor="start" x="169.75" y="-54.5" font-family="Helvetica,sans-Serif" font-size="10.00">gather_children()</text>
<text text-anchor="start" x="161.25" y="-38.5" font-family="Helvetica,sans-Serif" font-size="10.00">&#45;</text>
<text text-anchor="start" x="169.75" y="-38.5" font-family="Helvetica,sans-Serif" font-size="10.00">gather_employees()</text>
<text text-anchor="start" x="161.25" y="-22.5" font-family="Helvetica,sans-Serif" font-size="10.00">&#45;</text>
<text text-anchor="start" x="169.75" y="-22.5" font-family="Helvetica,sans-Serif" font-size="10.00">children_search()</text>
<text text-anchor="start" x="161.25" y="-6.5" font-family="Helvetica,sans-Serif" font-size="10.00">&#45;</text>
<text text-anchor="start" x="169.75" y="-6.5" font-family="Helvetica,sans-Serif" font-size="10.00">employees_search()</text>
<polygon fill="#666666" stroke="#666666" points="155.75,-282 155.75,-282 279.5,-282 279.5,-282 155.75,-282"/>
<polygon fill="#666666" stroke="#666666" points="155.75,-266 155.75,-266 279.5,-266 279.5,-266 155.75,-266"/>
<polygon fill="none" stroke="#666666" points="155.75,0 155.75,-300 279.5,-300 279.5,0 155.75,0"/>
</a>
</g>
</g>
<!-- Node2 -->
<g id="Node000002" class="node">
<title>Node2</title>
<g id="a_Node000002"><a xlink:title=" ">
<polygon fill="white" stroke="none" points="43.25,-716 0,-716 0,-664 43.25,-664 43.25,-716"/>
<text text-anchor="start" x="4" y="-702.5" font-family="Helvetica,sans-Serif" font-size="10.00">QDialog</text>
<text text-anchor="start" x="20.12" y="-686.5" font-family="Helvetica,sans-Serif" font-size="10.00"> </text>
<text text-anchor="start" x="20.12" y="-670.5" font-family="Helvetica,sans-Serif" font-size="10.00"> </text>
<polygon fill="#666666" stroke="#666666" points="0,-698 0,-698 43.25,-698 43.25,-698 0,-698"/>
<polygon fill="#666666" stroke="#666666" points="0,-682 0,-682 43.25,-682 43.25,-682 0,-682"/>
<polygon fill="none" stroke="#666666" points="0,-664 0,-716 43.25,-716 43.25,-664 0,-664"/>
</a>
</g>
</g>
<!-- Node2&#45;&gt;Node1 -->
<g id="edge1_Node000001_Node000002" class="edge">
<title>Node2&#45;&gt;Node1</title>
<g id="a_edge1_Node000001_Node000002"><a xlink:title=" ">
<path fill="none" stroke="#63b8ff" d="M18.08,-653.18C13.18,-589.17 9.34,-452.13 52.62,-348 75.49,-293 119.37,-241.79 156.14,-205.38"/>
<polygon fill="none" stroke="#63b8ff" points="14.55,-653.07 18.87,-662.75 21.53,-652.49 14.55,-653.07"/>
</a>
</g>
</g>
<!-- Node3 -->
<g id="Node000003" class="node">
<title>Node3</title>
<g id="a_Node000003"><a xlink:href="class_ui_1_1_lesson_dialog_class.html" target="_top" xlink:title=" ">
<polygon fill="white" stroke="none" points="169.88,-716 61.38,-716 61.38,-664 169.88,-664 169.88,-716"/>
<text text-anchor="start" x="65.38" y="-702.5" font-family="Helvetica,sans-Serif" font-size="10.00">Ui::LessonDialogClass</text>
<text text-anchor="start" x="114.12" y="-686.5" font-family="Helvetica,sans-Serif" font-size="10.00"> </text>
<text text-anchor="start" x="114.12" y="-670.5" font-family="Helvetica,sans-Serif" font-size="10.00"> </text>
<polygon fill="#666666" stroke="#666666" points="61.38,-698 61.38,-698 169.88,-698 169.88,-698 61.38,-698"/>
<polygon fill="#666666" stroke="#666666" points="61.38,-682 61.38,-682 169.88,-682 169.88,-682 61.38,-682"/>
<polygon fill="none" stroke="#666666" points="61.38,-664 61.38,-716 169.88,-716 169.88,-664 61.38,-664"/>
</a>
</g>
</g>
<!-- Node3&#45;&gt;Node1 -->
<g id="edge2_Node000001_Node000003" class="edge">
<title>Node3&#45;&gt;Node1</title>
<g id="a_edge2_Node000001_Node000003"><a xlink:title=" ">
<path fill="none" stroke="#63b8ff" d="M120.1,-664.16C130.27,-607.87 156,-466.26 178.62,-348 180.84,-336.44 183.15,-324.49 185.48,-312.48"/>
<polygon fill="none" stroke="#63b8ff" points="185.46,-312.6 182.68,-305.95 187.76,-300.82 190.53,-307.48 185.46,-312.6"/>
</a>
</g>
<text text-anchor="middle" x="190.54" y="-320.5" font-family="Helvetica,sans-Serif" font-size="10.00" fill="grey"> &#45;ui</text>
</g>
<!-- Node4 -->
<g id="Node000004" class="node">
<title>Node4</title>
<g id="a_Node000004"><a xlink:href="class_ui___lesson_dialog_class.html" target="_top" xlink:title=" ">
<polygon fill="white" stroke="none" points="169.5,-1308 61.75,-1308 61.75,-1080 169.5,-1080 169.5,-1308"/>
<text text-anchor="start" x="65.75" y="-1294.5" font-family="Helvetica,sans-Serif" font-size="10.00">Ui_LessonDialogClass</text>
<text text-anchor="start" x="69.06" y="-1278.5" font-family="Helvetica,sans-Serif" font-size="10.00">+</text>
<text text-anchor="start" x="82.38" y="-1278.5" font-family="Helvetica,sans-Serif" font-size="10.00">gridLayout</text>
<text text-anchor="start" x="69.06" y="-1262.5" font-family="Helvetica,sans-Serif" font-size="10.00">+</text>
<text text-anchor="start" x="82.38" y="-1262.5" font-family="Helvetica,sans-Serif" font-size="10.00">decline_button</text>
<text text-anchor="start" x="69.06" y="-1246.5" font-family="Helvetica,sans-Serif" font-size="10.00">+</text>
<text text-anchor="start" x="82.38" y="-1246.5" font-family="Helvetica,sans-Serif" font-size="10.00">time_edit</text>
<text text-anchor="start" x="69.06" y="-1230.5" font-family="Helvetica,sans-Serif" font-size="10.00">+</text>
<text text-anchor="start" x="82.38" y="-1230.5" font-family="Helvetica,sans-Serif" font-size="10.00">weekday_combo</text>
<text text-anchor="start" x="69.06" y="-1214.5" font-family="Helvetica,sans-Serif" font-size="10.00">+</text>
<text text-anchor="start" x="82.38" y="-1214.5" font-family="Helvetica,sans-Serif" font-size="10.00">accept_button</text>
<text text-anchor="start" x="69.06" y="-1198.5" font-family="Helvetica,sans-Serif" font-size="10.00">+</text>
<text text-anchor="start" x="82.38" y="-1198.5" font-family="Helvetica,sans-Serif" font-size="10.00">address_edit</text>
<text text-anchor="start" x="69.06" y="-1182.5" font-family="Helvetica,sans-Serif" font-size="10.00">+</text>
<text text-anchor="start" x="82.38" y="-1182.5" font-family="Helvetica,sans-Serif" font-size="10.00">children_frame</text>
<text text-anchor="start" x="69.06" y="-1166.5" font-family="Helvetica,sans-Serif" font-size="10.00">+</text>
<text text-anchor="start" x="82.38" y="-1166.5" font-family="Helvetica,sans-Serif" font-size="10.00">gridLayout_2</text>
<text text-anchor="start" x="69.06" y="-1150.5" font-family="Helvetica,sans-Serif" font-size="10.00">+</text>
<text text-anchor="start" x="82.38" y="-1150.5" font-family="Helvetica,sans-Serif" font-size="10.00">children_surname</text>
<text text-anchor="start" x="69.06" y="-1134.5" font-family="Helvetica,sans-Serif" font-size="10.00">+</text>
<text text-anchor="start" x="82.38" y="-1134.5" font-family="Helvetica,sans-Serif" font-size="10.00">children_name</text>
<text text-anchor="start" x="82.38" y="-1118.5" font-family="Helvetica,sans-Serif" font-size="10.00">and 12 more...</text>
<text text-anchor="start" x="69.06" y="-1102.5" font-family="Helvetica,sans-Serif" font-size="10.00">+</text>
<text text-anchor="start" x="82.38" y="-1102.5" font-family="Helvetica,sans-Serif" font-size="10.00">setupUi()</text>
<text text-anchor="start" x="69.06" y="-1086.5" font-family="Helvetica,sans-Serif" font-size="10.00">+</text>
<text text-anchor="start" x="82.38" y="-1086.5" font-family="Helvetica,sans-Serif" font-size="10.00">retranslateUi()</text>
<polygon fill="#666666" stroke="#666666" points="61.75,-1290 61.75,-1290 169.5,-1290 169.5,-1290 61.75,-1290"/>
<polygon fill="#666666" stroke="#666666" points="61.75,-1114 61.75,-1114 80.38,-1114 80.38,-1114 61.75,-1114"/>
<polygon fill="#666666" stroke="#666666" points="80.38,-1114 80.38,-1114 169.5,-1114 169.5,-1114 80.38,-1114"/>
<polygon fill="none" stroke="#666666" points="61.75,-1080 61.75,-1308 169.5,-1308 169.5,-1080 61.75,-1080"/>
</a>
</g>
</g>
<!-- Node4&#45;&gt;Node3 -->
<g id="edge3_Node000003_Node000004" class="edge">
<title>Node4&#45;&gt;Node3</title>
<g id="a_edge3_Node000003_Node000004"><a xlink:title=" ">
<path fill="none" stroke="#63b8ff" d="M115.62,-1068.66C115.62,-949.49 115.62,-778.69 115.62,-715.62"/>
<polygon fill="none" stroke="#63b8ff" points="112.13,-1068.51 115.63,-1078.52 119.13,-1068.52 112.13,-1068.51"/>
</a>
</g>
</g>
<!-- Node5 -->
<g id="Node000005" class="node">
<title>Node5</title>
<g id="a_Node000005"><a xlink:href="class_database.html" target="_top" xlink:title="Manages data related to lessons, parents, children, and employees.">
<polygon fill="white" stroke="none" points="315.38,-1032 187.88,-1032 187.88,-348 315.38,-348 315.38,-1032"/>
<text text-anchor="start" x="230.62" y="-1018.5" font-family="Helvetica,sans-Serif" font-size="10.00">Database</text>
<text text-anchor="start" x="193.38" y="-1002.5" font-family="Helvetica,sans-Serif" font-size="10.00">&#45;</text>
<text text-anchor="start" x="201.88" y="-1002.5" font-family="Helvetica,sans-Serif" font-size="10.00">lessons_</text>
<text text-anchor="start" x="193.38" y="-986.5" font-family="Helvetica,sans-Serif" font-size="10.00">&#45;</text>
<text text-anchor="start" x="201.88" y="-986.5" font-family="Helvetica,sans-Serif" font-size="10.00">parents_</text>
<text text-anchor="start" x="193.38" y="-970.5" font-family="Helvetica,sans-Serif" font-size="10.00">&#45;</text>
<text text-anchor="start" x="201.88" y="-970.5" font-family="Helvetica,sans-Serif" font-size="10.00">children_</text>
<text text-anchor="start" x="193.38" y="-954.5" font-family="Helvetica,sans-Serif" font-size="10.00">&#45;</text>
<text text-anchor="start" x="201.88" y="-954.5" font-family="Helvetica,sans-Serif" font-size="10.00">employees_</text>
<text text-anchor="start" x="193.38" y="-938.5" font-family="Helvetica,sans-Serif" font-size="10.00">&#45;</text>
<text text-anchor="start" x="201.88" y="-938.5" font-family="Helvetica,sans-Serif" font-size="10.00">child_by_name</text>
<text text-anchor="start" x="193.38" y="-922.5" font-family="Helvetica,sans-Serif" font-size="10.00">&#45;</text>
<text text-anchor="start" x="201.88" y="-922.5" font-family="Helvetica,sans-Serif" font-size="10.00">child_by_surname</text>
<text text-anchor="start" x="193.38" y="-906.5" font-family="Helvetica,sans-Serif" font-size="10.00">&#45;</text>
<text text-anchor="start" x="201.88" y="-906.5" font-family="Helvetica,sans-Serif" font-size="10.00">child_by_birth_date</text>
<text text-anchor="start" x="193.38" y="-890.5" font-family="Helvetica,sans-Serif" font-size="10.00">&#45;</text>
<text text-anchor="start" x="201.88" y="-890.5" font-family="Helvetica,sans-Serif" font-size="10.00">parent_by_name</text>
<text text-anchor="start" x="193.38" y="-874.5" font-family="Helvetica,sans-Serif" font-size="10.00">&#45;</text>
<text text-anchor="start" x="201.88" y="-874.5" font-family="Helvetica,sans-Serif" font-size="10.00">parent_by_surname</text>
<text text-anchor="start" x="193.38" y="-858.5" font-family="Helvetica,sans-Serif" font-size="10.00">&#45;</text>
<text text-anchor="start" x="201.88" y="-858.5" font-family="Helvetica,sans-Serif" font-size="10.00">parent_by_email</text>
<text text-anchor="start" x="193.38" y="-842.5" font-family="Helvetica,sans-Serif" font-size="10.00">&#45;</text>
<text text-anchor="start" x="201.88" y="-842.5" font-family="Helvetica,sans-Serif" font-size="10.00">employee_by_name</text>
<text text-anchor="start" x="193.38" y="-826.5" font-family="Helvetica,sans-Serif" font-size="10.00">&#45;</text>
<text text-anchor="start" x="201.88" y="-826.5" font-family="Helvetica,sans-Serif" font-size="10.00">employee_by_surname</text>
<text text-anchor="start" x="193.38" y="-810.5" font-family="Helvetica,sans-Serif" font-size="10.00">&#45;</text>
<text text-anchor="start" x="201.88" y="-810.5" font-family="Helvetica,sans-Serif" font-size="10.00">lesson_by_schedule</text>
<text text-anchor="start" x="191.88" y="-794.5" font-family="Helvetica,sans-Serif" font-size="10.00">+</text>
<text text-anchor="start" x="201.88" y="-794.5" font-family="Helvetica,sans-Serif" font-size="10.00">Database()</text>
<text text-anchor="start" x="191.88" y="-778.5" font-family="Helvetica,sans-Serif" font-size="10.00">+</text>
<text text-anchor="start" x="201.88" y="-778.5" font-family="Helvetica,sans-Serif" font-size="10.00">Database()</text>
<text text-anchor="start" x="191.88" y="-762.5" font-family="Helvetica,sans-Serif" font-size="10.00">+</text>
<text text-anchor="start" x="201.88" y="-762.5" font-family="Helvetica,sans-Serif" font-size="10.00">Database()</text>
<text text-anchor="start" x="191.88" y="-746.5" font-family="Helvetica,sans-Serif" font-size="10.00">+</text>
<text text-anchor="start" x="201.88" y="-746.5" font-family="Helvetica,sans-Serif" font-size="10.00">operator=()</text>
<text text-anchor="start" x="191.88" y="-730.5" font-family="Helvetica,sans-Serif" font-size="10.00">+</text>
<text text-anchor="start" x="201.88" y="-730.5" font-family="Helvetica,sans-Serif" font-size="10.00">operator=()</text>
<text text-anchor="start" x="191.88" y="-714.5" font-family="Helvetica,sans-Serif" font-size="10.00">+</text>
<text text-anchor="start" x="201.88" y="-714.5" font-family="Helvetica,sans-Serif" font-size="10.00">add_lesson()</text>
<text text-anchor="start" x="191.88" y="-698.5" font-family="Helvetica,sans-Serif" font-size="10.00">+</text>
<text text-anchor="start" x="201.88" y="-698.5" font-family="Helvetica,sans-Serif" font-size="10.00">update_lesson_start()</text>
<text text-anchor="start" x="191.88" y="-682.5" font-family="Helvetica,sans-Serif" font-size="10.00">+</text>
<text text-anchor="start" x="201.88" y="-682.5" font-family="Helvetica,sans-Serif" font-size="10.00">update_lesson_end()</text>
<text text-anchor="start" x="191.88" y="-666.5" font-family="Helvetica,sans-Serif" font-size="10.00">+</text>
<text text-anchor="start" x="201.88" y="-666.5" font-family="Helvetica,sans-Serif" font-size="10.00">remove_lesson()</text>
<text text-anchor="start" x="191.88" y="-650.5" font-family="Helvetica,sans-Serif" font-size="10.00">+</text>
<text text-anchor="start" x="201.88" y="-650.5" font-family="Helvetica,sans-Serif" font-size="10.00">search_lessons_by_child</text>
<text text-anchor="start" x="201.88" y="-638.5" font-family="Helvetica,sans-Serif" font-size="10.00">_name_surname()</text>
<text text-anchor="start" x="201.88" y="-622.5" font-family="Helvetica,sans-Serif" font-size="10.00">and 49 more...</text>
<text text-anchor="start" x="193.38" y="-606.5" font-family="Helvetica,sans-Serif" font-size="10.00">&#45;</text>
<text text-anchor="start" x="201.88" y="-606.5" font-family="Helvetica,sans-Serif" font-size="10.00">import_Lessons_from</text>
<text text-anchor="start" x="201.88" y="-594.5" font-family="Helvetica,sans-Serif" font-size="10.00">_csv_file()</text>
<text text-anchor="start" x="193.38" y="-578.5" font-family="Helvetica,sans-Serif" font-size="10.00">&#45;</text>
<text text-anchor="start" x="201.88" y="-578.5" font-family="Helvetica,sans-Serif" font-size="10.00">import_Parents_from</text>
<text text-anchor="start" x="201.88" y="-566.5" font-family="Helvetica,sans-Serif" font-size="10.00">_csv_file()</text>
<text text-anchor="start" x="193.38" y="-550.5" font-family="Helvetica,sans-Serif" font-size="10.00">&#45;</text>
<text text-anchor="start" x="201.88" y="-550.5" font-family="Helvetica,sans-Serif" font-size="10.00">import_Children_from</text>
<text text-anchor="start" x="201.88" y="-538.5" font-family="Helvetica,sans-Serif" font-size="10.00">_csv_file()</text>
<text text-anchor="start" x="193.38" y="-522.5" font-family="Helvetica,sans-Serif" font-size="10.00">&#45;</text>
<text text-anchor="start" x="201.88" y="-522.5" font-family="Helvetica,sans-Serif" font-size="10.00">import_Employees_from</text>
<text text-anchor="start" x="201.88" y="-510.5" font-family="Helvetica,sans-Serif" font-size="10.00">_csv_file()</text>
<text text-anchor="start" x="193.38" y="-494.5" font-family="Helvetica,sans-Serif" font-size="10.00">&#45;</text>
<text text-anchor="start" x="201.88" y="-494.5" font-family="Helvetica,sans-Serif" font-size="10.00">export_Lessons_to_csv</text>
<text text-anchor="start" x="201.88" y="-482.5" font-family="Helvetica,sans-Serif" font-size="10.00">_file()</text>
<text text-anchor="start" x="193.38" y="-466.5" font-family="Helvetica,sans-Serif" font-size="10.00">&#45;</text>
<text text-anchor="start" x="201.88" y="-466.5" font-family="Helvetica,sans-Serif" font-size="10.00">export_Parents_to_csv</text>
<text text-anchor="start" x="201.88" y="-454.5" font-family="Helvetica,sans-Serif" font-size="10.00">_file()</text>
<text text-anchor="start" x="193.38" y="-438.5" font-family="Helvetica,sans-Serif" font-size="10.00">&#45;</text>
<text text-anchor="start" x="201.88" y="-438.5" font-family="Helvetica,sans-Serif" font-size="10.00">export_Children_to</text>
<text text-anchor="start" x="201.88" y="-426.5" font-family="Helvetica,sans-Serif" font-size="10.00">_csv_file()</text>
<text text-anchor="start" x="193.38" y="-410.5" font-family="Helvetica,sans-Serif" font-size="10.00">&#45;</text>
<text text-anchor="start" x="201.88" y="-410.5" font-family="Helvetica,sans-Serif" font-size="10.00">export_Employees_to</text>
<text text-anchor="start" x="201.88" y="-398.5" font-family="Helvetica,sans-Serif" font-size="10.00">_csv_file()</text>
<text text-anchor="start" x="193.38" y="-382.5" font-family="Helvetica,sans-Serif" font-size="10.00">&#45;</text>
<text text-anchor="start" x="201.88" y="-382.5" font-family="Helvetica,sans-Serif" font-size="10.00">remove_from_map()</text>
<text text-anchor="start" x="193.38" y="-366.5" font-family="Helvetica,sans-Serif" font-size="10.00">&#45;</text>
<text text-anchor="start" x="201.88" y="-366.5" font-family="Helvetica,sans-Serif" font-size="10.00">search_lavenstein_name</text>
<text text-anchor="start" x="201.88" y="-354.5" font-family="Helvetica,sans-Serif" font-size="10.00">_surname()</text>
<polygon fill="#666666" stroke="#666666" points="187.88,-1014 187.88,-1014 315.38,-1014 315.38,-1014 187.88,-1014"/>
<polygon fill="#666666" stroke="#666666" points="187.88,-806 187.88,-806 199.88,-806 199.88,-806 187.88,-806"/>
<polygon fill="#666666" stroke="#666666" points="199.88,-806 199.88,-806 315.38,-806 315.38,-806 199.88,-806"/>
<polygon fill="none" stroke="#666666" points="187.88,-348 187.88,-1032 315.38,-1032 315.38,-348 187.88,-348"/>
</a>
</g>
</g>
<!-- Node5&#45;&gt;Node1 -->
<g id="edge4_Node000001_Node000005" class="edge">
<title>Node5&#45;&gt;Node1</title>
<g id="a_edge4_Node000001_Node000005"><a xlink:title=" ">
<path fill="none" stroke="#63b8ff" d="M230.09,-348.28C229.33,-336.23 228.58,-324.39 227.85,-312.87"/>
<polygon fill="none" stroke="#63b8ff" points="227.85,-312.87 223.48,-307.14 227.1,-300.89 231.47,-306.63 227.85,-312.87"/>
</a>
</g>
<text text-anchor="middle" x="254.12" y="-320.5" font-family="Helvetica,sans-Serif" font-size="10.00" fill="grey"> &#45;database_</text>
</g>
<!-- Node6 -->
<g id="Node000006" class="node">
<title>Node6</title>
<g id="a_Node000006"><a xlink:href="class_lesson.html" target="_top" xlink:title="Represents a lesson.">
<polygon fill="white" stroke="none" points="415.5,-812 333.75,-812 333.75,-568 415.5,-568 415.5,-812"/>
<text text-anchor="start" x="358.88" y="-798.5" font-family="Helvetica,sans-Serif" font-size="10.00">Lesson</text>
<text text-anchor="start" x="339.25" y="-782.5" font-family="Helvetica,sans-Serif" font-size="10.00">&#45;</text>
<text text-anchor="start" x="347.75" y="-782.5" font-family="Helvetica,sans-Serif" font-size="10.00">children_</text>
<text text-anchor="start" x="339.25" y="-766.5" font-family="Helvetica,sans-Serif" font-size="10.00">&#45;</text>
<text text-anchor="start" x="347.75" y="-766.5" font-family="Helvetica,sans-Serif" font-size="10.00">employees_</text>
<text text-anchor="start" x="339.25" y="-750.5" font-family="Helvetica,sans-Serif" font-size="10.00">&#45;</text>
<text text-anchor="start" x="347.75" y="-750.5" font-family="Helvetica,sans-Serif" font-size="10.00">attendance_</text>
<text text-anchor="start" x="337.75" y="-734.5" font-family="Helvetica,sans-Serif" font-size="10.00">+</text>
<text text-anchor="start" x="347.75" y="-734.5" font-family="Helvetica,sans-Serif" font-size="10.00">Lesson()</text>
<text text-anchor="start" x="337.75" y="-718.5" font-family="Helvetica,sans-Serif" font-size="10.00">+</text>
<text text-anchor="start" x="347.75" y="-718.5" font-family="Helvetica,sans-Serif" font-size="10.00">Lesson()</text>
<text text-anchor="start" x="337.75" y="-702.5" font-family="Helvetica,sans-Serif" font-size="10.00">+</text>
<text text-anchor="start" x="347.75" y="-702.5" font-family="Helvetica,sans-Serif" font-size="10.00">Lesson()</text>
<text text-anchor="start" x="337.75" y="-686.5" font-family="Helvetica,sans-Serif" font-size="10.00">+</text>
<text text-anchor="start" x="347.75" y="-686.5" font-family="Helvetica,sans-Serif" font-size="10.00">Lesson()</text>
<text text-anchor="start" x="337.75" y="-670.5" font-family="Helvetica,sans-Serif" font-size="10.00">+</text>
<text text-anchor="start" x="347.75" y="-670.5" font-family="Helvetica,sans-Serif" font-size="10.00">Lesson()</text>
<text text-anchor="start" x="337.75" y="-654.5" font-family="Helvetica,sans-Serif" font-size="10.00">+</text>
<text text-anchor="start" x="347.75" y="-654.5" font-family="Helvetica,sans-Serif" font-size="10.00">operator=()</text>
<text text-anchor="start" x="337.75" y="-638.5" font-family="Helvetica,sans-Serif" font-size="10.00">+</text>
<text text-anchor="start" x="347.75" y="-638.5" font-family="Helvetica,sans-Serif" font-size="10.00">operator=()</text>
<text text-anchor="start" x="337.75" y="-622.5" font-family="Helvetica,sans-Serif" font-size="10.00">+</text>
<text text-anchor="start" x="347.75" y="-622.5" font-family="Helvetica,sans-Serif" font-size="10.00">operator==()</text>
<text text-anchor="start" x="337.75" y="-606.5" font-family="Helvetica,sans-Serif" font-size="10.00">+</text>
<text text-anchor="start" x="347.75" y="-606.5" font-family="Helvetica,sans-Serif" font-size="10.00">get_schedule()</text>
<text text-anchor="start" x="337.75" y="-590.5" font-family="Helvetica,sans-Serif" font-size="10.00">+</text>
<text text-anchor="start" x="347.75" y="-590.5" font-family="Helvetica,sans-Serif" font-size="10.00">set_schedule()</text>
<text text-anchor="start" x="347.75" y="-574.5" font-family="Helvetica,sans-Serif" font-size="10.00">and 21 more...</text>
<polygon fill="#666666" stroke="#666666" points="333.75,-794 333.75,-794 415.5,-794 415.5,-794 333.75,-794"/>
<polygon fill="#666666" stroke="#666666" points="333.75,-746 333.75,-746 345.75,-746 345.75,-746 333.75,-746"/>
<polygon fill="#666666" stroke="#666666" points="345.75,-746 345.75,-746 415.5,-746 415.5,-746 345.75,-746"/>
<polygon fill="none" stroke="#666666" points="333.75,-568 333.75,-812 415.5,-812 415.5,-568 333.75,-568"/>
</a>
</g>
</g>
<!-- Node6&#45;&gt;Node1 -->
<g id="edge5_Node000001_Node000006" class="edge">
<title>Node6&#45;&gt;Node1</title>
<g id="a_edge5_Node000001_Node000006"><a xlink:title=" ">
<path fill="none" stroke="#63b8ff" d="M367.32,-568.25C360.74,-501.92 348.26,-418.96 324.62,-348 314.73,-318.3 300.5,-287.83 285.62,-259.99"/>
<polygon fill="none" stroke="#63b8ff" points="285.61,-259.97 279.23,-256.61 279.88,-249.43 286.26,-252.79 285.61,-259.97"/>
</a>
</g>
<text text-anchor="middle" x="336.16" y="-320.5" font-family="Helvetica,sans-Serif" font-size="10.00" fill="grey"> &#45;lesson_</text>
</g>
<!-- Node7 -->
<g id="Node000007" class="node">
<title>Node7</title>
<g id="a_Node000007"><a xlink:href="class_schedule.html" target="_top" xlink:title=" ">
<polygon fill="white" stroke="none" points="359.5,-1300 283.75,-1300 283.75,-1088 359.5,-1088 359.5,-1300"/>
<text text-anchor="start" x="301.38" y="-1286.5" font-family="Helvetica,sans-Serif" font-size="10.00">Schedule</text>
<text text-anchor="start" x="289.25" y="-1270.5" font-family="Helvetica,sans-Serif" font-size="10.00">&#45;</text>
<text text-anchor="start" x="297.75" y="-1270.5" font-family="Helvetica,sans-Serif" font-size="10.00">day_</text>
<text text-anchor="start" x="287.75" y="-1254.5" font-family="Helvetica,sans-Serif" font-size="10.00">+</text>
<text text-anchor="start" x="297.75" y="-1254.5" font-family="Helvetica,sans-Serif" font-size="10.00">Schedule()</text>
<text text-anchor="start" x="287.75" y="-1238.5" font-family="Helvetica,sans-Serif" font-size="10.00">+</text>
<text text-anchor="start" x="297.75" y="-1238.5" font-family="Helvetica,sans-Serif" font-size="10.00">Schedule()</text>
<text text-anchor="start" x="287.75" y="-1222.5" font-family="Helvetica,sans-Serif" font-size="10.00">+</text>
<text text-anchor="start" x="297.75" y="-1222.5" font-family="Helvetica,sans-Serif" font-size="10.00">Schedule()</text>
<text text-anchor="start" x="287.75" y="-1206.5" font-family="Helvetica,sans-Serif" font-size="10.00">+</text>
<text text-anchor="start" x="297.75" y="-1206.5" font-family="Helvetica,sans-Serif" font-size="10.00">Schedule()</text>
<text text-anchor="start" x="287.75" y="-1190.5" font-family="Helvetica,sans-Serif" font-size="10.00">+</text>
<text text-anchor="start" x="297.75" y="-1190.5" font-family="Helvetica,sans-Serif" font-size="10.00">Schedule()</text>
<text text-anchor="start" x="287.75" y="-1174.5" font-family="Helvetica,sans-Serif" font-size="10.00">+</text>
<text text-anchor="start" x="297.75" y="-1174.5" font-family="Helvetica,sans-Serif" font-size="10.00">operator=()</text>
<text text-anchor="start" x="287.75" y="-1158.5" font-family="Helvetica,sans-Serif" font-size="10.00">+</text>
<text text-anchor="start" x="297.75" y="-1158.5" font-family="Helvetica,sans-Serif" font-size="10.00">operator=()</text>
<text text-anchor="start" x="287.75" y="-1142.5" font-family="Helvetica,sans-Serif" font-size="10.00">+</text>
<text text-anchor="start" x="297.75" y="-1142.5" font-family="Helvetica,sans-Serif" font-size="10.00">get_day()</text>
<text text-anchor="start" x="287.75" y="-1126.5" font-family="Helvetica,sans-Serif" font-size="10.00">+</text>
<text text-anchor="start" x="297.75" y="-1126.5" font-family="Helvetica,sans-Serif" font-size="10.00">set_day()</text>
<text text-anchor="start" x="287.75" y="-1110.5" font-family="Helvetica,sans-Serif" font-size="10.00">+</text>
<text text-anchor="start" x="297.75" y="-1110.5" font-family="Helvetica,sans-Serif" font-size="10.00">get_time()</text>
<text text-anchor="start" x="297.75" y="-1094.5" font-family="Helvetica,sans-Serif" font-size="10.00">and 8 more...</text>
<polygon fill="#666666" stroke="#666666" points="283.75,-1282 283.75,-1282 359.5,-1282 359.5,-1282 283.75,-1282"/>
<polygon fill="#666666" stroke="#666666" points="283.75,-1266 283.75,-1266 295.75,-1266 295.75,-1266 283.75,-1266"/>
<polygon fill="#666666" stroke="#666666" points="295.75,-1266 295.75,-1266 359.5,-1266 359.5,-1266 295.75,-1266"/>
<polygon fill="none" stroke="#666666" points="283.75,-1088 283.75,-1300 359.5,-1300 359.5,-1088 283.75,-1088"/>
</a>
</g>
</g>
<!-- Node7&#45;&gt;Node6 -->
<g id="edge6_Node000006_Node000007" class="edge">
<title>Node7&#45;&gt;Node6</title>
<g id="a_edge6_Node000006_Node000007"><a xlink:title=" ">
<path fill="none" stroke="#63b8ff" d="M332.7,-1088.07C340.79,-1011.46 351.82,-907.01 360.53,-824.47"/>
<polygon fill="none" stroke="#63b8ff" points="360.53,-824.5 357.18,-818.12 361.79,-812.57 365.14,-818.96 360.53,-824.5"/>
</a>
</g>
<text text-anchor="middle" x="360.96" y="-1052.5" font-family="Helvetica,sans-Serif" font-size="10.00" fill="grey"> &#45;schedule_</text>
</g>
<!-- Node8 -->
<g id="Node000008" class="node">
<title>Node8</title>
<g id="a_Node000008"><a xlink:href="class_time.html" target="_top" xlink:title="Represents a time (hours, minutes, seconds, and time zone).">
<polygon fill="white" stroke="none" points="367,-1589 270.25,-1589 270.25,-1345 367,-1345 367,-1589"/>
<text text-anchor="start" x="307.75" y="-1575.5" font-family="Helvetica,sans-Serif" font-size="10.00">Time</text>
<text text-anchor="start" x="274.62" y="-1559.5" font-family="Helvetica,sans-Serif" font-size="10.00">#</text>
<text text-anchor="start" x="284.25" y="-1559.5" font-family="Helvetica,sans-Serif" font-size="10.00">time_</text>
<text text-anchor="start" x="274.25" y="-1543.5" font-family="Helvetica,sans-Serif" font-size="10.00">+</text>
<text text-anchor="start" x="284.25" y="-1543.5" font-family="Helvetica,sans-Serif" font-size="10.00">Time()</text>
<text text-anchor="start" x="274.25" y="-1527.5" font-family="Helvetica,sans-Serif" font-size="10.00">+</text>
<text text-anchor="start" x="284.25" y="-1527.5" font-family="Helvetica,sans-Serif" font-size="10.00">Time()</text>
<text text-anchor="start" x="274.25" y="-1511.5" font-family="Helvetica,sans-Serif" font-size="10.00">+</text>
<text text-anchor="start" x="284.25" y="-1511.5" font-family="Helvetica,sans-Serif" font-size="10.00">Time()</text>
<text text-anchor="start" x="274.25" y="-1495.5" font-family="Helvetica,sans-Serif" font-size="10.00">+</text>
<text text-anchor="start" x="284.25" y="-1495.5" font-family="Helvetica,sans-Serif" font-size="10.00">Time()</text>
<text text-anchor="start" x="274.25" y="-1479.5" font-family="Helvetica,sans-Serif" font-size="10.00">+</text>
<text text-anchor="start" x="284.25" y="-1479.5" font-family="Helvetica,sans-Serif" font-size="10.00">Time()</text>
<text text-anchor="start" x="274.25" y="-1463.5" font-family="Helvetica,sans-Serif" font-size="10.00">+</text>
<text text-anchor="start" x="284.25" y="-1463.5" font-family="Helvetica,sans-Serif" font-size="10.00">Time()</text>
<text text-anchor="start" x="274.25" y="-1447.5" font-family="Helvetica,sans-Serif" font-size="10.00">+</text>
<text text-anchor="start" x="284.25" y="-1447.5" font-family="Helvetica,sans-Serif" font-size="10.00">operator=()</text>
<text text-anchor="start" x="274.25" y="-1431.5" font-family="Helvetica,sans-Serif" font-size="10.00">+</text>
<text text-anchor="start" x="284.25" y="-1431.5" font-family="Helvetica,sans-Serif" font-size="10.00">operator=()</text>
<text text-anchor="start" x="274.25" y="-1415.5" font-family="Helvetica,sans-Serif" font-size="10.00">+</text>
<text text-anchor="start" x="284.25" y="-1415.5" font-family="Helvetica,sans-Serif" font-size="10.00">set_seconds()</text>
<text text-anchor="start" x="274.25" y="-1399.5" font-family="Helvetica,sans-Serif" font-size="10.00">+</text>
<text text-anchor="start" x="284.25" y="-1399.5" font-family="Helvetica,sans-Serif" font-size="10.00">get_seconds()</text>
<text text-anchor="start" x="284.25" y="-1383.5" font-family="Helvetica,sans-Serif" font-size="10.00">and 17 more...</text>
<text text-anchor="start" x="274.25" y="-1367.5" font-family="Helvetica,sans-Serif" font-size="10.00">+</text>
<text text-anchor="start" x="284.25" y="-1367.5" font-family="Helvetica,sans-Serif" font-size="10.00">get_current_time()</text>
<text text-anchor="start" x="274.62" y="-1351.5" font-family="Helvetica,sans-Serif" font-size="10.00">#</text>
<text text-anchor="start" x="284.25" y="-1351.5" font-family="Helvetica,sans-Serif" font-size="10.00">update_time()</text>
<polygon fill="#666666" stroke="#666666" points="270.25,-1571 270.25,-1571 367,-1571 367,-1571 270.25,-1571"/>
<polygon fill="#666666" stroke="#666666" points="270.25,-1555 270.25,-1555 282.25,-1555 282.25,-1555 270.25,-1555"/>
<polygon fill="#666666" stroke="#666666" points="282.25,-1555 282.25,-1555 367,-1555 367,-1555 282.25,-1555"/>
<polygon fill="none" stroke="#666666" points="270.25,-1345 270.25,-1589 367,-1589 367,-1345 270.25,-1345"/>
</a>
</g>
</g>
<!-- Node8&#45;&gt;Node7 -->
<g id="edge7_Node000007_Node000008" class="edge">
<title>Node8&#45;&gt;Node7</title>
<g id="a_edge7_Node000007_Node000008"><a xlink:title=" ">
<path fill="none" stroke="#63b8ff" d="M320.09,-1333.8C320.21,-1322.42 320.34,-1311 320.46,-1299.88"/>
<polygon fill="none" stroke="#63b8ff" points="316.59,-1333.61 319.98,-1343.65 323.59,-1333.69 316.59,-1333.61"/>
</a>
</g>
</g>
<!-- Node9 -->
<g id="Node000009" class="node">
<title>Node9</title>
<g id="a_Node000009"><a xlink:href="class_address.html" target="_top" xlink:title="Represents a physical address.">
<polygon fill="white" stroke="none" points="463.25,-1308 386,-1308 386,-1080 463.25,-1080 463.25,-1308"/>
<text text-anchor="start" x="406.62" y="-1294.5" font-family="Helvetica,sans-Serif" font-size="10.00">Address</text>
<text text-anchor="start" x="391.5" y="-1278.5" font-family="Helvetica,sans-Serif" font-size="10.00">&#45;</text>
<text text-anchor="start" x="400" y="-1278.5" font-family="Helvetica,sans-Serif" font-size="10.00">address_</text>
<text text-anchor="start" x="390" y="-1262.5" font-family="Helvetica,sans-Serif" font-size="10.00">+</text>
<text text-anchor="start" x="400" y="-1262.5" font-family="Helvetica,sans-Serif" font-size="10.00">Address()</text>
<text text-anchor="start" x="390" y="-1246.5" font-family="Helvetica,sans-Serif" font-size="10.00">+</text>
<text text-anchor="start" x="400" y="-1246.5" font-family="Helvetica,sans-Serif" font-size="10.00">Address()</text>
<text text-anchor="start" x="390" y="-1230.5" font-family="Helvetica,sans-Serif" font-size="10.00">+</text>
<text text-anchor="start" x="400" y="-1230.5" font-family="Helvetica,sans-Serif" font-size="10.00">Address()</text>
<text text-anchor="start" x="390" y="-1214.5" font-family="Helvetica,sans-Serif" font-size="10.00">+</text>
<text text-anchor="start" x="400" y="-1214.5" font-family="Helvetica,sans-Serif" font-size="10.00">Address()</text>
<text text-anchor="start" x="390" y="-1198.5" font-family="Helvetica,sans-Serif" font-size="10.00">+</text>
<text text-anchor="start" x="400" y="-1198.5" font-family="Helvetica,sans-Serif" font-size="10.00">Address()</text>
<text text-anchor="start" x="390" y="-1182.5" font-family="Helvetica,sans-Serif" font-size="10.00">+</text>
<text text-anchor="start" x="400" y="-1182.5" font-family="Helvetica,sans-Serif" font-size="10.00">operator=()</text>
<text text-anchor="start" x="390" y="-1166.5" font-family="Helvetica,sans-Serif" font-size="10.00">+</text>
<text text-anchor="start" x="400" y="-1166.5" font-family="Helvetica,sans-Serif" font-size="10.00">operator=()</text>
<text text-anchor="start" x="390" y="-1150.5" font-family="Helvetica,sans-Serif" font-size="10.00">+</text>
<text text-anchor="start" x="400" y="-1150.5" font-family="Helvetica,sans-Serif" font-size="10.00">operator==()</text>
<text text-anchor="start" x="390" y="-1134.5" font-family="Helvetica,sans-Serif" font-size="10.00">+</text>
<text text-anchor="start" x="400" y="-1134.5" font-family="Helvetica,sans-Serif" font-size="10.00">get_address()</text>
<text text-anchor="start" x="390" y="-1118.5" font-family="Helvetica,sans-Serif" font-size="10.00">+</text>
<text text-anchor="start" x="400" y="-1118.5" font-family="Helvetica,sans-Serif" font-size="10.00">set_address()</text>
<text text-anchor="start" x="390" y="-1102.5" font-family="Helvetica,sans-Serif" font-size="10.00">+</text>
<text text-anchor="start" x="400" y="-1102.5" font-family="Helvetica,sans-Serif" font-size="10.00">copy()</text>
<text text-anchor="start" x="390" y="-1086.5" font-family="Helvetica,sans-Serif" font-size="10.00">+</text>
<text text-anchor="start" x="400" y="-1086.5" font-family="Helvetica,sans-Serif" font-size="10.00">~Address()</text>
<polygon fill="#666666" stroke="#666666" points="386,-1290 386,-1290 463.25,-1290 463.25,-1290 386,-1290"/>
<polygon fill="#666666" stroke="#666666" points="386,-1274 386,-1274 398,-1274 398,-1274 386,-1274"/>
<polygon fill="#666666" stroke="#666666" points="398,-1274 398,-1274 463.25,-1274 463.25,-1274 398,-1274"/>
<polygon fill="none" stroke="#666666" points="386,-1080 386,-1308 463.25,-1308 463.25,-1080 386,-1080"/>
</a>
</g>
</g>
<!-- Node9&#45;&gt;Node6 -->
<g id="edge8_Node000006_Node000009" class="edge">
<title>Node9&#45;&gt;Node6</title>
<g id="a_edge8_Node000006_Node000009"><a xlink:title=" ">
<path fill="none" stroke="#63b8ff" d="M413.37,-1080.03C405.83,-1004.28 395.86,-904.2 387.92,-824.51"/>
<polygon fill="none" stroke="#63b8ff" points="387.95,-824.74 383.37,-819.17 386.76,-812.8 391.33,-818.37 387.95,-824.74"/>
</a>
</g>
<text text-anchor="middle" x="434.09" y="-1052.5" font-family="Helvetica,sans-Serif" font-size="10.00" fill="grey"> &#45;address_</text>
</g>
<!-- Node10 -->
<g id="Node000010" class="node">
<title>Node10</title>
<g id="a_Node000010"><a xlink:href="class_contacts.html" target="_top" xlink:title="Base class for contact&#45;related utilities.">
<polygon fill="white" stroke="none" points="486.62,-1493 384.62,-1493 384.62,-1441 486.62,-1441 486.62,-1493"/>
<text text-anchor="start" x="415.75" y="-1479.5" font-family="Helvetica,sans-Serif" font-size="10.00">Contacts</text>
<text text-anchor="start" x="434.12" y="-1463.5" font-family="Helvetica,sans-Serif" font-size="10.00"> </text>
<text text-anchor="start" x="388.62" y="-1447.5" font-family="Helvetica,sans-Serif" font-size="10.00">#</text>
<text text-anchor="start" x="397.88" y="-1447.5" font-family="Helvetica,sans-Serif" font-size="10.00">copy_to_clipboard()</text>
<polygon fill="#666666" stroke="#666666" points="384.62,-1475 384.62,-1475 486.62,-1475 486.62,-1475 384.62,-1475"/>
<polygon fill="#666666" stroke="#666666" points="384.62,-1459 384.62,-1459 486.62,-1459 486.62,-1459 384.62,-1459"/>
<polygon fill="none" stroke="#666666" points="384.62,-1441 384.62,-1493 486.62,-1493 486.62,-1441 384.62,-1441"/>
</a>
</g>
</g>
<!-- Node10&#45;&gt;Node9 -->
<g id="edge9_Node000009_Node000010" class="edge">
<title>Node10&#45;&gt;Node9</title>
<g id="a_edge9_Node000009_Node000010"><a xlink:title=" ">
<path fill="none" stroke="#63b8ff" d="M434.18,-1430.29C432.9,-1398.99 430.99,-1351.73 429.2,-1307.76"/>
<polygon fill="none" stroke="#63b8ff" points="430.67,-1430.11 434.57,-1439.96 437.66,-1429.83 430.67,-1430.11"/>
</a>
</g>
</g>
</g>
</svg>

<g id="navigator" transform="translate(0 0)" fill="#404254">
  <rect fill="#f2f5e9" fill-opacity="0.5" stroke="#606060" stroke-width=".5" x="0" y="0" width="60" height="60"/>
  <use id="zoomplus" xlink:href="#zoomPlus" x="17" y="9" onmousedown="handleZoom(evt,'in')"/>
  <use id="zoomminus" xlink:href="#zoomMin" x="42" y="9" onmousedown="handleZoom(evt,'out')"/>
  <use id="reset" xlink:href="#resetDef" x="30" y="36" onmousedown="handleReset()"/>
   <use id="arrowup" xlink:href="#arrowUp" x="0" y="0" onmousedown="handlePan(0,-1)"/>
  <use id="arrowright" xlink:href="#arrowRight" x="0" y="0" onmousedown="handlePan(1,0)"/>
  <use id="arrowdown" xlink:href="#arrowDown" x="0" y="0" onmousedown="handlePan(0,1)"/>
  <use id="arrowleft" xlink:href="#arrowLeft" x="0" y="0" onmousedown="handlePan(-1,0)"/>
</g>
<svg viewBox="0 0 15 15" width="100%" height="30px" preserveAspectRatio="xMaxYMin meet">
 <g id="arrow_out" transform="scale(0.3 0.3)">
  <a xlink:href="class_lesson_dialog__coll__graph_org.svg" target="_base">
   <rect id="button" ry="5" rx="5" y="6" x="6" height="38" width="38"
        fill="#f2f5e9" fill-opacity="0.5" stroke="#606060" stroke-width="1.0"/>
   <path id="arrow"
     d="M 11.500037,31.436501 C 11.940474,20.09759 22.043105,11.32322 32.158766,21.979434 L 37.068811,17.246167 C 37.068811,17.246167 37.088388,32 37.088388,32 L 22.160133,31.978069 C 22.160133,31.978069 26.997745,27.140456 26.997745,27.140456 C 18.528582,18.264221 13.291696,25.230495 11.500037,31.436501 z"
     style="fill:#404040;"/>
  </a>
 </g>
</svg>

<style type='text/css'>
<![CDATA[
[data-mouse-over-selected='false'] { opacity: 0.7; }
[data-mouse-over-selected='true']  { opacity: 1.0; }
]]>
</style>
<script type="application/ecmascript"><![CDATA[
document.addEventListener('DOMContentLoaded', (event) => {
  highlightEdges();
  highlightAdjacentNodes();
});
]]></script>
</svg>
