<?xml version="1.0" encoding="UTF-8" standalone="no"?>
<!DOCTYPE svg PUBLIC "-//W3C//DTD SVG 1.1//EN"
 "http://www.w3.org/Graphics/SVG/1.1/DTD/svg11.dtd">
<!-- Generated by graphviz version 12.2.1 (20241206.2353)
 -->
<!-- Title: DataBaseGUI::populate_employee_tab Pages: 1 -->
<svg width="493pt" height="235pt"
 viewBox="0.00 0.00 492.50 235.18" xmlns="http://www.w3.org/2000/svg" xmlns:xlink="http://www.w3.org/1999/xlink">
<g id="graph0" class="graph" transform="scale(1 1) rotate(0) translate(4 231.18)">
<title>DataBaseGUI::populate_employee_tab</title>
<!-- Node1 -->
<g id="Node000001" class="node">
<title>Node1</title>
<g id="a_Node000001"><a xlink:title="Populates the parent tab with a list of parents.">
<polygon fill="#999999" stroke="#666666" points="120.25,-126.18 0,-126.18 0,-94.18 120.25,-94.18 120.25,-126.18"/>
<text text-anchor="start" x="8" y="-112.68" font-family="Helvetica,sans-Serif" font-size="10.00">DataBaseGUI::populate</text>
<text text-anchor="middle" x="60.12" y="-100.68" font-family="Helvetica,sans-Serif" font-size="10.00">_employee_tab</text>
</a>
</g>
</g>
<!-- Node2 -->
<g id="Node000002" class="node">
<title>Node2</title>
<g id="a_Node000002"><a xlink:href="class_employee_entry.html#ada71cffbda6a2614d266a6cc85d6684a" target="_top" xlink:title="Signal emitted when a employee edit is requested.">
<polygon fill="white" stroke="#666666" points="316.25,-227.18 164.5,-227.18 164.5,-207.18 316.25,-207.18 316.25,-227.18"/>
<text text-anchor="middle" x="240.38" y="-213.68" font-family="Helvetica,sans-Serif" font-size="10.00">EmployeeEntry::editRequested</text>
</a>
</g>
</g>
<!-- Node1&#45;&gt;Node2 -->
<g id="edge1_Node000001_Node000002" class="edge">
<title>Node1&#45;&gt;Node2</title>
<g id="a_edge1_Node000001_Node000002"><a xlink:title=" ">
<path fill="none" stroke="#63b8ff" d="M74.08,-126.55C90.85,-146.6 122.03,-180.12 156.25,-198.18 159.52,-199.91 162.95,-201.48 166.47,-202.91"/>
<polygon fill="#63b8ff" stroke="#63b8ff" points="165.22,-206.18 175.82,-206.27 167.59,-199.59 165.22,-206.18"/>
</a>
</g>
</g>
<!-- Node3 -->
<g id="Node000003" class="node">
<title>Node3</title>
<g id="a_Node000003"><a xlink:href="class_data_base_g_u_i.html#ae9c0b91905f7d70563c285cd9b5dace3" target="_top" xlink:title="Edits an existing employee in the database.">
<polygon fill="white" stroke="#666666" points="313.62,-189.18 167.12,-189.18 167.12,-169.18 313.62,-169.18 313.62,-189.18"/>
<text text-anchor="middle" x="240.38" y="-175.68" font-family="Helvetica,sans-Serif" font-size="10.00">DataBaseGUI::employee_edit</text>
</a>
</g>
</g>
<!-- Node1&#45;&gt;Node3 -->
<g id="edge2_Node000001_Node000003" class="edge">
<title>Node1&#45;&gt;Node3</title>
<g id="a_edge2_Node000001_Node000003"><a xlink:title=" ">
<path fill="none" stroke="#63b8ff" d="M87.73,-126.56C106.35,-137.42 132.1,-151.25 156.25,-160.18 161.66,-162.18 167.36,-164.02 173.12,-165.69"/>
<polygon fill="#63b8ff" stroke="#63b8ff" points="172.2,-169.06 182.77,-168.3 174.03,-162.31 172.2,-169.06"/>
</a>
</g>
</g>
<!-- Node5 -->
<g id="Node000005" class="node">
<title>Node5</title>
<g id="a_Node000005"><a xlink:href="class_data_base_g_u_i.html#a4b70294327e9c316224af10d7a369749" target="_top" xlink:title="Removes an employee from the database.">
<polygon fill="white" stroke="#666666" points="303.12,-151.18 177.62,-151.18 177.62,-119.18 303.12,-119.18 303.12,-151.18"/>
<text text-anchor="start" x="185.62" y="-137.68" font-family="Helvetica,sans-Serif" font-size="10.00">DataBaseGUI::employee</text>
<text text-anchor="middle" x="240.38" y="-125.68" font-family="Helvetica,sans-Serif" font-size="10.00">_remove</text>
</a>
</g>
</g>
<!-- Node1&#45;&gt;Node5 -->
<g id="edge5_Node000001_Node000005" class="edge">
<title>Node1&#45;&gt;Node5</title>
<g id="a_edge5_Node000001_Node000005"><a xlink:title=" ">
<path fill="none" stroke="#63b8ff" d="M120.48,-118.51C135.01,-120.54 150.73,-122.75 165.83,-124.87"/>
<polygon fill="#63b8ff" stroke="#63b8ff" points="165.34,-128.33 175.73,-126.25 166.31,-121.4 165.34,-128.33"/>
</a>
</g>
</g>
<!-- Node6 -->
<g id="Node000006" class="node">
<title>Node6</title>
<g id="a_Node000006"><a xlink:href="class_data_base_g_u_i.html#aa5bbb368e92b4bf89edf9071df42aab3" target="_top" xlink:title="Clears the parent tab.">
<polygon fill="white" stroke="#666666" points="303.12,-101.18 177.62,-101.18 177.62,-69.18 303.12,-69.18 303.12,-101.18"/>
<text text-anchor="start" x="185.62" y="-87.68" font-family="Helvetica,sans-Serif" font-size="10.00">DataBaseGUI::employee</text>
<text text-anchor="middle" x="240.38" y="-75.68" font-family="Helvetica,sans-Serif" font-size="10.00">_tab_clear</text>
</a>
</g>
</g>
<!-- Node1&#45;&gt;Node6 -->
<g id="edge7_Node000001_Node000006" class="edge">
<title>Node1&#45;&gt;Node6</title>
<g id="a_edge7_Node000001_Node000006"><a xlink:title=" ">
<path fill="none" stroke="#63b8ff" d="M120.48,-101.86C135.01,-99.82 150.73,-97.61 165.83,-95.5"/>
<polygon fill="#63b8ff" stroke="#63b8ff" points="166.31,-98.96 175.73,-94.11 165.34,-92.03 166.31,-98.96"/>
</a>
</g>
</g>
<!-- Node7 -->
<g id="Node000007" class="node">
<title>Node7</title>
<g id="a_Node000007"><a xlink:href="class_employee_entry.html#a6f579e66e8fc13dbc45c940edfc50b32" target="_top" xlink:title="Signal emitted when a employee removal is requested.">
<polygon fill="white" stroke="#666666" points="324.5,-51.18 156.25,-51.18 156.25,-31.18 324.5,-31.18 324.5,-51.18"/>
<text text-anchor="middle" x="240.38" y="-37.68" font-family="Helvetica,sans-Serif" font-size="10.00">EmployeeEntry::removeRequested</text>
</a>
</g>
</g>
<!-- Node1&#45;&gt;Node7 -->
<g id="edge8_Node000001_Node000007" class="edge">
<title>Node1&#45;&gt;Node7</title>
<g id="a_edge8_Node000001_Node000007"><a xlink:title=" ">
<path fill="none" stroke="#63b8ff" d="M87.73,-93.8C106.35,-82.95 132.1,-69.11 156.25,-60.18 161.66,-58.18 167.36,-56.34 173.12,-54.67"/>
<polygon fill="#63b8ff" stroke="#63b8ff" points="174.03,-58.05 182.77,-52.06 172.2,-51.3 174.03,-58.05"/>
</a>
</g>
</g>
<!-- Node4 -->
<g id="Node000004" class="node">
<title>Node4</title>
<g id="a_Node000004"><a xlink:href="class_data_base_g_u_i.html#a0298d31c219c66a65a01eb01372e254d" target="_top" xlink:title="Selects the appropriate sorting to use based on employee sort index.">
<polygon fill="white" stroke="#666666" points="484.5,-151.18 360.5,-151.18 360.5,-119.18 484.5,-119.18 484.5,-151.18"/>
<text text-anchor="start" x="368.5" y="-137.68" font-family="Helvetica,sans-Serif" font-size="10.00">DataBaseGUI::sort_to</text>
<text text-anchor="middle" x="422.5" y="-125.68" font-family="Helvetica,sans-Serif" font-size="10.00">_populate_employee_tab</text>
</a>
</g>
</g>
<!-- Node3&#45;&gt;Node4 -->
<g id="edge3_Node000003_Node000004" class="edge">
<title>Node3&#45;&gt;Node4</title>
<g id="a_edge3_Node000003_Node000004"><a xlink:title=" ">
<path fill="none" stroke="#63b8ff" d="M288.03,-168.75C299.94,-166.03 312.7,-163.05 324.5,-160.18 332.55,-158.22 340.96,-156.13 349.32,-154.02"/>
<polygon fill="#63b8ff" stroke="#63b8ff" points="349.95,-157.47 358.78,-151.61 348.23,-150.68 349.95,-157.47"/>
</a>
</g>
</g>
<!-- Node4&#45;&gt;Node1 -->
<g id="edge4_Node000004_Node000001" class="edge">
<title>Node4&#45;&gt;Node1</title>
<g id="a_edge4_Node000004_Node000001"><a xlink:title=" ">
<path fill="none" stroke="#63b8ff" d="M413.51,-118.96C399.6,-92.81 368.2,-42.26 324.5,-22.18 256.55,9.04 225.88,5.09 156.25,-22.18 124.13,-34.76 96.37,-63.83 79.26,-85.13"/>
<polygon fill="#63b8ff" stroke="#63b8ff" points="76.67,-82.76 73.31,-92.8 82.21,-87.05 76.67,-82.76"/>
</a>
</g>
</g>
<!-- Node5&#45;&gt;Node4 -->
<g id="edge6_Node000005_Node000004" class="edge">
<title>Node5&#45;&gt;Node4</title>
<g id="a_edge6_Node000005_Node000004"><a xlink:title=" ">
<path fill="none" stroke="#63b8ff" d="M303.62,-135.18C318.2,-135.18 333.87,-135.18 348.86,-135.18"/>
<polygon fill="#63b8ff" stroke="#63b8ff" points="348.66,-138.68 358.66,-135.18 348.66,-131.68 348.66,-138.68"/>
</a>
</g>
</g>
</g>
</svg>
