<?xml version="1.0" encoding="UTF-8" standalone="no"?>
<!DOCTYPE svg PUBLIC "-//W3C//DTD SVG 1.1//EN"
 "http://www.w3.org/Graphics/SVG/1.1/DTD/svg11.dtd">
<!-- Generated by graphviz version 12.2.1 (20241206.2353)
 -->
<!-- Title: DataBaseGUI::parent_edit Pages: 1 -->
<!--zoomable 621 -->

<svg id="main" version="1.1" xmlns="http://www.w3.org/2000/svg" xmlns:xlink="http://www.w3.org/1999/xlink" xml:space="preserve" onload="init(evt)">

<style type="text/css"><![CDATA[
.node, .edge {opacity: 0.7;}
.node.selected, .edge.selected {opacity: 1;}
.edge:hover path { stroke: red; }
.edge:hover polygon { stroke: red; fill: red; }
]]></style>

<defs>
  <circle id="rim" cx="0" cy="0" r="7"/>
  <circle id="rim2" cx="0" cy="0" r="3.5"/>
  <g id="zoomPlus">
    <use xlink:href="#rim" fill="#404040"><set attributeName="fill" to="#808080" begin="zoomplus.mouseover" end="zoomplus.mouseout"/></use>
    <path d="M-4,0h8M0,-4v8" fill="none" stroke="white" stroke-width="1.5" pointer-events="none"/>
  </g>
  <g id="zoomMin">
    <use xlink:href="#rim" fill="#404040"><set attributeName="fill" to="#808080" begin="zoomminus.mouseover" end="zoomminus.mouseout"/></use>
    <path d="M-4,0h8" fill="none" stroke="white" stroke-width="1.5" pointer-events="none"/>
  </g>
  <g id="arrowUp" transform="translate(30 24)">
    <use xlink:href="#rim"/>
    <path pointer-events="none" fill="none" stroke="white" stroke-width="1.5" d="M0,-3.0v7 M-2.5,-0.5L0,-3.0L2.5,-0.5"/>
  </g>
  <g id="arrowRight" transform="rotate(90) translate(36 -43)">
    <use xlink:href="#rim"/>
    <path pointer-events="none" fill="none" stroke="white" stroke-width="1.5" d="M0,-3.0v7 M-2.5,-0.5L0,-3.0L2.5,-0.5"/>
  </g>
  <g id="arrowDown" transform="rotate(180) translate(-30 -48)">
    <use xlink:href="#rim"/>
    <path pointer-events="none" fill="none" stroke="white" stroke-width="1.5" d="M0,-3.0v7 M-2.5,-0.5L0,-3.0L2.5,-0.5"/>
  </g>
  <g id="arrowLeft" transform="rotate(270) translate(-36 17)">
    <use xlink:href="#rim"/>
    <path pointer-events="none" fill="none" stroke="white" stroke-width="1.5" d="M0,-3.0v7 M-2.5,-0.5L0,-3.0L2.5,-0.5"/>
  </g>
  <g id="resetDef">
    <use xlink:href="#rim2" fill="#404040"><set attributeName="fill" to="#808080" begin="reset.mouseover" end="reset.mouseout"/></use>
  </g>
</defs>
<script type="application/ecmascript">
var viewWidth = 2055;
var viewHeight = 621;
var sectionId = 'dynsection-48';
</script>
<script type="application/ecmascript" xlink:href="svg.min.js"/>
<svg id="graph" class="graph">
<g id="viewport">
<title>DataBaseGUI::parent_edit</title>
<!-- Node1 -->
<g id="Node000001" class="node">
<title>Node1</title>
<g id="a_Node000001"><a xlink:title="Edits an existing parent in the database.">
<polygon fill="#999999" stroke="#666666" points="2047,-582.21 1915.5,-582.21 1915.5,-562.21 2047,-562.21 2047,-582.21"/>
<text text-anchor="middle" x="1981.25" y="-568.71" font-family="Helvetica,sans-Serif" font-size="10.00">DataBaseGUI::parent_edit</text>
</a>
</g>
</g>
<!-- Node2 -->
<g id="Node000002" class="node">
<title>Node2</title>
<g id="a_Node000002"><a xlink:href="class_data_base_g_u_i.html#a33f2f95926f7b4b05227dcf395e235d3" target="_top" xlink:title="Populates the parent tab with a multimap of parents.">
<polygon fill="white" stroke="#666666" points="952.88,-585.21 832.62,-585.21 832.62,-553.21 952.88,-553.21 952.88,-585.21"/>
<text text-anchor="start" x="840.62" y="-571.71" font-family="Helvetica,sans-Serif" font-size="10.00">DataBaseGUI::populate</text>
<text text-anchor="middle" x="892.75" y="-559.71" font-family="Helvetica,sans-Serif" font-size="10.00">_parent_tab</text>
</a>
</g>
</g>
<!-- Node1&#45;&gt;Node2 -->
<g id="edge1_Node000001_Node000002" class="edge">
<title>Node1&#45;&gt;Node2</title>
<g id="a_edge1_Node000001_Node000002"><a xlink:title=" ">
<path fill="none" stroke="#63b8ff" d="M1920.25,-584.86C1857.8,-596.9 1757,-613.21 1669,-613.21 1669,-613.21 1669,-613.21 1215.12,-613.21 1118.03,-613.21 1093.32,-609.85 997.5,-594.21 983.05,-591.85 967.64,-588.57 953.24,-585.16"/>
<polygon fill="#63b8ff" stroke="#63b8ff" points="1920.83,-588.31 1929.97,-582.96 1919.48,-581.44 1920.83,-588.31"/>
</a>
</g>
</g>
<!-- Node3 -->
<g id="Node000003" class="node">
<title>Node3</title>
<g id="a_Node000003"><a xlink:href="class_data_base_g_u_i.html#a739b2cf48c0cb6e3cab2da0a7bbd6d6d" target="_top" xlink:title="Populates the parent tab with a list of parents.">
<polygon fill="white" stroke="#666666" points="1879.5,-506.21 1759.25,-506.21 1759.25,-474.21 1879.5,-474.21 1879.5,-506.21"/>
<text text-anchor="start" x="1767.25" y="-492.71" font-family="Helvetica,sans-Serif" font-size="10.00">DataBaseGUI::populate</text>
<text text-anchor="middle" x="1819.38" y="-480.71" font-family="Helvetica,sans-Serif" font-size="10.00">_parent_tab</text>
</a>
</g>
</g>
<!-- Node1&#45;&gt;Node3 -->
<g id="edge2_Node000001_Node000003" class="edge">
<title>Node1&#45;&gt;Node3</title>
<g id="a_edge2_Node000001_Node000003"><a xlink:title=" ">
<path fill="none" stroke="#63b8ff" d="M1950.01,-556.7C1922.09,-542.38 1880.76,-521.18 1852.31,-506.59"/>
<polygon fill="#63b8ff" stroke="#63b8ff" points="1948.16,-559.69 1958.65,-561.14 1951.35,-553.46 1948.16,-559.69"/>
</a>
</g>
</g>
<!-- Node4 -->
<g id="Node000004" class="node">
<title>Node4</title>
<g id="a_Node000004"><a xlink:href="class_data_base_g_u_i.html#a7c3d843eec449d8a4ec5ce6bf0375358" target="_top" xlink:title="Searches for parents based on the provided name and surname.">
<polygon fill="white" stroke="#666666" points="1723.25,-317.21 1612.75,-317.21 1612.75,-285.21 1723.25,-285.21 1723.25,-317.21"/>
<text text-anchor="start" x="1620.75" y="-303.71" font-family="Helvetica,sans-Serif" font-size="10.00">DataBaseGUI::parent</text>
<text text-anchor="middle" x="1668" y="-291.71" font-family="Helvetica,sans-Serif" font-size="10.00">_search</text>
</a>
</g>
</g>
<!-- Node3&#45;&gt;Node4 -->
<g id="edge3_Node000003_Node000004" class="edge">
<title>Node3&#45;&gt;Node4</title>
<g id="a_edge3_Node000003_Node000004"><a xlink:title=" ">
<path fill="none" stroke="#63b8ff" d="M1798.47,-465.02C1767.33,-425.62 1707.96,-350.51 1681.86,-317.48"/>
<polygon fill="#63b8ff" stroke="#63b8ff" points="1795.5,-466.91 1804.44,-472.58 1800.99,-462.57 1795.5,-466.91"/>
</a>
</g>
</g>
<!-- Node28 -->
<g id="Node000028" class="node">
<title>Node28</title>
<g id="a_Node000028"><a xlink:href="class_data_base_g_u_i.html#a625b5e2018395a458ff517bbf364e1bf" target="_top" xlink:title="Selects the appropriate sorting to use based on parent sort index.">
<polygon fill="white" stroke="#666666" points="1272.88,-506.21 1159.38,-506.21 1159.38,-474.21 1272.88,-474.21 1272.88,-506.21"/>
<text text-anchor="start" x="1167.38" y="-492.71" font-family="Helvetica,sans-Serif" font-size="10.00">DataBaseGUI::sort_to</text>
<text text-anchor="middle" x="1216.12" y="-480.71" font-family="Helvetica,sans-Serif" font-size="10.00">_populate_parent_tab</text>
</a>
</g>
</g>
<!-- Node3&#45;&gt;Node28 -->
<g id="edge47_Node000003_Node000028" class="edge">
<title>Node3&#45;&gt;Node28</title>
<g id="a_edge47_Node000003_Node000028"><a xlink:title=" ">
<path fill="none" stroke="#63b8ff" d="M1747.5,-490.21C1626.67,-490.21 1383.23,-490.21 1273.28,-490.21"/>
<polygon fill="#63b8ff" stroke="#63b8ff" points="1747.29,-493.71 1757.29,-490.21 1747.29,-486.71 1747.29,-493.71"/>
</a>
</g>
</g>
<!-- Node5 -->
<g id="Node000005" class="node">
<title>Node5</title>
<g id="a_Node000005"><a xlink:href="class_data_base_g_u_i.html#a8e1fe573ef6a09e112989968ec1a2b43" target="_top" xlink:title="Searches for parents based on the provided parent pointer.">
<polygon fill="white" stroke="#666666" points="1576.75,-317.21 1466.25,-317.21 1466.25,-285.21 1576.75,-285.21 1576.75,-317.21"/>
<text text-anchor="start" x="1474.25" y="-303.71" font-family="Helvetica,sans-Serif" font-size="10.00">DataBaseGUI::parent</text>
<text text-anchor="middle" x="1521.5" y="-291.71" font-family="Helvetica,sans-Serif" font-size="10.00">_search_by_pointer</text>
</a>
</g>
</g>
<!-- Node4&#45;&gt;Node5 -->
<g id="edge4_Node000004_Node000005" class="edge">
<title>Node4&#45;&gt;Node5</title>
<g id="a_edge4_Node000004_Node000005"><a xlink:title=" ">
<path fill="none" stroke="#63b8ff" d="M1600.88,-301.21C1592.96,-301.21 1584.94,-301.21 1577.21,-301.21"/>
<polygon fill="#63b8ff" stroke="#63b8ff" points="1600.86,-304.71 1610.86,-301.21 1600.86,-297.71 1600.86,-304.71"/>
</a>
</g>
</g>
<!-- Node14 -->
<g id="Node000014" class="node">
<title>Node14</title>
<g id="a_Node000014"><a xlink:href="class_data_base_g_u_i.html#a6c35e47ed05a80db144f240dee805a9d" target="_top" xlink:title="Sets up the GUI.">
<polygon fill="white" stroke="#666666" points="294.88,-255.21 187.38,-255.21 187.38,-235.21 294.88,-235.21 294.88,-255.21"/>
<text text-anchor="middle" x="241.12" y="-241.71" font-family="Helvetica,sans-Serif" font-size="10.00">DataBaseGUI::setup</text>
</a>
</g>
</g>
<!-- Node4&#45;&gt;Node14 -->
<g id="edge46_Node000004_Node000014" class="edge">
<title>Node4&#45;&gt;Node14</title>
<g id="a_edge46_Node000004_Node000014"><a xlink:title=" ">
<path fill="none" stroke="#63b8ff" d="M1655.75,-274.45C1623.28,-201.96 1522,-7.21 1371.12,-7.21 1371.12,-7.21 1371.12,-7.21 562.75,-7.21 461.59,-7.21 418.49,22.07 337.25,-38.21 268.96,-88.88 248.28,-200.45 243.41,-234.88"/>
<polygon fill="#63b8ff" stroke="#63b8ff" points="1652.54,-275.85 1659.76,-283.6 1658.95,-273.04 1652.54,-275.85"/>
</a>
</g>
</g>
<!-- Node6 -->
<g id="Node000006" class="node">
<title>Node6</title>
<g id="a_Node000006"><a xlink:href="class_data_base_g_u_i.html#a334c0011a9d3a71539b326a888feccd3" target="_top" xlink:title="Populates the children tab with a multimap of children.">
<polygon fill="white" stroke="#666666" points="952.88,-295.21 832.62,-295.21 832.62,-263.21 952.88,-263.21 952.88,-295.21"/>
<text text-anchor="start" x="840.62" y="-281.71" font-family="Helvetica,sans-Serif" font-size="10.00">DataBaseGUI::populate</text>
<text text-anchor="middle" x="892.75" y="-269.71" font-family="Helvetica,sans-Serif" font-size="10.00">_children_tab</text>
</a>
</g>
</g>
<!-- Node5&#45;&gt;Node6 -->
<g id="edge5_Node000005_Node000006" class="edge">
<title>Node5&#45;&gt;Node6</title>
<g id="a_edge5_Node000005_Node000006"><a xlink:title=" ">
<path fill="none" stroke="#63b8ff" d="M1454.69,-306.79C1355.26,-314.04 1160.99,-323.63 997.5,-304.21 982.41,-302.42 966.35,-299.21 951.48,-295.68"/>
<polygon fill="#63b8ff" stroke="#63b8ff" points="1454.82,-310.29 1464.53,-306.05 1454.3,-303.31 1454.82,-310.29"/>
</a>
</g>
</g>
<!-- Node7 -->
<g id="Node000007" class="node">
<title>Node7</title>
<g id="a_Node000007"><a xlink:href="class_data_base_g_u_i.html#af346d08370d9e4574980707f61b9c8f7" target="_top" xlink:title="Populates the children tab with a list of children.">
<polygon fill="white" stroke="#666666" points="1430.25,-276.21 1310,-276.21 1310,-244.21 1430.25,-244.21 1430.25,-276.21"/>
<text text-anchor="start" x="1318" y="-262.71" font-family="Helvetica,sans-Serif" font-size="10.00">DataBaseGUI::populate</text>
<text text-anchor="middle" x="1370.12" y="-250.71" font-family="Helvetica,sans-Serif" font-size="10.00">_children_tab</text>
</a>
</g>
</g>
<!-- Node5&#45;&gt;Node7 -->
<g id="edge6_Node000005_Node000007" class="edge">
<title>Node5&#45;&gt;Node7</title>
<g id="a_edge6_Node000005_Node000007"><a xlink:title=" ">
<path fill="none" stroke="#63b8ff" d="M1455.19,-283.29C1447.06,-281.05 1438.77,-278.78 1430.73,-276.57"/>
<polygon fill="#63b8ff" stroke="#63b8ff" points="1454.12,-286.62 1464.69,-285.89 1455.97,-279.87 1454.12,-286.62"/>
</a>
</g>
</g>
<!-- Node8 -->
<g id="Node000008" class="node">
<title>Node8</title>
<g id="a_Node000008"><a xlink:href="class_data_base_g_u_i.html#a2d921da686e76ae195da018bb735a1ae" target="_top" xlink:title="Searches for children based on the provided name and surname.">
<polygon fill="white" stroke="#666666" points="1268,-383.21 1164.25,-383.21 1164.25,-351.21 1268,-351.21 1268,-383.21"/>
<text text-anchor="start" x="1172.25" y="-369.71" font-family="Helvetica,sans-Serif" font-size="10.00">DataBaseGUI::child</text>
<text text-anchor="middle" x="1216.12" y="-357.71" font-family="Helvetica,sans-Serif" font-size="10.00">_search</text>
</a>
</g>
</g>
<!-- Node7&#45;&gt;Node8 -->
<g id="edge7_Node000007_Node000008" class="edge">
<title>Node7&#45;&gt;Node8</title>
<g id="a_edge7_Node000007_Node000008"><a xlink:title=" ">
<path fill="none" stroke="#63b8ff" d="M1336.42,-283.24C1307.47,-303.61 1265.97,-332.83 1240.32,-350.88"/>
<polygon fill="#63b8ff" stroke="#63b8ff" points="1338.31,-286.19 1344.47,-277.57 1334.28,-280.46 1338.31,-286.19"/>
</a>
</g>
</g>
<!-- Node7&#45;&gt;Node14 -->
<g id="edge31_Node000007_Node000014" class="edge">
<title>Node7&#45;&gt;Node14</title>
<g id="a_edge31_Node000007_Node000014"><a xlink:title=" ">
<path fill="none" stroke="#63b8ff" d="M1350.94,-235C1307.66,-178.22 1192.25,-45.21 1060.88,-45.21 1060.88,-45.21 1060.88,-45.21 562.75,-45.21 461.04,-45.21 420.95,-26.43 337.25,-84.21 281.41,-122.76 253.34,-205.68 244.92,-234.82"/>
<polygon fill="#63b8ff" stroke="#63b8ff" points="1348.02,-236.93 1356.81,-242.84 1353.62,-232.74 1348.02,-236.93"/>
</a>
</g>
</g>
<!-- Node22 -->
<g id="Node000022" class="node">
<title>Node22</title>
<g id="a_Node000022"><a xlink:href="class_data_base_g_u_i.html#aa684465aa73b5b34bbadd24fc7f2f641" target="_top" xlink:title="Selects the appropriate sorting to use based on child sort index.">
<polygon fill="white" stroke="#666666" points="1274,-213.21 1158.25,-213.21 1158.25,-181.21 1274,-181.21 1274,-213.21"/>
<text text-anchor="start" x="1166.25" y="-199.71" font-family="Helvetica,sans-Serif" font-size="10.00">DataBaseGUI::sort_to</text>
<text text-anchor="middle" x="1216.12" y="-187.71" font-family="Helvetica,sans-Serif" font-size="10.00">_populate_children_tab</text>
</a>
</g>
</g>
<!-- Node7&#45;&gt;Node22 -->
<g id="edge32_Node000007_Node000022" class="edge">
<title>Node7&#45;&gt;Node22</title>
<g id="a_edge32_Node000007_Node000022"><a xlink:title=" ">
<path fill="none" stroke="#63b8ff" d="M1318.99,-239.43C1298.76,-231.05 1275.75,-221.51 1256.73,-213.63"/>
<polygon fill="#63b8ff" stroke="#63b8ff" points="1317.61,-242.65 1328.19,-243.24 1320.29,-236.18 1317.61,-242.65"/>
</a>
</g>
</g>
<!-- Node9 -->
<g id="Node000009" class="node">
<title>Node9</title>
<g id="a_Node000009"><a xlink:href="class_data_base_g_u_i.html#aadb0e7d323a970603312695c0dd9b264" target="_top" xlink:title="Searches for children based on the provided child pointer.">
<polygon fill="white" stroke="#666666" points="1111.75,-421.21 1008,-421.21 1008,-389.21 1111.75,-389.21 1111.75,-421.21"/>
<text text-anchor="start" x="1016" y="-407.71" font-family="Helvetica,sans-Serif" font-size="10.00">DataBaseGUI::child</text>
<text text-anchor="middle" x="1059.88" y="-395.71" font-family="Helvetica,sans-Serif" font-size="10.00">_search_by_pointer</text>
</a>
</g>
</g>
<!-- Node8&#45;&gt;Node9 -->
<g id="edge8_Node000008_Node000009" class="edge">
<title>Node8&#45;&gt;Node9</title>
<g id="a_edge8_Node000008_Node000009"><a xlink:title=" ">
<path fill="none" stroke="#63b8ff" d="M1152.61,-382.61C1139.12,-385.94 1125.01,-389.41 1112.01,-392.61"/>
<polygon fill="#63b8ff" stroke="#63b8ff" points="1153.42,-386.02 1162.29,-380.23 1151.75,-379.22 1153.42,-386.02"/>
</a>
</g>
</g>
<!-- Node8&#45;&gt;Node14 -->
<g id="edge30_Node000008_Node000014" class="edge">
<title>Node8&#45;&gt;Node14</title>
<g id="a_edge30_Node000008_Node000014"><a xlink:title=" ">
<path fill="none" stroke="#63b8ff" d="M1152.78,-356.96C998.9,-331.79 603.89,-268.08 471,-255.21 410.83,-249.39 341.42,-246.95 294.96,-245.94"/>
<polygon fill="#63b8ff" stroke="#63b8ff" points="1151.95,-360.37 1162.38,-358.53 1153.08,-353.46 1151.95,-360.37"/>
</a>
</g>
</g>
<!-- Node9&#45;&gt;Node2 -->
<g id="edge28_Node000009_Node000002" class="edge">
<title>Node9&#45;&gt;Node2</title>
<g id="a_edge28_Node000009_Node000002"><a xlink:title=" ">
<path fill="none" stroke="#63b8ff" d="M1034.37,-429.55C1000.22,-463.46 939.25,-524.02 910.12,-552.95"/>
<polygon fill="#63b8ff" stroke="#63b8ff" points="1036.74,-432.13 1041.36,-422.6 1031.8,-427.17 1036.74,-432.13"/>
</a>
</g>
</g>
<!-- Node9&#45;&gt;Node3 -->
<g id="edge29_Node000009_Node000003" class="edge">
<title>Node9&#45;&gt;Node3</title>
<g id="a_edge29_Node000009_Node000003"><a xlink:title=" ">
<path fill="none" stroke="#63b8ff" d="M1123.25,-412.28C1185.45,-418.72 1283.77,-427.21 1369.12,-427.21 1522.5,-427.21 1522.5,-427.21 1522.5,-427.21 1611.91,-427.21 1713.26,-455.08 1771.12,-473.74"/>
<polygon fill="#63b8ff" stroke="#63b8ff" points="1123.88,-408.83 1113.57,-411.27 1123.15,-415.79 1123.88,-408.83"/>
</a>
</g>
</g>
<!-- Node10 -->
<g id="Node000010" class="node">
<title>Node10</title>
<g id="a_Node000010"><a xlink:href="class_data_base_g_u_i.html#aadcf1044a300a89dadd104cfadb9a1b1" target="_top" xlink:title="Views a lesson in the GUI.">
<polygon fill="white" stroke="#666666" points="961.5,-403.21 824,-403.21 824,-383.21 961.5,-383.21 961.5,-403.21"/>
<text text-anchor="middle" x="892.75" y="-389.71" font-family="Helvetica,sans-Serif" font-size="10.00">DataBaseGUI::lesson_view</text>
</a>
</g>
</g>
<!-- Node9&#45;&gt;Node10 -->
<g id="edge9_Node000009_Node000010" class="edge">
<title>Node9&#45;&gt;Node10</title>
<g id="a_edge9_Node000009_Node000010"><a xlink:title=" ">
<path fill="none" stroke="#63b8ff" d="M996.07,-400.65C984.85,-399.83 973.12,-398.98 961.76,-398.15"/>
<polygon fill="#63b8ff" stroke="#63b8ff" points="995.8,-404.14 1006.02,-401.37 996.3,-397.16 995.8,-404.14"/>
</a>
</g>
</g>
<!-- Node10&#45;&gt;Node10 -->
<g id="edge10_Node000010_Node000010" class="edge">
<title>Node10&#45;&gt;Node10</title>
<g id="a_edge10_Node000010_Node000010"><a xlink:title=" ">
<path fill="none" stroke="#63b8ff" d="M922.29,-414.65C918.48,-418.51 908.64,-421.21 892.75,-421.21 863.7,-421.21 854.85,-412.19 866.2,-403.55"/>
<polygon fill="#63b8ff" stroke="#63b8ff" points="925.67,-413.76 919.7,-405.01 918.91,-415.58 925.67,-413.76"/>
</a>
</g>
</g>
<!-- Node11 -->
<g id="Node000011" class="node">
<title>Node11</title>
<g id="a_Node000011"><a xlink:href="class_data_base_g_u_i.html#a74e047889e913eae69ec40ec17f53c9d" target="_top" xlink:title="Populates the lessons tab with a multimap of lessons.">
<polygon fill="white" stroke="#666666" points="301.25,-519.21 181,-519.21 181,-487.21 301.25,-487.21 301.25,-519.21"/>
<text text-anchor="start" x="189" y="-505.71" font-family="Helvetica,sans-Serif" font-size="10.00">DataBaseGUI::populate</text>
<text text-anchor="middle" x="241.12" y="-493.71" font-family="Helvetica,sans-Serif" font-size="10.00">_lesson_tab</text>
</a>
</g>
</g>
<!-- Node10&#45;&gt;Node11 -->
<g id="edge11_Node000010_Node000011" class="edge">
<title>Node10&#45;&gt;Node11</title>
<g id="a_edge11_Node000010_Node000011"><a xlink:title=" ">
<path fill="none" stroke="#63b8ff" d="M884.7,-414.42C871.8,-449.38 840.78,-518.11 788,-547.21 618.36,-640.75 372.96,-557.52 279.86,-519.65"/>
<polygon fill="#63b8ff" stroke="#63b8ff" points="887.99,-415.61 888.01,-405.02 881.39,-413.29 887.99,-415.61"/>
</a>
</g>
</g>
<!-- Node12 -->
<g id="Node000012" class="node">
<title>Node12</title>
<g id="a_Node000012"><a xlink:href="class_data_base_g_u_i.html#aa6b02e4e81b0113fb1c75d7d5ef0be59" target="_top" xlink:title="Populates the lessons tab with a list of lessons.">
<polygon fill="white" stroke="#666666" points="782.38,-410.21 662.12,-410.21 662.12,-378.21 782.38,-378.21 782.38,-410.21"/>
<text text-anchor="start" x="670.12" y="-396.71" font-family="Helvetica,sans-Serif" font-size="10.00">DataBaseGUI::populate</text>
<text text-anchor="middle" x="722.25" y="-384.71" font-family="Helvetica,sans-Serif" font-size="10.00">_lesson_tab</text>
</a>
</g>
</g>
<!-- Node10&#45;&gt;Node12 -->
<g id="edge12_Node000010_Node000012" class="edge">
<title>Node10&#45;&gt;Node12</title>
<g id="a_edge12_Node000010_Node000012"><a xlink:title=" ">
<path fill="none" stroke="#63b8ff" d="M812.44,-393.68C802.4,-393.74 792.26,-393.8 782.61,-393.86"/>
<polygon fill="#63b8ff" stroke="#63b8ff" points="812.21,-397.18 822.19,-393.63 812.17,-390.18 812.21,-397.18"/>
</a>
</g>
</g>
<!-- Node13 -->
<g id="Node000013" class="node">
<title>Node13</title>
<g id="a_Node000013"><a xlink:href="class_data_base_g_u_i.html#a55b3c6d3607f17f55d4c321e97fdce7f" target="_top" xlink:title="Searches for lessons based on the provided child name and surname.">
<polygon fill="white" stroke="#666666" points="619.75,-325.21 507.75,-325.21 507.75,-293.21 619.75,-293.21 619.75,-325.21"/>
<text text-anchor="start" x="515.75" y="-311.71" font-family="Helvetica,sans-Serif" font-size="10.00">DataBaseGUI::lesson</text>
<text text-anchor="middle" x="563.75" y="-299.71" font-family="Helvetica,sans-Serif" font-size="10.00">_search</text>
</a>
</g>
</g>
<!-- Node12&#45;&gt;Node13 -->
<g id="edge13_Node000012_Node000013" class="edge">
<title>Node12&#45;&gt;Node13</title>
<g id="a_edge13_Node000012_Node000013"><a xlink:title=" ">
<path fill="none" stroke="#63b8ff" d="M684.46,-372.19C665.53,-361.07 641.97,-347.57 620.5,-336.21 613.85,-332.69 606.66,-329.08 599.74,-325.68"/>
<polygon fill="#63b8ff" stroke="#63b8ff" points="682.48,-375.09 692.87,-377.16 686.04,-369.06 682.48,-375.09"/>
</a>
</g>
</g>
<!-- Node17 -->
<g id="Node000017" class="node">
<title>Node17</title>
<g id="a_Node000017"><a xlink:href="class_data_base_g_u_i.html#a1ad152b7becf3e0051cdd5dbae6d4abc" target="_top" xlink:title="Selects the appropriate sorting to use based on lesson sort index.">
<polygon fill="white" stroke="#666666" points="620.5,-377.21 507,-377.21 507,-345.21 620.5,-345.21 620.5,-377.21"/>
<text text-anchor="start" x="515" y="-363.71" font-family="Helvetica,sans-Serif" font-size="10.00">DataBaseGUI::sort_to</text>
<text text-anchor="middle" x="563.75" y="-351.71" font-family="Helvetica,sans-Serif" font-size="10.00">_populate_lesson_tab</text>
</a>
</g>
</g>
<!-- Node12&#45;&gt;Node17 -->
<g id="edge17_Node000012_Node000017" class="edge">
<title>Node12&#45;&gt;Node17</title>
<g id="a_edge17_Node000012_Node000017"><a xlink:title=" ">
<path fill="none" stroke="#63b8ff" d="M650.52,-379.3C640.57,-377.2 630.47,-375.07 620.85,-373.04"/>
<polygon fill="#63b8ff" stroke="#63b8ff" points="649.65,-382.69 660.16,-381.33 651.09,-375.84 649.65,-382.69"/>
</a>
</g>
</g>
<!-- Node13&#45;&gt;Node14 -->
<g id="edge14_Node000013_Node000014" class="edge">
<title>Node13&#45;&gt;Node14</title>
<g id="a_edge14_Node000013_Node000014"><a xlink:title=" ">
<path fill="none" stroke="#63b8ff" d="M497.84,-289.85C488.86,-287.46 479.73,-285.17 471,-283.21 411.26,-269.83 341.77,-258.94 295.17,-252.31"/>
<polygon fill="#63b8ff" stroke="#63b8ff" points="496.64,-293.15 507.21,-292.41 498.48,-286.4 496.64,-293.15"/>
</a>
</g>
</g>
<!-- Node15 -->
<g id="Node000015" class="node">
<title>Node15</title>
<g id="a_Node000015"><a xlink:href="class_data_base_g_u_i.html#a2c83afe3a30fb5166d275d9a74d33196" target="_top" xlink:title="Default constructor.">
<polygon fill="white" stroke="#666666" points="145,-274.21 0,-274.21 0,-254.21 145,-254.21 145,-274.21"/>
<text text-anchor="middle" x="72.5" y="-260.71" font-family="Helvetica,sans-Serif" font-size="10.00">DataBaseGUI::DataBaseGUI</text>
</a>
</g>
</g>
<!-- Node14&#45;&gt;Node15 -->
<g id="edge15_Node000014_Node000015" class="edge">
<title>Node14&#45;&gt;Node15</title>
<g id="a_edge15_Node000014_Node000015"><a xlink:title=" ">
<path fill="none" stroke="#63b8ff" d="M175.53,-252.58C165.64,-253.71 155.37,-254.88 145.32,-256.02"/>
<polygon fill="#63b8ff" stroke="#63b8ff" points="175.9,-256.06 185.44,-251.45 175.11,-249.1 175.9,-256.06"/>
</a>
</g>
</g>
<!-- Node16 -->
<g id="Node000016" class="node">
<title>Node16</title>
<g id="a_Node000016"><a xlink:href="class_data_base_g_u_i.html#aba10d1d8e9fb151632ff34de418cee82" target="_top" xlink:title="Constructs a DataBaseGUI object.">
<polygon fill="white" stroke="#666666" points="145,-236.21 0,-236.21 0,-216.21 145,-216.21 145,-236.21"/>
<text text-anchor="middle" x="72.5" y="-222.71" font-family="Helvetica,sans-Serif" font-size="10.00">DataBaseGUI::DataBaseGUI</text>
</a>
</g>
</g>
<!-- Node14&#45;&gt;Node16 -->
<g id="edge16_Node000014_Node000016" class="edge">
<title>Node14&#45;&gt;Node16</title>
<g id="a_edge16_Node000014_Node000016"><a xlink:title=" ">
<path fill="none" stroke="#63b8ff" d="M175.53,-237.85C165.64,-236.72 155.37,-235.55 145.32,-234.4"/>
<polygon fill="#63b8ff" stroke="#63b8ff" points="175.11,-241.32 185.44,-238.98 175.9,-234.37 175.11,-241.32"/>
</a>
</g>
</g>
<!-- Node17&#45;&gt;Node10 -->
<g id="edge25_Node000017_Node000010" class="edge">
<title>Node17&#45;&gt;Node10</title>
<g id="a_edge25_Node000017_Node000010"><a xlink:title=" ">
<path fill="none" stroke="#63b8ff" d="M632.21,-360.28C676.65,-360.49 736.01,-362.33 788,-369.21 810.36,-372.17 834.97,-377.76 854.61,-382.8"/>
<polygon fill="#63b8ff" stroke="#63b8ff" points="632.48,-356.78 622.48,-360.26 632.47,-363.78 632.48,-356.78"/>
</a>
</g>
</g>
<!-- Node18 -->
<g id="Node000018" class="node">
<title>Node18</title>
<g id="a_Node000018"><a xlink:href="class_data_base_g_u_i.html#a778bdaec7f9281df4c0ead66c9dcffd2" target="_top" xlink:title="Adds a new lesson to the database.">
<polygon fill="white" stroke="#666666" points="470.62,-312.21 337.62,-312.21 337.62,-292.21 470.62,-292.21 470.62,-312.21"/>
<text text-anchor="middle" x="404.12" y="-298.71" font-family="Helvetica,sans-Serif" font-size="10.00">DataBaseGUI::lesson_add</text>
</a>
</g>
</g>
<!-- Node17&#45;&gt;Node18 -->
<g id="edge18_Node000017_Node000018" class="edge">
<title>Node17&#45;&gt;Node18</title>
<g id="a_edge18_Node000017_Node000018"><a xlink:title=" ">
<path fill="none" stroke="#63b8ff" d="M517.56,-340.12C502.87,-333.64 486.39,-326.76 471,-321.21 462.49,-318.14 453.23,-315.22 444.41,-312.63"/>
<polygon fill="#63b8ff" stroke="#63b8ff" points="515.95,-343.23 526.51,-344.12 518.81,-336.84 515.95,-343.23"/>
</a>
</g>
</g>
<!-- Node19 -->
<g id="Node000019" class="node">
<title>Node19</title>
<g id="a_Node000019"><a xlink:href="class_data_base_g_u_i.html#a66a3e89a9852de3522d98f2c1f8cdeed" target="_top" xlink:title="Removes a lesson from the database.">
<polygon fill="white" stroke="#666666" points="460.12,-456.21 348.12,-456.21 348.12,-424.21 460.12,-424.21 460.12,-456.21"/>
<text text-anchor="start" x="356.12" y="-442.71" font-family="Helvetica,sans-Serif" font-size="10.00">DataBaseGUI::lesson</text>
<text text-anchor="middle" x="404.12" y="-430.71" font-family="Helvetica,sans-Serif" font-size="10.00">_remove</text>
</a>
</g>
</g>
<!-- Node17&#45;&gt;Node19 -->
<g id="edge20_Node000017_Node000019" class="edge">
<title>Node17&#45;&gt;Node19</title>
<g id="a_edge20_Node000017_Node000019"><a xlink:title=" ">
<path fill="none" stroke="#63b8ff" d="M522.29,-382.85C506.38,-391.23 487.91,-400.82 471,-409.21 461.26,-414.05 450.64,-419.13 440.81,-423.75"/>
<polygon fill="#63b8ff" stroke="#63b8ff" points="523.79,-386.01 530.99,-378.24 520.52,-379.83 523.79,-386.01"/>
</a>
</g>
</g>
<!-- Node20 -->
<g id="Node000020" class="node">
<title>Node20</title>
<g id="a_Node000020"><a xlink:href="class_data_base_g_u_i.html#a0478b87f545d97b9e3ef55858242878b" target="_top" xlink:title="Changes the sorting method for lessons.">
<polygon fill="white" stroke="#666666" points="460.12,-400.21 348.12,-400.21 348.12,-368.21 460.12,-368.21 460.12,-400.21"/>
<text text-anchor="start" x="356.12" y="-386.71" font-family="Helvetica,sans-Serif" font-size="10.00">DataBaseGUI::lesson</text>
<text text-anchor="middle" x="404.12" y="-374.71" font-family="Helvetica,sans-Serif" font-size="10.00">_sort_change</text>
</a>
</g>
</g>
<!-- Node17&#45;&gt;Node20 -->
<g id="edge23_Node000017_Node000020" class="edge">
<title>Node17&#45;&gt;Node20</title>
<g id="a_edge23_Node000017_Node000020"><a xlink:title=" ">
<path fill="none" stroke="#63b8ff" d="M495.63,-371.01C483.89,-372.72 471.8,-374.48 460.43,-376.14"/>
<polygon fill="#63b8ff" stroke="#63b8ff" points="495.85,-374.51 505.24,-369.6 494.84,-367.59 495.85,-374.51"/>
</a>
</g>
</g>
<!-- Node21 -->
<g id="Node000021" class="node">
<title>Node21</title>
<g id="a_Node000021"><a xlink:href="class_data_base_g_u_i.html#a438b5070d6a58ffa5e884d18740852c6" target="_top" xlink:title="Handles tab change events.">
<polygon fill="white" stroke="#666666" points="471,-350.21 337.25,-350.21 337.25,-330.21 471,-330.21 471,-350.21"/>
<text text-anchor="middle" x="404.12" y="-336.71" font-family="Helvetica,sans-Serif" font-size="10.00">DataBaseGUI::tab_change</text>
</a>
</g>
</g>
<!-- Node17&#45;&gt;Node21 -->
<g id="edge26_Node000017_Node000021" class="edge">
<title>Node17&#45;&gt;Node21</title>
<g id="a_edge26_Node000017_Node000021"><a xlink:title=" ">
<path fill="none" stroke="#63b8ff" d="M495.58,-352.26C487.6,-351.2 479.45,-350.11 471.47,-349.05"/>
<polygon fill="#63b8ff" stroke="#63b8ff" points="494.86,-355.7 505.23,-353.55 495.78,-348.76 494.86,-355.7"/>
</a>
</g>
</g>
<!-- Node18&#45;&gt;Node14 -->
<g id="edge19_Node000018_Node000014" class="edge">
<title>Node18&#45;&gt;Node14</title>
<g id="a_edge19_Node000018_Node000014"><a xlink:title=" ">
<path fill="none" stroke="#63b8ff" d="M362.85,-287.95C334.55,-277.93 297.33,-264.76 271.74,-255.7"/>
<polygon fill="#63b8ff" stroke="#63b8ff" points="361.57,-291.21 372.17,-291.25 363.91,-284.62 361.57,-291.21"/>
</a>
</g>
</g>
<!-- Node19&#45;&gt;Node11 -->
<g id="edge21_Node000019_Node000011" class="edge">
<title>Node19&#45;&gt;Node11</title>
<g id="a_edge21_Node000019_Node000011"><a xlink:title=" ">
<path fill="none" stroke="#63b8ff" d="M350.61,-460.76C329.04,-469.2 304.41,-478.84 284.08,-486.8"/>
<polygon fill="#63b8ff" stroke="#63b8ff" points="351.8,-464.06 359.83,-457.15 349.25,-457.54 351.8,-464.06"/>
</a>
</g>
</g>
<!-- Node19&#45;&gt;Node12 -->
<g id="edge22_Node000019_Node000012" class="edge">
<title>Node19&#45;&gt;Node12</title>
<g id="a_edge22_Node000019_Node000012"><a xlink:title=" ">
<path fill="none" stroke="#63b8ff" d="M471.88,-430.5C528.09,-422.32 607.74,-410.73 661.79,-402.86"/>
<polygon fill="#63b8ff" stroke="#63b8ff" points="471.5,-427.02 462.11,-431.92 472.51,-433.94 471.5,-427.02"/>
</a>
</g>
</g>
<!-- Node20&#45;&gt;Node14 -->
<g id="edge24_Node000020_Node000014" class="edge">
<title>Node20&#45;&gt;Node14</title>
<g id="a_edge24_Node000020_Node000014"><a xlink:title=" ">
<path fill="none" stroke="#63b8ff" d="M342.02,-362.38C340.39,-361.37 338.79,-360.31 337.25,-359.21 295.68,-329.6 261.51,-277.6 248.16,-255.56"/>
<polygon fill="#63b8ff" stroke="#63b8ff" points="340.01,-365.27 350.45,-367.04 343.39,-359.14 340.01,-365.27"/>
</a>
</g>
</g>
<!-- Node21&#45;&gt;Node14 -->
<g id="edge27_Node000021_Node000014" class="edge">
<title>Node21&#45;&gt;Node14</title>
<g id="a_edge27_Node000021_Node000014"><a xlink:title=" ">
<path fill="none" stroke="#63b8ff" d="M347.34,-325.84C343.87,-324.42 340.47,-322.88 337.25,-321.21 302.71,-303.34 268.68,-271.9 252.27,-255.62"/>
<polygon fill="#63b8ff" stroke="#63b8ff" points="345.9,-329.04 356.49,-329.22 348.32,-322.47 345.9,-329.04"/>
</a>
</g>
</g>
<!-- Node22&#45;&gt;Node21 -->
<g id="edge45_Node000022_Node000021" class="edge">
<title>Node22&#45;&gt;Node21</title>
<g id="a_edge45_Node000022_Node000021"><a xlink:title=" ">
<path fill="none" stroke="#63b8ff" d="M1146.33,-202.32C1103.47,-205.73 1047.21,-210.6 997.5,-216.21 778.8,-240.9 703.38,-184.85 507,-284.21 486.53,-294.57 490.68,-309.42 471,-321.21 465.28,-324.64 458.91,-327.48 452.45,-329.82"/>
<polygon fill="#63b8ff" stroke="#63b8ff" points="1146.57,-205.81 1156.26,-201.54 1146.02,-198.84 1146.57,-205.81"/>
</a>
</g>
</g>
<!-- Node23 -->
<g id="Node000023" class="node">
<title>Node23</title>
<g id="a_Node000023"><a xlink:href="class_data_base_g_u_i.html#a00f9044d3b8dd9c5dada244dac1b0df6" target="_top" xlink:title="Adds a new child to the database.">
<polygon fill="white" stroke="#666666" points="955.12,-131.21 830.38,-131.21 830.38,-111.21 955.12,-111.21 955.12,-131.21"/>
<text text-anchor="middle" x="892.75" y="-117.71" font-family="Helvetica,sans-Serif" font-size="10.00">DataBaseGUI::child_add</text>
</a>
</g>
</g>
<!-- Node22&#45;&gt;Node23 -->
<g id="edge33_Node000022_Node000023" class="edge">
<title>Node22&#45;&gt;Node23</title>
<g id="a_edge33_Node000022_Node000023"><a xlink:title=" ">
<path fill="none" stroke="#63b8ff" d="M1182.75,-174.78C1165.55,-164.01 1143.6,-151.99 1122.25,-145.21 1067.51,-127.83 1002.05,-122.4 955.25,-120.99"/>
<polygon fill="#63b8ff" stroke="#63b8ff" points="1180.72,-177.64 1191.02,-180.12 1184.51,-171.75 1180.72,-177.64"/>
</a>
</g>
</g>
<!-- Node24 -->
<g id="Node000024" class="node">
<title>Node24</title>
<g id="a_Node000024"><a xlink:href="class_data_base_g_u_i.html#acb6c6b292e58d0ead30682f7f5705244" target="_top" xlink:title="Edits an existing child in the database.">
<polygon fill="white" stroke="#666666" points="1122.25,-245.21 997.5,-245.21 997.5,-225.21 1122.25,-225.21 1122.25,-245.21"/>
<text text-anchor="middle" x="1059.88" y="-231.71" font-family="Helvetica,sans-Serif" font-size="10.00">DataBaseGUI::child_edit</text>
</a>
</g>
</g>
<!-- Node22&#45;&gt;Node24 -->
<g id="edge35_Node000022_Node000024" class="edge">
<title>Node22&#45;&gt;Node24</title>
<g id="a_edge35_Node000022_Node000024"><a xlink:title=" ">
<path fill="none" stroke="#63b8ff" d="M1147.32,-213.92C1132.31,-217.61 1116.82,-221.43 1103.17,-224.79"/>
<polygon fill="#63b8ff" stroke="#63b8ff" points="1147.78,-217.41 1156.66,-211.62 1146.11,-210.61 1147.78,-217.41"/>
</a>
</g>
</g>
<!-- Node25 -->
<g id="Node000025" class="node">
<title>Node25</title>
<g id="a_Node000025"><a xlink:href="class_data_base_g_u_i.html#ae3a08843db874e51a7cea32fa8937ca5" target="_top" xlink:title="Removes a child from the database.">
<polygon fill="white" stroke="#666666" points="1111.75,-295.21 1008,-295.21 1008,-263.21 1111.75,-263.21 1111.75,-295.21"/>
<text text-anchor="start" x="1016" y="-281.71" font-family="Helvetica,sans-Serif" font-size="10.00">DataBaseGUI::child</text>
<text text-anchor="middle" x="1059.88" y="-269.71" font-family="Helvetica,sans-Serif" font-size="10.00">_remove</text>
</a>
</g>
</g>
<!-- Node22&#45;&gt;Node25 -->
<g id="edge38_Node000022_Node000025" class="edge">
<title>Node22&#45;&gt;Node25</title>
<g id="a_edge38_Node000022_Node000025"><a xlink:title=" ">
<path fill="none" stroke="#63b8ff" d="M1181.29,-219.83C1164.01,-230.89 1142.43,-244 1122.25,-254.21 1116.4,-257.17 1110.11,-260.06 1103.87,-262.75"/>
<polygon fill="#63b8ff" stroke="#63b8ff" points="1183.16,-222.78 1189.65,-214.41 1179.36,-216.91 1183.16,-222.78"/>
</a>
</g>
</g>
<!-- Node26 -->
<g id="Node000026" class="node">
<title>Node26</title>
<g id="a_Node000026"><a xlink:href="class_data_base_g_u_i.html#a2e6d3629f679c153cdd21b683ce794a1" target="_top" xlink:title="Changes the sorting method for children.">
<polygon fill="white" stroke="#666666" points="615.62,-107.21 511.88,-107.21 511.88,-75.21 615.62,-75.21 615.62,-107.21"/>
<text text-anchor="start" x="519.88" y="-93.71" font-family="Helvetica,sans-Serif" font-size="10.00">DataBaseGUI::child</text>
<text text-anchor="middle" x="563.75" y="-81.71" font-family="Helvetica,sans-Serif" font-size="10.00">_sort_change</text>
</a>
</g>
</g>
<!-- Node22&#45;&gt;Node26 -->
<g id="edge41_Node000022_Node000026" class="edge">
<title>Node22&#45;&gt;Node26</title>
<g id="a_edge41_Node000022_Node000026"><a xlink:title=" ">
<path fill="none" stroke="#63b8ff" d="M1193.51,-172.44C1176.19,-154.39 1150.23,-131.11 1122.25,-119.21 948.78,-45.47 717.09,-67.62 615.78,-82.52"/>
<polygon fill="#63b8ff" stroke="#63b8ff" points="1190.88,-174.76 1200.26,-179.7 1196.01,-169.99 1190.88,-174.76"/>
</a>
</g>
</g>
<!-- Node27 -->
<g id="Node000027" class="node">
<title>Node27</title>
<g id="a_Node000027"><a xlink:href="class_data_base_g_u_i.html#a20d1ece0affaa1f5b6876ee072dd2ab1" target="_top" xlink:title="Imports a database from a file.">
<polygon fill="white" stroke="#666666" points="777.5,-197.21 667,-197.21 667,-165.21 777.5,-165.21 777.5,-197.21"/>
<text text-anchor="start" x="675" y="-183.71" font-family="Helvetica,sans-Serif" font-size="10.00">DataBaseGUI::import</text>
<text text-anchor="middle" x="722.25" y="-171.71" font-family="Helvetica,sans-Serif" font-size="10.00">_database</text>
</a>
</g>
</g>
<!-- Node22&#45;&gt;Node27 -->
<g id="edge43_Node000022_Node000027" class="edge">
<title>Node22&#45;&gt;Node27</title>
<g id="a_edge43_Node000022_Node000027"><a xlink:title=" ">
<path fill="none" stroke="#63b8ff" d="M1146.41,-185.72C1138.28,-184.7 1130.1,-183.82 1122.25,-183.21 999.49,-173.7 854.84,-176.43 777.89,-178.99"/>
<polygon fill="#63b8ff" stroke="#63b8ff" points="1145.93,-189.18 1156.3,-187.05 1146.86,-182.25 1145.93,-189.18"/>
</a>
</g>
</g>
<!-- Node23&#45;&gt;Node14 -->
<g id="edge34_Node000023_Node000014" class="edge">
<title>Node23&#45;&gt;Node14</title>
<g id="a_edge34_Node000023_Node000014"><a xlink:title=" ">
<path fill="none" stroke="#63b8ff" d="M818.63,-120.79C710.53,-122.24 502.97,-133 337.25,-189.21 305.85,-199.86 273.45,-221.69 255.74,-234.73"/>
<polygon fill="#63b8ff" stroke="#63b8ff" points="818.57,-124.3 828.54,-120.69 818.5,-117.3 818.57,-124.3"/>
</a>
</g>
</g>
<!-- Node24&#45;&gt;Node6 -->
<g id="edge36_Node000024_Node000006" class="edge">
<title>Node24&#45;&gt;Node6</title>
<g id="a_edge36_Node000024_Node000006"><a xlink:title=" ">
<path fill="none" stroke="#63b8ff" d="M1008.64,-248.6C991.17,-253.25 971.42,-258.52 953.28,-263.35"/>
<polygon fill="#63b8ff" stroke="#63b8ff" points="1009.52,-251.99 1018.28,-246.03 1007.72,-245.22 1009.52,-251.99"/>
</a>
</g>
</g>
<!-- Node24&#45;&gt;Node7 -->
<g id="edge37_Node000024_Node000007" class="edge">
<title>Node24&#45;&gt;Node7</title>
<g id="a_edge37_Node000024_Node000007"><a xlink:title=" ">
<path fill="none" stroke="#63b8ff" d="M1133.66,-241.12C1187.34,-245.47 1259.47,-251.32 1309.69,-255.39"/>
<polygon fill="#63b8ff" stroke="#63b8ff" points="1134.26,-237.65 1124.01,-240.33 1133.69,-244.63 1134.26,-237.65"/>
</a>
</g>
</g>
<!-- Node25&#45;&gt;Node6 -->
<g id="edge39_Node000025_Node000006" class="edge">
<title>Node25&#45;&gt;Node6</title>
<g id="a_edge39_Node000025_Node000006"><a xlink:title=" ">
<path fill="none" stroke="#63b8ff" d="M996.38,-279.21C982.21,-279.21 967.19,-279.21 953.15,-279.21"/>
<polygon fill="#63b8ff" stroke="#63b8ff" points="996.02,-282.71 1006.02,-279.21 996.02,-275.71 996.02,-282.71"/>
</a>
</g>
</g>
<!-- Node25&#45;&gt;Node7 -->
<g id="edge40_Node000025_Node000007" class="edge">
<title>Node25&#45;&gt;Node7</title>
<g id="a_edge40_Node000025_Node000007"><a xlink:title=" ">
<path fill="none" stroke="#63b8ff" d="M1123.43,-275.36C1177.86,-272 1256.2,-267.17 1309.69,-263.88"/>
<polygon fill="#63b8ff" stroke="#63b8ff" points="1123.47,-271.85 1113.71,-275.96 1123.91,-278.83 1123.47,-271.85"/>
</a>
</g>
</g>
<!-- Node26&#45;&gt;Node14 -->
<g id="edge42_Node000026_Node000014" class="edge">
<title>Node26&#45;&gt;Node14</title>
<g id="a_edge42_Node000026_Node000014"><a xlink:title=" ">
<path fill="none" stroke="#63b8ff" d="M500.34,-87.46C452.64,-87.38 386.86,-93.51 337.25,-122.21 290.05,-149.52 258.11,-210.32 246.74,-234.75"/>
<polygon fill="#63b8ff" stroke="#63b8ff" points="500.2,-90.96 510.24,-87.58 500.28,-83.96 500.2,-90.96"/>
</a>
</g>
</g>
<!-- Node27&#45;&gt;Node14 -->
<g id="edge44_Node000027_Node000014" class="edge">
<title>Node27&#45;&gt;Node14</title>
<g id="a_edge44_Node000027_Node000014"><a xlink:title=" ">
<path fill="none" stroke="#63b8ff" d="M655.14,-181.49C578.04,-182.98 447.13,-189.11 337.25,-212.21 312.62,-217.39 285.6,-227.19 266.67,-234.76"/>
<polygon fill="#63b8ff" stroke="#63b8ff" points="655.12,-184.99 665.06,-181.32 655,-177.99 655.12,-184.99"/>
</a>
</g>
</g>
<!-- Node28&#45;&gt;Node1 -->
<g id="edge50_Node000028_Node000001" class="edge">
<title>Node28&#45;&gt;Node1</title>
<g id="a_edge50_Node000028_Node000001"><a xlink:title=" ">
<path fill="none" stroke="#63b8ff" d="M1263.57,-510.99C1322.2,-535.28 1426.76,-572.21 1520.5,-572.21 1669,-572.21 1669,-572.21 1669,-572.21 1754.11,-572.21 1852.31,-572.21 1915.27,-572.21"/>
<polygon fill="#63b8ff" stroke="#63b8ff" points="1265.13,-507.85 1254.56,-507.2 1262.42,-514.3 1265.13,-507.85"/>
</a>
</g>
</g>
<!-- Node28&#45;&gt;Node21 -->
<g id="edge56_Node000028_Node000021" class="edge">
<title>Node28&#45;&gt;Node21</title>
<g id="a_edge56_Node000028_Node000021"><a xlink:title=" ">
<path fill="none" stroke="#63b8ff" d="M1147.58,-483.63C1042.25,-472.91 832.67,-449.79 656.5,-419.21 589.46,-407.58 568.84,-414.6 507,-386.21 488.82,-377.87 488.9,-368.13 471,-359.21 464.29,-355.87 456.89,-353.02 449.55,-350.63"/>
<polygon fill="#63b8ff" stroke="#63b8ff" points="1147.17,-487.11 1157.47,-484.63 1147.87,-480.14 1147.17,-487.11"/>
</a>
</g>
</g>
<!-- Node29 -->
<g id="Node000029" class="node">
<title>Node29</title>
<g id="a_Node000029"><a xlink:href="class_data_base_g_u_i.html#a336fa47d9a9e56d585d82f53d33e8593" target="_top" xlink:title="Adds a new parent to the database.">
<polygon fill="white" stroke="#666666" points="788,-488.21 656.5,-488.21 656.5,-468.21 788,-468.21 788,-488.21"/>
<text text-anchor="middle" x="722.25" y="-474.71" font-family="Helvetica,sans-Serif" font-size="10.00">DataBaseGUI::parent_add</text>
</a>
</g>
</g>
<!-- Node28&#45;&gt;Node29 -->
<g id="edge48_Node000028_Node000029" class="edge">
<title>Node28&#45;&gt;Node29</title>
<g id="a_edge48_Node000028_Node000029"><a xlink:title=" ">
<path fill="none" stroke="#63b8ff" d="M1147.75,-488.57C1053.11,-486.26 881.96,-482.08 788.49,-479.8"/>
<polygon fill="#63b8ff" stroke="#63b8ff" points="1147.58,-492.07 1157.67,-488.81 1147.75,-485.07 1147.58,-492.07"/>
</a>
</g>
</g>
<!-- Node30 -->
<g id="Node000030" class="node">
<title>Node30</title>
<g id="a_Node000030"><a xlink:href="class_data_base_g_u_i.html#ad8a42f24cdb603ba85c1cdd4ea2e73a4" target="_top" xlink:title="Removes a parent from the database.">
<polygon fill="white" stroke="#666666" points="1115.12,-585.21 1004.62,-585.21 1004.62,-553.21 1115.12,-553.21 1115.12,-585.21"/>
<text text-anchor="start" x="1012.62" y="-571.71" font-family="Helvetica,sans-Serif" font-size="10.00">DataBaseGUI::parent</text>
<text text-anchor="middle" x="1059.88" y="-559.71" font-family="Helvetica,sans-Serif" font-size="10.00">_remove</text>
</a>
</g>
</g>
<!-- Node28&#45;&gt;Node30 -->
<g id="edge51_Node000028_Node000030" class="edge">
<title>Node28&#45;&gt;Node30</title>
<g id="a_edge51_Node000028_Node000030"><a xlink:title=" ">
<path fill="none" stroke="#63b8ff" d="M1174.05,-511.87C1168.74,-514.68 1163.36,-517.51 1158.25,-520.21 1142.25,-528.65 1138.38,-531.02 1122.25,-539.21 1113.47,-543.67 1103.94,-548.39 1095.06,-552.74"/>
<polygon fill="#63b8ff" stroke="#63b8ff" points="1175.58,-515.03 1182.79,-507.27 1172.31,-508.84 1175.58,-515.03"/>
</a>
</g>
</g>
<!-- Node31 -->
<g id="Node000031" class="node">
<title>Node31</title>
<g id="a_Node000031"><a xlink:href="class_data_base_g_u_i.html#a783bdf1d65998f887dd6445741450480" target="_top" xlink:title="Changes the sorting method for parents.">
<polygon fill="white" stroke="#666666" points="777.5,-538.21 667,-538.21 667,-506.21 777.5,-506.21 777.5,-538.21"/>
<text text-anchor="start" x="675" y="-524.71" font-family="Helvetica,sans-Serif" font-size="10.00">DataBaseGUI::parent</text>
<text text-anchor="middle" x="722.25" y="-512.71" font-family="Helvetica,sans-Serif" font-size="10.00">_sort_change</text>
</a>
</g>
</g>
<!-- Node28&#45;&gt;Node31 -->
<g id="edge54_Node000028_Node000031" class="edge">
<title>Node28&#45;&gt;Node31</title>
<g id="a_edge54_Node000028_Node000031"><a xlink:title=" ">
<path fill="none" stroke="#63b8ff" d="M1147.93,-497.87C1139.29,-498.73 1130.57,-499.54 1122.25,-500.21 999.34,-510.21 854.75,-516.93 777.85,-520.1"/>
<polygon fill="#63b8ff" stroke="#63b8ff" points="1148.08,-501.37 1157.68,-496.87 1147.37,-494.41 1148.08,-501.37"/>
</a>
</g>
</g>
<!-- Node29&#45;&gt;Node14 -->
<g id="edge49_Node000029_Node000014" class="edge">
<title>Node29&#45;&gt;Node14</title>
<g id="a_edge49_Node000029_Node000014"><a xlink:title=" ">
<path fill="none" stroke="#63b8ff" d="M644.85,-485C547.34,-492.08 385.5,-498.1 337.25,-465.21 262.64,-414.36 246.17,-291.64 242.88,-255.43"/>
<polygon fill="#63b8ff" stroke="#63b8ff" points="644.9,-488.5 654.61,-484.26 644.37,-481.52 644.9,-488.5"/>
</a>
</g>
</g>
<!-- Node30&#45;&gt;Node2 -->
<g id="edge52_Node000030_Node000002" class="edge">
<title>Node30&#45;&gt;Node2</title>
<g id="a_edge52_Node000030_Node000002"><a xlink:title=" ">
<path fill="none" stroke="#63b8ff" d="M993.02,-569.21C979.91,-569.21 966.22,-569.21 953.34,-569.21"/>
<polygon fill="#63b8ff" stroke="#63b8ff" points="992.84,-572.71 1002.84,-569.21 992.84,-565.71 992.84,-572.71"/>
</a>
</g>
</g>
<!-- Node30&#45;&gt;Node3 -->
<g id="edge53_Node000030_Node000003" class="edge">
<title>Node30&#45;&gt;Node3</title>
<g id="a_edge53_Node000030_Node000003"><a xlink:title=" ">
<path fill="none" stroke="#63b8ff" d="M1126.73,-557.37C1188.97,-547.22 1285.08,-534.21 1369.12,-534.21 1522.5,-534.21 1522.5,-534.21 1522.5,-534.21 1605.2,-534.21 1699.51,-517.19 1758.97,-504.32"/>
<polygon fill="#63b8ff" stroke="#63b8ff" points="1126.3,-553.89 1117,-558.98 1127.44,-560.8 1126.3,-553.89"/>
</a>
</g>
</g>
<!-- Node31&#45;&gt;Node14 -->
<g id="edge55_Node000031_Node000014" class="edge">
<title>Node31&#45;&gt;Node14</title>
<g id="a_edge55_Node000031_Node000014"><a xlink:title=" ">
<path fill="none" stroke="#63b8ff" d="M655.38,-536.41C572.53,-550.26 429.91,-560.37 337.25,-491.21 257.07,-431.37 244.46,-294.47 242.49,-255.65"/>
<polygon fill="#63b8ff" stroke="#63b8ff" points="655.93,-539.86 665.17,-534.69 654.72,-532.97 655.93,-539.86"/>
</a>
</g>
</g>
</g>
</svg>

<g id="navigator" transform="translate(0 0)" fill="#404254">
  <rect fill="#f2f5e9" fill-opacity="0.5" stroke="#606060" stroke-width=".5" x="0" y="0" width="60" height="60"/>
  <use id="zoomplus" xlink:href="#zoomPlus" x="17" y="9" onmousedown="handleZoom(evt,'in')"/>
  <use id="zoomminus" xlink:href="#zoomMin" x="42" y="9" onmousedown="handleZoom(evt,'out')"/>
  <use id="reset" xlink:href="#resetDef" x="30" y="36" onmousedown="handleReset()"/>
   <use id="arrowup" xlink:href="#arrowUp" x="0" y="0" onmousedown="handlePan(0,-1)"/>
  <use id="arrowright" xlink:href="#arrowRight" x="0" y="0" onmousedown="handlePan(1,0)"/>
  <use id="arrowdown" xlink:href="#arrowDown" x="0" y="0" onmousedown="handlePan(0,1)"/>
  <use id="arrowleft" xlink:href="#arrowLeft" x="0" y="0" onmousedown="handlePan(-1,0)"/>
</g>
<svg viewBox="0 0 15 15" width="100%" height="30px" preserveAspectRatio="xMaxYMin meet">
 <g id="arrow_out" transform="scale(0.3 0.3)">
  <a xlink:href="class_data_base_g_u_i_a5b049fb9e0e5d78c4c2e81e569b471f9_icgraph_org.svg" target="_base">
   <rect id="button" ry="5" rx="5" y="6" x="6" height="38" width="38"
        fill="#f2f5e9" fill-opacity="0.5" stroke="#606060" stroke-width="1.0"/>
   <path id="arrow"
     d="M 11.500037,31.436501 C 11.940474,20.09759 22.043105,11.32322 32.158766,21.979434 L 37.068811,17.246167 C 37.068811,17.246167 37.088388,32 37.088388,32 L 22.160133,31.978069 C 22.160133,31.978069 26.997745,27.140456 26.997745,27.140456 C 18.528582,18.264221 13.291696,25.230495 11.500037,31.436501 z"
     style="fill:#404040;"/>
  </a>
 </g>
</svg>

<style type='text/css'>
<![CDATA[
[data-mouse-over-selected='false'] { opacity: 0.7; }
[data-mouse-over-selected='true']  { opacity: 1.0; }
]]>
</style>
<script type="application/ecmascript"><![CDATA[
document.addEventListener('DOMContentLoaded', (event) => {
  highlightEdges();
  highlightAdjacentNodes();
});
]]></script>
</svg>
