<?xml version="1.0" encoding="UTF-8" standalone="no"?>
<!DOCTYPE svg PUBLIC "-//W3C//DTD SVG 1.1//EN"
 "http://www.w3.org/Graphics/SVG/1.1/DTD/svg11.dtd">
<!-- Generated by graphviz version 12.2.1 (20241206.2353)
 -->
<!-- Title: DataBaseGUI::employee_search Pages: 1 -->
<svg width="654pt" height="235pt"
 viewBox="0.00 0.00 654.00 235.18" xmlns="http://www.w3.org/2000/svg" xmlns:xlink="http://www.w3.org/1999/xlink">
<g id="graph0" class="graph" transform="scale(1 1) rotate(0) translate(4 231.18)">
<title>DataBaseGUI::employee_search</title>
<!-- Node1 -->
<g id="Node000001" class="node">
<title>Node1</title>
<g id="a_Node000001"><a xlink:title="Searches for employees based on the provided name and surname.">
<polygon fill="#999999" stroke="#666666" points="125.5,-126.18 0,-126.18 0,-94.18 125.5,-94.18 125.5,-126.18"/>
<text text-anchor="start" x="8" y="-112.68" font-family="Helvetica,sans-Serif" font-size="10.00">DataBaseGUI::employee</text>
<text text-anchor="middle" x="62.75" y="-100.68" font-family="Helvetica,sans-Serif" font-size="10.00">_search</text>
</a>
</g>
</g>
<!-- Node2 -->
<g id="Node000002" class="node">
<title>Node2</title>
<g id="a_Node000002"><a xlink:href="class_data_base_g_u_i.html#abab0899c6a55e240687bf21734273428" target="_top" xlink:title="Populates the parent tab with a list of parents.">
<polygon fill="white" stroke="#666666" points="281.75,-126.18 161.5,-126.18 161.5,-94.18 281.75,-94.18 281.75,-126.18"/>
<text text-anchor="start" x="169.5" y="-112.68" font-family="Helvetica,sans-Serif" font-size="10.00">DataBaseGUI::populate</text>
<text text-anchor="middle" x="221.62" y="-100.68" font-family="Helvetica,sans-Serif" font-size="10.00">_employee_tab</text>
</a>
</g>
</g>
<!-- Node1&#45;&gt;Node2 -->
<g id="edge1_Node000001_Node000002" class="edge">
<title>Node1&#45;&gt;Node2</title>
<g id="a_edge1_Node000001_Node000002"><a xlink:title=" ">
<path fill="none" stroke="#63b8ff" d="M125.75,-110.18C133.67,-110.18 141.82,-110.18 149.86,-110.18"/>
<polygon fill="#63b8ff" stroke="#63b8ff" points="149.61,-113.68 159.61,-110.18 149.61,-106.68 149.61,-113.68"/>
</a>
</g>
</g>
<!-- Node3 -->
<g id="Node000003" class="node">
<title>Node3</title>
<g id="a_Node000003"><a xlink:href="class_employee_entry.html#ada71cffbda6a2614d266a6cc85d6684a" target="_top" xlink:title="Signal emitted when a employee edit is requested.">
<polygon fill="white" stroke="#666666" points="477.75,-227.18 326,-227.18 326,-207.18 477.75,-207.18 477.75,-227.18"/>
<text text-anchor="middle" x="401.88" y="-213.68" font-family="Helvetica,sans-Serif" font-size="10.00">EmployeeEntry::editRequested</text>
</a>
</g>
</g>
<!-- Node2&#45;&gt;Node3 -->
<g id="edge2_Node000002_Node000003" class="edge">
<title>Node2&#45;&gt;Node3</title>
<g id="a_edge2_Node000002_Node000003"><a xlink:title=" ">
<path fill="none" stroke="#63b8ff" d="M235.58,-126.55C252.35,-146.6 283.53,-180.12 317.75,-198.18 321.02,-199.91 324.45,-201.48 327.97,-202.91"/>
<polygon fill="#63b8ff" stroke="#63b8ff" points="326.72,-206.18 337.32,-206.27 329.09,-199.59 326.72,-206.18"/>
</a>
</g>
</g>
<!-- Node4 -->
<g id="Node000004" class="node">
<title>Node4</title>
<g id="a_Node000004"><a xlink:href="class_data_base_g_u_i.html#ae9c0b91905f7d70563c285cd9b5dace3" target="_top" xlink:title="Edits an existing employee in the database.">
<polygon fill="white" stroke="#666666" points="475.12,-189.18 328.62,-189.18 328.62,-169.18 475.12,-169.18 475.12,-189.18"/>
<text text-anchor="middle" x="401.88" y="-175.68" font-family="Helvetica,sans-Serif" font-size="10.00">DataBaseGUI::employee_edit</text>
</a>
</g>
</g>
<!-- Node2&#45;&gt;Node4 -->
<g id="edge3_Node000002_Node000004" class="edge">
<title>Node2&#45;&gt;Node4</title>
<g id="a_edge3_Node000002_Node000004"><a xlink:title=" ">
<path fill="none" stroke="#63b8ff" d="M249.23,-126.56C267.85,-137.42 293.6,-151.25 317.75,-160.18 323.16,-162.18 328.86,-164.02 334.62,-165.69"/>
<polygon fill="#63b8ff" stroke="#63b8ff" points="333.7,-169.06 344.27,-168.3 335.53,-162.31 333.7,-169.06"/>
</a>
</g>
</g>
<!-- Node6 -->
<g id="Node000006" class="node">
<title>Node6</title>
<g id="a_Node000006"><a xlink:href="class_data_base_g_u_i.html#a4b70294327e9c316224af10d7a369749" target="_top" xlink:title="Removes an employee from the database.">
<polygon fill="white" stroke="#666666" points="464.62,-151.18 339.12,-151.18 339.12,-119.18 464.62,-119.18 464.62,-151.18"/>
<text text-anchor="start" x="347.12" y="-137.68" font-family="Helvetica,sans-Serif" font-size="10.00">DataBaseGUI::employee</text>
<text text-anchor="middle" x="401.88" y="-125.68" font-family="Helvetica,sans-Serif" font-size="10.00">_remove</text>
</a>
</g>
</g>
<!-- Node2&#45;&gt;Node6 -->
<g id="edge6_Node000002_Node000006" class="edge">
<title>Node2&#45;&gt;Node6</title>
<g id="a_edge6_Node000002_Node000006"><a xlink:title=" ">
<path fill="none" stroke="#63b8ff" d="M281.98,-118.51C296.51,-120.54 312.23,-122.75 327.33,-124.87"/>
<polygon fill="#63b8ff" stroke="#63b8ff" points="326.84,-128.33 337.23,-126.25 327.81,-121.4 326.84,-128.33"/>
</a>
</g>
</g>
<!-- Node7 -->
<g id="Node000007" class="node">
<title>Node7</title>
<g id="a_Node000007"><a xlink:href="class_data_base_g_u_i.html#aa5bbb368e92b4bf89edf9071df42aab3" target="_top" xlink:title="Clears the parent tab.">
<polygon fill="white" stroke="#666666" points="464.62,-101.18 339.12,-101.18 339.12,-69.18 464.62,-69.18 464.62,-101.18"/>
<text text-anchor="start" x="347.12" y="-87.68" font-family="Helvetica,sans-Serif" font-size="10.00">DataBaseGUI::employee</text>
<text text-anchor="middle" x="401.88" y="-75.68" font-family="Helvetica,sans-Serif" font-size="10.00">_tab_clear</text>
</a>
</g>
</g>
<!-- Node2&#45;&gt;Node7 -->
<g id="edge8_Node000002_Node000007" class="edge">
<title>Node2&#45;&gt;Node7</title>
<g id="a_edge8_Node000002_Node000007"><a xlink:title=" ">
<path fill="none" stroke="#63b8ff" d="M281.98,-101.86C296.51,-99.82 312.23,-97.61 327.33,-95.5"/>
<polygon fill="#63b8ff" stroke="#63b8ff" points="327.81,-98.96 337.23,-94.11 326.84,-92.03 327.81,-98.96"/>
</a>
</g>
</g>
<!-- Node8 -->
<g id="Node000008" class="node">
<title>Node8</title>
<g id="a_Node000008"><a xlink:href="class_employee_entry.html#a6f579e66e8fc13dbc45c940edfc50b32" target="_top" xlink:title="Signal emitted when a employee removal is requested.">
<polygon fill="white" stroke="#666666" points="486,-51.18 317.75,-51.18 317.75,-31.18 486,-31.18 486,-51.18"/>
<text text-anchor="middle" x="401.88" y="-37.68" font-family="Helvetica,sans-Serif" font-size="10.00">EmployeeEntry::removeRequested</text>
</a>
</g>
</g>
<!-- Node2&#45;&gt;Node8 -->
<g id="edge9_Node000002_Node000008" class="edge">
<title>Node2&#45;&gt;Node8</title>
<g id="a_edge9_Node000002_Node000008"><a xlink:title=" ">
<path fill="none" stroke="#63b8ff" d="M249.23,-93.8C267.85,-82.95 293.6,-69.11 317.75,-60.18 323.16,-58.18 328.86,-56.34 334.62,-54.67"/>
<polygon fill="#63b8ff" stroke="#63b8ff" points="335.53,-58.05 344.27,-52.06 333.7,-51.3 335.53,-58.05"/>
</a>
</g>
</g>
<!-- Node5 -->
<g id="Node000005" class="node">
<title>Node5</title>
<g id="a_Node000005"><a xlink:href="class_data_base_g_u_i.html#a0298d31c219c66a65a01eb01372e254d" target="_top" xlink:title="Selects the appropriate sorting to use based on employee sort index.">
<polygon fill="white" stroke="#666666" points="646,-151.18 522,-151.18 522,-119.18 646,-119.18 646,-151.18"/>
<text text-anchor="start" x="530" y="-137.68" font-family="Helvetica,sans-Serif" font-size="10.00">DataBaseGUI::sort_to</text>
<text text-anchor="middle" x="584" y="-125.68" font-family="Helvetica,sans-Serif" font-size="10.00">_populate_employee_tab</text>
</a>
</g>
</g>
<!-- Node4&#45;&gt;Node5 -->
<g id="edge4_Node000004_Node000005" class="edge">
<title>Node4&#45;&gt;Node5</title>
<g id="a_edge4_Node000004_Node000005"><a xlink:title=" ">
<path fill="none" stroke="#63b8ff" d="M449.53,-168.75C461.44,-166.03 474.2,-163.05 486,-160.18 494.05,-158.22 502.46,-156.13 510.82,-154.02"/>
<polygon fill="#63b8ff" stroke="#63b8ff" points="511.45,-157.47 520.28,-151.61 509.73,-150.68 511.45,-157.47"/>
</a>
</g>
</g>
<!-- Node5&#45;&gt;Node2 -->
<g id="edge5_Node000005_Node000002" class="edge">
<title>Node5&#45;&gt;Node2</title>
<g id="a_edge5_Node000005_Node000002"><a xlink:title=" ">
<path fill="none" stroke="#63b8ff" d="M575.01,-118.96C561.1,-92.81 529.7,-42.26 486,-22.18 418.05,9.04 387.38,5.09 317.75,-22.18 285.63,-34.76 257.87,-63.83 240.76,-85.13"/>
<polygon fill="#63b8ff" stroke="#63b8ff" points="238.17,-82.76 234.81,-92.8 243.71,-87.05 238.17,-82.76"/>
</a>
</g>
</g>
<!-- Node6&#45;&gt;Node5 -->
<g id="edge7_Node000006_Node000005" class="edge">
<title>Node6&#45;&gt;Node5</title>
<g id="a_edge7_Node000006_Node000005"><a xlink:title=" ">
<path fill="none" stroke="#63b8ff" d="M465.12,-135.18C479.7,-135.18 495.37,-135.18 510.36,-135.18"/>
<polygon fill="#63b8ff" stroke="#63b8ff" points="510.16,-138.68 520.16,-135.18 510.16,-131.68 510.16,-138.68"/>
</a>
</g>
</g>
</g>
</svg>
