<?xml version="1.0" encoding="UTF-8" standalone="no"?>
<!DOCTYPE svg PUBLIC "-//W3C//DTD SVG 1.1//EN"
 "http://www.w3.org/Graphics/SVG/1.1/DTD/svg11.dtd">
<!-- Generated by graphviz version 12.2.1 (20241206.2353)
 -->
<!-- Title: DataBaseGUI::employee_search_by_pointer Pages: 1 -->
<svg width="816pt" height="235pt"
 viewBox="0.00 0.00 815.50 235.18" xmlns="http://www.w3.org/2000/svg" xmlns:xlink="http://www.w3.org/1999/xlink">
<g id="graph0" class="graph" transform="scale(1 1) rotate(0) translate(4 231.18)">
<title>DataBaseGUI::employee_search_by_pointer</title>
<!-- Node1 -->
<g id="Node000001" class="node">
<title>Node1</title>
<g id="a_Node000001"><a xlink:title="Searches for employees based on the provided employee pointer.">
<polygon fill="#999999" stroke="#666666" points="125.5,-82.18 0,-82.18 0,-50.18 125.5,-50.18 125.5,-82.18"/>
<text text-anchor="start" x="8" y="-68.68" font-family="Helvetica,sans-Serif" font-size="10.00">DataBaseGUI::employee</text>
<text text-anchor="middle" x="62.75" y="-56.68" font-family="Helvetica,sans-Serif" font-size="10.00">_search_by_pointer</text>
</a>
</g>
</g>
<!-- Node2 -->
<g id="Node000002" class="node">
<title>Node2</title>
<g id="a_Node000002"><a xlink:href="class_data_base_g_u_i.html#a54b1ac54d775ea37ae05fd54c756aebe" target="_top" xlink:title="Searches for employees based on the provided name and surname.">
<polygon fill="white" stroke="#666666" points="287,-126.18 161.5,-126.18 161.5,-94.18 287,-94.18 287,-126.18"/>
<text text-anchor="start" x="169.5" y="-112.68" font-family="Helvetica,sans-Serif" font-size="10.00">DataBaseGUI::employee</text>
<text text-anchor="middle" x="224.25" y="-100.68" font-family="Helvetica,sans-Serif" font-size="10.00">_search</text>
</a>
</g>
</g>
<!-- Node1&#45;&gt;Node2 -->
<g id="edge1_Node000001_Node000002" class="edge">
<title>Node1&#45;&gt;Node2</title>
<g id="a_edge1_Node000001_Node000002"><a xlink:title=" ">
<path fill="none" stroke="#63b8ff" d="M123.14,-82.56C132.73,-85.21 142.74,-87.97 152.56,-90.68"/>
<polygon fill="#63b8ff" stroke="#63b8ff" points="151.51,-94.02 162.08,-93.31 153.37,-87.27 151.51,-94.02"/>
</a>
</g>
</g>
<!-- Node10 -->
<g id="Node000010" class="node">
<title>Node10</title>
<g id="a_Node000010"><a xlink:href="class_person.html#a6b1fec00d8d1f5af1a2977dc3f5f9eb8" target="_top" xlink:title="Gets the first name of the person.">
<polygon fill="white" stroke="#666666" points="272,-76.18 176.5,-76.18 176.5,-56.18 272,-56.18 272,-76.18"/>
<text text-anchor="middle" x="224.25" y="-62.68" font-family="Helvetica,sans-Serif" font-size="10.00">Person::get_name</text>
</a>
</g>
</g>
<!-- Node1&#45;&gt;Node10 -->
<g id="edge11_Node000001_Node000010" class="edge">
<title>Node1&#45;&gt;Node10</title>
<g id="a_edge11_Node000001_Node000010"><a xlink:title=" ">
<path fill="none" stroke="#63b8ff" d="M125.87,-66.18C138.73,-66.18 152.23,-66.18 164.95,-66.18"/>
<polygon fill="#63b8ff" stroke="#63b8ff" points="164.85,-69.68 174.85,-66.18 164.85,-62.68 164.85,-69.68"/>
</a>
</g>
</g>
<!-- Node11 -->
<g id="Node000011" class="node">
<title>Node11</title>
<g id="a_Node000011"><a xlink:href="class_person.html#a7b3c8db44a49c4ba8c4838e19a235613" target="_top" xlink:title="Gets the last name of the person.">
<polygon fill="white" stroke="#666666" points="278.75,-38.18 169.75,-38.18 169.75,-18.18 278.75,-18.18 278.75,-38.18"/>
<text text-anchor="middle" x="224.25" y="-24.68" font-family="Helvetica,sans-Serif" font-size="10.00">Person::get_surname</text>
</a>
</g>
</g>
<!-- Node1&#45;&gt;Node11 -->
<g id="edge12_Node000001_Node000011" class="edge">
<title>Node1&#45;&gt;Node11</title>
<g id="a_edge12_Node000001_Node000011"><a xlink:title=" ">
<path fill="none" stroke="#63b8ff" d="M125.87,-51.38C139.81,-48.06 154.51,-44.56 168.14,-41.31"/>
<polygon fill="#63b8ff" stroke="#63b8ff" points="168.91,-44.72 177.83,-39 167.29,-37.91 168.91,-44.72"/>
</a>
</g>
</g>
<!-- Node3 -->
<g id="Node000003" class="node">
<title>Node3</title>
<g id="a_Node000003"><a xlink:href="class_data_base_g_u_i.html#abab0899c6a55e240687bf21734273428" target="_top" xlink:title="Populates the parent tab with a list of parents.">
<polygon fill="white" stroke="#666666" points="443.25,-126.18 323,-126.18 323,-94.18 443.25,-94.18 443.25,-126.18"/>
<text text-anchor="start" x="331" y="-112.68" font-family="Helvetica,sans-Serif" font-size="10.00">DataBaseGUI::populate</text>
<text text-anchor="middle" x="383.12" y="-100.68" font-family="Helvetica,sans-Serif" font-size="10.00">_employee_tab</text>
</a>
</g>
</g>
<!-- Node2&#45;&gt;Node3 -->
<g id="edge2_Node000002_Node000003" class="edge">
<title>Node2&#45;&gt;Node3</title>
<g id="a_edge2_Node000002_Node000003"><a xlink:title=" ">
<path fill="none" stroke="#63b8ff" d="M287.25,-110.18C295.17,-110.18 303.32,-110.18 311.36,-110.18"/>
<polygon fill="#63b8ff" stroke="#63b8ff" points="311.11,-113.68 321.11,-110.18 311.11,-106.68 311.11,-113.68"/>
</a>
</g>
</g>
<!-- Node4 -->
<g id="Node000004" class="node">
<title>Node4</title>
<g id="a_Node000004"><a xlink:href="class_employee_entry.html#ada71cffbda6a2614d266a6cc85d6684a" target="_top" xlink:title="Signal emitted when a employee edit is requested.">
<polygon fill="white" stroke="#666666" points="639.25,-227.18 487.5,-227.18 487.5,-207.18 639.25,-207.18 639.25,-227.18"/>
<text text-anchor="middle" x="563.38" y="-213.68" font-family="Helvetica,sans-Serif" font-size="10.00">EmployeeEntry::editRequested</text>
</a>
</g>
</g>
<!-- Node3&#45;&gt;Node4 -->
<g id="edge3_Node000003_Node000004" class="edge">
<title>Node3&#45;&gt;Node4</title>
<g id="a_edge3_Node000003_Node000004"><a xlink:title=" ">
<path fill="none" stroke="#63b8ff" d="M397.08,-126.55C413.85,-146.6 445.03,-180.12 479.25,-198.18 482.52,-199.91 485.95,-201.48 489.47,-202.91"/>
<polygon fill="#63b8ff" stroke="#63b8ff" points="488.22,-206.18 498.82,-206.27 490.59,-199.59 488.22,-206.18"/>
</a>
</g>
</g>
<!-- Node5 -->
<g id="Node000005" class="node">
<title>Node5</title>
<g id="a_Node000005"><a xlink:href="class_data_base_g_u_i.html#ae9c0b91905f7d70563c285cd9b5dace3" target="_top" xlink:title="Edits an existing employee in the database.">
<polygon fill="white" stroke="#666666" points="636.62,-189.18 490.12,-189.18 490.12,-169.18 636.62,-169.18 636.62,-189.18"/>
<text text-anchor="middle" x="563.38" y="-175.68" font-family="Helvetica,sans-Serif" font-size="10.00">DataBaseGUI::employee_edit</text>
</a>
</g>
</g>
<!-- Node3&#45;&gt;Node5 -->
<g id="edge4_Node000003_Node000005" class="edge">
<title>Node3&#45;&gt;Node5</title>
<g id="a_edge4_Node000003_Node000005"><a xlink:title=" ">
<path fill="none" stroke="#63b8ff" d="M410.73,-126.56C429.35,-137.42 455.1,-151.25 479.25,-160.18 484.66,-162.18 490.36,-164.02 496.12,-165.69"/>
<polygon fill="#63b8ff" stroke="#63b8ff" points="495.2,-169.06 505.77,-168.3 497.03,-162.31 495.2,-169.06"/>
</a>
</g>
</g>
<!-- Node7 -->
<g id="Node000007" class="node">
<title>Node7</title>
<g id="a_Node000007"><a xlink:href="class_data_base_g_u_i.html#a4b70294327e9c316224af10d7a369749" target="_top" xlink:title="Removes an employee from the database.">
<polygon fill="white" stroke="#666666" points="626.12,-151.18 500.62,-151.18 500.62,-119.18 626.12,-119.18 626.12,-151.18"/>
<text text-anchor="start" x="508.62" y="-137.68" font-family="Helvetica,sans-Serif" font-size="10.00">DataBaseGUI::employee</text>
<text text-anchor="middle" x="563.38" y="-125.68" font-family="Helvetica,sans-Serif" font-size="10.00">_remove</text>
</a>
</g>
</g>
<!-- Node3&#45;&gt;Node7 -->
<g id="edge7_Node000003_Node000007" class="edge">
<title>Node3&#45;&gt;Node7</title>
<g id="a_edge7_Node000003_Node000007"><a xlink:title=" ">
<path fill="none" stroke="#63b8ff" d="M443.48,-118.51C458.01,-120.54 473.73,-122.75 488.83,-124.87"/>
<polygon fill="#63b8ff" stroke="#63b8ff" points="488.34,-128.33 498.73,-126.25 489.31,-121.4 488.34,-128.33"/>
</a>
</g>
</g>
<!-- Node8 -->
<g id="Node000008" class="node">
<title>Node8</title>
<g id="a_Node000008"><a xlink:href="class_data_base_g_u_i.html#aa5bbb368e92b4bf89edf9071df42aab3" target="_top" xlink:title="Clears the parent tab.">
<polygon fill="white" stroke="#666666" points="626.12,-101.18 500.62,-101.18 500.62,-69.18 626.12,-69.18 626.12,-101.18"/>
<text text-anchor="start" x="508.62" y="-87.68" font-family="Helvetica,sans-Serif" font-size="10.00">DataBaseGUI::employee</text>
<text text-anchor="middle" x="563.38" y="-75.68" font-family="Helvetica,sans-Serif" font-size="10.00">_tab_clear</text>
</a>
</g>
</g>
<!-- Node3&#45;&gt;Node8 -->
<g id="edge9_Node000003_Node000008" class="edge">
<title>Node3&#45;&gt;Node8</title>
<g id="a_edge9_Node000003_Node000008"><a xlink:title=" ">
<path fill="none" stroke="#63b8ff" d="M443.48,-101.86C458.01,-99.82 473.73,-97.61 488.83,-95.5"/>
<polygon fill="#63b8ff" stroke="#63b8ff" points="489.31,-98.96 498.73,-94.11 488.34,-92.03 489.31,-98.96"/>
</a>
</g>
</g>
<!-- Node9 -->
<g id="Node000009" class="node">
<title>Node9</title>
<g id="a_Node000009"><a xlink:href="class_employee_entry.html#a6f579e66e8fc13dbc45c940edfc50b32" target="_top" xlink:title="Signal emitted when a employee removal is requested.">
<polygon fill="white" stroke="#666666" points="647.5,-51.18 479.25,-51.18 479.25,-31.18 647.5,-31.18 647.5,-51.18"/>
<text text-anchor="middle" x="563.38" y="-37.68" font-family="Helvetica,sans-Serif" font-size="10.00">EmployeeEntry::removeRequested</text>
</a>
</g>
</g>
<!-- Node3&#45;&gt;Node9 -->
<g id="edge10_Node000003_Node000009" class="edge">
<title>Node3&#45;&gt;Node9</title>
<g id="a_edge10_Node000003_Node000009"><a xlink:title=" ">
<path fill="none" stroke="#63b8ff" d="M410.73,-93.8C429.35,-82.95 455.1,-69.11 479.25,-60.18 484.66,-58.18 490.36,-56.34 496.12,-54.67"/>
<polygon fill="#63b8ff" stroke="#63b8ff" points="497.03,-58.05 505.77,-52.06 495.2,-51.3 497.03,-58.05"/>
</a>
</g>
</g>
<!-- Node6 -->
<g id="Node000006" class="node">
<title>Node6</title>
<g id="a_Node000006"><a xlink:href="class_data_base_g_u_i.html#a0298d31c219c66a65a01eb01372e254d" target="_top" xlink:title="Selects the appropriate sorting to use based on employee sort index.">
<polygon fill="white" stroke="#666666" points="807.5,-151.18 683.5,-151.18 683.5,-119.18 807.5,-119.18 807.5,-151.18"/>
<text text-anchor="start" x="691.5" y="-137.68" font-family="Helvetica,sans-Serif" font-size="10.00">DataBaseGUI::sort_to</text>
<text text-anchor="middle" x="745.5" y="-125.68" font-family="Helvetica,sans-Serif" font-size="10.00">_populate_employee_tab</text>
</a>
</g>
</g>
<!-- Node5&#45;&gt;Node6 -->
<g id="edge5_Node000005_Node000006" class="edge">
<title>Node5&#45;&gt;Node6</title>
<g id="a_edge5_Node000005_Node000006"><a xlink:title=" ">
<path fill="none" stroke="#63b8ff" d="M611.03,-168.75C622.94,-166.03 635.7,-163.05 647.5,-160.18 655.55,-158.22 663.96,-156.13 672.32,-154.02"/>
<polygon fill="#63b8ff" stroke="#63b8ff" points="672.95,-157.47 681.78,-151.61 671.23,-150.68 672.95,-157.47"/>
</a>
</g>
</g>
<!-- Node6&#45;&gt;Node3 -->
<g id="edge6_Node000006_Node000003" class="edge">
<title>Node6&#45;&gt;Node3</title>
<g id="a_edge6_Node000006_Node000003"><a xlink:title=" ">
<path fill="none" stroke="#63b8ff" d="M736.51,-118.96C722.6,-92.81 691.2,-42.26 647.5,-22.18 579.55,9.04 548.88,5.09 479.25,-22.18 447.13,-34.76 419.37,-63.83 402.26,-85.13"/>
<polygon fill="#63b8ff" stroke="#63b8ff" points="399.67,-82.76 396.31,-92.8 405.21,-87.05 399.67,-82.76"/>
</a>
</g>
</g>
<!-- Node7&#45;&gt;Node6 -->
<g id="edge8_Node000007_Node000006" class="edge">
<title>Node7&#45;&gt;Node6</title>
<g id="a_edge8_Node000007_Node000006"><a xlink:title=" ">
<path fill="none" stroke="#63b8ff" d="M626.62,-135.18C641.2,-135.18 656.87,-135.18 671.86,-135.18"/>
<polygon fill="#63b8ff" stroke="#63b8ff" points="671.66,-138.68 681.66,-135.18 671.66,-131.68 671.66,-138.68"/>
</a>
</g>
</g>
</g>
</svg>
