<?xml version="1.0" encoding="UTF-8" standalone="no"?>
<!DOCTYPE svg PUBLIC "-//W3C//DTD SVG 1.1//EN"
 "http://www.w3.org/Graphics/SVG/1.1/DTD/svg11.dtd">
<!-- Generated by graphviz version 12.2.1 (20241206.2353)
 -->
<!-- Title: Child::get_mom Pages: 1 -->
<svg width="237pt" height="90pt"
 viewBox="0.00 0.00 237.25 90.00" xmlns="http://www.w3.org/2000/svg" xmlns:xlink="http://www.w3.org/1999/xlink">
<g id="graph0" class="graph" transform="scale(1 1) rotate(0) translate(4 86)">
<title>Child::get_mom</title>
<!-- Node1 -->
<g id="Node000001" class="node">
<title>Node1</title>
<g id="a_Node000001"><a xlink:title="Gets the mother of the child.">
<polygon fill="#999999" stroke="#666666" points="229.25,-51 144.25,-51 144.25,-31 229.25,-31 229.25,-51"/>
<text text-anchor="middle" x="186.75" y="-37.5" font-family="Helvetica,sans-Serif" font-size="10.00">Child::get_mom</text>
</a>
</g>
</g>
<!-- Node2 -->
<g id="Node000002" class="node">
<title>Node2</title>
<g id="a_Node000002"><a xlink:href="$class_database.html#a93adb69fe9d3d5d0566feaeede6027f9" xlink:title="Filters children by a parent&#39;s name.">
<polygon fill="white" stroke="#666666" points="108.25,-82 0,-82 0,-50 108.25,-50 108.25,-82"/>
<text text-anchor="start" x="8" y="-68.5" font-family="Helvetica,sans-Serif" font-size="10.00">Database::filter_child</text>
<text text-anchor="middle" x="54.12" y="-56.5" font-family="Helvetica,sans-Serif" font-size="10.00">_by_parent_name</text>
</a>
</g>
</g>
<!-- Node1&#45;&gt;Node2 -->
<g id="edge1_Node000001_Node000002" class="edge">
<title>Node1&#45;&gt;Node2</title>
<g id="a_edge1_Node000001_Node000002"><a xlink:title=" ">
<path fill="none" stroke="#63b8ff" d="M132.87,-51.12C124.79,-52.67 116.45,-54.26 108.37,-55.81"/>
<polygon fill="#63b8ff" stroke="#63b8ff" points="133.41,-54.58 142.57,-49.26 132.09,-47.71 133.41,-54.58"/>
</a>
</g>
</g>
<!-- Node3 -->
<g id="Node000003" class="node">
<title>Node3</title>
<g id="a_Node000003"><a xlink:href="$class_database.html#a80f30da6596492aaea6a1049f0d07c4d" xlink:title="Filters children by a parent&#39;s surname.">
<polygon fill="white" stroke="#666666" points="108.25,-32 0,-32 0,0 108.25,0 108.25,-32"/>
<text text-anchor="start" x="8" y="-18.5" font-family="Helvetica,sans-Serif" font-size="10.00">Database::filter_child</text>
<text text-anchor="middle" x="54.12" y="-6.5" font-family="Helvetica,sans-Serif" font-size="10.00">_by_parent_surname</text>
</a>
</g>
</g>
<!-- Node1&#45;&gt;Node3 -->
<g id="edge2_Node000001_Node000003" class="edge">
<title>Node1&#45;&gt;Node3</title>
<g id="a_edge2_Node000001_Node000003"><a xlink:title=" ">
<path fill="none" stroke="#63b8ff" d="M132.87,-30.88C124.79,-29.33 116.45,-27.74 108.37,-26.19"/>
<polygon fill="#63b8ff" stroke="#63b8ff" points="132.09,-34.29 142.57,-32.74 133.41,-27.42 132.09,-34.29"/>
</a>
</g>
</g>
</g>
</svg>
