<?xml version="1.0" encoding="UTF-8" standalone="no"?>
<!DOCTYPE svg PUBLIC "-//W3C//DTD SVG 1.1//EN"
 "http://www.w3.org/Graphics/SVG/1.1/DTD/svg11.dtd">
<!-- Generated by graphviz version 12.2.1 (20241206.2353)
 -->
<!-- Title: DateTimeError::~DateTimeError Pages: 1 -->
<svg width="490pt" height="40pt"
 viewBox="0.00 0.00 489.50 40.00" xmlns="http://www.w3.org/2000/svg" xmlns:xlink="http://www.w3.org/1999/xlink">
<g id="graph0" class="graph" transform="scale(1 1) rotate(0) translate(4 36)">
<title>DateTimeError::~DateTimeError</title>
<!-- Node1 -->
<g id="Node000001" class="node">
<title>Node1</title>
<g id="a_Node000001"><a xlink:title="Default destructor.">
<polygon fill="#999999" stroke="#666666" points="134.5,-32 0,-32 0,0 134.5,0 134.5,-32"/>
<text text-anchor="start" x="8" y="-18.5" font-family="Helvetica,sans-Serif" font-size="10.00">DateTimeError::~DateTime</text>
<text text-anchor="middle" x="67.25" y="-6.5" font-family="Helvetica,sans-Serif" font-size="10.00">Error</text>
</a>
</g>
</g>
<!-- Node2 -->
<g id="Node000002" class="node">
<title>Node2</title>
<g id="a_Node000002"><a xlink:href="class_date_time_error.html#abc1347f344dad6822caad8e065f4f606" target="_top" xlink:title="Constructs a DateTimeError with the given error message.">
<polygon fill="white" stroke="#666666" points="320,-26 170.5,-26 170.5,-6 320,-6 320,-26"/>
<text text-anchor="middle" x="245.25" y="-12.5" font-family="Helvetica,sans-Serif" font-size="10.00">DateTimeError::DateTimeError</text>
</a>
</g>
</g>
<!-- Node1&#45;&gt;Node2 -->
<g id="edge1_Node000001_Node000002" class="edge">
<title>Node1&#45;&gt;Node2</title>
<g id="a_edge1_Node000001_Node000002"><a xlink:title=" ">
<path fill="none" stroke="#63b8ff" d="M134.79,-16C142.66,-16 150.78,-16 158.87,-16"/>
<polygon fill="#63b8ff" stroke="#63b8ff" points="158.74,-19.5 168.74,-16 158.74,-12.5 158.74,-19.5"/>
</a>
</g>
</g>
<!-- Node3 -->
<g id="Node000003" class="node">
<title>Node3</title>
<g id="a_Node000003"><a xlink:href="class_date_time_error.html#a05a1fbee7eaa356e993e6267ce2f8d66" target="_top" xlink:title="Gets the error message associated with the exception.">
<polygon fill="white" stroke="#666666" points="481.5,-26 356,-26 356,-6 481.5,-6 481.5,-26"/>
<text text-anchor="middle" x="418.75" y="-12.5" font-family="Helvetica,sans-Serif" font-size="10.00">DateTimeError::message</text>
</a>
</g>
</g>
<!-- Node2&#45;&gt;Node3 -->
<g id="edge2_Node000002_Node000003" class="edge">
<title>Node2&#45;&gt;Node3</title>
<g id="a_edge2_Node000002_Node000003"><a xlink:title=" ">
<path fill="none" stroke="#63b8ff" d="M320.47,-16C328.38,-16 336.42,-16 344.32,-16"/>
<polygon fill="#63b8ff" stroke="#63b8ff" points="344.24,-19.5 354.24,-16 344.24,-12.5 344.24,-19.5"/>
</a>
</g>
</g>
</g>
</svg>
