<?xml version="1.0" encoding="UTF-8" standalone="no"?>
<!DOCTYPE svg PUBLIC "-//W3C//DTD SVG 1.1//EN"
 "http://www.w3.org/Graphics/SVG/1.1/DTD/svg11.dtd">
<!-- Generated by graphviz version 12.2.1 (20241206.2353)
 -->
<!-- Title: DataBaseGUI::employee_remove Pages: 1 -->
<!--zoomable 367 -->

<svg id="main" version="1.1" xmlns="http://www.w3.org/2000/svg" xmlns:xlink="http://www.w3.org/1999/xlink" xml:space="preserve" onload="init(evt)">

<style type="text/css"><![CDATA[
.node, .edge {opacity: 0.7;}
.node.selected, .edge.selected {opacity: 1;}
.edge:hover path { stroke: red; }
.edge:hover polygon { stroke: red; fill: red; }
]]></style>

<defs>
  <circle id="rim" cx="0" cy="0" r="7"/>
  <circle id="rim2" cx="0" cy="0" r="3.5"/>
  <g id="zoomPlus">
    <use xlink:href="#rim" fill="#404040"><set attributeName="fill" to="#808080" begin="zoomplus.mouseover" end="zoomplus.mouseout"/></use>
    <path d="M-4,0h8M0,-4v8" fill="none" stroke="white" stroke-width="1.5" pointer-events="none"/>
  </g>
  <g id="zoomMin">
    <use xlink:href="#rim" fill="#404040"><set attributeName="fill" to="#808080" begin="zoomminus.mouseover" end="zoomminus.mouseout"/></use>
    <path d="M-4,0h8" fill="none" stroke="white" stroke-width="1.5" pointer-events="none"/>
  </g>
  <g id="arrowUp" transform="translate(30 24)">
    <use xlink:href="#rim"/>
    <path pointer-events="none" fill="none" stroke="white" stroke-width="1.5" d="M0,-3.0v7 M-2.5,-0.5L0,-3.0L2.5,-0.5"/>
  </g>
  <g id="arrowRight" transform="rotate(90) translate(36 -43)">
    <use xlink:href="#rim"/>
    <path pointer-events="none" fill="none" stroke="white" stroke-width="1.5" d="M0,-3.0v7 M-2.5,-0.5L0,-3.0L2.5,-0.5"/>
  </g>
  <g id="arrowDown" transform="rotate(180) translate(-30 -48)">
    <use xlink:href="#rim"/>
    <path pointer-events="none" fill="none" stroke="white" stroke-width="1.5" d="M0,-3.0v7 M-2.5,-0.5L0,-3.0L2.5,-0.5"/>
  </g>
  <g id="arrowLeft" transform="rotate(270) translate(-36 17)">
    <use xlink:href="#rim"/>
    <path pointer-events="none" fill="none" stroke="white" stroke-width="1.5" d="M0,-3.0v7 M-2.5,-0.5L0,-3.0L2.5,-0.5"/>
  </g>
  <g id="resetDef">
    <use xlink:href="#rim2" fill="#404040"><set attributeName="fill" to="#808080" begin="reset.mouseover" end="reset.mouseout"/></use>
  </g>
</defs>
<script type="application/ecmascript">
var viewWidth = 1646;
var viewHeight = 367;
var sectionId = 'dynsection-23';
</script>
<script type="application/ecmascript" xlink:href="svg.min.js"/>
<svg id="graph" class="graph">
<g id="viewport">
<title>DataBaseGUI::employee_remove</title>
<!-- Node1 -->
<g id="Node000001" class="node">
<title>Node1</title>
<g id="a_Node000001"><a xlink:title="Removes an employee from the database.">
<polygon fill="#999999" stroke="#666666" points="1638.25,-155.86 1512.75,-155.86 1512.75,-123.86 1638.25,-123.86 1638.25,-155.86"/>
<text text-anchor="start" x="1520.75" y="-142.36" font-family="Helvetica,sans-Serif" font-size="10.00">DataBaseGUI::employee</text>
<text text-anchor="middle" x="1575.5" y="-130.36" font-family="Helvetica,sans-Serif" font-size="10.00">_remove</text>
</a>
</g>
</g>
<!-- Node2 -->
<g id="Node000002" class="node">
<title>Node2</title>
<g id="a_Node000002"><a xlink:href="class_data_base_g_u_i.html#a2232520db239e60a4c37ee49868e6652" target="_top" xlink:title="Populates the parent tab with a multimap of parents.">
<polygon fill="white" stroke="#666666" points="967.88,-180.86 847.62,-180.86 847.62,-148.86 967.88,-148.86 967.88,-180.86"/>
<text text-anchor="start" x="855.62" y="-167.36" font-family="Helvetica,sans-Serif" font-size="10.00">DataBaseGUI::populate</text>
<text text-anchor="middle" x="907.75" y="-155.36" font-family="Helvetica,sans-Serif" font-size="10.00">_employee_tab</text>
</a>
</g>
</g>
<!-- Node1&#45;&gt;Node2 -->
<g id="edge1_Node000001_Node000002" class="edge">
<title>Node1&#45;&gt;Node2</title>
<g id="a_edge1_Node000001_Node000002"><a xlink:title=" ">
<path fill="none" stroke="#63b8ff" d="M1509.13,-158.97C1498.4,-161.42 1487.33,-163.53 1476.75,-164.86 1292.57,-188.04 1072.12,-177.13 968.34,-169.73"/>
<polygon fill="#63b8ff" stroke="#63b8ff" points="1509.79,-162.41 1518.69,-156.67 1508.15,-155.61 1509.79,-162.41"/>
</a>
</g>
</g>
<!-- Node3 -->
<g id="Node000003" class="node">
<title>Node3</title>
<g id="a_Node000003"><a xlink:href="class_data_base_g_u_i.html#abab0899c6a55e240687bf21734273428" target="_top" xlink:title="Populates the parent tab with a list of parents.">
<polygon fill="white" stroke="#666666" points="1476.75,-155.86 1356.5,-155.86 1356.5,-123.86 1476.75,-123.86 1476.75,-155.86"/>
<text text-anchor="start" x="1364.5" y="-142.36" font-family="Helvetica,sans-Serif" font-size="10.00">DataBaseGUI::populate</text>
<text text-anchor="middle" x="1416.62" y="-130.36" font-family="Helvetica,sans-Serif" font-size="10.00">_employee_tab</text>
</a>
</g>
</g>
<!-- Node1&#45;&gt;Node3 -->
<g id="edge2_Node000001_Node000003" class="edge">
<title>Node1&#45;&gt;Node3</title>
<g id="a_edge2_Node000001_Node000003"><a xlink:title=" ">
<path fill="none" stroke="#63b8ff" d="M1501.19,-139.86C1493.13,-139.86 1484.99,-139.86 1477.13,-139.86"/>
<polygon fill="#63b8ff" stroke="#63b8ff" points="1500.99,-143.36 1510.99,-139.86 1500.99,-136.36 1500.99,-143.36"/>
</a>
</g>
</g>
<!-- Node4 -->
<g id="Node000004" class="node">
<title>Node4</title>
<g id="a_Node000004"><a xlink:href="class_data_base_g_u_i.html#a54b1ac54d775ea37ae05fd54c756aebe" target="_top" xlink:title="Searches for employees based on the provided name and surname.">
<polygon fill="white" stroke="#666666" points="1320.5,-243.86 1195,-243.86 1195,-211.86 1320.5,-211.86 1320.5,-243.86"/>
<text text-anchor="start" x="1203" y="-230.36" font-family="Helvetica,sans-Serif" font-size="10.00">DataBaseGUI::employee</text>
<text text-anchor="middle" x="1257.75" y="-218.36" font-family="Helvetica,sans-Serif" font-size="10.00">_search</text>
</a>
</g>
</g>
<!-- Node3&#45;&gt;Node4 -->
<g id="edge3_Node000003_Node000004" class="edge">
<title>Node3&#45;&gt;Node4</title>
<g id="a_edge3_Node000003_Node000004"><a xlink:title=" ">
<path fill="none" stroke="#63b8ff" d="M1376.8,-161.64C1349.32,-177.05 1313.05,-197.4 1288,-211.45"/>
<polygon fill="#63b8ff" stroke="#63b8ff" points="1378.16,-164.89 1385.17,-156.94 1374.73,-158.78 1378.16,-164.89"/>
</a>
</g>
</g>
<!-- Node18 -->
<g id="Node000018" class="node">
<title>Node18</title>
<g id="a_Node000018"><a xlink:href="class_data_base_g_u_i.html#a0298d31c219c66a65a01eb01372e254d" target="_top" xlink:title="Selects the appropriate sorting to use based on employee sort index.">
<polygon fill="white" stroke="#666666" points="1319.75,-111.86 1195.75,-111.86 1195.75,-79.86 1319.75,-79.86 1319.75,-111.86"/>
<text text-anchor="start" x="1203.75" y="-98.36" font-family="Helvetica,sans-Serif" font-size="10.00">DataBaseGUI::sort_to</text>
<text text-anchor="middle" x="1257.75" y="-86.36" font-family="Helvetica,sans-Serif" font-size="10.00">_populate_employee_tab</text>
</a>
</g>
</g>
<!-- Node3&#45;&gt;Node18 -->
<g id="edge25_Node000003_Node000018" class="edge">
<title>Node3&#45;&gt;Node18</title>
<g id="a_edge25_Node000003_Node000018"><a xlink:title=" ">
<path fill="none" stroke="#63b8ff" d="M1346.42,-120.45C1336.76,-117.74 1326.91,-114.98 1317.47,-112.33"/>
<polygon fill="#63b8ff" stroke="#63b8ff" points="1345.18,-123.73 1355.75,-123.07 1347.07,-117 1345.18,-123.73"/>
</a>
</g>
</g>
<!-- Node5 -->
<g id="Node000005" class="node">
<title>Node5</title>
<g id="a_Node000005"><a xlink:href="class_data_base_g_u_i.html#a3a2267784d541d4c74b143458aa7eedb" target="_top" xlink:title="Searches for employees based on the provided employee pointer.">
<polygon fill="white" stroke="#666666" points="1148.5,-243.86 1023,-243.86 1023,-211.86 1148.5,-211.86 1148.5,-243.86"/>
<text text-anchor="start" x="1031" y="-230.36" font-family="Helvetica,sans-Serif" font-size="10.00">DataBaseGUI::employee</text>
<text text-anchor="middle" x="1085.75" y="-218.36" font-family="Helvetica,sans-Serif" font-size="10.00">_search_by_pointer</text>
</a>
</g>
</g>
<!-- Node4&#45;&gt;Node5 -->
<g id="edge4_Node000004_Node000005" class="edge">
<title>Node4&#45;&gt;Node5</title>
<g id="a_edge4_Node000004_Node000005"><a xlink:title=" ">
<path fill="none" stroke="#63b8ff" d="M1183.48,-227.86C1171.94,-227.86 1160.1,-227.86 1148.84,-227.86"/>
<polygon fill="#63b8ff" stroke="#63b8ff" points="1183.38,-231.36 1193.38,-227.86 1183.38,-224.36 1183.38,-231.36"/>
</a>
</g>
</g>
<!-- Node10 -->
<g id="Node000010" class="node">
<title>Node10</title>
<g id="a_Node000010"><a xlink:href="class_data_base_g_u_i.html#a6c35e47ed05a80db144f240dee805a9d" target="_top" xlink:title="Sets up the GUI.">
<polygon fill="white" stroke="#666666" points="294.88,-149.86 187.38,-149.86 187.38,-129.86 294.88,-129.86 294.88,-149.86"/>
<text text-anchor="middle" x="241.12" y="-136.36" font-family="Helvetica,sans-Serif" font-size="10.00">DataBaseGUI::setup</text>
</a>
</g>
</g>
<!-- Node4&#45;&gt;Node10 -->
<g id="edge24_Node000004_Node000010" class="edge">
<title>Node4&#45;&gt;Node10</title>
<g id="a_edge24_Node000004_Node000010"><a xlink:title=" ">
<path fill="none" stroke="#63b8ff" d="M1219.72,-249.79C1157.66,-284.42 1027.71,-347.86 908.75,-347.86 908.75,-347.86 908.75,-347.86 728.75,-347.86 553.28,-347.86 484.24,-392.7 337.25,-296.86 281.45,-260.48 253.36,-178.86 244.92,-150.11"/>
<polygon fill="#63b8ff" stroke="#63b8ff" points="1221.15,-253.01 1228.13,-245.04 1217.7,-246.91 1221.15,-253.01"/>
</a>
</g>
</g>
<!-- Node6 -->
<g id="Node000006" class="node">
<title>Node6</title>
<g id="a_Node000006"><a xlink:href="class_data_base_g_u_i.html#aadcf1044a300a89dadd104cfadb9a1b1" target="_top" xlink:title="Views a lesson in the GUI.">
<polygon fill="white" stroke="#666666" points="976.5,-237.86 839,-237.86 839,-217.86 976.5,-217.86 976.5,-237.86"/>
<text text-anchor="middle" x="907.75" y="-224.36" font-family="Helvetica,sans-Serif" font-size="10.00">DataBaseGUI::lesson_view</text>
</a>
</g>
</g>
<!-- Node5&#45;&gt;Node6 -->
<g id="edge5_Node000005_Node000006" class="edge">
<title>Node5&#45;&gt;Node6</title>
<g id="a_edge5_Node000005_Node000006"><a xlink:title=" ">
<path fill="none" stroke="#63b8ff" d="M1011.39,-227.86C999.94,-227.86 988.15,-227.86 976.83,-227.86"/>
<polygon fill="#63b8ff" stroke="#63b8ff" points="1011.19,-231.36 1021.19,-227.86 1011.19,-224.36 1011.19,-231.36"/>
</a>
</g>
</g>
<!-- Node6&#45;&gt;Node6 -->
<g id="edge6_Node000006_Node000006" class="edge">
<title>Node6&#45;&gt;Node6</title>
<g id="a_edge6_Node000006_Node000006"><a xlink:title=" ">
<path fill="none" stroke="#63b8ff" d="M939.54,-248.97C935.75,-253 925.15,-255.86 907.75,-255.86 876.81,-255.86 867.38,-246.83 879.47,-238.2"/>
<polygon fill="#63b8ff" stroke="#63b8ff" points="942.93,-248.06 936.5,-239.64 936.27,-250.23 942.93,-248.06"/>
</a>
</g>
</g>
<!-- Node7 -->
<g id="Node000007" class="node">
<title>Node7</title>
<g id="a_Node000007"><a xlink:href="class_data_base_g_u_i.html#a74e047889e913eae69ec40ec17f53c9d" target="_top" xlink:title="Populates the lessons tab with a multimap of lessons.">
<polygon fill="white" stroke="#666666" points="301.25,-328.86 181,-328.86 181,-296.86 301.25,-296.86 301.25,-328.86"/>
<text text-anchor="start" x="189" y="-315.36" font-family="Helvetica,sans-Serif" font-size="10.00">DataBaseGUI::populate</text>
<text text-anchor="middle" x="241.12" y="-303.36" font-family="Helvetica,sans-Serif" font-size="10.00">_lesson_tab</text>
</a>
</g>
</g>
<!-- Node6&#45;&gt;Node7 -->
<g id="edge7_Node000006_Node000007" class="edge">
<title>Node6&#45;&gt;Node7</title>
<g id="a_edge7_Node000006_Node000007"><a xlink:title=" ">
<path fill="none" stroke="#63b8ff" d="M856.74,-241.03C839.76,-245.2 820.63,-249.58 803,-252.86 656.67,-280.11 619.09,-281.88 471,-296.86 413.54,-302.67 347.74,-307.03 301.49,-309.72"/>
<polygon fill="#63b8ff" stroke="#63b8ff" points="857.22,-244.52 866.08,-238.7 855.53,-237.72 857.22,-244.52"/>
</a>
</g>
</g>
<!-- Node8 -->
<g id="Node000008" class="node">
<title>Node8</title>
<g id="a_Node000008"><a xlink:href="class_data_base_g_u_i.html#aa6b02e4e81b0113fb1c75d7d5ef0be59" target="_top" xlink:title="Populates the lessons tab with a list of lessons.">
<polygon fill="white" stroke="#666666" points="789.88,-243.86 669.62,-243.86 669.62,-211.86 789.88,-211.86 789.88,-243.86"/>
<text text-anchor="start" x="677.62" y="-230.36" font-family="Helvetica,sans-Serif" font-size="10.00">DataBaseGUI::populate</text>
<text text-anchor="middle" x="729.75" y="-218.36" font-family="Helvetica,sans-Serif" font-size="10.00">_lesson_tab</text>
</a>
</g>
</g>
<!-- Node6&#45;&gt;Node8 -->
<g id="edge8_Node000006_Node000008" class="edge">
<title>Node6&#45;&gt;Node8</title>
<g id="a_edge8_Node000006_Node000008"><a xlink:title=" ">
<path fill="none" stroke="#63b8ff" d="M827.36,-227.86C814.9,-227.86 802.21,-227.86 790.3,-227.86"/>
<polygon fill="#63b8ff" stroke="#63b8ff" points="827.19,-231.36 837.19,-227.86 827.19,-224.36 827.19,-231.36"/>
</a>
</g>
</g>
<!-- Node9 -->
<g id="Node000009" class="node">
<title>Node9</title>
<g id="a_Node000009"><a xlink:href="class_data_base_g_u_i.html#a55b3c6d3607f17f55d4c321e97fdce7f" target="_top" xlink:title="Searches for lessons based on the provided child name and surname.">
<polygon fill="white" stroke="#666666" points="619.75,-243.86 507.75,-243.86 507.75,-211.86 619.75,-211.86 619.75,-243.86"/>
<text text-anchor="start" x="515.75" y="-230.36" font-family="Helvetica,sans-Serif" font-size="10.00">DataBaseGUI::lesson</text>
<text text-anchor="middle" x="563.75" y="-218.36" font-family="Helvetica,sans-Serif" font-size="10.00">_search</text>
</a>
</g>
</g>
<!-- Node8&#45;&gt;Node9 -->
<g id="edge9_Node000008_Node000009" class="edge">
<title>Node8&#45;&gt;Node9</title>
<g id="a_edge9_Node000008_Node000009"><a xlink:title=" ">
<path fill="none" stroke="#63b8ff" d="M658.4,-227.86C645.57,-227.86 632.36,-227.86 620.04,-227.86"/>
<polygon fill="#63b8ff" stroke="#63b8ff" points="658.03,-231.36 668.03,-227.86 658.03,-224.36 658.03,-231.36"/>
</a>
</g>
</g>
<!-- Node13 -->
<g id="Node000013" class="node">
<title>Node13</title>
<g id="a_Node000013"><a xlink:href="class_data_base_g_u_i.html#a1ad152b7becf3e0051cdd5dbae6d4abc" target="_top" xlink:title="Selects the appropriate sorting to use based on lesson sort index.">
<polygon fill="white" stroke="#666666" points="620.5,-193.86 507,-193.86 507,-161.86 620.5,-161.86 620.5,-193.86"/>
<text text-anchor="start" x="515" y="-180.36" font-family="Helvetica,sans-Serif" font-size="10.00">DataBaseGUI::sort_to</text>
<text text-anchor="middle" x="563.75" y="-168.36" font-family="Helvetica,sans-Serif" font-size="10.00">_populate_lesson_tab</text>
</a>
</g>
</g>
<!-- Node8&#45;&gt;Node13 -->
<g id="edge13_Node000008_Node000013" class="edge">
<title>Node8&#45;&gt;Node13</title>
<g id="a_edge13_Node000008_Node000013"><a xlink:title=" ">
<path fill="none" stroke="#63b8ff" d="M664.28,-208.2C649.24,-203.62 633.38,-198.78 618.85,-194.35"/>
<polygon fill="#63b8ff" stroke="#63b8ff" points="663.02,-211.48 673.6,-211.05 665.06,-204.78 663.02,-211.48"/>
</a>
</g>
</g>
<!-- Node9&#45;&gt;Node10 -->
<g id="edge10_Node000009_Node000010" class="edge">
<title>Node9&#45;&gt;Node10</title>
<g id="a_edge10_Node000009_Node000010"><a xlink:title=" ">
<path fill="none" stroke="#63b8ff" d="M496.32,-231.5C450.29,-231.83 388.35,-227.85 337.25,-208.86 302.25,-195.85 268.68,-166.18 252.38,-150.32"/>
<polygon fill="#63b8ff" stroke="#63b8ff" points="496.2,-235 506.15,-231.35 496.1,-228.01 496.2,-235"/>
</a>
</g>
</g>
<!-- Node11 -->
<g id="Node000011" class="node">
<title>Node11</title>
<g id="a_Node000011"><a xlink:href="class_data_base_g_u_i.html#a2c83afe3a30fb5166d275d9a74d33196" target="_top" xlink:title="Default constructor.">
<polygon fill="white" stroke="#666666" points="145,-168.86 0,-168.86 0,-148.86 145,-148.86 145,-168.86"/>
<text text-anchor="middle" x="72.5" y="-155.36" font-family="Helvetica,sans-Serif" font-size="10.00">DataBaseGUI::DataBaseGUI</text>
</a>
</g>
</g>
<!-- Node10&#45;&gt;Node11 -->
<g id="edge11_Node000010_Node000011" class="edge">
<title>Node10&#45;&gt;Node11</title>
<g id="a_edge11_Node000010_Node000011"><a xlink:title=" ">
<path fill="none" stroke="#63b8ff" d="M175.53,-147.22C165.64,-148.35 155.37,-149.52 145.32,-150.67"/>
<polygon fill="#63b8ff" stroke="#63b8ff" points="175.9,-150.7 185.44,-146.09 175.11,-143.75 175.9,-150.7"/>
</a>
</g>
</g>
<!-- Node12 -->
<g id="Node000012" class="node">
<title>Node12</title>
<g id="a_Node000012"><a xlink:href="class_data_base_g_u_i.html#aba10d1d8e9fb151632ff34de418cee82" target="_top" xlink:title="Constructs a DataBaseGUI object.">
<polygon fill="white" stroke="#666666" points="145,-130.86 0,-130.86 0,-110.86 145,-110.86 145,-130.86"/>
<text text-anchor="middle" x="72.5" y="-117.36" font-family="Helvetica,sans-Serif" font-size="10.00">DataBaseGUI::DataBaseGUI</text>
</a>
</g>
</g>
<!-- Node10&#45;&gt;Node12 -->
<g id="edge12_Node000010_Node000012" class="edge">
<title>Node10&#45;&gt;Node12</title>
<g id="a_edge12_Node000010_Node000012"><a xlink:title=" ">
<path fill="none" stroke="#63b8ff" d="M175.53,-132.49C165.64,-131.36 155.37,-130.19 145.32,-129.05"/>
<polygon fill="#63b8ff" stroke="#63b8ff" points="175.11,-135.97 185.44,-133.62 175.9,-129.01 175.11,-135.97"/>
</a>
</g>
</g>
<!-- Node13&#45;&gt;Node6 -->
<g id="edge21_Node000013_Node000006" class="edge">
<title>Node13&#45;&gt;Node6</title>
<g id="a_edge21_Node000013_Node000006"><a xlink:title=" ">
<path fill="none" stroke="#63b8ff" d="M632.34,-182.56C680.22,-186.48 745.82,-193.01 803,-202.86 824.91,-206.63 849.08,-212.36 868.57,-217.38"/>
<polygon fill="#63b8ff" stroke="#63b8ff" points="632.63,-179.07 622.39,-181.77 632.08,-186.05 632.63,-179.07"/>
</a>
</g>
</g>
<!-- Node14 -->
<g id="Node000014" class="node">
<title>Node14</title>
<g id="a_Node000014"><a xlink:href="class_data_base_g_u_i.html#a778bdaec7f9281df4c0ead66c9dcffd2" target="_top" xlink:title="Adds a new lesson to the database.">
<polygon fill="white" stroke="#666666" points="470.62,-149.86 337.62,-149.86 337.62,-129.86 470.62,-129.86 470.62,-149.86"/>
<text text-anchor="middle" x="404.12" y="-136.36" font-family="Helvetica,sans-Serif" font-size="10.00">DataBaseGUI::lesson_add</text>
</a>
</g>
</g>
<!-- Node13&#45;&gt;Node14 -->
<g id="edge14_Node000013_Node000014" class="edge">
<title>Node13&#45;&gt;Node14</title>
<g id="a_edge14_Node000013_Node000014"><a xlink:title=" ">
<path fill="none" stroke="#63b8ff" d="M495.81,-161.72C479.83,-157.87 463.18,-153.85 448.57,-150.33"/>
<polygon fill="#63b8ff" stroke="#63b8ff" points="494.72,-165.06 505.26,-164 496.36,-158.25 494.72,-165.06"/>
</a>
</g>
</g>
<!-- Node15 -->
<g id="Node000015" class="node">
<title>Node15</title>
<g id="a_Node000015"><a xlink:href="class_data_base_g_u_i.html#a66a3e89a9852de3522d98f2c1f8cdeed" target="_top" xlink:title="Removes a lesson from the database.">
<polygon fill="white" stroke="#666666" points="460.12,-287.86 348.12,-287.86 348.12,-255.86 460.12,-255.86 460.12,-287.86"/>
<text text-anchor="start" x="356.12" y="-274.36" font-family="Helvetica,sans-Serif" font-size="10.00">DataBaseGUI::lesson</text>
<text text-anchor="middle" x="404.12" y="-262.36" font-family="Helvetica,sans-Serif" font-size="10.00">_remove</text>
</a>
</g>
</g>
<!-- Node13&#45;&gt;Node15 -->
<g id="edge16_Node000013_Node000015" class="edge">
<title>Node13&#45;&gt;Node15</title>
<g id="a_edge16_Node000013_Node000015"><a xlink:title=" ">
<path fill="none" stroke="#63b8ff" d="M513.35,-199.45C511.19,-200.57 509.06,-201.71 507,-202.86 478.08,-218.98 446.83,-240.87 426.68,-255.64"/>
<polygon fill="#63b8ff" stroke="#63b8ff" points="514.87,-202.6 522.28,-195.03 511.76,-196.33 514.87,-202.6"/>
</a>
</g>
</g>
<!-- Node16 -->
<g id="Node000016" class="node">
<title>Node16</title>
<g id="a_Node000016"><a xlink:href="class_data_base_g_u_i.html#a0478b87f545d97b9e3ef55858242878b" target="_top" xlink:title="Changes the sorting method for lessons.">
<polygon fill="white" stroke="#666666" points="460.12,-199.86 348.12,-199.86 348.12,-167.86 460.12,-167.86 460.12,-199.86"/>
<text text-anchor="start" x="356.12" y="-186.36" font-family="Helvetica,sans-Serif" font-size="10.00">DataBaseGUI::lesson</text>
<text text-anchor="middle" x="404.12" y="-174.36" font-family="Helvetica,sans-Serif" font-size="10.00">_sort_change</text>
</a>
</g>
</g>
<!-- Node13&#45;&gt;Node16 -->
<g id="edge19_Node000013_Node000016" class="edge">
<title>Node13&#45;&gt;Node16</title>
<g id="a_edge19_Node000013_Node000016"><a xlink:title=" ">
<path fill="none" stroke="#63b8ff" d="M495.26,-180.43C483.64,-180.87 471.68,-181.32 460.43,-181.75"/>
<polygon fill="#63b8ff" stroke="#63b8ff" points="495.36,-183.93 505.22,-180.05 495.1,-176.93 495.36,-183.93"/>
</a>
</g>
</g>
<!-- Node17 -->
<g id="Node000017" class="node">
<title>Node17</title>
<g id="a_Node000017"><a xlink:href="class_data_base_g_u_i.html#a438b5070d6a58ffa5e884d18740852c6" target="_top" xlink:title="Handles tab change events.">
<polygon fill="white" stroke="#666666" points="471,-111.86 337.25,-111.86 337.25,-91.86 471,-91.86 471,-111.86"/>
<text text-anchor="middle" x="404.12" y="-98.36" font-family="Helvetica,sans-Serif" font-size="10.00">DataBaseGUI::tab_change</text>
</a>
</g>
</g>
<!-- Node13&#45;&gt;Node17 -->
<g id="edge22_Node000013_Node000017" class="edge">
<title>Node13&#45;&gt;Node17</title>
<g id="a_edge22_Node000013_Node000017"><a xlink:title=" ">
<path fill="none" stroke="#63b8ff" d="M530.85,-155.01C513.74,-143.54 491.91,-130.16 471,-120.86 463.71,-117.62 455.73,-114.77 447.91,-112.34"/>
<polygon fill="#63b8ff" stroke="#63b8ff" points="528.86,-157.89 539.1,-160.64 532.81,-152.11 528.86,-157.89"/>
</a>
</g>
</g>
<!-- Node14&#45;&gt;Node10 -->
<g id="edge15_Node000014_Node000010" class="edge">
<title>Node14&#45;&gt;Node10</title>
<g id="a_edge15_Node000014_Node000010"><a xlink:title=" ">
<path fill="none" stroke="#63b8ff" d="M325.87,-139.86C315.39,-139.86 304.84,-139.86 294.93,-139.86"/>
<polygon fill="#63b8ff" stroke="#63b8ff" points="325.66,-143.36 335.66,-139.86 325.66,-136.36 325.66,-143.36"/>
</a>
</g>
</g>
<!-- Node15&#45;&gt;Node7 -->
<g id="edge17_Node000015_Node000007" class="edge">
<title>Node15&#45;&gt;Node7</title>
<g id="a_edge17_Node000015_Node000007"><a xlink:title=" ">
<path fill="none" stroke="#63b8ff" d="M336.69,-288.78C325.02,-291.75 312.94,-294.82 301.48,-297.74"/>
<polygon fill="#63b8ff" stroke="#63b8ff" points="337.42,-292.2 346.25,-286.34 335.7,-285.42 337.42,-292.2"/>
</a>
</g>
</g>
<!-- Node15&#45;&gt;Node8 -->
<g id="edge18_Node000015_Node000008" class="edge">
<title>Node15&#45;&gt;Node8</title>
<g id="a_edge18_Node000015_Node000008"><a xlink:title=" ">
<path fill="none" stroke="#63b8ff" d="M471.65,-268.38C514.36,-265.56 570.92,-260.73 620.5,-252.86 636.41,-250.33 653.45,-246.79 669.2,-243.17"/>
<polygon fill="#63b8ff" stroke="#63b8ff" points="471.53,-264.88 461.78,-269.01 471.98,-271.87 471.53,-264.88"/>
</a>
</g>
</g>
<!-- Node16&#45;&gt;Node10 -->
<g id="edge20_Node000016_Node000010" class="edge">
<title>Node16&#45;&gt;Node10</title>
<g id="a_edge20_Node000016_Node000010"><a xlink:title=" ">
<path fill="none" stroke="#63b8ff" d="M336.87,-165.75C317.63,-160.49 297.28,-154.93 280.39,-150.32"/>
<polygon fill="#63b8ff" stroke="#63b8ff" points="335.69,-169.06 346.26,-168.32 337.53,-162.3 335.69,-169.06"/>
</a>
</g>
</g>
<!-- Node17&#45;&gt;Node10 -->
<g id="edge23_Node000017_Node000010" class="edge">
<title>Node17&#45;&gt;Node10</title>
<g id="a_edge23_Node000017_Node000010"><a xlink:title=" ">
<path fill="none" stroke="#63b8ff" d="M347.56,-114.97C327.57,-119.69 305.3,-124.95 286.4,-129.41"/>
<polygon fill="#63b8ff" stroke="#63b8ff" points="348.3,-118.39 357.23,-112.69 346.7,-111.58 348.3,-118.39"/>
</a>
</g>
</g>
<!-- Node18&#45;&gt;Node1 -->
<g id="edge31_Node000018_Node000001" class="edge">
<title>Node18&#45;&gt;Node1</title>
<g id="a_edge31_Node000018_Node000001"><a xlink:title=" ">
<path fill="none" stroke="#63b8ff" d="M1331.56,-99.22C1374.11,-101.93 1428.72,-106.68 1476.75,-114.86 1489.79,-117.08 1503.64,-120.16 1516.69,-123.41"/>
<polygon fill="#63b8ff" stroke="#63b8ff" points="1331.88,-95.73 1321.68,-98.62 1331.45,-102.72 1331.88,-95.73"/>
</a>
</g>
</g>
<!-- Node18&#45;&gt;Node17 -->
<g id="edge34_Node000018_Node000017" class="edge">
<title>Node18&#45;&gt;Node17</title>
<g id="a_edge34_Node000018_Node000017"><a xlink:title=" ">
<path fill="none" stroke="#63b8ff" d="M1184.08,-97.84C1113.69,-99.59 1003.91,-101.86 908.75,-101.86 908.75,-101.86 908.75,-101.86 728.75,-101.86 639.7,-101.86 536.86,-101.86 471.44,-101.86"/>
<polygon fill="#63b8ff" stroke="#63b8ff" points="1184.04,-101.34 1193.95,-97.59 1183.87,-94.34 1184.04,-101.34"/>
</a>
</g>
</g>
<!-- Node19 -->
<g id="Node000019" class="node">
<title>Node19</title>
<g id="a_Node000019"><a xlink:href="class_data_base_g_u_i.html#a0f194ae2af0655dbec77fea4c37a0388" target="_top" xlink:title="Adds a new employee to the database.">
<polygon fill="white" stroke="#666666" points="803,-73.86 656.5,-73.86 656.5,-53.86 803,-53.86 803,-73.86"/>
<text text-anchor="middle" x="729.75" y="-60.36" font-family="Helvetica,sans-Serif" font-size="10.00">DataBaseGUI::employee_add</text>
</a>
</g>
</g>
<!-- Node18&#45;&gt;Node19 -->
<g id="edge26_Node000018_Node000019" class="edge">
<title>Node18&#45;&gt;Node19</title>
<g id="a_edge26_Node000018_Node000019"><a xlink:title=" ">
<path fill="none" stroke="#63b8ff" d="M1184.05,-89.7C1175.61,-89.05 1167.12,-88.42 1159,-87.86 1034.01,-79.24 888.33,-71.59 803.15,-67.35"/>
<polygon fill="#63b8ff" stroke="#63b8ff" points="1183.75,-93.19 1193.99,-90.48 1184.3,-86.21 1183.75,-93.19"/>
</a>
</g>
</g>
<!-- Node20 -->
<g id="Node000020" class="node">
<title>Node20</title>
<g id="a_Node000020"><a xlink:href="class_data_base_g_u_i.html#ae9c0b91905f7d70563c285cd9b5dace3" target="_top" xlink:title="Edits an existing employee in the database.">
<polygon fill="white" stroke="#666666" points="1159,-149.86 1012.5,-149.86 1012.5,-129.86 1159,-129.86 1159,-149.86"/>
<text text-anchor="middle" x="1085.75" y="-136.36" font-family="Helvetica,sans-Serif" font-size="10.00">DataBaseGUI::employee_edit</text>
</a>
</g>
</g>
<!-- Node18&#45;&gt;Node20 -->
<g id="edge28_Node000018_Node000020" class="edge">
<title>Node18&#45;&gt;Node20</title>
<g id="a_edge28_Node000018_Node000020"><a xlink:title=" ">
<path fill="none" stroke="#63b8ff" d="M1184.3,-114.61C1164.7,-119.68 1144.2,-124.99 1127.08,-129.42"/>
<polygon fill="#63b8ff" stroke="#63b8ff" points="1185.11,-118.02 1193.91,-112.12 1183.35,-111.24 1185.11,-118.02"/>
</a>
</g>
</g>
<!-- Node21 -->
<g id="Node000021" class="node">
<title>Node21</title>
<g id="a_Node000021"><a xlink:href="class_data_base_g_u_i.html#a7db832ef3939cc57a78a16f4c09994a6" target="_top" xlink:title="Changes the sorting method for employees.">
<polygon fill="white" stroke="#666666" points="970.5,-35.86 845,-35.86 845,-3.86 970.5,-3.86 970.5,-35.86"/>
<text text-anchor="start" x="853" y="-22.36" font-family="Helvetica,sans-Serif" font-size="10.00">DataBaseGUI::employee</text>
<text text-anchor="middle" x="907.75" y="-10.36" font-family="Helvetica,sans-Serif" font-size="10.00">_sort_change</text>
</a>
</g>
</g>
<!-- Node18&#45;&gt;Node21 -->
<g id="edge32_Node000018_Node000021" class="edge">
<title>Node18&#45;&gt;Node21</title>
<g id="a_edge32_Node000018_Node000021"><a xlink:title=" ">
<path fill="none" stroke="#63b8ff" d="M1218.32,-74.27C1200.75,-65.33 1179.34,-55.7 1159,-49.86 1096.44,-31.9 1022.09,-24.68 970.77,-21.79"/>
<polygon fill="#63b8ff" stroke="#63b8ff" points="1216.37,-77.2 1226.85,-78.73 1219.61,-70.99 1216.37,-77.2"/>
</a>
</g>
</g>
<!-- Node19&#45;&gt;Node10 -->
<g id="edge27_Node000019_Node000010" class="edge">
<title>Node19&#45;&gt;Node10</title>
<g id="a_edge27_Node000019_Node000010"><a xlink:title=" ">
<path fill="none" stroke="#63b8ff" d="M645.16,-56.34C564.51,-51.75 439.88,-51.77 337.25,-82.86 304.82,-92.68 272.02,-115.94 254.69,-129.52"/>
<polygon fill="#63b8ff" stroke="#63b8ff" points="644.54,-59.81 654.74,-56.92 644.97,-52.82 644.54,-59.81"/>
</a>
</g>
</g>
<!-- Node20&#45;&gt;Node2 -->
<g id="edge29_Node000020_Node000002" class="edge">
<title>Node20&#45;&gt;Node2</title>
<g id="a_edge29_Node000020_Node000002"><a xlink:title=" ">
<path fill="none" stroke="#63b8ff" d="M1000.78,-151.79C989.82,-153.34 978.77,-154.91 968.32,-156.4"/>
<polygon fill="#63b8ff" stroke="#63b8ff" points="1001.24,-155.26 1010.65,-150.38 1000.26,-148.33 1001.24,-155.26"/>
</a>
</g>
</g>
<!-- Node20&#45;&gt;Node3 -->
<g id="edge30_Node000020_Node000003" class="edge">
<title>Node20&#45;&gt;Node3</title>
<g id="a_edge30_Node000020_Node000003"><a xlink:title=" ">
<path fill="none" stroke="#63b8ff" d="M1170.7,-139.86C1228.64,-139.86 1304.27,-139.86 1356.07,-139.86"/>
<polygon fill="#63b8ff" stroke="#63b8ff" points="1170.87,-136.36 1160.87,-139.86 1170.87,-143.36 1170.87,-136.36"/>
</a>
</g>
</g>
<!-- Node21&#45;&gt;Node10 -->
<g id="edge33_Node000021_Node000010" class="edge">
<title>Node21&#45;&gt;Node10</title>
<g id="a_edge33_Node000021_Node000010"><a xlink:title=" ">
<path fill="none" stroke="#63b8ff" d="M833.65,-9.59C721.86,2.94 503.85,14.66 337.25,-54.86 298.01,-71.23 264.12,-110.86 249.63,-129.65"/>
<polygon fill="#63b8ff" stroke="#63b8ff" points="832.95,-13.03 843.29,-10.7 833.76,-6.08 832.95,-13.03"/>
</a>
</g>
</g>
</g>
</svg>

<g id="navigator" transform="translate(0 0)" fill="#404254">
  <rect fill="#f2f5e9" fill-opacity="0.5" stroke="#606060" stroke-width=".5" x="0" y="0" width="60" height="60"/>
  <use id="zoomplus" xlink:href="#zoomPlus" x="17" y="9" onmousedown="handleZoom(evt,'in')"/>
  <use id="zoomminus" xlink:href="#zoomMin" x="42" y="9" onmousedown="handleZoom(evt,'out')"/>
  <use id="reset" xlink:href="#resetDef" x="30" y="36" onmousedown="handleReset()"/>
   <use id="arrowup" xlink:href="#arrowUp" x="0" y="0" onmousedown="handlePan(0,-1)"/>
  <use id="arrowright" xlink:href="#arrowRight" x="0" y="0" onmousedown="handlePan(1,0)"/>
  <use id="arrowdown" xlink:href="#arrowDown" x="0" y="0" onmousedown="handlePan(0,1)"/>
  <use id="arrowleft" xlink:href="#arrowLeft" x="0" y="0" onmousedown="handlePan(-1,0)"/>
</g>
<svg viewBox="0 0 15 15" width="100%" height="30px" preserveAspectRatio="xMaxYMin meet">
 <g id="arrow_out" transform="scale(0.3 0.3)">
  <a xlink:href="class_data_base_g_u_i_a4b70294327e9c316224af10d7a369749_icgraph_org.svg" target="_base">
   <rect id="button" ry="5" rx="5" y="6" x="6" height="38" width="38"
        fill="#f2f5e9" fill-opacity="0.5" stroke="#606060" stroke-width="1.0"/>
   <path id="arrow"
     d="M 11.500037,31.436501 C 11.940474,20.09759 22.043105,11.32322 32.158766,21.979434 L 37.068811,17.246167 C 37.068811,17.246167 37.088388,32 37.088388,32 L 22.160133,31.978069 C 22.160133,31.978069 26.997745,27.140456 26.997745,27.140456 C 18.528582,18.264221 13.291696,25.230495 11.500037,31.436501 z"
     style="fill:#404040;"/>
  </a>
 </g>
</svg>

<style type='text/css'>
<![CDATA[
[data-mouse-over-selected='false'] { opacity: 0.7; }
[data-mouse-over-selected='true']  { opacity: 1.0; }
]]>
</style>
<script type="application/ecmascript"><![CDATA[
document.addEventListener('DOMContentLoaded', (event) => {
  highlightEdges();
  highlightAdjacentNodes();
});
]]></script>
</svg>
