<?xml version="1.0" encoding="UTF-8" standalone="no"?>
<!DOCTYPE svg PUBLIC "-//W3C//DTD SVG 1.1//EN"
 "http://www.w3.org/Graphics/SVG/1.1/DTD/svg11.dtd">
<!-- Generated by graphviz version 12.2.1 (20241206.2353)
 -->
<!-- Title: DateTime::DateTime Pages: 1 -->
<svg width="259pt" height="104pt"
 viewBox="0.00 0.00 259.00 104.00" xmlns="http://www.w3.org/2000/svg" xmlns:xlink="http://www.w3.org/1999/xlink">
<g id="graph0" class="graph" transform="scale(1 1) rotate(0) translate(4 100)">
<title>DateTime::DateTime</title>
<!-- Node1 -->
<g id="Node000001" class="node">
<title>Node1</title>
<g id="a_Node000001"><a xlink:title=" ">
<polygon fill="#999999" stroke="#666666" points="107.5,-58 0,-58 0,-38 107.5,-38 107.5,-58"/>
<text text-anchor="middle" x="53.75" y="-44.5" font-family="Helvetica,sans-Serif" font-size="10.00">DateTime::DateTime</text>
</a>
</g>
</g>
<!-- Node2 -->
<g id="Node000002" class="node">
<title>Node2</title>
<g id="a_Node000002"><a xlink:href="class_date.html#a19cb325d7fc9e143f9095e7eadc8a1a4" target="_top" xlink:title="Default constructor.">
<polygon fill="white" stroke="#666666" points="229.25,-96 165.25,-96 165.25,-76 229.25,-76 229.25,-96"/>
<text text-anchor="middle" x="197.25" y="-82.5" font-family="Helvetica,sans-Serif" font-size="10.00">Date::Date</text>
</a>
</g>
</g>
<!-- Node1&#45;&gt;Node2 -->
<g id="edge1_Node000001_Node000002" class="edge">
<title>Node1&#45;&gt;Node2</title>
<g id="a_edge1_Node000001_Node000002"><a xlink:title=" ">
<path fill="none" stroke="#63b8ff" d="M93.79,-58.48C112.44,-63.49 134.79,-69.5 153.86,-74.62"/>
<polygon fill="#63b8ff" stroke="#63b8ff" points="152.92,-77.99 163.48,-77.2 154.73,-71.23 152.92,-77.99"/>
</a>
</g>
</g>
<!-- Node3 -->
<g id="Node000003" class="node">
<title>Node3</title>
<g id="a_Node000003"><a xlink:href="class_date_time.html#afa7d2eb61840fe713cb4f98795c23a53" target="_top" xlink:title="Default constructor.">
<polygon fill="white" stroke="#666666" points="251,-58 143.5,-58 143.5,-38 251,-38 251,-58"/>
<text text-anchor="middle" x="197.25" y="-44.5" font-family="Helvetica,sans-Serif" font-size="10.00">DateTime::DateTime</text>
</a>
</g>
</g>
<!-- Node1&#45;&gt;Node3 -->
<g id="edge2_Node000001_Node000003" class="edge">
<title>Node1&#45;&gt;Node3</title>
<g id="a_edge2_Node000001_Node000003"><a xlink:title=" ">
<path fill="none" stroke="#63b8ff" d="M107.84,-48C115.73,-48 123.93,-48 132.02,-48"/>
<polygon fill="#63b8ff" stroke="#63b8ff" points="131.82,-51.5 141.82,-48 131.82,-44.5 131.82,-51.5"/>
</a>
</g>
</g>
<!-- Node4 -->
<g id="Node000004" class="node">
<title>Node4</title>
<g id="a_Node000004"><a xlink:href="class_time.html#a0eedb4e626b8e3fdcaf63519b86ea778" target="_top" xlink:title="Default constructor.">
<polygon fill="white" stroke="#666666" points="230,-20 164.5,-20 164.5,0 230,0 230,-20"/>
<text text-anchor="middle" x="197.25" y="-6.5" font-family="Helvetica,sans-Serif" font-size="10.00">Time::Time</text>
</a>
</g>
</g>
<!-- Node1&#45;&gt;Node4 -->
<g id="edge3_Node000001_Node000004" class="edge">
<title>Node1&#45;&gt;Node4</title>
<g id="a_edge3_Node000001_Node000004"><a xlink:title=" ">
<path fill="none" stroke="#63b8ff" d="M93.79,-37.52C112.17,-32.58 134.14,-26.68 153.02,-21.61"/>
<polygon fill="#63b8ff" stroke="#63b8ff" points="153.81,-25.02 162.56,-19.05 151.99,-18.26 153.81,-25.02"/>
</a>
</g>
</g>
</g>
</svg>
