<?xml version="1.0" encoding="UTF-8" standalone="no"?>
<!DOCTYPE svg PUBLIC "-//W3C//DTD SVG 1.1//EN"
 "http://www.w3.org/Graphics/SVG/1.1/DTD/svg11.dtd">
<!-- Generated by graphviz version 12.2.1 (20241206.2353)
 -->
<!-- Title: Database::add_lesson Pages: 1 -->
<svg width="935pt" height="62pt"
 viewBox="0.00 0.00 935.00 62.00" xmlns="http://www.w3.org/2000/svg" xmlns:xlink="http://www.w3.org/1999/xlink">
<g id="graph0" class="graph" transform="scale(1 1) rotate(0) translate(4 58)">
<title>Database::add_lesson</title>
<!-- Node1 -->
<g id="Node000001" class="node">
<title>Node1</title>
<g id="a_Node000001"><a xlink:title="Adds a lesson to the database.">
<polygon fill="#999999" stroke="#666666" points="927,-48 813.5,-48 813.5,-28 927,-28 927,-48"/>
<text text-anchor="middle" x="870.25" y="-34.5" font-family="Helvetica,sans-Serif" font-size="10.00">Database::add_lesson</text>
</a>
</g>
</g>
<!-- Node2 -->
<g id="Node000002" class="node">
<title>Node2</title>
<g id="a_Node000002"><a xlink:href="class_c_s_v___parser.html#abf9be7d0476752028afd45de9be64877" target="_top" xlink:title="Parses a lesson from a CSV line.">
<polygon fill="white" stroke="#666666" points="607,-48 472.5,-48 472.5,-28 607,-28 607,-48"/>
<text text-anchor="middle" x="539.75" y="-34.5" font-family="Helvetica,sans-Serif" font-size="10.00">CSV_Parser::parse_lesson</text>
</a>
</g>
</g>
<!-- Node1&#45;&gt;Node2 -->
<g id="edge1_Node000001_Node000002" class="edge">
<title>Node1&#45;&gt;Node2</title>
<g id="a_edge1_Node000001_Node000002"><a xlink:title=" ">
<path fill="none" stroke="#63b8ff" d="M802.2,-40.45C793.89,-40.67 785.5,-40.87 777.5,-41 717.73,-41.98 702.77,-41.88 643,-41 631.46,-40.83 619.18,-40.55 607.3,-40.24"/>
<polygon fill="#63b8ff" stroke="#63b8ff" points="802.05,-43.95 811.95,-40.16 801.85,-36.95 802.05,-43.95"/>
</a>
</g>
</g>
<!-- Node6 -->
<g id="Node000006" class="node">
<title>Node6</title>
<g id="a_Node000006"><a xlink:href="class_c_s_v___parser.html#a2645253cdd45f0fe2df1f4883ab64b36" target="_top" xlink:title="Parses lesson&#39;s attendance from a CSV line.">
<polygon fill="white" stroke="#666666" points="777.5,-32 643,-32 643,0 777.5,0 777.5,-32"/>
<text text-anchor="start" x="651" y="-18.5" font-family="Helvetica,sans-Serif" font-size="10.00">CSV_Parser::parse_lesson</text>
<text text-anchor="middle" x="710.25" y="-6.5" font-family="Helvetica,sans-Serif" font-size="10.00">_attendance</text>
</a>
</g>
</g>
<!-- Node1&#45;&gt;Node6 -->
<g id="edge5_Node000001_Node000006" class="edge">
<title>Node1&#45;&gt;Node6</title>
<g id="a_edge5_Node000001_Node000006"><a xlink:title=" ">
<path fill="none" stroke="#63b8ff" d="M801.93,-28.63C793.92,-27.51 785.75,-26.37 777.75,-25.26"/>
<polygon fill="#63b8ff" stroke="#63b8ff" points="801.21,-32.06 811.6,-29.97 802.18,-25.13 801.21,-32.06"/>
</a>
</g>
</g>
<!-- Node3 -->
<g id="Node000003" class="node">
<title>Node3</title>
<g id="a_Node000003"><a xlink:href="class_database.html#a5234a41c55542e88486c147ca399f386" target="_top" xlink:title="Imports lessons from a CSV file.">
<polygon fill="white" stroke="#666666" points="436.5,-54 303.5,-54 303.5,-22 436.5,-22 436.5,-54"/>
<text text-anchor="start" x="311.5" y="-40.5" font-family="Helvetica,sans-Serif" font-size="10.00">Database::import_Lessons</text>
<text text-anchor="middle" x="370" y="-28.5" font-family="Helvetica,sans-Serif" font-size="10.00">_from_csv_file</text>
</a>
</g>
</g>
<!-- Node2&#45;&gt;Node3 -->
<g id="edge2_Node000002_Node000003" class="edge">
<title>Node2&#45;&gt;Node3</title>
<g id="a_edge2_Node000002_Node000003"><a xlink:title=" ">
<path fill="none" stroke="#63b8ff" d="M461.07,-38C452.96,-38 444.78,-38 436.82,-38"/>
<polygon fill="#63b8ff" stroke="#63b8ff" points="460.94,-41.5 470.94,-38 460.94,-34.5 460.94,-41.5"/>
</a>
</g>
</g>
<!-- Node4 -->
<g id="Node000004" class="node">
<title>Node4</title>
<g id="a_Node000004"><a xlink:href="class_database.html#af3b2c97f6ffbcff3ec1c0f78a91d6107" target="_top" xlink:title="Imports data from a stream.">
<polygon fill="white" stroke="#666666" points="267.5,-54 151.75,-54 151.75,-22 267.5,-22 267.5,-54"/>
<text text-anchor="start" x="159.75" y="-40.5" font-family="Helvetica,sans-Serif" font-size="10.00">Database::import_from</text>
<text text-anchor="middle" x="209.62" y="-28.5" font-family="Helvetica,sans-Serif" font-size="10.00">_stream</text>
</a>
</g>
</g>
<!-- Node3&#45;&gt;Node4 -->
<g id="edge3_Node000003_Node000004" class="edge">
<title>Node3&#45;&gt;Node4</title>
<g id="a_edge3_Node000003_Node000004"><a xlink:title=" ">
<path fill="none" stroke="#63b8ff" d="M291.85,-38C283.78,-38 275.68,-38 267.88,-38"/>
<polygon fill="#63b8ff" stroke="#63b8ff" points="291.7,-41.5 301.7,-38 291.7,-34.5 291.7,-41.5"/>
</a>
</g>
</g>
<!-- Node5 -->
<g id="Node000005" class="node">
<title>Node5</title>
<g id="a_Node000005"><a xlink:href="class_database.html#a0a08797a6ca7a3456150370e3f816d4c" target="_top" xlink:title="Imports data from a CSV file.">
<polygon fill="white" stroke="#666666" points="115.75,-54 0,-54 0,-22 115.75,-22 115.75,-54"/>
<text text-anchor="start" x="8" y="-40.5" font-family="Helvetica,sans-Serif" font-size="10.00">Database::import_from</text>
<text text-anchor="middle" x="57.88" y="-28.5" font-family="Helvetica,sans-Serif" font-size="10.00">_csv_file</text>
</a>
</g>
</g>
<!-- Node4&#45;&gt;Node5 -->
<g id="edge4_Node000004_Node000005" class="edge">
<title>Node4&#45;&gt;Node5</title>
<g id="a_edge4_Node000004_Node000005"><a xlink:title=" ">
<path fill="none" stroke="#63b8ff" d="M140.16,-38C131.99,-38 123.73,-38 115.76,-38"/>
<polygon fill="#63b8ff" stroke="#63b8ff" points="140.07,-41.5 150.07,-38 140.07,-34.5 140.07,-41.5"/>
</a>
</g>
</g>
<!-- Node6&#45;&gt;Node2 -->
<g id="edge6_Node000006_Node000002" class="edge">
<title>Node6&#45;&gt;Node2</title>
<g id="a_edge6_Node000006_Node000002"><a xlink:title=" ">
<path fill="none" stroke="#63b8ff" d="M631.4,-26.16C623.39,-27.21 615.29,-28.27 607.41,-29.3"/>
<polygon fill="#63b8ff" stroke="#63b8ff" points="631.69,-29.66 641.15,-24.89 630.78,-22.72 631.69,-29.66"/>
</a>
</g>
</g>
</g>
</svg>
