<?xml version="1.0" encoding="UTF-8" standalone="no"?>
<!DOCTYPE svg PUBLIC "-//W3C//DTD SVG 1.1//EN"
 "http://www.w3.org/Graphics/SVG/1.1/DTD/svg11.dtd">
<!-- Generated by graphviz version 12.2.1 (20241206.2353)
 -->
<!-- Title: Database::filter_child_by_name Pages: 1 -->
<!--zoomable 140 -->

<svg id="main" version="1.1" xmlns="http://www.w3.org/2000/svg" xmlns:xlink="http://www.w3.org/1999/xlink" xml:space="preserve" onload="init(evt)">

<style type="text/css"><![CDATA[
.node, .edge {opacity: 0.7;}
.node.selected, .edge.selected {opacity: 1;}
.edge:hover path { stroke: red; }
.edge:hover polygon { stroke: red; fill: red; }
]]></style>

<defs>
  <circle id="rim" cx="0" cy="0" r="7"/>
  <circle id="rim2" cx="0" cy="0" r="3.5"/>
  <g id="zoomPlus">
    <use xlink:href="#rim" fill="#404040"><set attributeName="fill" to="#808080" begin="zoomplus.mouseover" end="zoomplus.mouseout"/></use>
    <path d="M-4,0h8M0,-4v8" fill="none" stroke="white" stroke-width="1.5" pointer-events="none"/>
  </g>
  <g id="zoomMin">
    <use xlink:href="#rim" fill="#404040"><set attributeName="fill" to="#808080" begin="zoomminus.mouseover" end="zoomminus.mouseout"/></use>
    <path d="M-4,0h8" fill="none" stroke="white" stroke-width="1.5" pointer-events="none"/>
  </g>
  <g id="arrowUp" transform="translate(30 24)">
    <use xlink:href="#rim"/>
    <path pointer-events="none" fill="none" stroke="white" stroke-width="1.5" d="M0,-3.0v7 M-2.5,-0.5L0,-3.0L2.5,-0.5"/>
  </g>
  <g id="arrowRight" transform="rotate(90) translate(36 -43)">
    <use xlink:href="#rim"/>
    <path pointer-events="none" fill="none" stroke="white" stroke-width="1.5" d="M0,-3.0v7 M-2.5,-0.5L0,-3.0L2.5,-0.5"/>
  </g>
  <g id="arrowDown" transform="rotate(180) translate(-30 -48)">
    <use xlink:href="#rim"/>
    <path pointer-events="none" fill="none" stroke="white" stroke-width="1.5" d="M0,-3.0v7 M-2.5,-0.5L0,-3.0L2.5,-0.5"/>
  </g>
  <g id="arrowLeft" transform="rotate(270) translate(-36 17)">
    <use xlink:href="#rim"/>
    <path pointer-events="none" fill="none" stroke="white" stroke-width="1.5" d="M0,-3.0v7 M-2.5,-0.5L0,-3.0L2.5,-0.5"/>
  </g>
  <g id="resetDef">
    <use xlink:href="#rim2" fill="#404040"><set attributeName="fill" to="#808080" begin="reset.mouseover" end="reset.mouseout"/></use>
  </g>
</defs>
<script type="application/ecmascript">
var viewWidth = 1082;
var viewHeight = 140;
var sectionId = 'dynsection-21';
</script>
<script type="application/ecmascript" xlink:href="svg.min.js"/>
<svg id="graph" class="graph">
<g id="viewport">
<title>Database::filter_child_by_name</title>
<!-- Node1 -->
<g id="Node000001" class="node">
<title>Node1</title>
<g id="a_Node000001"><a xlink:title="Filters children by name.">
<polygon fill="#999999" stroke="#666666" points="1074.25,-107 966,-107 966,-75 1074.25,-75 1074.25,-107"/>
<text text-anchor="start" x="974" y="-93.5" font-family="Helvetica,sans-Serif" font-size="10.00">Database::filter_child</text>
<text text-anchor="middle" x="1020.12" y="-81.5" font-family="Helvetica,sans-Serif" font-size="10.00">_by_name</text>
</a>
</g>
</g>
<!-- Node2 -->
<g id="Node000002" class="node">
<title>Node2</title>
<g id="a_Node000002"><a xlink:href="class_database.html#ad8e7c7035665c903a8a34b5dbff4e2a6" target="_top" xlink:title="Filters lessons by a child&#39;s name.">
<polygon fill="white" stroke="#666666" points="930,-132 813.5,-132 813.5,-100 930,-100 930,-132"/>
<text text-anchor="start" x="821.5" y="-118.5" font-family="Helvetica,sans-Serif" font-size="10.00">Database::filter_lesson</text>
<text text-anchor="middle" x="871.75" y="-106.5" font-family="Helvetica,sans-Serif" font-size="10.00">_by_child_name</text>
</a>
</g>
</g>
<!-- Node1&#45;&gt;Node2 -->
<g id="edge1_Node000001_Node000002" class="edge">
<title>Node1&#45;&gt;Node2</title>
<g id="a_edge1_Node000001_Node000002"><a xlink:title=" ">
<path fill="none" stroke="#63b8ff" d="M954.53,-102.03C946.42,-103.42 938.16,-104.83 930.17,-106.19"/>
<polygon fill="#63b8ff" stroke="#63b8ff" points="955.11,-105.48 964.37,-100.35 953.93,-98.58 955.11,-105.48"/>
</a>
</g>
</g>
<!-- Node4 -->
<g id="Node000004" class="node">
<title>Node4</title>
<g id="a_Node000004"><a xlink:href="class_database.html#a60ef6f17c1f6e1da26cf7fafd568164f" target="_top" xlink:title="Gets a child by name and surname.">
<polygon fill="white" stroke="#666666" points="923.62,-82 819.88,-82 819.88,-50 923.62,-50 923.62,-82"/>
<text text-anchor="start" x="827.88" y="-68.5" font-family="Helvetica,sans-Serif" font-size="10.00">Database::get_child</text>
<text text-anchor="middle" x="871.75" y="-56.5" font-family="Helvetica,sans-Serif" font-size="10.00">_by_name_surname</text>
</a>
</g>
</g>
<!-- Node1&#45;&gt;Node4 -->
<g id="edge3_Node000001_Node000004" class="edge">
<title>Node1&#45;&gt;Node4</title>
<g id="a_edge3_Node000001_Node000004"><a xlink:title=" ">
<path fill="none" stroke="#63b8ff" d="M954.75,-80C944.38,-78.23 933.77,-76.42 923.77,-74.71"/>
<polygon fill="#63b8ff" stroke="#63b8ff" points="953.93,-83.42 964.37,-81.65 955.11,-76.52 953.93,-83.42"/>
</a>
</g>
</g>
<!-- Node3 -->
<g id="Node000003" class="node">
<title>Node3</title>
<g id="a_Node000003"><a xlink:href="class_database.html#a2474f58dd1a17687fe4bc21afb26b830" target="_top" xlink:title="Imports data from a CSV file.">
<polygon fill="white" stroke="#666666" points="776.38,-132 644.12,-132 644.12,-100 776.38,-100 776.38,-132"/>
<text text-anchor="start" x="652.12" y="-118.5" font-family="Helvetica,sans-Serif" font-size="10.00">Database::search_lessons</text>
<text text-anchor="middle" x="710.25" y="-106.5" font-family="Helvetica,sans-Serif" font-size="10.00">_by_child_name_surname</text>
</a>
</g>
</g>
<!-- Node2&#45;&gt;Node3 -->
<g id="edge2_Node000002_Node000003" class="edge">
<title>Node2&#45;&gt;Node3</title>
<g id="a_edge2_Node000002_Node000003"><a xlink:title=" ">
<path fill="none" stroke="#63b8ff" d="M801.67,-116C793.44,-116 785.05,-116 776.87,-116"/>
<polygon fill="#63b8ff" stroke="#63b8ff" points="801.65,-119.5 811.65,-116 801.65,-112.5 801.65,-119.5"/>
</a>
</g>
</g>
<!-- Node5 -->
<g id="Node000005" class="node">
<title>Node5</title>
<g id="a_Node000005"><a xlink:href="class_c_s_v___parser.html#a2645253cdd45f0fe2df1f4883ab64b36" target="_top" xlink:title="Parses lesson&#39;s attendance from a CSV line.">
<polygon fill="white" stroke="#666666" points="777.5,-82 643,-82 643,-50 777.5,-50 777.5,-82"/>
<text text-anchor="start" x="651" y="-68.5" font-family="Helvetica,sans-Serif" font-size="10.00">CSV_Parser::parse_lesson</text>
<text text-anchor="middle" x="710.25" y="-56.5" font-family="Helvetica,sans-Serif" font-size="10.00">_attendance</text>
</a>
</g>
</g>
<!-- Node4&#45;&gt;Node5 -->
<g id="edge4_Node000004_Node000005" class="edge">
<title>Node4&#45;&gt;Node5</title>
<g id="a_edge4_Node000004_Node000005"><a xlink:title=" ">
<path fill="none" stroke="#63b8ff" d="M808.02,-66C798.14,-66 787.9,-66 777.94,-66"/>
<polygon fill="#63b8ff" stroke="#63b8ff" points="807.89,-69.5 817.89,-66 807.89,-62.5 807.89,-69.5"/>
</a>
</g>
</g>
<!-- Node10 -->
<g id="Node000010" class="node">
<title>Node10</title>
<g id="a_Node000010"><a xlink:href="class_c_s_v___parser.html#acc479fe8705c80c065e4d725a02c852d" target="_top" xlink:title="Parses lesson&#39;s children from a CSV line.">
<polygon fill="white" stroke="#666666" points="777.5,-32 643,-32 643,0 777.5,0 777.5,-32"/>
<text text-anchor="start" x="651" y="-18.5" font-family="Helvetica,sans-Serif" font-size="10.00">CSV_Parser::parse_lesson</text>
<text text-anchor="middle" x="710.25" y="-6.5" font-family="Helvetica,sans-Serif" font-size="10.00">_children</text>
</a>
</g>
</g>
<!-- Node4&#45;&gt;Node10 -->
<g id="edge9_Node000004_Node000010" class="edge">
<title>Node4&#45;&gt;Node10</title>
<g id="a_edge9_Node000004_Node000010"><a xlink:title=" ">
<path fill="none" stroke="#63b8ff" d="M808.78,-46.57C793.94,-41.92 778.24,-37 763.87,-32.49"/>
<polygon fill="#63b8ff" stroke="#63b8ff" points="807.37,-49.8 817.96,-49.45 809.47,-43.12 807.37,-49.8"/>
</a>
</g>
</g>
<!-- Node6 -->
<g id="Node000006" class="node">
<title>Node6</title>
<g id="a_Node000006"><a xlink:href="class_c_s_v___parser.html#abf9be7d0476752028afd45de9be64877" target="_top" xlink:title="Parses a lesson from a CSV line.">
<polygon fill="white" stroke="#666666" points="607,-51 472.5,-51 472.5,-31 607,-31 607,-51"/>
<text text-anchor="middle" x="539.75" y="-37.5" font-family="Helvetica,sans-Serif" font-size="10.00">CSV_Parser::parse_lesson</text>
</a>
</g>
</g>
<!-- Node5&#45;&gt;Node6 -->
<g id="edge5_Node000005_Node000006" class="edge">
<title>Node5&#45;&gt;Node6</title>
<g id="a_edge5_Node000005_Node000006"><a xlink:title=" ">
<path fill="none" stroke="#63b8ff" d="M631.4,-54.45C623.39,-53.26 615.29,-52.06 607.41,-50.89"/>
<polygon fill="#63b8ff" stroke="#63b8ff" points="630.75,-57.89 641.16,-55.9 631.78,-50.97 630.75,-57.89"/>
</a>
</g>
</g>
<!-- Node7 -->
<g id="Node000007" class="node">
<title>Node7</title>
<g id="a_Node000007"><a xlink:href="class_database.html#a5234a41c55542e88486c147ca399f386" target="_top" xlink:title="Imports lessons from a CSV file.">
<polygon fill="white" stroke="#666666" points="436.5,-57 303.5,-57 303.5,-25 436.5,-25 436.5,-57"/>
<text text-anchor="start" x="311.5" y="-43.5" font-family="Helvetica,sans-Serif" font-size="10.00">Database::import_Lessons</text>
<text text-anchor="middle" x="370" y="-31.5" font-family="Helvetica,sans-Serif" font-size="10.00">_from_csv_file</text>
</a>
</g>
</g>
<!-- Node6&#45;&gt;Node7 -->
<g id="edge6_Node000006_Node000007" class="edge">
<title>Node6&#45;&gt;Node7</title>
<g id="a_edge6_Node000006_Node000007"><a xlink:title=" ">
<path fill="none" stroke="#63b8ff" d="M461.07,-41C452.96,-41 444.78,-41 436.82,-41"/>
<polygon fill="#63b8ff" stroke="#63b8ff" points="460.94,-44.5 470.94,-41 460.94,-37.5 460.94,-44.5"/>
</a>
</g>
</g>
<!-- Node8 -->
<g id="Node000008" class="node">
<title>Node8</title>
<g id="a_Node000008"><a xlink:href="class_database.html#af3b2c97f6ffbcff3ec1c0f78a91d6107" target="_top" xlink:title="Imports data from a stream.">
<polygon fill="white" stroke="#666666" points="267.5,-57 151.75,-57 151.75,-25 267.5,-25 267.5,-57"/>
<text text-anchor="start" x="159.75" y="-43.5" font-family="Helvetica,sans-Serif" font-size="10.00">Database::import_from</text>
<text text-anchor="middle" x="209.62" y="-31.5" font-family="Helvetica,sans-Serif" font-size="10.00">_stream</text>
</a>
</g>
</g>
<!-- Node7&#45;&gt;Node8 -->
<g id="edge7_Node000007_Node000008" class="edge">
<title>Node7&#45;&gt;Node8</title>
<g id="a_edge7_Node000007_Node000008"><a xlink:title=" ">
<path fill="none" stroke="#63b8ff" d="M291.85,-41C283.78,-41 275.68,-41 267.88,-41"/>
<polygon fill="#63b8ff" stroke="#63b8ff" points="291.7,-44.5 301.7,-41 291.7,-37.5 291.7,-44.5"/>
</a>
</g>
</g>
<!-- Node9 -->
<g id="Node000009" class="node">
<title>Node9</title>
<g id="a_Node000009"><a xlink:href="class_database.html#a0a08797a6ca7a3456150370e3f816d4c" target="_top" xlink:title="Imports data from a CSV file.">
<polygon fill="white" stroke="#666666" points="115.75,-57 0,-57 0,-25 115.75,-25 115.75,-57"/>
<text text-anchor="start" x="8" y="-43.5" font-family="Helvetica,sans-Serif" font-size="10.00">Database::import_from</text>
<text text-anchor="middle" x="57.88" y="-31.5" font-family="Helvetica,sans-Serif" font-size="10.00">_csv_file</text>
</a>
</g>
</g>
<!-- Node8&#45;&gt;Node9 -->
<g id="edge8_Node000008_Node000009" class="edge">
<title>Node8&#45;&gt;Node9</title>
<g id="a_edge8_Node000008_Node000009"><a xlink:title=" ">
<path fill="none" stroke="#63b8ff" d="M140.16,-41C131.99,-41 123.73,-41 115.76,-41"/>
<polygon fill="#63b8ff" stroke="#63b8ff" points="140.07,-44.5 150.07,-41 140.07,-37.5 140.07,-44.5"/>
</a>
</g>
</g>
<!-- Node10&#45;&gt;Node6 -->
<g id="edge10_Node000010_Node000006" class="edge">
<title>Node10&#45;&gt;Node6</title>
<g id="a_edge10_Node000010_Node000006"><a xlink:title=" ">
<path fill="none" stroke="#63b8ff" d="M631.4,-27.55C623.39,-28.74 615.29,-29.94 607.41,-31.11"/>
<polygon fill="#63b8ff" stroke="#63b8ff" points="631.78,-31.03 641.16,-26.1 630.75,-24.11 631.78,-31.03"/>
</a>
</g>
</g>
</g>
</svg>

<g id="navigator" transform="translate(0 0)" fill="#404254">
  <rect fill="#f2f5e9" fill-opacity="0.5" stroke="#606060" stroke-width=".5" x="0" y="0" width="60" height="60"/>
  <use id="zoomplus" xlink:href="#zoomPlus" x="17" y="9" onmousedown="handleZoom(evt,'in')"/>
  <use id="zoomminus" xlink:href="#zoomMin" x="42" y="9" onmousedown="handleZoom(evt,'out')"/>
  <use id="reset" xlink:href="#resetDef" x="30" y="36" onmousedown="handleReset()"/>
   <use id="arrowup" xlink:href="#arrowUp" x="0" y="0" onmousedown="handlePan(0,-1)"/>
  <use id="arrowright" xlink:href="#arrowRight" x="0" y="0" onmousedown="handlePan(1,0)"/>
  <use id="arrowdown" xlink:href="#arrowDown" x="0" y="0" onmousedown="handlePan(0,1)"/>
  <use id="arrowleft" xlink:href="#arrowLeft" x="0" y="0" onmousedown="handlePan(-1,0)"/>
</g>
<svg viewBox="0 0 15 15" width="100%" height="30px" preserveAspectRatio="xMaxYMin meet">
 <g id="arrow_out" transform="scale(0.3 0.3)">
  <a xlink:href="class_database_a448f32cb2e58118d83634666431562c2_icgraph_org.svg" target="_base">
   <rect id="button" ry="5" rx="5" y="6" x="6" height="38" width="38"
        fill="#f2f5e9" fill-opacity="0.5" stroke="#606060" stroke-width="1.0"/>
   <path id="arrow"
     d="M 11.500037,31.436501 C 11.940474,20.09759 22.043105,11.32322 32.158766,21.979434 L 37.068811,17.246167 C 37.068811,17.246167 37.088388,32 37.088388,32 L 22.160133,31.978069 C 22.160133,31.978069 26.997745,27.140456 26.997745,27.140456 C 18.528582,18.264221 13.291696,25.230495 11.500037,31.436501 z"
     style="fill:#404040;"/>
  </a>
 </g>
</svg>

<style type='text/css'>
<![CDATA[
[data-mouse-over-selected='false'] { opacity: 0.7; }
[data-mouse-over-selected='true']  { opacity: 1.0; }
]]>
</style>
<script type="application/ecmascript"><![CDATA[
document.addEventListener('DOMContentLoaded', (event) => {
  highlightEdges();
  highlightAdjacentNodes();
});
]]></script>
</svg>
