<?xml version="1.0" encoding="UTF-8" standalone="no"?>
<!DOCTYPE svg PUBLIC "-//W3C//DTD SVG 1.1//EN"
 "http://www.w3.org/Graphics/SVG/1.1/DTD/svg11.dtd">
<!-- Generated by graphviz version 12.2.1 (20241206.2353)
 -->
<!-- Title: LessonDialog::clear_children Pages: 1 -->
<svg width="620pt" height="150pt"
 viewBox="0.00 0.00 620.25 150.00" xmlns="http://www.w3.org/2000/svg" xmlns:xlink="http://www.w3.org/1999/xlink">
<g id="graph0" class="graph" transform="scale(1 1) rotate(0) translate(4 146)">
<title>LessonDialog::clear_children</title>
<!-- Node1 -->
<g id="Node000001" class="node">
<title>Node1</title>
<g id="a_Node000001"><a xlink:title="Clears the children checkboxes from the dialog.">
<polygon fill="#999999" stroke="#666666" points="612.25,-70 510,-70 510,-38 612.25,-38 612.25,-70"/>
<text text-anchor="start" x="518" y="-56.5" font-family="Helvetica,sans-Serif" font-size="10.00">LessonDialog::clear</text>
<text text-anchor="middle" x="561.12" y="-44.5" font-family="Helvetica,sans-Serif" font-size="10.00">_children</text>
</a>
</g>
</g>
<!-- Node2 -->
<g id="Node000002" class="node">
<title>Node2</title>
<g id="a_Node000002"><a xlink:href="class_lesson_dialog.html#a375a77c87696df60e0cbab9da70b7a67" target="_top" xlink:title="Populates the dialog with children and employees.">
<polygon fill="white" stroke="#666666" points="459.75,-120 341.75,-120 341.75,-88 459.75,-88 459.75,-120"/>
<text text-anchor="start" x="349.75" y="-106.5" font-family="Helvetica,sans-Serif" font-size="10.00">LessonDialog::populate</text>
<text text-anchor="middle" x="400.75" y="-94.5" font-family="Helvetica,sans-Serif" font-size="10.00">_children</text>
</a>
</g>
</g>
<!-- Node1&#45;&gt;Node2 -->
<g id="edge1_Node000001_Node000002" class="edge">
<title>Node1&#45;&gt;Node2</title>
<g id="a_edge1_Node000001_Node000002"><a xlink:title=" ">
<path fill="none" stroke="#63b8ff" d="M498.96,-73.31C484.12,-78 468.38,-82.96 454,-87.51"/>
<polygon fill="#63b8ff" stroke="#63b8ff" points="499.65,-76.76 508.14,-70.41 497.55,-70.09 499.65,-76.76"/>
</a>
</g>
</g>
<!-- Node5 -->
<g id="Node000005" class="node">
<title>Node5</title>
<g id="a_Node000005"><a xlink:href="class_lesson_dialog.html#a40a5c419190d1c9f667a71bd9706c3cf" target="_top" xlink:title="Populates the dialog with children and employees.">
<polygon fill="white" stroke="#666666" points="459.75,-70 341.75,-70 341.75,-38 459.75,-38 459.75,-70"/>
<text text-anchor="start" x="349.75" y="-56.5" font-family="Helvetica,sans-Serif" font-size="10.00">LessonDialog::populate</text>
<text text-anchor="middle" x="400.75" y="-44.5" font-family="Helvetica,sans-Serif" font-size="10.00">_children</text>
</a>
</g>
</g>
<!-- Node1&#45;&gt;Node5 -->
<g id="edge5_Node000001_Node000005" class="edge">
<title>Node1&#45;&gt;Node5</title>
<g id="a_edge5_Node000001_Node000005"><a xlink:title=" ">
<path fill="none" stroke="#63b8ff" d="M498.25,-54C485.69,-54 472.52,-54 460.09,-54"/>
<polygon fill="#63b8ff" stroke="#63b8ff" points="498.07,-57.5 508.07,-54 498.07,-50.5 498.07,-57.5"/>
</a>
</g>
</g>
<!-- Node6 -->
<g id="Node000006" class="node">
<title>Node6</title>
<g id="a_Node000006"><a xlink:href="class_lesson_dialog.html#a4fac3b4d4a93af8f507dfba89b8cd6fc" target="_top" xlink:title="Destructor for LessonDialog.">
<polygon fill="white" stroke="#666666" points="474,-20 327.5,-20 327.5,0 474,0 474,-20"/>
<text text-anchor="middle" x="400.75" y="-6.5" font-family="Helvetica,sans-Serif" font-size="10.00">LessonDialog::~LessonDialog</text>
</a>
</g>
</g>
<!-- Node1&#45;&gt;Node6 -->
<g id="edge6_Node000001_Node000006" class="edge">
<title>Node1&#45;&gt;Node6</title>
<g id="a_edge6_Node000001_Node000006"><a xlink:title=" ">
<path fill="none" stroke="#63b8ff" d="M498.8,-35.99C490.47,-33.61 482.03,-31.22 474,-29 463.75,-26.16 452.65,-23.2 442.3,-20.47"/>
<polygon fill="#63b8ff" stroke="#63b8ff" points="497.6,-39.29 508.18,-38.69 499.54,-32.56 497.6,-39.29"/>
</a>
</g>
</g>
<!-- Node3 -->
<g id="Node000003" class="node">
<title>Node3</title>
<g id="a_Node000003"><a xlink:href="class_lesson_dialog.html#ac10e391b7a2221ff937a30ccf61124b2" target="_top" xlink:title="Searches for children based on the input in the name and surname fields.">
<polygon fill="white" stroke="#666666" points="291.5,-142 176.5,-142 176.5,-110 291.5,-110 291.5,-142"/>
<text text-anchor="start" x="184.5" y="-128.5" font-family="Helvetica,sans-Serif" font-size="10.00">LessonDialog::children</text>
<text text-anchor="middle" x="234" y="-116.5" font-family="Helvetica,sans-Serif" font-size="10.00">_search</text>
</a>
</g>
</g>
<!-- Node2&#45;&gt;Node3 -->
<g id="edge2_Node000002_Node000003" class="edge">
<title>Node2&#45;&gt;Node3</title>
<g id="a_edge2_Node000002_Node000003"><a xlink:title=" ">
<path fill="none" stroke="#63b8ff" d="M330.47,-113.25C317.56,-114.98 304.21,-116.76 291.73,-118.42"/>
<polygon fill="#63b8ff" stroke="#63b8ff" points="330.72,-116.75 340.17,-111.96 329.79,-109.81 330.72,-116.75"/>
</a>
</g>
</g>
<!-- Node4 -->
<g id="Node000004" class="node">
<title>Node4</title>
<g id="a_Node000004"><a xlink:href="class_lesson_dialog.html#a4ddf55a3925f45bd1cd3ecef02c261d5" target="_top" xlink:title="Constructs a LessonDialog object.">
<polygon fill="white" stroke="#666666" points="140.5,-114 0,-114 0,-94 140.5,-94 140.5,-114"/>
<text text-anchor="middle" x="70.25" y="-100.5" font-family="Helvetica,sans-Serif" font-size="10.00">LessonDialog::LessonDialog</text>
</a>
</g>
</g>
<!-- Node2&#45;&gt;Node4 -->
<g id="edge4_Node000002_Node000004" class="edge">
<title>Node2&#45;&gt;Node4</title>
<g id="a_edge4_Node000002_Node000004"><a xlink:title=" ">
<path fill="none" stroke="#63b8ff" d="M330.18,-101.79C317.32,-101.46 304,-101.17 291.5,-101 240.39,-100.29 227.61,-100.27 176.5,-101 164.98,-101.16 152.76,-101.43 140.88,-101.74"/>
<polygon fill="#63b8ff" stroke="#63b8ff" points="329.73,-105.28 339.82,-102.04 329.91,-98.28 329.73,-105.28"/>
</a>
</g>
</g>
<!-- Node3&#45;&gt;Node4 -->
<g id="edge3_Node000003_Node000004" class="edge">
<title>Node3&#45;&gt;Node4</title>
<g id="a_edge3_Node000003_Node000004"><a xlink:title=" ">
<path fill="none" stroke="#63b8ff" d="M165.21,-116.78C157.17,-115.69 148.95,-114.57 140.88,-113.47"/>
<polygon fill="#63b8ff" stroke="#63b8ff" points="164.55,-120.22 174.93,-118.1 165.49,-113.29 164.55,-120.22"/>
</a>
</g>
</g>
</g>
</svg>
