<?xml version="1.0" encoding="UTF-8" standalone="no"?>
<!DOCTYPE svg PUBLIC "-//W3C//DTD SVG 1.1//EN"
 "http://www.w3.org/Graphics/SVG/1.1/DTD/svg11.dtd">
<!-- Generated by graphviz version 12.2.1 (20241206.2353)
 -->
<!-- Title: EmployeeEntry Pages: 1 -->
<!--zoomable 925 -->

<svg id="main" version="1.1" xmlns="http://www.w3.org/2000/svg" xmlns:xlink="http://www.w3.org/1999/xlink" xml:space="preserve" onload="init(evt)">

<style type="text/css"><![CDATA[
.node, .edge {opacity: 0.7;}
.node.selected, .edge.selected {opacity: 1;}
.edge:hover path { stroke: red; }
.edge:hover polygon { stroke: red; fill: red; }
]]></style>

<defs>
  <circle id="rim" cx="0" cy="0" r="7"/>
  <circle id="rim2" cx="0" cy="0" r="3.5"/>
  <g id="zoomPlus">
    <use xlink:href="#rim" fill="#404040"><set attributeName="fill" to="#808080" begin="zoomplus.mouseover" end="zoomplus.mouseout"/></use>
    <path d="M-4,0h8M0,-4v8" fill="none" stroke="white" stroke-width="1.5" pointer-events="none"/>
  </g>
  <g id="zoomMin">
    <use xlink:href="#rim" fill="#404040"><set attributeName="fill" to="#808080" begin="zoomminus.mouseover" end="zoomminus.mouseout"/></use>
    <path d="M-4,0h8" fill="none" stroke="white" stroke-width="1.5" pointer-events="none"/>
  </g>
  <g id="arrowUp" transform="translate(30 24)">
    <use xlink:href="#rim"/>
    <path pointer-events="none" fill="none" stroke="white" stroke-width="1.5" d="M0,-3.0v7 M-2.5,-0.5L0,-3.0L2.5,-0.5"/>
  </g>
  <g id="arrowRight" transform="rotate(90) translate(36 -43)">
    <use xlink:href="#rim"/>
    <path pointer-events="none" fill="none" stroke="white" stroke-width="1.5" d="M0,-3.0v7 M-2.5,-0.5L0,-3.0L2.5,-0.5"/>
  </g>
  <g id="arrowDown" transform="rotate(180) translate(-30 -48)">
    <use xlink:href="#rim"/>
    <path pointer-events="none" fill="none" stroke="white" stroke-width="1.5" d="M0,-3.0v7 M-2.5,-0.5L0,-3.0L2.5,-0.5"/>
  </g>
  <g id="arrowLeft" transform="rotate(270) translate(-36 17)">
    <use xlink:href="#rim"/>
    <path pointer-events="none" fill="none" stroke="white" stroke-width="1.5" d="M0,-3.0v7 M-2.5,-0.5L0,-3.0L2.5,-0.5"/>
  </g>
  <g id="resetDef">
    <use xlink:href="#rim2" fill="#404040"><set attributeName="fill" to="#808080" begin="reset.mouseover" end="reset.mouseout"/></use>
  </g>
</defs>
<script type="application/ecmascript">
var viewWidth = 430;
var viewHeight = 925;
var sectionId = 'dynsection-1';
</script>
<script type="application/ecmascript" xlink:href="svg.min.js"/>
<svg id="graph" class="graph">
<g id="viewport">
<title>EmployeeEntry</title>
<!-- Node1 -->
<g id="Node000001" class="node">
<title>Node1</title>
<g id="a_Node000001"><a xlink:title="Represents a GUI widget for an employee entry.">
<polygon fill="#999999" stroke="none" points="183.25,-116 61,-116 61,0 183.25,0 183.25,-116"/>
<text text-anchor="start" x="88.75" y="-102.5" font-family="Helvetica,sans-Serif" font-size="10.00">EmployeeEntry</text>
<text text-anchor="start" x="120.62" y="-86.5" font-family="Helvetica,sans-Serif" font-size="10.00"> </text>
<text text-anchor="start" x="65" y="-70.5" font-family="Helvetica,sans-Serif" font-size="10.00">+</text>
<text text-anchor="start" x="75" y="-70.5" font-family="Helvetica,sans-Serif" font-size="10.00">EmployeeEntry()</text>
<text text-anchor="start" x="65" y="-54.5" font-family="Helvetica,sans-Serif" font-size="10.00">+</text>
<text text-anchor="start" x="75" y="-54.5" font-family="Helvetica,sans-Serif" font-size="10.00">email_clicked()</text>
<text text-anchor="start" x="65" y="-38.5" font-family="Helvetica,sans-Serif" font-size="10.00">+</text>
<text text-anchor="start" x="75" y="-38.5" font-family="Helvetica,sans-Serif" font-size="10.00">phone_clicked()</text>
<text text-anchor="start" x="65" y="-22.5" font-family="Helvetica,sans-Serif" font-size="10.00">+</text>
<text text-anchor="start" x="75" y="-22.5" font-family="Helvetica,sans-Serif" font-size="10.00">~EmployeeEntry()</text>
<text text-anchor="start" x="66.5" y="-6.5" font-family="Helvetica,sans-Serif" font-size="10.00">&#45;</text>
<text text-anchor="start" x="75" y="-6.5" font-family="Helvetica,sans-Serif" font-size="10.00">setup_employee_entry()</text>
<polygon fill="#666666" stroke="#666666" points="61,-98 61,-98 183.25,-98 183.25,-98 61,-98"/>
<polygon fill="#666666" stroke="#666666" points="61,-82 61,-82 183.25,-82 183.25,-82 61,-82"/>
<polygon fill="none" stroke="#666666" points="61,0 61,-116 183.25,-116 183.25,0 61,0"/>
</a>
</g>
</g>
<!-- Node2 -->
<g id="Node000002" class="node">
<title>Node2</title>
<g id="a_Node000002"><a xlink:title=" ">
<polygon fill="white" stroke="none" points="46.25,-296 0,-296 0,-244 46.25,-244 46.25,-296"/>
<text text-anchor="start" x="4" y="-282.5" font-family="Helvetica,sans-Serif" font-size="10.00">QWidget</text>
<text text-anchor="start" x="21.62" y="-266.5" font-family="Helvetica,sans-Serif" font-size="10.00"> </text>
<text text-anchor="start" x="21.62" y="-250.5" font-family="Helvetica,sans-Serif" font-size="10.00"> </text>
<polygon fill="#666666" stroke="#666666" points="0,-278 0,-278 46.25,-278 46.25,-278 0,-278"/>
<polygon fill="#666666" stroke="#666666" points="0,-262 0,-262 46.25,-262 46.25,-262 0,-262"/>
<polygon fill="none" stroke="#666666" points="0,-244 0,-296 46.25,-296 46.25,-244 0,-244"/>
</a>
</g>
</g>
<!-- Node2&#45;&gt;Node1 -->
<g id="edge1_Node000001_Node000002" class="edge">
<title>Node2&#45;&gt;Node1</title>
<g id="a_edge1_Node000001_Node000002"><a xlink:title=" ">
<path fill="none" stroke="#63b8ff" d="M31.44,-233.24C36.88,-212.51 44.89,-186.2 55.12,-164 62.59,-147.8 72.21,-131.13 81.81,-115.99"/>
<polygon fill="none" stroke="#63b8ff" points="28.11,-232.1 29.05,-242.65 34.9,-233.82 28.11,-232.1"/>
</a>
</g>
</g>
<!-- Node3 -->
<g id="Node000003" class="node">
<title>Node3</title>
<g id="a_Node000003"><a xlink:href="class_ui_1_1_employee_entry_class.html" target="_top" xlink:title=" ">
<polygon fill="white" stroke="none" points="180.12,-296 64.12,-296 64.12,-244 180.12,-244 180.12,-296"/>
<text text-anchor="start" x="68.12" y="-282.5" font-family="Helvetica,sans-Serif" font-size="10.00">Ui::EmployeeEntryClass</text>
<text text-anchor="start" x="120.62" y="-266.5" font-family="Helvetica,sans-Serif" font-size="10.00"> </text>
<text text-anchor="start" x="120.62" y="-250.5" font-family="Helvetica,sans-Serif" font-size="10.00"> </text>
<polygon fill="#666666" stroke="#666666" points="64.12,-278 64.12,-278 180.12,-278 180.12,-278 64.12,-278"/>
<polygon fill="#666666" stroke="#666666" points="64.12,-262 64.12,-262 180.12,-262 180.12,-262 64.12,-262"/>
<polygon fill="none" stroke="#666666" points="64.12,-244 64.12,-296 180.12,-296 180.12,-244 64.12,-244"/>
</a>
</g>
</g>
<!-- Node3&#45;&gt;Node1 -->
<g id="edge2_Node000001_Node000003" class="edge">
<title>Node3&#45;&gt;Node1</title>
<g id="a_edge2_Node000001_Node000003"><a xlink:title=" ">
<path fill="none" stroke="#63b8ff" d="M122.12,-244.09C122.12,-215.81 122.12,-168.47 122.12,-128.75"/>
<polygon fill="none" stroke="#63b8ff" points="122.13,-128.78 118.13,-122.78 122.13,-116.78 126.13,-122.78 122.13,-128.78"/>
</a>
</g>
<text text-anchor="middle" x="128.88" y="-136.5" font-family="Helvetica,sans-Serif" font-size="10.00" fill="grey"> &#45;ui</text>
</g>
<!-- Node4 -->
<g id="Node000004" class="node">
<title>Node4</title>
<g id="a_Node000004"><a xlink:href="class_ui___employee_entry_class.html" target="_top" xlink:title=" ">
<polygon fill="white" stroke="none" points="144.75,-652 29.5,-652 29.5,-472 144.75,-472 144.75,-652"/>
<text text-anchor="start" x="33.5" y="-638.5" font-family="Helvetica,sans-Serif" font-size="10.00">Ui_EmployeeEntryClass</text>
<text text-anchor="start" x="41.69" y="-622.5" font-family="Helvetica,sans-Serif" font-size="10.00">+</text>
<text text-anchor="start" x="59.88" y="-622.5" font-family="Helvetica,sans-Serif" font-size="10.00">gridLayout</text>
<text text-anchor="start" x="41.69" y="-606.5" font-family="Helvetica,sans-Serif" font-size="10.00">+</text>
<text text-anchor="start" x="59.88" y="-606.5" font-family="Helvetica,sans-Serif" font-size="10.00">frame</text>
<text text-anchor="start" x="41.69" y="-590.5" font-family="Helvetica,sans-Serif" font-size="10.00">+</text>
<text text-anchor="start" x="59.88" y="-590.5" font-family="Helvetica,sans-Serif" font-size="10.00">gridLayout_2</text>
<text text-anchor="start" x="41.69" y="-574.5" font-family="Helvetica,sans-Serif" font-size="10.00">+</text>
<text text-anchor="start" x="59.88" y="-574.5" font-family="Helvetica,sans-Serif" font-size="10.00">edit_button</text>
<text text-anchor="start" x="41.69" y="-558.5" font-family="Helvetica,sans-Serif" font-size="10.00">+</text>
<text text-anchor="start" x="59.88" y="-558.5" font-family="Helvetica,sans-Serif" font-size="10.00">remove_button</text>
<text text-anchor="start" x="41.69" y="-542.5" font-family="Helvetica,sans-Serif" font-size="10.00">+</text>
<text text-anchor="start" x="59.88" y="-542.5" font-family="Helvetica,sans-Serif" font-size="10.00">surname</text>
<text text-anchor="start" x="41.69" y="-526.5" font-family="Helvetica,sans-Serif" font-size="10.00">+</text>
<text text-anchor="start" x="59.88" y="-526.5" font-family="Helvetica,sans-Serif" font-size="10.00">name</text>
<text text-anchor="start" x="41.69" y="-510.5" font-family="Helvetica,sans-Serif" font-size="10.00">+</text>
<text text-anchor="start" x="59.88" y="-510.5" font-family="Helvetica,sans-Serif" font-size="10.00">hours_worked</text>
<text text-anchor="start" x="41.69" y="-494.5" font-family="Helvetica,sans-Serif" font-size="10.00">+</text>
<text text-anchor="start" x="59.88" y="-494.5" font-family="Helvetica,sans-Serif" font-size="10.00">setupUi()</text>
<text text-anchor="start" x="41.69" y="-478.5" font-family="Helvetica,sans-Serif" font-size="10.00">+</text>
<text text-anchor="start" x="59.88" y="-478.5" font-family="Helvetica,sans-Serif" font-size="10.00">retranslateUi()</text>
<polygon fill="#666666" stroke="#666666" points="29.5,-634 29.5,-634 144.75,-634 144.75,-634 29.5,-634"/>
<polygon fill="#666666" stroke="#666666" points="29.5,-506 29.5,-506 57.88,-506 57.88,-506 29.5,-506"/>
<polygon fill="#666666" stroke="#666666" points="57.88,-506 57.88,-506 144.75,-506 144.75,-506 57.88,-506"/>
<polygon fill="none" stroke="#666666" points="29.5,-472 29.5,-652 144.75,-652 144.75,-472 29.5,-472"/>
</a>
</g>
</g>
<!-- Node4&#45;&gt;Node3 -->
<g id="edge3_Node000003_Node000004" class="edge">
<title>Node4&#45;&gt;Node3</title>
<g id="a_edge3_Node000003_Node000004"><a xlink:title=" ">
<path fill="none" stroke="#63b8ff" d="M99.22,-460.79C106.32,-401.95 114.74,-332.2 119.13,-295.85"/>
<polygon fill="none" stroke="#63b8ff" points="95.77,-460.17 98.05,-470.52 102.72,-461.01 95.77,-460.17"/>
</a>
</g>
</g>
<!-- Node5 -->
<g id="Node000005" class="node">
<title>Node5</title>
<g id="a_Node000005"><a xlink:href="class_clickable_label.html" target="_top" xlink:title="A QLabel subclass that emits a clicked signal when the label is clicked.">
<polygon fill="white" stroke="none" points="144.5,-828 29.75,-828 29.75,-760 144.5,-760 144.5,-828"/>
<text text-anchor="start" x="55.25" y="-814.5" font-family="Helvetica,sans-Serif" font-size="10.00">ClickableLabel</text>
<text text-anchor="start" x="85.62" y="-798.5" font-family="Helvetica,sans-Serif" font-size="10.00"> </text>
<text text-anchor="start" x="33.75" y="-782.5" font-family="Helvetica,sans-Serif" font-size="10.00">+</text>
<text text-anchor="start" x="43.75" y="-782.5" font-family="Helvetica,sans-Serif" font-size="10.00">ClickableLabel()</text>
<text text-anchor="start" x="34.12" y="-766.5" font-family="Helvetica,sans-Serif" font-size="10.00">#</text>
<text text-anchor="start" x="43.75" y="-766.5" font-family="Helvetica,sans-Serif" font-size="10.00">mouseReleaseEvent()</text>
<polygon fill="#666666" stroke="#666666" points="29.75,-810 29.75,-810 144.5,-810 144.5,-810 29.75,-810"/>
<polygon fill="#666666" stroke="#666666" points="29.75,-794 29.75,-794 144.5,-794 144.5,-794 29.75,-794"/>
<polygon fill="none" stroke="#666666" points="29.75,-760 29.75,-828 144.5,-828 144.5,-760 29.75,-760"/>
</a>
</g>
</g>
<!-- Node5&#45;&gt;Node4 -->
<g id="edge4_Node000004_Node000005" class="edge">
<title>Node5&#45;&gt;Node4</title>
<g id="a_edge4_Node000004_Node000005"><a xlink:title=" ">
<path fill="none" stroke="#63b8ff" d="M87.12,-760.05C87.12,-735.04 87.12,-699.25 87.12,-665"/>
<polygon fill="none" stroke="#63b8ff" points="87.13,-664.88 83.13,-658.88 87.13,-652.88 91.13,-658.88 87.13,-664.88"/>
</a>
</g>
<text text-anchor="middle" x="103.25" y="-732.5" font-family="Helvetica,sans-Serif" font-size="10.00" fill="grey"> +email</text>
<text text-anchor="middle" x="103.25" y="-720.5" font-family="Helvetica,sans-Serif" font-size="10.00" fill="grey">+phone</text>
</g>
<!-- Node6 -->
<g id="Node000006" class="node">
<title>Node6</title>
<g id="a_Node000006"><a xlink:title=" ">
<polygon fill="white" stroke="none" points="106.5,-917 67.75,-917 67.75,-865 106.5,-865 106.5,-917"/>
<text text-anchor="start" x="71.75" y="-903.5" font-family="Helvetica,sans-Serif" font-size="10.00">QLabel</text>
<text text-anchor="start" x="85.62" y="-887.5" font-family="Helvetica,sans-Serif" font-size="10.00"> </text>
<text text-anchor="start" x="85.62" y="-871.5" font-family="Helvetica,sans-Serif" font-size="10.00"> </text>
<polygon fill="#666666" stroke="#666666" points="67.75,-899 67.75,-899 106.5,-899 106.5,-899 67.75,-899"/>
<polygon fill="#666666" stroke="#666666" points="67.75,-883 67.75,-883 106.5,-883 106.5,-883 67.75,-883"/>
<polygon fill="none" stroke="#666666" points="67.75,-865 67.75,-917 106.5,-917 106.5,-865 67.75,-865"/>
</a>
</g>
</g>
<!-- Node6&#45;&gt;Node5 -->
<g id="edge5_Node000005_Node000006" class="edge">
<title>Node6&#45;&gt;Node5</title>
<g id="a_edge5_Node000005_Node000006"><a xlink:title=" ">
<path fill="none" stroke="#63b8ff" d="M87.12,-853.77C87.12,-845.18 87.12,-836.08 87.12,-827.66"/>
<polygon fill="none" stroke="#63b8ff" points="83.63,-853.53 87.13,-863.53 90.63,-853.53 83.63,-853.53"/>
</a>
</g>
</g>
<!-- Node7 -->
<g id="Node000007" class="node">
<title>Node7</title>
<g id="a_Node000007"><a xlink:href="class_employee.html" target="_top" xlink:title="Represents an employee.">
<polygon fill="white" stroke="none" points="297.12,-376 213.12,-376 213.12,-164 297.12,-164 297.12,-376"/>
<text text-anchor="start" x="233.38" y="-362.5" font-family="Helvetica,sans-Serif" font-size="10.00">Employee</text>
<text text-anchor="start" x="217.5" y="-346.5" font-family="Helvetica,sans-Serif" font-size="10.00">#</text>
<text text-anchor="start" x="227.12" y="-346.5" font-family="Helvetica,sans-Serif" font-size="10.00">hours_worked_</text>
<text text-anchor="start" x="217.12" y="-330.5" font-family="Helvetica,sans-Serif" font-size="10.00">+</text>
<text text-anchor="start" x="227.12" y="-330.5" font-family="Helvetica,sans-Serif" font-size="10.00">Employee()</text>
<text text-anchor="start" x="217.12" y="-314.5" font-family="Helvetica,sans-Serif" font-size="10.00">+</text>
<text text-anchor="start" x="227.12" y="-314.5" font-family="Helvetica,sans-Serif" font-size="10.00">Employee()</text>
<text text-anchor="start" x="217.12" y="-298.5" font-family="Helvetica,sans-Serif" font-size="10.00">+</text>
<text text-anchor="start" x="227.12" y="-298.5" font-family="Helvetica,sans-Serif" font-size="10.00">Employee()</text>
<text text-anchor="start" x="217.12" y="-282.5" font-family="Helvetica,sans-Serif" font-size="10.00">+</text>
<text text-anchor="start" x="227.12" y="-282.5" font-family="Helvetica,sans-Serif" font-size="10.00">Employee()</text>
<text text-anchor="start" x="217.12" y="-266.5" font-family="Helvetica,sans-Serif" font-size="10.00">+</text>
<text text-anchor="start" x="227.12" y="-266.5" font-family="Helvetica,sans-Serif" font-size="10.00">Employee()</text>
<text text-anchor="start" x="217.12" y="-250.5" font-family="Helvetica,sans-Serif" font-size="10.00">+</text>
<text text-anchor="start" x="227.12" y="-250.5" font-family="Helvetica,sans-Serif" font-size="10.00">operator=()</text>
<text text-anchor="start" x="217.12" y="-234.5" font-family="Helvetica,sans-Serif" font-size="10.00">+</text>
<text text-anchor="start" x="227.12" y="-234.5" font-family="Helvetica,sans-Serif" font-size="10.00">operator=()</text>
<text text-anchor="start" x="217.12" y="-218.5" font-family="Helvetica,sans-Serif" font-size="10.00">+</text>
<text text-anchor="start" x="227.12" y="-218.5" font-family="Helvetica,sans-Serif" font-size="10.00">get_email()</text>
<text text-anchor="start" x="217.12" y="-202.5" font-family="Helvetica,sans-Serif" font-size="10.00">+</text>
<text text-anchor="start" x="227.12" y="-202.5" font-family="Helvetica,sans-Serif" font-size="10.00">set_email()</text>
<text text-anchor="start" x="217.12" y="-186.5" font-family="Helvetica,sans-Serif" font-size="10.00">+</text>
<text text-anchor="start" x="227.12" y="-186.5" font-family="Helvetica,sans-Serif" font-size="10.00">get_phone()</text>
<text text-anchor="start" x="227.12" y="-170.5" font-family="Helvetica,sans-Serif" font-size="10.00">and 6 more...</text>
<polygon fill="#666666" stroke="#666666" points="213.12,-358 213.12,-358 297.12,-358 297.12,-358 213.12,-358"/>
<polygon fill="#666666" stroke="#666666" points="213.12,-342 213.12,-342 225.12,-342 225.12,-342 213.12,-342"/>
<polygon fill="#666666" stroke="#666666" points="225.12,-342 225.12,-342 297.12,-342 297.12,-342 225.12,-342"/>
<polygon fill="none" stroke="#666666" points="213.12,-164 213.12,-376 297.12,-376 297.12,-164 213.12,-164"/>
</a>
</g>
</g>
<!-- Node7&#45;&gt;Node1 -->
<g id="edge6_Node000001_Node000007" class="edge">
<title>Node7&#45;&gt;Node1</title>
<g id="a_edge6_Node000001_Node000007"><a xlink:title=" ">
<path fill="none" stroke="#63b8ff" d="M213.3,-202.3C205.29,-189.58 196.96,-176.37 189.12,-164 181.47,-151.92 173.3,-139.07 165.4,-126.66"/>
<polygon fill="none" stroke="#63b8ff" points="165.47,-126.78 158.87,-123.87 159.02,-116.66 165.62,-119.57 165.47,-126.78"/>
</a>
</g>
<text text-anchor="middle" x="202.98" y="-136.5" font-family="Helvetica,sans-Serif" font-size="10.00" fill="grey"> &#45;employee_</text>
</g>
<!-- Node8 -->
<g id="Node000008" class="node">
<title>Node8</title>
<g id="a_Node000008"><a xlink:href="class_person.html" target="_top" xlink:title="Represents a generic person.">
<polygon fill="white" stroke="none" points="243.25,-700 163,-700 163,-424 243.25,-424 243.25,-700"/>
<text text-anchor="start" x="187.75" y="-686.5" font-family="Helvetica,sans-Serif" font-size="10.00">Person</text>
<text text-anchor="start" x="167.38" y="-670.5" font-family="Helvetica,sans-Serif" font-size="10.00">#</text>
<text text-anchor="start" x="177" y="-670.5" font-family="Helvetica,sans-Serif" font-size="10.00">name_</text>
<text text-anchor="start" x="167.38" y="-654.5" font-family="Helvetica,sans-Serif" font-size="10.00">#</text>
<text text-anchor="start" x="177" y="-654.5" font-family="Helvetica,sans-Serif" font-size="10.00">surname_</text>
<text text-anchor="start" x="167" y="-638.5" font-family="Helvetica,sans-Serif" font-size="10.00">+</text>
<text text-anchor="start" x="177" y="-638.5" font-family="Helvetica,sans-Serif" font-size="10.00">Person()</text>
<text text-anchor="start" x="167" y="-622.5" font-family="Helvetica,sans-Serif" font-size="10.00">+</text>
<text text-anchor="start" x="177" y="-622.5" font-family="Helvetica,sans-Serif" font-size="10.00">Person()</text>
<text text-anchor="start" x="167" y="-606.5" font-family="Helvetica,sans-Serif" font-size="10.00">+</text>
<text text-anchor="start" x="177" y="-606.5" font-family="Helvetica,sans-Serif" font-size="10.00">Person()</text>
<text text-anchor="start" x="167" y="-590.5" font-family="Helvetica,sans-Serif" font-size="10.00">+</text>
<text text-anchor="start" x="177" y="-590.5" font-family="Helvetica,sans-Serif" font-size="10.00">Person()</text>
<text text-anchor="start" x="167" y="-574.5" font-family="Helvetica,sans-Serif" font-size="10.00">+</text>
<text text-anchor="start" x="177" y="-574.5" font-family="Helvetica,sans-Serif" font-size="10.00">Person()</text>
<text text-anchor="start" x="167" y="-558.5" font-family="Helvetica,sans-Serif" font-size="10.00">+</text>
<text text-anchor="start" x="177" y="-558.5" font-family="Helvetica,sans-Serif" font-size="10.00">operator=()</text>
<text text-anchor="start" x="167" y="-542.5" font-family="Helvetica,sans-Serif" font-size="10.00">+</text>
<text text-anchor="start" x="177" y="-542.5" font-family="Helvetica,sans-Serif" font-size="10.00">operator=()</text>
<text text-anchor="start" x="167" y="-526.5" font-family="Helvetica,sans-Serif" font-size="10.00">+</text>
<text text-anchor="start" x="177" y="-526.5" font-family="Helvetica,sans-Serif" font-size="10.00">operator==()</text>
<text text-anchor="start" x="167" y="-510.5" font-family="Helvetica,sans-Serif" font-size="10.00">+</text>
<text text-anchor="start" x="177" y="-510.5" font-family="Helvetica,sans-Serif" font-size="10.00">operator!=()</text>
<text text-anchor="start" x="167" y="-494.5" font-family="Helvetica,sans-Serif" font-size="10.00">+</text>
<text text-anchor="start" x="177" y="-494.5" font-family="Helvetica,sans-Serif" font-size="10.00">get_name()</text>
<text text-anchor="start" x="167" y="-478.5" font-family="Helvetica,sans-Serif" font-size="10.00">+</text>
<text text-anchor="start" x="177" y="-478.5" font-family="Helvetica,sans-Serif" font-size="10.00">set_name()</text>
<text text-anchor="start" x="167" y="-462.5" font-family="Helvetica,sans-Serif" font-size="10.00">+</text>
<text text-anchor="start" x="177" y="-462.5" font-family="Helvetica,sans-Serif" font-size="10.00">get_surname()</text>
<text text-anchor="start" x="167" y="-446.5" font-family="Helvetica,sans-Serif" font-size="10.00">+</text>
<text text-anchor="start" x="177" y="-446.5" font-family="Helvetica,sans-Serif" font-size="10.00">set_surname()</text>
<text text-anchor="start" x="167" y="-430.5" font-family="Helvetica,sans-Serif" font-size="10.00">+</text>
<text text-anchor="start" x="177" y="-430.5" font-family="Helvetica,sans-Serif" font-size="10.00">~Person()</text>
<polygon fill="#666666" stroke="#666666" points="163,-682 163,-682 243.25,-682 243.25,-682 163,-682"/>
<polygon fill="#666666" stroke="#666666" points="163,-650 163,-650 175,-650 175,-650 163,-650"/>
<polygon fill="#666666" stroke="#666666" points="175,-650 175,-650 243.25,-650 243.25,-650 175,-650"/>
<polygon fill="none" stroke="#666666" points="163,-424 163,-700 243.25,-700 243.25,-424 163,-424"/>
</a>
</g>
</g>
<!-- Node8&#45;&gt;Node7 -->
<g id="edge7_Node000007_Node000008" class="edge">
<title>Node8&#45;&gt;Node7</title>
<g id="a_edge7_Node000007_Node000008"><a xlink:title=" ">
<path fill="none" stroke="#63b8ff" d="M229.66,-412.99C231.92,-400.39 234.18,-387.81 236.36,-375.65"/>
<polygon fill="none" stroke="#63b8ff" points="226.27,-412.12 227.95,-422.58 233.16,-413.35 226.27,-412.12"/>
</a>
</g>
</g>
<!-- Node9 -->
<g id="Node000009" class="node">
<title>Node9</title>
<g id="a_Node000009"><a xlink:href="class_email.html" target="_top" xlink:title="Represents an email address.">
<polygon fill="white" stroke="none" points="332.75,-676 261.5,-676 261.5,-448 332.75,-448 332.75,-676"/>
<text text-anchor="start" x="284.75" y="-662.5" font-family="Helvetica,sans-Serif" font-size="10.00">Email</text>
<text text-anchor="start" x="267" y="-646.5" font-family="Helvetica,sans-Serif" font-size="10.00">&#45;</text>
<text text-anchor="start" x="275.5" y="-646.5" font-family="Helvetica,sans-Serif" font-size="10.00">email_</text>
<text text-anchor="start" x="265.5" y="-630.5" font-family="Helvetica,sans-Serif" font-size="10.00">+</text>
<text text-anchor="start" x="275.5" y="-630.5" font-family="Helvetica,sans-Serif" font-size="10.00">Email()</text>
<text text-anchor="start" x="265.5" y="-614.5" font-family="Helvetica,sans-Serif" font-size="10.00">+</text>
<text text-anchor="start" x="275.5" y="-614.5" font-family="Helvetica,sans-Serif" font-size="10.00">Email()</text>
<text text-anchor="start" x="265.5" y="-598.5" font-family="Helvetica,sans-Serif" font-size="10.00">+</text>
<text text-anchor="start" x="275.5" y="-598.5" font-family="Helvetica,sans-Serif" font-size="10.00">Email()</text>
<text text-anchor="start" x="265.5" y="-582.5" font-family="Helvetica,sans-Serif" font-size="10.00">+</text>
<text text-anchor="start" x="275.5" y="-582.5" font-family="Helvetica,sans-Serif" font-size="10.00">Email()</text>
<text text-anchor="start" x="265.5" y="-566.5" font-family="Helvetica,sans-Serif" font-size="10.00">+</text>
<text text-anchor="start" x="275.5" y="-566.5" font-family="Helvetica,sans-Serif" font-size="10.00">Email()</text>
<text text-anchor="start" x="265.5" y="-550.5" font-family="Helvetica,sans-Serif" font-size="10.00">+</text>
<text text-anchor="start" x="275.5" y="-550.5" font-family="Helvetica,sans-Serif" font-size="10.00">operator=()</text>
<text text-anchor="start" x="265.5" y="-534.5" font-family="Helvetica,sans-Serif" font-size="10.00">+</text>
<text text-anchor="start" x="275.5" y="-534.5" font-family="Helvetica,sans-Serif" font-size="10.00">operator=()</text>
<text text-anchor="start" x="265.5" y="-518.5" font-family="Helvetica,sans-Serif" font-size="10.00">+</text>
<text text-anchor="start" x="275.5" y="-518.5" font-family="Helvetica,sans-Serif" font-size="10.00">operator==()</text>
<text text-anchor="start" x="265.5" y="-502.5" font-family="Helvetica,sans-Serif" font-size="10.00">+</text>
<text text-anchor="start" x="275.5" y="-502.5" font-family="Helvetica,sans-Serif" font-size="10.00">get_email()</text>
<text text-anchor="start" x="265.5" y="-486.5" font-family="Helvetica,sans-Serif" font-size="10.00">+</text>
<text text-anchor="start" x="275.5" y="-486.5" font-family="Helvetica,sans-Serif" font-size="10.00">set_email()</text>
<text text-anchor="start" x="265.5" y="-470.5" font-family="Helvetica,sans-Serif" font-size="10.00">+</text>
<text text-anchor="start" x="275.5" y="-470.5" font-family="Helvetica,sans-Serif" font-size="10.00">copy()</text>
<text text-anchor="start" x="265.5" y="-454.5" font-family="Helvetica,sans-Serif" font-size="10.00">+</text>
<text text-anchor="start" x="275.5" y="-454.5" font-family="Helvetica,sans-Serif" font-size="10.00">~Email()</text>
<polygon fill="#666666" stroke="#666666" points="261.5,-658 261.5,-658 332.75,-658 332.75,-658 261.5,-658"/>
<polygon fill="#666666" stroke="#666666" points="261.5,-642 261.5,-642 273.5,-642 273.5,-642 261.5,-642"/>
<polygon fill="#666666" stroke="#666666" points="273.5,-642 273.5,-642 332.75,-642 332.75,-642 273.5,-642"/>
<polygon fill="none" stroke="#666666" points="261.5,-448 261.5,-676 332.75,-676 332.75,-448 261.5,-448"/>
</a>
</g>
</g>
<!-- Node9&#45;&gt;Node7 -->
<g id="edge8_Node000007_Node000009" class="edge">
<title>Node9&#45;&gt;Node7</title>
<g id="a_edge8_Node000007_Node000009"><a xlink:title=" ">
<path fill="none" stroke="#63b8ff" d="M280.77,-448.05C277.93,-428.48 274.98,-408.09 272.13,-388.41"/>
<polygon fill="none" stroke="#63b8ff" points="272.12,-388.36 267.3,-382.99 270.4,-376.48 275.22,-381.84 272.12,-388.36"/>
</a>
</g>
<text text-anchor="middle" x="291.99" y="-396.5" font-family="Helvetica,sans-Serif" font-size="10.00" fill="grey"> #email_</text>
</g>
<!-- Node10 -->
<g id="Node000010" class="node">
<title>Node10</title>
<g id="a_Node000010"><a xlink:href="class_contacts.html" target="_top" xlink:title="Base class for contact&#45;related utilities.">
<polygon fill="white" stroke="none" points="393.12,-820 291.12,-820 291.12,-768 393.12,-768 393.12,-820"/>
<text text-anchor="start" x="322.25" y="-806.5" font-family="Helvetica,sans-Serif" font-size="10.00">Contacts</text>
<text text-anchor="start" x="340.62" y="-790.5" font-family="Helvetica,sans-Serif" font-size="10.00"> </text>
<text text-anchor="start" x="295.12" y="-774.5" font-family="Helvetica,sans-Serif" font-size="10.00">#</text>
<text text-anchor="start" x="304.38" y="-774.5" font-family="Helvetica,sans-Serif" font-size="10.00">copy_to_clipboard()</text>
<polygon fill="#666666" stroke="#666666" points="291.12,-802 291.12,-802 393.12,-802 393.12,-802 291.12,-802"/>
<polygon fill="#666666" stroke="#666666" points="291.12,-786 291.12,-786 393.12,-786 393.12,-786 291.12,-786"/>
<polygon fill="none" stroke="#666666" points="291.12,-768 291.12,-820 393.12,-820 393.12,-768 291.12,-768"/>
</a>
</g>
</g>
<!-- Node10&#45;&gt;Node9 -->
<g id="edge9_Node000009_Node000010" class="edge">
<title>Node10&#45;&gt;Node9</title>
<g id="a_edge9_Node000009_Node000010"><a xlink:title=" ">
<path fill="none" stroke="#63b8ff" d="M335.13,-757.26C330.81,-735.17 325,-705.49 319.23,-675.98"/>
<polygon fill="none" stroke="#63b8ff" points="331.66,-757.76 337.02,-766.9 338.53,-756.41 331.66,-757.76"/>
</a>
</g>
</g>
<!-- Node11 -->
<g id="Node000011" class="node">
<title>Node11</title>
<g id="a_Node000011"><a xlink:href="class_phone.html" target="_top" xlink:title="Represents a phone number.">
<polygon fill="white" stroke="none" points="421.75,-676 350.5,-676 350.5,-448 421.75,-448 421.75,-676"/>
<text text-anchor="start" x="372.25" y="-662.5" font-family="Helvetica,sans-Serif" font-size="10.00">Phone</text>
<text text-anchor="start" x="356" y="-646.5" font-family="Helvetica,sans-Serif" font-size="10.00">&#45;</text>
<text text-anchor="start" x="364.5" y="-646.5" font-family="Helvetica,sans-Serif" font-size="10.00">phone_</text>
<text text-anchor="start" x="354.5" y="-630.5" font-family="Helvetica,sans-Serif" font-size="10.00">+</text>
<text text-anchor="start" x="364.5" y="-630.5" font-family="Helvetica,sans-Serif" font-size="10.00">Phone()</text>
<text text-anchor="start" x="354.5" y="-614.5" font-family="Helvetica,sans-Serif" font-size="10.00">+</text>
<text text-anchor="start" x="364.5" y="-614.5" font-family="Helvetica,sans-Serif" font-size="10.00">Phone()</text>
<text text-anchor="start" x="354.5" y="-598.5" font-family="Helvetica,sans-Serif" font-size="10.00">+</text>
<text text-anchor="start" x="364.5" y="-598.5" font-family="Helvetica,sans-Serif" font-size="10.00">Phone()</text>
<text text-anchor="start" x="354.5" y="-582.5" font-family="Helvetica,sans-Serif" font-size="10.00">+</text>
<text text-anchor="start" x="364.5" y="-582.5" font-family="Helvetica,sans-Serif" font-size="10.00">Phone()</text>
<text text-anchor="start" x="354.5" y="-566.5" font-family="Helvetica,sans-Serif" font-size="10.00">+</text>
<text text-anchor="start" x="364.5" y="-566.5" font-family="Helvetica,sans-Serif" font-size="10.00">Phone()</text>
<text text-anchor="start" x="354.5" y="-550.5" font-family="Helvetica,sans-Serif" font-size="10.00">+</text>
<text text-anchor="start" x="364.5" y="-550.5" font-family="Helvetica,sans-Serif" font-size="10.00">operator=()</text>
<text text-anchor="start" x="354.5" y="-534.5" font-family="Helvetica,sans-Serif" font-size="10.00">+</text>
<text text-anchor="start" x="364.5" y="-534.5" font-family="Helvetica,sans-Serif" font-size="10.00">operator=()</text>
<text text-anchor="start" x="354.5" y="-518.5" font-family="Helvetica,sans-Serif" font-size="10.00">+</text>
<text text-anchor="start" x="364.5" y="-518.5" font-family="Helvetica,sans-Serif" font-size="10.00">operator==()</text>
<text text-anchor="start" x="354.5" y="-502.5" font-family="Helvetica,sans-Serif" font-size="10.00">+</text>
<text text-anchor="start" x="364.5" y="-502.5" font-family="Helvetica,sans-Serif" font-size="10.00">get_phone()</text>
<text text-anchor="start" x="354.5" y="-486.5" font-family="Helvetica,sans-Serif" font-size="10.00">+</text>
<text text-anchor="start" x="364.5" y="-486.5" font-family="Helvetica,sans-Serif" font-size="10.00">set_phone()</text>
<text text-anchor="start" x="354.5" y="-470.5" font-family="Helvetica,sans-Serif" font-size="10.00">+</text>
<text text-anchor="start" x="364.5" y="-470.5" font-family="Helvetica,sans-Serif" font-size="10.00">copy()</text>
<text text-anchor="start" x="354.5" y="-454.5" font-family="Helvetica,sans-Serif" font-size="10.00">+</text>
<text text-anchor="start" x="364.5" y="-454.5" font-family="Helvetica,sans-Serif" font-size="10.00">~Phone()</text>
<polygon fill="#666666" stroke="#666666" points="350.5,-658 350.5,-658 421.75,-658 421.75,-658 350.5,-658"/>
<polygon fill="#666666" stroke="#666666" points="350.5,-642 350.5,-642 362.5,-642 362.5,-642 350.5,-642"/>
<polygon fill="#666666" stroke="#666666" points="362.5,-642 362.5,-642 421.75,-642 421.75,-642 362.5,-642"/>
<polygon fill="none" stroke="#666666" points="350.5,-448 350.5,-676 421.75,-676 421.75,-448 350.5,-448"/>
</a>
</g>
</g>
<!-- Node10&#45;&gt;Node11 -->
<g id="edge11_Node000011_Node000010" class="edge">
<title>Node10&#45;&gt;Node11</title>
<g id="a_edge11_Node000011_Node000010"><a xlink:title=" ">
<path fill="none" stroke="#63b8ff" d="M348.96,-757.26C353.19,-735.17 358.87,-705.49 364.51,-675.98"/>
<polygon fill="none" stroke="#63b8ff" points="345.56,-756.42 347.12,-766.9 352.43,-757.74 345.56,-756.42"/>
</a>
</g>
</g>
<!-- Node11&#45;&gt;Node7 -->
<g id="edge10_Node000007_Node000011" class="edge">
<title>Node11&#45;&gt;Node7</title>
<g id="a_edge10_Node000007_Node000011"><a xlink:title=" ">
<path fill="none" stroke="#63b8ff" d="M351.95,-448.15C348.83,-439.9 345.54,-431.78 342.12,-424 331.04,-398.76 316.96,-372.31 303.38,-348.64"/>
<polygon fill="none" stroke="#63b8ff" points="303.46,-348.77 296.98,-345.59 297.43,-338.39 303.9,-341.57 303.46,-348.77"/>
</a>
</g>
<text text-anchor="middle" x="351.92" y="-396.5" font-family="Helvetica,sans-Serif" font-size="10.00" fill="grey"> #phone_</text>
</g>
</g>
</svg>

<g id="navigator" transform="translate(0 0)" fill="#404254">
  <rect fill="#f2f5e9" fill-opacity="0.5" stroke="#606060" stroke-width=".5" x="0" y="0" width="60" height="60"/>
  <use id="zoomplus" xlink:href="#zoomPlus" x="17" y="9" onmousedown="handleZoom(evt,'in')"/>
  <use id="zoomminus" xlink:href="#zoomMin" x="42" y="9" onmousedown="handleZoom(evt,'out')"/>
  <use id="reset" xlink:href="#resetDef" x="30" y="36" onmousedown="handleReset()"/>
   <use id="arrowup" xlink:href="#arrowUp" x="0" y="0" onmousedown="handlePan(0,-1)"/>
  <use id="arrowright" xlink:href="#arrowRight" x="0" y="0" onmousedown="handlePan(1,0)"/>
  <use id="arrowdown" xlink:href="#arrowDown" x="0" y="0" onmousedown="handlePan(0,1)"/>
  <use id="arrowleft" xlink:href="#arrowLeft" x="0" y="0" onmousedown="handlePan(-1,0)"/>
</g>
<svg viewBox="0 0 15 15" width="100%" height="30px" preserveAspectRatio="xMaxYMin meet">
 <g id="arrow_out" transform="scale(0.3 0.3)">
  <a xlink:href="class_employee_entry__coll__graph_org.svg" target="_base">
   <rect id="button" ry="5" rx="5" y="6" x="6" height="38" width="38"
        fill="#f2f5e9" fill-opacity="0.5" stroke="#606060" stroke-width="1.0"/>
   <path id="arrow"
     d="M 11.500037,31.436501 C 11.940474,20.09759 22.043105,11.32322 32.158766,21.979434 L 37.068811,17.246167 C 37.068811,17.246167 37.088388,32 37.088388,32 L 22.160133,31.978069 C 22.160133,31.978069 26.997745,27.140456 26.997745,27.140456 C 18.528582,18.264221 13.291696,25.230495 11.500037,31.436501 z"
     style="fill:#404040;"/>
  </a>
 </g>
</svg>

<style type='text/css'>
<![CDATA[
[data-mouse-over-selected='false'] { opacity: 0.7; }
[data-mouse-over-selected='true']  { opacity: 1.0; }
]]>
</style>
<script type="application/ecmascript"><![CDATA[
document.addEventListener('DOMContentLoaded', (event) => {
  highlightEdges();
  highlightAdjacentNodes();
});
]]></script>
</svg>
