<?xml version="1.0" encoding="UTF-8" standalone="no"?>
<!DOCTYPE svg PUBLIC "-//W3C//DTD SVG 1.1//EN"
 "http://www.w3.org/Graphics/SVG/1.1/DTD/svg11.dtd">
<!-- Generated by graphviz version 12.2.1 (20241206.2353)
 -->
<!-- Title: Parent::Parent Pages: 1 -->
<svg width="221pt" height="294pt"
 viewBox="0.00 0.00 220.75 294.00" xmlns="http://www.w3.org/2000/svg" xmlns:xlink="http://www.w3.org/1999/xlink">

<svg id="main" version="1.1" xmlns="http://www.w3.org/2000/svg" xmlns:xlink="http://www.w3.org/1999/xlink" xml:space="preserve">

<style type="text/css"><![CDATA[
.node, .edge {opacity: 0.7;}
.node.selected, .edge.selected {opacity: 1;}
.edge:hover path { stroke: red; }
.edge:hover polygon { stroke: red; fill: red; }
]]></style>
<script type="application/ecmascript" xlink:href="svg.min.js"/>
<svg id="graph" class="graph">
<g id="graph0" class="graph" transform="scale(1 1) rotate(0) translate(4 290)">
<title>Parent::Parent</title>
<!-- Node1 -->
<g id="Node000001" class="node">
<title>Node1</title>
<g id="a_Node000001"><a xlink:title="Default constructor.">
<polygon fill="#999999" stroke="#666666" points="212.75,-153 133.75,-153 133.75,-133 212.75,-133 212.75,-153"/>
<text text-anchor="middle" x="173.25" y="-139.5" font-family="Helvetica,sans-Serif" font-size="10.00">Parent::Parent</text>
</a>
</g>
</g>
<!-- Node2 -->
<g id="Node000002" class="node">
<title>Node2</title>
<g id="a_Node000002"><a xlink:href="class_parent.html#a7a157edc19eb741def04373a92c4fa35" target="_top" xlink:title="Inequality operator.">
<polygon fill="white" stroke="#666666" points="96.25,-286 1.5,-286 1.5,-266 96.25,-266 96.25,-286"/>
<text text-anchor="middle" x="48.88" y="-272.5" font-family="Helvetica,sans-Serif" font-size="10.00">Parent::operator!=</text>
</a>
</g>
</g>
<!-- Node1&#45;&gt;Node2 -->
<g id="edge1_Node000001_Node000002" class="edge">
<title>Node1&#45;&gt;Node2</title>
<g id="a_edge1_Node000001_Node000002"><a xlink:title=" ">
<path fill="none" stroke="#63b8ff" d="M163.56,-163.59C151.97,-188.8 129.19,-231.32 97.75,-257 93.59,-260.39 88.76,-263.24 83.79,-265.61"/>
<polygon fill="#63b8ff" stroke="#63b8ff" points="166.64,-165.29 167.48,-154.73 160.24,-162.46 166.64,-165.29"/>
</a>
</g>
</g>
<!-- Node3 -->
<g id="Node000003" class="node">
<title>Node3</title>
<g id="a_Node000003"><a xlink:href="class_parent.html#ac986b952fe2b8a368c25b6bb10e91ee7" target="_top" xlink:title="Outputs the Parent object to a stream.">
<polygon fill="white" stroke="#666666" points="97.75,-248 0,-248 0,-228 97.75,-228 97.75,-248"/>
<text text-anchor="middle" x="48.88" y="-234.5" font-family="Helvetica,sans-Serif" font-size="10.00">Parent::operator&lt;&lt;</text>
</a>
</g>
</g>
<!-- Node1&#45;&gt;Node3 -->
<g id="edge2_Node000001_Node000003" class="edge">
<title>Node1&#45;&gt;Node3</title>
<g id="a_edge2_Node000001_Node000003"><a xlink:title=" ">
<path fill="none" stroke="#63b8ff" d="M157.2,-162.42C143.3,-179.27 121.29,-203.35 97.75,-219 92.83,-222.27 87.27,-225.11 81.72,-227.54"/>
<polygon fill="#63b8ff" stroke="#63b8ff" points="159.92,-164.62 163.45,-154.63 154.46,-160.24 159.92,-164.62"/>
</a>
</g>
</g>
<!-- Node4 -->
<g id="Node000004" class="node">
<title>Node4</title>
<g id="a_Node000004"><a xlink:href="class_parent.html#a6e7f85250716243abf0a072e01ae86c0" target="_top" xlink:title=" ">
<polygon fill="white" stroke="#666666" points="94.75,-210 3,-210 3,-190 94.75,-190 94.75,-210"/>
<text text-anchor="middle" x="48.88" y="-196.5" font-family="Helvetica,sans-Serif" font-size="10.00">Parent::operator=</text>
</a>
</g>
</g>
<!-- Node1&#45;&gt;Node4 -->
<g id="edge3_Node000001_Node000004" class="edge">
<title>Node1&#45;&gt;Node4</title>
<g id="a_edge3_Node000001_Node000004"><a xlink:title=" ">
<path fill="none" stroke="#63b8ff" d="M143.38,-158.52C129.7,-165.67 113.04,-174.09 97.75,-181 91.23,-183.95 84.11,-186.91 77.4,-189.59"/>
<polygon fill="#63b8ff" stroke="#63b8ff" points="144.65,-161.81 151.86,-154.05 141.38,-155.62 144.65,-161.81"/>
</a>
</g>
</g>
<!-- Node5 -->
<g id="Node000005" class="node">
<title>Node5</title>
<g id="a_Node000005"><a xlink:href="class_parent.html#a9a58929a68e6b41a29a36faa3430843e" target="_top" xlink:title=" ">
<polygon fill="white" stroke="#666666" points="94.75,-172 3,-172 3,-152 94.75,-152 94.75,-172"/>
<text text-anchor="middle" x="48.88" y="-158.5" font-family="Helvetica,sans-Serif" font-size="10.00">Parent::operator=</text>
</a>
</g>
</g>
<!-- Node1&#45;&gt;Node5 -->
<g id="edge4_Node000001_Node000005" class="edge">
<title>Node1&#45;&gt;Node5</title>
<g id="a_edge4_Node000001_Node000005"><a xlink:title=" ">
<path fill="none" stroke="#63b8ff" d="M122.37,-150.74C113.38,-152.14 104.04,-153.59 95.18,-154.97"/>
<polygon fill="#63b8ff" stroke="#63b8ff" points="122.69,-154.24 132.03,-149.24 121.62,-147.32 122.69,-154.24"/>
</a>
</g>
</g>
<!-- Node6 -->
<g id="Node000006" class="node">
<title>Node6</title>
<g id="a_Node000006"><a xlink:href="class_parent.html#acd5c86f9bb6cee0ee5bab8b81ba5f032" target="_top" xlink:title="Equality operator.">
<polygon fill="white" stroke="#666666" points="97.75,-134 0,-134 0,-114 97.75,-114 97.75,-134"/>
<text text-anchor="middle" x="48.88" y="-120.5" font-family="Helvetica,sans-Serif" font-size="10.00">Parent::operator==</text>
</a>
</g>
</g>
<!-- Node1&#45;&gt;Node6 -->
<g id="edge5_Node000001_Node000006" class="edge">
<title>Node1&#45;&gt;Node6</title>
<g id="a_edge5_Node000001_Node000006"><a xlink:title=" ">
<path fill="none" stroke="#63b8ff" d="M122.19,-135.23C114.28,-134 106.11,-132.73 98.24,-131.51"/>
<polygon fill="#63b8ff" stroke="#63b8ff" points="121.62,-138.68 132.03,-136.76 122.69,-131.76 121.62,-138.68"/>
</a>
</g>
</g>
<!-- Node7 -->
<g id="Node000007" class="node">
<title>Node7</title>
<g id="a_Node000007"><a xlink:href="class_parent.html#a680ded31eaa7cb257db7278fadd97f1e" target="_top" xlink:title=" ">
<polygon fill="white" stroke="#666666" points="88.38,-96 9.38,-96 9.38,-76 88.38,-76 88.38,-96"/>
<text text-anchor="middle" x="48.88" y="-82.5" font-family="Helvetica,sans-Serif" font-size="10.00">Parent::Parent</text>
</a>
</g>
</g>
<!-- Node1&#45;&gt;Node7 -->
<g id="edge6_Node000001_Node000007" class="edge">
<title>Node1&#45;&gt;Node7</title>
<g id="a_edge6_Node000001_Node000007"><a xlink:title=" ">
<path fill="none" stroke="#63b8ff" d="M143.38,-127.48C129.7,-120.33 113.04,-111.91 97.75,-105 91.23,-102.05 84.11,-99.09 77.4,-96.41"/>
<polygon fill="#63b8ff" stroke="#63b8ff" points="141.38,-130.38 151.86,-131.95 144.65,-124.19 141.38,-130.38"/>
</a>
</g>
</g>
<!-- Node8 -->
<g id="Node000008" class="node">
<title>Node8</title>
<g id="a_Node000008"><a xlink:href="class_parent.html#ad3c3c0af164073add66af150a4ad8314" target="_top" xlink:title=" ">
<polygon fill="white" stroke="#666666" points="88.38,-58 9.38,-58 9.38,-38 88.38,-38 88.38,-58"/>
<text text-anchor="middle" x="48.88" y="-44.5" font-family="Helvetica,sans-Serif" font-size="10.00">Parent::Parent</text>
</a>
</g>
</g>
<!-- Node1&#45;&gt;Node8 -->
<g id="edge7_Node000001_Node000008" class="edge">
<title>Node1&#45;&gt;Node8</title>
<g id="a_edge7_Node000001_Node000008"><a xlink:title=" ">
<path fill="none" stroke="#63b8ff" d="M157.2,-123.58C143.3,-106.73 121.29,-82.65 97.75,-67 92.83,-63.73 87.27,-60.89 81.72,-58.46"/>
<polygon fill="#63b8ff" stroke="#63b8ff" points="154.46,-125.76 163.45,-131.37 159.92,-121.38 154.46,-125.76"/>
</a>
</g>
</g>
<!-- Node9 -->
<g id="Node000009" class="node">
<title>Node9</title>
<g id="a_Node000009"><a xlink:href="class_parent.html#a707fd2a055909b06ba51a2def09d05e6" target="_top" xlink:title="Destructor.">
<polygon fill="white" stroke="#666666" points="91.38,-20 6.38,-20 6.38,0 91.38,0 91.38,-20"/>
<text text-anchor="middle" x="48.88" y="-6.5" font-family="Helvetica,sans-Serif" font-size="10.00">Parent::~Parent</text>
</a>
</g>
</g>
<!-- Node1&#45;&gt;Node9 -->
<g id="edge8_Node000001_Node000009" class="edge">
<title>Node1&#45;&gt;Node9</title>
<g id="a_edge8_Node000001_Node000009"><a xlink:title=" ">
<path fill="none" stroke="#63b8ff" d="M163.56,-122.41C151.97,-97.2 129.19,-54.68 97.75,-29 93.59,-25.61 88.76,-22.76 83.79,-20.39"/>
<polygon fill="#63b8ff" stroke="#63b8ff" points="160.24,-123.54 167.48,-131.27 166.64,-120.71 160.24,-123.54"/>
</a>
</g>
</g>
</g>
</svg>
</svg>

<style type='text/css'>
<![CDATA[
[data-mouse-over-selected='false'] { opacity: 0.7; }
[data-mouse-over-selected='true']  { opacity: 1.0; }
]]>
</style>
<script type="application/ecmascript"><![CDATA[
document.addEventListener('DOMContentLoaded', (event) => {
  highlightEdges();
  highlightAdjacentNodes();
});
]]></script>
</svg>
