<?xml version="1.0" encoding="UTF-8" standalone="no"?>
<!DOCTYPE svg PUBLIC "-//W3C//DTD SVG 1.1//EN"
 "http://www.w3.org/Graphics/SVG/1.1/DTD/svg11.dtd">
<!-- Generated by graphviz version 12.2.1 (20241206.2353)
 -->
<!-- Title: DataBaseGUI::populate_children_tab Pages: 1 -->
<svg width="463pt" height="234pt"
 viewBox="0.00 0.00 463.25 233.92" xmlns="http://www.w3.org/2000/svg" xmlns:xlink="http://www.w3.org/1999/xlink">
<g id="graph0" class="graph" transform="scale(1 1) rotate(0) translate(4 229.92)">
<title>DataBaseGUI::populate_children_tab</title>
<!-- Node1 -->
<g id="Node000001" class="node">
<title>Node1</title>
<g id="a_Node000001"><a xlink:title="Populates the children tab with a list of children.">
<polygon fill="#999999" stroke="#666666" points="120.25,-115.92 0,-115.92 0,-83.92 120.25,-83.92 120.25,-115.92"/>
<text text-anchor="start" x="8" y="-102.42" font-family="Helvetica,sans-Serif" font-size="10.00">DataBaseGUI::populate</text>
<text text-anchor="middle" x="60.12" y="-90.42" font-family="Helvetica,sans-Serif" font-size="10.00">_children_tab</text>
</a>
</g>
</g>
<!-- Node2 -->
<g id="Node000002" class="node">
<title>Node2</title>
<g id="a_Node000002"><a xlink:href="$class_data_base_g_u_i.html#acb6c6b292e58d0ead30682f7f5705244" xlink:title="Edits an existing child in the database.">
<polygon fill="white" stroke="#666666" points="292.25,-225.92 167.5,-225.92 167.5,-205.92 292.25,-205.92 292.25,-225.92"/>
<text text-anchor="middle" x="229.88" y="-212.42" font-family="Helvetica,sans-Serif" font-size="10.00">DataBaseGUI::child_edit</text>
</a>
</g>
</g>
<!-- Node1&#45;&gt;Node2 -->
<g id="edge1_Node000001_Node000002" class="edge">
<title>Node1&#45;&gt;Node2</title>
<g id="a_edge1_Node000001_Node000002"><a xlink:title=" ">
<path fill="none" stroke="#63b8ff" d="M72.67,-116.31C88.84,-138.05 120.34,-176.09 156.25,-196.92 158.91,-198.46 161.69,-199.87 164.55,-201.18"/>
<polygon fill="#63b8ff" stroke="#63b8ff" points="163.2,-204.41 173.78,-204.86 165.8,-197.91 163.2,-204.41"/>
</a>
</g>
</g>
<!-- Node4 -->
<g id="Node000004" class="node">
<title>Node4</title>
<g id="a_Node000004"><a xlink:href="$class_data_base_g_u_i.html#ae3a08843db874e51a7cea32fa8937ca5" xlink:title="Removes a child from the database.">
<polygon fill="white" stroke="#666666" points="281.75,-187.92 178,-187.92 178,-155.92 281.75,-155.92 281.75,-187.92"/>
<text text-anchor="start" x="186" y="-174.42" font-family="Helvetica,sans-Serif" font-size="10.00">DataBaseGUI::child</text>
<text text-anchor="middle" x="229.88" y="-162.42" font-family="Helvetica,sans-Serif" font-size="10.00">_remove</text>
</a>
</g>
</g>
<!-- Node1&#45;&gt;Node4 -->
<g id="edge4_Node000001_Node000004" class="edge">
<title>Node1&#45;&gt;Node4</title>
<g id="a_edge4_Node000001_Node000004"><a xlink:title=" ">
<path fill="none" stroke="#63b8ff" d="M91.94,-116.39C110.34,-125.9 134.32,-137.77 156.25,-146.92 160.04,-148.5 163.97,-150.06 167.96,-151.59"/>
<polygon fill="#63b8ff" stroke="#63b8ff" points="166.54,-154.8 177.14,-155 168.98,-148.23 166.54,-154.8"/>
</a>
</g>
</g>
<!-- Node5 -->
<g id="Node000005" class="node">
<title>Node5</title>
<g id="a_Node000005"><a xlink:href="$class_data_base_g_u_i.html#afbc53e28ad83200fe77e0fa5a6eb970f" xlink:title="Clears the children tab.">
<polygon fill="white" stroke="#666666" points="288.5,-137.92 171.25,-137.92 171.25,-105.92 288.5,-105.92 288.5,-137.92"/>
<text text-anchor="start" x="179.25" y="-124.42" font-family="Helvetica,sans-Serif" font-size="10.00">DataBaseGUI::children</text>
<text text-anchor="middle" x="229.88" y="-112.42" font-family="Helvetica,sans-Serif" font-size="10.00">_tab_clear</text>
</a>
</g>
</g>
<!-- Node1&#45;&gt;Node5 -->
<g id="edge6_Node000001_Node000005" class="edge">
<title>Node1&#45;&gt;Node5</title>
<g id="a_edge6_Node000001_Node000005"><a xlink:title=" ">
<path fill="none" stroke="#63b8ff" d="M120.74,-107.73C133.34,-109.39 146.74,-111.14 159.66,-112.84"/>
<polygon fill="#63b8ff" stroke="#63b8ff" points="158.99,-116.28 169.36,-114.11 159.9,-109.34 158.99,-116.28"/>
</a>
</g>
</g>
<!-- Node6 -->
<g id="Node000006" class="node">
<title>Node6</title>
<g id="a_Node000006"><a xlink:href="$class_child_entry.html#abda9dea89937d77c4def3fb81d964ff9" xlink:title=" ">
<polygon fill="white" stroke="#666666" points="295.25,-87.92 164.5,-87.92 164.5,-67.92 295.25,-67.92 295.25,-87.92"/>
<text text-anchor="middle" x="229.88" y="-74.42" font-family="Helvetica,sans-Serif" font-size="10.00">ChildEntry::editRequested</text>
</a>
</g>
</g>
<!-- Node1&#45;&gt;Node6 -->
<g id="edge7_Node000001_Node000006" class="edge">
<title>Node1&#45;&gt;Node6</title>
<g id="a_edge7_Node000001_Node000006"><a xlink:title=" ">
<path fill="none" stroke="#63b8ff" d="M120.74,-92.1C131.15,-90.73 142.11,-89.29 152.9,-87.88"/>
<polygon fill="#63b8ff" stroke="#63b8ff" points="153.08,-91.39 162.54,-86.62 152.17,-84.45 153.08,-91.39"/>
</a>
</g>
</g>
<!-- Node7 -->
<g id="Node000007" class="node">
<title>Node7</title>
<g id="a_Node000007"><a xlink:href="$class_child_entry.html#a69e495a83c20ea922198adea9ae47ddb" xlink:title=" ">
<polygon fill="white" stroke="#666666" points="303.5,-49.92 156.25,-49.92 156.25,-29.92 303.5,-29.92 303.5,-49.92"/>
<text text-anchor="middle" x="229.88" y="-36.42" font-family="Helvetica,sans-Serif" font-size="10.00">ChildEntry::removeRequested</text>
</a>
</g>
</g>
<!-- Node1&#45;&gt;Node7 -->
<g id="edge8_Node000001_Node000007" class="edge">
<title>Node1&#45;&gt;Node7</title>
<g id="a_edge8_Node000001_Node000007"><a xlink:title=" ">
<path fill="none" stroke="#63b8ff" d="M95.86,-83.44C113.67,-75.39 135.84,-65.94 156.25,-58.92 161.95,-56.95 167.96,-55.08 173.98,-53.33"/>
<polygon fill="#63b8ff" stroke="#63b8ff" points="174.63,-56.78 183.32,-50.72 172.74,-50.04 174.63,-56.78"/>
</a>
</g>
</g>
<!-- Node3 -->
<g id="Node000003" class="node">
<title>Node3</title>
<g id="a_Node000003"><a xlink:href="$class_data_base_g_u_i.html#aa684465aa73b5b34bbadd24fc7f2f641" xlink:title=" ">
<polygon fill="white" stroke="#666666" points="455.25,-187.92 339.5,-187.92 339.5,-155.92 455.25,-155.92 455.25,-187.92"/>
<text text-anchor="start" x="347.5" y="-174.42" font-family="Helvetica,sans-Serif" font-size="10.00">DataBaseGUI::sort_to</text>
<text text-anchor="middle" x="397.38" y="-162.42" font-family="Helvetica,sans-Serif" font-size="10.00">_populate_children_tab</text>
</a>
</g>
</g>
<!-- Node2&#45;&gt;Node3 -->
<g id="edge2_Node000002_Node000003" class="edge">
<title>Node2&#45;&gt;Node3</title>
<g id="a_edge2_Node000002_Node000003"><a xlink:title=" ">
<path fill="none" stroke="#63b8ff" d="M270.84,-205.51C281.46,-202.73 292.92,-199.72 303.5,-196.92 311.58,-194.77 320.05,-192.51 328.45,-190.26"/>
<polygon fill="#63b8ff" stroke="#63b8ff" points="329.2,-193.68 337.95,-187.71 327.39,-186.92 329.2,-193.68"/>
</a>
</g>
</g>
<!-- Node3&#45;&gt;Node1 -->
<g id="edge3_Node000003_Node000001" class="edge">
<title>Node3&#45;&gt;Node1</title>
<g id="a_edge3_Node000003_Node000001"><a xlink:title=" ">
<path fill="none" stroke="#63b8ff" d="M392.07,-155.52C382.49,-122.85 356.02,-50.27 303.5,-20.92 246.37,11.01 217.8,1.31 156.25,-20.92 126.44,-31.68 99.38,-56.3 81.81,-75.21"/>
<polygon fill="#63b8ff" stroke="#63b8ff" points="79.29,-72.79 75.21,-82.57 84.5,-77.46 79.29,-72.79"/>
</a>
</g>
</g>
<!-- Node4&#45;&gt;Node3 -->
<g id="edge5_Node000004_Node000003" class="edge">
<title>Node4&#45;&gt;Node3</title>
<g id="a_edge5_Node000004_Node000003"><a xlink:title=" ">
<path fill="none" stroke="#63b8ff" d="M281.88,-171.92C296.48,-171.92 312.63,-171.92 328.09,-171.92"/>
<polygon fill="#63b8ff" stroke="#63b8ff" points="327.67,-175.42 337.67,-171.92 327.67,-168.42 327.67,-175.42"/>
</a>
</g>
</g>
</g>
</svg>
