<?xml version="1.0" encoding="UTF-8" standalone="no"?>
<!DOCTYPE svg PUBLIC "-//W3C//DTD SVG 1.1//EN"
 "http://www.w3.org/Graphics/SVG/1.1/DTD/svg11.dtd">
<!-- Generated by graphviz version 12.2.1 (20241206.2353)
 -->
<!-- Title: Date::print_short Pages: 1 -->
<svg width="367pt" height="104pt"
 viewBox="0.00 0.00 367.25 104.00" xmlns="http://www.w3.org/2000/svg" xmlns:xlink="http://www.w3.org/1999/xlink">

<svg id="main" version="1.1" xmlns="http://www.w3.org/2000/svg" xmlns:xlink="http://www.w3.org/1999/xlink" xml:space="preserve">

<style type="text/css"><![CDATA[
.node, .edge {opacity: 0.7;}
.node.selected, .edge.selected {opacity: 1;}
.edge:hover path { stroke: red; }
.edge:hover polygon { stroke: red; fill: red; }
]]></style>
<script type="application/ecmascript" xlink:href="svg.min.js"/>
<svg id="graph" class="graph">
<g id="graph0" class="graph" transform="scale(1 1) rotate(0) translate(4 100)">
<title>Date::print_short</title>
<!-- Node1 -->
<g id="Node000001" class="node">
<title>Node1</title>
<g id="a_Node000001"><a xlink:title="Prints the date in a short format.">
<polygon fill="#999999" stroke="#666666" points="88.75,-58 0,-58 0,-38 88.75,-38 88.75,-58"/>
<text text-anchor="middle" x="44.38" y="-44.5" font-family="Helvetica,sans-Serif" font-size="10.00">Date::print_short</text>
</a>
</g>
</g>
<!-- Node2 -->
<g id="Node000002" class="node">
<title>Node2</title>
<g id="a_Node000002"><a xlink:href="class_date.html#a4a50a2f4e115c9368603a7226c45872b" target="_top" xlink:title="Gets the date as a string.">
<polygon fill="white" stroke="#666666" points="234.5,-58 124.75,-58 124.75,-38 234.5,-38 234.5,-58"/>
<text text-anchor="middle" x="179.62" y="-44.5" font-family="Helvetica,sans-Serif" font-size="10.00">Date::get_date_string</text>
</a>
</g>
</g>
<!-- Node1&#45;&gt;Node2 -->
<g id="edge1_Node000001_Node000002" class="edge">
<title>Node1&#45;&gt;Node2</title>
<g id="a_edge1_Node000001_Node000002"><a xlink:title=" ">
<path fill="none" stroke="#63b8ff" d="M89.01,-48C96.74,-48 104.95,-48 113.14,-48"/>
<polygon fill="#63b8ff" stroke="#63b8ff" points="113.14,-51.5 123.14,-48 113.14,-44.5 113.14,-51.5"/>
</a>
</g>
</g>
<!-- Node3 -->
<g id="Node000003" class="node">
<title>Node3</title>
<g id="a_Node000003"><a xlink:href="class_date.html#a2e4dc4249f8cccd40acc5950b42e1339" target="_top" xlink:title="Gets the day of the date.">
<polygon fill="white" stroke="#666666" points="353.62,-96 276.12,-96 276.12,-76 353.62,-76 353.62,-96"/>
<text text-anchor="middle" x="314.88" y="-82.5" font-family="Helvetica,sans-Serif" font-size="10.00">Date::get_day</text>
</a>
</g>
</g>
<!-- Node2&#45;&gt;Node3 -->
<g id="edge2_Node000002_Node000003" class="edge">
<title>Node2&#45;&gt;Node3</title>
<g id="a_edge2_Node000002_Node000003"><a xlink:title=" ">
<path fill="none" stroke="#63b8ff" d="M217.39,-58.48C232.54,-62.8 250.28,-67.86 266.39,-72.46"/>
<polygon fill="#63b8ff" stroke="#63b8ff" points="265.2,-75.76 275.78,-75.13 267.12,-69.03 265.2,-75.76"/>
</a>
</g>
</g>
<!-- Node4 -->
<g id="Node000004" class="node">
<title>Node4</title>
<g id="a_Node000004"><a xlink:href="class_date.html#a81b10f48eadbf944836618d27e8f427a" target="_top" xlink:title="Gets the month of the date.">
<polygon fill="white" stroke="#666666" points="359.25,-58 270.5,-58 270.5,-38 359.25,-38 359.25,-58"/>
<text text-anchor="middle" x="314.88" y="-44.5" font-family="Helvetica,sans-Serif" font-size="10.00">Date::get_month</text>
</a>
</g>
</g>
<!-- Node2&#45;&gt;Node4 -->
<g id="edge3_Node000002_Node000004" class="edge">
<title>Node2&#45;&gt;Node4</title>
<g id="a_edge3_Node000002_Node000004"><a xlink:title=" ">
<path fill="none" stroke="#63b8ff" d="M234.82,-48C242.76,-48 250.95,-48 258.9,-48"/>
<polygon fill="#63b8ff" stroke="#63b8ff" points="258.82,-51.5 268.82,-48 258.82,-44.5 258.82,-51.5"/>
</a>
</g>
</g>
<!-- Node5 -->
<g id="Node000005" class="node">
<title>Node5</title>
<g id="a_Node000005"><a xlink:href="class_date.html#acda1623a6e13fdbeead7f62d0968d8da" target="_top" xlink:title="Gets the year of the date.">
<polygon fill="white" stroke="#666666" points="355.12,-20 274.62,-20 274.62,0 355.12,0 355.12,-20"/>
<text text-anchor="middle" x="314.88" y="-6.5" font-family="Helvetica,sans-Serif" font-size="10.00">Date::get_year</text>
</a>
</g>
</g>
<!-- Node2&#45;&gt;Node5 -->
<g id="edge4_Node000002_Node000005" class="edge">
<title>Node2&#45;&gt;Node5</title>
<g id="a_edge4_Node000002_Node000005"><a xlink:title=" ">
<path fill="none" stroke="#63b8ff" d="M217.39,-37.52C232.54,-33.2 250.28,-28.14 266.39,-23.54"/>
<polygon fill="#63b8ff" stroke="#63b8ff" points="267.12,-26.97 275.78,-20.87 265.2,-20.24 267.12,-26.97"/>
</a>
</g>
</g>
</g>
</svg>
</svg>

<style type='text/css'>
<![CDATA[
[data-mouse-over-selected='false'] { opacity: 0.7; }
[data-mouse-over-selected='true']  { opacity: 1.0; }
]]>
</style>
<script type="application/ecmascript"><![CDATA[
document.addEventListener('DOMContentLoaded', (event) => {
  highlightEdges();
  highlightAdjacentNodes();
});
]]></script>
</svg>
