<?xml version="1.0" encoding="UTF-8" standalone="no"?>
<!DOCTYPE svg PUBLIC "-//W3C//DTD SVG 1.1//EN"
 "http://www.w3.org/Graphics/SVG/1.1/DTD/svg11.dtd">
<!-- Generated by graphviz version 12.2.1 (20241206.2353)
 -->
<!-- Title: DateTime::set_time Pages: 1 -->
<svg width="354pt" height="104pt"
 viewBox="0.00 0.00 353.75 104.00" xmlns="http://www.w3.org/2000/svg" xmlns:xlink="http://www.w3.org/1999/xlink">
<g id="graph0" class="graph" transform="scale(1 1) rotate(0) translate(4 100)">
<title>DateTime::set_time</title>
<!-- Node1 -->
<g id="Node000001" class="node">
<title>Node1</title>
<g id="a_Node000001"><a xlink:title="Sets the time component of the DateTime.">
<polygon fill="#999999" stroke="#666666" points="102.25,-58 0,-58 0,-38 102.25,-38 102.25,-58"/>
<text text-anchor="middle" x="51.12" y="-44.5" font-family="Helvetica,sans-Serif" font-size="10.00">DateTime::set_time</text>
</a>
</g>
</g>
<!-- Node2 -->
<g id="Node000002" class="node">
<title>Node2</title>
<g id="a_Node000002"><a xlink:href="class_date_time.html#afa7d2eb61840fe713cb4f98795c23a53" target="_top" xlink:title="Default constructor.">
<polygon fill="white" stroke="#666666" points="245.75,-96 138.25,-96 138.25,-76 245.75,-76 245.75,-96"/>
<text text-anchor="middle" x="192" y="-82.5" font-family="Helvetica,sans-Serif" font-size="10.00">DateTime::DateTime</text>
</a>
</g>
</g>
<!-- Node1&#45;&gt;Node2 -->
<g id="edge1_Node000001_Node000002" class="edge">
<title>Node1&#45;&gt;Node2</title>
<g id="a_edge1_Node000001_Node000002"><a xlink:title=" ">
<path fill="none" stroke="#63b8ff" d="M90.44,-58.48C106.38,-62.85 125.07,-67.96 141.99,-72.59"/>
<polygon fill="#63b8ff" stroke="#63b8ff" points="140.78,-75.89 151.35,-75.15 142.63,-69.14 140.78,-75.89"/>
</a>
</g>
</g>
<!-- Node3 -->
<g id="Node000003" class="node">
<title>Node3</title>
<g id="a_Node000003"><a xlink:href="class_date_time.html#a43209e7423046122f31a5ea4d06dfcf9" target="_top" xlink:title="Gets the date component of the DateTime.">
<polygon fill="white" stroke="#666666" points="243.12,-58 140.88,-58 140.88,-38 243.12,-38 243.12,-58"/>
<text text-anchor="middle" x="192" y="-44.5" font-family="Helvetica,sans-Serif" font-size="10.00">DateTime::get_date</text>
</a>
</g>
</g>
<!-- Node1&#45;&gt;Node3 -->
<g id="edge2_Node000001_Node000003" class="edge">
<title>Node1&#45;&gt;Node3</title>
<g id="a_edge2_Node000001_Node000003"><a xlink:title=" ">
<path fill="none" stroke="#63b8ff" d="M102.65,-48C111.38,-48 120.54,-48 129.51,-48"/>
<polygon fill="#63b8ff" stroke="#63b8ff" points="129.23,-51.5 139.23,-48 129.23,-44.5 129.23,-51.5"/>
</a>
</g>
</g>
<!-- Node5 -->
<g id="Node000005" class="node">
<title>Node5</title>
<g id="a_Node000005"><a xlink:href="class_time.html#a0eedb4e626b8e3fdcaf63519b86ea778" target="_top" xlink:title="Default constructor.">
<polygon fill="white" stroke="#666666" points="224.75,-20 159.25,-20 159.25,0 224.75,0 224.75,-20"/>
<text text-anchor="middle" x="192" y="-6.5" font-family="Helvetica,sans-Serif" font-size="10.00">Time::Time</text>
</a>
</g>
</g>
<!-- Node1&#45;&gt;Node5 -->
<g id="edge4_Node000001_Node000005" class="edge">
<title>Node1&#45;&gt;Node5</title>
<g id="a_edge4_Node000001_Node000005"><a xlink:title=" ">
<path fill="none" stroke="#63b8ff" d="M90.44,-37.52C108.26,-32.64 129.52,-26.82 147.9,-21.79"/>
<polygon fill="#63b8ff" stroke="#63b8ff" points="148.73,-25.19 157.45,-19.18 146.88,-18.44 148.73,-25.19"/>
</a>
</g>
</g>
<!-- Node4 -->
<g id="Node000004" class="node">
<title>Node4</title>
<g id="a_Node000004"><a xlink:href="class_date.html#a19cb325d7fc9e143f9095e7eadc8a1a4" target="_top" xlink:title="Default constructor.">
<polygon fill="white" stroke="#666666" points="345.75,-58 281.75,-58 281.75,-38 345.75,-38 345.75,-58"/>
<text text-anchor="middle" x="313.75" y="-44.5" font-family="Helvetica,sans-Serif" font-size="10.00">Date::Date</text>
</a>
</g>
</g>
<!-- Node3&#45;&gt;Node4 -->
<g id="edge3_Node000003_Node000004" class="edge">
<title>Node3&#45;&gt;Node4</title>
<g id="a_edge3_Node000003_Node000004"><a xlink:title=" ">
<path fill="none" stroke="#63b8ff" d="M243.44,-48C252.31,-48 261.48,-48 270.11,-48"/>
<polygon fill="#63b8ff" stroke="#63b8ff" points="269.98,-51.5 279.98,-48 269.98,-44.5 269.98,-51.5"/>
</a>
</g>
</g>
</g>
</svg>
