<?xml version="1.0" encoding="UTF-8" standalone="no"?>
<!DOCTYPE svg PUBLIC "-//W3C//DTD SVG 1.1//EN"
 "http://www.w3.org/Graphics/SVG/1.1/DTD/svg11.dtd">
<!-- Generated by graphviz version 12.2.1 (20241206.2353)
 -->
<!-- Title: DataBaseGUI::parent_search Pages: 1 -->
<svg width="1743pt" height="689pt"
 viewBox="0.00 0.00 1742.50 689.14" xmlns="http://www.w3.org/2000/svg" xmlns:xlink="http://www.w3.org/1999/xlink">
<g id="graph0" class="graph" transform="scale(1 1) rotate(0) translate(4 685.14)">
<title>DataBaseGUI::parent_search</title>
<!-- Node1 -->
<g id="Node000001" class="node">
<title>Node1</title>
<g id="a_Node000001"><a xlink:title="Searches for parents based on the provided name and surname.">
<polygon fill="#999999" stroke="#666666" points="1734.5,-614.51 1624,-614.51 1624,-582.51 1734.5,-582.51 1734.5,-614.51"/>
<text text-anchor="start" x="1632" y="-601.01" font-family="Helvetica,sans-Serif" font-size="10.00">DataBaseGUI::parent</text>
<text text-anchor="middle" x="1679.25" y="-589.01" font-family="Helvetica,sans-Serif" font-size="10.00">_search</text>
</a>
</g>
</g>
<!-- Node2 -->
<g id="Node000002" class="node">
<title>Node2</title>
<g id="a_Node000002"><a xlink:href="class_data_base_g_u_i.html#a8e1fe573ef6a09e112989968ec1a2b43" target="_top" xlink:title="Searches for parents based on the provided parent pointer.">
<polygon fill="white" stroke="#666666" points="1588,-184.51 1477.5,-184.51 1477.5,-152.51 1588,-152.51 1588,-184.51"/>
<text text-anchor="start" x="1485.5" y="-171.01" font-family="Helvetica,sans-Serif" font-size="10.00">DataBaseGUI::parent</text>
<text text-anchor="middle" x="1532.75" y="-159.01" font-family="Helvetica,sans-Serif" font-size="10.00">_search_by_pointer</text>
</a>
</g>
</g>
<!-- Node1&#45;&gt;Node2 -->
<g id="edge1_Node000001_Node000002" class="edge">
<title>Node1&#45;&gt;Node2</title>
<g id="a_edge1_Node000001_Node000002"><a xlink:title=" ">
<path fill="none" stroke="#63b8ff" d="M1669.13,-571.37C1641.79,-490.01 1561.07,-249.81 1539.24,-184.86"/>
<polygon fill="#63b8ff" stroke="#63b8ff" points="1665.78,-572.38 1672.28,-580.74 1672.41,-570.15 1665.78,-572.38"/>
</a>
</g>
</g>
<!-- Node11 -->
<g id="Node000011" class="node">
<title>Node11</title>
<g id="a_Node000011"><a xlink:href="class_data_base_g_u_i.html#a6c35e47ed05a80db144f240dee805a9d" target="_top" xlink:title="Sets up the GUI.">
<polygon fill="white" stroke="#666666" points="294.88,-349.51 187.38,-349.51 187.38,-329.51 294.88,-329.51 294.88,-349.51"/>
<text text-anchor="middle" x="241.12" y="-336.01" font-family="Helvetica,sans-Serif" font-size="10.00">DataBaseGUI::setup</text>
</a>
</g>
</g>
<!-- Node1&#45;&gt;Node11 -->
<g id="edge56_Node000001_Node000011" class="edge">
<title>Node1&#45;&gt;Node11</title>
<g id="a_edge56_Node000001_Node000011"><a xlink:title=" ">
<path fill="none" stroke="#63b8ff" d="M1629.15,-619.21C1571.25,-641.72 1471.56,-674.51 1382.38,-674.51 1382.38,-674.51 1382.38,-674.51 571.75,-674.51 466.02,-674.51 417.16,-703.74 337.25,-634.51 247.16,-556.46 241.76,-392.63 241.93,-349.89"/>
<polygon fill="#63b8ff" stroke="#63b8ff" points="1630.39,-622.49 1638.41,-615.56 1627.82,-615.97 1630.39,-622.49"/>
</a>
</g>
</g>
<!-- Node3 -->
<g id="Node000003" class="node">
<title>Node3</title>
<g id="a_Node000003"><a xlink:href="class_data_base_g_u_i.html#a334c0011a9d3a71539b326a888feccd3" target="_top" xlink:title="Populates the children tab with a multimap of children.">
<polygon fill="white" stroke="#666666" points="964.12,-72.51 843.88,-72.51 843.88,-40.51 964.12,-40.51 964.12,-72.51"/>
<text text-anchor="start" x="851.88" y="-59.01" font-family="Helvetica,sans-Serif" font-size="10.00">DataBaseGUI::populate</text>
<text text-anchor="middle" x="904" y="-47.01" font-family="Helvetica,sans-Serif" font-size="10.00">_children_tab</text>
</a>
</g>
</g>
<!-- Node2&#45;&gt;Node3 -->
<g id="edge2_Node000002_Node000003" class="edge">
<title>Node2&#45;&gt;Node3</title>
<g id="a_edge2_Node000002_Node000003"><a xlink:title=" ">
<path fill="none" stroke="#63b8ff" d="M1488.49,-147.28C1416.82,-113.58 1267.99,-49.78 1133.5,-31.51 1078.56,-24.05 1063.81,-24.97 1008.75,-31.51 993.66,-33.3 977.6,-36.51 962.73,-40.04"/>
<polygon fill="#63b8ff" stroke="#63b8ff" points="1486.6,-150.25 1497.13,-151.38 1489.6,-143.93 1486.6,-150.25"/>
</a>
</g>
</g>
<!-- Node4 -->
<g id="Node000004" class="node">
<title>Node4</title>
<g id="a_Node000004"><a xlink:href="class_data_base_g_u_i.html#af346d08370d9e4574980707f61b9c8f7" target="_top" xlink:title="Populates the children tab with a list of children.">
<polygon fill="white" stroke="#666666" points="1441.5,-184.51 1321.25,-184.51 1321.25,-152.51 1441.5,-152.51 1441.5,-184.51"/>
<text text-anchor="start" x="1329.25" y="-171.01" font-family="Helvetica,sans-Serif" font-size="10.00">DataBaseGUI::populate</text>
<text text-anchor="middle" x="1381.38" y="-159.01" font-family="Helvetica,sans-Serif" font-size="10.00">_children_tab</text>
</a>
</g>
</g>
<!-- Node2&#45;&gt;Node4 -->
<g id="edge3_Node000002_Node000004" class="edge">
<title>Node2&#45;&gt;Node4</title>
<g id="a_edge3_Node000002_Node000004"><a xlink:title=" ">
<path fill="none" stroke="#63b8ff" d="M1466.16,-168.51C1458.12,-168.51 1449.93,-168.51 1441.98,-168.51"/>
<polygon fill="#63b8ff" stroke="#63b8ff" points="1465.89,-172.01 1475.89,-168.51 1465.89,-165.01 1465.89,-172.01"/>
</a>
</g>
</g>
<!-- Node5 -->
<g id="Node000005" class="node">
<title>Node5</title>
<g id="a_Node000005"><a xlink:href="class_data_base_g_u_i.html#a2d921da686e76ae195da018bb735a1ae" target="_top" xlink:title="Searches for children based on the provided name and surname.">
<polygon fill="white" stroke="#666666" points="1279.25,-374.51 1175.5,-374.51 1175.5,-342.51 1279.25,-342.51 1279.25,-374.51"/>
<text text-anchor="start" x="1183.5" y="-361.01" font-family="Helvetica,sans-Serif" font-size="10.00">DataBaseGUI::child</text>
<text text-anchor="middle" x="1227.38" y="-349.01" font-family="Helvetica,sans-Serif" font-size="10.00">_search</text>
</a>
</g>
</g>
<!-- Node4&#45;&gt;Node5 -->
<g id="edge4_Node000004_Node000005" class="edge">
<title>Node4&#45;&gt;Node5</title>
<g id="a_edge4_Node000004_Node000005"><a xlink:title=" ">
<path fill="none" stroke="#63b8ff" d="M1360.41,-193.46C1328.83,-232.94 1268.19,-308.74 1241.52,-342.08"/>
<polygon fill="#63b8ff" stroke="#63b8ff" points="1362.96,-195.89 1366.47,-185.89 1357.49,-191.51 1362.96,-195.89"/>
</a>
</g>
</g>
<!-- Node4&#45;&gt;Node11 -->
<g id="edge41_Node000004_Node000011" class="edge">
<title>Node4&#45;&gt;Node11</title>
<g id="a_edge41_Node000004_Node000011"><a xlink:title=" ">
<path fill="none" stroke="#63b8ff" d="M1373.64,-195.88C1361.81,-239.53 1333.81,-325.87 1285.25,-383.51 1154.46,-538.75 1107.99,-636.51 905,-636.51 905,-636.51 905,-636.51 571.75,-636.51 466.17,-636.51 418.7,-665.69 337.25,-598.51 256.32,-531.75 244.24,-389.67 242.44,-349.99"/>
<polygon fill="#63b8ff" stroke="#63b8ff" points="1377.02,-196.78 1376.17,-186.22 1370.25,-195.01 1377.02,-196.78"/>
</a>
</g>
</g>
<!-- Node26 -->
<g id="Node000026" class="node">
<title>Node26</title>
<g id="a_Node000026"><a xlink:href="class_data_base_g_u_i.html#aa684465aa73b5b34bbadd24fc7f2f641" target="_top" xlink:title="Selects the appropriate sorting to use based on child sort index.">
<polygon fill="white" stroke="#666666" points="1285.25,-184.51 1169.5,-184.51 1169.5,-152.51 1285.25,-152.51 1285.25,-184.51"/>
<text text-anchor="start" x="1177.5" y="-171.01" font-family="Helvetica,sans-Serif" font-size="10.00">DataBaseGUI::sort_to</text>
<text text-anchor="middle" x="1227.38" y="-159.01" font-family="Helvetica,sans-Serif" font-size="10.00">_populate_children_tab</text>
</a>
</g>
</g>
<!-- Node4&#45;&gt;Node26 -->
<g id="edge42_Node000004_Node000026" class="edge">
<title>Node4&#45;&gt;Node26</title>
<g id="a_edge42_Node000004_Node000026"><a xlink:title=" ">
<path fill="none" stroke="#63b8ff" d="M1309.83,-168.51C1301.73,-168.51 1293.56,-168.51 1285.67,-168.51"/>
<polygon fill="#63b8ff" stroke="#63b8ff" points="1309.66,-172.01 1319.66,-168.51 1309.66,-165.01 1309.66,-172.01"/>
</a>
</g>
</g>
<!-- Node6 -->
<g id="Node000006" class="node">
<title>Node6</title>
<g id="a_Node000006"><a xlink:href="class_data_base_g_u_i.html#aadb0e7d323a970603312695c0dd9b264" target="_top" xlink:title="Searches for children based on the provided child pointer.">
<polygon fill="white" stroke="#666666" points="1123,-418.51 1019.25,-418.51 1019.25,-386.51 1123,-386.51 1123,-418.51"/>
<text text-anchor="start" x="1027.25" y="-405.01" font-family="Helvetica,sans-Serif" font-size="10.00">DataBaseGUI::child</text>
<text text-anchor="middle" x="1071.12" y="-393.01" font-family="Helvetica,sans-Serif" font-size="10.00">_search_by_pointer</text>
</a>
</g>
</g>
<!-- Node5&#45;&gt;Node6 -->
<g id="edge5_Node000005_Node000006" class="edge">
<title>Node5&#45;&gt;Node6</title>
<g id="a_edge5_Node000005_Node000006"><a xlink:title=" ">
<path fill="none" stroke="#63b8ff" d="M1164.27,-376.23C1150.65,-380.11 1136.39,-384.18 1123.26,-387.92"/>
<polygon fill="#63b8ff" stroke="#63b8ff" points="1164.9,-379.68 1173.56,-373.58 1162.98,-372.95 1164.9,-379.68"/>
</a>
</g>
</g>
<!-- Node5&#45;&gt;Node11 -->
<g id="edge40_Node000005_Node000011" class="edge">
<title>Node5&#45;&gt;Node11</title>
<g id="a_edge40_Node000005_Node000011"><a xlink:title=" ">
<path fill="none" stroke="#63b8ff" d="M1163.94,-358.51C1099.19,-358.51 995,-358.51 905,-358.51 905,-358.51 905,-358.51 735.88,-358.51 558.51,-358.51 511.43,-411.01 337.25,-377.51 310.01,-372.27 280.64,-359.3 261.86,-349.98"/>
<polygon fill="#63b8ff" stroke="#63b8ff" points="1163.65,-362.01 1173.65,-358.51 1163.65,-355.01 1163.65,-362.01"/>
</a>
</g>
</g>
<!-- Node7 -->
<g id="Node000007" class="node">
<title>Node7</title>
<g id="a_Node000007"><a xlink:href="class_data_base_g_u_i.html#aadcf1044a300a89dadd104cfadb9a1b1" target="_top" xlink:title="Views a lesson in the GUI.">
<polygon fill="white" stroke="#666666" points="972.75,-274.51 835.25,-274.51 835.25,-254.51 972.75,-254.51 972.75,-274.51"/>
<text text-anchor="middle" x="904" y="-261.01" font-family="Helvetica,sans-Serif" font-size="10.00">DataBaseGUI::lesson_view</text>
</a>
</g>
</g>
<!-- Node6&#45;&gt;Node7 -->
<g id="edge6_Node000006_Node000007" class="edge">
<title>Node6&#45;&gt;Node7</title>
<g id="a_edge6_Node000006_Node000007"><a xlink:title=" ">
<path fill="none" stroke="#63b8ff" d="M1041.87,-378.89C1005.49,-348.49 943.83,-296.96 917.51,-274.96"/>
<polygon fill="#63b8ff" stroke="#63b8ff" points="1039.46,-381.44 1049.37,-385.17 1043.94,-376.07 1039.46,-381.44"/>
</a>
</g>
</g>
<!-- Node19 -->
<g id="Node000019" class="node">
<title>Node19</title>
<g id="a_Node000019"><a xlink:href="class_data_base_g_u_i.html#a33f2f95926f7b4b05227dcf395e235d3" target="_top" xlink:title="Populates the parent tab with a multimap of parents.">
<polygon fill="white" stroke="#666666" points="464.25,-482.51 344,-482.51 344,-450.51 464.25,-450.51 464.25,-482.51"/>
<text text-anchor="start" x="352" y="-469.01" font-family="Helvetica,sans-Serif" font-size="10.00">DataBaseGUI::populate</text>
<text text-anchor="middle" x="404.12" y="-457.01" font-family="Helvetica,sans-Serif" font-size="10.00">_parent_tab</text>
</a>
</g>
</g>
<!-- Node6&#45;&gt;Node19 -->
<g id="edge25_Node000006_Node000019" class="edge">
<title>Node6&#45;&gt;Node19</title>
<g id="a_edge25_Node000006_Node000019"><a xlink:title=" ">
<path fill="none" stroke="#63b8ff" d="M1007.6,-407.42C903.59,-415.76 688.54,-433.71 507,-453.51 493.26,-455.01 478.51,-456.79 464.61,-458.55"/>
<polygon fill="#63b8ff" stroke="#63b8ff" points="1007.62,-410.93 1017.31,-406.64 1007.06,-403.95 1007.62,-410.93"/>
</a>
</g>
</g>
<!-- Node20 -->
<g id="Node000020" class="node">
<title>Node20</title>
<g id="a_Node000020"><a xlink:href="class_data_base_g_u_i.html#a739b2cf48c0cb6e3cab2da0a7bbd6d6d" target="_top" xlink:title="Populates the parent tab with a list of parents.">
<polygon fill="white" stroke="#666666" points="964.12,-526.51 843.88,-526.51 843.88,-494.51 964.12,-494.51 964.12,-526.51"/>
<text text-anchor="start" x="851.88" y="-513.01" font-family="Helvetica,sans-Serif" font-size="10.00">DataBaseGUI::populate</text>
<text text-anchor="middle" x="904" y="-501.01" font-family="Helvetica,sans-Serif" font-size="10.00">_parent_tab</text>
</a>
</g>
</g>
<!-- Node6&#45;&gt;Node20 -->
<g id="edge26_Node000006_Node000020" class="edge">
<title>Node6&#45;&gt;Node20</title>
<g id="a_edge26_Node000006_Node000020"><a xlink:title=" ">
<path fill="none" stroke="#63b8ff" d="M1035.76,-424.99C1004.22,-445.62 958.24,-475.69 930.04,-494.13"/>
<polygon fill="#63b8ff" stroke="#63b8ff" points="1037.33,-428.14 1043.78,-419.74 1033.49,-422.29 1037.33,-428.14"/>
</a>
</g>
</g>
<!-- Node7&#45;&gt;Node7 -->
<g id="edge7_Node000007_Node000007" class="edge">
<title>Node7&#45;&gt;Node7</title>
<g id="a_edge7_Node000007_Node000007"><a xlink:title=" ">
<path fill="none" stroke="#63b8ff" d="M933.54,-285.95C929.73,-289.81 919.89,-292.51 904,-292.51 874.95,-292.51 866.1,-283.48 877.45,-274.85"/>
<polygon fill="#63b8ff" stroke="#63b8ff" points="936.92,-285.06 930.95,-276.31 930.16,-286.88 936.92,-285.06"/>
</a>
</g>
</g>
<!-- Node8 -->
<g id="Node000008" class="node">
<title>Node8</title>
<g id="a_Node000008"><a xlink:href="class_data_base_g_u_i.html#a74e047889e913eae69ec40ec17f53c9d" target="_top" xlink:title="Populates the lessons tab with a multimap of lessons.">
<polygon fill="white" stroke="#666666" points="301.25,-163.51 181,-163.51 181,-131.51 301.25,-131.51 301.25,-163.51"/>
<text text-anchor="start" x="189" y="-150.01" font-family="Helvetica,sans-Serif" font-size="10.00">DataBaseGUI::populate</text>
<text text-anchor="middle" x="241.12" y="-138.01" font-family="Helvetica,sans-Serif" font-size="10.00">_lesson_tab</text>
</a>
</g>
</g>
<!-- Node7&#45;&gt;Node8 -->
<g id="edge8_Node000007_Node000008" class="edge">
<title>Node7&#45;&gt;Node8</title>
<g id="a_edge8_Node000007_Node000008"><a xlink:title=" ">
<path fill="none" stroke="#63b8ff" d="M842.32,-249.52C839.88,-248.28 837.51,-246.95 835.25,-245.51 814.52,-232.29 820.33,-216.16 799.25,-203.51 671.1,-126.61 619.56,-146.83 471,-130.51 411.91,-124.02 396.46,-125.26 337.25,-130.51 325.64,-131.54 313.32,-133.26 301.53,-135.23"/>
<polygon fill="#63b8ff" stroke="#63b8ff" points="840.75,-252.65 851.32,-253.44 843.55,-246.24 840.75,-252.65"/>
</a>
</g>
</g>
<!-- Node9 -->
<g id="Node000009" class="node">
<title>Node9</title>
<g id="a_Node000009"><a xlink:href="class_data_base_g_u_i.html#aa6b02e4e81b0113fb1c75d7d5ef0be59" target="_top" xlink:title="Populates the lessons tab with a list of lessons.">
<polygon fill="white" stroke="#666666" points="797,-244.51 676.75,-244.51 676.75,-212.51 797,-212.51 797,-244.51"/>
<text text-anchor="start" x="684.75" y="-231.01" font-family="Helvetica,sans-Serif" font-size="10.00">DataBaseGUI::populate</text>
<text text-anchor="middle" x="736.88" y="-219.01" font-family="Helvetica,sans-Serif" font-size="10.00">_lesson_tab</text>
</a>
</g>
</g>
<!-- Node7&#45;&gt;Node9 -->
<g id="edge9_Node000007_Node000009" class="edge">
<title>Node7&#45;&gt;Node9</title>
<g id="a_edge9_Node000007_Node000009"><a xlink:title=" ">
<path fill="none" stroke="#63b8ff" d="M844.36,-251.72C829.07,-248.39 812.59,-244.8 797.27,-241.46"/>
<polygon fill="#63b8ff" stroke="#63b8ff" points="843.24,-255.06 853.76,-253.77 844.74,-248.22 843.24,-255.06"/>
</a>
</g>
</g>
<!-- Node10 -->
<g id="Node000010" class="node">
<title>Node10</title>
<g id="a_Node000010"><a xlink:href="class_data_base_g_u_i.html#a55b3c6d3607f17f55d4c321e97fdce7f" target="_top" xlink:title="Searches for lessons based on the provided child name and surname.">
<polygon fill="white" stroke="#666666" points="628.75,-242.51 516.75,-242.51 516.75,-210.51 628.75,-210.51 628.75,-242.51"/>
<text text-anchor="start" x="524.75" y="-229.01" font-family="Helvetica,sans-Serif" font-size="10.00">DataBaseGUI::lesson</text>
<text text-anchor="middle" x="572.75" y="-217.01" font-family="Helvetica,sans-Serif" font-size="10.00">_search</text>
</a>
</g>
</g>
<!-- Node9&#45;&gt;Node10 -->
<g id="edge10_Node000009_Node000010" class="edge">
<title>Node9&#45;&gt;Node10</title>
<g id="a_edge10_Node000009_Node000010"><a xlink:title=" ">
<path fill="none" stroke="#63b8ff" d="M665.03,-227.64C653.02,-227.49 640.7,-227.33 629.15,-227.19"/>
<polygon fill="#63b8ff" stroke="#63b8ff" points="664.87,-231.13 674.91,-227.76 664.96,-224.13 664.87,-231.13"/>
</a>
</g>
</g>
<!-- Node14 -->
<g id="Node000014" class="node">
<title>Node14</title>
<g id="a_Node000014"><a xlink:href="class_data_base_g_u_i.html#a1ad152b7becf3e0051cdd5dbae6d4abc" target="_top" xlink:title="Selects the appropriate sorting to use based on lesson sort index.">
<polygon fill="white" stroke="#666666" points="629.5,-292.51 516,-292.51 516,-260.51 629.5,-260.51 629.5,-292.51"/>
<text text-anchor="start" x="524" y="-279.01" font-family="Helvetica,sans-Serif" font-size="10.00">DataBaseGUI::sort_to</text>
<text text-anchor="middle" x="572.75" y="-267.01" font-family="Helvetica,sans-Serif" font-size="10.00">_populate_lesson_tab</text>
</a>
</g>
</g>
<!-- Node9&#45;&gt;Node14 -->
<g id="edge14_Node000009_Node000014" class="edge">
<title>Node9&#45;&gt;Node14</title>
<g id="a_edge14_Node000009_Node000014"><a xlink:title=" ">
<path fill="none" stroke="#63b8ff" d="M669.5,-248.16C656.18,-252.1 642.31,-256.21 629.39,-260.04"/>
<polygon fill="#63b8ff" stroke="#63b8ff" points="670.49,-251.52 679.08,-245.32 668.5,-244.81 670.49,-251.52"/>
</a>
</g>
</g>
<!-- Node10&#45;&gt;Node11 -->
<g id="edge11_Node000010_Node000011" class="edge">
<title>Node10&#45;&gt;Node11</title>
<g id="a_edge11_Node000010_Node000011"><a xlink:title=" ">
<path fill="none" stroke="#63b8ff" d="M505.26,-222.66C456.65,-222.4 390.22,-227.45 337.25,-251.51 297.92,-269.37 264.08,-309.94 249.61,-329.11"/>
<polygon fill="#63b8ff" stroke="#63b8ff" points="505.03,-226.16 515.08,-222.8 505.13,-219.16 505.03,-226.16"/>
</a>
</g>
</g>
<!-- Node12 -->
<g id="Node000012" class="node">
<title>Node12</title>
<g id="a_Node000012"><a xlink:href="class_data_base_g_u_i.html#a2c83afe3a30fb5166d275d9a74d33196" target="_top" xlink:title="Default constructor.">
<polygon fill="white" stroke="#666666" points="145,-368.51 0,-368.51 0,-348.51 145,-348.51 145,-368.51"/>
<text text-anchor="middle" x="72.5" y="-355.01" font-family="Helvetica,sans-Serif" font-size="10.00">DataBaseGUI::DataBaseGUI</text>
</a>
</g>
</g>
<!-- Node11&#45;&gt;Node12 -->
<g id="edge12_Node000011_Node000012" class="edge">
<title>Node11&#45;&gt;Node12</title>
<g id="a_edge12_Node000011_Node000012"><a xlink:title=" ">
<path fill="none" stroke="#63b8ff" d="M175.53,-346.87C165.64,-348 155.37,-349.17 145.32,-350.32"/>
<polygon fill="#63b8ff" stroke="#63b8ff" points="175.9,-350.36 185.44,-345.74 175.11,-343.4 175.9,-350.36"/>
</a>
</g>
</g>
<!-- Node13 -->
<g id="Node000013" class="node">
<title>Node13</title>
<g id="a_Node000013"><a xlink:href="class_data_base_g_u_i.html#aba10d1d8e9fb151632ff34de418cee82" target="_top" xlink:title="Constructs a DataBaseGUI object.">
<polygon fill="white" stroke="#666666" points="145,-330.51 0,-330.51 0,-310.51 145,-310.51 145,-330.51"/>
<text text-anchor="middle" x="72.5" y="-317.01" font-family="Helvetica,sans-Serif" font-size="10.00">DataBaseGUI::DataBaseGUI</text>
</a>
</g>
</g>
<!-- Node11&#45;&gt;Node13 -->
<g id="edge13_Node000011_Node000013" class="edge">
<title>Node11&#45;&gt;Node13</title>
<g id="a_edge13_Node000011_Node000013"><a xlink:title=" ">
<path fill="none" stroke="#63b8ff" d="M175.53,-332.14C165.64,-331.02 155.37,-329.84 145.32,-328.7"/>
<polygon fill="#63b8ff" stroke="#63b8ff" points="175.11,-335.62 185.44,-333.27 175.9,-328.66 175.11,-335.62"/>
</a>
</g>
</g>
<!-- Node14&#45;&gt;Node7 -->
<g id="edge22_Node000014_Node000007" class="edge">
<title>Node14&#45;&gt;Node7</title>
<g id="a_edge22_Node000014_Node000007"><a xlink:title=" ">
<path fill="none" stroke="#63b8ff" d="M641.18,-274.05C697.7,-271.99 778.04,-269.06 834.78,-267"/>
<polygon fill="#63b8ff" stroke="#63b8ff" points="641.23,-270.55 631.37,-274.41 641.49,-277.54 641.23,-270.55"/>
</a>
</g>
</g>
<!-- Node15 -->
<g id="Node000015" class="node">
<title>Node15</title>
<g id="a_Node000015"><a xlink:href="class_data_base_g_u_i.html#a778bdaec7f9281df4c0ead66c9dcffd2" target="_top" xlink:title="Adds a new lesson to the database.">
<polygon fill="white" stroke="#666666" points="470.62,-330.51 337.62,-330.51 337.62,-310.51 470.62,-310.51 470.62,-330.51"/>
<text text-anchor="middle" x="404.12" y="-317.01" font-family="Helvetica,sans-Serif" font-size="10.00">DataBaseGUI::lesson_add</text>
</a>
</g>
</g>
<!-- Node14&#45;&gt;Node15 -->
<g id="edge15_Node000014_Node000015" class="edge">
<title>Node14&#45;&gt;Node15</title>
<g id="a_edge15_Node000014_Node000015"><a xlink:title=" ">
<path fill="none" stroke="#63b8ff" d="M504.7,-294.22C484.4,-299.57 462.77,-305.29 444.87,-310.01"/>
<polygon fill="#63b8ff" stroke="#63b8ff" points="505.56,-297.61 514.34,-291.67 503.78,-290.84 505.56,-297.61"/>
</a>
</g>
</g>
<!-- Node16 -->
<g id="Node000016" class="node">
<title>Node16</title>
<g id="a_Node000016"><a xlink:href="class_data_base_g_u_i.html#a66a3e89a9852de3522d98f2c1f8cdeed" target="_top" xlink:title="Removes a lesson from the database.">
<polygon fill="white" stroke="#666666" points="460.12,-204.51 348.12,-204.51 348.12,-172.51 460.12,-172.51 460.12,-204.51"/>
<text text-anchor="start" x="356.12" y="-191.01" font-family="Helvetica,sans-Serif" font-size="10.00">DataBaseGUI::lesson</text>
<text text-anchor="middle" x="404.12" y="-179.01" font-family="Helvetica,sans-Serif" font-size="10.00">_remove</text>
</a>
</g>
</g>
<!-- Node14&#45;&gt;Node16 -->
<g id="edge17_Node000014_Node000016" class="edge">
<title>Node14&#45;&gt;Node16</title>
<g id="a_edge17_Node000014_Node000016"><a xlink:title=" ">
<path fill="none" stroke="#63b8ff" d="M515.45,-255.51C512.57,-254.21 509.74,-252.87 507,-251.51 479.07,-237.63 448.89,-218.39 428.69,-204.83"/>
<polygon fill="#63b8ff" stroke="#63b8ff" points="514.05,-258.72 524.62,-259.47 516.83,-252.29 514.05,-258.72"/>
</a>
</g>
</g>
<!-- Node17 -->
<g id="Node000017" class="node">
<title>Node17</title>
<g id="a_Node000017"><a xlink:href="class_data_base_g_u_i.html#a0478b87f545d97b9e3ef55858242878b" target="_top" xlink:title="Changes the sorting method for lessons.">
<polygon fill="white" stroke="#666666" points="460.12,-292.51 348.12,-292.51 348.12,-260.51 460.12,-260.51 460.12,-292.51"/>
<text text-anchor="start" x="356.12" y="-279.01" font-family="Helvetica,sans-Serif" font-size="10.00">DataBaseGUI::lesson</text>
<text text-anchor="middle" x="404.12" y="-267.01" font-family="Helvetica,sans-Serif" font-size="10.00">_sort_change</text>
</a>
</g>
</g>
<!-- Node14&#45;&gt;Node17 -->
<g id="edge20_Node000014_Node000017" class="edge">
<title>Node14&#45;&gt;Node17</title>
<g id="a_edge20_Node000014_Node000017"><a xlink:title=" ">
<path fill="none" stroke="#63b8ff" d="M504.71,-276.51C489.99,-276.51 474.56,-276.51 460.36,-276.51"/>
<polygon fill="#63b8ff" stroke="#63b8ff" points="504.29,-280.01 514.29,-276.51 504.29,-273.01 504.29,-280.01"/>
</a>
</g>
</g>
<!-- Node18 -->
<g id="Node000018" class="node">
<title>Node18</title>
<g id="a_Node000018"><a xlink:href="class_data_base_g_u_i.html#a438b5070d6a58ffa5e884d18740852c6" target="_top" xlink:title="Handles tab change events.">
<polygon fill="white" stroke="#666666" points="471,-368.51 337.25,-368.51 337.25,-348.51 471,-348.51 471,-368.51"/>
<text text-anchor="middle" x="404.12" y="-355.01" font-family="Helvetica,sans-Serif" font-size="10.00">DataBaseGUI::tab_change</text>
</a>
</g>
</g>
<!-- Node14&#45;&gt;Node18 -->
<g id="edge23_Node000014_Node000018" class="edge">
<title>Node14&#45;&gt;Node18</title>
<g id="a_edge23_Node000014_Node000018"><a xlink:title=" ">
<path fill="none" stroke="#63b8ff" d="M521.19,-298.05C516.28,-300.7 511.47,-303.53 507,-306.51 488.94,-318.55 489.93,-328.89 471,-339.51 464.98,-342.89 458.31,-345.71 451.58,-348.06"/>
<polygon fill="#63b8ff" stroke="#63b8ff" points="522.66,-301.24 529.98,-293.58 519.48,-295 522.66,-301.24"/>
</a>
</g>
</g>
<!-- Node15&#45;&gt;Node11 -->
<g id="edge16_Node000015_Node000011" class="edge">
<title>Node15&#45;&gt;Node11</title>
<g id="a_edge16_Node000015_Node000011"><a xlink:title=" ">
<path fill="none" stroke="#63b8ff" d="M325.87,-329.63C315.39,-330.86 304.84,-332.11 294.93,-333.28"/>
<polygon fill="#63b8ff" stroke="#63b8ff" points="326.15,-333.12 335.67,-328.47 325.33,-326.17 326.15,-333.12"/>
</a>
</g>
</g>
<!-- Node16&#45;&gt;Node8 -->
<g id="edge18_Node000016_Node000008" class="edge">
<title>Node16&#45;&gt;Node8</title>
<g id="a_edge18_Node000016_Node000008"><a xlink:title=" ">
<path fill="none" stroke="#63b8ff" d="M336.69,-171.59C325.02,-168.62 312.94,-165.54 301.48,-162.62"/>
<polygon fill="#63b8ff" stroke="#63b8ff" points="335.7,-174.95 346.25,-174.03 337.42,-168.17 335.7,-174.95"/>
</a>
</g>
</g>
<!-- Node16&#45;&gt;Node9 -->
<g id="edge19_Node000016_Node000009" class="edge">
<title>Node16&#45;&gt;Node9</title>
<g id="a_edge19_Node000016_Node000009"><a xlink:title=" ">
<path fill="none" stroke="#63b8ff" d="M471.43,-188.43C518.36,-189.28 582.64,-192.32 638.5,-201.51 653.65,-204 669.82,-207.94 684.54,-212.05"/>
<polygon fill="#63b8ff" stroke="#63b8ff" points="471.75,-184.93 461.7,-188.28 471.65,-191.93 471.75,-184.93"/>
</a>
</g>
</g>
<!-- Node17&#45;&gt;Node11 -->
<g id="edge21_Node000017_Node000011" class="edge">
<title>Node17&#45;&gt;Node11</title>
<g id="a_edge21_Node000017_Node000011"><a xlink:title=" ">
<path fill="none" stroke="#63b8ff" d="M348.98,-296.97C345.01,-298.5 341.06,-300.02 337.25,-301.51 313.72,-310.67 287.02,-321.36 267.92,-329.07"/>
<polygon fill="#63b8ff" stroke="#63b8ff" points="350,-300.33 358.09,-293.48 347.5,-293.79 350,-300.33"/>
</a>
</g>
</g>
<!-- Node18&#45;&gt;Node11 -->
<g id="edge24_Node000018_Node000011" class="edge">
<title>Node18&#45;&gt;Node11</title>
<g id="a_edge24_Node000018_Node000011"><a xlink:title=" ">
<path fill="none" stroke="#63b8ff" d="M325.87,-349.39C315.39,-348.16 304.84,-346.91 294.93,-345.74"/>
<polygon fill="#63b8ff" stroke="#63b8ff" points="325.33,-352.85 335.67,-350.55 326.15,-345.9 325.33,-352.85"/>
</a>
</g>
</g>
<!-- Node20&#45;&gt;Node1 -->
<g id="edge27_Node000020_Node000001" class="edge">
<title>Node20&#45;&gt;Node1</title>
<g id="a_edge27_Node000020_Node000001"><a xlink:title=" ">
<path fill="none" stroke="#63b8ff" d="M950.76,-531.37C1012.14,-557.39 1125.14,-598.51 1226.38,-598.51 1382.38,-598.51 1382.38,-598.51 1382.38,-598.51 1466.62,-598.51 1564.35,-598.51 1623.72,-598.51"/>
<polygon fill="#63b8ff" stroke="#63b8ff" points="952.24,-528.19 941.67,-527.45 949.47,-534.62 952.24,-528.19"/>
</a>
</g>
</g>
<!-- Node21 -->
<g id="Node000021" class="node">
<title>Node21</title>
<g id="a_Node000021"><a xlink:href="class_data_base_g_u_i.html#a625b5e2018395a458ff517bbf364e1bf" target="_top" xlink:title="Selects the appropriate sorting to use based on parent sort index.">
<polygon fill="white" stroke="#666666" points="793.62,-526.51 680.12,-526.51 680.12,-494.51 793.62,-494.51 793.62,-526.51"/>
<text text-anchor="start" x="688.12" y="-513.01" font-family="Helvetica,sans-Serif" font-size="10.00">DataBaseGUI::sort_to</text>
<text text-anchor="middle" x="736.88" y="-501.01" font-family="Helvetica,sans-Serif" font-size="10.00">_populate_parent_tab</text>
</a>
</g>
</g>
<!-- Node20&#45;&gt;Node21 -->
<g id="edge28_Node000020_Node000021" class="edge">
<title>Node20&#45;&gt;Node21</title>
<g id="a_edge28_Node000020_Node000021"><a xlink:title=" ">
<path fill="none" stroke="#63b8ff" d="M831.91,-510.51C819.27,-510.51 806.26,-510.51 794.1,-510.51"/>
<polygon fill="#63b8ff" stroke="#63b8ff" points="831.87,-514.01 841.87,-510.51 831.87,-507.01 831.87,-514.01"/>
</a>
</g>
</g>
<!-- Node21&#45;&gt;Node18 -->
<g id="edge39_Node000021_Node000018" class="edge">
<title>Node21&#45;&gt;Node18</title>
<g id="a_edge39_Node000021_Node000018"><a xlink:title=" ">
<path fill="none" stroke="#63b8ff" d="M700.78,-488.32C682.55,-477.22 659.7,-463.96 638.5,-453.51 567.09,-418.3 479.26,-385.14 434.45,-368.91"/>
<polygon fill="#63b8ff" stroke="#63b8ff" points="698.75,-491.19 709.1,-493.44 702.42,-485.22 698.75,-491.19"/>
</a>
</g>
</g>
<!-- Node22 -->
<g id="Node000022" class="node">
<title>Node22</title>
<g id="a_Node000022"><a xlink:href="class_data_base_g_u_i.html#a336fa47d9a9e56d585d82f53d33e8593" target="_top" xlink:title="Adds a new parent to the database.">
<polygon fill="white" stroke="#666666" points="638.5,-520.51 507,-520.51 507,-500.51 638.5,-500.51 638.5,-520.51"/>
<text text-anchor="middle" x="572.75" y="-507.01" font-family="Helvetica,sans-Serif" font-size="10.00">DataBaseGUI::parent_add</text>
</a>
</g>
</g>
<!-- Node21&#45;&gt;Node22 -->
<g id="edge29_Node000021_Node000022" class="edge">
<title>Node21&#45;&gt;Node22</title>
<g id="a_edge29_Node000021_Node000022"><a xlink:title=" ">
<path fill="none" stroke="#63b8ff" d="M668.32,-510.51C658.55,-510.51 648.52,-510.51 638.8,-510.51"/>
<polygon fill="#63b8ff" stroke="#63b8ff" points="668.11,-514.01 678.11,-510.51 668.11,-507.01 668.11,-514.01"/>
</a>
</g>
</g>
<!-- Node23 -->
<g id="Node000023" class="node">
<title>Node23</title>
<g id="a_Node000023"><a xlink:href="class_data_base_g_u_i.html#a5b049fb9e0e5d78c4c2e81e569b471f9" target="_top" xlink:title="Edits an existing parent in the database.">
<polygon fill="white" stroke="#666666" points="638.5,-482.51 507,-482.51 507,-462.51 638.5,-462.51 638.5,-482.51"/>
<text text-anchor="middle" x="572.75" y="-469.01" font-family="Helvetica,sans-Serif" font-size="10.00">DataBaseGUI::parent_edit</text>
</a>
</g>
</g>
<!-- Node21&#45;&gt;Node23 -->
<g id="edge31_Node000021_Node000023" class="edge">
<title>Node21&#45;&gt;Node23</title>
<g id="a_edge31_Node000021_Node000023"><a xlink:title=" ">
<path fill="none" stroke="#63b8ff" d="M668.65,-494.75C651.7,-490.78 633.93,-486.61 618.41,-482.98"/>
<polygon fill="#63b8ff" stroke="#63b8ff" points="667.62,-498.11 678.15,-496.98 669.22,-491.29 667.62,-498.11"/>
</a>
</g>
</g>
<!-- Node24 -->
<g id="Node000024" class="node">
<title>Node24</title>
<g id="a_Node000024"><a xlink:href="class_data_base_g_u_i.html#ad8a42f24cdb603ba85c1cdd4ea2e73a4" target="_top" xlink:title="Removes a parent from the database.">
<polygon fill="white" stroke="#666666" points="628,-570.51 517.5,-570.51 517.5,-538.51 628,-538.51 628,-570.51"/>
<text text-anchor="start" x="525.5" y="-557.01" font-family="Helvetica,sans-Serif" font-size="10.00">DataBaseGUI::parent</text>
<text text-anchor="middle" x="572.75" y="-545.01" font-family="Helvetica,sans-Serif" font-size="10.00">_remove</text>
</a>
</g>
</g>
<!-- Node21&#45;&gt;Node24 -->
<g id="edge34_Node000021_Node000024" class="edge">
<title>Node21&#45;&gt;Node24</title>
<g id="a_edge34_Node000021_Node000024"><a xlink:title=" ">
<path fill="none" stroke="#63b8ff" d="M668.51,-528.79C655.1,-532.43 641.18,-536.21 628.26,-539.72"/>
<polygon fill="#63b8ff" stroke="#63b8ff" points="669.43,-532.17 678.17,-526.17 667.6,-525.41 669.43,-532.17"/>
</a>
</g>
</g>
<!-- Node25 -->
<g id="Node000025" class="node">
<title>Node25</title>
<g id="a_Node000025"><a xlink:href="class_data_base_g_u_i.html#a783bdf1d65998f887dd6445741450480" target="_top" xlink:title="Changes the sorting method for parents.">
<polygon fill="white" stroke="#666666" points="459.38,-589.51 348.88,-589.51 348.88,-557.51 459.38,-557.51 459.38,-589.51"/>
<text text-anchor="start" x="356.88" y="-576.01" font-family="Helvetica,sans-Serif" font-size="10.00">DataBaseGUI::parent</text>
<text text-anchor="middle" x="404.12" y="-564.01" font-family="Helvetica,sans-Serif" font-size="10.00">_sort_change</text>
</a>
</g>
</g>
<!-- Node21&#45;&gt;Node25 -->
<g id="edge37_Node000021_Node000025" class="edge">
<title>Node21&#45;&gt;Node25</title>
<g id="a_edge37_Node000021_Node000025"><a xlink:title=" ">
<path fill="none" stroke="#63b8ff" d="M711.41,-534.43C693.03,-550.63 666.33,-570.65 638.5,-579.51 579.6,-598.26 508.06,-592.54 459.84,-584.85"/>
<polygon fill="#63b8ff" stroke="#63b8ff" points="713.58,-537.19 718.61,-527.86 708.86,-532.01 713.58,-537.19"/>
</a>
</g>
</g>
<!-- Node22&#45;&gt;Node11 -->
<g id="edge30_Node000022_Node000011" class="edge">
<title>Node22&#45;&gt;Node11</title>
<g id="a_edge30_Node000022_Node000011"><a xlink:title=" ">
<path fill="none" stroke="#63b8ff" d="M495.11,-521.02C446.51,-523.84 384.18,-520.04 337.25,-491.51 281.92,-457.87 253.7,-378.55 245.07,-349.99"/>
<polygon fill="#63b8ff" stroke="#63b8ff" points="495.28,-524.52 505.01,-520.33 494.79,-517.53 495.28,-524.52"/>
</a>
</g>
</g>
<!-- Node23&#45;&gt;Node19 -->
<g id="edge32_Node000023_Node000019" class="edge">
<title>Node23&#45;&gt;Node19</title>
<g id="a_edge32_Node000023_Node000019"><a xlink:title=" ">
<path fill="none" stroke="#63b8ff" d="M495.66,-469.77C485.27,-469.39 474.72,-469.02 464.68,-468.65"/>
<polygon fill="#63b8ff" stroke="#63b8ff" points="495.22,-473.26 505.34,-470.12 495.47,-466.26 495.22,-473.26"/>
</a>
</g>
</g>
<!-- Node23&#45;&gt;Node20 -->
<g id="edge33_Node000023_Node000020" class="edge">
<title>Node23&#45;&gt;Node20</title>
<g id="a_edge33_Node000023_Node000020"><a xlink:title=" ">
<path fill="none" stroke="#63b8ff" d="M650.15,-473.52C693.98,-474.95 749.93,-478.21 799.25,-485.51 813.73,-487.65 829.15,-490.85 843.56,-494.26"/>
<polygon fill="#63b8ff" stroke="#63b8ff" points="650.32,-470.03 640.22,-473.23 650.11,-477.02 650.32,-470.03"/>
</a>
</g>
</g>
<!-- Node24&#45;&gt;Node19 -->
<g id="edge35_Node000024_Node000019" class="edge">
<title>Node24&#45;&gt;Node19</title>
<g id="a_edge35_Node000024_Node000019"><a xlink:title=" ">
<path fill="none" stroke="#63b8ff" d="M515.45,-533.51C512.57,-532.21 509.74,-530.87 507,-529.51 479.07,-515.63 448.89,-496.39 428.69,-482.83"/>
<polygon fill="#63b8ff" stroke="#63b8ff" points="514.05,-536.72 524.62,-537.47 516.83,-530.29 514.05,-536.72"/>
</a>
</g>
</g>
<!-- Node24&#45;&gt;Node20 -->
<g id="edge36_Node000024_Node000020" class="edge">
<title>Node24&#45;&gt;Node20</title>
<g id="a_edge36_Node000024_Node000020"><a xlink:title=" ">
<path fill="none" stroke="#63b8ff" d="M639.66,-551.61C684.8,-548.97 745.91,-544.13 799.25,-535.51 813.7,-533.17 829.11,-529.9 843.51,-526.49"/>
<polygon fill="#63b8ff" stroke="#63b8ff" points="639.55,-548.11 629.77,-552.16 639.95,-555.1 639.55,-548.11"/>
</a>
</g>
</g>
<!-- Node25&#45;&gt;Node11 -->
<g id="edge38_Node000025_Node000011" class="edge">
<title>Node25&#45;&gt;Node11</title>
<g id="a_edge38_Node000025_Node000011"><a xlink:title=" ">
<path fill="none" stroke="#63b8ff" d="M366.27,-550.66C356.05,-543.17 345.51,-534.25 337.25,-524.51 288.21,-466.65 255.62,-379.23 245.49,-349.68"/>
<polygon fill="#63b8ff" stroke="#63b8ff" points="364.05,-553.38 374.25,-556.24 368.06,-547.64 364.05,-553.38"/>
</a>
</g>
</g>
<!-- Node26&#45;&gt;Node18 -->
<g id="edge55_Node000026_Node000018" class="edge">
<title>Node26&#45;&gt;Node18</title>
<g id="a_edge55_Node000026_Node000018"><a xlink:title=" ">
<path fill="none" stroke="#63b8ff" d="M1198.75,-191.96C1145.59,-234.61 1023.78,-320.51 905,-320.51 905,-320.51 905,-320.51 735.88,-320.51 639.06,-320.51 527.34,-336.78 461.67,-348.02"/>
<polygon fill="#63b8ff" stroke="#63b8ff" points="1200.85,-194.76 1206.39,-185.73 1196.43,-189.34 1200.85,-194.76"/>
</a>
</g>
</g>
<!-- Node27 -->
<g id="Node000027" class="node">
<title>Node27</title>
<g id="a_Node000027"><a xlink:href="class_data_base_g_u_i.html#a00f9044d3b8dd9c5dada244dac1b0df6" target="_top" xlink:title="Adds a new child to the database.">
<polygon fill="white" stroke="#666666" points="799.25,-28.51 674.5,-28.51 674.5,-8.51 799.25,-8.51 799.25,-28.51"/>
<text text-anchor="middle" x="736.88" y="-15.01" font-family="Helvetica,sans-Serif" font-size="10.00">DataBaseGUI::child_add</text>
</a>
</g>
</g>
<!-- Node26&#45;&gt;Node27 -->
<g id="edge43_Node000026_Node000027" class="edge">
<title>Node26&#45;&gt;Node27</title>
<g id="a_edge43_Node000026_Node000027"><a xlink:title=" ">
<path fill="none" stroke="#63b8ff" d="M1157.8,-166.65C1075.5,-161.55 935.99,-143.54 835.25,-81.51 813.74,-68.26 820.21,-51.62 799.25,-37.51 794.16,-34.08 788.43,-31.25 782.56,-28.92"/>
<polygon fill="#63b8ff" stroke="#63b8ff" points="1157.58,-170.14 1167.76,-167.22 1157.98,-163.16 1157.58,-170.14"/>
</a>
</g>
</g>
<!-- Node28 -->
<g id="Node000028" class="node">
<title>Node28</title>
<g id="a_Node000028"><a xlink:href="class_data_base_g_u_i.html#acb6c6b292e58d0ead30682f7f5705244" target="_top" xlink:title="Edits an existing child in the database.">
<polygon fill="white" stroke="#666666" points="1133.5,-110.51 1008.75,-110.51 1008.75,-90.51 1133.5,-90.51 1133.5,-110.51"/>
<text text-anchor="middle" x="1071.12" y="-97.01" font-family="Helvetica,sans-Serif" font-size="10.00">DataBaseGUI::child_edit</text>
</a>
</g>
</g>
<!-- Node26&#45;&gt;Node28 -->
<g id="edge45_Node000026_Node000028" class="edge">
<title>Node26&#45;&gt;Node28</title>
<g id="a_edge45_Node000026_Node000028"><a xlink:title=" ">
<path fill="none" stroke="#63b8ff" d="M1182.78,-147.09C1167.32,-139.7 1149.74,-131.52 1133.5,-124.51 1122.68,-119.84 1110.63,-115.04 1100.1,-110.97"/>
<polygon fill="#63b8ff" stroke="#63b8ff" points="1181.21,-150.22 1191.74,-151.4 1184.24,-143.91 1181.21,-150.22"/>
</a>
</g>
</g>
<!-- Node29 -->
<g id="Node000029" class="node">
<title>Node29</title>
<g id="a_Node000029"><a xlink:href="class_data_base_g_u_i.html#ae3a08843db874e51a7cea32fa8937ca5" target="_top" xlink:title="Removes a child from the database.">
<polygon fill="white" stroke="#666666" points="1123,-72.51 1019.25,-72.51 1019.25,-40.51 1123,-40.51 1123,-72.51"/>
<text text-anchor="start" x="1027.25" y="-59.01" font-family="Helvetica,sans-Serif" font-size="10.00">DataBaseGUI::child</text>
<text text-anchor="middle" x="1071.12" y="-47.01" font-family="Helvetica,sans-Serif" font-size="10.00">_remove</text>
</a>
</g>
</g>
<!-- Node26&#45;&gt;Node29 -->
<g id="edge48_Node000026_Node000029" class="edge">
<title>Node26&#45;&gt;Node29</title>
<g id="a_edge48_Node000026_Node000029"><a xlink:title=" ">
<path fill="none" stroke="#63b8ff" d="M1204.67,-143.72C1187.01,-124.72 1160.64,-98.9 1133.5,-81.51 1128.66,-78.41 1123.36,-75.56 1117.98,-72.99"/>
<polygon fill="#63b8ff" stroke="#63b8ff" points="1202.04,-146.02 1211.36,-151.05 1207.21,-141.31 1202.04,-146.02"/>
</a>
</g>
</g>
<!-- Node30 -->
<g id="Node000030" class="node">
<title>Node30</title>
<g id="a_Node000030"><a xlink:href="class_data_base_g_u_i.html#a2e6d3629f679c153cdd21b683ce794a1" target="_top" xlink:title="Changes the sorting method for children.">
<polygon fill="white" stroke="#666666" points="955.88,-236.51 852.12,-236.51 852.12,-204.51 955.88,-204.51 955.88,-236.51"/>
<text text-anchor="start" x="860.12" y="-223.01" font-family="Helvetica,sans-Serif" font-size="10.00">DataBaseGUI::child</text>
<text text-anchor="middle" x="904" y="-211.01" font-family="Helvetica,sans-Serif" font-size="10.00">_sort_change</text>
</a>
</g>
</g>
<!-- Node26&#45;&gt;Node30 -->
<g id="edge51_Node000026_Node000030" class="edge">
<title>Node26&#45;&gt;Node30</title>
<g id="a_edge51_Node000026_Node000030"><a xlink:title=" ">
<path fill="none" stroke="#63b8ff" d="M1157.97,-185.54C1149.75,-187.35 1141.46,-189.05 1133.5,-190.51 1072.9,-201.64 1002.52,-210.23 956.06,-215.32"/>
<polygon fill="#63b8ff" stroke="#63b8ff" points="1158.63,-188.98 1167.62,-183.37 1157.1,-182.15 1158.63,-188.98"/>
</a>
</g>
</g>
<!-- Node31 -->
<g id="Node000031" class="node">
<title>Node31</title>
<g id="a_Node000031"><a xlink:href="class_data_base_g_u_i.html#a20d1ece0affaa1f5b6876ee072dd2ab1" target="_top" xlink:title="Imports a database from a file.">
<polygon fill="white" stroke="#666666" points="792.12,-78.51 681.62,-78.51 681.62,-46.51 792.12,-46.51 792.12,-78.51"/>
<text text-anchor="start" x="689.62" y="-65.01" font-family="Helvetica,sans-Serif" font-size="10.00">DataBaseGUI::import</text>
<text text-anchor="middle" x="736.88" y="-53.01" font-family="Helvetica,sans-Serif" font-size="10.00">_database</text>
</a>
</g>
</g>
<!-- Node26&#45;&gt;Node31 -->
<g id="edge53_Node000026_Node000031" class="edge">
<title>Node26&#45;&gt;Node31</title>
<g id="a_edge53_Node000026_Node000031"><a xlink:title=" ">
<path fill="none" stroke="#63b8ff" d="M1157.92,-173.34C1060.53,-178.94 887.95,-183.79 835.25,-152.51 808.51,-136.64 822.16,-113.54 799.25,-92.51 793.57,-87.3 786.82,-82.8 779.9,-78.98"/>
<polygon fill="#63b8ff" stroke="#63b8ff" points="1157.83,-176.85 1167.61,-172.76 1157.42,-169.86 1157.83,-176.85"/>
</a>
</g>
</g>
<!-- Node27&#45;&gt;Node11 -->
<g id="edge44_Node000027_Node000011" class="edge">
<title>Node27&#45;&gt;Node11</title>
<g id="a_edge44_Node000027_Node000011"><a xlink:title=" ">
<path fill="none" stroke="#63b8ff" d="M667.56,-6.5C580.81,4.65 431.15,9.67 337.25,-66.51 298.61,-97.86 317.55,-125.5 301.25,-172.51 280.59,-232.08 255.1,-303.33 245.77,-329.36"/>
<polygon fill="#63b8ff" stroke="#63b8ff" points="666.98,-9.96 677.36,-7.83 667.92,-3.02 666.98,-9.96"/>
</a>
</g>
</g>
<!-- Node28&#45;&gt;Node3 -->
<g id="edge46_Node000028_Node000003" class="edge">
<title>Node28&#45;&gt;Node3</title>
<g id="a_edge46_Node000028_Node000003"><a xlink:title=" ">
<path fill="none" stroke="#63b8ff" d="M1019.89,-87.12C1002.42,-82.47 982.67,-77.21 964.53,-72.37"/>
<polygon fill="#63b8ff" stroke="#63b8ff" points="1018.97,-90.5 1029.53,-89.69 1020.77,-83.74 1018.97,-90.5"/>
</a>
</g>
</g>
<!-- Node28&#45;&gt;Node4 -->
<g id="edge47_Node000028_Node000004" class="edge">
<title>Node28&#45;&gt;Node4</title>
<g id="a_edge47_Node000028_Node000004"><a xlink:title=" ">
<path fill="none" stroke="#63b8ff" d="M1139.62,-113.09C1181.65,-121.18 1236.75,-132.25 1285.25,-143.51 1296.81,-146.19 1309.1,-149.26 1320.88,-152.31"/>
<polygon fill="#63b8ff" stroke="#63b8ff" points="1140.37,-109.67 1129.89,-111.23 1139.06,-116.55 1140.37,-109.67"/>
</a>
</g>
</g>
<!-- Node29&#45;&gt;Node3 -->
<g id="edge49_Node000029_Node000003" class="edge">
<title>Node29&#45;&gt;Node3</title>
<g id="a_edge49_Node000029_Node000003"><a xlink:title=" ">
<path fill="none" stroke="#63b8ff" d="M1007.63,-56.51C993.46,-56.51 978.44,-56.51 964.4,-56.51"/>
<polygon fill="#63b8ff" stroke="#63b8ff" points="1007.27,-60.01 1017.27,-56.51 1007.27,-53.01 1007.27,-60.01"/>
</a>
</g>
</g>
<!-- Node29&#45;&gt;Node4 -->
<g id="edge50_Node000029_Node000004" class="edge">
<title>Node29&#45;&gt;Node4</title>
<g id="a_edge50_Node000029_Node000004"><a xlink:title=" ">
<path fill="none" stroke="#63b8ff" d="M1134.47,-69.13C1177.7,-78.93 1236.11,-94.25 1285.25,-114.51 1310.18,-124.79 1336.72,-140.28 1355.42,-152.04"/>
<polygon fill="#63b8ff" stroke="#63b8ff" points="1135.26,-65.72 1124.73,-66.97 1133.74,-72.56 1135.26,-65.72"/>
</a>
</g>
</g>
<!-- Node30&#45;&gt;Node11 -->
<g id="edge52_Node000030_Node000011" class="edge">
<title>Node30&#45;&gt;Node11</title>
<g id="a_edge52_Node000030_Node000011"><a xlink:title=" ">
<path fill="none" stroke="#63b8ff" d="M840.98,-205.12C712.23,-174.61 420.98,-113.59 337.25,-163.51 274,-201.22 250.27,-297.17 243.98,-329.04"/>
<polygon fill="#63b8ff" stroke="#63b8ff" points="839.8,-208.43 850.34,-207.35 841.43,-201.62 839.8,-208.43"/>
</a>
</g>
</g>
<!-- Node31&#45;&gt;Node11 -->
<g id="edge54_Node000031_Node000011" class="edge">
<title>Node31&#45;&gt;Node11</title>
<g id="a_edge54_Node000031_Node000011"><a xlink:title=" ">
<path fill="none" stroke="#63b8ff" d="M669.88,-56.07C584.23,-51.32 434.3,-55.76 337.25,-130.51 302.74,-157.09 257.84,-290.55 245.43,-329.08"/>
<polygon fill="#63b8ff" stroke="#63b8ff" points="669.56,-59.55 679.76,-56.68 669.99,-52.57 669.56,-59.55"/>
</a>
</g>
</g>
</g>
</svg>
