<?xml version="1.0" encoding="UTF-8" standalone="no"?>
<!DOCTYPE svg PUBLIC "-//W3C//DTD SVG 1.1//EN"
 "http://www.w3.org/Graphics/SVG/1.1/DTD/svg11.dtd">
<!-- Generated by graphviz version 12.2.1 (20241206.2353)
 -->
<!-- Title: Schedule::Schedule Pages: 1 -->
<svg width="352pt" height="104pt"
 viewBox="0.00 0.00 351.50 104.00" xmlns="http://www.w3.org/2000/svg" xmlns:xlink="http://www.w3.org/1999/xlink">

<svg id="main" version="1.1" xmlns="http://www.w3.org/2000/svg" xmlns:xlink="http://www.w3.org/1999/xlink" xml:space="preserve">

<style type="text/css"><![CDATA[
.node, .edge {opacity: 0.7;}
.node.selected, .edge.selected {opacity: 1;}
.edge:hover path { stroke: red; }
.edge:hover polygon { stroke: red; fill: red; }
]]></style>
<script type="application/ecmascript" xlink:href="svg.min.js"/>
<svg id="graph" class="graph">
<g id="graph0" class="graph" transform="scale(1 1) rotate(0) translate(4 100)">
<title>Schedule::Schedule</title>
<!-- Node1 -->
<g id="Node000001" class="node">
<title>Node1</title>
<g id="a_Node000001"><a xlink:title="Constructs a Schedule from an encoded time.">
<polygon fill="#999999" stroke="#666666" points="103,-58 0,-58 0,-38 103,-38 103,-58"/>
<text text-anchor="middle" x="51.5" y="-44.5" font-family="Helvetica,sans-Serif" font-size="10.00">Schedule::Schedule</text>
</a>
</g>
</g>
<!-- Node2 -->
<g id="Node000002" class="node">
<title>Node2</title>
<g id="a_Node000002"><a xlink:href="class_schedule.html#a0955f841014983081fa935149096fb0e" target="_top" xlink:title="Default constructor.">
<polygon fill="white" stroke="#666666" points="242,-96 139,-96 139,-76 242,-76 242,-96"/>
<text text-anchor="middle" x="190.5" y="-82.5" font-family="Helvetica,sans-Serif" font-size="10.00">Schedule::Schedule</text>
</a>
</g>
</g>
<!-- Node1&#45;&gt;Node2 -->
<g id="edge1_Node000001_Node000002" class="edge">
<title>Node1&#45;&gt;Node2</title>
<g id="a_edge1_Node000001_Node000002"><a xlink:title=" ">
<path fill="none" stroke="#63b8ff" d="M90.3,-58.48C106.02,-62.85 124.46,-67.96 141.16,-72.59"/>
<polygon fill="#63b8ff" stroke="#63b8ff" points="139.79,-75.85 150.37,-75.15 141.67,-69.1 139.79,-75.85"/>
</a>
</g>
</g>
<!-- Node3 -->
<g id="Node000003" class="node">
<title>Node3</title>
<g id="a_Node000003"><a xlink:href="class_time.html#a0eedb4e626b8e3fdcaf63519b86ea778" target="_top" xlink:title="Default constructor.">
<polygon fill="white" stroke="#666666" points="343.5,-77 278,-77 278,-57 343.5,-57 343.5,-77"/>
<text text-anchor="middle" x="310.75" y="-63.5" font-family="Helvetica,sans-Serif" font-size="10.00">Time::Time</text>
</a>
</g>
</g>
<!-- Node1&#45;&gt;Node3 -->
<g id="edge4_Node000001_Node000003" class="edge">
<title>Node1&#45;&gt;Node3</title>
<g id="a_edge4_Node000001_Node000003"><a xlink:title=" ">
<path fill="none" stroke="#63b8ff" d="M103.32,-51.75C150.91,-55.27 221.24,-60.46 266.28,-63.79"/>
<polygon fill="#63b8ff" stroke="#63b8ff" points="265.98,-67.28 276.21,-64.52 266.49,-60.3 265.98,-67.28"/>
</a>
</g>
</g>
<!-- Node4 -->
<g id="Node000004" class="node">
<title>Node4</title>
<g id="a_Node000004"><a xlink:href="_date_time_8cpp.html#a71e5b7f32ee97289a7459f267d4338b5" target="_top" xlink:title="Converts a string representation of a weekday to its corresponding WeekDays enum value.">
<polygon fill="white" stroke="#666666" points="239.38,-20 141.62,-20 141.62,0 239.38,0 239.38,-20"/>
<text text-anchor="middle" x="190.5" y="-6.5" font-family="Helvetica,sans-Serif" font-size="10.00">string_to_weekday</text>
</a>
</g>
</g>
<!-- Node1&#45;&gt;Node4 -->
<g id="edge3_Node000001_Node000004" class="edge">
<title>Node1&#45;&gt;Node4</title>
<g id="a_edge3_Node000001_Node000004"><a xlink:title=" ">
<path fill="none" stroke="#63b8ff" d="M90.3,-37.52C106.02,-33.15 124.46,-28.04 141.16,-23.41"/>
<polygon fill="#63b8ff" stroke="#63b8ff" points="141.67,-26.9 150.37,-20.85 139.79,-20.15 141.67,-26.9"/>
</a>
</g>
</g>
<!-- Node2&#45;&gt;Node3 -->
<g id="edge2_Node000002_Node000003" class="edge">
<title>Node2&#45;&gt;Node3</title>
<g id="a_edge2_Node000002_Node000003"><a xlink:title=" ">
<path fill="none" stroke="#63b8ff" d="M242.33,-77.83C250.41,-76.53 258.7,-75.2 266.57,-73.94"/>
<polygon fill="#63b8ff" stroke="#63b8ff" points="266.94,-77.42 276.26,-72.38 265.83,-70.51 266.94,-77.42"/>
</a>
</g>
</g>
</g>
</svg>
</svg>

<style type='text/css'>
<![CDATA[
[data-mouse-over-selected='false'] { opacity: 0.7; }
[data-mouse-over-selected='true']  { opacity: 1.0; }
]]>
</style>
<script type="application/ecmascript"><![CDATA[
document.addEventListener('DOMContentLoaded', (event) => {
  highlightEdges();
  highlightAdjacentNodes();
});
]]></script>
</svg>
