<?xml version="1.0" encoding="UTF-8" standalone="no"?>
<!DOCTYPE svg PUBLIC "-//W3C//DTD SVG 1.1//EN"
 "http://www.w3.org/Graphics/SVG/1.1/DTD/svg11.dtd">
<!-- Generated by graphviz version 12.2.1 (20241206.2353)
 -->
<!-- Title: CSV_Parser::parse_lesson_employees Pages: 1 -->
<svg width="627pt" height="103pt"
 viewBox="0.00 0.00 627.00 103.00" xmlns="http://www.w3.org/2000/svg" xmlns:xlink="http://www.w3.org/1999/xlink">
<g id="graph0" class="graph" transform="scale(1 1) rotate(0) translate(4 99)">
<title>CSV_Parser::parse_lesson_employees</title>
<!-- Node1 -->
<g id="Node000001" class="node">
<title>Node1</title>
<g id="a_Node000001"><a xlink:title="Parses lesson&#39;s employees from a CSV line.">
<polygon fill="#999999" stroke="#666666" points="134.5,-79 0,-79 0,-47 134.5,-47 134.5,-79"/>
<text text-anchor="start" x="8" y="-65.5" font-family="Helvetica,sans-Serif" font-size="10.00">CSV_Parser::parse_lesson</text>
<text text-anchor="middle" x="67.25" y="-53.5" font-family="Helvetica,sans-Serif" font-size="10.00">_employees</text>
</a>
</g>
</g>
<!-- Node2 -->
<g id="Node000002" class="node">
<title>Node2</title>
<g id="a_Node000002"><a xlink:href="class_lesson.html#afc2b347e65cd703a676749de028cf824" target="_top" xlink:title="Adds an employee to the lesson.">
<polygon fill="white" stroke="#666666" points="291.12,-95 174.62,-95 174.62,-75 291.12,-75 291.12,-95"/>
<text text-anchor="middle" x="232.88" y="-81.5" font-family="Helvetica,sans-Serif" font-size="10.00">Lesson::add_employee</text>
</a>
</g>
</g>
<!-- Node1&#45;&gt;Node2 -->
<g id="edge1_Node000001_Node000002" class="edge">
<title>Node1&#45;&gt;Node2</title>
<g id="a_edge1_Node000001_Node000002"><a xlink:title=" ">
<path fill="none" stroke="#63b8ff" d="M134.8,-71.95C144.11,-73.2 153.69,-74.49 163.05,-75.75"/>
<polygon fill="#63b8ff" stroke="#63b8ff" points="162.42,-79.19 172.8,-77.06 163.36,-72.26 162.42,-79.19"/>
</a>
</g>
</g>
<!-- Node3 -->
<g id="Node000003" class="node">
<title>Node3</title>
<g id="a_Node000003"><a xlink:href="class_database.html#ad50041d3d5067356b4581bed63a51449" target="_top" xlink:title="Gets an employee by name and surname.">
<polygon fill="white" stroke="#666666" points="295.25,-57 170.5,-57 170.5,-25 295.25,-25 295.25,-57"/>
<text text-anchor="start" x="178.5" y="-43.5" font-family="Helvetica,sans-Serif" font-size="10.00">Database::get_employee</text>
<text text-anchor="middle" x="232.88" y="-31.5" font-family="Helvetica,sans-Serif" font-size="10.00">_by_name_surname</text>
</a>
</g>
</g>
<!-- Node1&#45;&gt;Node3 -->
<g id="edge2_Node000001_Node000003" class="edge">
<title>Node1&#45;&gt;Node3</title>
<g id="a_edge2_Node000001_Node000003"><a xlink:title=" ">
<path fill="none" stroke="#63b8ff" d="M134.8,-54.05C142.74,-52.98 150.88,-51.89 158.9,-50.81"/>
<polygon fill="#63b8ff" stroke="#63b8ff" points="159.19,-54.3 168.63,-49.5 158.25,-47.37 159.19,-54.3"/>
</a>
</g>
</g>
<!-- Node4 -->
<g id="Node000004" class="node">
<title>Node4</title>
<g id="a_Node000004"><a xlink:href="class_database.html#ab4078647d304eaebd16c83baf22a2b18" target="_top" xlink:title="Filters employees by name.">
<polygon fill="white" stroke="#666666" points="461.25,-82 331.25,-82 331.25,-50 461.25,-50 461.25,-82"/>
<text text-anchor="start" x="339.25" y="-68.5" font-family="Helvetica,sans-Serif" font-size="10.00">Database::filter_employee</text>
<text text-anchor="middle" x="396.25" y="-56.5" font-family="Helvetica,sans-Serif" font-size="10.00">_by_name</text>
</a>
</g>
</g>
<!-- Node3&#45;&gt;Node4 -->
<g id="edge3_Node000003_Node000004" class="edge">
<title>Node3&#45;&gt;Node4</title>
<g id="a_edge3_Node000003_Node000004"><a xlink:title=" ">
<path fill="none" stroke="#63b8ff" d="M295.34,-50.52C303.37,-51.77 311.66,-53.05 319.87,-54.32"/>
<polygon fill="#63b8ff" stroke="#63b8ff" points="319.09,-57.74 329.51,-55.82 320.16,-50.83 319.09,-57.74"/>
</a>
</g>
</g>
<!-- Node7 -->
<g id="Node000007" class="node">
<title>Node7</title>
<g id="a_Node000007"><a xlink:href="class_database.html#af7863b68cb40f5715660eeccaaf56f52" target="_top" xlink:title="Filters employees by surname.">
<polygon fill="white" stroke="#666666" points="461.25,-32 331.25,-32 331.25,0 461.25,0 461.25,-32"/>
<text text-anchor="start" x="339.25" y="-18.5" font-family="Helvetica,sans-Serif" font-size="10.00">Database::filter_employee</text>
<text text-anchor="middle" x="396.25" y="-6.5" font-family="Helvetica,sans-Serif" font-size="10.00">_by_surname</text>
</a>
</g>
</g>
<!-- Node3&#45;&gt;Node7 -->
<g id="edge6_Node000003_Node000007" class="edge">
<title>Node3&#45;&gt;Node7</title>
<g id="a_edge6_Node000003_Node000007"><a xlink:title=" ">
<path fill="none" stroke="#63b8ff" d="M295.34,-31.48C303.37,-30.23 311.66,-28.95 319.87,-27.68"/>
<polygon fill="#63b8ff" stroke="#63b8ff" points="320.16,-31.17 329.51,-26.18 319.09,-24.26 320.16,-31.17"/>
</a>
</g>
</g>
<!-- Node5 -->
<g id="Node000005" class="node">
<title>Node5</title>
<g id="a_Node000005"><a xlink:href="_helper___functions_8h.html#a0d3fbaad2936b89eb0d594cba2929800" target="_top" xlink:title="Filters a vector of pointers based on a predicate.">
<polygon fill="white" stroke="#666666" points="575.5,-73 540.75,-73 540.75,-53 575.5,-53 575.5,-73"/>
<text text-anchor="middle" x="558.12" y="-59.5" font-family="Helvetica,sans-Serif" font-size="10.00">filter</text>
</a>
</g>
</g>
<!-- Node4&#45;&gt;Node5 -->
<g id="edge4_Node000004_Node000005" class="edge">
<title>Node4&#45;&gt;Node5</title>
<g id="a_edge4_Node000004_Node000005"><a xlink:title=" ">
<path fill="none" stroke="#63b8ff" d="M461.36,-64.8C484.87,-64.36 510.29,-63.88 529.03,-63.53"/>
<polygon fill="#63b8ff" stroke="#63b8ff" points="528.85,-67.03 538.78,-63.34 528.71,-60.03 528.85,-67.03"/>
</a>
</g>
</g>
<!-- Node6 -->
<g id="Node000006" class="node">
<title>Node6</title>
<g id="a_Node000006"><a xlink:href="_helper___functions_8h.html#ab487a2e8523090e129c7f67ed349c9a1" target="_top" xlink:title="Filters a multimap by its keys based on a predicate.">
<polygon fill="white" stroke="#666666" points="619,-32 497.25,-32 497.25,-12 619,-12 619,-32"/>
<text text-anchor="middle" x="558.12" y="-18.5" font-family="Helvetica,sans-Serif" font-size="10.00">filter_multimap_by_keys</text>
</a>
</g>
</g>
<!-- Node4&#45;&gt;Node6 -->
<g id="edge5_Node000004_Node000006" class="edge">
<title>Node4&#45;&gt;Node6</title>
<g id="a_edge5_Node000004_Node000006"><a xlink:title=" ">
<path fill="none" stroke="#63b8ff" d="M456.78,-49.62C473.8,-44.93 492.15,-39.88 508.44,-35.4"/>
<polygon fill="#63b8ff" stroke="#63b8ff" points="509.18,-38.83 517.89,-32.8 507.32,-32.08 509.18,-38.83"/>
</a>
</g>
</g>
<!-- Node7&#45;&gt;Node5 -->
<g id="edge7_Node000007_Node000005" class="edge">
<title>Node7&#45;&gt;Node5</title>
<g id="a_edge7_Node000007_Node000005"><a xlink:title=" ">
<path fill="none" stroke="#63b8ff" d="M453.17,-32.44C479.03,-40.04 508.59,-48.73 529.56,-54.9"/>
<polygon fill="#63b8ff" stroke="#63b8ff" points="528.5,-58.23 539.09,-57.7 530.48,-51.52 528.5,-58.23"/>
</a>
</g>
</g>
<!-- Node7&#45;&gt;Node6 -->
<g id="edge8_Node000007_Node000006" class="edge">
<title>Node7&#45;&gt;Node6</title>
<g id="a_edge8_Node000007_Node000006"><a xlink:title=" ">
<path fill="none" stroke="#63b8ff" d="M461.36,-18.41C469.33,-18.71 477.52,-19.01 485.59,-19.32"/>
<polygon fill="#63b8ff" stroke="#63b8ff" points="485.26,-22.81 495.38,-19.68 485.52,-15.81 485.26,-22.81"/>
</a>
</g>
</g>
</g>
</svg>
