<?xml version="1.0" encoding="UTF-8" standalone="no"?>
<!DOCTYPE svg PUBLIC "-//W3C//DTD SVG 1.1//EN"
 "http://www.w3.org/Graphics/SVG/1.1/DTD/svg11.dtd">
<!-- Generated by graphviz version 12.2.1 (20241206.2353)
 -->
<!-- Title: Database::filter_employee_by_name Pages: 1 -->
<svg width="1112pt" height="40pt"
 viewBox="0.00 0.00 1112.25 40.00" xmlns="http://www.w3.org/2000/svg" xmlns:xlink="http://www.w3.org/1999/xlink">
<g id="graph0" class="graph" transform="scale(1 1) rotate(0) translate(4 36)">
<title>Database::filter_employee_by_name</title>
<!-- Node1 -->
<g id="Node000001" class="node">
<title>Node1</title>
<g id="a_Node000001"><a xlink:title="Filters employees by name.">
<polygon fill="#999999" stroke="#666666" points="1104.25,-32 974.25,-32 974.25,0 1104.25,0 1104.25,-32"/>
<text text-anchor="start" x="982.25" y="-18.5" font-family="Helvetica,sans-Serif" font-size="10.00">Database::filter_employee</text>
<text text-anchor="middle" x="1039.25" y="-6.5" font-family="Helvetica,sans-Serif" font-size="10.00">_by_name</text>
</a>
</g>
</g>
<!-- Node2 -->
<g id="Node000002" class="node">
<title>Node2</title>
<g id="a_Node000002"><a xlink:href="class_database.html#ad50041d3d5067356b4581bed63a51449" target="_top" xlink:title="Gets an employee by name and surname.">
<polygon fill="white" stroke="#666666" points="938.25,-32 813.5,-32 813.5,0 938.25,0 938.25,-32"/>
<text text-anchor="start" x="821.5" y="-18.5" font-family="Helvetica,sans-Serif" font-size="10.00">Database::get_employee</text>
<text text-anchor="middle" x="875.88" y="-6.5" font-family="Helvetica,sans-Serif" font-size="10.00">_by_name_surname</text>
</a>
</g>
</g>
<!-- Node1&#45;&gt;Node2 -->
<g id="edge1_Node000001_Node000002" class="edge">
<title>Node1&#45;&gt;Node2</title>
<g id="a_edge1_Node000001_Node000002"><a xlink:title=" ">
<path fill="none" stroke="#63b8ff" d="M962.66,-16C954.58,-16 946.43,-16 938.53,-16"/>
<polygon fill="#63b8ff" stroke="#63b8ff" points="962.49,-19.5 972.49,-16 962.49,-12.5 962.49,-19.5"/>
</a>
</g>
</g>
<!-- Node3 -->
<g id="Node000003" class="node">
<title>Node3</title>
<g id="a_Node000003"><a xlink:href="class_c_s_v___parser.html#a4732941a7b14e0908b4c94286d957ede" target="_top" xlink:title="Parses lesson&#39;s employees from a CSV line.">
<polygon fill="white" stroke="#666666" points="777.5,-32 643,-32 643,0 777.5,0 777.5,-32"/>
<text text-anchor="start" x="651" y="-18.5" font-family="Helvetica,sans-Serif" font-size="10.00">CSV_Parser::parse_lesson</text>
<text text-anchor="middle" x="710.25" y="-6.5" font-family="Helvetica,sans-Serif" font-size="10.00">_employees</text>
</a>
</g>
</g>
<!-- Node2&#45;&gt;Node3 -->
<g id="edge2_Node000002_Node000003" class="edge">
<title>Node2&#45;&gt;Node3</title>
<g id="a_edge2_Node000002_Node000003"><a xlink:title=" ">
<path fill="none" stroke="#63b8ff" d="M801.56,-16C793.66,-16 785.65,-16 777.84,-16"/>
<polygon fill="#63b8ff" stroke="#63b8ff" points="801.5,-19.5 811.5,-16 801.5,-12.5 801.5,-19.5"/>
</a>
</g>
</g>
<!-- Node4 -->
<g id="Node000004" class="node">
<title>Node4</title>
<g id="a_Node000004"><a xlink:href="class_c_s_v___parser.html#abf9be7d0476752028afd45de9be64877" target="_top" xlink:title="Parses a lesson from a CSV line.">
<polygon fill="white" stroke="#666666" points="607,-26 472.5,-26 472.5,-6 607,-6 607,-26"/>
<text text-anchor="middle" x="539.75" y="-12.5" font-family="Helvetica,sans-Serif" font-size="10.00">CSV_Parser::parse_lesson</text>
</a>
</g>
</g>
<!-- Node3&#45;&gt;Node4 -->
<g id="edge3_Node000003_Node000004" class="edge">
<title>Node3&#45;&gt;Node4</title>
<g id="a_edge3_Node000003_Node000004"><a xlink:title=" ">
<path fill="none" stroke="#63b8ff" d="M631.4,-16C623.39,-16 615.29,-16 607.41,-16"/>
<polygon fill="#63b8ff" stroke="#63b8ff" points="631.14,-19.5 641.14,-16 631.14,-12.5 631.14,-19.5"/>
</a>
</g>
</g>
<!-- Node5 -->
<g id="Node000005" class="node">
<title>Node5</title>
<g id="a_Node000005"><a xlink:href="class_database.html#a5234a41c55542e88486c147ca399f386" target="_top" xlink:title="Imports lessons from a CSV file.">
<polygon fill="white" stroke="#666666" points="436.5,-32 303.5,-32 303.5,0 436.5,0 436.5,-32"/>
<text text-anchor="start" x="311.5" y="-18.5" font-family="Helvetica,sans-Serif" font-size="10.00">Database::import_Lessons</text>
<text text-anchor="middle" x="370" y="-6.5" font-family="Helvetica,sans-Serif" font-size="10.00">_from_csv_file</text>
</a>
</g>
</g>
<!-- Node4&#45;&gt;Node5 -->
<g id="edge4_Node000004_Node000005" class="edge">
<title>Node4&#45;&gt;Node5</title>
<g id="a_edge4_Node000004_Node000005"><a xlink:title=" ">
<path fill="none" stroke="#63b8ff" d="M461.07,-16C452.96,-16 444.78,-16 436.82,-16"/>
<polygon fill="#63b8ff" stroke="#63b8ff" points="460.94,-19.5 470.94,-16 460.94,-12.5 460.94,-19.5"/>
</a>
</g>
</g>
<!-- Node6 -->
<g id="Node000006" class="node">
<title>Node6</title>
<g id="a_Node000006"><a xlink:href="class_database.html#af3b2c97f6ffbcff3ec1c0f78a91d6107" target="_top" xlink:title="Imports data from a stream.">
<polygon fill="white" stroke="#666666" points="267.5,-32 151.75,-32 151.75,0 267.5,0 267.5,-32"/>
<text text-anchor="start" x="159.75" y="-18.5" font-family="Helvetica,sans-Serif" font-size="10.00">Database::import_from</text>
<text text-anchor="middle" x="209.62" y="-6.5" font-family="Helvetica,sans-Serif" font-size="10.00">_stream</text>
</a>
</g>
</g>
<!-- Node5&#45;&gt;Node6 -->
<g id="edge5_Node000005_Node000006" class="edge">
<title>Node5&#45;&gt;Node6</title>
<g id="a_edge5_Node000005_Node000006"><a xlink:title=" ">
<path fill="none" stroke="#63b8ff" d="M291.85,-16C283.78,-16 275.68,-16 267.88,-16"/>
<polygon fill="#63b8ff" stroke="#63b8ff" points="291.7,-19.5 301.7,-16 291.7,-12.5 291.7,-19.5"/>
</a>
</g>
</g>
<!-- Node7 -->
<g id="Node000007" class="node">
<title>Node7</title>
<g id="a_Node000007"><a xlink:href="class_database.html#a0a08797a6ca7a3456150370e3f816d4c" target="_top" xlink:title="Imports data from a CSV file.">
<polygon fill="white" stroke="#666666" points="115.75,-32 0,-32 0,0 115.75,0 115.75,-32"/>
<text text-anchor="start" x="8" y="-18.5" font-family="Helvetica,sans-Serif" font-size="10.00">Database::import_from</text>
<text text-anchor="middle" x="57.88" y="-6.5" font-family="Helvetica,sans-Serif" font-size="10.00">_csv_file</text>
</a>
</g>
</g>
<!-- Node6&#45;&gt;Node7 -->
<g id="edge6_Node000006_Node000007" class="edge">
<title>Node6&#45;&gt;Node7</title>
<g id="a_edge6_Node000006_Node000007"><a xlink:title=" ">
<path fill="none" stroke="#63b8ff" d="M140.16,-16C131.99,-16 123.73,-16 115.76,-16"/>
<polygon fill="#63b8ff" stroke="#63b8ff" points="140.07,-19.5 150.07,-16 140.07,-12.5 140.07,-19.5"/>
</a>
</g>
</g>
</g>
</svg>
