<?xml version="1.0" encoding="UTF-8" standalone="no"?>
<!DOCTYPE svg PUBLIC "-//W3C//DTD SVG 1.1//EN"
 "http://www.w3.org/Graphics/SVG/1.1/DTD/svg11.dtd">
<!-- Generated by graphviz version 12.2.1 (20241206.2353)
 -->
<!-- Title: Date::Date Pages: 1 -->
<svg width="197pt" height="104pt"
 viewBox="0.00 0.00 196.75 104.00" xmlns="http://www.w3.org/2000/svg" xmlns:xlink="http://www.w3.org/1999/xlink">
<g id="graph0" class="graph" transform="scale(1 1) rotate(0) translate(4 100)">
<title>Date::Date</title>
<!-- Node1 -->
<g id="Node000001" class="node">
<title>Node1</title>
<g id="a_Node000001"><a xlink:title="Constructs a Date from day, month, and year values.">
<polygon fill="#999999" stroke="#666666" points="64,-58 0,-58 0,-38 64,-38 64,-58"/>
<text text-anchor="middle" x="32" y="-44.5" font-family="Helvetica,sans-Serif" font-size="10.00">Date::Date</text>
</a>
</g>
</g>
<!-- Node2 -->
<g id="Node000002" class="node">
<title>Node2</title>
<g id="a_Node000002"><a xlink:href="class_date.html#a6925d852b4e3a052031eebd8c8493bd1" target="_top" xlink:title="Sets the day of the date.">
<polygon fill="white" stroke="#666666" points="183.12,-96 105.62,-96 105.62,-76 183.12,-76 183.12,-96"/>
<text text-anchor="middle" x="144.38" y="-82.5" font-family="Helvetica,sans-Serif" font-size="10.00">Date::set_day</text>
</a>
</g>
</g>
<!-- Node1&#45;&gt;Node2 -->
<g id="edge1_Node000001_Node000002" class="edge">
<title>Node1&#45;&gt;Node2</title>
<g id="a_edge1_Node000001_Node000002"><a xlink:title=" ">
<path fill="none" stroke="#63b8ff" d="M63.45,-58.48C75.52,-62.64 89.57,-67.48 102.5,-71.93"/>
<polygon fill="#63b8ff" stroke="#63b8ff" points="101,-75.11 111.59,-75.06 103.27,-68.49 101,-75.11"/>
</a>
</g>
</g>
<!-- Node3 -->
<g id="Node000003" class="node">
<title>Node3</title>
<g id="a_Node000003"><a xlink:href="class_date.html#a89be040df9501c572fbf34fd9454a3ef" target="_top" xlink:title="Sets the month of the date.">
<polygon fill="white" stroke="#666666" points="188.75,-58 100,-58 100,-38 188.75,-38 188.75,-58"/>
<text text-anchor="middle" x="144.38" y="-44.5" font-family="Helvetica,sans-Serif" font-size="10.00">Date::set_month</text>
</a>
</g>
</g>
<!-- Node1&#45;&gt;Node3 -->
<g id="edge2_Node000001_Node000003" class="edge">
<title>Node1&#45;&gt;Node3</title>
<g id="a_edge2_Node000001_Node000003"><a xlink:title=" ">
<path fill="none" stroke="#63b8ff" d="M64.33,-48C71.78,-48 79.95,-48 88.12,-48"/>
<polygon fill="#63b8ff" stroke="#63b8ff" points="88.09,-51.5 98.09,-48 88.09,-44.5 88.09,-51.5"/>
</a>
</g>
</g>
<!-- Node4 -->
<g id="Node000004" class="node">
<title>Node4</title>
<g id="a_Node000004"><a xlink:href="class_date.html#acf2152771651782ab78f5c2521373c91" target="_top" xlink:title="Sets the year of the date.">
<polygon fill="white" stroke="#666666" points="184.62,-20 104.12,-20 104.12,0 184.62,0 184.62,-20"/>
<text text-anchor="middle" x="144.38" y="-6.5" font-family="Helvetica,sans-Serif" font-size="10.00">Date::set_year</text>
</a>
</g>
</g>
<!-- Node1&#45;&gt;Node4 -->
<g id="edge3_Node000001_Node000004" class="edge">
<title>Node1&#45;&gt;Node4</title>
<g id="a_edge3_Node000001_Node000004"><a xlink:title=" ">
<path fill="none" stroke="#63b8ff" d="M63.45,-37.52C75.52,-33.36 89.57,-28.52 102.5,-24.07"/>
<polygon fill="#63b8ff" stroke="#63b8ff" points="103.27,-27.51 111.59,-20.94 101,-20.89 103.27,-27.51"/>
</a>
</g>
</g>
</g>
</svg>
