<?xml version="1.0" encoding="UTF-8" standalone="no"?>
<!DOCTYPE svg PUBLIC "-//W3C//DTD SVG 1.1//EN"
 "http://www.w3.org/Graphics/SVG/1.1/DTD/svg11.dtd">
<!-- Generated by graphviz version 12.2.1 (20241206.2353)
 -->
<!-- Title: Date::Date Pages: 1 -->
<!--zoomable 1064 -->

<svg id="main" version="1.1" xmlns="http://www.w3.org/2000/svg" xmlns:xlink="http://www.w3.org/1999/xlink" xml:space="preserve" onload="init(evt)">

<style type="text/css"><![CDATA[
.node, .edge {opacity: 0.7;}
.node.selected, .edge.selected {opacity: 1;}
.edge:hover path { stroke: red; }
.edge:hover polygon { stroke: red; fill: red; }
]]></style>

<defs>
  <circle id="rim" cx="0" cy="0" r="7"/>
  <circle id="rim2" cx="0" cy="0" r="3.5"/>
  <g id="zoomPlus">
    <use xlink:href="#rim" fill="#404040"><set attributeName="fill" to="#808080" begin="zoomplus.mouseover" end="zoomplus.mouseout"/></use>
    <path d="M-4,0h8M0,-4v8" fill="none" stroke="white" stroke-width="1.5" pointer-events="none"/>
  </g>
  <g id="zoomMin">
    <use xlink:href="#rim" fill="#404040"><set attributeName="fill" to="#808080" begin="zoomminus.mouseover" end="zoomminus.mouseout"/></use>
    <path d="M-4,0h8" fill="none" stroke="white" stroke-width="1.5" pointer-events="none"/>
  </g>
  <g id="arrowUp" transform="translate(30 24)">
    <use xlink:href="#rim"/>
    <path pointer-events="none" fill="none" stroke="white" stroke-width="1.5" d="M0,-3.0v7 M-2.5,-0.5L0,-3.0L2.5,-0.5"/>
  </g>
  <g id="arrowRight" transform="rotate(90) translate(36 -43)">
    <use xlink:href="#rim"/>
    <path pointer-events="none" fill="none" stroke="white" stroke-width="1.5" d="M0,-3.0v7 M-2.5,-0.5L0,-3.0L2.5,-0.5"/>
  </g>
  <g id="arrowDown" transform="rotate(180) translate(-30 -48)">
    <use xlink:href="#rim"/>
    <path pointer-events="none" fill="none" stroke="white" stroke-width="1.5" d="M0,-3.0v7 M-2.5,-0.5L0,-3.0L2.5,-0.5"/>
  </g>
  <g id="arrowLeft" transform="rotate(270) translate(-36 17)">
    <use xlink:href="#rim"/>
    <path pointer-events="none" fill="none" stroke="white" stroke-width="1.5" d="M0,-3.0v7 M-2.5,-0.5L0,-3.0L2.5,-0.5"/>
  </g>
  <g id="resetDef">
    <use xlink:href="#rim2" fill="#404040"><set attributeName="fill" to="#808080" begin="reset.mouseover" end="reset.mouseout"/></use>
  </g>
</defs>
<script type="application/ecmascript">
var viewWidth = 407;
var viewHeight = 1064;
var sectionId = 'dynsection-2';
</script>
<script type="application/ecmascript" xlink:href="svg.min.js"/>
<svg id="graph" class="graph">
<g id="viewport">
<title>Date::Date</title>
<!-- Node1 -->
<g id="Node000001" class="node">
<title>Node1</title>
<g id="a_Node000001"><a xlink:title="Default constructor.">
<polygon fill="#999999" stroke="#666666" points="399,-419 335,-419 335,-399 399,-399 399,-419"/>
<text text-anchor="middle" x="367" y="-405.5" font-family="Helvetica,sans-Serif" font-size="10.00">Date::Date</text>
</a>
</g>
</g>
<!-- Node2 -->
<g id="Node000002" class="node">
<title>Node2</title>
<g id="a_Node000002"><a xlink:href="class_date.html#a80017d44ffbbc4d4c058f3bb94467241" target="_top" xlink:title=" ">
<polygon fill="white" stroke="#666666" points="256.25,-960 192.25,-960 192.25,-940 256.25,-940 256.25,-960"/>
<text text-anchor="middle" x="224.25" y="-946.5" font-family="Helvetica,sans-Serif" font-size="10.00">Date::Date</text>
</a>
</g>
</g>
<!-- Node1&#45;&gt;Node2 -->
<g id="edge1_Node000001_Node000002" class="edge">
<title>Node1&#45;&gt;Node2</title>
<g id="a_edge1_Node000001_Node000002"><a xlink:title=" ">
<path fill="none" stroke="#63b8ff" d="M366.32,-430.63C367.21,-519.46 365.99,-855.1 299,-931 288.5,-942.9 271.64,-947.81 256.69,-949.68"/>
<polygon fill="#63b8ff" stroke="#63b8ff" points="369.83,-430.85 366.21,-420.89 362.83,-430.93 369.83,-430.85"/>
</a>
</g>
</g>
<!-- Node3 -->
<g id="Node000003" class="node">
<title>Node3</title>
<g id="a_Node000003"><a xlink:href="class_date.html#a53934e022baea9ff101e675c227baa4f" target="_top" xlink:title=" ">
<polygon fill="white" stroke="#666666" points="256.25,-922 192.25,-922 192.25,-902 256.25,-902 256.25,-922"/>
<text text-anchor="middle" x="224.25" y="-908.5" font-family="Helvetica,sans-Serif" font-size="10.00">Date::Date</text>
</a>
</g>
</g>
<!-- Node1&#45;&gt;Node3 -->
<g id="edge2_Node000001_Node000003" class="edge">
<title>Node1&#45;&gt;Node3</title>
<g id="a_edge2_Node000001_Node000003"><a xlink:title=" ">
<path fill="none" stroke="#63b8ff" d="M366.08,-430.92C365.94,-516.05 361.09,-823.36 299,-893 288.44,-904.84 271.58,-909.76 256.64,-911.64"/>
<polygon fill="#63b8ff" stroke="#63b8ff" points="369.58,-430.95 366.07,-420.95 362.58,-430.95 369.58,-430.95"/>
</a>
</g>
</g>
<!-- Node4 -->
<g id="Node000004" class="node">
<title>Node4</title>
<g id="a_Node000004"><a xlink:href="class_date_time.html#afa7d2eb61840fe713cb4f98795c23a53" target="_top" xlink:title="Default constructor.">
<polygon fill="white" stroke="#666666" points="278,-628 170.5,-628 170.5,-608 278,-608 278,-628"/>
<text text-anchor="middle" x="224.25" y="-614.5" font-family="Helvetica,sans-Serif" font-size="10.00">DateTime::DateTime</text>
</a>
</g>
</g>
<!-- Node1&#45;&gt;Node4 -->
<g id="edge3_Node000001_Node000004" class="edge">
<title>Node1&#45;&gt;Node4</title>
<g id="a_edge3_Node000001_Node000004"><a xlink:title=" ">
<path fill="none" stroke="#63b8ff" d="M364.21,-430.81C359.89,-469.18 345.54,-548.97 299,-594 293,-599.81 285.58,-604.21 277.78,-607.54"/>
<polygon fill="#63b8ff" stroke="#63b8ff" points="367.68,-431.29 365.17,-421 360.71,-430.61 367.68,-431.29"/>
</a>
</g>
</g>
<!-- Node6 -->
<g id="Node000006" class="node">
<title>Node6</title>
<g id="a_Node000006"><a xlink:href="class_date_time.html#ac6533d92cc1ce22a7768a029d406e2fe" target="_top" xlink:title="Constructs a DateTime from an encoded date and time value.">
<polygon fill="white" stroke="#666666" points="110.5,-818 3,-818 3,-798 110.5,-798 110.5,-818"/>
<text text-anchor="middle" x="56.75" y="-804.5" font-family="Helvetica,sans-Serif" font-size="10.00">DateTime::DateTime</text>
</a>
</g>
</g>
<!-- Node1&#45;&gt;Node6 -->
<g id="edge19_Node000001_Node000006" class="edge">
<title>Node1&#45;&gt;Node6</title>
<g id="a_edge19_Node000001_Node000006"><a xlink:title=" ">
<path fill="none" stroke="#63b8ff" d="M363.92,-430.67C358.94,-473.39 343.28,-570.15 299,-637 240.14,-725.86 206.66,-737.2 113.5,-789 107.6,-792.28 101.04,-795.13 94.55,-797.56"/>
<polygon fill="#63b8ff" stroke="#63b8ff" points="367.37,-431.27 364.96,-420.96 360.41,-430.53 367.37,-431.27"/>
</a>
</g>
</g>
<!-- Node8 -->
<g id="Node000008" class="node">
<title>Node8</title>
<g id="a_Node000008"><a xlink:href="class_date_time.html#a4456e1a9119ecd64441d20d541dc8568" target="_top" xlink:title="Gets the current date and time.">
<polygon fill="white" stroke="#666666" points="113.5,-868 0,-868 0,-836 113.5,-836 113.5,-868"/>
<text text-anchor="start" x="8" y="-854.5" font-family="Helvetica,sans-Serif" font-size="10.00">DateTime::get_current</text>
<text text-anchor="middle" x="56.75" y="-842.5" font-family="Helvetica,sans-Serif" font-size="10.00">_datetime</text>
</a>
</g>
</g>
<!-- Node1&#45;&gt;Node8 -->
<g id="edge28_Node000001_Node000008" class="edge">
<title>Node1&#45;&gt;Node8</title>
<g id="a_edge28_Node000001_Node000008"><a xlink:title=" ">
<path fill="none" stroke="#63b8ff" d="M363.53,-430.62C356.11,-492.6 332.44,-669.47 299,-716 253.75,-778.95 169.79,-816.56 113.83,-835.77"/>
<polygon fill="#63b8ff" stroke="#63b8ff" points="367,-431.07 364.69,-420.73 360.05,-430.25 367,-431.07"/>
</a>
</g>
</g>
<!-- Node14 -->
<g id="Node000014" class="node">
<title>Node14</title>
<g id="a_Node000014"><a xlink:href="class_date_time.html#a51a9e93edb967f826947f48ba70fdd26" target="_top" xlink:title=" ">
<polygon fill="white" stroke="#666666" points="109.75,-400 3.75,-400 3.75,-380 109.75,-380 109.75,-400"/>
<text text-anchor="middle" x="56.75" y="-386.5" font-family="Helvetica,sans-Serif" font-size="10.00">DateTime::operator=</text>
</a>
</g>
</g>
<!-- Node1&#45;&gt;Node14 -->
<g id="edge39_Node000001_Node000014" class="edge">
<title>Node1&#45;&gt;Node14</title>
<g id="a_edge39_Node000001_Node000014"><a xlink:title=" ">
<path fill="none" stroke="#63b8ff" d="M363.42,-430.48C358.1,-464.05 342.51,-528.02 299,-556 243.12,-591.94 201.77,-597.02 149.5,-556 96.58,-514.48 158.92,-458.62 113.5,-409 110.32,-405.53 106.49,-402.69 102.34,-400.38"/>
<polygon fill="#63b8ff" stroke="#63b8ff" points="366.86,-431.12 364.78,-420.74 359.93,-430.16 366.86,-431.12"/>
</a>
</g>
</g>
<!-- Node18 -->
<g id="Node000018" class="node">
<title>Node18</title>
<g id="a_Node000018"><a xlink:href="class_date_time.html#a00b7c957d1a02b2b48639dcb661b9fde" target="_top" xlink:title="Sets the date component of the DateTime.">
<polygon fill="white" stroke="#666666" points="107.88,-362 5.62,-362 5.62,-342 107.88,-342 107.88,-362"/>
<text text-anchor="middle" x="56.75" y="-348.5" font-family="Helvetica,sans-Serif" font-size="10.00">DateTime::set_date</text>
</a>
</g>
</g>
<!-- Node1&#45;&gt;Node18 -->
<g id="edge43_Node000001_Node000018" class="edge">
<title>Node1&#45;&gt;Node18</title>
<g id="a_edge43_Node000001_Node000018"><a xlink:title=" ">
<path fill="none" stroke="#63b8ff" d="M360.5,-430.35C352.23,-457.47 333.73,-503.13 299,-523 241.33,-556 201.62,-564.22 149.5,-523 95.05,-479.94 160.18,-422.39 113.5,-371 110.34,-367.52 106.51,-364.67 102.36,-362.35"/>
<polygon fill="#63b8ff" stroke="#63b8ff" points="363.84,-431.38 363.19,-420.81 357.1,-429.48 363.84,-431.38"/>
</a>
</g>
</g>
<!-- Node20 -->
<g id="Node000020" class="node">
<title>Node20</title>
<g id="a_Node000020"><a xlink:href="class_date_time.html#adba99df4a083c3f1d4859c60e935cf2c" target="_top" xlink:title="Constructs a DateTime from a Date and a Time.">
<polygon fill="white" stroke="#666666" points="278,-476 170.5,-476 170.5,-456 278,-456 278,-476"/>
<text text-anchor="middle" x="224.25" y="-462.5" font-family="Helvetica,sans-Serif" font-size="10.00">DateTime::DateTime</text>
</a>
</g>
</g>
<!-- Node1&#45;&gt;Node20 -->
<g id="edge20_Node000001_Node000020" class="edge">
<title>Node1&#45;&gt;Node20</title>
<g id="a_edge20_Node000001_Node000020"><a xlink:title=" ">
<path fill="none" stroke="#63b8ff" d="M340.84,-425.37C328.59,-432.78 313.43,-441.17 299,-447 290.91,-450.27 282.09,-453.12 273.45,-455.54"/>
<polygon fill="#63b8ff" stroke="#63b8ff" points="342.42,-428.51 349.07,-420.25 338.73,-422.56 342.42,-428.51"/>
</a>
</g>
</g>
<!-- Node21 -->
<g id="Node000021" class="node">
<title>Node21</title>
<g id="a_Node000021"><a xlink:href="class_date_time.html#ac463d3a3129c42752cada995b102df8b" target="_top" xlink:title="Constructs a DateTime from day, month, year, hours, minutes, and seconds.">
<polygon fill="white" stroke="#666666" points="278,-438 170.5,-438 170.5,-418 278,-418 278,-438"/>
<text text-anchor="middle" x="224.25" y="-424.5" font-family="Helvetica,sans-Serif" font-size="10.00">DateTime::DateTime</text>
</a>
</g>
</g>
<!-- Node1&#45;&gt;Node21 -->
<g id="edge21_Node000001_Node000021" class="edge">
<title>Node1&#45;&gt;Node21</title>
<g id="a_edge21_Node000001_Node000021"><a xlink:title=" ">
<path fill="none" stroke="#63b8ff" d="M323.74,-414.7C309.44,-416.64 293.28,-418.82 278.25,-420.85"/>
<polygon fill="#63b8ff" stroke="#63b8ff" points="323.82,-418.23 333.26,-413.42 322.88,-411.29 323.82,-418.23"/>
</a>
</g>
</g>
<!-- Node22 -->
<g id="Node000022" class="node">
<title>Node22</title>
<g id="a_Node000022"><a xlink:href="class_date.html#af6f6b8a65ffabad43ac3994bc58634e0" target="_top" xlink:title="Gets the current date.">
<polygon fill="white" stroke="#666666" points="282.12,-884 166.38,-884 166.38,-864 282.12,-864 282.12,-884"/>
<text text-anchor="middle" x="224.25" y="-870.5" font-family="Helvetica,sans-Serif" font-size="10.00">Date::get_current_date</text>
</a>
</g>
</g>
<!-- Node1&#45;&gt;Node22 -->
<g id="edge22_Node000001_Node000022" class="edge">
<title>Node1&#45;&gt;Node22</title>
<g id="a_edge22_Node000001_Node000022"><a xlink:title=" ">
<path fill="none" stroke="#63b8ff" d="M364.44,-430.67C358.78,-504.81 337.64,-747.42 299,-814 286.16,-836.13 261.83,-853.46 244.63,-863.68"/>
<polygon fill="#63b8ff" stroke="#63b8ff" points="367.92,-430.95 365.18,-420.72 360.94,-430.43 367.92,-430.95"/>
</a>
</g>
</g>
<!-- Node27 -->
<g id="Node000027" class="node">
<title>Node27</title>
<g id="a_Node000027"><a xlink:href="class_date_time.html#a43209e7423046122f31a5ea4d06dfcf9" target="_top" xlink:title="Gets the date component of the DateTime.">
<polygon fill="white" stroke="#666666" points="275.38,-514 173.12,-514 173.12,-494 275.38,-494 275.38,-514"/>
<text text-anchor="middle" x="224.25" y="-500.5" font-family="Helvetica,sans-Serif" font-size="10.00">DateTime::get_date</text>
</a>
</g>
</g>
<!-- Node1&#45;&gt;Node27 -->
<g id="edge29_Node000001_Node000027" class="edge">
<title>Node1&#45;&gt;Node27</title>
<g id="a_edge29_Node000001_Node000027"><a xlink:title=" ">
<path fill="none" stroke="#63b8ff" d="M353.71,-428.62C341.81,-446 322.19,-470.78 299,-485 291.9,-489.36 283.83,-492.72 275.69,-495.31"/>
<polygon fill="#63b8ff" stroke="#63b8ff" points="356.39,-430.91 358.97,-420.63 350.55,-427.06 356.39,-430.91"/>
</a>
</g>
</g>
<!-- Node28 -->
<g id="Node000028" class="node">
<title>Node28</title>
<g id="a_Node000028"><a xlink:href="class_date.html#a05d75f0746a6fa8796c17666b900641e" target="_top" xlink:title="Gets the weekday for a given date.">
<polygon fill="white" stroke="#666666" points="299,-400 149.5,-400 149.5,-380 299,-380 299,-400"/>
<text text-anchor="middle" x="224.25" y="-386.5" font-family="Helvetica,sans-Serif" font-size="10.00">Date::get_weekday_from_date</text>
</a>
</g>
</g>
<!-- Node1&#45;&gt;Node28 -->
<g id="edge31_Node000001_Node000028" class="edge">
<title>Node1&#45;&gt;Node28</title>
<g id="a_edge31_Node000001_Node000028"><a xlink:title=" ">
<path fill="none" stroke="#63b8ff" d="M323.54,-403.27C315.84,-402.23 307.6,-401.12 299.3,-400"/>
<polygon fill="#63b8ff" stroke="#63b8ff" points="322.88,-406.71 333.26,-404.58 323.82,-399.77 322.88,-406.71"/>
</a>
</g>
</g>
<!-- Node29 -->
<g id="Node000029" class="node">
<title>Node29</title>
<g id="a_Node000029"><a xlink:href="class_date.html#aa50f7ad426d9b78c9c7fafb4c1a40aa7" target="_top" xlink:title="Compares two dates for inequality.">
<polygon fill="white" stroke="#666666" points="267.88,-362 180.62,-362 180.62,-342 267.88,-342 267.88,-362"/>
<text text-anchor="middle" x="224.25" y="-348.5" font-family="Helvetica,sans-Serif" font-size="10.00">Date::operator!=</text>
</a>
</g>
</g>
<!-- Node1&#45;&gt;Node29 -->
<g id="edge32_Node000001_Node000029" class="edge">
<title>Node1&#45;&gt;Node29</title>
<g id="a_edge32_Node000001_Node000029"><a xlink:title=" ">
<path fill="none" stroke="#63b8ff" d="M340.84,-392.63C328.59,-385.22 313.43,-376.83 299,-371 289.19,-367.04 278.31,-363.7 267.99,-360.97"/>
<polygon fill="#63b8ff" stroke="#63b8ff" points="338.73,-395.44 349.07,-397.75 342.42,-389.49 338.73,-395.44"/>
</a>
</g>
</g>
<!-- Node30 -->
<g id="Node000030" class="node">
<title>Node30</title>
<g id="a_Node000030"><a xlink:href="class_date.html#a9a4a7926b907077ca11c91e0d114593f" target="_top" xlink:title="Subtracts two dates.">
<polygon fill="white" stroke="#666666" points="264.88,-324 183.62,-324 183.62,-304 264.88,-304 264.88,-324"/>
<text text-anchor="middle" x="224.25" y="-310.5" font-family="Helvetica,sans-Serif" font-size="10.00">Date::operator&#45;</text>
</a>
</g>
</g>
<!-- Node1&#45;&gt;Node30 -->
<g id="edge33_Node000001_Node000030" class="edge">
<title>Node1&#45;&gt;Node30</title>
<g id="a_edge33_Node000001_Node000030"><a xlink:title=" ">
<path fill="none" stroke="#63b8ff" d="M353.71,-389.38C341.81,-372 322.19,-347.22 299,-333 288.86,-326.78 276.73,-322.58 265.27,-319.76"/>
<polygon fill="#63b8ff" stroke="#63b8ff" points="350.55,-390.94 358.97,-397.37 356.39,-387.09 350.55,-390.94"/>
</a>
</g>
</g>
<!-- Node31 -->
<g id="Node000031" class="node">
<title>Node31</title>
<g id="a_Node000031"><a xlink:href="class_date.html#accffb10f21653cea13ff0eac78852d3d" target="_top" xlink:title="Compares two dates for ordering.">
<polygon fill="white" stroke="#666666" points="266.38,-286 182.12,-286 182.12,-266 266.38,-266 266.38,-286"/>
<text text-anchor="middle" x="224.25" y="-272.5" font-family="Helvetica,sans-Serif" font-size="10.00">Date::operator&lt;</text>
</a>
</g>
</g>
<!-- Node1&#45;&gt;Node31 -->
<g id="edge34_Node000001_Node000031" class="edge">
<title>Node1&#45;&gt;Node31</title>
<g id="a_edge34_Node000001_Node000031"><a xlink:title=" ">
<path fill="none" stroke="#63b8ff" d="M359.24,-387.82C349.89,-361.95 330.5,-318.74 299,-295 289.71,-288 278.09,-283.56 266.84,-280.76"/>
<polygon fill="#63b8ff" stroke="#63b8ff" points="355.91,-388.88 362.45,-397.22 362.54,-386.62 355.91,-388.88"/>
</a>
</g>
</g>
<!-- Node32 -->
<g id="Node000032" class="node">
<title>Node32</title>
<g id="a_Node000032"><a xlink:href="class_date.html#a4c4ff6ff6215424fcec7bea646913a2d" target="_top" xlink:title="Outputs the date to a stream.">
<polygon fill="white" stroke="#666666" points="269.38,-248 179.12,-248 179.12,-228 269.38,-228 269.38,-248"/>
<text text-anchor="middle" x="224.25" y="-234.5" font-family="Helvetica,sans-Serif" font-size="10.00">Date::operator&lt;&lt;</text>
</a>
</g>
</g>
<!-- Node1&#45;&gt;Node32 -->
<g id="edge35_Node000001_Node000032" class="edge">
<title>Node1&#45;&gt;Node32</title>
<g id="a_edge35_Node000001_Node000032"><a xlink:title=" ">
<path fill="none" stroke="#63b8ff" d="M362.63,-387.6C356.28,-354.53 339.35,-291.26 299,-257 290.73,-249.98 280.2,-245.51 269.69,-242.68"/>
<polygon fill="#63b8ff" stroke="#63b8ff" points="359.14,-387.94 364.32,-397.18 366.03,-386.73 359.14,-387.94"/>
</a>
</g>
</g>
<!-- Node33 -->
<g id="Node000033" class="node">
<title>Node33</title>
<g id="a_Node000033"><a xlink:href="class_date.html#a56326220c79a04d4da216d6be3f14f57" target="_top" xlink:title="Compares two dates for ordering.">
<polygon fill="white" stroke="#666666" points="269.38,-210 179.12,-210 179.12,-190 269.38,-190 269.38,-210"/>
<text text-anchor="middle" x="224.25" y="-196.5" font-family="Helvetica,sans-Serif" font-size="10.00">Date::operator&lt;=</text>
</a>
</g>
</g>
<!-- Node1&#45;&gt;Node33 -->
<g id="edge36_Node000001_Node000033" class="edge">
<title>Node1&#45;&gt;Node33</title>
<g id="a_edge36_Node000001_Node000033"><a xlink:title=" ">
<path fill="none" stroke="#63b8ff" d="M364.75,-387.13C361.29,-347.59 348.22,-264.12 299,-219 290.91,-211.58 280.31,-206.98 269.69,-204.14"/>
<polygon fill="#63b8ff" stroke="#63b8ff" points="361.26,-387.3 365.48,-397.02 368.24,-386.79 361.26,-387.3"/>
</a>
</g>
</g>
<!-- Node34 -->
<g id="Node000034" class="node">
<title>Node34</title>
<g id="a_Node000034"><a xlink:href="class_date.html#ae78bfd03f0f7a6cc6aca180dee0ba33a" target="_top" xlink:title=" ">
<polygon fill="white" stroke="#666666" points="266.38,-172 182.12,-172 182.12,-152 266.38,-152 266.38,-172"/>
<text text-anchor="middle" x="224.25" y="-158.5" font-family="Helvetica,sans-Serif" font-size="10.00">Date::operator=</text>
</a>
</g>
</g>
<!-- Node1&#45;&gt;Node34 -->
<g id="edge37_Node000001_Node000034" class="edge">
<title>Node1&#45;&gt;Node34</title>
<g id="a_edge37_Node000001_Node000034"><a xlink:title=" ">
<path fill="none" stroke="#63b8ff" d="M366.27,-387.26C365.61,-342.07 357.44,-237.5 299,-181 290.26,-172.54 278.27,-167.71 266.5,-164.99"/>
<polygon fill="#63b8ff" stroke="#63b8ff" points="362.77,-387.07 366.29,-397.06 369.77,-387.06 362.77,-387.07"/>
</a>
</g>
</g>
<!-- Node35 -->
<g id="Node000035" class="node">
<title>Node35</title>
<g id="a_Node000035"><a xlink:href="class_date.html#ae53c268b4c21d9beabb9d71a3ec5932d" target="_top" xlink:title=" ">
<polygon fill="white" stroke="#666666" points="266.38,-134 182.12,-134 182.12,-114 266.38,-114 266.38,-134"/>
<text text-anchor="middle" x="224.25" y="-120.5" font-family="Helvetica,sans-Serif" font-size="10.00">Date::operator=</text>
</a>
</g>
</g>
<!-- Node1&#45;&gt;Node35 -->
<g id="edge38_Node000001_Node000035" class="edge">
<title>Node1&#45;&gt;Node35</title>
<g id="a_edge38_Node000001_Node000035"><a xlink:title=" ">
<path fill="none" stroke="#63b8ff" d="M363.43,-387.6C356.18,-330.77 333.81,-178 299,-143 290.42,-134.38 278.48,-129.5 266.71,-126.78"/>
<polygon fill="#63b8ff" stroke="#63b8ff" points="359.92,-387.76 364.63,-397.25 366.87,-386.9 359.92,-387.76"/>
</a>
</g>
</g>
<!-- Node36 -->
<g id="Node000036" class="node">
<title>Node36</title>
<g id="a_Node000036"><a xlink:href="class_date.html#a673f3c9086fb0643c907565df3463acc" target="_top" xlink:title="Compares two dates for equality.">
<polygon fill="white" stroke="#666666" points="269.38,-96 179.12,-96 179.12,-76 269.38,-76 269.38,-96"/>
<text text-anchor="middle" x="224.25" y="-82.5" font-family="Helvetica,sans-Serif" font-size="10.00">Date::operator==</text>
</a>
</g>
</g>
<!-- Node1&#45;&gt;Node36 -->
<g id="edge40_Node000001_Node000036" class="edge">
<title>Node1&#45;&gt;Node36</title>
<g id="a_edge40_Node000001_Node000036"><a xlink:title=" ">
<path fill="none" stroke="#63b8ff" d="M364.15,-387.48C358.34,-325.08 338.51,-145.92 299,-105 291.19,-96.91 280.44,-92.1 269.56,-89.28"/>
<polygon fill="#63b8ff" stroke="#63b8ff" points="360.63,-387.48 365.01,-397.12 367.6,-386.85 360.63,-387.48"/>
</a>
</g>
</g>
<!-- Node37 -->
<g id="Node000037" class="node">
<title>Node37</title>
<g id="a_Node000037"><a xlink:href="class_date.html#a7b73a2b2a5c2cf8434561332e83d7f95" target="_top" xlink:title="Compares two dates for ordering.">
<polygon fill="white" stroke="#666666" points="266.38,-58 182.12,-58 182.12,-38 266.38,-38 266.38,-58"/>
<text text-anchor="middle" x="224.25" y="-44.5" font-family="Helvetica,sans-Serif" font-size="10.00">Date::operator&gt;</text>
</a>
</g>
</g>
<!-- Node1&#45;&gt;Node37 -->
<g id="edge41_Node000001_Node000037" class="edge">
<title>Node1&#45;&gt;Node37</title>
<g id="a_edge41_Node000001_Node000037"><a xlink:title=" ">
<path fill="none" stroke="#63b8ff" d="M364.72,-387.51C360.27,-320 343.26,-113.94 299,-67 290.56,-58.05 278.52,-53.1 266.61,-50.42"/>
<polygon fill="#63b8ff" stroke="#63b8ff" points="361.21,-387.48 365.33,-397.24 368.2,-387.04 361.21,-387.48"/>
</a>
</g>
</g>
<!-- Node38 -->
<g id="Node000038" class="node">
<title>Node38</title>
<g id="a_Node000038"><a xlink:href="class_date.html#aa3cbe8bfdc0bfd9e95bc33f500f502d7" target="_top" xlink:title="Compares two dates for ordering.">
<polygon fill="white" stroke="#666666" points="269.38,-20 179.12,-20 179.12,0 269.38,0 269.38,-20"/>
<text text-anchor="middle" x="224.25" y="-6.5" font-family="Helvetica,sans-Serif" font-size="10.00">Date::operator&gt;=</text>
</a>
</g>
</g>
<!-- Node1&#45;&gt;Node38 -->
<g id="edge42_Node000001_Node000038" class="edge">
<title>Node1&#45;&gt;Node38</title>
<g id="a_edge42_Node000001_Node000038"><a xlink:title=" ">
<path fill="none" stroke="#63b8ff" d="M365.18,-387.51C362,-315.16 348.03,-82 299,-29 291.37,-20.75 280.67,-15.88 269.79,-13.06"/>
<polygon fill="#63b8ff" stroke="#63b8ff" points="361.67,-387.37 365.58,-397.22 368.67,-387.08 361.67,-387.37"/>
</a>
</g>
</g>
<!-- Node5 -->
<g id="Node000005" class="node">
<title>Node5</title>
<g id="a_Node000005"><a xlink:href="class_date_time.html#afe2a93ac0deff24cd64b1df19b8e609d" target="_top" xlink:title=" ">
<polygon fill="white" stroke="#666666" points="110.5,-514 3,-514 3,-494 110.5,-494 110.5,-514"/>
<text text-anchor="middle" x="56.75" y="-500.5" font-family="Helvetica,sans-Serif" font-size="10.00">DateTime::DateTime</text>
</a>
</g>
</g>
<!-- Node4&#45;&gt;Node5 -->
<g id="edge4_Node000004_Node000005" class="edge">
<title>Node4&#45;&gt;Node5</title>
<g id="a_edge4_Node000004_Node000005"><a xlink:title=" ">
<path fill="none" stroke="#63b8ff" d="M162.4,-602.7C157.78,-600.22 153.4,-597.34 149.5,-594 122.62,-570.99 140.22,-546.2 113.5,-523 109.56,-519.58 104.98,-516.77 100.17,-514.46"/>
<polygon fill="#63b8ff" stroke="#63b8ff" points="160.91,-605.87 171.46,-606.88 163.85,-599.51 160.91,-605.87"/>
</a>
</g>
</g>
<!-- Node4&#45;&gt;Node6 -->
<g id="edge5_Node000004_Node000006" class="edge">
<title>Node4&#45;&gt;Node6</title>
<g id="a_edge5_Node000004_Node000006"><a xlink:title=" ">
<path fill="none" stroke="#63b8ff" d="M195.3,-634.55C179.84,-644.98 161.41,-659.72 149.5,-677 119.83,-720.05 150.15,-751.71 113.5,-789 110.13,-792.43 106.12,-795.24 101.82,-797.54"/>
<polygon fill="#63b8ff" stroke="#63b8ff" points="197.15,-637.52 203.66,-629.15 193.36,-631.64 197.15,-637.52"/>
</a>
</g>
</g>
<!-- Node7 -->
<g id="Node000007" class="node">
<title>Node7</title>
<g id="a_Node000007"><a xlink:href="class_date_time.html#a4543e8fa355d1f18d63d1b3c62008643" target="_top" xlink:title=" ">
<polygon fill="white" stroke="#666666" points="110.5,-476 3,-476 3,-456 110.5,-456 110.5,-476"/>
<text text-anchor="middle" x="56.75" y="-462.5" font-family="Helvetica,sans-Serif" font-size="10.00">DateTime::DateTime</text>
</a>
</g>
</g>
<!-- Node4&#45;&gt;Node7 -->
<g id="edge6_Node000004_Node000007" class="edge">
<title>Node4&#45;&gt;Node7</title>
<g id="a_edge6_Node000004_Node000007"><a xlink:title=" ">
<path fill="none" stroke="#63b8ff" d="M160.15,-602.31C156.29,-599.92 152.68,-597.17 149.5,-594 113.35,-558 149.4,-521.25 113.5,-485 110.12,-481.59 106.1,-478.78 101.79,-476.49"/>
<polygon fill="#63b8ff" stroke="#63b8ff" points="158.37,-605.32 168.85,-606.83 161.59,-599.11 158.37,-605.32"/>
</a>
</g>
</g>
<!-- Node4&#45;&gt;Node8 -->
<g id="edge7_Node000004_Node000008" class="edge">
<title>Node4&#45;&gt;Node8</title>
<g id="a_edge7_Node000004_Node000008"><a xlink:title=" ">
<path fill="none" stroke="#63b8ff" d="M217.32,-639.03C204.71,-680.26 171.54,-772.45 113.5,-827 110.1,-830.2 106.22,-833.03 102.13,-835.54"/>
<polygon fill="#63b8ff" stroke="#63b8ff" points="220.62,-640.21 220.09,-629.63 213.91,-638.24 220.62,-640.21"/>
</a>
</g>
</g>
<!-- Node9 -->
<g id="Node000009" class="node">
<title>Node9</title>
<g id="a_Node000009"><a xlink:href="class_date_time.html#a51f32ed09628f68882c158c066ceab95" target="_top" xlink:title="Compares two DateTime objects for inequality.">
<polygon fill="white" stroke="#666666" points="111.25,-438 2.25,-438 2.25,-418 111.25,-418 111.25,-438"/>
<text text-anchor="middle" x="56.75" y="-424.5" font-family="Helvetica,sans-Serif" font-size="10.00">DateTime::operator!=</text>
</a>
</g>
</g>
<!-- Node4&#45;&gt;Node9 -->
<g id="edge8_Node000004_Node000009" class="edge">
<title>Node4&#45;&gt;Node9</title>
<g id="a_edge8_Node000004_Node000009"><a xlink:title=" ">
<path fill="none" stroke="#63b8ff" d="M160.05,-602.71C156.18,-600.23 152.61,-597.35 149.5,-594 103.74,-544.7 158.92,-496.62 113.5,-447 110.32,-443.53 106.49,-440.69 102.34,-438.38"/>
<polygon fill="#63b8ff" stroke="#63b8ff" points="158.36,-605.77 168.83,-607.37 161.64,-599.59 158.36,-605.77"/>
</a>
</g>
</g>
<!-- Node10 -->
<g id="Node000010" class="node">
<title>Node10</title>
<g id="a_Node000010"><a xlink:href="class_date_time.html#a84ad139b8b85ab9bc76ba68d8572128d" target="_top" xlink:title="Compares two DateTime objects for ordering.">
<polygon fill="white" stroke="#666666" points="109.75,-780 3.75,-780 3.75,-760 109.75,-760 109.75,-780"/>
<text text-anchor="middle" x="56.75" y="-766.5" font-family="Helvetica,sans-Serif" font-size="10.00">DateTime::operator&lt;</text>
</a>
</g>
</g>
<!-- Node4&#45;&gt;Node10 -->
<g id="edge9_Node000004_Node000010" class="edge">
<title>Node4&#45;&gt;Node10</title>
<g id="a_edge9_Node000004_Node000010"><a xlink:title=" ">
<path fill="none" stroke="#63b8ff" d="M196.77,-634.81C181.51,-645.49 162.77,-660.4 149.5,-677 126.66,-705.57 140.92,-726.79 113.5,-751 109.59,-754.45 105.03,-757.28 100.22,-759.6"/>
<polygon fill="#63b8ff" stroke="#63b8ff" points="198.64,-637.77 204.96,-629.27 194.72,-631.97 198.64,-637.77"/>
</a>
</g>
</g>
<!-- Node11 -->
<g id="Node000011" class="node">
<title>Node11</title>
<g id="a_Node000011"><a xlink:href="class_date_time.html#a4428b32e7ec538b2fee1bfcf5f377f45" target="_top" xlink:title="Outputs the DateTime to a stream.">
<polygon fill="white" stroke="#666666" points="112.75,-742 0.75,-742 0.75,-722 112.75,-722 112.75,-742"/>
<text text-anchor="middle" x="56.75" y="-728.5" font-family="Helvetica,sans-Serif" font-size="10.00">DateTime::operator&lt;&lt;</text>
</a>
</g>
</g>
<!-- Node4&#45;&gt;Node11 -->
<g id="edge10_Node000004_Node000011" class="edge">
<title>Node4&#45;&gt;Node11</title>
<g id="a_edge10_Node000004_Node000011"><a xlink:title=" ">
<path fill="none" stroke="#63b8ff" d="M200.3,-635.31C185.47,-646.75 165.94,-662.29 149.5,-677 132.64,-692.09 132.71,-701.04 113.5,-713 108.12,-716.35 102.07,-719.19 96,-721.58"/>
<polygon fill="#63b8ff" stroke="#63b8ff" points="202.27,-638.21 208.08,-629.35 198.01,-632.65 202.27,-638.21"/>
</a>
</g>
</g>
<!-- Node12 -->
<g id="Node000012" class="node">
<title>Node12</title>
<g id="a_Node000012"><a xlink:href="class_date_time.html#a22d5c14577a0faf951150374cd760722" target="_top" xlink:title="Compares two DateTime objects for ordering.">
<polygon fill="white" stroke="#666666" points="112.75,-704 0.75,-704 0.75,-684 112.75,-684 112.75,-704"/>
<text text-anchor="middle" x="56.75" y="-690.5" font-family="Helvetica,sans-Serif" font-size="10.00">DateTime::operator&lt;=</text>
</a>
</g>
</g>
<!-- Node4&#45;&gt;Node12 -->
<g id="edge11_Node000004_Node000012" class="edge">
<title>Node4&#45;&gt;Node12</title>
<g id="a_edge11_Node000004_Node000012"><a xlink:title=" ">
<path fill="none" stroke="#63b8ff" d="M195.5,-633.9C173.64,-646.05 142.18,-662.75 113.5,-675 106.35,-678.05 98.54,-680.97 91.08,-683.56"/>
<polygon fill="#63b8ff" stroke="#63b8ff" points="197.08,-637.03 204.08,-629.08 193.65,-630.92 197.08,-637.03"/>
</a>
</g>
</g>
<!-- Node13 -->
<g id="Node000013" class="node">
<title>Node13</title>
<g id="a_Node000013"><a xlink:href="class_date_time.html#a1d8c5ba265c329af73368e6d1e9534f1" target="_top" xlink:title=" ">
<polygon fill="white" stroke="#666666" points="109.75,-666 3.75,-666 3.75,-646 109.75,-646 109.75,-666"/>
<text text-anchor="middle" x="56.75" y="-652.5" font-family="Helvetica,sans-Serif" font-size="10.00">DateTime::operator=</text>
</a>
</g>
</g>
<!-- Node4&#45;&gt;Node13 -->
<g id="edge12_Node000004_Node000013" class="edge">
<title>Node4&#45;&gt;Node13</title>
<g id="a_edge12_Node000004_Node000013"><a xlink:title=" ">
<path fill="none" stroke="#63b8ff" d="M166.41,-631.05C145.79,-635.78 122.78,-641.07 103.26,-645.55"/>
<polygon fill="#63b8ff" stroke="#63b8ff" points="167.15,-634.47 176.11,-628.82 165.58,-627.65 167.15,-634.47"/>
</a>
</g>
</g>
<!-- Node4&#45;&gt;Node14 -->
<g id="edge13_Node000004_Node000014" class="edge">
<title>Node4&#45;&gt;Node14</title>
<g id="a_edge13_Node000004_Node000014"><a xlink:title=" ">
<path fill="none" stroke="#63b8ff" d="M160.39,-603.21C156.36,-600.62 152.66,-597.57 149.5,-594 94,-531.26 168.56,-472.13 113.5,-409 110.48,-405.53 106.79,-402.7 102.77,-400.38"/>
<polygon fill="#63b8ff" stroke="#63b8ff" points="158.48,-606.16 168.95,-607.77 161.77,-599.98 158.48,-606.16"/>
</a>
</g>
</g>
<!-- Node15 -->
<g id="Node000015" class="node">
<title>Node15</title>
<g id="a_Node000015"><a xlink:href="class_date_time.html#ad9d8f56c70bec30f6a72afb181ac9933" target="_top" xlink:title="Compares two DateTime objects for equality.">
<polygon fill="white" stroke="#666666" points="112.75,-628 0.75,-628 0.75,-608 112.75,-608 112.75,-628"/>
<text text-anchor="middle" x="56.75" y="-614.5" font-family="Helvetica,sans-Serif" font-size="10.00">DateTime::operator==</text>
</a>
</g>
</g>
<!-- Node4&#45;&gt;Node15 -->
<g id="edge14_Node000004_Node000015" class="edge">
<title>Node4&#45;&gt;Node15</title>
<g id="a_edge14_Node000004_Node000015"><a xlink:title=" ">
<path fill="none" stroke="#63b8ff" d="M159.06,-618C143.93,-618 127.92,-618 113.21,-618"/>
<polygon fill="#63b8ff" stroke="#63b8ff" points="158.92,-621.5 168.92,-618 158.92,-614.5 158.92,-621.5"/>
</a>
</g>
</g>
<!-- Node16 -->
<g id="Node000016" class="node">
<title>Node16</title>
<g id="a_Node000016"><a xlink:href="class_date_time.html#a1e7c3917dce4c94bd45b0654c6eb0e58" target="_top" xlink:title="Compares two DateTime objects for ordering.">
<polygon fill="white" stroke="#666666" points="109.75,-590 3.75,-590 3.75,-570 109.75,-570 109.75,-590"/>
<text text-anchor="middle" x="56.75" y="-576.5" font-family="Helvetica,sans-Serif" font-size="10.00">DateTime::operator&gt;</text>
</a>
</g>
</g>
<!-- Node4&#45;&gt;Node16 -->
<g id="edge15_Node000004_Node000016" class="edge">
<title>Node4&#45;&gt;Node16</title>
<g id="a_edge15_Node000004_Node000016"><a xlink:title=" ">
<path fill="none" stroke="#63b8ff" d="M166.41,-604.95C145.79,-600.22 122.78,-594.93 103.26,-590.45"/>
<polygon fill="#63b8ff" stroke="#63b8ff" points="165.58,-608.35 176.11,-607.18 167.15,-601.53 165.58,-608.35"/>
</a>
</g>
</g>
<!-- Node17 -->
<g id="Node000017" class="node">
<title>Node17</title>
<g id="a_Node000017"><a xlink:href="class_date_time.html#af4350196c94c845c21893ab0286f80ed" target="_top" xlink:title="Compares two DateTime objects for ordering.">
<polygon fill="white" stroke="#666666" points="112.75,-552 0.75,-552 0.75,-532 112.75,-532 112.75,-552"/>
<text text-anchor="middle" x="56.75" y="-538.5" font-family="Helvetica,sans-Serif" font-size="10.00">DateTime::operator&gt;=</text>
</a>
</g>
</g>
<!-- Node4&#45;&gt;Node17 -->
<g id="edge16_Node000004_Node000017" class="edge">
<title>Node4&#45;&gt;Node17</title>
<g id="a_edge16_Node000004_Node000017"><a xlink:title=" ">
<path fill="none" stroke="#63b8ff" d="M170.12,-603.77C162.97,-600.98 155.91,-597.74 149.5,-594 130.75,-583.06 132.17,-572.07 113.5,-561 107.87,-557.66 101.57,-554.81 95.29,-552.4"/>
<polygon fill="#63b8ff" stroke="#63b8ff" points="168.55,-606.92 179.14,-607.01 170.92,-600.33 168.55,-606.92"/>
</a>
</g>
</g>
<!-- Node4&#45;&gt;Node18 -->
<g id="edge17_Node000004_Node000018" class="edge">
<title>Node4&#45;&gt;Node18</title>
<g id="a_edge17_Node000004_Node000018"><a xlink:title=" ">
<path fill="none" stroke="#63b8ff" d="M195.26,-601.35C179.38,-590.44 160.53,-574.74 149.5,-556 107.01,-483.81 168.56,-434.13 113.5,-371 110.48,-367.53 106.79,-364.7 102.77,-362.38"/>
<polygon fill="#63b8ff" stroke="#63b8ff" points="193.12,-604.13 203.4,-606.68 196.95,-598.27 193.12,-604.13"/>
</a>
</g>
</g>
<!-- Node19 -->
<g id="Node000019" class="node">
<title>Node19</title>
<g id="a_Node000019"><a xlink:href="class_date_time.html#abf0654f5c1fba759d370cc4ac99b4dca" target="_top" xlink:title="Sets the time component of the DateTime.">
<polygon fill="white" stroke="#666666" points="107.88,-324 5.62,-324 5.62,-304 107.88,-304 107.88,-324"/>
<text text-anchor="middle" x="56.75" y="-310.5" font-family="Helvetica,sans-Serif" font-size="10.00">DateTime::set_time</text>
</a>
</g>
</g>
<!-- Node4&#45;&gt;Node19 -->
<g id="edge18_Node000004_Node000019" class="edge">
<title>Node4&#45;&gt;Node19</title>
<g id="a_edge18_Node000004_Node000019"><a xlink:title=" ">
<path fill="none" stroke="#63b8ff" d="M204.83,-599.86C187.75,-581.94 163,-552.93 149.5,-523 114.16,-444.65 169.83,-397.91 113.5,-333 110.48,-329.52 106.81,-326.68 102.79,-324.36"/>
<polygon fill="#63b8ff" stroke="#63b8ff" points="201.96,-601.94 211.45,-606.65 206.97,-597.05 201.96,-601.94"/>
</a>
</g>
</g>
<!-- Node22&#45;&gt;Node8 -->
<g id="edge26_Node000022_Node000008" class="edge">
<title>Node22&#45;&gt;Node8</title>
<g id="a_edge26_Node000022_Node000008"><a xlink:title=" ">
<path fill="none" stroke="#63b8ff" d="M154.99,-864.93C141.35,-863.11 127.16,-861.23 113.97,-859.47"/>
<polygon fill="#63b8ff" stroke="#63b8ff" points="154.42,-868.38 164.79,-866.23 155.34,-861.44 154.42,-868.38"/>
</a>
</g>
</g>
<!-- Node23 -->
<g id="Node000023" class="node">
<title>Node23</title>
<g id="a_Node000023"><a xlink:href="class_database.html#a14779910c7ac1a1265fce5a1ea3a4ef3" target="_top" xlink:title="Filters children by age.">
<polygon fill="white" stroke="#666666" points="110.88,-956 2.62,-956 2.62,-924 110.88,-924 110.88,-956"/>
<text text-anchor="start" x="10.62" y="-942.5" font-family="Helvetica,sans-Serif" font-size="10.00">Database::filter_child</text>
<text text-anchor="middle" x="56.75" y="-930.5" font-family="Helvetica,sans-Serif" font-size="10.00">_by_age</text>
</a>
</g>
</g>
<!-- Node22&#45;&gt;Node23 -->
<g id="edge23_Node000022_Node000023" class="edge">
<title>Node22&#45;&gt;Node23</title>
<g id="a_edge23_Node000022_Node000023"><a xlink:title=" ">
<path fill="none" stroke="#63b8ff" d="M163.18,-887.87C158.49,-889.44 153.88,-891.14 149.5,-893 132.23,-900.31 130.09,-906.26 113.5,-915 107.96,-917.92 102.02,-920.82 96.15,-923.56"/>
<polygon fill="#63b8ff" stroke="#63b8ff" points="164.21,-891.21 172.73,-884.91 162.14,-884.53 164.21,-891.21"/>
</a>
</g>
</g>
<!-- Node24 -->
<g id="Node000024" class="node">
<title>Node24</title>
<g id="a_Node000024"><a xlink:href="class_child.html#a3fd2bc6c1cf2fec625e50a5ea1110309" target="_top" xlink:title="Gets the age of the child.">
<polygon fill="white" stroke="#666666" points="96.25,-906 17.25,-906 17.25,-886 96.25,-886 96.25,-906"/>
<text text-anchor="middle" x="56.75" y="-892.5" font-family="Helvetica,sans-Serif" font-size="10.00">Child::get_age</text>
</a>
</g>
</g>
<!-- Node22&#45;&gt;Node24 -->
<g id="edge24_Node000022_Node000024" class="edge">
<title>Node22&#45;&gt;Node24</title>
<g id="a_edge24_Node000022_Node000024"><a xlink:title=" ">
<path fill="none" stroke="#63b8ff" d="M155.05,-883.07C135.11,-885.72 114.01,-888.52 96.58,-890.84"/>
<polygon fill="#63b8ff" stroke="#63b8ff" points="155.34,-886.56 164.79,-881.77 154.42,-879.62 155.34,-886.56"/>
</a>
</g>
</g>
<!-- Node25 -->
<g id="Node000025" class="node">
<title>Node25</title>
<g id="a_Node000025"><a xlink:href="class_lesson.html#a427324e7b5f927653e6c1aba13734e62" target="_top" xlink:title="Gets the list of children based on their payment status.">
<polygon fill="white" stroke="#666666" points="109.75,-1056 3.75,-1056 3.75,-1024 109.75,-1024 109.75,-1056"/>
<text text-anchor="start" x="11.75" y="-1042.5" font-family="Helvetica,sans-Serif" font-size="10.00">Lesson::get_children</text>
<text text-anchor="middle" x="56.75" y="-1030.5" font-family="Helvetica,sans-Serif" font-size="10.00">_payment</text>
</a>
</g>
</g>
<!-- Node22&#45;&gt;Node25 -->
<g id="edge25_Node000022_Node000025" class="edge">
<title>Node22&#45;&gt;Node25</title>
<g id="a_edge25_Node000022_Node000025"><a xlink:title=" ">
<path fill="none" stroke="#63b8ff" d="M156.24,-887.57C153.84,-889.19 151.58,-890.99 149.5,-893 108.84,-932.27 150.7,-972.43 113.5,-1015 110.64,-1018.28 107.26,-1021.14 103.61,-1023.65"/>
<polygon fill="#63b8ff" stroke="#63b8ff" points="157.66,-890.78 164.75,-882.91 154.3,-884.64 157.66,-890.78"/>
</a>
</g>
</g>
<!-- Node26 -->
<g id="Node000026" class="node">
<title>Node26</title>
<g id="a_Node000026"><a xlink:href="class_lesson.html#a3a5c07996258d819acd54d057d650b47" target="_top" xlink:title="Marks a child as having paid for the lesson.">
<polygon fill="white" stroke="#666666" points="109.75,-1006 3.75,-1006 3.75,-974 109.75,-974 109.75,-1006"/>
<text text-anchor="start" x="11.75" y="-992.5" font-family="Helvetica,sans-Serif" font-size="10.00">Lesson::set_child_to</text>
<text text-anchor="middle" x="56.75" y="-980.5" font-family="Helvetica,sans-Serif" font-size="10.00">_payed</text>
</a>
</g>
</g>
<!-- Node22&#45;&gt;Node26 -->
<g id="edge27_Node000022_Node000026" class="edge">
<title>Node22&#45;&gt;Node26</title>
<g id="a_edge27_Node000022_Node000026"><a xlink:title=" ">
<path fill="none" stroke="#63b8ff" d="M155.85,-888.54C153.63,-889.9 151.51,-891.38 149.5,-893 121.67,-915.49 139.33,-940.24 113.5,-965 110.13,-968.23 106.27,-971.09 102.19,-973.61"/>
<polygon fill="#63b8ff" stroke="#63b8ff" points="157.4,-891.68 164.73,-884.03 154.23,-885.44 157.4,-891.68"/>
</a>
</g>
</g>
<!-- Node27&#45;&gt;Node19 -->
<g id="edge30_Node000027_Node000019" class="edge">
<title>Node27&#45;&gt;Node19</title>
<g id="a_edge30_Node000027_Node000019"><a xlink:title=" ">
<path fill="none" stroke="#63b8ff" d="M162.59,-494.49C157.76,-491.98 153.29,-488.87 149.5,-485 100.89,-435.43 160.18,-384.39 113.5,-333 110.34,-329.52 106.51,-326.67 102.36,-324.35"/>
<polygon fill="#63b8ff" stroke="#63b8ff" points="160.94,-497.59 171.51,-498.24 163.65,-491.14 160.94,-497.59"/>
</a>
</g>
</g>
</g>
</svg>

<g id="navigator" transform="translate(0 0)" fill="#404254">
  <rect fill="#f2f5e9" fill-opacity="0.5" stroke="#606060" stroke-width=".5" x="0" y="0" width="60" height="60"/>
  <use id="zoomplus" xlink:href="#zoomPlus" x="17" y="9" onmousedown="handleZoom(evt,'in')"/>
  <use id="zoomminus" xlink:href="#zoomMin" x="42" y="9" onmousedown="handleZoom(evt,'out')"/>
  <use id="reset" xlink:href="#resetDef" x="30" y="36" onmousedown="handleReset()"/>
   <use id="arrowup" xlink:href="#arrowUp" x="0" y="0" onmousedown="handlePan(0,-1)"/>
  <use id="arrowright" xlink:href="#arrowRight" x="0" y="0" onmousedown="handlePan(1,0)"/>
  <use id="arrowdown" xlink:href="#arrowDown" x="0" y="0" onmousedown="handlePan(0,1)"/>
  <use id="arrowleft" xlink:href="#arrowLeft" x="0" y="0" onmousedown="handlePan(-1,0)"/>
</g>
<svg viewBox="0 0 15 15" width="100%" height="30px" preserveAspectRatio="xMaxYMin meet">
 <g id="arrow_out" transform="scale(0.3 0.3)">
  <a xlink:href="class_date_a19cb325d7fc9e143f9095e7eadc8a1a4_icgraph_org.svg" target="_base">
   <rect id="button" ry="5" rx="5" y="6" x="6" height="38" width="38"
        fill="#f2f5e9" fill-opacity="0.5" stroke="#606060" stroke-width="1.0"/>
   <path id="arrow"
     d="M 11.500037,31.436501 C 11.940474,20.09759 22.043105,11.32322 32.158766,21.979434 L 37.068811,17.246167 C 37.068811,17.246167 37.088388,32 37.088388,32 L 22.160133,31.978069 C 22.160133,31.978069 26.997745,27.140456 26.997745,27.140456 C 18.528582,18.264221 13.291696,25.230495 11.500037,31.436501 z"
     style="fill:#404040;"/>
  </a>
 </g>
</svg>

<style type='text/css'>
<![CDATA[
[data-mouse-over-selected='false'] { opacity: 0.7; }
[data-mouse-over-selected='true']  { opacity: 1.0; }
]]>
</style>
<script type="application/ecmascript"><![CDATA[
document.addEventListener('DOMContentLoaded', (event) => {
  highlightEdges();
  highlightAdjacentNodes();
});
]]></script>
</svg>
