<?xml version="1.0" encoding="UTF-8" standalone="no"?>
<!DOCTYPE svg PUBLIC "-//W3C//DTD SVG 1.1//EN"
 "http://www.w3.org/Graphics/SVG/1.1/DTD/svg11.dtd">
<!-- Generated by graphviz version 12.2.1 (20241206.2353)
 -->
<!-- Title: Lesson::get_children Pages: 1 -->
<svg width="435pt" height="90pt"
 viewBox="0.00 0.00 434.75 90.00" xmlns="http://www.w3.org/2000/svg" xmlns:xlink="http://www.w3.org/1999/xlink">
<g id="graph0" class="graph" transform="scale(1 1) rotate(0) translate(4 86)">
<title>Lesson::get_children</title>
<!-- Node1 -->
<g id="Node000001" class="node">
<title>Node1</title>
<g id="a_Node000001"><a xlink:title="Gets the list of children participating in the lesson.">
<polygon fill="#999999" stroke="#666666" points="426.75,-51 320.75,-51 320.75,-31 426.75,-31 426.75,-51"/>
<text text-anchor="middle" x="373.75" y="-37.5" font-family="Helvetica,sans-Serif" font-size="10.00">Lesson::get_children</text>
</a>
</g>
</g>
<!-- Node2 -->
<g id="Node000002" class="node">
<title>Node2</title>
<g id="a_Node000002"><a xlink:href="class_database.html#ad8e7c7035665c903a8a34b5dbff4e2a6" target="_top" xlink:title="Filters lessons by a child&#39;s name.">
<polygon fill="white" stroke="#666666" points="284.75,-82 168.25,-82 168.25,-50 284.75,-50 284.75,-82"/>
<text text-anchor="start" x="176.25" y="-68.5" font-family="Helvetica,sans-Serif" font-size="10.00">Database::filter_lesson</text>
<text text-anchor="middle" x="226.5" y="-56.5" font-family="Helvetica,sans-Serif" font-size="10.00">_by_child_name</text>
</a>
</g>
</g>
<!-- Node1&#45;&gt;Node2 -->
<g id="edge1_Node000001_Node000002" class="edge">
<title>Node1&#45;&gt;Node2</title>
<g id="a_edge1_Node000001_Node000002"><a xlink:title=" ">
<path fill="none" stroke="#63b8ff" d="M309.04,-51.97C300.96,-53.36 292.74,-54.77 284.78,-56.14"/>
<polygon fill="#63b8ff" stroke="#63b8ff" points="309.56,-55.43 318.82,-50.28 308.37,-48.53 309.56,-55.43"/>
</a>
</g>
</g>
<!-- Node4 -->
<g id="Node000004" class="node">
<title>Node4</title>
<g id="a_Node000004"><a xlink:href="class_database.html#abcc5c80902d844addb9fe92b8524976a" target="_top" xlink:title="Filters lessons by a child&#39;s surname.">
<polygon fill="white" stroke="#666666" points="284.75,-32 168.25,-32 168.25,0 284.75,0 284.75,-32"/>
<text text-anchor="start" x="176.25" y="-18.5" font-family="Helvetica,sans-Serif" font-size="10.00">Database::filter_lesson</text>
<text text-anchor="middle" x="226.5" y="-6.5" font-family="Helvetica,sans-Serif" font-size="10.00">_by_child_surname</text>
</a>
</g>
</g>
<!-- Node1&#45;&gt;Node4 -->
<g id="edge3_Node000001_Node000004" class="edge">
<title>Node1&#45;&gt;Node4</title>
<g id="a_edge3_Node000001_Node000004"><a xlink:title=" ">
<path fill="none" stroke="#63b8ff" d="M309.04,-30.03C300.96,-28.64 292.74,-27.23 284.78,-25.86"/>
<polygon fill="#63b8ff" stroke="#63b8ff" points="308.37,-33.47 318.82,-31.72 309.56,-26.57 308.37,-33.47"/>
</a>
</g>
</g>
<!-- Node3 -->
<g id="Node000003" class="node">
<title>Node3</title>
<g id="a_Node000003"><a xlink:href="class_database.html#a2474f58dd1a17687fe4bc21afb26b830" target="_top" xlink:title="Imports data from a CSV file.">
<polygon fill="white" stroke="#666666" points="132.25,-57 0,-57 0,-25 132.25,-25 132.25,-57"/>
<text text-anchor="start" x="8" y="-43.5" font-family="Helvetica,sans-Serif" font-size="10.00">Database::search_lessons</text>
<text text-anchor="middle" x="66.12" y="-31.5" font-family="Helvetica,sans-Serif" font-size="10.00">_by_child_name_surname</text>
</a>
</g>
</g>
<!-- Node2&#45;&gt;Node3 -->
<g id="edge2_Node000002_Node000003" class="edge">
<title>Node2&#45;&gt;Node3</title>
<g id="a_edge2_Node000002_Node000003"><a xlink:title=" ">
<path fill="none" stroke="#63b8ff" d="M156.66,-55.13C148.63,-53.87 140.46,-52.58 132.49,-51.32"/>
<polygon fill="#63b8ff" stroke="#63b8ff" points="155.96,-58.57 166.38,-56.67 157.05,-51.65 155.96,-58.57"/>
</a>
</g>
</g>
<!-- Node4&#45;&gt;Node3 -->
<g id="edge4_Node000004_Node000003" class="edge">
<title>Node4&#45;&gt;Node3</title>
<g id="a_edge4_Node000004_Node000003"><a xlink:title=" ">
<path fill="none" stroke="#63b8ff" d="M156.66,-26.87C148.63,-28.13 140.46,-29.42 132.49,-30.68"/>
<polygon fill="#63b8ff" stroke="#63b8ff" points="157.05,-30.35 166.38,-25.33 155.96,-23.43 157.05,-30.35"/>
</a>
</g>
</g>
</g>
</svg>
