<?xml version="1.0" encoding="UTF-8" standalone="no"?>
<!DOCTYPE svg PUBLIC "-//W3C//DTD SVG 1.1//EN"
 "http://www.w3.org/Graphics/SVG/1.1/DTD/svg11.dtd">
<!-- Generated by graphviz version 12.2.1 (20241206.2353)
 -->
<!-- Title: DataBaseGUI::employee_edit Pages: 1 -->
<!--zoomable 166 -->

<svg id="main" version="1.1" xmlns="http://www.w3.org/2000/svg" xmlns:xlink="http://www.w3.org/1999/xlink" xml:space="preserve" onload="init(evt)">

<style type="text/css"><![CDATA[
.node, .edge {opacity: 0.7;}
.node.selected, .edge.selected {opacity: 1;}
.edge:hover path { stroke: red; }
.edge:hover polygon { stroke: red; fill: red; }
]]></style>

<defs>
  <circle id="rim" cx="0" cy="0" r="7"/>
  <circle id="rim2" cx="0" cy="0" r="3.5"/>
  <g id="zoomPlus">
    <use xlink:href="#rim" fill="#404040"><set attributeName="fill" to="#808080" begin="zoomplus.mouseover" end="zoomplus.mouseout"/></use>
    <path d="M-4,0h8M0,-4v8" fill="none" stroke="white" stroke-width="1.5" pointer-events="none"/>
  </g>
  <g id="zoomMin">
    <use xlink:href="#rim" fill="#404040"><set attributeName="fill" to="#808080" begin="zoomminus.mouseover" end="zoomminus.mouseout"/></use>
    <path d="M-4,0h8" fill="none" stroke="white" stroke-width="1.5" pointer-events="none"/>
  </g>
  <g id="arrowUp" transform="translate(30 24)">
    <use xlink:href="#rim"/>
    <path pointer-events="none" fill="none" stroke="white" stroke-width="1.5" d="M0,-3.0v7 M-2.5,-0.5L0,-3.0L2.5,-0.5"/>
  </g>
  <g id="arrowRight" transform="rotate(90) translate(36 -43)">
    <use xlink:href="#rim"/>
    <path pointer-events="none" fill="none" stroke="white" stroke-width="1.5" d="M0,-3.0v7 M-2.5,-0.5L0,-3.0L2.5,-0.5"/>
  </g>
  <g id="arrowDown" transform="rotate(180) translate(-30 -48)">
    <use xlink:href="#rim"/>
    <path pointer-events="none" fill="none" stroke="white" stroke-width="1.5" d="M0,-3.0v7 M-2.5,-0.5L0,-3.0L2.5,-0.5"/>
  </g>
  <g id="arrowLeft" transform="rotate(270) translate(-36 17)">
    <use xlink:href="#rim"/>
    <path pointer-events="none" fill="none" stroke="white" stroke-width="1.5" d="M0,-3.0v7 M-2.5,-0.5L0,-3.0L2.5,-0.5"/>
  </g>
  <g id="resetDef">
    <use xlink:href="#rim2" fill="#404040"><set attributeName="fill" to="#808080" begin="reset.mouseover" end="reset.mouseout"/></use>
  </g>
</defs>
<script type="application/ecmascript">
var viewWidth = 675;
var viewHeight = 166;
var sectionId = 'dynsection-20';
</script>
<script type="application/ecmascript" xlink:href="svg.min.js"/>
<svg id="graph" class="graph">
<g id="viewport">
<title>DataBaseGUI::employee_edit</title>
<!-- Node1 -->
<g id="Node000001" class="node">
<title>Node1</title>
<g id="a_Node000001"><a xlink:title="Edits an existing employee in the database.">
<polygon fill="#999999" stroke="#666666" points="146.5,-48 0,-48 0,-28 146.5,-28 146.5,-48"/>
<text text-anchor="middle" x="73.25" y="-34.5" font-family="Helvetica,sans-Serif" font-size="10.00">DataBaseGUI::employee_edit</text>
</a>
</g>
</g>
<!-- Node2 -->
<g id="Node000002" class="node">
<title>Node2</title>
<g id="a_Node000002"><a xlink:href="class_data_base_g_u_i.html#a0298d31c219c66a65a01eb01372e254d" target="_top" xlink:title="Selects the appropriate sorting to use based on employee sort index.">
<polygon fill="white" stroke="#666666" points="306.5,-32 182.5,-32 182.5,0 306.5,0 306.5,-32"/>
<text text-anchor="start" x="190.5" y="-18.5" font-family="Helvetica,sans-Serif" font-size="10.00">DataBaseGUI::sort_to</text>
<text text-anchor="middle" x="244.5" y="-6.5" font-family="Helvetica,sans-Serif" font-size="10.00">_populate_employee_tab</text>
</a>
</g>
</g>
<!-- Node1&#45;&gt;Node2 -->
<g id="edge1_Node000001_Node000002" class="edge">
<title>Node1&#45;&gt;Node2</title>
<g id="a_edge1_Node000001_Node000002"><a xlink:title=" ">
<path fill="none" stroke="#63b8ff" d="M146.52,-28.61C154.58,-27.56 162.79,-26.49 170.86,-25.44"/>
<polygon fill="#63b8ff" stroke="#63b8ff" points="171.17,-28.93 180.63,-24.17 170.26,-21.99 171.17,-28.93"/>
</a>
</g>
</g>
<!-- Node3 -->
<g id="Node000003" class="node">
<title>Node3</title>
<g id="a_Node000003"><a xlink:href="class_data_base_g_u_i.html#abab0899c6a55e240687bf21734273428" target="_top" xlink:title="Populates the parent tab with a list of parents.">
<polygon fill="white" stroke="#666666" points="462.75,-76 342.5,-76 342.5,-44 462.75,-44 462.75,-76"/>
<text text-anchor="start" x="350.5" y="-62.5" font-family="Helvetica,sans-Serif" font-size="10.00">DataBaseGUI::populate</text>
<text text-anchor="middle" x="402.62" y="-50.5" font-family="Helvetica,sans-Serif" font-size="10.00">_employee_tab</text>
</a>
</g>
</g>
<!-- Node2&#45;&gt;Node3 -->
<g id="edge2_Node000002_Node000003" class="edge">
<title>Node2&#45;&gt;Node3</title>
<g id="a_edge2_Node000002_Node000003"><a xlink:title=" ">
<path fill="none" stroke="#63b8ff" d="M303.64,-32.38C312.92,-35 322.61,-37.73 332.12,-40.41"/>
<polygon fill="#63b8ff" stroke="#63b8ff" points="331.15,-43.77 341.72,-43.12 333.05,-37.04 331.15,-43.77"/>
</a>
</g>
</g>
<!-- Node3&#45;&gt;Node1 -->
<g id="edge4_Node000003_Node000001" class="edge">
<title>Node3&#45;&gt;Node1</title>
<g id="a_edge4_Node000003_Node000001"><a xlink:title=" ">
<path fill="none" stroke="#63b8ff" d="M342.03,-56C290.58,-52.54 215.67,-47.5 158.16,-43.64"/>
<polygon fill="#63b8ff" stroke="#63b8ff" points="158.63,-40.16 148.42,-42.98 158.16,-47.15 158.63,-40.16"/>
</a>
</g>
</g>
<!-- Node4 -->
<g id="Node000004" class="node">
<title>Node4</title>
<g id="a_Node000004"><a xlink:href="class_employee_entry.html#ada71cffbda6a2614d266a6cc85d6684a" target="_top" xlink:title="Signal emitted when a employee edit is requested.">
<polygon fill="white" stroke="#666666" points="658.75,-158 507,-158 507,-138 658.75,-138 658.75,-158"/>
<text text-anchor="middle" x="582.88" y="-144.5" font-family="Helvetica,sans-Serif" font-size="10.00">EmployeeEntry::editRequested</text>
</a>
</g>
</g>
<!-- Node3&#45;&gt;Node4 -->
<g id="edge3_Node000003_Node000004" class="edge">
<title>Node3&#45;&gt;Node4</title>
<g id="a_edge3_Node000003_Node000004"><a xlink:title=" ">
<path fill="none" stroke="#63b8ff" d="M421.52,-76.44C439.67,-92.22 469.21,-115.59 498.75,-129 503,-130.93 507.46,-132.67 512.01,-134.24"/>
<polygon fill="#63b8ff" stroke="#63b8ff" points="510.73,-137.51 521.32,-137.15 512.82,-130.83 510.73,-137.51"/>
</a>
</g>
</g>
<!-- Node5 -->
<g id="Node000005" class="node">
<title>Node5</title>
<g id="a_Node000005"><a xlink:href="class_data_base_g_u_i.html#a4b70294327e9c316224af10d7a369749" target="_top" xlink:title="Removes an employee from the database.">
<polygon fill="white" stroke="#666666" points="645.62,-32 520.12,-32 520.12,0 645.62,0 645.62,-32"/>
<text text-anchor="start" x="528.12" y="-18.5" font-family="Helvetica,sans-Serif" font-size="10.00">DataBaseGUI::employee</text>
<text text-anchor="middle" x="582.88" y="-6.5" font-family="Helvetica,sans-Serif" font-size="10.00">_remove</text>
</a>
</g>
</g>
<!-- Node3&#45;&gt;Node5 -->
<g id="edge5_Node000003_Node000005" class="edge">
<title>Node3&#45;&gt;Node5</title>
<g id="a_edge5_Node000003_Node000005"><a xlink:title=" ">
<path fill="none" stroke="#63b8ff" d="M462.98,-45.35C477.65,-41.73 493.53,-37.81 508.77,-34.05"/>
<polygon fill="#63b8ff" stroke="#63b8ff" points="509.39,-37.5 518.26,-31.7 507.71,-30.7 509.39,-37.5"/>
</a>
</g>
</g>
<!-- Node6 -->
<g id="Node000006" class="node">
<title>Node6</title>
<g id="a_Node000006"><a xlink:href="class_data_base_g_u_i.html#aa5bbb368e92b4bf89edf9071df42aab3" target="_top" xlink:title="Clears the parent tab.">
<polygon fill="white" stroke="#666666" points="645.62,-120 520.12,-120 520.12,-88 645.62,-88 645.62,-120"/>
<text text-anchor="start" x="528.12" y="-106.5" font-family="Helvetica,sans-Serif" font-size="10.00">DataBaseGUI::employee</text>
<text text-anchor="middle" x="582.88" y="-94.5" font-family="Helvetica,sans-Serif" font-size="10.00">_tab_clear</text>
</a>
</g>
</g>
<!-- Node3&#45;&gt;Node6 -->
<g id="edge7_Node000003_Node000006" class="edge">
<title>Node3&#45;&gt;Node6</title>
<g id="a_edge7_Node000003_Node000006"><a xlink:title=" ">
<path fill="none" stroke="#63b8ff" d="M462.98,-74.65C477.65,-78.27 493.53,-82.19 508.77,-85.95"/>
<polygon fill="#63b8ff" stroke="#63b8ff" points="507.71,-89.3 518.26,-88.3 509.39,-82.5 507.71,-89.3"/>
</a>
</g>
</g>
<!-- Node7 -->
<g id="Node000007" class="node">
<title>Node7</title>
<g id="a_Node000007"><a xlink:href="class_employee_entry.html#a6f579e66e8fc13dbc45c940edfc50b32" target="_top" xlink:title="Signal emitted when a employee removal is requested.">
<polygon fill="white" stroke="#666666" points="667,-70 498.75,-70 498.75,-50 667,-50 667,-70"/>
<text text-anchor="middle" x="582.88" y="-56.5" font-family="Helvetica,sans-Serif" font-size="10.00">EmployeeEntry::removeRequested</text>
</a>
</g>
</g>
<!-- Node3&#45;&gt;Node7 -->
<g id="edge8_Node000003_Node000007" class="edge">
<title>Node3&#45;&gt;Node7</title>
<g id="a_edge8_Node000003_Node000007"><a xlink:title=" ">
<path fill="none" stroke="#63b8ff" d="M462.98,-60C470.69,-60 478.73,-60 486.85,-60"/>
<polygon fill="#63b8ff" stroke="#63b8ff" points="486.81,-63.5 496.81,-60 486.81,-56.5 486.81,-63.5"/>
</a>
</g>
</g>
<!-- Node5&#45;&gt;Node2 -->
<g id="edge6_Node000005_Node000002" class="edge">
<title>Node5&#45;&gt;Node2</title>
<g id="a_edge6_Node000005_Node000002"><a xlink:title=" ">
<path fill="none" stroke="#63b8ff" d="M519.85,-16C462.83,-16 378.27,-16 318.12,-16"/>
<polygon fill="#63b8ff" stroke="#63b8ff" points="318.32,-12.5 308.32,-16 318.32,-19.5 318.32,-12.5"/>
</a>
</g>
</g>
</g>
</svg>

<g id="navigator" transform="translate(0 0)" fill="#404254">
  <rect fill="#f2f5e9" fill-opacity="0.5" stroke="#606060" stroke-width=".5" x="0" y="0" width="60" height="60"/>
  <use id="zoomplus" xlink:href="#zoomPlus" x="17" y="9" onmousedown="handleZoom(evt,'in')"/>
  <use id="zoomminus" xlink:href="#zoomMin" x="42" y="9" onmousedown="handleZoom(evt,'out')"/>
  <use id="reset" xlink:href="#resetDef" x="30" y="36" onmousedown="handleReset()"/>
   <use id="arrowup" xlink:href="#arrowUp" x="0" y="0" onmousedown="handlePan(0,-1)"/>
  <use id="arrowright" xlink:href="#arrowRight" x="0" y="0" onmousedown="handlePan(1,0)"/>
  <use id="arrowdown" xlink:href="#arrowDown" x="0" y="0" onmousedown="handlePan(0,1)"/>
  <use id="arrowleft" xlink:href="#arrowLeft" x="0" y="0" onmousedown="handlePan(-1,0)"/>
</g>
<svg viewBox="0 0 15 15" width="100%" height="30px" preserveAspectRatio="xMaxYMin meet">
 <g id="arrow_out" transform="scale(0.3 0.3)">
  <a xlink:href="class_data_base_g_u_i_ae9c0b91905f7d70563c285cd9b5dace3_cgraph_org.svg" target="_base">
   <rect id="button" ry="5" rx="5" y="6" x="6" height="38" width="38"
        fill="#f2f5e9" fill-opacity="0.5" stroke="#606060" stroke-width="1.0"/>
   <path id="arrow"
     d="M 11.500037,31.436501 C 11.940474,20.09759 22.043105,11.32322 32.158766,21.979434 L 37.068811,17.246167 C 37.068811,17.246167 37.088388,32 37.088388,32 L 22.160133,31.978069 C 22.160133,31.978069 26.997745,27.140456 26.997745,27.140456 C 18.528582,18.264221 13.291696,25.230495 11.500037,31.436501 z"
     style="fill:#404040;"/>
  </a>
 </g>
</svg>

<style type='text/css'>
<![CDATA[
[data-mouse-over-selected='false'] { opacity: 0.7; }
[data-mouse-over-selected='true']  { opacity: 1.0; }
]]>
</style>
<script type="application/ecmascript"><![CDATA[
document.addEventListener('DOMContentLoaded', (event) => {
  highlightEdges();
  highlightAdjacentNodes();
});
]]></script>
</svg>
