<?xml version="1.0" encoding="UTF-8" standalone="no"?>
<!DOCTYPE svg PUBLIC "-//W3C//DTD SVG 1.1//EN"
 "http://www.w3.org/Graphics/SVG/1.1/DTD/svg11.dtd">
<!-- Generated by graphviz version 12.2.1 (20241206.2353)
 -->
<!-- Title: DataBaseGUI::lesson_sort_change Pages: 1 -->
<svg width="1966pt" height="652pt"
 viewBox="0.00 0.00 1965.50 652.00" xmlns="http://www.w3.org/2000/svg" xmlns:xlink="http://www.w3.org/1999/xlink">
<g id="graph0" class="graph" transform="scale(1 1) rotate(0) translate(4 648)">
<title>DataBaseGUI::lesson_sort_change</title>
<!-- Node1 -->
<g id="Node000001" class="node">
<title>Node1</title>
<g id="a_Node000001"><a xlink:title="Changes the sorting method for lessons.">
<polygon fill="#999999" stroke="#666666" points="112,-208 0,-208 0,-176 112,-176 112,-208"/>
<text text-anchor="start" x="8" y="-194.5" font-family="Helvetica,sans-Serif" font-size="10.00">DataBaseGUI::lesson</text>
<text text-anchor="middle" x="56" y="-182.5" font-family="Helvetica,sans-Serif" font-size="10.00">_sort_change</text>
</a>
</g>
</g>
<!-- Node2 -->
<g id="Node000002" class="node">
<title>Node2</title>
<g id="a_Node000002"><a xlink:href="class_data_base_g_u_i.html#a1ad152b7becf3e0051cdd5dbae6d4abc" target="_top" xlink:title="Selects the appropriate sorting to use based on lesson sort index.">
<polygon fill="white" stroke="#666666" points="261.5,-208 148,-208 148,-176 261.5,-176 261.5,-208"/>
<text text-anchor="start" x="156" y="-194.5" font-family="Helvetica,sans-Serif" font-size="10.00">DataBaseGUI::sort_to</text>
<text text-anchor="middle" x="204.75" y="-182.5" font-family="Helvetica,sans-Serif" font-size="10.00">_populate_lesson_tab</text>
</a>
</g>
</g>
<!-- Node1&#45;&gt;Node2 -->
<g id="edge1_Node000001_Node000002" class="edge">
<title>Node1&#45;&gt;Node2</title>
<g id="a_edge1_Node000001_Node000002"><a xlink:title=" ">
<path fill="none" stroke="#63b8ff" d="M112.48,-192C120.31,-192 128.44,-192 136.46,-192"/>
<polygon fill="#63b8ff" stroke="#63b8ff" points="136.19,-195.5 146.19,-192 136.19,-188.5 136.19,-195.5"/>
</a>
</g>
</g>
<!-- Node3 -->
<g id="Node000003" class="node">
<title>Node3</title>
<g id="a_Node000003"><a xlink:href="class_data_base_g_u_i.html#aa6b02e4e81b0113fb1c75d7d5ef0be59" target="_top" xlink:title="Populates the lessons tab with a list of lessons.">
<polygon fill="white" stroke="#666666" points="417.75,-208 297.5,-208 297.5,-176 417.75,-176 417.75,-208"/>
<text text-anchor="start" x="305.5" y="-194.5" font-family="Helvetica,sans-Serif" font-size="10.00">DataBaseGUI::populate</text>
<text text-anchor="middle" x="357.62" y="-182.5" font-family="Helvetica,sans-Serif" font-size="10.00">_lesson_tab</text>
</a>
</g>
</g>
<!-- Node2&#45;&gt;Node3 -->
<g id="edge2_Node000002_Node000003" class="edge">
<title>Node2&#45;&gt;Node3</title>
<g id="a_edge2_Node000002_Node000003"><a xlink:title=" ">
<path fill="none" stroke="#63b8ff" d="M261.93,-192C269.73,-192 277.83,-192 285.85,-192"/>
<polygon fill="#63b8ff" stroke="#63b8ff" points="285.6,-195.5 295.6,-192 285.6,-188.5 285.6,-195.5"/>
</a>
</g>
</g>
<!-- Node4 -->
<g id="Node000004" class="node">
<title>Node4</title>
<g id="a_Node000004"><a xlink:href="class_data_base_g_u_i.html#a66a3e89a9852de3522d98f2c1f8cdeed" target="_top" xlink:title="Removes a lesson from the database.">
<polygon fill="white" stroke="#666666" points="587.88,-290 475.88,-290 475.88,-258 587.88,-258 587.88,-290"/>
<text text-anchor="start" x="483.88" y="-276.5" font-family="Helvetica,sans-Serif" font-size="10.00">DataBaseGUI::lesson</text>
<text text-anchor="middle" x="531.88" y="-264.5" font-family="Helvetica,sans-Serif" font-size="10.00">_remove</text>
</a>
</g>
</g>
<!-- Node3&#45;&gt;Node4 -->
<g id="edge3_Node000003_Node000004" class="edge">
<title>Node3&#45;&gt;Node4</title>
<g id="a_edge3_Node000003_Node000004"><a xlink:title=" ">
<path fill="none" stroke="#63b8ff" d="M382.43,-208.34C401.19,-220.7 428.34,-237.45 453.75,-249 457.32,-250.62 461.02,-252.19 464.79,-253.69"/>
<polygon fill="#63b8ff" stroke="#63b8ff" points="463.51,-256.95 474.11,-257.21 465.99,-250.4 463.51,-256.95"/>
</a>
</g>
</g>
<!-- Node5 -->
<g id="Node000005" class="node">
<title>Node5</title>
<g id="a_Node000005"><a xlink:href="class_data_base_g_u_i.html#a2cb0d5bb3e2e1795dd1e9fd61d51544c" target="_top" xlink:title="Clears the lessons tab.">
<polygon fill="white" stroke="#666666" points="587.88,-164 475.88,-164 475.88,-132 587.88,-132 587.88,-164"/>
<text text-anchor="start" x="483.88" y="-150.5" font-family="Helvetica,sans-Serif" font-size="10.00">DataBaseGUI::lesson</text>
<text text-anchor="middle" x="531.88" y="-138.5" font-family="Helvetica,sans-Serif" font-size="10.00">_tab_clear</text>
</a>
</g>
</g>
<!-- Node3&#45;&gt;Node5 -->
<g id="edge5_Node000003_Node000005" class="edge">
<title>Node3&#45;&gt;Node5</title>
<g id="a_edge5_Node000003_Node000005"><a xlink:title=" ">
<path fill="none" stroke="#63b8ff" d="M417.9,-176.86C432.94,-173.02 449.19,-168.87 464.55,-164.94"/>
<polygon fill="#63b8ff" stroke="#63b8ff" points="465.26,-168.37 474.08,-162.51 463.52,-161.59 465.26,-168.37"/>
</a>
</g>
</g>
<!-- Node6 -->
<g id="Node000006" class="node">
<title>Node6</title>
<g id="a_Node000006"><a xlink:href="class_data_base_g_u_i.html#aadcf1044a300a89dadd104cfadb9a1b1" target="_top" xlink:title="Views a lesson in the GUI.">
<polygon fill="white" stroke="#666666" points="600.62,-96 463.12,-96 463.12,-76 600.62,-76 600.62,-96"/>
<text text-anchor="middle" x="531.88" y="-82.5" font-family="Helvetica,sans-Serif" font-size="10.00">DataBaseGUI::lesson_view</text>
</a>
</g>
</g>
<!-- Node3&#45;&gt;Node6 -->
<g id="edge6_Node000003_Node000006" class="edge">
<title>Node3&#45;&gt;Node6</title>
<g id="a_edge6_Node000003_Node000006"><a xlink:title=" ">
<path fill="none" stroke="#63b8ff" d="M379.04,-175.53C397.82,-160.79 426.76,-139.08 453.75,-123 467.14,-115.02 482.51,-107.37 495.99,-101.11"/>
<polygon fill="#63b8ff" stroke="#63b8ff" points="497.29,-104.37 504.94,-97.04 494.39,-97.99 497.29,-104.37"/>
</a>
</g>
</g>
<!-- Node41 -->
<g id="Node000041" class="node">
<title>Node41</title>
<g id="a_Node000041"><a xlink:href="class_lesson_entry.html#ac407f16eaac263953c0c07079cac4064" target="_top" xlink:title="Signal emitted when a lesson removal is requested.">
<polygon fill="white" stroke="#666666" points="610,-240 453.75,-240 453.75,-220 610,-220 610,-240"/>
<text text-anchor="middle" x="531.88" y="-226.5" font-family="Helvetica,sans-Serif" font-size="10.00">LessonEntry::removeRequested</text>
</a>
</g>
</g>
<!-- Node3&#45;&gt;Node41 -->
<g id="edge54_Node000003_Node000041" class="edge">
<title>Node3&#45;&gt;Node41</title>
<g id="a_edge54_Node000003_Node000041"><a xlink:title=" ">
<path fill="none" stroke="#63b8ff" d="M417.9,-205.08C435.47,-208.95 454.68,-213.19 472.21,-217.06"/>
<polygon fill="#63b8ff" stroke="#63b8ff" points="471.45,-220.47 481.97,-219.21 472.95,-213.64 471.45,-220.47"/>
</a>
</g>
</g>
<!-- Node42 -->
<g id="Node000042" class="node">
<title>Node42</title>
<g id="a_Node000042"><a xlink:href="class_lesson_entry.html#aa248a8baf6fda97f43b21a90d31e2642" target="_top" xlink:title="Signal emitted when a lesson view is requested.">
<polygon fill="white" stroke="#666666" points="604,-202 459.75,-202 459.75,-182 604,-182 604,-202"/>
<text text-anchor="middle" x="531.88" y="-188.5" font-family="Helvetica,sans-Serif" font-size="10.00">LessonEntry::viewRequested</text>
</a>
</g>
</g>
<!-- Node3&#45;&gt;Node42 -->
<g id="edge55_Node000003_Node000042" class="edge">
<title>Node3&#45;&gt;Node42</title>
<g id="a_edge55_Node000003_Node000042"><a xlink:title=" ">
<path fill="none" stroke="#63b8ff" d="M417.9,-192C427.59,-192 437.78,-192 447.91,-192"/>
<polygon fill="#63b8ff" stroke="#63b8ff" points="447.78,-195.5 457.78,-192 447.78,-188.5 447.78,-195.5"/>
</a>
</g>
</g>
<!-- Node4&#45;&gt;Node2 -->
<g id="edge4_Node000004_Node000002" class="edge">
<title>Node4&#45;&gt;Node2</title>
<g id="a_edge4_Node000004_Node000002"><a xlink:title=" ">
<path fill="none" stroke="#63b8ff" d="M475.6,-260.94C428.25,-249.64 358.27,-232.7 297.5,-217 289.5,-214.93 281.12,-212.72 272.81,-210.49"/>
<polygon fill="#63b8ff" stroke="#63b8ff" points="274,-207.19 263.43,-207.97 272.18,-213.95 274,-207.19"/>
</a>
</g>
</g>
<!-- Node6&#45;&gt;Node2 -->
<g id="edge53_Node000006_Node000002" class="edge">
<title>Node6&#45;&gt;Node2</title>
<g id="a_edge53_Node000006_Node000002"><a xlink:title=" ">
<path fill="none" stroke="#63b8ff" d="M499.03,-96.38C445.32,-113.89 335.84,-149.59 266.9,-172.06"/>
<polygon fill="#63b8ff" stroke="#63b8ff" points="266.06,-168.66 257.63,-175.08 268.23,-175.31 266.06,-168.66"/>
</a>
</g>
</g>
<!-- Node6&#45;&gt;Node6 -->
<g id="edge51_Node000006_Node000006" class="edge">
<title>Node6&#45;&gt;Node6</title>
<g id="a_edge51_Node000006_Node000006"><a xlink:title=" ">
<path fill="none" stroke="#63b8ff" d="M504.19,-96.34C492.36,-104.98 501.59,-114 531.88,-114 548.91,-114 559.29,-111.14 563,-107.11"/>
<polygon fill="#63b8ff" stroke="#63b8ff" points="566.4,-106.24 560.02,-97.78 559.73,-108.37 566.4,-106.24"/>
</a>
</g>
</g>
<!-- Node7 -->
<g id="Node000007" class="node">
<title>Node7</title>
<g id="a_Node000007"><a xlink:href="class_data_base_g_u_i.html#aadb0e7d323a970603312695c0dd9b264" target="_top" xlink:title="Searches for children based on the provided child pointer.">
<polygon fill="white" stroke="#666666" points="773,-219 669.25,-219 669.25,-187 773,-187 773,-219"/>
<text text-anchor="start" x="677.25" y="-205.5" font-family="Helvetica,sans-Serif" font-size="10.00">DataBaseGUI::child</text>
<text text-anchor="middle" x="721.12" y="-193.5" font-family="Helvetica,sans-Serif" font-size="10.00">_search_by_pointer</text>
</a>
</g>
</g>
<!-- Node6&#45;&gt;Node7 -->
<g id="edge7_Node000006_Node000007" class="edge">
<title>Node6&#45;&gt;Node7</title>
<g id="a_edge7_Node000006_Node000007"><a xlink:title=" ">
<path fill="none" stroke="#63b8ff" d="M557.43,-96.41C572.88,-103.29 593.04,-112.88 610,-123 638.82,-140.19 669.55,-162.92 691.2,-179.76"/>
<polygon fill="#63b8ff" stroke="#63b8ff" points="688.96,-182.45 698.99,-185.87 693.29,-176.95 688.96,-182.45"/>
</a>
</g>
</g>
<!-- Node29 -->
<g id="Node000029" class="node">
<title>Node29</title>
<g id="a_Node000029"><a xlink:href="class_lesson_view.html#aa227f774e8716f77d11ee4485f14b94b" target="_top" xlink:title="Signal emitted when a child is clicked.">
<polygon fill="white" stroke="#666666" points="785.38,-96 656.88,-96 656.88,-76 785.38,-76 785.38,-96"/>
<text text-anchor="middle" x="721.12" y="-82.5" font-family="Helvetica,sans-Serif" font-size="10.00">LessonView::childClicked</text>
</a>
</g>
</g>
<!-- Node6&#45;&gt;Node29 -->
<g id="edge36_Node000006_Node000029" class="edge">
<title>Node6&#45;&gt;Node29</title>
<g id="a_edge36_Node000006_Node000029"><a xlink:title=" ">
<path fill="none" stroke="#63b8ff" d="M601.01,-86C615.28,-86 630.41,-86 644.93,-86"/>
<polygon fill="#63b8ff" stroke="#63b8ff" points="644.89,-89.5 654.89,-86 644.89,-82.5 644.89,-89.5"/>
</a>
</g>
</g>
<!-- Node30 -->
<g id="Node000030" class="node">
<title>Node30</title>
<g id="a_Node000030"><a xlink:href="class_data_base_g_u_i.html#a3a2267784d541d4c74b143458aa7eedb" target="_top" xlink:title="Searches for employees based on the provided employee pointer.">
<polygon fill="white" stroke="#666666" points="1264.62,-137 1139.12,-137 1139.12,-105 1264.62,-105 1264.62,-137"/>
<text text-anchor="start" x="1147.12" y="-123.5" font-family="Helvetica,sans-Serif" font-size="10.00">DataBaseGUI::employee</text>
<text text-anchor="middle" x="1201.88" y="-111.5" font-family="Helvetica,sans-Serif" font-size="10.00">_search_by_pointer</text>
</a>
</g>
</g>
<!-- Node6&#45;&gt;Node30 -->
<g id="edge37_Node000006_Node000030" class="edge">
<title>Node6&#45;&gt;Node30</title>
<g id="a_edge37_Node000006_Node000030"><a xlink:title=" ">
<path fill="none" stroke="#63b8ff" d="M585.91,-96.46C604.8,-99.77 626.28,-103.07 646,-105 817.9,-121.83 1021.06,-122.94 1127.46,-122.09"/>
<polygon fill="#63b8ff" stroke="#63b8ff" points="1127.22,-125.59 1137.19,-122 1127.16,-118.59 1127.22,-125.59"/>
</a>
</g>
</g>
<!-- Node39 -->
<g id="Node000039" class="node">
<title>Node39</title>
<g id="a_Node000039"><a xlink:href="class_lesson_view.html#a4275d407e328010c92ad6aa2e058274f" target="_top" xlink:title="Signal emitted when an employee is clicked.">
<polygon fill="white" stroke="#666666" points="796.25,-58 646,-58 646,-38 796.25,-38 796.25,-58"/>
<text text-anchor="middle" x="721.12" y="-44.5" font-family="Helvetica,sans-Serif" font-size="10.00">LessonView::employeeClicked</text>
</a>
</g>
</g>
<!-- Node6&#45;&gt;Node39 -->
<g id="edge50_Node000006_Node000039" class="edge">
<title>Node6&#45;&gt;Node39</title>
<g id="a_edge50_Node000006_Node000039"><a xlink:title=" ">
<path fill="none" stroke="#63b8ff" d="M584.54,-75.52C607.15,-70.93 633.89,-65.5 657.61,-60.69"/>
<polygon fill="#63b8ff" stroke="#63b8ff" points="658.04,-64.17 667.15,-58.75 656.65,-57.31 658.04,-64.17"/>
</a>
</g>
</g>
<!-- Node40 -->
<g id="Node000040" class="node">
<title>Node40</title>
<g id="a_Node000040"><a xlink:href="class_lesson_view.html#aa1cc5b2f31000f0aaa8180eab0fd17a1" target="_top" xlink:title="Signal emitted when a lesson is edited.">
<polygon fill="white" stroke="#666666" points="786.88,-20 655.38,-20 655.38,0 786.88,0 786.88,-20"/>
<text text-anchor="middle" x="721.12" y="-6.5" font-family="Helvetica,sans-Serif" font-size="10.00">LessonView::lessonEdited</text>
</a>
</g>
</g>
<!-- Node6&#45;&gt;Node40 -->
<g id="edge52_Node000006_Node000040" class="edge">
<title>Node6&#45;&gt;Node40</title>
<g id="a_edge52_Node000006_Node000040"><a xlink:title=" ">
<path fill="none" stroke="#63b8ff" d="M550.36,-75.69C572.14,-63.2 610.79,-42.21 646,-29 651.23,-27.04 656.74,-25.21 662.3,-23.52"/>
<polygon fill="#63b8ff" stroke="#63b8ff" points="662.89,-26.99 671.54,-20.87 660.96,-20.26 662.89,-26.99"/>
</a>
</g>
</g>
<!-- Node8 -->
<g id="Node000008" class="node">
<title>Node8</title>
<g id="a_Node000008"><a xlink:href="class_data_base_g_u_i.html#a2d921da686e76ae195da018bb735a1ae" target="_top" xlink:title="Searches for children based on the provided name and surname.">
<polygon fill="white" stroke="#666666" points="936,-332 832.25,-332 832.25,-300 936,-300 936,-332"/>
<text text-anchor="start" x="840.25" y="-318.5" font-family="Helvetica,sans-Serif" font-size="10.00">DataBaseGUI::child</text>
<text text-anchor="middle" x="884.12" y="-306.5" font-family="Helvetica,sans-Serif" font-size="10.00">_search</text>
</a>
</g>
</g>
<!-- Node7&#45;&gt;Node8 -->
<g id="edge8_Node000007_Node000008" class="edge">
<title>Node7&#45;&gt;Node8</title>
<g id="a_edge8_Node000007_Node000008"><a xlink:title=" ">
<path fill="none" stroke="#63b8ff" d="M745.54,-219.43C773.2,-238.85 819.39,-271.27 850.54,-293.13"/>
<polygon fill="#63b8ff" stroke="#63b8ff" points="848.25,-295.8 858.45,-298.68 852.27,-290.07 848.25,-295.8"/>
</a>
</g>
</g>
<!-- Node16 -->
<g id="Node000016" class="node">
<title>Node16</title>
<g id="a_Node000016"><a xlink:href="class_person.html#a6b1fec00d8d1f5af1a2977dc3f5f9eb8" target="_top" xlink:title="Gets the first name of the person.">
<polygon fill="white" stroke="#666666" points="1422,-213 1326.5,-213 1326.5,-193 1422,-193 1422,-213"/>
<text text-anchor="middle" x="1374.25" y="-199.5" font-family="Helvetica,sans-Serif" font-size="10.00">Person::get_name</text>
</a>
</g>
</g>
<!-- Node7&#45;&gt;Node16 -->
<g id="edge34_Node000007_Node000016" class="edge">
<title>Node7&#45;&gt;Node16</title>
<g id="a_edge34_Node000007_Node000016"><a xlink:title=" ">
<path fill="none" stroke="#63b8ff" d="M773.49,-203C893.03,-203 1189.23,-203 1315.13,-203"/>
<polygon fill="#63b8ff" stroke="#63b8ff" points="1314.9,-206.5 1324.9,-203 1314.9,-199.5 1314.9,-206.5"/>
</a>
</g>
</g>
<!-- Node17 -->
<g id="Node000017" class="node">
<title>Node17</title>
<g id="a_Node000017"><a xlink:href="class_person.html#a7b3c8db44a49c4ba8c4838e19a235613" target="_top" xlink:title="Gets the last name of the person.">
<polygon fill="white" stroke="#666666" points="1428.75,-175 1319.75,-175 1319.75,-155 1428.75,-155 1428.75,-175"/>
<text text-anchor="middle" x="1374.25" y="-161.5" font-family="Helvetica,sans-Serif" font-size="10.00">Person::get_surname</text>
</a>
</g>
</g>
<!-- Node7&#45;&gt;Node17 -->
<g id="edge35_Node000007_Node000017" class="edge">
<title>Node7&#45;&gt;Node17</title>
<g id="a_edge35_Node000007_Node000017"><a xlink:title=" ">
<path fill="none" stroke="#63b8ff" d="M773.49,-200C890.82,-193.16 1178.33,-176.38 1307.97,-168.81"/>
<polygon fill="#63b8ff" stroke="#63b8ff" points="1307.98,-172.32 1317.76,-168.24 1307.57,-165.33 1307.98,-172.32"/>
</a>
</g>
</g>
<!-- Node9 -->
<g id="Node000009" class="node">
<title>Node9</title>
<g id="a_Node000009"><a xlink:href="class_data_base_g_u_i.html#af346d08370d9e4574980707f61b9c8f7" target="_top" xlink:title="Populates the children tab with a list of children.">
<polygon fill="white" stroke="#666666" points="1092.25,-401 972,-401 972,-369 1092.25,-369 1092.25,-401"/>
<text text-anchor="start" x="980" y="-387.5" font-family="Helvetica,sans-Serif" font-size="10.00">DataBaseGUI::populate</text>
<text text-anchor="middle" x="1032.12" y="-375.5" font-family="Helvetica,sans-Serif" font-size="10.00">_children_tab</text>
</a>
</g>
</g>
<!-- Node8&#45;&gt;Node9 -->
<g id="edge9_Node000008_Node000009" class="edge">
<title>Node8&#45;&gt;Node9</title>
<g id="a_edge9_Node000008_Node000009"><a xlink:title=" ">
<path fill="none" stroke="#63b8ff" d="M919.72,-332.35C939.58,-341.74 964.74,-353.62 986.11,-363.73"/>
<polygon fill="#63b8ff" stroke="#63b8ff" points="984.36,-366.77 994.9,-367.88 987.35,-360.44 984.36,-366.77"/>
</a>
</g>
</g>
<!-- Node10 -->
<g id="Node000010" class="node">
<title>Node10</title>
<g id="a_Node000010"><a xlink:href="class_data_base_g_u_i.html#acb6c6b292e58d0ead30682f7f5705244" target="_top" xlink:title="Edits an existing child in the database.">
<polygon fill="white" stroke="#666666" points="1264.25,-565 1139.5,-565 1139.5,-545 1264.25,-545 1264.25,-565"/>
<text text-anchor="middle" x="1201.88" y="-551.5" font-family="Helvetica,sans-Serif" font-size="10.00">DataBaseGUI::child_edit</text>
</a>
</g>
</g>
<!-- Node9&#45;&gt;Node10 -->
<g id="edge10_Node000009_Node000010" class="edge">
<title>Node9&#45;&gt;Node10</title>
<g id="a_edge10_Node000009_Node000010"><a xlink:title=" ">
<path fill="none" stroke="#63b8ff" d="M1038.63,-401.03C1050.13,-432.08 1079.76,-500.48 1128.25,-536 1130.02,-537.3 1131.88,-538.51 1133.8,-539.64"/>
<polygon fill="#63b8ff" stroke="#63b8ff" points="1131.97,-542.64 1142.48,-543.95 1135.08,-536.37 1131.97,-542.64"/>
</a>
</g>
</g>
<!-- Node12 -->
<g id="Node000012" class="node">
<title>Node12</title>
<g id="a_Node000012"><a xlink:href="class_data_base_g_u_i.html#ae3a08843db874e51a7cea32fa8937ca5" target="_top" xlink:title="Removes a child from the database.">
<polygon fill="white" stroke="#666666" points="1253.75,-401 1150,-401 1150,-369 1253.75,-369 1253.75,-401"/>
<text text-anchor="start" x="1158" y="-387.5" font-family="Helvetica,sans-Serif" font-size="10.00">DataBaseGUI::child</text>
<text text-anchor="middle" x="1201.88" y="-375.5" font-family="Helvetica,sans-Serif" font-size="10.00">_remove</text>
</a>
</g>
</g>
<!-- Node9&#45;&gt;Node12 -->
<g id="edge13_Node000009_Node000012" class="edge">
<title>Node9&#45;&gt;Node12</title>
<g id="a_edge13_Node000009_Node000012"><a xlink:title=" ">
<path fill="none" stroke="#63b8ff" d="M1092.74,-385C1107.52,-385 1123.41,-385 1138.33,-385"/>
<polygon fill="#63b8ff" stroke="#63b8ff" points="1138,-388.5 1148,-385 1138,-381.5 1138,-388.5"/>
</a>
</g>
</g>
<!-- Node13 -->
<g id="Node000013" class="node">
<title>Node13</title>
<g id="a_Node000013"><a xlink:href="class_data_base_g_u_i.html#afbc53e28ad83200fe77e0fa5a6eb970f" target="_top" xlink:title="Clears the children tab.">
<polygon fill="white" stroke="#666666" points="1260.5,-351 1143.25,-351 1143.25,-319 1260.5,-319 1260.5,-351"/>
<text text-anchor="start" x="1151.25" y="-337.5" font-family="Helvetica,sans-Serif" font-size="10.00">DataBaseGUI::children</text>
<text text-anchor="middle" x="1201.88" y="-325.5" font-family="Helvetica,sans-Serif" font-size="10.00">_tab_clear</text>
</a>
</g>
</g>
<!-- Node9&#45;&gt;Node13 -->
<g id="edge15_Node000009_Node000013" class="edge">
<title>Node9&#45;&gt;Node13</title>
<g id="a_edge15_Node000009_Node000013"><a xlink:title=" ">
<path fill="none" stroke="#63b8ff" d="M1088.05,-368.63C1102.89,-364.2 1119.11,-359.37 1134.5,-354.78"/>
<polygon fill="#63b8ff" stroke="#63b8ff" points="1135.5,-358.14 1144.09,-351.93 1133.5,-351.43 1135.5,-358.14"/>
</a>
</g>
</g>
<!-- Node14 -->
<g id="Node000014" class="node">
<title>Node14</title>
<g id="a_Node000014"><a xlink:href="class_child_entry.html#abda9dea89937d77c4def3fb81d964ff9" target="_top" xlink:title="Signal emitted when a child edit is requested.">
<polygon fill="white" stroke="#666666" points="1267.25,-301 1136.5,-301 1136.5,-281 1267.25,-281 1267.25,-301"/>
<text text-anchor="middle" x="1201.88" y="-287.5" font-family="Helvetica,sans-Serif" font-size="10.00">ChildEntry::editRequested</text>
</a>
</g>
</g>
<!-- Node9&#45;&gt;Node14 -->
<g id="edge16_Node000009_Node000014" class="edge">
<title>Node9&#45;&gt;Node14</title>
<g id="a_edge16_Node000009_Node000014"><a xlink:title=" ">
<path fill="none" stroke="#63b8ff" d="M1049.52,-368.54C1067.39,-351.5 1097.56,-325.27 1128.25,-310 1131.74,-308.26 1135.4,-306.67 1139.16,-305.22"/>
<polygon fill="#63b8ff" stroke="#63b8ff" points="1140.17,-308.57 1148.46,-301.97 1137.87,-301.96 1140.17,-308.57"/>
</a>
</g>
</g>
<!-- Node15 -->
<g id="Node000015" class="node">
<title>Node15</title>
<g id="a_Node000015"><a xlink:href="class_data_base_g_u_i.html#a8e1fe573ef6a09e112989968ec1a2b43" target="_top" xlink:title="Searches for parents based on the provided parent pointer.">
<polygon fill="white" stroke="#666666" points="1257.12,-263 1146.62,-263 1146.62,-231 1257.12,-231 1257.12,-263"/>
<text text-anchor="start" x="1154.62" y="-249.5" font-family="Helvetica,sans-Serif" font-size="10.00">DataBaseGUI::parent</text>
<text text-anchor="middle" x="1201.88" y="-237.5" font-family="Helvetica,sans-Serif" font-size="10.00">_search_by_pointer</text>
</a>
</g>
</g>
<!-- Node9&#45;&gt;Node15 -->
<g id="edge17_Node000009_Node000015" class="edge">
<title>Node9&#45;&gt;Node15</title>
<g id="a_edge17_Node000009_Node000015"><a xlink:title=" ">
<path fill="none" stroke="#63b8ff" d="M1042.73,-368.75C1057.92,-344.38 1089.76,-298.4 1128.25,-272 1130.74,-270.29 1133.36,-268.69 1136.07,-267.19"/>
<polygon fill="#63b8ff" stroke="#63b8ff" points="1137.4,-270.43 1144.8,-262.86 1134.29,-264.16 1137.4,-270.43"/>
</a>
</g>
</g>
<!-- Node27 -->
<g id="Node000027" class="node">
<title>Node27</title>
<g id="a_Node000027"><a xlink:href="class_child_entry.html#a11d827331ad040002cce25952c27e47a" target="_top" xlink:title="Signal emitted when a parent search is requested.">
<polygon fill="white" stroke="#666666" points="1266.12,-527 1137.62,-527 1137.62,-495 1266.12,-495 1266.12,-527"/>
<text text-anchor="start" x="1145.62" y="-513.5" font-family="Helvetica,sans-Serif" font-size="10.00">ChildEntry::parrentSearch</text>
<text text-anchor="middle" x="1201.88" y="-501.5" font-family="Helvetica,sans-Serif" font-size="10.00">Requested</text>
</a>
</g>
</g>
<!-- Node9&#45;&gt;Node27 -->
<g id="edge32_Node000009_Node000027" class="edge">
<title>Node9&#45;&gt;Node27</title>
<g id="a_edge32_Node000009_Node000027"><a xlink:title=" ">
<path fill="none" stroke="#63b8ff" d="M1044.48,-401.31C1060.67,-423.44 1092.44,-462.87 1128.25,-486 1130.1,-487.19 1132.01,-488.34 1133.97,-489.43"/>
<polygon fill="#63b8ff" stroke="#63b8ff" points="1132.23,-492.47 1142.74,-493.83 1135.37,-486.22 1132.23,-492.47"/>
</a>
</g>
</g>
<!-- Node28 -->
<g id="Node000028" class="node">
<title>Node28</title>
<g id="a_Node000028"><a xlink:href="class_child_entry.html#a69e495a83c20ea922198adea9ae47ddb" target="_top" xlink:title="Signal emitted when a child removal is requested.">
<polygon fill="white" stroke="#666666" points="1275.5,-477 1128.25,-477 1128.25,-457 1275.5,-457 1275.5,-477"/>
<text text-anchor="middle" x="1201.88" y="-463.5" font-family="Helvetica,sans-Serif" font-size="10.00">ChildEntry::removeRequested</text>
</a>
</g>
</g>
<!-- Node9&#45;&gt;Node28 -->
<g id="edge33_Node000009_Node000028" class="edge">
<title>Node9&#45;&gt;Node28</title>
<g id="a_edge33_Node000009_Node000028"><a xlink:title=" ">
<path fill="none" stroke="#63b8ff" d="M1056.52,-401.35C1075.28,-413.94 1102.62,-431.14 1128.25,-443 1136.04,-446.61 1144.53,-449.92 1152.87,-452.86"/>
<polygon fill="#63b8ff" stroke="#63b8ff" points="1151.64,-456.14 1162.24,-456.02 1153.88,-449.51 1151.64,-456.14"/>
</a>
</g>
</g>
<!-- Node11 -->
<g id="Node000011" class="node">
<title>Node11</title>
<g id="a_Node000011"><a xlink:href="class_data_base_g_u_i.html#aa684465aa73b5b34bbadd24fc7f2f641" target="_top" xlink:title="Selects the appropriate sorting to use based on child sort index.">
<polygon fill="white" stroke="#666666" points="1432.12,-445 1316.38,-445 1316.38,-413 1432.12,-413 1432.12,-445"/>
<text text-anchor="start" x="1324.38" y="-431.5" font-family="Helvetica,sans-Serif" font-size="10.00">DataBaseGUI::sort_to</text>
<text text-anchor="middle" x="1374.25" y="-419.5" font-family="Helvetica,sans-Serif" font-size="10.00">_populate_children_tab</text>
</a>
</g>
</g>
<!-- Node10&#45;&gt;Node11 -->
<g id="edge11_Node000010_Node000011" class="edge">
<title>Node10&#45;&gt;Node11</title>
<g id="a_edge11_Node000010_Node000011"><a xlink:title=" ">
<path fill="none" stroke="#63b8ff" d="M1257.06,-544.57C1263.5,-542.26 1269.81,-539.44 1275.5,-536 1309.76,-515.31 1339.19,-479.02 1356.56,-454.5"/>
<polygon fill="#63b8ff" stroke="#63b8ff" points="1359.38,-456.57 1362.18,-446.36 1353.62,-452.6 1359.38,-456.57"/>
</a>
</g>
</g>
<!-- Node11&#45;&gt;Node9 -->
<g id="edge12_Node000011_Node000009" class="edge">
<title>Node11&#45;&gt;Node9</title>
<g id="a_edge12_Node000011_Node000009"><a xlink:title=" ">
<path fill="none" stroke="#63b8ff" d="M1315.97,-427.46C1266.09,-425.44 1191.98,-420.76 1128.25,-410 1119.05,-408.45 1109.45,-406.42 1100.03,-404.19"/>
<polygon fill="#63b8ff" stroke="#63b8ff" points="1101.11,-400.85 1090.57,-401.86 1099.44,-407.65 1101.11,-400.85"/>
</a>
</g>
</g>
<!-- Node12&#45;&gt;Node11 -->
<g id="edge14_Node000012_Node000011" class="edge">
<title>Node12&#45;&gt;Node11</title>
<g id="a_edge14_Node000012_Node000011"><a xlink:title=" ">
<path fill="none" stroke="#63b8ff" d="M1253.99,-398.2C1269.99,-402.33 1287.91,-406.96 1304.9,-411.35"/>
<polygon fill="#63b8ff" stroke="#63b8ff" points="1303.88,-414.7 1314.44,-413.81 1305.63,-407.92 1303.88,-414.7"/>
</a>
</g>
</g>
<!-- Node15&#45;&gt;Node16 -->
<g id="edge18_Node000015_Node000016" class="edge">
<title>Node15&#45;&gt;Node16</title>
<g id="a_edge18_Node000015_Node000016"><a xlink:title=" ">
<path fill="none" stroke="#63b8ff" d="M1257.25,-232.96C1277.88,-227.63 1301.28,-221.59 1321.65,-216.33"/>
<polygon fill="#63b8ff" stroke="#63b8ff" points="1322.33,-219.76 1331.14,-213.87 1320.58,-212.99 1322.33,-219.76"/>
</a>
</g>
</g>
<!-- Node15&#45;&gt;Node17 -->
<g id="edge19_Node000015_Node000017" class="edge">
<title>Node15&#45;&gt;Node17</title>
<g id="a_edge19_Node000015_Node000017"><a xlink:title=" ">
<path fill="none" stroke="#63b8ff" d="M1227.48,-230.55C1248.96,-216.73 1281.34,-197.18 1311.5,-184 1315.49,-182.26 1319.69,-180.6 1323.95,-179.06"/>
<polygon fill="#63b8ff" stroke="#63b8ff" points="1324.79,-182.47 1333.12,-175.92 1322.52,-175.84 1324.79,-182.47"/>
</a>
</g>
</g>
<!-- Node18 -->
<g id="Node000018" class="node">
<title>Node18</title>
<g id="a_Node000018"><a xlink:href="class_data_base_g_u_i.html#a7c3d843eec449d8a4ec5ce6bf0375358" target="_top" xlink:title="Searches for parents based on the provided name and surname.">
<polygon fill="white" stroke="#666666" points="1429.5,-329 1319,-329 1319,-297 1429.5,-297 1429.5,-329"/>
<text text-anchor="start" x="1327" y="-315.5" font-family="Helvetica,sans-Serif" font-size="10.00">DataBaseGUI::parent</text>
<text text-anchor="middle" x="1374.25" y="-303.5" font-family="Helvetica,sans-Serif" font-size="10.00">_search</text>
</a>
</g>
</g>
<!-- Node15&#45;&gt;Node18 -->
<g id="edge20_Node000015_Node000018" class="edge">
<title>Node15&#45;&gt;Node18</title>
<g id="a_edge20_Node000015_Node000018"><a xlink:title=" ">
<path fill="none" stroke="#63b8ff" d="M1251.87,-263.37C1259.8,-266.16 1267.9,-269.1 1275.5,-272 1291.85,-278.23 1309.53,-285.49 1325.31,-292.15"/>
<polygon fill="#63b8ff" stroke="#63b8ff" points="1323.92,-295.37 1334.49,-296.06 1326.66,-288.92 1323.92,-295.37"/>
</a>
</g>
</g>
<!-- Node19 -->
<g id="Node000019" class="node">
<title>Node19</title>
<g id="a_Node000019"><a xlink:href="class_data_base_g_u_i.html#a739b2cf48c0cb6e3cab2da0a7bbd6d6d" target="_top" xlink:title="Populates the parent tab with a list of parents.">
<polygon fill="white" stroke="#666666" points="1593.25,-524 1473,-524 1473,-492 1593.25,-492 1593.25,-524"/>
<text text-anchor="start" x="1481" y="-510.5" font-family="Helvetica,sans-Serif" font-size="10.00">DataBaseGUI::populate</text>
<text text-anchor="middle" x="1533.12" y="-498.5" font-family="Helvetica,sans-Serif" font-size="10.00">_parent_tab</text>
</a>
</g>
</g>
<!-- Node18&#45;&gt;Node19 -->
<g id="edge21_Node000018_Node000019" class="edge">
<title>Node18&#45;&gt;Node19</title>
<g id="a_edge21_Node000018_Node000019"><a xlink:title=" ">
<path fill="none" stroke="#63b8ff" d="M1388.36,-329.29C1415.75,-363.34 1479.24,-442.26 1511.91,-482.87"/>
<polygon fill="#63b8ff" stroke="#63b8ff" points="1509,-484.84 1518,-490.44 1514.46,-480.45 1509,-484.84"/>
</a>
</g>
</g>
<!-- Node19&#45;&gt;Node7 -->
<g id="edge22_Node000019_Node000007" class="edge">
<title>Node19&#45;&gt;Node7</title>
<g id="a_edge22_Node000019_Node000007"><a xlink:title=" ">
<path fill="none" stroke="#63b8ff" d="M1494.42,-524.39C1434.07,-549.09 1311.5,-593 1202.88,-593 1031.12,-593 1031.12,-593 1031.12,-593 845.71,-593 754,-318.85 729.2,-230.26"/>
<polygon fill="#63b8ff" stroke="#63b8ff" points="732.61,-229.45 726.6,-220.72 725.85,-231.29 732.61,-229.45"/>
</a>
</g>
</g>
<!-- Node20 -->
<g id="Node000020" class="node">
<title>Node20</title>
<g id="a_Node000020"><a xlink:href="class_parent_entry.html#a45e22d202e52c9dbc7e7e72575dc0e91" target="_top" xlink:title="Signal emitted when a child search is requested.">
<polygon fill="white" stroke="#666666" points="1775.75,-392 1651,-392 1651,-360 1775.75,-360 1775.75,-392"/>
<text text-anchor="start" x="1659" y="-378.5" font-family="Helvetica,sans-Serif" font-size="10.00">ParentEntry::childSearch</text>
<text text-anchor="middle" x="1713.38" y="-366.5" font-family="Helvetica,sans-Serif" font-size="10.00">Requested</text>
</a>
</g>
</g>
<!-- Node19&#45;&gt;Node20 -->
<g id="edge23_Node000019_Node000020" class="edge">
<title>Node19&#45;&gt;Node20</title>
<g id="a_edge23_Node000019_Node000020"><a xlink:title=" ">
<path fill="none" stroke="#63b8ff" d="M1544.33,-491.67C1559.83,-468.19 1591.54,-425.07 1629.25,-401 1632.76,-398.76 1636.48,-396.71 1640.32,-394.84"/>
<polygon fill="#63b8ff" stroke="#63b8ff" points="1641.58,-398.11 1649.34,-390.9 1638.78,-391.7 1641.58,-398.11"/>
</a>
</g>
</g>
<!-- Node21 -->
<g id="Node000021" class="node">
<title>Node21</title>
<g id="a_Node000021"><a xlink:href="class_parent_entry.html#ab0a6b9993e8f1dc2f58ceedfee0f7d0b" target="_top" xlink:title="Signal emitted when a parent edit is requested.">
<polygon fill="white" stroke="#666666" points="1781.75,-644 1645,-644 1645,-624 1781.75,-624 1781.75,-644"/>
<text text-anchor="middle" x="1713.38" y="-630.5" font-family="Helvetica,sans-Serif" font-size="10.00">ParentEntry::editRequested</text>
</a>
</g>
</g>
<!-- Node19&#45;&gt;Node21 -->
<g id="edge24_Node000019_Node000021" class="edge">
<title>Node19&#45;&gt;Node21</title>
<g id="a_edge24_Node000019_Node000021"><a xlink:title=" ">
<path fill="none" stroke="#63b8ff" d="M1543.87,-524.27C1559.01,-548.09 1590.53,-592.09 1629.25,-615 1631.91,-616.57 1634.68,-618.01 1637.54,-619.34"/>
<polygon fill="#63b8ff" stroke="#63b8ff" points="1636.18,-622.56 1646.76,-623.06 1638.8,-616.07 1636.18,-622.56"/>
</a>
</g>
</g>
<!-- Node22 -->
<g id="Node000022" class="node">
<title>Node22</title>
<g id="a_Node000022"><a xlink:href="class_data_base_g_u_i.html#a5b049fb9e0e5d78c4c2e81e569b471f9" target="_top" xlink:title="Edits an existing parent in the database.">
<polygon fill="white" stroke="#666666" points="1779.12,-556 1647.62,-556 1647.62,-536 1779.12,-536 1779.12,-556"/>
<text text-anchor="middle" x="1713.38" y="-542.5" font-family="Helvetica,sans-Serif" font-size="10.00">DataBaseGUI::parent_edit</text>
</a>
</g>
</g>
<!-- Node19&#45;&gt;Node22 -->
<g id="edge25_Node000019_Node000022" class="edge">
<title>Node19&#45;&gt;Node22</title>
<g id="a_edge25_Node000019_Node000022"><a xlink:title=" ">
<path fill="none" stroke="#63b8ff" d="M1593.48,-520.65C1612.35,-524.68 1633.24,-529.13 1652.18,-533.17"/>
<polygon fill="#63b8ff" stroke="#63b8ff" points="1651.38,-536.58 1661.89,-535.24 1652.84,-529.73 1651.38,-536.58"/>
</a>
</g>
</g>
<!-- Node24 -->
<g id="Node000024" class="node">
<title>Node24</title>
<g id="a_Node000024"><a xlink:href="class_data_base_g_u_i.html#ad8a42f24cdb603ba85c1cdd4ea2e73a4" target="_top" xlink:title="Removes a parent from the database.">
<polygon fill="white" stroke="#666666" points="1768.62,-606 1658.12,-606 1658.12,-574 1768.62,-574 1768.62,-606"/>
<text text-anchor="start" x="1666.12" y="-592.5" font-family="Helvetica,sans-Serif" font-size="10.00">DataBaseGUI::parent</text>
<text text-anchor="middle" x="1713.38" y="-580.5" font-family="Helvetica,sans-Serif" font-size="10.00">_remove</text>
</a>
</g>
</g>
<!-- Node19&#45;&gt;Node24 -->
<g id="edge28_Node000019_Node000024" class="edge">
<title>Node19&#45;&gt;Node24</title>
<g id="a_edge28_Node000019_Node000024"><a xlink:title=" ">
<path fill="none" stroke="#63b8ff" d="M1557.87,-524.49C1576.59,-536.93 1603.71,-553.72 1629.25,-565 1635.08,-567.57 1641.25,-569.98 1647.49,-572.2"/>
<polygon fill="#63b8ff" stroke="#63b8ff" points="1645.98,-575.39 1656.58,-575.28 1648.23,-568.76 1645.98,-575.39"/>
</a>
</g>
</g>
<!-- Node25 -->
<g id="Node000025" class="node">
<title>Node25</title>
<g id="a_Node000025"><a xlink:href="class_data_base_g_u_i.html#a3d4aa66da32413ddd29330e008b1865a" target="_top" xlink:title="Clears the parent tab.">
<polygon fill="white" stroke="#666666" points="1768.62,-480 1658.12,-480 1658.12,-448 1768.62,-448 1768.62,-480"/>
<text text-anchor="start" x="1666.12" y="-466.5" font-family="Helvetica,sans-Serif" font-size="10.00">DataBaseGUI::parent</text>
<text text-anchor="middle" x="1713.38" y="-454.5" font-family="Helvetica,sans-Serif" font-size="10.00">_tab_clear</text>
</a>
</g>
</g>
<!-- Node19&#45;&gt;Node25 -->
<g id="edge30_Node000019_Node000025" class="edge">
<title>Node19&#45;&gt;Node25</title>
<g id="a_edge30_Node000019_Node000025"><a xlink:title=" ">
<path fill="none" stroke="#63b8ff" d="M1593.48,-493.35C1610.67,-489.1 1629.54,-484.45 1647.07,-480.12"/>
<polygon fill="#63b8ff" stroke="#63b8ff" points="1647.45,-483.63 1656.32,-477.84 1645.77,-476.84 1647.45,-483.63"/>
</a>
</g>
</g>
<!-- Node26 -->
<g id="Node000026" class="node">
<title>Node26</title>
<g id="a_Node000026"><a xlink:href="class_parent_entry.html#ada9ff642ea28fbec8f40767df83cc5f1" target="_top" xlink:title="Signal emitted when a parent removal is requested.">
<polygon fill="white" stroke="#666666" points="1790,-430 1636.75,-430 1636.75,-410 1790,-410 1790,-430"/>
<text text-anchor="middle" x="1713.38" y="-416.5" font-family="Helvetica,sans-Serif" font-size="10.00">ParentEntry::removeRequested</text>
</a>
</g>
</g>
<!-- Node19&#45;&gt;Node26 -->
<g id="edge31_Node000019_Node000026" class="edge">
<title>Node19&#45;&gt;Node26</title>
<g id="a_edge31_Node000019_Node000026"><a xlink:title=" ">
<path fill="none" stroke="#63b8ff" d="M1552.02,-491.56C1570.17,-475.78 1599.71,-452.41 1629.25,-439 1633.5,-437.07 1637.96,-435.33 1642.51,-433.76"/>
<polygon fill="#63b8ff" stroke="#63b8ff" points="1643.32,-437.17 1651.82,-430.85 1641.23,-430.49 1643.32,-437.17"/>
</a>
</g>
</g>
<!-- Node23 -->
<g id="Node000023" class="node">
<title>Node23</title>
<g id="a_Node000023"><a xlink:href="class_data_base_g_u_i.html#a625b5e2018395a458ff517bbf364e1bf" target="_top" xlink:title="Selects the appropriate sorting to use based on parent sort index.">
<polygon fill="white" stroke="#666666" points="1952.25,-562 1838.75,-562 1838.75,-530 1952.25,-530 1952.25,-562"/>
<text text-anchor="start" x="1846.75" y="-548.5" font-family="Helvetica,sans-Serif" font-size="10.00">DataBaseGUI::sort_to</text>
<text text-anchor="middle" x="1895.5" y="-536.5" font-family="Helvetica,sans-Serif" font-size="10.00">_populate_parent_tab</text>
</a>
</g>
</g>
<!-- Node22&#45;&gt;Node23 -->
<g id="edge26_Node000022_Node000023" class="edge">
<title>Node22&#45;&gt;Node23</title>
<g id="a_edge26_Node000022_Node000023"><a xlink:title=" ">
<path fill="none" stroke="#63b8ff" d="M1779.4,-546C1794.97,-546 1811.63,-546 1827.29,-546"/>
<polygon fill="#63b8ff" stroke="#63b8ff" points="1826.98,-549.5 1836.98,-546 1826.98,-542.5 1826.98,-549.5"/>
</a>
</g>
</g>
<!-- Node23&#45;&gt;Node19 -->
<g id="edge27_Node000023_Node000019" class="edge">
<title>Node23&#45;&gt;Node19</title>
<g id="a_edge27_Node000023_Node000019"><a xlink:title=" ">
<path fill="none" stroke="#63b8ff" d="M1838.27,-533.79C1824.95,-531.23 1810.77,-528.77 1797.5,-527 1732.62,-518.34 1658.19,-513.43 1605.04,-510.78"/>
<polygon fill="#63b8ff" stroke="#63b8ff" points="1605.37,-507.29 1595.21,-510.31 1605.03,-514.28 1605.37,-507.29"/>
</a>
</g>
</g>
<!-- Node24&#45;&gt;Node23 -->
<g id="edge29_Node000024_Node000023" class="edge">
<title>Node24&#45;&gt;Node23</title>
<g id="a_edge29_Node000024_Node000023"><a xlink:title=" ">
<path fill="none" stroke="#63b8ff" d="M1768.91,-576.68C1787.26,-572.2 1807.95,-567.14 1827.17,-562.45"/>
<polygon fill="#63b8ff" stroke="#63b8ff" points="1827.93,-565.86 1836.81,-560.09 1826.27,-559.06 1827.93,-565.86"/>
</a>
</g>
</g>
<!-- Node30&#45;&gt;Node16 -->
<g id="edge48_Node000030_Node000016" class="edge">
<title>Node30&#45;&gt;Node16</title>
<g id="a_edge48_Node000030_Node000016"><a xlink:title=" ">
<path fill="none" stroke="#63b8ff" d="M1227.48,-137.45C1248.96,-151.27 1281.34,-170.82 1311.5,-184 1315.49,-185.74 1319.69,-187.4 1323.95,-188.94"/>
<polygon fill="#63b8ff" stroke="#63b8ff" points="1322.52,-192.16 1333.12,-192.08 1324.79,-185.53 1322.52,-192.16"/>
</a>
</g>
</g>
<!-- Node30&#45;&gt;Node17 -->
<g id="edge49_Node000030_Node000017" class="edge">
<title>Node30&#45;&gt;Node17</title>
<g id="a_edge49_Node000030_Node000017"><a xlink:title=" ">
<path fill="none" stroke="#63b8ff" d="M1264.87,-137.01C1283.53,-141.83 1303.8,-147.06 1321.71,-151.69"/>
<polygon fill="#63b8ff" stroke="#63b8ff" points="1320.78,-155.07 1331.34,-154.18 1322.54,-148.29 1320.78,-155.07"/>
</a>
</g>
</g>
<!-- Node31 -->
<g id="Node000031" class="node">
<title>Node31</title>
<g id="a_Node000031"><a xlink:href="class_data_base_g_u_i.html#a54b1ac54d775ea37ae05fd54c756aebe" target="_top" xlink:title="Searches for employees based on the provided name and surname.">
<polygon fill="white" stroke="#666666" points="1437,-137 1311.5,-137 1311.5,-105 1437,-105 1437,-137"/>
<text text-anchor="start" x="1319.5" y="-123.5" font-family="Helvetica,sans-Serif" font-size="10.00">DataBaseGUI::employee</text>
<text text-anchor="middle" x="1374.25" y="-111.5" font-family="Helvetica,sans-Serif" font-size="10.00">_search</text>
</a>
</g>
</g>
<!-- Node30&#45;&gt;Node31 -->
<g id="edge38_Node000030_Node000031" class="edge">
<title>Node30&#45;&gt;Node31</title>
<g id="a_edge38_Node000030_Node000031"><a xlink:title=" ">
<path fill="none" stroke="#63b8ff" d="M1264.87,-121C1276.14,-121 1288,-121 1299.58,-121"/>
<polygon fill="#63b8ff" stroke="#63b8ff" points="1299.51,-124.5 1309.51,-121 1299.51,-117.5 1299.51,-124.5"/>
</a>
</g>
</g>
<!-- Node32 -->
<g id="Node000032" class="node">
<title>Node32</title>
<g id="a_Node000032"><a xlink:href="class_data_base_g_u_i.html#abab0899c6a55e240687bf21734273428" target="_top" xlink:title="Populates the parent tab with a list of parents.">
<polygon fill="white" stroke="#666666" points="1593.25,-137 1473,-137 1473,-105 1593.25,-105 1593.25,-137"/>
<text text-anchor="start" x="1481" y="-123.5" font-family="Helvetica,sans-Serif" font-size="10.00">DataBaseGUI::populate</text>
<text text-anchor="middle" x="1533.12" y="-111.5" font-family="Helvetica,sans-Serif" font-size="10.00">_employee_tab</text>
</a>
</g>
</g>
<!-- Node31&#45;&gt;Node32 -->
<g id="edge39_Node000031_Node000032" class="edge">
<title>Node31&#45;&gt;Node32</title>
<g id="a_edge39_Node000031_Node000032"><a xlink:title=" ">
<path fill="none" stroke="#63b8ff" d="M1437.25,-121C1445.17,-121 1453.32,-121 1461.36,-121"/>
<polygon fill="#63b8ff" stroke="#63b8ff" points="1461.11,-124.5 1471.11,-121 1461.11,-117.5 1461.11,-124.5"/>
</a>
</g>
</g>
<!-- Node33 -->
<g id="Node000033" class="node">
<title>Node33</title>
<g id="a_Node000033"><a xlink:href="class_employee_entry.html#ada71cffbda6a2614d266a6cc85d6684a" target="_top" xlink:title="Signal emitted when a employee edit is requested.">
<polygon fill="white" stroke="#666666" points="1789.25,-238 1637.5,-238 1637.5,-218 1789.25,-218 1789.25,-238"/>
<text text-anchor="middle" x="1713.38" y="-224.5" font-family="Helvetica,sans-Serif" font-size="10.00">EmployeeEntry::editRequested</text>
</a>
</g>
</g>
<!-- Node32&#45;&gt;Node33 -->
<g id="edge40_Node000032_Node000033" class="edge">
<title>Node32&#45;&gt;Node33</title>
<g id="a_edge40_Node000032_Node000033"><a xlink:title=" ">
<path fill="none" stroke="#63b8ff" d="M1547.08,-137.37C1563.85,-157.42 1595.03,-190.94 1629.25,-209 1632.52,-210.73 1635.95,-212.3 1639.47,-213.73"/>
<polygon fill="#63b8ff" stroke="#63b8ff" points="1638.22,-217 1648.82,-217.09 1640.59,-210.41 1638.22,-217"/>
</a>
</g>
</g>
<!-- Node34 -->
<g id="Node000034" class="node">
<title>Node34</title>
<g id="a_Node000034"><a xlink:href="class_data_base_g_u_i.html#ae9c0b91905f7d70563c285cd9b5dace3" target="_top" xlink:title="Edits an existing employee in the database.">
<polygon fill="white" stroke="#666666" points="1786.62,-150 1640.12,-150 1640.12,-130 1786.62,-130 1786.62,-150"/>
<text text-anchor="middle" x="1713.38" y="-136.5" font-family="Helvetica,sans-Serif" font-size="10.00">DataBaseGUI::employee_edit</text>
</a>
</g>
</g>
<!-- Node32&#45;&gt;Node34 -->
<g id="edge41_Node000032_Node000034" class="edge">
<title>Node32&#45;&gt;Node34</title>
<g id="a_edge41_Node000032_Node000034"><a xlink:title=" ">
<path fill="none" stroke="#63b8ff" d="M1593.48,-127.33C1604.68,-128.52 1616.6,-129.79 1628.39,-131.05"/>
<polygon fill="#63b8ff" stroke="#63b8ff" points="1627.82,-134.51 1638.13,-132.09 1628.56,-127.55 1627.82,-134.51"/>
</a>
</g>
</g>
<!-- Node36 -->
<g id="Node000036" class="node">
<title>Node36</title>
<g id="a_Node000036"><a xlink:href="class_data_base_g_u_i.html#a4b70294327e9c316224af10d7a369749" target="_top" xlink:title="Removes an employee from the database.">
<polygon fill="white" stroke="#666666" points="1776.12,-200 1650.62,-200 1650.62,-168 1776.12,-168 1776.12,-200"/>
<text text-anchor="start" x="1658.62" y="-186.5" font-family="Helvetica,sans-Serif" font-size="10.00">DataBaseGUI::employee</text>
<text text-anchor="middle" x="1713.38" y="-174.5" font-family="Helvetica,sans-Serif" font-size="10.00">_remove</text>
</a>
</g>
</g>
<!-- Node32&#45;&gt;Node36 -->
<g id="edge44_Node000032_Node000036" class="edge">
<title>Node32&#45;&gt;Node36</title>
<g id="a_edge44_Node000032_Node000036"><a xlink:title=" ">
<path fill="none" stroke="#63b8ff" d="M1573.17,-137.5C1590.26,-144.48 1610.61,-152.49 1629.25,-159 1634.23,-160.74 1639.41,-162.47 1644.63,-164.17"/>
<polygon fill="#63b8ff" stroke="#63b8ff" points="1643.34,-167.43 1653.93,-167.12 1645.46,-160.76 1643.34,-167.43"/>
</a>
</g>
</g>
<!-- Node37 -->
<g id="Node000037" class="node">
<title>Node37</title>
<g id="a_Node000037"><a xlink:href="class_data_base_g_u_i.html#aa5bbb368e92b4bf89edf9071df42aab3" target="_top" xlink:title="Clears the parent tab.">
<polygon fill="white" stroke="#666666" points="1776.12,-74 1650.62,-74 1650.62,-42 1776.12,-42 1776.12,-74"/>
<text text-anchor="start" x="1658.62" y="-60.5" font-family="Helvetica,sans-Serif" font-size="10.00">DataBaseGUI::employee</text>
<text text-anchor="middle" x="1713.38" y="-48.5" font-family="Helvetica,sans-Serif" font-size="10.00">_tab_clear</text>
</a>
</g>
</g>
<!-- Node32&#45;&gt;Node37 -->
<g id="edge46_Node000032_Node000037" class="edge">
<title>Node32&#45;&gt;Node37</title>
<g id="a_edge46_Node000032_Node000037"><a xlink:title=" ">
<path fill="none" stroke="#63b8ff" d="M1580.49,-104.61C1603.3,-96.55 1631.01,-86.76 1655.13,-78.23"/>
<polygon fill="#63b8ff" stroke="#63b8ff" points="1656.24,-81.55 1664.5,-74.92 1653.91,-74.95 1656.24,-81.55"/>
</a>
</g>
</g>
<!-- Node38 -->
<g id="Node000038" class="node">
<title>Node38</title>
<g id="a_Node000038"><a xlink:href="class_employee_entry.html#a6f579e66e8fc13dbc45c940edfc50b32" target="_top" xlink:title="Signal emitted when a employee removal is requested.">
<polygon fill="white" stroke="#666666" points="1797.5,-24 1629.25,-24 1629.25,-4 1797.5,-4 1797.5,-24"/>
<text text-anchor="middle" x="1713.38" y="-10.5" font-family="Helvetica,sans-Serif" font-size="10.00">EmployeeEntry::removeRequested</text>
</a>
</g>
</g>
<!-- Node32&#45;&gt;Node38 -->
<g id="edge47_Node000032_Node000038" class="edge">
<title>Node32&#45;&gt;Node38</title>
<g id="a_edge47_Node000032_Node000038"><a xlink:title=" ">
<path fill="none" stroke="#63b8ff" d="M1547.08,-104.63C1563.85,-84.58 1595.03,-51.06 1629.25,-33 1632.52,-31.27 1635.95,-29.7 1639.47,-28.27"/>
<polygon fill="#63b8ff" stroke="#63b8ff" points="1640.59,-31.59 1648.82,-24.91 1638.22,-25 1640.59,-31.59"/>
</a>
</g>
</g>
<!-- Node35 -->
<g id="Node000035" class="node">
<title>Node35</title>
<g id="a_Node000035"><a xlink:href="class_data_base_g_u_i.html#a0298d31c219c66a65a01eb01372e254d" target="_top" xlink:title="Selects the appropriate sorting to use based on employee sort index.">
<polygon fill="white" stroke="#666666" points="1957.5,-156 1833.5,-156 1833.5,-124 1957.5,-124 1957.5,-156"/>
<text text-anchor="start" x="1841.5" y="-142.5" font-family="Helvetica,sans-Serif" font-size="10.00">DataBaseGUI::sort_to</text>
<text text-anchor="middle" x="1895.5" y="-130.5" font-family="Helvetica,sans-Serif" font-size="10.00">_populate_employee_tab</text>
</a>
</g>
</g>
<!-- Node34&#45;&gt;Node35 -->
<g id="edge42_Node000034_Node000035" class="edge">
<title>Node34&#45;&gt;Node35</title>
<g id="a_edge42_Node000034_Node000035"><a xlink:title=" ">
<path fill="none" stroke="#63b8ff" d="M1787.12,-140C1798.54,-140 1810.35,-140 1821.78,-140"/>
<polygon fill="#63b8ff" stroke="#63b8ff" points="1821.53,-143.5 1831.53,-140 1821.53,-136.5 1821.53,-143.5"/>
</a>
</g>
</g>
<!-- Node35&#45;&gt;Node32 -->
<g id="edge43_Node000035_Node000032" class="edge">
<title>Node35&#45;&gt;Node32</title>
<g id="a_edge43_Node000035_Node000032"><a xlink:title=" ">
<path fill="none" stroke="#63b8ff" d="M1833.19,-126.13C1821.4,-124 1809.11,-122.13 1797.5,-121 1732.52,-114.7 1658.1,-115.42 1604.98,-117.3"/>
<polygon fill="#63b8ff" stroke="#63b8ff" points="1605.02,-113.8 1595.16,-117.67 1605.28,-120.79 1605.02,-113.8"/>
</a>
</g>
</g>
<!-- Node36&#45;&gt;Node35 -->
<g id="edge45_Node000036_Node000035" class="edge">
<title>Node36&#45;&gt;Node35</title>
<g id="a_edge45_Node000036_Node000035"><a xlink:title=" ">
<path fill="none" stroke="#63b8ff" d="M1776.62,-168.8C1791.34,-165.2 1807.17,-161.33 1822.3,-157.64"/>
<polygon fill="#63b8ff" stroke="#63b8ff" points="1822.82,-161.11 1831.7,-155.34 1821.16,-154.31 1822.82,-161.11"/>
</a>
</g>
</g>
</g>
</svg>
