<?xml version="1.0" encoding="UTF-8" standalone="no"?>
<!DOCTYPE svg PUBLIC "-//W3C//DTD SVG 1.1//EN"
 "http://www.w3.org/Graphics/SVG/1.1/DTD/svg11.dtd">
<!-- Generated by graphviz version 12.2.1 (20241206.2353)
 -->
<!-- Title: DataBaseGUI::child_search_by_pointer Pages: 1 -->
<svg width="1411pt" height="573pt"
 viewBox="0.00 0.00 1411.25 573.33" xmlns="http://www.w3.org/2000/svg" xmlns:xlink="http://www.w3.org/1999/xlink">
<g id="graph0" class="graph" transform="scale(1 1) rotate(0) translate(4 569.33)">
<title>DataBaseGUI::child_search_by_pointer</title>
<!-- Node1 -->
<g id="Node000001" class="node">
<title>Node1</title>
<g id="a_Node000001"><a xlink:title="Searches for children based on the provided child pointer.">
<polygon fill="#999999" stroke="#666666" points="1403.25,-104.03 1299.5,-104.03 1299.5,-72.03 1403.25,-72.03 1403.25,-104.03"/>
<text text-anchor="start" x="1307.5" y="-90.53" font-family="Helvetica,sans-Serif" font-size="10.00">DataBaseGUI::child</text>
<text text-anchor="middle" x="1351.38" y="-78.53" font-family="Helvetica,sans-Serif" font-size="10.00">_search_by_pointer</text>
</a>
</g>
</g>
<!-- Node2 -->
<g id="Node000002" class="node">
<title>Node2</title>
<g id="a_Node000002"><a xlink:href="class_data_base_g_u_i.html#a33f2f95926f7b4b05227dcf395e235d3" target="_top" xlink:title="Populates the parent tab with a multimap of parents.">
<polygon fill="white" stroke="#666666" points="784.62,-38.03 664.38,-38.03 664.38,-6.03 784.62,-6.03 784.62,-38.03"/>
<text text-anchor="start" x="672.38" y="-24.53" font-family="Helvetica,sans-Serif" font-size="10.00">DataBaseGUI::populate</text>
<text text-anchor="middle" x="724.5" y="-12.53" font-family="Helvetica,sans-Serif" font-size="10.00">_parent_tab</text>
</a>
</g>
</g>
<!-- Node1&#45;&gt;Node2 -->
<g id="edge1_Node000001_Node000002" class="edge">
<title>Node1&#45;&gt;Node2</title>
<g id="a_edge1_Node000001_Node000002"><a xlink:title=" ">
<path fill="none" stroke="#63b8ff" d="M1290.4,-68.2C1193.37,-38.41 995.71,12.81 826.25,-3.03 812.78,-4.29 798.43,-6.47 784.91,-8.92"/>
<polygon fill="#63b8ff" stroke="#63b8ff" points="1289.13,-71.47 1299.72,-71.09 1291.2,-64.78 1289.13,-71.47"/>
</a>
</g>
</g>
<!-- Node3 -->
<g id="Node000003" class="node">
<title>Node3</title>
<g id="a_Node000003"><a xlink:href="class_data_base_g_u_i.html#a739b2cf48c0cb6e3cab2da0a7bbd6d6d" target="_top" xlink:title="Populates the parent tab with a list of parents.">
<polygon fill="white" stroke="#666666" points="1263.5,-104.03 1143.25,-104.03 1143.25,-72.03 1263.5,-72.03 1263.5,-104.03"/>
<text text-anchor="start" x="1151.25" y="-90.53" font-family="Helvetica,sans-Serif" font-size="10.00">DataBaseGUI::populate</text>
<text text-anchor="middle" x="1203.38" y="-78.53" font-family="Helvetica,sans-Serif" font-size="10.00">_parent_tab</text>
</a>
</g>
</g>
<!-- Node1&#45;&gt;Node3 -->
<g id="edge2_Node000001_Node000003" class="edge">
<title>Node1&#45;&gt;Node3</title>
<g id="a_edge2_Node000001_Node000003"><a xlink:title=" ">
<path fill="none" stroke="#63b8ff" d="M1287.85,-88.03C1279.91,-88.03 1271.81,-88.03 1263.92,-88.03"/>
<polygon fill="#63b8ff" stroke="#63b8ff" points="1287.8,-91.53 1297.8,-88.03 1287.8,-84.53 1287.8,-91.53"/>
</a>
</g>
</g>
<!-- Node4 -->
<g id="Node000004" class="node">
<title>Node4</title>
<g id="a_Node000004"><a xlink:href="class_data_base_g_u_i.html#a7c3d843eec449d8a4ec5ce6bf0375358" target="_top" xlink:title="Searches for parents based on the provided name and surname.">
<polygon fill="white" stroke="#666666" points="1105.75,-240.03 995.25,-240.03 995.25,-208.03 1105.75,-208.03 1105.75,-240.03"/>
<text text-anchor="start" x="1003.25" y="-226.53" font-family="Helvetica,sans-Serif" font-size="10.00">DataBaseGUI::parent</text>
<text text-anchor="middle" x="1050.5" y="-214.53" font-family="Helvetica,sans-Serif" font-size="10.00">_search</text>
</a>
</g>
</g>
<!-- Node3&#45;&gt;Node4 -->
<g id="edge3_Node000003_Node000004" class="edge">
<title>Node3&#45;&gt;Node4</title>
<g id="a_edge3_Node000003_Node000004"><a xlink:title=" ">
<path fill="none" stroke="#63b8ff" d="M1175.74,-112.04C1145.27,-139.5 1096.19,-183.74 1069.76,-207.56"/>
<polygon fill="#63b8ff" stroke="#63b8ff" points="1177.97,-114.74 1183.05,-105.44 1173.28,-109.54 1177.97,-114.74"/>
</a>
</g>
</g>
<!-- Node19 -->
<g id="Node000019" class="node">
<title>Node19</title>
<g id="a_Node000019"><a xlink:href="class_data_base_g_u_i.html#a625b5e2018395a458ff517bbf364e1bf" target="_top" xlink:title="Selects the appropriate sorting to use based on parent sort index.">
<polygon fill="white" stroke="#666666" points="1107.25,-126.03 993.75,-126.03 993.75,-94.03 1107.25,-94.03 1107.25,-126.03"/>
<text text-anchor="start" x="1001.75" y="-112.53" font-family="Helvetica,sans-Serif" font-size="10.00">DataBaseGUI::sort_to</text>
<text text-anchor="middle" x="1050.5" y="-100.53" font-family="Helvetica,sans-Serif" font-size="10.00">_populate_parent_tab</text>
</a>
</g>
</g>
<!-- Node3&#45;&gt;Node19 -->
<g id="edge29_Node000003_Node000019" class="edge">
<title>Node3&#45;&gt;Node19</title>
<g id="a_edge29_Node000003_Node000019"><a xlink:title=" ">
<path fill="none" stroke="#63b8ff" d="M1132.06,-98.28C1123.85,-99.48 1115.55,-100.69 1107.57,-101.85"/>
<polygon fill="#63b8ff" stroke="#63b8ff" points="1132.29,-101.78 1141.68,-96.88 1131.28,-94.86 1132.29,-101.78"/>
</a>
</g>
</g>
<!-- Node5 -->
<g id="Node000005" class="node">
<title>Node5</title>
<g id="a_Node000005"><a xlink:href="class_data_base_g_u_i.html#a8e1fe573ef6a09e112989968ec1a2b43" target="_top" xlink:title="Searches for parents based on the provided parent pointer.">
<polygon fill="white" stroke="#666666" points="947.25,-457.03 836.75,-457.03 836.75,-425.03 947.25,-425.03 947.25,-457.03"/>
<text text-anchor="start" x="844.75" y="-443.53" font-family="Helvetica,sans-Serif" font-size="10.00">DataBaseGUI::parent</text>
<text text-anchor="middle" x="892" y="-431.53" font-family="Helvetica,sans-Serif" font-size="10.00">_search_by_pointer</text>
</a>
</g>
</g>
<!-- Node4&#45;&gt;Node5 -->
<g id="edge4_Node000004_Node000005" class="edge">
<title>Node4&#45;&gt;Node5</title>
<g id="a_edge4_Node000004_Node000005"><a xlink:title=" ">
<path fill="none" stroke="#63b8ff" d="M1031.18,-249.43C998.74,-294.42 932.05,-386.88 904.9,-424.53"/>
<polygon fill="#63b8ff" stroke="#63b8ff" points="1033.84,-251.72 1036.85,-241.56 1028.16,-247.63 1033.84,-251.72"/>
</a>
</g>
</g>
<!-- Node9 -->
<g id="Node000009" class="node">
<title>Node9</title>
<g id="a_Node000009"><a xlink:href="class_data_base_g_u_i.html#a6c35e47ed05a80db144f240dee805a9d" target="_top" xlink:title="Sets up the GUI.">
<polygon fill="white" stroke="#666666" points="294.88,-275.03 187.38,-275.03 187.38,-255.03 294.88,-255.03 294.88,-275.03"/>
<text text-anchor="middle" x="241.12" y="-261.53" font-family="Helvetica,sans-Serif" font-size="10.00">DataBaseGUI::setup</text>
</a>
</g>
</g>
<!-- Node4&#45;&gt;Node9 -->
<g id="edge28_Node000004_Node000009" class="edge">
<title>Node4&#45;&gt;Node9</title>
<g id="a_edge28_Node000004_Node000009"><a xlink:title=" ">
<path fill="none" stroke="#63b8ff" d="M983.49,-217.43C856.93,-206.37 571.88,-189.17 337.25,-231.03 311.52,-235.62 283.52,-246.38 264.61,-254.58"/>
<polygon fill="#63b8ff" stroke="#63b8ff" points="983.09,-220.91 993.36,-218.31 983.71,-213.93 983.09,-220.91"/>
</a>
</g>
</g>
<!-- Node6 -->
<g id="Node000006" class="node">
<title>Node6</title>
<g id="a_Node000006"><a xlink:href="class_data_base_g_u_i.html#a334c0011a9d3a71539b326a888feccd3" target="_top" xlink:title="Populates the children tab with a multimap of children.">
<polygon fill="white" stroke="#666666" points="301.25,-507.03 181,-507.03 181,-475.03 301.25,-475.03 301.25,-507.03"/>
<text text-anchor="start" x="189" y="-493.53" font-family="Helvetica,sans-Serif" font-size="10.00">DataBaseGUI::populate</text>
<text text-anchor="middle" x="241.12" y="-481.53" font-family="Helvetica,sans-Serif" font-size="10.00">_children_tab</text>
</a>
</g>
</g>
<!-- Node5&#45;&gt;Node6 -->
<g id="edge5_Node000005_Node000006" class="edge">
<title>Node5&#45;&gt;Node6</title>
<g id="a_edge5_Node000005_Node000006"><a xlink:title=" ">
<path fill="none" stroke="#63b8ff" d="M851.21,-462.49C800.07,-488.75 707.74,-531.7 622.75,-548.03 498.08,-571.97 459.93,-571.68 337.25,-539.03 312.05,-532.32 285.75,-518.44 267.21,-507.32"/>
<polygon fill="#63b8ff" stroke="#63b8ff" points="852.57,-465.73 859.83,-458.02 849.34,-459.52 852.57,-465.73"/>
</a>
</g>
</g>
<!-- Node7 -->
<g id="Node000007" class="node">
<title>Node7</title>
<g id="a_Node000007"><a xlink:href="class_data_base_g_u_i.html#af346d08370d9e4574980707f61b9c8f7" target="_top" xlink:title="Populates the children tab with a list of children.">
<polygon fill="white" stroke="#666666" points="784.62,-457.03 664.38,-457.03 664.38,-425.03 784.62,-425.03 784.62,-457.03"/>
<text text-anchor="start" x="672.38" y="-443.53" font-family="Helvetica,sans-Serif" font-size="10.00">DataBaseGUI::populate</text>
<text text-anchor="middle" x="724.5" y="-431.53" font-family="Helvetica,sans-Serif" font-size="10.00">_children_tab</text>
</a>
</g>
</g>
<!-- Node5&#45;&gt;Node7 -->
<g id="edge6_Node000005_Node000007" class="edge">
<title>Node5&#45;&gt;Node7</title>
<g id="a_edge6_Node000005_Node000007"><a xlink:title=" ">
<path fill="none" stroke="#63b8ff" d="M824.93,-441.03C811.71,-441.03 797.91,-441.03 784.94,-441.03"/>
<polygon fill="#63b8ff" stroke="#63b8ff" points="824.84,-444.53 834.84,-441.03 824.84,-437.53 824.84,-444.53"/>
</a>
</g>
</g>
<!-- Node8 -->
<g id="Node000008" class="node">
<title>Node8</title>
<g id="a_Node000008"><a xlink:href="class_data_base_g_u_i.html#a2d921da686e76ae195da018bb735a1ae" target="_top" xlink:title="Searches for children based on the provided name and surname.">
<polygon fill="white" stroke="#666666" points="616.75,-539.03 513,-539.03 513,-507.03 616.75,-507.03 616.75,-539.03"/>
<text text-anchor="start" x="521" y="-525.53" font-family="Helvetica,sans-Serif" font-size="10.00">DataBaseGUI::child</text>
<text text-anchor="middle" x="564.88" y="-513.53" font-family="Helvetica,sans-Serif" font-size="10.00">_search</text>
</a>
</g>
</g>
<!-- Node7&#45;&gt;Node8 -->
<g id="edge7_Node000007_Node000008" class="edge">
<title>Node7&#45;&gt;Node8</title>
<g id="a_edge7_Node000007_Node000008"><a xlink:title=" ">
<path fill="none" stroke="#63b8ff" d="M681.85,-462.69C655.36,-476.48 621.59,-494.04 597.34,-506.66"/>
<polygon fill="#63b8ff" stroke="#63b8ff" points="683.38,-465.84 690.64,-458.12 680.15,-459.63 683.38,-465.84"/>
</a>
</g>
</g>
<!-- Node7&#45;&gt;Node9 -->
<g id="edge12_Node000007_Node000009" class="edge">
<title>Node7&#45;&gt;Node9</title>
<g id="a_edge12_Node000007_Node000009"><a xlink:title=" ">
<path fill="none" stroke="#63b8ff" d="M702.2,-416.2C662.26,-371.78 571.04,-280.16 471,-246.03 403.64,-223.04 318.94,-241.35 273.83,-254.54"/>
<polygon fill="#63b8ff" stroke="#63b8ff" points="699.46,-418.38 708.71,-423.54 704.7,-413.74 699.46,-418.38"/>
</a>
</g>
</g>
<!-- Node12 -->
<g id="Node000012" class="node">
<title>Node12</title>
<g id="a_Node000012"><a xlink:href="class_data_base_g_u_i.html#aa684465aa73b5b34bbadd24fc7f2f641" target="_top" xlink:title="Selects the appropriate sorting to use based on child sort index.">
<polygon fill="white" stroke="#666666" points="622.75,-413.03 507,-413.03 507,-381.03 622.75,-381.03 622.75,-413.03"/>
<text text-anchor="start" x="515" y="-399.53" font-family="Helvetica,sans-Serif" font-size="10.00">DataBaseGUI::sort_to</text>
<text text-anchor="middle" x="564.88" y="-387.53" font-family="Helvetica,sans-Serif" font-size="10.00">_populate_children_tab</text>
</a>
</g>
</g>
<!-- Node7&#45;&gt;Node12 -->
<g id="edge13_Node000007_Node000012" class="edge">
<title>Node7&#45;&gt;Node12</title>
<g id="a_edge13_Node000007_Node000012"><a xlink:title=" ">
<path fill="none" stroke="#63b8ff" d="M653.78,-421.56C643.5,-418.7 633.02,-415.77 623.05,-412.99"/>
<polygon fill="#63b8ff" stroke="#63b8ff" points="652.78,-424.92 663.35,-424.24 654.66,-418.18 652.78,-424.92"/>
</a>
</g>
</g>
<!-- Node8&#45;&gt;Node1 -->
<g id="edge8_Node000008_Node000001" class="edge">
<title>Node8&#45;&gt;Node1</title>
<g id="a_edge8_Node000008_Node000001"><a xlink:title=" ">
<path fill="none" stroke="#63b8ff" d="M628.4,-517.2C693.82,-511.61 799.52,-504.03 891,-504.03 1051.5,-504.03 1051.5,-504.03 1051.5,-504.03 1252.04,-504.03 1331.18,-181.25 1347.2,-104.33"/>
<polygon fill="#63b8ff" stroke="#63b8ff" points="628.23,-513.7 618.57,-518.05 628.84,-520.68 628.23,-513.7"/>
</a>
</g>
</g>
<!-- Node8&#45;&gt;Node9 -->
<g id="edge9_Node000008_Node000009" class="edge">
<title>Node8&#45;&gt;Node9</title>
<g id="a_edge9_Node000008_Node000009"><a xlink:title=" ">
<path fill="none" stroke="#63b8ff" d="M501.6,-536.43C452.34,-543.33 384.26,-544.22 337.25,-510.03 296.29,-480.23 254.84,-317.87 244.55,-275.27"/>
<polygon fill="#63b8ff" stroke="#63b8ff" points="501.9,-539.92 511.25,-534.95 500.84,-533 501.9,-539.92"/>
</a>
</g>
</g>
<!-- Node10 -->
<g id="Node000010" class="node">
<title>Node10</title>
<g id="a_Node000010"><a xlink:href="class_data_base_g_u_i.html#a2c83afe3a30fb5166d275d9a74d33196" target="_top" xlink:title="Default constructor.">
<polygon fill="white" stroke="#666666" points="145,-294.03 0,-294.03 0,-274.03 145,-274.03 145,-294.03"/>
<text text-anchor="middle" x="72.5" y="-280.53" font-family="Helvetica,sans-Serif" font-size="10.00">DataBaseGUI::DataBaseGUI</text>
</a>
</g>
</g>
<!-- Node9&#45;&gt;Node10 -->
<g id="edge10_Node000009_Node000010" class="edge">
<title>Node9&#45;&gt;Node10</title>
<g id="a_edge10_Node000009_Node000010"><a xlink:title=" ">
<path fill="none" stroke="#63b8ff" d="M175.53,-272.39C165.64,-273.52 155.37,-274.69 145.32,-275.84"/>
<polygon fill="#63b8ff" stroke="#63b8ff" points="175.9,-275.87 185.44,-271.26 175.11,-268.92 175.9,-275.87"/>
</a>
</g>
</g>
<!-- Node11 -->
<g id="Node000011" class="node">
<title>Node11</title>
<g id="a_Node000011"><a xlink:href="class_data_base_g_u_i.html#aba10d1d8e9fb151632ff34de418cee82" target="_top" xlink:title="Constructs a DataBaseGUI object.">
<polygon fill="white" stroke="#666666" points="145,-256.03 0,-256.03 0,-236.03 145,-236.03 145,-256.03"/>
<text text-anchor="middle" x="72.5" y="-242.53" font-family="Helvetica,sans-Serif" font-size="10.00">DataBaseGUI::DataBaseGUI</text>
</a>
</g>
</g>
<!-- Node9&#45;&gt;Node11 -->
<g id="edge11_Node000009_Node000011" class="edge">
<title>Node9&#45;&gt;Node11</title>
<g id="a_edge11_Node000009_Node000011"><a xlink:title=" ">
<path fill="none" stroke="#63b8ff" d="M175.53,-257.66C165.64,-256.53 155.37,-255.36 145.32,-254.22"/>
<polygon fill="#63b8ff" stroke="#63b8ff" points="175.11,-261.14 185.44,-258.79 175.9,-254.18 175.11,-261.14"/>
</a>
</g>
</g>
<!-- Node13 -->
<g id="Node000013" class="node">
<title>Node13</title>
<g id="a_Node000013"><a xlink:href="class_data_base_g_u_i.html#a00f9044d3b8dd9c5dada244dac1b0df6" target="_top" xlink:title="Adds a new child to the database.">
<polygon fill="white" stroke="#666666" points="466.5,-313.03 341.75,-313.03 341.75,-293.03 466.5,-293.03 466.5,-313.03"/>
<text text-anchor="middle" x="404.12" y="-299.53" font-family="Helvetica,sans-Serif" font-size="10.00">DataBaseGUI::child_add</text>
</a>
</g>
</g>
<!-- Node12&#45;&gt;Node13 -->
<g id="edge14_Node000012_Node000013" class="edge">
<title>Node12&#45;&gt;Node13</title>
<g id="a_edge14_Node000012_Node000013"><a xlink:title=" ">
<path fill="none" stroke="#63b8ff" d="M539.83,-373.07C522.13,-356.62 496.75,-335.43 471,-322.03 464.56,-318.67 457.45,-315.84 450.35,-313.47"/>
<polygon fill="#63b8ff" stroke="#63b8ff" points="537.11,-375.31 546.77,-379.66 541.93,-370.24 537.11,-375.31"/>
</a>
</g>
</g>
<!-- Node14 -->
<g id="Node000014" class="node">
<title>Node14</title>
<g id="a_Node000014"><a xlink:href="class_data_base_g_u_i.html#acb6c6b292e58d0ead30682f7f5705244" target="_top" xlink:title="Edits an existing child in the database.">
<polygon fill="white" stroke="#666666" points="466.5,-501.03 341.75,-501.03 341.75,-481.03 466.5,-481.03 466.5,-501.03"/>
<text text-anchor="middle" x="404.12" y="-487.53" font-family="Helvetica,sans-Serif" font-size="10.00">DataBaseGUI::child_edit</text>
</a>
</g>
</g>
<!-- Node12&#45;&gt;Node14 -->
<g id="edge16_Node000012_Node000014" class="edge">
<title>Node12&#45;&gt;Node14</title>
<g id="a_edge16_Node000012_Node000014"><a xlink:title=" ">
<path fill="none" stroke="#63b8ff" d="M539.83,-420.99C522.13,-437.43 496.75,-458.62 471,-472.03 464.56,-475.38 457.45,-478.21 450.35,-480.59"/>
<polygon fill="#63b8ff" stroke="#63b8ff" points="541.93,-423.82 546.77,-414.39 537.11,-418.74 541.93,-423.82"/>
</a>
</g>
</g>
<!-- Node15 -->
<g id="Node000015" class="node">
<title>Node15</title>
<g id="a_Node000015"><a xlink:href="class_data_base_g_u_i.html#ae3a08843db874e51a7cea32fa8937ca5" target="_top" xlink:title="Removes a child from the database.">
<polygon fill="white" stroke="#666666" points="456,-463.03 352.25,-463.03 352.25,-431.03 456,-431.03 456,-463.03"/>
<text text-anchor="start" x="360.25" y="-449.53" font-family="Helvetica,sans-Serif" font-size="10.00">DataBaseGUI::child</text>
<text text-anchor="middle" x="404.12" y="-437.53" font-family="Helvetica,sans-Serif" font-size="10.00">_remove</text>
</a>
</g>
</g>
<!-- Node12&#45;&gt;Node15 -->
<g id="edge19_Node000012_Node000015" class="edge">
<title>Node12&#45;&gt;Node15</title>
<g id="a_edge19_Node000012_Node000015"><a xlink:title=" ">
<path fill="none" stroke="#63b8ff" d="M501.25,-416.75C486.38,-421.43 470.7,-426.37 456.41,-430.87"/>
<polygon fill="#63b8ff" stroke="#63b8ff" points="501.96,-420.2 510.45,-413.85 499.86,-413.52 501.96,-420.2"/>
</a>
</g>
</g>
<!-- Node16 -->
<g id="Node000016" class="node">
<title>Node16</title>
<g id="a_Node000016"><a xlink:href="class_data_base_g_u_i.html#a2e6d3629f679c153cdd21b683ce794a1" target="_top" xlink:title="Changes the sorting method for children.">
<polygon fill="white" stroke="#666666" points="456,-413.03 352.25,-413.03 352.25,-381.03 456,-381.03 456,-413.03"/>
<text text-anchor="start" x="360.25" y="-399.53" font-family="Helvetica,sans-Serif" font-size="10.00">DataBaseGUI::child</text>
<text text-anchor="middle" x="404.12" y="-387.53" font-family="Helvetica,sans-Serif" font-size="10.00">_sort_change</text>
</a>
</g>
</g>
<!-- Node12&#45;&gt;Node16 -->
<g id="edge22_Node000012_Node000016" class="edge">
<title>Node12&#45;&gt;Node16</title>
<g id="a_edge22_Node000012_Node000016"><a xlink:title=" ">
<path fill="none" stroke="#63b8ff" d="M495.22,-397.03C482.16,-397.03 468.7,-397.03 456.3,-397.03"/>
<polygon fill="#63b8ff" stroke="#63b8ff" points="495.05,-400.53 505.05,-397.03 495.05,-393.53 495.05,-400.53"/>
</a>
</g>
</g>
<!-- Node17 -->
<g id="Node000017" class="node">
<title>Node17</title>
<g id="a_Node000017"><a xlink:href="class_data_base_g_u_i.html#a20d1ece0affaa1f5b6876ee072dd2ab1" target="_top" xlink:title="Imports a database from a file.">
<polygon fill="white" stroke="#666666" points="459.38,-363.03 348.88,-363.03 348.88,-331.03 459.38,-331.03 459.38,-363.03"/>
<text text-anchor="start" x="356.88" y="-349.53" font-family="Helvetica,sans-Serif" font-size="10.00">DataBaseGUI::import</text>
<text text-anchor="middle" x="404.12" y="-337.53" font-family="Helvetica,sans-Serif" font-size="10.00">_database</text>
</a>
</g>
</g>
<!-- Node12&#45;&gt;Node17 -->
<g id="edge24_Node000012_Node000017" class="edge">
<title>Node12&#45;&gt;Node17</title>
<g id="a_edge24_Node000012_Node000017"><a xlink:title=" ">
<path fill="none" stroke="#63b8ff" d="M501.04,-377.24C486.62,-372.69 471.42,-367.91 457.49,-363.52"/>
<polygon fill="#63b8ff" stroke="#63b8ff" points="499.86,-380.53 510.45,-380.2 501.96,-373.86 499.86,-380.53"/>
</a>
</g>
</g>
<!-- Node18 -->
<g id="Node000018" class="node">
<title>Node18</title>
<g id="a_Node000018"><a xlink:href="class_data_base_g_u_i.html#a438b5070d6a58ffa5e884d18740852c6" target="_top" xlink:title="Handles tab change events.">
<polygon fill="white" stroke="#666666" points="471,-275.03 337.25,-275.03 337.25,-255.03 471,-255.03 471,-275.03"/>
<text text-anchor="middle" x="404.12" y="-261.53" font-family="Helvetica,sans-Serif" font-size="10.00">DataBaseGUI::tab_change</text>
</a>
</g>
</g>
<!-- Node12&#45;&gt;Node18 -->
<g id="edge26_Node000012_Node000018" class="edge">
<title>Node12&#45;&gt;Node18</title>
<g id="a_edge26_Node000012_Node000018"><a xlink:title=" ">
<path fill="none" stroke="#63b8ff" d="M549.06,-371.1C533.03,-345.32 505.12,-306.47 471,-284.03 465.83,-280.62 460.04,-277.82 454.1,-275.51"/>
<polygon fill="#63b8ff" stroke="#63b8ff" points="546.05,-372.88 554.21,-379.64 552.04,-369.26 546.05,-372.88"/>
</a>
</g>
</g>
<!-- Node13&#45;&gt;Node9 -->
<g id="edge15_Node000013_Node000009" class="edge">
<title>Node13&#45;&gt;Node9</title>
<g id="a_edge15_Node000013_Node000009"><a xlink:title=" ">
<path fill="none" stroke="#63b8ff" d="M347.56,-289.91C327.57,-285.19 305.3,-279.94 286.4,-275.48"/>
<polygon fill="#63b8ff" stroke="#63b8ff" points="346.7,-293.3 357.23,-292.19 348.3,-286.49 346.7,-293.3"/>
</a>
</g>
</g>
<!-- Node14&#45;&gt;Node6 -->
<g id="edge17_Node000014_Node000006" class="edge">
<title>Node14&#45;&gt;Node6</title>
<g id="a_edge17_Node000014_Node000006"><a xlink:title=" ">
<path fill="none" stroke="#63b8ff" d="M329.9,-491.03C320.43,-491.03 310.83,-491.03 301.63,-491.03"/>
<polygon fill="#63b8ff" stroke="#63b8ff" points="329.83,-494.53 339.83,-491.03 329.83,-487.53 329.83,-494.53"/>
</a>
</g>
</g>
<!-- Node14&#45;&gt;Node7 -->
<g id="edge18_Node000014_Node000007" class="edge">
<title>Node14&#45;&gt;Node7</title>
<g id="a_edge18_Node000014_Node000007"><a xlink:title=" ">
<path fill="none" stroke="#63b8ff" d="M477.93,-480.3C520.23,-473.98 574.53,-465.75 622.75,-458.03 636.15,-455.88 650.54,-453.5 664.13,-451.21"/>
<polygon fill="#63b8ff" stroke="#63b8ff" points="477.48,-476.82 468.11,-481.76 478.51,-483.75 477.48,-476.82"/>
</a>
</g>
</g>
<!-- Node15&#45;&gt;Node6 -->
<g id="edge20_Node000015_Node000006" class="edge">
<title>Node15&#45;&gt;Node6</title>
<g id="a_edge20_Node000015_Node000006"><a xlink:title=" ">
<path fill="none" stroke="#63b8ff" d="M341.44,-463.89C328.41,-467.45 314.68,-471.2 301.73,-474.74"/>
<polygon fill="#63b8ff" stroke="#63b8ff" points="342,-467.36 350.72,-461.35 340.15,-460.61 342,-467.36"/>
</a>
</g>
</g>
<!-- Node15&#45;&gt;Node7 -->
<g id="edge21_Node000015_Node000007" class="edge">
<title>Node15&#45;&gt;Node7</title>
<g id="a_edge21_Node000015_Node000007"><a xlink:title=" ">
<path fill="none" stroke="#63b8ff" d="M467.83,-445.84C524.74,-444.77 608.09,-443.2 663.99,-442.15"/>
<polygon fill="#63b8ff" stroke="#63b8ff" points="467.9,-442.34 457.97,-446.03 468.03,-449.34 467.9,-442.34"/>
</a>
</g>
</g>
<!-- Node16&#45;&gt;Node9 -->
<g id="edge23_Node000016_Node000009" class="edge">
<title>Node16&#45;&gt;Node9</title>
<g id="a_edge23_Node000016_Node000009"><a xlink:title=" ">
<path fill="none" stroke="#63b8ff" d="M342.18,-375.2C340.49,-374.18 338.84,-373.12 337.25,-372.03 297.14,-344.38 262.69,-296.35 248.74,-275.35"/>
<polygon fill="#63b8ff" stroke="#63b8ff" points="340.42,-378.23 350.89,-379.89 343.74,-372.06 340.42,-378.23"/>
</a>
</g>
</g>
<!-- Node17&#45;&gt;Node9 -->
<g id="edge25_Node000017_Node000009" class="edge">
<title>Node17&#45;&gt;Node9</title>
<g id="a_edge25_Node000017_Node000009"><a xlink:title=" ">
<path fill="none" stroke="#63b8ff" d="M346.17,-326.14C343.13,-324.8 340.14,-323.43 337.25,-322.03 307.97,-307.84 275.89,-287.54 257.47,-275.38"/>
<polygon fill="#63b8ff" stroke="#63b8ff" points="344.65,-329.3 355.22,-329.97 347.37,-322.85 344.65,-329.3"/>
</a>
</g>
</g>
<!-- Node18&#45;&gt;Node9 -->
<g id="edge27_Node000018_Node000009" class="edge">
<title>Node18&#45;&gt;Node9</title>
<g id="a_edge27_Node000018_Node000009"><a xlink:title=" ">
<path fill="none" stroke="#63b8ff" d="M325.87,-265.03C315.39,-265.03 304.84,-265.03 294.93,-265.03"/>
<polygon fill="#63b8ff" stroke="#63b8ff" points="325.66,-268.53 335.66,-265.03 325.66,-261.53 325.66,-268.53"/>
</a>
</g>
</g>
<!-- Node19&#45;&gt;Node18 -->
<g id="edge40_Node000019_Node000018" class="edge">
<title>Node19&#45;&gt;Node18</title>
<g id="a_edge40_Node000019_Node000018"><a xlink:title=" ">
<path fill="none" stroke="#63b8ff" d="M993.49,-129.99C981.75,-133.88 969.4,-137.76 957.75,-141.03 778.1,-191.38 561.16,-235.21 460.91,-254.53"/>
<polygon fill="#63b8ff" stroke="#63b8ff" points="994.26,-133.42 1002.62,-126.92 992.03,-126.79 994.26,-133.42"/>
</a>
</g>
</g>
<!-- Node20 -->
<g id="Node000020" class="node">
<title>Node20</title>
<g id="a_Node000020"><a xlink:href="class_data_base_g_u_i.html#a336fa47d9a9e56d585d82f53d33e8593" target="_top" xlink:title="Adds a new parent to the database.">
<polygon fill="white" stroke="#666666" points="790.25,-115.03 658.75,-115.03 658.75,-95.03 790.25,-95.03 790.25,-115.03"/>
<text text-anchor="middle" x="724.5" y="-101.53" font-family="Helvetica,sans-Serif" font-size="10.00">DataBaseGUI::parent_add</text>
</a>
</g>
</g>
<!-- Node19&#45;&gt;Node20 -->
<g id="edge30_Node000019_Node000020" class="edge">
<title>Node19&#45;&gt;Node20</title>
<g id="a_edge30_Node000019_Node000020"><a xlink:title=" ">
<path fill="none" stroke="#63b8ff" d="M982.16,-108.99C925.92,-108.12 846.24,-106.89 790.63,-106.03"/>
<polygon fill="#63b8ff" stroke="#63b8ff" points="981.87,-112.48 991.92,-109.14 981.98,-105.48 981.87,-112.48"/>
</a>
</g>
</g>
<!-- Node21 -->
<g id="Node000021" class="node">
<title>Node21</title>
<g id="a_Node000021"><a xlink:href="class_data_base_g_u_i.html#a5b049fb9e0e5d78c4c2e81e569b471f9" target="_top" xlink:title="Edits an existing parent in the database.">
<polygon fill="white" stroke="#666666" points="957.75,-32.03 826.25,-32.03 826.25,-12.03 957.75,-12.03 957.75,-32.03"/>
<text text-anchor="middle" x="892" y="-18.53" font-family="Helvetica,sans-Serif" font-size="10.00">DataBaseGUI::parent_edit</text>
</a>
</g>
</g>
<!-- Node19&#45;&gt;Node21 -->
<g id="edge32_Node000019_Node000021" class="edge">
<title>Node19&#45;&gt;Node21</title>
<g id="a_edge32_Node000019_Node000021"><a xlink:title=" ">
<path fill="none" stroke="#63b8ff" d="M1023.33,-86.29C1005.84,-71.5 981.72,-53.05 957.75,-41.03 951.15,-37.72 943.88,-34.88 936.67,-32.5"/>
<polygon fill="#63b8ff" stroke="#63b8ff" points="1020.83,-88.76 1030.69,-92.65 1025.41,-83.47 1020.83,-88.76"/>
</a>
</g>
</g>
<!-- Node22 -->
<g id="Node000022" class="node">
<title>Node22</title>
<g id="a_Node000022"><a xlink:href="class_data_base_g_u_i.html#ad8a42f24cdb603ba85c1cdd4ea2e73a4" target="_top" xlink:title="Removes a parent from the database.">
<polygon fill="white" stroke="#666666" points="947.25,-82.03 836.75,-82.03 836.75,-50.03 947.25,-50.03 947.25,-82.03"/>
<text text-anchor="start" x="844.75" y="-68.53" font-family="Helvetica,sans-Serif" font-size="10.00">DataBaseGUI::parent</text>
<text text-anchor="middle" x="892" y="-56.53" font-family="Helvetica,sans-Serif" font-size="10.00">_remove</text>
</a>
</g>
</g>
<!-- Node19&#45;&gt;Node22 -->
<g id="edge35_Node000019_Node000022" class="edge">
<title>Node19&#45;&gt;Node22</title>
<g id="a_edge35_Node000019_Node000022"><a xlink:title=" ">
<path fill="none" stroke="#63b8ff" d="M982.44,-91.17C970.82,-87.9 958.86,-84.54 947.62,-81.38"/>
<polygon fill="#63b8ff" stroke="#63b8ff" points="981.41,-94.52 991.98,-93.86 983.31,-87.78 981.41,-94.52"/>
</a>
</g>
</g>
<!-- Node23 -->
<g id="Node000023" class="node">
<title>Node23</title>
<g id="a_Node000023"><a xlink:href="class_data_base_g_u_i.html#a783bdf1d65998f887dd6445741450480" target="_top" xlink:title="Changes the sorting method for parents.">
<polygon fill="white" stroke="#666666" points="620.12,-161.03 509.62,-161.03 509.62,-129.03 620.12,-129.03 620.12,-161.03"/>
<text text-anchor="start" x="517.62" y="-147.53" font-family="Helvetica,sans-Serif" font-size="10.00">DataBaseGUI::parent</text>
<text text-anchor="middle" x="564.88" y="-135.53" font-family="Helvetica,sans-Serif" font-size="10.00">_sort_change</text>
</a>
</g>
</g>
<!-- Node19&#45;&gt;Node23 -->
<g id="edge38_Node000019_Node000023" class="edge">
<title>Node19&#45;&gt;Node23</title>
<g id="a_edge38_Node000019_Node000023"><a xlink:title=" ">
<path fill="none" stroke="#63b8ff" d="M981.89,-119.42C973.76,-120.39 965.58,-121.29 957.75,-122.03 837.66,-133.39 696.3,-140.03 620.49,-143.05"/>
<polygon fill="#63b8ff" stroke="#63b8ff" points="982.29,-122.9 991.78,-118.21 981.43,-115.95 982.29,-122.9"/>
</a>
</g>
</g>
<!-- Node20&#45;&gt;Node9 -->
<g id="edge31_Node000020_Node000009" class="edge">
<title>Node20&#45;&gt;Node9</title>
<g id="a_edge31_Node000020_Node000009"><a xlink:title=" ">
<path fill="none" stroke="#63b8ff" d="M647.25,-94.42C565.11,-86.83 433.27,-86.08 337.25,-141.03 289.44,-168.38 257.64,-230.32 246.52,-254.8"/>
<polygon fill="#63b8ff" stroke="#63b8ff" points="646.71,-97.88 657,-95.38 647.39,-90.91 646.71,-97.88"/>
</a>
</g>
</g>
<!-- Node21&#45;&gt;Node2 -->
<g id="edge33_Node000021_Node000002" class="edge">
<title>Node21&#45;&gt;Node2</title>
<g id="a_edge33_Node000021_Node000002"><a xlink:title=" ">
<path fill="none" stroke="#63b8ff" d="M814.56,-22.03C804.68,-22.03 794.68,-22.03 785.12,-22.03"/>
<polygon fill="#63b8ff" stroke="#63b8ff" points="814.55,-25.53 824.55,-22.03 814.55,-18.53 814.55,-25.53"/>
</a>
</g>
</g>
<!-- Node21&#45;&gt;Node3 -->
<g id="edge34_Node000021_Node000003" class="edge">
<title>Node21&#45;&gt;Node3</title>
<g id="a_edge34_Node000021_Node000003"><a xlink:title=" ">
<path fill="none" stroke="#63b8ff" d="M952.85,-34.8C1007.7,-46.49 1088.43,-63.72 1143.09,-75.38"/>
<polygon fill="#63b8ff" stroke="#63b8ff" points="953.9,-31.44 943.39,-32.78 952.44,-38.28 953.9,-31.44"/>
</a>
</g>
</g>
<!-- Node22&#45;&gt;Node2 -->
<g id="edge36_Node000022_Node000002" class="edge">
<title>Node22&#45;&gt;Node2</title>
<g id="a_edge36_Node000022_Node000002"><a xlink:title=" ">
<path fill="none" stroke="#63b8ff" d="M825.33,-48.57C811.99,-45.02 798.04,-41.31 784.94,-37.83"/>
<polygon fill="#63b8ff" stroke="#63b8ff" points="824.32,-51.92 834.89,-51.11 826.12,-45.16 824.32,-51.92"/>
</a>
</g>
</g>
<!-- Node22&#45;&gt;Node3 -->
<g id="edge37_Node000022_Node000003" class="edge">
<title>Node22&#45;&gt;Node3</title>
<g id="a_edge37_Node000022_Node000003"><a xlink:title=" ">
<path fill="none" stroke="#63b8ff" d="M958.97,-70.72C1013.56,-74.6 1090.43,-80.07 1143.09,-83.81"/>
<polygon fill="#63b8ff" stroke="#63b8ff" points="959.41,-67.24 949.18,-70.02 958.91,-74.22 959.41,-67.24"/>
</a>
</g>
</g>
<!-- Node23&#45;&gt;Node9 -->
<g id="edge39_Node000023_Node000009" class="edge">
<title>Node23&#45;&gt;Node9</title>
<g id="a_edge39_Node000023_Node000009"><a xlink:title=" ">
<path fill="none" stroke="#63b8ff" d="M498.23,-143.18C451.28,-144.31 387.73,-150.97 337.25,-175.03 297.64,-193.9 263.69,-235.47 249.38,-254.79"/>
<polygon fill="#63b8ff" stroke="#63b8ff" points="498.03,-146.68 507.98,-143.03 497.93,-139.68 498.03,-146.68"/>
</a>
</g>
</g>
</g>
</svg>
