<?xml version="1.0" encoding="UTF-8" standalone="no"?>
<!DOCTYPE svg PUBLIC "-//W3C//DTD SVG 1.1//EN"
 "http://www.w3.org/Graphics/SVG/1.1/DTD/svg11.dtd">
<!-- Generated by graphviz version 12.2.1 (20241206.2353)
 -->
<!-- Title: ChildEntry::parrentSearchRequested Pages: 1 -->
<svg width="1397pt" height="636pt"
 viewBox="0.00 0.00 1397.00 636.38" xmlns="http://www.w3.org/2000/svg" xmlns:xlink="http://www.w3.org/1999/xlink">
<g id="graph0" class="graph" transform="scale(1 1) rotate(0) translate(4 632.38)">
<title>ChildEntry::parrentSearchRequested</title>
<!-- Node1 -->
<g id="Node000001" class="node">
<title>Node1</title>
<g id="a_Node000001"><a xlink:title="Signal emitted when a parent search is requested.">
<polygon fill="#999999" stroke="#666666" points="1389,-377.36 1260.5,-377.36 1260.5,-345.36 1389,-345.36 1389,-377.36"/>
<text text-anchor="start" x="1268.5" y="-363.86" font-family="Helvetica,sans-Serif" font-size="10.00">ChildEntry::parrentSearch</text>
<text text-anchor="middle" x="1324.75" y="-351.86" font-family="Helvetica,sans-Serif" font-size="10.00">Requested</text>
</a>
</g>
</g>
<!-- Node2 -->
<g id="Node000002" class="node">
<title>Node2</title>
<g id="a_Node000002"><a xlink:href="class_data_base_g_u_i.html#a334c0011a9d3a71539b326a888feccd3" target="_top" xlink:title="Populates the children tab with a multimap of children.">
<polygon fill="white" stroke="#666666" points="301.25,-576.36 181,-576.36 181,-544.36 301.25,-544.36 301.25,-576.36"/>
<text text-anchor="start" x="189" y="-562.86" font-family="Helvetica,sans-Serif" font-size="10.00">DataBaseGUI::populate</text>
<text text-anchor="middle" x="241.12" y="-550.86" font-family="Helvetica,sans-Serif" font-size="10.00">_children_tab</text>
</a>
</g>
</g>
<!-- Node1&#45;&gt;Node2 -->
<g id="edge1_Node000001_Node000002" class="edge">
<title>Node1&#45;&gt;Node2</title>
<g id="a_edge1_Node000001_Node000002"><a xlink:title=" ">
<path fill="none" stroke="#63b8ff" d="M1309.75,-387.29C1271.65,-454.01 1159.02,-626.36 1012.5,-626.36 1012.5,-626.36 1012.5,-626.36 563.88,-626.36 462.8,-626.36 434.63,-634.44 337.25,-607.36 312.76,-600.55 287.03,-587.42 268.51,-576.77"/>
<polygon fill="#63b8ff" stroke="#63b8ff" points="1312.64,-389.29 1314.48,-378.86 1306.54,-385.87 1312.64,-389.29"/>
</a>
</g>
</g>
<!-- Node3 -->
<g id="Node000003" class="node">
<title>Node3</title>
<g id="a_Node000003"><a xlink:href="class_data_base_g_u_i.html#af346d08370d9e4574980707f61b9c8f7" target="_top" xlink:title="Populates the children tab with a list of children.">
<polygon fill="white" stroke="#666666" points="1224.5,-438.36 1104.25,-438.36 1104.25,-406.36 1224.5,-406.36 1224.5,-438.36"/>
<text text-anchor="start" x="1112.25" y="-424.86" font-family="Helvetica,sans-Serif" font-size="10.00">DataBaseGUI::populate</text>
<text text-anchor="middle" x="1164.38" y="-412.86" font-family="Helvetica,sans-Serif" font-size="10.00">_children_tab</text>
</a>
</g>
</g>
<!-- Node1&#45;&gt;Node3 -->
<g id="edge2_Node000001_Node000003" class="edge">
<title>Node1&#45;&gt;Node3</title>
<g id="a_edge2_Node000001_Node000003"><a xlink:title=" ">
<path fill="none" stroke="#63b8ff" d="M1270.64,-381.81C1250.33,-389.64 1227.44,-398.45 1208.21,-405.86"/>
<polygon fill="#63b8ff" stroke="#63b8ff" points="1271.82,-385.11 1279.9,-378.25 1269.31,-378.58 1271.82,-385.11"/>
</a>
</g>
</g>
<!-- Node25 -->
<g id="Node000025" class="node">
<title>Node25</title>
<g id="a_Node000025"><a xlink:href="class_child_entry.html#a543c9b96d8af448d057ba385aad1ee71" target="_top" xlink:title="Search function that is called when the user clicks on the child&#39;s father label.">
<polygon fill="white" stroke="#666666" points="1212.88,-352.36 1115.88,-352.36 1115.88,-320.36 1212.88,-320.36 1212.88,-352.36"/>
<text text-anchor="start" x="1123.88" y="-338.86" font-family="Helvetica,sans-Serif" font-size="10.00">ChildEntry::search</text>
<text text-anchor="middle" x="1164.38" y="-326.86" font-family="Helvetica,sans-Serif" font-size="10.00">_father</text>
</a>
</g>
</g>
<!-- Node1&#45;&gt;Node25 -->
<g id="edge43_Node000001_Node000025" class="edge">
<title>Node1&#45;&gt;Node25</title>
<g id="a_edge43_Node000001_Node000025"><a xlink:title=" ">
<path fill="none" stroke="#63b8ff" d="M1249.13,-349.58C1236.94,-347.66 1224.6,-345.71 1213.29,-343.92"/>
<polygon fill="#63b8ff" stroke="#63b8ff" points="1248.33,-353 1258.75,-351.1 1249.42,-346.08 1248.33,-353"/>
</a>
</g>
</g>
<!-- Node27 -->
<g id="Node000027" class="node">
<title>Node27</title>
<g id="a_Node000027"><a xlink:href="class_child_entry.html#a718b1c66e23e08146ea11a85f554dcb4" target="_top" xlink:title="Search function that is called when the user clicks on the child&#39;s mother label.">
<polygon fill="white" stroke="#666666" points="1212.88,-229.36 1115.88,-229.36 1115.88,-197.36 1212.88,-197.36 1212.88,-229.36"/>
<text text-anchor="start" x="1123.88" y="-215.86" font-family="Helvetica,sans-Serif" font-size="10.00">ChildEntry::search</text>
<text text-anchor="middle" x="1164.38" y="-203.86" font-family="Helvetica,sans-Serif" font-size="10.00">_mother</text>
</a>
</g>
</g>
<!-- Node1&#45;&gt;Node27 -->
<g id="edge45_Node000001_Node000027" class="edge">
<title>Node1&#45;&gt;Node27</title>
<g id="a_edge45_Node000001_Node000027"><a xlink:title=" ">
<path fill="none" stroke="#63b8ff" d="M1298.1,-337.39C1265.75,-307.16 1211,-256 1183.01,-229.84"/>
<polygon fill="#63b8ff" stroke="#63b8ff" points="1295.39,-339.65 1305.09,-343.92 1300.17,-334.54 1295.39,-339.65"/>
</a>
</g>
</g>
<!-- Node4 -->
<g id="Node000004" class="node">
<title>Node4</title>
<g id="a_Node000004"><a xlink:href="class_data_base_g_u_i.html#a2d921da686e76ae195da018bb735a1ae" target="_top" xlink:title="Searches for children based on the provided name and surname.">
<polygon fill="white" stroke="#666666" points="1063.38,-211.36 959.62,-211.36 959.62,-179.36 1063.38,-179.36 1063.38,-211.36"/>
<text text-anchor="start" x="967.62" y="-197.86" font-family="Helvetica,sans-Serif" font-size="10.00">DataBaseGUI::child</text>
<text text-anchor="middle" x="1011.5" y="-185.86" font-family="Helvetica,sans-Serif" font-size="10.00">_search</text>
</a>
</g>
</g>
<!-- Node3&#45;&gt;Node4 -->
<g id="edge3_Node000003_Node000004" class="edge">
<title>Node3&#45;&gt;Node4</title>
<g id="a_edge3_Node000003_Node000004"><a xlink:title=" ">
<path fill="none" stroke="#63b8ff" d="M1134.35,-398.25C1123.51,-387.89 1111.98,-375.04 1104.25,-361.36 1073.49,-306.92 1106.98,-274.45 1068.25,-225.36 1064.03,-220.01 1058.58,-215.49 1052.75,-211.72"/>
<polygon fill="#63b8ff" stroke="#63b8ff" points="1131.94,-400.79 1141.68,-404.96 1136.67,-395.62 1131.94,-400.79"/>
</a>
</g>
</g>
<!-- Node10 -->
<g id="Node000010" class="node">
<title>Node10</title>
<g id="a_Node000010"><a xlink:href="class_data_base_g_u_i.html#a6c35e47ed05a80db144f240dee805a9d" target="_top" xlink:title="Sets up the GUI.">
<polygon fill="white" stroke="#666666" points="294.88,-284.36 187.38,-284.36 187.38,-264.36 294.88,-264.36 294.88,-284.36"/>
<text text-anchor="middle" x="241.12" y="-270.86" font-family="Helvetica,sans-Serif" font-size="10.00">DataBaseGUI::setup</text>
</a>
</g>
</g>
<!-- Node3&#45;&gt;Node10 -->
<g id="edge28_Node000003_Node000010" class="edge">
<title>Node3&#45;&gt;Node10</title>
<g id="a_edge28_Node000003_Node000010"><a xlink:title=" ">
<path fill="none" stroke="#63b8ff" d="M1104.43,-402.5C986.09,-363.89 710.42,-280.33 471,-255.36 411.88,-249.19 396.41,-249.51 337.25,-255.36 319.99,-257.07 301.22,-260.48 284.95,-263.94"/>
<polygon fill="#63b8ff" stroke="#63b8ff" points="1103.01,-405.72 1113.61,-405.51 1105.2,-399.07 1103.01,-405.72"/>
</a>
</g>
</g>
<!-- Node19 -->
<g id="Node000019" class="node">
<title>Node19</title>
<g id="a_Node000019"><a xlink:href="class_data_base_g_u_i.html#aa684465aa73b5b34bbadd24fc7f2f641" target="_top" xlink:title="Selects the appropriate sorting to use based on child sort index.">
<polygon fill="white" stroke="#666666" points="622.75,-438.36 507,-438.36 507,-406.36 622.75,-406.36 622.75,-438.36"/>
<text text-anchor="start" x="515" y="-424.86" font-family="Helvetica,sans-Serif" font-size="10.00">DataBaseGUI::sort_to</text>
<text text-anchor="middle" x="564.88" y="-412.86" font-family="Helvetica,sans-Serif" font-size="10.00">_populate_children_tab</text>
</a>
</g>
</g>
<!-- Node3&#45;&gt;Node19 -->
<g id="edge29_Node000003_Node000019" class="edge">
<title>Node3&#45;&gt;Node19</title>
<g id="a_edge29_Node000003_Node000019"><a xlink:title=" ">
<path fill="none" stroke="#63b8ff" d="M1092.7,-422.36C972.99,-422.36 732.68,-422.36 622.92,-422.36"/>
<polygon fill="#63b8ff" stroke="#63b8ff" points="1092.39,-425.86 1102.39,-422.36 1092.39,-418.86 1092.39,-425.86"/>
</a>
</g>
</g>
<!-- Node5 -->
<g id="Node000005" class="node">
<title>Node5</title>
<g id="a_Node000005"><a xlink:href="class_data_base_g_u_i.html#aadb0e7d323a970603312695c0dd9b264" target="_top" xlink:title="Searches for children based on the provided child pointer.">
<polygon fill="white" stroke="#666666" points="918.75,-106.36 815,-106.36 815,-74.36 918.75,-74.36 918.75,-106.36"/>
<text text-anchor="start" x="823" y="-92.86" font-family="Helvetica,sans-Serif" font-size="10.00">DataBaseGUI::child</text>
<text text-anchor="middle" x="866.88" y="-80.86" font-family="Helvetica,sans-Serif" font-size="10.00">_search_by_pointer</text>
</a>
</g>
</g>
<!-- Node4&#45;&gt;Node5 -->
<g id="edge4_Node000004_Node000005" class="edge">
<title>Node4&#45;&gt;Node5</title>
<g id="a_edge4_Node000004_Node000005"><a xlink:title=" ">
<path fill="none" stroke="#63b8ff" d="M959.73,-173.47C958.03,-172.46 956.36,-171.42 954.75,-170.36 926.68,-151.85 898.92,-124.22 882.59,-106.76"/>
<polygon fill="#63b8ff" stroke="#63b8ff" points="958,-176.52 968.46,-178.24 961.36,-170.37 958,-176.52"/>
</a>
</g>
</g>
<!-- Node4&#45;&gt;Node10 -->
<g id="edge27_Node000004_Node000010" class="edge">
<title>Node4&#45;&gt;Node10</title>
<g id="a_edge27_Node000004_Node000010"><a xlink:title=" ">
<path fill="none" stroke="#63b8ff" d="M947.98,-196.38C889.13,-197.25 798.52,-198.36 719.88,-198.36 719.88,-198.36 719.88,-198.36 563.88,-198.36 462.59,-198.36 433.92,-192.15 337.25,-222.36 306.71,-231.9 274.78,-251.7 256.78,-263.93"/>
<polygon fill="#63b8ff" stroke="#63b8ff" points="947.86,-199.88 957.8,-196.23 947.75,-192.88 947.86,-199.88"/>
</a>
</g>
</g>
<!-- Node6 -->
<g id="Node000006" class="node">
<title>Node6</title>
<g id="a_Node000006"><a xlink:href="class_data_base_g_u_i.html#a33f2f95926f7b4b05227dcf395e235d3" target="_top" xlink:title="Populates the parent tab with a multimap of parents.">
<polygon fill="white" stroke="#666666" points="301.25,-38.36 181,-38.36 181,-6.36 301.25,-6.36 301.25,-38.36"/>
<text text-anchor="start" x="189" y="-24.86" font-family="Helvetica,sans-Serif" font-size="10.00">DataBaseGUI::populate</text>
<text text-anchor="middle" x="241.12" y="-12.86" font-family="Helvetica,sans-Serif" font-size="10.00">_parent_tab</text>
</a>
</g>
</g>
<!-- Node5&#45;&gt;Node6 -->
<g id="edge5_Node000005_Node000006" class="edge">
<title>Node5&#45;&gt;Node6</title>
<g id="a_edge5_Node000005_Node000006"><a xlink:title=" ">
<path fill="none" stroke="#63b8ff" d="M807.28,-70.5C710.11,-39.88 509.26,13.65 337.25,-3.36 325.69,-4.5 313.45,-6.41 301.73,-8.59"/>
<polygon fill="#63b8ff" stroke="#63b8ff" points="806.01,-73.77 816.6,-73.48 808.14,-67.1 806.01,-73.77"/>
</a>
</g>
</g>
<!-- Node7 -->
<g id="Node000007" class="node">
<title>Node7</title>
<g id="a_Node000007"><a xlink:href="class_data_base_g_u_i.html#a739b2cf48c0cb6e3cab2da0a7bbd6d6d" target="_top" xlink:title="Populates the parent tab with a list of parents.">
<polygon fill="white" stroke="#666666" points="779,-106.36 658.75,-106.36 658.75,-74.36 779,-74.36 779,-106.36"/>
<text text-anchor="start" x="666.75" y="-92.86" font-family="Helvetica,sans-Serif" font-size="10.00">DataBaseGUI::populate</text>
<text text-anchor="middle" x="718.88" y="-80.86" font-family="Helvetica,sans-Serif" font-size="10.00">_parent_tab</text>
</a>
</g>
</g>
<!-- Node5&#45;&gt;Node7 -->
<g id="edge6_Node000005_Node000007" class="edge">
<title>Node5&#45;&gt;Node7</title>
<g id="a_edge6_Node000005_Node000007"><a xlink:title=" ">
<path fill="none" stroke="#63b8ff" d="M803.35,-90.36C795.41,-90.36 787.31,-90.36 779.42,-90.36"/>
<polygon fill="#63b8ff" stroke="#63b8ff" points="803.3,-93.86 813.3,-90.36 803.3,-86.86 803.3,-93.86"/>
</a>
</g>
</g>
<!-- Node8 -->
<g id="Node000008" class="node">
<title>Node8</title>
<g id="a_Node000008"><a xlink:href="class_data_base_g_u_i.html#a7c3d843eec449d8a4ec5ce6bf0375358" target="_top" xlink:title="Searches for parents based on the provided name and surname.">
<polygon fill="white" stroke="#666666" points="620.12,-328.36 509.62,-328.36 509.62,-296.36 620.12,-296.36 620.12,-328.36"/>
<text text-anchor="start" x="517.62" y="-314.86" font-family="Helvetica,sans-Serif" font-size="10.00">DataBaseGUI::parent</text>
<text text-anchor="middle" x="564.88" y="-302.86" font-family="Helvetica,sans-Serif" font-size="10.00">_search</text>
</a>
</g>
</g>
<!-- Node7&#45;&gt;Node8 -->
<g id="edge7_Node000007_Node000008" class="edge">
<title>Node7&#45;&gt;Node8</title>
<g id="a_edge7_Node000007_Node000008"><a xlink:title=" ">
<path fill="none" stroke="#63b8ff" d="M700.33,-115.99C668.77,-162.08 603.27,-257.74 577.07,-296.01"/>
<polygon fill="#63b8ff" stroke="#63b8ff" points="703.08,-118.16 705.84,-107.93 697.31,-114.21 703.08,-118.16"/>
</a>
</g>
</g>
<!-- Node13 -->
<g id="Node000013" class="node">
<title>Node13</title>
<g id="a_Node000013"><a xlink:href="class_data_base_g_u_i.html#a625b5e2018395a458ff517bbf364e1bf" target="_top" xlink:title="Selects the appropriate sorting to use based on parent sort index.">
<polygon fill="white" stroke="#666666" points="621.62,-129.36 508.12,-129.36 508.12,-97.36 621.62,-97.36 621.62,-129.36"/>
<text text-anchor="start" x="516.12" y="-115.86" font-family="Helvetica,sans-Serif" font-size="10.00">DataBaseGUI::sort_to</text>
<text text-anchor="middle" x="564.88" y="-103.86" font-family="Helvetica,sans-Serif" font-size="10.00">_populate_parent_tab</text>
</a>
</g>
</g>
<!-- Node7&#45;&gt;Node13 -->
<g id="edge14_Node000007_Node000013" class="edge">
<title>Node7&#45;&gt;Node13</title>
<g id="a_edge14_Node000007_Node000013"><a xlink:title=" ">
<path fill="none" stroke="#63b8ff" d="M647.42,-101.02C638.79,-102.33 630.06,-103.65 621.68,-104.91"/>
<polygon fill="#63b8ff" stroke="#63b8ff" points="647.81,-104.5 657.18,-99.54 646.76,-97.58 647.81,-104.5"/>
</a>
</g>
</g>
<!-- Node9 -->
<g id="Node000009" class="node">
<title>Node9</title>
<g id="a_Node000009"><a xlink:href="class_data_base_g_u_i.html#a8e1fe573ef6a09e112989968ec1a2b43" target="_top" xlink:title="Searches for parents based on the provided parent pointer.">
<polygon fill="white" stroke="#666666" points="459.38,-510.36 348.88,-510.36 348.88,-478.36 459.38,-478.36 459.38,-510.36"/>
<text text-anchor="start" x="356.88" y="-496.86" font-family="Helvetica,sans-Serif" font-size="10.00">DataBaseGUI::parent</text>
<text text-anchor="middle" x="404.12" y="-484.86" font-family="Helvetica,sans-Serif" font-size="10.00">_search_by_pointer</text>
</a>
</g>
</g>
<!-- Node8&#45;&gt;Node9 -->
<g id="edge8_Node000008_Node000009" class="edge">
<title>Node8&#45;&gt;Node9</title>
<g id="a_edge8_Node000008_Node000009"><a xlink:title=" ">
<path fill="none" stroke="#63b8ff" d="M545.74,-337.64C534.11,-354.27 519.01,-376.7 507,-397.36 489.02,-428.29 497.54,-445.37 471,-469.36 467.37,-472.64 463.27,-475.51 458.92,-478.01"/>
<polygon fill="#63b8ff" stroke="#63b8ff" points="548.35,-340 551.26,-329.81 542.63,-335.97 548.35,-340"/>
</a>
</g>
</g>
<!-- Node8&#45;&gt;Node10 -->
<g id="edge11_Node000008_Node000010" class="edge">
<title>Node8&#45;&gt;Node10</title>
<g id="a_edge11_Node000008_Node000010"><a xlink:title=" ">
<path fill="none" stroke="#63b8ff" d="M497.74,-308.8C452.42,-305.88 391.02,-300.96 337.25,-293.36 321.41,-291.12 304.22,-287.93 288.88,-284.79"/>
<polygon fill="#63b8ff" stroke="#63b8ff" points="497.48,-312.29 507.68,-309.42 497.92,-305.3 497.48,-312.29"/>
</a>
</g>
</g>
<!-- Node9&#45;&gt;Node2 -->
<g id="edge9_Node000009_Node000002" class="edge">
<title>Node9&#45;&gt;Node2</title>
<g id="a_edge9_Node000009_Node000002"><a xlink:title=" ">
<path fill="none" stroke="#63b8ff" d="M348.4,-514.91C344.62,-516.4 340.87,-517.89 337.25,-519.36 317.91,-527.19 296.57,-536.34 279.01,-544.01"/>
<polygon fill="#63b8ff" stroke="#63b8ff" points="349.62,-518.2 357.67,-511.31 347.08,-511.67 349.62,-518.2"/>
</a>
</g>
</g>
<!-- Node9&#45;&gt;Node3 -->
<g id="edge10_Node000009_Node000003" class="edge">
<title>Node9&#45;&gt;Node3</title>
<g id="a_edge10_Node000009_Node000003"><a xlink:title=" ">
<path fill="none" stroke="#63b8ff" d="M471.01,-489.7C534.27,-485.62 632.55,-480.36 717.88,-480.36 867.88,-480.36 867.88,-480.36 867.88,-480.36 954.66,-480.36 1053.15,-455.97 1111.67,-438.82"/>
<polygon fill="#63b8ff" stroke="#63b8ff" points="470.87,-486.2 461.12,-490.34 471.33,-493.18 470.87,-486.2"/>
</a>
</g>
</g>
<!-- Node11 -->
<g id="Node000011" class="node">
<title>Node11</title>
<g id="a_Node000011"><a xlink:href="class_data_base_g_u_i.html#a2c83afe3a30fb5166d275d9a74d33196" target="_top" xlink:title="Default constructor.">
<polygon fill="white" stroke="#666666" points="145,-303.36 0,-303.36 0,-283.36 145,-283.36 145,-303.36"/>
<text text-anchor="middle" x="72.5" y="-289.86" font-family="Helvetica,sans-Serif" font-size="10.00">DataBaseGUI::DataBaseGUI</text>
</a>
</g>
</g>
<!-- Node10&#45;&gt;Node11 -->
<g id="edge12_Node000010_Node000011" class="edge">
<title>Node10&#45;&gt;Node11</title>
<g id="a_edge12_Node000010_Node000011"><a xlink:title=" ">
<path fill="none" stroke="#63b8ff" d="M175.53,-281.72C165.64,-282.85 155.37,-284.02 145.32,-285.17"/>
<polygon fill="#63b8ff" stroke="#63b8ff" points="175.9,-285.2 185.44,-280.59 175.11,-278.25 175.9,-285.2"/>
</a>
</g>
</g>
<!-- Node12 -->
<g id="Node000012" class="node">
<title>Node12</title>
<g id="a_Node000012"><a xlink:href="class_data_base_g_u_i.html#aba10d1d8e9fb151632ff34de418cee82" target="_top" xlink:title="Constructs a DataBaseGUI object.">
<polygon fill="white" stroke="#666666" points="145,-265.36 0,-265.36 0,-245.36 145,-245.36 145,-265.36"/>
<text text-anchor="middle" x="72.5" y="-251.86" font-family="Helvetica,sans-Serif" font-size="10.00">DataBaseGUI::DataBaseGUI</text>
</a>
</g>
</g>
<!-- Node10&#45;&gt;Node12 -->
<g id="edge13_Node000010_Node000012" class="edge">
<title>Node10&#45;&gt;Node12</title>
<g id="a_edge13_Node000010_Node000012"><a xlink:title=" ">
<path fill="none" stroke="#63b8ff" d="M175.53,-266.99C165.64,-265.87 155.37,-264.69 145.32,-263.55"/>
<polygon fill="#63b8ff" stroke="#63b8ff" points="175.11,-270.47 185.44,-268.12 175.9,-263.51 175.11,-270.47"/>
</a>
</g>
</g>
<!-- Node14 -->
<g id="Node000014" class="node">
<title>Node14</title>
<g id="a_Node000014"><a xlink:href="class_data_base_g_u_i.html#a336fa47d9a9e56d585d82f53d33e8593" target="_top" xlink:title="Adds a new parent to the database.">
<polygon fill="white" stroke="#666666" points="469.88,-170.36 338.38,-170.36 338.38,-150.36 469.88,-150.36 469.88,-170.36"/>
<text text-anchor="middle" x="404.12" y="-156.86" font-family="Helvetica,sans-Serif" font-size="10.00">DataBaseGUI::parent_add</text>
</a>
</g>
</g>
<!-- Node13&#45;&gt;Node14 -->
<g id="edge15_Node000013_Node000014" class="edge">
<title>Node13&#45;&gt;Node14</title>
<g id="a_edge15_Node000013_Node000014"><a xlink:title=" ">
<path fill="none" stroke="#63b8ff" d="M498.98,-133.03C489.6,-135.84 480.06,-138.69 471,-141.36 461.52,-144.15 451.27,-147.13 441.73,-149.88"/>
<polygon fill="#63b8ff" stroke="#63b8ff" points="499.87,-136.42 508.44,-130.19 497.85,-129.72 499.87,-136.42"/>
</a>
</g>
</g>
<!-- Node15 -->
<g id="Node000015" class="node">
<title>Node15</title>
<g id="a_Node000015"><a xlink:href="class_data_base_g_u_i.html#a5b049fb9e0e5d78c4c2e81e569b471f9" target="_top" xlink:title="Edits an existing parent in the database.">
<polygon fill="white" stroke="#666666" points="469.88,-32.36 338.38,-32.36 338.38,-12.36 469.88,-12.36 469.88,-32.36"/>
<text text-anchor="middle" x="404.12" y="-18.86" font-family="Helvetica,sans-Serif" font-size="10.00">DataBaseGUI::parent_edit</text>
</a>
</g>
</g>
<!-- Node13&#45;&gt;Node15 -->
<g id="edge17_Node000013_Node000015" class="edge">
<title>Node13&#45;&gt;Node15</title>
<g id="a_edge17_Node000013_Node000015"><a xlink:title=" ">
<path fill="none" stroke="#63b8ff" d="M539.01,-89.82C521.26,-74.14 496.17,-54.15 471,-41.36 464.42,-38.02 457.16,-35.18 449.95,-32.8"/>
<polygon fill="#63b8ff" stroke="#63b8ff" points="536.2,-92.01 545.97,-96.11 540.89,-86.81 536.2,-92.01"/>
</a>
</g>
</g>
<!-- Node16 -->
<g id="Node000016" class="node">
<title>Node16</title>
<g id="a_Node000016"><a xlink:href="class_data_base_g_u_i.html#ad8a42f24cdb603ba85c1cdd4ea2e73a4" target="_top" xlink:title="Removes a parent from the database.">
<polygon fill="white" stroke="#666666" points="459.38,-82.36 348.88,-82.36 348.88,-50.36 459.38,-50.36 459.38,-82.36"/>
<text text-anchor="start" x="356.88" y="-68.86" font-family="Helvetica,sans-Serif" font-size="10.00">DataBaseGUI::parent</text>
<text text-anchor="middle" x="404.12" y="-56.86" font-family="Helvetica,sans-Serif" font-size="10.00">_remove</text>
</a>
</g>
</g>
<!-- Node13&#45;&gt;Node16 -->
<g id="edge20_Node000013_Node000016" class="edge">
<title>Node13&#45;&gt;Node16</title>
<g id="a_edge20_Node000013_Node000016"><a xlink:title=" ">
<path fill="none" stroke="#63b8ff" d="M497.48,-93.7C484.93,-89.99 471.95,-86.14 459.81,-82.55"/>
<polygon fill="#63b8ff" stroke="#63b8ff" points="496.32,-97.01 506.9,-96.49 498.31,-90.3 496.32,-97.01"/>
</a>
</g>
</g>
<!-- Node17 -->
<g id="Node000017" class="node">
<title>Node17</title>
<g id="a_Node000017"><a xlink:href="class_data_base_g_u_i.html#a783bdf1d65998f887dd6445741450480" target="_top" xlink:title="Changes the sorting method for parents.">
<polygon fill="white" stroke="#666666" points="459.38,-132.36 348.88,-132.36 348.88,-100.36 459.38,-100.36 459.38,-132.36"/>
<text text-anchor="start" x="356.88" y="-118.86" font-family="Helvetica,sans-Serif" font-size="10.00">DataBaseGUI::parent</text>
<text text-anchor="middle" x="404.12" y="-106.86" font-family="Helvetica,sans-Serif" font-size="10.00">_sort_change</text>
</a>
</g>
</g>
<!-- Node13&#45;&gt;Node17 -->
<g id="edge23_Node000013_Node000017" class="edge">
<title>Node13&#45;&gt;Node17</title>
<g id="a_edge23_Node000013_Node000017"><a xlink:title=" ">
<path fill="none" stroke="#63b8ff" d="M496.74,-114.63C484.42,-114.86 471.69,-115.1 459.79,-115.33"/>
<polygon fill="#63b8ff" stroke="#63b8ff" points="496.46,-118.13 506.39,-114.45 496.33,-111.13 496.46,-118.13"/>
</a>
</g>
</g>
<!-- Node18 -->
<g id="Node000018" class="node">
<title>Node18</title>
<g id="a_Node000018"><a xlink:href="class_data_base_g_u_i.html#a438b5070d6a58ffa5e884d18740852c6" target="_top" xlink:title="Handles tab change events.">
<polygon fill="white" stroke="#666666" points="471,-284.36 337.25,-284.36 337.25,-264.36 471,-264.36 471,-284.36"/>
<text text-anchor="middle" x="404.12" y="-270.86" font-family="Helvetica,sans-Serif" font-size="10.00">DataBaseGUI::tab_change</text>
</a>
</g>
</g>
<!-- Node13&#45;&gt;Node18 -->
<g id="edge25_Node000013_Node000018" class="edge">
<title>Node13&#45;&gt;Node18</title>
<g id="a_edge25_Node000013_Node000018"><a xlink:title=" ">
<path fill="none" stroke="#63b8ff" d="M539.88,-137.69C504.55,-173.53 440.03,-238.96 415.22,-264.12"/>
<polygon fill="#63b8ff" stroke="#63b8ff" points="542.19,-140.34 546.72,-130.76 537.2,-135.42 542.19,-140.34"/>
</a>
</g>
</g>
<!-- Node14&#45;&gt;Node10 -->
<g id="edge16_Node000014_Node000010" class="edge">
<title>Node14&#45;&gt;Node10</title>
<g id="a_edge16_Node000014_Node000010"><a xlink:title=" ">
<path fill="none" stroke="#63b8ff" d="M355.63,-174.99C349.25,-177.71 342.95,-180.83 337.25,-184.36 300.5,-207.07 265.9,-245.64 250.51,-264.03"/>
<polygon fill="#63b8ff" stroke="#63b8ff" points="356.91,-178.25 364.93,-171.33 354.34,-171.73 356.91,-178.25"/>
</a>
</g>
</g>
<!-- Node15&#45;&gt;Node6 -->
<g id="edge18_Node000015_Node000006" class="edge">
<title>Node15&#45;&gt;Node6</title>
<g id="a_edge18_Node000015_Node000006"><a xlink:title=" ">
<path fill="none" stroke="#63b8ff" d="M326.71,-22.36C318.3,-22.36 309.83,-22.36 301.67,-22.36"/>
<polygon fill="#63b8ff" stroke="#63b8ff" points="326.59,-25.86 336.59,-22.36 326.59,-18.86 326.59,-25.86"/>
</a>
</g>
</g>
<!-- Node15&#45;&gt;Node7 -->
<g id="edge19_Node000015_Node000007" class="edge">
<title>Node15&#45;&gt;Node7</title>
<g id="a_edge19_Node000015_Node000007"><a xlink:title=" ">
<path fill="none" stroke="#63b8ff" d="M464.28,-35.22C519.86,-47.31 602.6,-65.3 658.31,-77.41"/>
<polygon fill="#63b8ff" stroke="#63b8ff" points="465.19,-31.84 454.68,-33.13 463.71,-38.68 465.19,-31.84"/>
</a>
</g>
</g>
<!-- Node16&#45;&gt;Node6 -->
<g id="edge21_Node000016_Node000006" class="edge">
<title>Node16&#45;&gt;Node6</title>
<g id="a_edge21_Node000016_Node000006"><a xlink:title=" ">
<path fill="none" stroke="#63b8ff" d="M337.78,-48.5C325.79,-45.22 313.34,-41.82 301.55,-38.6"/>
<polygon fill="#63b8ff" stroke="#63b8ff" points="336.59,-51.8 347.16,-51.06 338.43,-45.05 336.59,-51.8"/>
</a>
</g>
</g>
<!-- Node16&#45;&gt;Node7 -->
<g id="edge22_Node000016_Node000007" class="edge">
<title>Node16&#45;&gt;Node7</title>
<g id="a_edge22_Node000016_Node000007"><a xlink:title=" ">
<path fill="none" stroke="#63b8ff" d="M471.2,-71.43C526.55,-75.68 604.87,-81.69 658.31,-85.79"/>
<polygon fill="#63b8ff" stroke="#63b8ff" points="471.5,-67.94 461.26,-70.67 470.97,-74.92 471.5,-67.94"/>
</a>
</g>
</g>
<!-- Node17&#45;&gt;Node10 -->
<g id="edge24_Node000017_Node000010" class="edge">
<title>Node17&#45;&gt;Node10</title>
<g id="a_edge24_Node000017_Node000010"><a xlink:title=" ">
<path fill="none" stroke="#63b8ff" d="M341.28,-138.46C339.9,-139.39 338.55,-140.36 337.25,-141.36 291.59,-176.52 258.53,-239.55 246.8,-264.14"/>
<polygon fill="#63b8ff" stroke="#63b8ff" points="342.72,-141.68 349.55,-133.58 339.16,-135.65 342.72,-141.68"/>
</a>
</g>
</g>
<!-- Node18&#45;&gt;Node10 -->
<g id="edge26_Node000018_Node000010" class="edge">
<title>Node18&#45;&gt;Node10</title>
<g id="a_edge26_Node000018_Node000010"><a xlink:title=" ">
<path fill="none" stroke="#63b8ff" d="M325.87,-274.36C315.39,-274.36 304.84,-274.36 294.93,-274.36"/>
<polygon fill="#63b8ff" stroke="#63b8ff" points="325.66,-277.86 335.66,-274.36 325.66,-270.86 325.66,-277.86"/>
</a>
</g>
</g>
<!-- Node19&#45;&gt;Node18 -->
<g id="edge42_Node000019_Node000018" class="edge">
<title>Node19&#45;&gt;Node18</title>
<g id="a_edge42_Node000019_Node000018"><a xlink:title=" ">
<path fill="none" stroke="#63b8ff" d="M539.81,-397.97C521.29,-379.4 494.9,-353.37 471,-331.36 452.76,-314.56 430.85,-295.89 417.46,-284.64"/>
<polygon fill="#63b8ff" stroke="#63b8ff" points="537.13,-400.24 546.66,-404.86 542.1,-395.3 537.13,-400.24"/>
</a>
</g>
</g>
<!-- Node20 -->
<g id="Node000020" class="node">
<title>Node20</title>
<g id="a_Node000020"><a xlink:href="class_data_base_g_u_i.html#a00f9044d3b8dd9c5dada244dac1b0df6" target="_top" xlink:title="Adds a new child to the database.">
<polygon fill="white" stroke="#666666" points="466.5,-410.36 341.75,-410.36 341.75,-390.36 466.5,-390.36 466.5,-410.36"/>
<text text-anchor="middle" x="404.12" y="-396.86" font-family="Helvetica,sans-Serif" font-size="10.00">DataBaseGUI::child_add</text>
</a>
</g>
</g>
<!-- Node19&#45;&gt;Node20 -->
<g id="edge30_Node000019_Node000020" class="edge">
<title>Node19&#45;&gt;Node20</title>
<g id="a_edge30_Node000019_Node000020"><a xlink:title=" ">
<path fill="none" stroke="#63b8ff" d="M495.22,-412.84C485.81,-411.54 476.19,-410.21 466.91,-408.92"/>
<polygon fill="#63b8ff" stroke="#63b8ff" points="494.68,-416.3 505.06,-414.21 495.64,-409.37 494.68,-416.3"/>
</a>
</g>
</g>
<!-- Node21 -->
<g id="Node000021" class="node">
<title>Node21</title>
<g id="a_Node000021"><a xlink:href="class_data_base_g_u_i.html#acb6c6b292e58d0ead30682f7f5705244" target="_top" xlink:title="Edits an existing child in the database.">
<polygon fill="white" stroke="#666666" points="466.5,-548.36 341.75,-548.36 341.75,-528.36 466.5,-528.36 466.5,-548.36"/>
<text text-anchor="middle" x="404.12" y="-534.86" font-family="Helvetica,sans-Serif" font-size="10.00">DataBaseGUI::child_edit</text>
</a>
</g>
</g>
<!-- Node19&#45;&gt;Node21 -->
<g id="edge32_Node000019_Node000021" class="edge">
<title>Node19&#45;&gt;Node21</title>
<g id="a_edge32_Node000019_Node000021"><a xlink:title=" ">
<path fill="none" stroke="#63b8ff" d="M545.8,-447.73C528.85,-469.73 501.59,-500.86 471,-519.36 465.4,-522.75 459.16,-525.56 452.82,-527.88"/>
<polygon fill="#63b8ff" stroke="#63b8ff" points="548.51,-449.95 551.71,-439.85 542.91,-445.74 548.51,-449.95"/>
</a>
</g>
</g>
<!-- Node22 -->
<g id="Node000022" class="node">
<title>Node22</title>
<g id="a_Node000022"><a xlink:href="class_data_base_g_u_i.html#ae3a08843db874e51a7cea32fa8937ca5" target="_top" xlink:title="Removes a child from the database.">
<polygon fill="white" stroke="#666666" points="456,-598.36 352.25,-598.36 352.25,-566.36 456,-566.36 456,-598.36"/>
<text text-anchor="start" x="360.25" y="-584.86" font-family="Helvetica,sans-Serif" font-size="10.00">DataBaseGUI::child</text>
<text text-anchor="middle" x="404.12" y="-572.86" font-family="Helvetica,sans-Serif" font-size="10.00">_remove</text>
</a>
</g>
</g>
<!-- Node19&#45;&gt;Node22 -->
<g id="edge35_Node000019_Node000022" class="edge">
<title>Node19&#45;&gt;Node22</title>
<g id="a_edge35_Node000019_Node000022"><a xlink:title=" ">
<path fill="none" stroke="#63b8ff" d="M551.91,-448.61C536.96,-478.74 508.67,-527.79 471,-557.36 466.57,-560.83 461.61,-563.87 456.45,-566.5"/>
<polygon fill="#63b8ff" stroke="#63b8ff" points="554.97,-450.33 556.15,-439.8 548.66,-447.29 554.97,-450.33"/>
</a>
</g>
</g>
<!-- Node23 -->
<g id="Node000023" class="node">
<title>Node23</title>
<g id="a_Node000023"><a xlink:href="class_data_base_g_u_i.html#a2e6d3629f679c153cdd21b683ce794a1" target="_top" xlink:title="Changes the sorting method for children.">
<polygon fill="white" stroke="#666666" points="456,-372.36 352.25,-372.36 352.25,-340.36 456,-340.36 456,-372.36"/>
<text text-anchor="start" x="360.25" y="-358.86" font-family="Helvetica,sans-Serif" font-size="10.00">DataBaseGUI::child</text>
<text text-anchor="middle" x="404.12" y="-346.86" font-family="Helvetica,sans-Serif" font-size="10.00">_sort_change</text>
</a>
</g>
</g>
<!-- Node19&#45;&gt;Node23 -->
<g id="edge38_Node000019_Node000023" class="edge">
<title>Node19&#45;&gt;Node23</title>
<g id="a_edge38_Node000019_Node000023"><a xlink:title=" ">
<path fill="none" stroke="#63b8ff" d="M517.47,-401.3C502.69,-394.74 486.22,-387.6 471,-381.36 464.1,-378.53 456.74,-375.63 449.54,-372.85"/>
<polygon fill="#63b8ff" stroke="#63b8ff" points="515.96,-404.45 526.52,-405.33 518.81,-398.06 515.96,-404.45"/>
</a>
</g>
</g>
<!-- Node24 -->
<g id="Node000024" class="node">
<title>Node24</title>
<g id="a_Node000024"><a xlink:href="class_data_base_g_u_i.html#a20d1ece0affaa1f5b6876ee072dd2ab1" target="_top" xlink:title="Imports a database from a file.">
<polygon fill="white" stroke="#666666" points="459.38,-460.36 348.88,-460.36 348.88,-428.36 459.38,-428.36 459.38,-460.36"/>
<text text-anchor="start" x="356.88" y="-446.86" font-family="Helvetica,sans-Serif" font-size="10.00">DataBaseGUI::import</text>
<text text-anchor="middle" x="404.12" y="-434.86" font-family="Helvetica,sans-Serif" font-size="10.00">_database</text>
</a>
</g>
</g>
<!-- Node19&#45;&gt;Node24 -->
<g id="edge40_Node000019_Node000024" class="edge">
<title>Node19&#45;&gt;Node24</title>
<g id="a_edge40_Node000019_Node000024"><a xlink:title=" ">
<path fill="none" stroke="#63b8ff" d="M495.29,-431.86C483.39,-433.51 471.16,-435.21 459.7,-436.8"/>
<polygon fill="#63b8ff" stroke="#63b8ff" points="495.64,-435.35 505.06,-430.51 494.68,-428.42 495.64,-435.35"/>
</a>
</g>
</g>
<!-- Node20&#45;&gt;Node10 -->
<g id="edge31_Node000020_Node000010" class="edge">
<title>Node20&#45;&gt;Node10</title>
<g id="a_edge31_Node000020_Node000010"><a xlink:title=" ">
<path fill="none" stroke="#63b8ff" d="M344.43,-385.38C341.95,-384.14 339.54,-382.8 337.25,-381.36 295.83,-355.25 261.83,-305.96 248.35,-284.63"/>
<polygon fill="#63b8ff" stroke="#63b8ff" points="343.01,-388.58 353.57,-389.34 345.79,-382.16 343.01,-388.58"/>
</a>
</g>
</g>
<!-- Node21&#45;&gt;Node2 -->
<g id="edge33_Node000021_Node000002" class="edge">
<title>Node21&#45;&gt;Node2</title>
<g id="a_edge33_Node000021_Node000002"><a xlink:title=" ">
<path fill="none" stroke="#63b8ff" d="M330.21,-548.32C320.64,-549.63 310.93,-550.96 301.63,-552.23"/>
<polygon fill="#63b8ff" stroke="#63b8ff" points="330.4,-551.83 339.84,-547.01 329.46,-544.89 330.4,-551.83"/>
</a>
</g>
</g>
<!-- Node21&#45;&gt;Node3 -->
<g id="edge34_Node000021_Node000003" class="edge">
<title>Node21&#45;&gt;Node3</title>
<g id="a_edge34_Node000021_Node000003"><a xlink:title=" ">
<path fill="none" stroke="#63b8ff" d="M478.29,-534.7C541.65,-531.84 635.79,-528.36 717.88,-528.36 867.88,-528.36 867.88,-528.36 867.88,-528.36 959.88,-528.36 982.98,-510.92 1068.25,-476.36 1093.42,-466.16 1120.15,-450.5 1138.85,-438.67"/>
<polygon fill="#63b8ff" stroke="#63b8ff" points="478.16,-531.2 468.33,-535.15 478.48,-538.19 478.16,-531.2"/>
</a>
</g>
</g>
<!-- Node22&#45;&gt;Node2 -->
<g id="edge36_Node000022_Node000002" class="edge">
<title>Node22&#45;&gt;Node2</title>
<g id="a_edge36_Node000022_Node000002"><a xlink:title=" ">
<path fill="none" stroke="#63b8ff" d="M341.04,-573.88C328.13,-572.11 314.55,-570.26 301.73,-568.5"/>
<polygon fill="#63b8ff" stroke="#63b8ff" points="340.3,-577.31 350.68,-575.19 341.25,-570.37 340.3,-577.31"/>
</a>
</g>
</g>
<!-- Node22&#45;&gt;Node3 -->
<g id="edge37_Node000022_Node000003" class="edge">
<title>Node22&#45;&gt;Node3</title>
<g id="a_edge37_Node000022_Node000003"><a xlink:title=" ">
<path fill="none" stroke="#63b8ff" d="M467.65,-579.82C530.78,-577.48 631.08,-574.36 717.88,-574.36 867.88,-574.36 867.88,-574.36 867.88,-574.36 961.23,-574.36 987.63,-558.42 1068.25,-511.36 1101.65,-491.86 1132.87,-458.7 1149.92,-438.83"/>
<polygon fill="#63b8ff" stroke="#63b8ff" points="467.68,-576.32 457.82,-580.19 467.95,-583.31 467.68,-576.32"/>
</a>
</g>
</g>
<!-- Node23&#45;&gt;Node10 -->
<g id="edge39_Node000023_Node000010" class="edge">
<title>Node23&#45;&gt;Node10</title>
<g id="a_edge39_Node000023_Node000010"><a xlink:title=" ">
<path fill="none" stroke="#63b8ff" d="M355.62,-335.23C349.41,-332.32 343.15,-329.31 337.25,-326.36 309.98,-312.72 279.13,-295.52 260.15,-284.73"/>
<polygon fill="#63b8ff" stroke="#63b8ff" points="354.05,-338.36 364.6,-339.37 356.99,-332 354.05,-338.36"/>
</a>
</g>
</g>
<!-- Node24&#45;&gt;Node10 -->
<g id="edge41_Node000024_Node000010" class="edge">
<title>Node24&#45;&gt;Node10</title>
<g id="a_edge41_Node000024_Node000010"><a xlink:title=" ">
<path fill="none" stroke="#63b8ff" d="M340.73,-421.98C339.54,-421.14 338.38,-420.26 337.25,-419.36 289.12,-380.72 257.07,-310.98 246.22,-284.73"/>
<polygon fill="#63b8ff" stroke="#63b8ff" points="338.74,-424.87 349.1,-427.11 342.4,-418.9 338.74,-424.87"/>
</a>
</g>
</g>
<!-- Node26 -->
<g id="Node000026" class="node">
<title>Node26</title>
<g id="a_Node000026"><a xlink:href="class_child_entry.html#a13bd0b2c4b5a30e5d63ed6e786c405bf" target="_top" xlink:title="Constructs a ChildEntry widget.">
<polygon fill="white" stroke="#666666" points="1068.25,-161.36 954.75,-161.36 954.75,-141.36 1068.25,-141.36 1068.25,-161.36"/>
<text text-anchor="middle" x="1011.5" y="-147.86" font-family="Helvetica,sans-Serif" font-size="10.00">ChildEntry::ChildEntry</text>
</a>
</g>
</g>
<!-- Node25&#45;&gt;Node26 -->
<g id="edge44_Node000025_Node000026" class="edge">
<title>Node25&#45;&gt;Node26</title>
<g id="a_edge44_Node000025_Node000026"><a xlink:title=" ">
<path fill="none" stroke="#63b8ff" d="M1147.01,-310.14C1134.91,-290.54 1118.18,-262.99 1104.25,-238.36 1087.41,-208.6 1094.27,-192.55 1068.25,-170.36 1064.2,-166.91 1059.5,-164.08 1054.58,-161.75"/>
<polygon fill="#63b8ff" stroke="#63b8ff" points="1144.01,-311.94 1152.25,-318.59 1149.96,-308.25 1144.01,-311.94"/>
</a>
</g>
</g>
<!-- Node27&#45;&gt;Node26 -->
<g id="edge46_Node000027_Node000026" class="edge">
<title>Node27&#45;&gt;Node26</title>
<g id="a_edge46_Node000027_Node000026"><a xlink:title=" ">
<path fill="none" stroke="#63b8ff" d="M1119.27,-192.36C1103.33,-185.05 1085.12,-177.03 1068.25,-170.36 1060.74,-167.39 1052.55,-164.44 1044.83,-161.79"/>
<polygon fill="#63b8ff" stroke="#63b8ff" points="1117.45,-195.37 1128,-196.4 1120.39,-189.02 1117.45,-195.37"/>
</a>
</g>
</g>
</g>
</svg>
