<?xml version="1.0" encoding="UTF-8" standalone="no"?>
<!DOCTYPE svg PUBLIC "-//W3C//DTD SVG 1.1//EN"
 "http://www.w3.org/Graphics/SVG/1.1/DTD/svg11.dtd">
<!-- Generated by graphviz version 12.2.1 (20241206.2353)
 -->
<!-- Title: Date::get_date_string Pages: 1 -->
<svg width="551pt" height="154pt"
 viewBox="0.00 0.00 550.50 154.00" xmlns="http://www.w3.org/2000/svg" xmlns:xlink="http://www.w3.org/1999/xlink">
<g id="graph0" class="graph" transform="scale(1 1) rotate(0) translate(4 150)">
<title>Date::get_date_string</title>
<!-- Node1 -->
<g id="Node000001" class="node">
<title>Node1</title>
<g id="a_Node000001"><a xlink:title="Gets the date as a string.">
<polygon fill="#999999" stroke="#666666" points="542.5,-96 432.75,-96 432.75,-76 542.5,-76 542.5,-96"/>
<text text-anchor="middle" x="487.62" y="-82.5" font-family="Helvetica,sans-Serif" font-size="10.00">Date::get_date_string</text>
</a>
</g>
</g>
<!-- Node2 -->
<g id="Node000002" class="node">
<title>Node2</title>
<g id="a_Node000002"><a xlink:href="class_date_time.html#a7570508ce1e761a7eb2a9ca938b2c3eb" target="_top" xlink:title="Gets the combined date and time as a string.">
<polygon fill="white" stroke="#666666" points="396.75,-146 294.5,-146 294.5,-114 396.75,-114 396.75,-146"/>
<text text-anchor="start" x="302.5" y="-132.5" font-family="Helvetica,sans-Serif" font-size="10.00">DateTime::get_date</text>
<text text-anchor="middle" x="345.62" y="-120.5" font-family="Helvetica,sans-Serif" font-size="10.00">_time_string</text>
</a>
</g>
</g>
<!-- Node1&#45;&gt;Node2 -->
<g id="edge1_Node000001_Node000002" class="edge">
<title>Node1&#45;&gt;Node2</title>
<g id="a_edge1_Node000001_Node000002"><a xlink:title=" ">
<path fill="none" stroke="#63b8ff" d="M442.76,-99.79C428.27,-104.34 412.04,-109.44 397.09,-114.14"/>
<polygon fill="#63b8ff" stroke="#63b8ff" points="443.51,-103.22 452,-96.88 441.41,-96.54 443.51,-103.22"/>
</a>
</g>
</g>
<!-- Node3 -->
<g id="Node000003" class="node">
<title>Node3</title>
<g id="a_Node000003"><a xlink:href="class_date.html#a1453e0b6696844fd1fbc1b3961959946" target="_top" xlink:title="Prints the date in a long format.">
<polygon fill="white" stroke="#666666" points="388.12,-96 303.12,-96 303.12,-76 388.12,-76 388.12,-96"/>
<text text-anchor="middle" x="345.62" y="-82.5" font-family="Helvetica,sans-Serif" font-size="10.00">Date::print_long</text>
</a>
</g>
</g>
<!-- Node1&#45;&gt;Node3 -->
<g id="edge2_Node000001_Node000003" class="edge">
<title>Node1&#45;&gt;Node3</title>
<g id="a_edge2_Node000001_Node000003"><a xlink:title=" ">
<path fill="none" stroke="#63b8ff" d="M421.04,-86C409.95,-86 398.72,-86 388.45,-86"/>
<polygon fill="#63b8ff" stroke="#63b8ff" points="420.98,-89.5 430.98,-86 420.98,-82.5 420.98,-89.5"/>
</a>
</g>
</g>
<!-- Node5 -->
<g id="Node000005" class="node">
<title>Node5</title>
<g id="a_Node000005"><a xlink:href="class_date.html#a55db960044bdecc41d808e0185b1ed8f" target="_top" xlink:title="Prints the date in a short format.">
<polygon fill="white" stroke="#666666" points="390,-58 301.25,-58 301.25,-38 390,-38 390,-58"/>
<text text-anchor="middle" x="345.62" y="-44.5" font-family="Helvetica,sans-Serif" font-size="10.00">Date::print_short</text>
</a>
</g>
</g>
<!-- Node1&#45;&gt;Node5 -->
<g id="edge4_Node000001_Node000005" class="edge">
<title>Node1&#45;&gt;Node5</title>
<g id="a_edge4_Node000001_Node000005"><a xlink:title=" ">
<path fill="none" stroke="#63b8ff" d="M437.09,-72.55C420.02,-67.92 401.18,-62.81 385.13,-58.45"/>
<polygon fill="#63b8ff" stroke="#63b8ff" points="435.97,-75.88 446.54,-75.12 437.8,-69.12 435.97,-75.88"/>
</a>
</g>
</g>
<!-- Node4 -->
<g id="Node000004" class="node">
<title>Node4</title>
<g id="a_Node000004"><a xlink:href="class_date_time.html#a570826a1b0ae205508810b5cdcc6129d" target="_top" xlink:title="Prints the date and time in a long format.">
<polygon fill="white" stroke="#666666" points="256.62,-96 149.88,-96 149.88,-76 256.62,-76 256.62,-96"/>
<text text-anchor="middle" x="203.25" y="-82.5" font-family="Helvetica,sans-Serif" font-size="10.00">DateTime::print_long</text>
</a>
</g>
</g>
<!-- Node3&#45;&gt;Node4 -->
<g id="edge3_Node000003_Node000004" class="edge">
<title>Node3&#45;&gt;Node4</title>
<g id="a_edge3_Node000003_Node000004"><a xlink:title=" ">
<path fill="none" stroke="#63b8ff" d="M291.43,-86C280.17,-86 268.29,-86 257.05,-86"/>
<polygon fill="#63b8ff" stroke="#63b8ff" points="291.37,-89.5 301.37,-86 291.37,-82.5 291.37,-89.5"/>
</a>
</g>
</g>
<!-- Node6 -->
<g id="Node000006" class="node">
<title>Node6</title>
<g id="a_Node000006"><a xlink:href="class_date.html#a4c4ff6ff6215424fcec7bea646913a2d" target="_top" xlink:title="Outputs the date to a stream.">
<polygon fill="white" stroke="#666666" points="248.38,-58 158.12,-58 158.12,-38 248.38,-38 248.38,-58"/>
<text text-anchor="middle" x="203.25" y="-44.5" font-family="Helvetica,sans-Serif" font-size="10.00">Date::operator&lt;&lt;</text>
</a>
</g>
</g>
<!-- Node5&#45;&gt;Node6 -->
<g id="edge5_Node000005_Node000006" class="edge">
<title>Node5&#45;&gt;Node6</title>
<g id="a_edge5_Node000005_Node000006"><a xlink:title=" ">
<path fill="none" stroke="#63b8ff" d="M289.81,-48C276.24,-48 261.86,-48 248.84,-48"/>
<polygon fill="#63b8ff" stroke="#63b8ff" points="289.47,-51.5 299.47,-48 289.47,-44.5 289.47,-51.5"/>
</a>
</g>
</g>
<!-- Node7 -->
<g id="Node000007" class="node">
<title>Node7</title>
<g id="a_Node000007"><a xlink:href="class_date_time.html#a6f14b6b8aff8237f5768a8c1f53c026a" target="_top" xlink:title="Prints the date and time in a short format.">
<polygon fill="white" stroke="#666666" points="258.5,-20 148,-20 148,0 258.5,0 258.5,-20"/>
<text text-anchor="middle" x="203.25" y="-6.5" font-family="Helvetica,sans-Serif" font-size="10.00">DateTime::print_short</text>
</a>
</g>
</g>
<!-- Node5&#45;&gt;Node7 -->
<g id="edge6_Node000005_Node000007" class="edge">
<title>Node5&#45;&gt;Node7</title>
<g id="a_edge6_Node000005_Node000007"><a xlink:title=" ">
<path fill="none" stroke="#63b8ff" d="M294.96,-34.55C277.84,-29.92 258.95,-24.81 242.85,-20.45"/>
<polygon fill="#63b8ff" stroke="#63b8ff" points="293.87,-37.89 304.43,-37.12 295.7,-31.13 293.87,-37.89"/>
</a>
</g>
</g>
<!-- Node8 -->
<g id="Node000008" class="node">
<title>Node8</title>
<g id="a_Node000008"><a xlink:href="class_date_time.html#a4428b32e7ec538b2fee1bfcf5f377f45" target="_top" xlink:title="Outputs the DateTime to a stream.">
<polygon fill="white" stroke="#666666" points="112,-20 0,-20 0,0 112,0 112,-20"/>
<text text-anchor="middle" x="56" y="-6.5" font-family="Helvetica,sans-Serif" font-size="10.00">DateTime::operator&lt;&lt;</text>
</a>
</g>
</g>
<!-- Node7&#45;&gt;Node8 -->
<g id="edge7_Node000007_Node000008" class="edge">
<title>Node7&#45;&gt;Node8</title>
<g id="a_edge7_Node000007_Node000008"><a xlink:title=" ">
<path fill="none" stroke="#63b8ff" d="M136.45,-10C128.38,-10 120.19,-10 112.29,-10"/>
<polygon fill="#63b8ff" stroke="#63b8ff" points="136.24,-13.5 146.24,-10 136.24,-6.5 136.24,-13.5"/>
</a>
</g>
</g>
</g>
</svg>
