<?xml version="1.0" encoding="UTF-8" standalone="no"?>
<!DOCTYPE svg PUBLIC "-//W3C//DTD SVG 1.1//EN"
 "http://www.w3.org/Graphics/SVG/1.1/DTD/svg11.dtd">
<!-- Generated by graphviz version 12.2.1 (20241206.2353)
 -->
<!-- Title: DataBaseGUI::child_search Pages: 1 -->
<!--zoomable 484 -->

<svg id="main" version="1.1" xmlns="http://www.w3.org/2000/svg" xmlns:xlink="http://www.w3.org/1999/xlink" xml:space="preserve" onload="init(evt)">

<style type="text/css"><![CDATA[
.node, .edge {opacity: 0.7;}
.node.selected, .edge.selected {opacity: 1;}
.edge:hover path { stroke: red; }
.edge:hover polygon { stroke: red; fill: red; }
]]></style>

<defs>
  <circle id="rim" cx="0" cy="0" r="7"/>
  <circle id="rim2" cx="0" cy="0" r="3.5"/>
  <g id="zoomPlus">
    <use xlink:href="#rim" fill="#404040"><set attributeName="fill" to="#808080" begin="zoomplus.mouseover" end="zoomplus.mouseout"/></use>
    <path d="M-4,0h8M0,-4v8" fill="none" stroke="white" stroke-width="1.5" pointer-events="none"/>
  </g>
  <g id="zoomMin">
    <use xlink:href="#rim" fill="#404040"><set attributeName="fill" to="#808080" begin="zoomminus.mouseover" end="zoomminus.mouseout"/></use>
    <path d="M-4,0h8" fill="none" stroke="white" stroke-width="1.5" pointer-events="none"/>
  </g>
  <g id="arrowUp" transform="translate(30 24)">
    <use xlink:href="#rim"/>
    <path pointer-events="none" fill="none" stroke="white" stroke-width="1.5" d="M0,-3.0v7 M-2.5,-0.5L0,-3.0L2.5,-0.5"/>
  </g>
  <g id="arrowRight" transform="rotate(90) translate(36 -43)">
    <use xlink:href="#rim"/>
    <path pointer-events="none" fill="none" stroke="white" stroke-width="1.5" d="M0,-3.0v7 M-2.5,-0.5L0,-3.0L2.5,-0.5"/>
  </g>
  <g id="arrowDown" transform="rotate(180) translate(-30 -48)">
    <use xlink:href="#rim"/>
    <path pointer-events="none" fill="none" stroke="white" stroke-width="1.5" d="M0,-3.0v7 M-2.5,-0.5L0,-3.0L2.5,-0.5"/>
  </g>
  <g id="arrowLeft" transform="rotate(270) translate(-36 17)">
    <use xlink:href="#rim"/>
    <path pointer-events="none" fill="none" stroke="white" stroke-width="1.5" d="M0,-3.0v7 M-2.5,-0.5L0,-3.0L2.5,-0.5"/>
  </g>
  <g id="resetDef">
    <use xlink:href="#rim2" fill="#404040"><set attributeName="fill" to="#808080" begin="reset.mouseover" end="reset.mouseout"/></use>
  </g>
</defs>
<script type="application/ecmascript">
var viewWidth = 1556;
var viewHeight = 484;
var sectionId = 'dynsection-12';
</script>
<script type="application/ecmascript" xlink:href="svg.min.js"/>
<svg id="graph" class="graph">
<g id="viewport">
<title>DataBaseGUI::child_search</title>
<!-- Node1 -->
<g id="Node000001" class="node">
<title>Node1</title>
<g id="a_Node000001"><a xlink:title="Searches for children based on the provided name and surname.">
<polygon fill="#999999" stroke="#666666" points="1547.5,-262 1443.75,-262 1443.75,-230 1547.5,-230 1547.5,-262"/>
<text text-anchor="start" x="1451.75" y="-248.5" font-family="Helvetica,sans-Serif" font-size="10.00">DataBaseGUI::child</text>
<text text-anchor="middle" x="1495.62" y="-236.5" font-family="Helvetica,sans-Serif" font-size="10.00">_search</text>
</a>
</g>
</g>
<!-- Node2 -->
<g id="Node000002" class="node">
<title>Node2</title>
<g id="a_Node000002"><a xlink:href="class_data_base_g_u_i.html#aadb0e7d323a970603312695c0dd9b264" target="_top" xlink:title="Searches for children based on the provided child pointer.">
<polygon fill="white" stroke="#666666" points="1407.75,-262 1304,-262 1304,-230 1407.75,-230 1407.75,-262"/>
<text text-anchor="start" x="1312" y="-248.5" font-family="Helvetica,sans-Serif" font-size="10.00">DataBaseGUI::child</text>
<text text-anchor="middle" x="1355.88" y="-236.5" font-family="Helvetica,sans-Serif" font-size="10.00">_search_by_pointer</text>
</a>
</g>
</g>
<!-- Node1&#45;&gt;Node2 -->
<g id="edge1_Node000001_Node000002" class="edge">
<title>Node1&#45;&gt;Node2</title>
<g id="a_edge1_Node000001_Node000002"><a xlink:title=" ">
<path fill="none" stroke="#63b8ff" d="M1431.86,-246C1423.95,-246 1415.92,-246 1408.21,-246"/>
<polygon fill="#63b8ff" stroke="#63b8ff" points="1431.82,-249.5 1441.82,-246 1431.82,-242.5 1431.82,-249.5"/>
</a>
</g>
</g>
<!-- Node9 -->
<g id="Node000009" class="node">
<title>Node9</title>
<g id="a_Node000009"><a xlink:href="class_data_base_g_u_i.html#a6c35e47ed05a80db144f240dee805a9d" target="_top" xlink:title="Sets up the GUI.">
<polygon fill="white" stroke="#666666" points="294.88,-322 187.38,-322 187.38,-302 294.88,-302 294.88,-322"/>
<text text-anchor="middle" x="241.12" y="-308.5" font-family="Helvetica,sans-Serif" font-size="10.00">DataBaseGUI::setup</text>
</a>
</g>
</g>
<!-- Node1&#45;&gt;Node9 -->
<g id="edge40_Node000001_Node000009" class="edge">
<title>Node1&#45;&gt;Node9</title>
<g id="a_edge40_Node000001_Node000009"><a xlink:title=" ">
<path fill="none" stroke="#63b8ff" d="M1479.45,-271.7C1441.85,-331.7 1338,-476 1208.88,-476 1208.88,-476 1208.88,-476 571.75,-476 464.6,-476 429.07,-475.23 337.25,-420 294.86,-394.5 261.14,-343.84 248.03,-322.19"/>
<polygon fill="#63b8ff" stroke="#63b8ff" points="1482.25,-273.82 1484.51,-263.46 1476.29,-270.15 1482.25,-273.82"/>
</a>
</g>
</g>
<!-- Node3 -->
<g id="Node000003" class="node">
<title>Node3</title>
<g id="a_Node000003"><a xlink:href="class_data_base_g_u_i.html#a33f2f95926f7b4b05227dcf395e235d3" target="_top" xlink:title="Populates the parent tab with a multimap of parents.">
<polygon fill="white" stroke="#666666" points="794.75,-278 674.5,-278 674.5,-246 794.75,-246 794.75,-278"/>
<text text-anchor="start" x="682.5" y="-264.5" font-family="Helvetica,sans-Serif" font-size="10.00">DataBaseGUI::populate</text>
<text text-anchor="middle" x="734.62" y="-252.5" font-family="Helvetica,sans-Serif" font-size="10.00">_parent_tab</text>
</a>
</g>
</g>
<!-- Node2&#45;&gt;Node3 -->
<g id="edge2_Node000002_Node000003" class="edge">
<title>Node2&#45;&gt;Node3</title>
<g id="a_edge2_Node000002_Node000003"><a xlink:title=" ">
<path fill="none" stroke="#63b8ff" d="M1292.53,-241.46C1194.13,-235.23 996.9,-226.57 830.75,-243 819.19,-244.14 806.95,-246.05 795.23,-248.23"/>
<polygon fill="#63b8ff" stroke="#63b8ff" points="1292.03,-244.93 1302.24,-242.09 1292.48,-237.95 1292.03,-244.93"/>
</a>
</g>
</g>
<!-- Node4 -->
<g id="Node000004" class="node">
<title>Node4</title>
<g id="a_Node000004"><a xlink:href="class_data_base_g_u_i.html#a739b2cf48c0cb6e3cab2da0a7bbd6d6d" target="_top" xlink:title="Populates the parent tab with a list of parents.">
<polygon fill="white" stroke="#666666" points="1268,-284 1147.75,-284 1147.75,-252 1268,-252 1268,-284"/>
<text text-anchor="start" x="1155.75" y="-270.5" font-family="Helvetica,sans-Serif" font-size="10.00">DataBaseGUI::populate</text>
<text text-anchor="middle" x="1207.88" y="-258.5" font-family="Helvetica,sans-Serif" font-size="10.00">_parent_tab</text>
</a>
</g>
</g>
<!-- Node2&#45;&gt;Node4 -->
<g id="edge3_Node000002_Node000004" class="edge">
<title>Node2&#45;&gt;Node4</title>
<g id="a_edge3_Node000002_Node000004"><a xlink:title=" ">
<path fill="none" stroke="#63b8ff" d="M1292.63,-255.38C1284.6,-256.59 1276.4,-257.83 1268.42,-259.03"/>
<polygon fill="#63b8ff" stroke="#63b8ff" points="1292.95,-258.87 1302.31,-253.92 1291.9,-251.95 1292.95,-258.87"/>
</a>
</g>
</g>
<!-- Node5 -->
<g id="Node000005" class="node">
<title>Node5</title>
<g id="a_Node000005"><a xlink:href="class_data_base_g_u_i.html#a7c3d843eec449d8a4ec5ce6bf0375358" target="_top" xlink:title="Searches for parents based on the provided name and surname.">
<polygon fill="white" stroke="#666666" points="1110.25,-196 999.75,-196 999.75,-164 1110.25,-164 1110.25,-196"/>
<text text-anchor="start" x="1007.75" y="-182.5" font-family="Helvetica,sans-Serif" font-size="10.00">DataBaseGUI::parent</text>
<text text-anchor="middle" x="1055" y="-170.5" font-family="Helvetica,sans-Serif" font-size="10.00">_search</text>
</a>
</g>
</g>
<!-- Node4&#45;&gt;Node5 -->
<g id="edge4_Node000004_Node000005" class="edge">
<title>Node4&#45;&gt;Node5</title>
<g id="a_edge4_Node000004_Node000005"><a xlink:title=" ">
<path fill="none" stroke="#63b8ff" d="M1169.18,-246.02C1142.8,-230.63 1108.12,-210.4 1084.13,-196.41"/>
<polygon fill="#63b8ff" stroke="#63b8ff" points="1167.14,-248.88 1177.54,-250.89 1170.67,-242.83 1167.14,-248.88"/>
</a>
</g>
</g>
<!-- Node19 -->
<g id="Node000019" class="node">
<title>Node19</title>
<g id="a_Node000019"><a xlink:href="class_data_base_g_u_i.html#a625b5e2018395a458ff517bbf364e1bf" target="_top" xlink:title="Selects the appropriate sorting to use based on parent sort index.">
<polygon fill="white" stroke="#666666" points="1111.75,-363 998.25,-363 998.25,-331 1111.75,-331 1111.75,-363"/>
<text text-anchor="start" x="1006.25" y="-349.5" font-family="Helvetica,sans-Serif" font-size="10.00">DataBaseGUI::sort_to</text>
<text text-anchor="middle" x="1055" y="-337.5" font-family="Helvetica,sans-Serif" font-size="10.00">_populate_parent_tab</text>
</a>
</g>
</g>
<!-- Node4&#45;&gt;Node19 -->
<g id="edge28_Node000004_Node000019" class="edge">
<title>Node4&#45;&gt;Node19</title>
<g id="a_edge28_Node000004_Node000019"><a xlink:title=" ">
<path fill="none" stroke="#63b8ff" d="M1165.48,-289.68C1140.86,-302.57 1110.11,-318.66 1087.48,-330.52"/>
<polygon fill="#63b8ff" stroke="#63b8ff" points="1167.04,-292.81 1174.27,-285.07 1163.79,-286.61 1167.04,-292.81"/>
</a>
</g>
</g>
<!-- Node6 -->
<g id="Node000006" class="node">
<title>Node6</title>
<g id="a_Node000006"><a xlink:href="class_data_base_g_u_i.html#a8e1fe573ef6a09e112989968ec1a2b43" target="_top" xlink:title="Searches for parents based on the provided parent pointer.">
<polygon fill="white" stroke="#666666" points="951.75,-114 841.25,-114 841.25,-82 951.75,-82 951.75,-114"/>
<text text-anchor="start" x="849.25" y="-100.5" font-family="Helvetica,sans-Serif" font-size="10.00">DataBaseGUI::parent</text>
<text text-anchor="middle" x="896.5" y="-88.5" font-family="Helvetica,sans-Serif" font-size="10.00">_search_by_pointer</text>
</a>
</g>
</g>
<!-- Node5&#45;&gt;Node6 -->
<g id="edge5_Node000005_Node000006" class="edge">
<title>Node5&#45;&gt;Node6</title>
<g id="a_edge5_Node000005_Node000006"><a xlink:title=" ">
<path fill="none" stroke="#63b8ff" d="M1012.65,-158.33C986.34,-144.55 952.82,-126.99 928.74,-114.37"/>
<polygon fill="#63b8ff" stroke="#63b8ff" points="1010.88,-161.36 1021.37,-162.9 1014.13,-155.16 1010.88,-161.36"/>
</a>
</g>
</g>
<!-- Node5&#45;&gt;Node9 -->
<g id="edge27_Node000005_Node000009" class="edge">
<title>Node5&#45;&gt;Node9</title>
<g id="a_edge27_Node000005_Node000009"><a xlink:title=" ">
<path fill="none" stroke="#63b8ff" d="M988.15,-184.21C911.47,-190.4 781.65,-204.92 674.5,-237 579.06,-265.57 568.3,-309.61 471,-331 405.97,-345.29 328.38,-332.85 282.3,-322.48"/>
<polygon fill="#63b8ff" stroke="#63b8ff" points="988.32,-187.71 998.02,-183.44 987.78,-180.73 988.32,-187.71"/>
</a>
</g>
</g>
<!-- Node7 -->
<g id="Node000007" class="node">
<title>Node7</title>
<g id="a_Node000007"><a xlink:href="class_data_base_g_u_i.html#a334c0011a9d3a71539b326a888feccd3" target="_top" xlink:title="Populates the children tab with a multimap of children.">
<polygon fill="white" stroke="#666666" points="301.25,-76 181,-76 181,-44 301.25,-44 301.25,-76"/>
<text text-anchor="start" x="189" y="-62.5" font-family="Helvetica,sans-Serif" font-size="10.00">DataBaseGUI::populate</text>
<text text-anchor="middle" x="241.12" y="-50.5" font-family="Helvetica,sans-Serif" font-size="10.00">_children_tab</text>
</a>
</g>
</g>
<!-- Node6&#45;&gt;Node7 -->
<g id="edge6_Node000006_Node000007" class="edge">
<title>Node6&#45;&gt;Node7</title>
<g id="a_edge6_Node000006_Node000007"><a xlink:title=" ">
<path fill="none" stroke="#63b8ff" d="M829.43,-94.16C701.95,-86.74 423.87,-70.57 301.7,-63.47"/>
<polygon fill="#63b8ff" stroke="#63b8ff" points="829.22,-97.65 839.41,-94.74 829.63,-90.66 829.22,-97.65"/>
</a>
</g>
</g>
<!-- Node8 -->
<g id="Node000008" class="node">
<title>Node8</title>
<g id="a_Node000008"><a xlink:href="class_data_base_g_u_i.html#af346d08370d9e4574980707f61b9c8f7" target="_top" xlink:title="Populates the children tab with a list of children.">
<polygon fill="white" stroke="#666666" points="794.75,-70 674.5,-70 674.5,-38 794.75,-38 794.75,-70"/>
<text text-anchor="start" x="682.5" y="-56.5" font-family="Helvetica,sans-Serif" font-size="10.00">DataBaseGUI::populate</text>
<text text-anchor="middle" x="734.62" y="-44.5" font-family="Helvetica,sans-Serif" font-size="10.00">_children_tab</text>
</a>
</g>
</g>
<!-- Node6&#45;&gt;Node8 -->
<g id="edge7_Node000006_Node000008" class="edge">
<title>Node6&#45;&gt;Node8</title>
<g id="a_edge7_Node000006_Node000008"><a xlink:title=" ">
<path fill="none" stroke="#63b8ff" d="M830.02,-79.98C818.48,-76.8 806.52,-73.51 795.15,-70.38"/>
<polygon fill="#63b8ff" stroke="#63b8ff" points="828.9,-83.3 839.47,-82.58 830.76,-76.55 828.9,-83.3"/>
</a>
</g>
</g>
<!-- Node8&#45;&gt;Node1 -->
<g id="edge8_Node000008_Node000001" class="edge">
<title>Node8&#45;&gt;Node1</title>
<g id="a_edge8_Node000008_Node000001"><a xlink:title=" ">
<path fill="none" stroke="#63b8ff" d="M806.43,-54C870.95,-54 968.88,-54 1054,-54 1208.88,-54 1208.88,-54 1208.88,-54 1334.39,-54 1446.27,-183.2 1482.42,-229.63"/>
<polygon fill="#63b8ff" stroke="#63b8ff" points="806.7,-50.5 796.7,-54 806.7,-57.5 806.7,-50.5"/>
</a>
</g>
</g>
<!-- Node8&#45;&gt;Node9 -->
<g id="edge9_Node000008_Node000009" class="edge">
<title>Node8&#45;&gt;Node9</title>
<g id="a_edge9_Node000008_Node000009"><a xlink:title=" ">
<path fill="none" stroke="#63b8ff" d="M716.42,-79.74C698.98,-104.42 670.11,-141.57 638.5,-167 572.97,-219.71 549.59,-225.07 471,-255 438.19,-267.5 346.62,-288.83 289.75,-301.55"/>
<polygon fill="#63b8ff" stroke="#63b8ff" points="719.28,-81.77 722.1,-71.56 713.52,-77.78 719.28,-81.77"/>
</a>
</g>
</g>
<!-- Node12 -->
<g id="Node000012" class="node">
<title>Node12</title>
<g id="a_Node000012"><a xlink:href="class_data_base_g_u_i.html#aa684465aa73b5b34bbadd24fc7f2f641" target="_top" xlink:title="Selects the appropriate sorting to use based on child sort index.">
<polygon fill="white" stroke="#666666" points="630.62,-158 514.88,-158 514.88,-126 630.62,-126 630.62,-158"/>
<text text-anchor="start" x="522.88" y="-144.5" font-family="Helvetica,sans-Serif" font-size="10.00">DataBaseGUI::sort_to</text>
<text text-anchor="middle" x="572.75" y="-132.5" font-family="Helvetica,sans-Serif" font-size="10.00">_populate_children_tab</text>
</a>
</g>
</g>
<!-- Node8&#45;&gt;Node12 -->
<g id="edge12_Node000008_Node000012" class="edge">
<title>Node8&#45;&gt;Node12</title>
<g id="a_edge12_Node000008_Node000012"><a xlink:title=" ">
<path fill="none" stroke="#63b8ff" d="M694.05,-75.78C666.05,-91.19 629.09,-111.54 603.56,-125.59"/>
<polygon fill="#63b8ff" stroke="#63b8ff" points="695.53,-78.96 702.6,-71.08 692.15,-72.83 695.53,-78.96"/>
</a>
</g>
</g>
<!-- Node10 -->
<g id="Node000010" class="node">
<title>Node10</title>
<g id="a_Node000010"><a xlink:href="class_data_base_g_u_i.html#a2c83afe3a30fb5166d275d9a74d33196" target="_top" xlink:title="Default constructor.">
<polygon fill="white" stroke="#666666" points="145,-341 0,-341 0,-321 145,-321 145,-341"/>
<text text-anchor="middle" x="72.5" y="-327.5" font-family="Helvetica,sans-Serif" font-size="10.00">DataBaseGUI::DataBaseGUI</text>
</a>
</g>
</g>
<!-- Node9&#45;&gt;Node10 -->
<g id="edge10_Node000009_Node000010" class="edge">
<title>Node9&#45;&gt;Node10</title>
<g id="a_edge10_Node000009_Node000010"><a xlink:title=" ">
<path fill="none" stroke="#63b8ff" d="M175.53,-319.37C165.64,-320.49 155.37,-321.67 145.32,-322.81"/>
<polygon fill="#63b8ff" stroke="#63b8ff" points="175.9,-322.85 185.44,-318.24 175.11,-315.89 175.9,-322.85"/>
</a>
</g>
</g>
<!-- Node11 -->
<g id="Node000011" class="node">
<title>Node11</title>
<g id="a_Node000011"><a xlink:href="class_data_base_g_u_i.html#aba10d1d8e9fb151632ff34de418cee82" target="_top" xlink:title="Constructs a DataBaseGUI object.">
<polygon fill="white" stroke="#666666" points="145,-303 0,-303 0,-283 145,-283 145,-303"/>
<text text-anchor="middle" x="72.5" y="-289.5" font-family="Helvetica,sans-Serif" font-size="10.00">DataBaseGUI::DataBaseGUI</text>
</a>
</g>
</g>
<!-- Node9&#45;&gt;Node11 -->
<g id="edge11_Node000009_Node000011" class="edge">
<title>Node9&#45;&gt;Node11</title>
<g id="a_edge11_Node000009_Node000011"><a xlink:title=" ">
<path fill="none" stroke="#63b8ff" d="M175.53,-304.63C165.64,-303.51 155.37,-302.33 145.32,-301.19"/>
<polygon fill="#63b8ff" stroke="#63b8ff" points="175.11,-308.11 185.44,-305.76 175.9,-301.15 175.11,-308.11"/>
</a>
</g>
</g>
<!-- Node13 -->
<g id="Node000013" class="node">
<title>Node13</title>
<g id="a_Node000013"><a xlink:href="class_data_base_g_u_i.html#a00f9044d3b8dd9c5dada244dac1b0df6" target="_top" xlink:title="Adds a new child to the database.">
<polygon fill="white" stroke="#666666" points="466.5,-246 341.75,-246 341.75,-226 466.5,-226 466.5,-246"/>
<text text-anchor="middle" x="404.12" y="-232.5" font-family="Helvetica,sans-Serif" font-size="10.00">DataBaseGUI::child_add</text>
</a>
</g>
</g>
<!-- Node12&#45;&gt;Node13 -->
<g id="edge13_Node000012_Node000013" class="edge">
<title>Node12&#45;&gt;Node13</title>
<g id="a_edge13_Node000012_Node000013"><a xlink:title=" ">
<path fill="none" stroke="#63b8ff" d="M545.58,-165.64C526.2,-182.06 498.49,-203.37 471,-217 464.28,-220.33 456.88,-223.17 449.54,-225.57"/>
<polygon fill="#63b8ff" stroke="#63b8ff" points="547.71,-168.43 552.98,-159.24 543.13,-163.13 547.71,-168.43"/>
</a>
</g>
</g>
<!-- Node14 -->
<g id="Node000014" class="node">
<title>Node14</title>
<g id="a_Node000014"><a xlink:href="class_data_base_g_u_i.html#acb6c6b292e58d0ead30682f7f5705244" target="_top" xlink:title="Edits an existing child in the database.">
<polygon fill="white" stroke="#666666" points="466.5,-108 341.75,-108 341.75,-88 466.5,-88 466.5,-108"/>
<text text-anchor="middle" x="404.12" y="-94.5" font-family="Helvetica,sans-Serif" font-size="10.00">DataBaseGUI::child_edit</text>
</a>
</g>
</g>
<!-- Node12&#45;&gt;Node14 -->
<g id="edge15_Node000012_Node000014" class="edge">
<title>Node12&#45;&gt;Node14</title>
<g id="a_edge15_Node000012_Node000014"><a xlink:title=" ">
<path fill="none" stroke="#63b8ff" d="M503.46,-123.97C483.47,-118.69 462.29,-113.1 444.73,-108.46"/>
<polygon fill="#63b8ff" stroke="#63b8ff" points="502.38,-127.3 512.94,-126.47 504.17,-120.53 502.38,-127.3"/>
</a>
</g>
</g>
<!-- Node15 -->
<g id="Node000015" class="node">
<title>Node15</title>
<g id="a_Node000015"><a xlink:href="class_data_base_g_u_i.html#ae3a08843db874e51a7cea32fa8937ca5" target="_top" xlink:title="Removes a child from the database.">
<polygon fill="white" stroke="#666666" points="456,-32 352.25,-32 352.25,0 456,0 456,-32"/>
<text text-anchor="start" x="360.25" y="-18.5" font-family="Helvetica,sans-Serif" font-size="10.00">DataBaseGUI::child</text>
<text text-anchor="middle" x="404.12" y="-6.5" font-family="Helvetica,sans-Serif" font-size="10.00">_remove</text>
</a>
</g>
</g>
<!-- Node12&#45;&gt;Node15 -->
<g id="edge18_Node000012_Node000015" class="edge">
<title>Node12&#45;&gt;Node15</title>
<g id="a_edge18_Node000012_Node000015"><a xlink:title=" ">
<path fill="none" stroke="#63b8ff" d="M541.16,-118.87C508.06,-93.84 456.11,-54.55 426.91,-32.48"/>
<polygon fill="#63b8ff" stroke="#63b8ff" points="538.67,-121.37 548.76,-124.61 542.89,-115.79 538.67,-121.37"/>
</a>
</g>
</g>
<!-- Node16 -->
<g id="Node000016" class="node">
<title>Node16</title>
<g id="a_Node000016"><a xlink:href="class_data_base_g_u_i.html#a2e6d3629f679c153cdd21b683ce794a1" target="_top" xlink:title="Changes the sorting method for children.">
<polygon fill="white" stroke="#666666" points="456,-208 352.25,-208 352.25,-176 456,-176 456,-208"/>
<text text-anchor="start" x="360.25" y="-194.5" font-family="Helvetica,sans-Serif" font-size="10.00">DataBaseGUI::child</text>
<text text-anchor="middle" x="404.12" y="-182.5" font-family="Helvetica,sans-Serif" font-size="10.00">_sort_change</text>
</a>
</g>
</g>
<!-- Node12&#45;&gt;Node16 -->
<g id="edge21_Node000012_Node000016" class="edge">
<title>Node12&#45;&gt;Node16</title>
<g id="a_edge21_Node000012_Node000016"><a xlink:title=" ">
<path fill="none" stroke="#63b8ff" d="M506.45,-161.6C489.83,-166.58 472.22,-171.87 456.41,-176.61"/>
<polygon fill="#63b8ff" stroke="#63b8ff" points="507.17,-165.03 515.74,-158.81 505.16,-158.33 507.17,-165.03"/>
</a>
</g>
</g>
<!-- Node17 -->
<g id="Node000017" class="node">
<title>Node17</title>
<g id="a_Node000017"><a xlink:href="class_data_base_g_u_i.html#a20d1ece0affaa1f5b6876ee072dd2ab1" target="_top" xlink:title="Imports a database from a file.">
<polygon fill="white" stroke="#666666" points="459.38,-158 348.88,-158 348.88,-126 459.38,-126 459.38,-158"/>
<text text-anchor="start" x="356.88" y="-144.5" font-family="Helvetica,sans-Serif" font-size="10.00">DataBaseGUI::import</text>
<text text-anchor="middle" x="404.12" y="-132.5" font-family="Helvetica,sans-Serif" font-size="10.00">_database</text>
</a>
</g>
</g>
<!-- Node12&#45;&gt;Node17 -->
<g id="edge23_Node000012_Node000017" class="edge">
<title>Node12&#45;&gt;Node17</title>
<g id="a_edge23_Node000012_Node000017"><a xlink:title=" ">
<path fill="none" stroke="#63b8ff" d="M503.01,-142C488.6,-142 473.58,-142 459.76,-142"/>
<polygon fill="#63b8ff" stroke="#63b8ff" points="502.89,-145.5 512.89,-142 502.89,-138.5 502.89,-145.5"/>
</a>
</g>
</g>
<!-- Node18 -->
<g id="Node000018" class="node">
<title>Node18</title>
<g id="a_Node000018"><a xlink:href="class_data_base_g_u_i.html#a438b5070d6a58ffa5e884d18740852c6" target="_top" xlink:title="Handles tab change events.">
<polygon fill="white" stroke="#666666" points="471,-322 337.25,-322 337.25,-302 471,-302 471,-322"/>
<text text-anchor="middle" x="404.12" y="-308.5" font-family="Helvetica,sans-Serif" font-size="10.00">DataBaseGUI::tab_change</text>
</a>
</g>
</g>
<!-- Node12&#45;&gt;Node18 -->
<g id="edge25_Node000012_Node000018" class="edge">
<title>Node12&#45;&gt;Node18</title>
<g id="a_edge25_Node000012_Node000018"><a xlink:title=" ">
<path fill="none" stroke="#63b8ff" d="M551.11,-166.97C531.33,-190.44 500.26,-226.18 471,-255 453.55,-272.2 431.8,-290.45 418.19,-301.54"/>
<polygon fill="#63b8ff" stroke="#63b8ff" points="553.65,-169.39 557.38,-159.47 548.28,-164.89 553.65,-169.39"/>
</a>
</g>
</g>
<!-- Node13&#45;&gt;Node9 -->
<g id="edge14_Node000013_Node000009" class="edge">
<title>Node13&#45;&gt;Node9</title>
<g id="a_edge14_Node000013_Node000009"><a xlink:title=" ">
<path fill="none" stroke="#63b8ff" d="M360.95,-250.29C352.99,-253.29 344.8,-256.59 337.25,-260 309.13,-272.72 278,-290.48 259.25,-301.61"/>
<polygon fill="#63b8ff" stroke="#63b8ff" points="361.96,-253.65 370.15,-246.92 359.56,-247.07 361.96,-253.65"/>
</a>
</g>
</g>
<!-- Node14&#45;&gt;Node7 -->
<g id="edge16_Node000014_Node000007" class="edge">
<title>Node14&#45;&gt;Node7</title>
<g id="a_edge16_Node000014_Node000007"><a xlink:title=" ">
<path fill="none" stroke="#63b8ff" d="M347.6,-84.9C332.72,-81.38 316.56,-77.57 301.47,-74.01"/>
<polygon fill="#63b8ff" stroke="#63b8ff" points="346.7,-88.28 357.23,-87.17 348.3,-81.46 346.7,-88.28"/>
</a>
</g>
</g>
<!-- Node14&#45;&gt;Node8 -->
<g id="edge17_Node000014_Node000008" class="edge">
<title>Node14&#45;&gt;Node8</title>
<g id="a_edge17_Node000014_Node000008"><a xlink:title=" ">
<path fill="none" stroke="#63b8ff" d="M478.07,-88.23C537.05,-80.33 619.07,-69.34 674.14,-61.97"/>
<polygon fill="#63b8ff" stroke="#63b8ff" points="477.91,-84.72 468.46,-89.52 478.84,-91.66 477.91,-84.72"/>
</a>
</g>
</g>
<!-- Node15&#45;&gt;Node7 -->
<g id="edge19_Node000015_Node000007" class="edge">
<title>Node15&#45;&gt;Node7</title>
<g id="a_edge19_Node000015_Node000007"><a xlink:title=" ">
<path fill="none" stroke="#63b8ff" d="M341.44,-32.86C328.41,-36.42 314.68,-40.17 301.73,-43.71"/>
<polygon fill="#63b8ff" stroke="#63b8ff" points="342,-36.33 350.72,-30.32 340.15,-29.58 342,-36.33"/>
</a>
</g>
</g>
<!-- Node15&#45;&gt;Node8 -->
<g id="edge20_Node000015_Node000008" class="edge">
<title>Node15&#45;&gt;Node8</title>
<g id="a_edge20_Node000015_Node000008"><a xlink:title=" ">
<path fill="none" stroke="#63b8ff" d="M467.37,-22.69C514.4,-27.8 580.53,-35.11 638.5,-42 649.99,-43.36 662.25,-44.87 674.02,-46.35"/>
<polygon fill="#63b8ff" stroke="#63b8ff" points="467.96,-19.23 457.64,-21.63 467.21,-26.19 467.96,-19.23"/>
</a>
</g>
</g>
<!-- Node16&#45;&gt;Node9 -->
<g id="edge22_Node000016_Node000009" class="edge">
<title>Node16&#45;&gt;Node9</title>
<g id="a_edge22_Node000016_Node000009"><a xlink:title=" ">
<path fill="none" stroke="#63b8ff" d="M342.98,-213.55C341.01,-214.65 339.1,-215.8 337.25,-217 299.61,-241.32 264.92,-282.6 249.93,-301.72"/>
<polygon fill="#63b8ff" stroke="#63b8ff" points="344.43,-216.73 351.75,-209.07 341.25,-210.5 344.43,-216.73"/>
</a>
</g>
</g>
<!-- Node17&#45;&gt;Node9 -->
<g id="edge24_Node000017_Node000009" class="edge">
<title>Node17&#45;&gt;Node9</title>
<g id="a_edge24_Node000017_Node000009"><a xlink:title=" ">
<path fill="none" stroke="#63b8ff" d="M340.73,-164.38C339.54,-165.22 338.38,-166.1 337.25,-167 289.12,-205.64 257.07,-275.38 246.22,-301.63"/>
<polygon fill="#63b8ff" stroke="#63b8ff" points="342.4,-167.46 349.1,-159.25 338.74,-161.49 342.4,-167.46"/>
</a>
</g>
</g>
<!-- Node18&#45;&gt;Node9 -->
<g id="edge26_Node000018_Node000009" class="edge">
<title>Node18&#45;&gt;Node9</title>
<g id="a_edge26_Node000018_Node000009"><a xlink:title=" ">
<path fill="none" stroke="#63b8ff" d="M325.87,-312C315.39,-312 304.84,-312 294.93,-312"/>
<polygon fill="#63b8ff" stroke="#63b8ff" points="325.66,-315.5 335.66,-312 325.66,-308.5 325.66,-315.5"/>
</a>
</g>
</g>
<!-- Node19&#45;&gt;Node18 -->
<g id="edge39_Node000019_Node000018" class="edge">
<title>Node19&#45;&gt;Node18</title>
<g id="a_edge39_Node000019_Node000018"><a xlink:title=" ">
<path fill="none" stroke="#63b8ff" d="M986.54,-343.36C861.45,-336.61 595,-322.24 471.07,-315.56"/>
<polygon fill="#63b8ff" stroke="#63b8ff" points="986.15,-346.85 996.32,-343.89 986.53,-339.86 986.15,-346.85"/>
</a>
</g>
</g>
<!-- Node20 -->
<g id="Node000020" class="node">
<title>Node20</title>
<g id="a_Node000020"><a xlink:href="class_data_base_g_u_i.html#a336fa47d9a9e56d585d82f53d33e8593" target="_top" xlink:title="Adds a new parent to the database.">
<polygon fill="white" stroke="#666666" points="638.5,-398 507,-398 507,-378 638.5,-378 638.5,-398"/>
<text text-anchor="middle" x="572.75" y="-384.5" font-family="Helvetica,sans-Serif" font-size="10.00">DataBaseGUI::parent_add</text>
</a>
</g>
</g>
<!-- Node19&#45;&gt;Node20 -->
<g id="edge29_Node000019_Node000020" class="edge">
<title>Node19&#45;&gt;Node20</title>
<g id="a_edge29_Node000019_Node000020"><a xlink:title=" ">
<path fill="none" stroke="#63b8ff" d="M986.75,-360.43C978.52,-361.78 970.21,-363.02 962.25,-364 849.07,-377.93 716.29,-383.92 638.93,-386.39"/>
<polygon fill="#63b8ff" stroke="#63b8ff" points="987.13,-363.91 996.39,-358.77 985.94,-357.01 987.13,-363.91"/>
</a>
</g>
</g>
<!-- Node21 -->
<g id="Node000021" class="node">
<title>Node21</title>
<g id="a_Node000021"><a xlink:href="class_data_base_g_u_i.html#a5b049fb9e0e5d78c4c2e81e569b471f9" target="_top" xlink:title="Edits an existing parent in the database.">
<polygon fill="white" stroke="#666666" points="962.25,-272 830.75,-272 830.75,-252 962.25,-252 962.25,-272"/>
<text text-anchor="middle" x="896.5" y="-258.5" font-family="Helvetica,sans-Serif" font-size="10.00">DataBaseGUI::parent_edit</text>
</a>
</g>
</g>
<!-- Node19&#45;&gt;Node21 -->
<g id="edge31_Node000019_Node000021" class="edge">
<title>Node19&#45;&gt;Node21</title>
<g id="a_edge31_Node000019_Node000021"><a xlink:title=" ">
<path fill="none" stroke="#63b8ff" d="M1026.65,-323.55C1009.18,-309.56 985.52,-292.37 962.25,-281 955.51,-277.71 948.1,-274.87 940.76,-272.48"/>
<polygon fill="#63b8ff" stroke="#63b8ff" points="1024.06,-325.95 1034.01,-329.56 1028.48,-320.53 1024.06,-325.95"/>
</a>
</g>
</g>
<!-- Node22 -->
<g id="Node000022" class="node">
<title>Node22</title>
<g id="a_Node000022"><a xlink:href="class_data_base_g_u_i.html#ad8a42f24cdb603ba85c1cdd4ea2e73a4" target="_top" xlink:title="Removes a parent from the database.">
<polygon fill="white" stroke="#666666" points="951.75,-322 841.25,-322 841.25,-290 951.75,-290 951.75,-322"/>
<text text-anchor="start" x="849.25" y="-308.5" font-family="Helvetica,sans-Serif" font-size="10.00">DataBaseGUI::parent</text>
<text text-anchor="middle" x="896.5" y="-296.5" font-family="Helvetica,sans-Serif" font-size="10.00">_remove</text>
</a>
</g>
</g>
<!-- Node19&#45;&gt;Node22 -->
<g id="edge34_Node000019_Node000022" class="edge">
<title>Node19&#45;&gt;Node22</title>
<g id="a_edge34_Node000019_Node000022"><a xlink:title=" ">
<path fill="none" stroke="#63b8ff" d="M986.94,-329.43C975.32,-326.39 963.36,-323.25 952.12,-320.31"/>
<polygon fill="#63b8ff" stroke="#63b8ff" points="985.92,-332.78 996.48,-331.93 987.69,-326.01 985.92,-332.78"/>
</a>
</g>
</g>
<!-- Node23 -->
<g id="Node000023" class="node">
<title>Node23</title>
<g id="a_Node000023"><a xlink:href="class_data_base_g_u_i.html#a783bdf1d65998f887dd6445741450480" target="_top" xlink:title="Changes the sorting method for parents.">
<polygon fill="white" stroke="#666666" points="789.88,-448 679.38,-448 679.38,-416 789.88,-416 789.88,-448"/>
<text text-anchor="start" x="687.38" y="-434.5" font-family="Helvetica,sans-Serif" font-size="10.00">DataBaseGUI::parent</text>
<text text-anchor="middle" x="734.62" y="-422.5" font-family="Helvetica,sans-Serif" font-size="10.00">_sort_change</text>
</a>
</g>
</g>
<!-- Node19&#45;&gt;Node23 -->
<g id="edge37_Node000019_Node000023" class="edge">
<title>Node19&#45;&gt;Node23</title>
<g id="a_edge37_Node000019_Node000023"><a xlink:title=" ">
<path fill="none" stroke="#63b8ff" d="M1023.2,-369.81C1006.1,-381.33 983.94,-394.43 962.25,-402 905.67,-421.75 836.99,-428.64 790.17,-430.97"/>
<polygon fill="#63b8ff" stroke="#63b8ff" points="1025.17,-372.7 1031.4,-364.13 1021.19,-366.95 1025.17,-372.7"/>
</a>
</g>
</g>
<!-- Node20&#45;&gt;Node9 -->
<g id="edge30_Node000020_Node000009" class="edge">
<title>Node20&#45;&gt;Node9</title>
<g id="a_edge30_Node000020_Node000009"><a xlink:title=" ">
<path fill="none" stroke="#63b8ff" d="M495.44,-387.8C448.82,-385.83 388.52,-379.92 337.25,-364 306.69,-354.51 274.77,-334.69 256.77,-322.45"/>
<polygon fill="#63b8ff" stroke="#63b8ff" points="495.04,-391.29 505.16,-388.16 495.3,-384.3 495.04,-391.29"/>
</a>
</g>
</g>
<!-- Node21&#45;&gt;Node3 -->
<g id="edge32_Node000021_Node000003" class="edge">
<title>Node21&#45;&gt;Node3</title>
<g id="a_edge32_Node000021_Node000003"><a xlink:title=" ">
<path fill="none" stroke="#63b8ff" d="M819.16,-262C811.11,-262 803.01,-262 795.18,-262"/>
<polygon fill="#63b8ff" stroke="#63b8ff" points="818.96,-265.5 828.96,-262 818.96,-258.5 818.96,-265.5"/>
</a>
</g>
</g>
<!-- Node21&#45;&gt;Node4 -->
<g id="edge33_Node000021_Node000004" class="edge">
<title>Node21&#45;&gt;Node4</title>
<g id="a_edge33_Node000021_Node000004"><a xlink:title=" ">
<path fill="none" stroke="#63b8ff" d="M974.24,-263.49C1027.83,-264.53 1098.31,-265.89 1147.59,-266.85"/>
<polygon fill="#63b8ff" stroke="#63b8ff" points="974.31,-259.99 964.25,-263.29 974.18,-266.99 974.31,-259.99"/>
</a>
</g>
</g>
<!-- Node22&#45;&gt;Node3 -->
<g id="edge35_Node000022_Node000003" class="edge">
<title>Node22&#45;&gt;Node3</title>
<g id="a_edge35_Node000022_Node000003"><a xlink:title=" ">
<path fill="none" stroke="#63b8ff" d="M830.02,-287.98C818.48,-284.8 806.52,-281.51 795.15,-278.38"/>
<polygon fill="#63b8ff" stroke="#63b8ff" points="828.9,-291.3 839.47,-290.58 830.76,-284.55 828.9,-291.3"/>
</a>
</g>
</g>
<!-- Node22&#45;&gt;Node4 -->
<g id="edge36_Node000022_Node000004" class="edge">
<title>Node22&#45;&gt;Node4</title>
<g id="a_edge36_Node000022_Node000004"><a xlink:title=" ">
<path fill="none" stroke="#63b8ff" d="M963.47,-297.9C1018.06,-291.19 1094.93,-281.75 1147.59,-275.28"/>
<polygon fill="#63b8ff" stroke="#63b8ff" points="963.18,-294.41 953.68,-299.1 964.03,-301.35 963.18,-294.41"/>
</a>
</g>
</g>
<!-- Node23&#45;&gt;Node9 -->
<g id="edge38_Node000023_Node000009" class="edge">
<title>Node23&#45;&gt;Node9</title>
<g id="a_edge38_Node000023_Node000009"><a xlink:title=" ">
<path fill="none" stroke="#63b8ff" d="M667.97,-435.96C587,-438.39 446.66,-434.52 337.25,-389 300.57,-373.74 266.72,-339.69 251.14,-322.44"/>
<polygon fill="#63b8ff" stroke="#63b8ff" points="667.61,-439.47 677.48,-435.63 667.37,-432.47 667.61,-439.47"/>
</a>
</g>
</g>
</g>
</svg>

<g id="navigator" transform="translate(0 0)" fill="#404254">
  <rect fill="#f2f5e9" fill-opacity="0.5" stroke="#606060" stroke-width=".5" x="0" y="0" width="60" height="60"/>
  <use id="zoomplus" xlink:href="#zoomPlus" x="17" y="9" onmousedown="handleZoom(evt,'in')"/>
  <use id="zoomminus" xlink:href="#zoomMin" x="42" y="9" onmousedown="handleZoom(evt,'out')"/>
  <use id="reset" xlink:href="#resetDef" x="30" y="36" onmousedown="handleReset()"/>
   <use id="arrowup" xlink:href="#arrowUp" x="0" y="0" onmousedown="handlePan(0,-1)"/>
  <use id="arrowright" xlink:href="#arrowRight" x="0" y="0" onmousedown="handlePan(1,0)"/>
  <use id="arrowdown" xlink:href="#arrowDown" x="0" y="0" onmousedown="handlePan(0,1)"/>
  <use id="arrowleft" xlink:href="#arrowLeft" x="0" y="0" onmousedown="handlePan(-1,0)"/>
</g>
<svg viewBox="0 0 15 15" width="100%" height="30px" preserveAspectRatio="xMaxYMin meet">
 <g id="arrow_out" transform="scale(0.3 0.3)">
  <a xlink:href="class_data_base_g_u_i_a2d921da686e76ae195da018bb735a1ae_icgraph_org.svg" target="_base">
   <rect id="button" ry="5" rx="5" y="6" x="6" height="38" width="38"
        fill="#f2f5e9" fill-opacity="0.5" stroke="#606060" stroke-width="1.0"/>
   <path id="arrow"
     d="M 11.500037,31.436501 C 11.940474,20.09759 22.043105,11.32322 32.158766,21.979434 L 37.068811,17.246167 C 37.068811,17.246167 37.088388,32 37.088388,32 L 22.160133,31.978069 C 22.160133,31.978069 26.997745,27.140456 26.997745,27.140456 C 18.528582,18.264221 13.291696,25.230495 11.500037,31.436501 z"
     style="fill:#404040;"/>
  </a>
 </g>
</svg>

<style type='text/css'>
<![CDATA[
[data-mouse-over-selected='false'] { opacity: 0.7; }
[data-mouse-over-selected='true']  { opacity: 1.0; }
]]>
</style>
<script type="application/ecmascript"><![CDATA[
document.addEventListener('DOMContentLoaded', (event) => {
  highlightEdges();
  highlightAdjacentNodes();
});
]]></script>
</svg>
