<?xml version="1.0" encoding="UTF-8" standalone="no"?>
<!DOCTYPE svg PUBLIC "-//W3C//DTD SVG 1.1//EN"
 "http://www.w3.org/Graphics/SVG/1.1/DTD/svg11.dtd">
<!-- Generated by graphviz version 12.2.1 (20241206.2353)
 -->
<!-- Title: Date::get_weekday_from_date Pages: 1 -->
<svg width="282pt" height="142pt"
 viewBox="0.00 0.00 282.25 142.00" xmlns="http://www.w3.org/2000/svg" xmlns:xlink="http://www.w3.org/1999/xlink">

<svg id="main" version="1.1" xmlns="http://www.w3.org/2000/svg" xmlns:xlink="http://www.w3.org/1999/xlink" xml:space="preserve">

<style type="text/css"><![CDATA[
.node, .edge {opacity: 0.7;}
.node.selected, .edge.selected {opacity: 1;}
.edge:hover path { stroke: red; }
.edge:hover polygon { stroke: red; fill: red; }
]]></style>
<script type="application/ecmascript" xlink:href="svg.min.js"/>
<svg id="graph" class="graph">
<g id="graph0" class="graph" transform="scale(1 1) rotate(0) translate(4 138)">
<title>Date::get_weekday_from_date</title>
<!-- Node1 -->
<g id="Node000001" class="node">
<title>Node1</title>
<g id="a_Node000001"><a xlink:title="Gets the weekday for a given date.">
<polygon fill="#999999" stroke="#666666" points="149.5,-77 0,-77 0,-57 149.5,-57 149.5,-77"/>
<text text-anchor="middle" x="74.75" y="-63.5" font-family="Helvetica,sans-Serif" font-size="10.00">Date::get_weekday_from_date</text>
</a>
</g>
</g>
<!-- Node2 -->
<g id="Node000002" class="node">
<title>Node2</title>
<g id="a_Node000002"><a xlink:href="class_date.html#a19cb325d7fc9e143f9095e7eadc8a1a4" target="_top" xlink:title="Default constructor.">
<polygon fill="white" stroke="#666666" points="261.88,-134 197.88,-134 197.88,-114 261.88,-114 261.88,-134"/>
<text text-anchor="middle" x="229.88" y="-120.5" font-family="Helvetica,sans-Serif" font-size="10.00">Date::Date</text>
</a>
</g>
</g>
<!-- Node1&#45;&gt;Node2 -->
<g id="edge1_Node000001_Node000002" class="edge">
<title>Node1&#45;&gt;Node2</title>
<g id="a_edge1_Node000001_Node000002"><a xlink:title=" ">
<path fill="none" stroke="#63b8ff" d="M103.84,-77.45C128.04,-86.47 163.23,-99.57 190.12,-109.57"/>
<polygon fill="#63b8ff" stroke="#63b8ff" points="188.7,-112.78 199.29,-112.99 191.14,-106.22 188.7,-112.78"/>
</a>
</g>
</g>
<!-- Node3 -->
<g id="Node000003" class="node">
<title>Node3</title>
<g id="a_Node000003"><a xlink:href="class_date.html#a2e4dc4249f8cccd40acc5950b42e1339" target="_top" xlink:title="Gets the day of the date.">
<polygon fill="white" stroke="#666666" points="268.62,-96 191.12,-96 191.12,-76 268.62,-76 268.62,-96"/>
<text text-anchor="middle" x="229.88" y="-82.5" font-family="Helvetica,sans-Serif" font-size="10.00">Date::get_day</text>
</a>
</g>
</g>
<!-- Node1&#45;&gt;Node3 -->
<g id="edge2_Node000001_Node000003" class="edge">
<title>Node1&#45;&gt;Node3</title>
<g id="a_edge2_Node000001_Node000003"><a xlink:title=" ">
<path fill="none" stroke="#63b8ff" d="M149.62,-76.17C159.73,-77.42 169.91,-78.68 179.44,-79.87"/>
<polygon fill="#63b8ff" stroke="#63b8ff" points="178.84,-83.32 189.2,-81.08 179.71,-76.37 178.84,-83.32"/>
</a>
</g>
</g>
<!-- Node4 -->
<g id="Node000004" class="node">
<title>Node4</title>
<g id="a_Node000004"><a xlink:href="class_date.html#a81b10f48eadbf944836618d27e8f427a" target="_top" xlink:title="Gets the month of the date.">
<polygon fill="white" stroke="#666666" points="274.25,-58 185.5,-58 185.5,-38 274.25,-38 274.25,-58"/>
<text text-anchor="middle" x="229.88" y="-44.5" font-family="Helvetica,sans-Serif" font-size="10.00">Date::get_month</text>
</a>
</g>
</g>
<!-- Node1&#45;&gt;Node4 -->
<g id="edge3_Node000001_Node000004" class="edge">
<title>Node1&#45;&gt;Node4</title>
<g id="a_edge3_Node000001_Node000004"><a xlink:title=" ">
<path fill="none" stroke="#63b8ff" d="M149.62,-57.83C157.84,-56.81 166.11,-55.79 174.03,-54.81"/>
<polygon fill="#63b8ff" stroke="#63b8ff" points="174.36,-58.29 183.85,-53.59 173.5,-51.34 174.36,-58.29"/>
</a>
</g>
</g>
<!-- Node5 -->
<g id="Node000005" class="node">
<title>Node5</title>
<g id="a_Node000005"><a xlink:href="class_date.html#acda1623a6e13fdbeead7f62d0968d8da" target="_top" xlink:title="Gets the year of the date.">
<polygon fill="white" stroke="#666666" points="270.12,-20 189.62,-20 189.62,0 270.12,0 270.12,-20"/>
<text text-anchor="middle" x="229.88" y="-6.5" font-family="Helvetica,sans-Serif" font-size="10.00">Date::get_year</text>
</a>
</g>
</g>
<!-- Node1&#45;&gt;Node5 -->
<g id="edge4_Node000001_Node000005" class="edge">
<title>Node1&#45;&gt;Node5</title>
<g id="a_edge4_Node000001_Node000005"><a xlink:title=" ">
<path fill="none" stroke="#63b8ff" d="M103.84,-56.55C128.04,-47.53 163.23,-34.43 190.12,-24.43"/>
<polygon fill="#63b8ff" stroke="#63b8ff" points="191.14,-27.78 199.29,-21.01 188.7,-21.22 191.14,-27.78"/>
</a>
</g>
</g>
</g>
</svg>
</svg>

<style type='text/css'>
<![CDATA[
[data-mouse-over-selected='false'] { opacity: 0.7; }
[data-mouse-over-selected='true']  { opacity: 1.0; }
]]>
</style>
<script type="application/ecmascript"><![CDATA[
document.addEventListener('DOMContentLoaded', (event) => {
  highlightEdges();
  highlightAdjacentNodes();
});
]]></script>
</svg>
