<?xml version="1.0" encoding="UTF-8" standalone="no"?>
<!DOCTYPE svg PUBLIC "-//W3C//DTD SVG 1.1//EN"
 "http://www.w3.org/Graphics/SVG/1.1/DTD/svg11.dtd">
<!-- Generated by graphviz version 12.2.1 (20241206.2353)
 -->
<!-- Title: Ui::ChildLabelClass Pages: 1 -->
<svg width="103pt" height="180pt"
 viewBox="0.00 0.00 103.00 180.00" xmlns="http://www.w3.org/2000/svg" xmlns:xlink="http://www.w3.org/1999/xlink">
<g id="graph0" class="graph" transform="scale(1 1) rotate(0) translate(4 176)">
<title>Ui::ChildLabelClass</title>
<!-- Node1 -->
<g id="Node000001" class="node">
<title>Node1</title>
<g id="a_Node000001"><a xlink:title=" ">
<polygon fill="#999999" stroke="none" points="95,-52 0,-52 0,0 95,0 95,-52"/>
<text text-anchor="start" x="4" y="-38.5" font-family="Helvetica,sans-Serif" font-size="10.00">Ui::ChildLabelClass</text>
<text text-anchor="start" x="46" y="-22.5" font-family="Helvetica,sans-Serif" font-size="10.00"> </text>
<text text-anchor="start" x="46" y="-6.5" font-family="Helvetica,sans-Serif" font-size="10.00"> </text>
<polygon fill="#666666" stroke="#666666" points="0,-34 0,-34 95,-34 95,-34 0,-34"/>
<polygon fill="#666666" stroke="#666666" points="0,-18 0,-18 95,-18 95,-18 0,-18"/>
<polygon fill="none" stroke="#666666" points="0,0 0,-52 95,-52 95,0 0,0"/>
</a>
</g>
</g>
<!-- Node2 -->
<g id="Node000002" class="node">
<title>Node2</title>
<g id="a_Node000002"><a xlink:href="class_ui___child_label_class.html" target="_top" xlink:title=" ">
<polygon fill="white" stroke="none" points="94.62,-172 0.38,-172 0.38,-88 94.62,-88 94.62,-172"/>
<text text-anchor="start" x="4.38" y="-158.5" font-family="Helvetica,sans-Serif" font-size="10.00">Ui_ChildLabelClass</text>
<text text-anchor="start" x="6.75" y="-142.5" font-family="Helvetica,sans-Serif" font-size="10.00">+</text>
<text text-anchor="start" x="19.12" y="-142.5" font-family="Helvetica,sans-Serif" font-size="10.00">gridLayout</text>
<text text-anchor="start" x="6.75" y="-126.5" font-family="Helvetica,sans-Serif" font-size="10.00">+</text>
<text text-anchor="start" x="19.12" y="-126.5" font-family="Helvetica,sans-Serif" font-size="10.00">name_surname</text>
<text text-anchor="start" x="6.75" y="-110.5" font-family="Helvetica,sans-Serif" font-size="10.00">+</text>
<text text-anchor="start" x="19.12" y="-110.5" font-family="Helvetica,sans-Serif" font-size="10.00">setupUi()</text>
<text text-anchor="start" x="6.75" y="-94.5" font-family="Helvetica,sans-Serif" font-size="10.00">+</text>
<text text-anchor="start" x="19.12" y="-94.5" font-family="Helvetica,sans-Serif" font-size="10.00">retranslateUi()</text>
<polygon fill="#666666" stroke="#666666" points="0.38,-154 0.38,-154 94.62,-154 94.62,-154 0.38,-154"/>
<polygon fill="#666666" stroke="#666666" points="0.38,-122 0.38,-122 17.12,-122 17.12,-122 0.38,-122"/>
<polygon fill="#666666" stroke="#666666" points="17.12,-122 17.12,-122 94.62,-122 94.62,-122 17.12,-122"/>
<polygon fill="none" stroke="#666666" points="0.38,-88 0.38,-172 94.62,-172 94.62,-88 0.38,-88"/>
</a>
</g>
</g>
<!-- Node2&#45;&gt;Node1 -->
<g id="edge1_Node000001_Node000002" class="edge">
<title>Node2&#45;&gt;Node1</title>
<g id="a_edge1_Node000001_Node000002"><a xlink:title=" ">
<path fill="none" stroke="#63b8ff" d="M47.5,-76.71C47.5,-68.01 47.5,-59.35 47.5,-51.76"/>
<polygon fill="none" stroke="#63b8ff" points="44,-76.59 47.5,-86.59 51,-76.59 44,-76.59"/>
</a>
</g>
</g>
</g>
</svg>
