<?xml version="1.0" encoding="UTF-8" standalone="no"?>
<!DOCTYPE svg PUBLIC "-//W3C//DTD SVG 1.1//EN"
 "http://www.w3.org/Graphics/SVG/1.1/DTD/svg11.dtd">
<!-- Generated by graphviz version 12.2.1 (20241206.2353)
 -->
<!-- Title: DataBaseGUI::child_edit Pages: 1 -->
<svg width="1557pt" height="801pt"
 viewBox="0.00 0.00 1557.00 801.37" xmlns="http://www.w3.org/2000/svg" xmlns:xlink="http://www.w3.org/1999/xlink">
<g id="graph0" class="graph" transform="scale(1 1) rotate(0) translate(4 797.37)">
<title>DataBaseGUI::child_edit</title>
<!-- Node1 -->
<g id="Node000001" class="node">
<title>Node1</title>
<g id="a_Node000001"><a xlink:title="Edits an existing child in the database.">
<polygon fill="#999999" stroke="#666666" points="1549,-744.37 1424.25,-744.37 1424.25,-724.37 1549,-724.37 1549,-744.37"/>
<text text-anchor="middle" x="1486.62" y="-730.87" font-family="Helvetica,sans-Serif" font-size="10.00">DataBaseGUI::child_edit</text>
</a>
</g>
</g>
<!-- Node2 -->
<g id="Node000002" class="node">
<title>Node2</title>
<g id="a_Node000002"><a xlink:href="class_data_base_g_u_i.html#a334c0011a9d3a71539b326a888feccd3" target="_top" xlink:title="Populates the children tab with a multimap of children.">
<polygon fill="white" stroke="#666666" points="301.25,-765.37 181,-765.37 181,-733.37 301.25,-733.37 301.25,-765.37"/>
<text text-anchor="start" x="189" y="-751.87" font-family="Helvetica,sans-Serif" font-size="10.00">DataBaseGUI::populate</text>
<text text-anchor="middle" x="241.12" y="-739.87" font-family="Helvetica,sans-Serif" font-size="10.00">_children_tab</text>
</a>
</g>
</g>
<!-- Node1&#45;&gt;Node2 -->
<g id="edge1_Node000001_Node000002" class="edge">
<title>Node1&#45;&gt;Node2</title>
<g id="a_edge1_Node000001_Node000002"><a xlink:title=" ">
<path fill="none" stroke="#63b8ff" d="M1442.91,-748.01C1384.46,-765.44 1275.98,-793.37 1181.12,-793.37 1181.12,-793.37 1181.12,-793.37 563.88,-793.37 462.8,-793.37 436.86,-791.5 337.25,-774.37 324.46,-772.17 310.88,-769.08 298.11,-765.81"/>
<polygon fill="#63b8ff" stroke="#63b8ff" points="1443.57,-751.47 1452.13,-745.22 1441.54,-744.77 1443.57,-751.47"/>
</a>
</g>
</g>
<!-- Node3 -->
<g id="Node000003" class="node">
<title>Node3</title>
<g id="a_Node000003"><a xlink:href="class_data_base_g_u_i.html#af346d08370d9e4574980707f61b9c8f7" target="_top" xlink:title="Populates the children tab with a list of children.">
<polygon fill="white" stroke="#666666" points="1388.25,-636.37 1268,-636.37 1268,-604.37 1388.25,-604.37 1388.25,-636.37"/>
<text text-anchor="start" x="1276" y="-622.87" font-family="Helvetica,sans-Serif" font-size="10.00">DataBaseGUI::populate</text>
<text text-anchor="middle" x="1328.12" y="-610.87" font-family="Helvetica,sans-Serif" font-size="10.00">_children_tab</text>
</a>
</g>
</g>
<!-- Node1&#45;&gt;Node3 -->
<g id="edge2_Node000001_Node000003" class="edge">
<title>Node1&#45;&gt;Node3</title>
<g id="a_edge2_Node000001_Node000003"><a xlink:title=" ">
<path fill="none" stroke="#63b8ff" d="M1462.21,-717.32C1432.34,-695.56 1381.02,-658.18 1351.6,-636.75"/>
<polygon fill="#63b8ff" stroke="#63b8ff" points="1460.09,-720.1 1470.24,-723.16 1464.22,-714.45 1460.09,-720.1"/>
</a>
</g>
</g>
<!-- Node4 -->
<g id="Node000004" class="node">
<title>Node4</title>
<g id="a_Node000004"><a xlink:href="class_data_base_g_u_i.html#a2d921da686e76ae195da018bb735a1ae" target="_top" xlink:title="Searches for children based on the provided name and surname.">
<polygon fill="white" stroke="#666666" points="1232,-598.37 1128.25,-598.37 1128.25,-566.37 1232,-566.37 1232,-598.37"/>
<text text-anchor="start" x="1136.25" y="-584.87" font-family="Helvetica,sans-Serif" font-size="10.00">DataBaseGUI::child</text>
<text text-anchor="middle" x="1180.12" y="-572.87" font-family="Helvetica,sans-Serif" font-size="10.00">_search</text>
</a>
</g>
</g>
<!-- Node3&#45;&gt;Node4 -->
<g id="edge3_Node000003_Node000004" class="edge">
<title>Node3&#45;&gt;Node4</title>
<g id="a_edge3_Node000003_Node000004"><a xlink:title=" ">
<path fill="none" stroke="#63b8ff" d="M1256.68,-602.04C1248.53,-599.92 1240.33,-597.78 1232.5,-595.74"/>
<polygon fill="#63b8ff" stroke="#63b8ff" points="1255.72,-605.4 1266.28,-604.54 1257.48,-598.63 1255.72,-605.4"/>
</a>
</g>
</g>
<!-- Node10 -->
<g id="Node000010" class="node">
<title>Node10</title>
<g id="a_Node000010"><a xlink:href="class_data_base_g_u_i.html#a6c35e47ed05a80db144f240dee805a9d" target="_top" xlink:title="Sets up the GUI.">
<polygon fill="white" stroke="#666666" points="294.88,-303.37 187.38,-303.37 187.38,-283.37 294.88,-283.37 294.88,-303.37"/>
<text text-anchor="middle" x="241.12" y="-289.87" font-family="Helvetica,sans-Serif" font-size="10.00">DataBaseGUI::setup</text>
</a>
</g>
</g>
<!-- Node3&#45;&gt;Node10 -->
<g id="edge44_Node000003_Node000010" class="edge">
<title>Node3&#45;&gt;Node10</title>
<g id="a_edge44_Node000003_Node000010"><a xlink:title=" ">
<path fill="none" stroke="#63b8ff" d="M1327.06,-592.88C1325.19,-474.4 1301.24,-13.37 1041.38,-13.37 1041.38,-13.37 1041.38,-13.37 563.88,-13.37 462.72,-13.37 417.43,27.29 337.25,-34.37 253.9,-98.47 243.55,-243.06 242.29,-282.99"/>
<polygon fill="#63b8ff" stroke="#63b8ff" points="1323.55,-592.66 1327.16,-602.62 1330.55,-592.59 1323.55,-592.66"/>
</a>
</g>
</g>
<!-- Node27 -->
<g id="Node000027" class="node">
<title>Node27</title>
<g id="a_Node000027"><a xlink:href="class_data_base_g_u_i.html#aa684465aa73b5b34bbadd24fc7f2f641" target="_top" xlink:title="Selects the appropriate sorting to use based on child sort index.">
<polygon fill="white" stroke="#666666" points="622.75,-413.37 507,-413.37 507,-381.37 622.75,-381.37 622.75,-413.37"/>
<text text-anchor="start" x="515" y="-399.87" font-family="Helvetica,sans-Serif" font-size="10.00">DataBaseGUI::sort_to</text>
<text text-anchor="middle" x="564.88" y="-387.87" font-family="Helvetica,sans-Serif" font-size="10.00">_populate_children_tab</text>
</a>
</g>
</g>
<!-- Node3&#45;&gt;Node27 -->
<g id="edge45_Node000003_Node000027" class="edge">
<title>Node3&#45;&gt;Node27</title>
<g id="a_edge45_Node000003_Node000027"><a xlink:title=" ">
<path fill="none" stroke="#63b8ff" d="M1303.28,-596.25C1257.1,-552.23 1150.39,-463.37 1041.38,-463.37 1041.38,-463.37 1041.38,-463.37 882.75,-463.37 785.82,-463.37 675.64,-433.41 614.08,-413.86"/>
<polygon fill="#63b8ff" stroke="#63b8ff" points="1300.74,-598.66 1310.35,-603.11 1305.61,-593.63 1300.74,-598.66"/>
</a>
</g>
</g>
<!-- Node5 -->
<g id="Node000005" class="node">
<title>Node5</title>
<g id="a_Node000005"><a xlink:href="class_data_base_g_u_i.html#aadb0e7d323a970603312695c0dd9b264" target="_top" xlink:title="Searches for children based on the provided child pointer.">
<polygon fill="white" stroke="#666666" points="1092.25,-598.37 988.5,-598.37 988.5,-566.37 1092.25,-566.37 1092.25,-598.37"/>
<text text-anchor="start" x="996.5" y="-584.87" font-family="Helvetica,sans-Serif" font-size="10.00">DataBaseGUI::child</text>
<text text-anchor="middle" x="1040.38" y="-572.87" font-family="Helvetica,sans-Serif" font-size="10.00">_search_by_pointer</text>
</a>
</g>
</g>
<!-- Node4&#45;&gt;Node5 -->
<g id="edge4_Node000004_Node000005" class="edge">
<title>Node4&#45;&gt;Node5</title>
<g id="a_edge4_Node000004_Node000005"><a xlink:title=" ">
<path fill="none" stroke="#63b8ff" d="M1116.36,-582.37C1108.45,-582.37 1100.42,-582.37 1092.71,-582.37"/>
<polygon fill="#63b8ff" stroke="#63b8ff" points="1116.32,-585.87 1126.32,-582.37 1116.32,-578.87 1116.32,-585.87"/>
</a>
</g>
</g>
<!-- Node4&#45;&gt;Node10 -->
<g id="edge43_Node000004_Node000010" class="edge">
<title>Node4&#45;&gt;Node10</title>
<g id="a_edge43_Node000004_Node000010"><a xlink:title=" ">
<path fill="none" stroke="#63b8ff" d="M1177.12,-554.57C1167.6,-445.32 1117.17,-51.37 884.75,-51.37 884.75,-51.37 884.75,-51.37 563.88,-51.37 462.8,-51.37 419.18,-11.18 337.25,-70.37 263.21,-123.86 246.34,-246.9 242.92,-283.15"/>
<polygon fill="#63b8ff" stroke="#63b8ff" points="1173.62,-554.71 1177.92,-564.39 1180.6,-554.14 1173.62,-554.71"/>
</a>
</g>
</g>
<!-- Node6 -->
<g id="Node000006" class="node">
<title>Node6</title>
<g id="a_Node000006"><a xlink:href="class_data_base_g_u_i.html#aadcf1044a300a89dadd104cfadb9a1b1" target="_top" xlink:title="Views a lesson in the GUI.">
<polygon fill="white" stroke="#666666" points="952.5,-206.37 815,-206.37 815,-186.37 952.5,-186.37 952.5,-206.37"/>
<text text-anchor="middle" x="883.75" y="-192.87" font-family="Helvetica,sans-Serif" font-size="10.00">DataBaseGUI::lesson_view</text>
</a>
</g>
</g>
<!-- Node5&#45;&gt;Node6 -->
<g id="edge5_Node000005_Node000006" class="edge">
<title>Node5&#45;&gt;Node6</title>
<g id="a_edge5_Node000005_Node000006"><a xlink:title=" ">
<path fill="none" stroke="#63b8ff" d="M1028.82,-556.02C998.01,-479.12 909.12,-257.21 888.88,-206.69"/>
<polygon fill="#63b8ff" stroke="#63b8ff" points="1025.4,-556.89 1032.36,-564.87 1031.9,-554.29 1025.4,-556.89"/>
</a>
</g>
</g>
<!-- Node18 -->
<g id="Node000018" class="node">
<title>Node18</title>
<g id="a_Node000018"><a xlink:href="class_data_base_g_u_i.html#a33f2f95926f7b4b05227dcf395e235d3" target="_top" xlink:title="Populates the parent tab with a multimap of parents.">
<polygon fill="white" stroke="#666666" points="301.25,-595.37 181,-595.37 181,-563.37 301.25,-563.37 301.25,-595.37"/>
<text text-anchor="start" x="189" y="-581.87" font-family="Helvetica,sans-Serif" font-size="10.00">DataBaseGUI::populate</text>
<text text-anchor="middle" x="241.12" y="-569.87" font-family="Helvetica,sans-Serif" font-size="10.00">_parent_tab</text>
</a>
</g>
</g>
<!-- Node5&#45;&gt;Node18 -->
<g id="edge24_Node000005_Node000018" class="edge">
<title>Node5&#45;&gt;Node18</title>
<g id="a_edge24_Node000005_Node000018"><a xlink:title=" ">
<path fill="none" stroke="#63b8ff" d="M977.06,-598.45C968.83,-600.27 960.49,-601.98 952.5,-603.37 756.93,-637.57 705.49,-641.05 507,-636.37 431.49,-634.59 410.21,-647.89 337.25,-628.37 311.77,-621.56 285.29,-607.23 266.76,-595.81"/>
<polygon fill="#63b8ff" stroke="#63b8ff" points="977.71,-601.89 986.68,-596.24 976.15,-595.07 977.71,-601.89"/>
</a>
</g>
</g>
<!-- Node19 -->
<g id="Node000019" class="node">
<title>Node19</title>
<g id="a_Node000019"><a xlink:href="class_data_base_g_u_i.html#a739b2cf48c0cb6e3cab2da0a7bbd6d6d" target="_top" xlink:title="Populates the parent tab with a list of parents.">
<polygon fill="white" stroke="#666666" points="779,-613.37 658.75,-613.37 658.75,-581.37 779,-581.37 779,-613.37"/>
<text text-anchor="start" x="666.75" y="-599.87" font-family="Helvetica,sans-Serif" font-size="10.00">DataBaseGUI::populate</text>
<text text-anchor="middle" x="718.88" y="-587.87" font-family="Helvetica,sans-Serif" font-size="10.00">_parent_tab</text>
</a>
</g>
</g>
<!-- Node5&#45;&gt;Node19 -->
<g id="edge25_Node000005_Node000019" class="edge">
<title>Node5&#45;&gt;Node19</title>
<g id="a_edge25_Node000005_Node000019"><a xlink:title=" ">
<path fill="none" stroke="#63b8ff" d="M976.61,-585.32C919.36,-588.01 835.38,-591.95 779.23,-594.59"/>
<polygon fill="#63b8ff" stroke="#63b8ff" points="976.71,-588.82 986.53,-584.85 976.38,-581.83 976.71,-588.82"/>
</a>
</g>
</g>
<!-- Node6&#45;&gt;Node6 -->
<g id="edge6_Node000006_Node000006" class="edge">
<title>Node6&#45;&gt;Node6</title>
<g id="a_edge6_Node000006_Node000006"><a xlink:title=" ">
<path fill="none" stroke="#63b8ff" d="M911.43,-217.82C907.87,-221.67 898.64,-224.37 883.75,-224.37 856.52,-224.37 848.23,-215.35 858.86,-206.71"/>
<polygon fill="#63b8ff" stroke="#63b8ff" points="914.84,-217.02 909.01,-208.18 908.05,-218.73 914.84,-217.02"/>
</a>
</g>
</g>
<!-- Node7 -->
<g id="Node000007" class="node">
<title>Node7</title>
<g id="a_Node000007"><a xlink:href="class_data_base_g_u_i.html#a74e047889e913eae69ec40ec17f53c9d" target="_top" xlink:title="Populates the lessons tab with a multimap of lessons.">
<polygon fill="white" stroke="#666666" points="301.25,-51.37 181,-51.37 181,-19.37 301.25,-19.37 301.25,-51.37"/>
<text text-anchor="start" x="189" y="-37.87" font-family="Helvetica,sans-Serif" font-size="10.00">DataBaseGUI::populate</text>
<text text-anchor="middle" x="241.12" y="-25.87" font-family="Helvetica,sans-Serif" font-size="10.00">_lesson_tab</text>
</a>
</g>
</g>
<!-- Node6&#45;&gt;Node7 -->
<g id="edge7_Node000006_Node000007" class="edge">
<title>Node6&#45;&gt;Node7</title>
<g id="a_edge7_Node000006_Node000007"><a xlink:title=" ">
<path fill="none" stroke="#63b8ff" d="M853.09,-180.86C832.67,-170.63 804.69,-157.48 779,-148.37 611.12,-88.86 402.03,-56 301.52,-42.6"/>
<polygon fill="#63b8ff" stroke="#63b8ff" points="851.47,-183.96 861.97,-185.37 854.64,-177.72 851.47,-183.96"/>
</a>
</g>
</g>
<!-- Node8 -->
<g id="Node000008" class="node">
<title>Node8</title>
<g id="a_Node000008"><a xlink:href="class_data_base_g_u_i.html#aa6b02e4e81b0113fb1c75d7d5ef0be59" target="_top" xlink:title="Populates the lessons tab with a list of lessons.">
<polygon fill="white" stroke="#666666" points="779,-189.37 658.75,-189.37 658.75,-157.37 779,-157.37 779,-189.37"/>
<text text-anchor="start" x="666.75" y="-175.87" font-family="Helvetica,sans-Serif" font-size="10.00">DataBaseGUI::populate</text>
<text text-anchor="middle" x="718.88" y="-163.87" font-family="Helvetica,sans-Serif" font-size="10.00">_lesson_tab</text>
</a>
</g>
</g>
<!-- Node6&#45;&gt;Node8 -->
<g id="edge8_Node000006_Node000008" class="edge">
<title>Node6&#45;&gt;Node8</title>
<g id="a_edge8_Node000006_Node000008"><a xlink:title=" ">
<path fill="none" stroke="#63b8ff" d="M803.31,-185.16C795.28,-184.02 787.22,-182.88 779.45,-181.79"/>
<polygon fill="#63b8ff" stroke="#63b8ff" points="802.73,-188.61 813.12,-186.54 803.71,-181.68 802.73,-188.61"/>
</a>
</g>
</g>
<!-- Node9 -->
<g id="Node000009" class="node">
<title>Node9</title>
<g id="a_Node000009"><a xlink:href="class_data_base_g_u_i.html#a55b3c6d3607f17f55d4c321e97fdce7f" target="_top" xlink:title="Searches for lessons based on the provided child name and surname.">
<polygon fill="white" stroke="#666666" points="620.88,-187.37 508.88,-187.37 508.88,-155.37 620.88,-155.37 620.88,-187.37"/>
<text text-anchor="start" x="516.88" y="-173.87" font-family="Helvetica,sans-Serif" font-size="10.00">DataBaseGUI::lesson</text>
<text text-anchor="middle" x="564.88" y="-161.87" font-family="Helvetica,sans-Serif" font-size="10.00">_search</text>
</a>
</g>
</g>
<!-- Node8&#45;&gt;Node9 -->
<g id="edge9_Node000008_Node000009" class="edge">
<title>Node8&#45;&gt;Node9</title>
<g id="a_edge9_Node000008_Node000009"><a xlink:title=" ">
<path fill="none" stroke="#63b8ff" d="M647.26,-172.44C638.51,-172.33 629.66,-172.21 621.19,-172.1"/>
<polygon fill="#63b8ff" stroke="#63b8ff" points="647.11,-175.94 657.16,-172.57 647.21,-168.94 647.11,-175.94"/>
</a>
</g>
</g>
<!-- Node13 -->
<g id="Node000013" class="node">
<title>Node13</title>
<g id="a_Node000013"><a xlink:href="class_data_base_g_u_i.html#a1ad152b7becf3e0051cdd5dbae6d4abc" target="_top" xlink:title="Selects the appropriate sorting to use based on lesson sort index.">
<polygon fill="white" stroke="#666666" points="621.62,-237.37 508.12,-237.37 508.12,-205.37 621.62,-205.37 621.62,-237.37"/>
<text text-anchor="start" x="516.12" y="-223.87" font-family="Helvetica,sans-Serif" font-size="10.00">DataBaseGUI::sort_to</text>
<text text-anchor="middle" x="564.88" y="-211.87" font-family="Helvetica,sans-Serif" font-size="10.00">_populate_lesson_tab</text>
</a>
</g>
</g>
<!-- Node8&#45;&gt;Node13 -->
<g id="edge13_Node000008_Node000013" class="edge">
<title>Node8&#45;&gt;Node13</title>
<g id="a_edge13_Node000008_Node000013"><a xlink:title=" ">
<path fill="none" stroke="#63b8ff" d="M655.27,-193.14C642.9,-197.05 630.03,-201.11 618.04,-204.9"/>
<polygon fill="#63b8ff" stroke="#63b8ff" points="656.07,-196.56 664.55,-190.21 653.96,-189.89 656.07,-196.56"/>
</a>
</g>
</g>
<!-- Node9&#45;&gt;Node10 -->
<g id="edge10_Node000009_Node000010" class="edge">
<title>Node9&#45;&gt;Node10</title>
<g id="a_edge10_Node000009_Node000010"><a xlink:title=" ">
<path fill="none" stroke="#63b8ff" d="M504.22,-151.96C456.37,-140.02 388.91,-131.58 337.25,-158.37 284.82,-185.57 255.17,-256.41 245.59,-283.05"/>
<polygon fill="#63b8ff" stroke="#63b8ff" points="503.31,-155.34 513.87,-154.5 505.09,-148.57 503.31,-155.34"/>
</a>
</g>
</g>
<!-- Node11 -->
<g id="Node000011" class="node">
<title>Node11</title>
<g id="a_Node000011"><a xlink:href="class_data_base_g_u_i.html#a2c83afe3a30fb5166d275d9a74d33196" target="_top" xlink:title="Default constructor.">
<polygon fill="white" stroke="#666666" points="145,-322.37 0,-322.37 0,-302.37 145,-302.37 145,-322.37"/>
<text text-anchor="middle" x="72.5" y="-308.87" font-family="Helvetica,sans-Serif" font-size="10.00">DataBaseGUI::DataBaseGUI</text>
</a>
</g>
</g>
<!-- Node10&#45;&gt;Node11 -->
<g id="edge11_Node000010_Node000011" class="edge">
<title>Node10&#45;&gt;Node11</title>
<g id="a_edge11_Node000010_Node000011"><a xlink:title=" ">
<path fill="none" stroke="#63b8ff" d="M175.53,-300.74C165.64,-301.87 155.37,-303.04 145.32,-304.18"/>
<polygon fill="#63b8ff" stroke="#63b8ff" points="175.9,-304.22 185.44,-299.61 175.11,-297.26 175.9,-304.22"/>
</a>
</g>
</g>
<!-- Node12 -->
<g id="Node000012" class="node">
<title>Node12</title>
<g id="a_Node000012"><a xlink:href="class_data_base_g_u_i.html#aba10d1d8e9fb151632ff34de418cee82" target="_top" xlink:title="Constructs a DataBaseGUI object.">
<polygon fill="white" stroke="#666666" points="145,-284.37 0,-284.37 0,-264.37 145,-264.37 145,-284.37"/>
<text text-anchor="middle" x="72.5" y="-270.87" font-family="Helvetica,sans-Serif" font-size="10.00">DataBaseGUI::DataBaseGUI</text>
</a>
</g>
</g>
<!-- Node10&#45;&gt;Node12 -->
<g id="edge12_Node000010_Node000012" class="edge">
<title>Node10&#45;&gt;Node12</title>
<g id="a_edge12_Node000010_Node000012"><a xlink:title=" ">
<path fill="none" stroke="#63b8ff" d="M175.53,-286.01C165.64,-284.88 155.37,-283.71 145.32,-282.56"/>
<polygon fill="#63b8ff" stroke="#63b8ff" points="175.11,-289.48 185.44,-287.14 175.9,-282.53 175.11,-289.48"/>
</a>
</g>
</g>
<!-- Node13&#45;&gt;Node6 -->
<g id="edge21_Node000013_Node000006" class="edge">
<title>Node13&#45;&gt;Node6</title>
<g id="a_edge21_Node000013_Node000006"><a xlink:title=" ">
<path fill="none" stroke="#63b8ff" d="M633.52,-216.04C686.97,-211.82 761.24,-205.96 814.77,-201.74"/>
<polygon fill="#63b8ff" stroke="#63b8ff" points="633.31,-212.54 623.62,-216.82 633.86,-219.52 633.31,-212.54"/>
</a>
</g>
</g>
<!-- Node14 -->
<g id="Node000014" class="node">
<title>Node14</title>
<g id="a_Node000014"><a xlink:href="class_data_base_g_u_i.html#a778bdaec7f9281df4c0ead66c9dcffd2" target="_top" xlink:title="Adds a new lesson to the database.">
<polygon fill="white" stroke="#666666" points="470.62,-187.37 337.62,-187.37 337.62,-167.37 470.62,-167.37 470.62,-187.37"/>
<text text-anchor="middle" x="404.12" y="-173.87" font-family="Helvetica,sans-Serif" font-size="10.00">DataBaseGUI::lesson_add</text>
</a>
</g>
</g>
<!-- Node13&#45;&gt;Node14 -->
<g id="edge14_Node000013_Node000014" class="edge">
<title>Node13&#45;&gt;Node14</title>
<g id="a_edge14_Node000013_Node000014"><a xlink:title=" ">
<path fill="none" stroke="#63b8ff" d="M496.84,-202.79C478.32,-197.66 458.89,-192.28 442.7,-187.79"/>
<polygon fill="#63b8ff" stroke="#63b8ff" points="495.88,-206.16 506.45,-205.46 497.75,-199.41 495.88,-206.16"/>
</a>
</g>
</g>
<!-- Node15 -->
<g id="Node000015" class="node">
<title>Node15</title>
<g id="a_Node000015"><a xlink:href="class_data_base_g_u_i.html#a66a3e89a9852de3522d98f2c1f8cdeed" target="_top" xlink:title="Removes a lesson from the database.">
<polygon fill="white" stroke="#666666" points="460.12,-111.37 348.12,-111.37 348.12,-79.37 460.12,-79.37 460.12,-111.37"/>
<text text-anchor="start" x="356.12" y="-97.87" font-family="Helvetica,sans-Serif" font-size="10.00">DataBaseGUI::lesson</text>
<text text-anchor="middle" x="404.12" y="-85.87" font-family="Helvetica,sans-Serif" font-size="10.00">_remove</text>
</a>
</g>
</g>
<!-- Node13&#45;&gt;Node15 -->
<g id="edge16_Node000013_Node000015" class="edge">
<title>Node13&#45;&gt;Node15</title>
<g id="a_edge16_Node000013_Node000015"><a xlink:title=" ">
<path fill="none" stroke="#63b8ff" d="M511.26,-199.21C509.8,-198.29 508.38,-197.34 507,-196.37 487.98,-182.98 487.41,-174.86 471,-158.37 454.92,-142.22 436.09,-124.31 422.69,-111.72"/>
<polygon fill="#63b8ff" stroke="#63b8ff" points="509.49,-202.23 519.91,-204.14 512.96,-196.15 509.49,-202.23"/>
</a>
</g>
</g>
<!-- Node16 -->
<g id="Node000016" class="node">
<title>Node16</title>
<g id="a_Node000016"><a xlink:href="class_data_base_g_u_i.html#a0478b87f545d97b9e3ef55858242878b" target="_top" xlink:title="Changes the sorting method for lessons.">
<polygon fill="white" stroke="#666666" points="460.12,-237.37 348.12,-237.37 348.12,-205.37 460.12,-205.37 460.12,-237.37"/>
<text text-anchor="start" x="356.12" y="-223.87" font-family="Helvetica,sans-Serif" font-size="10.00">DataBaseGUI::lesson</text>
<text text-anchor="middle" x="404.12" y="-211.87" font-family="Helvetica,sans-Serif" font-size="10.00">_sort_change</text>
</a>
</g>
</g>
<!-- Node13&#45;&gt;Node16 -->
<g id="edge19_Node000013_Node000016" class="edge">
<title>Node13&#45;&gt;Node16</title>
<g id="a_edge19_Node000013_Node000016"><a xlink:title=" ">
<path fill="none" stroke="#63b8ff" d="M496.56,-221.37C484.57,-221.37 472.2,-221.37 460.59,-221.37"/>
<polygon fill="#63b8ff" stroke="#63b8ff" points="496.39,-224.87 506.39,-221.37 496.39,-217.87 496.39,-224.87"/>
</a>
</g>
</g>
<!-- Node17 -->
<g id="Node000017" class="node">
<title>Node17</title>
<g id="a_Node000017"><a xlink:href="class_data_base_g_u_i.html#a438b5070d6a58ffa5e884d18740852c6" target="_top" xlink:title="Handles tab change events.">
<polygon fill="white" stroke="#666666" points="471,-363.37 337.25,-363.37 337.25,-343.37 471,-343.37 471,-363.37"/>
<text text-anchor="middle" x="404.12" y="-349.87" font-family="Helvetica,sans-Serif" font-size="10.00">DataBaseGUI::tab_change</text>
</a>
</g>
</g>
<!-- Node13&#45;&gt;Node17 -->
<g id="edge22_Node000013_Node000017" class="edge">
<title>Node13&#45;&gt;Node17</title>
<g id="a_edge22_Node000013_Node000017"><a xlink:title=" ">
<path fill="none" stroke="#63b8ff" d="M549.06,-247.3C533.03,-273.08 505.12,-311.93 471,-334.37 465.83,-337.77 460.04,-340.58 454.1,-342.89"/>
<polygon fill="#63b8ff" stroke="#63b8ff" points="552.04,-249.13 554.21,-238.76 546.05,-245.52 552.04,-249.13"/>
</a>
</g>
</g>
<!-- Node14&#45;&gt;Node10 -->
<g id="edge15_Node000014_Node000010" class="edge">
<title>Node14&#45;&gt;Node10</title>
<g id="a_edge15_Node000014_Node000010"><a xlink:title=" ">
<path fill="none" stroke="#63b8ff" d="M345.38,-192.08C342.57,-193.4 339.84,-194.83 337.25,-196.37 298.16,-219.7 263.94,-262.99 249.47,-282.88"/>
<polygon fill="#63b8ff" stroke="#63b8ff" points="346.49,-195.41 354.41,-188.37 343.83,-188.93 346.49,-195.41"/>
</a>
</g>
</g>
<!-- Node15&#45;&gt;Node7 -->
<g id="edge17_Node000015_Node000007" class="edge">
<title>Node15&#45;&gt;Node7</title>
<g id="a_edge17_Node000015_Node000007"><a xlink:title=" ">
<path fill="none" stroke="#63b8ff" d="M348.49,-75.01C328.24,-67.46 305.55,-59.01 286.35,-51.85"/>
<polygon fill="#63b8ff" stroke="#63b8ff" points="347.12,-78.24 357.71,-78.45 349.56,-71.68 347.12,-78.24"/>
</a>
</g>
</g>
<!-- Node15&#45;&gt;Node8 -->
<g id="edge18_Node000015_Node000008" class="edge">
<title>Node15&#45;&gt;Node8</title>
<g id="a_edge18_Node000015_Node000008"><a xlink:title=" ">
<path fill="none" stroke="#63b8ff" d="M471.53,-110.09C514.73,-119.88 572.23,-133.29 622.75,-146.37 635.3,-149.62 648.72,-153.3 661.4,-156.88"/>
<polygon fill="#63b8ff" stroke="#63b8ff" points="472.31,-106.68 461.78,-107.89 470.76,-113.51 472.31,-106.68"/>
</a>
</g>
</g>
<!-- Node16&#45;&gt;Node10 -->
<g id="edge20_Node000016_Node000010" class="edge">
<title>Node16&#45;&gt;Node10</title>
<g id="a_edge20_Node000016_Node000010"><a xlink:title=" ">
<path fill="none" stroke="#63b8ff" d="M347.62,-242C344.09,-243.44 340.61,-244.91 337.25,-246.37 310.74,-257.92 280.97,-272.98 261.9,-282.9"/>
<polygon fill="#63b8ff" stroke="#63b8ff" points="348.86,-245.27 356.84,-238.3 346.25,-238.77 348.86,-245.27"/>
</a>
</g>
</g>
<!-- Node17&#45;&gt;Node10 -->
<g id="edge23_Node000017_Node000010" class="edge">
<title>Node17&#45;&gt;Node10</title>
<g id="a_edge23_Node000017_Node000010"><a xlink:title=" ">
<path fill="none" stroke="#63b8ff" d="M352.96,-339.62C347.63,-337.95 342.31,-336.18 337.25,-334.37 311.68,-325.22 283.18,-312.6 264.1,-303.79"/>
<polygon fill="#63b8ff" stroke="#63b8ff" points="351.82,-342.93 362.4,-342.49 353.85,-336.23 351.82,-342.93"/>
</a>
</g>
</g>
<!-- Node20 -->
<g id="Node000020" class="node">
<title>Node20</title>
<g id="a_Node000020"><a xlink:href="class_data_base_g_u_i.html#a7c3d843eec449d8a4ec5ce6bf0375358" target="_top" xlink:title="Searches for parents based on the provided name and surname.">
<polygon fill="white" stroke="#666666" points="620.12,-627.37 509.62,-627.37 509.62,-595.37 620.12,-595.37 620.12,-627.37"/>
<text text-anchor="start" x="517.62" y="-613.87" font-family="Helvetica,sans-Serif" font-size="10.00">DataBaseGUI::parent</text>
<text text-anchor="middle" x="564.88" y="-601.87" font-family="Helvetica,sans-Serif" font-size="10.00">_search</text>
</a>
</g>
</g>
<!-- Node19&#45;&gt;Node20 -->
<g id="edge26_Node000019_Node000020" class="edge">
<title>Node19&#45;&gt;Node20</title>
<g id="a_edge26_Node000019_Node000020"><a xlink:title=" ">
<path fill="none" stroke="#63b8ff" d="M647.25,-603.88C638.16,-604.71 628.97,-605.56 620.2,-606.37"/>
<polygon fill="#63b8ff" stroke="#63b8ff" points="647.53,-607.37 657.17,-602.96 646.89,-600.4 647.53,-607.37"/>
</a>
</g>
</g>
<!-- Node22 -->
<g id="Node000022" class="node">
<title>Node22</title>
<g id="a_Node000022"><a xlink:href="class_data_base_g_u_i.html#a625b5e2018395a458ff517bbf364e1bf" target="_top" xlink:title="Selects the appropriate sorting to use based on parent sort index.">
<polygon fill="white" stroke="#666666" points="621.62,-501.37 508.12,-501.37 508.12,-469.37 621.62,-469.37 621.62,-501.37"/>
<text text-anchor="start" x="516.12" y="-487.87" font-family="Helvetica,sans-Serif" font-size="10.00">DataBaseGUI::sort_to</text>
<text text-anchor="middle" x="564.88" y="-475.87" font-family="Helvetica,sans-Serif" font-size="10.00">_populate_parent_tab</text>
</a>
</g>
</g>
<!-- Node19&#45;&gt;Node22 -->
<g id="edge31_Node000019_Node000022" class="edge">
<title>Node19&#45;&gt;Node22</title>
<g id="a_edge31_Node000019_Node000022"><a xlink:title=" ">
<path fill="none" stroke="#63b8ff" d="M668.88,-575.05C665.31,-572.67 661.88,-570.11 658.75,-567.37 637.57,-548.89 643.78,-534.02 622.75,-515.37 616.99,-510.26 610.2,-505.73 603.36,-501.83"/>
<polygon fill="#63b8ff" stroke="#63b8ff" points="666.93,-577.95 677.3,-580.14 670.56,-571.97 666.93,-577.95"/>
</a>
</g>
</g>
<!-- Node20&#45;&gt;Node10 -->
<g id="edge30_Node000020_Node000010" class="edge">
<title>Node20&#45;&gt;Node10</title>
<g id="a_edge30_Node000020_Node000010"><a xlink:title=" ">
<path fill="none" stroke="#63b8ff" d="M498.13,-626.03C448.76,-633.04 382.21,-633.47 337.25,-598.37 287.96,-559.89 251.7,-352.55 243.75,-303.69"/>
<polygon fill="#63b8ff" stroke="#63b8ff" points="498.49,-629.52 507.84,-624.52 497.42,-622.6 498.49,-629.52"/>
</a>
</g>
</g>
<!-- Node21 -->
<g id="Node000021" class="node">
<title>Node21</title>
<g id="a_Node000021"><a xlink:href="class_data_base_g_u_i.html#a8e1fe573ef6a09e112989968ec1a2b43" target="_top" xlink:title="Searches for parents based on the provided parent pointer.">
<polygon fill="white" stroke="#666666" points="459.38,-765.37 348.88,-765.37 348.88,-733.37 459.38,-733.37 459.38,-765.37"/>
<text text-anchor="start" x="356.88" y="-751.87" font-family="Helvetica,sans-Serif" font-size="10.00">DataBaseGUI::parent</text>
<text text-anchor="middle" x="404.12" y="-739.87" font-family="Helvetica,sans-Serif" font-size="10.00">_search_by_pointer</text>
</a>
</g>
</g>
<!-- Node20&#45;&gt;Node21 -->
<g id="edge27_Node000020_Node000021" class="edge">
<title>Node20&#45;&gt;Node21</title>
<g id="a_edge27_Node000020_Node000021"><a xlink:title=" ">
<path fill="none" stroke="#63b8ff" d="M548.4,-637.15C532.02,-662.48 503.99,-700.68 471,-724.37 466.53,-727.58 461.59,-730.44 456.5,-732.96"/>
<polygon fill="#63b8ff" stroke="#63b8ff" points="551.31,-639.09 553.68,-628.76 545.39,-635.36 551.31,-639.09"/>
</a>
</g>
</g>
<!-- Node21&#45;&gt;Node2 -->
<g id="edge28_Node000021_Node000002" class="edge">
<title>Node21&#45;&gt;Node2</title>
<g id="a_edge28_Node000021_Node000002"><a xlink:title=" ">
<path fill="none" stroke="#63b8ff" d="M337.41,-749.37C325.54,-749.37 313.22,-749.37 301.55,-749.37"/>
<polygon fill="#63b8ff" stroke="#63b8ff" points="337.1,-752.87 347.1,-749.37 337.1,-745.87 337.1,-752.87"/>
</a>
</g>
</g>
<!-- Node21&#45;&gt;Node3 -->
<g id="edge29_Node000021_Node000003" class="edge">
<title>Node21&#45;&gt;Node3</title>
<g id="a_edge29_Node000021_Node000003"><a xlink:title=" ">
<path fill="none" stroke="#63b8ff" d="M471,-744.38C534.26,-740.01 632.54,-734.37 717.88,-734.37 884.75,-734.37 884.75,-734.37 884.75,-734.37 1039.21,-734.37 1214.68,-668.4 1289.8,-636.83"/>
<polygon fill="#63b8ff" stroke="#63b8ff" points="470.85,-740.88 461.12,-745.07 471.34,-747.86 470.85,-740.88"/>
</a>
</g>
</g>
<!-- Node22&#45;&gt;Node17 -->
<g id="edge42_Node000022_Node000017" class="edge">
<title>Node22&#45;&gt;Node17</title>
<g id="a_edge42_Node000022_Node000017"><a xlink:title=" ">
<path fill="none" stroke="#63b8ff" d="M540.52,-460.78C529.97,-449.35 517.55,-435.44 507,-422.37 489.8,-401.07 493.38,-388.14 471,-372.37 466.13,-368.94 460.66,-366.13 454.99,-363.82"/>
<polygon fill="#63b8ff" stroke="#63b8ff" points="537.74,-462.93 547.12,-467.86 542.86,-458.16 537.74,-462.93"/>
</a>
</g>
</g>
<!-- Node23 -->
<g id="Node000023" class="node">
<title>Node23</title>
<g id="a_Node000023"><a xlink:href="class_data_base_g_u_i.html#a336fa47d9a9e56d585d82f53d33e8593" target="_top" xlink:title="Adds a new parent to the database.">
<polygon fill="white" stroke="#666666" points="469.88,-451.37 338.38,-451.37 338.38,-431.37 469.88,-431.37 469.88,-451.37"/>
<text text-anchor="middle" x="404.12" y="-437.87" font-family="Helvetica,sans-Serif" font-size="10.00">DataBaseGUI::parent_add</text>
</a>
</g>
</g>
<!-- Node22&#45;&gt;Node23 -->
<g id="edge32_Node000022_Node000023" class="edge">
<title>Node22&#45;&gt;Node23</title>
<g id="a_edge32_Node000022_Node000023"><a xlink:title=" ">
<path fill="none" stroke="#63b8ff" d="M496.84,-466.79C478.32,-461.66 458.89,-456.28 442.7,-451.79"/>
<polygon fill="#63b8ff" stroke="#63b8ff" points="495.88,-470.16 506.45,-469.46 497.75,-463.41 495.88,-470.16"/>
</a>
</g>
</g>
<!-- Node24 -->
<g id="Node000024" class="node">
<title>Node24</title>
<g id="a_Node000024"><a xlink:href="class_data_base_g_u_i.html#a5b049fb9e0e5d78c4c2e81e569b471f9" target="_top" xlink:title="Edits an existing parent in the database.">
<polygon fill="white" stroke="#666666" points="469.88,-589.37 338.38,-589.37 338.38,-569.37 469.88,-569.37 469.88,-589.37"/>
<text text-anchor="middle" x="404.12" y="-575.87" font-family="Helvetica,sans-Serif" font-size="10.00">DataBaseGUI::parent_edit</text>
</a>
</g>
</g>
<!-- Node22&#45;&gt;Node24 -->
<g id="edge34_Node000022_Node000024" class="edge">
<title>Node22&#45;&gt;Node24</title>
<g id="a_edge34_Node000022_Node000024"><a xlink:title=" ">
<path fill="none" stroke="#63b8ff" d="M539.83,-509.33C522.13,-525.77 496.75,-546.97 471,-560.37 464.56,-563.73 457.45,-566.56 450.35,-568.93"/>
<polygon fill="#63b8ff" stroke="#63b8ff" points="541.93,-512.16 546.77,-502.74 537.11,-507.09 541.93,-512.16"/>
</a>
</g>
</g>
<!-- Node25 -->
<g id="Node000025" class="node">
<title>Node25</title>
<g id="a_Node000025"><a xlink:href="class_data_base_g_u_i.html#ad8a42f24cdb603ba85c1cdd4ea2e73a4" target="_top" xlink:title="Removes a parent from the database.">
<polygon fill="white" stroke="#666666" points="459.38,-551.37 348.88,-551.37 348.88,-519.37 459.38,-519.37 459.38,-551.37"/>
<text text-anchor="start" x="356.88" y="-537.87" font-family="Helvetica,sans-Serif" font-size="10.00">DataBaseGUI::parent</text>
<text text-anchor="middle" x="404.12" y="-525.87" font-family="Helvetica,sans-Serif" font-size="10.00">_remove</text>
</a>
</g>
</g>
<!-- Node22&#45;&gt;Node25 -->
<g id="edge37_Node000022_Node000025" class="edge">
<title>Node22&#45;&gt;Node25</title>
<g id="a_edge37_Node000022_Node000025"><a xlink:title=" ">
<path fill="none" stroke="#63b8ff" d="M501.04,-505.16C486.62,-509.71 471.42,-514.49 457.49,-518.88"/>
<polygon fill="#63b8ff" stroke="#63b8ff" points="501.96,-508.54 510.45,-502.2 499.86,-501.87 501.96,-508.54"/>
</a>
</g>
</g>
<!-- Node26 -->
<g id="Node000026" class="node">
<title>Node26</title>
<g id="a_Node000026"><a xlink:href="class_data_base_g_u_i.html#a783bdf1d65998f887dd6445741450480" target="_top" xlink:title="Changes the sorting method for parents.">
<polygon fill="white" stroke="#666666" points="459.38,-501.37 348.88,-501.37 348.88,-469.37 459.38,-469.37 459.38,-501.37"/>
<text text-anchor="start" x="356.88" y="-487.87" font-family="Helvetica,sans-Serif" font-size="10.00">DataBaseGUI::parent</text>
<text text-anchor="middle" x="404.12" y="-475.87" font-family="Helvetica,sans-Serif" font-size="10.00">_sort_change</text>
</a>
</g>
</g>
<!-- Node22&#45;&gt;Node26 -->
<g id="edge40_Node000022_Node000026" class="edge">
<title>Node22&#45;&gt;Node26</title>
<g id="a_edge40_Node000022_Node000026"><a xlink:title=" ">
<path fill="none" stroke="#63b8ff" d="M496.74,-485.37C484.42,-485.37 471.69,-485.37 459.79,-485.37"/>
<polygon fill="#63b8ff" stroke="#63b8ff" points="496.39,-488.87 506.39,-485.37 496.39,-481.87 496.39,-488.87"/>
</a>
</g>
</g>
<!-- Node23&#45;&gt;Node10 -->
<g id="edge33_Node000023_Node000010" class="edge">
<title>Node23&#45;&gt;Node10</title>
<g id="a_edge33_Node000023_Node000010"><a xlink:title=" ">
<path fill="none" stroke="#63b8ff" d="M343.35,-426.16C341.24,-424.99 339.2,-423.73 337.25,-422.37 290.89,-390.1 258.24,-327.89 246.71,-303.52"/>
<polygon fill="#63b8ff" stroke="#63b8ff" points="341.73,-429.26 352.27,-430.36 344.71,-422.93 341.73,-429.26"/>
</a>
</g>
</g>
<!-- Node24&#45;&gt;Node18 -->
<g id="edge35_Node000024_Node000018" class="edge">
<title>Node24&#45;&gt;Node18</title>
<g id="a_edge35_Node000024_Node000018"><a xlink:title=" ">
<path fill="none" stroke="#63b8ff" d="M326.71,-579.37C318.3,-579.37 309.83,-579.37 301.67,-579.37"/>
<polygon fill="#63b8ff" stroke="#63b8ff" points="326.59,-582.87 336.59,-579.37 326.59,-575.87 326.59,-582.87"/>
</a>
</g>
</g>
<!-- Node24&#45;&gt;Node19 -->
<g id="edge36_Node000024_Node000019" class="edge">
<title>Node24&#45;&gt;Node19</title>
<g id="a_edge36_Node000024_Node000019"><a xlink:title=" ">
<path fill="none" stroke="#63b8ff" d="M481.44,-580.28C523.22,-581.17 575.89,-582.92 622.75,-586.37 634.27,-587.22 646.55,-588.42 658.32,-589.72"/>
<polygon fill="#63b8ff" stroke="#63b8ff" points="481.53,-576.78 471.47,-580.08 481.39,-583.78 481.53,-576.78"/>
</a>
</g>
</g>
<!-- Node25&#45;&gt;Node18 -->
<g id="edge38_Node000025_Node000018" class="edge">
<title>Node25&#45;&gt;Node18</title>
<g id="a_edge38_Node000025_Node000018"><a xlink:title=" ">
<path fill="none" stroke="#63b8ff" d="M337.78,-553.23C325.79,-556.51 313.34,-559.91 301.55,-563.13"/>
<polygon fill="#63b8ff" stroke="#63b8ff" points="338.43,-556.68 347.16,-550.67 336.59,-549.93 338.43,-556.68"/>
</a>
</g>
</g>
<!-- Node25&#45;&gt;Node19 -->
<g id="edge39_Node000025_Node000019" class="edge">
<title>Node25&#45;&gt;Node19</title>
<g id="a_edge39_Node000025_Node000019"><a xlink:title=" ">
<path fill="none" stroke="#63b8ff" d="M470.95,-547.78C514.14,-556 571.85,-567.11 622.75,-577.37 634.25,-579.69 646.51,-582.22 658.28,-584.69"/>
<polygon fill="#63b8ff" stroke="#63b8ff" points="471.7,-544.36 461.22,-545.93 470.39,-551.24 471.7,-544.36"/>
</a>
</g>
</g>
<!-- Node26&#45;&gt;Node10 -->
<g id="edge41_Node000026_Node000010" class="edge">
<title>Node26&#45;&gt;Node10</title>
<g id="a_edge41_Node000026_Node000010"><a xlink:title=" ">
<path fill="none" stroke="#63b8ff" d="M340.19,-462.74C339.18,-461.98 338.2,-461.19 337.25,-460.37 284.27,-415.03 254.39,-332.41 245.21,-303.61"/>
<polygon fill="#63b8ff" stroke="#63b8ff" points="338.27,-465.67 348.57,-468.17 342.08,-459.8 338.27,-465.67"/>
</a>
</g>
</g>
<!-- Node27&#45;&gt;Node1 -->
<g id="edge48_Node000027_Node000001" class="edge">
<title>Node27&#45;&gt;Node1</title>
<g id="a_edge48_Node000027_Node000001"><a xlink:title=" ">
<path fill="none" stroke="#63b8ff" d="M599.38,-419.73C616.78,-430.97 638.57,-444.48 658.75,-455.37 800.75,-532.04 836.42,-553.4 988.5,-607.37 1145.69,-663.16 1338.9,-705.28 1431.33,-723.88"/>
<polygon fill="#63b8ff" stroke="#63b8ff" points="601.76,-417.1 591.47,-414.58 597.94,-422.97 601.76,-417.1"/>
</a>
</g>
</g>
<!-- Node27&#45;&gt;Node17 -->
<g id="edge56_Node000027_Node000017" class="edge">
<title>Node27&#45;&gt;Node17</title>
<g id="a_edge56_Node000027_Node000017"><a xlink:title=" ">
<path fill="none" stroke="#63b8ff" d="M495.66,-378.47C477.44,-373.42 458.42,-368.14 442.55,-363.74"/>
<polygon fill="#63b8ff" stroke="#63b8ff" points="494.53,-381.79 505.1,-381.08 496.4,-375.04 494.53,-381.79"/>
</a>
</g>
</g>
<!-- Node28 -->
<g id="Node000028" class="node">
<title>Node28</title>
<g id="a_Node000028"><a xlink:href="class_data_base_g_u_i.html#a00f9044d3b8dd9c5dada244dac1b0df6" target="_top" xlink:title="Adds a new child to the database.">
<polygon fill="white" stroke="#666666" points="466.5,-325.37 341.75,-325.37 341.75,-305.37 466.5,-305.37 466.5,-325.37"/>
<text text-anchor="middle" x="404.12" y="-311.87" font-family="Helvetica,sans-Serif" font-size="10.00">DataBaseGUI::child_add</text>
</a>
</g>
</g>
<!-- Node27&#45;&gt;Node28 -->
<g id="edge46_Node000027_Node000028" class="edge">
<title>Node27&#45;&gt;Node28</title>
<g id="a_edge46_Node000027_Node000028"><a xlink:title=" ">
<path fill="none" stroke="#63b8ff" d="M534.82,-374.15C517.2,-360.98 493.77,-345.05 471,-334.37 463.99,-331.09 456.3,-328.25 448.72,-325.84"/>
<polygon fill="#63b8ff" stroke="#63b8ff" points="532.7,-376.93 542.77,-380.21 536.94,-371.36 532.7,-376.93"/>
</a>
</g>
</g>
<!-- Node29 -->
<g id="Node000029" class="node">
<title>Node29</title>
<g id="a_Node000029"><a xlink:href="class_data_base_g_u_i.html#ae3a08843db874e51a7cea32fa8937ca5" target="_top" xlink:title="Removes a child from the database.">
<polygon fill="white" stroke="#666666" points="456,-715.37 352.25,-715.37 352.25,-683.37 456,-683.37 456,-715.37"/>
<text text-anchor="start" x="360.25" y="-701.87" font-family="Helvetica,sans-Serif" font-size="10.00">DataBaseGUI::child</text>
<text text-anchor="middle" x="404.12" y="-689.87" font-family="Helvetica,sans-Serif" font-size="10.00">_remove</text>
</a>
</g>
</g>
<!-- Node27&#45;&gt;Node29 -->
<g id="edge49_Node000027_Node000029" class="edge">
<title>Node27&#45;&gt;Node29</title>
<g id="a_edge49_Node000027_Node000029"><a xlink:title=" ">
<path fill="none" stroke="#63b8ff" d="M536.98,-421.56C526.27,-432.48 514.69,-446.11 507,-460.37 476.9,-516.16 496.65,-540.41 471,-598.37 456.77,-630.54 432.85,-663.98 418.08,-683.18"/>
<polygon fill="#63b8ff" stroke="#63b8ff" points="539.15,-424.34 543.84,-414.84 534.25,-419.34 539.15,-424.34"/>
</a>
</g>
</g>
<!-- Node30 -->
<g id="Node000030" class="node">
<title>Node30</title>
<g id="a_Node000030"><a xlink:href="class_data_base_g_u_i.html#a2e6d3629f679c153cdd21b683ce794a1" target="_top" xlink:title="Changes the sorting method for children.">
<polygon fill="white" stroke="#666666" points="456,-413.37 352.25,-413.37 352.25,-381.37 456,-381.37 456,-413.37"/>
<text text-anchor="start" x="360.25" y="-399.87" font-family="Helvetica,sans-Serif" font-size="10.00">DataBaseGUI::child</text>
<text text-anchor="middle" x="404.12" y="-387.87" font-family="Helvetica,sans-Serif" font-size="10.00">_sort_change</text>
</a>
</g>
</g>
<!-- Node27&#45;&gt;Node30 -->
<g id="edge52_Node000027_Node000030" class="edge">
<title>Node27&#45;&gt;Node30</title>
<g id="a_edge52_Node000027_Node000030"><a xlink:title=" ">
<path fill="none" stroke="#63b8ff" d="M495.22,-397.37C482.16,-397.37 468.7,-397.37 456.3,-397.37"/>
<polygon fill="#63b8ff" stroke="#63b8ff" points="495.05,-400.87 505.05,-397.37 495.05,-393.87 495.05,-400.87"/>
</a>
</g>
</g>
<!-- Node31 -->
<g id="Node000031" class="node">
<title>Node31</title>
<g id="a_Node000031"><a xlink:href="class_data_base_g_u_i.html#a20d1ece0affaa1f5b6876ee072dd2ab1" target="_top" xlink:title="Imports a database from a file.">
<polygon fill="white" stroke="#666666" points="459.38,-287.37 348.88,-287.37 348.88,-255.37 459.38,-255.37 459.38,-287.37"/>
<text text-anchor="start" x="356.88" y="-273.87" font-family="Helvetica,sans-Serif" font-size="10.00">DataBaseGUI::import</text>
<text text-anchor="middle" x="404.12" y="-261.87" font-family="Helvetica,sans-Serif" font-size="10.00">_database</text>
</a>
</g>
</g>
<!-- Node27&#45;&gt;Node31 -->
<g id="edge54_Node000027_Node000031" class="edge">
<title>Node27&#45;&gt;Node31</title>
<g id="a_edge54_Node000027_Node000031"><a xlink:title=" ">
<path fill="none" stroke="#63b8ff" d="M546.15,-372.22C529.13,-349.68 501.55,-317.05 471,-296.37 466.24,-293.15 461.01,-290.27 455.63,-287.71"/>
<polygon fill="#63b8ff" stroke="#63b8ff" points="543.12,-374.02 551.88,-379.99 548.76,-369.86 543.12,-374.02"/>
</a>
</g>
</g>
<!-- Node28&#45;&gt;Node10 -->
<g id="edge47_Node000028_Node000010" class="edge">
<title>Node28&#45;&gt;Node10</title>
<g id="a_edge47_Node000028_Node000010"><a xlink:title=" ">
<path fill="none" stroke="#63b8ff" d="M330.19,-305.41C318.46,-303.8 306.51,-302.17 295.35,-300.65"/>
<polygon fill="#63b8ff" stroke="#63b8ff" points="329.46,-308.84 339.84,-306.72 330.4,-301.9 329.46,-308.84"/>
</a>
</g>
</g>
<!-- Node29&#45;&gt;Node2 -->
<g id="edge50_Node000029_Node000002" class="edge">
<title>Node29&#45;&gt;Node2</title>
<g id="a_edge50_Node000029_Node000002"><a xlink:title=" ">
<path fill="none" stroke="#63b8ff" d="M341.32,-718.57C326.12,-723.29 309.98,-728.3 295.23,-732.88"/>
<polygon fill="#63b8ff" stroke="#63b8ff" points="342.23,-721.95 350.74,-715.64 340.15,-715.27 342.23,-721.95"/>
</a>
</g>
</g>
<!-- Node29&#45;&gt;Node3 -->
<g id="edge51_Node000029_Node000003" class="edge">
<title>Node29&#45;&gt;Node3</title>
<g id="a_edge51_Node000029_Node000003"><a xlink:title=" ">
<path fill="none" stroke="#63b8ff" d="M467.88,-694C637.28,-679.48 1102.23,-639.64 1267.69,-625.46"/>
<polygon fill="#63b8ff" stroke="#63b8ff" points="467.61,-690.51 457.94,-694.85 468.21,-697.48 467.61,-690.51"/>
</a>
</g>
</g>
<!-- Node30&#45;&gt;Node10 -->
<g id="edge53_Node000030_Node000010" class="edge">
<title>Node30&#45;&gt;Node10</title>
<g id="a_edge53_Node000030_Node000010"><a xlink:title=" ">
<path fill="none" stroke="#63b8ff" d="M344.02,-376.07C341.71,-374.88 339.44,-373.65 337.25,-372.37 302.94,-352.37 268.54,-320.02 252.1,-303.62"/>
<polygon fill="#63b8ff" stroke="#63b8ff" points="342.52,-379.23 353.05,-380.35 345.51,-372.91 342.52,-379.23"/>
</a>
</g>
</g>
<!-- Node31&#45;&gt;Node10 -->
<g id="edge55_Node000031_Node000010" class="edge">
<title>Node31&#45;&gt;Node10</title>
<g id="a_edge55_Node000031_Node000010"><a xlink:title=" ">
<path fill="none" stroke="#63b8ff" d="M337.5,-280.34C323.43,-282.26 308.74,-284.27 295.21,-286.12"/>
<polygon fill="#63b8ff" stroke="#63b8ff" points="337.68,-283.85 347.12,-279.03 336.74,-276.91 337.68,-283.85"/>
</a>
</g>
</g>
</g>
</svg>
