<?xml version="1.0" encoding="UTF-8" standalone="no"?>
<!DOCTYPE svg PUBLIC "-//W3C//DTD SVG 1.1//EN"
 "http://www.w3.org/Graphics/SVG/1.1/DTD/svg11.dtd">
<!-- Generated by graphviz version 12.2.1 (20241206.2353)
 -->
<!-- Title: Database::update_parent_start Pages: 1 -->
<svg width="315pt" height="180pt"
 viewBox="0.00 0.00 314.50 180.00" xmlns="http://www.w3.org/2000/svg" xmlns:xlink="http://www.w3.org/1999/xlink">
<g id="graph0" class="graph" transform="scale(1 1) rotate(0) translate(4 176)">
<title>Database::update_parent_start</title>
<!-- Node1 -->
<g id="Node000001" class="node">
<title>Node1</title>
<g id="a_Node000001"><a xlink:title="Removes a parent&#39;s information from the maps.">
<polygon fill="#999999" stroke="#666666" points="125.5,-102 0,-102 0,-70 125.5,-70 125.5,-102"/>
<text text-anchor="start" x="8" y="-88.5" font-family="Helvetica,sans-Serif" font-size="10.00">Database::update_parent</text>
<text text-anchor="middle" x="62.75" y="-76.5" font-family="Helvetica,sans-Serif" font-size="10.00">_start</text>
</a>
</g>
</g>
<!-- Node2 -->
<g id="Node000002" class="node">
<title>Node2</title>
<g id="a_Node000002"><a xlink:href="class_email.html#a9402dc77167245cc5943d04850b92414" target="_top" xlink:title="Gets the email address.">
<polygon fill="white" stroke="#666666" points="278.38,-172 189.62,-172 189.62,-152 278.38,-152 278.38,-172"/>
<text text-anchor="middle" x="234" y="-158.5" font-family="Helvetica,sans-Serif" font-size="10.00">Email::get_email</text>
</a>
</g>
</g>
<!-- Node1&#45;&gt;Node2 -->
<g id="edge1_Node000001_Node000002" class="edge">
<title>Node1&#45;&gt;Node2</title>
<g id="a_edge1_Node000001_Node000002"><a xlink:title=" ">
<path fill="none" stroke="#63b8ff" d="M87.71,-102.43C106.94,-115 135.01,-131.99 161.5,-143 166.85,-145.22 172.53,-147.25 178.26,-149.09"/>
<polygon fill="#63b8ff" stroke="#63b8ff" points="177.24,-152.43 187.83,-151.94 179.25,-145.73 177.24,-152.43"/>
</a>
</g>
</g>
<!-- Node3 -->
<g id="Node000003" class="node">
<title>Node3</title>
<g id="a_Node000003"><a xlink:href="class_parent.html#aa82a75e6096795dcf5d608169ae4de5d" target="_top" xlink:title="Gets the email address of the parent.">
<polygon fill="white" stroke="#666666" points="280.25,-134 187.75,-134 187.75,-114 280.25,-114 280.25,-134"/>
<text text-anchor="middle" x="234" y="-120.5" font-family="Helvetica,sans-Serif" font-size="10.00">Parent::get_email</text>
</a>
</g>
</g>
<!-- Node1&#45;&gt;Node3 -->
<g id="edge2_Node000001_Node000003" class="edge">
<title>Node1&#45;&gt;Node3</title>
<g id="a_edge2_Node000001_Node000003"><a xlink:title=" ">
<path fill="none" stroke="#63b8ff" d="M125.81,-99.93C142.37,-103.65 160.17,-107.65 176.42,-111.3"/>
<polygon fill="#63b8ff" stroke="#63b8ff" points="175.38,-114.65 185.9,-113.43 176.91,-107.82 175.38,-114.65"/>
</a>
</g>
</g>
<!-- Node4 -->
<g id="Node000004" class="node">
<title>Node4</title>
<g id="a_Node000004"><a xlink:href="class_person.html#a6b1fec00d8d1f5af1a2977dc3f5f9eb8" target="_top" xlink:title="Gets the first name of the person.">
<polygon fill="white" stroke="#666666" points="281.75,-96 186.25,-96 186.25,-76 281.75,-76 281.75,-96"/>
<text text-anchor="middle" x="234" y="-82.5" font-family="Helvetica,sans-Serif" font-size="10.00">Person::get_name</text>
</a>
</g>
</g>
<!-- Node1&#45;&gt;Node4 -->
<g id="edge3_Node000001_Node000004" class="edge">
<title>Node1&#45;&gt;Node4</title>
<g id="a_edge3_Node000001_Node000004"><a xlink:title=" ">
<path fill="none" stroke="#63b8ff" d="M125.81,-86C141.75,-86 158.85,-86 174.6,-86"/>
<polygon fill="#63b8ff" stroke="#63b8ff" points="174.28,-89.5 184.28,-86 174.28,-82.5 174.28,-89.5"/>
</a>
</g>
</g>
<!-- Node5 -->
<g id="Node000005" class="node">
<title>Node5</title>
<g id="a_Node000005"><a xlink:href="class_person.html#a7b3c8db44a49c4ba8c4838e19a235613" target="_top" xlink:title="Gets the last name of the person.">
<polygon fill="white" stroke="#666666" points="288.5,-58 179.5,-58 179.5,-38 288.5,-38 288.5,-58"/>
<text text-anchor="middle" x="234" y="-44.5" font-family="Helvetica,sans-Serif" font-size="10.00">Person::get_surname</text>
</a>
</g>
</g>
<!-- Node1&#45;&gt;Node5 -->
<g id="edge4_Node000001_Node000005" class="edge">
<title>Node1&#45;&gt;Node5</title>
<g id="a_edge4_Node000001_Node000005"><a xlink:title=" ">
<path fill="none" stroke="#63b8ff" d="M125.81,-72.07C142.06,-68.42 159.51,-64.5 175.51,-60.91"/>
<polygon fill="#63b8ff" stroke="#63b8ff" points="175.86,-64.42 184.85,-58.81 174.32,-57.59 175.86,-64.42"/>
</a>
</g>
</g>
<!-- Node6 -->
<g id="Node000006" class="node">
<title>Node6</title>
<g id="a_Node000006"><a xlink:href="class_database.html#a764574ac9e94b5ab7eb8d106b9113bec" target="_top" xlink:title="Removes an entry from a multimap.">
<polygon fill="white" stroke="#666666" points="306.5,-20 161.5,-20 161.5,0 306.5,0 306.5,-20"/>
<text text-anchor="middle" x="234" y="-6.5" font-family="Helvetica,sans-Serif" font-size="10.00">Database::remove_from_map</text>
</a>
</g>
</g>
<!-- Node1&#45;&gt;Node6 -->
<g id="edge5_Node000001_Node000006" class="edge">
<title>Node1&#45;&gt;Node6</title>
<g id="a_edge5_Node000001_Node000006"><a xlink:title=" ">
<path fill="none" stroke="#63b8ff" d="M87.71,-69.57C106.94,-57 135.01,-40.01 161.5,-29 166.03,-27.12 170.79,-25.38 175.62,-23.77"/>
<polygon fill="#63b8ff" stroke="#63b8ff" points="176.28,-27.24 184.8,-20.93 174.21,-20.55 176.28,-27.24"/>
</a>
</g>
</g>
</g>
</svg>
