<?xml version="1.0" encoding="UTF-8" standalone="no"?>
<!DOCTYPE svg PUBLIC "-//W3C//DTD SVG 1.1//EN"
 "http://www.w3.org/Graphics/SVG/1.1/DTD/svg11.dtd">
<!-- Generated by graphviz version 12.2.1 (20241206.2353)
 -->
<!-- Title: DataBaseGUI::parent_edit Pages: 1 -->
<svg width="1266pt" height="556pt"
 viewBox="0.00 0.00 1265.50 556.00" xmlns="http://www.w3.org/2000/svg" xmlns:xlink="http://www.w3.org/1999/xlink">
<g id="graph0" class="graph" transform="scale(1 1) rotate(0) translate(4 552)">
<title>DataBaseGUI::parent_edit</title>
<!-- Node1 -->
<g id="Node000001" class="node">
<title>Node1</title>
<g id="a_Node000001"><a xlink:title="Edits an existing parent in the database.">
<polygon fill="#999999" stroke="#666666" points="131.5,-120 0,-120 0,-100 131.5,-100 131.5,-120"/>
<text text-anchor="middle" x="65.75" y="-106.5" font-family="Helvetica,sans-Serif" font-size="10.00">DataBaseGUI::parent_edit</text>
</a>
</g>
</g>
<!-- Node2 -->
<g id="Node000002" class="node">
<title>Node2</title>
<g id="a_Node000002"><a xlink:href="class_data_base_g_u_i.html#a625b5e2018395a458ff517bbf364e1bf" target="_top" xlink:title="Selects the appropriate sorting to use based on parent sort index.">
<polygon fill="white" stroke="#666666" points="281,-104 167.5,-104 167.5,-72 281,-72 281,-104"/>
<text text-anchor="start" x="175.5" y="-90.5" font-family="Helvetica,sans-Serif" font-size="10.00">DataBaseGUI::sort_to</text>
<text text-anchor="middle" x="224.25" y="-78.5" font-family="Helvetica,sans-Serif" font-size="10.00">_populate_parent_tab</text>
</a>
</g>
</g>
<!-- Node1&#45;&gt;Node2 -->
<g id="edge1_Node000001_Node000002" class="edge">
<title>Node1&#45;&gt;Node2</title>
<g id="a_edge1_Node000001_Node000002"><a xlink:title=" ">
<path fill="none" stroke="#63b8ff" d="M131.76,-100.86C139.75,-99.74 147.93,-98.59 155.96,-97.46"/>
<polygon fill="#63b8ff" stroke="#63b8ff" points="156.25,-100.95 165.66,-96.1 155.27,-94.02 156.25,-100.95"/>
</a>
</g>
</g>
<!-- Node3 -->
<g id="Node000003" class="node">
<title>Node3</title>
<g id="a_Node000003"><a xlink:href="class_data_base_g_u_i.html#a739b2cf48c0cb6e3cab2da0a7bbd6d6d" target="_top" xlink:title="Populates the parent tab with a list of parents.">
<polygon fill="white" stroke="#666666" points="437.25,-148 317,-148 317,-116 437.25,-116 437.25,-148"/>
<text text-anchor="start" x="325" y="-134.5" font-family="Helvetica,sans-Serif" font-size="10.00">DataBaseGUI::populate</text>
<text text-anchor="middle" x="377.12" y="-122.5" font-family="Helvetica,sans-Serif" font-size="10.00">_parent_tab</text>
</a>
</g>
</g>
<!-- Node2&#45;&gt;Node3 -->
<g id="edge2_Node000002_Node000003" class="edge">
<title>Node2&#45;&gt;Node3</title>
<g id="a_edge2_Node000002_Node000003"><a xlink:title=" ">
<path fill="none" stroke="#63b8ff" d="M281.43,-104.38C290.31,-106.97 299.56,-109.67 308.66,-112.33"/>
<polygon fill="#63b8ff" stroke="#63b8ff" points="307.61,-115.67 318.19,-115.11 309.57,-108.95 307.61,-115.67"/>
</a>
</g>
</g>
<!-- Node3&#45;&gt;Node1 -->
<g id="edge24_Node000003_Node000001" class="edge">
<title>Node3&#45;&gt;Node1</title>
<g id="a_edge24_Node000003_Node000001"><a xlink:title=" ">
<path fill="none" stroke="#63b8ff" d="M316.74,-127.78C267.36,-124.27 196.74,-119.24 143.15,-115.43"/>
<polygon fill="#63b8ff" stroke="#63b8ff" points="143.72,-111.96 133.49,-114.75 143.22,-118.95 143.72,-111.96"/>
</a>
</g>
</g>
<!-- Node4 -->
<g id="Node000004" class="node">
<title>Node4</title>
<g id="a_Node000004"><a xlink:href="class_data_base_g_u_i.html#aadb0e7d323a970603312695c0dd9b264" target="_top" xlink:title="Searches for children based on the provided child pointer.">
<polygon fill="white" stroke="#666666" points="601.75,-170 498,-170 498,-138 601.75,-138 601.75,-170"/>
<text text-anchor="start" x="506" y="-156.5" font-family="Helvetica,sans-Serif" font-size="10.00">DataBaseGUI::child</text>
<text text-anchor="middle" x="549.88" y="-144.5" font-family="Helvetica,sans-Serif" font-size="10.00">_search_by_pointer</text>
</a>
</g>
</g>
<!-- Node3&#45;&gt;Node4 -->
<g id="edge3_Node000003_Node000004" class="edge">
<title>Node3&#45;&gt;Node4</title>
<g id="a_edge3_Node000003_Node000004"><a xlink:title=" ">
<path fill="none" stroke="#63b8ff" d="M437.37,-139.63C453.18,-141.67 470.31,-143.88 486.3,-145.94"/>
<polygon fill="#63b8ff" stroke="#63b8ff" points="485.83,-149.41 496.2,-147.21 486.73,-142.46 485.83,-149.41"/>
</a>
</g>
</g>
<!-- Node18 -->
<g id="Node000018" class="node">
<title>Node18</title>
<g id="a_Node000018"><a xlink:href="class_parent_entry.html#a45e22d202e52c9dbc7e7e72575dc0e91" target="_top" xlink:title="Signal emitted when a child search is requested.">
<polygon fill="white" stroke="#666666" points="612.25,-82 487.5,-82 487.5,-50 612.25,-50 612.25,-82"/>
<text text-anchor="start" x="495.5" y="-68.5" font-family="Helvetica,sans-Serif" font-size="10.00">ParentEntry::childSearch</text>
<text text-anchor="middle" x="549.88" y="-56.5" font-family="Helvetica,sans-Serif" font-size="10.00">Requested</text>
</a>
</g>
</g>
<!-- Node3&#45;&gt;Node18 -->
<g id="edge22_Node000003_Node000018" class="edge">
<title>Node3&#45;&gt;Node18</title>
<g id="a_edge22_Node000003_Node000018"><a xlink:title=" ">
<path fill="none" stroke="#63b8ff" d="M420.77,-115.52C443.57,-106.7 471.86,-95.77 496.04,-86.42"/>
<polygon fill="#63b8ff" stroke="#63b8ff" points="497,-89.8 505.06,-82.93 494.47,-83.27 497,-89.8"/>
</a>
</g>
</g>
<!-- Node19 -->
<g id="Node000019" class="node">
<title>Node19</title>
<g id="a_Node000019"><a xlink:href="class_parent_entry.html#ab0a6b9993e8f1dc2f58ceedfee0f7d0b" target="_top" xlink:title="Signal emitted when a parent edit is requested.">
<polygon fill="white" stroke="#666666" points="618.25,-296 481.5,-296 481.5,-276 618.25,-276 618.25,-296"/>
<text text-anchor="middle" x="549.88" y="-282.5" font-family="Helvetica,sans-Serif" font-size="10.00">ParentEntry::editRequested</text>
</a>
</g>
</g>
<!-- Node3&#45;&gt;Node19 -->
<g id="edge23_Node000003_Node000019" class="edge">
<title>Node3&#45;&gt;Node19</title>
<g id="a_edge23_Node000003_Node000019"><a xlink:title=" ">
<path fill="none" stroke="#63b8ff" d="M384.88,-148.15C397.69,-176.74 428.34,-236.17 473.25,-267 475.21,-268.35 477.26,-269.6 479.38,-270.76"/>
<polygon fill="#63b8ff" stroke="#63b8ff" points="477.76,-273.87 488.3,-274.94 480.73,-267.53 477.76,-273.87"/>
</a>
</g>
</g>
<!-- Node20 -->
<g id="Node000020" class="node">
<title>Node20</title>
<g id="a_Node000020"><a xlink:href="class_data_base_g_u_i.html#ad8a42f24cdb603ba85c1cdd4ea2e73a4" target="_top" xlink:title="Removes a parent from the database.">
<polygon fill="white" stroke="#666666" points="605.12,-32 494.62,-32 494.62,0 605.12,0 605.12,-32"/>
<text text-anchor="start" x="502.62" y="-18.5" font-family="Helvetica,sans-Serif" font-size="10.00">DataBaseGUI::parent</text>
<text text-anchor="middle" x="549.88" y="-6.5" font-family="Helvetica,sans-Serif" font-size="10.00">_remove</text>
</a>
</g>
</g>
<!-- Node3&#45;&gt;Node20 -->
<g id="edge25_Node000003_Node000020" class="edge">
<title>Node3&#45;&gt;Node20</title>
<g id="a_edge25_Node000003_Node000020"><a xlink:title=" ">
<path fill="none" stroke="#63b8ff" d="M396.14,-115.56C407.93,-104.72 423.63,-90.14 437.25,-77 453.54,-61.29 453.99,-52.87 473.25,-41 476.59,-38.94 480.12,-37.03 483.75,-35.27"/>
<polygon fill="#63b8ff" stroke="#63b8ff" points="485.08,-38.51 492.81,-31.27 482.25,-32.1 485.08,-38.51"/>
</a>
</g>
</g>
<!-- Node21 -->
<g id="Node000021" class="node">
<title>Node21</title>
<g id="a_Node000021"><a xlink:href="class_data_base_g_u_i.html#a3d4aa66da32413ddd29330e008b1865a" target="_top" xlink:title="Clears the parent tab.">
<polygon fill="white" stroke="#666666" points="605.12,-258 494.62,-258 494.62,-226 605.12,-226 605.12,-258"/>
<text text-anchor="start" x="502.62" y="-244.5" font-family="Helvetica,sans-Serif" font-size="10.00">DataBaseGUI::parent</text>
<text text-anchor="middle" x="549.88" y="-232.5" font-family="Helvetica,sans-Serif" font-size="10.00">_tab_clear</text>
</a>
</g>
</g>
<!-- Node3&#45;&gt;Node21 -->
<g id="edge27_Node000003_Node000021" class="edge">
<title>Node3&#45;&gt;Node21</title>
<g id="a_edge27_Node000003_Node000021"><a xlink:title=" ">
<path fill="none" stroke="#63b8ff" d="M392.39,-148.29C409.77,-167.22 440.85,-198.26 473.25,-217 476.64,-218.96 480.22,-220.8 483.88,-222.51"/>
<polygon fill="#63b8ff" stroke="#63b8ff" points="482.44,-225.7 493.01,-226.41 485.19,-219.26 482.44,-225.7"/>
</a>
</g>
</g>
<!-- Node22 -->
<g id="Node000022" class="node">
<title>Node22</title>
<g id="a_Node000022"><a xlink:href="class_parent_entry.html#ada9ff642ea28fbec8f40767df83cc5f1" target="_top" xlink:title="Signal emitted when a parent removal is requested.">
<polygon fill="white" stroke="#666666" points="626.5,-208 473.25,-208 473.25,-188 626.5,-188 626.5,-208"/>
<text text-anchor="middle" x="549.88" y="-194.5" font-family="Helvetica,sans-Serif" font-size="10.00">ParentEntry::removeRequested</text>
</a>
</g>
</g>
<!-- Node3&#45;&gt;Node22 -->
<g id="edge28_Node000003_Node000022" class="edge">
<title>Node3&#45;&gt;Node22</title>
<g id="a_edge28_Node000003_Node000022"><a xlink:title=" ">
<path fill="none" stroke="#63b8ff" d="M407.4,-148.49C425.85,-158.37 450.43,-170.6 473.25,-179 478.59,-180.97 484.22,-182.8 489.89,-184.49"/>
<polygon fill="#63b8ff" stroke="#63b8ff" points="488.77,-187.81 499.35,-187.15 490.67,-181.07 488.77,-187.81"/>
</a>
</g>
</g>
<!-- Node5 -->
<g id="Node000005" class="node">
<title>Node5</title>
<g id="a_Node000005"><a xlink:href="class_data_base_g_u_i.html#a2d921da686e76ae195da018bb735a1ae" target="_top" xlink:title="Searches for children based on the provided name and surname.">
<polygon fill="white" stroke="#666666" points="766.25,-337 662.5,-337 662.5,-305 766.25,-305 766.25,-337"/>
<text text-anchor="start" x="670.5" y="-323.5" font-family="Helvetica,sans-Serif" font-size="10.00">DataBaseGUI::child</text>
<text text-anchor="middle" x="714.38" y="-311.5" font-family="Helvetica,sans-Serif" font-size="10.00">_search</text>
</a>
</g>
</g>
<!-- Node4&#45;&gt;Node5 -->
<g id="edge4_Node000004_Node000005" class="edge">
<title>Node4&#45;&gt;Node5</title>
<g id="a_edge4_Node000004_Node000005"><a xlink:title=" ">
<path fill="none" stroke="#63b8ff" d="M602.19,-164.88C610.95,-168.37 619.48,-172.96 626.5,-179 653.32,-202.07 644.14,-219.75 662.5,-250 672,-265.65 683.85,-282.32 693.72,-295.58"/>
<polygon fill="#63b8ff" stroke="#63b8ff" points="690.77,-297.48 699.59,-303.36 696.36,-293.26 690.77,-297.48"/>
</a>
</g>
</g>
<!-- Node13 -->
<g id="Node000013" class="node">
<title>Node13</title>
<g id="a_Node000013"><a xlink:href="class_person.html#a6b1fec00d8d1f5af1a2977dc3f5f9eb8" target="_top" xlink:title="Gets the first name of the person.">
<polygon fill="white" stroke="#666666" points="1247.38,-234 1151.88,-234 1151.88,-214 1247.38,-214 1247.38,-234"/>
<text text-anchor="middle" x="1199.62" y="-220.5" font-family="Helvetica,sans-Serif" font-size="10.00">Person::get_name</text>
</a>
</g>
</g>
<!-- Node4&#45;&gt;Node13 -->
<g id="edge20_Node000004_Node000013" class="edge">
<title>Node4&#45;&gt;Node13</title>
<g id="a_edge20_Node000004_Node000013"><a xlink:title=" ">
<path fill="none" stroke="#63b8ff" d="M602.1,-164.01C679.1,-178.59 829.43,-205.19 958.5,-217 1020.4,-222.66 1091.62,-224.11 1140.33,-224.32"/>
<polygon fill="#63b8ff" stroke="#63b8ff" points="1140.07,-227.82 1150.08,-224.35 1140.09,-220.82 1140.07,-227.82"/>
</a>
</g>
</g>
<!-- Node14 -->
<g id="Node000014" class="node">
<title>Node14</title>
<g id="a_Node000014"><a xlink:href="class_person.html#a7b3c8db44a49c4ba8c4838e19a235613" target="_top" xlink:title="Gets the last name of the person.">
<polygon fill="white" stroke="#666666" points="1254.12,-183 1145.12,-183 1145.12,-163 1254.12,-163 1254.12,-183"/>
<text text-anchor="middle" x="1199.62" y="-169.5" font-family="Helvetica,sans-Serif" font-size="10.00">Person::get_surname</text>
</a>
</g>
</g>
<!-- Node4&#45;&gt;Node14 -->
<g id="edge21_Node000004_Node000014" class="edge">
<title>Node4&#45;&gt;Node14</title>
<g id="a_edge21_Node000004_Node000014"><a xlink:title=" ">
<path fill="none" stroke="#63b8ff" d="M602.15,-154.5C700.07,-155.6 920.44,-158.85 1105.75,-167 1114.82,-167.4 1124.37,-167.91 1133.77,-168.47"/>
<polygon fill="#63b8ff" stroke="#63b8ff" points="1133.41,-171.95 1143.6,-169.07 1133.84,-164.97 1133.41,-171.95"/>
</a>
</g>
</g>
<!-- Node6 -->
<g id="Node000006" class="node">
<title>Node6</title>
<g id="a_Node000006"><a xlink:href="class_data_base_g_u_i.html#af346d08370d9e4574980707f61b9c8f7" target="_top" xlink:title="Populates the children tab with a list of children.">
<polygon fill="white" stroke="#666666" points="922.5,-378 802.25,-378 802.25,-346 922.5,-346 922.5,-378"/>
<text text-anchor="start" x="810.25" y="-364.5" font-family="Helvetica,sans-Serif" font-size="10.00">DataBaseGUI::populate</text>
<text text-anchor="middle" x="862.38" y="-352.5" font-family="Helvetica,sans-Serif" font-size="10.00">_children_tab</text>
</a>
</g>
</g>
<!-- Node5&#45;&gt;Node6 -->
<g id="edge5_Node000005_Node000006" class="edge">
<title>Node5&#45;&gt;Node6</title>
<g id="a_edge5_Node000005_Node000006"><a xlink:title=" ">
<path fill="none" stroke="#63b8ff" d="M766.44,-335.34C774.71,-337.66 783.39,-340.1 792,-342.52"/>
<polygon fill="#63b8ff" stroke="#63b8ff" points="790.81,-345.82 801.39,-345.15 792.7,-339.08 790.81,-345.82"/>
</a>
</g>
</g>
<!-- Node7 -->
<g id="Node000007" class="node">
<title>Node7</title>
<g id="a_Node000007"><a xlink:href="class_data_base_g_u_i.html#acb6c6b292e58d0ead30682f7f5705244" target="_top" xlink:title="Edits an existing child in the database.">
<polygon fill="white" stroke="#666666" points="1094.5,-448 969.75,-448 969.75,-428 1094.5,-428 1094.5,-448"/>
<text text-anchor="middle" x="1032.12" y="-434.5" font-family="Helvetica,sans-Serif" font-size="10.00">DataBaseGUI::child_edit</text>
</a>
</g>
</g>
<!-- Node6&#45;&gt;Node7 -->
<g id="edge6_Node000006_Node000007" class="edge">
<title>Node6&#45;&gt;Node7</title>
<g id="a_edge6_Node000006_Node000007"><a xlink:title=" ">
<path fill="none" stroke="#63b8ff" d="M886.62,-378.5C905.29,-391.1 932.59,-408.11 958.5,-419 963.01,-420.9 967.77,-422.65 972.6,-424.25"/>
<polygon fill="#63b8ff" stroke="#63b8ff" points="971.18,-427.48 981.76,-427.09 973.24,-420.79 971.18,-427.48"/>
</a>
</g>
</g>
<!-- Node9 -->
<g id="Node000009" class="node">
<title>Node9</title>
<g id="a_Node000009"><a xlink:href="class_data_base_g_u_i.html#ae3a08843db874e51a7cea32fa8937ca5" target="_top" xlink:title="Removes a child from the database.">
<polygon fill="white" stroke="#666666" points="1084,-498 980.25,-498 980.25,-466 1084,-466 1084,-498"/>
<text text-anchor="start" x="988.25" y="-484.5" font-family="Helvetica,sans-Serif" font-size="10.00">DataBaseGUI::child</text>
<text text-anchor="middle" x="1032.12" y="-472.5" font-family="Helvetica,sans-Serif" font-size="10.00">_remove</text>
</a>
</g>
</g>
<!-- Node6&#45;&gt;Node9 -->
<g id="edge9_Node000006_Node000009" class="edge">
<title>Node6&#45;&gt;Node9</title>
<g id="a_edge9_Node000006_Node000009"><a xlink:title=" ">
<path fill="none" stroke="#63b8ff" d="M875.8,-378.38C892.49,-399.33 924.05,-435.49 958.5,-457 961.99,-459.18 965.68,-461.19 969.49,-463.05"/>
<polygon fill="#63b8ff" stroke="#63b8ff" points="967.83,-466.14 978.38,-467 970.67,-459.74 967.83,-466.14"/>
</a>
</g>
</g>
<!-- Node10 -->
<g id="Node000010" class="node">
<title>Node10</title>
<g id="a_Node000010"><a xlink:href="class_data_base_g_u_i.html#afbc53e28ad83200fe77e0fa5a6eb970f" target="_top" xlink:title="Clears the children tab.">
<polygon fill="white" stroke="#666666" points="1090.75,-548 973.5,-548 973.5,-516 1090.75,-516 1090.75,-548"/>
<text text-anchor="start" x="981.5" y="-534.5" font-family="Helvetica,sans-Serif" font-size="10.00">DataBaseGUI::children</text>
<text text-anchor="middle" x="1032.12" y="-522.5" font-family="Helvetica,sans-Serif" font-size="10.00">_tab_clear</text>
</a>
</g>
</g>
<!-- Node6&#45;&gt;Node10 -->
<g id="edge11_Node000006_Node000010" class="edge">
<title>Node6&#45;&gt;Node10</title>
<g id="a_edge11_Node000006_Node000010"><a xlink:title=" ">
<path fill="none" stroke="#63b8ff" d="M869.88,-378.47C882.49,-408.36 913.1,-471.7 958.5,-507 960.2,-508.32 961.97,-509.57 963.8,-510.76"/>
<polygon fill="#63b8ff" stroke="#63b8ff" points="961.62,-513.55 972.04,-515.44 965.07,-507.46 961.62,-513.55"/>
</a>
</g>
</g>
<!-- Node11 -->
<g id="Node000011" class="node">
<title>Node11</title>
<g id="a_Node000011"><a xlink:href="class_child_entry.html#abda9dea89937d77c4def3fb81d964ff9" target="_top" xlink:title="Signal emitted when a child edit is requested.">
<polygon fill="white" stroke="#666666" points="1097.5,-410 966.75,-410 966.75,-390 1097.5,-390 1097.5,-410"/>
<text text-anchor="middle" x="1032.12" y="-396.5" font-family="Helvetica,sans-Serif" font-size="10.00">ChildEntry::editRequested</text>
</a>
</g>
</g>
<!-- Node6&#45;&gt;Node11 -->
<g id="edge12_Node000006_Node000011" class="edge">
<title>Node6&#45;&gt;Node11</title>
<g id="a_edge12_Node000006_Node000011"><a xlink:title=" ">
<path fill="none" stroke="#63b8ff" d="M922.99,-375.5C939.52,-379.25 957.42,-383.3 973.81,-387.02"/>
<polygon fill="#63b8ff" stroke="#63b8ff" points="972.88,-390.39 983.41,-389.19 974.43,-383.57 972.88,-390.39"/>
</a>
</g>
</g>
<!-- Node12 -->
<g id="Node000012" class="node">
<title>Node12</title>
<g id="a_Node000012"><a xlink:href="class_data_base_g_u_i.html#a8e1fe573ef6a09e112989968ec1a2b43" target="_top" xlink:title="Searches for parents based on the provided parent pointer.">
<polygon fill="white" stroke="#666666" points="1087.38,-208 976.88,-208 976.88,-176 1087.38,-176 1087.38,-208"/>
<text text-anchor="start" x="984.88" y="-194.5" font-family="Helvetica,sans-Serif" font-size="10.00">DataBaseGUI::parent</text>
<text text-anchor="middle" x="1032.12" y="-182.5" font-family="Helvetica,sans-Serif" font-size="10.00">_search_by_pointer</text>
</a>
</g>
</g>
<!-- Node6&#45;&gt;Node12 -->
<g id="edge13_Node000006_Node000012" class="edge">
<title>Node6&#45;&gt;Node12</title>
<g id="a_edge13_Node000006_Node000012"><a xlink:title=" ">
<path fill="none" stroke="#63b8ff" d="M876.62,-345.82C894.47,-324.35 927.56,-285.57 958.5,-255 972.33,-241.34 988.61,-227.06 1002.25,-215.56"/>
<polygon fill="#63b8ff" stroke="#63b8ff" points="1004.18,-218.51 1009.62,-209.41 999.7,-213.14 1004.18,-218.51"/>
</a>
</g>
</g>
<!-- Node16 -->
<g id="Node000016" class="node">
<title>Node16</title>
<g id="a_Node000016"><a xlink:href="class_child_entry.html#a11d827331ad040002cce25952c27e47a" target="_top" xlink:title="Signal emitted when a parent search is requested.">
<polygon fill="white" stroke="#666666" points="1096.38,-334 967.88,-334 967.88,-302 1096.38,-302 1096.38,-334"/>
<text text-anchor="start" x="975.88" y="-320.5" font-family="Helvetica,sans-Serif" font-size="10.00">ChildEntry::parrentSearch</text>
<text text-anchor="middle" x="1032.12" y="-308.5" font-family="Helvetica,sans-Serif" font-size="10.00">Requested</text>
</a>
</g>
</g>
<!-- Node6&#45;&gt;Node16 -->
<g id="edge18_Node000006_Node000016" class="edge">
<title>Node6&#45;&gt;Node16</title>
<g id="a_edge18_Node000006_Node000016"><a xlink:title=" ">
<path fill="none" stroke="#63b8ff" d="M922.99,-346.36C934.12,-343.44 945.88,-340.36 957.38,-337.34"/>
<polygon fill="#63b8ff" stroke="#63b8ff" points="958.05,-340.79 966.83,-334.86 956.27,-334.02 958.05,-340.79"/>
</a>
</g>
</g>
<!-- Node17 -->
<g id="Node000017" class="node">
<title>Node17</title>
<g id="a_Node000017"><a xlink:href="class_child_entry.html#a69e495a83c20ea922198adea9ae47ddb" target="_top" xlink:title="Signal emitted when a child removal is requested.">
<polygon fill="white" stroke="#666666" points="1105.75,-284 958.5,-284 958.5,-264 1105.75,-264 1105.75,-284"/>
<text text-anchor="middle" x="1032.12" y="-270.5" font-family="Helvetica,sans-Serif" font-size="10.00">ChildEntry::removeRequested</text>
</a>
</g>
</g>
<!-- Node6&#45;&gt;Node17 -->
<g id="edge19_Node000006_Node000017" class="edge">
<title>Node6&#45;&gt;Node17</title>
<g id="a_edge19_Node000006_Node000017"><a xlink:title=" ">
<path fill="none" stroke="#63b8ff" d="M881.37,-345.76C899.58,-330.13 929.17,-306.87 958.5,-293 962.26,-291.22 966.2,-289.6 970.23,-288.11"/>
<polygon fill="#63b8ff" stroke="#63b8ff" points="971.23,-291.46 979.59,-284.96 969,-284.83 971.23,-291.46"/>
</a>
</g>
</g>
<!-- Node8 -->
<g id="Node000008" class="node">
<title>Node8</title>
<g id="a_Node000008"><a xlink:href="class_data_base_g_u_i.html#aa684465aa73b5b34bbadd24fc7f2f641" target="_top" xlink:title="Selects the appropriate sorting to use based on child sort index.">
<polygon fill="white" stroke="#666666" points="1257.5,-454 1141.75,-454 1141.75,-422 1257.5,-422 1257.5,-454"/>
<text text-anchor="start" x="1149.75" y="-440.5" font-family="Helvetica,sans-Serif" font-size="10.00">DataBaseGUI::sort_to</text>
<text text-anchor="middle" x="1199.62" y="-428.5" font-family="Helvetica,sans-Serif" font-size="10.00">_populate_children_tab</text>
</a>
</g>
</g>
<!-- Node7&#45;&gt;Node8 -->
<g id="edge7_Node000007_Node000008" class="edge">
<title>Node7&#45;&gt;Node8</title>
<g id="a_edge7_Node000007_Node000008"><a xlink:title=" ">
<path fill="none" stroke="#63b8ff" d="M1094.75,-438C1106.19,-438 1118.21,-438 1129.85,-438"/>
<polygon fill="#63b8ff" stroke="#63b8ff" points="1129.82,-441.5 1139.82,-438 1129.82,-434.5 1129.82,-441.5"/>
</a>
</g>
</g>
<!-- Node8&#45;&gt;Node6 -->
<g id="edge8_Node000008_Node000006" class="edge">
<title>Node8&#45;&gt;Node6</title>
<g id="a_edge8_Node000008_Node000006"><a xlink:title=" ">
<path fill="none" stroke="#63b8ff" d="M1178.28,-421.56C1160.35,-408.08 1132.92,-389.83 1105.75,-381 1050.1,-362.91 983.64,-358.84 934.4,-358.91"/>
<polygon fill="#63b8ff" stroke="#63b8ff" points="934.39,-355.41 924.42,-358.99 934.45,-362.41 934.39,-355.41"/>
</a>
</g>
</g>
<!-- Node9&#45;&gt;Node8 -->
<g id="edge10_Node000009_Node000008" class="edge">
<title>Node9&#45;&gt;Node8</title>
<g id="a_edge10_Node000009_Node000008"><a xlink:title=" ">
<path fill="none" stroke="#63b8ff" d="M1084.13,-468.44C1098.73,-464.56 1114.88,-460.26 1130.34,-456.16"/>
<polygon fill="#63b8ff" stroke="#63b8ff" points="1131.21,-459.55 1139.97,-453.59 1129.41,-452.78 1131.21,-459.55"/>
</a>
</g>
</g>
<!-- Node12&#45;&gt;Node13 -->
<g id="edge14_Node000012_Node000013" class="edge">
<title>Node12&#45;&gt;Node13</title>
<g id="a_edge14_Node000012_Node000013"><a xlink:title=" ">
<path fill="none" stroke="#63b8ff" d="M1087.77,-202.57C1104.69,-205.84 1123.38,-209.45 1140.52,-212.77"/>
<polygon fill="#63b8ff" stroke="#63b8ff" points="1139.56,-216.14 1150.04,-214.61 1140.89,-209.27 1139.56,-216.14"/>
</a>
</g>
</g>
<!-- Node12&#45;&gt;Node14 -->
<g id="edge15_Node000012_Node000014" class="edge">
<title>Node12&#45;&gt;Node14</title>
<g id="a_edge15_Node000012_Node000014"><a xlink:title=" ">
<path fill="none" stroke="#63b8ff" d="M1087.77,-185.73C1102.41,-184.05 1118.37,-182.21 1133.5,-180.48"/>
<polygon fill="#63b8ff" stroke="#63b8ff" points="1133.84,-183.96 1143.37,-179.34 1133.04,-177.01 1133.84,-183.96"/>
</a>
</g>
</g>
<!-- Node15 -->
<g id="Node000015" class="node">
<title>Node15</title>
<g id="a_Node000015"><a xlink:href="class_data_base_g_u_i.html#a7c3d843eec449d8a4ec5ce6bf0375358" target="_top" xlink:title="Searches for parents based on the provided name and surname.">
<polygon fill="white" stroke="#666666" points="1254.88,-136 1144.38,-136 1144.38,-104 1254.88,-104 1254.88,-136"/>
<text text-anchor="start" x="1152.38" y="-122.5" font-family="Helvetica,sans-Serif" font-size="10.00">DataBaseGUI::parent</text>
<text text-anchor="middle" x="1199.62" y="-110.5" font-family="Helvetica,sans-Serif" font-size="10.00">_search</text>
</a>
</g>
</g>
<!-- Node12&#45;&gt;Node15 -->
<g id="edge16_Node000012_Node000015" class="edge">
<title>Node12&#45;&gt;Node15</title>
<g id="a_edge16_Node000012_Node000015"><a xlink:title=" ">
<path fill="none" stroke="#63b8ff" d="M1070.68,-175.66C1094.3,-165.39 1125,-152.03 1150.4,-140.98"/>
<polygon fill="#63b8ff" stroke="#63b8ff" points="1151.77,-144.2 1159.55,-137 1148.98,-137.78 1151.77,-144.2"/>
</a>
</g>
</g>
<!-- Node15&#45;&gt;Node3 -->
<g id="edge17_Node000015_Node000003" class="edge">
<title>Node15&#45;&gt;Node3</title>
<g id="a_edge17_Node000015_Node000003"><a xlink:title=" ">
<path fill="none" stroke="#63b8ff" d="M1144.06,-117.37C1077.72,-114.41 962.36,-110 863.38,-110 713.38,-110 713.38,-110 713.38,-110 621.98,-110 516.88,-118.24 449.08,-124.64"/>
<polygon fill="#63b8ff" stroke="#63b8ff" points="448.83,-121.14 439.21,-125.58 449.49,-128.11 448.83,-121.14"/>
</a>
</g>
</g>
<!-- Node20&#45;&gt;Node2 -->
<g id="edge26_Node000020_Node000002" class="edge">
<title>Node20&#45;&gt;Node2</title>
<g id="a_edge26_Node000020_Node000002"><a xlink:title=" ">
<path fill="none" stroke="#63b8ff" d="M494.37,-28.13C438.74,-40.5 352.31,-59.73 292.47,-73.04"/>
<polygon fill="#63b8ff" stroke="#63b8ff" points="291.73,-69.62 282.73,-75.21 293.25,-76.46 291.73,-69.62"/>
</a>
</g>
</g>
</g>
</svg>
