<?xml version="1.0" encoding="UTF-8" standalone="no"?>
<!DOCTYPE svg PUBLIC "-//W3C//DTD SVG 1.1//EN"
 "http://www.w3.org/Graphics/SVG/1.1/DTD/svg11.dtd">
<!-- Generated by graphviz version 12.2.1 (20241206.2353)
 -->
<!-- Title: Ui_ParentDialogClass Pages: 1 -->
<svg width="113pt" height="236pt"
 viewBox="0.00 0.00 112.75 236.00" xmlns="http://www.w3.org/2000/svg" xmlns:xlink="http://www.w3.org/1999/xlink">
<g id="graph0" class="graph" transform="scale(1 1) rotate(0) translate(4 232)">
<title>Ui_ParentDialogClass</title>
<!-- Node1 -->
<g id="Node000001" class="node">
<title>Node1</title>
<g id="a_Node000001"><a xlink:title=" ">
<polygon fill="#999999" stroke="none" points="104.75,-228 0,-228 0,0 104.75,0 104.75,-228"/>
<text text-anchor="start" x="4" y="-214.5" font-family="Helvetica,sans-Serif" font-size="10.00">Ui_ParentDialogClass</text>
<text text-anchor="start" x="6.56" y="-198.5" font-family="Helvetica,sans-Serif" font-size="10.00">+</text>
<text text-anchor="start" x="19.12" y="-198.5" font-family="Helvetica,sans-Serif" font-size="10.00">gridLayout</text>
<text text-anchor="start" x="6.56" y="-182.5" font-family="Helvetica,sans-Serif" font-size="10.00">+</text>
<text text-anchor="start" x="19.12" y="-182.5" font-family="Helvetica,sans-Serif" font-size="10.00">surname_label</text>
<text text-anchor="start" x="6.56" y="-166.5" font-family="Helvetica,sans-Serif" font-size="10.00">+</text>
<text text-anchor="start" x="19.12" y="-166.5" font-family="Helvetica,sans-Serif" font-size="10.00">gender_label</text>
<text text-anchor="start" x="6.56" y="-150.5" font-family="Helvetica,sans-Serif" font-size="10.00">+</text>
<text text-anchor="start" x="19.12" y="-150.5" font-family="Helvetica,sans-Serif" font-size="10.00">email_label</text>
<text text-anchor="start" x="6.56" y="-134.5" font-family="Helvetica,sans-Serif" font-size="10.00">+</text>
<text text-anchor="start" x="19.12" y="-134.5" font-family="Helvetica,sans-Serif" font-size="10.00">child_surname</text>
<text text-anchor="start" x="6.56" y="-118.5" font-family="Helvetica,sans-Serif" font-size="10.00">+</text>
<text text-anchor="start" x="19.12" y="-118.5" font-family="Helvetica,sans-Serif" font-size="10.00">name_label</text>
<text text-anchor="start" x="6.56" y="-102.5" font-family="Helvetica,sans-Serif" font-size="10.00">+</text>
<text text-anchor="start" x="19.12" y="-102.5" font-family="Helvetica,sans-Serif" font-size="10.00">child_name</text>
<text text-anchor="start" x="6.56" y="-86.5" font-family="Helvetica,sans-Serif" font-size="10.00">+</text>
<text text-anchor="start" x="19.12" y="-86.5" font-family="Helvetica,sans-Serif" font-size="10.00">children</text>
<text text-anchor="start" x="6.56" y="-70.5" font-family="Helvetica,sans-Serif" font-size="10.00">+</text>
<text text-anchor="start" x="19.12" y="-70.5" font-family="Helvetica,sans-Serif" font-size="10.00">children_contents</text>
<text text-anchor="start" x="6.56" y="-54.5" font-family="Helvetica,sans-Serif" font-size="10.00">+</text>
<text text-anchor="start" x="19.12" y="-54.5" font-family="Helvetica,sans-Serif" font-size="10.00">verticalLayout</text>
<text text-anchor="start" x="19.12" y="-38.5" font-family="Helvetica,sans-Serif" font-size="10.00">and 12 more...</text>
<text text-anchor="start" x="6.56" y="-22.5" font-family="Helvetica,sans-Serif" font-size="10.00">+</text>
<text text-anchor="start" x="19.12" y="-22.5" font-family="Helvetica,sans-Serif" font-size="10.00">setupUi()</text>
<text text-anchor="start" x="6.56" y="-6.5" font-family="Helvetica,sans-Serif" font-size="10.00">+</text>
<text text-anchor="start" x="19.12" y="-6.5" font-family="Helvetica,sans-Serif" font-size="10.00">retranslateUi()</text>
<polygon fill="#666666" stroke="#666666" points="0,-210 0,-210 104.75,-210 104.75,-210 0,-210"/>
<polygon fill="#666666" stroke="#666666" points="0,-34 0,-34 17.12,-34 17.12,-34 0,-34"/>
<polygon fill="#666666" stroke="#666666" points="17.12,-34 17.12,-34 104.75,-34 104.75,-34 17.12,-34"/>
<polygon fill="none" stroke="#666666" points="0,0 0,-228 104.75,-228 104.75,0 0,0"/>
</a>
</g>
</g>
</g>
</svg>
