<?xml version="1.0" encoding="UTF-8" standalone="no"?>
<!DOCTYPE svg PUBLIC "-//W3C//DTD SVG 1.1//EN"
 "http://www.w3.org/Graphics/SVG/1.1/DTD/svg11.dtd">
<!-- Generated by graphviz version 12.2.1 (20241206.2353)
 -->
<!-- Title: LessonDialog::create_child_check_box Pages: 1 -->
<svg width="598pt" height="112pt"
 viewBox="0.00 0.00 597.75 112.00" xmlns="http://www.w3.org/2000/svg" xmlns:xlink="http://www.w3.org/1999/xlink">
<g id="graph0" class="graph" transform="scale(1 1) rotate(0) translate(4 108)">
<title>LessonDialog::create_child_check_box</title>
<!-- Node1 -->
<g id="Node000001" class="node">
<title>Node1</title>
<g id="a_Node000001"><a xlink:title="Creates a checkbox for a child.">
<polygon fill="#999999" stroke="#666666" points="589.75,-57 481.5,-57 481.5,-25 589.75,-25 589.75,-57"/>
<text text-anchor="start" x="489.5" y="-43.5" font-family="Helvetica,sans-Serif" font-size="10.00">LessonDialog::create</text>
<text text-anchor="middle" x="535.62" y="-31.5" font-family="Helvetica,sans-Serif" font-size="10.00">_child_check_box</text>
</a>
</g>
</g>
<!-- Node2 -->
<g id="Node000002" class="node">
<title>Node2</title>
<g id="a_Node000002"><a xlink:href="class_lesson_dialog.html#a375a77c87696df60e0cbab9da70b7a67" target="_top" xlink:title="Populates the dialog with children and employees.">
<polygon fill="white" stroke="#666666" points="445.5,-82 327.5,-82 327.5,-50 445.5,-50 445.5,-82"/>
<text text-anchor="start" x="335.5" y="-68.5" font-family="Helvetica,sans-Serif" font-size="10.00">LessonDialog::populate</text>
<text text-anchor="middle" x="386.5" y="-56.5" font-family="Helvetica,sans-Serif" font-size="10.00">_children</text>
</a>
</g>
</g>
<!-- Node1&#45;&gt;Node2 -->
<g id="edge1_Node000001_Node000002" class="edge">
<title>Node1&#45;&gt;Node2</title>
<g id="a_edge1_Node000001_Node000002"><a xlink:title=" ">
<path fill="none" stroke="#63b8ff" d="M469.94,-51.99C461.96,-53.35 453.84,-54.73 445.96,-56.07"/>
<polygon fill="#63b8ff" stroke="#63b8ff" points="470.33,-55.48 479.6,-50.35 469.16,-48.57 470.33,-55.48"/>
</a>
</g>
</g>
<!-- Node5 -->
<g id="Node000005" class="node">
<title>Node5</title>
<g id="a_Node000005"><a xlink:href="class_lesson_dialog.html#a40a5c419190d1c9f667a71bd9706c3cf" target="_top" xlink:title="Populates the dialog with children and employees.">
<polygon fill="white" stroke="#666666" points="445.5,-32 327.5,-32 327.5,0 445.5,0 445.5,-32"/>
<text text-anchor="start" x="335.5" y="-18.5" font-family="Helvetica,sans-Serif" font-size="10.00">LessonDialog::populate</text>
<text text-anchor="middle" x="386.5" y="-6.5" font-family="Helvetica,sans-Serif" font-size="10.00">_children</text>
</a>
</g>
</g>
<!-- Node1&#45;&gt;Node5 -->
<g id="edge5_Node000001_Node000005" class="edge">
<title>Node1&#45;&gt;Node5</title>
<g id="a_edge5_Node000001_Node000005"><a xlink:title=" ">
<path fill="none" stroke="#63b8ff" d="M469.94,-30.01C461.96,-28.65 453.84,-27.27 445.96,-25.93"/>
<polygon fill="#63b8ff" stroke="#63b8ff" points="469.16,-33.43 479.6,-31.65 470.33,-26.52 469.16,-33.43"/>
</a>
</g>
</g>
<!-- Node3 -->
<g id="Node000003" class="node">
<title>Node3</title>
<g id="a_Node000003"><a xlink:href="class_lesson_dialog.html#ac10e391b7a2221ff937a30ccf61124b2" target="_top" xlink:title="Searches for children based on the input in the name and surname fields.">
<polygon fill="white" stroke="#666666" points="291.5,-104 176.5,-104 176.5,-72 291.5,-72 291.5,-104"/>
<text text-anchor="start" x="184.5" y="-90.5" font-family="Helvetica,sans-Serif" font-size="10.00">LessonDialog::children</text>
<text text-anchor="middle" x="234" y="-78.5" font-family="Helvetica,sans-Serif" font-size="10.00">_search</text>
</a>
</g>
</g>
<!-- Node2&#45;&gt;Node3 -->
<g id="edge2_Node000002_Node000003" class="edge">
<title>Node2&#45;&gt;Node3</title>
<g id="a_edge2_Node000002_Node000003"><a xlink:title=" ">
<path fill="none" stroke="#63b8ff" d="M316.17,-76.14C307.92,-77.34 299.58,-78.56 291.55,-79.73"/>
<polygon fill="#63b8ff" stroke="#63b8ff" points="316.43,-79.63 325.82,-74.72 315.41,-72.71 316.43,-79.63"/>
</a>
</g>
</g>
<!-- Node4 -->
<g id="Node000004" class="node">
<title>Node4</title>
<g id="a_Node000004"><a xlink:href="class_lesson_dialog.html#a4ddf55a3925f45bd1cd3ecef02c261d5" target="_top" xlink:title="Constructs a LessonDialog object.">
<polygon fill="white" stroke="#666666" points="140.5,-76 0,-76 0,-56 140.5,-56 140.5,-76"/>
<text text-anchor="middle" x="70.25" y="-62.5" font-family="Helvetica,sans-Serif" font-size="10.00">LessonDialog::LessonDialog</text>
</a>
</g>
</g>
<!-- Node2&#45;&gt;Node4 -->
<g id="edge4_Node000002_Node000004" class="edge">
<title>Node2&#45;&gt;Node4</title>
<g id="a_edge4_Node000002_Node000004"><a xlink:title=" ">
<path fill="none" stroke="#63b8ff" d="M315.65,-63.52C307.51,-63.31 299.32,-63.12 291.5,-63 240.4,-62.18 227.61,-62.27 176.5,-63 164.98,-63.16 152.76,-63.43 140.88,-63.74"/>
<polygon fill="#63b8ff" stroke="#63b8ff" points="315.48,-67.02 325.58,-63.8 315.68,-60.02 315.48,-67.02"/>
</a>
</g>
</g>
<!-- Node3&#45;&gt;Node4 -->
<g id="edge3_Node000003_Node000004" class="edge">
<title>Node3&#45;&gt;Node4</title>
<g id="a_edge3_Node000003_Node000004"><a xlink:title=" ">
<path fill="none" stroke="#63b8ff" d="M165.21,-78.78C157.17,-77.69 148.95,-76.57 140.88,-75.47"/>
<polygon fill="#63b8ff" stroke="#63b8ff" points="164.55,-82.22 174.93,-80.1 165.49,-75.29 164.55,-82.22"/>
</a>
</g>
</g>
</g>
</svg>
