<?xml version="1.0" encoding="UTF-8" standalone="no"?>
<!DOCTYPE svg PUBLIC "-//W3C//DTD SVG 1.1//EN"
 "http://www.w3.org/Graphics/SVG/1.1/DTD/svg11.dtd">
<!-- Generated by graphviz version 12.2.1 (20241206.2353)
 -->
<!-- Title: Child Pages: 1 -->
<svg width="300pt" height="937pt"
 viewBox="0.00 0.00 300.38 937.00" xmlns="http://www.w3.org/2000/svg" xmlns:xlink="http://www.w3.org/1999/xlink">
<g id="graph0" class="graph" transform="scale(1 1) rotate(0) translate(4 933)">
<title>Child</title>
<!-- Node1 -->
<g id="Node000001" class="node">
<title>Node1</title>
<g id="a_Node000001"><a xlink:title="Represents a child.">
<polygon fill="#999999" stroke="none" points="144,-212 68.25,-212 68.25,0 144,0 144,-212"/>
<text text-anchor="start" x="94.88" y="-198.5" font-family="Helvetica,sans-Serif" font-size="10.00">Child</text>
<text text-anchor="start" x="104.62" y="-182.5" font-family="Helvetica,sans-Serif" font-size="10.00"> </text>
<text text-anchor="start" x="72.25" y="-166.5" font-family="Helvetica,sans-Serif" font-size="10.00">+</text>
<text text-anchor="start" x="82.25" y="-166.5" font-family="Helvetica,sans-Serif" font-size="10.00">Child()</text>
<text text-anchor="start" x="72.25" y="-150.5" font-family="Helvetica,sans-Serif" font-size="10.00">+</text>
<text text-anchor="start" x="82.25" y="-150.5" font-family="Helvetica,sans-Serif" font-size="10.00">Child()</text>
<text text-anchor="start" x="72.25" y="-134.5" font-family="Helvetica,sans-Serif" font-size="10.00">+</text>
<text text-anchor="start" x="82.25" y="-134.5" font-family="Helvetica,sans-Serif" font-size="10.00">Child()</text>
<text text-anchor="start" x="72.25" y="-118.5" font-family="Helvetica,sans-Serif" font-size="10.00">+</text>
<text text-anchor="start" x="82.25" y="-118.5" font-family="Helvetica,sans-Serif" font-size="10.00">Child()</text>
<text text-anchor="start" x="72.25" y="-102.5" font-family="Helvetica,sans-Serif" font-size="10.00">+</text>
<text text-anchor="start" x="82.25" y="-102.5" font-family="Helvetica,sans-Serif" font-size="10.00">Child()</text>
<text text-anchor="start" x="72.25" y="-86.5" font-family="Helvetica,sans-Serif" font-size="10.00">+</text>
<text text-anchor="start" x="82.25" y="-86.5" font-family="Helvetica,sans-Serif" font-size="10.00">operator=()</text>
<text text-anchor="start" x="72.25" y="-70.5" font-family="Helvetica,sans-Serif" font-size="10.00">+</text>
<text text-anchor="start" x="82.25" y="-70.5" font-family="Helvetica,sans-Serif" font-size="10.00">operator=()</text>
<text text-anchor="start" x="72.25" y="-54.5" font-family="Helvetica,sans-Serif" font-size="10.00">+</text>
<text text-anchor="start" x="82.25" y="-54.5" font-family="Helvetica,sans-Serif" font-size="10.00">operator==()</text>
<text text-anchor="start" x="72.25" y="-38.5" font-family="Helvetica,sans-Serif" font-size="10.00">+</text>
<text text-anchor="start" x="82.25" y="-38.5" font-family="Helvetica,sans-Serif" font-size="10.00">operator!=()</text>
<text text-anchor="start" x="72.25" y="-22.5" font-family="Helvetica,sans-Serif" font-size="10.00">+</text>
<text text-anchor="start" x="82.25" y="-22.5" font-family="Helvetica,sans-Serif" font-size="10.00">get_age()</text>
<text text-anchor="start" x="82.25" y="-6.5" font-family="Helvetica,sans-Serif" font-size="10.00">and 7 more...</text>
<polygon fill="#666666" stroke="#666666" points="68.25,-194 68.25,-194 144,-194 144,-194 68.25,-194"/>
<polygon fill="#666666" stroke="#666666" points="68.25,-178 68.25,-178 144,-178 144,-178 68.25,-178"/>
<polygon fill="none" stroke="#666666" points="68.25,0 68.25,-212 144,-212 144,0 68.25,0"/>
</a>
</g>
</g>
<!-- Node2 -->
<g id="Node000002" class="node">
<title>Node2</title>
<g id="a_Node000002"><a xlink:href="class_person.html" target="_top" xlink:title="Represents a generic person.">
<polygon fill="white" stroke="none" points="80.25,-840 0,-840 0,-564 80.25,-564 80.25,-840"/>
<text text-anchor="start" x="24.75" y="-826.5" font-family="Helvetica,sans-Serif" font-size="10.00">Person</text>
<text text-anchor="start" x="4.38" y="-810.5" font-family="Helvetica,sans-Serif" font-size="10.00">#</text>
<text text-anchor="start" x="14" y="-810.5" font-family="Helvetica,sans-Serif" font-size="10.00">name_</text>
<text text-anchor="start" x="4.38" y="-794.5" font-family="Helvetica,sans-Serif" font-size="10.00">#</text>
<text text-anchor="start" x="14" y="-794.5" font-family="Helvetica,sans-Serif" font-size="10.00">surname_</text>
<text text-anchor="start" x="4" y="-778.5" font-family="Helvetica,sans-Serif" font-size="10.00">+</text>
<text text-anchor="start" x="14" y="-778.5" font-family="Helvetica,sans-Serif" font-size="10.00">Person()</text>
<text text-anchor="start" x="4" y="-762.5" font-family="Helvetica,sans-Serif" font-size="10.00">+</text>
<text text-anchor="start" x="14" y="-762.5" font-family="Helvetica,sans-Serif" font-size="10.00">Person()</text>
<text text-anchor="start" x="4" y="-746.5" font-family="Helvetica,sans-Serif" font-size="10.00">+</text>
<text text-anchor="start" x="14" y="-746.5" font-family="Helvetica,sans-Serif" font-size="10.00">Person()</text>
<text text-anchor="start" x="4" y="-730.5" font-family="Helvetica,sans-Serif" font-size="10.00">+</text>
<text text-anchor="start" x="14" y="-730.5" font-family="Helvetica,sans-Serif" font-size="10.00">Person()</text>
<text text-anchor="start" x="4" y="-714.5" font-family="Helvetica,sans-Serif" font-size="10.00">+</text>
<text text-anchor="start" x="14" y="-714.5" font-family="Helvetica,sans-Serif" font-size="10.00">Person()</text>
<text text-anchor="start" x="4" y="-698.5" font-family="Helvetica,sans-Serif" font-size="10.00">+</text>
<text text-anchor="start" x="14" y="-698.5" font-family="Helvetica,sans-Serif" font-size="10.00">operator=()</text>
<text text-anchor="start" x="4" y="-682.5" font-family="Helvetica,sans-Serif" font-size="10.00">+</text>
<text text-anchor="start" x="14" y="-682.5" font-family="Helvetica,sans-Serif" font-size="10.00">operator=()</text>
<text text-anchor="start" x="4" y="-666.5" font-family="Helvetica,sans-Serif" font-size="10.00">+</text>
<text text-anchor="start" x="14" y="-666.5" font-family="Helvetica,sans-Serif" font-size="10.00">operator==()</text>
<text text-anchor="start" x="4" y="-650.5" font-family="Helvetica,sans-Serif" font-size="10.00">+</text>
<text text-anchor="start" x="14" y="-650.5" font-family="Helvetica,sans-Serif" font-size="10.00">operator!=()</text>
<text text-anchor="start" x="4" y="-634.5" font-family="Helvetica,sans-Serif" font-size="10.00">+</text>
<text text-anchor="start" x="14" y="-634.5" font-family="Helvetica,sans-Serif" font-size="10.00">get_name()</text>
<text text-anchor="start" x="4" y="-618.5" font-family="Helvetica,sans-Serif" font-size="10.00">+</text>
<text text-anchor="start" x="14" y="-618.5" font-family="Helvetica,sans-Serif" font-size="10.00">set_name()</text>
<text text-anchor="start" x="4" y="-602.5" font-family="Helvetica,sans-Serif" font-size="10.00">+</text>
<text text-anchor="start" x="14" y="-602.5" font-family="Helvetica,sans-Serif" font-size="10.00">get_surname()</text>
<text text-anchor="start" x="4" y="-586.5" font-family="Helvetica,sans-Serif" font-size="10.00">+</text>
<text text-anchor="start" x="14" y="-586.5" font-family="Helvetica,sans-Serif" font-size="10.00">set_surname()</text>
<text text-anchor="start" x="4" y="-570.5" font-family="Helvetica,sans-Serif" font-size="10.00">+</text>
<text text-anchor="start" x="14" y="-570.5" font-family="Helvetica,sans-Serif" font-size="10.00">~Person()</text>
<polygon fill="#666666" stroke="#666666" points="0,-822 0,-822 80.25,-822 80.25,-822 0,-822"/>
<polygon fill="#666666" stroke="#666666" points="0,-790 0,-790 12,-790 12,-790 0,-790"/>
<polygon fill="#666666" stroke="#666666" points="12,-790 12,-790 80.25,-790 80.25,-790 12,-790"/>
<polygon fill="none" stroke="#666666" points="0,-564 0,-840 80.25,-840 80.25,-564 0,-564"/>
</a>
</g>
</g>
<!-- Node2&#45;&gt;Node1 -->
<g id="edge1_Node000001_Node000002" class="edge">
<title>Node2&#45;&gt;Node1</title>
<g id="a_edge1_Node000001_Node000002"><a xlink:title=" ">
<path fill="none" stroke="#63b8ff" d="M38.21,-553.13C39.24,-470.03 44.08,-364.69 59.12,-272 62.32,-252.3 67.06,-231.61 72.33,-211.8"/>
<polygon fill="none" stroke="#63b8ff" points="34.71,-552.89 38.1,-562.93 41.71,-552.96 34.71,-552.89"/>
</a>
</g>
</g>
<!-- Node4 -->
<g id="Node000004" class="node">
<title>Node4</title>
<g id="a_Node000004"><a xlink:href="class_parent.html" target="_top" xlink:title="Represents a parent.">
<polygon fill="white" stroke="none" points="144,-508 68.25,-508 68.25,-280 144,-280 144,-508"/>
<text text-anchor="start" x="91.88" y="-494.5" font-family="Helvetica,sans-Serif" font-size="10.00">Parent</text>
<text text-anchor="start" x="72.62" y="-478.5" font-family="Helvetica,sans-Serif" font-size="10.00">#</text>
<text text-anchor="start" x="82.25" y="-478.5" font-family="Helvetica,sans-Serif" font-size="10.00">is_mother_</text>
<text text-anchor="start" x="72.62" y="-462.5" font-family="Helvetica,sans-Serif" font-size="10.00">#</text>
<text text-anchor="start" x="82.25" y="-462.5" font-family="Helvetica,sans-Serif" font-size="10.00">children_</text>
<text text-anchor="start" x="72.25" y="-446.5" font-family="Helvetica,sans-Serif" font-size="10.00">+</text>
<text text-anchor="start" x="82.25" y="-446.5" font-family="Helvetica,sans-Serif" font-size="10.00">Parent()</text>
<text text-anchor="start" x="72.25" y="-430.5" font-family="Helvetica,sans-Serif" font-size="10.00">+</text>
<text text-anchor="start" x="82.25" y="-430.5" font-family="Helvetica,sans-Serif" font-size="10.00">Parent()</text>
<text text-anchor="start" x="72.25" y="-414.5" font-family="Helvetica,sans-Serif" font-size="10.00">+</text>
<text text-anchor="start" x="82.25" y="-414.5" font-family="Helvetica,sans-Serif" font-size="10.00">Parent()</text>
<text text-anchor="start" x="72.25" y="-398.5" font-family="Helvetica,sans-Serif" font-size="10.00">+</text>
<text text-anchor="start" x="82.25" y="-398.5" font-family="Helvetica,sans-Serif" font-size="10.00">Parent()</text>
<text text-anchor="start" x="72.25" y="-382.5" font-family="Helvetica,sans-Serif" font-size="10.00">+</text>
<text text-anchor="start" x="82.25" y="-382.5" font-family="Helvetica,sans-Serif" font-size="10.00">Parent()</text>
<text text-anchor="start" x="72.25" y="-366.5" font-family="Helvetica,sans-Serif" font-size="10.00">+</text>
<text text-anchor="start" x="82.25" y="-366.5" font-family="Helvetica,sans-Serif" font-size="10.00">operator=()</text>
<text text-anchor="start" x="72.25" y="-350.5" font-family="Helvetica,sans-Serif" font-size="10.00">+</text>
<text text-anchor="start" x="82.25" y="-350.5" font-family="Helvetica,sans-Serif" font-size="10.00">operator=()</text>
<text text-anchor="start" x="72.25" y="-334.5" font-family="Helvetica,sans-Serif" font-size="10.00">+</text>
<text text-anchor="start" x="82.25" y="-334.5" font-family="Helvetica,sans-Serif" font-size="10.00">operator==()</text>
<text text-anchor="start" x="72.25" y="-318.5" font-family="Helvetica,sans-Serif" font-size="10.00">+</text>
<text text-anchor="start" x="82.25" y="-318.5" font-family="Helvetica,sans-Serif" font-size="10.00">operator!=()</text>
<text text-anchor="start" x="72.25" y="-302.5" font-family="Helvetica,sans-Serif" font-size="10.00">+</text>
<text text-anchor="start" x="82.25" y="-302.5" font-family="Helvetica,sans-Serif" font-size="10.00">get_email()</text>
<text text-anchor="start" x="82.25" y="-286.5" font-family="Helvetica,sans-Serif" font-size="10.00">and 9 more...</text>
<polygon fill="#666666" stroke="#666666" points="68.25,-490 68.25,-490 144,-490 144,-490 68.25,-490"/>
<polygon fill="#666666" stroke="#666666" points="68.25,-458 68.25,-458 80.25,-458 80.25,-458 68.25,-458"/>
<polygon fill="#666666" stroke="#666666" points="80.25,-458 80.25,-458 144,-458 144,-458 80.25,-458"/>
<polygon fill="none" stroke="#666666" points="68.25,-280 68.25,-508 144,-508 144,-280 68.25,-280"/>
</a>
</g>
</g>
<!-- Node2&#45;&gt;Node4 -->
<g id="edge4_Node000004_Node000002" class="edge">
<title>Node2&#45;&gt;Node4</title>
<g id="a_edge4_Node000004_Node000002"><a xlink:title=" ">
<path fill="none" stroke="#63b8ff" d="M72.03,-553.08C75.3,-537.9 78.59,-522.66 81.76,-507.94"/>
<polygon fill="none" stroke="#63b8ff" points="68.66,-552.12 69.97,-562.63 75.5,-553.59 68.66,-552.12"/>
</a>
</g>
</g>
<!-- Node3 -->
<g id="Node000003" class="node">
<title>Node3</title>
<g id="a_Node000003"><a xlink:href="class_date.html" target="_top" xlink:title="Represents a date (day, month, year).">
<polygon fill="white" stroke="none" points="292.38,-516 161.88,-516 161.88,-272 292.38,-272 292.38,-516"/>
<text text-anchor="start" x="216.62" y="-502.5" font-family="Helvetica,sans-Serif" font-size="10.00">Date</text>
<text text-anchor="start" x="166.25" y="-486.5" font-family="Helvetica,sans-Serif" font-size="10.00">#</text>
<text text-anchor="start" x="175.88" y="-486.5" font-family="Helvetica,sans-Serif" font-size="10.00">date_</text>
<text text-anchor="start" x="165.88" y="-470.5" font-family="Helvetica,sans-Serif" font-size="10.00">+</text>
<text text-anchor="start" x="175.88" y="-470.5" font-family="Helvetica,sans-Serif" font-size="10.00">Date()</text>
<text text-anchor="start" x="165.88" y="-454.5" font-family="Helvetica,sans-Serif" font-size="10.00">+</text>
<text text-anchor="start" x="175.88" y="-454.5" font-family="Helvetica,sans-Serif" font-size="10.00">Date()</text>
<text text-anchor="start" x="165.88" y="-438.5" font-family="Helvetica,sans-Serif" font-size="10.00">+</text>
<text text-anchor="start" x="175.88" y="-438.5" font-family="Helvetica,sans-Serif" font-size="10.00">Date()</text>
<text text-anchor="start" x="165.88" y="-422.5" font-family="Helvetica,sans-Serif" font-size="10.00">+</text>
<text text-anchor="start" x="175.88" y="-422.5" font-family="Helvetica,sans-Serif" font-size="10.00">Date()</text>
<text text-anchor="start" x="165.88" y="-406.5" font-family="Helvetica,sans-Serif" font-size="10.00">+</text>
<text text-anchor="start" x="175.88" y="-406.5" font-family="Helvetica,sans-Serif" font-size="10.00">Date()</text>
<text text-anchor="start" x="165.88" y="-390.5" font-family="Helvetica,sans-Serif" font-size="10.00">+</text>
<text text-anchor="start" x="175.88" y="-390.5" font-family="Helvetica,sans-Serif" font-size="10.00">Date()</text>
<text text-anchor="start" x="165.88" y="-374.5" font-family="Helvetica,sans-Serif" font-size="10.00">+</text>
<text text-anchor="start" x="175.88" y="-374.5" font-family="Helvetica,sans-Serif" font-size="10.00">operator=()</text>
<text text-anchor="start" x="165.88" y="-358.5" font-family="Helvetica,sans-Serif" font-size="10.00">+</text>
<text text-anchor="start" x="175.88" y="-358.5" font-family="Helvetica,sans-Serif" font-size="10.00">operator=()</text>
<text text-anchor="start" x="165.88" y="-342.5" font-family="Helvetica,sans-Serif" font-size="10.00">+</text>
<text text-anchor="start" x="175.88" y="-342.5" font-family="Helvetica,sans-Serif" font-size="10.00">set_day()</text>
<text text-anchor="start" x="165.88" y="-326.5" font-family="Helvetica,sans-Serif" font-size="10.00">+</text>
<text text-anchor="start" x="175.88" y="-326.5" font-family="Helvetica,sans-Serif" font-size="10.00">get_day()</text>
<text text-anchor="start" x="175.88" y="-310.5" font-family="Helvetica,sans-Serif" font-size="10.00">and 15 more...</text>
<text text-anchor="start" x="165.88" y="-294.5" font-family="Helvetica,sans-Serif" font-size="10.00">+</text>
<text text-anchor="start" x="175.88" y="-294.5" font-family="Helvetica,sans-Serif" font-size="10.00">get_weekday_from_date()</text>
<text text-anchor="start" x="165.88" y="-278.5" font-family="Helvetica,sans-Serif" font-size="10.00">+</text>
<text text-anchor="start" x="175.88" y="-278.5" font-family="Helvetica,sans-Serif" font-size="10.00">get_current_date()</text>
<polygon fill="#666666" stroke="#666666" points="161.88,-498 161.88,-498 292.38,-498 292.38,-498 161.88,-498"/>
<polygon fill="#666666" stroke="#666666" points="161.88,-482 161.88,-482 173.88,-482 173.88,-482 161.88,-482"/>
<polygon fill="#666666" stroke="#666666" points="173.88,-482 173.88,-482 292.38,-482 292.38,-482 173.88,-482"/>
<polygon fill="none" stroke="#666666" points="161.88,-272 161.88,-516 292.38,-516 292.38,-272 161.88,-272"/>
</a>
</g>
</g>
<!-- Node3&#45;&gt;Node1 -->
<g id="edge2_Node000001_Node000003" class="edge">
<title>Node3&#45;&gt;Node1</title>
<g id="a_edge2_Node000001_Node000003"><a xlink:title=" ">
<path fill="none" stroke="#63b8ff" d="M175.99,-272.12C166.98,-250.84 157.69,-228.89 148.95,-208.21"/>
<polygon fill="none" stroke="#63b8ff" points="148.89,-208.09 142.87,-204.12 144.22,-197.03 150.24,-201 148.89,-208.09"/>
</a>
</g>
<text text-anchor="middle" x="194.75" y="-238.5" font-family="Helvetica,sans-Serif" font-size="10.00" fill="grey"> #birth_date_</text>
</g>
<!-- Node4&#45;&gt;Node1 -->
<g id="edge3_Node000001_Node000004" class="edge">
<title>Node4&#45;&gt;Node1</title>
<g id="a_edge3_Node000001_Node000004"><a xlink:title=" ">
<path fill="none" stroke="#63b8ff" d="M106.12,-280.38C106.12,-262.05 106.12,-243.02 106.12,-224.58"/>
<polygon fill="none" stroke="#63b8ff" points="106.13,-224.5 102.13,-218.5 106.13,-212.5 110.13,-218.5 106.13,-224.5"/>
</a>
</g>
<text text-anchor="middle" x="122.25" y="-244.5" font-family="Helvetica,sans-Serif" font-size="10.00" fill="grey"> #dad_</text>
<text text-anchor="middle" x="122.25" y="-232.5" font-family="Helvetica,sans-Serif" font-size="10.00" fill="grey">#mom_</text>
</g>
<!-- Node5 -->
<g id="Node000005" class="node">
<title>Node5</title>
<g id="a_Node000005"><a xlink:href="class_email.html" target="_top" xlink:title="Represents an email address.">
<polygon fill="white" stroke="none" points="169.75,-816 98.5,-816 98.5,-588 169.75,-588 169.75,-816"/>
<text text-anchor="start" x="121.75" y="-802.5" font-family="Helvetica,sans-Serif" font-size="10.00">Email</text>
<text text-anchor="start" x="104" y="-786.5" font-family="Helvetica,sans-Serif" font-size="10.00">&#45;</text>
<text text-anchor="start" x="112.5" y="-786.5" font-family="Helvetica,sans-Serif" font-size="10.00">email_</text>
<text text-anchor="start" x="102.5" y="-770.5" font-family="Helvetica,sans-Serif" font-size="10.00">+</text>
<text text-anchor="start" x="112.5" y="-770.5" font-family="Helvetica,sans-Serif" font-size="10.00">Email()</text>
<text text-anchor="start" x="102.5" y="-754.5" font-family="Helvetica,sans-Serif" font-size="10.00">+</text>
<text text-anchor="start" x="112.5" y="-754.5" font-family="Helvetica,sans-Serif" font-size="10.00">Email()</text>
<text text-anchor="start" x="102.5" y="-738.5" font-family="Helvetica,sans-Serif" font-size="10.00">+</text>
<text text-anchor="start" x="112.5" y="-738.5" font-family="Helvetica,sans-Serif" font-size="10.00">Email()</text>
<text text-anchor="start" x="102.5" y="-722.5" font-family="Helvetica,sans-Serif" font-size="10.00">+</text>
<text text-anchor="start" x="112.5" y="-722.5" font-family="Helvetica,sans-Serif" font-size="10.00">Email()</text>
<text text-anchor="start" x="102.5" y="-706.5" font-family="Helvetica,sans-Serif" font-size="10.00">+</text>
<text text-anchor="start" x="112.5" y="-706.5" font-family="Helvetica,sans-Serif" font-size="10.00">Email()</text>
<text text-anchor="start" x="102.5" y="-690.5" font-family="Helvetica,sans-Serif" font-size="10.00">+</text>
<text text-anchor="start" x="112.5" y="-690.5" font-family="Helvetica,sans-Serif" font-size="10.00">operator=()</text>
<text text-anchor="start" x="102.5" y="-674.5" font-family="Helvetica,sans-Serif" font-size="10.00">+</text>
<text text-anchor="start" x="112.5" y="-674.5" font-family="Helvetica,sans-Serif" font-size="10.00">operator=()</text>
<text text-anchor="start" x="102.5" y="-658.5" font-family="Helvetica,sans-Serif" font-size="10.00">+</text>
<text text-anchor="start" x="112.5" y="-658.5" font-family="Helvetica,sans-Serif" font-size="10.00">operator==()</text>
<text text-anchor="start" x="102.5" y="-642.5" font-family="Helvetica,sans-Serif" font-size="10.00">+</text>
<text text-anchor="start" x="112.5" y="-642.5" font-family="Helvetica,sans-Serif" font-size="10.00">get_email()</text>
<text text-anchor="start" x="102.5" y="-626.5" font-family="Helvetica,sans-Serif" font-size="10.00">+</text>
<text text-anchor="start" x="112.5" y="-626.5" font-family="Helvetica,sans-Serif" font-size="10.00">set_email()</text>
<text text-anchor="start" x="102.5" y="-610.5" font-family="Helvetica,sans-Serif" font-size="10.00">+</text>
<text text-anchor="start" x="112.5" y="-610.5" font-family="Helvetica,sans-Serif" font-size="10.00">copy()</text>
<text text-anchor="start" x="102.5" y="-594.5" font-family="Helvetica,sans-Serif" font-size="10.00">+</text>
<text text-anchor="start" x="112.5" y="-594.5" font-family="Helvetica,sans-Serif" font-size="10.00">~Email()</text>
<polygon fill="#666666" stroke="#666666" points="98.5,-798 98.5,-798 169.75,-798 169.75,-798 98.5,-798"/>
<polygon fill="#666666" stroke="#666666" points="98.5,-782 98.5,-782 110.5,-782 110.5,-782 98.5,-782"/>
<polygon fill="#666666" stroke="#666666" points="110.5,-782 110.5,-782 169.75,-782 169.75,-782 110.5,-782"/>
<polygon fill="none" stroke="#666666" points="98.5,-588 98.5,-816 169.75,-816 169.75,-588 98.5,-588"/>
</a>
</g>
</g>
<!-- Node5&#45;&gt;Node4 -->
<g id="edge5_Node000004_Node000005" class="edge">
<title>Node5&#45;&gt;Node4</title>
<g id="a_edge5_Node000004_Node000005"><a xlink:title=" ">
<path fill="none" stroke="#63b8ff" d="M123.82,-588.36C121.8,-566.32 119.67,-543.08 117.62,-520.64"/>
<polygon fill="none" stroke="#63b8ff" points="117.63,-520.76 113.1,-515.15 116.54,-508.81 121.07,-514.42 117.63,-520.76"/>
</a>
</g>
<text text-anchor="middle" x="137.66" y="-536.5" font-family="Helvetica,sans-Serif" font-size="10.00" fill="grey"> #email_</text>
</g>
<!-- Node6 -->
<g id="Node000006" class="node">
<title>Node6</title>
<g id="a_Node000006"><a xlink:href="class_contacts.html" target="_top" xlink:title="Base class for contact&#45;related utilities.">
<polygon fill="white" stroke="none" points="185.12,-929 83.12,-929 83.12,-877 185.12,-877 185.12,-929"/>
<text text-anchor="start" x="114.25" y="-915.5" font-family="Helvetica,sans-Serif" font-size="10.00">Contacts</text>
<text text-anchor="start" x="132.62" y="-899.5" font-family="Helvetica,sans-Serif" font-size="10.00"> </text>
<text text-anchor="start" x="87.12" y="-883.5" font-family="Helvetica,sans-Serif" font-size="10.00">#</text>
<text text-anchor="start" x="96.38" y="-883.5" font-family="Helvetica,sans-Serif" font-size="10.00">copy_to_clipboard()</text>
<polygon fill="#666666" stroke="#666666" points="83.12,-911 83.12,-911 185.12,-911 185.12,-911 83.12,-911"/>
<polygon fill="#666666" stroke="#666666" points="83.12,-895 83.12,-895 185.12,-895 185.12,-895 83.12,-895"/>
<polygon fill="none" stroke="#666666" points="83.12,-877 83.12,-929 185.12,-929 185.12,-877 83.12,-877"/>
</a>
</g>
</g>
<!-- Node6&#45;&gt;Node5 -->
<g id="edge6_Node000005_Node000006" class="edge">
<title>Node6&#45;&gt;Node5</title>
<g id="a_edge6_Node000005_Node000006"><a xlink:title=" ">
<path fill="none" stroke="#63b8ff" d="M134.12,-865.85C134.12,-851.41 134.12,-833.94 134.12,-815.87"/>
<polygon fill="none" stroke="#63b8ff" points="130.63,-865.69 134.13,-875.69 137.63,-865.69 130.63,-865.69"/>
</a>
</g>
</g>
</g>
</svg>
