<?xml version="1.0" encoding="UTF-8" standalone="no"?>
<!DOCTYPE svg PUBLIC "-//W3C//DTD SVG 1.1//EN"
 "http://www.w3.org/Graphics/SVG/1.1/DTD/svg11.dtd">
<!-- Generated by graphviz version 12.2.1 (20241206.2353)
 -->
<!-- Title: ParentEntry::childSearchRequested Pages: 1 -->
<!--zoomable 664 -->

<svg id="main" version="1.1" xmlns="http://www.w3.org/2000/svg" xmlns:xlink="http://www.w3.org/1999/xlink" xml:space="preserve" onload="init(evt)">

<style type="text/css"><![CDATA[
.node, .edge {opacity: 0.7;}
.node.selected, .edge.selected {opacity: 1;}
.edge:hover path { stroke: red; }
.edge:hover polygon { stroke: red; fill: red; }
]]></style>

<defs>
  <circle id="rim" cx="0" cy="0" r="7"/>
  <circle id="rim2" cx="0" cy="0" r="3.5"/>
  <g id="zoomPlus">
    <use xlink:href="#rim" fill="#404040"><set attributeName="fill" to="#808080" begin="zoomplus.mouseover" end="zoomplus.mouseout"/></use>
    <path d="M-4,0h8M0,-4v8" fill="none" stroke="white" stroke-width="1.5" pointer-events="none"/>
  </g>
  <g id="zoomMin">
    <use xlink:href="#rim" fill="#404040"><set attributeName="fill" to="#808080" begin="zoomminus.mouseover" end="zoomminus.mouseout"/></use>
    <path d="M-4,0h8" fill="none" stroke="white" stroke-width="1.5" pointer-events="none"/>
  </g>
  <g id="arrowUp" transform="translate(30 24)">
    <use xlink:href="#rim"/>
    <path pointer-events="none" fill="none" stroke="white" stroke-width="1.5" d="M0,-3.0v7 M-2.5,-0.5L0,-3.0L2.5,-0.5"/>
  </g>
  <g id="arrowRight" transform="rotate(90) translate(36 -43)">
    <use xlink:href="#rim"/>
    <path pointer-events="none" fill="none" stroke="white" stroke-width="1.5" d="M0,-3.0v7 M-2.5,-0.5L0,-3.0L2.5,-0.5"/>
  </g>
  <g id="arrowDown" transform="rotate(180) translate(-30 -48)">
    <use xlink:href="#rim"/>
    <path pointer-events="none" fill="none" stroke="white" stroke-width="1.5" d="M0,-3.0v7 M-2.5,-0.5L0,-3.0L2.5,-0.5"/>
  </g>
  <g id="arrowLeft" transform="rotate(270) translate(-36 17)">
    <use xlink:href="#rim"/>
    <path pointer-events="none" fill="none" stroke="white" stroke-width="1.5" d="M0,-3.0v7 M-2.5,-0.5L0,-3.0L2.5,-0.5"/>
  </g>
  <g id="resetDef">
    <use xlink:href="#rim2" fill="#404040"><set attributeName="fill" to="#808080" begin="reset.mouseover" end="reset.mouseout"/></use>
  </g>
</defs>
<script type="application/ecmascript">
var viewWidth = 1412;
var viewHeight = 664;
var sectionId = 'dynsection-3';
</script>
<script type="application/ecmascript" xlink:href="svg.min.js"/>
<svg id="graph" class="graph">
<g id="viewport">
<title>ParentEntry::childSearchRequested</title>
<!-- Node1 -->
<g id="Node000001" class="node">
<title>Node1</title>
<g id="a_Node000001"><a xlink:title="Signal emitted when a child search is requested.">
<polygon fill="#999999" stroke="#666666" points="1404,-536 1279.25,-536 1279.25,-504 1404,-504 1404,-536"/>
<text text-anchor="start" x="1287.25" y="-522.5" font-family="Helvetica,sans-Serif" font-size="10.00">ParentEntry::childSearch</text>
<text text-anchor="middle" x="1341.62" y="-510.5" font-family="Helvetica,sans-Serif" font-size="10.00">Requested</text>
</a>
</g>
</g>
<!-- Node2 -->
<g id="Node000002" class="node">
<title>Node2</title>
<g id="a_Node000002"><a xlink:href="class_data_base_g_u_i.html#a33f2f95926f7b4b05227dcf395e235d3" target="_top" xlink:title="Populates the parent tab with a multimap of parents.">
<polygon fill="white" stroke="#666666" points="301.25,-583 181,-583 181,-551 301.25,-551 301.25,-583"/>
<text text-anchor="start" x="189" y="-569.5" font-family="Helvetica,sans-Serif" font-size="10.00">DataBaseGUI::populate</text>
<text text-anchor="middle" x="241.12" y="-557.5" font-family="Helvetica,sans-Serif" font-size="10.00">_parent_tab</text>
</a>
</g>
</g>
<!-- Node1&#45;&gt;Node2 -->
<g id="edge1_Node000001_Node000002" class="edge">
<title>Node1&#45;&gt;Node2</title>
<g id="a_edge1_Node000001_Node000002"><a xlink:title=" ">
<path fill="none" stroke="#63b8ff" d="M1309.49,-542.87C1254.87,-580.66 1136.96,-652 1025.25,-652 1025.25,-652 1025.25,-652 563.88,-652 462.8,-652 432.37,-667.19 337.25,-633 306.99,-622.12 277.39,-599.06 259.46,-583.29"/>
<polygon fill="#63b8ff" stroke="#63b8ff" points="1311.22,-545.93 1317.39,-537.32 1307.19,-540.21 1311.22,-545.93"/>
</a>
</g>
</g>
<!-- Node3 -->
<g id="Node000003" class="node">
<title>Node3</title>
<g id="a_Node000003"><a xlink:href="class_data_base_g_u_i.html#a739b2cf48c0cb6e3cab2da0a7bbd6d6d" target="_top" xlink:title="Populates the parent tab with a list of parents.">
<polygon fill="white" stroke="#666666" points="1243.25,-536 1123,-536 1123,-504 1243.25,-504 1243.25,-536"/>
<text text-anchor="start" x="1131" y="-522.5" font-family="Helvetica,sans-Serif" font-size="10.00">DataBaseGUI::populate</text>
<text text-anchor="middle" x="1183.12" y="-510.5" font-family="Helvetica,sans-Serif" font-size="10.00">_parent_tab</text>
</a>
</g>
</g>
<!-- Node1&#45;&gt;Node3 -->
<g id="edge2_Node000001_Node000003" class="edge">
<title>Node1&#45;&gt;Node3</title>
<g id="a_edge2_Node000001_Node000003"><a xlink:title=" ">
<path fill="none" stroke="#63b8ff" d="M1267.29,-520C1259.4,-520 1251.44,-520 1243.74,-520"/>
<polygon fill="#63b8ff" stroke="#63b8ff" points="1267.26,-523.5 1277.26,-520 1267.26,-516.5 1267.26,-523.5"/>
</a>
</g>
</g>
<!-- Node25 -->
<g id="Node000025" class="node">
<title>Node25</title>
<g id="a_Node000025"><a xlink:href="class_parent_entry.html#afbc19a7aa219add3dd8efa219c1b713d" target="_top" xlink:title="Sets up the parent entry widget.">
<polygon fill="white" stroke="#666666" points="1232,-448 1134.25,-448 1134.25,-416 1232,-416 1232,-448"/>
<text text-anchor="start" x="1142.25" y="-434.5" font-family="Helvetica,sans-Serif" font-size="10.00">ParentEntry::setup</text>
<text text-anchor="middle" x="1183.12" y="-422.5" font-family="Helvetica,sans-Serif" font-size="10.00">_parent</text>
</a>
</g>
</g>
<!-- Node1&#45;&gt;Node25 -->
<g id="edge43_Node000001_Node000025" class="edge">
<title>Node1&#45;&gt;Node25</title>
<g id="a_edge43_Node000001_Node000025"><a xlink:title=" ">
<path fill="none" stroke="#63b8ff" d="M1301.53,-498.02C1274.16,-482.63 1238.18,-462.4 1213.3,-448.41"/>
<polygon fill="#63b8ff" stroke="#63b8ff" points="1299.8,-501.06 1310.24,-502.91 1303.24,-494.96 1299.8,-501.06"/>
</a>
</g>
</g>
<!-- Node4 -->
<g id="Node000004" class="node">
<title>Node4</title>
<g id="a_Node000004"><a xlink:href="class_data_base_g_u_i.html#a7c3d843eec449d8a4ec5ce6bf0375358" target="_top" xlink:title="Searches for parents based on the provided name and surname.">
<polygon fill="white" stroke="#666666" points="1079.5,-410 969,-410 969,-378 1079.5,-378 1079.5,-410"/>
<text text-anchor="start" x="977" y="-396.5" font-family="Helvetica,sans-Serif" font-size="10.00">DataBaseGUI::parent</text>
<text text-anchor="middle" x="1024.25" y="-384.5" font-family="Helvetica,sans-Serif" font-size="10.00">_search</text>
</a>
</g>
</g>
<!-- Node3&#45;&gt;Node4 -->
<g id="edge3_Node000003_Node000004" class="edge">
<title>Node3&#45;&gt;Node4</title>
<g id="a_edge3_Node000003_Node000004"><a xlink:title=" ">
<path fill="none" stroke="#63b8ff" d="M1152.93,-496.55C1121.75,-471.5 1073.13,-432.46 1045.76,-410.48"/>
<polygon fill="#63b8ff" stroke="#63b8ff" points="1150.45,-499.05 1160.44,-502.58 1154.83,-493.59 1150.45,-499.05"/>
</a>
</g>
</g>
<!-- Node20 -->
<g id="Node000020" class="node">
<title>Node20</title>
<g id="a_Node000020"><a xlink:href="class_data_base_g_u_i.html#a625b5e2018395a458ff517bbf364e1bf" target="_top" xlink:title="Selects the appropriate sorting to use based on parent sort index.">
<polygon fill="white" stroke="#666666" points="621.62,-454 508.12,-454 508.12,-422 621.62,-422 621.62,-454"/>
<text text-anchor="start" x="516.12" y="-440.5" font-family="Helvetica,sans-Serif" font-size="10.00">DataBaseGUI::sort_to</text>
<text text-anchor="middle" x="564.88" y="-428.5" font-family="Helvetica,sans-Serif" font-size="10.00">_populate_parent_tab</text>
</a>
</g>
</g>
<!-- Node3&#45;&gt;Node20 -->
<g id="edge31_Node000003_Node000020" class="edge">
<title>Node3&#45;&gt;Node20</title>
<g id="a_edge31_Node000003_Node000020"><a xlink:title=" ">
<path fill="none" stroke="#63b8ff" d="M1111.49,-531.56C1103.25,-532.57 1094.95,-533.42 1087,-534 1031.37,-538.07 1016.88,-540.62 961.5,-534 835.36,-518.91 691.31,-477.68 616.69,-454.46"/>
<polygon fill="#63b8ff" stroke="#63b8ff" points="1111.68,-535.07 1121.15,-530.31 1110.78,-528.13 1111.68,-535.07"/>
</a>
</g>
</g>
<!-- Node5 -->
<g id="Node000005" class="node">
<title>Node5</title>
<g id="a_Node000005"><a xlink:href="class_data_base_g_u_i.html#a8e1fe573ef6a09e112989968ec1a2b43" target="_top" xlink:title="Searches for parents based on the provided parent pointer.">
<polygon fill="white" stroke="#666666" points="925.5,-183 815,-183 815,-151 925.5,-151 925.5,-183"/>
<text text-anchor="start" x="823" y="-169.5" font-family="Helvetica,sans-Serif" font-size="10.00">DataBaseGUI::parent</text>
<text text-anchor="middle" x="870.25" y="-157.5" font-family="Helvetica,sans-Serif" font-size="10.00">_search_by_pointer</text>
</a>
</g>
</g>
<!-- Node4&#45;&gt;Node5 -->
<g id="edge4_Node000004_Node000005" class="edge">
<title>Node4&#45;&gt;Node5</title>
<g id="a_edge4_Node000004_Node000005"><a xlink:title=" ">
<path fill="none" stroke="#63b8ff" d="M963.42,-370.77C962.76,-370.19 962.12,-369.6 961.5,-369 905.81,-315.25 881.87,-220.97 874.21,-183.26"/>
<polygon fill="#63b8ff" stroke="#63b8ff" points="961.3,-373.55 971.44,-376.61 965.42,-367.89 961.3,-373.55"/>
</a>
</g>
</g>
<!-- Node10 -->
<g id="Node000010" class="node">
<title>Node10</title>
<g id="a_Node000010"><a xlink:href="class_data_base_g_u_i.html#a6c35e47ed05a80db144f240dee805a9d" target="_top" xlink:title="Sets up the GUI.">
<polygon fill="white" stroke="#666666" points="294.88,-322 187.38,-322 187.38,-302 294.88,-302 294.88,-322"/>
<text text-anchor="middle" x="241.12" y="-308.5" font-family="Helvetica,sans-Serif" font-size="10.00">DataBaseGUI::setup</text>
</a>
</g>
</g>
<!-- Node4&#45;&gt;Node10 -->
<g id="edge30_Node000004_Node000010" class="edge">
<title>Node4&#45;&gt;Node10</title>
<g id="a_edge30_Node000004_Node000010"><a xlink:title=" ">
<path fill="none" stroke="#63b8ff" d="M957.48,-378.88C896.3,-366.15 802.42,-350 719.88,-350 719.88,-350 719.88,-350 563.88,-350 468.68,-350 358.72,-333.39 295.13,-322.13"/>
<polygon fill="#63b8ff" stroke="#63b8ff" points="956.53,-382.26 967.03,-380.9 957.97,-375.41 956.53,-382.26"/>
</a>
</g>
</g>
<!-- Node6 -->
<g id="Node000006" class="node">
<title>Node6</title>
<g id="a_Node000006"><a xlink:href="class_data_base_g_u_i.html#a334c0011a9d3a71539b326a888feccd3" target="_top" xlink:title="Populates the children tab with a multimap of children.">
<polygon fill="white" stroke="#666666" points="301.25,-76 181,-76 181,-44 301.25,-44 301.25,-76"/>
<text text-anchor="start" x="189" y="-62.5" font-family="Helvetica,sans-Serif" font-size="10.00">DataBaseGUI::populate</text>
<text text-anchor="middle" x="241.12" y="-50.5" font-family="Helvetica,sans-Serif" font-size="10.00">_children_tab</text>
</a>
</g>
</g>
<!-- Node5&#45;&gt;Node6 -->
<g id="edge5_Node000005_Node000006" class="edge">
<title>Node5&#45;&gt;Node6</title>
<g id="a_edge5_Node000005_Node000006"><a xlink:title=" ">
<path fill="none" stroke="#63b8ff" d="M803.53,-147.74C795.31,-145.64 786.99,-143.67 779,-142 584.87,-101.44 532.73,-112.44 337.25,-79 325.71,-77.03 313.43,-74.72 301.65,-72.42"/>
<polygon fill="#63b8ff" stroke="#63b8ff" points="802.62,-151.12 813.18,-150.28 804.39,-144.35 802.62,-151.12"/>
</a>
</g>
</g>
<!-- Node7 -->
<g id="Node000007" class="node">
<title>Node7</title>
<g id="a_Node000007"><a xlink:href="class_data_base_g_u_i.html#af346d08370d9e4574980707f61b9c8f7" target="_top" xlink:title="Populates the children tab with a list of children.">
<polygon fill="white" stroke="#666666" points="779,-183 658.75,-183 658.75,-151 779,-151 779,-183"/>
<text text-anchor="start" x="666.75" y="-169.5" font-family="Helvetica,sans-Serif" font-size="10.00">DataBaseGUI::populate</text>
<text text-anchor="middle" x="718.88" y="-157.5" font-family="Helvetica,sans-Serif" font-size="10.00">_children_tab</text>
</a>
</g>
</g>
<!-- Node5&#45;&gt;Node7 -->
<g id="edge6_Node000005_Node000007" class="edge">
<title>Node5&#45;&gt;Node7</title>
<g id="a_edge6_Node000005_Node000007"><a xlink:title=" ">
<path fill="none" stroke="#63b8ff" d="M803.66,-167C795.62,-167 787.43,-167 779.48,-167"/>
<polygon fill="#63b8ff" stroke="#63b8ff" points="803.39,-170.5 813.39,-167 803.39,-163.5 803.39,-170.5"/>
</a>
</g>
</g>
<!-- Node8 -->
<g id="Node000008" class="node">
<title>Node8</title>
<g id="a_Node000008"><a xlink:href="class_data_base_g_u_i.html#a2d921da686e76ae195da018bb735a1ae" target="_top" xlink:title="Searches for children based on the provided name and surname.">
<polygon fill="white" stroke="#666666" points="616.75,-580 513,-580 513,-548 616.75,-548 616.75,-580"/>
<text text-anchor="start" x="521" y="-566.5" font-family="Helvetica,sans-Serif" font-size="10.00">DataBaseGUI::child</text>
<text text-anchor="middle" x="564.88" y="-554.5" font-family="Helvetica,sans-Serif" font-size="10.00">_search</text>
</a>
</g>
</g>
<!-- Node7&#45;&gt;Node8 -->
<g id="edge7_Node000007_Node000008" class="edge">
<title>Node7&#45;&gt;Node8</title>
<g id="a_edge7_Node000007_Node000008"><a xlink:title=" ">
<path fill="none" stroke="#63b8ff" d="M711.08,-194.3C697.47,-247.31 664.54,-367.35 622.75,-463 609.13,-494.16 588.71,-528.2 576.4,-547.73"/>
<polygon fill="#63b8ff" stroke="#63b8ff" points="714.39,-195.49 713.46,-184.93 707.61,-193.76 714.39,-195.49"/>
</a>
</g>
</g>
<!-- Node7&#45;&gt;Node10 -->
<g id="edge14_Node000007_Node000010" class="edge">
<title>Node7&#45;&gt;Node10</title>
<g id="a_edge14_Node000007_Node000010"><a xlink:title=" ">
<path fill="none" stroke="#63b8ff" d="M684.18,-189.62C638.22,-219.17 552.28,-269.86 471,-293 412.33,-309.7 342.03,-313.23 294.97,-313.36"/>
<polygon fill="#63b8ff" stroke="#63b8ff" points="685.88,-192.69 692.36,-184.3 682.07,-186.82 685.88,-192.69"/>
</a>
</g>
</g>
<!-- Node13 -->
<g id="Node000013" class="node">
<title>Node13</title>
<g id="a_Node000013"><a xlink:href="class_data_base_g_u_i.html#aa684465aa73b5b34bbadd24fc7f2f641" target="_top" xlink:title="Selects the appropriate sorting to use based on child sort index.">
<polygon fill="white" stroke="#666666" points="622.75,-183 507,-183 507,-151 622.75,-151 622.75,-183"/>
<text text-anchor="start" x="515" y="-169.5" font-family="Helvetica,sans-Serif" font-size="10.00">DataBaseGUI::sort_to</text>
<text text-anchor="middle" x="564.88" y="-157.5" font-family="Helvetica,sans-Serif" font-size="10.00">_populate_children_tab</text>
</a>
</g>
</g>
<!-- Node7&#45;&gt;Node13 -->
<g id="edge15_Node000007_Node000013" class="edge">
<title>Node7&#45;&gt;Node13</title>
<g id="a_edge15_Node000007_Node000013"><a xlink:title=" ">
<path fill="none" stroke="#63b8ff" d="M647.33,-167C639.23,-167 631.06,-167 623.17,-167"/>
<polygon fill="#63b8ff" stroke="#63b8ff" points="647.16,-170.5 657.16,-167 647.16,-163.5 647.16,-170.5"/>
</a>
</g>
</g>
<!-- Node9 -->
<g id="Node000009" class="node">
<title>Node9</title>
<g id="a_Node000009"><a xlink:href="class_data_base_g_u_i.html#aadb0e7d323a970603312695c0dd9b264" target="_top" xlink:title="Searches for children based on the provided child pointer.">
<polygon fill="white" stroke="#666666" points="456,-624 352.25,-624 352.25,-592 456,-592 456,-624"/>
<text text-anchor="start" x="360.25" y="-610.5" font-family="Helvetica,sans-Serif" font-size="10.00">DataBaseGUI::child</text>
<text text-anchor="middle" x="404.12" y="-598.5" font-family="Helvetica,sans-Serif" font-size="10.00">_search_by_pointer</text>
</a>
</g>
</g>
<!-- Node8&#45;&gt;Node9 -->
<g id="edge8_Node000008_Node000009" class="edge">
<title>Node8&#45;&gt;Node9</title>
<g id="a_edge8_Node000008_Node000009"><a xlink:title=" ">
<path fill="none" stroke="#63b8ff" d="M501.98,-581.16C486.9,-585.34 470.93,-589.76 456.4,-593.79"/>
<polygon fill="#63b8ff" stroke="#63b8ff" points="502.61,-584.61 511.31,-578.57 500.74,-577.87 502.61,-584.61"/>
</a>
</g>
</g>
<!-- Node8&#45;&gt;Node10 -->
<g id="edge11_Node000008_Node000010" class="edge">
<title>Node8&#45;&gt;Node10</title>
<g id="a_edge11_Node000008_Node000010"><a xlink:title=" ">
<path fill="none" stroke="#63b8ff" d="M501.56,-575.23C452.28,-580.53 384.19,-579.47 337.25,-545 260.65,-488.75 245.55,-359.89 242.74,-322.41"/>
<polygon fill="#63b8ff" stroke="#63b8ff" points="501.7,-578.74 511.21,-574.07 500.87,-571.79 501.7,-578.74"/>
</a>
</g>
</g>
<!-- Node9&#45;&gt;Node2 -->
<g id="edge9_Node000009_Node000002" class="edge">
<title>Node9&#45;&gt;Node2</title>
<g id="a_edge9_Node000009_Node000002"><a xlink:title=" ">
<path fill="none" stroke="#63b8ff" d="M341.04,-592.19C328.13,-588.9 314.55,-585.44 301.73,-582.18"/>
<polygon fill="#63b8ff" stroke="#63b8ff" points="340.16,-595.58 350.72,-594.65 341.89,-588.79 340.16,-595.58"/>
</a>
</g>
</g>
<!-- Node9&#45;&gt;Node3 -->
<g id="edge10_Node000009_Node000003" class="edge">
<title>Node9&#45;&gt;Node3</title>
<g id="a_edge10_Node000009_Node000003"><a xlink:title=" ">
<path fill="none" stroke="#63b8ff" d="M467.66,-608C530.8,-608 631.11,-608 717.88,-608 871.25,-608 871.25,-608 871.25,-608 975.3,-608 1091.79,-561.79 1148.05,-536.35"/>
<polygon fill="#63b8ff" stroke="#63b8ff" points="467.83,-604.5 457.83,-608 467.83,-611.5 467.83,-604.5"/>
</a>
</g>
</g>
<!-- Node11 -->
<g id="Node000011" class="node">
<title>Node11</title>
<g id="a_Node000011"><a xlink:href="class_data_base_g_u_i.html#a2c83afe3a30fb5166d275d9a74d33196" target="_top" xlink:title="Default constructor.">
<polygon fill="white" stroke="#666666" points="145,-341 0,-341 0,-321 145,-321 145,-341"/>
<text text-anchor="middle" x="72.5" y="-327.5" font-family="Helvetica,sans-Serif" font-size="10.00">DataBaseGUI::DataBaseGUI</text>
</a>
</g>
</g>
<!-- Node10&#45;&gt;Node11 -->
<g id="edge12_Node000010_Node000011" class="edge">
<title>Node10&#45;&gt;Node11</title>
<g id="a_edge12_Node000010_Node000011"><a xlink:title=" ">
<path fill="none" stroke="#63b8ff" d="M175.53,-319.37C165.64,-320.49 155.37,-321.67 145.32,-322.81"/>
<polygon fill="#63b8ff" stroke="#63b8ff" points="175.9,-322.85 185.44,-318.24 175.11,-315.89 175.9,-322.85"/>
</a>
</g>
</g>
<!-- Node12 -->
<g id="Node000012" class="node">
<title>Node12</title>
<g id="a_Node000012"><a xlink:href="class_data_base_g_u_i.html#aba10d1d8e9fb151632ff34de418cee82" target="_top" xlink:title="Constructs a DataBaseGUI object.">
<polygon fill="white" stroke="#666666" points="145,-303 0,-303 0,-283 145,-283 145,-303"/>
<text text-anchor="middle" x="72.5" y="-289.5" font-family="Helvetica,sans-Serif" font-size="10.00">DataBaseGUI::DataBaseGUI</text>
</a>
</g>
</g>
<!-- Node10&#45;&gt;Node12 -->
<g id="edge13_Node000010_Node000012" class="edge">
<title>Node10&#45;&gt;Node12</title>
<g id="a_edge13_Node000010_Node000012"><a xlink:title=" ">
<path fill="none" stroke="#63b8ff" d="M175.53,-304.63C165.64,-303.51 155.37,-302.33 145.32,-301.19"/>
<polygon fill="#63b8ff" stroke="#63b8ff" points="175.11,-308.11 185.44,-305.76 175.9,-301.15 175.11,-308.11"/>
</a>
</g>
</g>
<!-- Node14 -->
<g id="Node000014" class="node">
<title>Node14</title>
<g id="a_Node000014"><a xlink:href="class_data_base_g_u_i.html#a00f9044d3b8dd9c5dada244dac1b0df6" target="_top" xlink:title="Adds a new child to the database.">
<polygon fill="white" stroke="#666666" points="466.5,-246 341.75,-246 341.75,-226 466.5,-226 466.5,-246"/>
<text text-anchor="middle" x="404.12" y="-232.5" font-family="Helvetica,sans-Serif" font-size="10.00">DataBaseGUI::child_add</text>
</a>
</g>
</g>
<!-- Node13&#45;&gt;Node14 -->
<g id="edge16_Node000013_Node000014" class="edge">
<title>Node13&#45;&gt;Node14</title>
<g id="a_edge16_Node000013_Node000014"><a xlink:title=" ">
<path fill="none" stroke="#63b8ff" d="M527.08,-189.15C510.37,-198.6 490.1,-209.21 471,-217 463.18,-220.19 454.62,-223.08 446.35,-225.57"/>
<polygon fill="#63b8ff" stroke="#63b8ff" points="528.75,-192.23 535.67,-184.21 525.26,-186.16 528.75,-192.23"/>
</a>
</g>
</g>
<!-- Node15 -->
<g id="Node000015" class="node">
<title>Node15</title>
<g id="a_Node000015"><a xlink:href="class_data_base_g_u_i.html#acb6c6b292e58d0ead30682f7f5705244" target="_top" xlink:title="Edits an existing child in the database.">
<polygon fill="white" stroke="#666666" points="466.5,-70 341.75,-70 341.75,-50 466.5,-50 466.5,-70"/>
<text text-anchor="middle" x="404.12" y="-56.5" font-family="Helvetica,sans-Serif" font-size="10.00">DataBaseGUI::child_edit</text>
</a>
</g>
</g>
<!-- Node13&#45;&gt;Node15 -->
<g id="edge18_Node000013_Node000015" class="edge">
<title>Node13&#45;&gt;Node15</title>
<g id="a_edge18_Node000013_Node000015"><a xlink:title=" ">
<path fill="none" stroke="#63b8ff" d="M529.89,-144.1C495.95,-121.22 445.32,-87.09 420.28,-70.21"/>
<polygon fill="#63b8ff" stroke="#63b8ff" points="527.91,-146.98 538.16,-149.67 531.83,-141.18 527.91,-146.98"/>
</a>
</g>
</g>
<!-- Node16 -->
<g id="Node000016" class="node">
<title>Node16</title>
<g id="a_Node000016"><a xlink:href="class_data_base_g_u_i.html#ae3a08843db874e51a7cea32fa8937ca5" target="_top" xlink:title="Removes a child from the database.">
<polygon fill="white" stroke="#666666" points="456,-32 352.25,-32 352.25,0 456,0 456,-32"/>
<text text-anchor="start" x="360.25" y="-18.5" font-family="Helvetica,sans-Serif" font-size="10.00">DataBaseGUI::child</text>
<text text-anchor="middle" x="404.12" y="-6.5" font-family="Helvetica,sans-Serif" font-size="10.00">_remove</text>
</a>
</g>
</g>
<!-- Node13&#45;&gt;Node16 -->
<g id="edge21_Node000013_Node000016" class="edge">
<title>Node13&#45;&gt;Node16</title>
<g id="a_edge21_Node000013_Node000016"><a xlink:title=" ">
<path fill="none" stroke="#63b8ff" d="M550.53,-140.79C534.95,-112.58 506.7,-68.09 471,-41 466.52,-37.6 461.52,-34.61 456.33,-32"/>
<polygon fill="#63b8ff" stroke="#63b8ff" points="547.34,-142.25 555.16,-149.41 553.51,-138.94 547.34,-142.25"/>
</a>
</g>
</g>
<!-- Node17 -->
<g id="Node000017" class="node">
<title>Node17</title>
<g id="a_Node000017"><a xlink:href="class_data_base_g_u_i.html#a2e6d3629f679c153cdd21b683ce794a1" target="_top" xlink:title="Changes the sorting method for children.">
<polygon fill="white" stroke="#666666" points="456,-208 352.25,-208 352.25,-176 456,-176 456,-208"/>
<text text-anchor="start" x="360.25" y="-194.5" font-family="Helvetica,sans-Serif" font-size="10.00">DataBaseGUI::child</text>
<text text-anchor="middle" x="404.12" y="-182.5" font-family="Helvetica,sans-Serif" font-size="10.00">_sort_change</text>
</a>
</g>
</g>
<!-- Node13&#45;&gt;Node17 -->
<g id="edge24_Node000013_Node000017" class="edge">
<title>Node13&#45;&gt;Node17</title>
<g id="a_edge24_Node000013_Node000017"><a xlink:title=" ">
<path fill="none" stroke="#63b8ff" d="M495.22,-177.81C482.16,-179.87 468.7,-181.99 456.3,-183.94"/>
<polygon fill="#63b8ff" stroke="#63b8ff" points="495.73,-181.27 505.07,-176.26 494.64,-174.36 495.73,-181.27"/>
</a>
</g>
</g>
<!-- Node18 -->
<g id="Node000018" class="node">
<title>Node18</title>
<g id="a_Node000018"><a xlink:href="class_data_base_g_u_i.html#a20d1ece0affaa1f5b6876ee072dd2ab1" target="_top" xlink:title="Imports a database from a file.">
<polygon fill="white" stroke="#666666" points="459.38,-158 348.88,-158 348.88,-126 459.38,-126 459.38,-158"/>
<text text-anchor="start" x="356.88" y="-144.5" font-family="Helvetica,sans-Serif" font-size="10.00">DataBaseGUI::import</text>
<text text-anchor="middle" x="404.12" y="-132.5" font-family="Helvetica,sans-Serif" font-size="10.00">_database</text>
</a>
</g>
</g>
<!-- Node13&#45;&gt;Node18 -->
<g id="edge26_Node000013_Node000018" class="edge">
<title>Node13&#45;&gt;Node18</title>
<g id="a_edge26_Node000013_Node000018"><a xlink:title=" ">
<path fill="none" stroke="#63b8ff" d="M495.29,-156.2C483.39,-154.33 471.16,-152.4 459.7,-150.59"/>
<polygon fill="#63b8ff" stroke="#63b8ff" points="494.64,-159.64 505.07,-157.74 495.73,-152.73 494.64,-159.64"/>
</a>
</g>
</g>
<!-- Node19 -->
<g id="Node000019" class="node">
<title>Node19</title>
<g id="a_Node000019"><a xlink:href="class_data_base_g_u_i.html#a438b5070d6a58ffa5e884d18740852c6" target="_top" xlink:title="Handles tab change events.">
<polygon fill="white" stroke="#666666" points="471,-284 337.25,-284 337.25,-264 471,-264 471,-284"/>
<text text-anchor="middle" x="404.12" y="-270.5" font-family="Helvetica,sans-Serif" font-size="10.00">DataBaseGUI::tab_change</text>
</a>
</g>
</g>
<!-- Node13&#45;&gt;Node19 -->
<g id="edge28_Node000013_Node000019" class="edge">
<title>Node13&#45;&gt;Node19</title>
<g id="a_edge28_Node000013_Node000019"><a xlink:title=" ">
<path fill="none" stroke="#63b8ff" d="M543.57,-191.94C526.22,-211.71 499.59,-238.64 471,-255 465.11,-258.37 458.58,-261.18 451.98,-263.51"/>
<polygon fill="#63b8ff" stroke="#63b8ff" points="546.03,-194.45 549.88,-184.57 540.71,-189.89 546.03,-194.45"/>
</a>
</g>
</g>
<!-- Node14&#45;&gt;Node10 -->
<g id="edge17_Node000014_Node000010" class="edge">
<title>Node14&#45;&gt;Node10</title>
<g id="a_edge17_Node000014_Node000010"><a xlink:title=" ">
<path fill="none" stroke="#63b8ff" d="M349.91,-250.04C345.58,-251.58 341.31,-253.23 337.25,-255 307.06,-268.13 274.76,-289.15 256.64,-301.66"/>
<polygon fill="#63b8ff" stroke="#63b8ff" points="350.9,-253.4 359.3,-246.94 348.7,-246.76 350.9,-253.4"/>
</a>
</g>
</g>
<!-- Node15&#45;&gt;Node6 -->
<g id="edge19_Node000015_Node000006" class="edge">
<title>Node15&#45;&gt;Node6</title>
<g id="a_edge19_Node000015_Node000006"><a xlink:title=" ">
<path fill="none" stroke="#63b8ff" d="M329.9,-60C320.43,-60 310.83,-60 301.63,-60"/>
<polygon fill="#63b8ff" stroke="#63b8ff" points="329.83,-63.5 339.83,-60 329.83,-56.5 329.83,-63.5"/>
</a>
</g>
</g>
<!-- Node15&#45;&gt;Node7 -->
<g id="edge20_Node000015_Node000007" class="edge">
<title>Node15&#45;&gt;Node7</title>
<g id="a_edge20_Node000015_Node000007"><a xlink:title=" ">
<path fill="none" stroke="#63b8ff" d="M446.28,-74.08C503.92,-93.8 608.49,-129.58 669.69,-150.52"/>
<polygon fill="#63b8ff" stroke="#63b8ff" points="447.43,-70.77 436.83,-70.85 445.16,-77.4 447.43,-70.77"/>
</a>
</g>
</g>
<!-- Node16&#45;&gt;Node6 -->
<g id="edge22_Node000016_Node000006" class="edge">
<title>Node16&#45;&gt;Node6</title>
<g id="a_edge22_Node000016_Node000006"><a xlink:title=" ">
<path fill="none" stroke="#63b8ff" d="M341.44,-32.86C328.41,-36.42 314.68,-40.17 301.73,-43.71"/>
<polygon fill="#63b8ff" stroke="#63b8ff" points="342,-36.33 350.72,-30.32 340.15,-29.58 342,-36.33"/>
</a>
</g>
</g>
<!-- Node16&#45;&gt;Node7 -->
<g id="edge23_Node000016_Node000007" class="edge">
<title>Node16&#45;&gt;Node7</title>
<g id="a_edge23_Node000016_Node000007"><a xlink:title=" ">
<path fill="none" stroke="#63b8ff" d="M467.3,-32.66C512.06,-45.98 573.05,-66.89 622.75,-94 651.99,-109.95 681.84,-134.48 700.11,-150.63"/>
<polygon fill="#63b8ff" stroke="#63b8ff" points="468.32,-29.31 457.74,-29.86 466.35,-36.03 468.32,-29.31"/>
</a>
</g>
</g>
<!-- Node17&#45;&gt;Node10 -->
<g id="edge25_Node000017_Node000010" class="edge">
<title>Node17&#45;&gt;Node10</title>
<g id="a_edge25_Node000017_Node000010"><a xlink:title=" ">
<path fill="none" stroke="#63b8ff" d="M342.98,-213.55C341.01,-214.65 339.1,-215.8 337.25,-217 299.61,-241.32 264.92,-282.6 249.93,-301.72"/>
<polygon fill="#63b8ff" stroke="#63b8ff" points="344.43,-216.73 351.75,-209.07 341.25,-210.5 344.43,-216.73"/>
</a>
</g>
</g>
<!-- Node18&#45;&gt;Node10 -->
<g id="edge27_Node000018_Node000010" class="edge">
<title>Node18&#45;&gt;Node10</title>
<g id="a_edge27_Node000018_Node000010"><a xlink:title=" ">
<path fill="none" stroke="#63b8ff" d="M340.73,-164.38C339.54,-165.22 338.38,-166.1 337.25,-167 289.12,-205.64 257.07,-275.38 246.22,-301.63"/>
<polygon fill="#63b8ff" stroke="#63b8ff" points="342.4,-167.46 349.1,-159.25 338.74,-161.49 342.4,-167.46"/>
</a>
</g>
</g>
<!-- Node19&#45;&gt;Node10 -->
<g id="edge29_Node000019_Node000010" class="edge">
<title>Node19&#45;&gt;Node10</title>
<g id="a_edge29_Node000019_Node000010"><a xlink:title=" ">
<path fill="none" stroke="#63b8ff" d="M347.56,-287.12C327.57,-291.83 305.3,-297.09 286.4,-301.55"/>
<polygon fill="#63b8ff" stroke="#63b8ff" points="348.3,-290.54 357.23,-284.83 346.7,-283.72 348.3,-290.54"/>
</a>
</g>
</g>
<!-- Node20&#45;&gt;Node19 -->
<g id="edge42_Node000020_Node000019" class="edge">
<title>Node20&#45;&gt;Node19</title>
<g id="a_edge42_Node000020_Node000019"><a xlink:title=" ">
<path fill="none" stroke="#63b8ff" d="M540.2,-413.54C504.96,-377.14 440.18,-310.22 415.26,-284.47"/>
<polygon fill="#63b8ff" stroke="#63b8ff" points="537.55,-415.84 547.02,-420.59 542.58,-410.97 537.55,-415.84"/>
</a>
</g>
</g>
<!-- Node21 -->
<g id="Node000021" class="node">
<title>Node21</title>
<g id="a_Node000021"><a xlink:href="class_data_base_g_u_i.html#a336fa47d9a9e56d585d82f53d33e8593" target="_top" xlink:title="Adds a new parent to the database.">
<polygon fill="white" stroke="#666666" points="469.88,-448 338.38,-448 338.38,-428 469.88,-428 469.88,-448"/>
<text text-anchor="middle" x="404.12" y="-434.5" font-family="Helvetica,sans-Serif" font-size="10.00">DataBaseGUI::parent_add</text>
</a>
</g>
</g>
<!-- Node20&#45;&gt;Node21 -->
<g id="edge32_Node000020_Node000021" class="edge">
<title>Node20&#45;&gt;Node21</title>
<g id="a_edge32_Node000020_Node000021"><a xlink:title=" ">
<path fill="none" stroke="#63b8ff" d="M496.62,-438C487.92,-438 479.03,-438 470.36,-438"/>
<polygon fill="#63b8ff" stroke="#63b8ff" points="496.39,-441.5 506.39,-438 496.39,-434.5 496.39,-441.5"/>
</a>
</g>
</g>
<!-- Node22 -->
<g id="Node000022" class="node">
<title>Node22</title>
<g id="a_Node000022"><a xlink:href="class_data_base_g_u_i.html#a5b049fb9e0e5d78c4c2e81e569b471f9" target="_top" xlink:title="Edits an existing parent in the database.">
<polygon fill="white" stroke="#666666" points="469.88,-536 338.38,-536 338.38,-516 469.88,-516 469.88,-536"/>
<text text-anchor="middle" x="404.12" y="-522.5" font-family="Helvetica,sans-Serif" font-size="10.00">DataBaseGUI::parent_edit</text>
</a>
</g>
</g>
<!-- Node20&#45;&gt;Node22 -->
<g id="edge34_Node000020_Node000022" class="edge">
<title>Node20&#45;&gt;Node22</title>
<g id="a_edge34_Node000020_Node000022"><a xlink:title=" ">
<path fill="none" stroke="#63b8ff" d="M537.35,-461.76C519.63,-476.56 495.22,-495 471,-507 464.28,-510.33 456.88,-513.17 449.54,-515.56"/>
<polygon fill="#63b8ff" stroke="#63b8ff" points="539.48,-464.54 544.82,-455.38 534.94,-459.21 539.48,-464.54"/>
</a>
</g>
</g>
<!-- Node23 -->
<g id="Node000023" class="node">
<title>Node23</title>
<g id="a_Node000023"><a xlink:href="class_data_base_g_u_i.html#ad8a42f24cdb603ba85c1cdd4ea2e73a4" target="_top" xlink:title="Removes a parent from the database.">
<polygon fill="white" stroke="#666666" points="459.38,-498 348.88,-498 348.88,-466 459.38,-466 459.38,-498"/>
<text text-anchor="start" x="356.88" y="-484.5" font-family="Helvetica,sans-Serif" font-size="10.00">DataBaseGUI::parent</text>
<text text-anchor="middle" x="404.12" y="-472.5" font-family="Helvetica,sans-Serif" font-size="10.00">_remove</text>
</a>
</g>
</g>
<!-- Node20&#45;&gt;Node23 -->
<g id="edge37_Node000020_Node000023" class="edge">
<title>Node20&#45;&gt;Node23</title>
<g id="a_edge37_Node000020_Node000023"><a xlink:title=" ">
<path fill="none" stroke="#63b8ff" d="M497.11,-456.5C484.68,-459.95 471.81,-463.52 459.79,-466.85"/>
<polygon fill="#63b8ff" stroke="#63b8ff" points="497.75,-459.96 506.45,-453.92 495.88,-453.22 497.75,-459.96"/>
</a>
</g>
</g>
<!-- Node24 -->
<g id="Node000024" class="node">
<title>Node24</title>
<g id="a_Node000024"><a xlink:href="class_data_base_g_u_i.html#a783bdf1d65998f887dd6445741450480" target="_top" xlink:title="Changes the sorting method for parents.">
<polygon fill="white" stroke="#666666" points="459.38,-410 348.88,-410 348.88,-378 459.38,-378 459.38,-410"/>
<text text-anchor="start" x="356.88" y="-396.5" font-family="Helvetica,sans-Serif" font-size="10.00">DataBaseGUI::parent</text>
<text text-anchor="middle" x="404.12" y="-384.5" font-family="Helvetica,sans-Serif" font-size="10.00">_sort_change</text>
</a>
</g>
</g>
<!-- Node20&#45;&gt;Node24 -->
<g id="edge40_Node000020_Node000024" class="edge">
<title>Node20&#45;&gt;Node24</title>
<g id="a_edge40_Node000020_Node000024"><a xlink:title=" ">
<path fill="none" stroke="#63b8ff" d="M497.11,-419.5C484.68,-416.05 471.81,-412.48 459.79,-409.15"/>
<polygon fill="#63b8ff" stroke="#63b8ff" points="495.88,-422.78 506.45,-422.08 497.75,-416.04 495.88,-422.78"/>
</a>
</g>
</g>
<!-- Node21&#45;&gt;Node10 -->
<g id="edge33_Node000021_Node000010" class="edge">
<title>Node21&#45;&gt;Node10</title>
<g id="a_edge33_Node000021_Node000010"><a xlink:title=" ">
<path fill="none" stroke="#63b8ff" d="M344.43,-423.02C341.95,-421.79 339.54,-420.45 337.25,-419 295.83,-392.89 261.83,-343.6 248.35,-322.27"/>
<polygon fill="#63b8ff" stroke="#63b8ff" points="343.01,-426.22 353.57,-426.98 345.79,-419.8 343.01,-426.22"/>
</a>
</g>
</g>
<!-- Node22&#45;&gt;Node2 -->
<g id="edge35_Node000022_Node000002" class="edge">
<title>Node22&#45;&gt;Node2</title>
<g id="a_edge35_Node000022_Node000002"><a xlink:title=" ">
<path fill="none" stroke="#63b8ff" d="M350.95,-539.29C335.21,-543.3 317.81,-547.73 301.63,-551.85"/>
<polygon fill="#63b8ff" stroke="#63b8ff" points="351.79,-542.69 360.61,-536.83 350.06,-535.9 351.79,-542.69"/>
</a>
</g>
</g>
<!-- Node22&#45;&gt;Node3 -->
<g id="edge36_Node000022_Node000003" class="edge">
<title>Node22&#45;&gt;Node3</title>
<g id="a_edge36_Node000022_Node000003"><a xlink:title=" ">
<path fill="none" stroke="#63b8ff" d="M481.58,-523.71C544.9,-522.02 637.23,-520 717.88,-520 871.25,-520 871.25,-520 871.25,-520 958.68,-520 1059.95,-520 1122.53,-520"/>
<polygon fill="#63b8ff" stroke="#63b8ff" points="481.52,-520.22 471.62,-523.99 481.71,-527.21 481.52,-520.22"/>
</a>
</g>
</g>
<!-- Node23&#45;&gt;Node2 -->
<g id="edge38_Node000023_Node000002" class="edge">
<title>Node23&#45;&gt;Node2</title>
<g id="a_edge38_Node000023_Node000002"><a xlink:title=" ">
<path fill="none" stroke="#63b8ff" d="M345.67,-503.01C342.8,-504.31 339.98,-505.64 337.25,-507 311.57,-519.81 284.01,-537.69 265.21,-550.6"/>
<polygon fill="#63b8ff" stroke="#63b8ff" points="347.01,-506.24 354.81,-499.08 344.24,-499.81 347.01,-506.24"/>
</a>
</g>
</g>
<!-- Node23&#45;&gt;Node3 -->
<g id="edge39_Node000023_Node000003" class="edge">
<title>Node23&#45;&gt;Node3</title>
<g id="a_edge39_Node000023_Node000003"><a xlink:title=" ">
<path fill="none" stroke="#63b8ff" d="M471.05,-482C534.34,-482 632.64,-482 717.88,-482 871.25,-482 871.25,-482 871.25,-482 959.2,-482 1060.12,-497.17 1122.5,-508.34"/>
<polygon fill="#63b8ff" stroke="#63b8ff" points="471.16,-478.5 461.16,-482 471.16,-485.5 471.16,-478.5"/>
</a>
</g>
</g>
<!-- Node24&#45;&gt;Node10 -->
<g id="edge41_Node000024_Node000010" class="edge">
<title>Node24&#45;&gt;Node10</title>
<g id="a_edge41_Node000024_Node000010"><a xlink:title=" ">
<path fill="none" stroke="#63b8ff" d="M355.62,-372.87C349.41,-369.96 343.15,-366.95 337.25,-364 309.98,-350.36 279.13,-333.16 260.15,-322.37"/>
<polygon fill="#63b8ff" stroke="#63b8ff" points="354.05,-376 364.6,-377.02 356.99,-369.64 354.05,-376"/>
</a>
</g>
</g>
<!-- Node26 -->
<g id="Node000026" class="node">
<title>Node26</title>
<g id="a_Node000026"><a xlink:href="class_parent_entry.html#a336ea0e092db59f6838eacc73bdee3da" target="_top" xlink:title="Constructs a ParentEntry widget.">
<polygon fill="white" stroke="#666666" points="1087,-360 961.5,-360 961.5,-340 1087,-340 1087,-360"/>
<text text-anchor="middle" x="1024.25" y="-346.5" font-family="Helvetica,sans-Serif" font-size="10.00">ParentEntry::ParentEntry</text>
</a>
</g>
</g>
<!-- Node25&#45;&gt;Node26 -->
<g id="edge44_Node000025_Node000026" class="edge">
<title>Node25&#45;&gt;Node26</title>
<g id="a_edge44_Node000025_Node000026"><a xlink:title=" ">
<path fill="none" stroke="#63b8ff" d="M1152.36,-409.07C1134.24,-395.94 1110.18,-379.96 1087,-369 1080.1,-365.74 1072.52,-362.87 1065.09,-360.41"/>
<polygon fill="#63b8ff" stroke="#63b8ff" points="1149.91,-411.61 1160.04,-414.73 1154.07,-405.98 1149.91,-411.61"/>
</a>
</g>
</g>
</g>
</svg>

<g id="navigator" transform="translate(0 0)" fill="#404254">
  <rect fill="#f2f5e9" fill-opacity="0.5" stroke="#606060" stroke-width=".5" x="0" y="0" width="60" height="60"/>
  <use id="zoomplus" xlink:href="#zoomPlus" x="17" y="9" onmousedown="handleZoom(evt,'in')"/>
  <use id="zoomminus" xlink:href="#zoomMin" x="42" y="9" onmousedown="handleZoom(evt,'out')"/>
  <use id="reset" xlink:href="#resetDef" x="30" y="36" onmousedown="handleReset()"/>
   <use id="arrowup" xlink:href="#arrowUp" x="0" y="0" onmousedown="handlePan(0,-1)"/>
  <use id="arrowright" xlink:href="#arrowRight" x="0" y="0" onmousedown="handlePan(1,0)"/>
  <use id="arrowdown" xlink:href="#arrowDown" x="0" y="0" onmousedown="handlePan(0,1)"/>
  <use id="arrowleft" xlink:href="#arrowLeft" x="0" y="0" onmousedown="handlePan(-1,0)"/>
</g>
<svg viewBox="0 0 15 15" width="100%" height="30px" preserveAspectRatio="xMaxYMin meet">
 <g id="arrow_out" transform="scale(0.3 0.3)">
  <a xlink:href="class_parent_entry_a45e22d202e52c9dbc7e7e72575dc0e91_icgraph_org.svg" target="_base">
   <rect id="button" ry="5" rx="5" y="6" x="6" height="38" width="38"
        fill="#f2f5e9" fill-opacity="0.5" stroke="#606060" stroke-width="1.0"/>
   <path id="arrow"
     d="M 11.500037,31.436501 C 11.940474,20.09759 22.043105,11.32322 32.158766,21.979434 L 37.068811,17.246167 C 37.068811,17.246167 37.088388,32 37.088388,32 L 22.160133,31.978069 C 22.160133,31.978069 26.997745,27.140456 26.997745,27.140456 C 18.528582,18.264221 13.291696,25.230495 11.500037,31.436501 z"
     style="fill:#404040;"/>
  </a>
 </g>
</svg>

<style type='text/css'>
<![CDATA[
[data-mouse-over-selected='false'] { opacity: 0.7; }
[data-mouse-over-selected='true']  { opacity: 1.0; }
]]>
</style>
<script type="application/ecmascript"><![CDATA[
document.addEventListener('DOMContentLoaded', (event) => {
  highlightEdges();
  highlightAdjacentNodes();
});
]]></script>
</svg>
