<?xml version="1.0" encoding="UTF-8" standalone="no"?>
<!DOCTYPE svg PUBLIC "-//W3C//DTD SVG 1.1//EN"
 "http://www.w3.org/Graphics/SVG/1.1/DTD/svg11.dtd">
<!-- Generated by graphviz version 12.2.1 (20241206.2353)
 -->
<!-- Title: DataBaseGUI::sort_to_populate_employee_tab Pages: 1 -->
<svg width="493pt" height="204pt"
 viewBox="0.00 0.00 492.50 204.00" xmlns="http://www.w3.org/2000/svg" xmlns:xlink="http://www.w3.org/1999/xlink">

<svg id="main" version="1.1" xmlns="http://www.w3.org/2000/svg" xmlns:xlink="http://www.w3.org/1999/xlink" xml:space="preserve">

<style type="text/css"><![CDATA[
.node, .edge {opacity: 0.7;}
.node.selected, .edge.selected {opacity: 1;}
.edge:hover path { stroke: red; }
.edge:hover polygon { stroke: red; fill: red; }
]]></style>
<script type="application/ecmascript" xlink:href="svg.min.js"/>
<svg id="graph" class="graph">
<g id="graph0" class="graph" transform="scale(1 1) rotate(0) translate(4 200)">
<title>DataBaseGUI::sort_to_populate_employee_tab</title>
<!-- Node1 -->
<g id="Node000001" class="node">
<title>Node1</title>
<g id="a_Node000001"><a xlink:title="Selects the appropriate sorting to use based on employee sort index.">
<polygon fill="#999999" stroke="#666666" points="124,-120 0,-120 0,-88 124,-88 124,-120"/>
<text text-anchor="start" x="8" y="-106.5" font-family="Helvetica,sans-Serif" font-size="10.00">DataBaseGUI::sort_to</text>
<text text-anchor="middle" x="62" y="-94.5" font-family="Helvetica,sans-Serif" font-size="10.00">_populate_employee_tab</text>
</a>
</g>
</g>
<!-- Node2 -->
<g id="Node000002" class="node">
<title>Node2</title>
<g id="a_Node000002"><a xlink:href="class_data_base_g_u_i.html#abab0899c6a55e240687bf21734273428" target="_top" xlink:title="Populates the parent tab with a list of parents.">
<polygon fill="white" stroke="#666666" points="280.25,-120 160,-120 160,-88 280.25,-88 280.25,-120"/>
<text text-anchor="start" x="168" y="-106.5" font-family="Helvetica,sans-Serif" font-size="10.00">DataBaseGUI::populate</text>
<text text-anchor="middle" x="220.12" y="-94.5" font-family="Helvetica,sans-Serif" font-size="10.00">_employee_tab</text>
</a>
</g>
</g>
<!-- Node1&#45;&gt;Node2 -->
<g id="edge1_Node000001_Node000002" class="edge">
<title>Node1&#45;&gt;Node2</title>
<g id="a_edge1_Node000001_Node000002"><a xlink:title=" ">
<path fill="none" stroke="#63b8ff" d="M124.26,-104C132.15,-104 140.29,-104 148.33,-104"/>
<polygon fill="#63b8ff" stroke="#63b8ff" points="148.07,-107.5 158.07,-104 148.07,-100.5 148.07,-107.5"/>
</a>
</g>
</g>
<!-- Node3 -->
<g id="Node000003" class="node">
<title>Node3</title>
<g id="a_Node000003"><a xlink:href="class_employee_entry.html#ada71cffbda6a2614d266a6cc85d6684a" target="_top" xlink:title="Signal emitted when a employee edit is requested.">
<polygon fill="white" stroke="#666666" points="476.25,-158 324.5,-158 324.5,-138 476.25,-138 476.25,-158"/>
<text text-anchor="middle" x="400.38" y="-144.5" font-family="Helvetica,sans-Serif" font-size="10.00">EmployeeEntry::editRequested</text>
</a>
</g>
</g>
<!-- Node2&#45;&gt;Node3 -->
<g id="edge2_Node000002_Node000003" class="edge">
<title>Node2&#45;&gt;Node3</title>
<g id="a_edge2_Node000002_Node000003"><a xlink:title=" ">
<path fill="none" stroke="#63b8ff" d="M280.67,-119.97C292.45,-123.03 304.73,-126.17 316.25,-129 324.35,-130.99 332.9,-133.02 341.33,-134.98"/>
<polygon fill="#63b8ff" stroke="#63b8ff" points="340.27,-138.33 350.8,-137.17 341.84,-131.51 340.27,-138.33"/>
</a>
</g>
</g>
<!-- Node4 -->
<g id="Node000004" class="node">
<title>Node4</title>
<g id="a_Node000004"><a xlink:href="class_data_base_g_u_i.html#ae9c0b91905f7d70563c285cd9b5dace3" target="_top" xlink:title="Edits an existing employee in the database.">
<polygon fill="white" stroke="#666666" points="473.62,-196 327.12,-196 327.12,-176 473.62,-176 473.62,-196"/>
<text text-anchor="middle" x="400.38" y="-182.5" font-family="Helvetica,sans-Serif" font-size="10.00">DataBaseGUI::employee_edit</text>
</a>
</g>
</g>
<!-- Node2&#45;&gt;Node4 -->
<g id="edge3_Node000002_Node000004" class="edge">
<title>Node2&#45;&gt;Node4</title>
<g id="a_edge3_Node000002_Node000004"><a xlink:title=" ">
<path fill="none" stroke="#63b8ff" d="M241.04,-120.31C259.48,-134.63 288.21,-154.99 316.25,-167 320.81,-168.96 325.61,-170.72 330.49,-172.32"/>
<polygon fill="#63b8ff" stroke="#63b8ff" points="329.25,-175.6 339.83,-175.12 331.25,-168.9 329.25,-175.6"/>
</a>
</g>
</g>
<!-- Node5 -->
<g id="Node000005" class="node">
<title>Node5</title>
<g id="a_Node000005"><a xlink:href="class_data_base_g_u_i.html#a4b70294327e9c316224af10d7a369749" target="_top" xlink:title="Removes an employee from the database.">
<polygon fill="white" stroke="#666666" points="463.12,-32 337.62,-32 337.62,0 463.12,0 463.12,-32"/>
<text text-anchor="start" x="345.62" y="-18.5" font-family="Helvetica,sans-Serif" font-size="10.00">DataBaseGUI::employee</text>
<text text-anchor="middle" x="400.38" y="-6.5" font-family="Helvetica,sans-Serif" font-size="10.00">_remove</text>
</a>
</g>
</g>
<!-- Node2&#45;&gt;Node5 -->
<g id="edge5_Node000002_Node000005" class="edge">
<title>Node2&#45;&gt;Node5</title>
<g id="a_edge5_Node000002_Node000005"><a xlink:title=" ">
<path fill="none" stroke="#63b8ff" d="M241.97,-87.59C260.57,-73.6 288.99,-53.79 316.25,-41 319.59,-39.43 323.06,-37.94 326.59,-36.51"/>
<polygon fill="#63b8ff" stroke="#63b8ff" points="327.8,-39.79 335.92,-32.99 325.33,-33.25 327.8,-39.79"/>
</a>
</g>
</g>
<!-- Node6 -->
<g id="Node000006" class="node">
<title>Node6</title>
<g id="a_Node000006"><a xlink:href="class_data_base_g_u_i.html#aa5bbb368e92b4bf89edf9071df42aab3" target="_top" xlink:title="Clears the parent tab.">
<polygon fill="white" stroke="#666666" points="463.12,-120 337.62,-120 337.62,-88 463.12,-88 463.12,-120"/>
<text text-anchor="start" x="345.62" y="-106.5" font-family="Helvetica,sans-Serif" font-size="10.00">DataBaseGUI::employee</text>
<text text-anchor="middle" x="400.38" y="-94.5" font-family="Helvetica,sans-Serif" font-size="10.00">_tab_clear</text>
</a>
</g>
</g>
<!-- Node2&#45;&gt;Node6 -->
<g id="edge7_Node000002_Node000006" class="edge">
<title>Node2&#45;&gt;Node6</title>
<g id="a_edge7_Node000002_Node000006"><a xlink:title=" ">
<path fill="none" stroke="#63b8ff" d="M280.48,-104C295.01,-104 310.73,-104 325.83,-104"/>
<polygon fill="#63b8ff" stroke="#63b8ff" points="325.71,-107.5 335.71,-104 325.71,-100.5 325.71,-107.5"/>
</a>
</g>
</g>
<!-- Node7 -->
<g id="Node000007" class="node">
<title>Node7</title>
<g id="a_Node000007"><a xlink:href="class_employee_entry.html#a6f579e66e8fc13dbc45c940edfc50b32" target="_top" xlink:title="Signal emitted when a employee removal is requested.">
<polygon fill="white" stroke="#666666" points="484.5,-70 316.25,-70 316.25,-50 484.5,-50 484.5,-70"/>
<text text-anchor="middle" x="400.38" y="-56.5" font-family="Helvetica,sans-Serif" font-size="10.00">EmployeeEntry::removeRequested</text>
</a>
</g>
</g>
<!-- Node2&#45;&gt;Node7 -->
<g id="edge8_Node000002_Node000007" class="edge">
<title>Node2&#45;&gt;Node7</title>
<g id="a_edge8_Node000002_Node000007"><a xlink:title=" ">
<path fill="none" stroke="#63b8ff" d="M280.67,-88.03C292.45,-84.97 304.73,-81.83 316.25,-79 324.35,-77.01 332.9,-74.98 341.33,-73.02"/>
<polygon fill="#63b8ff" stroke="#63b8ff" points="341.84,-76.49 350.8,-70.83 340.27,-69.67 341.84,-76.49"/>
</a>
</g>
</g>
<!-- Node4&#45;&gt;Node1 -->
<g id="edge4_Node000004_Node000001" class="edge">
<title>Node4&#45;&gt;Node1</title>
<g id="a_edge4_Node000004_Node000001"><a xlink:title=" ">
<path fill="none" stroke="#63b8ff" d="M353.18,-175.56C341.15,-172.81 328.21,-169.82 316.25,-167 246.69,-150.59 229.33,-146.36 160,-129 151.97,-126.99 143.56,-124.86 135.21,-122.73"/>
<polygon fill="#63b8ff" stroke="#63b8ff" points="136.31,-119.4 125.75,-120.31 134.57,-126.18 136.31,-119.4"/>
</a>
</g>
</g>
<!-- Node5&#45;&gt;Node1 -->
<g id="edge6_Node000005_Node000001" class="edge">
<title>Node5&#45;&gt;Node1</title>
<g id="a_edge6_Node000005_Node000001"><a xlink:title=" ">
<path fill="none" stroke="#63b8ff" d="M337.35,-32.23C280.21,-47.17 195.42,-69.36 135.24,-85.1"/>
<polygon fill="#63b8ff" stroke="#63b8ff" points="134.56,-81.66 125.77,-87.58 136.33,-88.43 134.56,-81.66"/>
</a>
</g>
</g>
</g>
</svg>
</svg>

<style type='text/css'>
<![CDATA[
[data-mouse-over-selected='false'] { opacity: 0.7; }
[data-mouse-over-selected='true']  { opacity: 1.0; }
]]>
</style>
<script type="application/ecmascript"><![CDATA[
document.addEventListener('DOMContentLoaded', (event) => {
  highlightEdges();
  highlightAdjacentNodes();
});
]]></script>
</svg>
