<?xml version="1.0" encoding="UTF-8" standalone="no"?>
<!DOCTYPE svg PUBLIC "-//W3C//DTD SVG 1.1//EN"
 "http://www.w3.org/Graphics/SVG/1.1/DTD/svg11.dtd">
<!-- Generated by graphviz version 12.2.1 (20241206.2353)
 -->
<!-- Title: DataBaseGUI::parent_search Pages: 1 -->
<!--zoomable 479 -->

<svg id="main" version="1.1" xmlns="http://www.w3.org/2000/svg" xmlns:xlink="http://www.w3.org/1999/xlink" xml:space="preserve" onload="init(evt)">

<style type="text/css"><![CDATA[
.node, .edge {opacity: 0.7;}
.node.selected, .edge.selected {opacity: 1;}
.edge:hover path { stroke: red; }
.edge:hover polygon { stroke: red; fill: red; }
]]></style>

<defs>
  <circle id="rim" cx="0" cy="0" r="7"/>
  <circle id="rim2" cx="0" cy="0" r="3.5"/>
  <g id="zoomPlus">
    <use xlink:href="#rim" fill="#404040"><set attributeName="fill" to="#808080" begin="zoomplus.mouseover" end="zoomplus.mouseout"/></use>
    <path d="M-4,0h8M0,-4v8" fill="none" stroke="white" stroke-width="1.5" pointer-events="none"/>
  </g>
  <g id="zoomMin">
    <use xlink:href="#rim" fill="#404040"><set attributeName="fill" to="#808080" begin="zoomminus.mouseover" end="zoomminus.mouseout"/></use>
    <path d="M-4,0h8" fill="none" stroke="white" stroke-width="1.5" pointer-events="none"/>
  </g>
  <g id="arrowUp" transform="translate(30 24)">
    <use xlink:href="#rim"/>
    <path pointer-events="none" fill="none" stroke="white" stroke-width="1.5" d="M0,-3.0v7 M-2.5,-0.5L0,-3.0L2.5,-0.5"/>
  </g>
  <g id="arrowRight" transform="rotate(90) translate(36 -43)">
    <use xlink:href="#rim"/>
    <path pointer-events="none" fill="none" stroke="white" stroke-width="1.5" d="M0,-3.0v7 M-2.5,-0.5L0,-3.0L2.5,-0.5"/>
  </g>
  <g id="arrowDown" transform="rotate(180) translate(-30 -48)">
    <use xlink:href="#rim"/>
    <path pointer-events="none" fill="none" stroke="white" stroke-width="1.5" d="M0,-3.0v7 M-2.5,-0.5L0,-3.0L2.5,-0.5"/>
  </g>
  <g id="arrowLeft" transform="rotate(270) translate(-36 17)">
    <use xlink:href="#rim"/>
    <path pointer-events="none" fill="none" stroke="white" stroke-width="1.5" d="M0,-3.0v7 M-2.5,-0.5L0,-3.0L2.5,-0.5"/>
  </g>
  <g id="resetDef">
    <use xlink:href="#rim2" fill="#404040"><set attributeName="fill" to="#808080" begin="reset.mouseover" end="reset.mouseout"/></use>
  </g>
</defs>
<script type="application/ecmascript">
var viewWidth = 1551;
var viewHeight = 479;
var sectionId = 'dynsection-45';
</script>
<script type="application/ecmascript" xlink:href="svg.min.js"/>
<svg id="graph" class="graph">
<g id="viewport">
<title>DataBaseGUI::parent_search</title>
<!-- Node1 -->
<g id="Node000001" class="node">
<title>Node1</title>
<g id="a_Node000001"><a xlink:title="Searches for parents based on the provided name and surname.">
<polygon fill="#999999" stroke="#666666" points="1543,-300.76 1432.5,-300.76 1432.5,-268.76 1543,-268.76 1543,-300.76"/>
<text text-anchor="start" x="1440.5" y="-287.26" font-family="Helvetica,sans-Serif" font-size="10.00">DataBaseGUI::parent</text>
<text text-anchor="middle" x="1487.75" y="-275.26" font-family="Helvetica,sans-Serif" font-size="10.00">_search</text>
</a>
</g>
</g>
<!-- Node2 -->
<g id="Node000002" class="node">
<title>Node2</title>
<g id="a_Node000002"><a xlink:href="class_data_base_g_u_i.html#a8e1fe573ef6a09e112989968ec1a2b43" target="_top" xlink:title="Searches for parents based on the provided parent pointer.">
<polygon fill="white" stroke="#666666" points="1396.5,-300.76 1286,-300.76 1286,-268.76 1396.5,-268.76 1396.5,-300.76"/>
<text text-anchor="start" x="1294" y="-287.26" font-family="Helvetica,sans-Serif" font-size="10.00">DataBaseGUI::parent</text>
<text text-anchor="middle" x="1341.25" y="-275.26" font-family="Helvetica,sans-Serif" font-size="10.00">_search_by_pointer</text>
</a>
</g>
</g>
<!-- Node1&#45;&gt;Node2 -->
<g id="edge1_Node000001_Node000002" class="edge">
<title>Node1&#45;&gt;Node2</title>
<g id="a_edge1_Node000001_Node000002"><a xlink:title=" ">
<path fill="none" stroke="#63b8ff" d="M1420.63,-284.76C1412.71,-284.76 1404.69,-284.76 1396.96,-284.76"/>
<polygon fill="#63b8ff" stroke="#63b8ff" points="1420.61,-288.26 1430.61,-284.76 1420.61,-281.26 1420.61,-288.26"/>
</a>
</g>
</g>
<!-- Node11 -->
<g id="Node000011" class="node">
<title>Node11</title>
<g id="a_Node000011"><a xlink:href="class_data_base_g_u_i.html#a6c35e47ed05a80db144f240dee805a9d" target="_top" xlink:title="Sets up the GUI.">
<polygon fill="white" stroke="#666666" points="294.88,-187.76 187.38,-187.76 187.38,-167.76 294.88,-167.76 294.88,-187.76"/>
<text text-anchor="middle" x="241.12" y="-174.26" font-family="Helvetica,sans-Serif" font-size="10.00">DataBaseGUI::setup</text>
</a>
</g>
</g>
<!-- Node1&#45;&gt;Node11 -->
<g id="edge40_Node000001_Node000011" class="edge">
<title>Node1&#45;&gt;Node11</title>
<g id="a_edge40_Node000001_Node000011"><a xlink:title=" ">
<path fill="none" stroke="#63b8ff" d="M1474.75,-258.04C1441.05,-187.52 1338.3,-1.76 1190.88,-1.76 1190.88,-1.76 1190.88,-1.76 562.75,-1.76 460.88,-1.76 423.1,12.07 337.25,-42.76 287.72,-74.4 256.51,-141.94 246.05,-167.59"/>
<polygon fill="#63b8ff" stroke="#63b8ff" points="1471.51,-259.38 1478.92,-266.95 1477.85,-256.41 1471.51,-259.38"/>
</a>
</g>
</g>
<!-- Node3 -->
<g id="Node000003" class="node">
<title>Node3</title>
<g id="a_Node000003"><a xlink:href="class_data_base_g_u_i.html#a334c0011a9d3a71539b326a888feccd3" target="_top" xlink:title="Populates the children tab with a multimap of children.">
<polygon fill="white" stroke="#666666" points="779,-301.76 658.75,-301.76 658.75,-269.76 779,-269.76 779,-301.76"/>
<text text-anchor="start" x="666.75" y="-288.26" font-family="Helvetica,sans-Serif" font-size="10.00">DataBaseGUI::populate</text>
<text text-anchor="middle" x="718.88" y="-276.26" font-family="Helvetica,sans-Serif" font-size="10.00">_children_tab</text>
</a>
</g>
</g>
<!-- Node2&#45;&gt;Node3 -->
<g id="edge2_Node000002_Node000003" class="edge">
<title>Node2&#45;&gt;Node3</title>
<g id="a_edge2_Node000002_Node000003"><a xlink:title=" ">
<path fill="none" stroke="#63b8ff" d="M1274.17,-292.96C1174.79,-304.02 981.03,-320.59 817.25,-304.76 804.91,-303.57 791.8,-301.54 779.34,-299.25"/>
<polygon fill="#63b8ff" stroke="#63b8ff" points="1274.47,-296.45 1284.02,-291.85 1273.69,-289.5 1274.47,-296.45"/>
</a>
</g>
</g>
<!-- Node4 -->
<g id="Node000004" class="node">
<title>Node4</title>
<g id="a_Node000004"><a xlink:href="class_data_base_g_u_i.html#af346d08370d9e4574980707f61b9c8f7" target="_top" xlink:title="Populates the children tab with a list of children.">
<polygon fill="white" stroke="#666666" points="1250,-278.76 1129.75,-278.76 1129.75,-246.76 1250,-246.76 1250,-278.76"/>
<text text-anchor="start" x="1137.75" y="-265.26" font-family="Helvetica,sans-Serif" font-size="10.00">DataBaseGUI::populate</text>
<text text-anchor="middle" x="1189.88" y="-253.26" font-family="Helvetica,sans-Serif" font-size="10.00">_children_tab</text>
</a>
</g>
</g>
<!-- Node2&#45;&gt;Node4 -->
<g id="edge3_Node000002_Node000004" class="edge">
<title>Node2&#45;&gt;Node4</title>
<g id="a_edge3_Node000002_Node000004"><a xlink:title=" ">
<path fill="none" stroke="#63b8ff" d="M1274.66,-275.1C1266.62,-273.92 1258.43,-272.71 1250.48,-271.54"/>
<polygon fill="#63b8ff" stroke="#63b8ff" points="1274,-278.54 1284.4,-276.54 1275.02,-271.62 1274,-278.54"/>
</a>
</g>
</g>
<!-- Node5 -->
<g id="Node000005" class="node">
<title>Node5</title>
<g id="a_Node000005"><a xlink:href="class_data_base_g_u_i.html#a2d921da686e76ae195da018bb735a1ae" target="_top" xlink:title="Searches for children based on the provided name and surname.">
<polygon fill="white" stroke="#666666" points="1087.75,-382.76 984,-382.76 984,-350.76 1087.75,-350.76 1087.75,-382.76"/>
<text text-anchor="start" x="992" y="-369.26" font-family="Helvetica,sans-Serif" font-size="10.00">DataBaseGUI::child</text>
<text text-anchor="middle" x="1035.88" y="-357.26" font-family="Helvetica,sans-Serif" font-size="10.00">_search</text>
</a>
</g>
</g>
<!-- Node4&#45;&gt;Node5 -->
<g id="edge4_Node000004_Node000005" class="edge">
<title>Node4&#45;&gt;Node5</title>
<g id="a_edge4_Node000004_Node000005"><a xlink:title=" ">
<path fill="none" stroke="#63b8ff" d="M1155.58,-285.54C1126.96,-305.12 1086.37,-332.89 1060.85,-350.36"/>
<polygon fill="#63b8ff" stroke="#63b8ff" points="1157.26,-288.63 1163.54,-280.09 1153.31,-282.85 1157.26,-288.63"/>
</a>
</g>
</g>
<!-- Node4&#45;&gt;Node11 -->
<g id="edge25_Node000004_Node000011" class="edge">
<title>Node4&#45;&gt;Node11</title>
<g id="a_edge25_Node000004_Node000011"><a xlink:title=" ">
<path fill="none" stroke="#63b8ff" d="M1171.21,-237.03C1128.64,-178.36 1013.93,-39.76 880.62,-39.76 880.62,-39.76 880.62,-39.76 562.75,-39.76 458.81,-39.76 429.86,-54.58 337.25,-101.76 302.59,-119.42 268.61,-150.95 252.24,-167.3"/>
<polygon fill="#63b8ff" stroke="#63b8ff" points="1168.34,-239.02 1176.99,-245.13 1174.04,-234.96 1168.34,-239.02"/>
</a>
</g>
</g>
<!-- Node18 -->
<g id="Node000018" class="node">
<title>Node18</title>
<g id="a_Node000018"><a xlink:href="class_data_base_g_u_i.html#aa684465aa73b5b34bbadd24fc7f2f641" target="_top" xlink:title="Selects the appropriate sorting to use based on child sort index.">
<polygon fill="white" stroke="#666666" points="1093.75,-213.76 978,-213.76 978,-181.76 1093.75,-181.76 1093.75,-213.76"/>
<text text-anchor="start" x="986" y="-200.26" font-family="Helvetica,sans-Serif" font-size="10.00">DataBaseGUI::sort_to</text>
<text text-anchor="middle" x="1035.88" y="-188.26" font-family="Helvetica,sans-Serif" font-size="10.00">_populate_children_tab</text>
</a>
</g>
</g>
<!-- Node4&#45;&gt;Node18 -->
<g id="edge26_Node000004_Node000018" class="edge">
<title>Node4&#45;&gt;Node18</title>
<g id="a_edge26_Node000004_Node000018"><a xlink:title=" ">
<path fill="none" stroke="#63b8ff" d="M1140.18,-241.94C1119.16,-232.95 1094.93,-222.59 1075.22,-214.16"/>
<polygon fill="#63b8ff" stroke="#63b8ff" points="1138.56,-245.05 1149.13,-245.76 1141.31,-238.61 1138.56,-245.05"/>
</a>
</g>
</g>
<!-- Node6 -->
<g id="Node000006" class="node">
<title>Node6</title>
<g id="a_Node000006"><a xlink:href="class_data_base_g_u_i.html#aadb0e7d323a970603312695c0dd9b264" target="_top" xlink:title="Searches for children based on the provided child pointer.">
<polygon fill="white" stroke="#666666" points="931.5,-470.76 827.75,-470.76 827.75,-438.76 931.5,-438.76 931.5,-470.76"/>
<text text-anchor="start" x="835.75" y="-457.26" font-family="Helvetica,sans-Serif" font-size="10.00">DataBaseGUI::child</text>
<text text-anchor="middle" x="879.62" y="-445.26" font-family="Helvetica,sans-Serif" font-size="10.00">_search_by_pointer</text>
</a>
</g>
</g>
<!-- Node5&#45;&gt;Node6 -->
<g id="edge5_Node000005_Node000006" class="edge">
<title>Node5&#45;&gt;Node6</title>
<g id="a_edge5_Node000005_Node000006"><a xlink:title=" ">
<path fill="none" stroke="#63b8ff" d="M996.34,-388.74C969.37,-404.13 933.91,-424.36 909.38,-438.35"/>
<polygon fill="#63b8ff" stroke="#63b8ff" points="997.96,-391.85 1004.91,-383.86 994.49,-385.77 997.96,-391.85"/>
</a>
</g>
</g>
<!-- Node5&#45;&gt;Node11 -->
<g id="edge24_Node000005_Node000011" class="edge">
<title>Node5&#45;&gt;Node11</title>
<g id="a_edge24_Node000005_Node000011"><a xlink:title=" ">
<path fill="none" stroke="#63b8ff" d="M972.35,-362.17C896.53,-355.54 765.38,-340.65 656.5,-310.76 570.58,-287.18 555.67,-262.49 471,-234.76 410.88,-215.07 339.96,-198.39 293.18,-188.25"/>
<polygon fill="#63b8ff" stroke="#63b8ff" points="971.81,-365.63 982.07,-362.99 972.4,-358.66 971.81,-365.63"/>
</a>
</g>
</g>
<!-- Node7 -->
<g id="Node000007" class="node">
<title>Node7</title>
<g id="a_Node000007"><a xlink:href="class_data_base_g_u_i.html#a33f2f95926f7b4b05227dcf395e235d3" target="_top" xlink:title="Populates the parent tab with a multimap of parents.">
<polygon fill="white" stroke="#666666" points="301.25,-439.76 181,-439.76 181,-407.76 301.25,-407.76 301.25,-439.76"/>
<text text-anchor="start" x="189" y="-426.26" font-family="Helvetica,sans-Serif" font-size="10.00">DataBaseGUI::populate</text>
<text text-anchor="middle" x="241.12" y="-414.26" font-family="Helvetica,sans-Serif" font-size="10.00">_parent_tab</text>
</a>
</g>
</g>
<!-- Node6&#45;&gt;Node7 -->
<g id="edge6_Node000006_Node000007" class="edge">
<title>Node6&#45;&gt;Node7</title>
<g id="a_edge6_Node000006_Node000007"><a xlink:title=" ">
<path fill="none" stroke="#63b8ff" d="M816.36,-459.01C715.28,-464.79 509.46,-471.98 337.25,-448.76 323.54,-446.91 308.99,-443.73 295.49,-440.24"/>
<polygon fill="#63b8ff" stroke="#63b8ff" points="816.28,-462.52 826.06,-458.43 815.87,-455.53 816.28,-462.52"/>
</a>
</g>
</g>
<!-- Node8 -->
<g id="Node000008" class="node">
<title>Node8</title>
<g id="a_Node000008"><a xlink:href="class_data_base_g_u_i.html#a739b2cf48c0cb6e3cab2da0a7bbd6d6d" target="_top" xlink:title="Populates the parent tab with a list of parents.">
<polygon fill="white" stroke="#666666" points="779,-426.76 658.75,-426.76 658.75,-394.76 779,-394.76 779,-426.76"/>
<text text-anchor="start" x="666.75" y="-413.26" font-family="Helvetica,sans-Serif" font-size="10.00">DataBaseGUI::populate</text>
<text text-anchor="middle" x="718.88" y="-401.26" font-family="Helvetica,sans-Serif" font-size="10.00">_parent_tab</text>
</a>
</g>
</g>
<!-- Node6&#45;&gt;Node8 -->
<g id="edge7_Node000006_Node000008" class="edge">
<title>Node6&#45;&gt;Node8</title>
<g id="a_edge7_Node000006_Node000008"><a xlink:title=" ">
<path fill="none" stroke="#63b8ff" d="M816.45,-437.53C804.19,-434.13 791.34,-430.57 779.17,-427.2"/>
<polygon fill="#63b8ff" stroke="#63b8ff" points="815.49,-440.89 826.06,-440.19 817.36,-434.15 815.49,-440.89"/>
</a>
</g>
</g>
<!-- Node8&#45;&gt;Node1 -->
<g id="edge8_Node000008_Node000001" class="edge">
<title>Node8&#45;&gt;Node1</title>
<g id="a_edge8_Node000008_Node000001"><a xlink:title=" ">
<path fill="none" stroke="#63b8ff" d="M790.52,-410.76C854.36,-410.76 950.91,-410.76 1034.88,-410.76 1190.88,-410.76 1190.88,-410.76 1190.88,-410.76 1301.42,-410.76 1417.96,-335.39 1465.09,-301.23"/>
<polygon fill="#63b8ff" stroke="#63b8ff" points="790.9,-407.26 780.9,-410.76 790.9,-414.26 790.9,-407.26"/>
</a>
</g>
</g>
<!-- Node9 -->
<g id="Node000009" class="node">
<title>Node9</title>
<g id="a_Node000009"><a xlink:href="class_data_base_g_u_i.html#a625b5e2018395a458ff517bbf364e1bf" target="_top" xlink:title="Selects the appropriate sorting to use based on parent sort index.">
<polygon fill="white" stroke="#666666" points="620.5,-352.76 507,-352.76 507,-320.76 620.5,-320.76 620.5,-352.76"/>
<text text-anchor="start" x="515" y="-339.26" font-family="Helvetica,sans-Serif" font-size="10.00">DataBaseGUI::sort_to</text>
<text text-anchor="middle" x="563.75" y="-327.26" font-family="Helvetica,sans-Serif" font-size="10.00">_populate_parent_tab</text>
</a>
</g>
</g>
<!-- Node8&#45;&gt;Node9 -->
<g id="edge9_Node000008_Node000009" class="edge">
<title>Node8&#45;&gt;Node9</title>
<g id="a_edge9_Node000008_Node000009"><a xlink:title=" ">
<path fill="none" stroke="#63b8ff" d="M673.66,-389.39C649.77,-377.85 620.72,-363.81 598.64,-353.14"/>
<polygon fill="#63b8ff" stroke="#63b8ff" points="672,-392.48 682.53,-393.68 675.05,-386.18 672,-392.48"/>
</a>
</g>
</g>
<!-- Node10 -->
<g id="Node000010" class="node">
<title>Node10</title>
<g id="a_Node000010"><a xlink:href="class_data_base_g_u_i.html#a336fa47d9a9e56d585d82f53d33e8593" target="_top" xlink:title="Adds a new parent to the database.">
<polygon fill="white" stroke="#666666" points="469.88,-301.76 338.38,-301.76 338.38,-281.76 469.88,-281.76 469.88,-301.76"/>
<text text-anchor="middle" x="404.12" y="-288.26" font-family="Helvetica,sans-Serif" font-size="10.00">DataBaseGUI::parent_add</text>
</a>
</g>
</g>
<!-- Node9&#45;&gt;Node10 -->
<g id="edge10_Node000009_Node000010" class="edge">
<title>Node9&#45;&gt;Node10</title>
<g id="a_edge10_Node000009_Node000010"><a xlink:title=" ">
<path fill="none" stroke="#63b8ff" d="M495.68,-317.61C477.19,-312.33 457.81,-306.8 441.75,-302.22"/>
<polygon fill="#63b8ff" stroke="#63b8ff" points="494.7,-320.97 505.28,-320.35 496.62,-314.24 494.7,-320.97"/>
</a>
</g>
</g>
<!-- Node14 -->
<g id="Node000014" class="node">
<title>Node14</title>
<g id="a_Node000014"><a xlink:href="class_data_base_g_u_i.html#a5b049fb9e0e5d78c4c2e81e569b471f9" target="_top" xlink:title="Edits an existing parent in the database.">
<polygon fill="white" stroke="#666666" points="469.88,-389.76 338.38,-389.76 338.38,-369.76 469.88,-369.76 469.88,-389.76"/>
<text text-anchor="middle" x="404.12" y="-376.26" font-family="Helvetica,sans-Serif" font-size="10.00">DataBaseGUI::parent_edit</text>
</a>
</g>
</g>
<!-- Node9&#45;&gt;Node14 -->
<g id="edge14_Node000009_Node000014" class="edge">
<title>Node9&#45;&gt;Node14</title>
<g id="a_edge14_Node000009_Node000014"><a xlink:title=" ">
<path fill="none" stroke="#63b8ff" d="M495.7,-355.05C477.75,-359.95 458.96,-365.07 443.18,-369.38"/>
<polygon fill="#63b8ff" stroke="#63b8ff" points="496.55,-358.45 505.27,-352.44 494.7,-351.7 496.55,-358.45"/>
</a>
</g>
</g>
<!-- Node15 -->
<g id="Node000015" class="node">
<title>Node15</title>
<g id="a_Node000015"><a xlink:href="class_data_base_g_u_i.html#ad8a42f24cdb603ba85c1cdd4ea2e73a4" target="_top" xlink:title="Removes a parent from the database.">
<polygon fill="white" stroke="#666666" points="459.38,-439.76 348.88,-439.76 348.88,-407.76 459.38,-407.76 459.38,-439.76"/>
<text text-anchor="start" x="356.88" y="-426.26" font-family="Helvetica,sans-Serif" font-size="10.00">DataBaseGUI::parent</text>
<text text-anchor="middle" x="404.12" y="-414.26" font-family="Helvetica,sans-Serif" font-size="10.00">_remove</text>
</a>
</g>
</g>
<!-- Node9&#45;&gt;Node15 -->
<g id="edge17_Node000009_Node000015" class="edge">
<title>Node9&#45;&gt;Node15</title>
<g id="a_edge17_Node000009_Node000015"><a xlink:title=" ">
<path fill="none" stroke="#63b8ff" d="M532.67,-359.69C515.27,-372.28 492.6,-387.56 471,-398.76 465.14,-401.8 458.82,-404.67 452.49,-407.31"/>
<polygon fill="#63b8ff" stroke="#63b8ff" points="534.54,-362.65 540.53,-353.91 530.4,-357.01 534.54,-362.65"/>
</a>
</g>
</g>
<!-- Node16 -->
<g id="Node000016" class="node">
<title>Node16</title>
<g id="a_Node000016"><a xlink:href="class_data_base_g_u_i.html#a783bdf1d65998f887dd6445741450480" target="_top" xlink:title="Changes the sorting method for parents.">
<polygon fill="white" stroke="#666666" points="459.38,-351.76 348.88,-351.76 348.88,-319.76 459.38,-319.76 459.38,-351.76"/>
<text text-anchor="start" x="356.88" y="-338.26" font-family="Helvetica,sans-Serif" font-size="10.00">DataBaseGUI::parent</text>
<text text-anchor="middle" x="404.12" y="-326.26" font-family="Helvetica,sans-Serif" font-size="10.00">_sort_change</text>
</a>
</g>
</g>
<!-- Node9&#45;&gt;Node16 -->
<g id="edge20_Node000009_Node000016" class="edge">
<title>Node9&#45;&gt;Node16</title>
<g id="a_edge20_Node000009_Node000016"><a xlink:title=" ">
<path fill="none" stroke="#63b8ff" d="M495.43,-336.33C483.48,-336.26 471.17,-336.18 459.64,-336.11"/>
<polygon fill="#63b8ff" stroke="#63b8ff" points="495.2,-339.83 505.22,-336.4 495.24,-332.83 495.2,-339.83"/>
</a>
</g>
</g>
<!-- Node17 -->
<g id="Node000017" class="node">
<title>Node17</title>
<g id="a_Node000017"><a xlink:href="class_data_base_g_u_i.html#a438b5070d6a58ffa5e884d18740852c6" target="_top" xlink:title="Handles tab change events.">
<polygon fill="white" stroke="#666666" points="471,-263.76 337.25,-263.76 337.25,-243.76 471,-243.76 471,-263.76"/>
<text text-anchor="middle" x="404.12" y="-250.26" font-family="Helvetica,sans-Serif" font-size="10.00">DataBaseGUI::tab_change</text>
</a>
</g>
</g>
<!-- Node9&#45;&gt;Node17 -->
<g id="edge22_Node000009_Node000017" class="edge">
<title>Node9&#45;&gt;Node17</title>
<g id="a_edge22_Node000009_Node000017"><a xlink:title=" ">
<path fill="none" stroke="#63b8ff" d="M534.49,-313.39C517.07,-299.95 493.78,-283.62 471,-272.76 464.12,-269.48 456.57,-266.65 449.1,-264.26"/>
<polygon fill="#63b8ff" stroke="#63b8ff" points="532.31,-316.13 542.33,-319.57 536.64,-310.63 532.31,-316.13"/>
</a>
</g>
</g>
<!-- Node10&#45;&gt;Node11 -->
<g id="edge11_Node000010_Node000011" class="edge">
<title>Node10&#45;&gt;Node11</title>
<g id="a_edge11_Node000010_Node000011"><a xlink:title=" ">
<path fill="none" stroke="#63b8ff" d="M345.4,-277.02C342.58,-275.71 339.85,-274.29 337.25,-272.76 298.45,-249.88 264.09,-207.5 249.52,-188.03"/>
<polygon fill="#63b8ff" stroke="#63b8ff" points="343.86,-280.17 354.44,-280.72 346.51,-273.69 343.86,-280.17"/>
</a>
</g>
</g>
<!-- Node12 -->
<g id="Node000012" class="node">
<title>Node12</title>
<g id="a_Node000012"><a xlink:href="class_data_base_g_u_i.html#a2c83afe3a30fb5166d275d9a74d33196" target="_top" xlink:title="Default constructor.">
<polygon fill="white" stroke="#666666" points="145,-206.76 0,-206.76 0,-186.76 145,-186.76 145,-206.76"/>
<text text-anchor="middle" x="72.5" y="-193.26" font-family="Helvetica,sans-Serif" font-size="10.00">DataBaseGUI::DataBaseGUI</text>
</a>
</g>
</g>
<!-- Node11&#45;&gt;Node12 -->
<g id="edge12_Node000011_Node000012" class="edge">
<title>Node11&#45;&gt;Node12</title>
<g id="a_edge12_Node000011_Node000012"><a xlink:title=" ">
<path fill="none" stroke="#63b8ff" d="M175.53,-185.13C165.64,-186.25 155.37,-187.43 145.32,-188.57"/>
<polygon fill="#63b8ff" stroke="#63b8ff" points="175.9,-188.61 185.44,-184 175.11,-181.65 175.9,-188.61"/>
</a>
</g>
</g>
<!-- Node13 -->
<g id="Node000013" class="node">
<title>Node13</title>
<g id="a_Node000013"><a xlink:href="class_data_base_g_u_i.html#aba10d1d8e9fb151632ff34de418cee82" target="_top" xlink:title="Constructs a DataBaseGUI object.">
<polygon fill="white" stroke="#666666" points="145,-168.76 0,-168.76 0,-148.76 145,-148.76 145,-168.76"/>
<text text-anchor="middle" x="72.5" y="-155.26" font-family="Helvetica,sans-Serif" font-size="10.00">DataBaseGUI::DataBaseGUI</text>
</a>
</g>
</g>
<!-- Node11&#45;&gt;Node13 -->
<g id="edge13_Node000011_Node000013" class="edge">
<title>Node11&#45;&gt;Node13</title>
<g id="a_edge13_Node000011_Node000013"><a xlink:title=" ">
<path fill="none" stroke="#63b8ff" d="M175.53,-170.4C165.64,-169.27 155.37,-168.1 145.32,-166.95"/>
<polygon fill="#63b8ff" stroke="#63b8ff" points="175.11,-173.87 185.44,-171.53 175.9,-166.91 175.11,-173.87"/>
</a>
</g>
</g>
<!-- Node14&#45;&gt;Node7 -->
<g id="edge15_Node000014_Node000007" class="edge">
<title>Node14&#45;&gt;Node7</title>
<g id="a_edge15_Node000014_Node000007"><a xlink:title=" ">
<path fill="none" stroke="#63b8ff" d="M353.94,-393.2C337.46,-397.71 318.91,-402.78 301.72,-407.47"/>
<polygon fill="#63b8ff" stroke="#63b8ff" points="354.79,-396.6 363.51,-390.59 352.94,-389.85 354.79,-396.6"/>
</a>
</g>
</g>
<!-- Node14&#45;&gt;Node8 -->
<g id="edge16_Node000014_Node000008" class="edge">
<title>Node14&#45;&gt;Node8</title>
<g id="a_edge16_Node000014_Node000008"><a xlink:title=" ">
<path fill="none" stroke="#63b8ff" d="M481.47,-387.33C535.92,-392.72 608.1,-399.88 658.31,-404.86"/>
<polygon fill="#63b8ff" stroke="#63b8ff" points="481.93,-383.86 471.64,-386.35 481.24,-390.82 481.93,-383.86"/>
</a>
</g>
</g>
<!-- Node15&#45;&gt;Node7 -->
<g id="edge18_Node000015_Node000007" class="edge">
<title>Node15&#45;&gt;Node7</title>
<g id="a_edge18_Node000015_Node000007"><a xlink:title=" ">
<path fill="none" stroke="#63b8ff" d="M337.41,-423.76C325.54,-423.76 313.22,-423.76 301.55,-423.76"/>
<polygon fill="#63b8ff" stroke="#63b8ff" points="337.1,-427.26 347.1,-423.76 337.1,-420.26 337.1,-427.26"/>
</a>
</g>
</g>
<!-- Node15&#45;&gt;Node8 -->
<g id="edge19_Node000015_Node000008" class="edge">
<title>Node15&#45;&gt;Node8</title>
<g id="a_edge19_Node000015_Node000008"><a xlink:title=" ">
<path fill="none" stroke="#63b8ff" d="M471.2,-421.01C526.55,-418.71 604.87,-415.46 658.31,-413.24"/>
<polygon fill="#63b8ff" stroke="#63b8ff" points="471.11,-417.51 461.27,-421.43 471.4,-424.51 471.11,-417.51"/>
</a>
</g>
</g>
<!-- Node16&#45;&gt;Node11 -->
<g id="edge21_Node000016_Node000011" class="edge">
<title>Node16&#45;&gt;Node11</title>
<g id="a_edge21_Node000016_Node000011"><a xlink:title=" ">
<path fill="none" stroke="#63b8ff" d="M341.28,-313.66C339.9,-312.73 338.55,-311.76 337.25,-310.76 291.59,-275.6 258.53,-212.57 246.8,-187.98"/>
<polygon fill="#63b8ff" stroke="#63b8ff" points="339.16,-316.47 349.55,-318.54 342.72,-310.44 339.16,-316.47"/>
</a>
</g>
</g>
<!-- Node17&#45;&gt;Node11 -->
<g id="edge23_Node000017_Node000011" class="edge">
<title>Node17&#45;&gt;Node11</title>
<g id="a_edge23_Node000017_Node000011"><a xlink:title=" ">
<path fill="none" stroke="#63b8ff" d="M360.95,-239.47C352.99,-236.47 344.8,-233.18 337.25,-229.76 309.13,-217.04 278,-199.28 259.25,-188.15"/>
<polygon fill="#63b8ff" stroke="#63b8ff" points="359.56,-242.69 370.15,-242.84 361.96,-236.11 359.56,-242.69"/>
</a>
</g>
</g>
<!-- Node18&#45;&gt;Node17 -->
<g id="edge39_Node000018_Node000017" class="edge">
<title>Node18&#45;&gt;Node17</title>
<g id="a_edge39_Node000018_Node000017"><a xlink:title=" ">
<path fill="none" stroke="#63b8ff" d="M966.17,-203.72C923.34,-207.44 867.08,-212.35 817.25,-216.76 695.07,-227.58 552.53,-240.43 471.14,-247.78"/>
<polygon fill="#63b8ff" stroke="#63b8ff" points="966.43,-207.21 976.09,-202.85 965.82,-200.23 966.43,-207.21"/>
</a>
</g>
</g>
<!-- Node19 -->
<g id="Node000019" class="node">
<title>Node19</title>
<g id="a_Node000019"><a xlink:href="class_data_base_g_u_i.html#a00f9044d3b8dd9c5dada244dac1b0df6" target="_top" xlink:title="Adds a new child to the database.">
<polygon fill="white" stroke="#666666" points="781.25,-178.76 656.5,-178.76 656.5,-158.76 781.25,-158.76 781.25,-178.76"/>
<text text-anchor="middle" x="718.88" y="-165.26" font-family="Helvetica,sans-Serif" font-size="10.00">DataBaseGUI::child_add</text>
</a>
</g>
</g>
<!-- Node18&#45;&gt;Node19 -->
<g id="edge27_Node000018_Node000019" class="edge">
<title>Node18&#45;&gt;Node19</title>
<g id="a_edge27_Node000018_Node000019"><a xlink:title=" ">
<path fill="none" stroke="#63b8ff" d="M966.11,-186.75C958,-185.64 949.82,-184.61 942,-183.76 887.82,-177.86 825.94,-173.91 781.28,-171.55"/>
<polygon fill="#63b8ff" stroke="#63b8ff" points="965.61,-190.21 976,-188.15 966.59,-183.28 965.61,-190.21"/>
</a>
</g>
</g>
<!-- Node20 -->
<g id="Node000020" class="node">
<title>Node20</title>
<g id="a_Node000020"><a xlink:href="class_data_base_g_u_i.html#acb6c6b292e58d0ead30682f7f5705244" target="_top" xlink:title="Edits an existing child in the database.">
<polygon fill="white" stroke="#666666" points="942,-295.76 817.25,-295.76 817.25,-275.76 942,-275.76 942,-295.76"/>
<text text-anchor="middle" x="879.62" y="-282.26" font-family="Helvetica,sans-Serif" font-size="10.00">DataBaseGUI::child_edit</text>
</a>
</g>
</g>
<!-- Node18&#45;&gt;Node20 -->
<g id="edge29_Node000018_Node000020" class="edge">
<title>Node18&#45;&gt;Node20</title>
<g id="a_edge29_Node000018_Node000020"><a xlink:title=" ">
<path fill="none" stroke="#63b8ff" d="M1008.27,-221.36C990.52,-236.1 966.1,-254.53 942,-266.76 935.53,-270.04 928.4,-272.88 921.34,-275.29"/>
<polygon fill="#63b8ff" stroke="#63b8ff" points="1010.39,-224.15 1015.75,-215.02 1005.86,-218.81 1010.39,-224.15"/>
</a>
</g>
</g>
<!-- Node21 -->
<g id="Node000021" class="node">
<title>Node21</title>
<g id="a_Node000021"><a xlink:href="class_data_base_g_u_i.html#ae3a08843db874e51a7cea32fa8937ca5" target="_top" xlink:title="Removes a child from the database.">
<polygon fill="white" stroke="#666666" points="931.5,-257.76 827.75,-257.76 827.75,-225.76 931.5,-225.76 931.5,-257.76"/>
<text text-anchor="start" x="835.75" y="-244.26" font-family="Helvetica,sans-Serif" font-size="10.00">DataBaseGUI::child</text>
<text text-anchor="middle" x="879.62" y="-232.26" font-family="Helvetica,sans-Serif" font-size="10.00">_remove</text>
</a>
</g>
</g>
<!-- Node18&#45;&gt;Node21 -->
<g id="edge32_Node000018_Node000021" class="edge">
<title>Node18&#45;&gt;Node21</title>
<g id="a_edge32_Node000018_Node000021"><a xlink:title=" ">
<path fill="none" stroke="#63b8ff" d="M967.11,-217.09C955.25,-220.47 943.1,-223.94 931.79,-227.17"/>
<polygon fill="#63b8ff" stroke="#63b8ff" points="967.76,-220.54 976.42,-214.43 965.84,-213.81 967.76,-220.54"/>
</a>
</g>
</g>
<!-- Node22 -->
<g id="Node000022" class="node">
<title>Node22</title>
<g id="a_Node000022"><a xlink:href="class_data_base_g_u_i.html#a2e6d3629f679c153cdd21b683ce794a1" target="_top" xlink:title="Changes the sorting method for children.">
<polygon fill="white" stroke="#666666" points="615.62,-99.76 511.88,-99.76 511.88,-67.76 615.62,-67.76 615.62,-99.76"/>
<text text-anchor="start" x="519.88" y="-86.26" font-family="Helvetica,sans-Serif" font-size="10.00">DataBaseGUI::child</text>
<text text-anchor="middle" x="563.75" y="-74.26" font-family="Helvetica,sans-Serif" font-size="10.00">_sort_change</text>
</a>
</g>
</g>
<!-- Node18&#45;&gt;Node22 -->
<g id="edge35_Node000018_Node000022" class="edge">
<title>Node18&#45;&gt;Node22</title>
<g id="a_edge35_Node000018_Node000022"><a xlink:title=" ">
<path fill="none" stroke="#63b8ff" d="M1000.83,-175.44C983.79,-165.24 962.49,-153.86 942,-146.76 829.55,-107.76 689.62,-92.49 615.82,-86.84"/>
<polygon fill="#63b8ff" stroke="#63b8ff" points="998.68,-178.23 1009.03,-180.48 1002.34,-172.27 998.68,-178.23"/>
</a>
</g>
</g>
<!-- Node23 -->
<g id="Node000023" class="node">
<title>Node23</title>
<g id="a_Node000023"><a xlink:href="class_data_base_g_u_i.html#a20d1ece0affaa1f5b6876ee072dd2ab1" target="_top" xlink:title="Imports a database from a file.">
<polygon fill="white" stroke="#666666" points="619,-149.76 508.5,-149.76 508.5,-117.76 619,-117.76 619,-149.76"/>
<text text-anchor="start" x="516.5" y="-136.26" font-family="Helvetica,sans-Serif" font-size="10.00">DataBaseGUI::import</text>
<text text-anchor="middle" x="563.75" y="-124.26" font-family="Helvetica,sans-Serif" font-size="10.00">_database</text>
</a>
</g>
</g>
<!-- Node18&#45;&gt;Node23 -->
<g id="edge37_Node000018_Node000023" class="edge">
<title>Node18&#45;&gt;Node23</title>
<g id="a_edge37_Node000018_Node000023"><a xlink:title=" ">
<path fill="none" stroke="#63b8ff" d="M975.31,-178.18C964.32,-175.03 952.87,-172.06 942,-169.76 828.87,-145.85 693.27,-137.8 619.37,-135.11"/>
<polygon fill="#63b8ff" stroke="#63b8ff" points="974.08,-181.47 984.66,-180.94 976.06,-174.76 974.08,-181.47"/>
</a>
</g>
</g>
<!-- Node19&#45;&gt;Node11 -->
<g id="edge28_Node000019_Node000011" class="edge">
<title>Node19&#45;&gt;Node11</title>
<g id="a_edge28_Node000019_Node000011"><a xlink:title=" ">
<path fill="none" stroke="#63b8ff" d="M644.76,-170.14C548.25,-171.97 380.61,-175.14 295.3,-176.75"/>
<polygon fill="#63b8ff" stroke="#63b8ff" points="644.72,-173.65 654.65,-169.96 644.59,-166.65 644.72,-173.65"/>
</a>
</g>
</g>
<!-- Node20&#45;&gt;Node3 -->
<g id="edge30_Node000020_Node000003" class="edge">
<title>Node20&#45;&gt;Node3</title>
<g id="a_edge30_Node000020_Node000003"><a xlink:title=" ">
<path fill="none" stroke="#63b8ff" d="M805.44,-285.76C796.74,-285.76 787.94,-285.76 779.46,-285.76"/>
<polygon fill="#63b8ff" stroke="#63b8ff" points="805.28,-289.26 815.28,-285.76 805.28,-282.26 805.28,-289.26"/>
</a>
</g>
</g>
<!-- Node20&#45;&gt;Node4 -->
<g id="edge31_Node000020_Node000004" class="edge">
<title>Node20&#45;&gt;Node4</title>
<g id="a_edge31_Node000020_Node000004"><a xlink:title=" ">
<path fill="none" stroke="#63b8ff" d="M953.41,-280.33C1007.09,-276.32 1079.22,-270.94 1129.44,-267.2"/>
<polygon fill="#63b8ff" stroke="#63b8ff" points="953.47,-276.82 943.76,-281.05 953.99,-283.8 953.47,-276.82"/>
</a>
</g>
</g>
<!-- Node21&#45;&gt;Node3 -->
<g id="edge33_Node000021_Node000003" class="edge">
<title>Node21&#45;&gt;Node3</title>
<g id="a_edge33_Node000021_Node000003"><a xlink:title=" ">
<path fill="none" stroke="#63b8ff" d="M816.45,-258.99C804.19,-262.39 791.34,-265.95 779.17,-269.32"/>
<polygon fill="#63b8ff" stroke="#63b8ff" points="817.36,-262.37 826.06,-256.33 815.49,-255.63 817.36,-262.37"/>
</a>
</g>
</g>
<!-- Node21&#45;&gt;Node4 -->
<g id="edge34_Node000021_Node000004" class="edge">
<title>Node21&#45;&gt;Node4</title>
<g id="a_edge34_Node000021_Node000004"><a xlink:title=" ">
<path fill="none" stroke="#63b8ff" d="M943.18,-246.02C997.61,-249.73 1075.95,-255.07 1129.44,-258.71"/>
<polygon fill="#63b8ff" stroke="#63b8ff" points="943.67,-242.55 933.46,-245.36 943.2,-249.53 943.67,-242.55"/>
</a>
</g>
</g>
<!-- Node22&#45;&gt;Node11 -->
<g id="edge36_Node000022_Node000011" class="edge">
<title>Node22&#45;&gt;Node11</title>
<g id="a_edge36_Node000022_Node000011"><a xlink:title=" ">
<path fill="none" stroke="#63b8ff" d="M500.57,-98.31C455.02,-109.39 391.88,-125.61 337.25,-142.76 313.58,-150.19 287.12,-160.06 268.14,-167.42"/>
<polygon fill="#63b8ff" stroke="#63b8ff" points="501.38,-101.72 510.28,-95.97 499.74,-94.91 501.38,-101.72"/>
</a>
</g>
</g>
<!-- Node23&#45;&gt;Node11 -->
<g id="edge38_Node000023_Node000011" class="edge">
<title>Node23&#45;&gt;Node11</title>
<g id="a_edge38_Node000023_Node000011"><a xlink:title=" ">
<path fill="none" stroke="#63b8ff" d="M496.67,-142.31C451.71,-148.18 390.86,-156.25 337.25,-163.76 323.53,-165.68 308.71,-167.83 294.94,-169.85"/>
<polygon fill="#63b8ff" stroke="#63b8ff" points="497.08,-145.78 506.54,-141.02 496.17,-138.84 497.08,-145.78"/>
</a>
</g>
</g>
</g>
</svg>

<g id="navigator" transform="translate(0 0)" fill="#404254">
  <rect fill="#f2f5e9" fill-opacity="0.5" stroke="#606060" stroke-width=".5" x="0" y="0" width="60" height="60"/>
  <use id="zoomplus" xlink:href="#zoomPlus" x="17" y="9" onmousedown="handleZoom(evt,'in')"/>
  <use id="zoomminus" xlink:href="#zoomMin" x="42" y="9" onmousedown="handleZoom(evt,'out')"/>
  <use id="reset" xlink:href="#resetDef" x="30" y="36" onmousedown="handleReset()"/>
   <use id="arrowup" xlink:href="#arrowUp" x="0" y="0" onmousedown="handlePan(0,-1)"/>
  <use id="arrowright" xlink:href="#arrowRight" x="0" y="0" onmousedown="handlePan(1,0)"/>
  <use id="arrowdown" xlink:href="#arrowDown" x="0" y="0" onmousedown="handlePan(0,1)"/>
  <use id="arrowleft" xlink:href="#arrowLeft" x="0" y="0" onmousedown="handlePan(-1,0)"/>
</g>
<svg viewBox="0 0 15 15" width="100%" height="30px" preserveAspectRatio="xMaxYMin meet">
 <g id="arrow_out" transform="scale(0.3 0.3)">
  <a xlink:href="class_data_base_g_u_i_a7c3d843eec449d8a4ec5ce6bf0375358_icgraph_org.svg" target="_base">
   <rect id="button" ry="5" rx="5" y="6" x="6" height="38" width="38"
        fill="#f2f5e9" fill-opacity="0.5" stroke="#606060" stroke-width="1.0"/>
   <path id="arrow"
     d="M 11.500037,31.436501 C 11.940474,20.09759 22.043105,11.32322 32.158766,21.979434 L 37.068811,17.246167 C 37.068811,17.246167 37.088388,32 37.088388,32 L 22.160133,31.978069 C 22.160133,31.978069 26.997745,27.140456 26.997745,27.140456 C 18.528582,18.264221 13.291696,25.230495 11.500037,31.436501 z"
     style="fill:#404040;"/>
  </a>
 </g>
</svg>

<style type='text/css'>
<![CDATA[
[data-mouse-over-selected='false'] { opacity: 0.7; }
[data-mouse-over-selected='true']  { opacity: 1.0; }
]]>
</style>
<script type="application/ecmascript"><![CDATA[
document.addEventListener('DOMContentLoaded', (event) => {
  highlightEdges();
  highlightAdjacentNodes();
});
]]></script>
</svg>
