<?xml version="1.0" encoding="UTF-8" standalone="no"?>
<!DOCTYPE svg PUBLIC "-//W3C//DTD SVG 1.1//EN"
 "http://www.w3.org/Graphics/SVG/1.1/DTD/svg11.dtd">
<!-- Generated by graphviz version 12.2.1 (20241206.2353)
 -->
<!-- Title: DataBaseGUI::populate_children_tab Pages: 1 -->
<!--zoomable 539 -->

<svg id="main" version="1.1" xmlns="http://www.w3.org/2000/svg" xmlns:xlink="http://www.w3.org/1999/xlink" xml:space="preserve" onload="init(evt)">

<style type="text/css"><![CDATA[
.node, .edge {opacity: 0.7;}
.node.selected, .edge.selected {opacity: 1;}
.edge:hover path { stroke: red; }
.edge:hover polygon { stroke: red; fill: red; }
]]></style>

<defs>
  <circle id="rim" cx="0" cy="0" r="7"/>
  <circle id="rim2" cx="0" cy="0" r="3.5"/>
  <g id="zoomPlus">
    <use xlink:href="#rim" fill="#404040"><set attributeName="fill" to="#808080" begin="zoomplus.mouseover" end="zoomplus.mouseout"/></use>
    <path d="M-4,0h8M0,-4v8" fill="none" stroke="white" stroke-width="1.5" pointer-events="none"/>
  </g>
  <g id="zoomMin">
    <use xlink:href="#rim" fill="#404040"><set attributeName="fill" to="#808080" begin="zoomminus.mouseover" end="zoomminus.mouseout"/></use>
    <path d="M-4,0h8" fill="none" stroke="white" stroke-width="1.5" pointer-events="none"/>
  </g>
  <g id="arrowUp" transform="translate(30 24)">
    <use xlink:href="#rim"/>
    <path pointer-events="none" fill="none" stroke="white" stroke-width="1.5" d="M0,-3.0v7 M-2.5,-0.5L0,-3.0L2.5,-0.5"/>
  </g>
  <g id="arrowRight" transform="rotate(90) translate(36 -43)">
    <use xlink:href="#rim"/>
    <path pointer-events="none" fill="none" stroke="white" stroke-width="1.5" d="M0,-3.0v7 M-2.5,-0.5L0,-3.0L2.5,-0.5"/>
  </g>
  <g id="arrowDown" transform="rotate(180) translate(-30 -48)">
    <use xlink:href="#rim"/>
    <path pointer-events="none" fill="none" stroke="white" stroke-width="1.5" d="M0,-3.0v7 M-2.5,-0.5L0,-3.0L2.5,-0.5"/>
  </g>
  <g id="arrowLeft" transform="rotate(270) translate(-36 17)">
    <use xlink:href="#rim"/>
    <path pointer-events="none" fill="none" stroke="white" stroke-width="1.5" d="M0,-3.0v7 M-2.5,-0.5L0,-3.0L2.5,-0.5"/>
  </g>
  <g id="resetDef">
    <use xlink:href="#rim2" fill="#404040"><set attributeName="fill" to="#808080" begin="reset.mouseover" end="reset.mouseout"/></use>
  </g>
</defs>
<script type="application/ecmascript">
var viewWidth = 958;
var viewHeight = 539;
var sectionId = 'dynsection-52';
</script>
<script type="application/ecmascript" xlink:href="svg.min.js"/>
<svg id="graph" class="graph">
<g id="viewport">
<title>DataBaseGUI::populate_children_tab</title>
<!-- Node1 -->
<g id="Node000001" class="node">
<title>Node1</title>
<g id="a_Node000001"><a xlink:title="Populates the children tab with a list of children.">
<polygon fill="#999999" stroke="#666666" points="120.25,-202 0,-202 0,-170 120.25,-170 120.25,-202"/>
<text text-anchor="start" x="8" y="-188.5" font-family="Helvetica,sans-Serif" font-size="10.00">DataBaseGUI::populate</text>
<text text-anchor="middle" x="60.12" y="-176.5" font-family="Helvetica,sans-Serif" font-size="10.00">_children_tab</text>
</a>
</g>
</g>
<!-- Node2 -->
<g id="Node000002" class="node">
<title>Node2</title>
<g id="a_Node000002"><a xlink:href="class_data_base_g_u_i.html#acb6c6b292e58d0ead30682f7f5705244" target="_top" xlink:title="Edits an existing child in the database.">
<polygon fill="white" stroke="#666666" points="292.25,-372 167.5,-372 167.5,-352 292.25,-352 292.25,-372"/>
<text text-anchor="middle" x="229.88" y="-358.5" font-family="Helvetica,sans-Serif" font-size="10.00">DataBaseGUI::child_edit</text>
</a>
</g>
</g>
<!-- Node1&#45;&gt;Node2 -->
<g id="edge1_Node000001_Node000002" class="edge">
<title>Node1&#45;&gt;Node2</title>
<g id="a_edge1_Node000001_Node000002"><a xlink:title=" ">
<path fill="none" stroke="#63b8ff" d="M66.99,-202.35C78.92,-233.35 108.98,-300.91 156.25,-338 160.77,-341.55 165.84,-344.58 171.14,-347.17"/>
<polygon fill="#63b8ff" stroke="#63b8ff" points="169.57,-350.31 180.14,-351.04 172.33,-343.88 169.57,-350.31"/>
</a>
</g>
</g>
<!-- Node4 -->
<g id="Node000004" class="node">
<title>Node4</title>
<g id="a_Node000004"><a xlink:href="class_data_base_g_u_i.html#ae3a08843db874e51a7cea32fa8937ca5" target="_top" xlink:title="Removes a child from the database.">
<polygon fill="white" stroke="#666666" points="281.75,-296 178,-296 178,-264 281.75,-264 281.75,-296"/>
<text text-anchor="start" x="186" y="-282.5" font-family="Helvetica,sans-Serif" font-size="10.00">DataBaseGUI::child</text>
<text text-anchor="middle" x="229.88" y="-270.5" font-family="Helvetica,sans-Serif" font-size="10.00">_remove</text>
</a>
</g>
</g>
<!-- Node1&#45;&gt;Node4 -->
<g id="edge4_Node000001_Node000004" class="edge">
<title>Node1&#45;&gt;Node4</title>
<g id="a_edge4_Node000001_Node000004"><a xlink:title=" ">
<path fill="none" stroke="#63b8ff" d="M80.05,-202.35C98.49,-217.62 127.83,-240.22 156.25,-255 159.73,-256.81 163.36,-258.53 167.08,-260.16"/>
<polygon fill="#63b8ff" stroke="#63b8ff" points="165.69,-263.38 176.27,-263.95 168.36,-256.91 165.69,-263.38"/>
</a>
</g>
</g>
<!-- Node5 -->
<g id="Node000005" class="node">
<title>Node5</title>
<g id="a_Node000005"><a xlink:href="class_data_base_g_u_i.html#afbc53e28ad83200fe77e0fa5a6eb970f" target="_top" xlink:title="Clears the children tab.">
<polygon fill="white" stroke="#666666" points="288.5,-246 171.25,-246 171.25,-214 288.5,-214 288.5,-246"/>
<text text-anchor="start" x="179.25" y="-232.5" font-family="Helvetica,sans-Serif" font-size="10.00">DataBaseGUI::children</text>
<text text-anchor="middle" x="229.88" y="-220.5" font-family="Helvetica,sans-Serif" font-size="10.00">_tab_clear</text>
</a>
</g>
</g>
<!-- Node1&#45;&gt;Node5 -->
<g id="edge6_Node000001_Node000005" class="edge">
<title>Node1&#45;&gt;Node5</title>
<g id="a_edge6_Node000001_Node000005"><a xlink:title=" ">
<path fill="none" stroke="#63b8ff" d="M120.74,-201.64C133.47,-204.98 147.01,-208.53 160.05,-211.95"/>
<polygon fill="#63b8ff" stroke="#63b8ff" points="158.84,-215.25 169.4,-214.4 160.61,-208.48 158.84,-215.25"/>
</a>
</g>
</g>
<!-- Node6 -->
<g id="Node000006" class="node">
<title>Node6</title>
<g id="a_Node000006"><a xlink:href="class_child_entry.html#abda9dea89937d77c4def3fb81d964ff9" target="_top" xlink:title="Signal emitted when a child edit is requested.">
<polygon fill="white" stroke="#666666" points="295.25,-196 164.5,-196 164.5,-176 295.25,-176 295.25,-196"/>
<text text-anchor="middle" x="229.88" y="-182.5" font-family="Helvetica,sans-Serif" font-size="10.00">ChildEntry::editRequested</text>
</a>
</g>
</g>
<!-- Node1&#45;&gt;Node6 -->
<g id="edge7_Node000001_Node000006" class="edge">
<title>Node1&#45;&gt;Node6</title>
<g id="a_edge7_Node000001_Node000006"><a xlink:title=" ">
<path fill="none" stroke="#63b8ff" d="M120.74,-186C131.04,-186 141.88,-186 152.56,-186"/>
<polygon fill="#63b8ff" stroke="#63b8ff" points="152.53,-189.5 162.53,-186 152.53,-182.5 152.53,-189.5"/>
</a>
</g>
</g>
<!-- Node7 -->
<g id="Node000007" class="node">
<title>Node7</title>
<g id="a_Node000007"><a xlink:href="class_data_base_g_u_i.html#a8e1fe573ef6a09e112989968ec1a2b43" target="_top" xlink:title="Searches for parents based on the provided parent pointer.">
<polygon fill="white" stroke="#666666" points="285.12,-158 174.62,-158 174.62,-126 285.12,-126 285.12,-158"/>
<text text-anchor="start" x="182.62" y="-144.5" font-family="Helvetica,sans-Serif" font-size="10.00">DataBaseGUI::parent</text>
<text text-anchor="middle" x="229.88" y="-132.5" font-family="Helvetica,sans-Serif" font-size="10.00">_search_by_pointer</text>
</a>
</g>
</g>
<!-- Node1&#45;&gt;Node7 -->
<g id="edge8_Node000001_Node000007" class="edge">
<title>Node1&#45;&gt;Node7</title>
<g id="a_edge8_Node000001_Node000007"><a xlink:title=" ">
<path fill="none" stroke="#63b8ff" d="M120.74,-170.36C134.49,-166.76 149.18,-162.9 163.17,-159.23"/>
<polygon fill="#63b8ff" stroke="#63b8ff" points="163.96,-162.64 172.75,-156.72 162.19,-155.87 163.96,-162.64"/>
</a>
</g>
</g>
<!-- Node21 -->
<g id="Node000021" class="node">
<title>Node21</title>
<g id="a_Node000021"><a xlink:href="class_child_entry.html#a11d827331ad040002cce25952c27e47a" target="_top" xlink:title="Signal emitted when a parent search is requested.">
<polygon fill="white" stroke="#666666" points="294.12,-70 165.62,-70 165.62,-38 294.12,-38 294.12,-70"/>
<text text-anchor="start" x="173.62" y="-56.5" font-family="Helvetica,sans-Serif" font-size="10.00">ChildEntry::parrentSearch</text>
<text text-anchor="middle" x="229.88" y="-44.5" font-family="Helvetica,sans-Serif" font-size="10.00">Requested</text>
</a>
</g>
</g>
<!-- Node1&#45;&gt;Node21 -->
<g id="edge27_Node000001_Node000021" class="edge">
<title>Node1&#45;&gt;Node21</title>
<g id="a_edge27_Node000001_Node000021"><a xlink:title=" ">
<path fill="none" stroke="#63b8ff" d="M72.65,-169.83C89.03,-147.83 121.02,-108.41 156.25,-84 160.71,-80.91 165.54,-78.05 170.51,-75.44"/>
<polygon fill="#63b8ff" stroke="#63b8ff" points="172.04,-78.59 179.49,-71.06 168.97,-72.29 172.04,-78.59"/>
</a>
</g>
</g>
<!-- Node22 -->
<g id="Node000022" class="node">
<title>Node22</title>
<g id="a_Node000022"><a xlink:href="class_child_entry.html#a69e495a83c20ea922198adea9ae47ddb" target="_top" xlink:title="Signal emitted when a child removal is requested.">
<polygon fill="white" stroke="#666666" points="303.5,-20 156.25,-20 156.25,0 303.5,0 303.5,-20"/>
<text text-anchor="middle" x="229.88" y="-6.5" font-family="Helvetica,sans-Serif" font-size="10.00">ChildEntry::removeRequested</text>
</a>
</g>
</g>
<!-- Node1&#45;&gt;Node22 -->
<g id="edge28_Node000001_Node000022" class="edge">
<title>Node1&#45;&gt;Node22</title>
<g id="a_edge28_Node000001_Node000022"><a xlink:title=" ">
<path fill="none" stroke="#63b8ff" d="M66.27,-169.84C77.32,-137.8 106.44,-66.16 156.25,-29 157.83,-27.82 159.48,-26.72 161.18,-25.68"/>
<polygon fill="#63b8ff" stroke="#63b8ff" points="162.74,-28.81 170.06,-21.14 159.56,-22.57 162.74,-28.81"/>
</a>
</g>
</g>
<!-- Node3 -->
<g id="Node000003" class="node">
<title>Node3</title>
<g id="a_Node000003"><a xlink:href="class_data_base_g_u_i.html#aa684465aa73b5b34bbadd24fc7f2f641" target="_top" xlink:title="Selects the appropriate sorting to use based on child sort index.">
<polygon fill="white" stroke="#666666" points="455.25,-340 339.5,-340 339.5,-308 455.25,-308 455.25,-340"/>
<text text-anchor="start" x="347.5" y="-326.5" font-family="Helvetica,sans-Serif" font-size="10.00">DataBaseGUI::sort_to</text>
<text text-anchor="middle" x="397.38" y="-314.5" font-family="Helvetica,sans-Serif" font-size="10.00">_populate_children_tab</text>
</a>
</g>
</g>
<!-- Node2&#45;&gt;Node3 -->
<g id="edge2_Node000002_Node000003" class="edge">
<title>Node2&#45;&gt;Node3</title>
<g id="a_edge2_Node000002_Node000003"><a xlink:title=" ">
<path fill="none" stroke="#63b8ff" d="M276.54,-351.52C292.39,-347.88 310.54,-343.71 327.83,-339.74"/>
<polygon fill="#63b8ff" stroke="#63b8ff" points="328.6,-343.15 337.56,-337.5 327.03,-336.33 328.6,-343.15"/>
</a>
</g>
</g>
<!-- Node3&#45;&gt;Node1 -->
<g id="edge3_Node000003_Node000001" class="edge">
<title>Node3&#45;&gt;Node1</title>
<g id="a_edge3_Node000003_Node000001"><a xlink:title=" ">
<path fill="none" stroke="#63b8ff" d="M339.49,-331.73C288.48,-335.92 213.14,-335.18 156.25,-305 117.51,-284.45 89.04,-240.59 73.8,-212.25"/>
<polygon fill="#63b8ff" stroke="#63b8ff" points="77.01,-210.84 69.3,-203.57 70.79,-214.06 77.01,-210.84"/>
</a>
</g>
</g>
<!-- Node4&#45;&gt;Node3 -->
<g id="edge5_Node000004_Node000003" class="edge">
<title>Node4&#45;&gt;Node3</title>
<g id="a_edge5_Node000004_Node000003"><a xlink:title=" ">
<path fill="none" stroke="#63b8ff" d="M281.88,-293.56C296.48,-297.44 312.63,-301.74 328.09,-305.84"/>
<polygon fill="#63b8ff" stroke="#63b8ff" points="327.16,-309.22 337.72,-308.41 328.96,-302.45 327.16,-309.22"/>
</a>
</g>
</g>
<!-- Node8 -->
<g id="Node000008" class="node">
<title>Node8</title>
<g id="a_Node000008"><a xlink:href="class_person.html#a6b1fec00d8d1f5af1a2977dc3f5f9eb8" target="_top" xlink:title="Gets the first name of the person.">
<polygon fill="white" stroke="#666666" points="941.25,-222 845.75,-222 845.75,-202 941.25,-202 941.25,-222"/>
<text text-anchor="middle" x="893.5" y="-208.5" font-family="Helvetica,sans-Serif" font-size="10.00">Person::get_name</text>
</a>
</g>
</g>
<!-- Node7&#45;&gt;Node8 -->
<g id="edge9_Node000007_Node000008" class="edge">
<title>Node7&#45;&gt;Node8</title>
<g id="a_edge9_Node000007_Node000008"><a xlink:title=" ">
<path fill="none" stroke="#63b8ff" d="M285.55,-152.44C364.93,-167.1 516.9,-193.3 647.5,-205 711.06,-210.69 784.24,-212.12 833.95,-212.32"/>
<polygon fill="#63b8ff" stroke="#63b8ff" points="833.91,-215.82 843.92,-212.35 833.93,-208.82 833.91,-215.82"/>
</a>
</g>
</g>
<!-- Node9 -->
<g id="Node000009" class="node">
<title>Node9</title>
<g id="a_Node000009"><a xlink:href="class_person.html#a7b3c8db44a49c4ba8c4838e19a235613" target="_top" xlink:title="Gets the last name of the person.">
<polygon fill="white" stroke="#666666" points="948,-171 839,-171 839,-151 948,-151 948,-171"/>
<text text-anchor="middle" x="893.5" y="-157.5" font-family="Helvetica,sans-Serif" font-size="10.00">Person::get_surname</text>
</a>
</g>
</g>
<!-- Node7&#45;&gt;Node9 -->
<g id="edge10_Node000007_Node000009" class="edge">
<title>Node7&#45;&gt;Node9</title>
<g id="a_edge10_Node000007_Node000009"><a xlink:title=" ">
<path fill="none" stroke="#63b8ff" d="M285.51,-142.47C387.05,-143.53 611.67,-146.66 800.75,-155 809.38,-155.38 818.47,-155.87 827.43,-156.4"/>
<polygon fill="#63b8ff" stroke="#63b8ff" points="826.96,-159.88 837.16,-157 827.39,-152.89 826.96,-159.88"/>
</a>
</g>
</g>
<!-- Node10 -->
<g id="Node000010" class="node">
<title>Node10</title>
<g id="a_Node000010"><a xlink:href="class_data_base_g_u_i.html#a7c3d843eec449d8a4ec5ce6bf0375358" target="_top" xlink:title="Searches for parents based on the provided name and surname.">
<polygon fill="white" stroke="#666666" points="452.62,-287 342.12,-287 342.12,-255 452.62,-255 452.62,-287"/>
<text text-anchor="start" x="350.12" y="-273.5" font-family="Helvetica,sans-Serif" font-size="10.00">DataBaseGUI::parent</text>
<text text-anchor="middle" x="397.38" y="-261.5" font-family="Helvetica,sans-Serif" font-size="10.00">_search</text>
</a>
</g>
</g>
<!-- Node7&#45;&gt;Node10 -->
<g id="edge11_Node000007_Node000010" class="edge">
<title>Node7&#45;&gt;Node10</title>
<g id="a_edge11_Node000007_Node000010"><a xlink:title=" ">
<path fill="none" stroke="#63b8ff" d="M285.4,-155.47C291.94,-158.57 298.17,-162.36 303.5,-167 330.18,-190.24 315.2,-212.29 339.5,-238 342.99,-241.69 346.99,-245.1 351.21,-248.21"/>
<polygon fill="#63b8ff" stroke="#63b8ff" points="349.17,-251.06 359.44,-253.69 353.06,-245.23 349.17,-251.06"/>
</a>
</g>
</g>
<!-- Node11 -->
<g id="Node000011" class="node">
<title>Node11</title>
<g id="a_Node000011"><a xlink:href="class_data_base_g_u_i.html#a739b2cf48c0cb6e3cab2da0a7bbd6d6d" target="_top" xlink:title="Populates the parent tab with a list of parents.">
<polygon fill="white" stroke="#666666" points="611.5,-366 491.25,-366 491.25,-334 611.5,-334 611.5,-366"/>
<text text-anchor="start" x="499.25" y="-352.5" font-family="Helvetica,sans-Serif" font-size="10.00">DataBaseGUI::populate</text>
<text text-anchor="middle" x="551.38" y="-340.5" font-family="Helvetica,sans-Serif" font-size="10.00">_parent_tab</text>
</a>
</g>
</g>
<!-- Node10&#45;&gt;Node11 -->
<g id="edge12_Node000010_Node000011" class="edge">
<title>Node10&#45;&gt;Node11</title>
<g id="a_edge12_Node000010_Node000011"><a xlink:title=" ">
<path fill="none" stroke="#63b8ff" d="M432.15,-287.39C439.78,-291.15 447.81,-295.18 455.25,-299 473.47,-308.36 493.47,-319.03 510.41,-328.18"/>
<polygon fill="#63b8ff" stroke="#63b8ff" points="508.73,-331.25 519.19,-332.93 512.07,-325.09 508.73,-331.25"/>
</a>
</g>
</g>
<!-- Node12 -->
<g id="Node000012" class="node">
<title>Node12</title>
<g id="a_Node000012"><a xlink:href="class_data_base_g_u_i.html#aadb0e7d323a970603312695c0dd9b264" target="_top" xlink:title="Searches for children based on the provided child pointer.">
<polygon fill="white" stroke="#666666" points="776,-196 672.25,-196 672.25,-164 776,-164 776,-196"/>
<text text-anchor="start" x="680.25" y="-182.5" font-family="Helvetica,sans-Serif" font-size="10.00">DataBaseGUI::child</text>
<text text-anchor="middle" x="724.12" y="-170.5" font-family="Helvetica,sans-Serif" font-size="10.00">_search_by_pointer</text>
</a>
</g>
</g>
<!-- Node11&#45;&gt;Node12 -->
<g id="edge13_Node000011_Node000012" class="edge">
<title>Node11&#45;&gt;Node12</title>
<g id="a_edge13_Node000011_Node000012"><a xlink:title=" ">
<path fill="none" stroke="#63b8ff" d="M565.53,-333.73C583.27,-312.15 616.25,-273.26 647.5,-243 661.8,-229.15 678.74,-214.86 692.96,-203.4"/>
<polygon fill="#63b8ff" stroke="#63b8ff" points="695.04,-206.22 700.68,-197.25 690.68,-200.75 695.04,-206.22"/>
</a>
</g>
</g>
<!-- Node14 -->
<g id="Node000014" class="node">
<title>Node14</title>
<g id="a_Node000014"><a xlink:href="class_parent_entry.html#a45e22d202e52c9dbc7e7e72575dc0e91" target="_top" xlink:title="Signal emitted when a child search is requested.">
<polygon fill="white" stroke="#666666" points="786.5,-498 661.75,-498 661.75,-466 786.5,-466 786.5,-498"/>
<text text-anchor="start" x="669.75" y="-484.5" font-family="Helvetica,sans-Serif" font-size="10.00">ParentEntry::childSearch</text>
<text text-anchor="middle" x="724.12" y="-472.5" font-family="Helvetica,sans-Serif" font-size="10.00">Requested</text>
</a>
</g>
</g>
<!-- Node11&#45;&gt;Node14 -->
<g id="edge18_Node000011_Node000014" class="edge">
<title>Node11&#45;&gt;Node14</title>
<g id="a_edge18_Node000011_Node000014"><a xlink:title=" ">
<path fill="none" stroke="#63b8ff" d="M562.66,-366.19C578.28,-389.51 610.12,-432.42 647.5,-457 649.36,-458.23 651.29,-459.4 653.27,-460.51"/>
<polygon fill="#63b8ff" stroke="#63b8ff" points="651.64,-463.61 662.15,-464.98 654.79,-457.36 651.64,-463.61"/>
</a>
</g>
</g>
<!-- Node15 -->
<g id="Node000015" class="node">
<title>Node15</title>
<g id="a_Node000015"><a xlink:href="class_parent_entry.html#ab0a6b9993e8f1dc2f58ceedfee0f7d0b" target="_top" xlink:title="Signal emitted when a parent edit is requested.">
<polygon fill="white" stroke="#666666" points="792.5,-448 655.75,-448 655.75,-428 792.5,-428 792.5,-448"/>
<text text-anchor="middle" x="724.12" y="-434.5" font-family="Helvetica,sans-Serif" font-size="10.00">ParentEntry::editRequested</text>
</a>
</g>
</g>
<!-- Node11&#45;&gt;Node15 -->
<g id="edge19_Node000011_Node000015" class="edge">
<title>Node11&#45;&gt;Node15</title>
<g id="a_edge19_Node000011_Node000015"><a xlink:title=" ">
<path fill="none" stroke="#63b8ff" d="M570.34,-366.3C588.53,-381.98 618.11,-405.28 647.5,-419 651.46,-420.85 655.62,-422.53 659.87,-424.06"/>
<polygon fill="#63b8ff" stroke="#63b8ff" points="658.52,-427.31 669.12,-427.09 660.7,-420.65 658.52,-427.31"/>
</a>
</g>
</g>
<!-- Node16 -->
<g id="Node000016" class="node">
<title>Node16</title>
<g id="a_Node000016"><a xlink:href="class_data_base_g_u_i.html#a5b049fb9e0e5d78c4c2e81e569b471f9" target="_top" xlink:title="Edits an existing parent in the database.">
<polygon fill="white" stroke="#666666" points="789.88,-360 658.38,-360 658.38,-340 789.88,-340 789.88,-360"/>
<text text-anchor="middle" x="724.12" y="-346.5" font-family="Helvetica,sans-Serif" font-size="10.00">DataBaseGUI::parent_edit</text>
</a>
</g>
</g>
<!-- Node11&#45;&gt;Node16 -->
<g id="edge20_Node000011_Node000016" class="edge">
<title>Node11&#45;&gt;Node16</title>
<g id="a_edge20_Node000011_Node000016"><a xlink:title=" ">
<path fill="none" stroke="#63b8ff" d="M611.62,-350C623,-350 635.08,-350 646.91,-350"/>
<polygon fill="#63b8ff" stroke="#63b8ff" points="646.64,-353.5 656.64,-350 646.64,-346.5 646.64,-353.5"/>
</a>
</g>
</g>
<!-- Node18 -->
<g id="Node000018" class="node">
<title>Node18</title>
<g id="a_Node000018"><a xlink:href="class_data_base_g_u_i.html#ad8a42f24cdb603ba85c1cdd4ea2e73a4" target="_top" xlink:title="Removes a parent from the database.">
<polygon fill="white" stroke="#666666" points="779.38,-410 668.88,-410 668.88,-378 779.38,-378 779.38,-410"/>
<text text-anchor="start" x="676.88" y="-396.5" font-family="Helvetica,sans-Serif" font-size="10.00">DataBaseGUI::parent</text>
<text text-anchor="middle" x="724.12" y="-384.5" font-family="Helvetica,sans-Serif" font-size="10.00">_remove</text>
</a>
</g>
</g>
<!-- Node11&#45;&gt;Node18 -->
<g id="edge23_Node000011_Node000018" class="edge">
<title>Node11&#45;&gt;Node18</title>
<g id="a_edge23_Node000011_Node000018"><a xlink:title=" ">
<path fill="none" stroke="#63b8ff" d="M611.62,-365.27C626.5,-369.1 642.55,-373.24 657.72,-377.14"/>
<polygon fill="#63b8ff" stroke="#63b8ff" points="656.55,-380.46 667.1,-379.56 658.29,-373.68 656.55,-380.46"/>
</a>
</g>
</g>
<!-- Node19 -->
<g id="Node000019" class="node">
<title>Node19</title>
<g id="a_Node000019"><a xlink:href="class_data_base_g_u_i.html#a3d4aa66da32413ddd29330e008b1865a" target="_top" xlink:title="Clears the parent tab.">
<polygon fill="white" stroke="#666666" points="779.38,-322 668.88,-322 668.88,-290 779.38,-290 779.38,-322"/>
<text text-anchor="start" x="676.88" y="-308.5" font-family="Helvetica,sans-Serif" font-size="10.00">DataBaseGUI::parent</text>
<text text-anchor="middle" x="724.12" y="-296.5" font-family="Helvetica,sans-Serif" font-size="10.00">_tab_clear</text>
</a>
</g>
</g>
<!-- Node11&#45;&gt;Node19 -->
<g id="edge25_Node000011_Node000019" class="edge">
<title>Node11&#45;&gt;Node19</title>
<g id="a_edge25_Node000011_Node000019"><a xlink:title=" ">
<path fill="none" stroke="#63b8ff" d="M611.62,-334.73C626.5,-330.9 642.55,-326.76 657.72,-322.86"/>
<polygon fill="#63b8ff" stroke="#63b8ff" points="658.29,-326.32 667.1,-320.44 656.55,-319.54 658.29,-326.32"/>
</a>
</g>
</g>
<!-- Node20 -->
<g id="Node000020" class="node">
<title>Node20</title>
<g id="a_Node000020"><a xlink:href="class_parent_entry.html#ada9ff642ea28fbec8f40767df83cc5f1" target="_top" xlink:title="Signal emitted when a parent removal is requested.">
<polygon fill="white" stroke="#666666" points="800.75,-272 647.5,-272 647.5,-252 800.75,-252 800.75,-272"/>
<text text-anchor="middle" x="724.12" y="-258.5" font-family="Helvetica,sans-Serif" font-size="10.00">ParentEntry::removeRequested</text>
</a>
</g>
</g>
<!-- Node11&#45;&gt;Node20 -->
<g id="edge26_Node000011_Node000020" class="edge">
<title>Node11&#45;&gt;Node20</title>
<g id="a_edge26_Node000011_Node000020"><a xlink:title=" ">
<path fill="none" stroke="#63b8ff" d="M570.34,-333.7C588.53,-318.02 618.11,-294.72 647.5,-281 651.46,-279.15 655.62,-277.47 659.87,-275.94"/>
<polygon fill="#63b8ff" stroke="#63b8ff" points="660.7,-279.35 669.12,-272.91 658.52,-272.69 660.7,-279.35"/>
</a>
</g>
</g>
<!-- Node12&#45;&gt;Node8 -->
<g id="edge16_Node000012_Node000008" class="edge">
<title>Node12&#45;&gt;Node8</title>
<g id="a_edge16_Node000012_Node000008"><a xlink:title=" ">
<path fill="none" stroke="#63b8ff" d="M776.25,-189.77C794.57,-193.28 815.35,-197.25 834.23,-200.86"/>
<polygon fill="#63b8ff" stroke="#63b8ff" points="833.43,-204.27 843.91,-202.71 834.74,-197.39 833.43,-204.27"/>
</a>
</g>
</g>
<!-- Node12&#45;&gt;Node9 -->
<g id="edge17_Node000012_Node000009" class="edge">
<title>Node12&#45;&gt;Node9</title>
<g id="a_edge17_Node000012_Node000009"><a xlink:title=" ">
<path fill="none" stroke="#63b8ff" d="M776.25,-174.2C792.5,-172.35 810.68,-170.29 827.76,-168.35"/>
<polygon fill="#63b8ff" stroke="#63b8ff" points="827.74,-171.87 837.28,-167.27 826.95,-164.92 827.74,-171.87"/>
</a>
</g>
</g>
<!-- Node13 -->
<g id="Node000013" class="node">
<title>Node13</title>
<g id="a_Node000013"><a xlink:href="class_data_base_g_u_i.html#a2d921da686e76ae195da018bb735a1ae" target="_top" xlink:title="Searches for children based on the provided name and surname.">
<polygon fill="white" stroke="#666666" points="945.38,-124 841.62,-124 841.62,-92 945.38,-92 945.38,-124"/>
<text text-anchor="start" x="849.62" y="-110.5" font-family="Helvetica,sans-Serif" font-size="10.00">DataBaseGUI::child</text>
<text text-anchor="middle" x="893.5" y="-98.5" font-family="Helvetica,sans-Serif" font-size="10.00">_search</text>
</a>
</g>
</g>
<!-- Node12&#45;&gt;Node13 -->
<g id="edge14_Node000012_Node000013" class="edge">
<title>Node12&#45;&gt;Node13</title>
<g id="a_edge14_Node000012_Node000013"><a xlink:title=" ">
<path fill="none" stroke="#63b8ff" d="M763.1,-163.66C787.1,-153.34 818.31,-139.91 844.08,-128.83"/>
<polygon fill="#63b8ff" stroke="#63b8ff" points="845.19,-132.16 852.99,-125 842.42,-125.73 845.19,-132.16"/>
</a>
</g>
</g>
<!-- Node13&#45;&gt;Node1 -->
<g id="edge15_Node000013_Node000001" class="edge">
<title>Node13&#45;&gt;Node1</title>
<g id="a_edge15_Node000013_Node000001"><a xlink:title=" ">
<path fill="none" stroke="#63b8ff" d="M841.23,-105.55C774.66,-102.59 654.87,-98 552.38,-98 396.38,-98 396.38,-98 396.38,-98 289.32,-98 256.7,-79.96 156.25,-117 129.6,-126.83 103.8,-146.37 85.81,-162.16"/>
<polygon fill="#63b8ff" stroke="#63b8ff" points="83.83,-159.23 78.76,-168.53 88.53,-164.42 83.83,-159.23"/>
</a>
</g>
</g>
<!-- Node17 -->
<g id="Node000017" class="node">
<title>Node17</title>
<g id="a_Node000017"><a xlink:href="class_data_base_g_u_i.html#a625b5e2018395a458ff517bbf364e1bf" target="_top" xlink:title="Selects the appropriate sorting to use based on parent sort index.">
<polygon fill="white" stroke="#666666" points="950.25,-410 836.75,-410 836.75,-378 950.25,-378 950.25,-410"/>
<text text-anchor="start" x="844.75" y="-396.5" font-family="Helvetica,sans-Serif" font-size="10.00">DataBaseGUI::sort_to</text>
<text text-anchor="middle" x="893.5" y="-384.5" font-family="Helvetica,sans-Serif" font-size="10.00">_populate_parent_tab</text>
</a>
</g>
</g>
<!-- Node16&#45;&gt;Node17 -->
<g id="edge21_Node000016_Node000017" class="edge">
<title>Node16&#45;&gt;Node17</title>
<g id="a_edge21_Node000016_Node000017"><a xlink:title=" ">
<path fill="none" stroke="#63b8ff" d="M767.16,-360.4C778.11,-363.16 789.88,-366.15 800.75,-369 808.75,-371.09 817.12,-373.32 825.43,-375.56"/>
<polygon fill="#63b8ff" stroke="#63b8ff" points="824.23,-378.86 834.8,-378.09 826.06,-372.1 824.23,-378.86"/>
</a>
</g>
</g>
<!-- Node17&#45;&gt;Node11 -->
<g id="edge22_Node000017_Node000011" class="edge">
<title>Node17&#45;&gt;Node11</title>
<g id="a_edge22_Node000017_Node000011"><a xlink:title=" ">
<path fill="none" stroke="#63b8ff" d="M885.19,-410.19C872.39,-436.3 843.19,-486.79 800.75,-507 739.25,-536.28 706.84,-540.43 647.5,-507 598.14,-479.19 571.46,-414.3 559.77,-377.24"/>
<polygon fill="#63b8ff" stroke="#63b8ff" points="563.14,-376.29 556.92,-367.71 556.43,-378.3 563.14,-376.29"/>
</a>
</g>
</g>
<!-- Node18&#45;&gt;Node17 -->
<g id="edge24_Node000018_Node000017" class="edge">
<title>Node18&#45;&gt;Node17</title>
<g id="a_edge24_Node000018_Node000017"><a xlink:title=" ">
<path fill="none" stroke="#63b8ff" d="M779.47,-394C794,-394 809.87,-394 825.02,-394"/>
<polygon fill="#63b8ff" stroke="#63b8ff" points="824.91,-397.5 834.91,-394 824.91,-390.5 824.91,-397.5"/>
</a>
</g>
</g>
</g>
</svg>

<g id="navigator" transform="translate(0 0)" fill="#404254">
  <rect fill="#f2f5e9" fill-opacity="0.5" stroke="#606060" stroke-width=".5" x="0" y="0" width="60" height="60"/>
  <use id="zoomplus" xlink:href="#zoomPlus" x="17" y="9" onmousedown="handleZoom(evt,'in')"/>
  <use id="zoomminus" xlink:href="#zoomMin" x="42" y="9" onmousedown="handleZoom(evt,'out')"/>
  <use id="reset" xlink:href="#resetDef" x="30" y="36" onmousedown="handleReset()"/>
   <use id="arrowup" xlink:href="#arrowUp" x="0" y="0" onmousedown="handlePan(0,-1)"/>
  <use id="arrowright" xlink:href="#arrowRight" x="0" y="0" onmousedown="handlePan(1,0)"/>
  <use id="arrowdown" xlink:href="#arrowDown" x="0" y="0" onmousedown="handlePan(0,1)"/>
  <use id="arrowleft" xlink:href="#arrowLeft" x="0" y="0" onmousedown="handlePan(-1,0)"/>
</g>
<svg viewBox="0 0 15 15" width="100%" height="30px" preserveAspectRatio="xMaxYMin meet">
 <g id="arrow_out" transform="scale(0.3 0.3)">
  <a xlink:href="class_data_base_g_u_i_af346d08370d9e4574980707f61b9c8f7_cgraph_org.svg" target="_base">
   <rect id="button" ry="5" rx="5" y="6" x="6" height="38" width="38"
        fill="#f2f5e9" fill-opacity="0.5" stroke="#606060" stroke-width="1.0"/>
   <path id="arrow"
     d="M 11.500037,31.436501 C 11.940474,20.09759 22.043105,11.32322 32.158766,21.979434 L 37.068811,17.246167 C 37.068811,17.246167 37.088388,32 37.088388,32 L 22.160133,31.978069 C 22.160133,31.978069 26.997745,27.140456 26.997745,27.140456 C 18.528582,18.264221 13.291696,25.230495 11.500037,31.436501 z"
     style="fill:#404040;"/>
  </a>
 </g>
</svg>

<style type='text/css'>
<![CDATA[
[data-mouse-over-selected='false'] { opacity: 0.7; }
[data-mouse-over-selected='true']  { opacity: 1.0; }
]]>
</style>
<script type="application/ecmascript"><![CDATA[
document.addEventListener('DOMContentLoaded', (event) => {
  highlightEdges();
  highlightAdjacentNodes();
});
]]></script>
</svg>
