<?xml version="1.0" encoding="UTF-8" standalone="no"?>
<!DOCTYPE svg PUBLIC "-//W3C//DTD SVG 1.1//EN"
 "http://www.w3.org/Graphics/SVG/1.1/DTD/svg11.dtd">
<!-- Generated by graphviz version 12.2.1 (20241206.2353)
 -->
<!-- Title: Database::export_Employees_to_csv_file Pages: 1 -->
<svg width="434pt" height="40pt"
 viewBox="0.00 0.00 434.00 40.00" xmlns="http://www.w3.org/2000/svg" xmlns:xlink="http://www.w3.org/1999/xlink">
<g id="graph0" class="graph" transform="scale(1 1) rotate(0) translate(4 36)">
<title>Database::export_Employees_to_csv_file</title>
<!-- Node1 -->
<g id="Node000001" class="node">
<title>Node1</title>
<g id="a_Node000001"><a xlink:title="Exports employees to a CSV file.">
<polygon fill="#999999" stroke="#666666" points="426,-32 281,-32 281,0 426,0 426,-32"/>
<text text-anchor="start" x="289" y="-18.5" font-family="Helvetica,sans-Serif" font-size="10.00">Database::export_Employees</text>
<text text-anchor="middle" x="353.5" y="-6.5" font-family="Helvetica,sans-Serif" font-size="10.00">_to_csv_file</text>
</a>
</g>
</g>
<!-- Node2 -->
<g id="Node000002" class="node">
<title>Node2</title>
<g id="a_Node000002"><a xlink:href="$class_database.html#a8a90113565fef7051faccc65d304c665" xlink:title="Exports data to a stream.">
<polygon fill="white" stroke="#666666" points="245,-32 140.5,-32 140.5,0 245,0 245,-32"/>
<text text-anchor="start" x="148.5" y="-18.5" font-family="Helvetica,sans-Serif" font-size="10.00">Database::export_to</text>
<text text-anchor="middle" x="192.75" y="-6.5" font-family="Helvetica,sans-Serif" font-size="10.00">_stream</text>
</a>
</g>
</g>
<!-- Node1&#45;&gt;Node2 -->
<g id="edge1_Node000001_Node000002" class="edge">
<title>Node1&#45;&gt;Node2</title>
<g id="a_edge1_Node000001_Node000002"><a xlink:title=" ">
<path fill="none" stroke="#63b8ff" d="M269.29,-16C261.04,-16 252.83,-16 245.04,-16"/>
<polygon fill="#63b8ff" stroke="#63b8ff" points="269.04,-19.5 279.04,-16 269.04,-12.5 269.04,-19.5"/>
</a>
</g>
</g>
<!-- Node3 -->
<g id="Node000003" class="node">
<title>Node3</title>
<g id="a_Node000003"><a xlink:href="$class_database.html#abb1803f9cdff3217957c971608d1a3ed" xlink:title="Exports data to a CSV file.">
<polygon fill="white" stroke="#666666" points="104.5,-32 0,-32 0,0 104.5,0 104.5,-32"/>
<text text-anchor="start" x="8" y="-18.5" font-family="Helvetica,sans-Serif" font-size="10.00">Database::export_to</text>
<text text-anchor="middle" x="52.25" y="-6.5" font-family="Helvetica,sans-Serif" font-size="10.00">_csv_file</text>
</a>
</g>
</g>
<!-- Node2&#45;&gt;Node3 -->
<g id="edge2_Node000002_Node000003" class="edge">
<title>Node2&#45;&gt;Node3</title>
<g id="a_edge2_Node000002_Node000003"><a xlink:title=" ">
<path fill="none" stroke="#63b8ff" d="M128.92,-16C120.87,-16 112.71,-16 104.87,-16"/>
<polygon fill="#63b8ff" stroke="#63b8ff" points="128.66,-19.5 138.66,-16 128.66,-12.5 128.66,-19.5"/>
</a>
</g>
</g>
</g>
</svg>
