<?xml version="1.0" encoding="UTF-8" standalone="no"?>
<!DOCTYPE svg PUBLIC "-//W3C//DTD SVG 1.1//EN"
 "http://www.w3.org/Graphics/SVG/1.1/DTD/svg11.dtd">
<!-- Generated by graphviz version 12.2.1 (20241206.2353)
 -->
<!-- Title: LessonDialog::populate_children Pages: 1 -->
<svg width="454pt" height="62pt"
 viewBox="0.00 0.00 453.50 62.00" xmlns="http://www.w3.org/2000/svg" xmlns:xlink="http://www.w3.org/1999/xlink">
<g id="graph0" class="graph" transform="scale(1 1) rotate(0) translate(4 58)">
<title>LessonDialog::populate_children</title>
<!-- Node1 -->
<g id="Node000001" class="node">
<title>Node1</title>
<g id="a_Node000001"><a xlink:title="Populates the dialog with children and employees.">
<polygon fill="#999999" stroke="#666666" points="445.5,-32 327.5,-32 327.5,0 445.5,0 445.5,-32"/>
<text text-anchor="start" x="335.5" y="-18.5" font-family="Helvetica,sans-Serif" font-size="10.00">LessonDialog::populate</text>
<text text-anchor="middle" x="386.5" y="-6.5" font-family="Helvetica,sans-Serif" font-size="10.00">_children</text>
</a>
</g>
</g>
<!-- Node2 -->
<g id="Node000002" class="node">
<title>Node2</title>
<g id="a_Node000002"><a xlink:href="class_lesson_dialog.html#ac10e391b7a2221ff937a30ccf61124b2" target="_top" xlink:title="Searches for children based on the input in the name and surname fields.">
<polygon fill="white" stroke="#666666" points="291.5,-54 176.5,-54 176.5,-22 291.5,-22 291.5,-54"/>
<text text-anchor="start" x="184.5" y="-40.5" font-family="Helvetica,sans-Serif" font-size="10.00">LessonDialog::children</text>
<text text-anchor="middle" x="234" y="-28.5" font-family="Helvetica,sans-Serif" font-size="10.00">_search</text>
</a>
</g>
</g>
<!-- Node1&#45;&gt;Node2 -->
<g id="edge1_Node000001_Node000002" class="edge">
<title>Node1&#45;&gt;Node2</title>
<g id="a_edge1_Node000001_Node000002"><a xlink:title=" ">
<path fill="none" stroke="#63b8ff" d="M316.17,-26.14C307.92,-27.34 299.58,-28.56 291.55,-29.73"/>
<polygon fill="#63b8ff" stroke="#63b8ff" points="316.43,-29.63 325.82,-24.72 315.41,-22.71 316.43,-29.63"/>
</a>
</g>
</g>
<!-- Node3 -->
<g id="Node000003" class="node">
<title>Node3</title>
<g id="a_Node000003"><a xlink:href="class_lesson_dialog.html#a4ddf55a3925f45bd1cd3ecef02c261d5" target="_top" xlink:title="Constructs a LessonDialog object.">
<polygon fill="white" stroke="#666666" points="140.5,-26 0,-26 0,-6 140.5,-6 140.5,-26"/>
<text text-anchor="middle" x="70.25" y="-12.5" font-family="Helvetica,sans-Serif" font-size="10.00">LessonDialog::LessonDialog</text>
</a>
</g>
</g>
<!-- Node1&#45;&gt;Node3 -->
<g id="edge3_Node000001_Node000003" class="edge">
<title>Node1&#45;&gt;Node3</title>
<g id="a_edge3_Node000001_Node000003"><a xlink:title=" ">
<path fill="none" stroke="#63b8ff" d="M315.65,-13.52C307.51,-13.31 299.32,-13.12 291.5,-13 240.4,-12.18 227.61,-12.27 176.5,-13 164.98,-13.16 152.76,-13.43 140.88,-13.74"/>
<polygon fill="#63b8ff" stroke="#63b8ff" points="315.48,-17.02 325.58,-13.8 315.68,-10.02 315.48,-17.02"/>
</a>
</g>
</g>
<!-- Node2&#45;&gt;Node3 -->
<g id="edge2_Node000002_Node000003" class="edge">
<title>Node2&#45;&gt;Node3</title>
<g id="a_edge2_Node000002_Node000003"><a xlink:title=" ">
<path fill="none" stroke="#63b8ff" d="M165.21,-28.78C157.17,-27.69 148.95,-26.57 140.88,-25.47"/>
<polygon fill="#63b8ff" stroke="#63b8ff" points="164.55,-32.22 174.93,-30.1 165.49,-25.29 164.55,-32.22"/>
</a>
</g>
</g>
</g>
</svg>
