<?xml version="1.0" encoding="UTF-8" standalone="no"?>
<!DOCTYPE svg PUBLIC "-//W3C//DTD SVG 1.1//EN"
 "http://www.w3.org/Graphics/SVG/1.1/DTD/svg11.dtd">
<!-- Generated by graphviz version 12.2.1 (20241206.2353)
 -->
<!-- Title: Time::get_time_string Pages: 1 -->
<!--zoomable 154 -->

<svg id="main" version="1.1" xmlns="http://www.w3.org/2000/svg" xmlns:xlink="http://www.w3.org/1999/xlink" xml:space="preserve" onload="init(evt)">

<style type="text/css"><![CDATA[
.node, .edge {opacity: 0.7;}
.node.selected, .edge.selected {opacity: 1;}
.edge:hover path { stroke: red; }
.edge:hover polygon { stroke: red; fill: red; }
]]></style>

<defs>
  <circle id="rim" cx="0" cy="0" r="7"/>
  <circle id="rim2" cx="0" cy="0" r="3.5"/>
  <g id="zoomPlus">
    <use xlink:href="#rim" fill="#404040"><set attributeName="fill" to="#808080" begin="zoomplus.mouseover" end="zoomplus.mouseout"/></use>
    <path d="M-4,0h8M0,-4v8" fill="none" stroke="white" stroke-width="1.5" pointer-events="none"/>
  </g>
  <g id="zoomMin">
    <use xlink:href="#rim" fill="#404040"><set attributeName="fill" to="#808080" begin="zoomminus.mouseover" end="zoomminus.mouseout"/></use>
    <path d="M-4,0h8" fill="none" stroke="white" stroke-width="1.5" pointer-events="none"/>
  </g>
  <g id="arrowUp" transform="translate(30 24)">
    <use xlink:href="#rim"/>
    <path pointer-events="none" fill="none" stroke="white" stroke-width="1.5" d="M0,-3.0v7 M-2.5,-0.5L0,-3.0L2.5,-0.5"/>
  </g>
  <g id="arrowRight" transform="rotate(90) translate(36 -43)">
    <use xlink:href="#rim"/>
    <path pointer-events="none" fill="none" stroke="white" stroke-width="1.5" d="M0,-3.0v7 M-2.5,-0.5L0,-3.0L2.5,-0.5"/>
  </g>
  <g id="arrowDown" transform="rotate(180) translate(-30 -48)">
    <use xlink:href="#rim"/>
    <path pointer-events="none" fill="none" stroke="white" stroke-width="1.5" d="M0,-3.0v7 M-2.5,-0.5L0,-3.0L2.5,-0.5"/>
  </g>
  <g id="arrowLeft" transform="rotate(270) translate(-36 17)">
    <use xlink:href="#rim"/>
    <path pointer-events="none" fill="none" stroke="white" stroke-width="1.5" d="M0,-3.0v7 M-2.5,-0.5L0,-3.0L2.5,-0.5"/>
  </g>
  <g id="resetDef">
    <use xlink:href="#rim2" fill="#404040"><set attributeName="fill" to="#808080" begin="reset.mouseover" end="reset.mouseout"/></use>
  </g>
</defs>
<script type="application/ecmascript">
var viewWidth = 551;
var viewHeight = 154;
var sectionId = 'dynsection-12';
</script>
<script type="application/ecmascript" xlink:href="svg.min.js"/>
<svg id="graph" class="graph">
<g id="viewport">
<title>Time::get_time_string</title>
<!-- Node1 -->
<g id="Node000001" class="node">
<title>Node1</title>
<g id="a_Node000001"><a xlink:title="Gets the time as a string.">
<polygon fill="#999999" stroke="#666666" points="543.25,-96 432.75,-96 432.75,-76 543.25,-76 543.25,-96"/>
<text text-anchor="middle" x="488" y="-82.5" font-family="Helvetica,sans-Serif" font-size="10.00">Time::get_time_string</text>
</a>
</g>
</g>
<!-- Node2 -->
<g id="Node000002" class="node">
<title>Node2</title>
<g id="a_Node000002"><a xlink:href="class_date_time.html#a7570508ce1e761a7eb2a9ca938b2c3eb" target="_top" xlink:title="Gets the combined date and time as a string.">
<polygon fill="white" stroke="#666666" points="396.75,-146 294.5,-146 294.5,-114 396.75,-114 396.75,-146"/>
<text text-anchor="start" x="302.5" y="-132.5" font-family="Helvetica,sans-Serif" font-size="10.00">DateTime::get_date</text>
<text text-anchor="middle" x="345.62" y="-120.5" font-family="Helvetica,sans-Serif" font-size="10.00">_time_string</text>
</a>
</g>
</g>
<!-- Node1&#45;&gt;Node2 -->
<g id="edge1_Node000001_Node000002" class="edge">
<title>Node1&#45;&gt;Node2</title>
<g id="a_edge1_Node000001_Node000002"><a xlink:title=" ">
<path fill="none" stroke="#63b8ff" d="M443.02,-99.79C428.49,-104.34 412.21,-109.44 397.23,-114.14"/>
<polygon fill="#63b8ff" stroke="#63b8ff" points="443.79,-103.21 452.29,-96.88 441.7,-96.53 443.79,-103.21"/>
</a>
</g>
</g>
<!-- Node3 -->
<g id="Node000003" class="node">
<title>Node3</title>
<g id="a_Node000003"><a xlink:href="class_time.html#a87380d6b7a9172e7b855ae096a6970b1" target="_top" xlink:title="Prints the time in a long format.">
<polygon fill="white" stroke="#666666" points="388.5,-96 302.75,-96 302.75,-76 388.5,-76 388.5,-96"/>
<text text-anchor="middle" x="345.62" y="-82.5" font-family="Helvetica,sans-Serif" font-size="10.00">Time::print_long</text>
</a>
</g>
</g>
<!-- Node1&#45;&gt;Node3 -->
<g id="edge2_Node000001_Node000003" class="edge">
<title>Node1&#45;&gt;Node3</title>
<g id="a_edge2_Node000001_Node000003"><a xlink:title=" ">
<path fill="none" stroke="#63b8ff" d="M420.99,-86C410.03,-86 398.92,-86 388.76,-86"/>
<polygon fill="#63b8ff" stroke="#63b8ff" points="420.81,-89.5 430.81,-86 420.81,-82.5 420.81,-89.5"/>
</a>
</g>
</g>
<!-- Node5 -->
<g id="Node000005" class="node">
<title>Node5</title>
<g id="a_Node000005"><a xlink:href="class_time.html#a65e4f673e7176b2abc162aab4ae267dc" target="_top" xlink:title="Prints the time in a short format.">
<polygon fill="white" stroke="#666666" points="390.38,-58 300.88,-58 300.88,-38 390.38,-38 390.38,-58"/>
<text text-anchor="middle" x="345.62" y="-44.5" font-family="Helvetica,sans-Serif" font-size="10.00">Time::print_short</text>
</a>
</g>
</g>
<!-- Node1&#45;&gt;Node5 -->
<g id="edge4_Node000001_Node000005" class="edge">
<title>Node1&#45;&gt;Node5</title>
<g id="a_edge4_Node000001_Node000005"><a xlink:title=" ">
<path fill="none" stroke="#63b8ff" d="M437.33,-72.55C420.22,-67.92 401.32,-62.81 385.23,-58.45"/>
<polygon fill="#63b8ff" stroke="#63b8ff" points="436.24,-75.89 446.81,-75.12 438.07,-69.13 436.24,-75.89"/>
</a>
</g>
</g>
<!-- Node4 -->
<g id="Node000004" class="node">
<title>Node4</title>
<g id="a_Node000004"><a xlink:href="class_date_time.html#a570826a1b0ae205508810b5cdcc6129d" target="_top" xlink:title="Prints the date and time in a long format.">
<polygon fill="white" stroke="#666666" points="256.62,-96 149.88,-96 149.88,-76 256.62,-76 256.62,-96"/>
<text text-anchor="middle" x="203.25" y="-82.5" font-family="Helvetica,sans-Serif" font-size="10.00">DateTime::print_long</text>
</a>
</g>
</g>
<!-- Node3&#45;&gt;Node4 -->
<g id="edge3_Node000003_Node000004" class="edge">
<title>Node3&#45;&gt;Node4</title>
<g id="a_edge3_Node000003_Node000004"><a xlink:title=" ">
<path fill="none" stroke="#63b8ff" d="M291.13,-86C279.96,-86 268.19,-86 257.04,-86"/>
<polygon fill="#63b8ff" stroke="#63b8ff" points="290.99,-89.5 300.99,-86 290.99,-82.5 290.99,-89.5"/>
</a>
</g>
</g>
<!-- Node6 -->
<g id="Node000006" class="node">
<title>Node6</title>
<g id="a_Node000006"><a xlink:href="class_time.html#a51bd0fe65976379c55deefc3a495680b" target="_top" xlink:title="Outputs the time to a stream.">
<polygon fill="white" stroke="#666666" points="248.75,-58 157.75,-58 157.75,-38 248.75,-38 248.75,-58"/>
<text text-anchor="middle" x="203.25" y="-44.5" font-family="Helvetica,sans-Serif" font-size="10.00">Time::operator&lt;&lt;</text>
</a>
</g>
</g>
<!-- Node5&#45;&gt;Node6 -->
<g id="edge5_Node000005_Node000006" class="edge">
<title>Node5&#45;&gt;Node6</title>
<g id="a_edge5_Node000005_Node000006"><a xlink:title=" ">
<path fill="none" stroke="#63b8ff" d="M289.15,-48C275.86,-48 261.83,-48 249.09,-48"/>
<polygon fill="#63b8ff" stroke="#63b8ff" points="289.08,-51.5 299.08,-48 289.08,-44.5 289.08,-51.5"/>
</a>
</g>
</g>
<!-- Node7 -->
<g id="Node000007" class="node">
<title>Node7</title>
<g id="a_Node000007"><a xlink:href="class_date_time.html#a6f14b6b8aff8237f5768a8c1f53c026a" target="_top" xlink:title="Prints the date and time in a short format.">
<polygon fill="white" stroke="#666666" points="258.5,-20 148,-20 148,0 258.5,0 258.5,-20"/>
<text text-anchor="middle" x="203.25" y="-6.5" font-family="Helvetica,sans-Serif" font-size="10.00">DateTime::print_short</text>
</a>
</g>
</g>
<!-- Node5&#45;&gt;Node7 -->
<g id="edge6_Node000005_Node000007" class="edge">
<title>Node5&#45;&gt;Node7</title>
<g id="a_edge6_Node000005_Node000007"><a xlink:title=" ">
<path fill="none" stroke="#63b8ff" d="M294.96,-34.55C277.84,-29.92 258.95,-24.81 242.85,-20.45"/>
<polygon fill="#63b8ff" stroke="#63b8ff" points="293.87,-37.89 304.43,-37.12 295.7,-31.13 293.87,-37.89"/>
</a>
</g>
</g>
<!-- Node8 -->
<g id="Node000008" class="node">
<title>Node8</title>
<g id="a_Node000008"><a xlink:href="class_date_time.html#a4428b32e7ec538b2fee1bfcf5f377f45" target="_top" xlink:title="Outputs the DateTime to a stream.">
<polygon fill="white" stroke="#666666" points="112,-20 0,-20 0,0 112,0 112,-20"/>
<text text-anchor="middle" x="56" y="-6.5" font-family="Helvetica,sans-Serif" font-size="10.00">DateTime::operator&lt;&lt;</text>
</a>
</g>
</g>
<!-- Node7&#45;&gt;Node8 -->
<g id="edge7_Node000007_Node000008" class="edge">
<title>Node7&#45;&gt;Node8</title>
<g id="a_edge7_Node000007_Node000008"><a xlink:title=" ">
<path fill="none" stroke="#63b8ff" d="M136.45,-10C128.38,-10 120.19,-10 112.29,-10"/>
<polygon fill="#63b8ff" stroke="#63b8ff" points="136.24,-13.5 146.24,-10 136.24,-6.5 136.24,-13.5"/>
</a>
</g>
</g>
</g>
</svg>

<g id="navigator" transform="translate(0 0)" fill="#404254">
  <rect fill="#f2f5e9" fill-opacity="0.5" stroke="#606060" stroke-width=".5" x="0" y="0" width="60" height="60"/>
  <use id="zoomplus" xlink:href="#zoomPlus" x="17" y="9" onmousedown="handleZoom(evt,'in')"/>
  <use id="zoomminus" xlink:href="#zoomMin" x="42" y="9" onmousedown="handleZoom(evt,'out')"/>
  <use id="reset" xlink:href="#resetDef" x="30" y="36" onmousedown="handleReset()"/>
   <use id="arrowup" xlink:href="#arrowUp" x="0" y="0" onmousedown="handlePan(0,-1)"/>
  <use id="arrowright" xlink:href="#arrowRight" x="0" y="0" onmousedown="handlePan(1,0)"/>
  <use id="arrowdown" xlink:href="#arrowDown" x="0" y="0" onmousedown="handlePan(0,1)"/>
  <use id="arrowleft" xlink:href="#arrowLeft" x="0" y="0" onmousedown="handlePan(-1,0)"/>
</g>
<svg viewBox="0 0 15 15" width="100%" height="30px" preserveAspectRatio="xMaxYMin meet">
 <g id="arrow_out" transform="scale(0.3 0.3)">
  <a xlink:href="class_time_a2c3329584afd2d3f9aeeeeaf7a1298af_icgraph_org.svg" target="_base">
   <rect id="button" ry="5" rx="5" y="6" x="6" height="38" width="38"
        fill="#f2f5e9" fill-opacity="0.5" stroke="#606060" stroke-width="1.0"/>
   <path id="arrow"
     d="M 11.500037,31.436501 C 11.940474,20.09759 22.043105,11.32322 32.158766,21.979434 L 37.068811,17.246167 C 37.068811,17.246167 37.088388,32 37.088388,32 L 22.160133,31.978069 C 22.160133,31.978069 26.997745,27.140456 26.997745,27.140456 C 18.528582,18.264221 13.291696,25.230495 11.500037,31.436501 z"
     style="fill:#404040;"/>
  </a>
 </g>
</svg>

<style type='text/css'>
<![CDATA[
[data-mouse-over-selected='false'] { opacity: 0.7; }
[data-mouse-over-selected='true']  { opacity: 1.0; }
]]>
</style>
<script type="application/ecmascript"><![CDATA[
document.addEventListener('DOMContentLoaded', (event) => {
  highlightEdges();
  highlightAdjacentNodes();
});
]]></script>
</svg>
