<?xml version="1.0" encoding="UTF-8" standalone="no"?>
<!DOCTYPE svg PUBLIC "-//W3C//DTD SVG 1.1//EN"
 "http://www.w3.org/Graphics/SVG/1.1/DTD/svg11.dtd">
<!-- Generated by graphviz version 12.2.1 (20241206.2353)
 -->
<!-- Title: Database::filter_lesson_by_child_name Pages: 1 -->
<svg width="449pt" height="154pt"
 viewBox="0.00 0.00 449.00 154.00" xmlns="http://www.w3.org/2000/svg" xmlns:xlink="http://www.w3.org/1999/xlink">
<g id="graph0" class="graph" transform="scale(1 1) rotate(0) translate(4 150)">
<title>Database::filter_lesson_by_child_name</title>
<!-- Node1 -->
<g id="Node000001" class="node">
<title>Node1</title>
<g id="a_Node000001"><a xlink:title="Filters lessons by a child&#39;s name.">
<polygon fill="#999999" stroke="#666666" points="116.5,-92 0,-92 0,-60 116.5,-60 116.5,-92"/>
<text text-anchor="start" x="8" y="-78.5" font-family="Helvetica,sans-Serif" font-size="10.00">Database::filter_lesson</text>
<text text-anchor="middle" x="58.25" y="-66.5" font-family="Helvetica,sans-Serif" font-size="10.00">_by_child_name</text>
</a>
</g>
</g>
<!-- Node2 -->
<g id="Node000002" class="node">
<title>Node2</title>
<g id="a_Node000002"><a xlink:href="_helper___functions_8h.html#a3aa0571ac8d9be6660f87c19cfe107fa" target="_top" xlink:title="Checks if a vector contains any value from another vector.">
<polygon fill="white" stroke="#666666" points="283.25,-146 152.5,-146 152.5,-126 283.25,-126 283.25,-146"/>
<text text-anchor="middle" x="217.88" y="-132.5" font-family="Helvetica,sans-Serif" font-size="10.00">contains_any_from_vector</text>
</a>
</g>
</g>
<!-- Node1&#45;&gt;Node2 -->
<g id="edge1_Node000001_Node000002" class="edge">
<title>Node1&#45;&gt;Node2</title>
<g id="a_edge1_Node000001_Node000002"><a xlink:title=" ">
<path fill="none" stroke="#63b8ff" d="M101.45,-92.41C117.43,-98.59 135.79,-105.66 152.5,-112 160.72,-115.12 169.54,-118.43 177.94,-121.57"/>
<polygon fill="#63b8ff" stroke="#63b8ff" points="176.64,-124.82 187.23,-125.03 179.08,-118.26 176.64,-124.82"/>
</a>
</g>
</g>
<!-- Node4 -->
<g id="Node000004" class="node">
<title>Node4</title>
<g id="a_Node000004"><a xlink:href="_helper___functions_8h.html#a0d3fbaad2936b89eb0d594cba2929800" target="_top" xlink:title="Filters a vector of pointers based on a predicate.">
<polygon fill="white" stroke="#666666" points="397.5,-105 362.75,-105 362.75,-85 397.5,-85 397.5,-105"/>
<text text-anchor="middle" x="380.12" y="-91.5" font-family="Helvetica,sans-Serif" font-size="10.00">filter</text>
</a>
</g>
</g>
<!-- Node1&#45;&gt;Node4 -->
<g id="edge3_Node000001_Node000004" class="edge">
<title>Node1&#45;&gt;Node4</title>
<g id="a_edge3_Node000001_Node000004"><a xlink:title=" ">
<path fill="none" stroke="#63b8ff" d="M116.81,-79.42C185.91,-83.52 299.01,-90.24 351.17,-93.34"/>
<polygon fill="#63b8ff" stroke="#63b8ff" points="350.78,-96.82 360.97,-93.92 351.2,-89.83 350.78,-96.82"/>
</a>
</g>
</g>
<!-- Node5 -->
<g id="Node000005" class="node">
<title>Node5</title>
<g id="a_Node000005"><a xlink:href="class_database.html#a448f32cb2e58118d83634666431562c2" target="_top" xlink:title="Filters children by name.">
<polygon fill="white" stroke="#666666" points="272,-70 163.75,-70 163.75,-38 272,-38 272,-70"/>
<text text-anchor="start" x="171.75" y="-56.5" font-family="Helvetica,sans-Serif" font-size="10.00">Database::filter_child</text>
<text text-anchor="middle" x="217.88" y="-44.5" font-family="Helvetica,sans-Serif" font-size="10.00">_by_name</text>
</a>
</g>
</g>
<!-- Node1&#45;&gt;Node5 -->
<g id="edge4_Node000001_Node000005" class="edge">
<title>Node1&#45;&gt;Node5</title>
<g id="a_edge4_Node000001_Node000005"><a xlink:title=" ">
<path fill="none" stroke="#63b8ff" d="M116.6,-68C128.21,-66.38 140.49,-64.66 152.32,-63.01"/>
<polygon fill="#63b8ff" stroke="#63b8ff" points="152.58,-66.51 162,-61.66 151.61,-59.58 152.58,-66.51"/>
</a>
</g>
</g>
<!-- Node7 -->
<g id="Node000007" class="node">
<title>Node7</title>
<g id="a_Node000007"><a xlink:href="class_lesson.html#a0c872d505b26a879fbb9473c6e0210e8" target="_top" xlink:title="Gets the list of children participating in the lesson.">
<polygon fill="white" stroke="#666666" points="270.88,-20 164.88,-20 164.88,0 270.88,0 270.88,-20"/>
<text text-anchor="middle" x="217.88" y="-6.5" font-family="Helvetica,sans-Serif" font-size="10.00">Lesson::get_children</text>
</a>
</g>
</g>
<!-- Node1&#45;&gt;Node7 -->
<g id="edge7_Node000001_Node000007" class="edge">
<title>Node1&#45;&gt;Node7</title>
<g id="a_edge7_Node000001_Node000007"><a xlink:title=" ">
<path fill="none" stroke="#63b8ff" d="M88.44,-59.58C106.52,-49.84 130.42,-37.74 152.5,-29 157.07,-27.19 161.89,-25.46 166.74,-23.83"/>
<polygon fill="#63b8ff" stroke="#63b8ff" points="167.44,-27.28 175.9,-20.91 165.31,-20.62 167.44,-27.28"/>
</a>
</g>
</g>
<!-- Node3 -->
<g id="Node000003" class="node">
<title>Node3</title>
<g id="a_Node000003"><a xlink:href="_helper___functions_8h.html#abbf2bcc86eb4c36312bcad1565f4663e" target="_top" xlink:title="Checks if a vector contains a specific value.">
<polygon fill="white" stroke="#666666" points="406.5,-146 353.75,-146 353.75,-126 406.5,-126 406.5,-146"/>
<text text-anchor="middle" x="380.12" y="-132.5" font-family="Helvetica,sans-Serif" font-size="10.00">contains</text>
</a>
</g>
</g>
<!-- Node2&#45;&gt;Node3 -->
<g id="edge2_Node000002_Node000003" class="edge">
<title>Node2&#45;&gt;Node3</title>
<g id="a_edge2_Node000002_Node000003"><a xlink:title=" ">
<path fill="none" stroke="#63b8ff" d="M283.59,-136C303.5,-136 324.72,-136 342.09,-136"/>
<polygon fill="#63b8ff" stroke="#63b8ff" points="341.93,-139.5 351.93,-136 341.93,-132.5 341.93,-139.5"/>
</a>
</g>
</g>
<!-- Node5&#45;&gt;Node4 -->
<g id="edge5_Node000005_Node000004" class="edge">
<title>Node5&#45;&gt;Node4</title>
<g id="a_edge5_Node000005_Node000004"><a xlink:title=" ">
<path fill="none" stroke="#63b8ff" d="M272.24,-67.65C298.66,-74.41 329.48,-82.3 351.21,-87.86"/>
<polygon fill="#63b8ff" stroke="#63b8ff" points="350.25,-91.22 360.8,-90.31 351.98,-84.44 350.25,-91.22"/>
</a>
</g>
</g>
<!-- Node6 -->
<g id="Node000006" class="node">
<title>Node6</title>
<g id="a_Node000006"><a xlink:href="_helper___functions_8h.html#ab487a2e8523090e129c7f67ed349c9a1" target="_top" xlink:title="Filters a multimap by its keys based on a predicate.">
<polygon fill="white" stroke="#666666" points="441,-64 319.25,-64 319.25,-44 441,-44 441,-64"/>
<text text-anchor="middle" x="380.12" y="-50.5" font-family="Helvetica,sans-Serif" font-size="10.00">filter_multimap_by_keys</text>
</a>
</g>
</g>
<!-- Node5&#45;&gt;Node6 -->
<g id="edge6_Node000005_Node000006" class="edge">
<title>Node5&#45;&gt;Node6</title>
<g id="a_edge6_Node000005_Node000006"><a xlink:title=" ">
<path fill="none" stroke="#63b8ff" d="M272.24,-54C283.55,-54 295.67,-54 307.54,-54"/>
<polygon fill="#63b8ff" stroke="#63b8ff" points="307.29,-57.5 317.29,-54 307.29,-50.5 307.29,-57.5"/>
</a>
</g>
</g>
</g>
</svg>
