<?xml version="1.0" encoding="UTF-8" standalone="no"?>
<!DOCTYPE svg PUBLIC "-//W3C//DTD SVG 1.1//EN"
 "http://www.w3.org/Graphics/SVG/1.1/DTD/svg11.dtd">
<!-- Generated by graphviz version 12.2.1 (20241206.2353)
 -->
<!-- Title: Time::update_time Pages: 1 -->
<svg width="238pt" height="142pt"
 viewBox="0.00 0.00 238.00 142.00" xmlns="http://www.w3.org/2000/svg" xmlns:xlink="http://www.w3.org/1999/xlink">

<svg id="main" version="1.1" xmlns="http://www.w3.org/2000/svg" xmlns:xlink="http://www.w3.org/1999/xlink" xml:space="preserve">

<style type="text/css"><![CDATA[
.node, .edge {opacity: 0.7;}
.node.selected, .edge.selected {opacity: 1;}
.edge:hover path { stroke: red; }
.edge:hover polygon { stroke: red; fill: red; }
]]></style>
<script type="application/ecmascript" xlink:href="svg.min.js"/>
<svg id="graph" class="graph">
<g id="graph0" class="graph" transform="scale(1 1) rotate(0) translate(4 138)">
<title>Time::update_time</title>
<!-- Node1 -->
<g id="Node000001" class="node">
<title>Node1</title>
<g id="a_Node000001"><a xlink:title="Updates the time based on intervals of 15 minutes.">
<polygon fill="#999999" stroke="#666666" points="97,-77 0,-77 0,-57 97,-57 97,-77"/>
<text text-anchor="middle" x="48.5" y="-63.5" font-family="Helvetica,sans-Serif" font-size="10.00">Time::update_time</text>
</a>
</g>
</g>
<!-- Node2 -->
<g id="Node000002" class="node">
<title>Node2</title>
<g id="a_Node000002"><a xlink:href="class_time.html#adf39a26857eb05cb2cdb7fc716b37446" target="_top" xlink:title="Gets the hours of the time.">
<polygon fill="white" stroke="#666666" points="224.75,-134 138.25,-134 138.25,-114 224.75,-114 224.75,-134"/>
<text text-anchor="middle" x="181.5" y="-120.5" font-family="Helvetica,sans-Serif" font-size="10.00">Time::get_hours</text>
</a>
</g>
</g>
<!-- Node1&#45;&gt;Node2 -->
<g id="edge1_Node000001_Node000002" class="edge">
<title>Node1&#45;&gt;Node2</title>
<g id="a_edge1_Node000001_Node000002"><a xlink:title=" ">
<path fill="none" stroke="#63b8ff" d="M71.7,-77.44C88.46,-85.24 112.06,-96.05 133,-105 136.35,-106.43 139.84,-107.89 143.35,-109.33"/>
<polygon fill="#63b8ff" stroke="#63b8ff" points="141.8,-112.48 152.38,-113 144.43,-105.99 141.8,-112.48"/>
</a>
</g>
</g>
<!-- Node3 -->
<g id="Node000003" class="node">
<title>Node3</title>
<g id="a_Node000003"><a xlink:href="class_time.html#ad6e9f40abd0fc0dd6a7fc5bf8c624585" target="_top" xlink:title="Gets the minutes of the time.">
<polygon fill="white" stroke="#666666" points="230,-96 133,-96 133,-76 230,-76 230,-96"/>
<text text-anchor="middle" x="181.5" y="-82.5" font-family="Helvetica,sans-Serif" font-size="10.00">Time::get_minutes</text>
</a>
</g>
</g>
<!-- Node1&#45;&gt;Node3 -->
<g id="edge2_Node000001_Node000003" class="edge">
<title>Node1&#45;&gt;Node3</title>
<g id="a_edge2_Node000001_Node000003"><a xlink:title=" ">
<path fill="none" stroke="#63b8ff" d="M97.16,-73.91C105.02,-75.05 113.25,-76.25 121.34,-77.42"/>
<polygon fill="#63b8ff" stroke="#63b8ff" points="120.75,-80.87 131.15,-78.84 121.76,-73.94 120.75,-80.87"/>
</a>
</g>
</g>
<!-- Node4 -->
<g id="Node000004" class="node">
<title>Node4</title>
<g id="a_Node000004"><a xlink:href="class_time.html#aabfa0dd6f7e7e911246924aa4149c355" target="_top" xlink:title="Sets the hours of the time.">
<polygon fill="white" stroke="#666666" points="224.75,-58 138.25,-58 138.25,-38 224.75,-38 224.75,-58"/>
<text text-anchor="middle" x="181.5" y="-44.5" font-family="Helvetica,sans-Serif" font-size="10.00">Time::set_hours</text>
</a>
</g>
</g>
<!-- Node1&#45;&gt;Node4 -->
<g id="edge3_Node000001_Node000004" class="edge">
<title>Node1&#45;&gt;Node4</title>
<g id="a_edge3_Node000001_Node000004"><a xlink:title=" ">
<path fill="none" stroke="#63b8ff" d="M97.16,-60.09C106.73,-58.7 116.85,-57.23 126.62,-55.81"/>
<polygon fill="#63b8ff" stroke="#63b8ff" points="126.97,-59.3 136.36,-54.4 125.97,-52.37 126.97,-59.3"/>
</a>
</g>
</g>
<!-- Node5 -->
<g id="Node000005" class="node">
<title>Node5</title>
<g id="a_Node000005"><a xlink:href="class_time.html#a609f9d7c36ccf261eadadb4545dc3e01" target="_top" xlink:title="Sets the minutes of the time.">
<polygon fill="white" stroke="#666666" points="230,-20 133,-20 133,0 230,0 230,-20"/>
<text text-anchor="middle" x="181.5" y="-6.5" font-family="Helvetica,sans-Serif" font-size="10.00">Time::set_minutes</text>
</a>
</g>
</g>
<!-- Node1&#45;&gt;Node5 -->
<g id="edge4_Node000001_Node000005" class="edge">
<title>Node1&#45;&gt;Node5</title>
<g id="a_edge4_Node000001_Node000005"><a xlink:title=" ">
<path fill="none" stroke="#63b8ff" d="M71.7,-56.56C88.46,-48.76 112.06,-37.95 133,-29 136.35,-27.57 139.84,-26.11 143.35,-24.67"/>
<polygon fill="#63b8ff" stroke="#63b8ff" points="144.43,-28.01 152.38,-21 141.8,-21.52 144.43,-28.01"/>
</a>
</g>
</g>
</g>
</svg>
</svg>

<style type='text/css'>
<![CDATA[
[data-mouse-over-selected='false'] { opacity: 0.7; }
[data-mouse-over-selected='true']  { opacity: 1.0; }
]]>
</style>
<script type="application/ecmascript"><![CDATA[
document.addEventListener('DOMContentLoaded', (event) => {
  highlightEdges();
  highlightAdjacentNodes();
});
]]></script>
</svg>
