<?xml version="1.0" encoding="UTF-8" standalone="no"?>
<!DOCTYPE svg PUBLIC "-//W3C//DTD SVG 1.1//EN"
 "http://www.w3.org/Graphics/SVG/1.1/DTD/svg11.dtd">
<!-- Generated by graphviz version 12.2.1 (20241206.2353)
 -->
<!-- Title: DataBaseGUI::child_edit Pages: 1 -->
<svg width="783pt" height="203pt"
 viewBox="0.00 0.00 782.50 202.87" xmlns="http://www.w3.org/2000/svg" xmlns:xlink="http://www.w3.org/1999/xlink">
<g id="graph0" class="graph" transform="scale(1 1) rotate(0) translate(4 198.87)">
<title>DataBaseGUI::child_edit</title>
<!-- Node1 -->
<g id="Node000001" class="node">
<title>Node1</title>
<g id="a_Node000001"><a xlink:title="Edits an existing child in the database.">
<polygon fill="#999999" stroke="#666666" points="774.5,-166.87 649.75,-166.87 649.75,-146.87 774.5,-146.87 774.5,-166.87"/>
<text text-anchor="middle" x="712.12" y="-153.37" font-family="Helvetica,sans-Serif" font-size="10.00">DataBaseGUI::child_edit</text>
</a>
</g>
</g>
<!-- Node2 -->
<g id="Node000002" class="node">
<title>Node2</title>
<g id="a_Node000002"><a xlink:href="$class_data_base_g_u_i.html#a334c0011a9d3a71539b326a888feccd3" xlink:title="Populates the children tab with a multimap of children.">
<polygon fill="white" stroke="#666666" points="132.62,-194.87 12.38,-194.87 12.38,-162.87 132.62,-162.87 132.62,-194.87"/>
<text text-anchor="start" x="20.38" y="-181.37" font-family="Helvetica,sans-Serif" font-size="10.00">DataBaseGUI::populate</text>
<text text-anchor="middle" x="72.5" y="-169.37" font-family="Helvetica,sans-Serif" font-size="10.00">_children_tab</text>
</a>
</g>
</g>
<!-- Node1&#45;&gt;Node2 -->
<g id="edge1_Node000001_Node000002" class="edge">
<title>Node1&#45;&gt;Node2</title>
<g id="a_edge1_Node000001_Node000002"><a xlink:title=" ">
<path fill="none" stroke="#63b8ff" d="M668.43,-170.3C651.58,-174.95 631.93,-179.57 613.75,-181.87 440.2,-203.79 232.79,-192.18 132.96,-184.26"/>
<polygon fill="#63b8ff" stroke="#63b8ff" points="668.95,-173.8 677.61,-167.68 667.03,-167.06 668.95,-173.8"/>
</a>
</g>
</g>
<!-- Node3 -->
<g id="Node000003" class="node">
<title>Node3</title>
<g id="a_Node000003"><a xlink:href="$class_data_base_g_u_i.html#af346d08370d9e4574980707f61b9c8f7" xlink:title="Populates the children tab with a list of children.">
<polygon fill="white" stroke="#666666" points="613.75,-172.87 493.5,-172.87 493.5,-140.87 613.75,-140.87 613.75,-172.87"/>
<text text-anchor="start" x="501.5" y="-159.37" font-family="Helvetica,sans-Serif" font-size="10.00">DataBaseGUI::populate</text>
<text text-anchor="middle" x="553.62" y="-147.37" font-family="Helvetica,sans-Serif" font-size="10.00">_children_tab</text>
</a>
</g>
</g>
<!-- Node1&#45;&gt;Node3 -->
<g id="edge2_Node000001_Node000003" class="edge">
<title>Node1&#45;&gt;Node3</title>
<g id="a_edge2_Node000001_Node000003"><a xlink:title=" ">
<path fill="none" stroke="#63b8ff" d="M637.79,-156.87C629.9,-156.87 621.94,-156.87 614.24,-156.87"/>
<polygon fill="#63b8ff" stroke="#63b8ff" points="637.76,-160.37 647.76,-156.87 637.76,-153.37 637.76,-160.37"/>
</a>
</g>
</g>
<!-- Node4 -->
<g id="Node000004" class="node">
<title>Node4</title>
<g id="a_Node000004"><a xlink:href="$class_data_base_g_u_i.html#a2d921da686e76ae195da018bb735a1ae" xlink:title=" ">
<polygon fill="white" stroke="#666666" points="451.5,-40.87 347.75,-40.87 347.75,-8.87 451.5,-8.87 451.5,-40.87"/>
<text text-anchor="start" x="355.75" y="-27.37" font-family="Helvetica,sans-Serif" font-size="10.00">DataBaseGUI::child</text>
<text text-anchor="middle" x="399.62" y="-15.37" font-family="Helvetica,sans-Serif" font-size="10.00">_search</text>
</a>
</g>
</g>
<!-- Node3&#45;&gt;Node4 -->
<g id="edge3_Node000003_Node000004" class="edge">
<title>Node3&#45;&gt;Node4</title>
<g id="a_edge3_Node000003_Node000004"><a xlink:title=" ">
<path fill="none" stroke="#63b8ff" d="M525.18,-133.04C494.56,-106.45 445.85,-64.14 419.33,-41.11"/>
<polygon fill="#63b8ff" stroke="#63b8ff" points="522.69,-135.51 532.54,-139.42 527.28,-130.23 522.69,-135.51"/>
</a>
</g>
</g>
<!-- Node6 -->
<g id="Node000006" class="node">
<title>Node6</title>
<g id="a_Node000006"><a xlink:href="$class_data_base_g_u_i.html#aa684465aa73b5b34bbadd24fc7f2f641" xlink:title=" ">
<polygon fill="white" stroke="#666666" points="457.5,-128.87 341.75,-128.87 341.75,-96.87 457.5,-96.87 457.5,-128.87"/>
<text text-anchor="start" x="349.75" y="-115.37" font-family="Helvetica,sans-Serif" font-size="10.00">DataBaseGUI::sort_to</text>
<text text-anchor="middle" x="399.62" y="-103.37" font-family="Helvetica,sans-Serif" font-size="10.00">_populate_children_tab</text>
</a>
</g>
</g>
<!-- Node3&#45;&gt;Node6 -->
<g id="edge5_Node000003_Node000006" class="edge">
<title>Node3&#45;&gt;Node6</title>
<g id="a_edge5_Node000003_Node000006"><a xlink:title=" ">
<path fill="none" stroke="#63b8ff" d="M485.27,-137.37C476.01,-134.69 466.57,-131.96 457.52,-129.34"/>
<polygon fill="#63b8ff" stroke="#63b8ff" points="483.99,-140.64 494.57,-140.06 485.94,-133.92 483.99,-140.64"/>
</a>
</g>
</g>
<!-- Node5 -->
<g id="Node000005" class="node">
<title>Node5</title>
<g id="a_Node000005"><a xlink:href="$class_data_base_g_u_i.html#aba10d1d8e9fb151632ff34de418cee82" xlink:title="Constructs a DataBaseGUI object.">
<polygon fill="white" stroke="#666666" points="145,-62.87 0,-62.87 0,-42.87 145,-42.87 145,-62.87"/>
<text text-anchor="middle" x="72.5" y="-49.37" font-family="Helvetica,sans-Serif" font-size="10.00">DataBaseGUI::DataBaseGUI</text>
</a>
</g>
</g>
<!-- Node4&#45;&gt;Node5 -->
<g id="edge4_Node000004_Node000005" class="edge">
<title>Node4&#45;&gt;Node5</title>
<g id="a_edge4_Node000004_Node000005"><a xlink:title=" ">
<path fill="none" stroke="#63b8ff" d="M336.49,-9.9C292.64,-1.64 232.74,4.95 181,-5.87 147.5,-12.87 111.68,-30.92 91,-42.51"/>
<polygon fill="#63b8ff" stroke="#63b8ff" points="335.58,-13.28 346.07,-11.78 336.94,-6.42 335.58,-13.28"/>
</a>
</g>
</g>
<!-- Node6&#45;&gt;Node1 -->
<g id="edge8_Node000006_Node000001" class="edge">
<title>Node6&#45;&gt;Node1</title>
<g id="a_edge8_Node000006_Node000001"><a xlink:title=" ">
<path fill="none" stroke="#63b8ff" d="M469.42,-116.16C511.35,-118.87 565.89,-123.65 613.75,-131.87 634.74,-135.47 657.83,-141.32 676.27,-146.45"/>
<polygon fill="#63b8ff" stroke="#63b8ff" points="469.65,-112.67 459.45,-115.54 469.21,-119.65 469.65,-112.67"/>
</a>
</g>
</g>
<!-- Node6&#45;&gt;Node5 -->
<g id="edge14_Node000006_Node000005" class="edge">
<title>Node6&#45;&gt;Node5</title>
<g id="a_edge14_Node000006_Node000005"><a xlink:title=" ">
<path fill="none" stroke="#63b8ff" d="M330.33,-111.75C287.07,-109.85 230.2,-105.17 181,-93.87 150.24,-86.8 116.5,-72.84 95.18,-63.19"/>
<polygon fill="#63b8ff" stroke="#63b8ff" points="329.95,-115.23 340.08,-112.13 330.23,-108.24 329.95,-115.23"/>
</a>
</g>
</g>
<!-- Node7 -->
<g id="Node000007" class="node">
<title>Node7</title>
<g id="a_Node000007"><a xlink:href="$class_data_base_g_u_i.html#a00f9044d3b8dd9c5dada244dac1b0df6" xlink:title="Adds a new child to the database.">
<polygon fill="white" stroke="#666666" points="305.75,-84.87 181,-84.87 181,-64.87 305.75,-64.87 305.75,-84.87"/>
<text text-anchor="middle" x="243.38" y="-71.37" font-family="Helvetica,sans-Serif" font-size="10.00">DataBaseGUI::child_add</text>
</a>
</g>
</g>
<!-- Node6&#45;&gt;Node7 -->
<g id="edge6_Node000006_Node000007" class="edge">
<title>Node6&#45;&gt;Node7</title>
<g id="a_edge6_Node000006_Node000007"><a xlink:title=" ">
<path fill="none" stroke="#63b8ff" d="M330.82,-96.16C315.81,-92.47 300.32,-88.65 286.67,-85.29"/>
<polygon fill="#63b8ff" stroke="#63b8ff" points="329.61,-99.47 340.16,-98.46 331.28,-92.67 329.61,-99.47"/>
</a>
</g>
</g>
<!-- Node8 -->
<g id="Node000008" class="node">
<title>Node8</title>
<g id="a_Node000008"><a xlink:href="$class_data_base_g_u_i.html#ae3a08843db874e51a7cea32fa8937ca5" xlink:title="Removes a child from the database.">
<polygon fill="white" stroke="#666666" points="295.25,-172.87 191.5,-172.87 191.5,-140.87 295.25,-140.87 295.25,-172.87"/>
<text text-anchor="start" x="199.5" y="-159.37" font-family="Helvetica,sans-Serif" font-size="10.00">DataBaseGUI::child</text>
<text text-anchor="middle" x="243.38" y="-147.37" font-family="Helvetica,sans-Serif" font-size="10.00">_remove</text>
</a>
</g>
</g>
<!-- Node6&#45;&gt;Node8 -->
<g id="edge9_Node000006_Node000008" class="edge">
<title>Node6&#45;&gt;Node8</title>
<g id="a_edge9_Node000006_Node000008"><a xlink:title=" ">
<path fill="none" stroke="#63b8ff" d="M330.86,-132.2C319,-135.58 306.85,-139.05 295.54,-142.27"/>
<polygon fill="#63b8ff" stroke="#63b8ff" points="331.51,-135.65 340.17,-129.54 329.59,-128.92 331.51,-135.65"/>
</a>
</g>
</g>
<!-- Node9 -->
<g id="Node000009" class="node">
<title>Node9</title>
<g id="a_Node000009"><a xlink:href="$class_data_base_g_u_i.html#a2e6d3629f679c153cdd21b683ce794a1" xlink:title=" ">
<polygon fill="white" stroke="#666666" points="295.25,-46.87 191.5,-46.87 191.5,-14.87 295.25,-14.87 295.25,-46.87"/>
<text text-anchor="start" x="199.5" y="-33.37" font-family="Helvetica,sans-Serif" font-size="10.00">DataBaseGUI::child</text>
<text text-anchor="middle" x="243.38" y="-21.37" font-family="Helvetica,sans-Serif" font-size="10.00">_sort_change</text>
</a>
</g>
</g>
<!-- Node6&#45;&gt;Node9 -->
<g id="edge12_Node000006_Node000009" class="edge">
<title>Node6&#45;&gt;Node9</title>
<g id="a_edge12_Node000006_Node000009"><a xlink:title=" ">
<path fill="none" stroke="#63b8ff" d="M364.79,-90.25C347.51,-79.19 325.93,-66.08 305.75,-55.87 299.9,-52.91 293.61,-50.02 287.37,-47.33"/>
<polygon fill="#63b8ff" stroke="#63b8ff" points="362.86,-93.17 373.15,-95.67 366.66,-87.3 362.86,-93.17"/>
</a>
</g>
</g>
<!-- Node7&#45;&gt;Node5 -->
<g id="edge7_Node000007_Node000005" class="edge">
<title>Node7&#45;&gt;Node5</title>
<g id="a_edge7_Node000007_Node000005"><a xlink:title=" ">
<path fill="none" stroke="#63b8ff" d="M169.62,-65.39C161.53,-64.34 153.3,-63.26 145.22,-62.21"/>
<polygon fill="#63b8ff" stroke="#63b8ff" points="169.06,-68.85 179.43,-66.67 169.96,-61.91 169.06,-68.85"/>
</a>
</g>
</g>
<!-- Node8&#45;&gt;Node2 -->
<g id="edge10_Node000008_Node000002" class="edge">
<title>Node8&#45;&gt;Node2</title>
<g id="a_edge10_Node000008_Node000002"><a xlink:title=" ">
<path fill="none" stroke="#63b8ff" d="M180.24,-164.96C164.83,-166.97 148.34,-169.12 133.05,-171.11"/>
<polygon fill="#63b8ff" stroke="#63b8ff" points="180.28,-168.49 189.75,-163.72 179.38,-161.55 180.28,-168.49"/>
</a>
</g>
</g>
<!-- Node8&#45;&gt;Node3 -->
<g id="edge11_Node000008_Node000003" class="edge">
<title>Node8&#45;&gt;Node3</title>
<g id="a_edge11_Node000008_Node000003"><a xlink:title=" ">
<path fill="none" stroke="#63b8ff" d="M306.93,-156.87C361.36,-156.87 439.7,-156.87 493.19,-156.87"/>
<polygon fill="#63b8ff" stroke="#63b8ff" points="307.21,-153.37 297.21,-156.87 307.21,-160.37 307.21,-153.37"/>
</a>
</g>
</g>
<!-- Node9&#45;&gt;Node5 -->
<g id="edge13_Node000009_Node000005" class="edge">
<title>Node9&#45;&gt;Node5</title>
<g id="a_edge13_Node000009_Node000005"><a xlink:title=" ">
<path fill="none" stroke="#63b8ff" d="M180.14,-38.98C168.81,-40.45 156.91,-42 145.32,-43.51"/>
<polygon fill="#63b8ff" stroke="#63b8ff" points="180.28,-42.49 189.75,-37.72 179.38,-35.55 180.28,-42.49"/>
</a>
</g>
</g>
</g>
</svg>
