<?xml version="1.0" encoding="UTF-8" standalone="no"?>
<!DOCTYPE svg PUBLIC "-//W3C//DTD SVG 1.1//EN"
 "http://www.w3.org/Graphics/SVG/1.1/DTD/svg11.dtd">
<!-- Generated by graphviz version 12.2.1 (20241206.2353)
 -->
<!-- Title: Phone::Phone Pages: 1 -->
<svg width="219pt" height="218pt"
 viewBox="0.00 0.00 218.50 218.00" xmlns="http://www.w3.org/2000/svg" xmlns:xlink="http://www.w3.org/1999/xlink">

<svg id="main" version="1.1" xmlns="http://www.w3.org/2000/svg" xmlns:xlink="http://www.w3.org/1999/xlink" xml:space="preserve">

<style type="text/css"><![CDATA[
.node, .edge {opacity: 0.7;}
.node.selected, .edge.selected {opacity: 1;}
.edge:hover path { stroke: red; }
.edge:hover polygon { stroke: red; fill: red; }
]]></style>
<script type="application/ecmascript" xlink:href="svg.min.js"/>
<svg id="graph" class="graph">
<g id="graph0" class="graph" transform="scale(1 1) rotate(0) translate(4 214)">
<title>Phone::Phone</title>
<!-- Node1 -->
<g id="Node000001" class="node">
<title>Node1</title>
<g id="a_Node000001"><a xlink:title="Default constructor.">
<polygon fill="#999999" stroke="#666666" points="210.5,-115 133,-115 133,-95 210.5,-95 210.5,-115"/>
<text text-anchor="middle" x="171.75" y="-101.5" font-family="Helvetica,sans-Serif" font-size="10.00">Phone::Phone</text>
</a>
</g>
</g>
<!-- Node2 -->
<g id="Node000002" class="node">
<title>Node2</title>
<g id="a_Node000002"><a xlink:href="class_phone.html#a25d3f34c7aa463846f59aaab562ff6ea" target="_top" xlink:title="Outputs the phone number to a stream.">
<polygon fill="white" stroke="#666666" points="97,-210 0,-210 0,-190 97,-190 97,-210"/>
<text text-anchor="middle" x="48.5" y="-196.5" font-family="Helvetica,sans-Serif" font-size="10.00">Phone::operator&lt;&lt;</text>
</a>
</g>
</g>
<!-- Node1&#45;&gt;Node2 -->
<g id="edge1_Node000001_Node000002" class="edge">
<title>Node1&#45;&gt;Node2</title>
<g id="a_edge1_Node000001_Node000002"><a xlink:title=" ">
<path fill="none" stroke="#63b8ff" d="M155.88,-124.41C142.14,-141.26 120.36,-165.34 97,-181 92.13,-184.26 86.61,-187.11 81.11,-189.53"/>
<polygon fill="#63b8ff" stroke="#63b8ff" points="158.58,-126.64 162.06,-116.63 153.1,-122.29 158.58,-126.64"/>
</a>
</g>
</g>
<!-- Node3 -->
<g id="Node000003" class="node">
<title>Node3</title>
<g id="a_Node000003"><a xlink:href="class_phone.html#a0a764e4f29434df7323fb6a3ca7ffa9d" target="_top" xlink:title=" ">
<polygon fill="white" stroke="#666666" points="94,-172 3,-172 3,-152 94,-152 94,-172"/>
<text text-anchor="middle" x="48.5" y="-158.5" font-family="Helvetica,sans-Serif" font-size="10.00">Phone::operator=</text>
</a>
</g>
</g>
<!-- Node1&#45;&gt;Node3 -->
<g id="edge2_Node000001_Node000003" class="edge">
<title>Node1&#45;&gt;Node3</title>
<g id="a_edge2_Node000001_Node000003"><a xlink:title=" ">
<path fill="none" stroke="#63b8ff" d="M141.78,-120.73C128.31,-127.84 111.99,-136.16 97,-143 90.54,-145.95 83.47,-148.91 76.82,-151.59"/>
<polygon fill="#63b8ff" stroke="#63b8ff" points="143.38,-123.85 150.56,-116.06 140.09,-117.67 143.38,-123.85"/>
</a>
</g>
</g>
<!-- Node4 -->
<g id="Node000004" class="node">
<title>Node4</title>
<g id="a_Node000004"><a xlink:href="class_phone.html#a535a85b25da7ff37804de1cda5d743a0" target="_top" xlink:title=" ">
<polygon fill="white" stroke="#666666" points="94,-134 3,-134 3,-114 94,-114 94,-134"/>
<text text-anchor="middle" x="48.5" y="-120.5" font-family="Helvetica,sans-Serif" font-size="10.00">Phone::operator=</text>
</a>
</g>
</g>
<!-- Node1&#45;&gt;Node4 -->
<g id="edge3_Node000001_Node000004" class="edge">
<title>Node1&#45;&gt;Node4</title>
<g id="a_edge3_Node000001_Node000004"><a xlink:title=" ">
<path fill="none" stroke="#63b8ff" d="M121.52,-112.71C112.48,-114.13 103.08,-115.6 94.19,-117"/>
<polygon fill="#63b8ff" stroke="#63b8ff" points="121.89,-116.2 131.22,-111.19 120.8,-109.28 121.89,-116.2"/>
</a>
</g>
</g>
<!-- Node5 -->
<g id="Node000005" class="node">
<title>Node5</title>
<g id="a_Node000005"><a xlink:href="class_phone.html#ac59ac7ed34890be53382299db62415a9" target="_top" xlink:title="Compares two Phone objects for equality.">
<polygon fill="white" stroke="#666666" points="97,-96 0,-96 0,-76 97,-76 97,-96"/>
<text text-anchor="middle" x="48.5" y="-82.5" font-family="Helvetica,sans-Serif" font-size="10.00">Phone::operator==</text>
</a>
</g>
</g>
<!-- Node1&#45;&gt;Node5 -->
<g id="edge4_Node000001_Node000005" class="edge">
<title>Node1&#45;&gt;Node5</title>
<g id="a_edge4_Node000001_Node000005"><a xlink:title=" ">
<path fill="none" stroke="#63b8ff" d="M121.6,-97.3C113.55,-96.04 105.23,-94.73 97.22,-93.48"/>
<polygon fill="#63b8ff" stroke="#63b8ff" points="120.8,-100.72 131.22,-98.81 121.89,-93.8 120.8,-100.72"/>
</a>
</g>
</g>
<!-- Node6 -->
<g id="Node000006" class="node">
<title>Node6</title>
<g id="a_Node000006"><a xlink:href="class_phone.html#aced67558b518450594bcf4ca7b19a613" target="_top" xlink:title=" ">
<polygon fill="white" stroke="#666666" points="87.25,-58 9.75,-58 9.75,-38 87.25,-38 87.25,-58"/>
<text text-anchor="middle" x="48.5" y="-44.5" font-family="Helvetica,sans-Serif" font-size="10.00">Phone::Phone</text>
</a>
</g>
</g>
<!-- Node1&#45;&gt;Node6 -->
<g id="edge5_Node000001_Node000006" class="edge">
<title>Node1&#45;&gt;Node6</title>
<g id="a_edge5_Node000001_Node000006"><a xlink:title=" ">
<path fill="none" stroke="#63b8ff" d="M141.78,-89.27C128.31,-82.16 111.99,-73.84 97,-67 90.54,-64.05 83.47,-61.09 76.82,-58.41"/>
<polygon fill="#63b8ff" stroke="#63b8ff" points="140.09,-92.33 150.56,-93.94 143.38,-86.15 140.09,-92.33"/>
</a>
</g>
</g>
<!-- Node7 -->
<g id="Node000007" class="node">
<title>Node7</title>
<g id="a_Node000007"><a xlink:href="class_phone.html#ac7891a81ee0210e53180775f92467cae" target="_top" xlink:title=" ">
<polygon fill="white" stroke="#666666" points="87.25,-20 9.75,-20 9.75,0 87.25,0 87.25,-20"/>
<text text-anchor="middle" x="48.5" y="-6.5" font-family="Helvetica,sans-Serif" font-size="10.00">Phone::Phone</text>
</a>
</g>
</g>
<!-- Node1&#45;&gt;Node7 -->
<g id="edge6_Node000001_Node000007" class="edge">
<title>Node1&#45;&gt;Node7</title>
<g id="a_edge6_Node000001_Node000007"><a xlink:title=" ">
<path fill="none" stroke="#63b8ff" d="M155.88,-85.59C142.14,-68.74 120.36,-44.66 97,-29 92.13,-25.74 86.61,-22.89 81.11,-20.47"/>
<polygon fill="#63b8ff" stroke="#63b8ff" points="153.1,-87.71 162.06,-93.37 158.58,-83.36 153.1,-87.71"/>
</a>
</g>
</g>
</g>
</svg>
</svg>

<style type='text/css'>
<![CDATA[
[data-mouse-over-selected='false'] { opacity: 0.7; }
[data-mouse-over-selected='true']  { opacity: 1.0; }
]]>
</style>
<script type="application/ecmascript"><![CDATA[
document.addEventListener('DOMContentLoaded', (event) => {
  highlightEdges();
  highlightAdjacentNodes();
});
]]></script>
</svg>
