<?xml version="1.0" encoding="UTF-8" standalone="no"?>
<!DOCTYPE svg PUBLIC "-//W3C//DTD SVG 1.1//EN"
 "http://www.w3.org/Graphics/SVG/1.1/DTD/svg11.dtd">
<!-- Generated by graphviz version 12.2.1 (20241206.2353)
 -->
<!-- Title: Ui_EmployeeDialogClass Pages: 1 -->
<svg width="129pt" height="324pt"
 viewBox="0.00 0.00 128.50 324.00" xmlns="http://www.w3.org/2000/svg" xmlns:xlink="http://www.w3.org/1999/xlink">
<g id="graph0" class="graph" transform="scale(1 1) rotate(0) translate(4 320)">
<title>Ui_EmployeeDialogClass</title>
<!-- Node1 -->
<g id="Node000001" class="node">
<title>Node1</title>
<g id="a_Node000001"><a xlink:title=" ">
<polygon fill="#999999" stroke="none" points="120.12,-316 0.38,-316 0.38,-88 120.12,-88 120.12,-316"/>
<text text-anchor="start" x="4.38" y="-302.5" font-family="Helvetica,sans-Serif" font-size="10.00">Ui_EmployeeDialogClass</text>
<text text-anchor="start" x="14.06" y="-286.5" font-family="Helvetica,sans-Serif" font-size="10.00">+</text>
<text text-anchor="start" x="33.75" y="-286.5" font-family="Helvetica,sans-Serif" font-size="10.00">gridLayout</text>
<text text-anchor="start" x="14.06" y="-270.5" font-family="Helvetica,sans-Serif" font-size="10.00">+</text>
<text text-anchor="start" x="33.75" y="-270.5" font-family="Helvetica,sans-Serif" font-size="10.00">name_label</text>
<text text-anchor="start" x="14.06" y="-254.5" font-family="Helvetica,sans-Serif" font-size="10.00">+</text>
<text text-anchor="start" x="33.75" y="-254.5" font-family="Helvetica,sans-Serif" font-size="10.00">name_edit</text>
<text text-anchor="start" x="14.06" y="-238.5" font-family="Helvetica,sans-Serif" font-size="10.00">+</text>
<text text-anchor="start" x="33.75" y="-238.5" font-family="Helvetica,sans-Serif" font-size="10.00">line</text>
<text text-anchor="start" x="14.06" y="-222.5" font-family="Helvetica,sans-Serif" font-size="10.00">+</text>
<text text-anchor="start" x="33.75" y="-222.5" font-family="Helvetica,sans-Serif" font-size="10.00">surname_label</text>
<text text-anchor="start" x="14.06" y="-206.5" font-family="Helvetica,sans-Serif" font-size="10.00">+</text>
<text text-anchor="start" x="33.75" y="-206.5" font-family="Helvetica,sans-Serif" font-size="10.00">surname_edit</text>
<text text-anchor="start" x="14.06" y="-190.5" font-family="Helvetica,sans-Serif" font-size="10.00">+</text>
<text text-anchor="start" x="33.75" y="-190.5" font-family="Helvetica,sans-Serif" font-size="10.00">line_2</text>
<text text-anchor="start" x="14.06" y="-174.5" font-family="Helvetica,sans-Serif" font-size="10.00">+</text>
<text text-anchor="start" x="33.75" y="-174.5" font-family="Helvetica,sans-Serif" font-size="10.00">email_edit</text>
<text text-anchor="start" x="14.06" y="-158.5" font-family="Helvetica,sans-Serif" font-size="10.00">+</text>
<text text-anchor="start" x="33.75" y="-158.5" font-family="Helvetica,sans-Serif" font-size="10.00">line_3</text>
<text text-anchor="start" x="14.06" y="-142.5" font-family="Helvetica,sans-Serif" font-size="10.00">+</text>
<text text-anchor="start" x="33.75" y="-142.5" font-family="Helvetica,sans-Serif" font-size="10.00">phone_label</text>
<text text-anchor="start" x="33.75" y="-126.5" font-family="Helvetica,sans-Serif" font-size="10.00">and 8 more...</text>
<text text-anchor="start" x="14.06" y="-110.5" font-family="Helvetica,sans-Serif" font-size="10.00">+</text>
<text text-anchor="start" x="33.75" y="-110.5" font-family="Helvetica,sans-Serif" font-size="10.00">setupUi()</text>
<text text-anchor="start" x="14.06" y="-94.5" font-family="Helvetica,sans-Serif" font-size="10.00">+</text>
<text text-anchor="start" x="33.75" y="-94.5" font-family="Helvetica,sans-Serif" font-size="10.00">retranslateUi()</text>
<polygon fill="#666666" stroke="#666666" points="0.38,-298 0.38,-298 120.12,-298 120.12,-298 0.38,-298"/>
<polygon fill="#666666" stroke="#666666" points="0.38,-122 0.38,-122 31.75,-122 31.75,-122 0.38,-122"/>
<polygon fill="#666666" stroke="#666666" points="31.75,-122 31.75,-122 120.12,-122 120.12,-122 31.75,-122"/>
<polygon fill="none" stroke="#666666" points="0.38,-88 0.38,-316 120.12,-316 120.12,-88 0.38,-88"/>
</a>
</g>
</g>
<!-- Node2 -->
<g id="Node000002" class="node">
<title>Node2</title>
<g id="a_Node000002"><a xlink:href="class_ui_1_1_employee_dialog_class.html" target="_top" xlink:title=" ">
<polygon fill="white" stroke="none" points="120.5,-52 0,-52 0,0 120.5,0 120.5,-52"/>
<text text-anchor="start" x="4" y="-38.5" font-family="Helvetica,sans-Serif" font-size="10.00">Ui::EmployeeDialogClass</text>
<text text-anchor="start" x="58.75" y="-22.5" font-family="Helvetica,sans-Serif" font-size="10.00"> </text>
<text text-anchor="start" x="58.75" y="-6.5" font-family="Helvetica,sans-Serif" font-size="10.00"> </text>
<polygon fill="#666666" stroke="#666666" points="0,-34 0,-34 120.5,-34 120.5,-34 0,-34"/>
<polygon fill="#666666" stroke="#666666" points="0,-18 0,-18 120.5,-18 120.5,-18 0,-18"/>
<polygon fill="none" stroke="#666666" points="0,0 0,-52 120.5,-52 120.5,0 0,0"/>
</a>
</g>
</g>
<!-- Node1&#45;&gt;Node2 -->
<g id="edge1_Node000001_Node000002" class="edge">
<title>Node1&#45;&gt;Node2</title>
<g id="a_edge1_Node000001_Node000002"><a xlink:title=" ">
<path fill="none" stroke="#63b8ff" d="M60.25,-77.13C60.25,-67.82 60.25,-59.2 60.25,-51.83"/>
<polygon fill="none" stroke="#63b8ff" points="56.75,-76.83 60.25,-86.83 63.75,-76.83 56.75,-76.83"/>
</a>
</g>
</g>
</g>
</svg>
