<?xml version="1.0" encoding="UTF-8" standalone="no"?>
<!DOCTYPE svg PUBLIC "-//W3C//DTD SVG 1.1//EN"
 "http://www.w3.org/Graphics/SVG/1.1/DTD/svg11.dtd">
<!-- Generated by graphviz version 12.2.1 (20241206.2353)
 -->
<!-- Title: CSV_Parser::parse_lesson Pages: 1 -->
<!--zoomable 280 -->

<svg id="main" version="1.1" xmlns="http://www.w3.org/2000/svg" xmlns:xlink="http://www.w3.org/1999/xlink" xml:space="preserve" onload="init(evt)">

<style type="text/css"><![CDATA[
.node, .edge {opacity: 0.7;}
.node.selected, .edge.selected {opacity: 1;}
.edge:hover path { stroke: red; }
.edge:hover polygon { stroke: red; fill: red; }
]]></style>

<defs>
  <circle id="rim" cx="0" cy="0" r="7"/>
  <circle id="rim2" cx="0" cy="0" r="3.5"/>
  <g id="zoomPlus">
    <use xlink:href="#rim" fill="#404040"><set attributeName="fill" to="#808080" begin="zoomplus.mouseover" end="zoomplus.mouseout"/></use>
    <path d="M-4,0h8M0,-4v8" fill="none" stroke="white" stroke-width="1.5" pointer-events="none"/>
  </g>
  <g id="zoomMin">
    <use xlink:href="#rim" fill="#404040"><set attributeName="fill" to="#808080" begin="zoomminus.mouseover" end="zoomminus.mouseout"/></use>
    <path d="M-4,0h8" fill="none" stroke="white" stroke-width="1.5" pointer-events="none"/>
  </g>
  <g id="arrowUp" transform="translate(30 24)">
    <use xlink:href="#rim"/>
    <path pointer-events="none" fill="none" stroke="white" stroke-width="1.5" d="M0,-3.0v7 M-2.5,-0.5L0,-3.0L2.5,-0.5"/>
  </g>
  <g id="arrowRight" transform="rotate(90) translate(36 -43)">
    <use xlink:href="#rim"/>
    <path pointer-events="none" fill="none" stroke="white" stroke-width="1.5" d="M0,-3.0v7 M-2.5,-0.5L0,-3.0L2.5,-0.5"/>
  </g>
  <g id="arrowDown" transform="rotate(180) translate(-30 -48)">
    <use xlink:href="#rim"/>
    <path pointer-events="none" fill="none" stroke="white" stroke-width="1.5" d="M0,-3.0v7 M-2.5,-0.5L0,-3.0L2.5,-0.5"/>
  </g>
  <g id="arrowLeft" transform="rotate(270) translate(-36 17)">
    <use xlink:href="#rim"/>
    <path pointer-events="none" fill="none" stroke="white" stroke-width="1.5" d="M0,-3.0v7 M-2.5,-0.5L0,-3.0L2.5,-0.5"/>
  </g>
  <g id="resetDef">
    <use xlink:href="#rim2" fill="#404040"><set attributeName="fill" to="#808080" begin="reset.mouseover" end="reset.mouseout"/></use>
  </g>
</defs>
<script type="application/ecmascript">
var viewWidth = 832;
var viewHeight = 280;
var sectionId = 'dynsection-5';
</script>
<script type="application/ecmascript" xlink:href="svg.min.js"/>
<svg id="graph" class="graph">
<g id="viewport">
<title>CSV_Parser::parse_lesson</title>
<!-- Node1 -->
<g id="Node000001" class="node">
<title>Node1</title>
<g id="a_Node000001"><a xlink:title="Parses a lesson from a CSV line.">
<polygon fill="#999999" stroke="#666666" points="134.5,-187 0,-187 0,-167 134.5,-167 134.5,-187"/>
<text text-anchor="middle" x="67.25" y="-173.5" font-family="Helvetica,sans-Serif" font-size="10.00">CSV_Parser::parse_lesson</text>
</a>
</g>
</g>
<!-- Node2 -->
<g id="Node000002" class="node">
<title>Node2</title>
<g id="a_Node000002"><a xlink:href="class_database.html#a12af120f4bd82e7c70ffd191f13f0011" target="_top" xlink:title="Adds a lesson to the database.">
<polygon fill="white" stroke="#666666" points="477.38,-272 363.88,-272 363.88,-252 477.38,-252 477.38,-272"/>
<text text-anchor="middle" x="420.62" y="-258.5" font-family="Helvetica,sans-Serif" font-size="10.00">Database::add_lesson</text>
</a>
</g>
</g>
<!-- Node1&#45;&gt;Node2 -->
<g id="edge1_Node000001_Node000002" class="edge">
<title>Node1&#45;&gt;Node2</title>
<g id="a_edge1_Node000001_Node000002"><a xlink:title=" ">
<path fill="none" stroke="#63b8ff" d="M82.27,-187.45C101.21,-200.96 136.51,-224.04 170.5,-235 230.16,-254.24 301.59,-260.38 352.64,-262.06"/>
<polygon fill="#63b8ff" stroke="#63b8ff" points="352.25,-265.55 362.35,-262.33 352.45,-258.56 352.25,-265.55"/>
</a>
</g>
</g>
<!-- Node4 -->
<g id="Node000004" class="node">
<title>Node4</title>
<g id="a_Node000004"><a xlink:href="class_c_s_v___parser.html#a2645253cdd45f0fe2df1f4883ab64b36" target="_top" xlink:title="Parses lesson&#39;s attendance from a CSV line.">
<polygon fill="white" stroke="#666666" points="305,-226 170.5,-226 170.5,-194 305,-194 305,-226"/>
<text text-anchor="start" x="178.5" y="-212.5" font-family="Helvetica,sans-Serif" font-size="10.00">CSV_Parser::parse_lesson</text>
<text text-anchor="middle" x="237.75" y="-200.5" font-family="Helvetica,sans-Serif" font-size="10.00">_attendance</text>
</a>
</g>
</g>
<!-- Node1&#45;&gt;Node4 -->
<g id="edge3_Node000001_Node000004" class="edge">
<title>Node1&#45;&gt;Node4</title>
<g id="a_edge3_Node000001_Node000004"><a xlink:title=" ">
<path fill="none" stroke="#63b8ff" d="M121.56,-187.44C133.5,-189.78 146.39,-192.3 159.08,-194.79"/>
<polygon fill="#63b8ff" stroke="#63b8ff" points="158.18,-198.18 168.67,-196.67 159.53,-191.31 158.18,-198.18"/>
</a>
</g>
</g>
<!-- Node11 -->
<g id="Node000011" class="node">
<title>Node11</title>
<g id="a_Node000011"><a xlink:href="class_c_s_v___parser.html#acc479fe8705c80c065e4d725a02c852d" target="_top" xlink:title="Parses lesson&#39;s children from a CSV line.">
<polygon fill="white" stroke="#666666" points="305,-168 170.5,-168 170.5,-136 305,-136 305,-168"/>
<text text-anchor="start" x="178.5" y="-154.5" font-family="Helvetica,sans-Serif" font-size="10.00">CSV_Parser::parse_lesson</text>
<text text-anchor="middle" x="237.75" y="-142.5" font-family="Helvetica,sans-Serif" font-size="10.00">_children</text>
</a>
</g>
</g>
<!-- Node1&#45;&gt;Node11 -->
<g id="edge13_Node000001_Node000011" class="edge">
<title>Node1&#45;&gt;Node11</title>
<g id="a_edge13_Node000001_Node000011"><a xlink:title=" ">
<path fill="none" stroke="#63b8ff" d="M134.85,-167.12C142.72,-165.95 150.82,-164.75 158.83,-163.56"/>
<polygon fill="#63b8ff" stroke="#63b8ff" points="159.21,-167.04 168.59,-162.11 158.18,-160.12 159.21,-167.04"/>
</a>
</g>
</g>
<!-- Node14 -->
<g id="Node000014" class="node">
<title>Node14</title>
<g id="a_Node000014"><a xlink:href="class_c_s_v___parser.html#a4732941a7b14e0908b4c94286d957ede" target="_top" xlink:title="Parses lesson&#39;s employees from a CSV line.">
<polygon fill="white" stroke="#666666" points="305,-76 170.5,-76 170.5,-44 305,-44 305,-76"/>
<text text-anchor="start" x="178.5" y="-62.5" font-family="Helvetica,sans-Serif" font-size="10.00">CSV_Parser::parse_lesson</text>
<text text-anchor="middle" x="237.75" y="-50.5" font-family="Helvetica,sans-Serif" font-size="10.00">_employees</text>
</a>
</g>
</g>
<!-- Node1&#45;&gt;Node14 -->
<g id="edge17_Node000001_Node000014" class="edge">
<title>Node1&#45;&gt;Node14</title>
<g id="a_edge17_Node000001_Node000014"><a xlink:title=" ">
<path fill="none" stroke="#63b8ff" d="M83.2,-166.62C110.12,-147.93 167.3,-108.22 203.78,-82.89"/>
<polygon fill="#63b8ff" stroke="#63b8ff" points="205.57,-85.91 211.78,-77.34 201.57,-80.16 205.57,-85.91"/>
</a>
</g>
</g>
<!-- Node3 -->
<g id="Node000003" class="node">
<title>Node3</title>
<g id="a_Node000003"><a xlink:href="class_lesson.html#a25d5ac20ba2894748d604e75a00d756a" target="_top" xlink:title="Gets the schedule of the lesson.">
<polygon fill="white" stroke="#666666" points="656.88,-272 545.62,-272 545.62,-252 656.88,-252 656.88,-272"/>
<text text-anchor="middle" x="601.25" y="-258.5" font-family="Helvetica,sans-Serif" font-size="10.00">Lesson::get_schedule</text>
</a>
</g>
</g>
<!-- Node2&#45;&gt;Node3 -->
<g id="edge2_Node000002_Node000003" class="edge">
<title>Node2&#45;&gt;Node3</title>
<g id="a_edge2_Node000002_Node000003"><a xlink:title=" ">
<path fill="none" stroke="#63b8ff" d="M477.65,-262C495.53,-262 515.48,-262 534.02,-262"/>
<polygon fill="#63b8ff" stroke="#63b8ff" points="533.83,-265.5 543.83,-262 533.83,-258.5 533.83,-265.5"/>
</a>
</g>
</g>
<!-- Node4&#45;&gt;Node2 -->
<g id="edge4_Node000004_Node000002" class="edge">
<title>Node4&#45;&gt;Node2</title>
<g id="a_edge4_Node000004_Node000002"><a xlink:title=" ">
<path fill="none" stroke="#63b8ff" d="M287.15,-226.44C304.1,-231.98 323.32,-238.02 341,-243 348,-244.97 355.39,-246.92 362.72,-248.78"/>
<polygon fill="#63b8ff" stroke="#63b8ff" points="361.72,-252.14 372.27,-251.16 363.41,-245.35 361.72,-252.14"/>
</a>
</g>
</g>
<!-- Node5 -->
<g id="Node000005" class="node">
<title>Node5</title>
<g id="a_Node000005"><a xlink:href="class_database.html#a60ef6f17c1f6e1da26cf7fafd568164f" target="_top" xlink:title="Gets a child by name and surname.">
<polygon fill="white" stroke="#666666" points="472.5,-196 368.75,-196 368.75,-164 472.5,-164 472.5,-196"/>
<text text-anchor="start" x="376.75" y="-182.5" font-family="Helvetica,sans-Serif" font-size="10.00">Database::get_child</text>
<text text-anchor="middle" x="420.62" y="-170.5" font-family="Helvetica,sans-Serif" font-size="10.00">_by_name_surname</text>
</a>
</g>
</g>
<!-- Node4&#45;&gt;Node5 -->
<g id="edge5_Node000004_Node000005" class="edge">
<title>Node4&#45;&gt;Node5</title>
<g id="a_edge5_Node000004_Node000005"><a xlink:title=" ">
<path fill="none" stroke="#63b8ff" d="M305.33,-198.96C322.27,-196.15 340.42,-193.14 357.15,-190.36"/>
<polygon fill="#63b8ff" stroke="#63b8ff" points="357.68,-193.82 366.98,-188.73 356.54,-186.92 357.68,-193.82"/>
</a>
</g>
</g>
<!-- Node10 -->
<g id="Node000010" class="node">
<title>Node10</title>
<g id="a_Node000010"><a xlink:href="class_lesson.html#ac4b68f1c8fbcbc5ec3404207578d399c" target="_top" xlink:title="Sets the attendance of children for a specific date.">
<polygon fill="white" stroke="#666666" points="480.75,-234 360.5,-234 360.5,-214 480.75,-214 480.75,-234"/>
<text text-anchor="middle" x="420.62" y="-220.5" font-family="Helvetica,sans-Serif" font-size="10.00">Lesson::set_attendance</text>
</a>
</g>
</g>
<!-- Node4&#45;&gt;Node10 -->
<g id="edge12_Node000004_Node000010" class="edge">
<title>Node4&#45;&gt;Node10</title>
<g id="a_edge12_Node000004_Node000010"><a xlink:title=" ">
<path fill="none" stroke="#63b8ff" d="M305.33,-215.15C319.48,-216.25 334.46,-217.41 348.77,-218.52"/>
<polygon fill="#63b8ff" stroke="#63b8ff" points="348.31,-221.99 358.55,-219.27 348.85,-215.01 348.31,-221.99"/>
</a>
</g>
</g>
<!-- Node6 -->
<g id="Node000006" class="node">
<title>Node6</title>
<g id="a_Node000006"><a xlink:href="class_database.html#a448f32cb2e58118d83634666431562c2" target="_top" xlink:title="Filters children by name.">
<polygon fill="white" stroke="#666666" points="655.38,-189 547.12,-189 547.12,-157 655.38,-157 655.38,-189"/>
<text text-anchor="start" x="555.12" y="-175.5" font-family="Helvetica,sans-Serif" font-size="10.00">Database::filter_child</text>
<text text-anchor="middle" x="601.25" y="-163.5" font-family="Helvetica,sans-Serif" font-size="10.00">_by_name</text>
</a>
</g>
</g>
<!-- Node5&#45;&gt;Node6 -->
<g id="edge6_Node000005_Node000006" class="edge">
<title>Node5&#45;&gt;Node6</title>
<g id="a_edge6_Node000005_Node000006"><a xlink:title=" ">
<path fill="none" stroke="#63b8ff" d="M472.81,-177.99C492.38,-177.23 514.96,-176.34 535.63,-175.53"/>
<polygon fill="#63b8ff" stroke="#63b8ff" points="535.51,-179.04 545.37,-175.15 535.24,-172.05 535.51,-179.04"/>
</a>
</g>
</g>
<!-- Node9 -->
<g id="Node000009" class="node">
<title>Node9</title>
<g id="a_Node000009"><a xlink:href="class_database.html#a48cdf44f55b29d6141c5e00b88fa4d22" target="_top" xlink:title="Filters children by surname.">
<polygon fill="white" stroke="#666666" points="655.38,-139 547.12,-139 547.12,-107 655.38,-107 655.38,-139"/>
<text text-anchor="start" x="555.12" y="-125.5" font-family="Helvetica,sans-Serif" font-size="10.00">Database::filter_child</text>
<text text-anchor="middle" x="601.25" y="-113.5" font-family="Helvetica,sans-Serif" font-size="10.00">_by_surname</text>
</a>
</g>
</g>
<!-- Node5&#45;&gt;Node9 -->
<g id="edge9_Node000005_Node000009" class="edge">
<title>Node5&#45;&gt;Node9</title>
<g id="a_edge9_Node000005_Node000009"><a xlink:title=" ">
<path fill="none" stroke="#63b8ff" d="M472.8,-163.74C481.95,-160.83 491.38,-157.83 500.25,-155 512.47,-151.1 525.53,-146.93 538.05,-142.92"/>
<polygon fill="#63b8ff" stroke="#63b8ff" points="538.97,-146.3 547.43,-139.92 536.84,-139.64 538.97,-146.3"/>
</a>
</g>
</g>
<!-- Node7 -->
<g id="Node000007" class="node">
<title>Node7</title>
<g id="a_Node000007"><a xlink:href="_helper___functions_8h.html#a0d3fbaad2936b89eb0d594cba2929800" target="_top" xlink:title="Filters a vector of pointers based on a predicate.">
<polygon fill="white" stroke="#666666" points="780.5,-130 745.75,-130 745.75,-110 780.5,-110 780.5,-130"/>
<text text-anchor="middle" x="763.12" y="-116.5" font-family="Helvetica,sans-Serif" font-size="10.00">filter</text>
</a>
</g>
</g>
<!-- Node6&#45;&gt;Node7 -->
<g id="edge7_Node000006_Node000007" class="edge">
<title>Node6&#45;&gt;Node7</title>
<g id="a_edge7_Node000006_Node000007"><a xlink:title=" ">
<path fill="none" stroke="#63b8ff" d="M651.96,-156.52C679.12,-147.52 711.75,-136.7 734.41,-129.19"/>
<polygon fill="#63b8ff" stroke="#63b8ff" points="735.45,-132.53 743.84,-126.06 733.25,-125.89 735.45,-132.53"/>
</a>
</g>
</g>
<!-- Node8 -->
<g id="Node000008" class="node">
<title>Node8</title>
<g id="a_Node000008"><a xlink:href="_helper___functions_8h.html#ab487a2e8523090e129c7f67ed349c9a1" target="_top" xlink:title="Filters a multimap by its keys based on a predicate.">
<polygon fill="white" stroke="#666666" points="824,-89 702.25,-89 702.25,-69 824,-69 824,-89"/>
<text text-anchor="middle" x="763.12" y="-75.5" font-family="Helvetica,sans-Serif" font-size="10.00">filter_multimap_by_keys</text>
</a>
</g>
</g>
<!-- Node6&#45;&gt;Node8 -->
<g id="edge8_Node000006_Node000008" class="edge">
<title>Node6&#45;&gt;Node8</title>
<g id="a_edge8_Node000006_Node000008"><a xlink:title=" ">
<path fill="none" stroke="#63b8ff" d="M652.27,-156.62C657.2,-154.09 661.96,-151.23 666.25,-148 687.28,-132.19 681.06,-116.6 702.25,-101 705.76,-98.41 709.61,-96.1 713.61,-94.05"/>
<polygon fill="#63b8ff" stroke="#63b8ff" points="714.72,-97.39 722.37,-90.06 711.82,-91.01 714.72,-97.39"/>
</a>
</g>
</g>
<!-- Node9&#45;&gt;Node7 -->
<g id="edge10_Node000009_Node000007" class="edge">
<title>Node9&#45;&gt;Node7</title>
<g id="a_edge10_Node000009_Node000007"><a xlink:title=" ">
<path fill="none" stroke="#63b8ff" d="M655.49,-122C681.73,-121.51 712.31,-120.93 733.98,-120.53"/>
<polygon fill="#63b8ff" stroke="#63b8ff" points="733.86,-124.03 743.8,-120.34 733.73,-117.03 733.86,-124.03"/>
</a>
</g>
</g>
<!-- Node9&#45;&gt;Node8 -->
<g id="edge11_Node000009_Node000008" class="edge">
<title>Node9&#45;&gt;Node8</title>
<g id="a_edge11_Node000009_Node000008"><a xlink:title=" ">
<path fill="none" stroke="#63b8ff" d="M655.49,-108.35C674.14,-103.21 694.99,-97.48 713.27,-92.45"/>
<polygon fill="#63b8ff" stroke="#63b8ff" points="714.1,-95.85 722.82,-89.82 712.25,-89.1 714.1,-95.85"/>
</a>
</g>
</g>
<!-- Node11&#45;&gt;Node5 -->
<g id="edge15_Node000011_Node000005" class="edge">
<title>Node11&#45;&gt;Node5</title>
<g id="a_edge15_Node000011_Node000005"><a xlink:title=" ">
<path fill="none" stroke="#63b8ff" d="M305.33,-162.31C322.27,-164.93 340.42,-167.74 357.15,-170.33"/>
<polygon fill="#63b8ff" stroke="#63b8ff" points="356.55,-173.78 366.97,-171.85 357.63,-166.86 356.55,-173.78"/>
</a>
</g>
</g>
<!-- Node12 -->
<g id="Node000012" class="node">
<title>Node12</title>
<g id="a_Node000012"><a xlink:href="class_lesson.html#aaaaf02b40b853b755bb1d5ff28954d0e" target="_top" xlink:title="Adds a child to the lesson.">
<polygon fill="white" stroke="#666666" points="468,-146 373.25,-146 373.25,-126 468,-126 468,-146"/>
<text text-anchor="middle" x="420.62" y="-132.5" font-family="Helvetica,sans-Serif" font-size="10.00">Lesson::add_child</text>
</a>
</g>
</g>
<!-- Node11&#45;&gt;Node12 -->
<g id="edge14_Node000011_Node000012" class="edge">
<title>Node11&#45;&gt;Node12</title>
<g id="a_edge14_Node000011_Node000012"><a xlink:title=" ">
<path fill="none" stroke="#63b8ff" d="M305.33,-146.11C323.76,-144.48 343.61,-142.72 361.51,-141.14"/>
<polygon fill="#63b8ff" stroke="#63b8ff" points="361.8,-144.63 371.45,-140.26 361.18,-137.66 361.8,-144.63"/>
</a>
</g>
</g>
<!-- Node13 -->
<g id="Node000013" class="node">
<title>Node13</title>
<g id="a_Node000013"><a xlink:href="class_lesson.html#a50940a91b16eb52c2c3127b4100b026a" target="_top" xlink:title="Sets the payment date of a child.">
<polygon fill="white" stroke="#666666" points="500.25,-108 341,-108 341,-88 500.25,-88 500.25,-108"/>
<text text-anchor="middle" x="420.62" y="-94.5" font-family="Helvetica,sans-Serif" font-size="10.00">Lesson::set_child_payment_date</text>
</a>
</g>
</g>
<!-- Node11&#45;&gt;Node13 -->
<g id="edge16_Node000011_Node000013" class="edge">
<title>Node11&#45;&gt;Node13</title>
<g id="a_edge16_Node000011_Node000013"><a xlink:title=" ">
<path fill="none" stroke="#63b8ff" d="M283.76,-135.58C301.49,-129.39 322.09,-122.51 341,-117 347.81,-115.02 355,-113.07 362.15,-111.24"/>
<polygon fill="#63b8ff" stroke="#63b8ff" points="362.97,-114.64 371.82,-108.81 361.27,-107.85 362.97,-114.64"/>
</a>
</g>
</g>
<!-- Node15 -->
<g id="Node000015" class="node">
<title>Node15</title>
<g id="a_Node000015"><a xlink:href="class_lesson.html#afc2b347e65cd703a676749de028cf824" target="_top" xlink:title="Adds an employee to the lesson.">
<polygon fill="white" stroke="#666666" points="478.88,-70 362.38,-70 362.38,-50 478.88,-50 478.88,-70"/>
<text text-anchor="middle" x="420.62" y="-56.5" font-family="Helvetica,sans-Serif" font-size="10.00">Lesson::add_employee</text>
</a>
</g>
</g>
<!-- Node14&#45;&gt;Node15 -->
<g id="edge18_Node000014_Node000015" class="edge">
<title>Node14&#45;&gt;Node15</title>
<g id="a_edge18_Node000014_Node000015"><a xlink:title=" ">
<path fill="none" stroke="#63b8ff" d="M305.33,-60C320.18,-60 335.95,-60 350.89,-60"/>
<polygon fill="#63b8ff" stroke="#63b8ff" points="350.6,-63.5 360.6,-60 350.6,-56.5 350.6,-63.5"/>
</a>
</g>
</g>
<!-- Node16 -->
<g id="Node000016" class="node">
<title>Node16</title>
<g id="a_Node000016"><a xlink:href="class_database.html#ad50041d3d5067356b4581bed63a51449" target="_top" xlink:title="Gets an employee by name and surname.">
<polygon fill="white" stroke="#666666" points="483,-32 358.25,-32 358.25,0 483,0 483,-32"/>
<text text-anchor="start" x="366.25" y="-18.5" font-family="Helvetica,sans-Serif" font-size="10.00">Database::get_employee</text>
<text text-anchor="middle" x="420.62" y="-6.5" font-family="Helvetica,sans-Serif" font-size="10.00">_by_name_surname</text>
</a>
</g>
</g>
<!-- Node14&#45;&gt;Node16 -->
<g id="edge19_Node000014_Node000016" class="edge">
<title>Node14&#45;&gt;Node16</title>
<g id="a_edge19_Node000014_Node000016"><a xlink:title=" ">
<path fill="none" stroke="#63b8ff" d="M305.33,-43.8C318.92,-40.5 333.29,-37 347.08,-33.65"/>
<polygon fill="#63b8ff" stroke="#63b8ff" points="347.62,-37.12 356.51,-31.35 345.97,-30.32 347.62,-37.12"/>
</a>
</g>
</g>
<!-- Node17 -->
<g id="Node000017" class="node">
<title>Node17</title>
<g id="a_Node000017"><a xlink:href="class_database.html#ab4078647d304eaebd16c83baf22a2b18" target="_top" xlink:title="Filters employees by name.">
<polygon fill="white" stroke="#666666" points="666.25,-39 536.25,-39 536.25,-7 666.25,-7 666.25,-39"/>
<text text-anchor="start" x="544.25" y="-25.5" font-family="Helvetica,sans-Serif" font-size="10.00">Database::filter_employee</text>
<text text-anchor="middle" x="601.25" y="-13.5" font-family="Helvetica,sans-Serif" font-size="10.00">_by_name</text>
</a>
</g>
</g>
<!-- Node16&#45;&gt;Node17 -->
<g id="edge20_Node000016_Node000017" class="edge">
<title>Node16&#45;&gt;Node17</title>
<g id="a_edge20_Node000016_Node000017"><a xlink:title=" ">
<path fill="none" stroke="#63b8ff" d="M483.35,-18.42C496.58,-18.94 510.71,-19.49 524.41,-20.03"/>
<polygon fill="#63b8ff" stroke="#63b8ff" points="524.15,-23.52 534.28,-20.41 524.42,-16.53 524.15,-23.52"/>
</a>
</g>
</g>
<!-- Node18 -->
<g id="Node000018" class="node">
<title>Node18</title>
<g id="a_Node000018"><a xlink:href="class_database.html#af7863b68cb40f5715660eeccaaf56f52" target="_top" xlink:title="Filters employees by surname.">
<polygon fill="white" stroke="#666666" points="666.25,-89 536.25,-89 536.25,-57 666.25,-57 666.25,-89"/>
<text text-anchor="start" x="544.25" y="-75.5" font-family="Helvetica,sans-Serif" font-size="10.00">Database::filter_employee</text>
<text text-anchor="middle" x="601.25" y="-63.5" font-family="Helvetica,sans-Serif" font-size="10.00">_by_surname</text>
</a>
</g>
</g>
<!-- Node16&#45;&gt;Node18 -->
<g id="edge23_Node000016_Node000018" class="edge">
<title>Node16&#45;&gt;Node18</title>
<g id="a_edge23_Node000016_Node000018"><a xlink:title=" ">
<path fill="none" stroke="#63b8ff" d="M473.23,-32.39C482.24,-35.26 491.52,-38.21 500.25,-41 512.47,-44.9 525.53,-49.07 538.05,-53.08"/>
<polygon fill="#63b8ff" stroke="#63b8ff" points="536.84,-56.36 547.43,-56.08 538.97,-49.7 536.84,-56.36"/>
</a>
</g>
</g>
<!-- Node17&#45;&gt;Node7 -->
<g id="edge21_Node000017_Node000007" class="edge">
<title>Node17&#45;&gt;Node7</title>
<g id="a_edge21_Node000017_Node000007"><a xlink:title=" ">
<path fill="none" stroke="#63b8ff" d="M652.69,-39.42C657.49,-41.93 662.1,-44.78 666.25,-48 687.89,-64.78 680.44,-81.44 702.25,-98 711.64,-105.13 723.58,-110.14 734.32,-113.55"/>
<polygon fill="#63b8ff" stroke="#63b8ff" points="733.3,-116.9 743.87,-116.24 735.2,-110.16 733.3,-116.9"/>
</a>
</g>
</g>
<!-- Node17&#45;&gt;Node8 -->
<g id="edge22_Node000017_Node000008" class="edge">
<title>Node17&#45;&gt;Node8</title>
<g id="a_edge22_Node000017_Node000008"><a xlink:title=" ">
<path fill="none" stroke="#63b8ff" d="M649.35,-39.5C672.36,-47.56 699.76,-57.16 721.79,-64.87"/>
<polygon fill="#63b8ff" stroke="#63b8ff" points="720.43,-68.1 731.02,-68.11 722.74,-61.5 720.43,-68.1"/>
</a>
</g>
</g>
<!-- Node18&#45;&gt;Node7 -->
<g id="edge24_Node000018_Node000007" class="edge">
<title>Node18&#45;&gt;Node7</title>
<g id="a_edge24_Node000018_Node000007"><a xlink:title=" ">
<path fill="none" stroke="#63b8ff" d="M658.17,-89.44C684.03,-97.04 713.59,-105.73 734.56,-111.9"/>
<polygon fill="#63b8ff" stroke="#63b8ff" points="733.5,-115.23 744.09,-114.7 735.48,-108.52 733.5,-115.23"/>
</a>
</g>
</g>
<!-- Node18&#45;&gt;Node8 -->
<g id="edge25_Node000018_Node000008" class="edge">
<title>Node18&#45;&gt;Node8</title>
<g id="a_edge25_Node000018_Node000008"><a xlink:title=" ">
<path fill="none" stroke="#63b8ff" d="M666.36,-75.41C674.33,-75.71 682.52,-76.01 690.59,-76.32"/>
<polygon fill="#63b8ff" stroke="#63b8ff" points="690.26,-79.81 700.38,-76.68 690.52,-72.81 690.26,-79.81"/>
</a>
</g>
</g>
</g>
</svg>

<g id="navigator" transform="translate(0 0)" fill="#404254">
  <rect fill="#f2f5e9" fill-opacity="0.5" stroke="#606060" stroke-width=".5" x="0" y="0" width="60" height="60"/>
  <use id="zoomplus" xlink:href="#zoomPlus" x="17" y="9" onmousedown="handleZoom(evt,'in')"/>
  <use id="zoomminus" xlink:href="#zoomMin" x="42" y="9" onmousedown="handleZoom(evt,'out')"/>
  <use id="reset" xlink:href="#resetDef" x="30" y="36" onmousedown="handleReset()"/>
   <use id="arrowup" xlink:href="#arrowUp" x="0" y="0" onmousedown="handlePan(0,-1)"/>
  <use id="arrowright" xlink:href="#arrowRight" x="0" y="0" onmousedown="handlePan(1,0)"/>
  <use id="arrowdown" xlink:href="#arrowDown" x="0" y="0" onmousedown="handlePan(0,1)"/>
  <use id="arrowleft" xlink:href="#arrowLeft" x="0" y="0" onmousedown="handlePan(-1,0)"/>
</g>
<svg viewBox="0 0 15 15" width="100%" height="30px" preserveAspectRatio="xMaxYMin meet">
 <g id="arrow_out" transform="scale(0.3 0.3)">
  <a xlink:href="class_c_s_v___parser_abf9be7d0476752028afd45de9be64877_cgraph_org.svg" target="_base">
   <rect id="button" ry="5" rx="5" y="6" x="6" height="38" width="38"
        fill="#f2f5e9" fill-opacity="0.5" stroke="#606060" stroke-width="1.0"/>
   <path id="arrow"
     d="M 11.500037,31.436501 C 11.940474,20.09759 22.043105,11.32322 32.158766,21.979434 L 37.068811,17.246167 C 37.068811,17.246167 37.088388,32 37.088388,32 L 22.160133,31.978069 C 22.160133,31.978069 26.997745,27.140456 26.997745,27.140456 C 18.528582,18.264221 13.291696,25.230495 11.500037,31.436501 z"
     style="fill:#404040;"/>
  </a>
 </g>
</svg>

<style type='text/css'>
<![CDATA[
[data-mouse-over-selected='false'] { opacity: 0.7; }
[data-mouse-over-selected='true']  { opacity: 1.0; }
]]>
</style>
<script type="application/ecmascript"><![CDATA[
document.addEventListener('DOMContentLoaded', (event) => {
  highlightEdges();
  highlightAdjacentNodes();
});
]]></script>
</svg>
