<?xml version="1.0" encoding="UTF-8" standalone="no"?>
<!DOCTYPE svg PUBLIC "-//W3C//DTD SVG 1.1//EN"
 "http://www.w3.org/Graphics/SVG/1.1/DTD/svg11.dtd">
<!-- Generated by graphviz version 12.2.1 (20241206.2353)
 -->
<!-- Title: Database::remove_parent Pages: 1 -->
<svg width="318pt" height="256pt"
 viewBox="0.00 0.00 317.50 256.00" xmlns="http://www.w3.org/2000/svg" xmlns:xlink="http://www.w3.org/1999/xlink">

<svg id="main" version="1.1" xmlns="http://www.w3.org/2000/svg" xmlns:xlink="http://www.w3.org/1999/xlink" xml:space="preserve">

<style type="text/css"><![CDATA[
.node, .edge {opacity: 0.7;}
.node.selected, .edge.selected {opacity: 1;}
.edge:hover path { stroke: red; }
.edge:hover polygon { stroke: red; fill: red; }
]]></style>
<script type="application/ecmascript" xlink:href="svg.min.js"/>
<svg id="graph" class="graph">
<g id="graph0" class="graph" transform="scale(1 1) rotate(0) translate(4 252)">
<title>Database::remove_parent</title>
<!-- Node1 -->
<g id="Node000001" class="node">
<title>Node1</title>
<g id="a_Node000001"><a xlink:title="Removes a parent from the database.">
<polygon fill="#999999" stroke="#666666" points="128.5,-134 0,-134 0,-114 128.5,-114 128.5,-134"/>
<text text-anchor="middle" x="64.25" y="-120.5" font-family="Helvetica,sans-Serif" font-size="10.00">Database::remove_parent</text>
</a>
</g>
</g>
<!-- Node2 -->
<g id="Node000002" class="node">
<title>Node2</title>
<g id="a_Node000002"><a xlink:href="class_parent.html#aeb5cc83a781e2088e99b5cd24d1b444c" target="_top" xlink:title="Gets the list of children.">
<polygon fill="white" stroke="#666666" points="288.5,-248 185.5,-248 185.5,-228 288.5,-228 288.5,-248"/>
<text text-anchor="middle" x="237" y="-234.5" font-family="Helvetica,sans-Serif" font-size="10.00">Parent::get_children</text>
</a>
</g>
</g>
<!-- Node1&#45;&gt;Node2 -->
<g id="edge1_Node000001_Node000002" class="edge">
<title>Node1&#45;&gt;Node2</title>
<g id="a_edge1_Node000001_Node000002"><a xlink:title=" ">
<path fill="none" stroke="#63b8ff" d="M73.03,-134.33C88.33,-153.91 124.36,-196.46 164.5,-219 167.69,-220.79 171.06,-222.42 174.52,-223.9"/>
<polygon fill="#63b8ff" stroke="#63b8ff" points="173.12,-227.11 183.71,-227.37 175.59,-220.56 173.12,-227.11"/>
</a>
</g>
</g>
<!-- Node3 -->
<g id="Node000003" class="node">
<title>Node3</title>
<g id="a_Node000003"><a xlink:href="class_email.html#a9402dc77167245cc5943d04850b92414" target="_top" xlink:title="Gets the email address.">
<polygon fill="white" stroke="#666666" points="281.38,-210 192.62,-210 192.62,-190 281.38,-190 281.38,-210"/>
<text text-anchor="middle" x="237" y="-196.5" font-family="Helvetica,sans-Serif" font-size="10.00">Email::get_email</text>
</a>
</g>
</g>
<!-- Node1&#45;&gt;Node3 -->
<g id="edge2_Node000001_Node000003" class="edge">
<title>Node1&#45;&gt;Node3</title>
<g id="a_edge2_Node000001_Node000003"><a xlink:title=" ">
<path fill="none" stroke="#63b8ff" d="M80.42,-134.4C99.35,-146.98 133.08,-168.07 164.5,-181 169.86,-183.2 175.54,-185.22 181.28,-187.05"/>
<polygon fill="#63b8ff" stroke="#63b8ff" points="180.26,-190.4 190.85,-189.9 182.26,-183.69 180.26,-190.4"/>
</a>
</g>
</g>
<!-- Node4 -->
<g id="Node000004" class="node">
<title>Node4</title>
<g id="a_Node000004"><a xlink:href="class_parent.html#aa82a75e6096795dcf5d608169ae4de5d" target="_top" xlink:title="Gets the email address of the parent.">
<polygon fill="white" stroke="#666666" points="283.25,-172 190.75,-172 190.75,-152 283.25,-152 283.25,-172"/>
<text text-anchor="middle" x="237" y="-158.5" font-family="Helvetica,sans-Serif" font-size="10.00">Parent::get_email</text>
</a>
</g>
</g>
<!-- Node1&#45;&gt;Node4 -->
<g id="edge3_Node000001_Node000004" class="edge">
<title>Node1&#45;&gt;Node4</title>
<g id="a_edge3_Node000001_Node000004"><a xlink:title=" ">
<path fill="none" stroke="#63b8ff" d="M112.36,-134.48C133.12,-139.1 157.69,-144.57 179.44,-149.41"/>
<polygon fill="#63b8ff" stroke="#63b8ff" points="178.52,-152.79 189.04,-151.55 180.04,-145.96 178.52,-152.79"/>
</a>
</g>
</g>
<!-- Node5 -->
<g id="Node000005" class="node">
<title>Node5</title>
<g id="a_Node000005"><a xlink:href="class_person.html#a6b1fec00d8d1f5af1a2977dc3f5f9eb8" target="_top" xlink:title="Gets the first name of the person.">
<polygon fill="white" stroke="#666666" points="284.75,-134 189.25,-134 189.25,-114 284.75,-114 284.75,-134"/>
<text text-anchor="middle" x="237" y="-120.5" font-family="Helvetica,sans-Serif" font-size="10.00">Person::get_name</text>
</a>
</g>
</g>
<!-- Node1&#45;&gt;Node5 -->
<g id="edge4_Node000001_Node000005" class="edge">
<title>Node1&#45;&gt;Node5</title>
<g id="a_edge4_Node000001_Node000005"><a xlink:title=" ">
<path fill="none" stroke="#63b8ff" d="M128.83,-124C144.85,-124 161.97,-124 177.72,-124"/>
<polygon fill="#63b8ff" stroke="#63b8ff" points="177.4,-127.5 187.4,-124 177.4,-120.5 177.4,-127.5"/>
</a>
</g>
</g>
<!-- Node6 -->
<g id="Node000006" class="node">
<title>Node6</title>
<g id="a_Node000006"><a xlink:href="class_person.html#a7b3c8db44a49c4ba8c4838e19a235613" target="_top" xlink:title="Gets the last name of the person.">
<polygon fill="white" stroke="#666666" points="291.5,-96 182.5,-96 182.5,-76 291.5,-76 291.5,-96"/>
<text text-anchor="middle" x="237" y="-82.5" font-family="Helvetica,sans-Serif" font-size="10.00">Person::get_surname</text>
</a>
</g>
</g>
<!-- Node1&#45;&gt;Node6 -->
<g id="edge5_Node000001_Node000006" class="edge">
<title>Node1&#45;&gt;Node6</title>
<g id="a_edge5_Node000001_Node000006"><a xlink:title=" ">
<path fill="none" stroke="#63b8ff" d="M112.36,-113.52C132.61,-109.01 156.48,-103.7 177.82,-98.95"/>
<polygon fill="#63b8ff" stroke="#63b8ff" points="178.57,-102.37 187.57,-96.78 177.04,-95.53 178.57,-102.37"/>
</a>
</g>
</g>
<!-- Node7 -->
<g id="Node000007" class="node">
<title>Node7</title>
<g id="a_Node000007"><a xlink:href="_helper___functions_8h.html#a781a4053c4ee41e8a6ed9daad0bbc4e0" target="_top" xlink:title="Removes all occurrences of a specific element from a vector.">
<polygon fill="white" stroke="#666666" points="268.62,-58 205.38,-58 205.38,-38 268.62,-38 268.62,-58"/>
<text text-anchor="middle" x="237" y="-44.5" font-family="Helvetica,sans-Serif" font-size="10.00">remove_all</text>
</a>
</g>
</g>
<!-- Node1&#45;&gt;Node7 -->
<g id="edge6_Node000001_Node000007" class="edge">
<title>Node1&#45;&gt;Node7</title>
<g id="a_edge6_Node000001_Node000007"><a xlink:title=" ">
<path fill="none" stroke="#63b8ff" d="M80.42,-113.6C99.35,-101.02 133.08,-79.93 164.5,-67 173.91,-63.13 184.34,-59.83 194.25,-57.13"/>
<polygon fill="#63b8ff" stroke="#63b8ff" points="194.87,-60.58 203.69,-54.7 193.13,-53.8 194.87,-60.58"/>
</a>
</g>
</g>
<!-- Node8 -->
<g id="Node000008" class="node">
<title>Node8</title>
<g id="a_Node000008"><a xlink:href="class_database.html#a764574ac9e94b5ab7eb8d106b9113bec" target="_top" xlink:title="Removes an entry from a multimap.">
<polygon fill="white" stroke="#666666" points="309.5,-20 164.5,-20 164.5,0 309.5,0 309.5,-20"/>
<text text-anchor="middle" x="237" y="-6.5" font-family="Helvetica,sans-Serif" font-size="10.00">Database::remove_from_map</text>
</a>
</g>
</g>
<!-- Node1&#45;&gt;Node8 -->
<g id="edge7_Node000001_Node000008" class="edge">
<title>Node1&#45;&gt;Node8</title>
<g id="a_edge7_Node000001_Node000008"><a xlink:title=" ">
<path fill="none" stroke="#63b8ff" d="M73.03,-113.67C88.33,-94.09 124.36,-51.54 164.5,-29 167.33,-27.41 170.31,-25.95 173.36,-24.6"/>
<polygon fill="#63b8ff" stroke="#63b8ff" points="174.53,-27.9 182.59,-21.03 172,-21.38 174.53,-27.9"/>
</a>
</g>
</g>
</g>
</svg>
</svg>

<style type='text/css'>
<![CDATA[
[data-mouse-over-selected='false'] { opacity: 0.7; }
[data-mouse-over-selected='true']  { opacity: 1.0; }
]]>
</style>
<script type="application/ecmascript"><![CDATA[
document.addEventListener('DOMContentLoaded', (event) => {
  highlightEdges();
  highlightAdjacentNodes();
});
]]></script>
</svg>
