<?xml version="1.0" encoding="UTF-8" standalone="no"?>
<!DOCTYPE svg PUBLIC "-//W3C//DTD SVG 1.1//EN"
 "http://www.w3.org/Graphics/SVG/1.1/DTD/svg11.dtd">
<!-- Generated by graphviz version 12.2.1 (20241206.2353)
 -->
<!-- Title: CSV_Parser::parse_parent Pages: 1 -->
<svg width="434pt" height="142pt"
 viewBox="0.00 0.00 434.00 142.00" xmlns="http://www.w3.org/2000/svg" xmlns:xlink="http://www.w3.org/1999/xlink">

<svg id="main" version="1.1" xmlns="http://www.w3.org/2000/svg" xmlns:xlink="http://www.w3.org/1999/xlink" xml:space="preserve">

<style type="text/css"><![CDATA[
.node, .edge {opacity: 0.7;}
.node.selected, .edge.selected {opacity: 1;}
.edge:hover path { stroke: red; }
.edge:hover polygon { stroke: red; fill: red; }
]]></style>
<script type="application/ecmascript" xlink:href="svg.min.js"/>
<svg id="graph" class="graph">
<g id="graph0" class="graph" transform="scale(1 1) rotate(0) translate(4 138)">
<title>CSV_Parser::parse_parent</title>
<!-- Node1 -->
<g id="Node000001" class="node">
<title>Node1</title>
<g id="a_Node000001"><a xlink:title="Parses a parent from a CSV line.">
<polygon fill="#999999" stroke="#666666" points="133,-77 0,-77 0,-57 133,-57 133,-77"/>
<text text-anchor="middle" x="66.5" y="-63.5" font-family="Helvetica,sans-Serif" font-size="10.00">CSV_Parser::parse_parent</text>
</a>
</g>
</g>
<!-- Node2 -->
<g id="Node000002" class="node">
<title>Node2</title>
<g id="a_Node000002"><a xlink:href="class_database.html#ab9f567b93fb0e0be48d59cb6b6d3b7b7" target="_top" xlink:title="Adds a parent to the database.">
<polygon fill="white" stroke="#666666" points="281,-77 169,-77 169,-57 281,-57 281,-77"/>
<text text-anchor="middle" x="225" y="-63.5" font-family="Helvetica,sans-Serif" font-size="10.00">Database::add_parent</text>
</a>
</g>
</g>
<!-- Node1&#45;&gt;Node2 -->
<g id="edge1_Node000001_Node000002" class="edge">
<title>Node1&#45;&gt;Node2</title>
<g id="a_edge1_Node000001_Node000002"><a xlink:title=" ">
<path fill="none" stroke="#63b8ff" d="M133.42,-67C141.27,-67 149.3,-67 157.17,-67"/>
<polygon fill="#63b8ff" stroke="#63b8ff" points="157.04,-70.5 167.04,-67 157.04,-63.5 157.04,-70.5"/>
</a>
</g>
</g>
<!-- Node3 -->
<g id="Node000003" class="node">
<title>Node3</title>
<g id="a_Node000003"><a xlink:href="class_email.html#a9402dc77167245cc5943d04850b92414" target="_top" xlink:title="Gets the email address.">
<polygon fill="white" stroke="#666666" points="415.88,-134 327.12,-134 327.12,-114 415.88,-114 415.88,-134"/>
<text text-anchor="middle" x="371.5" y="-120.5" font-family="Helvetica,sans-Serif" font-size="10.00">Email::get_email</text>
</a>
</g>
</g>
<!-- Node2&#45;&gt;Node3 -->
<g id="edge2_Node000002_Node000003" class="edge">
<title>Node2&#45;&gt;Node3</title>
<g id="a_edge2_Node000002_Node000003"><a xlink:title=" ">
<path fill="none" stroke="#63b8ff" d="M249.81,-77.36C268.08,-85.21 294,-96.12 317,-105 321.07,-106.57 325.34,-108.17 329.61,-109.74"/>
<polygon fill="#63b8ff" stroke="#63b8ff" points="328.1,-112.91 338.7,-113.02 330.48,-106.33 328.1,-112.91"/>
</a>
</g>
</g>
<!-- Node4 -->
<g id="Node000004" class="node">
<title>Node4</title>
<g id="a_Node000004"><a xlink:href="class_parent.html#aa82a75e6096795dcf5d608169ae4de5d" target="_top" xlink:title="Gets the email address of the parent.">
<polygon fill="white" stroke="#666666" points="417.75,-96 325.25,-96 325.25,-76 417.75,-76 417.75,-96"/>
<text text-anchor="middle" x="371.5" y="-82.5" font-family="Helvetica,sans-Serif" font-size="10.00">Parent::get_email</text>
</a>
</g>
</g>
<!-- Node2&#45;&gt;Node4 -->
<g id="edge3_Node000002_Node000004" class="edge">
<title>Node2&#45;&gt;Node4</title>
<g id="a_edge3_Node000002_Node000004"><a xlink:title=" ">
<path fill="none" stroke="#63b8ff" d="M281.45,-74.29C291.97,-75.67 303,-77.12 313.56,-78.51"/>
<polygon fill="#63b8ff" stroke="#63b8ff" points="312.93,-81.96 323.3,-79.79 313.85,-75.02 312.93,-81.96"/>
</a>
</g>
</g>
<!-- Node5 -->
<g id="Node000005" class="node">
<title>Node5</title>
<g id="a_Node000005"><a xlink:href="class_person.html#a6b1fec00d8d1f5af1a2977dc3f5f9eb8" target="_top" xlink:title="Gets the first name of the person.">
<polygon fill="white" stroke="#666666" points="419.25,-58 323.75,-58 323.75,-38 419.25,-38 419.25,-58"/>
<text text-anchor="middle" x="371.5" y="-44.5" font-family="Helvetica,sans-Serif" font-size="10.00">Person::get_name</text>
</a>
</g>
</g>
<!-- Node2&#45;&gt;Node5 -->
<g id="edge4_Node000002_Node000005" class="edge">
<title>Node2&#45;&gt;Node5</title>
<g id="a_edge4_Node000002_Node000005"><a xlink:title=" ">
<path fill="none" stroke="#63b8ff" d="M281.45,-59.71C291.52,-58.39 302.04,-57 312.18,-55.67"/>
<polygon fill="#63b8ff" stroke="#63b8ff" points="312.46,-59.16 321.92,-54.39 311.55,-52.22 312.46,-59.16"/>
</a>
</g>
</g>
<!-- Node6 -->
<g id="Node000006" class="node">
<title>Node6</title>
<g id="a_Node000006"><a xlink:href="class_person.html#a7b3c8db44a49c4ba8c4838e19a235613" target="_top" xlink:title="Gets the last name of the person.">
<polygon fill="white" stroke="#666666" points="426,-20 317,-20 317,0 426,0 426,-20"/>
<text text-anchor="middle" x="371.5" y="-6.5" font-family="Helvetica,sans-Serif" font-size="10.00">Person::get_surname</text>
</a>
</g>
</g>
<!-- Node2&#45;&gt;Node6 -->
<g id="edge5_Node000002_Node000006" class="edge">
<title>Node2&#45;&gt;Node6</title>
<g id="a_edge5_Node000002_Node000006"><a xlink:title=" ">
<path fill="none" stroke="#63b8ff" d="M249.81,-56.64C268.08,-48.79 294,-37.88 317,-29 321.07,-27.43 325.34,-25.83 329.61,-24.26"/>
<polygon fill="#63b8ff" stroke="#63b8ff" points="330.48,-27.67 338.7,-20.98 328.1,-21.09 330.48,-27.67"/>
</a>
</g>
</g>
</g>
</svg>
</svg>

<style type='text/css'>
<![CDATA[
[data-mouse-over-selected='false'] { opacity: 0.7; }
[data-mouse-over-selected='true']  { opacity: 1.0; }
]]>
</style>
<script type="application/ecmascript"><![CDATA[
document.addEventListener('DOMContentLoaded', (event) => {
  highlightEdges();
  highlightAdjacentNodes();
});
]]></script>
</svg>
