<?xml version="1.0" encoding="UTF-8" standalone="no"?>
<!DOCTYPE svg PUBLIC "-//W3C//DTD SVG 1.1//EN"
 "http://www.w3.org/Graphics/SVG/1.1/DTD/svg11.dtd">
<!-- Generated by graphviz version 12.2.1 (20241206.2353)
 -->
<!-- Title: Ui::PersonCheckBoxClass Pages: 1 -->
<svg width="134pt" height="180pt"
 viewBox="0.00 0.00 133.75 180.00" xmlns="http://www.w3.org/2000/svg" xmlns:xlink="http://www.w3.org/1999/xlink">

<svg id="main" version="1.1" xmlns="http://www.w3.org/2000/svg" xmlns:xlink="http://www.w3.org/1999/xlink" xml:space="preserve">

<style type="text/css"><![CDATA[
.node, .edge {opacity: 0.7;}
.node.selected, .edge.selected {opacity: 1;}
.edge:hover path { stroke: red; }
.edge:hover polygon { stroke: red; fill: red; }
]]></style>
<script type="application/ecmascript" xlink:href="svg.min.js"/>
<svg id="graph" class="graph">
<g id="graph0" class="graph" transform="scale(1 1) rotate(0) translate(4 176)">
<title>Ui::PersonCheckBoxClass</title>
<!-- Node1 -->
<g id="Node000001" class="node">
<title>Node1</title>
<g id="a_Node000001"><a xlink:title=" ">
<polygon fill="#999999" stroke="none" points="125.75,-52 0,-52 0,0 125.75,0 125.75,-52"/>
<text text-anchor="start" x="4" y="-38.5" font-family="Helvetica,sans-Serif" font-size="10.00">Ui::PersonCheckBoxClass</text>
<text text-anchor="start" x="61.38" y="-22.5" font-family="Helvetica,sans-Serif" font-size="10.00"> </text>
<text text-anchor="start" x="61.38" y="-6.5" font-family="Helvetica,sans-Serif" font-size="10.00"> </text>
<polygon fill="#666666" stroke="#666666" points="0,-34 0,-34 125.75,-34 125.75,-34 0,-34"/>
<polygon fill="#666666" stroke="#666666" points="0,-18 0,-18 125.75,-18 125.75,-18 0,-18"/>
<polygon fill="none" stroke="#666666" points="0,0 0,-52 125.75,-52 125.75,0 0,0"/>
</a>
</g>
</g>
<!-- Node2 -->
<g id="Node000002" class="node">
<title>Node2</title>
<g id="a_Node000002"><a xlink:href="class_ui___person_check_box_class.html" target="_top" xlink:title=" ">
<polygon fill="white" stroke="none" points="125.38,-172 0.38,-172 0.38,-88 125.38,-88 125.38,-172"/>
<text text-anchor="start" x="4.38" y="-158.5" font-family="Helvetica,sans-Serif" font-size="10.00">Ui_PersonCheckBoxClass</text>
<text text-anchor="start" x="11.62" y="-142.5" font-family="Helvetica,sans-Serif" font-size="10.00">+</text>
<text text-anchor="start" x="28.88" y="-142.5" font-family="Helvetica,sans-Serif" font-size="10.00">verticalLayout</text>
<text text-anchor="start" x="11.62" y="-126.5" font-family="Helvetica,sans-Serif" font-size="10.00">+</text>
<text text-anchor="start" x="28.88" y="-126.5" font-family="Helvetica,sans-Serif" font-size="10.00">person_checkBox</text>
<text text-anchor="start" x="11.62" y="-110.5" font-family="Helvetica,sans-Serif" font-size="10.00">+</text>
<text text-anchor="start" x="28.88" y="-110.5" font-family="Helvetica,sans-Serif" font-size="10.00">setupUi()</text>
<text text-anchor="start" x="11.62" y="-94.5" font-family="Helvetica,sans-Serif" font-size="10.00">+</text>
<text text-anchor="start" x="28.88" y="-94.5" font-family="Helvetica,sans-Serif" font-size="10.00">retranslateUi()</text>
<polygon fill="#666666" stroke="#666666" points="0.38,-154 0.38,-154 125.38,-154 125.38,-154 0.38,-154"/>
<polygon fill="#666666" stroke="#666666" points="0.38,-122 0.38,-122 26.88,-122 26.88,-122 0.38,-122"/>
<polygon fill="#666666" stroke="#666666" points="26.88,-122 26.88,-122 125.38,-122 125.38,-122 26.88,-122"/>
<polygon fill="none" stroke="#666666" points="0.38,-88 0.38,-172 125.38,-172 125.38,-88 0.38,-88"/>
</a>
</g>
</g>
<!-- Node2&#45;&gt;Node1 -->
<g id="edge1_Node000001_Node000002" class="edge">
<title>Node2&#45;&gt;Node1</title>
<g id="a_edge1_Node000001_Node000002"><a xlink:title=" ">
<path fill="none" stroke="#63b8ff" d="M62.88,-76.71C62.88,-68.01 62.88,-59.35 62.88,-51.76"/>
<polygon fill="none" stroke="#63b8ff" points="59.38,-76.59 62.88,-86.59 66.38,-76.59 59.38,-76.59"/>
</a>
</g>
</g>
</g>
</svg>
</svg>

<style type='text/css'>
<![CDATA[
[data-mouse-over-selected='false'] { opacity: 0.7; }
[data-mouse-over-selected='true']  { opacity: 1.0; }
]]>
</style>
<script type="application/ecmascript"><![CDATA[
document.addEventListener('DOMContentLoaded', (event) => {
  highlightEdges();
  highlightAdjacentNodes();
});
]]></script>
</svg>
