<?xml version="1.0" encoding="UTF-8" standalone="no"?>
<!DOCTYPE svg PUBLIC "-//W3C//DTD SVG 1.1//EN"
 "http://www.w3.org/Graphics/SVG/1.1/DTD/svg11.dtd">
<!-- Generated by graphviz version 12.2.1 (20241206.2353)
 -->
<!-- Title: TullipApp/clickablelabel.h Pages: 1 -->
<svg width="224pt" height="84pt"
 viewBox="0.00 0.00 223.50 84.00" xmlns="http://www.w3.org/2000/svg" xmlns:xlink="http://www.w3.org/1999/xlink">
<g id="graph0" class="graph" transform="scale(1 1) rotate(0) translate(4 80)">
<title>TullipApp/clickablelabel.h</title>
<!-- Node1 -->
<g id="Node000001" class="node">
<title>Node1</title>
<g id="a_Node000001"><a xlink:title="ClickableLabel class definition.">
<polygon fill="#999999" stroke="#666666" points="155.5,-76 29.25,-76 29.25,-56 155.5,-56 155.5,-76"/>
<text text-anchor="middle" x="92.38" y="-62.5" font-family="Helvetica,sans-Serif" font-size="10.00">TullipApp/clickablelabel.h</text>
</a>
</g>
</g>
<!-- Node2 -->
<g id="Node000002" class="node">
<title>Node2</title>
<g id="a_Node000002"><a xlink:title=" ">
<polygon fill="#e0e0e0" stroke="#999999" points="46.75,-20 0,-20 0,0 46.75,0 46.75,-20"/>
<text text-anchor="middle" x="23.38" y="-6.5" font-family="Helvetica,sans-Serif" font-size="10.00">QLabel</text>
</a>
</g>
</g>
<!-- Node1&#45;&gt;Node2 -->
<g id="edge1_Node000001_Node000002" class="edge">
<title>Node1&#45;&gt;Node2</title>
<g id="a_edge1_Node000001_Node000002"><a xlink:title=" ">
<path fill="none" stroke="#63b8ff" d="M80.36,-55.59C70.36,-47.77 55.91,-36.46 44.07,-27.19"/>
<polygon fill="#63b8ff" stroke="#63b8ff" points="46.48,-24.64 36.45,-21.23 42.17,-30.15 46.48,-24.64"/>
</a>
</g>
</g>
<!-- Node3 -->
<g id="Node000003" class="node">
<title>Node3</title>
<g id="a_Node000003"><a xlink:title=" ">
<polygon fill="#e0e0e0" stroke="#999999" points="119.5,-20 65.25,-20 65.25,0 119.5,0 119.5,-20"/>
<text text-anchor="middle" x="92.38" y="-6.5" font-family="Helvetica,sans-Serif" font-size="10.00">QWidget</text>
</a>
</g>
</g>
<!-- Node1&#45;&gt;Node3 -->
<g id="edge2_Node000001_Node000003" class="edge">
<title>Node1&#45;&gt;Node3</title>
<g id="a_edge2_Node000001_Node000003"><a xlink:title=" ">
<path fill="none" stroke="#63b8ff" d="M92.38,-55.59C92.38,-49.01 92.38,-39.96 92.38,-31.73"/>
<polygon fill="#63b8ff" stroke="#63b8ff" points="95.88,-31.81 92.38,-21.81 88.88,-31.81 95.88,-31.81"/>
</a>
</g>
</g>
<!-- Node4 -->
<g id="Node000004" class="node">
<title>Node4</title>
<g id="a_Node000004"><a xlink:title=" ">
<polygon fill="#e0e0e0" stroke="#999999" points="215.5,-20 137.25,-20 137.25,0 215.5,0 215.5,-20"/>
<text text-anchor="middle" x="176.38" y="-6.5" font-family="Helvetica,sans-Serif" font-size="10.00">QMouseEvent</text>
</a>
</g>
</g>
<!-- Node1&#45;&gt;Node4 -->
<g id="edge3_Node000001_Node000004" class="edge">
<title>Node1&#45;&gt;Node4</title>
<g id="a_edge3_Node000001_Node000004"><a xlink:title=" ">
<path fill="none" stroke="#63b8ff" d="M107.01,-55.59C119.46,-47.59 137.59,-35.93 152.2,-26.54"/>
<polygon fill="#63b8ff" stroke="#63b8ff" points="153.84,-29.65 160.36,-21.3 150.05,-23.76 153.84,-29.65"/>
</a>
</g>
</g>
</g>
</svg>
