<?xml version="1.0" encoding="UTF-8" standalone="no"?>
<!DOCTYPE svg PUBLIC "-//W3C//DTD SVG 1.1//EN"
 "http://www.w3.org/Graphics/SVG/1.1/DTD/svg11.dtd">
<!-- Generated by graphviz version 12.2.1 (20241206.2353)
 -->
<!-- Title: TullipApp/clickablelabel.h Pages: 1 -->
<!--zoomable 368 -->

<svg id="main" version="1.1" xmlns="http://www.w3.org/2000/svg" xmlns:xlink="http://www.w3.org/1999/xlink" xml:space="preserve" onload="init(evt)">

<style type="text/css"><![CDATA[
.node, .edge {opacity: 0.7;}
.node.selected, .edge.selected {opacity: 1;}
.edge:hover path { stroke: red; }
.edge:hover polygon { stroke: red; fill: red; }
]]></style>

<defs>
  <circle id="rim" cx="0" cy="0" r="7"/>
  <circle id="rim2" cx="0" cy="0" r="3.5"/>
  <g id="zoomPlus">
    <use xlink:href="#rim" fill="#404040"><set attributeName="fill" to="#808080" begin="zoomplus.mouseover" end="zoomplus.mouseout"/></use>
    <path d="M-4,0h8M0,-4v8" fill="none" stroke="white" stroke-width="1.5" pointer-events="none"/>
  </g>
  <g id="zoomMin">
    <use xlink:href="#rim" fill="#404040"><set attributeName="fill" to="#808080" begin="zoomminus.mouseover" end="zoomminus.mouseout"/></use>
    <path d="M-4,0h8" fill="none" stroke="white" stroke-width="1.5" pointer-events="none"/>
  </g>
  <g id="arrowUp" transform="translate(30 24)">
    <use xlink:href="#rim"/>
    <path pointer-events="none" fill="none" stroke="white" stroke-width="1.5" d="M0,-3.0v7 M-2.5,-0.5L0,-3.0L2.5,-0.5"/>
  </g>
  <g id="arrowRight" transform="rotate(90) translate(36 -43)">
    <use xlink:href="#rim"/>
    <path pointer-events="none" fill="none" stroke="white" stroke-width="1.5" d="M0,-3.0v7 M-2.5,-0.5L0,-3.0L2.5,-0.5"/>
  </g>
  <g id="arrowDown" transform="rotate(180) translate(-30 -48)">
    <use xlink:href="#rim"/>
    <path pointer-events="none" fill="none" stroke="white" stroke-width="1.5" d="M0,-3.0v7 M-2.5,-0.5L0,-3.0L2.5,-0.5"/>
  </g>
  <g id="arrowLeft" transform="rotate(270) translate(-36 17)">
    <use xlink:href="#rim"/>
    <path pointer-events="none" fill="none" stroke="white" stroke-width="1.5" d="M0,-3.0v7 M-2.5,-0.5L0,-3.0L2.5,-0.5"/>
  </g>
  <g id="resetDef">
    <use xlink:href="#rim2" fill="#404040"><set attributeName="fill" to="#808080" begin="reset.mouseover" end="reset.mouseout"/></use>
  </g>
</defs>
<script type="application/ecmascript">
var viewWidth = 1590;
var viewHeight = 368;
var sectionId = 'dynsection-1';
</script>
<script type="application/ecmascript" xlink:href="svg.min.js"/>
<svg id="graph" class="graph">
<g id="viewport">
<title>TullipApp/clickablelabel.h</title>
<!-- Node1 -->
<g id="Node000001" class="node">
<title>Node1</title>
<g id="a_Node000001"><a xlink:title="ClickableLabel class definition.">
<polygon fill="#999999" stroke="#666666" points="531,-360 404.75,-360 404.75,-340 531,-340 531,-360"/>
<text text-anchor="middle" x="467.88" y="-346.5" font-family="Helvetica,sans-Serif" font-size="10.00">TullipApp/clickablelabel.h</text>
</a>
</g>
</g>
<!-- Node2 -->
<g id="Node000002" class="node">
<title>Node2</title>
<g id="a_Node000002"><a xlink:href="_parent_entry_8h.html" target="_top" xlink:title="Defines the ParentEntry class for managing the graphical representation of a parent in the GUI.">
<polygon fill="white" stroke="#666666" points="210.25,-162 91.5,-162 91.5,-142 210.25,-142 210.25,-162"/>
<text text-anchor="middle" x="150.88" y="-148.5" font-family="Helvetica,sans-Serif" font-size="10.00">TullipApp/ParentEntry.h</text>
</a>
</g>
</g>
<!-- Node1&#45;&gt;Node2 -->
<g id="edge1_Node000001_Node000002" class="edge">
<title>Node1&#45;&gt;Node2</title>
<g id="a_edge1_Node000001_Node000002"><a xlink:title=" ">
<path fill="none" stroke="#63b8ff" d="M444.12,-333.34C431.64,-324.92 416.21,-314.2 402.88,-304 385.33,-290.59 383.05,-284.53 364.88,-272 297.16,-225.3 209.55,-181.21 170.8,-162.47"/>
<polygon fill="#63b8ff" stroke="#63b8ff" points="441.88,-336.06 452.14,-338.71 445.77,-330.24 441.88,-336.06"/>
</a>
</g>
</g>
<!-- Node9 -->
<g id="Node000009" class="node">
<title>Node9</title>
<g id="a_Node000009"><a xlink:href="moc__clickablelabel_8cpp.html" target="_top" xlink:title=" ">
<polygon fill="white" stroke="#666666" points="355.5,-304 202.25,-304 202.25,-272 355.5,-272 355.5,-304"/>
<text text-anchor="start" x="210.25" y="-290.5" font-family="Helvetica,sans-Serif" font-size="10.00">TullipApp/x64/Debug</text>
<text text-anchor="middle" x="278.88" y="-278.5" font-family="Helvetica,sans-Serif" font-size="10.00">/qt/moc/moc_clickablelabel.cpp</text>
</a>
</g>
</g>
<!-- Node1&#45;&gt;Node9 -->
<g id="edge8_Node000001_Node000009" class="edge">
<title>Node1&#45;&gt;Node9</title>
<g id="a_edge8_Node000001_Node000009"><a xlink:title=" ">
<path fill="none" stroke="#63b8ff" d="M427.69,-336.24C398.46,-326.96 358.73,-314.35 327.67,-304.49"/>
<polygon fill="#63b8ff" stroke="#63b8ff" points="426.31,-339.48 436.9,-339.17 428.43,-332.81 426.31,-339.48"/>
</a>
</g>
</g>
<!-- Node10 -->
<g id="Node000010" class="node">
<title>Node10</title>
<g id="a_Node000010"><a xlink:href="ui___child_entry_8h.html" target="_top" xlink:title=" ">
<polygon fill="white" stroke="#666666" points="523.88,-304 411.88,-304 411.88,-272 523.88,-272 523.88,-304"/>
<text text-anchor="start" x="419.88" y="-290.5" font-family="Helvetica,sans-Serif" font-size="10.00">TullipApp/x64/Debug</text>
<text text-anchor="middle" x="467.88" y="-278.5" font-family="Helvetica,sans-Serif" font-size="10.00">/qt/uic/ui_ChildEntry.h</text>
</a>
</g>
</g>
<!-- Node1&#45;&gt;Node10 -->
<g id="edge9_Node000001_Node000010" class="edge">
<title>Node1&#45;&gt;Node10</title>
<g id="a_edge9_Node000001_Node000010"><a xlink:title=" ">
<path fill="none" stroke="#63b8ff" d="M467.88,-328.31C467.88,-320.37 467.88,-311.46 467.88,-304.14"/>
<polygon fill="#63b8ff" stroke="#63b8ff" points="464.38,-328.11 467.88,-338.11 471.38,-328.11 464.38,-328.11"/>
</a>
</g>
</g>
<!-- Node14 -->
<g id="Node000014" class="node">
<title>Node14</title>
<g id="a_Node000014"><a xlink:href="ui___child_label_8h.html" target="_top" xlink:title=" ">
<polygon fill="white" stroke="#666666" points="656.25,-304 543.5,-304 543.5,-272 656.25,-272 656.25,-304"/>
<text text-anchor="start" x="551.5" y="-290.5" font-family="Helvetica,sans-Serif" font-size="10.00">TullipApp/x64/Debug</text>
<text text-anchor="middle" x="599.88" y="-278.5" font-family="Helvetica,sans-Serif" font-size="10.00">/qt/uic/ui_ChildLabel.h</text>
</a>
</g>
</g>
<!-- Node1&#45;&gt;Node14 -->
<g id="edge14_Node000001_Node000014" class="edge">
<title>Node1&#45;&gt;Node14</title>
<g id="a_edge14_Node000001_Node000014"><a xlink:title=" ">
<path fill="none" stroke="#63b8ff" d="M498.96,-334.87C519.03,-325.75 545.16,-313.87 565.8,-304.49"/>
<polygon fill="#63b8ff" stroke="#63b8ff" points="497.53,-331.67 489.88,-339 500.43,-338.05 497.53,-331.67"/>
</a>
</g>
</g>
<!-- Node18 -->
<g id="Node000018" class="node">
<title>Node18</title>
<g id="a_Node000018"><a xlink:href="ui___employee_entry_8h.html" target="_top" xlink:title=" ">
<polygon fill="white" stroke="#666666" points="900.38,-304 767.38,-304 767.38,-272 900.38,-272 900.38,-304"/>
<text text-anchor="start" x="775.38" y="-290.5" font-family="Helvetica,sans-Serif" font-size="10.00">TullipApp/x64/Debug</text>
<text text-anchor="middle" x="833.88" y="-278.5" font-family="Helvetica,sans-Serif" font-size="10.00">/qt/uic/ui_EmployeeEntry.h</text>
</a>
</g>
</g>
<!-- Node1&#45;&gt;Node18 -->
<g id="edge19_Node000001_Node000018" class="edge">
<title>Node1&#45;&gt;Node18</title>
<g id="a_edge19_Node000001_Node000018"><a xlink:title=" ">
<path fill="none" stroke="#63b8ff" d="M536.57,-337.74C602.57,-326.92 701.63,-310.68 767.01,-299.96"/>
<polygon fill="#63b8ff" stroke="#63b8ff" points="536.26,-334.24 526.96,-339.31 537.39,-341.15 536.26,-334.24"/>
</a>
</g>
</g>
<!-- Node22 -->
<g id="Node000022" class="node">
<title>Node22</title>
<g id="a_Node000022"><a xlink:href="ui___lesson_entry_8h.html" target="_top" xlink:title=" ">
<polygon fill="white" stroke="#666666" points="1201.38,-304 1080.38,-304 1080.38,-272 1201.38,-272 1201.38,-304"/>
<text text-anchor="start" x="1088.38" y="-290.5" font-family="Helvetica,sans-Serif" font-size="10.00">TullipApp/x64/Debug</text>
<text text-anchor="middle" x="1140.88" y="-278.5" font-family="Helvetica,sans-Serif" font-size="10.00">/qt/uic/ui_LessonEntry.h</text>
</a>
</g>
</g>
<!-- Node1&#45;&gt;Node22 -->
<g id="edge24_Node000001_Node000022" class="edge">
<title>Node1&#45;&gt;Node22</title>
<g id="a_edge24_Node000001_Node000022"><a xlink:title=" ">
<path fill="none" stroke="#63b8ff" d="M542.87,-342.31C677.35,-330.32 956.94,-305.4 1080.23,-294.41"/>
<polygon fill="#63b8ff" stroke="#63b8ff" points="542.65,-338.82 533,-343.19 543.27,-345.79 542.65,-338.82"/>
</a>
</g>
</g>
<!-- Node26 -->
<g id="Node000026" class="node">
<title>Node26</title>
<g id="a_Node000026"><a xlink:href="ui___parent_entry_8h.html" target="_top" xlink:title=" ">
<polygon fill="white" stroke="#666666" points="215.88,-236 97.88,-236 97.88,-204 215.88,-204 215.88,-236"/>
<text text-anchor="start" x="105.88" y="-222.5" font-family="Helvetica,sans-Serif" font-size="10.00">TullipApp/x64/Debug</text>
<text text-anchor="middle" x="156.88" y="-210.5" font-family="Helvetica,sans-Serif" font-size="10.00">/qt/uic/ui_ParentEntry.h</text>
</a>
</g>
</g>
<!-- Node1&#45;&gt;Node26 -->
<g id="edge29_Node000001_Node000026" class="edge">
<title>Node1&#45;&gt;Node26</title>
<g id="a_edge29_Node000001_Node000026"><a xlink:title=" ">
<path fill="none" stroke="#63b8ff" d="M393.35,-344.77C322.83,-339.38 223.35,-327.74 192.88,-304 171.44,-287.3 162.54,-255.27 159.01,-236.25"/>
<polygon fill="#63b8ff" stroke="#63b8ff" points="392.67,-348.23 402.9,-345.47 393.18,-341.24 392.67,-348.23"/>
</a>
</g>
</g>
<!-- Node3 -->
<g id="Node000003" class="node">
<title>Node3</title>
<g id="a_Node000003"><a xlink:href="_data_base_g_u_i_8h.html" target="_top" xlink:title="Defines the DataBaseGUI class for managing the graphical user interface of the database.">
<polygon fill="white" stroke="#666666" points="771.5,-94 642.25,-94 642.25,-74 771.5,-74 771.5,-94"/>
<text text-anchor="middle" x="706.88" y="-80.5" font-family="Helvetica,sans-Serif" font-size="10.00">TullipApp/DataBaseGUI.h</text>
</a>
</g>
</g>
<!-- Node2&#45;&gt;Node3 -->
<g id="edge2_Node000002_Node000003" class="edge">
<title>Node2&#45;&gt;Node3</title>
<g id="a_edge2_Node000002_Node000003"><a xlink:title=" ">
<path fill="none" stroke="#63b8ff" d="M201.43,-139.19C207.29,-138.01 213.2,-136.92 218.88,-136 369.39,-111.61 548.01,-96.4 641.84,-89.45"/>
<polygon fill="#63b8ff" stroke="#63b8ff" points="200.84,-135.74 191.76,-141.21 202.27,-142.59 200.84,-135.74"/>
</a>
</g>
</g>
<!-- Node7 -->
<g id="Node000007" class="node">
<title>Node7</title>
<g id="a_Node000007"><a xlink:href="_parent_entry_8cpp.html" target="_top" xlink:title=" ">
<polygon fill="white" stroke="#666666" points="293.5,-94 164.25,-94 164.25,-74 293.5,-74 293.5,-94"/>
<text text-anchor="middle" x="228.88" y="-80.5" font-family="Helvetica,sans-Serif" font-size="10.00">TullipApp/ParentEntry.cpp</text>
</a>
</g>
</g>
<!-- Node2&#45;&gt;Node7 -->
<g id="edge6_Node000002_Node000007" class="edge">
<title>Node2&#45;&gt;Node7</title>
<g id="a_edge6_Node000002_Node000007"><a xlink:title=" ">
<path fill="none" stroke="#63b8ff" d="M170.57,-134.33C185.49,-121.71 205.45,-104.82 217.72,-94.44"/>
<polygon fill="#63b8ff" stroke="#63b8ff" points="168.58,-131.43 163.21,-140.57 173.1,-136.78 168.58,-131.43"/>
</a>
</g>
</g>
<!-- Node8 -->
<g id="Node000008" class="node">
<title>Node8</title>
<g id="a_Node000008"><a xlink:href="moc___parent_entry_8cpp.html" target="_top" xlink:title=" ">
<polygon fill="white" stroke="#666666" points="145.75,-100 0,-100 0,-68 145.75,-68 145.75,-100"/>
<text text-anchor="start" x="8" y="-86.5" font-family="Helvetica,sans-Serif" font-size="10.00">TullipApp/x64/Debug</text>
<text text-anchor="middle" x="72.88" y="-74.5" font-family="Helvetica,sans-Serif" font-size="10.00">/qt/moc/moc_ParentEntry.cpp</text>
</a>
</g>
</g>
<!-- Node2&#45;&gt;Node8 -->
<g id="edge7_Node000002_Node000008" class="edge">
<title>Node2&#45;&gt;Node8</title>
<g id="a_edge7_Node000002_Node000008"><a xlink:title=" ">
<path fill="none" stroke="#63b8ff" d="M131.05,-134.22C118.71,-123.78 102.96,-110.45 90.96,-100.3"/>
<polygon fill="#63b8ff" stroke="#63b8ff" points="128.65,-136.78 138.54,-140.57 133.17,-131.43 128.65,-136.78"/>
</a>
</g>
</g>
<!-- Node4 -->
<g id="Node000004" class="node">
<title>Node4</title>
<g id="a_Node000004"><a xlink:href="_data_base_g_u_i_8cpp.html" target="_top" xlink:title=" ">
<polygon fill="white" stroke="#666666" points="638.75,-26 499,-26 499,-6 638.75,-6 638.75,-26"/>
<text text-anchor="middle" x="568.88" y="-12.5" font-family="Helvetica,sans-Serif" font-size="10.00">TullipApp/DataBaseGUI.cpp</text>
</a>
</g>
</g>
<!-- Node3&#45;&gt;Node4 -->
<g id="edge3_Node000003_Node000004" class="edge">
<title>Node3&#45;&gt;Node4</title>
<g id="a_edge3_Node000003_Node000004"><a xlink:title=" ">
<path fill="none" stroke="#63b8ff" d="M676.77,-68.6C650.01,-55.8 611.65,-37.46 588.61,-26.44"/>
<polygon fill="#63b8ff" stroke="#63b8ff" points="675.21,-71.73 685.74,-72.89 678.23,-65.42 675.21,-71.73"/>
</a>
</g>
</g>
<!-- Node5 -->
<g id="Node000005" class="node">
<title>Node5</title>
<g id="a_Node000005"><a xlink:href="_main_8cpp.html" target="_top" xlink:title=" ">
<polygon fill="white" stroke="#666666" points="756.5,-26 657.25,-26 657.25,-6 756.5,-6 756.5,-26"/>
<text text-anchor="middle" x="706.88" y="-12.5" font-family="Helvetica,sans-Serif" font-size="10.00">TullipApp/Main.cpp</text>
</a>
</g>
</g>
<!-- Node3&#45;&gt;Node5 -->
<g id="edge4_Node000003_Node000005" class="edge">
<title>Node3&#45;&gt;Node5</title>
<g id="a_edge4_Node000003_Node000005"><a xlink:title=" ">
<path fill="none" stroke="#63b8ff" d="M706.88,-62.28C706.88,-50.27 706.88,-35.74 706.88,-26.44"/>
<polygon fill="#63b8ff" stroke="#63b8ff" points="703.38,-62.03 706.88,-72.03 710.38,-62.03 703.38,-62.03"/>
</a>
</g>
</g>
<!-- Node6 -->
<g id="Node000006" class="node">
<title>Node6</title>
<g id="a_Node000006"><a xlink:href="moc___data_base_g_u_i_8cpp.html" target="_top" xlink:title=" ">
<polygon fill="white" stroke="#666666" points="931,-32 774.75,-32 774.75,0 931,0 931,-32"/>
<text text-anchor="start" x="782.75" y="-18.5" font-family="Helvetica,sans-Serif" font-size="10.00">TullipApp/x64/Debug</text>
<text text-anchor="middle" x="852.88" y="-6.5" font-family="Helvetica,sans-Serif" font-size="10.00">/qt/moc/moc_DataBaseGUI.cpp</text>
</a>
</g>
</g>
<!-- Node3&#45;&gt;Node6 -->
<g id="edge5_Node000003_Node000006" class="edge">
<title>Node3&#45;&gt;Node6</title>
<g id="a_edge5_Node000003_Node000006"><a xlink:title=" ">
<path fill="none" stroke="#63b8ff" d="M738,-68.93C761.71,-58.21 794.33,-43.47 818.75,-32.43"/>
<polygon fill="#63b8ff" stroke="#63b8ff" points="736.84,-65.61 729.17,-72.92 739.73,-71.99 736.84,-65.61"/>
</a>
</g>
</g>
<!-- Node11 -->
<g id="Node000011" class="node">
<title>Node11</title>
<g id="a_Node000011"><a xlink:href="_child_entry_8h.html" target="_top" xlink:title="Defines the ChildEntry class for managing the graphical representation of a child in the GUI.">
<polygon fill="white" stroke="#666666" points="524.25,-230 411.5,-230 411.5,-210 524.25,-210 524.25,-230"/>
<text text-anchor="middle" x="467.88" y="-216.5" font-family="Helvetica,sans-Serif" font-size="10.00">TullipApp/ChildEntry.h</text>
</a>
</g>
</g>
<!-- Node10&#45;&gt;Node11 -->
<g id="edge10_Node000010_Node000011" class="edge">
<title>Node10&#45;&gt;Node11</title>
<g id="a_edge10_Node000010_Node000011"><a xlink:title=" ">
<path fill="none" stroke="#63b8ff" d="M467.88,-260.31C467.88,-249.67 467.88,-238.13 467.88,-230.32"/>
<polygon fill="#63b8ff" stroke="#63b8ff" points="464.38,-260.18 467.88,-270.18 471.38,-260.18 464.38,-260.18"/>
</a>
</g>
</g>
<!-- Node11&#45;&gt;Node3 -->
<g id="edge12_Node000011_Node000003" class="edge">
<title>Node11&#45;&gt;Node3</title>
<g id="a_edge12_Node000011_Node000003"><a xlink:title=" ">
<path fill="none" stroke="#63b8ff" d="M484.88,-201.5C506,-180.05 541.18,-145.39 556.88,-136 590.27,-116.02 632.58,-102.54 663.74,-94.49"/>
<polygon fill="#63b8ff" stroke="#63b8ff" points="482.59,-198.83 478.09,-208.43 487.59,-203.73 482.59,-198.83"/>
</a>
</g>
</g>
<!-- Node12 -->
<g id="Node000012" class="node">
<title>Node12</title>
<g id="a_Node000012"><a xlink:href="_child_entry_8cpp.html" target="_top" xlink:title=" ">
<polygon fill="white" stroke="#666666" points="351.5,-162 228.25,-162 228.25,-142 351.5,-142 351.5,-162"/>
<text text-anchor="middle" x="289.88" y="-148.5" font-family="Helvetica,sans-Serif" font-size="10.00">TullipApp/ChildEntry.cpp</text>
</a>
</g>
</g>
<!-- Node11&#45;&gt;Node12 -->
<g id="edge11_Node000011_Node000012" class="edge">
<title>Node11&#45;&gt;Node12</title>
<g id="a_edge11_Node000011_Node000012"><a xlink:title=" ">
<path fill="none" stroke="#63b8ff" d="M431.78,-205.61C397.18,-192.79 345.84,-173.75 315.33,-162.44"/>
<polygon fill="#63b8ff" stroke="#63b8ff" points="430.36,-208.82 440.95,-209.02 432.79,-202.26 430.36,-208.82"/>
</a>
</g>
</g>
<!-- Node13 -->
<g id="Node000013" class="node">
<title>Node13</title>
<g id="a_Node000013"><a xlink:href="moc___child_entry_8cpp.html" target="_top" xlink:title=" ">
<polygon fill="white" stroke="#666666" points="509.75,-168 370,-168 370,-136 509.75,-136 509.75,-168"/>
<text text-anchor="start" x="378" y="-154.5" font-family="Helvetica,sans-Serif" font-size="10.00">TullipApp/x64/Debug</text>
<text text-anchor="middle" x="439.88" y="-142.5" font-family="Helvetica,sans-Serif" font-size="10.00">/qt/moc/moc_ChildEntry.cpp</text>
</a>
</g>
</g>
<!-- Node11&#45;&gt;Node13 -->
<g id="edge13_Node000011_Node000013" class="edge">
<title>Node11&#45;&gt;Node13</title>
<g id="a_edge13_Node000011_Node000013"><a xlink:title=" ">
<path fill="none" stroke="#63b8ff" d="M459.42,-199.07C455.23,-189.2 450.25,-177.46 446.37,-168.3"/>
<polygon fill="#63b8ff" stroke="#63b8ff" points="456.14,-200.31 463.27,-208.15 462.59,-197.58 456.14,-200.31"/>
</a>
</g>
</g>
<!-- Node15 -->
<g id="Node000015" class="node">
<title>Node15</title>
<g id="a_Node000015"><a xlink:href="_child_label_8h.html" target="_top" xlink:title="Defines the ChildLabel class for displaying child name.">
<polygon fill="white" stroke="#666666" points="658.62,-230 545.12,-230 545.12,-210 658.62,-210 658.62,-230"/>
<text text-anchor="middle" x="601.88" y="-216.5" font-family="Helvetica,sans-Serif" font-size="10.00">TullipApp/ChildLabel.h</text>
</a>
</g>
</g>
<!-- Node14&#45;&gt;Node15 -->
<g id="edge15_Node000014_Node000015" class="edge">
<title>Node14&#45;&gt;Node15</title>
<g id="a_edge15_Node000014_Node000015"><a xlink:title=" ">
<path fill="none" stroke="#63b8ff" d="M600.68,-260.31C601.01,-249.67 601.36,-238.13 601.59,-230.32"/>
<polygon fill="#63b8ff" stroke="#63b8ff" points="597.19,-260.08 600.38,-270.18 604.19,-260.29 597.19,-260.08"/>
</a>
</g>
</g>
<!-- Node15&#45;&gt;Node2 -->
<g id="edge17_Node000015_Node000002" class="edge">
<title>Node15&#45;&gt;Node2</title>
<g id="a_edge17_Node000015_Node000002"><a xlink:title=" ">
<path fill="none" stroke="#63b8ff" d="M550.34,-207.21C544.46,-206.04 538.55,-204.94 532.88,-204 394.29,-181.05 357.42,-191.16 218.88,-168 209.69,-166.47 199.88,-164.5 190.65,-162.49"/>
<polygon fill="#63b8ff" stroke="#63b8ff" points="549.52,-210.61 560.02,-209.21 550.94,-203.76 549.52,-210.61"/>
</a>
</g>
</g>
<!-- Node16 -->
<g id="Node000016" class="node">
<title>Node16</title>
<g id="a_Node000016"><a xlink:href="_child_label_8cpp.html" target="_top" xlink:title=" ">
<polygon fill="white" stroke="#666666" points="689.88,-162 565.88,-162 565.88,-142 689.88,-142 689.88,-162"/>
<text text-anchor="middle" x="627.88" y="-148.5" font-family="Helvetica,sans-Serif" font-size="10.00">TullipApp/ChildLabel.cpp</text>
</a>
</g>
</g>
<!-- Node15&#45;&gt;Node16 -->
<g id="edge16_Node000015_Node000016" class="edge">
<title>Node15&#45;&gt;Node16</title>
<g id="a_edge16_Node000015_Node000016"><a xlink:title=" ">
<path fill="none" stroke="#63b8ff" d="M609.74,-199.03C614.53,-186.89 620.41,-171.94 624.16,-162.44"/>
<polygon fill="#63b8ff" stroke="#63b8ff" points="606.56,-197.55 606.15,-208.14 613.08,-200.11 606.56,-197.55"/>
</a>
</g>
</g>
<!-- Node17 -->
<g id="Node000017" class="node">
<title>Node17</title>
<g id="a_Node000017"><a xlink:href="moc___child_label_8cpp.html" target="_top" xlink:title=" ">
<polygon fill="white" stroke="#666666" points="848.12,-168 707.62,-168 707.62,-136 848.12,-136 848.12,-168"/>
<text text-anchor="start" x="715.62" y="-154.5" font-family="Helvetica,sans-Serif" font-size="10.00">TullipApp/x64/Debug</text>
<text text-anchor="middle" x="777.88" y="-142.5" font-family="Helvetica,sans-Serif" font-size="10.00">/qt/moc/moc_ChildLabel.cpp</text>
</a>
</g>
</g>
<!-- Node15&#45;&gt;Node17 -->
<g id="edge18_Node000015_Node000017" class="edge">
<title>Node15&#45;&gt;Node17</title>
<g id="a_edge18_Node000015_Node000017"><a xlink:title=" ">
<path fill="none" stroke="#63b8ff" d="M637.86,-205.51C666.56,-194.74 706.76,-179.67 736.73,-168.43"/>
<polygon fill="#63b8ff" stroke="#63b8ff" points="636.64,-202.22 628.51,-209.01 639.1,-208.78 636.64,-202.22"/>
</a>
</g>
</g>
<!-- Node19 -->
<g id="Node000019" class="node">
<title>Node19</title>
<g id="a_Node000019"><a xlink:href="_employee_entry_8h.html" target="_top" xlink:title="Defines the EmployeeEntry class for managing the graphical representation of a employee in the GUI.">
<polygon fill="white" stroke="#666666" points="992.75,-230 859,-230 859,-210 992.75,-210 992.75,-230"/>
<text text-anchor="middle" x="925.88" y="-216.5" font-family="Helvetica,sans-Serif" font-size="10.00">TullipApp/EmployeeEntry.h</text>
</a>
</g>
</g>
<!-- Node18&#45;&gt;Node19 -->
<g id="edge20_Node000018_Node000019" class="edge">
<title>Node18&#45;&gt;Node19</title>
<g id="a_edge20_Node000018_Node000019"><a xlink:title=" ">
<path fill="none" stroke="#63b8ff" d="M864.48,-265.04C880.94,-253.24 900.36,-239.3 912.89,-230.32"/>
<polygon fill="#63b8ff" stroke="#63b8ff" points="862.53,-262.14 856.44,-270.81 866.61,-267.82 862.53,-262.14"/>
</a>
</g>
</g>
<!-- Node19&#45;&gt;Node3 -->
<g id="edge21_Node000019_Node000003" class="edge">
<title>Node19&#45;&gt;Node3</title>
<g id="a_edge21_Node000019_Node000003"><a xlink:title=" ">
<path fill="none" stroke="#63b8ff" d="M914.56,-200.05C902.46,-181.31 881.64,-153.03 856.88,-136 826.51,-115.11 786.83,-102.12 755.91,-94.48"/>
<polygon fill="#63b8ff" stroke="#63b8ff" points="911.44,-201.66 919.69,-208.3 917.38,-197.96 911.44,-201.66"/>
</a>
</g>
</g>
<!-- Node20 -->
<g id="Node000020" class="node">
<title>Node20</title>
<g id="a_Node000020"><a xlink:href="_employee_entry_8cpp.html" target="_top" xlink:title=" ">
<polygon fill="white" stroke="#666666" points="1048,-162 903.75,-162 903.75,-142 1048,-142 1048,-162"/>
<text text-anchor="middle" x="975.88" y="-148.5" font-family="Helvetica,sans-Serif" font-size="10.00">TullipApp/EmployeeEntry.cpp</text>
</a>
</g>
</g>
<!-- Node19&#45;&gt;Node20 -->
<g id="edge22_Node000019_Node000020" class="edge">
<title>Node19&#45;&gt;Node20</title>
<g id="a_edge22_Node000019_Node000020"><a xlink:title=" ">
<path fill="none" stroke="#63b8ff" d="M939.88,-200.52C949.26,-188.13 961.23,-172.33 968.72,-162.44"/>
<polygon fill="#63b8ff" stroke="#63b8ff" points="937.2,-198.25 933.95,-208.34 942.78,-202.48 937.2,-198.25"/>
</a>
</g>
</g>
<!-- Node21 -->
<g id="Node000021" class="node">
<title>Node21</title>
<g id="a_Node000021"><a xlink:href="moc___employee_entry_8cpp.html" target="_top" xlink:title=" ">
<polygon fill="white" stroke="#666666" points="1227.25,-168 1066.5,-168 1066.5,-136 1227.25,-136 1227.25,-168"/>
<text text-anchor="start" x="1074.5" y="-154.5" font-family="Helvetica,sans-Serif" font-size="10.00">TullipApp/x64/Debug</text>
<text text-anchor="middle" x="1146.88" y="-142.5" font-family="Helvetica,sans-Serif" font-size="10.00">/qt/moc/moc_EmployeeEntry.cpp</text>
</a>
</g>
</g>
<!-- Node19&#45;&gt;Node21 -->
<g id="edge23_Node000019_Node000021" class="edge">
<title>Node19&#45;&gt;Node21</title>
<g id="a_edge23_Node000019_Node000021"><a xlink:title=" ">
<path fill="none" stroke="#63b8ff" d="M968.22,-206.35C1004.4,-195.55 1056.58,-179.97 1095.22,-168.43"/>
<polygon fill="#63b8ff" stroke="#63b8ff" points="967.57,-202.9 958.99,-209.11 969.57,-209.6 967.57,-202.9"/>
</a>
</g>
</g>
<!-- Node23 -->
<g id="Node000023" class="node">
<title>Node23</title>
<g id="a_Node000023"><a xlink:href="_lesson_entry_8h.html" target="_top" xlink:title="Defines the LessonEntry class for managing the graphical representation of a lesson in the GUI.">
<polygon fill="white" stroke="#666666" points="1362.75,-230 1241,-230 1241,-210 1362.75,-210 1362.75,-230"/>
<text text-anchor="middle" x="1301.88" y="-216.5" font-family="Helvetica,sans-Serif" font-size="10.00">TullipApp/LessonEntry.h</text>
</a>
</g>
</g>
<!-- Node22&#45;&gt;Node23 -->
<g id="edge25_Node000022_Node000023" class="edge">
<title>Node22&#45;&gt;Node23</title>
<g id="a_edge25_Node000022_Node000023"><a xlink:title=" ">
<path fill="none" stroke="#63b8ff" d="M1189.2,-267.19C1218.87,-255.03 1255.52,-240 1278.8,-230.46"/>
<polygon fill="#63b8ff" stroke="#63b8ff" points="1187.95,-263.92 1180.02,-270.95 1190.6,-270.4 1187.95,-263.92"/>
</a>
</g>
</g>
<!-- Node23&#45;&gt;Node3 -->
<g id="edge26_Node000023_Node000003" class="edge">
<title>Node23&#45;&gt;Node3</title>
<g id="a_edge26_Node000023_Node000003"><a xlink:title=" ">
<path fill="none" stroke="#63b8ff" d="M1292.5,-199.74C1281.77,-180.03 1262.23,-150.32 1235.88,-136 1157.33,-93.34 894.66,-86.04 771.57,-85.01"/>
<polygon fill="#63b8ff" stroke="#63b8ff" points="1289.27,-201.12 1296.97,-208.41 1295.5,-197.91 1289.27,-201.12"/>
</a>
</g>
</g>
<!-- Node24 -->
<g id="Node000024" class="node">
<title>Node24</title>
<g id="a_Node000024"><a xlink:href="_lesson_entry_8cpp.html" target="_top" xlink:title=" ">
<polygon fill="white" stroke="#666666" points="1415,-162 1282.75,-162 1282.75,-142 1415,-142 1415,-162"/>
<text text-anchor="middle" x="1348.88" y="-148.5" font-family="Helvetica,sans-Serif" font-size="10.00">TullipApp/LessonEntry.cpp</text>
</a>
</g>
</g>
<!-- Node23&#45;&gt;Node24 -->
<g id="edge27_Node000023_Node000024" class="edge">
<title>Node23&#45;&gt;Node24</title>
<g id="a_edge27_Node000023_Node000024"><a xlink:title=" ">
<path fill="none" stroke="#63b8ff" d="M1315.04,-200.52C1323.86,-188.13 1335.11,-172.33 1342.15,-162.44"/>
<polygon fill="#63b8ff" stroke="#63b8ff" points="1312.44,-198.13 1309.49,-208.31 1318.14,-202.2 1312.44,-198.13"/>
</a>
</g>
</g>
<!-- Node25 -->
<g id="Node000025" class="node">
<title>Node25</title>
<g id="a_Node000025"><a xlink:href="moc___lesson_entry_8cpp.html" target="_top" xlink:title=" ">
<polygon fill="white" stroke="#666666" points="1582.25,-168 1433.5,-168 1433.5,-136 1582.25,-136 1582.25,-168"/>
<text text-anchor="start" x="1441.5" y="-154.5" font-family="Helvetica,sans-Serif" font-size="10.00">TullipApp/x64/Debug</text>
<text text-anchor="middle" x="1507.88" y="-142.5" font-family="Helvetica,sans-Serif" font-size="10.00">/qt/moc/moc_LessonEntry.cpp</text>
</a>
</g>
</g>
<!-- Node23&#45;&gt;Node25 -->
<g id="edge28_Node000023_Node000025" class="edge">
<title>Node23&#45;&gt;Node25</title>
<g id="a_edge28_Node000023_Node000025"><a xlink:title=" ">
<path fill="none" stroke="#63b8ff" d="M1342.22,-206.07C1375.91,-195.28 1424.02,-179.87 1459.72,-168.43"/>
<polygon fill="#63b8ff" stroke="#63b8ff" points="1341.29,-202.7 1332.83,-209.08 1343.42,-209.36 1341.29,-202.7"/>
</a>
</g>
</g>
<!-- Node26&#45;&gt;Node2 -->
<g id="edge30_Node000026_Node000002" class="edge">
<title>Node26&#45;&gt;Node2</title>
<g id="a_edge30_Node000026_Node000002"><a xlink:title=" ">
<path fill="none" stroke="#63b8ff" d="M154.45,-192.31C153.48,-181.67 152.43,-170.13 151.72,-162.32"/>
<polygon fill="#63b8ff" stroke="#63b8ff" points="150.96,-192.54 155.35,-202.19 157.93,-191.91 150.96,-192.54"/>
</a>
</g>
</g>
</g>
</svg>

<g id="navigator" transform="translate(0 0)" fill="#404254">
  <rect fill="#f2f5e9" fill-opacity="0.5" stroke="#606060" stroke-width=".5" x="0" y="0" width="60" height="60"/>
  <use id="zoomplus" xlink:href="#zoomPlus" x="17" y="9" onmousedown="handleZoom(evt,'in')"/>
  <use id="zoomminus" xlink:href="#zoomMin" x="42" y="9" onmousedown="handleZoom(evt,'out')"/>
  <use id="reset" xlink:href="#resetDef" x="30" y="36" onmousedown="handleReset()"/>
   <use id="arrowup" xlink:href="#arrowUp" x="0" y="0" onmousedown="handlePan(0,-1)"/>
  <use id="arrowright" xlink:href="#arrowRight" x="0" y="0" onmousedown="handlePan(1,0)"/>
  <use id="arrowdown" xlink:href="#arrowDown" x="0" y="0" onmousedown="handlePan(0,1)"/>
  <use id="arrowleft" xlink:href="#arrowLeft" x="0" y="0" onmousedown="handlePan(-1,0)"/>
</g>
<svg viewBox="0 0 15 15" width="100%" height="30px" preserveAspectRatio="xMaxYMin meet">
 <g id="arrow_out" transform="scale(0.3 0.3)">
  <a xlink:href="clickablelabel_8h__dep__incl_org.svg" target="_base">
   <rect id="button" ry="5" rx="5" y="6" x="6" height="38" width="38"
        fill="#f2f5e9" fill-opacity="0.5" stroke="#606060" stroke-width="1.0"/>
   <path id="arrow"
     d="M 11.500037,31.436501 C 11.940474,20.09759 22.043105,11.32322 32.158766,21.979434 L 37.068811,17.246167 C 37.068811,17.246167 37.088388,32 37.088388,32 L 22.160133,31.978069 C 22.160133,31.978069 26.997745,27.140456 26.997745,27.140456 C 18.528582,18.264221 13.291696,25.230495 11.500037,31.436501 z"
     style="fill:#404040;"/>
  </a>
 </g>
</svg>

<style type='text/css'>
<![CDATA[
[data-mouse-over-selected='false'] { opacity: 0.7; }
[data-mouse-over-selected='true']  { opacity: 1.0; }
]]>
</style>
<script type="application/ecmascript"><![CDATA[
document.addEventListener('DOMContentLoaded', (event) => {
  highlightEdges();
  highlightAdjacentNodes();
});
]]></script>
</svg>
