<?xml version="1.0" encoding="UTF-8" standalone="no"?>
<!DOCTYPE svg PUBLIC "-//W3C//DTD SVG 1.1//EN"
 "http://www.w3.org/Graphics/SVG/1.1/DTD/svg11.dtd">
<!-- Generated by graphviz version 12.2.1 (20241206.2353)
 -->
<!-- Title: TullipApp/clickablelabel.h Pages: 1 -->
<svg width="1869pt" height="368pt"
 viewBox="0.00 0.00 1868.75 368.00" xmlns="http://www.w3.org/2000/svg" xmlns:xlink="http://www.w3.org/1999/xlink">
<g id="graph0" class="graph" transform="scale(1 1) rotate(0) translate(4 364)">
<title>TullipApp/clickablelabel.h</title>
<!-- Node1 -->
<g id="Node000001" class="node">
<title>Node1</title>
<g id="a_Node000001"><a xlink:title="ClickableLabel class definition.">
<polygon fill="#999999" stroke="#666666" points="1101.75,-360 975.5,-360 975.5,-340 1101.75,-340 1101.75,-360"/>
<text text-anchor="middle" x="1038.62" y="-346.5" font-family="Helvetica,sans-Serif" font-size="10.00">TullipApp/clickablelabel.h</text>
</a>
</g>
</g>
<!-- Node2 -->
<g id="Node000002" class="node">
<title>Node2</title>
<g id="a_Node000002"><a xlink:href="_parent_entry_8h.html" target="_top" xlink:title="Defines the ParentEntry class for managing the graphical representation of a parent in the GUI.">
<polygon fill="white" stroke="#666666" points="1543,-162 1424.25,-162 1424.25,-142 1543,-142 1543,-162"/>
<text text-anchor="middle" x="1483.62" y="-148.5" font-family="Helvetica,sans-Serif" font-size="10.00">TullipApp/ParentEntry.h</text>
</a>
</g>
</g>
<!-- Node1&#45;&gt;Node2 -->
<g id="edge1_Node000001_Node000002" class="edge">
<title>Node1&#45;&gt;Node2</title>
<g id="a_edge1_Node000001_Node000002"><a xlink:title=" ">
<path fill="none" stroke="#63b8ff" d="M1113.37,-342.38C1161.33,-336.33 1224.22,-324.98 1276.62,-304 1328.24,-283.34 1336.94,-269.08 1381.62,-236 1399.37,-222.86 1402.55,-217.99 1419.62,-204 1437.65,-189.23 1458.85,-172.46 1471.75,-162.3"/>
<polygon fill="#63b8ff" stroke="#63b8ff" points="1113.14,-338.88 1103.63,-343.56 1113.98,-345.83 1113.14,-338.88"/>
</a>
</g>
</g>
<!-- Node9 -->
<g id="Node000009" class="node">
<title>Node9</title>
<g id="a_Node000009"><a xlink:href="moc__clickablelabel_8cpp.html" target="_top" xlink:title=" ">
<polygon fill="white" stroke="#666666" points="678.25,-304 525,-304 525,-272 678.25,-272 678.25,-304"/>
<text text-anchor="start" x="533" y="-290.5" font-family="Helvetica,sans-Serif" font-size="10.00">TullipApp/x64/Debug</text>
<text text-anchor="middle" x="601.62" y="-278.5" font-family="Helvetica,sans-Serif" font-size="10.00">/qt/moc/moc_clickablelabel.cpp</text>
</a>
</g>
</g>
<!-- Node1&#45;&gt;Node9 -->
<g id="edge8_Node000001_Node000009" class="edge">
<title>Node1&#45;&gt;Node9</title>
<g id="a_edge8_Node000001_Node000009"><a xlink:title=" ">
<path fill="none" stroke="#63b8ff" d="M964.12,-340.52C892.78,-332.15 782.16,-318.53 686.62,-304 683.96,-303.59 681.25,-303.17 678.51,-302.74"/>
<polygon fill="#63b8ff" stroke="#63b8ff" points="963.39,-343.95 973.73,-341.64 964.2,-337 963.39,-343.95"/>
</a>
</g>
</g>
<!-- Node10 -->
<g id="Node000010" class="node">
<title>Node10</title>
<g id="a_Node000010"><a xlink:href="ui___child_entry_8h.html" target="_top" xlink:title=" ">
<polygon fill="white" stroke="#666666" points="390.62,-304 278.62,-304 278.62,-272 390.62,-272 390.62,-304"/>
<text text-anchor="start" x="286.62" y="-290.5" font-family="Helvetica,sans-Serif" font-size="10.00">TullipApp/x64/Debug</text>
<text text-anchor="middle" x="334.62" y="-278.5" font-family="Helvetica,sans-Serif" font-size="10.00">/qt/uic/ui_ChildEntry.h</text>
</a>
</g>
</g>
<!-- Node1&#45;&gt;Node10 -->
<g id="edge9_Node000001_Node000010" class="edge">
<title>Node1&#45;&gt;Node10</title>
<g id="a_edge9_Node000001_Node000010"><a xlink:title=" ">
<path fill="none" stroke="#63b8ff" d="M964.07,-342.65C822.34,-330.57 516.94,-304.54 390.84,-293.79"/>
<polygon fill="#63b8ff" stroke="#63b8ff" points="963.45,-346.11 973.71,-343.47 964.04,-339.13 963.45,-346.11"/>
</a>
</g>
</g>
<!-- Node14 -->
<g id="Node000014" class="node">
<title>Node14</title>
<g id="a_Node000014"><a xlink:href="ui___child_label_8h.html" target="_top" xlink:title=" ">
<polygon fill="white" stroke="#666666" points="960,-304 847.25,-304 847.25,-272 960,-272 960,-304"/>
<text text-anchor="start" x="855.25" y="-290.5" font-family="Helvetica,sans-Serif" font-size="10.00">TullipApp/x64/Debug</text>
<text text-anchor="middle" x="903.62" y="-278.5" font-family="Helvetica,sans-Serif" font-size="10.00">/qt/uic/ui_ChildLabel.h</text>
</a>
</g>
</g>
<!-- Node1&#45;&gt;Node14 -->
<g id="edge14_Node000001_Node000014" class="edge">
<title>Node1&#45;&gt;Node14</title>
<g id="a_edge14_Node000001_Node000014"><a xlink:title=" ">
<path fill="none" stroke="#63b8ff" d="M1007.12,-335C986.56,-325.86 959.69,-313.92 938.48,-304.49"/>
<polygon fill="#63b8ff" stroke="#63b8ff" points="1005.59,-338.15 1016.15,-339.01 1008.43,-331.75 1005.59,-338.15"/>
</a>
</g>
</g>
<!-- Node15 -->
<g id="Node000015" class="node">
<title>Node15</title>
<g id="a_Node000015"><a xlink:href="ui___employee_entry_8h.html" target="_top" xlink:title=" ">
<polygon fill="white" stroke="#666666" points="829.12,-304 696.12,-304 696.12,-272 829.12,-272 829.12,-304"/>
<text text-anchor="start" x="704.12" y="-290.5" font-family="Helvetica,sans-Serif" font-size="10.00">TullipApp/x64/Debug</text>
<text text-anchor="middle" x="762.62" y="-278.5" font-family="Helvetica,sans-Serif" font-size="10.00">/qt/uic/ui_EmployeeEntry.h</text>
</a>
</g>
</g>
<!-- Node1&#45;&gt;Node15 -->
<g id="edge15_Node000001_Node000015" class="edge">
<title>Node1&#45;&gt;Node15</title>
<g id="a_edge15_Node000001_Node000015"><a xlink:title=" ">
<path fill="none" stroke="#63b8ff" d="M984.05,-337.14C939.67,-327.49 876.86,-313.83 829.46,-303.53"/>
<polygon fill="#63b8ff" stroke="#63b8ff" points="983.2,-340.53 993.72,-339.24 984.69,-333.69 983.2,-340.53"/>
</a>
</g>
</g>
<!-- Node19 -->
<g id="Node000019" class="node">
<title>Node19</title>
<g id="a_Node000019"><a xlink:href="ui___lesson_entry_8h.html" target="_top" xlink:title=" ">
<polygon fill="white" stroke="#666666" points="1099.12,-304 978.12,-304 978.12,-272 1099.12,-272 1099.12,-304"/>
<text text-anchor="start" x="986.12" y="-290.5" font-family="Helvetica,sans-Serif" font-size="10.00">TullipApp/x64/Debug</text>
<text text-anchor="middle" x="1038.62" y="-278.5" font-family="Helvetica,sans-Serif" font-size="10.00">/qt/uic/ui_LessonEntry.h</text>
</a>
</g>
</g>
<!-- Node1&#45;&gt;Node19 -->
<g id="edge20_Node000001_Node000019" class="edge">
<title>Node1&#45;&gt;Node19</title>
<g id="a_edge20_Node000001_Node000019"><a xlink:title=" ">
<path fill="none" stroke="#63b8ff" d="M1038.62,-328.31C1038.62,-320.37 1038.62,-311.46 1038.62,-304.14"/>
<polygon fill="#63b8ff" stroke="#63b8ff" points="1035.13,-328.11 1038.63,-338.11 1042.13,-328.11 1035.13,-328.11"/>
</a>
</g>
</g>
<!-- Node23 -->
<g id="Node000023" class="node">
<title>Node23</title>
<g id="a_Node000023"><a xlink:href="ui___lesson_view_8h.html" target="_top" xlink:title=" ">
<polygon fill="white" stroke="#666666" points="1236.38,-304 1116.88,-304 1116.88,-272 1236.38,-272 1236.38,-304"/>
<text text-anchor="start" x="1124.88" y="-290.5" font-family="Helvetica,sans-Serif" font-size="10.00">TullipApp/x64/Debug</text>
<text text-anchor="middle" x="1176.62" y="-278.5" font-family="Helvetica,sans-Serif" font-size="10.00">/qt/uic/ui_LessonView.h</text>
</a>
</g>
</g>
<!-- Node1&#45;&gt;Node23 -->
<g id="edge25_Node000001_Node000023" class="edge">
<title>Node1&#45;&gt;Node23</title>
<g id="a_edge25_Node000001_Node000023"><a xlink:title=" ">
<path fill="none" stroke="#63b8ff" d="M1070.54,-335.12C1091.6,-325.97 1119.22,-313.96 1141,-304.49"/>
<polygon fill="#63b8ff" stroke="#63b8ff" points="1069.35,-331.82 1061.58,-339.02 1072.14,-338.24 1069.35,-331.82"/>
</a>
</g>
</g>
<!-- Node27 -->
<g id="Node000027" class="node">
<title>Node27</title>
<g id="a_Node000027"><a xlink:href="ui___parent_entry_8h.html" target="_top" xlink:title=" ">
<polygon fill="white" stroke="#666666" points="1372.62,-236 1254.62,-236 1254.62,-204 1372.62,-204 1372.62,-236"/>
<text text-anchor="start" x="1262.62" y="-222.5" font-family="Helvetica,sans-Serif" font-size="10.00">TullipApp/x64/Debug</text>
<text text-anchor="middle" x="1313.62" y="-210.5" font-family="Helvetica,sans-Serif" font-size="10.00">/qt/uic/ui_ParentEntry.h</text>
</a>
</g>
</g>
<!-- Node1&#45;&gt;Node27 -->
<g id="edge30_Node000001_Node000027" class="edge">
<title>Node1&#45;&gt;Node27</title>
<g id="a_edge30_Node000001_Node000027"><a xlink:title=" ">
<path fill="none" stroke="#63b8ff" d="M1113.39,-344.76C1154.86,-339.58 1205.91,-328.31 1245.62,-304 1273.11,-287.18 1294.5,-255.19 1305.48,-236.21"/>
<polygon fill="#63b8ff" stroke="#63b8ff" points="1113,-341.28 1103.47,-345.9 1113.8,-348.24 1113,-341.28"/>
</a>
</g>
</g>
<!-- Node28 -->
<g id="Node000028" class="node">
<title>Node28</title>
<g id="a_Node000028"><a xlink:href="ui___person_label_8h.html" target="_top" xlink:title=" ">
<polygon fill="white" stroke="#666666" points="1550.12,-304 1429.12,-304 1429.12,-272 1550.12,-272 1550.12,-304"/>
<text text-anchor="start" x="1437.12" y="-290.5" font-family="Helvetica,sans-Serif" font-size="10.00">TullipApp/x64/Debug</text>
<text text-anchor="middle" x="1489.62" y="-278.5" font-family="Helvetica,sans-Serif" font-size="10.00">/qt/uic/ui_PersonLabel.h</text>
</a>
</g>
</g>
<!-- Node1&#45;&gt;Node28 -->
<g id="edge32_Node000001_Node000028" class="edge">
<title>Node1&#45;&gt;Node28</title>
<g id="a_edge32_Node000001_Node000028"><a xlink:title=" ">
<path fill="none" stroke="#63b8ff" d="M1113.38,-341.79C1189.43,-334.06 1310.57,-320.61 1414.62,-304 1419.21,-303.27 1423.95,-302.46 1428.71,-301.6"/>
<polygon fill="#63b8ff" stroke="#63b8ff" points="1113.14,-338.3 1103.54,-342.79 1113.84,-345.27 1113.14,-338.3"/>
</a>
</g>
</g>
<!-- Node3 -->
<g id="Node000003" class="node">
<title>Node3</title>
<g id="a_Node000003"><a xlink:href="_data_base_g_u_i_8h.html" target="_top" xlink:title="Defines the DataBaseGUI class for managing the graphical user interface of the database.">
<polygon fill="white" stroke="#666666" points="1108.25,-94 979,-94 979,-74 1108.25,-74 1108.25,-94"/>
<text text-anchor="middle" x="1043.62" y="-80.5" font-family="Helvetica,sans-Serif" font-size="10.00">TullipApp/DataBaseGUI.h</text>
</a>
</g>
</g>
<!-- Node2&#45;&gt;Node3 -->
<g id="edge2_Node000002_Node000003" class="edge">
<title>Node2&#45;&gt;Node3</title>
<g id="a_edge2_Node000002_Node000003"><a xlink:title=" ">
<path fill="none" stroke="#63b8ff" d="M1431.61,-139.24C1425.89,-138.08 1420.14,-136.98 1414.62,-136 1307.87,-117.09 1182.78,-101.18 1108.54,-92.38"/>
<polygon fill="#63b8ff" stroke="#63b8ff" points="1430.51,-142.59 1441.02,-141.2 1431.94,-135.74 1430.51,-142.59"/>
</a>
</g>
</g>
<!-- Node7 -->
<g id="Node000007" class="node">
<title>Node7</title>
<g id="a_Node000007"><a xlink:href="_parent_entry_8cpp.html" target="_top" xlink:title=" ">
<polygon fill="white" stroke="#666666" points="1626.25,-94 1497,-94 1497,-74 1626.25,-74 1626.25,-94"/>
<text text-anchor="middle" x="1561.62" y="-80.5" font-family="Helvetica,sans-Serif" font-size="10.00">TullipApp/ParentEntry.cpp</text>
</a>
</g>
</g>
<!-- Node2&#45;&gt;Node7 -->
<g id="edge6_Node000002_Node000007" class="edge">
<title>Node2&#45;&gt;Node7</title>
<g id="a_edge6_Node000002_Node000007"><a xlink:title=" ">
<path fill="none" stroke="#63b8ff" d="M1503.32,-134.33C1518.24,-121.71 1538.2,-104.82 1550.47,-94.44"/>
<polygon fill="#63b8ff" stroke="#63b8ff" points="1501.33,-131.43 1495.96,-140.57 1505.85,-136.78 1501.33,-131.43"/>
</a>
</g>
</g>
<!-- Node8 -->
<g id="Node000008" class="node">
<title>Node8</title>
<g id="a_Node000008"><a xlink:href="moc___parent_entry_8cpp.html" target="_top" xlink:title=" ">
<polygon fill="white" stroke="#666666" points="1478.5,-100 1332.75,-100 1332.75,-68 1478.5,-68 1478.5,-100"/>
<text text-anchor="start" x="1340.75" y="-86.5" font-family="Helvetica,sans-Serif" font-size="10.00">TullipApp/x64/Debug</text>
<text text-anchor="middle" x="1405.62" y="-74.5" font-family="Helvetica,sans-Serif" font-size="10.00">/qt/moc/moc_ParentEntry.cpp</text>
</a>
</g>
</g>
<!-- Node2&#45;&gt;Node8 -->
<g id="edge7_Node000002_Node000008" class="edge">
<title>Node2&#45;&gt;Node8</title>
<g id="a_edge7_Node000002_Node000008"><a xlink:title=" ">
<path fill="none" stroke="#63b8ff" d="M1463.8,-134.22C1451.46,-123.78 1435.71,-110.45 1423.71,-100.3"/>
<polygon fill="#63b8ff" stroke="#63b8ff" points="1461.4,-136.78 1471.29,-140.57 1465.92,-131.43 1461.4,-136.78"/>
</a>
</g>
</g>
<!-- Node4 -->
<g id="Node000004" class="node">
<title>Node4</title>
<g id="a_Node000004"><a xlink:href="_data_base_g_u_i_8cpp.html" target="_top" xlink:title=" ">
<polygon fill="white" stroke="#666666" points="975.5,-26 835.75,-26 835.75,-6 975.5,-6 975.5,-26"/>
<text text-anchor="middle" x="905.62" y="-12.5" font-family="Helvetica,sans-Serif" font-size="10.00">TullipApp/DataBaseGUI.cpp</text>
</a>
</g>
</g>
<!-- Node3&#45;&gt;Node4 -->
<g id="edge3_Node000003_Node000004" class="edge">
<title>Node3&#45;&gt;Node4</title>
<g id="a_edge3_Node000003_Node000004"><a xlink:title=" ">
<path fill="none" stroke="#63b8ff" d="M1013.52,-68.6C986.76,-55.8 948.4,-37.46 925.36,-26.44"/>
<polygon fill="#63b8ff" stroke="#63b8ff" points="1011.96,-71.73 1022.49,-72.89 1014.98,-65.42 1011.96,-71.73"/>
</a>
</g>
</g>
<!-- Node5 -->
<g id="Node000005" class="node">
<title>Node5</title>
<g id="a_Node000005"><a xlink:href="_main_8cpp.html" target="_top" xlink:title=" ">
<polygon fill="white" stroke="#666666" points="1093.25,-26 994,-26 994,-6 1093.25,-6 1093.25,-26"/>
<text text-anchor="middle" x="1043.62" y="-12.5" font-family="Helvetica,sans-Serif" font-size="10.00">TullipApp/Main.cpp</text>
</a>
</g>
</g>
<!-- Node3&#45;&gt;Node5 -->
<g id="edge4_Node000003_Node000005" class="edge">
<title>Node3&#45;&gt;Node5</title>
<g id="a_edge4_Node000003_Node000005"><a xlink:title=" ">
<path fill="none" stroke="#63b8ff" d="M1043.62,-62.28C1043.62,-50.27 1043.62,-35.74 1043.62,-26.44"/>
<polygon fill="#63b8ff" stroke="#63b8ff" points="1040.13,-62.03 1043.63,-72.03 1047.13,-62.03 1040.13,-62.03"/>
</a>
</g>
</g>
<!-- Node6 -->
<g id="Node000006" class="node">
<title>Node6</title>
<g id="a_Node000006"><a xlink:href="moc___data_base_g_u_i_8cpp.html" target="_top" xlink:title=" ">
<polygon fill="white" stroke="#666666" points="1267.75,-32 1111.5,-32 1111.5,0 1267.75,0 1267.75,-32"/>
<text text-anchor="start" x="1119.5" y="-18.5" font-family="Helvetica,sans-Serif" font-size="10.00">TullipApp/x64/Debug</text>
<text text-anchor="middle" x="1189.62" y="-6.5" font-family="Helvetica,sans-Serif" font-size="10.00">/qt/moc/moc_DataBaseGUI.cpp</text>
</a>
</g>
</g>
<!-- Node3&#45;&gt;Node6 -->
<g id="edge5_Node000003_Node000006" class="edge">
<title>Node3&#45;&gt;Node6</title>
<g id="a_edge5_Node000003_Node000006"><a xlink:title=" ">
<path fill="none" stroke="#63b8ff" d="M1074.75,-68.93C1098.46,-58.21 1131.08,-43.47 1155.5,-32.43"/>
<polygon fill="#63b8ff" stroke="#63b8ff" points="1073.59,-65.61 1065.92,-72.92 1076.48,-71.99 1073.59,-65.61"/>
</a>
</g>
</g>
<!-- Node11 -->
<g id="Node000011" class="node">
<title>Node11</title>
<g id="a_Node000011"><a xlink:href="_child_entry_8h.html" target="_top" xlink:title="Defines the ChildEntry class for managing the graphical representation of a child in the GUI.">
<polygon fill="white" stroke="#666666" points="317,-230 204.25,-230 204.25,-210 317,-210 317,-230"/>
<text text-anchor="middle" x="260.62" y="-216.5" font-family="Helvetica,sans-Serif" font-size="10.00">TullipApp/ChildEntry.h</text>
</a>
</g>
</g>
<!-- Node10&#45;&gt;Node11 -->
<g id="edge10_Node000010_Node000011" class="edge">
<title>Node10&#45;&gt;Node11</title>
<g id="a_edge10_Node000010_Node000011"><a xlink:title=" ">
<path fill="none" stroke="#63b8ff" d="M308.89,-264.04C295.9,-252.46 280.86,-239.05 271.07,-230.32"/>
<polygon fill="#63b8ff" stroke="#63b8ff" points="306.54,-266.64 316.33,-270.68 311.2,-261.42 306.54,-266.64"/>
</a>
</g>
</g>
<!-- Node11&#45;&gt;Node3 -->
<g id="edge12_Node000011_Node000003" class="edge">
<title>Node11&#45;&gt;Node3</title>
<g id="a_edge12_Node000011_Node000003"><a xlink:title=" ">
<path fill="none" stroke="#63b8ff" d="M270.37,-199.6C281.48,-179.77 301.67,-149.96 328.62,-136 385.5,-106.55 813.32,-91.48 978.67,-86.71"/>
<polygon fill="#63b8ff" stroke="#63b8ff" points="267.32,-197.87 265.72,-208.34 273.5,-201.15 267.32,-197.87"/>
</a>
</g>
</g>
<!-- Node12 -->
<g id="Node000012" class="node">
<title>Node12</title>
<g id="a_Node000012"><a xlink:href="_child_entry_8cpp.html" target="_top" xlink:title=" ">
<polygon fill="white" stroke="#666666" points="123.25,-162 0,-162 0,-142 123.25,-142 123.25,-162"/>
<text text-anchor="middle" x="61.62" y="-148.5" font-family="Helvetica,sans-Serif" font-size="10.00">TullipApp/ChildEntry.cpp</text>
</a>
</g>
</g>
<!-- Node11&#45;&gt;Node12 -->
<g id="edge11_Node000011_Node000012" class="edge">
<title>Node11&#45;&gt;Node12</title>
<g id="a_edge11_Node000011_Node000012"><a xlink:title=" ">
<path fill="none" stroke="#63b8ff" d="M221.27,-205.95C182.58,-193.12 124.49,-173.85 90.08,-162.44"/>
<polygon fill="#63b8ff" stroke="#63b8ff" points="220.08,-209.24 230.68,-209.07 222.29,-202.6 220.08,-209.24"/>
</a>
</g>
</g>
<!-- Node13 -->
<g id="Node000013" class="node">
<title>Node13</title>
<g id="a_Node000013"><a xlink:href="moc___child_entry_8cpp.html" target="_top" xlink:title=" ">
<polygon fill="white" stroke="#666666" points="281.5,-168 141.75,-168 141.75,-136 281.5,-136 281.5,-168"/>
<text text-anchor="start" x="149.75" y="-154.5" font-family="Helvetica,sans-Serif" font-size="10.00">TullipApp/x64/Debug</text>
<text text-anchor="middle" x="211.62" y="-142.5" font-family="Helvetica,sans-Serif" font-size="10.00">/qt/moc/moc_ChildEntry.cpp</text>
</a>
</g>
</g>
<!-- Node11&#45;&gt;Node13 -->
<g id="edge13_Node000011_Node000013" class="edge">
<title>Node11&#45;&gt;Node13</title>
<g id="a_edge13_Node000011_Node000013"><a xlink:title=" ">
<path fill="none" stroke="#63b8ff" d="M246.78,-200.35C239.26,-190.22 230.08,-177.86 222.98,-168.3"/>
<polygon fill="#63b8ff" stroke="#63b8ff" points="243.93,-202.39 252.7,-208.33 249.55,-198.21 243.93,-202.39"/>
</a>
</g>
</g>
<!-- Node16 -->
<g id="Node000016" class="node">
<title>Node16</title>
<g id="a_Node000016"><a xlink:href="_employee_entry_8h.html" target="_top" xlink:title="Defines the EmployeeEntry class for managing the graphical representation of a employee in the GUI.">
<polygon fill="white" stroke="#666666" points="701.5,-230 567.75,-230 567.75,-210 701.5,-210 701.5,-230"/>
<text text-anchor="middle" x="634.62" y="-216.5" font-family="Helvetica,sans-Serif" font-size="10.00">TullipApp/EmployeeEntry.h</text>
</a>
</g>
</g>
<!-- Node15&#45;&gt;Node16 -->
<g id="edge16_Node000015_Node000016" class="edge">
<title>Node15&#45;&gt;Node16</title>
<g id="a_edge16_Node000015_Node000016"><a xlink:title=" ">
<path fill="none" stroke="#63b8ff" d="M722.65,-266.39C699.35,-254.37 671.08,-239.79 652.97,-230.46"/>
<polygon fill="#63b8ff" stroke="#63b8ff" points="720.78,-269.36 731.27,-270.83 723.99,-263.14 720.78,-269.36"/>
</a>
</g>
</g>
<!-- Node16&#45;&gt;Node3 -->
<g id="edge17_Node000016_Node000003" class="edge">
<title>Node16&#45;&gt;Node3</title>
<g id="a_edge17_Node000016_Node000003"><a xlink:title=" ">
<path fill="none" stroke="#63b8ff" d="M648.46,-200.5C665.26,-178.54 693.17,-143.9 707.62,-136 753.12,-111.14 894.51,-96.38 978.69,-89.56"/>
<polygon fill="#63b8ff" stroke="#63b8ff" points="645.76,-198.26 642.51,-208.35 651.34,-202.48 645.76,-198.26"/>
</a>
</g>
</g>
<!-- Node17 -->
<g id="Node000017" class="node">
<title>Node17</title>
<g id="a_Node000017"><a xlink:href="_employee_entry_8cpp.html" target="_top" xlink:title=" ">
<polygon fill="white" stroke="#666666" points="481.75,-162 337.5,-162 337.5,-142 481.75,-142 481.75,-162"/>
<text text-anchor="middle" x="409.62" y="-148.5" font-family="Helvetica,sans-Serif" font-size="10.00">TullipApp/EmployeeEntry.cpp</text>
</a>
</g>
</g>
<!-- Node16&#45;&gt;Node17 -->
<g id="edge18_Node000016_Node000017" class="edge">
<title>Node16&#45;&gt;Node17</title>
<g id="a_edge18_Node000016_Node000017"><a xlink:title=" ">
<path fill="none" stroke="#63b8ff" d="M591.52,-206.36C547.8,-193.53 481.12,-173.97 441.8,-162.44"/>
<polygon fill="#63b8ff" stroke="#63b8ff" points="590.35,-209.66 600.94,-209.12 592.33,-202.94 590.35,-209.66"/>
</a>
</g>
</g>
<!-- Node18 -->
<g id="Node000018" class="node">
<title>Node18</title>
<g id="a_Node000018"><a xlink:href="moc___employee_entry_8cpp.html" target="_top" xlink:title=" ">
<polygon fill="white" stroke="#666666" points="661,-168 500.25,-168 500.25,-136 661,-136 661,-168"/>
<text text-anchor="start" x="508.25" y="-154.5" font-family="Helvetica,sans-Serif" font-size="10.00">TullipApp/x64/Debug</text>
<text text-anchor="middle" x="580.62" y="-142.5" font-family="Helvetica,sans-Serif" font-size="10.00">/qt/moc/moc_EmployeeEntry.cpp</text>
</a>
</g>
</g>
<!-- Node16&#45;&gt;Node18 -->
<g id="edge19_Node000016_Node000018" class="edge">
<title>Node16&#45;&gt;Node18</title>
<g id="a_edge19_Node000016_Node000018"><a xlink:title=" ">
<path fill="none" stroke="#63b8ff" d="M619.62,-200.67C611.29,-190.48 601.04,-177.96 593.14,-168.3"/>
<polygon fill="#63b8ff" stroke="#63b8ff" points="616.89,-202.85 625.93,-208.37 622.31,-198.42 616.89,-202.85"/>
</a>
</g>
</g>
<!-- Node20 -->
<g id="Node000020" class="node">
<title>Node20</title>
<g id="a_Node000020"><a xlink:href="_lesson_entry_8h.html" target="_top" xlink:title="Defines the LessonEntry class for managing the graphical representation of a lesson in the GUI.">
<polygon fill="white" stroke="#666666" points="1050.5,-230 928.75,-230 928.75,-210 1050.5,-210 1050.5,-230"/>
<text text-anchor="middle" x="989.62" y="-216.5" font-family="Helvetica,sans-Serif" font-size="10.00">TullipApp/LessonEntry.h</text>
</a>
</g>
</g>
<!-- Node19&#45;&gt;Node20 -->
<g id="edge21_Node000019_Node000020" class="edge">
<title>Node19&#45;&gt;Node20</title>
<g id="a_edge21_Node000019_Node000020"><a xlink:title=" ">
<path fill="none" stroke="#63b8ff" d="M1020.58,-262.7C1012.22,-251.43 1002.78,-238.71 996.54,-230.32"/>
<polygon fill="#63b8ff" stroke="#63b8ff" points="1017.59,-264.53 1026.36,-270.48 1023.21,-260.36 1017.59,-264.53"/>
</a>
</g>
</g>
<!-- Node20&#45;&gt;Node3 -->
<g id="edge22_Node000020_Node000003" class="edge">
<title>Node20&#45;&gt;Node3</title>
<g id="a_edge22_Node000020_Node000003"><a xlink:title=" ">
<path fill="none" stroke="#63b8ff" d="M1004.82,-200.52C1011.77,-191.25 1019.56,-179.56 1024.62,-168 1035.73,-142.68 1040.75,-110.07 1042.65,-94.32"/>
<polygon fill="#63b8ff" stroke="#63b8ff" points="1002.13,-198.28 998.72,-208.31 1007.64,-202.59 1002.13,-198.28"/>
</a>
</g>
</g>
<!-- Node21 -->
<g id="Node000021" class="node">
<title>Node21</title>
<g id="a_Node000021"><a xlink:href="_lesson_entry_8cpp.html" target="_top" xlink:title=" ">
<polygon fill="white" stroke="#666666" points="848.75,-162 716.5,-162 716.5,-142 848.75,-142 848.75,-162"/>
<text text-anchor="middle" x="782.62" y="-148.5" font-family="Helvetica,sans-Serif" font-size="10.00">TullipApp/LessonEntry.cpp</text>
</a>
</g>
</g>
<!-- Node20&#45;&gt;Node21 -->
<g id="edge23_Node000020_Node000021" class="edge">
<title>Node20&#45;&gt;Node21</title>
<g id="a_edge23_Node000020_Node000021"><a xlink:title=" ">
<path fill="none" stroke="#63b8ff" d="M949.2,-206.11C908.97,-193.28 848.17,-173.9 812.23,-162.44"/>
<polygon fill="#63b8ff" stroke="#63b8ff" points="947.93,-209.38 958.52,-209.08 950.06,-202.71 947.93,-209.38"/>
</a>
</g>
</g>
<!-- Node22 -->
<g id="Node000022" class="node">
<title>Node22</title>
<g id="a_Node000022"><a xlink:href="moc___lesson_entry_8cpp.html" target="_top" xlink:title=" ">
<polygon fill="white" stroke="#666666" points="1016,-168 867.25,-168 867.25,-136 1016,-136 1016,-168"/>
<text text-anchor="start" x="875.25" y="-154.5" font-family="Helvetica,sans-Serif" font-size="10.00">TullipApp/x64/Debug</text>
<text text-anchor="middle" x="941.62" y="-142.5" font-family="Helvetica,sans-Serif" font-size="10.00">/qt/moc/moc_LessonEntry.cpp</text>
</a>
</g>
</g>
<!-- Node20&#45;&gt;Node22 -->
<g id="edge24_Node000020_Node000022" class="edge">
<title>Node20&#45;&gt;Node22</title>
<g id="a_edge24_Node000020_Node000022"><a xlink:title=" ">
<path fill="none" stroke="#63b8ff" d="M976.06,-200.35C968.7,-190.22 959.7,-177.86 952.75,-168.3"/>
<polygon fill="#63b8ff" stroke="#63b8ff" points="973.15,-202.29 981.86,-208.32 978.81,-198.17 973.15,-202.29"/>
</a>
</g>
</g>
<!-- Node24 -->
<g id="Node000024" class="node">
<title>Node24</title>
<g id="a_Node000024"><a xlink:href="_lesson_view_8h.html" target="_top" xlink:title="Defines the LessonView class for viewing lesson&#45;related information.">
<polygon fill="white" stroke="#666666" points="1236.75,-230 1116.5,-230 1116.5,-210 1236.75,-210 1236.75,-230"/>
<text text-anchor="middle" x="1176.62" y="-216.5" font-family="Helvetica,sans-Serif" font-size="10.00">TullipApp/LessonView.h</text>
</a>
</g>
</g>
<!-- Node23&#45;&gt;Node24 -->
<g id="edge26_Node000023_Node000024" class="edge">
<title>Node23&#45;&gt;Node24</title>
<g id="a_edge26_Node000023_Node000024"><a xlink:title=" ">
<path fill="none" stroke="#63b8ff" d="M1176.62,-260.31C1176.62,-249.67 1176.62,-238.13 1176.62,-230.32"/>
<polygon fill="#63b8ff" stroke="#63b8ff" points="1173.13,-260.18 1176.63,-270.18 1180.13,-260.18 1173.13,-260.18"/>
</a>
</g>
</g>
<!-- Node24&#45;&gt;Node3 -->
<g id="edge27_Node000024_Node000003" class="edge">
<title>Node24&#45;&gt;Node3</title>
<g id="a_edge27_Node000024_Node000003"><a xlink:title=" ">
<path fill="none" stroke="#63b8ff" d="M1148.72,-203.78C1133.47,-194.64 1114.85,-182.07 1100.62,-168 1077.14,-144.76 1057.26,-110.6 1048.47,-94.31"/>
<polygon fill="#63b8ff" stroke="#63b8ff" points="1146.93,-206.79 1157.34,-208.78 1150.44,-200.73 1146.93,-206.79"/>
</a>
</g>
</g>
<!-- Node25 -->
<g id="Node000025" class="node">
<title>Node25</title>
<g id="a_Node000025"><a xlink:href="_lesson_view_8cpp.html" target="_top" xlink:title=" ">
<polygon fill="white" stroke="#666666" points="1406,-162 1275.25,-162 1275.25,-142 1406,-142 1406,-162"/>
<text text-anchor="middle" x="1340.62" y="-148.5" font-family="Helvetica,sans-Serif" font-size="10.00">TullipApp/LessonView.cpp</text>
</a>
</g>
</g>
<!-- Node24&#45;&gt;Node25 -->
<g id="edge28_Node000024_Node000025" class="edge">
<title>Node24&#45;&gt;Node25</title>
<g id="a_edge28_Node000024_Node000025"><a xlink:title=" ">
<path fill="none" stroke="#63b8ff" d="M1210.72,-205.28C1242.58,-192.46 1289.3,-173.65 1317.17,-162.44"/>
<polygon fill="#63b8ff" stroke="#63b8ff" points="1209.5,-202 1201.53,-208.98 1212.11,-208.49 1209.5,-202"/>
</a>
</g>
</g>
<!-- Node26 -->
<g id="Node000026" class="node">
<title>Node26</title>
<g id="a_Node000026"><a xlink:href="moc___lesson_view_8cpp.html" target="_top" xlink:title=" ">
<polygon fill="white" stroke="#666666" points="1257.25,-168 1110,-168 1110,-136 1257.25,-136 1257.25,-168"/>
<text text-anchor="start" x="1118" y="-154.5" font-family="Helvetica,sans-Serif" font-size="10.00">TullipApp/x64/Debug</text>
<text text-anchor="middle" x="1183.62" y="-142.5" font-family="Helvetica,sans-Serif" font-size="10.00">/qt/moc/moc_LessonView.cpp</text>
</a>
</g>
</g>
<!-- Node24&#45;&gt;Node26 -->
<g id="edge29_Node000024_Node000026" class="edge">
<title>Node24&#45;&gt;Node26</title>
<g id="a_edge29_Node000024_Node000026"><a xlink:title=" ">
<path fill="none" stroke="#63b8ff" d="M1178.84,-198.1C1179.87,-188.43 1181.06,-177.16 1182,-168.3"/>
<polygon fill="#63b8ff" stroke="#63b8ff" points="1175.36,-197.73 1177.79,-208.04 1182.32,-198.46 1175.36,-197.73"/>
</a>
</g>
</g>
<!-- Node27&#45;&gt;Node2 -->
<g id="edge31_Node000027_Node000002" class="edge">
<title>Node27&#45;&gt;Node2</title>
<g id="a_edge31_Node000027_Node000002"><a xlink:title=" ">
<path fill="none" stroke="#63b8ff" d="M1363.83,-199.51C1395.3,-187.29 1434.46,-172.09 1459.26,-162.46"/>
<polygon fill="#63b8ff" stroke="#63b8ff" points="1362.95,-196.1 1354.89,-202.98 1365.48,-202.62 1362.95,-196.1"/>
</a>
</g>
</g>
<!-- Node29 -->
<g id="Node000029" class="node">
<title>Node29</title>
<g id="a_Node000029"><a xlink:href="_person_label_8h.html" target="_top" xlink:title=" ">
<polygon fill="white" stroke="#666666" points="1550.5,-230 1428.75,-230 1428.75,-210 1550.5,-210 1550.5,-230"/>
<text text-anchor="middle" x="1489.62" y="-216.5" font-family="Helvetica,sans-Serif" font-size="10.00">TullipApp/PersonLabel.h</text>
</a>
</g>
</g>
<!-- Node28&#45;&gt;Node29 -->
<g id="edge33_Node000028_Node000029" class="edge">
<title>Node28&#45;&gt;Node29</title>
<g id="a_edge33_Node000028_Node000029"><a xlink:title=" ">
<path fill="none" stroke="#63b8ff" d="M1489.62,-260.31C1489.62,-249.67 1489.62,-238.13 1489.62,-230.32"/>
<polygon fill="#63b8ff" stroke="#63b8ff" points="1486.13,-260.18 1489.63,-270.18 1493.13,-260.18 1486.13,-260.18"/>
</a>
</g>
</g>
<!-- Node29&#45;&gt;Node2 -->
<g id="edge35_Node000029_Node000002" class="edge">
<title>Node29&#45;&gt;Node2</title>
<g id="a_edge35_Node000029_Node000002"><a xlink:title=" ">
<path fill="none" stroke="#63b8ff" d="M1487.74,-198.28C1486.65,-186.27 1485.33,-171.74 1484.48,-162.44"/>
<polygon fill="#63b8ff" stroke="#63b8ff" points="1484.24,-198.39 1488.63,-208.04 1491.21,-197.76 1484.24,-198.39"/>
</a>
</g>
</g>
<!-- Node29&#45;&gt;Node25 -->
<g id="edge34_Node000029_Node000025" class="edge">
<title>Node29&#45;&gt;Node25</title>
<g id="a_edge34_Node000029_Node000025"><a xlink:title=" ">
<path fill="none" stroke="#63b8ff" d="M1457.89,-204.94C1428.96,-192.13 1387.03,-173.56 1361.93,-162.44"/>
<polygon fill="#63b8ff" stroke="#63b8ff" points="1456.33,-208.08 1466.89,-208.93 1459.17,-201.68 1456.33,-208.08"/>
</a>
</g>
</g>
<!-- Node30 -->
<g id="Node000030" class="node">
<title>Node30</title>
<g id="a_Node000030"><a xlink:href="_person_label_8cpp.html" target="_top" xlink:title=" ">
<polygon fill="white" stroke="#666666" points="1860.75,-162 1728.5,-162 1728.5,-142 1860.75,-142 1860.75,-162"/>
<text text-anchor="middle" x="1794.62" y="-148.5" font-family="Helvetica,sans-Serif" font-size="10.00">TullipApp/PersonLabel.cpp</text>
</a>
</g>
</g>
<!-- Node29&#45;&gt;Node30 -->
<g id="edge36_Node000029_Node000030" class="edge">
<title>Node29&#45;&gt;Node30</title>
<g id="a_edge36_Node000029_Node000030"><a xlink:title=" ">
<path fill="none" stroke="#63b8ff" d="M1544.32,-207.16C1603.47,-194.37 1696.58,-174.22 1751.01,-162.44"/>
<polygon fill="#63b8ff" stroke="#63b8ff" points="1543.84,-203.69 1534.8,-209.22 1545.32,-210.53 1543.84,-203.69"/>
</a>
</g>
</g>
<!-- Node31 -->
<g id="Node000031" class="node">
<title>Node31</title>
<g id="a_Node000031"><a xlink:href="moc___person_label_8cpp.html" target="_top" xlink:title=" ">
<polygon fill="white" stroke="#666666" points="1710,-168 1561.25,-168 1561.25,-136 1710,-136 1710,-168"/>
<text text-anchor="start" x="1569.25" y="-154.5" font-family="Helvetica,sans-Serif" font-size="10.00">TullipApp/x64/Debug</text>
<text text-anchor="middle" x="1635.62" y="-142.5" font-family="Helvetica,sans-Serif" font-size="10.00">/qt/moc/moc_PersonLabel.cpp</text>
</a>
</g>
</g>
<!-- Node29&#45;&gt;Node31 -->
<g id="edge37_Node000029_Node000031" class="edge">
<title>Node29&#45;&gt;Node31</title>
<g id="a_edge37_Node000029_Node000031"><a xlink:title=" ">
<path fill="none" stroke="#63b8ff" d="M1520.75,-204.93C1544.46,-194.21 1577.08,-179.47 1601.5,-168.43"/>
<polygon fill="#63b8ff" stroke="#63b8ff" points="1519.59,-201.61 1511.92,-208.92 1522.48,-207.99 1519.59,-201.61"/>
</a>
</g>
</g>
</g>
</svg>
