<?xml version="1.0" encoding="UTF-8" standalone="no"?>
<!DOCTYPE svg PUBLIC "-//W3C//DTD SVG 1.1//EN"
 "http://www.w3.org/Graphics/SVG/1.1/DTD/svg11.dtd">
<!-- Generated by graphviz version 12.2.1 (20241206.2353)
 -->
<!-- Title: Graphical Class Hierarchy Pages: 1 -->
<svg width="152pt" height="104pt"
 viewBox="0.00 0.00 151.75 104.00" xmlns="http://www.w3.org/2000/svg" xmlns:xlink="http://www.w3.org/1999/xlink">
<g id="graph0" class="graph" transform="scale(1 1) rotate(0) translate(4 100)">
<title>Graphical Class Hierarchy</title>
<!-- Node0 -->
<g id="Node000000" class="node">
<title>Node0</title>
<g id="a_Node000000"><a xlink:href="class_contacts.html" target="_top" xlink:title="Base class for contact&#45;related utilities.">
<polygon fill="white" stroke="#666666" points="55.75,-58 0,-58 0,-38 55.75,-38 55.75,-58"/>
<text text-anchor="middle" x="27.88" y="-44.5" font-family="Helvetica,sans-Serif" font-size="10.00">Contacts</text>
</a>
</g>
</g>
<!-- Node1 -->
<g id="Node000001" class="node">
<title>Node1</title>
<g id="a_Node000001"><a xlink:href="class_address.html" target="_top" xlink:title="Represents a physical address.">
<polygon fill="white" stroke="#666666" points="143.75,-96 91.75,-96 91.75,-76 143.75,-76 143.75,-96"/>
<text text-anchor="middle" x="117.75" y="-82.5" font-family="Helvetica,sans-Serif" font-size="10.00">Address</text>
</a>
</g>
</g>
<!-- Node0&#45;&gt;Node1 -->
<g id="edge1_Node000000_Node000001" class="edge">
<title>Node0&#45;&gt;Node1</title>
<g id="a_edge1_Node000000_Node000001"><a xlink:title=" ">
<path fill="none" stroke="#63b8ff" d="M63.24,-62.86C73.11,-67.13 83.66,-71.69 92.77,-75.63"/>
<polygon fill="#63b8ff" stroke="#63b8ff" points="64.84,-59.74 54.28,-58.98 62.07,-66.17 64.84,-59.74"/>
</a>
</g>
</g>
<!-- Node2 -->
<g id="Node000002" class="node">
<title>Node2</title>
<g id="a_Node000002"><a xlink:href="class_email.html" target="_top" xlink:title="Represents an email address.">
<polygon fill="white" stroke="#666666" points="138.12,-58 97.38,-58 97.38,-38 138.12,-38 138.12,-58"/>
<text text-anchor="middle" x="117.75" y="-44.5" font-family="Helvetica,sans-Serif" font-size="10.00">Email</text>
</a>
</g>
</g>
<!-- Node0&#45;&gt;Node2 -->
<g id="edge2_Node000000_Node000002" class="edge">
<title>Node0&#45;&gt;Node2</title>
<g id="a_edge2_Node000000_Node000002"><a xlink:title=" ">
<path fill="none" stroke="#63b8ff" d="M67.43,-48C77.64,-48 88.24,-48 96.98,-48"/>
<polygon fill="#63b8ff" stroke="#63b8ff" points="67.71,-44.5 57.71,-48 67.71,-51.5 67.71,-44.5"/>
</a>
</g>
</g>
<!-- Node3 -->
<g id="Node000003" class="node">
<title>Node3</title>
<g id="a_Node000003"><a xlink:href="class_phone.html" target="_top" xlink:title="Represents a phone number.">
<polygon fill="white" stroke="#666666" points="139.62,-20 95.88,-20 95.88,0 139.62,0 139.62,-20"/>
<text text-anchor="middle" x="117.75" y="-6.5" font-family="Helvetica,sans-Serif" font-size="10.00">Phone</text>
</a>
</g>
</g>
<!-- Node0&#45;&gt;Node3 -->
<g id="edge3_Node000000_Node000003" class="edge">
<title>Node0&#45;&gt;Node3</title>
<g id="a_edge3_Node000000_Node000003"><a xlink:title=" ">
<path fill="none" stroke="#63b8ff" d="M63.35,-33.09C74.18,-28.41 85.82,-23.37 95.46,-19.2"/>
<polygon fill="#63b8ff" stroke="#63b8ff" points="62.07,-29.83 54.28,-37.02 64.84,-36.26 62.07,-29.83"/>
</a>
</g>
</g>
</g>
</svg>
