<?xml version="1.0" encoding="UTF-8" standalone="no"?>
<!DOCTYPE svg PUBLIC "-//W3C//DTD SVG 1.1//EN"
 "http://www.w3.org/Graphics/SVG/1.1/DTD/svg11.dtd">
<!-- Generated by graphviz version 12.2.1 (20241206.2353)
 -->
<!-- Title: TullipApp/x64/Debug/qt/moc/moc_ChildEntry.cpp Pages: 1 -->
<!--zoomable 320 -->

<svg id="main" version="1.1" xmlns="http://www.w3.org/2000/svg" xmlns:xlink="http://www.w3.org/1999/xlink" xml:space="preserve" onload="init(evt)">

<style type="text/css"><![CDATA[
.node, .edge {opacity: 0.7;}
.node.selected, .edge.selected {opacity: 1;}
.edge:hover path { stroke: red; }
.edge:hover polygon { stroke: red; fill: red; }
]]></style>

<defs>
  <circle id="rim" cx="0" cy="0" r="7"/>
  <circle id="rim2" cx="0" cy="0" r="3.5"/>
  <g id="zoomPlus">
    <use xlink:href="#rim" fill="#404040"><set attributeName="fill" to="#808080" begin="zoomplus.mouseover" end="zoomplus.mouseout"/></use>
    <path d="M-4,0h8M0,-4v8" fill="none" stroke="white" stroke-width="1.5" pointer-events="none"/>
  </g>
  <g id="zoomMin">
    <use xlink:href="#rim" fill="#404040"><set attributeName="fill" to="#808080" begin="zoomminus.mouseover" end="zoomminus.mouseout"/></use>
    <path d="M-4,0h8" fill="none" stroke="white" stroke-width="1.5" pointer-events="none"/>
  </g>
  <g id="arrowUp" transform="translate(30 24)">
    <use xlink:href="#rim"/>
    <path pointer-events="none" fill="none" stroke="white" stroke-width="1.5" d="M0,-3.0v7 M-2.5,-0.5L0,-3.0L2.5,-0.5"/>
  </g>
  <g id="arrowRight" transform="rotate(90) translate(36 -43)">
    <use xlink:href="#rim"/>
    <path pointer-events="none" fill="none" stroke="white" stroke-width="1.5" d="M0,-3.0v7 M-2.5,-0.5L0,-3.0L2.5,-0.5"/>
  </g>
  <g id="arrowDown" transform="rotate(180) translate(-30 -48)">
    <use xlink:href="#rim"/>
    <path pointer-events="none" fill="none" stroke="white" stroke-width="1.5" d="M0,-3.0v7 M-2.5,-0.5L0,-3.0L2.5,-0.5"/>
  </g>
  <g id="arrowLeft" transform="rotate(270) translate(-36 17)">
    <use xlink:href="#rim"/>
    <path pointer-events="none" fill="none" stroke="white" stroke-width="1.5" d="M0,-3.0v7 M-2.5,-0.5L0,-3.0L2.5,-0.5"/>
  </g>
  <g id="resetDef">
    <use xlink:href="#rim2" fill="#404040"><set attributeName="fill" to="#808080" begin="reset.mouseover" end="reset.mouseout"/></use>
  </g>
</defs>
<script type="application/ecmascript">
var viewWidth = 1535;
var viewHeight = 320;
var sectionId = 'dynsection-0';
</script>
<script type="application/ecmascript" xlink:href="svg.min.js"/>
<svg id="graph" class="graph">
<g id="viewport">
<title>TullipApp/x64/Debug/qt/moc/moc_ChildEntry.cpp</title>
<!-- Node1 -->
<g id="Node000001" class="node">
<title>Node1</title>
<g id="a_Node000001"><a xlink:title=" ">
<polygon fill="#999999" stroke="#666666" points="809.88,-312 670.12,-312 670.12,-280 809.88,-280 809.88,-312"/>
<text text-anchor="start" x="678.12" y="-298.5" font-family="Helvetica,sans-Serif" font-size="10.00">TullipApp/x64/Debug</text>
<text text-anchor="middle" x="740" y="-286.5" font-family="Helvetica,sans-Serif" font-size="10.00">/qt/moc/moc_ChildEntry.cpp</text>
</a>
</g>
</g>
<!-- Node2 -->
<g id="Node000002" class="node">
<title>Node2</title>
<g id="a_Node000002"><a xlink:href="_child_entry_8h.html" target="_top" xlink:title="Defines the ChildEntry class for managing the graphical representation of a child in the GUI.">
<polygon fill="white" stroke="#666666" points="540.62,-244 435.38,-244 435.38,-224 540.62,-224 540.62,-244"/>
<text text-anchor="middle" x="488" y="-230.5" font-family="Helvetica,sans-Serif" font-size="10.00">../../../../ChildEntry.h</text>
</a>
</g>
</g>
<!-- Node1&#45;&gt;Node2 -->
<g id="edge1_Node000001_Node000002" class="edge">
<title>Node1&#45;&gt;Node2</title>
<g id="a_edge1_Node000001_Node000002"><a xlink:title=" ">
<path fill="none" stroke="#63b8ff" d="M675.1,-279.55C632.76,-269.47 578.28,-256.49 539.03,-247.15"/>
<polygon fill="#63b8ff" stroke="#63b8ff" points="539.9,-243.76 529.36,-244.85 538.27,-250.57 539.9,-243.76"/>
</a>
</g>
</g>
<!-- Node26 -->
<g id="Node000026" class="node">
<title>Node26</title>
<g id="a_Node000026"><a xlink:title=" ">
<polygon fill="#e0e0e0" stroke="#999999" points="663.25,-244 558.75,-244 558.75,-224 663.25,-224 663.25,-244"/>
<text text-anchor="middle" x="611" y="-230.5" font-family="Helvetica,sans-Serif" font-size="10.00">QtCore/qmetatype.h</text>
</a>
</g>
</g>
<!-- Node1&#45;&gt;Node26 -->
<g id="edge33_Node000001_Node000026" class="edge">
<title>Node1&#45;&gt;Node26</title>
<g id="a_edge33_Node000001_Node000026"><a xlink:title=" ">
<path fill="none" stroke="#63b8ff" d="M706.78,-279.55C686.62,-270.17 661.09,-258.3 641.46,-249.17"/>
<polygon fill="#63b8ff" stroke="#63b8ff" points="643.14,-246.09 632.6,-245.05 640.19,-252.44 643.14,-246.09"/>
</a>
</g>
</g>
<!-- Node27 -->
<g id="Node000027" class="node">
<title>Node27</title>
<g id="a_Node000027"><a xlink:title=" ">
<polygon fill="#e0e0e0" stroke="#999999" points="798.62,-244 681.38,-244 681.38,-224 798.62,-224 798.62,-244"/>
<text text-anchor="middle" x="740" y="-230.5" font-family="Helvetica,sans-Serif" font-size="10.00">QtCore/qtmochelpers.h</text>
</a>
</g>
</g>
<!-- Node1&#45;&gt;Node27 -->
<g id="edge34_Node000001_Node000027" class="edge">
<title>Node1&#45;&gt;Node27</title>
<g id="a_edge34_Node000001_Node000027"><a xlink:title=" ">
<path fill="none" stroke="#63b8ff" d="M740,-279.55C740,-272.34 740,-263.66 740,-255.88"/>
<polygon fill="#63b8ff" stroke="#63b8ff" points="743.5,-255.92 740,-245.92 736.5,-255.92 743.5,-255.92"/>
</a>
</g>
</g>
<!-- Node28 -->
<g id="Node000028" class="node">
<title>Node28</title>
<g id="a_Node000028"><a xlink:title=" ">
<polygon fill="#e0e0e0" stroke="#999999" points="867.62,-244 816.38,-244 816.38,-224 867.62,-224 867.62,-244"/>
<text text-anchor="middle" x="842" y="-230.5" font-family="Helvetica,sans-Serif" font-size="10.00">memory</text>
</a>
</g>
</g>
<!-- Node1&#45;&gt;Node28 -->
<g id="edge35_Node000001_Node000028" class="edge">
<title>Node1&#45;&gt;Node28</title>
<g id="a_edge35_Node000001_Node000028"><a xlink:title=" ">
<path fill="none" stroke="#63b8ff" d="M766.27,-279.55C781.61,-270.52 800.9,-259.17 816.17,-250.19"/>
<polygon fill="#63b8ff" stroke="#63b8ff" points="817.86,-253.26 824.7,-245.18 814.31,-247.23 817.86,-253.26"/>
</a>
</g>
</g>
<!-- Node29 -->
<g id="Node000029" class="node">
<title>Node29</title>
<g id="a_Node000029"><a xlink:title=" ">
<polygon fill="#e0e0e0" stroke="#999999" points="1006.12,-244 885.88,-244 885.88,-224 1006.12,-224 1006.12,-244"/>
<text text-anchor="middle" x="946" y="-230.5" font-family="Helvetica,sans-Serif" font-size="10.00">QtCore/qxptype_traits.h</text>
</a>
</g>
</g>
<!-- Node1&#45;&gt;Node29 -->
<g id="edge36_Node000001_Node000029" class="edge">
<title>Node1&#45;&gt;Node29</title>
<g id="a_edge36_Node000001_Node000029"><a xlink:title=" ">
<path fill="none" stroke="#63b8ff" d="M793.05,-279.55C827.07,-269.64 870.68,-256.94 902.62,-247.64"/>
<polygon fill="#63b8ff" stroke="#63b8ff" points="903.32,-251.08 911.94,-244.92 901.36,-244.36 903.32,-251.08"/>
</a>
</g>
</g>
<!-- Node3 -->
<g id="Node000003" class="node">
<title>Node3</title>
<g id="a_Node000003"><a xlink:title=" ">
<polygon fill="#e0e0e0" stroke="#999999" points="429.12,-188 374.88,-188 374.88,-168 429.12,-168 429.12,-188"/>
<text text-anchor="middle" x="402" y="-174.5" font-family="Helvetica,sans-Serif" font-size="10.00">QWidget</text>
</a>
</g>
</g>
<!-- Node2&#45;&gt;Node3 -->
<g id="edge2_Node000002_Node000003" class="edge">
<title>Node2&#45;&gt;Node3</title>
<g id="a_edge2_Node000002_Node000003"><a xlink:title=" ">
<path fill="none" stroke="#63b8ff" d="M473.02,-223.59C460.27,-215.59 441.71,-203.93 426.76,-194.54"/>
<polygon fill="#63b8ff" stroke="#63b8ff" points="428.71,-191.64 418.38,-189.28 424.99,-197.57 428.71,-191.64"/>
</a>
</g>
</g>
<!-- Node4 -->
<g id="Node000004" class="node">
<title>Node4</title>
<g id="a_Node000004"><a xlink:href="ui___child_entry_8h.html" target="_top" xlink:title=" ">
<polygon fill="white" stroke="#666666" points="529,-188 447,-188 447,-168 529,-168 529,-188"/>
<text text-anchor="middle" x="488" y="-174.5" font-family="Helvetica,sans-Serif" font-size="10.00">ui_ChildEntry.h</text>
</a>
</g>
</g>
<!-- Node2&#45;&gt;Node4 -->
<g id="edge3_Node000002_Node000004" class="edge">
<title>Node2&#45;&gt;Node4</title>
<g id="a_edge3_Node000002_Node000004"><a xlink:title=" ">
<path fill="none" stroke="#63b8ff" d="M488,-223.59C488,-217.01 488,-207.96 488,-199.73"/>
<polygon fill="#63b8ff" stroke="#63b8ff" points="491.5,-199.81 488,-189.81 484.5,-199.81 491.5,-199.81"/>
</a>
</g>
</g>
<!-- Node12 -->
<g id="Node000012" class="node">
<title>Node12</title>
<g id="a_Node000012"><a xlink:href="_person_8h.html" target="_top" xlink:title="Defines the Person class and its derived classes: Child, Parent, and Employee.">
<polygon fill="white" stroke="#666666" points="1301.5,-188 1246.5,-188 1246.5,-168 1301.5,-168 1301.5,-188"/>
<text text-anchor="middle" x="1274" y="-174.5" font-family="Helvetica,sans-Serif" font-size="10.00">Person.h</text>
</a>
</g>
</g>
<!-- Node2&#45;&gt;Node12 -->
<g id="edge11_Node000002_Node000012" class="edge">
<title>Node2&#45;&gt;Node12</title>
<g id="a_edge11_Node000002_Node000012"><a xlink:title=" ">
<path fill="none" stroke="#63b8ff" d="M541.06,-225C544.08,-224.64 547.08,-224.3 550,-224 810.8,-197.01 1126.25,-184.16 1234.97,-180.3"/>
<polygon fill="#63b8ff" stroke="#63b8ff" points="1234.93,-183.8 1244.8,-179.95 1234.69,-176.81 1234.93,-183.8"/>
</a>
</g>
</g>
<!-- Node5 -->
<g id="Node000005" class="node">
<title>Node5</title>
<g id="a_Node000005"><a xlink:title=" ">
<polygon fill="#e0e0e0" stroke="#999999" points="88,-132 0,-132 0,-112 88,-112 88,-132"/>
<text text-anchor="middle" x="44" y="-118.5" font-family="Helvetica,sans-Serif" font-size="10.00">QtCore/QVariant</text>
</a>
</g>
</g>
<!-- Node4&#45;&gt;Node5 -->
<g id="edge4_Node000004_Node000005" class="edge">
<title>Node4&#45;&gt;Node5</title>
<g id="a_edge4_Node000004_Node000005"><a xlink:title=" ">
<path fill="none" stroke="#63b8ff" d="M446.57,-169.3C443.67,-168.84 440.79,-168.4 438,-168 290.66,-146.99 249.87,-152.49 99.25,-132.23"/>
<polygon fill="#63b8ff" stroke="#63b8ff" points="100.1,-128.81 89.71,-130.93 99.15,-135.74 100.1,-128.81"/>
</a>
</g>
</g>
<!-- Node6 -->
<g id="Node000006" class="node">
<title>Node6</title>
<g id="a_Node000006"><a xlink:title=" ">
<polygon fill="#e0e0e0" stroke="#999999" points="227.5,-132 106.5,-132 106.5,-112 227.5,-112 227.5,-132"/>
<text text-anchor="middle" x="167" y="-118.5" font-family="Helvetica,sans-Serif" font-size="10.00">QtWidgets/QApplication</text>
</a>
</g>
</g>
<!-- Node4&#45;&gt;Node6 -->
<g id="edge5_Node000004_Node000006" class="edge">
<title>Node4&#45;&gt;Node6</title>
<g id="a_edge5_Node000004_Node000006"><a xlink:title=" ">
<path fill="none" stroke="#63b8ff" d="M446.54,-169.49C443.65,-168.98 440.78,-168.48 438,-168 369.67,-156.18 291.53,-143.27 236.77,-134.32"/>
<polygon fill="#63b8ff" stroke="#63b8ff" points="237.38,-130.87 226.95,-132.72 236.25,-137.78 237.38,-130.87"/>
</a>
</g>
</g>
<!-- Node7 -->
<g id="Node000007" class="node">
<title>Node7</title>
<g id="a_Node000007"><a xlink:title=" ">
<polygon fill="#e0e0e0" stroke="#999999" points="346.38,-132 245.62,-132 245.62,-112 346.38,-112 346.38,-132"/>
<text text-anchor="middle" x="296" y="-118.5" font-family="Helvetica,sans-Serif" font-size="10.00">QtWidgets/QFrame</text>
</a>
</g>
</g>
<!-- Node4&#45;&gt;Node7 -->
<g id="edge6_Node000004_Node000007" class="edge">
<title>Node4&#45;&gt;Node7</title>
<g id="a_edge6_Node000004_Node000007"><a xlink:title=" ">
<path fill="none" stroke="#63b8ff" d="M454.56,-167.59C422.95,-158.71 375.32,-145.31 340.52,-135.52"/>
<polygon fill="#63b8ff" stroke="#63b8ff" points="341.74,-132.23 331.16,-132.89 339.84,-138.97 341.74,-132.23"/>
</a>
</g>
</g>
<!-- Node8 -->
<g id="Node000008" class="node">
<title>Node8</title>
<g id="a_Node000008"><a xlink:title=" ">
<polygon fill="#e0e0e0" stroke="#999999" points="485.12,-132 364.88,-132 364.88,-112 485.12,-112 485.12,-132"/>
<text text-anchor="middle" x="425" y="-118.5" font-family="Helvetica,sans-Serif" font-size="10.00">QtWidgets/QGridLayout</text>
</a>
</g>
</g>
<!-- Node4&#45;&gt;Node8 -->
<g id="edge7_Node000004_Node000008" class="edge">
<title>Node4&#45;&gt;Node8</title>
<g id="a_edge7_Node000004_Node000008"><a xlink:title=" ">
<path fill="none" stroke="#63b8ff" d="M477.03,-167.59C468.08,-159.93 455.23,-148.91 444.54,-139.75"/>
<polygon fill="#63b8ff" stroke="#63b8ff" points="446.87,-137.13 437,-133.28 442.31,-142.45 446.87,-137.13"/>
</a>
</g>
</g>
<!-- Node9 -->
<g id="Node000009" class="node">
<title>Node9</title>
<g id="a_Node000009"><a xlink:title=" ">
<polygon fill="#e0e0e0" stroke="#999999" points="599.12,-132 502.88,-132 502.88,-112 599.12,-112 599.12,-132"/>
<text text-anchor="middle" x="551" y="-118.5" font-family="Helvetica,sans-Serif" font-size="10.00">QtWidgets/QLabel</text>
</a>
</g>
</g>
<!-- Node4&#45;&gt;Node9 -->
<g id="edge8_Node000004_Node000009" class="edge">
<title>Node4&#45;&gt;Node9</title>
<g id="a_edge8_Node000004_Node000009"><a xlink:title=" ">
<path fill="none" stroke="#63b8ff" d="M498.97,-167.59C507.92,-159.93 520.77,-148.91 531.46,-139.75"/>
<polygon fill="#63b8ff" stroke="#63b8ff" points="533.69,-142.45 539,-133.28 529.13,-137.13 533.69,-142.45"/>
</a>
</g>
</g>
<!-- Node10 -->
<g id="Node000010" class="node">
<title>Node10</title>
<g id="a_Node000010"><a xlink:title=" ">
<polygon fill="#e0e0e0" stroke="#999999" points="741,-132 617,-132 617,-112 741,-112 741,-132"/>
<text text-anchor="middle" x="679" y="-118.5" font-family="Helvetica,sans-Serif" font-size="10.00">QtWidgets/QPushButton</text>
</a>
</g>
</g>
<!-- Node4&#45;&gt;Node10 -->
<g id="edge9_Node000004_Node000010" class="edge">
<title>Node4&#45;&gt;Node10</title>
<g id="a_edge9_Node000004_Node000010"><a xlink:title=" ">
<path fill="none" stroke="#63b8ff" d="M521.27,-167.59C552.71,-158.71 600.09,-145.31 634.71,-135.52"/>
<polygon fill="#63b8ff" stroke="#63b8ff" points="635.34,-138.98 644.01,-132.89 633.44,-132.24 635.34,-138.98"/>
</a>
</g>
</g>
<!-- Node11 -->
<g id="Node000011" class="node">
<title>Node11</title>
<g id="a_Node000011"><a xlink:title=" ">
<polygon fill="#e0e0e0" stroke="#999999" points="862.88,-132 759.12,-132 759.12,-112 862.88,-112 862.88,-132"/>
<text text-anchor="middle" x="811" y="-118.5" font-family="Helvetica,sans-Serif" font-size="10.00">QtWidgets/QWidget</text>
</a>
</g>
</g>
<!-- Node4&#45;&gt;Node11 -->
<g id="edge10_Node000004_Node000011" class="edge">
<title>Node4&#45;&gt;Node11</title>
<g id="a_edge10_Node000004_Node000011"><a xlink:title=" ">
<path fill="none" stroke="#63b8ff" d="M529.24,-170.11C584.43,-160.88 682.85,-144.42 747.53,-133.61"/>
<polygon fill="#63b8ff" stroke="#63b8ff" points="748.02,-137.08 757.3,-131.98 746.86,-130.17 748.02,-137.08"/>
</a>
</g>
</g>
<!-- Node13 -->
<g id="Node000013" class="node">
<title>Node13</title>
<g id="a_Node000013"><a xlink:title=" ">
<polygon fill="#e0e0e0" stroke="#999999" points="1072,-20 1032,-20 1032,0 1072,0 1072,-20"/>
<text text-anchor="middle" x="1052" y="-6.5" font-family="Helvetica,sans-Serif" font-size="10.00">string</text>
</a>
</g>
</g>
<!-- Node12&#45;&gt;Node13 -->
<g id="edge12_Node000012_Node000013" class="edge">
<title>Node12&#45;&gt;Node13</title>
<g id="a_edge12_Node000012_Node000013"><a xlink:title=" ">
<path fill="none" stroke="#63b8ff" d="M1246.1,-173.64C1168.1,-163.63 950.81,-131.16 910,-76 879.77,-35.14 969.97,-19.26 1020.42,-13.7"/>
<polygon fill="#63b8ff" stroke="#63b8ff" points="1020.61,-17.19 1030.2,-12.7 1019.9,-10.23 1020.61,-17.19"/>
</a>
</g>
</g>
<!-- Node14 -->
<g id="Node000014" class="node">
<title>Node14</title>
<g id="a_Node000014"><a xlink:title=" ">
<polygon fill="#e0e0e0" stroke="#999999" points="1458.62,-132 1419.38,-132 1419.38,-112 1458.62,-112 1458.62,-132"/>
<text text-anchor="middle" x="1439" y="-118.5" font-family="Helvetica,sans-Serif" font-size="10.00">utility</text>
</a>
</g>
</g>
<!-- Node12&#45;&gt;Node14 -->
<g id="edge13_Node000012_Node000014" class="edge">
<title>Node12&#45;&gt;Node14</title>
<g id="a_edge13_Node000012_Node000014"><a xlink:title=" ">
<path fill="none" stroke="#63b8ff" d="M1301.99,-167.84C1331.5,-158.18 1377.86,-143.01 1408.34,-133.03"/>
<polygon fill="#63b8ff" stroke="#63b8ff" points="1409.33,-136.39 1417.74,-129.96 1407.15,-129.74 1409.33,-136.39"/>
</a>
</g>
</g>
<!-- Node15 -->
<g id="Node000015" class="node">
<title>Node15</title>
<g id="a_Node000015"><a xlink:title=" ">
<polygon fill="#e0e0e0" stroke="#999999" points="1483.5,-20 1440.5,-20 1440.5,0 1483.5,0 1483.5,-20"/>
<text text-anchor="middle" x="1462" y="-6.5" font-family="Helvetica,sans-Serif" font-size="10.00">vector</text>
</a>
</g>
</g>
<!-- Node12&#45;&gt;Node15 -->
<g id="edge14_Node000012_Node000015" class="edge">
<title>Node12&#45;&gt;Node15</title>
<g id="a_edge14_Node000012_Node000015"><a xlink:title=" ">
<path fill="none" stroke="#63b8ff" d="M1284.65,-167.6C1315.28,-140.55 1403.95,-62.26 1443.07,-27.71"/>
<polygon fill="#63b8ff" stroke="#63b8ff" points="1445.16,-30.54 1450.34,-21.3 1440.52,-25.29 1445.16,-30.54"/>
</a>
</g>
</g>
<!-- Node16 -->
<g id="Node000016" class="node">
<title>Node16</title>
<g id="a_Node000016"><a xlink:title=" ">
<polygon fill="#e0e0e0" stroke="#999999" points="1526.88,-132 1477.12,-132 1477.12,-112 1526.88,-112 1526.88,-132"/>
<text text-anchor="middle" x="1502" y="-118.5" font-family="Helvetica,sans-Serif" font-size="10.00">optional</text>
</a>
</g>
</g>
<!-- Node12&#45;&gt;Node16 -->
<g id="edge15_Node000012_Node000016" class="edge">
<title>Node12&#45;&gt;Node16</title>
<g id="a_edge15_Node000012_Node000016"><a xlink:title=" ">
<path fill="none" stroke="#63b8ff" d="M1301.69,-170.86C1337.33,-162.89 1401.43,-148.37 1465.63,-132.53"/>
<polygon fill="#63b8ff" stroke="#63b8ff" points="1466.44,-135.94 1475.3,-130.13 1464.75,-129.14 1466.44,-135.94"/>
</a>
</g>
</g>
<!-- Node17 -->
<g id="Node000017" class="node">
<title>Node17</title>
<g id="a_Node000017"><a xlink:href="_date_time_8h.html" target="_top" xlink:title="Defines classes and utilities for working with dates, times, and combined date&#45;time values.">
<polygon fill="white" stroke="#666666" points="1268.5,-132 1201.5,-132 1201.5,-112 1268.5,-112 1268.5,-132"/>
<text text-anchor="middle" x="1235" y="-118.5" font-family="Helvetica,sans-Serif" font-size="10.00">DateTime.h</text>
</a>
</g>
</g>
<!-- Node12&#45;&gt;Node17 -->
<g id="edge16_Node000012_Node000017" class="edge">
<title>Node12&#45;&gt;Node17</title>
<g id="a_edge16_Node000012_Node000017"><a xlink:title=" ">
<path fill="none" stroke="#63b8ff" d="M1267.21,-167.59C1262.01,-160.39 1254.67,-150.23 1248.31,-141.43"/>
<polygon fill="#63b8ff" stroke="#63b8ff" points="1251.29,-139.58 1242.6,-133.53 1245.62,-143.68 1251.29,-139.58"/>
</a>
</g>
</g>
<!-- Node18 -->
<g id="Node000018" class="node">
<title>Node18</title>
<g id="a_Node000018"><a xlink:href="_helper___functions_8h.html" target="_top" xlink:title="Provides utility functions and templates for common operations.">
<polygon fill="white" stroke="#666666" points="1363.38,-76 1262.62,-76 1262.62,-56 1363.38,-56 1363.38,-76"/>
<text text-anchor="middle" x="1313" y="-62.5" font-family="Helvetica,sans-Serif" font-size="10.00">Helper_Functions.h</text>
</a>
</g>
</g>
<!-- Node12&#45;&gt;Node18 -->
<g id="edge32_Node000012_Node000018" class="edge">
<title>Node12&#45;&gt;Node18</title>
<g id="a_edge32_Node000012_Node000018"><a xlink:title=" ">
<path fill="none" stroke="#63b8ff" d="M1277.33,-167.62C1283.63,-149.84 1297.44,-110.88 1305.91,-87"/>
<polygon fill="#63b8ff" stroke="#63b8ff" points="1309.13,-88.38 1309.18,-77.78 1302.54,-86.04 1309.13,-88.38"/>
</a>
</g>
</g>
<!-- Node25 -->
<g id="Node000025" class="node">
<title>Node25</title>
<g id="a_Node000025"><a xlink:href="_data___helper___types_8h.html" target="_top" xlink:title="Defines utility classes for managing contact&#45;related data such as email, phone, and address.">
<polygon fill="white" stroke="#666666" points="1029.25,-76 918.75,-76 918.75,-56 1029.25,-56 1029.25,-76"/>
<text text-anchor="middle" x="974" y="-62.5" font-family="Helvetica,sans-Serif" font-size="10.00">Data_Helper_Types.h</text>
</a>
</g>
</g>
<!-- Node12&#45;&gt;Node25 -->
<g id="edge30_Node000012_Node000025" class="edge">
<title>Node12&#45;&gt;Node25</title>
<g id="a_edge30_Node000012_Node000025"><a xlink:title=" ">
<path fill="none" stroke="#63b8ff" d="M1248.16,-167.53C1194.78,-147.95 1072.16,-102.99 1010.63,-80.43"/>
<polygon fill="#63b8ff" stroke="#63b8ff" points="1011.9,-77.17 1001.3,-77.01 1009.49,-83.74 1011.9,-77.17"/>
</a>
</g>
</g>
<!-- Node17&#45;&gt;Node13 -->
<g id="edge29_Node000017_Node000013" class="edge">
<title>Node17&#45;&gt;Node13</title>
<g id="a_edge29_Node000017_Node000013"><a xlink:title=" ">
<path fill="none" stroke="#63b8ff" d="M1201.18,-119.92C1165.99,-117.03 1111.31,-107.37 1077,-76 1064.44,-64.52 1058.13,-46.01 1055,-31.67"/>
<polygon fill="#63b8ff" stroke="#63b8ff" points="1058.46,-31.15 1053.25,-21.92 1051.57,-32.38 1058.46,-31.15"/>
</a>
</g>
</g>
<!-- Node17&#45;&gt;Node18 -->
<g id="edge17_Node000017_Node000018" class="edge">
<title>Node17&#45;&gt;Node18</title>
<g id="a_edge17_Node000017_Node000018"><a xlink:title=" ">
<path fill="none" stroke="#63b8ff" d="M1248.59,-111.59C1260.04,-103.67 1276.66,-92.16 1290.16,-82.82"/>
<polygon fill="#63b8ff" stroke="#63b8ff" points="1291.83,-85.91 1298.06,-77.34 1287.85,-80.16 1291.83,-85.91"/>
</a>
</g>
</g>
<!-- Node19 -->
<g id="Node000019" class="node">
<title>Node19</title>
<g id="a_Node000019"><a xlink:title=" ">
<polygon fill="#e0e0e0" stroke="#999999" points="1219.75,-20 1166.25,-20 1166.25,0 1219.75,0 1219.75,-20"/>
<text text-anchor="middle" x="1193" y="-6.5" font-family="Helvetica,sans-Serif" font-size="10.00">iostream</text>
</a>
</g>
</g>
<!-- Node17&#45;&gt;Node19 -->
<g id="edge28_Node000017_Node000019" class="edge">
<title>Node17&#45;&gt;Node19</title>
<g id="a_edge28_Node000017_Node000019"><a xlink:title=" ">
<path fill="none" stroke="#63b8ff" d="M1232.83,-111.56C1229.76,-98.74 1223.65,-75.23 1216,-56 1212.56,-47.36 1208.03,-38.15 1203.89,-30.34"/>
<polygon fill="#63b8ff" stroke="#63b8ff" points="1207.06,-28.84 1199.2,-21.74 1200.92,-32.19 1207.06,-28.84"/>
</a>
</g>
</g>
<!-- Node23 -->
<g id="Node000023" class="node">
<title>Node23</title>
<g id="a_Node000023"><a xlink:href="_date_time___exceptions_8h.html" target="_top" xlink:title="Defines error messages and the DateTimeError exception class for date and time operations.">
<polygon fill="white" stroke="#666666" points="1206.5,-76 1085.5,-76 1085.5,-56 1206.5,-56 1206.5,-76"/>
<text text-anchor="middle" x="1146" y="-62.5" font-family="Helvetica,sans-Serif" font-size="10.00">DateTime_Exceptions.h</text>
</a>
</g>
</g>
<!-- Node17&#45;&gt;Node23 -->
<g id="edge24_Node000017_Node000023" class="edge">
<title>Node17&#45;&gt;Node23</title>
<g id="a_edge24_Node000017_Node000023"><a xlink:title=" ">
<path fill="none" stroke="#63b8ff" d="M1219.5,-111.59C1206.18,-103.51 1186.72,-91.71 1171.17,-82.27"/>
<polygon fill="#63b8ff" stroke="#63b8ff" points="1173.28,-79.46 1162.92,-77.26 1169.65,-85.44 1173.28,-79.46"/>
</a>
</g>
</g>
<!-- Node18&#45;&gt;Node13 -->
<g id="edge19_Node000018_Node000013" class="edge">
<title>Node18&#45;&gt;Node13</title>
<g id="a_edge19_Node000018_Node000013"><a xlink:title=" ">
<path fill="none" stroke="#63b8ff" d="M1262.42,-56.83C1217.58,-49.22 1150.15,-36.89 1082.98,-20.28"/>
<polygon fill="#63b8ff" stroke="#63b8ff" points="1084.22,-16.98 1073.67,-17.95 1082.52,-23.77 1084.22,-16.98"/>
</a>
</g>
</g>
<!-- Node18&#45;&gt;Node15 -->
<g id="edge20_Node000018_Node000015" class="edge">
<title>Node18&#45;&gt;Node15</title>
<g id="a_edge20_Node000018_Node000015"><a xlink:title=" ">
<path fill="none" stroke="#63b8ff" d="M1338.95,-55.59C1364.16,-46.46 1402.51,-32.56 1429.68,-22.71"/>
<polygon fill="#63b8ff" stroke="#63b8ff" points="1430.58,-26.11 1438.79,-19.41 1428.2,-19.53 1430.58,-26.11"/>
</a>
</g>
</g>
<!-- Node18&#45;&gt;Node19 -->
<g id="edge18_Node000018_Node000019" class="edge">
<title>Node18&#45;&gt;Node19</title>
<g id="a_edge18_Node000018_Node000019"><a xlink:title=" ">
<path fill="none" stroke="#63b8ff" d="M1292.1,-55.59C1273.37,-47.17 1245.64,-34.69 1224.28,-25.07"/>
<polygon fill="#63b8ff" stroke="#63b8ff" points="1226,-22.01 1215.45,-21.1 1223.13,-28.4 1226,-22.01"/>
</a>
</g>
</g>
<!-- Node20 -->
<g id="Node000020" class="node">
<title>Node20</title>
<g id="a_Node000020"><a xlink:title=" ">
<polygon fill="#e0e0e0" stroke="#999999" points="1345.88,-20 1290.12,-20 1290.12,0 1345.88,0 1345.88,-20"/>
<text text-anchor="middle" x="1318" y="-6.5" font-family="Helvetica,sans-Serif" font-size="10.00">algorithm</text>
</a>
</g>
</g>
<!-- Node18&#45;&gt;Node20 -->
<g id="edge21_Node000018_Node000020" class="edge">
<title>Node18&#45;&gt;Node20</title>
<g id="a_edge21_Node000018_Node000020"><a xlink:title=" ">
<path fill="none" stroke="#63b8ff" d="M1313.87,-55.59C1314.48,-49.01 1315.32,-39.96 1316.08,-31.73"/>
<polygon fill="#63b8ff" stroke="#63b8ff" points="1319.56,-32.09 1317,-21.81 1312.59,-31.44 1319.56,-32.09"/>
</a>
</g>
</g>
<!-- Node21 -->
<g id="Node000021" class="node">
<title>Node21</title>
<g id="a_Node000021"><a xlink:title=" ">
<polygon fill="#e0e0e0" stroke="#999999" points="1422,-20 1364,-20 1364,0 1422,0 1422,-20"/>
<text text-anchor="middle" x="1393" y="-6.5" font-family="Helvetica,sans-Serif" font-size="10.00">functional</text>
</a>
</g>
</g>
<!-- Node18&#45;&gt;Node21 -->
<g id="edge22_Node000018_Node000021" class="edge">
<title>Node18&#45;&gt;Node21</title>
<g id="a_edge22_Node000018_Node000021"><a xlink:title=" ">
<path fill="none" stroke="#63b8ff" d="M1326.93,-55.59C1338.68,-47.67 1355.73,-36.16 1369.57,-26.82"/>
<polygon fill="#63b8ff" stroke="#63b8ff" points="1371.37,-29.82 1377.7,-21.33 1367.46,-24.02 1371.37,-29.82"/>
</a>
</g>
</g>
<!-- Node22 -->
<g id="Node000022" class="node">
<title>Node22</title>
<g id="a_Node000022"><a xlink:title=" ">
<polygon fill="#e0e0e0" stroke="#999999" points="1272.38,-20 1237.62,-20 1237.62,0 1272.38,0 1272.38,-20"/>
<text text-anchor="middle" x="1255" y="-6.5" font-family="Helvetica,sans-Serif" font-size="10.00">map</text>
</a>
</g>
</g>
<!-- Node18&#45;&gt;Node22 -->
<g id="edge23_Node000018_Node000022" class="edge">
<title>Node18&#45;&gt;Node22</title>
<g id="a_edge23_Node000018_Node000022"><a xlink:title=" ">
<path fill="none" stroke="#63b8ff" d="M1302.9,-55.59C1294.75,-48.01 1283.07,-37.13 1273.28,-28.02"/>
<polygon fill="#63b8ff" stroke="#63b8ff" points="1275.8,-25.58 1266.09,-21.33 1271.03,-30.71 1275.8,-25.58"/>
</a>
</g>
</g>
<!-- Node23&#45;&gt;Node13 -->
<g id="edge25_Node000023_Node000013" class="edge">
<title>Node23&#45;&gt;Node13</title>
<g id="a_edge25_Node000023_Node000013"><a xlink:title=" ">
<path fill="none" stroke="#63b8ff" d="M1129.63,-55.59C1115.43,-47.44 1094.62,-35.48 1078.12,-26"/>
<polygon fill="#63b8ff" stroke="#63b8ff" points="1080.23,-23.18 1069.81,-21.23 1076.74,-29.25 1080.23,-23.18"/>
</a>
</g>
</g>
<!-- Node23&#45;&gt;Node19 -->
<g id="edge26_Node000023_Node000019" class="edge">
<title>Node23&#45;&gt;Node19</title>
<g id="a_edge26_Node000023_Node000019"><a xlink:title=" ">
<path fill="none" stroke="#63b8ff" d="M1154.19,-55.59C1160.59,-48.24 1169.68,-37.8 1177.45,-28.87"/>
<polygon fill="#63b8ff" stroke="#63b8ff" points="1179.99,-31.28 1183.91,-21.44 1174.71,-26.69 1179.99,-31.28"/>
</a>
</g>
</g>
<!-- Node24 -->
<g id="Node000024" class="node">
<title>Node24</title>
<g id="a_Node000024"><a xlink:title=" ">
<polygon fill="#e0e0e0" stroke="#999999" points="1148,-20 1090,-20 1090,0 1148,0 1148,-20"/>
<text text-anchor="middle" x="1119" y="-6.5" font-family="Helvetica,sans-Serif" font-size="10.00">exception</text>
</a>
</g>
</g>
<!-- Node23&#45;&gt;Node24 -->
<g id="edge27_Node000023_Node000024" class="edge">
<title>Node23&#45;&gt;Node24</title>
<g id="a_edge27_Node000023_Node000024"><a xlink:title=" ">
<path fill="none" stroke="#63b8ff" d="M1141.3,-55.59C1137.85,-48.7 1133.05,-39.1 1128.79,-30.57"/>
<polygon fill="#63b8ff" stroke="#63b8ff" points="1131.93,-29.03 1124.33,-21.65 1125.67,-32.16 1131.93,-29.03"/>
</a>
</g>
</g>
<!-- Node25&#45;&gt;Node13 -->
<g id="edge31_Node000025_Node000013" class="edge">
<title>Node25&#45;&gt;Node13</title>
<g id="a_edge31_Node000025_Node000013"><a xlink:title=" ">
<path fill="none" stroke="#63b8ff" d="M987.59,-55.59C999.04,-47.67 1015.66,-36.16 1029.16,-26.82"/>
<polygon fill="#63b8ff" stroke="#63b8ff" points="1030.83,-29.91 1037.06,-21.34 1026.85,-24.16 1030.83,-29.91"/>
</a>
</g>
</g>
</g>
</svg>

<g id="navigator" transform="translate(0 0)" fill="#404254">
  <rect fill="#f2f5e9" fill-opacity="0.5" stroke="#606060" stroke-width=".5" x="0" y="0" width="60" height="60"/>
  <use id="zoomplus" xlink:href="#zoomPlus" x="17" y="9" onmousedown="handleZoom(evt,'in')"/>
  <use id="zoomminus" xlink:href="#zoomMin" x="42" y="9" onmousedown="handleZoom(evt,'out')"/>
  <use id="reset" xlink:href="#resetDef" x="30" y="36" onmousedown="handleReset()"/>
   <use id="arrowup" xlink:href="#arrowUp" x="0" y="0" onmousedown="handlePan(0,-1)"/>
  <use id="arrowright" xlink:href="#arrowRight" x="0" y="0" onmousedown="handlePan(1,0)"/>
  <use id="arrowdown" xlink:href="#arrowDown" x="0" y="0" onmousedown="handlePan(0,1)"/>
  <use id="arrowleft" xlink:href="#arrowLeft" x="0" y="0" onmousedown="handlePan(-1,0)"/>
</g>
<svg viewBox="0 0 15 15" width="100%" height="30px" preserveAspectRatio="xMaxYMin meet">
 <g id="arrow_out" transform="scale(0.3 0.3)">
  <a xlink:href="moc___child_entry_8cpp__incl_org.svg" target="_base">
   <rect id="button" ry="5" rx="5" y="6" x="6" height="38" width="38"
        fill="#f2f5e9" fill-opacity="0.5" stroke="#606060" stroke-width="1.0"/>
   <path id="arrow"
     d="M 11.500037,31.436501 C 11.940474,20.09759 22.043105,11.32322 32.158766,21.979434 L 37.068811,17.246167 C 37.068811,17.246167 37.088388,32 37.088388,32 L 22.160133,31.978069 C 22.160133,31.978069 26.997745,27.140456 26.997745,27.140456 C 18.528582,18.264221 13.291696,25.230495 11.500037,31.436501 z"
     style="fill:#404040;"/>
  </a>
 </g>
</svg>

<style type='text/css'>
<![CDATA[
[data-mouse-over-selected='false'] { opacity: 0.7; }
[data-mouse-over-selected='true']  { opacity: 1.0; }
]]>
</style>
<script type="application/ecmascript"><![CDATA[
document.addEventListener('DOMContentLoaded', (event) => {
  highlightEdges();
  highlightAdjacentNodes();
});
]]></script>
</svg>
