<?xml version="1.0" encoding="UTF-8" standalone="no"?>
<!DOCTYPE svg PUBLIC "-//W3C//DTD SVG 1.1//EN"
 "http://www.w3.org/Graphics/SVG/1.1/DTD/svg11.dtd">
<!-- Generated by graphviz version 12.2.1 (20241206.2353)
 -->
<!-- Title: TullipApp/x64/Debug/qt/uic/ui_ChildLabel.h Pages: 1 -->
<svg width="592pt" height="300pt"
 viewBox="0.00 0.00 591.75 300.00" xmlns="http://www.w3.org/2000/svg" xmlns:xlink="http://www.w3.org/1999/xlink">
<g id="graph0" class="graph" transform="scale(1 1) rotate(0) translate(4 296)">
<title>TullipApp/x64/Debug/qt/uic/ui_ChildLabel.h</title>
<!-- Node1 -->
<g id="Node000001" class="node">
<title>Node1</title>
<g id="a_Node000001"><a xlink:title=" ">
<polygon fill="#999999" stroke="#666666" points="411.25,-292 298.5,-292 298.5,-260 411.25,-260 411.25,-292"/>
<text text-anchor="start" x="306.5" y="-278.5" font-family="Helvetica,sans-Serif" font-size="10.00">TullipApp/x64/Debug</text>
<text text-anchor="middle" x="354.88" y="-266.5" font-family="Helvetica,sans-Serif" font-size="10.00">/qt/uic/ui_ChildLabel.h</text>
</a>
</g>
</g>
<!-- Node2 -->
<g id="Node000002" class="node">
<title>Node2</title>
<g id="a_Node000002"><a xlink:href="_child_label_8h.html" target="_top" xlink:title="Defines the ChildLabel class for displaying child name.">
<polygon fill="white" stroke="#666666" points="411.62,-224 298.12,-224 298.12,-204 411.62,-204 411.62,-224"/>
<text text-anchor="middle" x="354.88" y="-210.5" font-family="Helvetica,sans-Serif" font-size="10.00">TullipApp/ChildLabel.h</text>
</a>
</g>
</g>
<!-- Node1&#45;&gt;Node2 -->
<g id="edge1_Node000001_Node000002" class="edge">
<title>Node1&#45;&gt;Node2</title>
<g id="a_edge1_Node000001_Node000002"><a xlink:title=" ">
<path fill="none" stroke="#63b8ff" d="M354.88,-248.08C354.88,-239.6 354.88,-230.8 354.88,-224.41"/>
<polygon fill="#63b8ff" stroke="#63b8ff" points="351.38,-248.03 354.88,-258.03 358.38,-248.03 351.38,-248.03"/>
</a>
</g>
</g>
<!-- Node3 -->
<g id="Node000003" class="node">
<title>Node3</title>
<g id="a_Node000003"><a xlink:href="_child_label_8cpp.html" target="_top" xlink:title=" ">
<polygon fill="white" stroke="#666666" points="277.88,-162 153.88,-162 153.88,-142 277.88,-142 277.88,-162"/>
<text text-anchor="middle" x="215.88" y="-148.5" font-family="Helvetica,sans-Serif" font-size="10.00">TullipApp/ChildLabel.cpp</text>
</a>
</g>
</g>
<!-- Node2&#45;&gt;Node3 -->
<g id="edge2_Node000002_Node000003" class="edge">
<title>Node2&#45;&gt;Node3</title>
<g id="a_edge2_Node000002_Node000003"><a xlink:title=" ">
<path fill="none" stroke="#63b8ff" d="M322.61,-199.07C296.43,-187.77 260.23,-172.15 237.44,-162.31"/>
<polygon fill="#63b8ff" stroke="#63b8ff" points="321.2,-202.28 331.77,-203.03 323.97,-195.85 321.2,-202.28"/>
</a>
</g>
</g>
<!-- Node4 -->
<g id="Node000004" class="node">
<title>Node4</title>
<g id="a_Node000004"><a xlink:href="_parent_entry_8h.html" target="_top" xlink:title="Defines the ParentEntry class for managing the graphical representation of a parent in the GUI.">
<polygon fill="white" stroke="#666666" points="414.25,-162 295.5,-162 295.5,-142 414.25,-142 414.25,-162"/>
<text text-anchor="middle" x="354.88" y="-148.5" font-family="Helvetica,sans-Serif" font-size="10.00">TullipApp/ParentEntry.h</text>
</a>
</g>
</g>
<!-- Node2&#45;&gt;Node4 -->
<g id="edge3_Node000002_Node000004" class="edge">
<title>Node2&#45;&gt;Node4</title>
<g id="a_edge3_Node000002_Node000004"><a xlink:title=" ">
<path fill="none" stroke="#63b8ff" d="M354.88,-192.25C354.88,-181.97 354.88,-170.09 354.88,-162.11"/>
<polygon fill="#63b8ff" stroke="#63b8ff" points="351.38,-192.11 354.88,-202.11 358.38,-192.11 351.38,-192.11"/>
</a>
</g>
</g>
<!-- Node11 -->
<g id="Node000011" class="node">
<title>Node11</title>
<g id="a_Node000011"><a xlink:href="moc___child_label_8cpp.html" target="_top" xlink:title=" ">
<polygon fill="white" stroke="#666666" points="573.12,-168 432.62,-168 432.62,-136 573.12,-136 573.12,-168"/>
<text text-anchor="start" x="440.62" y="-154.5" font-family="Helvetica,sans-Serif" font-size="10.00">TullipApp/x64/Debug</text>
<text text-anchor="middle" x="502.88" y="-142.5" font-family="Helvetica,sans-Serif" font-size="10.00">/qt/moc/moc_ChildLabel.cpp</text>
</a>
</g>
</g>
<!-- Node2&#45;&gt;Node11 -->
<g id="edge10_Node000002_Node000011" class="edge">
<title>Node2&#45;&gt;Node11</title>
<g id="a_edge10_Node000002_Node000011"><a xlink:title=" ">
<path fill="none" stroke="#63b8ff" d="M388.48,-199.38C411.14,-190.19 441.09,-178.05 464.67,-168.49"/>
<polygon fill="#63b8ff" stroke="#63b8ff" points="387.36,-196.06 379.4,-203.06 389.99,-202.54 387.36,-196.06"/>
</a>
</g>
</g>
<!-- Node5 -->
<g id="Node000005" class="node">
<title>Node5</title>
<g id="a_Node000005"><a xlink:href="_data_base_g_u_i_8h.html" target="_top" xlink:title="Defines the DataBaseGUI class for managing the graphical user interface of the database.">
<polygon fill="white" stroke="#666666" points="272.5,-94 143.25,-94 143.25,-74 272.5,-74 272.5,-94"/>
<text text-anchor="middle" x="207.88" y="-80.5" font-family="Helvetica,sans-Serif" font-size="10.00">TullipApp/DataBaseGUI.h</text>
</a>
</g>
</g>
<!-- Node4&#45;&gt;Node5 -->
<g id="edge4_Node000004_Node000005" class="edge">
<title>Node4&#45;&gt;Node5</title>
<g id="a_edge4_Node000004_Node000005"><a xlink:title=" ">
<path fill="none" stroke="#63b8ff" d="M323.57,-136.94C295.03,-124.13 253.66,-105.56 228.9,-94.44"/>
<polygon fill="#63b8ff" stroke="#63b8ff" points="321.88,-140.02 332.43,-140.92 324.74,-133.63 321.88,-140.02"/>
</a>
</g>
</g>
<!-- Node9 -->
<g id="Node000009" class="node">
<title>Node9</title>
<g id="a_Node000009"><a xlink:href="_parent_entry_8cpp.html" target="_top" xlink:title=" ">
<polygon fill="white" stroke="#666666" points="419.5,-94 290.25,-94 290.25,-74 419.5,-74 419.5,-94"/>
<text text-anchor="middle" x="354.88" y="-80.5" font-family="Helvetica,sans-Serif" font-size="10.00">TullipApp/ParentEntry.cpp</text>
</a>
</g>
</g>
<!-- Node4&#45;&gt;Node9 -->
<g id="edge8_Node000004_Node000009" class="edge">
<title>Node4&#45;&gt;Node9</title>
<g id="a_edge8_Node000004_Node000009"><a xlink:title=" ">
<path fill="none" stroke="#63b8ff" d="M354.88,-130.28C354.88,-118.27 354.88,-103.74 354.88,-94.44"/>
<polygon fill="#63b8ff" stroke="#63b8ff" points="351.38,-130.03 354.88,-140.03 358.38,-130.03 351.38,-130.03"/>
</a>
</g>
</g>
<!-- Node10 -->
<g id="Node000010" class="node">
<title>Node10</title>
<g id="a_Node000010"><a xlink:href="moc___parent_entry_8cpp.html" target="_top" xlink:title=" ">
<polygon fill="white" stroke="#666666" points="583.75,-100 438,-100 438,-68 583.75,-68 583.75,-100"/>
<text text-anchor="start" x="446" y="-86.5" font-family="Helvetica,sans-Serif" font-size="10.00">TullipApp/x64/Debug</text>
<text text-anchor="middle" x="510.88" y="-74.5" font-family="Helvetica,sans-Serif" font-size="10.00">/qt/moc/moc_ParentEntry.cpp</text>
</a>
</g>
</g>
<!-- Node4&#45;&gt;Node10 -->
<g id="edge9_Node000004_Node000010" class="edge">
<title>Node4&#45;&gt;Node10</title>
<g id="a_edge9_Node000004_Node000010"><a xlink:title=" ">
<path fill="none" stroke="#63b8ff" d="M387.79,-137.07C413.15,-126.34 448.2,-111.52 474.41,-100.43"/>
<polygon fill="#63b8ff" stroke="#63b8ff" points="386.47,-133.83 378.62,-140.95 389.19,-140.28 386.47,-133.83"/>
</a>
</g>
</g>
<!-- Node6 -->
<g id="Node000006" class="node">
<title>Node6</title>
<g id="a_Node000006"><a xlink:href="_data_base_g_u_i_8cpp.html" target="_top" xlink:title=" ">
<polygon fill="white" stroke="#666666" points="139.75,-26 0,-26 0,-6 139.75,-6 139.75,-26"/>
<text text-anchor="middle" x="69.88" y="-12.5" font-family="Helvetica,sans-Serif" font-size="10.00">TullipApp/DataBaseGUI.cpp</text>
</a>
</g>
</g>
<!-- Node5&#45;&gt;Node6 -->
<g id="edge5_Node000005_Node000006" class="edge">
<title>Node5&#45;&gt;Node6</title>
<g id="a_edge5_Node000005_Node000006"><a xlink:title=" ">
<path fill="none" stroke="#63b8ff" d="M177.77,-68.6C151.01,-55.8 112.65,-37.46 89.61,-26.44"/>
<polygon fill="#63b8ff" stroke="#63b8ff" points="176.21,-71.73 186.74,-72.89 179.23,-65.42 176.21,-71.73"/>
</a>
</g>
</g>
<!-- Node7 -->
<g id="Node000007" class="node">
<title>Node7</title>
<g id="a_Node000007"><a xlink:href="_main_8cpp.html" target="_top" xlink:title=" ">
<polygon fill="white" stroke="#666666" points="257.5,-26 158.25,-26 158.25,-6 257.5,-6 257.5,-26"/>
<text text-anchor="middle" x="207.88" y="-12.5" font-family="Helvetica,sans-Serif" font-size="10.00">TullipApp/Main.cpp</text>
</a>
</g>
</g>
<!-- Node5&#45;&gt;Node7 -->
<g id="edge6_Node000005_Node000007" class="edge">
<title>Node5&#45;&gt;Node7</title>
<g id="a_edge6_Node000005_Node000007"><a xlink:title=" ">
<path fill="none" stroke="#63b8ff" d="M207.88,-62.28C207.88,-50.27 207.88,-35.74 207.88,-26.44"/>
<polygon fill="#63b8ff" stroke="#63b8ff" points="204.38,-62.03 207.88,-72.03 211.38,-62.03 204.38,-62.03"/>
</a>
</g>
</g>
<!-- Node8 -->
<g id="Node000008" class="node">
<title>Node8</title>
<g id="a_Node000008"><a xlink:href="moc___data_base_g_u_i_8cpp.html" target="_top" xlink:title=" ">
<polygon fill="white" stroke="#666666" points="432,-32 275.75,-32 275.75,0 432,0 432,-32"/>
<text text-anchor="start" x="283.75" y="-18.5" font-family="Helvetica,sans-Serif" font-size="10.00">TullipApp/x64/Debug</text>
<text text-anchor="middle" x="353.88" y="-6.5" font-family="Helvetica,sans-Serif" font-size="10.00">/qt/moc/moc_DataBaseGUI.cpp</text>
</a>
</g>
</g>
<!-- Node5&#45;&gt;Node8 -->
<g id="edge7_Node000005_Node000008" class="edge">
<title>Node5&#45;&gt;Node8</title>
<g id="a_edge7_Node000005_Node000008"><a xlink:title=" ">
<path fill="none" stroke="#63b8ff" d="M239,-68.93C262.71,-58.21 295.33,-43.47 319.75,-32.43"/>
<polygon fill="#63b8ff" stroke="#63b8ff" points="237.84,-65.61 230.17,-72.92 240.73,-71.99 237.84,-65.61"/>
</a>
</g>
</g>
</g>
</svg>
