<?xml version="1.0" encoding="UTF-8" standalone="no"?>
<!DOCTYPE svg PUBLIC "-//W3C//DTD SVG 1.1//EN"
 "http://www.w3.org/Graphics/SVG/1.1/DTD/svg11.dtd">
<!-- Generated by graphviz version 12.2.1 (20241206.2353)
 -->
<!-- Title: TullipApp/x64/Debug/qt/uic/ui_DataBaseGUI.h Pages: 1 -->
<svg width="2091pt" height="96pt"
 viewBox="0.00 0.00 2090.88 96.00" xmlns="http://www.w3.org/2000/svg" xmlns:xlink="http://www.w3.org/1999/xlink">
<g id="graph0" class="graph" transform="scale(1 1) rotate(0) translate(4 92)">
<title>TullipApp/x64/Debug/qt/uic/ui_DataBaseGUI.h</title>
<!-- Node1 -->
<g id="Node000001" class="node">
<title>Node1</title>
<g id="a_Node000001"><a xlink:title=" ">
<polygon fill="#999999" stroke="#666666" points="1086.25,-88 957.75,-88 957.75,-56 1086.25,-56 1086.25,-88"/>
<text text-anchor="start" x="965.75" y="-74.5" font-family="Helvetica,sans-Serif" font-size="10.00">TullipApp/x64/Debug</text>
<text text-anchor="middle" x="1022" y="-62.5" font-family="Helvetica,sans-Serif" font-size="10.00">/qt/uic/ui_DataBaseGUI.h</text>
</a>
</g>
</g>
<!-- Node2 -->
<g id="Node000002" class="node">
<title>Node2</title>
<g id="a_Node000002"><a xlink:title=" ">
<polygon fill="#e0e0e0" stroke="#999999" points="88,-20 0,-20 0,0 88,0 88,-20"/>
<text text-anchor="middle" x="44" y="-6.5" font-family="Helvetica,sans-Serif" font-size="10.00">QtCore/QVariant</text>
</a>
</g>
</g>
<!-- Node1&#45;&gt;Node2 -->
<g id="edge1_Node000001_Node000002" class="edge">
<title>Node1&#45;&gt;Node2</title>
<g id="a_edge1_Node000001_Node000002"><a xlink:title=" ">
<path fill="none" stroke="#63b8ff" d="M957.31,-69.95C807.94,-66.98 427.34,-56.3 99.63,-20.17"/>
<polygon fill="#63b8ff" stroke="#63b8ff" points="100.31,-16.72 89.99,-19.1 99.54,-23.68 100.31,-16.72"/>
</a>
</g>
</g>
<!-- Node3 -->
<g id="Node000003" class="node">
<title>Node3</title>
<g id="a_Node000003"><a xlink:title=" ">
<polygon fill="#e0e0e0" stroke="#999999" points="185.88,-20 106.12,-20 106.12,0 185.88,0 185.88,-20"/>
<text text-anchor="middle" x="146" y="-6.5" font-family="Helvetica,sans-Serif" font-size="10.00">QtGui/QAction</text>
</a>
</g>
</g>
<!-- Node1&#45;&gt;Node3 -->
<g id="edge2_Node000001_Node000003" class="edge">
<title>Node1&#45;&gt;Node3</title>
<g id="a_edge2_Node000001_Node000003"><a xlink:title=" ">
<path fill="none" stroke="#63b8ff" d="M957.33,-69.74C819.32,-66.46 485.61,-55.39 197.37,-20.29"/>
<polygon fill="#63b8ff" stroke="#63b8ff" points="198.13,-16.86 187.78,-19.11 197.27,-23.81 198.13,-16.86"/>
</a>
</g>
</g>
<!-- Node4 -->
<g id="Node000004" class="node">
<title>Node4</title>
<g id="a_Node000004"><a xlink:title=" ">
<polygon fill="#e0e0e0" stroke="#999999" points="324.5,-20 203.5,-20 203.5,0 324.5,0 324.5,-20"/>
<text text-anchor="middle" x="264" y="-6.5" font-family="Helvetica,sans-Serif" font-size="10.00">QtWidgets/QApplication</text>
</a>
</g>
</g>
<!-- Node1&#45;&gt;Node4 -->
<g id="edge3_Node000001_Node000004" class="edge">
<title>Node1&#45;&gt;Node4</title>
<g id="a_edge3_Node000001_Node000004"><a xlink:title=" ">
<path fill="none" stroke="#63b8ff" d="M957.3,-67.42C837.02,-60.5 570.6,-43.93 336.07,-20.27"/>
<polygon fill="#63b8ff" stroke="#63b8ff" points="336.74,-16.82 326.44,-19.29 336.03,-23.78 336.74,-16.82"/>
</a>
</g>
</g>
<!-- Node5 -->
<g id="Node000005" class="node">
<title>Node5</title>
<g id="a_Node000005"><a xlink:title=" ">
<polygon fill="#e0e0e0" stroke="#999999" points="463.88,-20 342.12,-20 342.12,0 463.88,0 463.88,-20"/>
<text text-anchor="middle" x="403" y="-6.5" font-family="Helvetica,sans-Serif" font-size="10.00">QtWidgets/QComboBox</text>
</a>
</g>
</g>
<!-- Node1&#45;&gt;Node5 -->
<g id="edge4_Node000001_Node000005" class="edge">
<title>Node1&#45;&gt;Node5</title>
<g id="a_edge4_Node000001_Node000005"><a xlink:title=" ">
<path fill="none" stroke="#63b8ff" d="M957.27,-65.73C856.63,-57.37 656.26,-40.08 475.4,-20.23"/>
<polygon fill="#63b8ff" stroke="#63b8ff" points="475.9,-16.76 465.57,-19.15 475.13,-23.72 475.9,-16.76"/>
</a>
</g>
</g>
<!-- Node6 -->
<g id="Node000006" class="node">
<title>Node6</title>
<g id="a_Node000006"><a xlink:title=" ">
<polygon fill="#e0e0e0" stroke="#999999" points="602.12,-20 481.88,-20 481.88,0 602.12,0 602.12,-20"/>
<text text-anchor="middle" x="542" y="-6.5" font-family="Helvetica,sans-Serif" font-size="10.00">QtWidgets/QGridLayout</text>
</a>
</g>
</g>
<!-- Node1&#45;&gt;Node6 -->
<g id="edge5_Node000001_Node000006" class="edge">
<title>Node1&#45;&gt;Node6</title>
<g id="a_edge5_Node000001_Node000006"><a xlink:title=" ">
<path fill="none" stroke="#63b8ff" d="M957.56,-63.13C878.92,-53.5 741.56,-36.58 613.73,-20.34"/>
<polygon fill="#63b8ff" stroke="#63b8ff" points="614.44,-16.9 604.08,-19.11 613.56,-23.85 614.44,-16.9"/>
</a>
</g>
</g>
<!-- Node7 -->
<g id="Node000007" class="node">
<title>Node7</title>
<g id="a_Node000007"><a xlink:title=" ">
<polygon fill="#e0e0e0" stroke="#999999" points="747.5,-20 620.5,-20 620.5,0 747.5,0 747.5,-20"/>
<text text-anchor="middle" x="684" y="-6.5" font-family="Helvetica,sans-Serif" font-size="10.00">QtWidgets/QHBoxLayout</text>
</a>
</g>
</g>
<!-- Node1&#45;&gt;Node7 -->
<g id="edge6_Node000001_Node000007" class="edge">
<title>Node1&#45;&gt;Node7</title>
<g id="a_edge6_Node000001_Node000007"><a xlink:title=" ">
<path fill="none" stroke="#63b8ff" d="M957.63,-59.57C897.62,-48.92 808.59,-33.12 748.53,-22.45"/>
<polygon fill="#63b8ff" stroke="#63b8ff" points="749.24,-19.03 738.78,-20.72 748.02,-25.92 749.24,-19.03"/>
</a>
</g>
</g>
<!-- Node8 -->
<g id="Node000008" class="node">
<title>Node8</title>
<g id="a_Node000008"><a xlink:title=" ">
<polygon fill="#e0e0e0" stroke="#999999" points="874.12,-20 765.88,-20 765.88,0 874.12,0 874.12,-20"/>
<text text-anchor="middle" x="820" y="-6.5" font-family="Helvetica,sans-Serif" font-size="10.00">QtWidgets/QLineEdit</text>
</a>
</g>
</g>
<!-- Node1&#45;&gt;Node8 -->
<g id="edge7_Node000001_Node000008" class="edge">
<title>Node1&#45;&gt;Node8</title>
<g id="a_edge7_Node000001_Node000008"><a xlink:title=" ">
<path fill="none" stroke="#63b8ff" d="M969.98,-55.55C936.77,-45.68 894.23,-33.05 862.95,-23.76"/>
<polygon fill="#63b8ff" stroke="#63b8ff" points="864,-20.42 853.42,-20.93 862.01,-27.13 864,-20.42"/>
</a>
</g>
</g>
<!-- Node9 -->
<g id="Node000009" class="node">
<title>Node9</title>
<g id="a_Node000009"><a xlink:title=" ">
<polygon fill="#e0e0e0" stroke="#999999" points="1021.62,-20 892.38,-20 892.38,0 1021.62,0 1021.62,-20"/>
<text text-anchor="middle" x="957" y="-6.5" font-family="Helvetica,sans-Serif" font-size="10.00">QtWidgets/QMainWindow</text>
</a>
</g>
</g>
<!-- Node1&#45;&gt;Node9 -->
<g id="edge8_Node000001_Node000009" class="edge">
<title>Node1&#45;&gt;Node9</title>
<g id="a_edge8_Node000001_Node000009"><a xlink:title=" ">
<path fill="none" stroke="#63b8ff" d="M1005.26,-55.55C996.14,-47.13 984.83,-36.69 975.46,-28.04"/>
<polygon fill="#63b8ff" stroke="#63b8ff" points="978.03,-25.65 968.3,-21.43 973.28,-30.79 978.03,-25.65"/>
</a>
</g>
</g>
<!-- Node10 -->
<g id="Node000010" class="node">
<title>Node10</title>
<g id="a_Node000010"><a xlink:title=" ">
<polygon fill="#e0e0e0" stroke="#999999" points="1136.5,-20 1039.5,-20 1039.5,0 1136.5,0 1136.5,-20"/>
<text text-anchor="middle" x="1088" y="-6.5" font-family="Helvetica,sans-Serif" font-size="10.00">QtWidgets/QMenu</text>
</a>
</g>
</g>
<!-- Node1&#45;&gt;Node10 -->
<g id="edge9_Node000001_Node000010" class="edge">
<title>Node1&#45;&gt;Node10</title>
<g id="a_edge9_Node000001_Node000010"><a xlink:title=" ">
<path fill="none" stroke="#63b8ff" d="M1039,-55.55C1048.26,-47.13 1059.74,-36.69 1069.26,-28.04"/>
<polygon fill="#63b8ff" stroke="#63b8ff" points="1071.49,-30.74 1076.53,-21.43 1066.78,-25.56 1071.49,-30.74"/>
</a>
</g>
</g>
<!-- Node11 -->
<g id="Node000011" class="node">
<title>Node11</title>
<g id="a_Node000011"><a xlink:title=" ">
<polygon fill="#e0e0e0" stroke="#999999" points="1267,-20 1155,-20 1155,0 1267,0 1267,-20"/>
<text text-anchor="middle" x="1211" y="-6.5" font-family="Helvetica,sans-Serif" font-size="10.00">QtWidgets/QMenuBar</text>
</a>
</g>
</g>
<!-- Node1&#45;&gt;Node11 -->
<g id="edge10_Node000001_Node000011" class="edge">
<title>Node1&#45;&gt;Node11</title>
<g id="a_edge10_Node000001_Node000011"><a xlink:title=" ">
<path fill="none" stroke="#63b8ff" d="M1070.67,-55.55C1101.61,-45.73 1141.19,-33.16 1170.43,-23.88"/>
<polygon fill="#63b8ff" stroke="#63b8ff" points="1171.17,-27.32 1179.64,-20.95 1169.05,-20.64 1171.17,-27.32"/>
</a>
</g>
</g>
<!-- Node12 -->
<g id="Node000012" class="node">
<title>Node12</title>
<g id="a_Node000012"><a xlink:title=" ">
<polygon fill="#e0e0e0" stroke="#999999" points="1409,-20 1285,-20 1285,0 1409,0 1409,-20"/>
<text text-anchor="middle" x="1347" y="-6.5" font-family="Helvetica,sans-Serif" font-size="10.00">QtWidgets/QPushButton</text>
</a>
</g>
</g>
<!-- Node1&#45;&gt;Node12 -->
<g id="edge11_Node000001_Node000012" class="edge">
<title>Node1&#45;&gt;Node12</title>
<g id="a_edge11_Node000001_Node000012"><a xlink:title=" ">
<path fill="none" stroke="#63b8ff" d="M1086.6,-59.07C1144.13,-48.45 1227.76,-33.01 1284.61,-22.52"/>
<polygon fill="#63b8ff" stroke="#63b8ff" points="1284.92,-26.02 1294.12,-20.76 1283.65,-19.14 1284.92,-26.02"/>
</a>
</g>
</g>
<!-- Node13 -->
<g id="Node000013" class="node">
<title>Node13</title>
<g id="a_Node000013"><a xlink:title=" ">
<polygon fill="#e0e0e0" stroke="#999999" points="1545,-20 1427,-20 1427,0 1545,0 1545,-20"/>
<text text-anchor="middle" x="1486" y="-6.5" font-family="Helvetica,sans-Serif" font-size="10.00">QtWidgets/QScrollArea</text>
</a>
</g>
</g>
<!-- Node1&#45;&gt;Node13 -->
<g id="edge12_Node000001_Node000013" class="edge">
<title>Node1&#45;&gt;Node13</title>
<g id="a_edge12_Node000001_Node000013"><a xlink:title=" ">
<path fill="none" stroke="#63b8ff" d="M1086.48,-62.77C1162.57,-53.03 1293.22,-36.27 1415.61,-20.31"/>
<polygon fill="#63b8ff" stroke="#63b8ff" points="1415.7,-23.83 1425.16,-19.06 1414.79,-16.89 1415.7,-23.83"/>
</a>
</g>
</g>
<!-- Node14 -->
<g id="Node000014" class="node">
<title>Node14</title>
<g id="a_Node000014"><a xlink:title=" ">
<polygon fill="#e0e0e0" stroke="#999999" points="1679.25,-20 1562.75,-20 1562.75,0 1679.25,0 1679.25,-20"/>
<text text-anchor="middle" x="1621" y="-6.5" font-family="Helvetica,sans-Serif" font-size="10.00">QtWidgets/QStatusBar</text>
</a>
</g>
</g>
<!-- Node1&#45;&gt;Node14 -->
<g id="edge13_Node000001_Node000014" class="edge">
<title>Node1&#45;&gt;Node14</title>
<g id="a_edge13_Node000001_Node000014"><a xlink:title=" ">
<path fill="none" stroke="#63b8ff" d="M1086.37,-65.62C1184.34,-57.26 1377.04,-40.14 1551.11,-20.3"/>
<polygon fill="#63b8ff" stroke="#63b8ff" points="1551.51,-23.77 1561.05,-19.16 1550.71,-16.82 1551.51,-23.77"/>
</a>
</g>
</g>
<!-- Node15 -->
<g id="Node000015" class="node">
<title>Node15</title>
<g id="a_Node000015"><a xlink:title=" ">
<polygon fill="#e0e0e0" stroke="#999999" points="1816.75,-20 1697.25,-20 1697.25,0 1816.75,0 1816.75,-20"/>
<text text-anchor="middle" x="1757" y="-6.5" font-family="Helvetica,sans-Serif" font-size="10.00">QtWidgets/QTabWidget</text>
</a>
</g>
</g>
<!-- Node1&#45;&gt;Node15 -->
<g id="edge14_Node000001_Node000015" class="edge">
<title>Node1&#45;&gt;Node15</title>
<g id="a_edge14_Node000001_Node000015"><a xlink:title=" ">
<path fill="none" stroke="#63b8ff" d="M1086.39,-67.21C1203.41,-60.08 1459.02,-43.35 1685.37,-20.22"/>
<polygon fill="#63b8ff" stroke="#63b8ff" points="1685.72,-23.7 1695.31,-19.2 1685,-16.74 1685.72,-23.7"/>
</a>
</g>
</g>
<!-- Node16 -->
<g id="Node000016" class="node">
<title>Node16</title>
<g id="a_Node000016"><a xlink:title=" ">
<polygon fill="#e0e0e0" stroke="#999999" points="1961.12,-20 1834.88,-20 1834.88,0 1961.12,0 1961.12,-20"/>
<text text-anchor="middle" x="1898" y="-6.5" font-family="Helvetica,sans-Serif" font-size="10.00">QtWidgets/QVBoxLayout</text>
</a>
</g>
</g>
<!-- Node1&#45;&gt;Node16 -->
<g id="edge15_Node000001_Node000016" class="edge">
<title>Node1&#45;&gt;Node16</title>
<g id="a_edge15_Node000001_Node000016"><a xlink:title=" ">
<path fill="none" stroke="#63b8ff" d="M1086.72,-68.24C1221.64,-62.18 1543.06,-46.25 1823.21,-20.21"/>
<polygon fill="#63b8ff" stroke="#63b8ff" points="1823.28,-23.72 1832.91,-19.3 1822.63,-16.75 1823.28,-23.72"/>
</a>
</g>
</g>
<!-- Node17 -->
<g id="Node000017" class="node">
<title>Node17</title>
<g id="a_Node000017"><a xlink:title=" ">
<polygon fill="#e0e0e0" stroke="#999999" points="2082.88,-20 1979.12,-20 1979.12,0 2082.88,0 2082.88,-20"/>
<text text-anchor="middle" x="2031" y="-6.5" font-family="Helvetica,sans-Serif" font-size="10.00">QtWidgets/QWidget</text>
</a>
</g>
</g>
<!-- Node1&#45;&gt;Node17 -->
<g id="edge16_Node000001_Node000017" class="edge">
<title>Node1&#45;&gt;Node17</title>
<g id="a_edge16_Node000001_Node000017"><a xlink:title=" ">
<path fill="none" stroke="#63b8ff" d="M1086.53,-69.59C1238.35,-65.83 1630.19,-53.54 1967.82,-20.12"/>
<polygon fill="#63b8ff" stroke="#63b8ff" points="1967.69,-23.65 1977.29,-19.18 1966.99,-16.69 1967.69,-23.65"/>
</a>
</g>
</g>
</g>
</svg>
