<?xml version="1.0" encoding="UTF-8" standalone="no"?>
<!DOCTYPE svg PUBLIC "-//W3C//DTD SVG 1.1//EN"
 "http://www.w3.org/Graphics/SVG/1.1/DTD/svg11.dtd">
<!-- Generated by graphviz version 12.2.1 (20241206.2353)
 -->
<!-- Title: TullipApp/x64/Debug/qt/uic/ui_LessonEntry.h Pages: 1 -->
<svg width="1053pt" height="152pt"
 viewBox="0.00 0.00 1053.12 152.00" xmlns="http://www.w3.org/2000/svg" xmlns:xlink="http://www.w3.org/1999/xlink">
<g id="graph0" class="graph" transform="scale(1 1) rotate(0) translate(4 148)">
<title>TullipApp/x64/Debug/qt/uic/ui_LessonEntry.h</title>
<!-- Node1 -->
<g id="Node000001" class="node">
<title>Node1</title>
<g id="a_Node000001"><a xlink:title=" ">
<polygon fill="#999999" stroke="#666666" points="548.5,-144 427.5,-144 427.5,-112 548.5,-112 548.5,-144"/>
<text text-anchor="start" x="435.5" y="-130.5" font-family="Helvetica,sans-Serif" font-size="10.00">TullipApp/x64/Debug</text>
<text text-anchor="middle" x="488" y="-118.5" font-family="Helvetica,sans-Serif" font-size="10.00">/qt/uic/ui_LessonEntry.h</text>
</a>
</g>
</g>
<!-- Node2 -->
<g id="Node000002" class="node">
<title>Node2</title>
<g id="a_Node000002"><a xlink:title=" ">
<polygon fill="#e0e0e0" stroke="#999999" points="88,-76 0,-76 0,-56 88,-56 88,-76"/>
<text text-anchor="middle" x="44" y="-62.5" font-family="Helvetica,sans-Serif" font-size="10.00">QtCore/QVariant</text>
</a>
</g>
</g>
<!-- Node1&#45;&gt;Node2 -->
<g id="edge1_Node000001_Node000002" class="edge">
<title>Node1&#45;&gt;Node2</title>
<g id="a_edge1_Node000001_Node000002"><a xlink:title=" ">
<path fill="none" stroke="#63b8ff" d="M427.11,-119.71C352.54,-110.63 222.1,-94.27 99.55,-76.18"/>
<polygon fill="#63b8ff" stroke="#63b8ff" points="100.38,-72.77 89.97,-74.76 99.35,-79.69 100.38,-72.77"/>
</a>
</g>
</g>
<!-- Node3 -->
<g id="Node000003" class="node">
<title>Node3</title>
<g id="a_Node000003"><a xlink:title=" ">
<polygon fill="#e0e0e0" stroke="#999999" points="227.5,-76 106.5,-76 106.5,-56 227.5,-56 227.5,-76"/>
<text text-anchor="middle" x="167" y="-62.5" font-family="Helvetica,sans-Serif" font-size="10.00">QtWidgets/QApplication</text>
</a>
</g>
</g>
<!-- Node1&#45;&gt;Node3 -->
<g id="edge2_Node000001_Node000003" class="edge">
<title>Node1&#45;&gt;Node3</title>
<g id="a_edge2_Node000001_Node000003"><a xlink:title=" ">
<path fill="none" stroke="#63b8ff" d="M427.24,-115.64C370.42,-105.02 285.95,-89.23 228.79,-78.55"/>
<polygon fill="#63b8ff" stroke="#63b8ff" points="229.7,-75.16 219.22,-76.76 228.41,-82.04 229.7,-75.16"/>
</a>
</g>
</g>
<!-- Node4 -->
<g id="Node000004" class="node">
<title>Node4</title>
<g id="a_Node000004"><a xlink:title=" ">
<polygon fill="#e0e0e0" stroke="#999999" points="346.38,-76 245.62,-76 245.62,-56 346.38,-56 346.38,-76"/>
<text text-anchor="middle" x="296" y="-62.5" font-family="Helvetica,sans-Serif" font-size="10.00">QtWidgets/QFrame</text>
</a>
</g>
</g>
<!-- Node1&#45;&gt;Node4 -->
<g id="edge3_Node000001_Node000004" class="edge">
<title>Node1&#45;&gt;Node4</title>
<g id="a_edge3_Node000001_Node000004"><a xlink:title=" ">
<path fill="none" stroke="#63b8ff" d="M438.56,-111.55C407.13,-101.73 366.91,-89.16 337.22,-79.88"/>
<polygon fill="#63b8ff" stroke="#63b8ff" points="338.42,-76.59 327.83,-76.95 336.33,-83.27 338.42,-76.59"/>
</a>
</g>
</g>
<!-- Node5 -->
<g id="Node000005" class="node">
<title>Node5</title>
<g id="a_Node000005"><a xlink:title=" ">
<polygon fill="#e0e0e0" stroke="#999999" points="485.12,-76 364.88,-76 364.88,-56 485.12,-56 485.12,-76"/>
<text text-anchor="middle" x="425" y="-62.5" font-family="Helvetica,sans-Serif" font-size="10.00">QtWidgets/QGridLayout</text>
</a>
</g>
</g>
<!-- Node1&#45;&gt;Node5 -->
<g id="edge4_Node000001_Node000005" class="edge">
<title>Node1&#45;&gt;Node5</title>
<g id="a_edge4_Node000001_Node000005"><a xlink:title=" ">
<path fill="none" stroke="#63b8ff" d="M471.78,-111.55C463.03,-103.22 452.2,-92.91 443.17,-84.3"/>
<polygon fill="#63b8ff" stroke="#63b8ff" points="445.63,-81.81 435.97,-77.45 440.8,-86.88 445.63,-81.81"/>
</a>
</g>
</g>
<!-- Node6 -->
<g id="Node000006" class="node">
<title>Node6</title>
<g id="a_Node000006"><a xlink:title=" ">
<polygon fill="#e0e0e0" stroke="#999999" points="599.12,-76 502.88,-76 502.88,-56 599.12,-56 599.12,-76"/>
<text text-anchor="middle" x="551" y="-62.5" font-family="Helvetica,sans-Serif" font-size="10.00">QtWidgets/QLabel</text>
</a>
</g>
</g>
<!-- Node1&#45;&gt;Node6 -->
<g id="edge5_Node000001_Node000006" class="edge">
<title>Node1&#45;&gt;Node6</title>
<g id="a_edge5_Node000001_Node000006"><a xlink:title=" ">
<path fill="none" stroke="#63b8ff" d="M504.22,-111.55C512.97,-103.22 523.8,-92.91 532.83,-84.3"/>
<polygon fill="#63b8ff" stroke="#63b8ff" points="535.2,-86.88 540.03,-77.45 530.37,-81.81 535.2,-86.88"/>
</a>
</g>
</g>
<!-- Node7 -->
<g id="Node000007" class="node">
<title>Node7</title>
<g id="a_Node000007"><a xlink:title=" ">
<polygon fill="#e0e0e0" stroke="#999999" points="741,-76 617,-76 617,-56 741,-56 741,-76"/>
<text text-anchor="middle" x="679" y="-62.5" font-family="Helvetica,sans-Serif" font-size="10.00">QtWidgets/QPushButton</text>
</a>
</g>
</g>
<!-- Node1&#45;&gt;Node7 -->
<g id="edge6_Node000001_Node000007" class="edge">
<title>Node1&#45;&gt;Node7</title>
<g id="a_edge6_Node000001_Node000007"><a xlink:title=" ">
<path fill="none" stroke="#63b8ff" d="M537.19,-111.55C568.45,-101.73 608.46,-89.16 638,-79.88"/>
<polygon fill="#63b8ff" stroke="#63b8ff" points="638.83,-83.29 647.33,-76.95 636.74,-76.61 638.83,-83.29"/>
</a>
</g>
</g>
<!-- Node8 -->
<g id="Node000008" class="node">
<title>Node8</title>
<g id="a_Node000008"><a xlink:title=" ">
<polygon fill="#e0e0e0" stroke="#999999" points="862.88,-76 759.12,-76 759.12,-56 862.88,-56 862.88,-76"/>
<text text-anchor="middle" x="811" y="-62.5" font-family="Helvetica,sans-Serif" font-size="10.00">QtWidgets/QWidget</text>
</a>
</g>
</g>
<!-- Node1&#45;&gt;Node8 -->
<g id="edge7_Node000001_Node000008" class="edge">
<title>Node1&#45;&gt;Node8</title>
<g id="a_edge7_Node000001_Node000008"><a xlink:title=" ">
<path fill="none" stroke="#63b8ff" d="M548.75,-115.71C605.98,-105.09 691.29,-89.24 748.94,-78.53"/>
<polygon fill="#63b8ff" stroke="#63b8ff" points="749.4,-82 758.59,-76.74 748.12,-75.12 749.4,-82"/>
</a>
</g>
</g>
<!-- Node9 -->
<g id="Node000009" class="node">
<title>Node9</title>
<g id="a_Node000009"><a xlink:href="clickablelabel_8h.html" target="_top" xlink:title="ClickableLabel class definition.">
<polygon fill="white" stroke="#666666" points="963.38,-76 880.62,-76 880.62,-56 963.38,-56 963.38,-76"/>
<text text-anchor="middle" x="922" y="-62.5" font-family="Helvetica,sans-Serif" font-size="10.00">clickablelabel.h</text>
</a>
</g>
</g>
<!-- Node1&#45;&gt;Node9 -->
<g id="edge8_Node000001_Node000009" class="edge">
<title>Node1&#45;&gt;Node9</title>
<g id="a_edge8_Node000001_Node000009"><a xlink:title=" ">
<path fill="none" stroke="#63b8ff" d="M548.98,-119.78C622.53,-110.88 750.19,-94.8 869.17,-76.39"/>
<polygon fill="#63b8ff" stroke="#63b8ff" points="869.44,-79.89 878.79,-74.89 868.37,-72.97 869.44,-79.89"/>
</a>
</g>
</g>
<!-- Node10 -->
<g id="Node000010" class="node">
<title>Node10</title>
<g id="a_Node000010"><a xlink:title=" ">
<polygon fill="#e0e0e0" stroke="#999999" points="876.38,-20 829.62,-20 829.62,0 876.38,0 876.38,-20"/>
<text text-anchor="middle" x="853" y="-6.5" font-family="Helvetica,sans-Serif" font-size="10.00">QLabel</text>
</a>
</g>
</g>
<!-- Node9&#45;&gt;Node10 -->
<g id="edge9_Node000009_Node000010" class="edge">
<title>Node9&#45;&gt;Node10</title>
<g id="a_edge9_Node000009_Node000010"><a xlink:title=" ">
<path fill="none" stroke="#63b8ff" d="M909.98,-55.59C899.99,-47.77 885.54,-36.46 873.69,-27.19"/>
<polygon fill="#63b8ff" stroke="#63b8ff" points="876.11,-24.64 866.07,-21.23 871.79,-30.15 876.11,-24.64"/>
</a>
</g>
</g>
<!-- Node11 -->
<g id="Node000011" class="node">
<title>Node11</title>
<g id="a_Node000011"><a xlink:title=" ">
<polygon fill="#e0e0e0" stroke="#999999" points="949.12,-20 894.88,-20 894.88,0 949.12,0 949.12,-20"/>
<text text-anchor="middle" x="922" y="-6.5" font-family="Helvetica,sans-Serif" font-size="10.00">QWidget</text>
</a>
</g>
</g>
<!-- Node9&#45;&gt;Node11 -->
<g id="edge10_Node000009_Node000011" class="edge">
<title>Node9&#45;&gt;Node11</title>
<g id="a_edge10_Node000009_Node000011"><a xlink:title=" ">
<path fill="none" stroke="#63b8ff" d="M922,-55.59C922,-49.01 922,-39.96 922,-31.73"/>
<polygon fill="#63b8ff" stroke="#63b8ff" points="925.5,-31.81 922,-21.81 918.5,-31.81 925.5,-31.81"/>
</a>
</g>
</g>
<!-- Node12 -->
<g id="Node000012" class="node">
<title>Node12</title>
<g id="a_Node000012"><a xlink:title=" ">
<polygon fill="#e0e0e0" stroke="#999999" points="1045.12,-20 966.88,-20 966.88,0 1045.12,0 1045.12,-20"/>
<text text-anchor="middle" x="1006" y="-6.5" font-family="Helvetica,sans-Serif" font-size="10.00">QMouseEvent</text>
</a>
</g>
</g>
<!-- Node9&#45;&gt;Node12 -->
<g id="edge11_Node000009_Node000012" class="edge">
<title>Node9&#45;&gt;Node12</title>
<g id="a_edge11_Node000009_Node000012"><a xlink:title=" ">
<path fill="none" stroke="#63b8ff" d="M936.63,-55.59C949.08,-47.59 967.22,-35.93 981.82,-26.54"/>
<polygon fill="#63b8ff" stroke="#63b8ff" points="983.46,-29.65 989.98,-21.3 979.68,-23.76 983.46,-29.65"/>
</a>
</g>
</g>
</g>
</svg>
