<?xml version="1.0" encoding="UTF-8" standalone="no"?>
<!DOCTYPE svg PUBLIC "-//W3C//DTD SVG 1.1//EN"
 "http://www.w3.org/Graphics/SVG/1.1/DTD/svg11.dtd">
<!-- Generated by graphviz version 12.2.1 (20241206.2353)
 -->
<!-- Title: TullipApp/x64/Debug/qt/uic/ui_DataBaseGUI.h Pages: 1 -->
<svg width="1945pt" height="96pt"
 viewBox="0.00 0.00 1944.88 96.00" xmlns="http://www.w3.org/2000/svg" xmlns:xlink="http://www.w3.org/1999/xlink">
<g id="graph0" class="graph" transform="scale(1 1) rotate(0) translate(4 92)">
<title>TullipApp/x64/Debug/qt/uic/ui_DataBaseGUI.h</title>
<!-- Node1 -->
<g id="Node000001" class="node">
<title>Node1</title>
<g id="a_Node000001"><a xlink:title=" ">
<polygon fill="#999999" stroke="#666666" points="1006.25,-88 877.75,-88 877.75,-56 1006.25,-56 1006.25,-88"/>
<text text-anchor="start" x="885.75" y="-74.5" font-family="Helvetica,sans-Serif" font-size="10.00">TullipApp/x64/Debug</text>
<text text-anchor="middle" x="942" y="-62.5" font-family="Helvetica,sans-Serif" font-size="10.00">/qt/uic/ui_DataBaseGUI.h</text>
</a>
</g>
</g>
<!-- Node2 -->
<g id="Node000002" class="node">
<title>Node2</title>
<g id="a_Node000002"><a xlink:title=" ">
<polygon fill="#e0e0e0" stroke="#999999" points="88,-20 0,-20 0,0 88,0 88,-20"/>
<text text-anchor="middle" x="44" y="-6.5" font-family="Helvetica,sans-Serif" font-size="10.00">QtCore/QVariant</text>
</a>
</g>
</g>
<!-- Node1&#45;&gt;Node2 -->
<g id="edge1_Node000001_Node000002" class="edge">
<title>Node1&#45;&gt;Node2</title>
<g id="a_edge1_Node000001_Node000002"><a xlink:title=" ">
<path fill="none" stroke="#63b8ff" d="M877.39,-69.48C737.48,-65.67 395.83,-53.59 99.88,-20.21"/>
<polygon fill="#63b8ff" stroke="#63b8ff" points="100.32,-16.74 89.99,-19.08 99.53,-23.69 100.32,-16.74"/>
</a>
</g>
</g>
<!-- Node3 -->
<g id="Node000003" class="node">
<title>Node3</title>
<g id="a_Node000003"><a xlink:title=" ">
<polygon fill="#e0e0e0" stroke="#999999" points="185.88,-20 106.12,-20 106.12,0 185.88,0 185.88,-20"/>
<text text-anchor="middle" x="146" y="-6.5" font-family="Helvetica,sans-Serif" font-size="10.00">QtGui/QAction</text>
</a>
</g>
</g>
<!-- Node1&#45;&gt;Node3 -->
<g id="edge2_Node000001_Node000003" class="edge">
<title>Node1&#45;&gt;Node3</title>
<g id="a_edge2_Node000001_Node000003"><a xlink:title=" ">
<path fill="none" stroke="#63b8ff" d="M877.47,-69.15C749.44,-64.92 454.14,-52.42 197.32,-20.3"/>
<polygon fill="#63b8ff" stroke="#63b8ff" points="198.14,-16.88 187.78,-19.1 197.26,-23.82 198.14,-16.88"/>
</a>
</g>
</g>
<!-- Node4 -->
<g id="Node000004" class="node">
<title>Node4</title>
<g id="a_Node000004"><a xlink:title=" ">
<polygon fill="#e0e0e0" stroke="#999999" points="324.5,-20 203.5,-20 203.5,0 324.5,0 324.5,-20"/>
<text text-anchor="middle" x="264" y="-6.5" font-family="Helvetica,sans-Serif" font-size="10.00">QtWidgets/QApplication</text>
</a>
</g>
</g>
<!-- Node1&#45;&gt;Node4 -->
<g id="edge3_Node000001_Node000004" class="edge">
<title>Node1&#45;&gt;Node4</title>
<g id="a_edge3_Node000001_Node000004"><a xlink:title=" ">
<path fill="none" stroke="#63b8ff" d="M877.46,-66.58C768.19,-58.88 539.52,-41.83 336.13,-20.3"/>
<polygon fill="#63b8ff" stroke="#63b8ff" points="336.75,-16.84 326.44,-19.26 336.01,-23.8 336.75,-16.84"/>
</a>
</g>
</g>
<!-- Node5 -->
<g id="Node000005" class="node">
<title>Node5</title>
<g id="a_Node000005"><a xlink:title=" ">
<polygon fill="#e0e0e0" stroke="#999999" points="463.88,-20 342.12,-20 342.12,0 463.88,0 463.88,-20"/>
<text text-anchor="middle" x="403" y="-6.5" font-family="Helvetica,sans-Serif" font-size="10.00">QtWidgets/QComboBox</text>
</a>
</g>
</g>
<!-- Node1&#45;&gt;Node5 -->
<g id="edge4_Node000001_Node000005" class="edge">
<title>Node1&#45;&gt;Node5</title>
<g id="a_edge4_Node000001_Node000005"><a xlink:title=" ">
<path fill="none" stroke="#63b8ff" d="M877.47,-64.39C789.22,-55.25 625.6,-38 475.33,-20.26"/>
<polygon fill="#63b8ff" stroke="#63b8ff" points="475.92,-16.8 465.58,-19.1 475.1,-23.75 475.92,-16.8"/>
</a>
</g>
</g>
<!-- Node6 -->
<g id="Node000006" class="node">
<title>Node6</title>
<g id="a_Node000006"><a xlink:title=" ">
<polygon fill="#e0e0e0" stroke="#999999" points="602.12,-20 481.88,-20 481.88,0 602.12,0 602.12,-20"/>
<text text-anchor="middle" x="542" y="-6.5" font-family="Helvetica,sans-Serif" font-size="10.00">QtWidgets/QGridLayout</text>
</a>
</g>
</g>
<!-- Node1&#45;&gt;Node6 -->
<g id="edge5_Node000001_Node000006" class="edge">
<title>Node1&#45;&gt;Node6</title>
<g id="a_edge5_Node000001_Node000006"><a xlink:title=" ">
<path fill="none" stroke="#63b8ff" d="M877.29,-61.29C805.05,-50.46 688.47,-32.97 613.56,-21.73"/>
<polygon fill="#63b8ff" stroke="#63b8ff" points="614.27,-18.3 603.86,-20.28 613.23,-25.22 614.27,-18.3"/>
</a>
</g>
</g>
<!-- Node7 -->
<g id="Node000007" class="node">
<title>Node7</title>
<g id="a_Node000007"><a xlink:title=" ">
<polygon fill="#e0e0e0" stroke="#999999" points="728.12,-20 619.88,-20 619.88,0 728.12,0 728.12,-20"/>
<text text-anchor="middle" x="674" y="-6.5" font-family="Helvetica,sans-Serif" font-size="10.00">QtWidgets/QLineEdit</text>
</a>
</g>
</g>
<!-- Node1&#45;&gt;Node7 -->
<g id="edge6_Node000001_Node000007" class="edge">
<title>Node1&#45;&gt;Node7</title>
<g id="a_edge6_Node000001_Node000007"><a xlink:title=" ">
<path fill="none" stroke="#63b8ff" d="M877.47,-56.55C831.54,-46.27 770.57,-32.62 727.38,-22.95"/>
<polygon fill="#63b8ff" stroke="#63b8ff" points="728.26,-19.56 717.73,-20.79 726.73,-26.39 728.26,-19.56"/>
</a>
</g>
</g>
<!-- Node8 -->
<g id="Node000008" class="node">
<title>Node8</title>
<g id="a_Node000008"><a xlink:title=" ">
<polygon fill="#e0e0e0" stroke="#999999" points="875.62,-20 746.38,-20 746.38,0 875.62,0 875.62,-20"/>
<text text-anchor="middle" x="811" y="-6.5" font-family="Helvetica,sans-Serif" font-size="10.00">QtWidgets/QMainWindow</text>
</a>
</g>
</g>
<!-- Node1&#45;&gt;Node8 -->
<g id="edge7_Node000001_Node000008" class="edge">
<title>Node1&#45;&gt;Node8</title>
<g id="a_edge7_Node000001_Node000008"><a xlink:title=" ">
<path fill="none" stroke="#63b8ff" d="M908.26,-55.55C887.8,-46.17 861.87,-34.3 841.93,-25.17"/>
<polygon fill="#63b8ff" stroke="#63b8ff" points="843.47,-22.02 832.92,-21.04 840.55,-28.38 843.47,-22.02"/>
</a>
</g>
</g>
<!-- Node9 -->
<g id="Node000009" class="node">
<title>Node9</title>
<g id="a_Node000009"><a xlink:title=" ">
<polygon fill="#e0e0e0" stroke="#999999" points="990.5,-20 893.5,-20 893.5,0 990.5,0 990.5,-20"/>
<text text-anchor="middle" x="942" y="-6.5" font-family="Helvetica,sans-Serif" font-size="10.00">QtWidgets/QMenu</text>
</a>
</g>
</g>
<!-- Node1&#45;&gt;Node9 -->
<g id="edge8_Node000001_Node000009" class="edge">
<title>Node1&#45;&gt;Node9</title>
<g id="a_edge8_Node000001_Node000009"><a xlink:title=" ">
<path fill="none" stroke="#63b8ff" d="M942,-55.55C942,-48.34 942,-39.66 942,-31.88"/>
<polygon fill="#63b8ff" stroke="#63b8ff" points="945.5,-31.92 942,-21.92 938.5,-31.92 945.5,-31.92"/>
</a>
</g>
</g>
<!-- Node10 -->
<g id="Node000010" class="node">
<title>Node10</title>
<g id="a_Node000010"><a xlink:title=" ">
<polygon fill="#e0e0e0" stroke="#999999" points="1121,-20 1009,-20 1009,0 1121,0 1121,-20"/>
<text text-anchor="middle" x="1065" y="-6.5" font-family="Helvetica,sans-Serif" font-size="10.00">QtWidgets/QMenuBar</text>
</a>
</g>
</g>
<!-- Node1&#45;&gt;Node10 -->
<g id="edge9_Node000001_Node000010" class="edge">
<title>Node1&#45;&gt;Node10</title>
<g id="a_edge9_Node000001_Node000010"><a xlink:title=" ">
<path fill="none" stroke="#63b8ff" d="M973.68,-55.55C992.72,-46.26 1016.79,-34.52 1035.44,-25.42"/>
<polygon fill="#63b8ff" stroke="#63b8ff" points="1036.9,-28.6 1044.35,-21.07 1033.83,-22.31 1036.9,-28.6"/>
</a>
</g>
</g>
<!-- Node11 -->
<g id="Node000011" class="node">
<title>Node11</title>
<g id="a_Node000011"><a xlink:title=" ">
<polygon fill="#e0e0e0" stroke="#999999" points="1263,-20 1139,-20 1139,0 1263,0 1263,-20"/>
<text text-anchor="middle" x="1201" y="-6.5" font-family="Helvetica,sans-Serif" font-size="10.00">QtWidgets/QPushButton</text>
</a>
</g>
</g>
<!-- Node1&#45;&gt;Node11 -->
<g id="edge10_Node000001_Node000011" class="edge">
<title>Node1&#45;&gt;Node11</title>
<g id="a_edge10_Node000001_Node000011"><a xlink:title=" ">
<path fill="none" stroke="#63b8ff" d="M1006.69,-56.01C1050.65,-45.83 1108.04,-32.53 1149.03,-23.04"/>
<polygon fill="#63b8ff" stroke="#63b8ff" points="1149.7,-26.48 1158.66,-20.81 1148.13,-19.66 1149.7,-26.48"/>
</a>
</g>
</g>
<!-- Node12 -->
<g id="Node000012" class="node">
<title>Node12</title>
<g id="a_Node000012"><a xlink:title=" ">
<polygon fill="#e0e0e0" stroke="#999999" points="1399,-20 1281,-20 1281,0 1399,0 1399,-20"/>
<text text-anchor="middle" x="1340" y="-6.5" font-family="Helvetica,sans-Serif" font-size="10.00">QtWidgets/QScrollArea</text>
</a>
</g>
</g>
<!-- Node1&#45;&gt;Node12 -->
<g id="edge11_Node000001_Node000012" class="edge">
<title>Node1&#45;&gt;Node12</title>
<g id="a_edge11_Node000001_Node000012"><a xlink:title=" ">
<path fill="none" stroke="#63b8ff" d="M1006.39,-61.29C1078.48,-50.43 1194.94,-32.87 1269.45,-21.64"/>
<polygon fill="#63b8ff" stroke="#63b8ff" points="1269.72,-25.13 1279.08,-20.18 1268.67,-18.21 1269.72,-25.13"/>
</a>
</g>
</g>
<!-- Node13 -->
<g id="Node000013" class="node">
<title>Node13</title>
<g id="a_Node000013"><a xlink:title=" ">
<polygon fill="#e0e0e0" stroke="#999999" points="1533.25,-20 1416.75,-20 1416.75,0 1533.25,0 1533.25,-20"/>
<text text-anchor="middle" x="1475" y="-6.5" font-family="Helvetica,sans-Serif" font-size="10.00">QtWidgets/QStatusBar</text>
</a>
</g>
</g>
<!-- Node1&#45;&gt;Node13 -->
<g id="edge12_Node000001_Node000013" class="edge">
<title>Node1&#45;&gt;Node13</title>
<g id="a_edge12_Node000001_Node000013"><a xlink:title=" ">
<path fill="none" stroke="#63b8ff" d="M1006.51,-64.45C1094.31,-55.41 1256.63,-38.31 1405.4,-20.29"/>
<polygon fill="#63b8ff" stroke="#63b8ff" points="1405.54,-23.8 1415.04,-19.12 1404.69,-16.85 1405.54,-23.8"/>
</a>
</g>
</g>
<!-- Node14 -->
<g id="Node000014" class="node">
<title>Node14</title>
<g id="a_Node000014"><a xlink:title=" ">
<polygon fill="#e0e0e0" stroke="#999999" points="1670.75,-20 1551.25,-20 1551.25,0 1670.75,0 1670.75,-20"/>
<text text-anchor="middle" x="1611" y="-6.5" font-family="Helvetica,sans-Serif" font-size="10.00">QtWidgets/QTabWidget</text>
</a>
</g>
</g>
<!-- Node1&#45;&gt;Node14 -->
<g id="edge13_Node000001_Node000014" class="edge">
<title>Node1&#45;&gt;Node14</title>
<g id="a_edge13_Node000001_Node000014"><a xlink:title=" ">
<path fill="none" stroke="#63b8ff" d="M1006.47,-66.47C1114.41,-58.69 1338.84,-41.6 1539.46,-20.23"/>
<polygon fill="#63b8ff" stroke="#63b8ff" points="1539.73,-23.72 1549.3,-19.17 1538.99,-16.76 1539.73,-23.72"/>
</a>
</g>
</g>
<!-- Node15 -->
<g id="Node000015" class="node">
<title>Node15</title>
<g id="a_Node000015"><a xlink:title=" ">
<polygon fill="#e0e0e0" stroke="#999999" points="1815.12,-20 1688.88,-20 1688.88,0 1815.12,0 1815.12,-20"/>
<text text-anchor="middle" x="1752" y="-6.5" font-family="Helvetica,sans-Serif" font-size="10.00">QtWidgets/QVBoxLayout</text>
</a>
</g>
</g>
<!-- Node1&#45;&gt;Node15 -->
<g id="edge14_Node000001_Node000015" class="edge">
<title>Node1&#45;&gt;Node15</title>
<g id="a_edge14_Node000001_Node000015"><a xlink:title=" ">
<path fill="none" stroke="#63b8ff" d="M1006.26,-67.76C1132.66,-61.12 1422.71,-44.6 1677.1,-20.23"/>
<polygon fill="#63b8ff" stroke="#63b8ff" points="1677.29,-23.73 1686.91,-19.29 1676.62,-16.76 1677.29,-23.73"/>
</a>
</g>
</g>
<!-- Node16 -->
<g id="Node000016" class="node">
<title>Node16</title>
<g id="a_Node000016"><a xlink:title=" ">
<polygon fill="#e0e0e0" stroke="#999999" points="1936.88,-20 1833.12,-20 1833.12,0 1936.88,0 1936.88,-20"/>
<text text-anchor="middle" x="1885" y="-6.5" font-family="Helvetica,sans-Serif" font-size="10.00">QtWidgets/QWidget</text>
</a>
</g>
</g>
<!-- Node1&#45;&gt;Node16 -->
<g id="edge15_Node000001_Node000016" class="edge">
<title>Node1&#45;&gt;Node16</title>
<g id="a_edge15_Node000001_Node000016"><a xlink:title=" ">
<path fill="none" stroke="#63b8ff" d="M1006.62,-69.23C1150.91,-64.84 1510.47,-51.57 1821.74,-20.14"/>
<polygon fill="#63b8ff" stroke="#63b8ff" points="1821.7,-23.66 1831.29,-19.17 1820.99,-16.7 1821.7,-23.66"/>
</a>
</g>
</g>
</g>
</svg>
