<?xml version="1.0" encoding="UTF-8" standalone="no"?>
<!DOCTYPE svg PUBLIC "-//W3C//DTD SVG 1.1//EN"
 "http://www.w3.org/Graphics/SVG/1.1/DTD/svg11.dtd">
<!-- Generated by graphviz version 12.2.1 (20241206.2353)
 -->
<!-- Title: TullipApp/x64/Debug/qt/uic/ui_ChildCheckBox.h Pages: 1 -->
<svg width="609pt" height="300pt"
 viewBox="0.00 0.00 609.38 300.00" xmlns="http://www.w3.org/2000/svg" xmlns:xlink="http://www.w3.org/1999/xlink">
<g id="graph0" class="graph" transform="scale(1 1) rotate(0) translate(4 296)">
<title>TullipApp/x64/Debug/qt/uic/ui_ChildCheckBox.h</title>
<!-- Node1 -->
<g id="Node000001" class="node">
<title>Node1</title>
<g id="a_Node000001"><a xlink:title=" ">
<polygon fill="#999999" stroke="#666666" points="425.5,-292 290.25,-292 290.25,-260 425.5,-260 425.5,-292"/>
<text text-anchor="start" x="298.25" y="-278.5" font-family="Helvetica,sans-Serif" font-size="10.00">TullipApp/x64/Debug</text>
<text text-anchor="middle" x="357.88" y="-266.5" font-family="Helvetica,sans-Serif" font-size="10.00">/qt/uic/ui_ChildCheckBox.h</text>
</a>
</g>
</g>
<!-- Node2 -->
<g id="Node000002" class="node">
<title>Node2</title>
<g id="a_Node000002"><a xlink:href="_child_check_box_8h.html" target="_top" xlink:title="Defines the ChildCheckBox class for managing a checkbox widget for a child.">
<polygon fill="white" stroke="#666666" points="425.88,-224 289.88,-224 289.88,-204 425.88,-204 425.88,-224"/>
<text text-anchor="middle" x="357.88" y="-210.5" font-family="Helvetica,sans-Serif" font-size="10.00">TullipApp/ChildCheckBox.h</text>
</a>
</g>
</g>
<!-- Node1&#45;&gt;Node2 -->
<g id="edge1_Node000001_Node000002" class="edge">
<title>Node1&#45;&gt;Node2</title>
<g id="a_edge1_Node000001_Node000002"><a xlink:title=" ">
<path fill="none" stroke="#63b8ff" d="M357.88,-248.08C357.88,-239.6 357.88,-230.8 357.88,-224.41"/>
<polygon fill="#63b8ff" stroke="#63b8ff" points="354.38,-248.03 357.88,-258.03 361.38,-248.03 354.38,-248.03"/>
</a>
</g>
</g>
<!-- Node3 -->
<g id="Node000003" class="node">
<title>Node3</title>
<g id="a_Node000003"><a xlink:href="_child_check_box_8cpp.html" target="_top" xlink:title=" ">
<polygon fill="white" stroke="#666666" points="278.12,-162 131.62,-162 131.62,-142 278.12,-142 278.12,-162"/>
<text text-anchor="middle" x="204.88" y="-148.5" font-family="Helvetica,sans-Serif" font-size="10.00">TullipApp/ChildCheckBox.cpp</text>
</a>
</g>
</g>
<!-- Node2&#45;&gt;Node3 -->
<g id="edge2_Node000002_Node000003" class="edge">
<title>Node2&#45;&gt;Node3</title>
<g id="a_edge2_Node000002_Node000003"><a xlink:title=" ">
<path fill="none" stroke="#63b8ff" d="M323.55,-199.54C294.74,-188.24 254.31,-172.39 228.87,-162.41"/>
<polygon fill="#63b8ff" stroke="#63b8ff" points="321.97,-202.68 332.56,-203.07 324.53,-196.16 321.97,-202.68"/>
</a>
</g>
</g>
<!-- Node4 -->
<g id="Node000004" class="node">
<title>Node4</title>
<g id="a_Node000004"><a xlink:href="_parent_dialog_8h.html" target="_top" xlink:title="Defines the ParentDialog class for managing parent&#45;related information.">
<polygon fill="white" stroke="#666666" points="419.88,-162 295.88,-162 295.88,-142 419.88,-142 419.88,-162"/>
<text text-anchor="middle" x="357.88" y="-148.5" font-family="Helvetica,sans-Serif" font-size="10.00">TullipApp/ParentDialog.h</text>
</a>
</g>
</g>
<!-- Node2&#45;&gt;Node4 -->
<g id="edge3_Node000002_Node000004" class="edge">
<title>Node2&#45;&gt;Node4</title>
<g id="a_edge3_Node000002_Node000004"><a xlink:title=" ">
<path fill="none" stroke="#63b8ff" d="M357.88,-192.25C357.88,-181.97 357.88,-170.09 357.88,-162.11"/>
<polygon fill="#63b8ff" stroke="#63b8ff" points="354.38,-192.11 357.88,-202.11 361.38,-192.11 354.38,-192.11"/>
</a>
</g>
</g>
<!-- Node11 -->
<g id="Node000011" class="node">
<title>Node11</title>
<g id="a_Node000011"><a xlink:href="moc___child_check_box_8cpp.html" target="_top" xlink:title=" ">
<polygon fill="white" stroke="#666666" points="601.38,-168 438.38,-168 438.38,-136 601.38,-136 601.38,-168"/>
<text text-anchor="start" x="446.38" y="-154.5" font-family="Helvetica,sans-Serif" font-size="10.00">TullipApp/x64/Debug</text>
<text text-anchor="middle" x="519.88" y="-142.5" font-family="Helvetica,sans-Serif" font-size="10.00">/qt/moc/moc_ChildCheckBox.cpp</text>
</a>
</g>
</g>
<!-- Node2&#45;&gt;Node11 -->
<g id="edge10_Node000002_Node000011" class="edge">
<title>Node2&#45;&gt;Node11</title>
<g id="a_edge10_Node000002_Node000011"><a xlink:title=" ">
<path fill="none" stroke="#63b8ff" d="M393.65,-199.75C418.57,-190.52 451.9,-178.18 478.05,-168.49"/>
<polygon fill="#63b8ff" stroke="#63b8ff" points="392.77,-196.34 384.61,-203.1 395.2,-202.91 392.77,-196.34"/>
</a>
</g>
</g>
<!-- Node5 -->
<g id="Node000005" class="node">
<title>Node5</title>
<g id="a_Node000005"><a xlink:href="_data_base_g_u_i_8h.html" target="_top" xlink:title="Defines the DataBaseGUI class for managing the graphical user interface of the database.">
<polygon fill="white" stroke="#666666" points="272.5,-94 143.25,-94 143.25,-74 272.5,-74 272.5,-94"/>
<text text-anchor="middle" x="207.88" y="-80.5" font-family="Helvetica,sans-Serif" font-size="10.00">TullipApp/DataBaseGUI.h</text>
</a>
</g>
</g>
<!-- Node4&#45;&gt;Node5 -->
<g id="edge4_Node000004_Node000005" class="edge">
<title>Node4&#45;&gt;Node5</title>
<g id="a_edge4_Node000004_Node000005"><a xlink:title=" ">
<path fill="none" stroke="#63b8ff" d="M325.93,-136.94C296.81,-124.13 254.59,-105.56 229.33,-94.44"/>
<polygon fill="#63b8ff" stroke="#63b8ff" points="324.44,-140.11 335,-140.93 327.25,-133.7 324.44,-140.11"/>
</a>
</g>
</g>
<!-- Node9 -->
<g id="Node000009" class="node">
<title>Node9</title>
<g id="a_Node000009"><a xlink:href="_parent_dialog_8cpp.html" target="_top" xlink:title=" ">
<polygon fill="white" stroke="#666666" points="425.12,-94 290.62,-94 290.62,-74 425.12,-74 425.12,-94"/>
<text text-anchor="middle" x="357.88" y="-80.5" font-family="Helvetica,sans-Serif" font-size="10.00">TullipApp/ParentDialog.cpp</text>
</a>
</g>
</g>
<!-- Node4&#45;&gt;Node9 -->
<g id="edge8_Node000004_Node000009" class="edge">
<title>Node4&#45;&gt;Node9</title>
<g id="a_edge8_Node000004_Node000009"><a xlink:title=" ">
<path fill="none" stroke="#63b8ff" d="M357.88,-130.28C357.88,-118.27 357.88,-103.74 357.88,-94.44"/>
<polygon fill="#63b8ff" stroke="#63b8ff" points="354.38,-130.03 357.88,-140.03 361.38,-130.03 354.38,-130.03"/>
</a>
</g>
</g>
<!-- Node10 -->
<g id="Node000010" class="node">
<title>Node10</title>
<g id="a_Node000010"><a xlink:href="moc___parent_dialog_8cpp.html" target="_top" xlink:title=" ">
<polygon fill="white" stroke="#666666" points="594.38,-100 443.38,-100 443.38,-68 594.38,-68 594.38,-100"/>
<text text-anchor="start" x="451.38" y="-86.5" font-family="Helvetica,sans-Serif" font-size="10.00">TullipApp/x64/Debug</text>
<text text-anchor="middle" x="518.88" y="-74.5" font-family="Helvetica,sans-Serif" font-size="10.00">/qt/moc/moc_ParentDialog.cpp</text>
</a>
</g>
</g>
<!-- Node4&#45;&gt;Node10 -->
<g id="edge9_Node000004_Node000010" class="edge">
<title>Node4&#45;&gt;Node10</title>
<g id="a_edge9_Node000004_Node000010"><a xlink:title=" ">
<path fill="none" stroke="#63b8ff" d="M391.49,-137.22C417.69,-126.48 454.07,-111.57 481.24,-100.43"/>
<polygon fill="#63b8ff" stroke="#63b8ff" points="390.27,-133.94 382.34,-140.97 392.92,-140.42 390.27,-133.94"/>
</a>
</g>
</g>
<!-- Node6 -->
<g id="Node000006" class="node">
<title>Node6</title>
<g id="a_Node000006"><a xlink:href="_data_base_g_u_i_8cpp.html" target="_top" xlink:title=" ">
<polygon fill="white" stroke="#666666" points="139.75,-26 0,-26 0,-6 139.75,-6 139.75,-26"/>
<text text-anchor="middle" x="69.88" y="-12.5" font-family="Helvetica,sans-Serif" font-size="10.00">TullipApp/DataBaseGUI.cpp</text>
</a>
</g>
</g>
<!-- Node5&#45;&gt;Node6 -->
<g id="edge5_Node000005_Node000006" class="edge">
<title>Node5&#45;&gt;Node6</title>
<g id="a_edge5_Node000005_Node000006"><a xlink:title=" ">
<path fill="none" stroke="#63b8ff" d="M177.77,-68.6C151.01,-55.8 112.65,-37.46 89.61,-26.44"/>
<polygon fill="#63b8ff" stroke="#63b8ff" points="176.21,-71.73 186.74,-72.89 179.23,-65.42 176.21,-71.73"/>
</a>
</g>
</g>
<!-- Node7 -->
<g id="Node000007" class="node">
<title>Node7</title>
<g id="a_Node000007"><a xlink:href="_main_8cpp.html" target="_top" xlink:title=" ">
<polygon fill="white" stroke="#666666" points="257.5,-26 158.25,-26 158.25,-6 257.5,-6 257.5,-26"/>
<text text-anchor="middle" x="207.88" y="-12.5" font-family="Helvetica,sans-Serif" font-size="10.00">TullipApp/Main.cpp</text>
</a>
</g>
</g>
<!-- Node5&#45;&gt;Node7 -->
<g id="edge6_Node000005_Node000007" class="edge">
<title>Node5&#45;&gt;Node7</title>
<g id="a_edge6_Node000005_Node000007"><a xlink:title=" ">
<path fill="none" stroke="#63b8ff" d="M207.88,-62.28C207.88,-50.27 207.88,-35.74 207.88,-26.44"/>
<polygon fill="#63b8ff" stroke="#63b8ff" points="204.38,-62.03 207.88,-72.03 211.38,-62.03 204.38,-62.03"/>
</a>
</g>
</g>
<!-- Node8 -->
<g id="Node000008" class="node">
<title>Node8</title>
<g id="a_Node000008"><a xlink:href="moc___data_base_g_u_i_8cpp.html" target="_top" xlink:title=" ">
<polygon fill="white" stroke="#666666" points="432,-32 275.75,-32 275.75,0 432,0 432,-32"/>
<text text-anchor="start" x="283.75" y="-18.5" font-family="Helvetica,sans-Serif" font-size="10.00">TullipApp/x64/Debug</text>
<text text-anchor="middle" x="353.88" y="-6.5" font-family="Helvetica,sans-Serif" font-size="10.00">/qt/moc/moc_DataBaseGUI.cpp</text>
</a>
</g>
</g>
<!-- Node5&#45;&gt;Node8 -->
<g id="edge7_Node000005_Node000008" class="edge">
<title>Node5&#45;&gt;Node8</title>
<g id="a_edge7_Node000005_Node000008"><a xlink:title=" ">
<path fill="none" stroke="#63b8ff" d="M239,-68.93C262.71,-58.21 295.33,-43.47 319.75,-32.43"/>
<polygon fill="#63b8ff" stroke="#63b8ff" points="237.84,-65.61 230.17,-72.92 240.73,-71.99 237.84,-65.61"/>
</a>
</g>
</g>
</g>
</svg>
