<?xml version="1.0" encoding="UTF-8" standalone="no"?>
<!DOCTYPE svg PUBLIC "-//W3C//DTD SVG 1.1//EN"
 "http://www.w3.org/Graphics/SVG/1.1/DTD/svg11.dtd">
<!-- Generated by graphviz version 12.2.1 (20241206.2353)
 -->
<!-- Title: TullipApp/x64/Debug/qt/uic/ui_DialogButtonBottom.h Pages: 1 -->
<svg width="906pt" height="96pt"
 viewBox="0.00 0.00 905.88 96.00" xmlns="http://www.w3.org/2000/svg" xmlns:xlink="http://www.w3.org/1999/xlink">
<g id="graph0" class="graph" transform="scale(1 1) rotate(0) translate(4 92)">
<title>TullipApp/x64/Debug/qt/uic/ui_DialogButtonBottom.h</title>
<!-- Node1 -->
<g id="Node000001" class="node">
<title>Node1</title>
<g id="a_Node000001"><a xlink:title=" ">
<polygon fill="#999999" stroke="#666666" points="505.38,-88 350.62,-88 350.62,-56 505.38,-56 505.38,-88"/>
<text text-anchor="start" x="358.62" y="-74.5" font-family="Helvetica,sans-Serif" font-size="10.00">TullipApp/x64/Debug</text>
<text text-anchor="middle" x="428" y="-62.5" font-family="Helvetica,sans-Serif" font-size="10.00">/qt/uic/ui_DialogButtonBottom.h</text>
</a>
</g>
</g>
<!-- Node2 -->
<g id="Node000002" class="node">
<title>Node2</title>
<g id="a_Node000002"><a xlink:title=" ">
<polygon fill="#e0e0e0" stroke="#999999" points="88,-20 0,-20 0,0 88,0 88,-20"/>
<text text-anchor="middle" x="44" y="-6.5" font-family="Helvetica,sans-Serif" font-size="10.00">QtCore/QVariant</text>
</a>
</g>
</g>
<!-- Node1&#45;&gt;Node2 -->
<g id="edge1_Node000001_Node000002" class="edge">
<title>Node1&#45;&gt;Node2</title>
<g id="a_edge1_Node000001_Node000002"><a xlink:title=" ">
<path fill="none" stroke="#63b8ff" d="M350.37,-59.38C285.88,-49.65 191.4,-35.22 99.44,-20.38"/>
<polygon fill="#63b8ff" stroke="#63b8ff" points="100.16,-16.95 89.73,-18.81 99.04,-23.86 100.16,-16.95"/>
</a>
</g>
</g>
<!-- Node3 -->
<g id="Node000003" class="node">
<title>Node3</title>
<g id="a_Node000003"><a xlink:title=" ">
<polygon fill="#e0e0e0" stroke="#999999" points="227.5,-20 106.5,-20 106.5,0 227.5,0 227.5,-20"/>
<text text-anchor="middle" x="167" y="-6.5" font-family="Helvetica,sans-Serif" font-size="10.00">QtWidgets/QApplication</text>
</a>
</g>
</g>
<!-- Node1&#45;&gt;Node3 -->
<g id="edge2_Node000001_Node000003" class="edge">
<title>Node1&#45;&gt;Node3</title>
<g id="a_edge2_Node000001_Node000003"><a xlink:title=" ">
<path fill="none" stroke="#63b8ff" d="M360.79,-55.55C316.74,-45.42 260.02,-32.38 219.33,-23.03"/>
<polygon fill="#63b8ff" stroke="#63b8ff" points="220.31,-19.66 209.78,-20.84 218.75,-26.49 220.31,-19.66"/>
</a>
</g>
</g>
<!-- Node4 -->
<g id="Node000004" class="node">
<title>Node4</title>
<g id="a_Node000004"><a xlink:title=" ">
<polygon fill="#e0e0e0" stroke="#999999" points="346.38,-20 245.62,-20 245.62,0 346.38,0 346.38,-20"/>
<text text-anchor="middle" x="296" y="-6.5" font-family="Helvetica,sans-Serif" font-size="10.00">QtWidgets/QDialog</text>
</a>
</g>
</g>
<!-- Node1&#45;&gt;Node4 -->
<g id="edge3_Node000001_Node000004" class="edge">
<title>Node1&#45;&gt;Node4</title>
<g id="a_edge3_Node000001_Node000004"><a xlink:title=" ">
<path fill="none" stroke="#63b8ff" d="M394.01,-55.55C373.38,-46.17 347.26,-34.3 327.16,-25.17"/>
<polygon fill="#63b8ff" stroke="#63b8ff" points="328.63,-21.99 318.08,-21.03 325.73,-28.36 328.63,-21.99"/>
</a>
</g>
</g>
<!-- Node5 -->
<g id="Node000005" class="node">
<title>Node5</title>
<g id="a_Node000005"><a xlink:title=" ">
<polygon fill="#e0e0e0" stroke="#999999" points="491.5,-20 364.5,-20 364.5,0 491.5,0 491.5,-20"/>
<text text-anchor="middle" x="428" y="-6.5" font-family="Helvetica,sans-Serif" font-size="10.00">QtWidgets/QHBoxLayout</text>
</a>
</g>
</g>
<!-- Node1&#45;&gt;Node5 -->
<g id="edge4_Node000001_Node000005" class="edge">
<title>Node1&#45;&gt;Node5</title>
<g id="a_edge4_Node000001_Node000005"><a xlink:title=" ">
<path fill="none" stroke="#63b8ff" d="M428,-55.55C428,-48.34 428,-39.66 428,-31.88"/>
<polygon fill="#63b8ff" stroke="#63b8ff" points="431.5,-31.92 428,-21.92 424.5,-31.92 431.5,-31.92"/>
</a>
</g>
</g>
<!-- Node6 -->
<g id="Node000006" class="node">
<title>Node6</title>
<g id="a_Node000006"><a xlink:title=" ">
<polygon fill="#e0e0e0" stroke="#999999" points="634,-20 510,-20 510,0 634,0 634,-20"/>
<text text-anchor="middle" x="572" y="-6.5" font-family="Helvetica,sans-Serif" font-size="10.00">QtWidgets/QPushButton</text>
</a>
</g>
</g>
<!-- Node1&#45;&gt;Node6 -->
<g id="edge5_Node000001_Node000006" class="edge">
<title>Node1&#45;&gt;Node6</title>
<g id="a_edge5_Node000001_Node000006"><a xlink:title=" ">
<path fill="none" stroke="#63b8ff" d="M465.08,-55.55C487.9,-46.04 516.88,-33.97 538.91,-24.79"/>
<polygon fill="#63b8ff" stroke="#63b8ff" points="540.14,-28.07 548.02,-20.99 537.45,-21.61 540.14,-28.07"/>
</a>
</g>
</g>
<!-- Node7 -->
<g id="Node000007" class="node">
<title>Node7</title>
<g id="a_Node000007"><a xlink:title=" ">
<polygon fill="#e0e0e0" stroke="#999999" points="775.62,-20 652.38,-20 652.38,0 775.62,0 775.62,-20"/>
<text text-anchor="middle" x="714" y="-6.5" font-family="Helvetica,sans-Serif" font-size="10.00">QtWidgets/QSpacerItem</text>
</a>
</g>
</g>
<!-- Node1&#45;&gt;Node7 -->
<g id="edge6_Node000001_Node000007" class="edge">
<title>Node1&#45;&gt;Node7</title>
<g id="a_edge6_Node000001_Node000007"><a xlink:title=" ">
<path fill="none" stroke="#63b8ff" d="M501.65,-55.55C550.22,-45.36 612.87,-32.22 657.51,-22.85"/>
<polygon fill="#63b8ff" stroke="#63b8ff" points="658.18,-26.29 667.25,-20.81 656.75,-19.43 658.18,-26.29"/>
</a>
</g>
</g>
<!-- Node8 -->
<g id="Node000008" class="node">
<title>Node8</title>
<g id="a_Node000008"><a xlink:title=" ">
<polygon fill="#e0e0e0" stroke="#999999" points="897.88,-20 794.12,-20 794.12,0 897.88,0 897.88,-20"/>
<text text-anchor="middle" x="846" y="-6.5" font-family="Helvetica,sans-Serif" font-size="10.00">QtWidgets/QWidget</text>
</a>
</g>
</g>
<!-- Node1&#45;&gt;Node8 -->
<g id="edge7_Node000001_Node000008" class="edge">
<title>Node1&#45;&gt;Node8</title>
<g id="a_edge7_Node000001_Node000008"><a xlink:title=" ">
<path fill="none" stroke="#63b8ff" d="M505.66,-60.01C575.45,-50.11 681.06,-35.07 782.67,-20.33"/>
<polygon fill="#63b8ff" stroke="#63b8ff" points="782.87,-23.84 792.26,-18.94 781.86,-16.91 782.87,-23.84"/>
</a>
</g>
</g>
</g>
</svg>
