<?xml version="1.0" encoding="UTF-8" standalone="no"?>
<!DOCTYPE svg PUBLIC "-//W3C//DTD SVG 1.1//EN"
 "http://www.w3.org/Graphics/SVG/1.1/DTD/svg11.dtd">
<!-- Generated by graphviz version 12.2.1 (20241206.2353)
 -->
<!-- Title: TullipApp/x64/Debug/qt/uic/ui_ParentDialog.h Pages: 1 -->
<svg width="1535pt" height="96pt"
 viewBox="0.00 0.00 1534.88 96.00" xmlns="http://www.w3.org/2000/svg" xmlns:xlink="http://www.w3.org/1999/xlink">
<g id="graph0" class="graph" transform="scale(1 1) rotate(0) translate(4 92)">
<title>TullipApp/x64/Debug/qt/uic/ui_ParentDialog.h</title>
<!-- Node1 -->
<g id="Node000001" class="node">
<title>Node1</title>
<g id="a_Node000001"><a xlink:title=" ">
<polygon fill="#999999" stroke="#666666" points="807.62,-88 684.38,-88 684.38,-56 807.62,-56 807.62,-88"/>
<text text-anchor="start" x="692.38" y="-74.5" font-family="Helvetica,sans-Serif" font-size="10.00">TullipApp/x64/Debug</text>
<text text-anchor="middle" x="746" y="-62.5" font-family="Helvetica,sans-Serif" font-size="10.00">/qt/uic/ui_ParentDialog.h</text>
</a>
</g>
</g>
<!-- Node2 -->
<g id="Node000002" class="node">
<title>Node2</title>
<g id="a_Node000002"><a xlink:title=" ">
<polygon fill="#e0e0e0" stroke="#999999" points="88,-20 0,-20 0,0 88,0 88,-20"/>
<text text-anchor="middle" x="44" y="-6.5" font-family="Helvetica,sans-Serif" font-size="10.00">QtCore/QVariant</text>
</a>
</g>
</g>
<!-- Node1&#45;&gt;Node2 -->
<g id="edge1_Node000001_Node000002" class="edge">
<title>Node1&#45;&gt;Node2</title>
<g id="a_edge1_Node000001_Node000002"><a xlink:title=" ">
<path fill="none" stroke="#63b8ff" d="M684.07,-67.99C570.32,-62.05 320.27,-47.13 99.64,-20.23"/>
<polygon fill="#63b8ff" stroke="#63b8ff" points="100.35,-16.79 89.99,-19.04 99.49,-23.73 100.35,-16.79"/>
</a>
</g>
</g>
<!-- Node3 -->
<g id="Node000003" class="node">
<title>Node3</title>
<g id="a_Node000003"><a xlink:title=" ">
<polygon fill="#e0e0e0" stroke="#999999" points="227.5,-20 106.5,-20 106.5,0 227.5,0 227.5,-20"/>
<text text-anchor="middle" x="167" y="-6.5" font-family="Helvetica,sans-Serif" font-size="10.00">QtWidgets/QApplication</text>
</a>
</g>
</g>
<!-- Node1&#45;&gt;Node3 -->
<g id="edge2_Node000001_Node000003" class="edge">
<title>Node1&#45;&gt;Node3</title>
<g id="a_edge2_Node000001_Node000003"><a xlink:title=" ">
<path fill="none" stroke="#63b8ff" d="M683.92,-65.4C589.89,-56.78 405.47,-39.35 238.89,-20.31"/>
<polygon fill="#63b8ff" stroke="#63b8ff" points="239.78,-16.89 229.44,-19.22 238.98,-23.84 239.78,-16.89"/>
</a>
</g>
</g>
<!-- Node4 -->
<g id="Node000004" class="node">
<title>Node4</title>
<g id="a_Node000004"><a xlink:title=" ">
<polygon fill="#e0e0e0" stroke="#999999" points="366.88,-20 245.12,-20 245.12,0 366.88,0 366.88,-20"/>
<text text-anchor="middle" x="306" y="-6.5" font-family="Helvetica,sans-Serif" font-size="10.00">QtWidgets/QComboBox</text>
</a>
</g>
</g>
<!-- Node1&#45;&gt;Node4 -->
<g id="edge3_Node000001_Node000004" class="edge">
<title>Node1&#45;&gt;Node4</title>
<g id="a_edge3_Node000001_Node000004"><a xlink:title=" ">
<path fill="none" stroke="#63b8ff" d="M683.89,-62.53C603.49,-51.57 463.63,-32.5 378.47,-20.88"/>
<polygon fill="#63b8ff" stroke="#63b8ff" points="378.97,-17.42 368.58,-19.53 378.02,-24.35 378.97,-17.42"/>
</a>
</g>
</g>
<!-- Node5 -->
<g id="Node000005" class="node">
<title>Node5</title>
<g id="a_Node000005"><a xlink:title=" ">
<polygon fill="#e0e0e0" stroke="#999999" points="485.38,-20 384.62,-20 384.62,0 485.38,0 485.38,-20"/>
<text text-anchor="middle" x="435" y="-6.5" font-family="Helvetica,sans-Serif" font-size="10.00">QtWidgets/QDialog</text>
</a>
</g>
</g>
<!-- Node1&#45;&gt;Node5 -->
<g id="edge4_Node000001_Node000005" class="edge">
<title>Node1&#45;&gt;Node5</title>
<g id="a_edge4_Node000001_Node000005"><a xlink:title=" ">
<path fill="none" stroke="#63b8ff" d="M684.18,-59.07C629.28,-48.48 549.53,-33.1 495.14,-22.6"/>
<polygon fill="#63b8ff" stroke="#63b8ff" points="495.9,-19.18 485.42,-20.73 494.58,-26.06 495.9,-19.18"/>
</a>
</g>
</g>
<!-- Node6 -->
<g id="Node000006" class="node">
<title>Node6</title>
<g id="a_Node000006"><a xlink:title=" ">
<polygon fill="#e0e0e0" stroke="#999999" points="604.38,-20 503.62,-20 503.62,0 604.38,0 604.38,-20"/>
<text text-anchor="middle" x="554" y="-6.5" font-family="Helvetica,sans-Serif" font-size="10.00">QtWidgets/QFrame</text>
</a>
</g>
</g>
<!-- Node1&#45;&gt;Node6 -->
<g id="edge5_Node000001_Node000006" class="edge">
<title>Node1&#45;&gt;Node6</title>
<g id="a_edge5_Node000001_Node000006"><a xlink:title=" ">
<path fill="none" stroke="#63b8ff" d="M696.56,-55.55C665.13,-45.73 624.91,-33.16 595.22,-23.88"/>
<polygon fill="#63b8ff" stroke="#63b8ff" points="596.42,-20.59 585.83,-20.95 594.33,-27.27 596.42,-20.59"/>
</a>
</g>
</g>
<!-- Node7 -->
<g id="Node000007" class="node">
<title>Node7</title>
<g id="a_Node000007"><a xlink:title=" ">
<polygon fill="#e0e0e0" stroke="#999999" points="743.12,-20 622.88,-20 622.88,0 743.12,0 743.12,-20"/>
<text text-anchor="middle" x="683" y="-6.5" font-family="Helvetica,sans-Serif" font-size="10.00">QtWidgets/QGridLayout</text>
</a>
</g>
</g>
<!-- Node1&#45;&gt;Node7 -->
<g id="edge6_Node000001_Node000007" class="edge">
<title>Node1&#45;&gt;Node7</title>
<g id="a_edge6_Node000001_Node000007"><a xlink:title=" ">
<path fill="none" stroke="#63b8ff" d="M729.78,-55.55C721.03,-47.22 710.2,-36.91 701.17,-28.3"/>
<polygon fill="#63b8ff" stroke="#63b8ff" points="703.63,-25.81 693.97,-21.45 698.8,-30.88 703.63,-25.81"/>
</a>
</g>
</g>
<!-- Node8 -->
<g id="Node000008" class="node">
<title>Node8</title>
<g id="a_Node000008"><a xlink:title=" ">
<polygon fill="#e0e0e0" stroke="#999999" points="857.12,-20 760.88,-20 760.88,0 857.12,0 857.12,-20"/>
<text text-anchor="middle" x="809" y="-6.5" font-family="Helvetica,sans-Serif" font-size="10.00">QtWidgets/QLabel</text>
</a>
</g>
</g>
<!-- Node1&#45;&gt;Node8 -->
<g id="edge7_Node000001_Node000008" class="edge">
<title>Node1&#45;&gt;Node8</title>
<g id="a_edge7_Node000001_Node000008"><a xlink:title=" ">
<path fill="none" stroke="#63b8ff" d="M762.22,-55.55C770.97,-47.22 781.8,-36.91 790.83,-28.3"/>
<polygon fill="#63b8ff" stroke="#63b8ff" points="793.2,-30.88 798.03,-21.45 788.37,-25.81 793.2,-30.88"/>
</a>
</g>
</g>
<!-- Node9 -->
<g id="Node000009" class="node">
<title>Node9</title>
<g id="a_Node000009"><a xlink:title=" ">
<polygon fill="#e0e0e0" stroke="#999999" points="983.12,-20 874.88,-20 874.88,0 983.12,0 983.12,-20"/>
<text text-anchor="middle" x="929" y="-6.5" font-family="Helvetica,sans-Serif" font-size="10.00">QtWidgets/QLineEdit</text>
</a>
</g>
</g>
<!-- Node1&#45;&gt;Node9 -->
<g id="edge8_Node000001_Node000009" class="edge">
<title>Node1&#45;&gt;Node9</title>
<g id="a_edge8_Node000001_Node000009"><a xlink:title=" ">
<path fill="none" stroke="#63b8ff" d="M793.13,-55.55C822.95,-45.77 861.07,-33.27 889.34,-24"/>
<polygon fill="#63b8ff" stroke="#63b8ff" points="890.19,-27.41 898.6,-20.97 888.01,-20.76 890.19,-27.41"/>
</a>
</g>
</g>
<!-- Node10 -->
<g id="Node000010" class="node">
<title>Node10</title>
<g id="a_Node000010"><a xlink:title=" ">
<polygon fill="#e0e0e0" stroke="#999999" points="1125,-20 1001,-20 1001,0 1125,0 1125,-20"/>
<text text-anchor="middle" x="1063" y="-6.5" font-family="Helvetica,sans-Serif" font-size="10.00">QtWidgets/QPushButton</text>
</a>
</g>
</g>
<!-- Node1&#45;&gt;Node10 -->
<g id="edge9_Node000001_Node000010" class="edge">
<title>Node1&#45;&gt;Node10</title>
<g id="a_edge9_Node000001_Node000010"><a xlink:title=" ">
<path fill="none" stroke="#63b8ff" d="M807.87,-59.29C864.01,-48.66 946.29,-33.09 1002.11,-22.52"/>
<polygon fill="#63b8ff" stroke="#63b8ff" points="1002.59,-26 1011.77,-20.7 1001.29,-19.12 1002.59,-26"/>
</a>
</g>
</g>
<!-- Node11 -->
<g id="Node000011" class="node">
<title>Node11</title>
<g id="a_Node000011"><a xlink:title=" ">
<polygon fill="#e0e0e0" stroke="#999999" points="1261,-20 1143,-20 1143,0 1261,0 1261,-20"/>
<text text-anchor="middle" x="1202" y="-6.5" font-family="Helvetica,sans-Serif" font-size="10.00">QtWidgets/QScrollArea</text>
</a>
</g>
</g>
<!-- Node1&#45;&gt;Node11 -->
<g id="edge10_Node000001_Node000011" class="edge">
<title>Node1&#45;&gt;Node11</title>
<g id="a_edge10_Node000001_Node000011"><a xlink:title=" ">
<path fill="none" stroke="#63b8ff" d="M807.83,-62.89C882.08,-53.15 1010.73,-36.25 1131.39,-20.34"/>
<polygon fill="#63b8ff" stroke="#63b8ff" points="1131.71,-23.83 1141.16,-19.05 1130.79,-16.89 1131.71,-23.83"/>
</a>
</g>
</g>
<!-- Node12 -->
<g id="Node000012" class="node">
<title>Node12</title>
<g id="a_Node000012"><a xlink:title=" ">
<polygon fill="#e0e0e0" stroke="#999999" points="1405.12,-20 1278.88,-20 1278.88,0 1405.12,0 1405.12,-20"/>
<text text-anchor="middle" x="1342" y="-6.5" font-family="Helvetica,sans-Serif" font-size="10.00">QtWidgets/QVBoxLayout</text>
</a>
</g>
</g>
<!-- Node1&#45;&gt;Node12 -->
<g id="edge11_Node000001_Node000012" class="edge">
<title>Node1&#45;&gt;Node12</title>
<g id="a_edge11_Node000001_Node000012"><a xlink:title=" ">
<path fill="none" stroke="#63b8ff" d="M807.77,-65.54C903.71,-56.94 1094.65,-39.33 1267.08,-20.3"/>
<polygon fill="#63b8ff" stroke="#63b8ff" points="1267.35,-23.79 1276.9,-19.21 1266.58,-16.83 1267.35,-23.79"/>
</a>
</g>
</g>
<!-- Node13 -->
<g id="Node000013" class="node">
<title>Node13</title>
<g id="a_Node000013"><a xlink:title=" ">
<polygon fill="#e0e0e0" stroke="#999999" points="1526.88,-20 1423.12,-20 1423.12,0 1526.88,0 1526.88,-20"/>
<text text-anchor="middle" x="1475" y="-6.5" font-family="Helvetica,sans-Serif" font-size="10.00">QtWidgets/QWidget</text>
</a>
</g>
</g>
<!-- Node1&#45;&gt;Node13 -->
<g id="edge12_Node000001_Node000013" class="edge">
<title>Node1&#45;&gt;Node13</title>
<g id="a_edge12_Node000001_Node000013"><a xlink:title=" ">
<path fill="none" stroke="#63b8ff" d="M807.84,-67.73C924,-61.28 1182.97,-45.4 1411.58,-20.2"/>
<polygon fill="#63b8ff" stroke="#63b8ff" points="1411.73,-23.7 1421.28,-19.12 1410.96,-16.74 1411.73,-23.7"/>
</a>
</g>
</g>
</g>
</svg>
